<svg width="50" height="50" viewBox="0 0 50 50" fill="none" xmlns="http://www.w3.org/2000/svg">
<g clip-path="url(#clip0_1_3643)">
<path d="M24.9954 0.248698C5.0949 0.196459 0.107333 5.15915 0.0550944 25.0597C0.00285557 44.9602 4.96306 49.9478 24.8636 50C44.7641 50.0523 49.7541 45.0896 49.8064 25.1891C49.8586 5.2885 44.8959 0.300936 24.9954 0.248698ZM20.8486 38.7289C18.9653 38.7289 17.1242 38.1704 15.5583 37.1239C13.9923 36.0776 12.7718 34.5906 12.0511 32.8505C11.3304 31.1105 11.1418 29.1958 11.5092 27.3488C11.8766 25.5015 12.7836 23.8048 14.1153 22.4731C15.447 21.1413 17.1437 20.2344 18.9909 19.867C20.8381 19.4996 22.7527 19.6881 24.4927 20.4089C26.2327 21.1296 27.7198 22.3501 28.7663 23.916C29.8126 25.4821 30.371 27.3232 30.371 29.2065C30.3678 31.7309 29.3633 34.151 27.5783 35.9361C25.7932 37.7212 23.3731 38.7254 20.8486 38.7289ZM38.1447 38.3383H33.4805V16.5746H11.7143V11.9104H38.1447V38.3383Z" fill="black"/>
<path d="M20.8426 24.3483C19.8817 24.3483 18.9424 24.6332 18.1435 25.1669C17.3446 25.7008 16.7219 26.4595 16.3542 27.3473C15.9865 28.2351 15.8903 29.212 16.0777 30.1543C16.2652 31.0966 16.7279 31.9622 17.4073 32.6418C18.0868 33.3212 18.9524 33.7839 19.8948 33.9714C20.8372 34.1587 21.814 34.0625 22.7017 33.6948C23.5895 33.3271 24.3482 32.7045 24.8821 31.9055C25.416 31.1065 25.7008 30.1674 25.7008 29.2065C25.6995 27.9184 25.1871 26.6834 24.2764 25.7727C23.3656 24.8618 22.1307 24.3496 20.8426 24.3483Z" fill="black"/>
</g>
<defs>
<clipPath id="clip0_1_3643">
<rect width="50" height="50" fill="white"/>
</clipPath>
</defs>
</svg>
