<svg width="50" height="50" viewBox="0 0 50 50" fill="none" xmlns="http://www.w3.org/2000/svg">
<g clip-path="url(#clip0_1_3472)">
<path d="M15.1868 23.2203C15.0421 23.031 14.8511 22.8822 14.6321 22.7883C14.4131 22.6945 14.1736 22.6586 13.9367 22.6844C13.6998 22.7101 13.4736 22.7965 13.2799 22.9353C13.0862 23.074 12.9315 23.2603 12.8309 23.4763L0.892802 47.345C0.784048 47.5625 0.732698 47.8042 0.74363 48.0471C0.754563 48.2901 0.827414 48.5262 0.955272 48.7331C1.08312 48.94 1.26173 49.1108 1.47414 49.2292C1.68656 49.3477 1.92572 49.4099 2.16892 49.4099H18.7921C19.0583 49.4161 19.3206 49.3448 19.5471 49.2048C19.7736 49.0648 19.9547 48.862 20.0682 48.6211C23.654 41.2114 21.4809 29.945 15.1868 23.2203Z" fill="url(#paint0_linear_1_3472)"/>
<path d="M23.9447 1.51046C20.97 6.08745 19.2365 11.3592 18.9143 16.8084C18.592 22.2576 19.6921 27.6969 22.1066 32.5925L30.1208 48.6209C30.2392 48.8579 30.4214 49.0573 30.6467 49.1966C30.8722 49.3359 31.1319 49.4097 31.3969 49.4097H48.017C48.2603 49.4097 48.4994 49.3475 48.7118 49.229C48.9242 49.1106 49.1028 48.9399 49.2307 48.733C49.3585 48.5261 49.4314 48.2899 49.4423 48.047C49.4532 47.804 49.4019 47.5623 49.2932 47.3448C49.2932 47.3448 26.9335 2.62016 26.3715 1.50151C26.2604 1.2738 26.0873 1.08202 25.8723 0.948179C25.6571 0.814328 25.4086 0.743825 25.1553 0.74476C24.9019 0.745695 24.6539 0.81803 24.4398 0.953462C24.2257 1.0889 24.0541 1.28194 23.9447 1.51046Z" fill="#2684FF"/>
</g>
<defs>
<linearGradient id="paint0_linear_1_3472" x1="21.7294" y1="26.9039" x2="9.13087" y2="48.7256" gradientUnits="userSpaceOnUse">
<stop stop-color="#0052CC"/>
<stop offset="0.923" stop-color="#2684FF"/>
</linearGradient>
<clipPath id="clip0_1_3472">
<rect width="50" height="50" fill="white"/>
</clipPath>
</defs>
</svg>
