<svg width="50" height="51" viewBox="0 0 50 51" fill="none" xmlns="http://www.w3.org/2000/svg">
<g clip-path="url(#clip0_1_3460)">
<path d="M11.4424 0.465942C5.12296 0.465942 0 5.58892 0 11.9084C0 18.2279 5.12301 23.3509 11.4425 23.3509C17.7619 23.3509 22.8849 18.2279 22.8849 11.9084C22.8849 5.58887 17.7619 0.465942 11.4424 0.465942Z" fill="#DF3F40"/>
<path fill-rule="evenodd" clip-rule="evenodd" d="M26.6953 11.9084C26.6953 5.58887 31.8183 0.465942 38.1377 0.465942C44.4573 0.465942 49.5803 5.58887 49.5803 11.9083V23.2369C49.5803 23.2998 49.5293 23.3508 49.4662 23.3508H38.1377C31.8183 23.3508 26.6953 18.2279 26.6953 11.9084Z" fill="#00BCA6"/>
<path d="M0 38.6075C0 32.288 5.12296 27.165 11.4424 27.165C17.7619 27.165 22.8849 32.288 22.8849 38.6075V49.9359C22.8849 49.999 22.8339 50.05 22.771 50.05H11.4424C5.12296 50.05 0 44.927 0 38.6075Z" fill="#967DB8"/>
<path d="M26.6953 38.6075C26.6953 32.288 31.8183 27.165 38.1377 27.165C44.4573 27.165 49.5803 32.288 49.5803 38.6075V49.9359C49.5803 49.999 49.5293 50.05 49.4662 50.05H26.8091C26.7463 50.05 26.6953 49.999 26.6953 49.9359V38.6075Z" fill="#EDC500"/>
</g>
<defs>
<clipPath id="clip0_1_3460">
<rect width="50" height="50.4854" fill="white"/>
</clipPath>
</defs>
</svg>
