<svg width="74" height="26" viewBox="0 0 74 26" fill="none" xmlns="http://www.w3.org/2000/svg">
<g clip-path="url(#clip0_1_3450)">
<path fill-rule="evenodd" clip-rule="evenodd" d="M2.64172 12.9878C2.64172 7.30001 7.21665 2.67264 12.8392 2.67264C18.4625 2.67264 23.0371 7.30001 23.0371 12.9878C23.0371 18.6757 18.4625 23.3034 12.8392 23.3034C7.21665 23.3034 2.64172 18.6757 2.64172 12.9878ZM0 12.9877C0 20.1493 5.75971 25.9755 12.8392 25.9755C19.9195 25.9755 25.6792 20.1493 25.6792 12.9877C25.6792 5.82618 19.9195 0 12.8392 0C5.75971 0 0 5.82618 0 12.9877ZM49.5793 0.016403H46.7598L38.5461 21.7558L30.3145 0.016403H27.4769L37.3121 25.9746H38.5461H39.78L49.5793 0.016403ZM61.1605 2.6951C55.5379 2.6951 50.9629 7.32283 50.9629 13.0103C50.9629 18.6982 55.5379 23.3259 61.1605 23.3259C66.7834 23.3259 71.358 18.6982 71.358 13.0103C71.358 7.32283 66.7834 2.6951 61.1605 2.6951ZM61.1605 25.9985C54.081 25.9985 48.3209 20.1719 48.3209 13.0104C48.3209 5.84914 54.081 0.0225911 61.1605 0.0225911C68.2403 0.0225911 74 5.84914 74 13.0104C74 20.1719 68.2403 25.9985 61.1605 25.9985Z" fill="black"/>
<path fill-rule="evenodd" clip-rule="evenodd" d="M22.2812 26H26.2442V0H22.2812V26Z" fill="#EC008C"/>
</g>
<defs>
<clipPath id="clip0_1_3450">
<rect width="74" height="26" fill="white"/>
</clipPath>
</defs>
</svg>
