<svg width="76" height="26" viewBox="0 0 76 26" fill="none" xmlns="http://www.w3.org/2000/svg">
<g clip-path="url(#clip0_1_3447)">
<path fill-rule="evenodd" clip-rule="evenodd" d="M2.71312 12.9878C2.71312 7.30001 7.41169 2.67264 13.1862 2.67264C18.9615 2.67264 23.6597 7.30001 23.6597 12.9878C23.6597 18.6757 18.9615 23.3034 13.1862 23.3034C7.41169 23.3034 2.71312 18.6757 2.71312 12.9878ZM0 12.9877C0 20.1493 5.91538 25.9755 13.1862 25.9755C20.4578 25.9755 26.3732 20.1493 26.3732 12.9877C26.3732 5.82618 20.4578 0 13.1862 0C5.91538 0 0 5.82618 0 12.9877ZM50.9192 0.016403H48.0236L39.5879 21.7558L31.1338 0.016403H28.2195L38.3206 25.9746H39.5879H40.8551L50.9192 0.016403ZM62.8135 2.6951C57.0389 2.6951 52.3403 7.32283 52.3403 13.0103C52.3403 18.6982 57.0389 23.3259 62.8135 23.3259C68.5883 23.3259 73.2866 18.6982 73.2866 13.0103C73.2866 7.32283 68.5883 2.6951 62.8135 2.6951ZM62.8135 25.9985C55.5426 25.9985 49.6269 20.1719 49.6269 13.0104C49.6269 5.84914 55.5426 0.0225911 62.8135 0.0225911C70.0846 0.0225911 76 5.84914 76 13.0104C76 20.1719 70.0846 25.9985 62.8135 25.9985Z" fill="black"/>
<path fill-rule="evenodd" clip-rule="evenodd" d="M22.8828 26H26.9529V0H22.8828V26Z" fill="#EC008C"/>
</g>
<defs>
<clipPath id="clip0_1_3447">
<rect width="76" height="26" fill="white"/>
</clipPath>
</defs>
</svg>
