<svg width="50" height="39" viewBox="0 0 50 39" fill="none" xmlns="http://www.w3.org/2000/svg">
<g clip-path="url(#clip0_1_3354)">
<path d="M32.7614 3.07692C30.8912 5.57692 30.4393 6.40987 28.6341 6.40987H1.67969V38.4615H12.2554C14.6412 38.4615 16.9621 37.3077 18.4453 35.3846C20.3805 32.821 20.6376 32.0517 22.5078 32.0517H49.527V0H38.8864C36.5006 0 34.1808 1.15385 32.7614 3.07692ZM41.1435 23.7825H29.8587C27.408 23.7825 25.152 24.8077 23.6689 26.7944C21.7337 29.3594 21.3468 30.1287 19.5414 30.1287H9.99819V14.744H21.283C23.7326 14.744 25.9897 13.5901 27.473 11.6671C29.408 9.16708 29.9237 8.39785 31.6641 8.39785H41.1435V23.7825Z" fill="black"/>
</g>
<defs>
<clipPath id="clip0_1_3354">
<rect width="50" height="38.4615" fill="white"/>
</clipPath>
</defs>
</svg>
