<svg width="50" height="57" viewBox="0 0 50 57" fill="none" xmlns="http://www.w3.org/2000/svg">
<path d="M17.078 38.9455C15.6408 37.4952 14.5038 35.7755 13.7322 33.8849C12.9606 31.9945 12.5695 29.9703 12.5814 27.9285C12.5762 25.8867 12.9781 23.8644 13.7636 21.9797C14.5491 20.0951 15.7025 18.386 17.1562 16.9523C17.779 16.3988 18.2822 15.724 18.6351 14.9692C18.9879 14.2144 19.183 13.3956 19.2084 12.5628C19.2338 11.73 19.0889 10.9007 18.7827 10.1259C18.4765 9.35102 18.0153 8.6468 17.4274 8.05639C16.8395 7.46595 16.1373 7.00173 15.3638 6.69214C14.5903 6.38255 13.7617 6.23408 12.9288 6.25588C12.0959 6.27765 11.2762 6.46921 10.5199 6.81881C9.76359 7.1684 9.08662 7.6687 8.5304 8.28904C3.30594 13.4827 0.358389 20.5388 0.336065 27.9055C0.31374 35.2721 3.21847 42.3462 8.41135 47.5714C8.96574 48.1908 9.6405 48.6908 10.3945 49.0411C11.1485 49.3915 11.9658 49.5843 12.7968 49.6085C13.6278 49.6323 14.455 49.4867 15.2279 49.1806C16.0008 48.8745 16.7034 48.4142 17.2926 47.8279C17.8818 47.2415 18.3454 46.5411 18.6552 45.7697C18.9649 44.9983 19.1143 44.1717 19.0942 43.3404C19.0742 42.5095 18.8851 41.6911 18.5384 40.9357C18.1918 40.1799 17.6949 39.5027 17.078 38.9455Z" fill="#FFD500"/>
<path d="M17.16 16.9524C20.0898 14.0519 24.0501 12.4315 28.1728 12.4462C32.2954 12.4609 36.244 14.1095 39.1532 17.0307C39.7056 17.6567 40.3804 18.1631 41.1355 18.5188C41.891 18.8744 42.711 19.0718 43.5457 19.0988C44.3801 19.1258 45.2114 18.9819 45.9882 18.6758C46.7648 18.3697 47.4709 17.908 48.0627 17.319C48.6546 16.73 49.1195 16.0262 49.4294 15.2509C49.7389 14.4755 49.8869 13.6451 49.8638 12.8104C49.8406 11.9758 49.6471 11.1548 49.295 10.3977C48.943 9.64066 48.4399 8.96362 47.8165 8.40822C45.2546 5.81342 42.2056 3.75026 38.844 2.33723C35.4828 0.924202 31.8752 0.189156 28.2289 0.174302C24.5826 0.159448 20.9693 0.86508 17.5965 2.25067C14.2236 3.63628 11.1578 5.67451 8.57494 8.24835C7.94994 8.79907 7.44389 9.47148 7.08776 10.2245C6.73164 10.9775 6.53293 11.7953 6.50375 12.6278C6.4746 13.4603 6.61565 14.29 6.91824 15.066C7.22082 15.8421 7.67858 16.5483 8.26355 17.1414C8.84848 17.7344 9.54827 18.2019 10.3201 18.5151C11.092 18.8284 11.9196 18.9808 12.7525 18.9631C13.5852 18.9454 14.4057 18.758 15.1635 18.4123C15.9214 18.0665 16.6008 17.5697 17.16 16.9524Z" fill="#5CAAFF"/>
<path d="M39.117 39.0238C37.6673 40.4639 35.9476 41.6037 34.0564 42.3782C32.1653 43.1527 30.1401 43.5466 28.0966 43.5374C26.0536 43.5405 24.0306 43.1357 22.1458 42.3473C20.2611 41.5588 18.5526 40.4024 17.1204 38.9456C16.5669 38.3228 15.8921 37.8194 15.1373 37.4666C14.3825 37.1139 13.5637 36.9187 12.7309 36.8932C11.898 36.868 11.0688 37.0129 10.294 37.319C9.5191 37.6252 8.81492 38.0864 8.22448 38.6745C7.63407 39.2622 7.16985 39.9643 6.86022 40.7381C6.55063 41.5115 6.4022 42.3401 6.42397 43.1731C6.44573 44.0058 6.6373 44.8255 6.98689 45.582C7.33652 46.3381 7.83679 47.0149 8.45713 47.5714C11.0233 50.166 14.0763 52.2286 17.4412 53.6411C20.806 55.0537 24.4165 55.7881 28.0658 55.8027C31.7151 55.8173 35.3312 55.1115 38.7074 53.7258C42.0833 52.3401 45.1527 50.302 47.7394 47.7279C48.3108 47.1615 48.7653 46.4884 49.0768 45.7466C49.388 45.0047 49.5503 44.2092 49.554 43.4047C49.5578 42.6003 49.403 41.8027 49.0989 41.0581C48.7945 40.3136 48.3465 39.636 47.7802 39.0646C47.2142 38.4928 46.5408 38.0388 45.7993 37.7272C45.0574 37.416 44.2615 37.2537 43.4571 37.25C42.6527 37.2462 41.8554 37.4007 41.1105 37.7051C40.3659 38.0095 39.6884 38.4575 39.117 39.0238Z" fill="#E8505D"/>
<path d="M17.1601 16.9524C16.3019 17.8095 15.2085 18.3925 14.0186 18.6273C12.8287 18.862 11.5959 18.7381 10.4765 18.2712C9.35708 17.8043 8.40161 17.0155 7.7312 16.0047C7.06083 14.994 6.70572 13.8069 6.711 12.5941C6.71623 11.3812 7.08161 10.1973 7.76076 9.19236C8.43991 8.18749 9.40219 7.40695 10.5256 6.94977C11.649 6.49259 12.8829 6.3794 14.0707 6.6245C15.2585 6.86963 16.3468 7.46202 17.1975 8.32654C18.3308 9.47831 18.9628 11.0314 18.9558 12.6472C18.9488 14.263 18.3033 15.8105 17.1601 16.9524Z" fill="#3E97FF"/>
<path d="M17.0412 47.5714C16.1827 48.4282 15.0891 49.0108 13.8991 49.2448C12.7091 49.4792 11.4763 49.355 10.3571 48.8877C9.2379 48.4203 8.2827 47.6309 7.6127 46.62C6.9427 45.6091 6.5881 44.4217 6.59382 43.2088C6.59957 41.9962 6.96542 40.8122 7.64494 39.8078C8.32446 38.803 9.28708 38.0227 10.4107 37.5663C11.5342 37.1095 12.7682 36.9965 13.9559 37.2421C15.1436 37.4877 16.2317 38.0806 17.082 38.9455C18.2148 40.0976 18.8462 41.651 18.8386 43.2669C18.8309 44.8826 18.1848 46.4299 17.0412 47.5714Z" fill="#CF3D54"/>
</svg>
