<svg width="50" height="50" viewBox="0 0 50 50" fill="none" xmlns="http://www.w3.org/2000/svg">
<g clip-path="url(#clip0_1_3147)">
<path fill-rule="evenodd" clip-rule="evenodd" d="M27.0234 48.5435C27.0234 49.348 27.6756 50.0001 28.4801 50.0001H48.5824C49.3869 50.0001 50.0439 49.3461 49.9938 48.5431C49.2723 36.9926 40.0311 27.7513 28.4804 27.0298C27.6774 26.9796 27.0234 27.6366 27.0234 28.4411V48.5435Z" fill="#254078"/>
<path fill-rule="evenodd" clip-rule="evenodd" d="M22.973 28.4839C22.973 27.6794 22.3208 27.0272 21.5163 27.0272H1.41401C0.60948 27.0272 -0.0474863 27.6812 0.00269645 28.4842C0.724193 40.0347 9.96542 49.2761 21.516 49.9976C22.319 50.0477 22.973 49.3907 22.973 48.5862V28.4839Z" fill="#254078"/>
<path fill-rule="evenodd" clip-rule="evenodd" d="M22.973 21.5163C22.973 22.3208 22.3208 22.973 21.5163 22.973H1.41401C0.60948 22.973 -0.0474863 22.319 0.00269645 21.516C0.724193 9.96542 9.96542 0.724193 21.516 0.00269645C22.319 -0.0474863 22.973 0.60948 22.973 1.41401V21.5163Z" fill="#FF62FD"/>
<path fill-rule="evenodd" clip-rule="evenodd" d="M27.0234 1.45669C27.0234 0.65218 27.6756 0 28.4801 0H48.5824C49.3869 0 50.0439 0.654023 49.9938 1.45696C49.2723 13.0076 40.0311 22.2488 28.4804 22.9703C27.6774 23.0205 27.0234 22.3635 27.0234 21.559V1.45669Z" fill="#0078FF"/>
</g>
<defs>
<clipPath id="clip0_1_3147">
<rect width="50" height="50" fill="white"/>
</clipPath>
</defs>
</svg>
