<svg width="50" height="50" viewBox="0 0 50 50" fill="none" xmlns="http://www.w3.org/2000/svg">
<g clip-path="url(#clip0_1_3038)">
<path d="M1.70157 40.3141V34.1623H7.8534V47.7749H15.3141V30.7592H25V50C29.9445 50 34.778 48.5338 38.8893 45.7868C43.0005 43.0397 46.2048 39.1352 48.097 34.5671C49.9891 29.999 50.4843 24.9723 49.5196 20.1228C48.555 15.2732 46.174 10.8187 42.6776 7.32234C39.1814 3.82603 34.7268 1.44501 29.8772 0.48038C25.0277 -0.484251 20.001 0.0108318 15.4329 1.90302C10.8648 3.79521 6.9603 6.99953 4.21326 11.1108C1.46623 15.222 0 20.0555 0 25H9.68586C9.68586 21.9712 10.584 19.0103 12.2668 16.4919C13.9495 13.9736 16.3412 12.0107 19.1395 10.8516C21.9378 9.6925 25.017 9.38923 27.9877 9.98013C30.9582 10.571 33.687 12.0296 35.8288 14.1713C37.9704 16.313 39.4289 19.0418 40.0199 22.0124C40.6107 24.983 40.3075 28.0622 39.1484 30.8605C37.9893 33.6588 36.0264 36.0505 33.5081 37.7332C30.9897 39.416 28.0288 40.3141 25 40.3141" fill="#0080FF"/>
</g>
<defs>
<clipPath id="clip0_1_3038">
<rect width="50" height="50" fill="white"/>
</clipPath>
</defs>
</svg>
