<svg width="50" height="47" viewBox="0 0 50 47" fill="none" xmlns="http://www.w3.org/2000/svg">
<g clip-path="url(#clip0_1_2926)">
<path d="M14.5349 0L0 9.4186L10.1163 17.5581L24.6512 8.48837L14.5349 0ZM0 25.4651L14.5349 35L24.6512 26.5116L10.1163 17.5581L0 25.4651ZM24.6512 26.5116L34.8837 35L49.3023 25.5814L39.3023 17.5581L24.6512 26.5116V26.5116ZM49.3023 9.4186L34.8837 0L24.6512 8.48837L39.3023 17.5581L49.3023 9.4186ZM24.7674 28.3721L14.5349 36.8605L10.2326 33.9535V37.2093L24.7674 45.9302L39.3023 37.2093V33.9535L34.8837 36.8605L24.7674 28.3721Z" fill="#0056FE"/>
</g>
<defs>
<clipPath id="clip0_1_2926">
<rect width="50" height="46.5116" fill="white"/>
</clipPath>
</defs>
</svg>
