<svg width="50" height="50" viewBox="0 0 50 50" fill="none" xmlns="http://www.w3.org/2000/svg">
<g clip-path="url(#clip0_1_2826)">
<path d="M25 50C38.8071 50 50 38.8071 50 25C50 11.1929 38.8071 0 25 0C11.1929 0 0 11.1929 0 25C0 38.8071 11.1929 50 25 50Z" fill="#3C5A9A"/>
<path d="M33.1259 7.67371H27.5878C24.3013 7.67371 20.6458 9.05596 20.6458 13.8199C20.6618 15.4798 20.6458 17.0695 20.6458 18.8587H16.8438V24.9089H20.7634V42.3263H27.9661V24.7939H32.7201L33.1502 18.8417H27.842C27.842 18.8417 27.8539 16.1939 27.842 15.425C27.842 13.5424 29.8009 13.6502 29.9187 13.6502C30.8509 13.6502 32.6634 13.6529 33.1286 13.6502V7.67371H33.1259V7.67371Z" fill="white"/>
</g>
<defs>
<clipPath id="clip0_1_2826">
<rect width="50" height="50" fill="white"/>
</clipPath>
</defs>
</svg>
