<svg width="36" height="50" viewBox="0 0 36 50" fill="none" xmlns="http://www.w3.org/2000/svg">
<g clip-path="url(#clip0_1_2704)">
<path d="M0.203125 8.288C0.203125 3.71086 3.91371 0 8.49114 0H35.068V11.7943C35.068 14.0829 33.2129 15.9383 30.924 15.9383H20.126C17.9254 15.9383 16.1414 17.7223 16.1414 19.9229V45.6631C16.1414 47.9517 14.286 49.8069 11.9974 49.8069H0.203125V8.288Z" fill="#001B38"/>
<path d="M9.46094 20.0222C9.46094 25.9639 14.2776 30.7805 20.2192 30.7805C26.1609 30.7805 30.9775 25.9639 30.9775 20.0222C30.9775 14.0806 26.1609 9.26392 20.2192 9.26392C14.2776 9.26392 9.46094 14.0806 9.46094 20.0222Z" fill="url(#paint0_linear_1_2704)"/>
<path opacity="0.5" d="M9.46094 20.0222C9.46094 25.9639 14.2776 30.7805 20.2192 30.7805C26.1609 30.7805 30.9775 25.9639 30.9775 20.0222C30.9775 14.0806 26.1609 9.26392 20.2192 9.26392C14.2776 9.26392 9.46094 14.0806 9.46094 20.0222Z" fill="url(#paint1_linear_1_2704)"/>
</g>
<defs>
<linearGradient id="paint0_linear_1_2704" x1="12.6424" y1="11.9576" x2="28.821" y2="28.2479" gradientUnits="userSpaceOnUse">
<stop stop-color="#FF0057" stop-opacity="0.16"/>
<stop offset="0.861" stop-color="#FF0057"/>
</linearGradient>
<linearGradient id="paint1_linear_1_2704" x1="12.6424" y1="11.9576" x2="28.821" y2="28.2479" gradientUnits="userSpaceOnUse">
<stop stop-color="#FF0057" stop-opacity="0.16"/>
<stop offset="0.861" stop-color="#FF0057"/>
</linearGradient>
<clipPath id="clip0_1_2704">
<rect width="35.1429" height="50" fill="white"/>
</clipPath>
</defs>
</svg>
