<svg width="50" height="52" viewBox="0 0 50 52" fill="none" xmlns="http://www.w3.org/2000/svg">
<g clip-path="url(#clip0_1_2621)">
<path d="M50 26.1665C50 24.4443 49.8333 22.6665 49.5556 20.9999H25.5V30.8332H39.2778C38.7222 33.9999 36.8889 36.7777 34.1667 38.5554L42.3889 44.9443C47.2222 40.4443 50 33.8888 50 26.1665Z" fill="#4280EF"/>
<path d="M25.4965 51.0556C32.3854 51.0556 38.1632 48.7778 42.3854 44.8889L34.1632 38.5556C31.8854 40.1111 28.941 41 25.4965 41C18.8299 41 13.2187 36.5 11.1632 30.5L2.71875 37C7.05208 45.6111 15.8299 51.0556 25.4965 51.0556Z" fill="#34A353"/>
<path d="M11.1684 30.4444C10.1128 27.2778 10.1128 23.8333 11.1684 20.6666L2.72396 14.1111C-0.887153 21.3333 -0.887153 29.8333 2.72396 37L11.1684 30.4444Z" fill="#F6B704"/>
<path d="M25.4965 10.1667C29.1076 10.1111 32.6632 11.5 35.2743 14L42.5521 6.66665C37.941 2.33331 31.8299 -2.05127e-05 25.4965 0.055535C15.8299 0.055535 7.05208 5.49998 2.71875 14.1111L11.1632 20.6667C13.2187 14.6111 18.8299 10.1667 25.4965 10.1667Z" fill="#E54335"/>
</g>
<defs>
<clipPath id="clip0_1_2621">
<rect width="50" height="51.1111" fill="white"/>
</clipPath>
</defs>
</svg>
