<svg width="50" height="50" viewBox="0 0 50 50" fill="none" xmlns="http://www.w3.org/2000/svg">
<g clip-path="url(#clip0_1_2501)">
<path d="M11.3636 5.68182C11.3636 2.54384 8.8198 0 5.68182 0C2.54384 0 0 2.54384 0 5.68182V14.7727C0 17.9107 2.54384 20.4545 5.68182 20.4545C8.8198 20.4545 11.3636 17.9107 11.3636 14.7727V5.68182Z" fill="url(#paint0_linear_1_2501)"/>
<path d="M11.3636 27.2727C11.3636 24.1347 8.8198 21.5909 5.68182 21.5909C2.54384 21.5909 0 24.1347 0 27.2727V31.8182C0 34.9561 2.54384 37.5 5.68182 37.5C8.8198 37.5 11.3636 34.9561 11.3636 31.8182V27.2727Z" fill="url(#paint1_linear_1_2501)"/>
<path d="M11.3636 44.3182C11.3636 41.1802 8.8198 38.6364 5.68182 38.6364C2.54384 38.6364 0 41.1802 0 44.3182C0 47.4561 2.54384 50 5.68182 50C8.8198 50 11.3636 47.4561 11.3636 44.3182Z" fill="url(#paint2_linear_1_2501)"/>
<path d="M49.9964 5.68182C49.9964 2.54384 47.4526 0 44.3146 0C41.1767 0 38.6328 2.54384 38.6328 5.68182V25C38.6328 28.138 41.1767 30.6818 44.3146 30.6818C47.4526 30.6818 49.9964 28.138 49.9964 25V5.68182Z" fill="url(#paint3_linear_1_2501)"/>
<path d="M49.9964 37.5C49.9964 34.362 47.4526 31.8182 44.3146 31.8182C41.1767 31.8182 38.6328 34.362 38.6328 37.5V44.3182C38.6328 47.4561 41.1767 50 44.3146 50C47.4526 50 49.9964 47.4561 49.9964 44.3182V37.5Z" fill="url(#paint4_linear_1_2501)"/>
<path d="M30.6783 20.4545H19.3146C16.1767 20.4545 13.6328 22.9984 13.6328 26.1363C13.6328 29.2743 16.1767 31.8182 19.3146 31.8182H30.6783C33.8162 31.8182 36.3601 29.2743 36.3601 26.1363C36.3601 22.9984 33.8162 20.4545 30.6783 20.4545Z" fill="url(#paint5_linear_1_2501)"/>
</g>
<defs>
<linearGradient id="paint0_linear_1_2501" x1="5.68182" y1="0" x2="5.68182" y2="20.4545" gradientUnits="userSpaceOnUse">
<stop stop-color="#32E7F9"/>
<stop offset="1" stop-color="#17CAF0"/>
</linearGradient>
<linearGradient id="paint1_linear_1_2501" x1="0" y1="29.5454" x2="11.3636" y2="29.5454" gradientUnits="userSpaceOnUse">
<stop stop-color="#FFC505"/>
<stop offset="1" stop-color="#FFB801"/>
</linearGradient>
<linearGradient id="paint2_linear_1_2501" x1="0" y1="44.3182" x2="11.3636" y2="44.3182" gradientUnits="userSpaceOnUse">
<stop stop-color="#FF4772"/>
<stop offset="0.978117" stop-color="#FF4422"/>
</linearGradient>
<linearGradient id="paint3_linear_1_2501" x1="38.6328" y1="15.3409" x2="49.9964" y2="15.3409" gradientUnits="userSpaceOnUse">
<stop stop-color="#9D02F9"/>
<stop offset="1" stop-color="#6301F0"/>
</linearGradient>
<linearGradient id="paint4_linear_1_2501" x1="44.3146" y1="31.8182" x2="44.3146" y2="49.667" gradientUnits="userSpaceOnUse">
<stop stop-color="#3B29F6"/>
<stop offset="1" stop-color="#6302F0"/>
</linearGradient>
<linearGradient id="paint5_linear_1_2501" x1="13.6328" y1="26.1363" x2="36.3601" y2="26.1363" gradientUnits="userSpaceOnUse">
<stop stop-color="#D793FF"/>
<stop offset="1" stop-color="#AE5AFF"/>
</linearGradient>
<clipPath id="clip0_1_2501">
<rect width="50" height="50" fill="white"/>
</clipPath>
</defs>
</svg>
