<svg width="50" height="33" viewBox="0 0 50 33" fill="none" xmlns="http://www.w3.org/2000/svg">
<g clip-path="url(#clip0_1_2408)">
<path fill-rule="evenodd" clip-rule="evenodd" d="M13.1314 27.3591C14.5887 29.3328 17.6499 29.0293 18.6837 26.8086L23.3746 16.7322L29.73 30.5067C30.9583 33.1691 34.8489 32.9436 35.7554 30.1575L41.8004 11.5768L43.8789 15.6096C44.6919 17.1872 46.6419 17.813 48.2343 17.0074C49.8265 16.2018 50.4583 14.2698 49.6452 12.6922L44.005 1.74908C42.6924 -0.797785 38.9263 -0.498088 38.0408 2.22372L32.1515 20.3256L26.3319 7.71235C25.1813 5.21842 21.6073 5.2124 20.4481 7.70253L15.1086 19.1724L11.9984 14.9601C10.7369 13.2516 8.1803 13.2011 6.85108 14.8585L0.702849 22.5246C-0.409423 23.9116 -0.176345 25.9292 1.22345 27.0312C2.62324 28.1333 4.65965 27.9025 5.77193 26.5155L9.27928 22.1421L13.1314 27.3591Z" fill="#11141D"/>
</g>
<defs>
<clipPath id="clip0_1_2408">
<rect width="50" height="32.5301" fill="white"/>
</clipPath>
</defs>
</svg>
