<svg width="50" height="20" viewBox="0 0 50 20" fill="none" xmlns="http://www.w3.org/2000/svg">
<g clip-path="url(#clip0_1_2403)">
<path d="M0.515625 0.206299V1.5463H10.0469V0.206299H0.515625ZM11.3981 0.206299V1.5463H24.9819C24.9819 1.5463 23.5944 0.206299 21.7569 0.206299H11.3981ZM27.6463 0.206299V1.5463H35.8631L35.3756 0.206299H27.6463ZM41.7556 0.206299L41.2681 1.5463H49.4119V0.206299H41.7556ZM0.515625 2.81255V4.15255H10.0469V2.81255H0.515625ZM11.3981 2.81442V4.15193H26.5569C26.5569 4.15193 26.38 3.12067 26.0713 2.81442H11.3981ZM27.6463 2.81442V4.15193H36.7713L36.32 2.81442H27.6463ZM40.78 2.81442L40.3288 4.15193H49.4113V2.81442H40.78ZM3.255 5.4188V6.76069H7.38314V5.4188H3.255ZM14.1375 5.4188V6.76069H18.2656V5.4188H14.1375ZM22.2813 5.4188V6.76069H26.4094C26.4094 6.76069 26.6719 6.05193 26.6719 5.4188H22.2813ZM30.3863 5.4188V6.76069H37.6988L37.2113 5.4188H30.3863ZM39.8819 5.4188L39.3919 6.76069H46.7469V5.4188H39.8819ZM3.25563 8.02694V9.36694H7.38377V8.02694H3.25563ZM14.1381 8.02694V9.36694H24.6819C24.6819 9.36694 25.5631 8.67944 25.8444 8.02694H14.1381ZM30.3863 8.02694V9.36694H34.5144V8.62069L34.7769 9.36694H42.3394L42.6206 8.62069V9.36694H46.7488V8.02694H38.9988L38.5875 9.16194L38.175 8.02694H30.3863ZM3.255 10.6332V11.9732H7.38314V10.6332H3.255ZM14.1375 10.6332V11.9732H25.8438C25.5625 11.3232 24.6813 10.6332 24.6813 10.6332H14.1375ZM30.3856 10.6332V11.9732H34.5138V10.6332H30.3856ZM35.2638 10.6332L35.7638 11.9732H41.4338L41.9088 10.6332H35.2638ZM42.6188 10.6332V11.9732H46.7469V10.6332H42.6188ZM3.25625 13.2394V14.5794H7.38439V13.2394H3.25625ZM14.1388 13.2394V14.5794H18.2669V13.2394H14.1388ZM22.2825 13.2394V14.5794H26.6725C26.6725 13.9469 26.41 13.2394 26.41 13.2394H22.2825ZM30.3875 13.2394V14.5794H34.5156V13.2394H30.3875ZM36.2025 13.2394L36.6863 14.5794H40.4863L40.9738 13.2394H36.2025ZM42.62 13.2394V14.5794H46.7481V13.2394H42.62ZM0.591874 15.8457V17.1876H10.1231V15.8457H0.591874ZM11.4 15.8457V17.1876H26.0738C26.3825 16.8801 26.5594 15.8457 26.5594 15.8457H11.4ZM27.7225 15.8457V17.1876H34.5131V15.8457H27.7225ZM37.1413 15.8457L37.6388 17.1876H39.5725L40.0394 15.8457H37.1413ZM42.62 15.8457V17.1876H49.4875V15.8457H42.62ZM0.591874 18.4538V19.7938H10.1231V18.4538H0.591874ZM11.4 18.4538V19.7913H21.7569C23.5944 19.7913 24.9819 18.4538 24.9819 18.4538H11.4ZM27.7225 18.4538V19.7938H34.5131V18.4538H27.7225ZM38.085 18.4538L38.5631 19.7901L38.6456 19.7919L39.1313 18.4544L38.085 18.4538ZM42.6206 18.4538V19.7938H49.4881V18.4538H42.6206Z" fill="black"/>
</g>
<defs>
<clipPath id="clip0_1_2403">
<rect width="50" height="20" fill="white"/>
</clipPath>
</defs>
</svg>
