<svg width="50" height="52" viewBox="0 0 50 52" fill="none" xmlns="http://www.w3.org/2000/svg">
<path fill-rule="evenodd" clip-rule="evenodd" d="M25.5809 21.0529C28.1496 21.0529 30.232 23.1354 30.232 25.704C30.232 28.2727 28.1496 30.3551 25.5809 30.3551C23.0118 30.3551 20.9297 28.2727 20.9297 25.704C20.9297 23.1354 23.0118 21.0529 25.5809 21.0529Z" fill="#131313"/>
<path fill-rule="evenodd" clip-rule="evenodd" d="M25.5848 18.7275C21.7378 18.7275 18.6081 21.8579 18.6081 25.7047C18.6081 29.5511 21.7373 32.6809 25.5848 32.6809C29.4311 32.6809 32.5616 29.5511 32.5616 25.7047C32.5616 21.8574 29.4311 18.7275 25.5848 18.7275ZM25.5851 33.8435C21.0972 33.8435 17.4453 30.1922 17.4453 25.7044C17.4453 21.2158 21.0967 17.5645 25.5851 17.5645C30.073 17.5645 33.7244 21.2158 33.7244 25.7044C33.7244 30.1922 30.0735 33.8435 25.5851 33.8435Z" fill="#676767"/>
<path fill-rule="evenodd" clip-rule="evenodd" d="M25.0007 8.26215C26.6063 8.26215 27.9077 9.56353 27.9077 11.1691C27.9077 12.7747 26.6063 14.0761 25.0007 14.0761C23.3951 14.0761 22.0938 12.7747 22.0938 11.1691C22.0938 9.56353 23.3951 8.26215 25.0007 8.26215Z" fill="#00933F"/>
<path fill-rule="evenodd" clip-rule="evenodd" d="M25.0007 0.12262C26.6063 0.12262 27.9077 1.424 27.9077 3.02957C27.9077 4.63514 26.6063 5.93653 25.0007 5.93653C23.3951 5.93653 22.0938 4.63514 22.0938 3.02957C22.0938 1.424 23.3951 0.12262 25.0007 0.12262Z" fill="#D7E100"/>
<path fill-rule="evenodd" clip-rule="evenodd" d="M25.0007 36.1686C26.6063 36.1686 27.9077 37.4702 27.9077 39.0753C27.9077 40.6808 26.6063 41.9824 25.0007 41.9824C23.3951 41.9824 22.0938 40.6808 22.0938 39.0753C22.0938 37.4702 23.3951 36.1686 25.0007 36.1686Z" fill="#FF3684"/>
<path fill-rule="evenodd" clip-rule="evenodd" d="M18.0254 11.75C18.989 11.75 19.7696 12.5307 19.7696 13.4942C19.7696 14.4573 18.989 15.2384 18.0254 15.2384C17.0623 15.2384 16.2812 14.4573 16.2812 13.4942C16.2812 12.5307 17.0623 11.75 18.0254 11.75Z" fill="#00B73E"/>
<path fill-rule="evenodd" clip-rule="evenodd" d="M33.1426 36.1686C34.1058 36.1686 34.8868 36.9493 34.8868 37.9125C34.8868 38.8761 34.1058 39.657 33.1426 39.657C32.1795 39.657 31.3984 38.8761 31.3984 37.9125C31.3984 36.9493 32.1795 36.1686 33.1426 36.1686Z" fill="#FF7CAD"/>
<path fill-rule="evenodd" clip-rule="evenodd" d="M37.7898 15.2383C39.3953 15.2383 40.6968 16.5399 40.6968 18.1453C40.6968 19.7507 39.3953 21.0522 37.7898 21.0522C36.1843 21.0522 34.8828 19.7507 34.8828 18.1453C34.8828 16.5399 36.1843 15.2383 37.7898 15.2383Z" fill="#00ACE5"/>
<path fill-rule="evenodd" clip-rule="evenodd" d="M13.3757 29.1924C14.9813 29.1924 16.2827 30.4938 16.2827 32.0991C16.2827 33.705 14.9813 35.0064 13.3757 35.0064C11.7701 35.0064 10.4688 33.705 10.4688 32.0991C10.4688 30.4938 11.7701 29.1924 13.3757 29.1924Z" fill="#FF1E7D"/>
<path fill-rule="evenodd" clip-rule="evenodd" d="M40.1192 24.5407C41.0823 24.5407 41.8634 25.3213 41.8634 26.2849C41.8634 27.248 41.0823 28.0291 40.1192 28.0291C39.156 28.0291 38.375 27.248 38.375 26.2849C38.375 25.3213 39.156 24.5407 40.1192 24.5407Z" fill="#B81961"/>
<path fill-rule="evenodd" clip-rule="evenodd" d="M11.0489 24.5407C12.012 24.5407 12.7931 25.3213 12.7931 26.2849C12.7931 27.248 12.012 28.0291 11.0489 28.0291C10.0857 28.0291 9.30469 27.248 9.30469 26.2849C9.30469 25.3213 10.0857 24.5407 11.0489 24.5407Z" fill="#B81961"/>
<path fill-rule="evenodd" clip-rule="evenodd" d="M33.1426 11.75C34.1058 11.75 34.8868 12.5307 34.8868 13.4942C34.8868 14.4573 34.1058 15.2384 33.1426 15.2384C32.1795 15.2384 31.3984 14.4573 31.3984 13.4942C31.3984 12.5307 32.1795 11.75 33.1426 11.75Z" fill="#00B73E"/>
<path fill-rule="evenodd" clip-rule="evenodd" d="M18.0254 36.1686C18.989 36.1686 19.7696 36.9493 19.7696 37.9125C19.7696 38.8761 18.989 39.657 18.0254 39.657C17.0623 39.657 16.2812 38.8761 16.2812 37.9125C16.2812 36.9493 17.0623 36.1686 18.0254 36.1686Z" fill="#FF7CAD"/>
<path fill-rule="evenodd" clip-rule="evenodd" d="M37.7898 29.1924C39.3954 29.1924 40.6968 30.4938 40.6968 32.0991C40.6968 33.705 39.3954 35.0064 37.7898 35.0064C36.1842 35.0064 34.8828 33.705 34.8828 32.0991C34.8828 30.4938 36.1842 29.1924 37.7898 29.1924Z" fill="#FF1E7D"/>
<path fill-rule="evenodd" clip-rule="evenodd" d="M13.3757 15.2383C14.9813 15.2383 16.2827 16.5397 16.2827 18.1453C16.2827 19.7509 14.9813 21.0522 13.3757 21.0522C11.7701 21.0522 10.4688 19.7509 10.4688 18.1453C10.4688 16.5397 11.7701 15.2383 13.3757 15.2383Z" fill="#00ACE5"/>
<path fill-rule="evenodd" clip-rule="evenodd" d="M25.6876 44.3178C27.5043 44.3178 28.9768 45.6175 28.9768 47.22C28.9768 48.8229 27.5043 50.1225 25.6876 50.1225C23.871 50.1225 22.3984 48.8229 22.3984 47.22C22.3984 45.6175 23.871 44.3178 25.6876 44.3178Z" fill="#FFD000"/>
<path fill-rule="evenodd" clip-rule="evenodd" d="M5.2351 11.75C6.84068 11.75 8.14208 13.0514 8.14208 14.657C8.14208 16.2626 6.84068 17.564 5.2351 17.564C3.62952 17.564 2.32812 16.2626 2.32812 14.657C2.32812 13.0514 3.62952 11.75 5.2351 11.75Z" fill="#00CEF4"/>
<path fill-rule="evenodd" clip-rule="evenodd" d="M44.7664 33.843C46.3719 33.843 47.6733 35.1444 47.6733 36.7496C47.6733 38.3556 46.3719 39.657 44.7664 39.657C43.1608 39.657 41.8594 38.3556 41.8594 36.7496C41.8594 35.1444 43.1608 33.843 44.7664 33.843Z" fill="#FF72AB"/>
<path fill-rule="evenodd" clip-rule="evenodd" d="M44.7664 11.75C46.3719 11.75 47.6733 13.0514 47.6733 14.657C47.6733 16.2626 46.3719 17.564 44.7664 17.564C43.1608 17.564 41.8594 16.2626 41.8594 14.657C41.8594 13.0514 43.1608 11.75 44.7664 11.75Z" fill="#00CEF4"/>
<path fill-rule="evenodd" clip-rule="evenodd" d="M5.2351 33.843C6.84068 33.843 8.14208 35.1444 8.14208 36.7496C8.14208 38.3556 6.84068 39.657 5.2351 39.657C3.62952 39.657 2.32812 38.3556 2.32812 36.7496C2.32812 35.1444 3.62952 33.843 5.2351 33.843Z" fill="#FF72AB"/>
<path fill-rule="evenodd" clip-rule="evenodd" d="M14.532 2.44763C16.1376 2.44763 17.439 3.74902 17.439 5.3546C17.439 6.95983 16.1376 8.26155 14.532 8.26155C12.9264 8.26155 11.625 6.95983 11.625 5.3546C11.625 3.74902 12.9264 2.44763 14.532 2.44763Z" fill="#6DC72E"/>
<path fill-rule="evenodd" clip-rule="evenodd" d="M35.4617 41.9832C37.0672 41.9832 38.3686 43.2845 38.3686 44.8901C38.3686 46.4956 37.0672 47.797 35.4617 47.797C33.8561 47.797 32.5547 46.4956 32.5547 44.8901C32.5547 43.2845 33.8561 41.9832 35.4617 41.9832Z" fill="#FF9500"/>
<path fill-rule="evenodd" clip-rule="evenodd" d="M35.4617 2.44763C37.0672 2.44763 38.3686 3.74902 38.3686 5.3546C38.3686 6.95983 37.0672 8.26155 35.4617 8.26155C33.8561 8.26155 32.5547 6.95983 32.5547 5.3546C32.5547 3.74902 33.8561 2.44763 35.4617 2.44763Z" fill="#6DC72E"/>
<path fill-rule="evenodd" clip-rule="evenodd" d="M14.532 41.9832C16.1376 41.9832 17.439 43.2845 17.439 44.8901C17.439 46.4956 16.1376 47.797 14.532 47.797C12.9264 47.797 11.625 46.4956 11.625 44.8901C11.625 43.2845 12.9264 41.9832 14.532 41.9832Z" fill="#FF9500"/>
<path fill-rule="evenodd" clip-rule="evenodd" d="M47.0945 22.2151C48.7001 22.2151 50.0015 23.5165 50.0015 25.1221C50.0015 26.7276 48.7001 28.029 47.0945 28.029C45.4889 28.029 44.1875 26.7276 44.1875 25.1221C44.1875 23.5165 45.4889 22.2151 47.0945 22.2151Z" fill="#AB2692"/>
<path fill-rule="evenodd" clip-rule="evenodd" d="M2.90698 22.29C4.51256 22.29 5.81395 23.5914 5.81395 25.197C5.81395 26.8025 4.51256 28.1039 2.90698 28.1039C1.3014 28.1039 0 26.8025 0 25.197C0 23.5914 1.3014 22.29 2.90698 22.29Z" fill="#AB2692"/>
</svg>
