<svg width="40" height="50" viewBox="0 0 40 50" fill="none" xmlns="http://www.w3.org/2000/svg">
<path d="M32.8542 8.31019C30.7458 8.31019 29.2417 9.22894 27.8542 11.2248L23.8542 16.9685V0.572693H14.3125V16.9685L10.3125 11.2248C8.92712 9.22894 7.42296 8.31019 5.31254 8.31019C2.12921 8.31019 0.0104609 10.6602 4.42425e-05 13.556C-0.00828908 16.0352 1.16046 17.6519 3.62504 19.2394L19.0834 29.1977L34.5417 19.2394C37.0062 17.6519 38.175 16.0352 38.1667 13.556C38.1583 10.6602 36.0375 8.31019 32.8542 8.31019Z" fill="#0AAD0A"/>
<path d="M19.0808 31.5837C28.2683 31.5837 35.7996 38.4421 35.7787 48.2837H2.38285C2.3641 38.4462 9.89326 31.5837 19.0808 31.5837Z" fill="#FF7009"/>
</svg>
