<svg width="50" height="50" viewBox="0 0 50 50" fill="none" xmlns="http://www.w3.org/2000/svg">
<g clip-path="url(#clip0_1_2173)">
<path d="M0.3125 29.2181L20.7796 49.6852C10.3277 47.9185 2.07922 39.67 0.3125 29.2181Z" fill="#5E6AD2"/>
<path d="M0 23.6615L26.3384 50C27.9048 49.9163 29.433 49.6885 30.9098 49.3297L0.670305 19.0902C0.311468 20.5671 0.0836953 22.0951 0 23.6615Z" fill="#5E6AD2"/>
<path d="M1.98438 15.1595L34.8437 48.0188C36.0405 47.5051 37.1891 46.9008 38.281 46.2145L3.78867 11.7222C3.10233 12.814 2.49802 13.9627 1.98438 15.1595Z" fill="#5E6AD2"/>
<path d="M6.01562 8.7068C10.6037 3.37573 17.4005 0 24.9859 0C38.803 0 50.0039 11.2009 50.0039 25.018C50.0039 32.6034 46.6282 39.4002 41.2971 43.9883L6.01562 8.7068Z" fill="#5E6AD2"/>
</g>
<defs>
<clipPath id="clip0_1_2173">
<rect width="50" height="50" fill="white"/>
</clipPath>
</defs>
</svg>
