<svg width="50" height="51" viewBox="0 0 50 51" fill="none" xmlns="http://www.w3.org/2000/svg">
<g clip-path="url(#clip0_1_2121)">
<path d="M29.5124 18.2534H6.81053C3.04917 18.2534 0 21.3026 0 25.0639C0 28.8252 3.04917 31.8744 6.81053 31.8744H29.5124C33.2737 31.8744 36.3229 28.8252 36.3229 25.0639C36.3229 21.3026 33.2737 18.2534 29.5124 18.2534Z" fill="#B8BFD1"/>
<path d="M43.1334 36.4148H34.0527C30.2912 36.4148 27.2422 39.4638 27.2422 43.2253C27.2422 46.9866 30.2912 50.0358 34.0527 50.0358H43.1334C46.8947 50.0358 49.9439 46.9866 49.9439 43.2253C49.9439 39.4638 46.8947 36.4148 43.1334 36.4148Z" fill="#B8BFD1"/>
<path d="M43.136 0.0921631H24.9746C21.2133 0.0921631 18.1641 3.14133 18.1641 6.90269C18.1641 10.664 21.2133 13.7132 24.9746 13.7132H43.136C46.8973 13.7132 49.9465 10.664 49.9465 6.90269C49.9465 3.14133 46.8973 0.0921631 43.136 0.0921631Z" fill="#222838"/>
</g>
<defs>
<clipPath id="clip0_1_2121">
<rect width="50" height="50.1592" fill="white"/>
</clipPath>
</defs>
</svg>
