<svg width="100" height="23" viewBox="0 0 100 23" fill="none" xmlns="http://www.w3.org/2000/svg">
<g clip-path="url(#clip0_1_2082)">
<path d="M4.8504 11.7564C4.6841 11.7481 4.51738 11.7593 4.35376 11.79C4.08074 11.834 3.81922 11.932 3.58445 12.0781C3.34966 12.2242 3.14631 12.4156 2.98624 12.6411C2.82616 12.8666 2.71256 13.1217 2.65205 13.3915C2.59155 13.6614 2.58536 13.9406 2.63383 14.2128C2.75281 15.3357 3.94991 16.2825 5.05809 16.3107C5.17183 16.3136 5.28561 16.306 5.39797 16.2881C6.59717 16.094 6.91112 14.8583 6.71347 13.6444C6.49019 12.2739 5.51339 11.7908 4.8504 11.7564ZM6.0254 15.0034C5.97481 15.0792 5.90452 15.1398 5.82213 15.1788C5.73973 15.2177 5.6483 15.2336 5.55759 15.2246C5.39818 15.212 5.24948 15.1392 5.14171 15.021C5.03389 14.9029 4.97502 14.7482 4.977 14.5883C4.97423 14.3752 5.01532 14.1638 5.09771 13.9673C5.14918 13.8424 5.1541 13.7032 5.11166 13.575C5.06918 13.4468 4.98217 13.3381 4.86633 13.2686C4.72402 13.1804 4.5533 13.1502 4.38935 13.1842C4.23057 13.2147 4.09026 13.3067 3.99897 13.4401C3.93736 13.5397 3.88925 13.6471 3.85593 13.7594C3.84943 13.779 3.84428 13.7944 3.84036 13.8045C3.78602 13.9431 3.69932 13.9836 3.64069 13.976C3.6191 13.9721 3.5991 13.962 3.58308 13.947C3.56706 13.932 3.5557 13.9127 3.55035 13.8914C3.51994 13.7064 3.53419 13.5169 3.59191 13.3385C3.64963 13.1602 3.74916 12.9982 3.88219 12.8661C3.99804 12.7505 4.13876 12.6628 4.29364 12.6098C4.44847 12.5568 4.61339 12.5399 4.77582 12.5602C4.94637 12.5807 5.10935 12.6424 5.25074 12.74C5.39208 12.8376 5.50759 12.9681 5.58721 13.1203C5.66385 13.3035 5.69481 13.5025 5.67755 13.7003C5.66024 13.8981 5.59515 14.0887 5.48788 14.2558C5.47435 14.2847 5.46192 14.3112 5.45133 14.3348C5.41276 14.4003 5.39145 14.4745 5.38944 14.5505C5.38746 14.6264 5.40481 14.7016 5.43986 14.769C5.47074 14.8101 5.51099 14.8432 5.55734 14.8655C5.60364 14.8878 5.65465 14.8986 5.70599 14.8971C5.75507 14.8965 5.80385 14.8899 5.85133 14.8777C5.91292 14.8641 5.97662 14.85 6.0154 14.8962C6.02826 14.9107 6.03616 14.9289 6.03797 14.9482C6.03977 14.9675 6.03536 14.9868 6.0254 15.0035V15.0034Z" fill="white"/>
<path d="M20.1785 17.306C20.4286 16.6711 20.5733 15.9995 20.6067 15.3179C20.6067 14.4799 20.1322 14.1326 19.8301 14.1326C19.8208 14.1002 19.7611 13.8817 19.6788 13.6186C19.6317 13.4661 19.5759 13.3164 19.5115 13.1703C19.7588 12.8288 19.8634 12.4044 19.8033 11.987C19.7538 11.6652 19.6008 11.3683 19.3674 11.1413C18.9244 10.7652 18.3959 10.5038 17.8281 10.38C17.7426 10.3561 17.4607 10.2788 17.436 10.2712C17.434 10.2551 17.4154 9.34806 17.3984 8.95865C17.3911 8.56819 17.3329 8.18037 17.2253 7.80495C17.0915 7.26617 16.8151 6.7734 16.425 6.37848C17.4017 5.36752 18.0114 4.2539 18.0099 3.29856C18.0071 1.4613 15.7475 0.905326 12.963 2.05675C12.9599 2.05804 12.3771 2.30476 12.373 2.30688C12.3704 2.3043 11.3064 1.2619 11.2904 1.24788C8.11566 -1.51726 -1.81065 9.50025 1.36299 12.176L2.05656 12.7628C1.8694 13.2643 1.80332 13.8029 1.8637 14.3347C1.95771 15.1085 2.3402 15.8184 2.93477 16.3224C3.51187 16.8462 4.25747 17.146 5.0365 17.1675C6.27154 20.0094 9.09327 21.7528 12.4018 21.8509C15.951 21.9562 18.9302 20.2932 20.1785 17.306ZM20.9069 13.9428C21.211 14.3352 21.3674 14.8219 21.3489 15.3179C21.317 16.0917 21.1552 16.8545 20.8703 17.5746L20.8636 17.5915C20.2195 19.1401 19.0951 20.441 17.656 21.3023C16.1581 22.1736 14.4515 22.621 12.7189 22.5969H12.7185C12.6063 22.5969 12.4925 22.5952 12.3799 22.5918C10.6698 22.5561 9.00049 22.0634 7.54512 21.1647C6.26411 20.3619 5.22743 19.2236 4.54764 17.8732C3.76446 17.7516 3.0333 17.4057 2.44255 16.8773C1.70807 16.2498 1.23757 15.3682 1.12515 14.4087C1.07506 13.9426 1.10208 13.4713 1.20515 13.0139L0.883162 12.7416C0.622536 12.5165 0.410735 12.2405 0.260797 11.9305C0.110859 11.6205 0.025955 11.283 0.011311 10.9389C-0.0151069 10.2247 0.108325 9.51294 0.37366 8.84936C1.03462 7.04483 2.55513 4.89609 4.44129 3.10136C5.28301 2.28457 6.21675 1.5683 7.22369 0.966927C8.06356 0.42975 9.02814 0.119068 10.0236 0.06509C10.6657 0.0483442 11.2911 0.270818 11.7783 0.689305C11.8061 0.713565 12.2229 1.12124 12.5391 1.43094C12.6184 1.39746 12.6755 1.37338 12.6772 1.37275C13.6125 0.965334 14.6177 0.742263 15.6376 0.715775C17.5273 0.715775 18.7498 1.72913 18.7522 3.29744C18.7536 4.26512 18.2786 5.34995 17.4026 6.40012C17.641 6.76861 17.8212 7.17151 17.9372 7.5947C18.0616 8.02798 18.1297 8.47546 18.1399 8.92609C18.1484 9.11995 18.1571 9.43104 18.1641 9.70562C18.8103 9.8692 19.4075 10.1863 19.9049 10.6301C20.2421 10.9647 20.4633 11.3985 20.5359 11.8679C20.609 12.3313 20.5374 12.806 20.3309 13.2272C20.3493 13.2799 20.3684 13.3372 20.3874 13.3979C20.4039 13.4508 20.4196 13.5018 20.4341 13.5502C20.616 13.6487 20.7767 13.7821 20.907 13.9428H20.9069Z" fill="white"/>
<path d="M18.6566 13.0252C18.777 12.9121 18.8709 12.7738 18.9316 12.6201C18.9922 12.4665 19.0182 12.3014 19.0076 12.1365C18.9835 11.9704 18.906 11.8166 18.7868 11.6984C18.4369 11.408 18.0207 11.2087 17.5751 11.1182C17.3716 11.0605 17.2335 11.0235 17.0847 10.974C16.8202 10.8859 16.6895 10.815 16.6599 10.3121C16.6469 10.0922 16.609 9.32597 16.5953 9.00933C16.5712 8.45454 16.5051 7.69618 16.0398 7.38312C15.9214 7.30459 15.7838 7.26013 15.6418 7.25454C15.5624 7.24967 15.4826 7.25753 15.4057 7.27791C15.1695 7.33307 14.9545 7.45593 14.7871 7.63139C14.5703 7.82933 14.3147 7.98005 14.0366 8.07396C13.7585 8.16782 13.4638 8.20282 13.1714 8.17677C12.8457 8.16295 12.5006 8.11169 12.1049 8.08795C12.0279 8.08341 11.9507 8.07858 11.8736 8.0745C11.3624 8.08963 10.8736 8.28799 10.4963 8.63345C10.1192 8.97891 9.87874 9.44845 9.81887 9.95644C9.59235 11.5321 10.7209 12.3463 11.0467 12.8241C11.0971 12.8851 11.1283 12.9596 11.1364 13.0383C11.1279 13.1256 11.0865 13.2063 11.0204 13.264L11.0205 13.2644C10.5693 13.7723 10.2526 14.3852 10.0992 15.047C9.94571 15.7088 9.9605 16.3985 10.1422 17.0531C10.1853 17.2103 10.2405 17.364 10.3073 17.5126C11.1308 19.4582 13.6855 20.3643 16.1813 19.5403C16.5082 19.4323 16.8254 19.2968 17.1294 19.1352C17.6766 18.8617 18.1688 18.4898 18.5814 18.0382C19.2252 17.3853 19.6479 16.5469 19.7903 15.6412C19.8655 15.1398 19.7554 14.9457 19.6055 14.8524C19.4997 14.7928 19.377 14.7702 19.2568 14.788C19.1934 14.3944 19.0818 14.01 18.9248 13.6435L18.6566 13.0252Z" fill="white"/>
<path d="M14.5633 5.51089C14.6035 5.52013 14.6291 5.45055 14.5931 5.43034C13.9968 5.12139 13.3392 4.94929 12.668 4.92656C12.6615 4.92648 12.6553 4.92459 12.6498 4.92114C12.6444 4.91769 12.6399 4.91282 12.6371 4.90702C12.6343 4.90122 12.6331 4.89475 12.6337 4.88832C12.6343 4.8819 12.6366 4.87576 12.6405 4.87059C12.7448 4.73425 12.8666 4.61219 13.0028 4.50757C13.0088 4.50282 13.0133 4.49627 13.0154 4.48883C13.0175 4.48143 13.0171 4.47353 13.0144 4.46631C13.0117 4.45908 13.0067 4.4529 13.0003 4.4487C12.9938 4.4445 12.9862 4.44244 12.9784 4.4429C12.1567 4.52362 11.3666 4.80215 10.6759 5.25467C10.67 5.25862 10.663 5.26076 10.6559 5.26072C10.6488 5.26072 10.6419 5.25858 10.636 5.25454C10.6302 5.25055 10.6257 5.24488 10.623 5.23828C10.6204 5.23164 10.6199 5.22442 10.6214 5.21748C10.677 5.01001 10.7589 4.81047 10.8651 4.6237C10.8686 4.61727 10.8699 4.60992 10.8689 4.60269C10.8679 4.59547 10.8646 4.58874 10.8595 4.58353C10.8544 4.57832 10.8478 4.57488 10.8405 4.5737C10.8333 4.57257 10.8259 4.57375 10.8194 4.57711C9.822 5.12496 8.93305 5.85034 8.19628 6.71765C8.19053 6.72425 8.18742 6.73274 8.1875 6.74148C8.18759 6.75026 8.19091 6.75866 8.19679 6.76513C8.20267 6.77164 8.21078 6.77572 8.21948 6.77664C8.22817 6.77753 8.23691 6.77522 8.24406 6.77013C9.09784 6.17349 10.0597 5.74895 11.0758 5.52017C12.2229 5.25559 13.4148 5.2524 14.5632 5.51089" fill="white"/>
<path d="M11.6263 2.6965C11.6263 2.6965 10.7622 1.69616 10.5014 1.62237C8.89666 1.18934 5.43023 3.57657 3.2169 6.73055C2.32134 8.00669 1.03931 10.2665 1.65234 11.4289C1.87023 11.6898 2.11585 11.9263 2.38488 12.1342C2.79562 11.5584 3.41378 11.1646 4.10914 11.0357C4.98183 8.59589 6.51372 6.44576 8.53468 4.82412C9.50447 4.03043 10.5385 3.31877 11.6263 2.6965Z" fill="white"/>
<path d="M5.97144 14.9601C5.98388 14.9752 5.99148 14.9936 5.9932 15.0131C5.99493 15.0326 5.99077 15.0521 5.98119 15.0692C5.93459 15.1448 5.86783 15.2058 5.78837 15.2455C5.70896 15.2852 5.62001 15.3019 5.53161 15.2937C5.374 15.2768 5.22875 15.2006 5.12518 15.0807C5.02161 14.9607 4.96745 14.8059 4.97362 14.6475C4.97094 14.4317 5.01035 14.2174 5.08963 14.0167C5.13968 13.8909 5.14489 13.7517 5.10442 13.6225C5.06392 13.4934 4.98022 13.382 4.86736 13.3073C4.80056 13.2631 4.72556 13.2327 4.64682 13.218C4.56812 13.2032 4.4872 13.2044 4.40896 13.2215C4.33228 13.2376 4.25959 13.2689 4.19518 13.3135C4.13077 13.3581 4.07594 13.4152 4.03391 13.4813C3.97446 13.5831 3.92823 13.6921 3.89636 13.8056C3.8902 13.8255 3.88524 13.8413 3.88148 13.8514C3.82925 13.9923 3.74598 14.0333 3.68956 14.0258C3.66289 14.0221 3.62621 14.0042 3.6027 13.9398C3.5732 13.7534 3.58659 13.5627 3.64186 13.3822C3.69713 13.2018 3.79282 13.0363 3.92166 12.8984C4.02987 12.7822 4.16418 12.6934 4.3135 12.6394C4.46278 12.5854 4.62283 12.5677 4.78031 12.5878C4.94715 12.6108 5.10573 12.6747 5.24178 12.774C5.37783 12.8732 5.48715 13.0047 5.55997 13.1565C5.63371 13.3432 5.66346 13.5443 5.6469 13.7443C5.63039 13.9443 5.56804 14.1378 5.46463 14.3099C5.45157 14.3391 5.43959 14.3659 5.42951 14.3902C5.39232 14.4574 5.37194 14.5326 5.37001 14.6093C5.36808 14.6861 5.38472 14.7622 5.4185 14.8311C5.44703 14.8723 5.48535 14.9056 5.52997 14.9283C5.57459 14.951 5.62413 14.9623 5.67417 14.9611C5.72136 14.9605 5.76825 14.9538 5.81379 14.9414C5.87304 14.9275 5.93426 14.9133 5.97144 14.9601V14.9601ZM20.5753 15.3247C20.5422 16.0047 20.3985 16.6748 20.1499 17.3086C18.9097 20.2895 15.95 21.949 12.4242 21.844C9.13732 21.7461 6.334 20.0063 5.10707 17.1704C4.33249 17.1487 3.59152 16.8494 3.01916 16.3271C2.42791 15.8231 2.04803 15.1149 1.95507 14.3436C1.89508 13.8129 1.96071 13.2755 2.14667 12.7749L1.45762 12.1894C-1.6952 9.51919 8.16598 -1.47516 11.32 1.28423C11.3359 1.29812 12.3929 2.33843 12.3956 2.34099C12.3998 2.33885 12.9788 2.09258 12.9817 2.09138C15.748 0.942351 17.9928 1.49715 17.9956 3.33046C17.9971 4.2839 17.3914 5.3952 16.4211 6.40394C16.8089 6.7986 17.0835 7.29024 17.216 7.82738C17.323 8.20209 17.3808 8.58915 17.388 8.97881C17.4049 9.36734 17.4235 10.2725 17.4254 10.2886C17.45 10.2961 17.7301 10.3731 17.815 10.3971C18.3794 10.5209 18.9046 10.7818 19.3442 11.1568C19.5763 11.3837 19.7282 11.6799 19.7772 12.0007C19.837 12.417 19.7331 12.8403 19.4874 13.1816C19.5513 13.3274 19.6068 13.4768 19.6536 13.629C19.7352 13.8916 19.7946 14.1095 19.8038 14.1418C20.1039 14.1418 20.5753 14.4884 20.5753 15.3247ZM6.64215 13.689C6.42778 12.297 5.489 11.8065 4.85203 11.7715C4.69215 11.763 4.53182 11.7744 4.37476 11.8055C3.23784 12.0355 2.59574 13.0056 2.72209 14.2661C2.8141 14.8315 3.09409 15.3494 3.51679 15.736C3.93949 16.1226 4.48022 16.3555 5.05157 16.3968C5.16089 16.3997 5.27026 16.392 5.37812 16.3738C6.53043 16.1767 6.83211 14.9217 6.64215 13.689ZM8.58543 4.85285C9.5485 4.06108 10.5758 3.35091 11.6567 2.72969C11.6567 2.72969 10.7985 1.73149 10.5393 1.65792C8.94505 1.22566 5.50123 3.60792 3.30247 6.75524C2.41279 8.02869 1.13918 10.2839 1.74812 11.4437C1.96444 11.7041 2.20847 11.94 2.47588 12.1476C2.88299 11.5737 3.49728 11.1806 4.18891 11.0514C5.05417 8.61902 6.57585 6.4736 8.58543 4.85285ZM12.0503 15.868C12.0925 16.053 12.184 16.2231 12.3149 16.3605C12.4459 16.4978 12.6115 16.5972 12.7943 16.6481C12.9844 16.719 13.1806 16.7725 13.3804 16.8078C15.9022 17.2429 18.2597 15.7967 18.7905 15.4324C18.8303 15.405 18.8566 15.4317 18.8247 15.48C18.8087 15.5057 18.7914 15.5305 18.7727 15.5544C18.1231 16.3949 16.3766 17.3682 14.1044 17.3678C13.1135 17.3677 12.123 17.0175 11.7593 16.4794C11.1951 15.6444 11.7314 14.4258 12.6715 14.5528C12.6726 14.553 12.9932 14.5894 13.0833 14.5994C14.5447 14.74 16.0178 14.5035 17.3618 13.9127C18.6445 13.3155 19.129 12.6582 19.0564 12.1261C19.032 11.9609 18.9544 11.8081 18.8352 11.6911C18.4844 11.4024 18.0679 11.2045 17.6225 11.115C17.4188 11.0576 17.2806 11.021 17.1317 10.9718C16.8669 10.8843 16.736 10.8139 16.7063 10.3145C16.6934 10.0961 16.6555 9.33528 16.6417 9.02083C16.6175 8.46991 16.5515 7.71684 16.0856 7.40591C15.967 7.32785 15.8293 7.28369 15.6874 7.27823C15.6078 7.27339 15.528 7.28125 15.4509 7.30146C15.2149 7.35608 14.9998 7.47806 14.8318 7.65251C14.6141 7.84932 14.358 7.99902 14.0798 8.09217C13.8014 8.18537 13.5069 8.22003 13.2145 8.19402C12.8886 8.18041 12.5431 8.12944 12.1472 8.10587C12.0701 8.10133 11.9927 8.09654 11.9156 8.0926C11.4057 8.10596 10.9176 8.30201 10.5401 8.64499C10.1626 8.98797 9.92085 9.45512 9.85884 9.96138C9.63215 11.526 10.7618 12.3346 11.0879 12.809C11.1383 12.8694 11.1695 12.9435 11.1777 13.0218C11.1691 13.1086 11.1275 13.1887 11.0616 13.2458V13.2463C10.6105 13.7489 10.2935 14.3571 10.1398 15.0147C9.9861 15.6724 10.0008 16.3581 10.1825 17.0086C10.2256 17.1647 10.2809 17.3173 10.3477 17.4649C11.172 19.397 13.7291 20.2967 16.2272 19.4783C16.5543 19.3712 16.8718 19.2367 17.1764 19.0763C17.7234 18.8051 18.216 18.4358 18.6298 17.9868C19.2731 17.3402 19.6965 16.5073 19.8398 15.6065C19.915 15.1084 19.8049 14.9159 19.6548 14.8231C19.5486 14.764 19.426 14.7415 19.3058 14.7592C19.2422 14.3681 19.1306 13.9864 18.9735 13.6226C18.26 14.161 17.4535 14.5633 16.5943 14.8095C15.5605 15.1016 14.485 15.2183 13.4126 15.1546C12.7227 15.0987 12.2663 14.8967 12.0947 15.4563C13.1382 15.8052 14.2462 15.9183 15.3388 15.7873C15.3465 15.7865 15.3542 15.7872 15.3616 15.7894C15.369 15.7917 15.3759 15.7953 15.3819 15.8002C15.3879 15.8051 15.3928 15.8111 15.3965 15.8179C15.4001 15.8247 15.4024 15.8322 15.4032 15.8399C15.4043 15.8528 15.4014 15.8658 15.3949 15.877C15.3884 15.8882 15.3785 15.8971 15.3667 15.9025C15.3667 15.9025 14.0853 16.4993 12.0503 15.868ZM8.29741 6.7947C9.14497 6.19965 10.1006 5.776 11.1107 5.54747C12.2501 5.28344 13.4345 5.28024 14.5753 5.53814C14.6152 5.5473 14.6407 5.47793 14.6049 5.45789C14.013 5.14965 13.3594 4.97781 12.6924 4.95503C12.686 4.95495 12.6797 4.95306 12.6743 4.94961C12.6688 4.94617 12.6645 4.94125 12.6617 4.93549C12.6588 4.92974 12.6577 4.92327 12.6582 4.91688C12.6588 4.91049 12.6612 4.90436 12.665 4.89923C12.7686 4.76323 12.8897 4.64142 13.025 4.53692C13.0311 4.53222 13.0355 4.52566 13.0376 4.51827C13.0396 4.51087 13.0393 4.50297 13.0366 4.49579C13.0339 4.48856 13.029 4.48243 13.0226 4.47823C13.0161 4.47398 13.0085 4.47197 13.0008 4.47239C12.184 4.55314 11.399 4.83112 10.7133 5.28247C10.7074 5.28642 10.7006 5.28852 10.6935 5.28852C10.6864 5.28852 10.6795 5.28638 10.6737 5.28234C10.6678 5.27835 10.6633 5.27272 10.6607 5.26612C10.6582 5.25953 10.6576 5.2523 10.6592 5.24541C10.7144 5.03844 10.7957 4.83932 10.9012 4.65289C10.9047 4.6465 10.9061 4.63919 10.9051 4.63197C10.9041 4.62478 10.9009 4.61806 10.8958 4.61285C10.8907 4.60764 10.8841 4.60419 10.8769 4.60302C10.8698 4.60184 10.8624 4.60302 10.8559 4.60633C9.86434 5.15365 8.98119 5.87759 8.24997 6.74251C8.24421 6.74907 8.2411 6.75751 8.24119 6.76621C8.24127 6.77491 8.24459 6.78331 8.25043 6.78974C8.25627 6.79617 8.2643 6.80024 8.27295 6.80117C8.28165 6.80209 8.29035 6.79978 8.29741 6.7947ZM14.9381 12.1059C15.0071 12.1496 15.0898 12.1663 15.1704 12.1529C15.251 12.1395 15.3238 12.0969 15.375 12.0333C15.4386 11.9102 15.3463 11.7432 15.1686 11.6602C15.0996 11.6165 15.0169 11.5998 14.9363 11.6132C14.8557 11.6267 14.7829 11.6693 14.7317 11.733C14.668 11.856 14.7605 12.023 14.9381 12.1059ZM15.4829 10.1095C15.5255 10.3311 15.6174 10.5404 15.7519 10.7217C15.8908 10.7046 16.0313 10.7046 16.1702 10.7217C16.2514 10.4784 16.2585 10.2164 16.1906 9.96907C16.0903 9.51268 15.9544 9.23646 15.6736 9.2794C15.393 9.32243 15.3826 9.6531 15.4829 10.1095ZM16.0802 11.1579C16.0094 11.1376 15.934 11.1399 15.8646 11.1647C15.7952 11.1894 15.7353 11.2352 15.6933 11.2958C15.6514 11.3563 15.6294 11.4285 15.6306 11.5021C15.6317 11.5758 15.6559 11.6472 15.6997 11.7064C15.7435 11.7656 15.8048 11.8096 15.8749 11.8322C15.9451 11.8547 16.0205 11.8548 16.0906 11.8323C16.1608 11.8098 16.2221 11.7659 16.266 11.7067C16.3099 11.6476 16.3342 11.5761 16.3354 11.5025C16.3456 11.4232 16.3247 11.3431 16.2771 11.2789C16.2295 11.2146 16.159 11.1713 16.0802 11.1579Z" fill="black"/>
<path d="M12.9668 11.6231C13.0457 11.3427 13.0502 11.0466 12.9799 10.7639C12.8783 10.3068 12.7248 10.0456 12.4401 10.0886C12.1554 10.1316 12.148 10.5 12.2398 10.959C12.282 11.1694 12.3641 11.3697 12.4819 11.549C12.7084 11.8651 12.862 11.7833 12.9664 11.6231H12.9668Z" fill="black"/>
<path d="M34.5657 10.1103C33.1944 10.1103 32.5174 11.1936 32.2047 11.8927C32.0324 12.2817 31.9831 12.5895 31.8428 12.5895C31.6409 12.5895 31.7862 12.3236 31.6237 11.7278C31.4095 10.9449 30.7645 10.1152 29.3956 10.1152C27.9579 10.1152 27.34 11.3363 27.0494 12.0084C26.8475 12.4663 26.8475 12.5944 26.6949 12.5944C26.4733 12.5944 26.6579 12.23 26.7564 11.8016C26.8771 11.3117 26.8943 10.8021 26.8057 10.3048H24.5234V18.9266H27.6328V14.6429C27.6328 13.7959 27.9874 12.725 28.5905 12.725C29.2922 12.725 29.4276 13.2642 29.4276 14.2613V18.9365H32.5542V14.6429C32.5542 13.8895 32.8594 12.725 33.5143 12.725C34.2234 12.725 34.3464 13.4833 34.3464 14.2613V18.934H37.4189V13.86C37.4214 11.6098 36.6311 10.1105 34.5656 10.1105L34.5657 10.1103Z" fill="black"/>
<path d="M87.4248 10.1103C86.0559 10.1103 85.3765 11.1936 85.0664 11.8927C84.8916 12.2817 84.845 12.5895 84.7021 12.5895C84.5026 12.5895 84.6383 12.2497 84.4853 11.7278C84.2563 10.9498 83.6879 10.1152 82.2572 10.1152C80.8244 10.1152 80.2017 11.3363 79.9089 12.0084C79.7093 12.4663 79.7093 12.5944 79.5568 12.5944C79.3324 12.5944 79.5173 12.23 79.6181 11.8016C79.7387 11.3117 79.7534 10.8021 79.6647 10.3048H77.3828V18.9266H80.4946V14.6429C80.4946 13.7959 80.8467 12.725 81.4496 12.725C82.1467 12.725 82.2891 13.2642 82.2891 14.2613V18.9365H85.4135V14.6429C85.4135 13.8895 85.721 12.725 86.3761 12.725C87.0778 12.725 87.208 13.4833 87.208 14.2613V18.934H90.2782V13.86C90.2807 11.6098 89.4929 10.1105 87.4248 10.1105V10.1103Z" fill="black"/>
<path d="M42.739 10.1129C41.3258 10.1055 39.9275 10.4058 38.6399 10.9918V13.5842C38.6399 13.5842 40.5307 12.4911 42.0646 12.4911C43.2881 12.4911 43.4381 13.1558 43.3839 13.7023C43.3839 13.7023 43.0318 13.6088 41.9537 13.6088C39.4155 13.6088 38.1328 14.7684 38.1328 16.6271C38.1328 18.3899 39.5731 19.126 40.7867 19.126C42.5571 19.126 43.3348 17.932 43.576 17.3632C43.7411 16.9693 43.7705 16.7059 43.9209 16.7059C44.0907 16.7059 44.0314 16.8954 44.0218 17.2869C44.0071 17.9737 44.039 18.4908 44.1449 18.929H46.4961V14.6895C46.4961 12.0405 45.5655 10.1129 42.739 10.1129V10.1129ZM41.9783 16.9152C41.2323 17.0875 40.8482 16.8561 40.8482 16.3613C40.8482 15.6818 41.5499 15.4085 42.5445 15.4085C42.9852 15.4085 43.3987 15.4479 43.3987 15.4479C43.4012 15.7384 42.7734 16.7306 41.9783 16.9152Z" fill="black"/>
<path d="M51.625 7.69772H54.7418V18.9313H51.625V7.69772Z" fill="black"/>
<path d="M58.1756 14.6204C58.1756 13.8449 58.892 13.1407 60.2067 13.1407C61.642 13.1407 62.7941 13.835 63.0525 13.9902V10.9915C63.0525 10.9915 62.1416 10.1126 59.9038 10.1126C57.5428 10.1126 55.5781 11.5012 55.5781 14.4875C55.5781 17.4738 57.3605 19.1257 59.8941 19.1257C61.8735 19.1257 63.055 18.0326 63.055 18.0326V15.1892C62.6806 15.3984 61.642 16.1247 60.2189 16.1247C58.7172 16.1247 58.1756 15.4279 58.1756 14.6205V14.6204Z" fill="black"/>
<path d="M69.3604 10.1128C67.5537 10.1128 66.8717 11.8264 66.7335 12.1291C66.5932 12.432 66.5243 12.5994 66.4112 12.5945C66.2117 12.5895 66.352 12.2301 66.431 11.9962C66.731 11.0213 66.8814 10.007 66.8814 8.98533C66.8814 8.02272 66.7507 7.70264 66.7507 7.70264H64.0625V18.9312H67.1743V14.6425C67.1743 13.9433 67.4524 12.7247 68.2377 12.7247C68.8877 12.7247 69.0898 13.2097 69.0898 14.1846V18.9336H72.2016V14.3692C72.2091 12.1535 71.8423 10.1126 69.3604 10.1126V10.1128Z" fill="black"/>
<path d="M73.2188 10.3195V18.9313H76.3309V10.3195C76.3309 10.3195 75.8061 10.6224 74.7746 10.6224C73.7456 10.6224 73.2188 10.3195 73.2188 10.3195Z" fill="black"/>
<path d="M76.6728 8.86243C76.6728 8.17058 75.8186 7.61176 74.7648 7.61176C73.7136 7.61176 72.8594 8.17058 72.8594 8.86243C72.8594 9.5518 73.7136 10.1131 74.7648 10.1131C75.8186 10.1131 76.6728 9.55176 76.6728 8.86243Z" fill="black"/>
<path d="M47.5078 10.3195V18.9313H50.6196V10.3195C50.6196 10.3195 50.0952 10.6224 49.0662 10.6224C48.0372 10.6224 47.5078 10.3195 47.5078 10.3195Z" fill="black"/>
<path d="M50.9598 8.86243C50.9598 8.17058 50.1052 7.61176 49.0539 7.61176C48.0005 7.61176 47.1484 8.17058 47.1484 8.86243C47.1484 9.5518 48.0005 10.1131 49.0539 10.1131C50.1052 10.1131 50.9598 9.55176 50.9598 8.86243Z" fill="black"/>
<path d="M96.4742 10.1103C94.8738 10.1103 94.1401 11.3216 93.8229 12.0035C93.6112 12.4565 93.6208 12.5895 93.4683 12.5895C93.2465 12.5895 93.4313 12.2251 93.5296 11.7967C93.6502 11.3092 93.6654 10.7997 93.5767 10.3048H91.2969V21.3121H94.4086V17.8211C94.778 18.4513 95.4599 19.1234 96.5162 19.1234C98.7687 19.1234 99.9011 17.2056 99.9011 14.6206C99.899 11.6885 98.5423 10.1104 96.4742 10.1104V10.1103ZM95.62 17.0802C94.9061 17.0802 94.3817 16.1718 94.3817 14.9015C94.3817 13.6681 94.9208 12.7227 95.5952 12.7227C96.462 12.7227 96.8313 13.5228 96.8313 14.9015C96.8313 16.3367 96.4914 17.0802 95.62 17.0802Z" fill="black"/>
</g>
<defs>
<clipPath id="clip0_1_2082">
<rect width="100" height="22.6891" fill="white"/>
</clipPath>
</defs>
</svg>
