<svg width="50" height="36" viewBox="0 0 50 36" fill="none" xmlns="http://www.w3.org/2000/svg">
<g clip-path="url(#clip0_1_2068)">
<path d="M48.6987 34.8903H40.0533C39.7367 34.8903 39.4328 34.7645 39.2091 34.5406C38.9851 34.3166 38.8594 34.013 38.8594 33.6964V1.78567C38.8614 1.47011 38.9879 1.16815 39.2117 0.945496C39.4351 0.722843 39.7377 0.597559 40.0533 0.596896H48.6961C49.0122 0.596207 49.3157 0.720978 49.5402 0.94386C49.7645 1.16672 49.8913 1.46947 49.8925 1.78567V33.6964C49.8928 33.8533 49.8622 34.0087 49.8022 34.1536C49.7425 34.2987 49.6545 34.4303 49.5436 34.5413C49.4326 34.6523 49.301 34.7403 49.1561 34.8C49.0109 34.8599 48.8555 34.8906 48.6987 34.8903Z" fill="url(#paint0_linear_1_2068)"/>
<path d="M8.62936 35.0102L0.907433 31.1225C0.624729 30.9804 0.410043 30.7316 0.310548 30.4311C0.211052 30.1309 0.234889 29.8033 0.376821 29.5204L14.7033 1.02041C14.8455 0.737706 15.0942 0.523012 15.3945 0.423522C15.6949 0.324033 16.0226 0.347859 16.3054 0.489798L24.0299 4.3699C24.3126 4.5121 24.5273 4.76069 24.6268 5.0611C24.7263 5.36148 24.7024 5.68911 24.5605 5.97194L10.2314 34.4796C10.0892 34.7622 9.84061 34.977 9.5402 35.0765C9.23982 35.176 8.91219 35.152 8.62936 35.0102Z" fill="url(#paint1_linear_1_2068)"/>
<path d="M31.4377 34.3674L37.5602 3.29348C37.6211 2.98407 37.5571 2.6631 37.3821 2.4007C37.2071 2.13831 36.9354 1.95578 36.6265 1.89297L28.1546 0.181238C28.0005 0.150396 27.8418 0.150192 27.6877 0.180677C27.5334 0.211161 27.3867 0.271721 27.2561 0.35889C27.1252 0.446084 27.013 0.558178 26.9255 0.688765C26.838 0.819352 26.7773 0.965905 26.7464 1.12001L20.6239 32.1964C20.5631 32.5064 20.6275 32.8276 20.8029 33.0901C20.9784 33.3526 21.2507 33.535 21.5602 33.597L30.0296 35.3061C30.1836 35.3378 30.3426 35.3385 30.4969 35.3084C30.6515 35.2781 30.7984 35.2176 30.9293 35.1304C31.0602 35.0431 31.1727 34.9306 31.2599 34.7998C31.3472 34.6689 31.4076 34.522 31.4377 34.3674Z" fill="url(#paint2_linear_1_2068)"/>
</g>
<defs>
<linearGradient id="paint0_linear_1_2068" x1="28.3747" y1="23.6454" x2="51.6987" y2="15.0459" gradientUnits="userSpaceOnUse">
<stop offset="0.02" stop-color="#B02DE9"/>
<stop offset="0.8" stop-color="#6D00CC"/>
</linearGradient>
<linearGradient id="paint1_linear_1_2068" x1="7.90232" y1="19.7219" x2="32.9763" y2="8.8801" gradientUnits="userSpaceOnUse">
<stop stop-color="#FF00FF"/>
<stop offset="0.18" stop-color="#E80DF9"/>
<stop offset="0.54" stop-color="#C024ED"/>
<stop offset="0.73" stop-color="#B02DE9"/>
</linearGradient>
<linearGradient id="paint2_linear_1_2068" x1="2.05251" y1="27.7015" x2="53.4505" y2="8.77817" gradientUnits="userSpaceOnUse">
<stop offset="0.02" stop-color="#FF00FF"/>
<stop offset="0.09" stop-color="#E80DF9"/>
<stop offset="0.23" stop-color="#C024ED"/>
<stop offset="0.3" stop-color="#B02DE9"/>
<stop offset="0.42" stop-color="#A42BE3"/>
<stop offset="0.63" stop-color="#8527D5"/>
<stop offset="0.85" stop-color="#6021C3"/>
</linearGradient>
<clipPath id="clip0_1_2068">
<rect width="50" height="35.4592" fill="white"/>
</clipPath>
</defs>
</svg>
