<svg width="100" height="23" viewBox="0 0 100 23" fill="none" xmlns="http://www.w3.org/2000/svg">
<path d="M32.8828 17.931V3.92713H35.9199L40.0801 10.9486H40.1582L44.3183 3.92713H47.3164V17.931H44.6796V8.27282H44.6015L40.1972 15.5873H40.0019L35.5976 8.2142H35.5195V17.931H32.8828ZM54.6015 18.1068C52.9739 18.1068 51.7272 17.6153 50.8613 16.6322C49.9824 15.6557 49.543 14.3633 49.543 12.7552C49.543 11.1472 49.9824 9.8451 50.8613 8.84903C51.7402 7.85289 52.987 7.35489 54.6015 7.35489C56.2031 7.35489 57.4433 7.85289 58.3223 8.84903C59.2012 9.8451 59.6406 11.1472 59.6406 12.7552C59.6406 14.3438 59.2076 15.6296 58.3418 16.6127C57.4629 17.6088 56.2161 18.1068 54.6015 18.1068ZM54.6015 15.7533C56.1445 15.7533 56.916 14.7539 56.916 12.7552C56.916 10.724 56.1445 9.70834 54.6015 9.70834C53.0521 9.70834 52.2773 10.724 52.2773 12.7552C52.2773 14.7539 53.0521 15.7533 54.6015 15.7533ZM67.1406 18.1068C65.8971 18.1068 64.9401 17.6739 64.2695 16.808H64.1816L63.9082 17.931H61.5058V3.12634H64.1816V8.65372H64.2695C64.9401 7.78779 65.8971 7.35489 67.1406 7.35489C68.4622 7.35489 69.5041 7.85289 70.2654 8.84903C71.0275 9.8451 71.4082 11.1407 71.4082 12.7357C71.4082 14.3568 71.0275 15.6557 70.2654 16.6322C69.4778 17.6153 68.4362 18.1068 67.1406 18.1068ZM64.6406 14.8939C65.0182 15.4668 65.6009 15.7533 66.3886 15.7533C67.1764 15.7533 67.7623 15.4734 68.1465 14.9134C68.5045 14.3601 68.6836 13.6341 68.6836 12.7357C68.6836 11.8177 68.5045 11.0821 68.1465 10.5287C67.7558 9.98179 67.1699 9.70834 66.3886 9.70834C65.5878 9.70834 65.0052 9.98834 64.6406 10.5482C64.2695 11.0886 64.084 11.8177 64.084 12.7357C64.084 13.6341 64.2695 14.3536 64.6406 14.8939ZM78.8985 18.1068C77.6551 18.1068 76.6978 17.6739 76.0275 16.808H75.9392L75.6661 17.931H73.2634V3.12634H75.9392V8.65372H76.0275C76.6978 7.78779 77.6551 7.35489 78.8985 7.35489C80.2199 7.35489 81.262 7.85289 82.0234 8.84903C82.7854 9.8451 83.1661 11.1407 83.1661 12.7357C83.1661 14.3568 82.7854 15.6557 82.0234 16.6322C81.2358 17.6153 80.1937 18.1068 78.8985 18.1068ZM76.3985 14.8939C76.7758 15.4668 77.3585 15.7533 78.1461 15.7533C78.9344 15.7533 79.5199 15.4734 79.9041 14.9134C80.2627 14.3601 80.4413 13.6341 80.4413 12.7357C80.4413 11.8177 80.2627 11.0821 79.9041 10.5287C79.5137 9.98179 78.9275 9.70834 78.1461 9.70834C77.3454 9.70834 76.7627 9.98834 76.3985 10.5482C76.0275 11.0886 75.842 11.8177 75.842 12.7357C75.842 13.6341 76.0275 14.3536 76.3985 14.8939ZM86.3785 6.23179C85.8254 6.23179 85.4123 6.08531 85.1385 5.79234C84.8585 5.51241 84.7185 5.11202 84.7185 4.59119C84.7185 4.10291 84.8585 3.70902 85.1385 3.40955C85.4185 3.1296 85.8323 2.98962 86.3785 2.98962C86.893 2.98962 87.2999 3.1296 87.5999 3.40955C87.8923 3.70251 88.0392 4.0964 88.0392 4.59119C88.0392 5.11853 87.8923 5.51889 87.5999 5.79234C87.3068 6.08531 86.8999 6.23179 86.3785 6.23179ZM85.0213 17.931V7.53062H87.6972V17.931H85.0213ZM89.9627 17.931V7.53062H92.3654L92.5606 8.71227H92.6385C93.3289 7.80731 94.3151 7.35489 95.5978 7.35489C96.7565 7.35489 97.6778 7.68689 98.3613 8.35096C99.0447 9.03455 99.3868 9.95579 99.3868 11.1146V17.931H96.7013V11.8665C96.7013 10.4799 96.0599 9.78648 94.7772 9.78648C94.1461 9.78648 93.6344 10.0014 93.2441 10.431C92.8406 10.8542 92.6385 11.4337 92.6385 12.1693V17.931H89.9627Z" fill="black"/>
<path fill-rule="evenodd" clip-rule="evenodd" d="M18.721 0.69115C18.6334 0.683972 18.5428 0.702439 18.4609 0.749701L11.6705 4.67016L4.88009 0.749701C4.80559 0.706694 4.72388 0.687531 4.64378 0.689839C4.56368 0.687531 4.48197 0.706694 4.40748 0.749701L0.918417 2.76411C0.781976 2.84289 0.702693 2.98265 0.695121 3.12909C0.690114 3.15588 0.6875 3.18352 0.6875 3.21176V19.1032C0.6875 19.1263 0.689259 19.1491 0.692645 19.1713C0.682252 19.3357 0.763334 19.4997 0.915659 19.5876L4.40471 21.602C4.4901 21.6513 4.58498 21.6692 4.67604 21.6594C4.7671 21.6692 4.86198 21.6513 4.94736 21.602L8.4364 19.5876C8.51019 19.545 8.56722 19.4846 8.60529 19.415C8.65122 19.3446 8.67798 19.2606 8.67798 19.1703V11.5216L11.5225 13.1639C11.6044 13.2111 11.6949 13.2296 11.7825 13.2224C11.8701 13.2296 11.9606 13.2111 12.0425 13.1639L14.7883 11.5785V19.1703C14.7883 19.2131 14.7943 19.2544 14.8054 19.2936C14.831 19.413 14.9052 19.5217 15.0194 19.5876L18.5084 21.602C18.5921 21.6503 18.6849 21.6685 18.7744 21.66C18.8638 21.6685 18.9566 21.6503 19.0403 21.602L22.5294 19.5876C22.6833 19.4988 22.7645 19.3323 22.7521 19.1663C22.7549 19.1457 22.7565 19.1246 22.7565 19.1032V3.21176C22.7565 3.06932 22.6899 2.94242 22.5863 2.86043C22.5542 2.82296 22.5152 2.79019 22.4701 2.76411L18.981 0.749701C18.8992 0.702439 18.8086 0.683972 18.721 0.69115ZM21.8612 18.9396V3.67267L11.8186 9.47076C11.7445 9.51358 11.6632 9.53276 11.5835 9.53069C11.5038 9.53276 11.4225 9.51358 11.3484 9.47076L1.58279 3.83258V18.939L4.26864 20.4897V8.80731C4.26864 8.68103 4.32095 8.56696 4.40509 8.48558C4.53771 8.30117 4.79114 8.24372 4.99204 8.35972L11.7825 12.2801L18.5729 8.35972C18.787 8.23607 19.0608 8.30945 19.1844 8.52358C19.2047 8.55876 19.2198 8.59558 19.2297 8.6331C19.2523 8.68669 19.2649 8.74552 19.2649 8.80731V20.4386L21.8612 18.9396ZM18.3696 20.4881L15.6836 18.9372V11.1127C15.6836 11.096 15.6827 11.0795 15.6809 11.0632L18.3696 9.51089V20.4881ZM7.78267 18.9312V11.1127C7.78267 11.0779 7.78667 11.0439 7.79419 11.0113L5.16393 9.49276V20.4432L7.78267 18.9312ZM21.1619 3.04262L11.5835 8.57269L2.11587 3.10656L4.64378 1.64707L11.4105 5.55386C11.4924 5.6011 11.5829 5.61958 11.6705 5.61241C11.7581 5.61958 11.8487 5.6011 11.9305 5.55386L18.721 1.63338L21.1619 3.04262Z" fill="black"/>
<path d="M18.7216 0.691153L18.7074 0.862994L18.7216 0.864146L18.7356 0.862994L18.7216 0.691153ZM11.6711 4.67017L11.5849 4.81948L11.6711 4.86926L11.7573 4.81948L11.6711 4.67017ZM4.64432 0.689843L4.63935 0.862188L4.64432 0.862325L4.64929 0.862188L4.64432 0.689843ZM0.695659 3.12909L0.865142 3.16073L0.867246 3.14945L0.867839 3.13799L0.695659 3.12909ZM0.693184 19.1713L0.86526 19.1822L0.866432 19.1637L0.863625 19.1453L0.693184 19.1713ZM4.67658 21.6594L4.69502 21.4881L4.67658 21.4861L4.65815 21.4881L4.67658 21.6594ZM8.60583 19.415L8.46149 19.3206L8.45776 19.3263L8.45452 19.3323L8.60583 19.415ZM8.67852 11.5216L8.76473 11.3723L8.50611 11.2229V11.5216H8.67852ZM11.7831 13.2224L11.7971 13.0506L11.783 13.0494L11.7689 13.0506L11.7831 13.2224ZM14.7888 11.5786H14.9612V11.2799L14.7026 11.4292L14.7888 11.5786ZM14.806 19.2936L14.9746 19.2574L14.9733 19.2518L14.9718 19.2462L14.806 19.2936ZM18.7749 21.66L18.7913 21.4884L18.7749 21.4868L18.7585 21.4884L18.7749 21.66ZM22.7526 19.1663L22.5819 19.1422L22.5793 19.1606L22.5807 19.1791L22.7526 19.1663ZM22.5868 2.86044L22.4559 2.97262L22.4667 2.98531L22.4798 2.99568L22.5868 2.86044ZM21.8617 18.9396L21.9479 19.0889L22.0341 19.0391V18.9396H21.8617ZM21.8617 3.67268H22.0341V3.37405L21.7755 3.52337L21.8617 3.67268ZM11.584 9.53069L11.5885 9.35807L11.5796 9.35828L11.584 9.53069ZM1.58333 3.83259L1.66954 3.68327L1.41091 3.53396V3.83259H1.58333ZM1.58333 18.939H1.41091V19.0385L1.49712 19.0883L1.58333 18.939ZM4.26918 20.4897L4.18297 20.639L4.44159 20.7883V20.4897H4.26918ZM4.40563 8.48559L4.5255 8.60945L4.53659 8.59876L4.5456 8.58621L4.40563 8.48559ZM11.783 12.2801L11.6968 12.4294L11.783 12.4792L11.8692 12.4294L11.783 12.2801ZM19.2302 8.6331L19.0636 8.67724L19.0667 8.68904L19.0714 8.70028L19.2302 8.6331ZM19.2654 20.4386H19.093V20.7372L19.3516 20.5879L19.2654 20.4386ZM15.6841 18.9372H15.5117V19.0368L15.5979 19.0866L15.6841 18.9372ZM18.3701 20.4881L18.2839 20.6374L18.5425 20.7867V20.4881H18.3701ZM15.6814 11.0632L15.5952 10.9139L15.4977 10.9702L15.51 11.0821L15.6814 11.0632ZM18.3701 9.5109H18.5425V9.21228L18.2839 9.36159L18.3701 9.5109ZM7.78321 18.9312L7.86942 19.0806L7.95563 19.0308V18.9312H7.78321ZM7.79473 11.0113L7.96273 11.0502L7.99149 10.9259L7.88094 10.862L7.79473 11.0113ZM5.16447 9.49276L5.25068 9.34345L4.99206 9.19414V9.49276H5.16447ZM5.16447 20.4432H4.99206V20.7418L5.25068 20.5925L5.16447 20.4432ZM11.584 8.57269L11.4978 8.722L11.584 8.77179L11.6702 8.722L11.584 8.57269ZM21.1625 3.04262L21.2487 3.19194L21.5073 3.04262L21.2487 2.89331L21.1625 3.04262ZM2.1164 3.10656L2.0302 2.95725L1.77158 3.10656L2.0302 3.25588L2.1164 3.10656ZM4.64432 1.64707L4.73053 1.49775L4.64432 1.44798L4.55811 1.49775L4.64432 1.64707ZM11.6711 5.61241L11.6851 5.44058L11.6711 5.43943L11.657 5.44058L11.6711 5.61241ZM18.7216 1.63338L18.8078 1.48406L18.7216 1.43429L18.6353 1.48406L18.7216 1.63338ZM18.5477 0.899022C18.5982 0.869843 18.6537 0.858588 18.7074 0.862994L18.7356 0.51932C18.6142 0.509361 18.4885 0.535044 18.3753 0.600389L18.5477 0.899022ZM11.7573 4.81948L18.5477 0.899022L18.3753 0.600389L11.5849 4.52086L11.7573 4.81948ZM4.79442 0.899022L11.5849 4.81948L11.7573 4.52086L4.96683 0.600389L4.79442 0.899022ZM4.64929 0.862188C4.69837 0.860767 4.74838 0.872443 4.79442 0.899022L4.96683 0.600389C4.86388 0.540954 4.75047 0.514299 4.63935 0.517499L4.64929 0.862188ZM4.49423 0.899022C4.54026 0.872443 4.59027 0.860767 4.63935 0.862188L4.64929 0.517499C4.53817 0.514299 4.42476 0.540954 4.32181 0.600389L4.49423 0.899022ZM1.00516 2.91343L4.49423 0.899022L4.32181 0.600389L0.832749 2.6148L1.00516 2.91343ZM0.867839 3.13799C0.872522 3.04743 0.921425 2.96177 1.00516 2.91343L0.832749 2.6148C0.6436 2.72401 0.533934 2.91787 0.523473 3.12019L0.867839 3.13799ZM0.860453 3.21176C0.860453 3.19418 0.86208 3.17714 0.865142 3.16073L0.526172 3.09744C0.519231 3.13462 0.515625 3.17285 0.515625 3.21176H0.860453ZM0.860453 19.1032V3.21176H0.515625V19.1032H0.860453ZM0.863625 19.1453C0.861549 19.1317 0.860453 19.1177 0.860453 19.1032H0.515625C0.515625 19.1351 0.518048 19.1666 0.522747 19.1973L0.863625 19.1453ZM1.0024 19.4383C0.90897 19.3843 0.858839 19.2837 0.86526 19.1822L0.521117 19.1604C0.506746 19.3877 0.618783 19.615 0.829991 19.7369L1.0024 19.4383ZM4.49146 21.4527L1.0024 19.4383L0.829991 19.7369L4.31905 21.7513L4.49146 21.4527ZM4.65815 21.4881C4.6022 21.4941 4.54414 21.4831 4.49146 21.4527L4.31905 21.7513C4.43714 21.8195 4.56884 21.8445 4.69502 21.8309L4.65815 21.4881ZM4.86169 21.4527C4.80901 21.4831 4.75096 21.4941 4.69502 21.4881L4.65815 21.8309C4.78432 21.8445 4.91601 21.8195 5.03411 21.7513L4.86169 21.4527ZM8.35073 19.4383L4.86169 21.4527L5.03411 21.7513L8.52314 19.7369L8.35073 19.4383ZM8.45452 19.3323C8.43121 19.375 8.39631 19.4119 8.35073 19.4383L8.52314 19.7369C8.62507 19.6781 8.70431 19.5942 8.75714 19.4976L8.45452 19.3323ZM8.50611 19.1703C8.50611 19.2261 8.48969 19.2775 8.46149 19.3206L8.75018 19.5092C8.8139 19.4118 8.85094 19.2951 8.85094 19.1703H8.50611ZM8.50611 11.5216V19.1703H8.85094V11.5216H8.50611ZM11.6093 13.0146L8.76473 11.3723L8.59231 11.6709L11.4369 13.3132L11.6093 13.0146ZM11.7689 13.0506C11.7152 13.055 11.6598 13.0437 11.6093 13.0146L11.4369 13.3132C11.55 13.3786 11.6758 13.4042 11.7971 13.3943L11.7689 13.0506ZM11.9568 13.0146C11.9062 13.0437 11.8509 13.055 11.7971 13.0506L11.769 13.3943C11.8903 13.4042 12.016 13.3785 12.1292 13.3132L11.9568 13.0146ZM14.7026 11.4292L11.9568 13.0146L12.1292 13.3132L14.875 11.7279L14.7026 11.4292ZM14.9612 19.1703V11.5786H14.6164V19.1703H14.9612ZM14.9718 19.2462C14.9649 19.2223 14.9612 19.1969 14.9612 19.1703H14.6164C14.6164 19.2292 14.6247 19.2866 14.6402 19.341L14.9718 19.2462ZM15.1061 19.4383C15.0359 19.3977 14.9904 19.3312 14.9746 19.2574L14.6374 19.3297C14.6728 19.4949 14.7756 19.6456 14.9337 19.7369L15.1061 19.4383ZM18.5951 21.4527L15.1061 19.4383L14.9337 19.7369L18.4227 21.7513L18.5951 21.4527ZM18.7585 21.4884C18.7036 21.4937 18.6468 21.4825 18.5951 21.4527L18.4227 21.7513C18.5385 21.8181 18.6673 21.8434 18.7913 21.8317L18.7585 21.4884ZM18.9547 21.4527C18.903 21.4825 18.8462 21.4937 18.7913 21.4884L18.7585 21.8317C18.8825 21.8434 19.0114 21.8181 19.1271 21.7513L18.9547 21.4527ZM22.4438 19.4383L18.9547 21.4527L19.1271 21.7513L22.6162 19.7369L22.4438 19.4383ZM22.5807 19.1791C22.5883 19.2817 22.5381 19.3838 22.4438 19.4383L22.6162 19.7369C22.8295 19.6137 22.9417 19.383 22.9245 19.1534L22.5807 19.1791ZM22.5846 19.1032C22.5846 19.1166 22.5837 19.1296 22.5819 19.1422L22.9233 19.1903C22.9273 19.1618 22.9294 19.1327 22.9294 19.1032H22.5846ZM22.5846 3.21176V19.1032H22.9294V3.21176H22.5846ZM22.4798 2.99568C22.544 3.04637 22.5846 3.12427 22.5846 3.21176H22.9294C22.9294 3.01438 22.837 2.83848 22.6938 2.7252L22.4798 2.99568ZM22.3844 2.91343C22.4125 2.92962 22.4363 2.94976 22.4559 2.97262L22.7178 2.74826C22.6731 2.69616 22.6191 2.65077 22.5568 2.6148L22.3844 2.91343ZM18.8953 0.899022L22.3844 2.91343L22.5568 2.6148L19.0678 0.600389L18.8953 0.899022ZM18.7356 0.862994C18.7893 0.858588 18.8448 0.869843 18.8953 0.899022L19.0678 0.600389C18.9546 0.535044 18.8289 0.509368 18.7074 0.51932L18.7356 0.862994ZM22.0341 18.9396V3.67268H21.6893V18.9396H22.0341ZM21.7755 3.52337L11.7329 9.32145L11.9053 9.62007L21.9479 3.82199L21.7755 3.52337ZM11.7329 9.32145C11.6871 9.34786 11.6373 9.35938 11.5885 9.35807L11.5796 9.70304C11.6901 9.70593 11.8029 9.67924 11.9053 9.62007L11.7329 9.32145ZM11.5796 9.35828C11.5307 9.35959 11.4809 9.34786 11.4351 9.32145L11.2627 9.62007C11.3651 9.67924 11.478 9.70593 11.5885 9.70304L11.5796 9.35828ZM11.4351 9.32145L1.66954 3.68327L1.49712 3.9819L11.2627 9.62007L11.4351 9.32145ZM1.41091 3.83259V18.939H1.75574V3.83259H1.41091ZM1.49712 19.0883L4.18297 20.639L4.35538 20.3403L1.66954 18.7897L1.49712 19.0883ZM4.44159 20.4897V8.80731H4.09676V20.4897H4.44159ZM4.44159 8.80731C4.44159 8.72966 4.47355 8.65973 4.5255 8.60945L4.28575 8.36166C4.16943 8.47414 4.09676 8.63242 4.09676 8.80731H4.44159ZM4.5456 8.58621C4.62703 8.47297 4.78294 8.43773 4.90638 8.50904L5.07879 8.21041C4.80042 8.04966 4.44946 8.12931 4.26565 8.3849L4.5456 8.58621ZM4.90638 8.50904L11.6968 12.4294L11.8692 12.1308L5.07879 8.21041L4.90638 8.50904ZM11.8692 12.4294L18.6597 8.50904L18.4873 8.21041L11.6968 12.1308L11.8692 12.4294ZM18.6597 8.50904C18.7914 8.43304 18.9596 8.47814 19.0356 8.60979L19.3343 8.43738C19.1631 8.14076 18.7838 8.03917 18.4873 8.21041L18.6597 8.50904ZM19.0356 8.60979C19.0483 8.63166 19.0575 8.65428 19.0636 8.67724L19.3969 8.58904C19.3831 8.5369 19.3623 8.48593 19.3343 8.43738L19.0356 8.60979ZM19.0714 8.70028C19.0853 8.73297 19.093 8.76904 19.093 8.80731H19.4378C19.4378 8.72207 19.4205 8.64035 19.389 8.56593L19.0714 8.70028ZM19.093 8.80731V20.4386H19.4378V8.80731H19.093ZM19.3516 20.5879L21.9479 19.0889L21.7755 18.7903L19.1792 20.2892L19.3516 20.5879ZM15.5979 19.0866L18.2839 20.6374L18.4563 20.3387L15.7703 18.7879L15.5979 19.0866ZM15.5117 11.1127V18.9372H15.8565V11.1127H15.5117ZM15.51 11.0821C15.5111 11.0921 15.5117 11.1023 15.5117 11.1127H15.8565C15.8565 11.0897 15.8553 11.0669 15.8528 11.0444L15.51 11.0821ZM18.2839 9.36159L15.5952 10.9139L15.7676 11.2126L18.4563 9.66021L18.2839 9.36159ZM18.5425 20.4881V9.5109H18.1977V20.4881H18.5425ZM7.6108 11.1127V18.9312H7.95563V11.1127H7.6108ZM7.6268 10.9724C7.61631 11.0177 7.6108 11.0647 7.6108 11.1127H7.95563C7.95563 11.091 7.95811 11.0701 7.96273 11.0502L7.6268 10.9724ZM5.07827 9.64207L7.70852 11.1606L7.88094 10.862L5.25068 9.34345L5.07827 9.64207ZM5.33689 20.4432V9.49276H4.99206V20.4432H5.33689ZM7.697 18.7819L5.07827 20.2939L5.25068 20.5925L7.86942 19.0806L7.697 18.7819ZM11.6702 8.722L21.2487 3.19194L21.0762 2.89331L11.4978 8.42338L11.6702 8.722ZM2.0302 3.25588L11.4978 8.722L11.6702 8.42338L2.20261 2.95725L2.0302 3.25588ZM4.55811 1.49775L2.0302 2.95725L2.20261 3.25588L4.73053 1.79639L4.55811 1.49775ZM11.4973 5.40455L4.73053 1.49775L4.55811 1.79639L11.3249 5.70317L11.4973 5.40455ZM11.657 5.44058C11.6033 5.44499 11.5478 5.43373 11.4973 5.40455L11.3249 5.70317C11.438 5.76855 11.5638 5.79421 11.6851 5.78428L11.657 5.44058ZM11.8448 5.40455C11.7943 5.43373 11.7389 5.44499 11.6851 5.44058L11.657 5.78428C11.7784 5.79421 11.9041 5.76855 12.0172 5.70317L11.8448 5.40455ZM18.6353 1.48406L11.8448 5.40455L12.0172 5.70317L18.8078 1.78269L18.6353 1.48406ZM21.2487 2.89331L18.8078 1.48406L18.6353 1.78269L21.0762 3.19194L21.2487 2.89331Z" fill="black"/>
</svg>
