<svg width="50" height="50" viewBox="0 0 50 50" fill="none" xmlns="http://www.w3.org/2000/svg">
<g clip-path="url(#clip0_1_1836)">
<path d="M28.7915 20.5899L38.2915 4.13489C43.4357 7.46028 47.1619 12.5772 48.748 18.4936C50.334 24.4102 49.6669 30.7048 46.8758 36.1574L30.4207 26.6686C29.9146 26.3765 29.471 25.9875 29.1151 25.5239C28.7593 25.0604 28.4983 24.5312 28.347 23.9667C28.1957 23.4023 28.1571 22.8135 28.2334 22.2342C28.3097 21.6547 28.4993 21.096 28.7915 20.5899Z" fill="#F8B228"/>
<path d="M29.2159 28.8091L45.6709 38.3091C42.3447 43.4523 37.2274 47.1774 31.311 48.7624C25.3946 50.3473 19.1004 49.6793 13.6484 46.8878L23.1484 30.4383C23.7383 29.4191 24.7082 28.6753 25.8455 28.3699C26.9828 28.0646 28.1948 28.2225 29.2159 28.8091Z" fill="#2D1D2F"/>
<path d="M11.4642 45.6518L24.4529 23.1799C24.5789 23.006 24.6353 22.7911 24.6109 22.5778C24.5864 22.3644 24.483 22.1679 24.3209 22.027C24.1588 21.886 23.9498 21.8108 23.7352 21.8163C23.5205 21.8217 23.3156 21.9074 23.1608 22.0563C16.84 27.2723 9.5994 31.2603 1.8125 33.8147C3.69003 38.6858 7.07075 42.832 11.4642 45.6518Z" fill="#6AB3E3"/>
<path d="M1.05298 31.4607C15.8647 26.5846 28.3609 16.4225 36.1541 2.91579C31.8855 0.730821 27.0735 -0.165384 22.3045 0.336375C17.5355 0.838136 13.0154 2.71619 9.29499 5.74169C5.57456 8.7672 2.81449 12.8096 1.35107 17.3761C-0.112342 21.9427 -0.215917 26.8364 1.05298 31.4607Z" fill="#E41E26"/>
</g>
<defs>
<clipPath id="clip0_1_1836">
<rect width="50" height="50" fill="white"/>
</clipPath>
</defs>
</svg>
