<svg width="50" height="51" viewBox="0 0 50 51" fill="none" xmlns="http://www.w3.org/2000/svg">
<g clip-path="url(#clip0_1_1703)">
<path fill-rule="evenodd" clip-rule="evenodd" d="M13.0717 0.932051C11.5111 1.44821 9.70707 2.23912 9.06263 2.69064C7.95556 3.46589 7.80101 3.44215 6.25202 2.26084C5.06111 1.35225 3.98232 1.01033 2.30657 1.01033H0V25.7578V50.5051H4.0404H8.08081V42.2492V33.9932L10.4798 35.176C18.8606 39.3083 28.849 36.7114 34.0763 29.0407C40.5818 19.4952 36.9136 6.46338 26.3611 1.63256C22.5586 -0.108353 17.0919 -0.39623 13.0717 0.932051ZM23.9899 9.21035C27.6944 11.1538 29.4692 14.5538 29.2066 19.2043C28.9611 23.5477 27.2889 26.1659 23.5813 28.0139C14.1631 32.7068 4.69747 23.1503 9.40555 13.7018C12.0556 8.38359 18.5823 6.37348 23.9899 9.21035Z" fill="#001D45"/>
<path d="M35.2109 36.8689L42.4786 31.5775C46.4761 28.6674 49.8039 26.2811 49.8731 26.2745C49.9422 26.2679 49.9993 28.6492 49.9993 31.5659V36.8689H42.6049H35.2109Z" fill="#005DE1"/>
</g>
<defs>
<clipPath id="clip0_1_1703">
<rect width="50" height="50.5051" fill="white"/>
</clipPath>
</defs>
</svg>
