<svg width="100" height="27" viewBox="0 0 100 27" fill="none" xmlns="http://www.w3.org/2000/svg">
<g clip-path="url(#clip0_1_1637)">
<path d="M9.71628 0C15.0824 0 19.4326 4.37362 19.4326 9.76876C19.4326 15.1639 15.0824 19.5375 9.71628 19.5375C4.35013 19.5375 0 15.1639 0 9.76876C0 4.37362 4.35013 0 9.71628 0Z" fill="url(#paint0_radial_1_1637)"/>
<path d="M8.05063 0.109771C6.04282 0.460279 4.35136 1.31707 2.9504 2.69314C1.5107 4.10814 0.619776 5.75681 0.187224 7.81445L0.0387359 8.51547L0.0193679 17.291L0 26.0733H0.180767C0.284063 26.0733 0.613321 26.0409 0.910296 26.0083C3.44751 25.6968 5.60382 24.152 6.7788 21.8088C7.07576 21.2116 7.28884 20.5236 7.43731 19.6668C7.55998 18.9399 7.56645 18.6997 7.54706 14.909L7.52769 10.9171L7.68264 10.5276C7.8957 9.99537 8.48321 9.4047 9.01257 9.1905L9.39993 9.03473L13.0153 9.02824C15.0038 9.02824 16.7468 9.00226 16.8824 8.9763C17.5151 8.85297 18.193 8.32071 18.4641 7.73007C18.5417 7.56777 18.6449 7.24972 18.6902 7.03553C18.7611 6.67852 18.7547 6.58116 18.6513 6.17875C18.3286 4.98442 17.1924 3.32925 16.0302 2.36211C14.7132 1.26515 13.2606 0.531678 11.6918 0.161698C10.8654 -0.0265372 8.99322 -0.0589913 8.05063 0.109771Z" fill="url(#paint1_radial_1_1637)"/>
<mask id="mask0_1_1637" style="mask-type:alpha" maskUnits="userSpaceOnUse" x="24" y="6" width="76" height="14">
<path d="M99.9992 6.81063H24.75V19.2691H99.9992V6.81063Z" fill="white"/>
<path fill-rule="evenodd" clip-rule="evenodd" d="M36.7177 17.2342C36.6936 17.0867 36.6805 15.2628 36.6803 12.0745L36.68 7.14286H38.8184L38.8285 11.9116C38.8385 16.6336 38.8393 16.6816 38.9124 16.8056C39.0428 17.0269 39.1674 17.0711 39.7146 17.0895L40.1991 17.106V18.8339H39.5084C38.6906 18.8339 38.2141 18.7872 37.879 18.6741C37.2345 18.4565 36.8362 17.9626 36.7177 17.2342ZM71.2122 8.93128V6.97674H73.4254V8.93128H71.2122ZM75.7835 18.6689V6.97674H77.9234L77.9421 11.1496L78.1293 10.9906C78.5087 10.6684 79.0378 10.4206 79.629 10.288C79.983 10.2086 81.2769 10.1727 81.6622 10.2315C82.5136 10.3615 83.1146 10.6401 83.6087 11.1337C84.0073 11.5317 84.2855 12.0604 84.4639 12.7588C84.5413 13.0611 84.545 13.142 84.5438 14.5234C84.5425 15.8946 84.5383 15.986 84.4642 16.2495C84.2769 16.9146 84.0574 17.3199 83.6576 17.7387C83.0038 18.4233 82.2423 18.7201 81.0259 18.7645C79.6493 18.8146 78.7367 18.5596 78.0483 17.9326L77.8174 17.7223L77.797 18.6497L75.7835 18.6689ZM86.8159 17.1865C86.7682 16.9608 86.7609 16.257 86.7609 11.9512V6.97674H88.9003L88.9099 11.7455C88.9194 16.4679 88.9202 16.5154 88.9933 16.6395C89.1237 16.8608 89.2483 16.905 89.7955 16.9234L90.28 16.9399V18.6776L89.3458 18.6576C88.6355 18.6427 88.3551 18.6231 88.1757 18.5764C87.4239 18.3806 86.9697 17.9164 86.8159 17.1865ZM24.9141 18.6678V7.58769L27.7529 7.60289L27.8498 7.6034C30.8295 7.61933 31.5146 7.62301 32.2702 7.8244C33.0076 8.02095 33.5255 8.3144 33.974 8.79005C34.4561 9.30138 34.6853 9.88485 34.7654 10.8042C34.8594 11.8844 34.6518 12.9083 34.2078 13.5545C33.6901 14.3078 32.887 14.7623 31.6553 14.9989C31.3852 15.0508 30.3636 15.0652 28.9229 15.0821L27.1815 15.1026L27.1627 18.6678H24.9141ZM32.0561 9.88933C31.8378 9.67231 31.582 9.54158 31.1649 9.43389C30.8845 9.36149 30.1277 9.35372 28.7764 9.33985C28.744 9.33952 28.7112 9.33919 28.678 9.33884L27.1634 9.32327V13.3471H28.5554C29.6287 13.3471 30.6832 13.3347 30.9234 13.2929C31.5483 13.1842 31.9817 12.9469 32.2162 12.5849C32.4373 12.2434 32.4797 12.0695 32.4979 11.4237C32.5212 10.6104 32.4167 10.2477 32.0561 9.88933ZM61.9963 12.116C62.2558 11.0846 63.1166 10.4714 64.6101 10.2538C64.7981 10.2264 65.2883 10.2044 65.7551 10.2023C66.6162 10.1986 67.1486 10.2441 67.823 10.3792C68.271 10.469 69.0666 10.6958 69.1519 10.7581C69.2059 10.7975 69.1877 10.8731 68.9582 11.5586C68.7204 12.269 68.6994 12.3153 68.6176 12.3117C68.5697 12.3095 68.3345 12.2501 68.0951 12.1795C67.3978 11.974 66.8566 11.8938 66.0272 11.873C64.8398 11.8433 64.3215 11.9871 64.1039 12.4069C64.0058 12.5962 64.0428 12.9176 64.1792 13.0609C64.4162 13.3098 64.7788 13.409 65.9546 13.5466C67.5358 13.7317 68.0888 13.8679 68.6107 14.201C69.2048 14.5802 69.4606 15.1418 69.4659 16.0798C69.4705 16.8706 69.2855 17.3631 68.8063 17.8357C68.1102 18.5219 66.9933 18.8179 65.3016 18.7646C64.121 18.7274 63.1425 18.5432 62.0695 18.1558L61.7749 18.0493L62.0282 17.2636C62.1677 16.8316 62.2875 16.4714 62.2946 16.4634C62.3018 16.4554 62.5077 16.5162 62.7524 16.5986C63.524 16.8583 64.1531 16.9939 64.9739 17.0771C65.447 17.1252 66.1617 17.1066 66.4807 17.038C66.7707 16.9757 67.1182 16.8012 67.2215 16.6658C67.4126 16.4161 67.4327 16.0119 67.2666 15.7658C67.087 15.4999 66.6941 15.3938 65.4197 15.2672C64.2375 15.1497 63.633 15.0074 63.0546 14.7105C62.5498 14.4513 62.2373 14.0986 62.0488 13.5749C61.942 13.2778 61.9121 12.4504 61.9963 12.116ZM92.0692 11.543C92.6009 10.8943 93.5269 10.4116 94.5436 10.253C94.9637 10.1875 96.1036 10.1862 96.5295 10.2508C97.9642 10.4681 99.0149 11.1946 99.4941 12.3006C99.7484 12.8872 99.831 13.3974 99.831 14.3811V15.0841L93.4639 15.1026L93.475 15.2293C93.5406 15.9795 93.9735 16.5733 94.6466 16.836C94.977 16.9649 95.1164 16.9953 95.5764 17.0384C96.0486 17.0826 96.6382 17.0407 97.1827 16.9246C97.6059 16.8342 98.3863 16.5815 98.7139 16.4287C98.8478 16.3662 98.9707 16.3151 98.9873 16.3151C99.0038 16.3151 99.1677 16.653 99.3514 17.0661L99.6855 17.8173L99.2659 18.0196C98.6659 18.3093 97.9244 18.5402 97.1101 18.6914C96.6288 18.7806 95.073 18.7826 94.57 18.6945C93.0837 18.4347 92.0885 17.7455 91.6121 16.6463C91.3298 15.9952 91.2523 15.4297 91.2793 14.2197C91.2961 13.4671 91.3096 13.3177 91.3926 12.967C91.5074 12.4827 91.7948 11.8778 92.0692 11.543ZM51.8803 16.2246L51.8566 10.3067H54.0006V12.8503C54.0006 14.3984 54.0154 15.5141 54.0385 15.7007C54.1529 16.6279 54.7526 17.0809 55.8689 17.0834C56.8953 17.0857 57.439 16.7694 57.687 16.0255C57.7484 15.841 57.7541 15.625 57.7651 13.0666L57.777 10.3067H59.9169L59.9039 13.2476C59.8925 15.8499 59.8838 16.2168 59.83 16.4351C59.5435 17.5957 58.6649 18.3721 57.3262 18.6473C56.6202 18.7927 55.3609 18.8121 54.5808 18.69C53.1661 18.4684 52.3029 17.7666 51.9754 16.5713L51.8803 16.2246ZM71.2486 18.6678V10.3067H73.389V18.6678H71.2486ZM97.5991 13.1725C97.4415 12.5055 97.0053 12.063 96.3239 11.879C96.2076 11.8475 95.9082 11.8149 95.6589 11.8063C95.1337 11.7884 94.7164 11.8605 94.3901 12.0255C94.1076 12.1683 93.7906 12.4841 93.6651 12.7477C93.5599 12.9683 93.4458 13.4304 93.4458 13.6351V13.7452H97.6543L97.6538 13.5733C97.6534 13.4787 97.6289 13.2984 97.5991 13.1725ZM82.3014 13.2566C82.0921 12.575 81.6353 12.1496 80.9461 11.9943C80.618 11.9204 79.7513 11.9202 79.4114 11.9939C78.6722 12.1544 78.2026 12.5946 78.0066 13.3109C77.9129 13.6531 77.9116 15.3543 78.0048 15.6902C78.1911 16.3626 78.5938 16.7405 79.3313 16.9359C79.5574 16.9957 79.722 17.0098 80.1915 17.0098C81.0657 17.0098 81.5014 16.8723 81.8752 16.4781C82.0712 16.2712 82.1971 16.046 82.3001 15.7179C82.3599 15.5271 82.3682 15.3775 82.3682 14.4872C82.3682 13.6063 82.3594 13.4454 82.3014 13.2566Z" fill="black"/>
<path fill-rule="evenodd" clip-rule="evenodd" d="M44.9143 10.3892C43.7917 10.5345 42.9298 10.9279 42.3392 11.5641L43.4811 13.0399C43.5055 13.0399 43.7834 12.7431 43.8886 12.6425C44.1 12.4401 44.5346 12.2088 44.8781 12.1157C45.213 12.025 45.9474 12.0078 46.3148 12.0821C46.8822 12.1968 47.2092 12.4154 47.3829 12.7961C47.4719 12.9912 47.4892 13.0811 47.5017 13.4113L47.5161 13.798L45.6709 13.8123C43.9472 13.8258 43.8032 13.8318 43.4811 13.9042C42.6239 14.0967 42.066 14.4778 41.7626 15.078C41.5864 15.4265 41.5234 15.7483 41.5234 16.3002C41.5234 16.8591 41.5861 17.1716 41.7736 17.549C42.1596 18.3256 42.9022 18.7669 44.0618 18.9091C44.4731 18.9596 45.3781 18.9309 45.7515 18.8555C46.3821 18.7282 46.9802 18.4561 47.3974 18.1068L47.6533 17.8924C47.8394 18.5216 48.2924 18.8877 48.5869 18.9369C49.0852 19.0199 50.3311 18.9369 50.3311 18.9369V17.0266C50.3311 17.0266 49.7495 16.9435 49.6666 16.7774C49.5837 16.6113 49.6666 15.8478 49.6666 15.8478C49.6665 13.2235 49.6596 12.8504 49.607 12.6258C49.3037 11.3328 48.4716 10.6507 46.9163 10.4203C46.5656 10.3684 45.2349 10.3477 44.9143 10.3892ZM47.4337 16.3876C47.4954 16.2233 47.5083 16.1046 47.5083 15.7016V15.2144L46.0844 15.2172C44.3362 15.2208 44.158 15.2482 43.8877 15.5554C43.7469 15.7154 43.6993 15.8838 43.6992 16.2237C43.6989 16.6023 43.7547 16.7563 43.9709 16.9733C44.2841 17.2877 44.7783 17.4126 45.5492 17.3728C46.0668 17.3458 46.3542 17.2787 46.7331 17.096C47.0844 16.9267 47.3216 16.6869 47.4337 16.3876Z" fill="black"/>
</mask>
<g mask="url(#mask0_1_1637)">
<path fill-rule="evenodd" clip-rule="evenodd" d="M36.7177 17.2342C36.6936 17.0867 36.6805 15.2628 36.6803 12.0745L36.68 7.14286H38.8184L38.8285 11.9116C38.8385 16.6336 38.8393 16.6816 38.9124 16.8056C39.0428 17.0269 39.1674 17.0711 39.7146 17.0895L40.1991 17.106V18.8339H39.5084C38.6906 18.8339 38.2141 18.7872 37.879 18.6741C37.2345 18.4565 36.8362 17.9626 36.7177 17.2342ZM71.2122 8.93128V6.97674H73.4254V8.93128H71.2122ZM75.7835 18.6689V6.97674H77.9234L77.9421 11.1496L78.1293 10.9906C78.5087 10.6684 79.0378 10.4206 79.629 10.288C79.983 10.2086 81.2769 10.1727 81.6622 10.2315C82.5136 10.3615 83.1146 10.6401 83.6087 11.1337C84.0073 11.5317 84.2855 12.0604 84.4639 12.7588C84.5413 13.0611 84.545 13.142 84.5438 14.5234C84.5425 15.8946 84.5383 15.986 84.4642 16.2495C84.2769 16.9146 84.0574 17.3199 83.6576 17.7387C83.0038 18.4233 82.2423 18.7201 81.0259 18.7645C79.6493 18.8146 78.7367 18.5596 78.0483 17.9326L77.8174 17.7223L77.797 18.6497L75.7835 18.6689ZM86.8159 17.1865C86.7682 16.9608 86.7609 16.257 86.7609 11.9512V6.97674H88.9003L88.9099 11.7455C88.9194 16.4679 88.9202 16.5154 88.9933 16.6395C89.1237 16.8608 89.2483 16.905 89.7955 16.9234L90.28 16.9399V18.6776L89.3458 18.6576C88.6355 18.6427 88.3551 18.6231 88.1757 18.5764C87.4239 18.3806 86.9697 17.9164 86.8159 17.1865ZM24.9141 18.6678V7.58769L27.7529 7.60289L27.8498 7.6034C30.8295 7.61933 31.5146 7.62301 32.2702 7.8244C33.0076 8.02095 33.5255 8.3144 33.974 8.79005C34.4561 9.30138 34.6853 9.88485 34.7654 10.8042C34.8594 11.8844 34.6518 12.9083 34.2078 13.5545C33.6901 14.3078 32.887 14.7623 31.6553 14.9989C31.3852 15.0508 30.3636 15.0652 28.9229 15.0821L27.1815 15.1026L27.1627 18.6678H24.9141ZM32.0561 9.88933C31.8378 9.67231 31.582 9.54158 31.1649 9.43389C30.8845 9.36149 30.1277 9.35372 28.7764 9.33985C28.744 9.33952 28.7112 9.33919 28.678 9.33884L27.1634 9.32327V13.3471H28.5554C29.6287 13.3471 30.6832 13.3347 30.9234 13.2929C31.5483 13.1842 31.9817 12.9469 32.2162 12.5849C32.4373 12.2434 32.4797 12.0695 32.4979 11.4237C32.5212 10.6104 32.4167 10.2477 32.0561 9.88933ZM61.9963 12.116C62.2558 11.0846 63.1166 10.4714 64.6101 10.2538C64.7981 10.2264 65.2883 10.2044 65.7551 10.2023C66.6162 10.1986 67.1486 10.2441 67.823 10.3792C68.271 10.469 69.0666 10.6958 69.1519 10.7581C69.2059 10.7975 69.1877 10.8731 68.9582 11.5586C68.7204 12.269 68.6994 12.3153 68.6176 12.3117C68.5697 12.3095 68.3345 12.2501 68.0951 12.1795C67.3978 11.974 66.8566 11.8938 66.0272 11.873C64.8398 11.8433 64.3215 11.9871 64.1039 12.4069C64.0058 12.5962 64.0428 12.9176 64.1792 13.0609C64.4162 13.3098 64.7788 13.409 65.9546 13.5466C67.5358 13.7317 68.0888 13.8679 68.6107 14.201C69.2048 14.5802 69.4606 15.1418 69.4659 16.0798C69.4705 16.8706 69.2855 17.3631 68.8063 17.8357C68.1102 18.5219 66.9933 18.8179 65.3016 18.7646C64.121 18.7274 63.1425 18.5432 62.0695 18.1558L61.7749 18.0493L62.0282 17.2636C62.1677 16.8316 62.2875 16.4714 62.2946 16.4634C62.3018 16.4554 62.5077 16.5162 62.7524 16.5986C63.524 16.8583 64.1531 16.9939 64.9739 17.0771C65.447 17.1252 66.1617 17.1066 66.4807 17.038C66.7707 16.9757 67.1182 16.8012 67.2215 16.6658C67.4126 16.4161 67.4327 16.0119 67.2666 15.7658C67.087 15.4999 66.6941 15.3938 65.4197 15.2672C64.2375 15.1497 63.633 15.0074 63.0546 14.7105C62.5498 14.4513 62.2373 14.0986 62.0488 13.5749C61.942 13.2778 61.9121 12.4504 61.9963 12.116ZM92.0692 11.543C92.6009 10.8943 93.5269 10.4116 94.5436 10.253C94.9637 10.1875 96.1036 10.1862 96.5295 10.2508C97.9642 10.4681 99.0149 11.1946 99.4941 12.3006C99.7484 12.8872 99.831 13.3974 99.831 14.3811V15.0841L93.4639 15.1026L93.475 15.2293C93.5406 15.9795 93.9735 16.5733 94.6466 16.836C94.977 16.9649 95.1164 16.9953 95.5764 17.0384C96.0486 17.0826 96.6382 17.0407 97.1827 16.9246C97.6059 16.8342 98.3863 16.5815 98.7139 16.4287C98.8478 16.3662 98.9707 16.3151 98.9873 16.3151C99.0038 16.3151 99.1677 16.653 99.3514 17.0661L99.6855 17.8173L99.2659 18.0196C98.6659 18.3093 97.9244 18.5402 97.1101 18.6914C96.6288 18.7806 95.073 18.7826 94.57 18.6945C93.0837 18.4347 92.0885 17.7455 91.6121 16.6463C91.3298 15.9952 91.2523 15.4297 91.2793 14.2197C91.2961 13.4671 91.3096 13.3177 91.3926 12.967C91.5074 12.4827 91.7948 11.8778 92.0692 11.543ZM51.8803 16.2246L51.8566 10.3067H54.0006V12.8503C54.0006 14.3984 54.0154 15.5141 54.0385 15.7007C54.1529 16.6279 54.7526 17.0809 55.8689 17.0834C56.8953 17.0857 57.439 16.7694 57.687 16.0255C57.7484 15.841 57.7541 15.625 57.7651 13.0666L57.777 10.3067H59.9169L59.9039 13.2476C59.8925 15.8499 59.8838 16.2168 59.83 16.4351C59.5435 17.5957 58.6649 18.3721 57.3262 18.6473C56.6202 18.7927 55.3609 18.8121 54.5808 18.69C53.1661 18.4684 52.3029 17.7666 51.9754 16.5713L51.8803 16.2246ZM71.2486 18.6678V10.3067H73.389V18.6678H71.2486ZM97.5991 13.1725C97.4415 12.5055 97.0053 12.063 96.3239 11.879C96.2076 11.8475 95.9082 11.8149 95.6589 11.8063C95.1337 11.7884 94.7164 11.8605 94.3901 12.0255C94.1076 12.1683 93.7906 12.4841 93.6651 12.7477C93.5599 12.9683 93.4458 13.4304 93.4458 13.6351V13.7452H97.6543L97.6538 13.5733C97.6534 13.4787 97.6289 13.2984 97.5991 13.1725ZM82.3014 13.2566C82.0921 12.575 81.6353 12.1496 80.9461 11.9943C80.618 11.9204 79.7513 11.9202 79.4114 11.9939C78.6722 12.1544 78.2026 12.5946 78.0066 13.3109C77.9129 13.6531 77.9116 15.3543 78.0048 15.6902C78.1911 16.3626 78.5938 16.7405 79.3313 16.9359C79.5574 16.9957 79.722 17.0098 80.1915 17.0098C81.0657 17.0098 81.5014 16.8723 81.8752 16.4781C82.0712 16.2712 82.1971 16.046 82.3001 15.7179C82.3599 15.5271 82.3682 15.3775 82.3682 14.4872C82.3682 13.6063 82.3594 13.4454 82.3014 13.2566Z" fill="#191E38"/>
<path fill-rule="evenodd" clip-rule="evenodd" d="M44.9143 10.3892C43.7917 10.5345 42.9298 10.9279 42.3392 11.5641L43.4811 13.0399C43.5055 13.0399 43.7834 12.7431 43.8886 12.6425C44.1 12.4401 44.5346 12.2088 44.8781 12.1157C45.213 12.025 45.9474 12.0078 46.3148 12.0821C46.8822 12.1968 47.2092 12.4154 47.3829 12.7961C47.4719 12.9912 47.4892 13.0811 47.5017 13.4113L47.5161 13.798L45.6709 13.8123C43.9472 13.8258 43.8032 13.8318 43.4811 13.9042C42.6239 14.0967 42.066 14.4778 41.7626 15.078C41.5864 15.4265 41.5234 15.7483 41.5234 16.3002C41.5234 16.8591 41.5861 17.1716 41.7736 17.549C42.1596 18.3256 42.9022 18.7669 44.0618 18.9091C44.4731 18.9596 45.3781 18.9309 45.7515 18.8555C46.3821 18.7282 46.9802 18.4561 47.3974 18.1068L47.6533 17.8924C47.8394 18.5216 48.2924 18.8877 48.5869 18.9369C49.0852 19.0199 50.3311 18.9369 50.3311 18.9369V17.0266C50.3311 17.0266 49.7495 16.9435 49.6666 16.7774C49.5837 16.6113 49.6666 15.8478 49.6666 15.8478C49.6665 13.2235 49.6596 12.8504 49.607 12.6258C49.3037 11.3328 48.4716 10.6507 46.9163 10.4203C46.5656 10.3684 45.2349 10.3477 44.9143 10.3892ZM47.4337 16.3876C47.4954 16.2233 47.5083 16.1046 47.5083 15.7016V15.2144L46.0844 15.2172C44.3362 15.2208 44.158 15.2482 43.8877 15.5554C43.7469 15.7154 43.6993 15.8838 43.6992 16.2237C43.6989 16.6023 43.7547 16.7563 43.9709 16.9733C44.2841 17.2877 44.7783 17.4126 45.5492 17.3728C46.0668 17.3458 46.3542 17.2787 46.7331 17.096C47.0844 16.9267 47.3216 16.6869 47.4337 16.3876Z" fill="#191E38"/>
<path d="M27.8522 7.52035C27.8203 7.52018 27.7879 7.52 27.7555 7.51983L27.7545 7.68595C27.787 7.68611 27.8193 7.68628 27.8513 7.68646L27.8522 7.52035ZM36.6824 12.0745H36.8485V12.0744L36.6824 12.0745ZM36.7198 17.2342L36.5558 17.261L36.7198 17.2342ZM37.8811 18.6741L37.9341 18.5166L37.8811 18.6741ZM40.2012 18.8339V19H40.3673V18.8339H40.2012ZM40.2012 17.106H40.3673V16.9453L40.2068 16.94L40.2012 17.106ZM39.7166 17.0895L39.7111 17.2556L39.7166 17.0895ZM38.9145 16.8056L38.7714 16.89L38.9145 16.8056ZM38.8306 11.9116L38.9967 11.9112L38.8306 11.9116ZM38.8204 7.14286L38.9865 7.14251L38.9862 6.97674H38.8204V7.14286ZM36.6821 7.14286V6.97674H36.5159V7.14287L36.6821 7.14286ZM71.2143 8.93128H71.0482V9.09739H71.2143V8.93128ZM73.4274 8.93128V9.09739H73.5935V8.93128H73.4274ZM73.4274 6.97674H73.5935V6.81063H73.4274V6.97674ZM71.2143 6.97674V6.81063H71.0482V6.97674H71.2143ZM75.7856 18.6689H75.6194V18.8367L75.787 18.835L75.7856 18.6689ZM77.799 18.6497L77.8007 18.8158L77.9616 18.8143L77.9651 18.6533L77.799 18.6497ZM77.8194 17.7223L77.9312 17.5995L77.6613 17.3537L77.6533 17.7186L77.8194 17.7223ZM78.0503 17.9326L77.9384 18.0555H77.9385L78.0503 17.9326ZM81.0279 18.7645L81.0339 18.9304L81.0279 18.7645ZM83.6596 17.7387L83.7797 17.8533L83.6596 17.7387ZM84.4663 16.2495L84.6261 16.2945V16.2945L84.4663 16.2495ZM84.5458 14.5234L84.712 14.5236L84.5458 14.5234ZM84.4659 12.7588L84.3052 12.8L84.4659 12.7588ZM83.6108 11.1337L83.4934 11.2512L83.6108 11.1337ZM81.6643 10.2315L81.6392 10.3957L81.6643 10.2315ZM79.6311 10.288L79.6674 10.4501L79.6311 10.288ZM78.1314 10.9906L78.0239 10.864L78.1314 10.9906ZM77.9442 11.1496L77.7781 11.1504L77.7796 11.5073L78.0517 11.2762L77.9442 11.1496ZM77.9254 6.97674L78.0915 6.976L78.0909 6.81063H77.9254V6.97674ZM75.7856 6.97674V6.81063H75.6194V6.97674H75.7856ZM86.8179 17.1865L86.9804 17.1522L86.8179 17.1865ZM88.1777 18.5764L88.1359 18.7372L88.1777 18.5764ZM89.3478 18.6576L89.3513 18.4917L89.3478 18.6576ZM90.2821 18.6776L90.2784 18.8437L90.4482 18.8472V18.6776H90.2821ZM90.2821 16.9399H90.4482V16.7792L90.2875 16.7739L90.2821 16.9399ZM89.7975 16.9234L89.7919 17.0895L89.7975 16.9234ZM88.9954 16.6395L88.8522 16.7239L88.9954 16.6395ZM88.912 11.7455L89.0781 11.7451L88.912 11.7455ZM88.9023 6.97674L89.0684 6.97641L89.0681 6.81063H88.9023V6.97674ZM86.763 6.97674V6.81063H86.5968V6.97674H86.763ZM24.9161 18.6678H24.75V18.8339H24.9161V18.6678ZM27.1648 18.6678V18.8339H27.3301L27.3309 18.6686L27.1648 18.6678ZM27.1836 15.1026L27.1816 14.9365L27.0183 14.9384L27.0174 15.1017L27.1836 15.1026ZM28.9249 15.0821L28.9231 14.916L28.9249 15.0821ZM31.6573 14.9989L31.6261 14.8358L31.6573 14.9989ZM34.2098 13.5545L34.3467 13.6486L34.2098 13.5545ZM34.7674 10.8042L34.9329 10.7898L34.7674 10.8042ZM33.9761 8.79005L34.0968 8.6761L33.9761 8.79005ZM32.2723 7.8244L32.3151 7.66389L32.2723 7.8244ZM27.755 7.60289L27.7542 7.769L27.755 7.60289ZM24.9161 7.58769L24.9169 7.42158L24.75 7.42068V7.58769H24.9161ZM31.1669 9.43389L31.1254 9.59473L31.1669 9.43389ZM32.0581 9.88933L31.941 10.0071L32.0581 9.88933ZM32.5 11.4237L32.6661 11.4284V11.4284L32.5 11.4237ZM32.2183 12.5849L32.3576 12.6752L32.2183 12.5849ZM30.9254 13.2929L30.9538 13.4566V13.4566L30.9254 13.2929ZM27.1654 13.3471H26.9993V13.5132H27.1654V13.3471ZM27.1654 9.32327L27.1671 9.15718L26.9993 9.15545V9.32327H27.1654ZM28.6801 9.33884L28.6817 9.17274L28.6801 9.33884ZM44.9146 10.3892L44.9359 10.5539L44.9146 10.3892ZM42.3395 11.5641L42.2178 11.4511L42.1219 11.5544L42.2081 11.6658L42.3395 11.5641ZM43.4814 13.0399L43.35 13.1415L43.3998 13.2059L43.4812 13.206L43.4814 13.0399ZM43.8889 12.6425L44.0037 12.7625L43.8889 12.6425ZM44.8784 12.1157L44.9218 12.2761L44.8784 12.1157ZM46.3151 12.0821L46.2822 12.2449L46.3151 12.0821ZM47.3832 12.7961L47.2321 12.865L47.3832 12.7961ZM47.502 13.4113L47.336 13.4175L47.502 13.4113ZM47.5164 13.798L47.5178 13.9641L47.6889 13.9628L47.6824 13.7918L47.5164 13.798ZM45.6713 13.8123L45.6701 13.6462L45.6713 13.8123ZM43.4814 13.9042L43.5178 14.0662L43.4814 13.9042ZM41.763 15.078L41.9111 15.153V15.1529L41.763 15.078ZM41.7739 17.549L41.9228 17.4751L41.7739 17.549ZM44.0621 18.9091L44.0419 19.0741L44.0621 18.9091ZM45.7518 18.8555L45.7189 18.6927L45.7518 18.8555ZM47.3977 18.1068L47.5043 18.2341H47.5045L47.3977 18.1068ZM47.6537 17.8924L47.813 17.8452L47.7412 17.6023L47.547 17.7649L47.6537 17.8924ZM50.3314 18.9369L50.3425 19.1027L50.4975 19.0924V18.9369H50.3314ZM49.6669 15.8478L49.8322 15.8657L49.8331 15.8568V15.8478L49.6669 15.8478ZM49.6073 12.6258L49.7689 12.5879V12.5879L49.6073 12.6258ZM46.9166 10.4203L46.941 10.256L46.9166 10.4203ZM64.6121 10.2538L64.636 10.4182L64.6121 10.2538ZM61.9983 12.116L61.8372 12.0755V12.0755L61.9983 12.116ZM62.0508 13.5749L62.2071 13.5186V13.5186L62.0508 13.5749ZM63.0566 14.7105L63.1326 14.5627L63.0566 14.7105ZM65.4218 15.2672L65.4053 15.4325L65.4218 15.2672ZM67.2686 15.7658L67.1309 15.8587L67.2686 15.7658ZM67.2236 16.6658L67.3556 16.7668L67.2236 16.6658ZM66.4827 17.038L66.4478 16.8757L66.4827 17.038ZM64.9759 17.0771L64.9927 16.912L64.9759 17.0771ZM62.7545 16.5986L62.8075 16.4411L62.7545 16.5986ZM62.0302 17.2636L62.1884 17.3146L62.0302 17.2636ZM61.7769 18.0493L61.6188 17.9983L61.5694 18.1512L61.7204 18.2056L61.7769 18.0493ZM62.0716 18.1558L62.1279 17.9995L62.0716 18.1558ZM65.3037 18.7646L65.2983 18.9307L65.3037 18.7646ZM68.8083 17.8357L68.9249 17.954L68.8083 17.8357ZM69.4679 16.0798L69.3018 16.0808L69.4679 16.0798ZM68.6128 14.201L68.5234 14.341L68.6128 14.201ZM65.9566 13.5466L65.9374 13.7116L65.9566 13.5466ZM64.1812 13.0609L64.061 13.1754V13.1755L64.1812 13.0609ZM64.106 12.4069L63.9585 12.3304V12.3304L64.106 12.4069ZM66.0292 11.873L66.0251 12.0391L66.0292 11.873ZM68.0972 12.1795L68.1442 12.0201V12.0201L68.0972 12.1795ZM68.6196 12.3117L68.6123 12.4776L68.6196 12.3117ZM68.9603 11.5586L69.1178 11.6113V11.6113L68.9603 11.5586ZM69.154 10.7581L69.056 10.8923L69.0561 10.8923L69.154 10.7581ZM67.8251 10.3792L67.7924 10.5421L67.8251 10.3792ZM65.7571 10.2023L65.7565 10.0362L65.7571 10.2023ZM94.5457 10.253L94.5201 10.0889L94.5457 10.253ZM92.0713 11.543L91.9427 11.4377L92.0713 11.543ZM91.3947 12.967L91.5563 13.0053V13.0053L91.3947 12.967ZM91.2814 14.2197L91.1153 14.216L91.2814 14.2197ZM91.6141 16.6463L91.4616 16.7125L91.6141 16.6463ZM94.5721 18.6945L94.6007 18.5309L94.5721 18.6945ZM97.1121 18.6914L97.1424 18.8547L97.1121 18.6914ZM99.2679 18.0196L99.3402 18.1693L99.2679 18.0196ZM99.6875 17.8173L99.7596 17.9668L99.9047 17.8968L99.8392 17.7497L99.6875 17.8173ZM99.3535 17.0661L99.5053 16.9987L99.3535 17.0661ZM98.716 16.4287L98.6457 16.2781V16.2781L98.716 16.4287ZM97.1847 16.9246L97.2193 17.087L97.1847 16.9246ZM95.5784 17.0384L95.563 17.2037L95.5784 17.0384ZM94.6487 16.836L94.7091 16.6812L94.6487 16.836ZM93.4771 15.2293L93.3116 15.2437L93.4771 15.2293ZM93.4659 15.1026L93.4656 14.9365L93.2849 14.937L93.3005 15.117L93.4659 15.1026ZM99.8331 15.0841L99.8336 15.2502L99.9992 15.2497V15.0841H99.8331ZM99.4962 12.3006L99.3439 12.3666V12.3666L99.4962 12.3006ZM96.5316 10.2508L96.5068 10.415L96.5316 10.2508ZM51.8824 16.2246L51.7163 16.2253L51.7164 16.2473L51.7223 16.2685L51.8824 16.2246ZM51.9774 16.5713L51.8173 16.6153L51.9774 16.5713ZM54.5829 18.69L54.6086 18.5259L54.5829 18.69ZM57.3282 18.6473L57.3616 18.8101L57.3282 18.6473ZM59.8321 16.4351L59.9934 16.4749V16.4749L59.8321 16.4351ZM59.906 13.2476L59.7399 13.2468L59.906 13.2476ZM59.9189 10.3067L60.0851 10.3074L60.0859 10.1406H59.9189V10.3067ZM57.7791 10.3067V10.1406H57.6136L57.613 10.306L57.7791 10.3067ZM57.7671 13.0666L57.601 13.0659L57.7671 13.0666ZM57.689 16.0255L57.8465 16.0781V16.0781L57.689 16.0255ZM55.8709 17.0834L55.8714 16.9173L55.8709 17.0834ZM54.0405 15.7007L53.8756 15.7211V15.7211L54.0405 15.7007ZM54.0027 10.3067H54.1688V10.1406H54.0027V10.3067ZM51.8586 10.3067V10.1406H51.6919L51.6925 10.3074L51.8586 10.3067ZM71.2507 18.6678H71.0846V18.8339H71.2507V18.6678ZM73.391 18.6678V18.8339H73.5571V18.6678H73.391ZM73.391 10.3067H73.5571V10.1406H73.391V10.3067ZM71.2507 10.3067V10.1406H71.0846V10.3067H71.2507ZM96.3259 11.879L96.2826 12.0393L96.3259 11.879ZM97.6012 13.1725L97.7628 13.1343V13.1343L97.6012 13.1725ZM97.6558 13.5733L97.4897 13.5738V13.5738L97.6558 13.5733ZM97.6563 13.7452V13.9114H97.8229L97.8224 13.7447L97.6563 13.7452ZM93.4478 13.7452H93.2817V13.9114H93.4478V13.7452ZM93.6671 12.7477L93.8171 12.8191V12.8191L93.6671 12.7477ZM94.3922 12.0255L94.4671 12.1737V12.1737L94.3922 12.0255ZM95.661 11.8063L95.6553 11.9724L95.661 11.8063ZM80.9482 11.9943L80.9116 12.1564L80.9482 11.9943ZM82.3035 13.2566L82.1447 13.3054V13.3054L82.3035 13.2566ZM82.3022 15.7179L82.4606 15.7676L82.3022 15.7179ZM81.8772 16.4781L81.7566 16.3638V16.3638L81.8772 16.4781ZM79.3334 16.9359L79.3759 16.7752L79.3334 16.9359ZM78.0068 15.6902L77.8467 15.7346V15.7346L78.0068 15.6902ZM78.0086 13.3109L78.1688 13.3548V13.3548L78.0086 13.3109ZM79.4135 11.9939L79.4487 12.1563L79.4135 11.9939ZM47.4341 16.3876L47.5897 16.4459V16.4459L47.4341 16.3876ZM46.7334 17.096L46.6611 16.9465L46.7334 17.096ZM45.5495 17.3728L45.5409 17.2068L45.5495 17.3728ZM43.9713 16.9733L44.0889 16.8561L43.9713 16.9733ZM43.6995 16.2237L43.8656 16.2238V16.2238L43.6995 16.2237ZM43.888 15.5554L44.0128 15.6652V15.6651L43.888 15.5554ZM46.0847 15.2172L46.0842 15.0511L46.0847 15.2172ZM47.5086 15.2144H47.6747V15.0479L47.5083 15.0483L47.5086 15.2144ZM50.3314 17.0266H50.4975V16.8826L50.3548 16.8621L50.3314 17.0266ZM27.8518 7.6034L27.8508 7.76952L27.8518 7.6034ZM28.7784 9.33985L28.7767 9.50596L28.7784 9.33985ZM36.5163 12.0745C36.5163 13.6688 36.5196 14.9223 36.5259 15.7959C36.5291 16.2326 36.5331 16.5748 36.5377 16.8173C36.54 16.9385 36.5425 17.0355 36.5452 17.1073C36.5478 17.1741 36.5508 17.2302 36.5558 17.261L36.8837 17.2076C36.8839 17.2085 36.8836 17.2065 36.8829 17.2003C36.8824 17.1945 36.8817 17.1867 36.8811 17.1766C36.8799 17.1563 36.8786 17.1291 36.8772 17.0947C36.8746 17.0261 36.8721 16.9314 36.8699 16.811C36.8653 16.5704 36.8613 16.2297 36.8581 15.7935C36.8518 14.9211 36.8485 13.6685 36.8485 12.0745L36.5163 12.0745ZM36.5558 17.261C36.6831 18.0437 37.1191 18.5922 37.8279 18.8314L37.9341 18.5166C37.3538 18.3208 36.9934 17.8817 36.8837 17.2076L36.5558 17.261ZM37.8279 18.8314C38.1912 18.954 38.692 19 39.5105 19V18.6678C38.6934 18.6678 38.241 18.6203 37.9341 18.5166L37.8279 18.8314ZM39.5105 19H40.2012V18.6678H39.5105V19ZM40.2068 16.94L39.7223 16.9236L39.7111 17.2556L40.1955 17.2719L40.2068 16.94ZM39.7223 16.9236C39.4449 16.9141 39.3025 16.8982 39.2146 16.8671C39.147 16.8432 39.1101 16.8105 39.0576 16.7214L38.7714 16.89C38.8492 17.0223 38.9399 17.1223 39.1038 17.1802C39.2477 17.2312 39.4414 17.2465 39.7111 17.2556L39.7223 16.9236ZM39.0576 16.7214C39.0508 16.7098 39.0502 16.7081 39.0488 16.7037C39.0463 16.6958 39.0419 16.6772 39.037 16.6346C39.0276 16.5475 39.0203 16.3898 39.015 16.0799C39.0045 15.4638 39.0017 14.2731 38.9967 11.9112L38.6645 11.9119C38.6694 14.272 38.6721 15.4663 38.6827 16.0856C38.688 16.3936 38.6953 16.5662 38.7068 16.6708C38.7126 16.7238 38.7203 16.7661 38.7319 16.8032C38.7445 16.8435 38.76 16.8706 38.7714 16.89L39.0576 16.7214ZM38.9967 11.9112L38.9865 7.14251L38.6543 7.14321L38.6645 11.9119L38.9967 11.9112ZM36.5159 7.14287L36.5163 12.0745L36.8485 12.0744L36.8482 7.14284L36.5159 7.14287ZM77.7075 17.8452L77.9384 18.0555L78.1621 17.8098L77.9312 17.5995L77.7075 17.8452ZM77.9385 18.0555C78.6716 18.7231 79.6346 18.9814 81.0339 18.9304L81.0219 18.5985C79.6681 18.6478 78.8058 18.3962 78.1621 17.8098L77.9385 18.0555ZM81.0339 18.9304C82.2807 18.885 83.0882 18.5776 83.7797 17.8533L83.5395 17.6239C82.9234 18.2691 82.208 18.5553 81.0219 18.5985L81.0339 18.9304ZM83.7797 17.8533C84.2017 17.4116 84.4329 16.9807 84.6261 16.2945L84.3063 16.2045C84.1251 16.8485 83.9173 17.2284 83.5395 17.6239L83.7797 17.8533ZM84.6261 16.2945C84.7081 16.0033 84.7106 15.8827 84.712 14.5236L84.3797 14.5233C84.3784 15.9065 84.3726 15.9687 84.3063 16.2045L84.6261 16.2945ZM84.712 14.5236C84.713 13.1516 84.7106 13.0452 84.6269 12.7177L84.3052 12.8C84.3759 13.077 84.3809 13.1325 84.3797 14.5233L84.712 14.5236ZM84.6269 12.7177C84.443 11.9983 84.153 11.4404 83.7282 11.0161L83.4934 11.2512C83.8656 11.623 84.1319 12.1225 84.3052 12.8L84.6269 12.7177ZM83.7282 11.0161C83.2037 10.4922 82.5673 10.2014 81.6894 10.0673L81.6392 10.3957C82.4638 10.5216 83.0296 10.7879 83.4934 11.2512L83.7282 11.0161ZM81.6894 10.0673C81.4797 10.0353 81.0457 10.0304 80.6314 10.0419C80.2179 10.0534 79.79 10.0821 79.5948 10.1259L79.6674 10.4501C79.8262 10.4145 80.2223 10.3856 80.6405 10.374C81.0578 10.3624 81.4633 10.3689 81.6392 10.3957L81.6894 10.0673ZM79.5948 10.1259C78.9829 10.2631 78.4279 10.5209 78.0239 10.864L78.2389 11.1172C78.5939 10.8158 79.0967 10.578 79.6674 10.4501L79.5948 10.1259ZM78.0239 10.864L77.8367 11.023L78.0517 11.2762L78.239 11.1172L78.0239 10.864ZM86.5968 11.9512C86.5968 14.1038 86.5987 15.3572 86.6065 16.1006C86.6141 16.8349 86.6272 17.0877 86.6553 17.2208L86.9804 17.1522C86.961 17.0595 86.9465 16.8475 86.9387 16.0971C86.9309 15.3558 86.9291 14.1044 86.9291 11.9512H86.5968ZM86.6553 17.2208C86.7379 17.612 86.9028 17.9404 87.1548 18.198C87.4065 18.4551 87.7365 18.6332 88.1359 18.7372L88.2196 18.4156C87.8671 18.3239 87.5942 18.1719 87.3924 17.9656C87.1909 17.7596 87.0518 17.491 86.9804 17.1522L86.6553 17.2208ZM88.1359 18.7372C88.3382 18.7899 88.6409 18.8088 89.3443 18.8238L89.3513 18.4917C88.6342 18.4764 88.3759 18.4563 88.2196 18.4156L88.1359 18.7372ZM89.3443 18.8238L90.2784 18.8437L90.2855 18.5115L89.3513 18.4917L89.3443 18.8238ZM90.2875 16.7739L89.8032 16.7575L89.7919 17.0895L90.2764 17.1058L90.2875 16.7739ZM89.8032 16.7575C89.5256 16.748 89.3834 16.7321 89.2955 16.701C89.2279 16.6771 89.1909 16.6444 89.1385 16.5553L88.8522 16.7239C88.9301 16.8561 89.0206 16.9561 89.1847 17.0141C89.3286 17.0651 89.5221 17.0804 89.7919 17.0895L89.8032 16.7575ZM89.1385 16.5553C89.1316 16.5436 89.1311 16.542 89.1297 16.5376C89.1272 16.5298 89.1226 16.5112 89.1179 16.4685C89.1085 16.3815 89.1012 16.2238 89.0958 15.914C89.0854 15.2979 89.0827 14.1073 89.0781 11.7451L88.7458 11.7458C88.7505 14.1061 88.7532 15.3004 88.7636 15.9197C88.7689 16.2276 88.7763 16.4002 88.7877 16.5047C88.7935 16.5577 88.801 16.6001 88.8126 16.637C88.8254 16.6774 88.8409 16.7045 88.8522 16.7239L89.1385 16.5553ZM89.0781 11.7451L89.0684 6.97641L88.7362 6.97708L88.7458 11.7458L89.0781 11.7451ZM86.5968 6.97674V11.9512H86.9291V6.97674H86.5968ZM27.1855 15.2687L28.9269 15.2482L28.9231 14.916L27.1816 14.9365L27.1855 15.2687ZM28.9269 15.2482C29.647 15.2398 30.2638 15.2319 30.7344 15.2197C31.198 15.2077 31.537 15.1912 31.6887 15.162L31.6261 14.8358C31.5075 14.8586 31.2008 14.8752 30.7257 14.8876C30.258 14.8998 29.6437 14.9076 28.9231 14.916L28.9269 15.2482ZM31.6887 15.162C32.947 14.9203 33.7963 14.4495 34.3467 13.6486L34.0729 13.4604C33.588 14.166 32.8311 14.6042 31.6261 14.8358L31.6887 15.162ZM34.3467 13.6486C34.8196 12.9603 35.0289 11.8938 34.9329 10.7898L34.602 10.8186C34.6939 11.875 34.488 12.8562 34.0729 13.4604L34.3467 13.6486ZM34.9329 10.7898C34.8507 9.8449 34.6116 9.22211 34.0968 8.6761L33.8552 8.904C34.3045 9.38065 34.5241 9.92478 34.602 10.8186L34.9329 10.7898ZM34.0968 8.6761C33.6239 8.17443 33.0772 7.86703 32.3151 7.66389L32.2294 7.98492C32.9422 8.17485 33.4312 8.45439 33.8552 8.904L34.0968 8.6761ZM27.7558 7.43678L24.9169 7.42158L24.9153 7.75379L27.7542 7.769L27.7558 7.43678ZM31.1254 9.59473C31.5249 9.69784 31.7505 9.81761 31.941 10.0071L32.1752 9.77153C31.9294 9.52701 31.6434 9.3853 31.2085 9.27306L31.1254 9.59473ZM31.941 10.0071C32.1047 10.1698 32.2042 10.3262 32.2635 10.5319C32.3244 10.7439 32.3455 11.0173 32.3341 11.419L32.6661 11.4284C32.6777 11.0168 32.6581 10.7021 32.5827 10.4399C32.5053 10.1714 32.3723 9.96731 32.1752 9.77153L31.941 10.0071ZM32.3341 11.419C32.3248 11.7422 32.3096 11.9312 32.2738 12.0792C32.2394 12.2207 32.1842 12.3318 32.0787 12.4946L32.3576 12.6752C32.4734 12.4965 32.55 12.3498 32.5967 12.1576C32.6417 11.9718 32.657 11.7509 32.6661 11.4284L32.3341 11.419ZM32.0787 12.4946C31.8794 12.8025 31.498 13.0247 30.8968 13.1293L30.9538 13.4566C31.6028 13.3436 32.088 13.0912 32.3576 12.6752L32.0787 12.4946ZM30.897 13.1293C30.7925 13.1474 30.4842 13.1611 30.0507 13.1696C29.6244 13.1779 29.0937 13.181 28.5575 13.181V13.5132C29.0945 13.5132 29.6277 13.5101 30.0571 13.5017C30.4791 13.4935 30.8181 13.4802 30.9538 13.4566L30.897 13.1293ZM28.5575 13.181H27.1654V13.5132H28.5575V13.181ZM27.1638 9.48938L28.6784 9.50495L28.6817 9.17274L27.1671 9.15718L27.1638 9.48938ZM44.8934 10.2244C43.7442 10.3732 42.8417 10.7787 42.2178 11.4511L42.4613 11.6771C43.0183 11.077 43.84 10.6958 44.9359 10.5539L44.8934 10.2244ZM43.4812 13.206C43.5179 13.206 43.545 13.1939 43.5528 13.1904C43.5645 13.1852 43.5734 13.1796 43.5789 13.1761C43.59 13.169 43.5998 13.1612 43.6068 13.1554C43.6216 13.1434 43.6382 13.1282 43.6547 13.1127C43.688 13.0812 43.7302 13.0391 43.7731 12.9956C43.8618 12.9057 43.9533 12.8107 44.0037 12.7625L43.7741 12.5224C43.7191 12.5749 43.6193 12.6786 43.5367 12.7622C43.4939 12.8055 43.4553 12.844 43.4266 12.8712C43.4118 12.8851 43.402 12.8939 43.3963 12.8984C43.3932 12.901 43.3945 12.8997 43.3988 12.8969C43.4008 12.8956 43.407 12.8917 43.4159 12.8876C43.4213 12.8853 43.4465 12.8737 43.4817 12.8738L43.4812 13.206ZM44.0037 12.7625C44.1912 12.583 44.5995 12.3634 44.9218 12.2761L44.8349 11.9554C44.4704 12.0542 44.0095 12.2972 43.7741 12.5224L44.0037 12.7625ZM44.9218 12.2761C45.0698 12.236 45.3213 12.2094 45.5884 12.2031C45.8548 12.1969 46.1161 12.2113 46.2822 12.2449L46.348 11.9193C46.1467 11.8786 45.8571 11.8645 45.5807 11.871C45.3051 11.8774 45.0219 11.9048 44.8349 11.9554L44.9218 12.2761ZM46.2822 12.2449C46.8189 12.3534 47.0882 12.5498 47.2321 12.865L47.5344 12.7271C47.3307 12.281 46.946 12.0402 46.348 11.9193L46.2822 12.2449ZM47.2321 12.865C47.2739 12.9567 47.2947 13.0145 47.3083 13.0845C47.3226 13.1588 47.3297 13.2523 47.336 13.4175L47.6679 13.4051C47.6618 13.2401 47.6542 13.1236 47.6344 13.0215C47.614 12.9153 47.5816 12.8306 47.5344 12.7271L47.2321 12.865ZM47.336 13.4175L47.3505 13.8042L47.6824 13.7918L47.6679 13.405L47.336 13.4175ZM47.5151 13.6319L45.6701 13.6462L45.6726 13.9784L47.5178 13.9641L47.5151 13.6319ZM45.6701 13.6462C43.956 13.6596 43.789 13.6648 43.445 13.7421L43.5178 14.0662C43.8181 13.9988 43.939 13.9919 45.6726 13.9784L45.6701 13.6462ZM43.445 13.7421C42.5553 13.9419 41.9468 14.3458 41.6146 15.0031L41.9111 15.1529C42.1857 14.6098 42.6932 14.2515 43.5178 14.0662L43.445 13.7421ZM41.6146 15.0031C41.4229 15.3824 41.3576 15.7324 41.3576 16.3002H41.6899C41.6899 15.7643 41.7505 15.4706 41.9111 15.153L41.6146 15.0031ZM41.3576 16.3002C41.3576 16.8767 41.4231 17.2163 41.6253 17.6229L41.9228 17.4751C41.7497 17.1269 41.6899 16.8414 41.6899 16.3002H41.3576ZM41.6253 17.6229C42.0444 18.4661 42.8482 18.9277 44.0419 19.0741L44.0822 18.7444C42.957 18.6063 42.2757 18.1852 41.9228 17.4751L41.6253 17.6229ZM44.0419 19.0741C44.2603 19.1008 44.5997 19.1058 44.9264 19.0955C45.2527 19.0852 45.5837 19.0588 45.7847 19.0183L45.7189 18.6927C45.5465 18.7274 45.2385 18.7532 44.9159 18.7635C44.594 18.7738 44.2751 18.7679 44.0822 18.7444L44.0419 19.0741ZM45.7847 19.0183C46.4375 18.8867 47.0625 18.6043 47.5043 18.2341L47.291 17.9794C46.8988 18.308 46.3274 18.5699 45.7189 18.6927L45.7847 19.0183ZM47.5045 18.2341L47.7605 18.0196L47.547 17.7649L47.291 17.9794L47.5045 18.2341ZM47.4944 17.9394C47.5953 18.2807 47.7693 18.5533 47.9613 18.7487C48.15 18.9407 48.3669 19.0686 48.56 19.1007L48.6145 18.7731C48.513 18.7561 48.3561 18.6764 48.1982 18.5158C48.0435 18.3583 47.8982 18.1332 47.813 17.8452L47.4944 17.9394ZM48.56 19.1007C48.8276 19.1453 49.2796 19.1444 49.6508 19.1341C49.8394 19.1289 50.0121 19.1209 50.1375 19.1145C50.2003 19.1111 50.2515 19.1083 50.2869 19.1061C50.3047 19.105 50.3184 19.1042 50.3279 19.1035C50.3326 19.1033 50.3362 19.103 50.3385 19.1028C50.3399 19.1028 50.3407 19.1027 50.3414 19.1027C50.3417 19.1027 50.342 19.1027 50.3422 19.1027H50.3424C50.3424 19.1027 50.3425 19.1027 50.3314 18.9369C50.3203 18.7711 50.3203 18.7711 50.3203 18.7711C50.3203 18.7711 50.3203 18.7711 50.3201 18.7711C50.3201 18.7711 50.3198 18.7711 50.3196 18.7713C50.3189 18.7713 50.3181 18.7713 50.3169 18.7714C50.3148 18.7714 50.3113 18.7718 50.3068 18.7721C50.2977 18.7726 50.2842 18.7734 50.2669 18.7744C50.2322 18.7766 50.1821 18.7794 50.1203 18.7827C49.9967 18.789 49.8267 18.7968 49.6415 18.802C49.2653 18.8125 48.8452 18.8115 48.6145 18.7731L48.56 19.1007ZM49.8331 15.8478C49.8331 14.5362 49.8312 13.7851 49.8229 13.3338C49.8146 12.8863 49.7998 12.7199 49.7689 12.5879L49.4455 12.6637C49.4673 12.7563 49.4824 12.8887 49.4907 13.34C49.499 13.7875 49.5008 14.535 49.5008 15.8478L49.8331 15.8478ZM49.7689 12.5879C49.6108 11.9131 49.3106 11.3846 48.8367 10.9961C48.3655 10.6098 47.7365 10.3739 46.941 10.256L46.8924 10.5847C47.652 10.6972 48.2168 10.9176 48.6261 11.2531C49.0329 11.5865 49.3005 12.0455 49.4455 12.6637L49.7689 12.5879ZM46.941 10.256C46.753 10.2282 46.3216 10.2101 45.907 10.2036C45.4934 10.1972 45.0678 10.2018 44.8934 10.2244L44.9359 10.5539C45.0821 10.535 45.4822 10.5293 45.9018 10.5358C46.3203 10.5423 46.7296 10.5606 46.8924 10.5847L46.941 10.256ZM64.5882 10.0894C63.8256 10.2005 63.209 10.4146 62.746 10.7444C62.2796 11.0768 61.9766 11.5216 61.8372 12.0755L62.1593 12.1566C62.2796 11.6791 62.5367 11.3015 62.9389 11.015C63.3445 10.7259 63.9052 10.5247 64.636 10.4182L64.5882 10.0894ZM61.8372 12.0755C61.789 12.2666 61.7766 12.5766 61.7869 12.8654C61.7973 13.1527 61.8317 13.4564 61.8947 13.6311L62.2071 13.5186C62.1631 13.3963 62.1292 13.1378 62.1189 12.8534C62.1088 12.5707 62.1233 12.2999 62.1593 12.1566L61.8372 12.0755ZM61.8947 13.6311C62.0977 14.1952 62.4394 14.5803 62.9807 14.8582L63.1326 14.5627C62.6643 14.3223 62.3811 14.0018 62.2071 13.5186L61.8947 13.6311ZM62.9807 14.8582C63.5872 15.1696 64.2168 15.3144 65.4053 15.4325L65.4382 15.1019C64.2625 14.985 63.6829 14.8452 63.1326 14.5627L62.9807 14.8582ZM65.4053 15.4325C66.0434 15.4959 66.4475 15.5531 66.7125 15.6246C66.9738 15.6952 67.0728 15.7727 67.1309 15.8587L67.4063 15.6728C67.2849 15.493 67.0977 15.3845 66.799 15.3039C66.5042 15.2243 66.0746 15.1651 65.4382 15.1019L65.4053 15.4325ZM67.1309 15.8587C67.1895 15.9457 67.2209 16.0706 67.2141 16.2062C67.2075 16.3412 67.1636 16.4709 67.0917 16.5649L67.3556 16.7668C67.4748 16.611 67.5364 16.4137 67.546 16.2227C67.5555 16.0323 67.5138 15.832 67.4063 15.6728L67.1309 15.8587ZM67.0917 16.5649C67.0641 16.6009 66.9807 16.6645 66.8485 16.7309C66.7231 16.794 66.5769 16.848 66.4478 16.8757L66.5176 17.2005C66.6786 17.1659 66.8512 17.1013 66.9977 17.0277C67.1377 16.9575 67.2796 16.8661 67.3556 16.7668L67.0917 16.5649ZM66.4478 16.8757C66.1518 16.9394 65.4556 16.959 64.9927 16.912L64.9591 17.2424C65.4422 17.2915 66.1759 17.2741 66.5176 17.2005L66.4478 16.8757ZM64.9927 16.912C64.1841 16.8297 63.5671 16.6968 62.8075 16.4411L62.7015 16.756C63.4849 17.0198 64.1262 17.1578 64.9591 17.2424L64.9927 16.912ZM62.8075 16.4411C62.6837 16.3995 62.5691 16.363 62.4836 16.3378C62.4412 16.3252 62.404 16.3149 62.3759 16.3081C62.3626 16.3049 62.3477 16.3015 62.3339 16.2994C62.3277 16.2984 62.3159 16.2968 62.3023 16.2966C62.296 16.2965 62.2826 16.2966 62.2661 16.2998C62.2565 16.3017 62.2101 16.3106 62.1723 16.3533L62.4211 16.5735C62.3837 16.6158 62.338 16.6243 62.3297 16.6259C62.3145 16.6289 62.3027 16.6289 62.2982 16.6287C62.2927 16.6287 62.2885 16.6284 62.2865 16.6281C62.2846 16.6279 62.2832 16.6277 62.2829 16.6277C62.2827 16.6276 62.2869 16.6284 62.2977 16.6309C62.3178 16.6359 62.3488 16.6444 62.3894 16.6565C62.4699 16.6802 62.5806 16.7153 62.7015 16.756L62.8075 16.4411ZM62.1723 16.3533C62.1598 16.3674 62.1525 16.3806 62.1513 16.3829C62.1485 16.3878 62.1465 16.3919 62.1455 16.3942C62.1432 16.399 62.1414 16.4033 62.1402 16.4061C62.1379 16.4119 62.1354 16.4185 62.1331 16.4248C62.1282 16.4379 62.1219 16.4556 62.1146 16.4767C62.1 16.5193 62.0797 16.5793 62.0555 16.652C62.007 16.7977 61.942 16.9963 61.8723 17.2126L62.1884 17.3146C62.258 17.099 62.3226 16.9013 62.3708 16.757C62.3947 16.6847 62.4145 16.6261 62.4286 16.5854C62.4357 16.5649 62.441 16.5498 62.4447 16.5399C62.4457 16.5375 62.4463 16.5356 62.4468 16.5342C62.4472 16.5334 62.4473 16.5329 62.4475 16.5325C62.4477 16.5323 62.4477 16.5321 62.4477 16.532C62.4478 16.5319 62.4478 16.5318 62.4478 16.5318C62.4478 16.5318 62.4477 16.5319 62.4477 16.5321C62.4477 16.5322 62.4475 16.5324 62.4473 16.5327C62.4472 16.5333 62.4467 16.5345 62.4458 16.5361C62.4452 16.5375 62.4435 16.5409 62.4412 16.5451C62.4402 16.5468 62.4334 16.5596 62.4211 16.5735L62.1723 16.3533ZM61.8723 17.2126L61.6188 17.9983L61.9349 18.1003L62.1884 17.3146L61.8723 17.2126ZM61.7204 18.2056L62.0151 18.312L62.1279 17.9995L61.8332 17.8932L61.7204 18.2056ZM62.0151 18.312C63.1051 18.7055 64.101 18.893 65.2983 18.9307L65.3088 18.5987C64.1452 18.562 63.1839 18.3807 62.1279 17.9995L62.0151 18.312ZM65.2983 18.9307C67.0043 18.9844 68.1796 18.6889 68.9249 17.954L68.6917 17.7174C68.045 18.355 66.9862 18.6515 65.3088 18.5987L65.2983 18.9307ZM68.9249 17.954C69.1784 17.704 69.3595 17.443 69.4751 17.1355C69.59 16.8296 69.6365 16.487 69.6341 16.0789L69.3018 16.0808C69.3042 16.4635 69.2603 16.7626 69.1641 17.0186C69.0684 17.2733 68.9174 17.4948 68.6917 17.7174L68.9249 17.954ZM69.6341 16.0789C69.6314 15.5963 69.5643 15.1958 69.4123 14.862C69.259 14.525 69.0236 14.2661 68.7022 14.061L68.5234 14.341C68.796 14.5151 68.9855 14.7266 69.11 14.9997C69.2357 15.276 69.2993 15.6254 69.3018 16.0808L69.6341 16.0789ZM68.7022 14.061C68.144 13.7048 67.5543 13.5664 65.9759 13.3817L65.9374 13.7116C67.5213 13.897 68.0377 14.0311 68.5234 14.341L68.7022 14.061ZM65.9759 13.3817C65.3875 13.3128 65.0145 13.2547 64.7608 13.1853C64.5128 13.1174 64.3932 13.0425 64.3017 12.9463L64.061 13.1755C64.2065 13.3282 64.3867 13.4273 64.6731 13.5057C64.9538 13.5825 65.35 13.6429 65.9374 13.7116L65.9759 13.3817ZM64.3017 12.9464C64.2671 12.9101 64.2324 12.8334 64.2208 12.7321C64.2093 12.6323 64.2239 12.5402 64.2535 12.4833L63.9585 12.3304C63.8899 12.4628 63.8741 12.6261 63.8907 12.7701C63.9071 12.9127 63.9591 13.0684 64.061 13.1754L64.3017 12.9464ZM64.2535 12.4833C64.336 12.3238 64.4762 12.207 64.7483 12.1314C65.0287 12.0536 65.4346 12.0243 66.0251 12.0391L66.0334 11.707C65.4365 11.692 64.9895 11.7197 64.6595 11.8113C64.3213 11.9052 64.0934 12.0701 63.9585 12.3304L64.2535 12.4833ZM66.0251 12.0391C66.842 12.0595 67.3686 12.138 68.0502 12.3388L68.1442 12.0201C67.4311 11.81 66.8752 11.728 66.0334 11.707L66.0251 12.0391ZM68.0502 12.3388C68.1718 12.3746 68.2924 12.4077 68.3895 12.4323C68.4379 12.4445 68.4814 12.4549 68.5166 12.4624C68.5468 12.4689 68.5841 12.4764 68.6123 12.4776L68.6271 12.1457C68.6312 12.1459 68.6211 12.1451 68.5864 12.1376C68.5565 12.1312 68.5173 12.1219 68.4709 12.1102C68.3786 12.0868 68.2621 12.0549 68.1442 12.0201L68.0502 12.3388ZM68.6123 12.4776C68.654 12.4795 68.7204 12.475 68.7829 12.4208C68.8294 12.3804 68.8593 12.3233 68.8827 12.2713C68.9324 12.1616 69.0003 11.9619 69.1178 11.6113L68.8027 11.5058C68.6822 11.8657 68.6208 12.0443 68.5801 12.1344C68.5585 12.1824 68.5528 12.1806 68.5649 12.17C68.5749 12.1615 68.5892 12.1532 68.6061 12.1487C68.6206 12.1449 68.6304 12.1459 68.6271 12.1457L68.6123 12.4776ZM69.1178 11.6113C69.2314 11.2719 69.2963 11.0733 69.3249 10.9551C69.3385 10.8988 69.3493 10.8405 69.344 10.7871C69.341 10.7568 69.3326 10.7236 69.3138 10.6914C69.2947 10.6592 69.2711 10.6379 69.2518 10.6239L69.0561 10.8923C69.0505 10.8882 69.0379 10.8779 69.0274 10.86C69.0169 10.8422 69.0141 10.8267 69.0135 10.8197C69.0128 10.813 69.0148 10.8239 69.002 10.877C68.9776 10.9778 68.9186 11.1598 68.8027 11.5058L69.1178 11.6113ZM69.2518 10.624C69.2221 10.6022 69.1814 10.585 69.1525 10.5734C69.1176 10.5595 69.0744 10.544 69.0262 10.5278C68.9292 10.4952 68.8051 10.4575 68.6711 10.4192C68.4032 10.3428 68.0875 10.2624 67.8576 10.2164L67.7924 10.5421C68.0105 10.5858 68.3168 10.6637 68.5799 10.7387C68.7113 10.7762 68.8301 10.8124 68.9204 10.8427C68.9658 10.8579 69.0023 10.8711 69.0289 10.8818C69.0616 10.8949 69.0646 10.8985 69.056 10.8923L69.2518 10.624ZM67.8576 10.2164C67.1699 10.0785 66.6261 10.0324 65.7565 10.0362L65.7578 10.3684C66.6105 10.3647 67.1312 10.4096 67.7924 10.5421L67.8576 10.2164ZM65.7565 10.0362C65.2899 10.0383 64.789 10.0601 64.5882 10.0894L64.636 10.4182C64.8111 10.3926 65.2909 10.3705 65.7578 10.3684L65.7565 10.0362ZM94.5201 10.0889C93.4724 10.2523 92.506 10.7506 91.9427 11.4377L92.1997 11.6483C92.7 11.038 93.5852 10.571 94.5713 10.4172L94.5201 10.0889ZM91.9427 11.4377C91.6502 11.7948 91.3528 12.4236 91.2331 12.9288L91.5563 13.0053C91.6661 12.5419 91.9435 11.9608 92.1997 11.6483L91.9427 11.4377ZM91.2331 12.9288C91.1457 13.2974 91.1321 13.4615 91.1153 14.216L91.4473 14.2234C91.4641 13.4727 91.4776 13.3381 91.5563 13.0053L91.2331 12.9288ZM91.1153 14.216C91.088 15.4353 91.1655 16.029 91.4616 16.7125L91.7665 16.5803C91.4983 15.9615 91.4206 15.424 91.4473 14.2234L91.1153 14.216ZM91.4616 16.7125C91.9661 17.8764 93.0183 18.5915 94.5435 18.8581L94.6007 18.5309C93.1532 18.2779 92.2148 17.6148 91.7665 16.5803L91.4616 16.7125ZM94.5435 18.8581C94.811 18.905 95.339 18.9261 95.8505 18.9254C96.3615 18.9248 96.8849 18.9023 97.1424 18.8547L97.0819 18.5279C96.8581 18.5694 96.3631 18.5925 95.85 18.5932C95.3375 18.5939 94.8362 18.5721 94.6007 18.5309L94.5435 18.8581ZM97.1424 18.8547C97.9678 18.7015 98.7241 18.4666 99.3402 18.1693L99.1958 17.8701C98.612 18.1518 97.8849 18.3791 97.0819 18.5279L97.1424 18.8547ZM99.3402 18.1693L99.7596 17.9668L99.6153 17.6676L99.1958 17.8701L99.3402 18.1693ZM99.8392 17.7497L99.5053 16.9987L99.2017 17.1337L99.5357 17.8847L99.8392 17.7497ZM99.5053 16.9987C99.4128 16.7909 99.3253 16.6015 99.2581 16.4633C99.2248 16.3945 99.1959 16.3368 99.1736 16.2956C99.1628 16.2754 99.152 16.2563 99.1422 16.241C99.1377 16.234 99.1306 16.2232 99.1216 16.2125C99.1176 16.2076 99.1088 16.1976 99.0963 16.1873C99.0914 16.1833 99.0515 16.149 98.9894 16.149V16.4812C98.9282 16.4812 98.8897 16.4476 98.8864 16.4448C98.8754 16.4359 98.8686 16.4278 98.8666 16.4255C98.8621 16.42 98.8603 16.4168 98.8623 16.4199C98.8653 16.4247 98.8714 16.4352 98.8812 16.4532C98.9 16.4882 98.9266 16.5409 98.9593 16.6082C99.0243 16.7422 99.1103 16.9282 99.2017 17.1337L99.5053 16.9987ZM98.9894 16.149C98.9601 16.149 98.9346 16.1572 98.9319 16.158C98.9219 16.1609 98.9116 16.1644 98.902 16.1678C98.8826 16.1749 98.8588 16.1843 98.8329 16.195C98.7807 16.2167 98.7143 16.2461 98.6457 16.2781L98.7862 16.5792C98.8513 16.5488 98.9135 16.5214 98.9603 16.5019C98.984 16.492 99.0025 16.4848 99.015 16.4803C99.0179 16.4792 99.0204 16.4784 99.0221 16.4778C99.0231 16.4775 99.0238 16.4772 99.0243 16.4771C99.0247 16.4769 99.0249 16.4769 99.0249 16.4769C99.0249 16.4769 99.0244 16.477 99.0236 16.4772C99.0229 16.4774 99.0214 16.4778 99.0194 16.4782C99.0179 16.4785 99.0058 16.4812 98.9894 16.4812V16.149ZM98.6457 16.2781C98.3314 16.4248 97.5633 16.6739 97.15 16.7621L97.2193 17.087C97.6525 16.9945 98.4452 16.7384 98.7862 16.5792L98.6457 16.2781ZM97.15 16.7621C96.6193 16.8754 96.0467 16.9153 95.5939 16.8729L95.563 17.2037C96.0547 17.2497 96.6613 17.2061 97.2193 17.087L97.15 16.7621ZM95.5939 16.8729C95.1448 16.8309 95.0216 16.8032 94.7091 16.6812L94.5882 16.9907C94.9367 17.1267 95.0919 17.1596 95.563 17.2037L95.5939 16.8729ZM94.7091 16.6812C94.098 16.4428 93.703 15.9054 93.6425 15.2148L93.3116 15.2437C93.3824 16.0535 93.8533 16.7038 94.5882 16.9907L94.7091 16.6812ZM93.6425 15.2148L93.6316 15.0881L93.3005 15.117L93.3116 15.2437L93.6425 15.2148ZM99.9992 15.0841V14.3811H99.6669V15.0841H99.9992ZM99.9992 14.3811C99.9992 13.3857 99.9155 12.8501 99.6487 12.2345L99.3439 12.3666C99.5855 12.9242 99.6669 13.4091 99.6669 14.3811H99.9992ZM99.6487 12.2345C99.1417 11.0647 98.0344 10.3104 96.5565 10.0865L96.5068 10.415C97.8983 10.6258 98.8922 11.3245 99.3439 12.3666L99.6487 12.2345ZM96.5565 10.0865C96.3301 10.0522 95.9277 10.0366 95.5362 10.037C95.1449 10.0375 94.7439 10.054 94.5201 10.0889L94.5713 10.4172C94.7676 10.3865 95.1465 10.3697 95.5365 10.3692C95.9266 10.3688 96.3071 10.3848 96.5068 10.415L96.5565 10.0865ZM51.7223 16.2685L51.8173 16.6153L52.1377 16.5274L52.0427 16.1807L51.7223 16.2685ZM51.8173 16.6153C51.9892 17.2424 52.3043 17.7478 52.7678 18.1248C53.2297 18.5003 53.8289 18.74 54.5573 18.8542L54.6086 18.5259C53.9221 18.4184 53.3826 18.1965 52.9772 17.8669C52.5736 17.5387 52.2934 17.0955 52.1377 16.5274L51.8173 16.6153ZM54.5573 18.8542C55.355 18.9791 56.6344 18.9596 57.3616 18.8101L57.2949 18.4847C56.61 18.6256 55.3709 18.6453 54.6086 18.5259L54.5573 18.8542ZM57.3616 18.8101C58.752 18.5241 59.6889 17.708 59.9934 16.4749L59.6708 16.3953C59.4022 17.4834 58.5819 18.2199 57.2947 18.4847L57.3616 18.8101ZM59.9934 16.4749C60.0253 16.3454 60.0407 16.1814 60.051 15.7392C60.0613 15.293 60.0663 14.5489 60.0721 13.2483L59.7399 13.2468C59.7341 14.5486 59.7291 15.2891 59.7188 15.7315C59.7085 16.178 59.6927 16.3065 59.6708 16.3953L59.9934 16.4749ZM60.0721 13.2483L60.0851 10.3074L59.7528 10.306L59.7399 13.2468L60.0721 13.2483ZM57.613 10.306L57.601 13.0659L57.9332 13.0673L57.9452 10.3074L57.613 10.306ZM57.601 13.0659C57.5955 14.346 57.5914 15.0373 57.5811 15.4319C57.5704 15.8304 57.5533 15.9072 57.5314 15.973L57.8465 16.0781C57.8862 15.9594 57.9027 15.8359 57.9131 15.4406C57.9236 15.0415 57.9277 14.3455 57.9332 13.0673L57.601 13.0659ZM57.5314 15.973C57.4176 16.3144 57.242 16.5431 56.9884 16.6907C56.7292 16.8415 56.3703 16.9184 55.8714 16.9173L55.8706 17.2495C56.3982 17.2507 56.8243 17.1706 57.1555 16.9779C57.4922 16.7819 57.7125 16.4804 57.8465 16.0781L57.5314 15.973ZM55.8714 16.9173C55.3329 16.9159 54.9445 16.8058 54.6802 16.6062C54.4204 16.41 54.2585 16.1105 54.2053 15.6803L53.8756 15.7211C53.937 16.2181 54.1322 16.6087 54.4801 16.8713C54.8233 17.1306 55.2929 17.2482 55.8706 17.2495L55.8714 16.9173ZM54.2053 15.6804C54.1952 15.5986 54.1857 15.285 54.1791 14.7839C54.1724 14.2891 54.1688 13.6239 54.1688 12.8503H53.8365C53.8365 13.6248 53.8402 14.2915 53.8468 14.7883C53.8533 15.2787 53.8626 15.6162 53.8756 15.7211L54.2053 15.6804ZM54.1688 12.8503V10.3067H53.8365V12.8503H54.1688ZM96.2826 12.0393C96.9073 12.2081 97.2964 12.6052 97.4394 13.2106L97.7628 13.1343C97.5907 12.4057 97.1073 11.9179 96.3693 11.7186L96.2826 12.0393ZM97.4394 13.2106C97.4673 13.3284 97.4894 13.4956 97.4897 13.5738L97.8219 13.5728C97.8216 13.4618 97.7945 13.2683 97.7628 13.1343L97.4394 13.2106ZM97.4897 13.5738L97.4902 13.7458L97.8224 13.7447L97.8219 13.5728L97.4897 13.5738ZM93.614 13.7452V13.6351H93.2817V13.7452H93.614ZM93.614 13.6351C93.614 13.5538 93.6384 13.4032 93.6794 13.2372C93.7199 13.0731 93.7714 12.9148 93.8171 12.8191L93.5171 12.6763C93.4576 12.8012 93.3997 12.9843 93.3568 13.1575C93.3145 13.3289 93.2817 13.5118 93.2817 13.6351H93.614ZM93.8171 12.8191C93.8691 12.7098 93.9663 12.5802 94.088 12.459C94.2093 12.3382 94.3452 12.2353 94.4671 12.1737L94.3173 11.8772C94.1566 11.9584 93.9929 12.0848 93.8535 12.2236C93.7148 12.3619 93.5905 12.522 93.5171 12.6763L93.8171 12.8191ZM94.4671 12.1737C94.76 12.0257 95.1467 11.955 95.6553 11.9724L95.6666 11.6403C95.1249 11.6218 94.6769 11.6953 94.3173 11.8772L94.4671 12.1737ZM95.6553 11.9724C95.9025 11.9808 96.1857 12.0131 96.2826 12.0393L96.3693 11.7186C96.2334 11.6819 95.9183 11.6489 95.6666 11.6403L95.6553 11.9724ZM80.9116 12.1564C81.5422 12.2984 81.9527 12.6801 82.1447 13.3054L82.4623 13.2078C82.2357 12.4699 81.7327 12.0008 80.9847 11.8323L80.9116 12.1564ZM82.1447 13.3054C82.1937 13.4645 82.2042 13.5949 82.2042 14.4872H82.5364C82.5364 13.6177 82.5294 13.4263 82.4623 13.2078L82.1447 13.3054ZM82.2042 14.4872C82.2042 15.3892 82.194 15.5076 82.1437 15.6682L82.4606 15.7676C82.5299 15.5466 82.5364 15.3659 82.5364 14.4872H82.2042ZM82.1437 15.6682C82.0467 15.9771 81.9322 16.1786 81.7566 16.3638L81.9977 16.5924C82.2145 16.3637 82.3517 16.115 82.4606 15.7676L82.1437 15.6682ZM81.7566 16.3638C81.5877 16.542 81.4091 16.6588 81.1731 16.7334C80.9319 16.8095 80.6241 16.8437 80.1935 16.8437V17.1759C80.6372 17.1759 80.9844 17.1414 81.2731 17.0502C81.5669 16.9575 81.793 16.8083 81.9977 16.5924L81.7566 16.3638ZM80.1935 16.8437C79.7271 16.8437 79.5804 16.8294 79.3759 16.7752L79.2909 17.0963C79.5387 17.162 79.7211 17.1759 80.1935 17.1759V16.8437ZM79.3759 16.7752C79.0252 16.6824 78.7676 16.5497 78.5771 16.3708C78.3875 16.1928 78.2537 15.9591 78.1668 15.6458L77.8467 15.7346C77.9463 16.0937 78.107 16.3851 78.3497 16.613C78.5915 16.84 78.904 16.994 79.2909 17.0963L79.3759 16.7752ZM78.1668 15.6458C78.1492 15.582 78.1321 15.4306 78.1204 15.2158C78.1091 15.0075 78.1035 14.7559 78.1037 14.503C78.1038 14.2502 78.11 13.9981 78.1216 13.789C78.1336 13.5737 78.1508 13.4206 78.1688 13.3548L77.8483 13.267C77.8196 13.3723 77.8015 13.5602 77.7899 13.7706C77.7777 13.9872 77.7716 14.2455 77.7714 14.5028C77.7713 14.76 77.7769 15.018 77.7887 15.2338C77.8 15.4432 77.8178 15.6304 77.8467 15.7346L78.1668 15.6458ZM78.1688 13.3548C78.26 13.0215 78.4123 12.7607 78.6209 12.5652C78.8297 12.3695 79.1033 12.2313 79.4487 12.1563L79.3782 11.8316C78.9846 11.9171 78.6537 12.0792 78.3939 12.3228C78.1337 12.5665 77.9533 12.884 77.8483 13.267L78.1688 13.3548ZM79.4487 12.1563C79.6002 12.1234 79.8869 12.1048 80.1852 12.1049C80.4841 12.1049 80.7669 12.1238 80.9116 12.1564L80.9847 11.8323C80.8013 11.791 80.4869 11.7727 80.1852 11.7726C79.8832 11.7726 79.5666 11.7907 79.3782 11.8316L79.4487 12.1563ZM47.3425 15.7016C47.3425 16.1038 47.3286 16.1957 47.2786 16.3293L47.5897 16.4459C47.6628 16.251 47.6747 16.1053 47.6747 15.7016H47.3425ZM47.2786 16.3293C47.1846 16.5801 46.9829 16.7914 46.6611 16.9465L46.8055 17.2457C47.1864 17.0621 47.4593 16.7937 47.5897 16.4459L47.2786 16.3293ZM46.6611 16.9465C46.3063 17.1176 46.0414 17.1809 45.5409 17.2068L45.5581 17.5387C46.0927 17.511 46.4027 17.4399 46.8055 17.2457L46.6611 16.9465ZM45.5409 17.2068C44.7842 17.246 44.351 17.1193 44.0889 16.8561L43.8535 17.0905C44.2176 17.4561 44.7729 17.5794 45.5581 17.5387L45.5409 17.2068ZM44.0889 16.8561C43.9899 16.7566 43.9399 16.6839 43.9103 16.6025C43.8794 16.5173 43.8654 16.4076 43.8656 16.2238L43.5334 16.2235C43.5332 16.4183 43.547 16.5749 43.598 16.7156C43.6503 16.8601 43.7364 16.9729 43.8537 17.0905L44.0889 16.8561ZM43.8656 16.2238C43.8658 15.9015 43.9105 15.7813 44.0128 15.6652L43.7633 15.4457C43.5839 15.6495 43.5336 15.866 43.5334 16.2235L43.8656 16.2238ZM44.0128 15.6651C44.0753 15.5942 44.1224 15.5509 44.1804 15.5185C44.2392 15.4857 44.3204 15.4577 44.4575 15.4366C44.7389 15.3933 45.2053 15.3851 46.0851 15.3834L46.0842 15.0511C45.2159 15.0529 44.7193 15.0602 44.407 15.1083C44.247 15.1329 44.1238 15.1696 44.0184 15.2285C43.9125 15.2877 43.836 15.3631 43.7633 15.4457L44.0128 15.6651ZM46.0851 15.3834L47.509 15.3805L47.5083 15.0483L46.0842 15.0511L46.0851 15.3834ZM47.3425 15.2144V15.7016H47.6747V15.2144H47.3425ZM42.2081 11.6658L43.35 13.1415L43.6128 12.9382L42.4709 11.4625L42.2081 11.6658ZM49.8156 16.7032C49.8168 16.7056 49.8121 16.6958 49.8073 16.6645C49.803 16.636 49.7998 16.5993 49.798 16.5553C49.7944 16.4675 49.7967 16.3621 49.8018 16.2585C49.8068 16.1554 49.8145 16.057 49.8208 15.9842C49.8239 15.9478 49.8269 15.918 49.8289 15.8974C49.8299 15.887 49.8307 15.879 49.8314 15.8737C49.8316 15.871 49.8317 15.8689 49.8319 15.8676C49.8321 15.8669 49.8321 15.8664 49.8321 15.8661C49.8321 15.866 49.8321 15.8659 49.8322 15.8658C49.8322 15.8658 49.8322 15.8657 49.8322 15.8657C49.8322 15.8657 49.8322 15.8657 49.6669 15.8478C49.5018 15.8299 49.5018 15.8299 49.5018 15.8299C49.5018 15.8299 49.5018 15.8299 49.5018 15.8299C49.5018 15.83 49.5018 15.83 49.5018 15.8301C49.5018 15.8302 49.5018 15.8304 49.5018 15.8306C49.5018 15.831 49.5017 15.8316 49.5017 15.8324C49.5015 15.834 49.5012 15.8362 49.5008 15.8392C49.5003 15.8451 49.4993 15.8536 49.4983 15.8645C49.4962 15.8863 49.4932 15.9174 49.4899 15.9552C49.4832 16.0307 49.4752 16.1336 49.4699 16.2422C49.4646 16.3501 49.4618 16.4668 49.4659 16.5689C49.4681 16.6198 49.4721 16.6699 49.4789 16.7151C49.4854 16.7571 49.4963 16.8076 49.5183 16.8517L49.8156 16.7032ZM50.4975 18.9369V17.0266H50.1653V18.9369H50.4975ZM50.3314 17.0266C50.3548 16.8621 50.3548 16.8621 50.355 16.8621H50.3548C50.3547 16.8621 50.3543 16.8621 50.3538 16.862C50.353 16.8618 50.3517 16.8616 50.3497 16.8613C50.346 16.8608 50.3402 16.86 50.3327 16.8586C50.3178 16.8563 50.296 16.8527 50.2696 16.8477C50.2164 16.8379 50.1455 16.8231 50.0731 16.8038C49.9995 16.7842 49.9297 16.7611 49.8764 16.736C49.8136 16.7065 49.8091 16.6902 49.8156 16.7032L49.5183 16.8517C49.5663 16.9477 49.6656 17.004 49.7351 17.0367C49.8141 17.0739 49.9053 17.1028 49.9874 17.1248C50.0708 17.147 50.1503 17.1635 50.2088 17.1743C50.2382 17.1797 50.2626 17.1839 50.2797 17.1867C50.2884 17.188 50.2952 17.189 50.3 17.1899C50.3023 17.1902 50.3042 17.1905 50.3055 17.1907C50.3061 17.1907 50.3068 17.1909 50.3071 17.1909C50.3073 17.1909 50.3075 17.191 50.3076 17.191H50.3078C50.3078 17.191 50.308 17.191 50.3314 17.0266ZM27.7542 7.769L27.8508 7.76952L27.8527 7.43729L27.7558 7.43678L27.7542 7.769ZM27.8508 7.76952C30.8432 7.78551 31.5 7.79048 32.2296 7.98492L32.3151 7.66389C31.5332 7.45551 30.8199 7.45316 27.8527 7.43729L27.8508 7.76952ZM31.2085 9.27306C31.0472 9.23141 30.7688 9.21149 30.3797 9.1989C29.9842 9.1861 29.455 9.18068 28.7801 9.17375L28.7767 9.50596C29.4532 9.51291 29.9781 9.51831 30.3689 9.53096C30.7663 9.54382 31.0063 9.56397 31.1254 9.59473L31.2085 9.27306ZM28.7801 9.17375C28.7477 9.17342 28.715 9.17307 28.6817 9.17274L28.6784 9.50495C28.7115 9.50528 28.7444 9.50563 28.7767 9.50596L28.7801 9.17375ZM40.3673 18.8339V17.106H40.0351V18.8339H40.3673ZM38.8204 6.97674H36.6821V7.30897H38.8204V6.97674ZM71.0482 6.97674V8.93128H71.3804V6.97674H71.0482ZM71.2143 9.09739H73.4274V8.76517H71.2143V9.09739ZM73.5935 8.93128V6.97674H73.2613V8.93128H73.5935ZM73.4274 6.81063H71.2143V7.14286H73.4274V6.81063ZM75.6194 6.97674V18.6689H75.9517V6.97674H75.6194ZM75.787 18.835L77.8007 18.8158L77.7975 18.4836L75.7839 18.5028L75.787 18.835ZM77.9651 18.6533L77.9855 17.7259L77.6533 17.7186L77.6329 18.646L77.9651 18.6533ZM78.1103 11.1489L78.0915 6.976L77.7593 6.97749L77.7781 11.1504L78.1103 11.1489ZM77.9254 6.81063H75.7856V7.14286H77.9254V6.81063ZM90.4482 18.6776V16.9399H90.1159V18.6776H90.4482ZM88.9023 6.81063H86.763V7.14286H88.9023V6.81063ZM24.75 7.58769V18.6678H25.0822V7.58769H24.75ZM24.9161 18.8339H27.1648V18.5017H24.9161V18.8339ZM27.3309 18.6686L27.3497 15.1034L27.0174 15.1017L26.9987 18.6669L27.3309 18.6686ZM27.3316 13.3471V9.32327H26.9993V13.3471H27.3316ZM93.4664 15.2687L99.8336 15.2502L99.8326 14.918L93.4656 14.9365L93.4664 15.2687ZM51.6925 10.3074L51.7163 16.2253L52.0485 16.224L52.0248 10.306L51.6925 10.3074ZM59.9189 10.1406H57.7791V10.4728H59.9189V10.1406ZM54.0027 10.1406H51.8586V10.4728H54.0027V10.1406ZM71.0846 10.3067V18.6678H71.4168V10.3067H71.0846ZM71.2507 18.8339H73.391V18.5017H71.2507V18.8339ZM73.5571 18.6678V10.3067H73.2249V18.6678H73.5571ZM73.391 10.1406H71.2507V10.4728H73.391V10.1406ZM97.6563 13.5791H93.4478V13.9114H97.6563V13.5791Z" fill="#191E38"/>
</g>
</g>
<defs>
<radialGradient id="paint0_radial_1_1637" cx="0" cy="0" r="1" gradientUnits="userSpaceOnUse" gradientTransform="translate(15.3771 2.4139) scale(18.8477 18.9493)">
<stop stop-color="#2440E6"/>
<stop offset="1" stop-color="#5661B3"/>
</radialGradient>
<radialGradient id="paint1_radial_1_1637" cx="0" cy="0" r="1" gradientUnits="userSpaceOnUse" gradientTransform="translate(-6.91654 23.3812) rotate(-53.4927) scale(9.28724 14.7369)">
<stop stop-color="#6574CD" stop-opacity="0.5"/>
<stop offset="1" stop-color="#6574CD"/>
</radialGradient>
<clipPath id="clip0_1_1637">
<rect width="100" height="26.0797" fill="white"/>
</clipPath>
</defs>
</svg>
