<svg width="100" height="28" viewBox="0 0 100 28" fill="none" xmlns="http://www.w3.org/2000/svg">
<g clip-path="url(#clip0_1_1453)">
<path fill-rule="evenodd" clip-rule="evenodd" d="M41.6963 12.9424C41.3669 13.2826 40.9525 13.4526 40.4529 13.4526H38.358V9.90688H40.4529C40.9525 9.90688 41.3669 10.0742 41.6963 10.4086C42.0255 10.7431 42.19 11.167 42.19 11.6796C42.19 12.1814 42.0255 12.6025 41.6963 12.9424ZM43.3482 8.88672C42.5649 8.12864 41.5997 7.74939 40.4529 7.74939H36.0078V19.2282H38.358V15.6099H40.4529C41.5997 15.6099 42.5649 15.2311 43.3482 14.4727C44.1317 13.7147 44.5234 12.7836 44.5234 11.6796C44.5234 10.5759 44.1317 9.64504 43.3482 8.88672ZM49.1986 11.0205C48.7272 11.288 48.3893 11.6897 48.1851 12.2248V10.6193H45.9881V19.2284H48.1851V15.2312C48.1851 14.4283 48.4492 13.8542 48.9771 13.5084C49.5049 13.1633 50.1037 13.0292 50.7737 13.107V10.6193C50.1946 10.6193 49.6693 10.7529 49.1986 11.0205ZM54.2821 16.5381C54.7071 16.9618 55.2404 17.1739 55.8813 17.1739C56.522 17.1739 57.0581 16.9618 57.4889 16.5381C57.9198 16.1139 58.1352 15.5759 58.1352 14.9238C58.1352 14.2718 57.9198 13.7334 57.4889 13.3094C57.0581 12.8855 56.522 12.6738 55.8813 12.6738C55.2404 12.6738 54.7071 12.8855 54.2821 13.3094C53.8566 13.7334 53.644 14.2718 53.644 14.9238C53.644 15.5759 53.8566 16.1139 54.2821 16.5381ZM58.9971 17.981C58.1461 18.8125 57.1077 19.2284 55.8813 19.2284C54.6549 19.2284 53.6192 18.8125 52.7739 17.981C51.9287 17.1492 51.5062 16.1303 51.5062 14.9238C51.5062 13.717 51.9287 12.6978 52.7739 11.8664C53.6192 11.0351 54.6549 10.6193 55.8813 10.6193C57.1077 10.6193 58.1461 11.0351 58.9971 11.8664C59.8477 12.6978 60.2729 13.717 60.2729 14.9238C60.2729 16.1303 59.8477 17.1492 58.9971 17.981ZM64.7033 12.6931H66.6277V10.6193H64.7033V8.52472L62.5063 9.18424V10.6193H61.0246V12.6931H62.5063V16.3501C62.5063 17.4986 62.8154 18.2961 63.4343 18.7418C64.053 19.1875 65.1177 19.3271 66.6277 19.1597V17.203C66.2075 17.2257 65.8554 17.2284 65.5718 17.2115C65.2881 17.1949 65.0721 17.1194 64.9246 16.9858C64.7771 16.8518 64.7033 16.6401 64.7033 16.3501V12.6931ZM70.1361 16.5381C70.5612 16.9618 71.0945 17.1739 71.7353 17.1739C72.3761 17.1739 72.9121 16.9618 73.3429 16.5381C73.7737 16.1139 73.9893 15.5759 73.9893 14.9238C73.9893 14.2718 73.7737 13.7334 73.3429 13.3094C72.9121 12.8855 72.3761 12.6738 71.7353 12.6738C71.0945 12.6738 70.5612 12.8855 70.1361 13.3094C69.7106 13.7334 69.498 14.2718 69.498 14.9238C69.498 15.5759 69.7106 16.1139 70.1361 16.5381ZM74.8512 17.981C74.0001 18.8125 72.9617 19.2283 71.7353 19.2283C70.5089 19.2283 69.4731 18.8125 68.6279 17.981C67.7827 17.1492 67.3601 16.1303 67.3601 14.9238C67.3601 13.717 67.7827 12.6978 68.6279 11.8664C69.4731 11.0351 70.5089 10.6193 71.7353 10.6193C72.9617 10.6193 74.0001 11.0351 74.8512 11.8664C75.7017 12.6978 76.127 13.717 76.127 14.9238C76.127 16.1303 75.7017 17.1492 74.8512 17.981ZM83.2797 12.9424C82.9509 13.2826 82.5365 13.4526 82.0365 13.4526H79.942V9.90688H82.0365C82.5365 9.90688 82.9509 10.0742 83.2797 10.4086C83.6093 10.7431 83.7741 11.167 83.7741 11.6796C83.7741 12.1814 83.6093 12.6025 83.2797 12.9424ZM84.9317 8.88672C84.1485 8.12864 83.1837 7.74939 82.0365 7.74939H77.5916V19.2282H79.942V15.6099H82.0365C83.1837 15.6099 84.1485 15.2311 84.9317 14.4727C85.7157 13.7147 86.1069 12.7836 86.1069 11.6796C86.1069 10.5759 85.7157 9.64504 84.9317 8.88672ZM87.5725 19.2282H89.7693V12.0542H87.5725V19.2282ZM88.6509 10.6191C88.2581 10.6191 87.9189 10.4778 87.6309 10.1948C87.3429 9.9124 87.1989 9.57864 87.1989 9.19312C87.1989 8.80832 87.3429 8.47136 87.6309 8.1824C87.9189 7.89374 88.2581 7.74939 88.6509 7.74939C89.0549 7.74939 89.4013 7.89374 89.6893 8.1824C89.9773 8.47136 90.1213 8.80832 90.1213 9.19312C90.1213 9.57864 89.9773 9.9124 89.6893 10.1948C89.4013 10.4778 89.0549 10.6191 88.6509 10.6191ZM97.8157 14.1575H93.4917C93.6157 13.6356 93.8693 13.2307 94.2549 12.9427C94.6389 12.655 95.1253 12.5107 95.7133 12.5107C96.2101 12.5107 96.6541 12.6468 97.0437 12.9184C97.4341 13.1902 97.6909 13.603 97.8157 14.1575ZM99.5789 17.4837C99.5789 17.4837 99.6365 17.4046 99.7093 17.2956C99.7093 17.2956 98.2725 16.8631 97.6613 16.6804C97.2389 17.1074 96.6573 17.3207 95.9157 17.3207C94.6157 17.3207 93.8189 16.8098 93.5253 15.7878H99.9189C99.9741 15.4838 100.003 15.1955 100.003 14.9238C100.003 13.7066 99.5989 12.6847 98.7909 11.8584C97.9829 11.0324 96.9565 10.6193 95.7133 10.6193C94.4013 10.6193 93.3269 11.0298 92.4909 11.8502C91.6541 12.671 91.2365 13.6957 91.2365 14.9238C91.2365 16.163 91.6597 17.1903 92.5077 18.0054C93.3557 18.8206 94.4805 19.2284 95.8829 19.2284C97.5101 19.2284 98.7429 18.647 99.5789 17.4837Z" fill="#252830"/>
<path d="M17.6983 0.0771027H10.0782C4.55532 0.0771027 0.078125 4.46117 0.078125 9.8692V17.3308C0.078125 22.7388 4.55532 27.1229 10.0782 27.1229H17.6983C23.2212 27.1229 27.6984 22.7388 27.6984 17.3308V9.8692C27.6984 4.46117 23.2212 0.0771027 17.6983 0.0771027Z" fill="url(#paint0_linear_1_1453)" stroke="#D8DBE3" stroke-width="0.170081"/>
<g filter="url(#filter0_dd_1_1453)">
<g filter="url(#filter1_ii_1_1453)">
<path fill-rule="evenodd" clip-rule="evenodd" d="M13.9211 20.1218V22.8404C13.4623 22.8404 13.0463 22.6617 12.7403 22.3721C12.7391 22.3721 12.7391 22.3721 12.7391 22.3712L12.5099 22.103L5.00231 13.353C4.99739 13.3507 4.99385 13.3459 4.9913 13.341L4.96099 13.3067C4.95863 13.3042 4.95726 13.3018 4.95509 13.2994C4.9185 13.2506 4.88701 13.1982 4.86634 13.141C4.83842 13.073 4.82267 12.9992 4.82031 12.923V12.8778C4.82031 12.8635 4.82149 12.849 4.82404 12.8346C4.83722 12.6848 4.90274 12.551 5.00231 12.4463C5.1249 12.3165 5.30198 12.2344 5.49717 12.2344H7.15138L13.9199 20.1228L13.9211 20.1218Z" fill="url(#paint1_linear_1_1453)"/>
<path fill-rule="evenodd" clip-rule="evenodd" d="M13.9211 20.1218V22.8404C13.4623 22.8404 13.0463 22.6617 12.7403 22.3721C12.7391 22.3721 12.7391 22.3721 12.7391 22.3712L12.5099 22.103L5.00231 13.353C4.99739 13.3507 4.99385 13.3459 4.9913 13.341L4.96099 13.3067C4.95863 13.3042 4.95726 13.3018 4.95509 13.2994C4.9185 13.2506 4.88701 13.1982 4.86634 13.141C4.83842 13.073 4.82267 12.9992 4.82031 12.923V12.8778C4.82031 12.8635 4.82149 12.849 4.82404 12.8346C4.83722 12.6848 4.90274 12.551 5.00231 12.4463C5.1249 12.3165 5.30198 12.2344 5.49717 12.2344H7.15138L13.9199 20.1228L13.9211 20.1218Z" fill="url(#paint2_linear_1_1453)"/>
</g>
<g filter="url(#filter2_ii_1_1453)">
<path fill-rule="evenodd" clip-rule="evenodd" d="M13.9211 20.1218V22.8404C13.4623 22.8404 13.0463 22.6617 12.7403 22.3721C12.7391 22.3721 12.7391 22.3721 12.7391 22.3712L12.5099 22.103L6.90856 15.5752L5.00231 13.353C4.99739 13.3507 4.99385 13.3459 4.9913 13.341L4.96099 13.3067C4.95863 13.3042 4.95726 13.3018 4.95509 13.2994C4.9185 13.2506 4.88701 13.1982 4.86634 13.141C4.83842 13.073 4.82267 12.9992 4.82031 12.923V12.8778C4.82031 12.8635 4.82149 12.849 4.82404 12.8346C4.83722 12.6848 4.90274 12.551 5.00231 12.4463C5.1249 12.3165 5.30198 12.2344 5.49717 12.2344H7.15138L7.92918 13.141L10.0175 15.5752L13.4415 19.5653L13.9199 20.1228L13.9211 20.1218Z" fill="url(#paint3_linear_1_1453)" fill-opacity="0.4"/>
</g>
<g filter="url(#filter3_ii_1_1453)">
<path fill-rule="evenodd" clip-rule="evenodd" d="M13.9211 16.5103V20.1402L13.9199 20.1414L4.98972 9.76192C4.98067 9.752 4.97162 9.74088 4.96257 9.72952C4.92283 9.67968 4.88977 9.62392 4.86575 9.5624C4.83861 9.49464 4.82267 9.42096 4.82031 9.34312V9.2984C4.82483 9.13248 4.89312 8.98312 5.00231 8.86968C5.12412 8.738 5.30139 8.65672 5.49717 8.65672H7.16495L13.9211 16.5103Z" fill="url(#paint4_linear_1_1453)"/>
<path fill-rule="evenodd" clip-rule="evenodd" d="M13.9211 16.5103V20.1402L13.9199 20.1414L4.98972 9.76192C4.98067 9.752 4.97162 9.74088 4.96257 9.72952C4.92283 9.67968 4.88977 9.62392 4.86575 9.5624C4.83861 9.49464 4.82267 9.42096 4.82031 9.34312V9.2984C4.82483 9.13248 4.89312 8.98312 5.00231 8.86968C5.12412 8.738 5.30139 8.65672 5.49717 8.65672H7.16495L13.9211 16.5103Z" fill="url(#paint5_linear_1_1453)"/>
</g>
<g filter="url(#filter4_ii_1_1453)">
<path fill-rule="evenodd" clip-rule="evenodd" d="M13.9211 16.5103V20.1402L13.9199 20.1414L13.4422 19.5853L10.018 15.6058L7.92938 13.1779L7.15138 12.2733L4.98972 9.76192C4.98067 9.752 4.97162 9.74088 4.96257 9.72952C4.92283 9.67968 4.88977 9.62392 4.86575 9.5624C4.83861 9.49464 4.82267 9.42096 4.82031 9.34312V9.2984C4.82483 9.13248 4.89312 8.98312 5.00231 8.86968C5.12412 8.738 5.30139 8.65672 5.49717 8.65672H7.16495L7.94414 9.5624L10.2763 12.2733L11.0543 13.1779L13.143 15.6058L13.9211 16.5103Z" fill="url(#paint6_linear_1_1453)" fill-opacity="0.3"/>
</g>
<g filter="url(#filter5_ii_1_1453)">
<path fill-rule="evenodd" clip-rule="evenodd" d="M5.46594 5.01709C5.27096 5.01709 5.09229 5.09763 4.97109 5.22962C4.86188 5.34136 4.79399 5.49339 4.78906 5.65871V5.70263C4.79123 5.78105 4.80697 5.85465 4.83511 5.92228C4.83629 5.92826 4.83885 5.93307 4.84102 5.93903C4.86305 5.99011 4.89081 6.0375 4.92603 6.08163C4.93803 6.09839 4.95161 6.1138 4.96617 6.12787C4.96852 6.13153 4.97206 6.13499 4.97581 6.13866L13.8897 16.4987V22.8401C13.9324 22.8401 13.9737 22.839 14.0148 22.8354C14.4237 22.8072 14.7926 22.6359 15.0705 22.3733C15.0718 22.3733 15.0718 22.3733 15.0718 22.3719L15.3012 22.1047L22.8197 13.3654C22.8293 13.3559 22.8378 13.3451 22.8465 13.3345C22.8877 13.2846 22.9203 13.2286 22.9445 13.1669C22.9749 13.0933 22.9907 13.0126 22.9907 12.9268V5.68009C22.9907 5.50533 22.9214 5.34483 22.8076 5.22847C22.6849 5.09763 22.5089 5.01709 22.3123 5.01709H5.46594Z" fill="url(#paint7_linear_1_1453)"/>
<path fill-rule="evenodd" clip-rule="evenodd" d="M5.46594 5.01709C5.27096 5.01709 5.09229 5.09763 4.97109 5.22962C4.86188 5.34136 4.79399 5.49339 4.78906 5.65871V5.70263C4.79123 5.78105 4.80697 5.85465 4.83511 5.92228C4.83629 5.92826 4.83885 5.93307 4.84102 5.93903C4.86305 5.99011 4.89081 6.0375 4.92603 6.08163C4.93803 6.09839 4.95161 6.1138 4.96617 6.12787C4.96852 6.13153 4.97206 6.13499 4.97581 6.13866L13.8897 16.4987V22.8401C13.9324 22.8401 13.9737 22.839 14.0148 22.8354C14.4237 22.8072 14.7926 22.6359 15.0705 22.3733C15.0718 22.3733 15.0718 22.3733 15.0718 22.3719L15.3012 22.1047L22.8197 13.3654C22.8293 13.3559 22.8378 13.3451 22.8465 13.3345C22.8877 13.2846 22.9203 13.2286 22.9445 13.1669C22.9749 13.0933 22.9907 13.0126 22.9907 12.9268V5.68009C22.9907 5.50533 22.9214 5.34483 22.8076 5.22847C22.6849 5.09763 22.5089 5.01709 22.3123 5.01709H5.46594Z" fill="url(#paint8_linear_1_1453)"/>
<path fill-rule="evenodd" clip-rule="evenodd" d="M5.46594 5.01709C5.27096 5.01709 5.09229 5.09763 4.97109 5.22962C4.86188 5.34136 4.79399 5.49339 4.78906 5.65871V5.70263C4.79123 5.78105 4.80697 5.85465 4.83511 5.92228C4.83629 5.92826 4.83885 5.93307 4.84102 5.93903C4.86305 5.99011 4.89081 6.0375 4.92603 6.08163C4.93803 6.09839 4.95161 6.1138 4.96617 6.12787C4.96852 6.13153 4.97206 6.13499 4.97581 6.13866L13.8897 16.4987V22.8401C13.9324 22.8401 13.9737 22.839 14.0148 22.8354C14.4237 22.8072 14.7926 22.6359 15.0705 22.3733C15.0718 22.3733 15.0718 22.3733 15.0718 22.3719L15.3012 22.1047L22.8197 13.3654C22.8293 13.3559 22.8378 13.3451 22.8465 13.3345C22.8877 13.2846 22.9203 13.2286 22.9445 13.1669C22.9749 13.0933 22.9907 13.0126 22.9907 12.9268V5.68009C22.9907 5.50533 22.9214 5.34483 22.8076 5.22847C22.6849 5.09763 22.5089 5.01709 22.3123 5.01709H5.46594Z" fill="url(#paint9_linear_1_1453)"/>
<path fill-rule="evenodd" clip-rule="evenodd" d="M5.46594 5.01709C5.27096 5.01709 5.09229 5.09763 4.97109 5.22962C4.86188 5.34136 4.79399 5.49339 4.78906 5.65871V5.70263C4.79123 5.78105 4.80697 5.85465 4.83511 5.92228C4.83629 5.92826 4.83885 5.93307 4.84102 5.93903C4.86305 5.99011 4.89081 6.0375 4.92603 6.08163C4.93803 6.09839 4.95161 6.1138 4.96617 6.12787C4.96852 6.13153 4.97206 6.13499 4.97581 6.13866L13.8897 16.4987V22.8401C13.9324 22.8401 13.9737 22.839 14.0148 22.8354C14.4237 22.8072 14.7926 22.6359 15.0705 22.3733C15.0718 22.3733 15.0718 22.3733 15.0718 22.3719L15.3012 22.1047L22.8197 13.3654C22.8293 13.3559 22.8378 13.3451 22.8465 13.3345C22.8877 13.2846 22.9203 13.2286 22.9445 13.1669C22.9749 13.0933 22.9907 13.0126 22.9907 12.9268V5.68009C22.9907 5.50533 22.9214 5.34483 22.8076 5.22847C22.6849 5.09763 22.5089 5.01709 22.3123 5.01709H5.46594Z" fill="url(#paint10_linear_1_1453)"/>
<path fill-rule="evenodd" clip-rule="evenodd" d="M5.46594 5.01709C5.27096 5.01709 5.09229 5.09763 4.97109 5.22962C4.86188 5.34136 4.79399 5.49339 4.78906 5.65871V5.70263C4.79123 5.78105 4.80697 5.85465 4.83511 5.92228C4.83629 5.92826 4.83885 5.93307 4.84102 5.93903C4.86305 5.99011 4.89081 6.0375 4.92603 6.08163C4.93803 6.09839 4.95161 6.1138 4.96617 6.12787C4.96852 6.13153 4.97206 6.13499 4.97581 6.13866L13.8897 16.4987V22.8401C13.9324 22.8401 13.9737 22.839 14.0148 22.8354C14.4237 22.8072 14.7926 22.6359 15.0705 22.3733C15.0718 22.3733 15.0718 22.3733 15.0718 22.3719L15.3012 22.1047L22.8197 13.3654C22.8293 13.3559 22.8378 13.3451 22.8465 13.3345C22.8877 13.2846 22.9203 13.2286 22.9445 13.1669C22.9749 13.0933 22.9907 13.0126 22.9907 12.9268V5.68009C22.9907 5.50533 22.9214 5.34483 22.8076 5.22847C22.6849 5.09763 22.5089 5.01709 22.3123 5.01709H5.46594Z" fill="url(#paint11_linear_1_1453)"/>
<path fill-rule="evenodd" clip-rule="evenodd" d="M5.46594 5.01709C5.27096 5.01709 5.09229 5.09763 4.97109 5.22962C4.86188 5.34136 4.79399 5.49339 4.78906 5.65871V5.70263C4.79123 5.78105 4.80697 5.85465 4.83511 5.92228C4.83629 5.92826 4.83885 5.93307 4.84102 5.93903C4.86305 5.99011 4.89081 6.0375 4.92603 6.08163C4.93803 6.09839 4.95161 6.1138 4.96617 6.12787C4.96852 6.13153 4.97206 6.13499 4.97581 6.13866L13.8897 16.4987V22.8401C13.9324 22.8401 13.9737 22.839 14.0148 22.8354C14.4237 22.8072 14.7926 22.6359 15.0705 22.3733C15.0718 22.3733 15.0718 22.3733 15.0718 22.3719L15.3012 22.1047L22.8197 13.3654C22.8293 13.3559 22.8378 13.3451 22.8465 13.3345C22.8877 13.2846 22.9203 13.2286 22.9445 13.1669C22.9749 13.0933 22.9907 13.0126 22.9907 12.9268V5.68009C22.9907 5.50533 22.9214 5.34483 22.8076 5.22847C22.6849 5.09763 22.5089 5.01709 22.3123 5.01709H5.46594Z" fill="url(#paint12_linear_1_1453)"/>
</g>
</g>
</g>
<defs>
<filter id="filter0_dd_1_1453" x="2.23302" y="3.06963" width="25.0192" height="24.6394" filterUnits="userSpaceOnUse" color-interpolation-filters="sRGB">
<feFlood flood-opacity="0" result="BackgroundImageFix"/>
<feColorMatrix in="SourceAlpha" type="matrix" values="0 0 0 0 0 0 0 0 0 0 0 0 0 0 0 0 0 0 127 0" result="hardAlpha"/>
<feOffset dx="0.852015" dy="1.4606"/>
<feGaussianBlur stdDeviation="1.70403"/>
<feColorMatrix type="matrix" values="0 0 0 0 1 0 0 0 0 0.875 0 0 0 0 0.843 0 0 0 0.63 0"/>
<feBlend mode="normal" in2="BackgroundImageFix" result="effect1_dropShadow_1_1453"/>
<feColorMatrix in="SourceAlpha" type="matrix" values="0 0 0 0 0 0 0 0 0 0 0 0 0 0 0 0 0 0 127 0" result="hardAlpha"/>
<feOffset dx="0.365149" dy="0.730298"/>
<feGaussianBlur stdDeviation="1.21716"/>
<feColorMatrix type="matrix" values="0 0 0 0 0.771137 0 0 0 0 0.469437 0 0 0 0 0.40806 0 0 0 0.3 0"/>
<feBlend mode="normal" in2="effect1_dropShadow_1_1453" result="effect2_dropShadow_1_1453"/>
<feBlend mode="normal" in="SourceGraphic" in2="effect2_dropShadow_1_1453" result="shape"/>
</filter>
<filter id="filter1_ii_1_1453" x="4.82031" y="12.2344" width="11.901" height="14.7444" filterUnits="userSpaceOnUse" color-interpolation-filters="sRGB">
<feFlood flood-opacity="0" result="BackgroundImageFix"/>
<feBlend mode="normal" in="SourceGraphic" in2="BackgroundImageFix" result="shape"/>
<feColorMatrix in="SourceAlpha" type="matrix" values="0 0 0 0 0 0 0 0 0 0 0 0 0 0 0 0 0 0 127 0" result="hardAlpha"/>
<feOffset dx="2.79947" dy="6.93784"/>
<feGaussianBlur stdDeviation="2.06918"/>
<feComposite in2="hardAlpha" operator="arithmetic" k2="-1" k3="1"/>
<feColorMatrix type="matrix" values="0 0 0 0 1 0 0 0 0 0.651 0 0 0 0 0.58 0 0 0 1 0"/>
<feBlend mode="normal" in2="shape" result="effect1_innerShadow_1_1453"/>
<feColorMatrix in="SourceAlpha" type="matrix" values="0 0 0 0 0 0 0 0 0 0 0 0 0 0 0 0 0 0 127 0" result="hardAlpha"/>
<feOffset dx="-2.24069" dy="14.7885"/>
<feGaussianBlur stdDeviation="2.01663"/>
<feComposite in2="hardAlpha" operator="arithmetic" k2="-1" k3="1"/>
<feColorMatrix type="matrix" values="0 0 0 0 1 0 0 0 0 0.875 0 0 0 0 0.843 0 0 0 0.48 0"/>
<feBlend mode="normal" in2="effect1_innerShadow_1_1453" result="effect2_innerShadow_1_1453"/>
</filter>
<filter id="filter2_ii_1_1453" x="4.82031" y="10.8955" width="10.6839" height="11.9449" filterUnits="userSpaceOnUse" color-interpolation-filters="sRGB">
<feFlood flood-opacity="0" result="BackgroundImageFix"/>
<feBlend mode="normal" in="SourceGraphic" in2="BackgroundImageFix" result="shape"/>
<feColorMatrix in="SourceAlpha" type="matrix" values="0 0 0 0 0 0 0 0 0 0 0 0 0 0 0 0 0 0 127 0" result="hardAlpha"/>
<feOffset dx="0.121716" dy="-1.4606"/>
<feGaussianBlur stdDeviation="0.547724"/>
<feComposite in2="hardAlpha" operator="arithmetic" k2="-1" k3="1"/>
<feColorMatrix type="matrix" values="0 0 0 0 1 0 0 0 0 0.604589 0 0 0 0 0.591667 0 0 0 0.2 0"/>
<feBlend mode="multiply" in2="shape" result="effect1_innerShadow_1_1453"/>
<feColorMatrix in="SourceAlpha" type="matrix" values="0 0 0 0 0 0 0 0 0 0 0 0 0 0 0 0 0 0 127 0" result="hardAlpha"/>
<feOffset dx="1.58231" dy="-1.33888"/>
<feGaussianBlur stdDeviation="0.791157"/>
<feComposite in2="hardAlpha" operator="arithmetic" k2="-1" k3="1"/>
<feColorMatrix type="matrix" values="0 0 0 0 1 0 0 0 0 1 0 0 0 0 1 0 0 0 0.3 0"/>
<feBlend mode="normal" in2="effect1_innerShadow_1_1453" result="effect2_innerShadow_1_1453"/>
</filter>
<filter id="filter3_ii_1_1453" x="2.57962" y="8.65672" width="14.1417" height="15.623" filterUnits="userSpaceOnUse" color-interpolation-filters="sRGB">
<feFlood flood-opacity="0" result="BackgroundImageFix"/>
<feBlend mode="normal" in="SourceGraphic" in2="BackgroundImageFix" result="shape"/>
<feColorMatrix in="SourceAlpha" type="matrix" values="0 0 0 0 0 0 0 0 0 0 0 0 0 0 0 0 0 0 127 0" result="hardAlpha"/>
<feOffset dx="2.79947" dy="6.93784"/>
<feGaussianBlur stdDeviation="2.06918"/>
<feComposite in2="hardAlpha" operator="arithmetic" k2="-1" k3="1"/>
<feColorMatrix type="matrix" values="0 0 0 0 1 0 0 0 0 0.651 0 0 0 0 0.58 0 0 0 1 0"/>
<feBlend mode="normal" in2="shape" result="effect1_innerShadow_1_1453"/>
<feColorMatrix in="SourceAlpha" type="matrix" values="0 0 0 0 0 0 0 0 0 0 0 0 0 0 0 0 0 0 127 0" result="hardAlpha"/>
<feOffset dx="-2.24069" dy="14.7885"/>
<feGaussianBlur stdDeviation="2.01663"/>
<feComposite in2="hardAlpha" operator="arithmetic" k2="-1" k3="1"/>
<feColorMatrix type="matrix" values="0 0 0 0 1 0 0 0 0 0.875 0 0 0 0 0.843 0 0 0 0.48 0"/>
<feBlend mode="normal" in2="effect1_innerShadow_1_1453" result="effect2_innerShadow_1_1453"/>
</filter>
<filter id="filter4_ii_1_1453" x="4.82031" y="8.41329" width="9.95358" height="12.0932" filterUnits="userSpaceOnUse" color-interpolation-filters="sRGB">
<feFlood flood-opacity="0" result="BackgroundImageFix"/>
<feBlend mode="normal" in="SourceGraphic" in2="BackgroundImageFix" result="shape"/>
<feColorMatrix in="SourceAlpha" type="matrix" values="0 0 0 0 0 0 0 0 0 0 0 0 0 0 0 0 0 0 127 0" result="hardAlpha"/>
<feOffset dx="0.365149" dy="-0.243433"/>
<feGaussianBlur stdDeviation="0.912873"/>
<feComposite in2="hardAlpha" operator="arithmetic" k2="-1" k3="1"/>
<feColorMatrix type="matrix" values="0 0 0 0 0.996078 0 0 0 0 0.458823 0 0 0 0 0.411765 0 0 0 0.5 0"/>
<feBlend mode="normal" in2="shape" result="effect1_innerShadow_1_1453"/>
<feColorMatrix in="SourceAlpha" type="matrix" values="0 0 0 0 0 0 0 0 0 0 0 0 0 0 0 0 0 0 127 0" result="hardAlpha"/>
<feOffset dx="1.94746" dy="0.365149"/>
<feGaussianBlur stdDeviation="0.426008"/>
<feComposite in2="hardAlpha" operator="arithmetic" k2="-1" k3="1"/>
<feColorMatrix type="matrix" values="0 0 0 0 1 0 0 0 0 1 0 0 0 0 1 0 0 0 0.08 0"/>
<feBlend mode="normal" in2="effect1_innerShadow_1_1453" result="effect2_innerShadow_1_1453"/>
</filter>
<filter id="filter5_ii_1_1453" x="2.35521" y="3.19213" width="20.637" height="21.2297" filterUnits="userSpaceOnUse" color-interpolation-filters="sRGB">
<feFlood flood-opacity="0" result="BackgroundImageFix"/>
<feBlend mode="normal" in="SourceGraphic" in2="BackgroundImageFix" result="shape"/>
<feColorMatrix in="SourceAlpha" type="matrix" values="0 0 0 0 0 0 0 0 0 0 0 0 0 0 0 0 0 0 127 0" result="hardAlpha"/>
<feOffset dx="-2.43385" dy="-1.82496"/>
<feGaussianBlur stdDeviation="1.76459"/>
<feComposite in2="hardAlpha" operator="arithmetic" k2="-1" k3="1"/>
<feColorMatrix type="matrix" values="0 0 0 0 0 0 0 0 0 0 0 0 0 0 0 0 0 0 0.1 0"/>
<feBlend mode="hard-light" in2="shape" result="effect1_innerShadow_1_1453"/>
<feColorMatrix in="SourceAlpha" type="matrix" values="0 0 0 0 0 0 0 0 0 0 0 0 0 0 0 0 0 0 127 0" result="hardAlpha"/>
<feOffset dx="-0.243215" dy="1.58175"/>
<feGaussianBlur stdDeviation="1.52137"/>
<feComposite in2="hardAlpha" operator="arithmetic" k2="-1" k3="1"/>
<feColorMatrix type="matrix" values="0 0 0 0 1 0 0 0 0 0.87451 0 0 0 0 0.843137 0 0 0 0.7 0"/>
<feBlend mode="soft-light" in2="effect1_innerShadow_1_1453" result="effect2_innerShadow_1_1453"/>
</filter>
<linearGradient id="paint0_linear_1_1453" x1="13.8882" y1="-5.3603e-07" x2="13.8882" y2="27.2" gradientUnits="userSpaceOnUse">
<stop stop-color="white"/>
<stop offset="1" stop-color="#F6F8FC"/>
</linearGradient>
<linearGradient id="paint1_linear_1_1453" x1="10.2858" y1="15.3043" x2="8.72818" y2="16.5526" gradientUnits="userSpaceOnUse">
<stop stop-color="#FFA794" stop-opacity="0.3"/>
<stop offset="1" stop-color="#FF9794"/>
</linearGradient>
<linearGradient id="paint2_linear_1_1453" x1="10.2858" y1="15.3043" x2="8.72818" y2="16.5526" gradientUnits="userSpaceOnUse">
<stop stop-color="#FFA794" stop-opacity="0.3"/>
<stop offset="1" stop-color="#FF9794"/>
</linearGradient>
<linearGradient id="paint3_linear_1_1453" x1="10.151" y1="19.2427" x2="11.8171" y2="17.7222" gradientUnits="userSpaceOnUse">
<stop stop-color="#FFDFD7"/>
<stop offset="1" stop-color="#FFDFD7"/>
</linearGradient>
<linearGradient id="paint4_linear_1_1453" x1="10.2858" y1="11.981" x2="8.56722" y2="13.7338" gradientUnits="userSpaceOnUse">
<stop stop-color="#FFA794" stop-opacity="0.3"/>
<stop offset="1" stop-color="#FF9794"/>
</linearGradient>
<linearGradient id="paint5_linear_1_1453" x1="10.2858" y1="11.981" x2="8.56722" y2="13.7338" gradientUnits="userSpaceOnUse">
<stop stop-color="#FFA794" stop-opacity="0.3"/>
<stop offset="1" stop-color="#FF9794"/>
</linearGradient>
<linearGradient id="paint6_linear_1_1453" x1="10.6565" y1="16.1726" x2="12.4047" y2="14.3536" gradientUnits="userSpaceOnUse">
<stop stop-color="#FFA694"/>
<stop offset="1" stop-color="#FFB7A9"/>
</linearGradient>
<linearGradient id="paint7_linear_1_1453" x1="19.8223" y1="16.9322" x2="7.68689" y2="8.40912" gradientUnits="userSpaceOnUse">
<stop stop-color="#FF6661"/>
<stop offset="1" stop-color="#FF7D73"/>
</linearGradient>
<linearGradient id="paint8_linear_1_1453" x1="19.8223" y1="16.9322" x2="7.68689" y2="8.40912" gradientUnits="userSpaceOnUse">
<stop stop-color="#FF6661"/>
<stop offset="1" stop-color="#FF7D73"/>
</linearGradient>
<linearGradient id="paint9_linear_1_1453" x1="19.8223" y1="16.9322" x2="7.68689" y2="8.40912" gradientUnits="userSpaceOnUse">
<stop stop-color="#FF6661"/>
<stop offset="1" stop-color="#FF7D73"/>
</linearGradient>
<linearGradient id="paint10_linear_1_1453" x1="19.8223" y1="16.9322" x2="7.68689" y2="8.40912" gradientUnits="userSpaceOnUse">
<stop stop-color="#FF6661"/>
<stop offset="1" stop-color="#FF7D73"/>
</linearGradient>
<linearGradient id="paint11_linear_1_1453" x1="19.8223" y1="16.9322" x2="7.68689" y2="8.40912" gradientUnits="userSpaceOnUse">
<stop stop-color="#FF6661"/>
<stop offset="1" stop-color="#FF7D73"/>
</linearGradient>
<linearGradient id="paint12_linear_1_1453" x1="19.8223" y1="16.9322" x2="7.68689" y2="8.40912" gradientUnits="userSpaceOnUse">
<stop stop-color="#FF6661"/>
<stop offset="1" stop-color="#FF7D73"/>
</linearGradient>
<clipPath id="clip0_1_1453">
<rect width="100" height="27.2" fill="white"/>
</clipPath>
</defs>
</svg>
