<svg width="50" height="50" viewBox="0 0 50 50" fill="none" xmlns="http://www.w3.org/2000/svg">
<g clip-path="url(#clip0_1_1429)">
<path d="M16.0644 28.1504C18.8361 28.1531 21.5458 27.3298 23.8476 25.7858C26.1545 24.2379 27.9508 22.0413 29.0101 19.4733C30.0708 16.9019 30.3495 14.0748 29.8118 11.3457C29.2743 8.61661 27.9439 6.10661 25.9872 4.12954C24.0368 2.15907 21.5426 0.815432 18.824 0.270605C16.1054 -0.274224 13.2861 0.0045402 10.7269 1.07122C8.16399 2.13823 5.97568 3.94225 4.43939 6.25454C2.63956 8.96311 1.82914 12.2096 2.14491 15.4463C2.46068 18.683 3.88331 21.7117 6.17272 24.0213C7.46797 25.3269 9.00841 26.3638 10.7056 27.0725C12.4027 27.781 14.2252 28.1473 16.0644 28.1504Z" fill="#F4C222"/>
<path d="M33.1172 48.0748V31.2165L49.888 48.0748H33.1172Z" fill="#5C5CE5"/>
<path d="M49.8901 14.3704L16.3651 48.0746H2.08594L49.8901 0.0162735V14.3704Z" fill="#E54C4C"/>
</g>
<defs>
<clipPath id="clip0_1_1429">
<rect width="50" height="50" fill="white"/>
</clipPath>
</defs>
</svg>
