<svg width="50" height="50" viewBox="0 0 50 50" fill="none" xmlns="http://www.w3.org/2000/svg">
<path d="M37.894 22.9691C44.1263 22.9691 49.1786 17.9168 49.1786 11.6845C49.1786 5.45214 44.1263 0.399841 37.894 0.399841C31.6617 0.399841 26.6094 5.45214 26.6094 11.6845C26.6094 17.9168 31.6617 22.9691 37.894 22.9691Z" fill="#171D26"/>
<path d="M23.2332 0.353821H0.65625V22.9308H23.2332V0.353821Z" fill="white"/>
<path d="M37.8941 27.746L49.6787 48.5998H26.1172L37.8941 27.746Z" fill="#FFC550"/>
<path d="M11.9409 48.7614C18.1732 48.7614 23.2255 43.7091 23.2255 37.4768C23.2255 31.2445 18.1732 26.1922 11.9409 26.1922C5.70855 26.1922 0.65625 31.2445 0.65625 37.4768C0.65625 43.7091 5.70855 48.7614 11.9409 48.7614Z" fill="#5263F3"/>
</svg>
