<svg width="50" height="50" viewBox="0 0 50 50" fill="none" xmlns="http://www.w3.org/2000/svg">
<g clip-path="url(#clip0_1_1277)">
<path d="M25 50C38.8071 50 50 38.8071 50 25C50 11.1929 38.8071 0 25 0C11.1929 0 0 11.1929 0 25C0 38.8071 11.1929 50 25 50Z" fill="#FF4500"/>
<path d="M41.6763 25C41.6813 25.3425 41.6389 25.6844 41.5489 26.015C41.4589 26.3456 41.3226 26.6625 41.1439 26.955C40.9657 27.2475 40.747 27.5137 40.4945 27.7456C40.242 27.9775 39.9582 28.1725 39.6514 28.325C39.6582 28.4163 39.6639 28.5081 39.667 28.6C39.6745 28.7833 39.6745 28.9667 39.667 29.15C39.6639 29.2419 39.6582 29.3337 39.6514 29.425C39.6514 35.025 33.1264 39.575 25.0764 39.575C17.0264 39.575 10.5014 35.025 10.5014 29.425C10.4945 29.3337 10.4889 29.2419 10.4857 29.15C10.4782 28.9667 10.4782 28.7833 10.4857 28.6C10.4889 28.5081 10.4945 28.4163 10.5014 28.325C10.0206 28.104 9.59355 27.7812 9.24984 27.3789C8.90614 26.9766 8.65394 26.5044 8.51072 25.995C8.36774 25.4854 8.33729 24.9508 8.42146 24.4282C8.50564 23.9057 8.70244 23.4077 8.99823 22.9688C9.29375 22.5299 9.68122 22.1606 10.1337 21.8865C10.5863 21.6123 11.093 21.4399 11.6189 21.3813C12.1447 21.3223 12.6772 21.3784 13.1792 21.5457C13.6812 21.713 14.1409 21.9874 14.5264 22.35C15.2419 21.865 15.9915 21.4324 16.7695 21.0556C17.5476 20.6794 18.352 20.3594 19.1763 20.0994C20.0007 19.8394 20.8432 19.64 21.6964 19.5019C22.5495 19.3637 23.412 19.2881 24.2764 19.275L26.1264 10.6C26.147 10.4994 26.1876 10.4044 26.2457 10.3194C26.3032 10.235 26.3776 10.1625 26.4632 10.1069C26.5495 10.0513 26.6457 10.0131 26.747 9.99438C26.8476 9.97625 26.9513 9.97812 27.0513 10L33.1763 11.225C33.7945 10.1631 35.092 9.70813 36.2376 10.1506C37.3832 10.5931 38.0382 11.8025 37.782 13.0037C37.5263 14.205 36.4351 15.0425 35.2089 14.9794C33.982 14.9162 32.9826 13.9712 32.8513 12.75L27.5014 11.625L25.8764 19.425C26.7301 19.4431 27.582 19.5231 28.4245 19.6637C30.1116 19.945 31.7494 20.4683 33.287 21.2175C34.055 21.5912 34.795 22.0199 35.5014 22.5C36.0092 22.0124 36.6474 21.6822 37.3389 21.5494C38.0303 21.4161 38.7455 21.4857 39.3982 21.75C40.051 22.0141 40.6134 22.4615 41.0176 23.0381C41.4219 23.6148 41.6507 24.2962 41.6763 25V25ZM16.8664 28.4569C16.9926 28.76 17.1763 29.0356 17.4088 29.2675C17.6407 29.5 17.9163 29.6837 18.2195 29.81C18.5229 29.9355 18.848 30 19.1763 30C20.1876 30 21.0989 29.3906 21.4864 28.4569C21.8732 27.5225 21.6588 26.4475 20.9438 25.7325C20.2288 25.0175 19.1538 24.8031 18.2195 25.19C17.2857 25.5775 16.6763 26.4887 16.6763 27.5C16.6763 27.8281 16.7407 28.1531 16.8664 28.4569V28.4569ZM31.1851 34.4581C31.3132 34.3331 31.3864 34.1625 31.3889 33.9837C31.3914 33.8044 31.322 33.6319 31.197 33.5037C31.072 33.3756 30.9014 33.3025 30.7226 33.3C30.5432 33.2975 30.3707 33.3669 30.2264 33.475C29.8504 33.7446 29.4523 33.9819 29.0364 34.1844C28.6203 34.3869 28.188 34.554 27.7439 34.6838C27.3001 34.8131 26.8457 34.905 26.3864 34.9581C25.9264 35.0113 25.4632 35.025 25.0014 35C24.5401 35.0206 24.0776 35.0019 23.6195 34.9444C23.1612 34.8874 22.7087 34.7913 22.267 34.6569C21.8245 34.5231 21.3951 34.3519 20.982 34.1456C20.5689 33.9394 20.1738 33.6981 19.8013 33.425C19.672 33.3187 19.5076 33.2644 19.3401 33.2725C19.1726 33.2806 19.0145 33.3513 18.8957 33.4694C18.7776 33.5881 18.707 33.7462 18.6989 33.9137C18.6907 34.0812 18.7451 34.2456 18.8514 34.375C19.2907 34.7063 19.7576 34.9988 20.247 35.25C20.7363 35.5012 21.247 35.7094 21.772 35.8731C22.297 36.0369 22.8351 36.155 23.3807 36.2269C23.9264 36.2981 24.477 36.3225 25.0264 36.3C25.5757 36.3225 26.1264 36.2981 26.672 36.2269C27.7648 36.0831 28.8248 35.7527 29.8057 35.25C30.2951 34.9988 30.762 34.7063 31.2014 34.375L31.1851 34.4581ZM30.7264 30.2C31.0651 30.2038 31.4014 30.1381 31.7145 30.0081C32.0276 29.8775 32.3107 29.685 32.547 29.4419C32.7832 29.1988 32.967 28.91 33.0882 28.5931C33.2096 28.2766 33.2651 27.9387 33.2514 27.6C33.2514 26.5888 32.642 25.6775 31.7082 25.29C30.7739 24.9031 29.6989 25.1175 28.9839 25.8325C28.2689 26.5475 28.0545 27.6225 28.4414 28.5569C28.8289 29.4906 29.7401 30.1 30.7514 30.1L30.7264 30.2Z" fill="white"/>
</g>
<defs>
<clipPath id="clip0_1_1277">
<rect width="50" height="50" fill="white"/>
</clipPath>
</defs>
</svg>
