<svg width="50" height="50" viewBox="0 0 50 50" fill="none" xmlns="http://www.w3.org/2000/svg">
<g clip-path="url(#clip0_1_1237)">
<path d="M25 50C38.8073 50 50 38.8073 50 25C50 11.1929 38.8073 0 25 0C11.1929 0 0 11.1929 0 25C0 38.8073 11.1929 50 25 50Z" fill="#1D1D1B"/>
<path d="M15.625 37.5033H22.762V28.5482H24.4377L29.5124 37.5033H37.0632L31.0863 27.1574C33.7118 26.1397 35.5978 24.152 35.5978 20.5834V20.441C35.5978 15.1628 31.9615 12.5034 25.4215 12.5034H15.625V37.5033ZM22.762 23.9009V17.8901H25.1026C27.4093 17.8901 28.6711 18.6974 28.6711 20.7191V20.8616C28.6711 22.8901 27.4839 23.9009 25.0687 23.9009H22.762Z" fill="white"/>
</g>
<defs>
<clipPath id="clip0_1_1237">
<rect width="50" height="50" fill="white"/>
</clipPath>
</defs>
</svg>
