<svg width="50" height="47" viewBox="0 0 50 47" fill="none" xmlns="http://www.w3.org/2000/svg">
<g clip-path="url(#clip0_1_1167)">
<path fill-rule="evenodd" clip-rule="evenodd" d="M30.9083 31.8435H2.38095C1.06548 31.8435 0 30.778 0 29.4626C0 28.1471 1.06548 27.0816 2.38095 27.0816H30.9083C32.2238 27.0816 33.2893 28.1471 33.2893 29.4626C33.2893 30.778 32.2238 31.8435 30.9083 31.8435Z" fill="#93C8A2"/>
<path fill-rule="evenodd" clip-rule="evenodd" d="M24.7945 46.4284C22.4707 46.4284 20.1755 46.0832 17.9731 45.4005C17.37 45.2136 16.8658 44.7948 16.5715 44.2362C16.2771 43.6777 16.2167 43.025 16.4034 42.4219C16.7927 41.16 18.1296 40.4576 19.3826 40.8505C21.1279 41.3921 22.9481 41.6659 24.7945 41.6659C32.8737 41.6659 39.8886 36.4814 42.2511 28.7612C42.3425 28.4623 42.492 28.1843 42.691 27.9431C42.8899 27.702 43.1345 27.5025 43.4106 27.356C43.6867 27.2095 43.9891 27.1189 44.3003 27.0893C44.6115 27.0598 44.9255 27.0919 45.2243 27.1838C46.4814 27.5648 47.1886 28.8981 46.804 30.154C43.8255 39.8868 34.9802 46.4284 24.7945 46.4284Z" fill="#43AF79"/>
<path fill-rule="evenodd" clip-rule="evenodd" d="M47.204 19.7469H18.6778C17.3624 19.7469 16.2969 18.6814 16.2969 17.3659C16.2969 16.0505 17.3624 14.985 18.6778 14.985H47.204C48.5195 14.985 49.585 16.0505 49.585 17.3659C49.585 18.6814 48.5195 19.7469 47.204 19.7469Z" fill="#93C8A2"/>
<path fill-rule="evenodd" clip-rule="evenodd" d="M5.06097 19.7476C4.68858 19.7476 4.32137 19.6603 3.98885 19.4927C3.65632 19.3251 3.36775 19.0817 3.14633 18.7823C2.9249 18.4829 2.77679 18.1358 2.7139 17.7688C2.651 17.4017 2.67507 17.025 2.78418 16.669C5.76335 6.93685 14.6086 0.399933 24.7931 0.399933C27.1187 0.399933 29.4139 0.745174 31.6145 1.42851C31.9132 1.52104 32.1908 1.6715 32.4313 1.8713C32.6719 2.07111 32.8707 2.31633 33.0164 2.59298C33.1622 2.86962 33.252 3.17227 33.2808 3.48364C33.3096 3.79501 33.2767 4.109 33.1842 4.40767C33.0919 4.70653 32.9416 4.98425 32.7419 5.22493C32.5421 5.46561 32.2969 5.66452 32.0201 5.81027C31.7434 5.95602 31.4406 6.04572 31.1291 6.07429C30.8177 6.10286 30.5036 6.06971 30.205 5.97673C28.461 5.44101 26.6395 5.16719 24.7931 5.16719C16.7157 5.16719 9.69966 10.3517 7.33716 18.072C7.18781 18.5592 6.88626 18.9857 6.47668 19.2889C6.0671 19.592 5.57114 19.756 5.06156 19.7565" fill="#43AF79"/>
<path fill-rule="evenodd" clip-rule="evenodd" d="M41.308 8.29261C41.308 8.9241 41.0572 9.52969 40.6107 9.97624C40.1642 10.4227 39.5585 10.6736 38.9271 10.6736C38.2956 10.6736 37.69 10.4227 37.2435 9.97624C36.797 9.52969 36.5461 8.9241 36.5461 8.29261C36.5461 7.66118 36.797 7.05559 37.2435 6.60904C37.69 6.16255 38.2956 5.91168 38.9271 5.91168C39.5585 5.91168 40.1642 6.16255 40.6107 6.60904C41.0572 7.05559 41.308 7.66118 41.308 8.29261ZM13.0432 38.539C13.0432 39.1705 12.7923 39.7761 12.3458 40.2227C11.8993 40.6692 11.2936 40.92 10.6622 40.92C10.0307 40.92 9.42512 40.6692 8.97863 40.2227C8.53208 39.7761 8.28125 39.1705 8.28125 38.539C8.28125 37.9076 8.53208 37.302 8.97863 36.8555C9.42512 36.409 10.0307 36.1581 10.6622 36.1581C11.2936 36.1581 11.8993 36.409 12.3458 36.8555C12.7923 37.302 13.0432 37.9076 13.0432 38.539Z" fill="#93C8A2"/>
</g>
<defs>
<clipPath id="clip0_1_1167">
<rect width="50" height="46.4286" fill="white"/>
</clipPath>
</defs>
</svg>
