<svg width="50" height="50" viewBox="0 0 50 50" fill="none" xmlns="http://www.w3.org/2000/svg">
<g clip-path="url(#clip0_1_966)">
<path d="M25 50C38.8071 50 50 38.8071 50 25C50 11.1929 38.8071 0 25 0C11.1929 0 0 11.1929 0 25C0 38.8071 11.1929 50 25 50Z" fill="#4581FE"/>
<mask id="mask0_1_966" style="mask-type:alpha" maskUnits="userSpaceOnUse" x="0" y="0" width="50" height="50">
<path d="M25 50C38.8071 50 50 38.8071 50 25C50 11.1929 38.8071 0 25 0C11.1929 0 0 11.1929 0 25C0 38.8071 11.1929 50 25 50Z" fill="#D9D9D9"/>
</mask>
<g mask="url(#mask0_1_966)">
<g filter="url(#filter0_f_1_966)">
<path d="M34.9509 26.9494C35.883 21.0471 36.5286 7.51727 39.93 5.24404C42.5319 5.13793 51.0159 6.7467 51.3282 6.73396C51.7185 6.71805 59.7791 12.6445 59.8269 13.8155C59.8652 14.7522 58.2387 25.9996 57.4208 31.5063L61.6096 57.529L36.6865 50.3355C35.7546 49.8522 27.4848 50.9454 29.5814 48.6705C32.2021 45.827 33.8473 33.9373 34.9509 26.9494Z" fill="#FF3AF3"/>
</g>
<g filter="url(#filter1_f_1_966)">
<path d="M34.9509 26.9494C35.883 21.0471 36.5286 7.51727 39.93 5.24404C42.5319 5.13793 51.0159 6.7467 51.3282 6.73396C51.7185 6.71805 59.7791 12.6445 59.8269 13.8155C59.8652 14.7522 58.2387 25.9996 57.4208 31.5063L61.6096 57.529L36.6865 50.3355C35.7546 49.8522 27.4848 50.9454 29.5814 48.6705C32.2021 45.827 33.8473 33.9373 34.9509 26.9494Z" fill="#FF3AF3"/>
</g>
<g filter="url(#filter2_f_1_966)">
<path d="M19.1375 10.5469C20.075 5.85934 29.5542 -4.42711 30.8563 -6.25002C28.3927 -7.13695 17.0049 0.275307 13.6689 15.6251C10.1289 31.9131 5.59593 28.7761 2.73133 25.0001C-1.17492 20.1823 -7.34679 13.4376 -0.784292 25.0001C7.41883 39.4532 9.76253 34.375 12.4969 33.9844C15.2313 33.5937 17.9657 16.4062 19.1375 10.5469Z" fill="#39FEC4"/>
</g>
<g filter="url(#filter3_f_1_966)">
<path d="M19.1375 10.5469C20.075 5.85934 29.5542 -4.42711 30.8563 -6.25002C28.3927 -7.13695 17.0049 0.275307 13.6689 15.6251C10.1289 31.9131 5.59593 28.7761 2.73133 25.0001C-1.17492 20.1823 -7.34679 13.4376 -0.784292 25.0001C7.41883 39.4532 9.76253 34.375 12.4969 33.9844C15.2313 33.5937 17.9657 16.4062 19.1375 10.5469Z" fill="#39FEC4"/>
</g>
<g filter="url(#filter4_f_1_966)">
<path d="M8.5926 23.4374C16.1513 4.77721 20.3328 -0.108493 24.6082 0.390518C19.1396 -0.781358 11.3269 8.98425 7.81127 15.6249C4.99877 20.9374 2.47278 19.401 1.56134 17.9686C-0.782406 15.6249 -4.37615 12.6561 -0.0011555 19.5311C4.37384 26.4061 7.55093 24.9999 8.5926 23.4374Z" fill="#FB44F4"/>
</g>
<g filter="url(#filter5_f_1_966)">
<path d="M8.5926 23.4374C16.1513 4.77721 20.3328 -0.108493 24.6082 0.390518C19.1396 -0.781358 11.3269 8.98425 7.81127 15.6249C4.99877 20.9374 2.47278 19.401 1.56134 17.9686C-0.782406 15.6249 -4.37615 12.6561 -0.0011555 19.5311C4.37384 26.4061 7.55093 24.9999 8.5926 23.4374Z" fill="#FB44F4"/>
</g>
<g filter="url(#filter6_f_1_966)">
<path d="M8.5926 23.4374C16.1513 4.77721 20.3328 -0.108493 24.6082 0.390518C19.1396 -0.781358 11.3269 8.98425 7.81127 15.6249C4.99877 20.9374 2.47278 19.401 1.56134 17.9686C-0.782406 15.6249 -4.37615 12.6561 -0.0011555 19.5311C4.37384 26.4061 7.55093 24.9999 8.5926 23.4374Z" fill="#FB44F4"/>
</g>
<g filter="url(#filter7_f_1_966)">
<path d="M8.5926 23.4374C16.1513 4.77721 20.3328 -0.108493 24.6082 0.390518C19.1396 -0.781358 11.3269 8.98425 7.81127 15.6249C4.99877 20.9374 2.47278 19.401 1.56134 17.9686C-0.782406 15.6249 -4.37615 12.6561 -0.0011555 19.5311C4.37384 26.4061 7.55093 24.9999 8.5926 23.4374Z" fill="#FB44F4"/>
</g>
<g filter="url(#filter8_f_1_966)">
<path d="M4.88683 18.383C7.96684 12.365 14.3979 3.12891 17.2283 -0.736898C17.6014 -0.911053 17.9506 -1.29216 16.3626 -1.42338C14.3775 -1.5874 -5.23281 12.4735 -0.814664 16.682C2.71985 20.0488 4.45905 19.2189 4.88683 18.383Z" fill="#FFC21E"/>
</g>
<g filter="url(#filter9_f_1_966)">
<path d="M4.88683 18.383C7.96684 12.365 14.3979 3.12891 17.2283 -0.736898C17.6014 -0.911053 17.9506 -1.29216 16.3626 -1.42338C14.3775 -1.5874 -5.23281 12.4735 -0.814664 16.682C2.71985 20.0488 4.45905 19.2189 4.88683 18.383Z" fill="#FFC21E"/>
</g>
<g filter="url(#filter10_f_1_966)">
<path d="M4.88683 18.383C7.96684 12.365 14.3979 3.12891 17.2283 -0.736898C17.6014 -0.911053 17.9506 -1.29216 16.3626 -1.42338C14.3775 -1.5874 -5.23281 12.4735 -0.814664 16.682C2.71985 20.0488 4.45905 19.2189 4.88683 18.383Z" fill="#FFC21E"/>
</g>
<g filter="url(#filter11_f_1_966)">
<path d="M4.88683 18.383C7.96684 12.365 14.3979 3.12891 17.2283 -0.736898C17.6014 -0.911053 17.9506 -1.29216 16.3626 -1.42338C14.3775 -1.5874 -5.23281 12.4735 -0.814664 16.682C2.71985 20.0488 4.45905 19.2189 4.88683 18.383Z" fill="#FFC21E"/>
</g>
<g filter="url(#filter12_f_1_966)">
<path d="M4.88683 18.383C7.96684 12.365 14.3979 3.12891 17.2283 -0.736898C17.6014 -0.911053 17.9506 -1.29216 16.3626 -1.42338C14.3775 -1.5874 -5.23281 12.4735 -0.814664 16.682C2.71985 20.0488 4.45905 19.2189 4.88683 18.383Z" fill="#FFC21E"/>
</g>
<g filter="url(#filter13_f_1_966)">
<path d="M4.88683 18.383C7.96684 12.365 14.3979 3.12891 17.2283 -0.736898C17.6014 -0.911053 17.9506 -1.29216 16.3626 -1.42338C14.3775 -1.5874 -5.23281 12.4735 -0.814664 16.682C2.71985 20.0488 4.45905 19.2189 4.88683 18.383Z" fill="#FFC21E"/>
</g>
<g filter="url(#filter14_f_1_966)">
<path d="M4.88683 18.383C7.96684 12.365 14.3979 3.12891 17.2283 -0.736898C17.6014 -0.911053 17.9506 -1.29216 16.3626 -1.42338C14.3775 -1.5874 -5.23281 12.4735 -0.814664 16.682C2.71985 20.0488 4.45905 19.2189 4.88683 18.383Z" fill="#FFC21E"/>
</g>
<g filter="url(#filter15_f_1_966)">
<path d="M4.88683 18.383C7.96684 12.365 14.3979 3.12891 17.2283 -0.736898C17.6014 -0.911053 17.9506 -1.29216 16.3626 -1.42338C14.3775 -1.5874 -5.23281 12.4735 -0.814664 16.682C2.71985 20.0488 4.45905 19.2189 4.88683 18.383Z" fill="#FFC21E"/>
</g>
</g>
</g>
<defs>
<filter id="filter0_f_1_966" x="17.2422" y="-6.76099" width="56.3672" height="76.29" filterUnits="userSpaceOnUse" color-interpolation-filters="sRGB">
<feFlood flood-opacity="0" result="BackgroundImageFix"/>
<feBlend mode="normal" in="SourceGraphic" in2="BackgroundImageFix" result="shape"/>
<feGaussianBlur stdDeviation="6" result="effect1_foregroundBlur_1_966"/>
</filter>
<filter id="filter1_f_1_966" x="17.2422" y="-6.76099" width="56.3672" height="76.29" filterUnits="userSpaceOnUse" color-interpolation-filters="sRGB">
<feFlood flood-opacity="0" result="BackgroundImageFix"/>
<feBlend mode="normal" in="SourceGraphic" in2="BackgroundImageFix" result="shape"/>
<feGaussianBlur stdDeviation="6" result="effect1_foregroundBlur_1_966"/>
</filter>
<filter id="filter2_f_1_966" x="-10.6641" y="-13.3212" width="48.5234" height="55.4845" filterUnits="userSpaceOnUse" color-interpolation-filters="sRGB">
<feFlood flood-opacity="0" result="BackgroundImageFix"/>
<feBlend mode="normal" in="SourceGraphic" in2="BackgroundImageFix" result="shape"/>
<feGaussianBlur stdDeviation="3.5" result="effect1_foregroundBlur_1_966"/>
</filter>
<filter id="filter3_f_1_966" x="-10.6641" y="-13.3212" width="48.5234" height="55.4845" filterUnits="userSpaceOnUse" color-interpolation-filters="sRGB">
<feFlood flood-opacity="0" result="BackgroundImageFix"/>
<feBlend mode="normal" in="SourceGraphic" in2="BackgroundImageFix" result="shape"/>
<feGaussianBlur stdDeviation="3.5" result="effect1_foregroundBlur_1_966"/>
</filter>
<filter id="filter4_f_1_966" x="-7.0625" y="-4.70593" width="36.6719" height="34.4274" filterUnits="userSpaceOnUse" color-interpolation-filters="sRGB">
<feFlood flood-opacity="0" result="BackgroundImageFix"/>
<feBlend mode="normal" in="SourceGraphic" in2="BackgroundImageFix" result="shape"/>
<feGaussianBlur stdDeviation="2.5" result="effect1_foregroundBlur_1_966"/>
</filter>
<filter id="filter5_f_1_966" x="-7.0625" y="-4.70593" width="36.6719" height="34.4274" filterUnits="userSpaceOnUse" color-interpolation-filters="sRGB">
<feFlood flood-opacity="0" result="BackgroundImageFix"/>
<feBlend mode="normal" in="SourceGraphic" in2="BackgroundImageFix" result="shape"/>
<feGaussianBlur stdDeviation="2.5" result="effect1_foregroundBlur_1_966"/>
</filter>
<filter id="filter6_f_1_966" x="-7.0625" y="-4.70593" width="36.6719" height="34.4274" filterUnits="userSpaceOnUse" color-interpolation-filters="sRGB">
<feFlood flood-opacity="0" result="BackgroundImageFix"/>
<feBlend mode="normal" in="SourceGraphic" in2="BackgroundImageFix" result="shape"/>
<feGaussianBlur stdDeviation="2.5" result="effect1_foregroundBlur_1_966"/>
</filter>
<filter id="filter7_f_1_966" x="-7.0625" y="-4.70593" width="36.6719" height="34.4274" filterUnits="userSpaceOnUse" color-interpolation-filters="sRGB">
<feFlood flood-opacity="0" result="BackgroundImageFix"/>
<feBlend mode="normal" in="SourceGraphic" in2="BackgroundImageFix" result="shape"/>
<feGaussianBlur stdDeviation="2.5" result="effect1_foregroundBlur_1_966"/>
</filter>
<filter id="filter8_f_1_966" x="-6.46094" y="-6.4248" width="29.0078" height="30.5509" filterUnits="userSpaceOnUse" color-interpolation-filters="sRGB">
<feFlood flood-opacity="0" result="BackgroundImageFix"/>
<feBlend mode="normal" in="SourceGraphic" in2="BackgroundImageFix" result="shape"/>
<feGaussianBlur stdDeviation="2.5" result="effect1_foregroundBlur_1_966"/>
</filter>
<filter id="filter9_f_1_966" x="-6.46094" y="-6.4248" width="29.0078" height="30.5509" filterUnits="userSpaceOnUse" color-interpolation-filters="sRGB">
<feFlood flood-opacity="0" result="BackgroundImageFix"/>
<feBlend mode="normal" in="SourceGraphic" in2="BackgroundImageFix" result="shape"/>
<feGaussianBlur stdDeviation="2.5" result="effect1_foregroundBlur_1_966"/>
</filter>
<filter id="filter10_f_1_966" x="-6.46094" y="-6.4248" width="29.0078" height="30.5509" filterUnits="userSpaceOnUse" color-interpolation-filters="sRGB">
<feFlood flood-opacity="0" result="BackgroundImageFix"/>
<feBlend mode="normal" in="SourceGraphic" in2="BackgroundImageFix" result="shape"/>
<feGaussianBlur stdDeviation="2.5" result="effect1_foregroundBlur_1_966"/>
</filter>
<filter id="filter11_f_1_966" x="-6.46094" y="-6.4248" width="29.0078" height="30.5509" filterUnits="userSpaceOnUse" color-interpolation-filters="sRGB">
<feFlood flood-opacity="0" result="BackgroundImageFix"/>
<feBlend mode="normal" in="SourceGraphic" in2="BackgroundImageFix" result="shape"/>
<feGaussianBlur stdDeviation="2.5" result="effect1_foregroundBlur_1_966"/>
</filter>
<filter id="filter12_f_1_966" x="-6.46094" y="-6.4248" width="29.0078" height="30.5509" filterUnits="userSpaceOnUse" color-interpolation-filters="sRGB">
<feFlood flood-opacity="0" result="BackgroundImageFix"/>
<feBlend mode="normal" in="SourceGraphic" in2="BackgroundImageFix" result="shape"/>
<feGaussianBlur stdDeviation="2.5" result="effect1_foregroundBlur_1_966"/>
</filter>
<filter id="filter13_f_1_966" x="-6.46094" y="-6.4248" width="29.0078" height="30.5509" filterUnits="userSpaceOnUse" color-interpolation-filters="sRGB">
<feFlood flood-opacity="0" result="BackgroundImageFix"/>
<feBlend mode="normal" in="SourceGraphic" in2="BackgroundImageFix" result="shape"/>
<feGaussianBlur stdDeviation="2.5" result="effect1_foregroundBlur_1_966"/>
</filter>
<filter id="filter14_f_1_966" x="-6.46094" y="-6.4248" width="29.0078" height="30.5509" filterUnits="userSpaceOnUse" color-interpolation-filters="sRGB">
<feFlood flood-opacity="0" result="BackgroundImageFix"/>
<feBlend mode="normal" in="SourceGraphic" in2="BackgroundImageFix" result="shape"/>
<feGaussianBlur stdDeviation="2.5" result="effect1_foregroundBlur_1_966"/>
</filter>
<filter id="filter15_f_1_966" x="-6.46094" y="-6.4248" width="29.0078" height="30.5509" filterUnits="userSpaceOnUse" color-interpolation-filters="sRGB">
<feFlood flood-opacity="0" result="BackgroundImageFix"/>
<feBlend mode="normal" in="SourceGraphic" in2="BackgroundImageFix" result="shape"/>
<feGaussianBlur stdDeviation="2.5" result="effect1_foregroundBlur_1_966"/>
</filter>
<clipPath id="clip0_1_966">
<rect width="50" height="50" fill="white"/>
</clipPath>
</defs>
</svg>
