<svg width="100" height="31" viewBox="0 0 100 31" fill="none" xmlns="http://www.w3.org/2000/svg">
<g clip-path="url(#clip0_1_1003)">
<path d="M15.311 30.622C23.767 30.622 30.622 23.767 30.622 15.311C30.622 6.85497 23.767 0 15.311 0C6.85497 0 0 6.85497 0 15.311C0 23.767 6.85497 30.622 15.311 30.622Z" fill="#4581FE"/>
<mask id="mask0_1_1003" style="mask-type:alpha" maskUnits="userSpaceOnUse" x="0" y="0" width="31" height="31">
<path d="M15.311 30.622C23.767 30.622 30.622 23.767 30.622 15.311C30.622 6.85497 23.767 0 15.311 0C6.85497 0 0 6.85497 0 15.311C0 23.767 6.85497 30.622 15.311 30.622Z" fill="#D9D9D9"/>
</mask>
<g mask="url(#mask0_1_1003)">
<g filter="url(#filter0_f_1_1003)">
<path d="M21.4103 16.5051C21.9812 12.8903 22.3765 4.6041 24.4597 3.21188C26.0532 3.14689 31.2492 4.13217 31.4404 4.12437C31.6795 4.11462 36.6161 7.74423 36.6454 8.46136C36.6688 9.03504 35.6727 15.9234 35.1718 19.2959L37.7372 35.2333L22.4732 30.8277C21.9025 30.5317 16.8378 31.2012 18.1218 29.808C19.7268 28.0665 20.7344 20.7848 21.4103 16.5051Z" fill="#FF3AF3"/>
</g>
<g filter="url(#filter1_f_1_1003)">
<path d="M21.4103 16.5051C21.9812 12.8903 22.3765 4.6041 24.4597 3.21188C26.0532 3.14689 31.2492 4.13217 31.4404 4.12437C31.6795 4.11462 36.6161 7.74423 36.6454 8.46136C36.6688 9.03504 35.6727 15.9234 35.1718 19.2959L37.7372 35.2333L22.4732 30.8277C21.9025 30.5317 16.8378 31.2012 18.1218 29.808C19.7268 28.0665 20.7344 20.7848 21.4103 16.5051Z" fill="#FF3AF3"/>
</g>
<g filter="url(#filter2_f_1_1003)">
<path d="M11.7224 6.45956C12.2966 3.58874 18.102 -2.7111 18.8995 -3.82752C17.3907 -4.37071 10.4163 0.168852 8.37319 9.56965C6.20515 19.5451 3.42901 17.6239 1.67461 15.3113C-0.717735 12.3607 -4.49764 8.22994 -0.4785 15.3113C4.54542 24.163 5.9808 21.0529 7.65544 20.8136C9.33008 20.5744 11.0047 10.0481 11.7224 6.45956Z" fill="#39FEC4"/>
</g>
<g filter="url(#filter3_f_1_1003)">
<path d="M11.7224 6.45956C12.2966 3.58874 18.102 -2.7111 18.8995 -3.82752C17.3907 -4.37071 10.4163 0.168852 8.37319 9.56965C6.20515 19.5451 3.42901 17.6239 1.67461 15.3113C-0.717735 12.3607 -4.49764 8.22994 -0.4785 15.3113C4.54542 24.163 5.9808 21.0529 7.65544 20.8136C9.33008 20.5744 11.0047 10.0481 11.7224 6.45956Z" fill="#39FEC4"/>
</g>
<g filter="url(#filter4_f_1_1003)">
<path d="M5.25999 14.3543C9.88922 2.92601 12.4501 -0.066185 15.0686 0.239429C11.7194 -0.478275 6.93458 5.50258 4.78147 9.56956C3.05898 12.8232 1.51196 11.8822 0.953761 11.005C-0.481644 9.56956 -2.6826 7.75138 -0.00317479 11.9619C2.67625 16.1724 4.62202 15.3112 5.25999 14.3543Z" fill="#FB44F4"/>
</g>
<g filter="url(#filter5_f_1_1003)">
<path d="M5.25999 14.3543C9.88922 2.92601 12.4501 -0.066185 15.0686 0.239429C11.7194 -0.478275 6.93458 5.50258 4.78147 9.56956C3.05898 12.8232 1.51196 11.8822 0.953761 11.005C-0.481644 9.56956 -2.6826 7.75138 -0.00317479 11.9619C2.67625 16.1724 4.62202 15.3112 5.25999 14.3543Z" fill="#FB44F4"/>
</g>
<g filter="url(#filter6_f_1_1003)">
<path d="M5.25999 14.3543C9.88922 2.92601 12.4501 -0.066185 15.0686 0.239429C11.7194 -0.478275 6.93458 5.50258 4.78147 9.56956C3.05898 12.8232 1.51196 11.8822 0.953761 11.005C-0.481644 9.56956 -2.6826 7.75138 -0.00317479 11.9619C2.67625 16.1724 4.62202 15.3112 5.25999 14.3543Z" fill="#FB44F4"/>
</g>
<g filter="url(#filter7_f_1_1003)">
<path d="M5.25999 14.3543C9.88922 2.92601 12.4501 -0.066185 15.0686 0.239429C11.7194 -0.478275 6.93458 5.50258 4.78147 9.56956C3.05898 12.8232 1.51196 11.8822 0.953761 11.005C-0.481644 9.56956 -2.6826 7.75138 -0.00317479 11.9619C2.67625 16.1724 4.62202 15.3112 5.25999 14.3543Z" fill="#FB44F4"/>
</g>
<g filter="url(#filter8_f_1_1003)">
<path d="M2.997 11.2587C4.88332 7.57305 8.82194 1.9165 10.5554 -0.451074C10.7839 -0.557734 10.9978 -0.79114 10.0252 -0.871504C8.80949 -0.971954 -3.20067 7.63951 -0.494821 10.217C1.66986 12.2789 2.73501 11.7707 2.997 11.2587Z" fill="#FFC21E"/>
</g>
<g filter="url(#filter9_f_1_1003)">
<path d="M2.997 11.2587C4.88332 7.57305 8.82194 1.9165 10.5554 -0.451074C10.7839 -0.557734 10.9978 -0.79114 10.0252 -0.871504C8.80949 -0.971954 -3.20067 7.63951 -0.494821 10.217C1.66986 12.2789 2.73501 11.7707 2.997 11.2587Z" fill="#FFC21E"/>
</g>
<g filter="url(#filter10_f_1_1003)">
<path d="M2.997 11.2587C4.88332 7.57305 8.82194 1.9165 10.5554 -0.451074C10.7839 -0.557734 10.9978 -0.79114 10.0252 -0.871504C8.80949 -0.971954 -3.20067 7.63951 -0.494821 10.217C1.66986 12.2789 2.73501 11.7707 2.997 11.2587Z" fill="#FFC21E"/>
</g>
<g filter="url(#filter11_f_1_1003)">
<path d="M2.997 11.2587C4.88332 7.57305 8.82194 1.9165 10.5554 -0.451074C10.7839 -0.557734 10.9978 -0.79114 10.0252 -0.871504C8.80949 -0.971954 -3.20067 7.63951 -0.494821 10.217C1.66986 12.2789 2.73501 11.7707 2.997 11.2587Z" fill="#FFC21E"/>
</g>
<g filter="url(#filter12_f_1_1003)">
<path d="M2.997 11.2587C4.88332 7.57305 8.82194 1.9165 10.5554 -0.451074C10.7839 -0.557734 10.9978 -0.79114 10.0252 -0.871504C8.80949 -0.971954 -3.20067 7.63951 -0.494821 10.217C1.66986 12.2789 2.73501 11.7707 2.997 11.2587Z" fill="#FFC21E"/>
</g>
<g filter="url(#filter13_f_1_1003)">
<path d="M2.997 11.2587C4.88332 7.57305 8.82194 1.9165 10.5554 -0.451074C10.7839 -0.557734 10.9978 -0.79114 10.0252 -0.871504C8.80949 -0.971954 -3.20067 7.63951 -0.494821 10.217C1.66986 12.2789 2.73501 11.7707 2.997 11.2587Z" fill="#FFC21E"/>
</g>
<g filter="url(#filter14_f_1_1003)">
<path d="M2.997 11.2587C4.88332 7.57305 8.82194 1.9165 10.5554 -0.451074C10.7839 -0.557734 10.9978 -0.79114 10.0252 -0.871504C8.80949 -0.971954 -3.20067 7.63951 -0.494821 10.217C1.66986 12.2789 2.73501 11.7707 2.997 11.2587Z" fill="#FFC21E"/>
</g>
<g filter="url(#filter15_f_1_1003)">
<path d="M2.997 11.2587C4.88332 7.57305 8.82194 1.9165 10.5554 -0.451074C10.7839 -0.557734 10.9978 -0.79114 10.0252 -0.871504C8.80949 -0.971954 -3.20067 7.63951 -0.494821 10.217C1.66986 12.2789 2.73501 11.7707 2.997 11.2587Z" fill="#FFC21E"/>
</g>
</g>
<path fill-rule="evenodd" clip-rule="evenodd" d="M72.12 6.29455C71.4124 6.50584 70.9458 7.15632 70.9458 7.93135C70.9458 8.5002 71.1057 8.89206 71.487 9.25977C72.2339 9.9801 73.4353 9.83082 74.0401 8.9425C74.9487 7.60718 73.6631 5.83398 72.12 6.29455ZM65.4071 6.44718C65.3736 6.48049 65.3459 10.3057 65.3459 14.9476V23.3874H66.6769H68.008V14.8869V6.38656H66.7382C66.0396 6.38656 65.4406 6.41384 65.4071 6.44718ZM42.7951 7.46872C40.8429 7.94403 39.7192 9.09814 39.4557 10.898C39.2011 12.6378 39.8164 14.1142 41.2366 15.1714C41.9776 15.7229 42.7562 16.1033 44.4779 16.7544C46.1348 17.3811 46.7501 17.7081 47.1999 18.2011C47.5638 18.6001 47.6719 18.9914 47.6058 19.6718C47.5342 20.4102 47.0397 20.897 46.0811 21.1731C45.4335 21.3594 43.6588 21.3015 43.0196 21.0731C42.1448 20.7604 41.4906 19.9365 41.3306 18.946L41.2697 18.569H40.0138H38.7578L38.8251 19.1928C38.9669 20.506 39.3659 21.3725 40.1851 22.1465C40.8342 22.7597 41.609 23.1535 42.6488 23.3988C43.3437 23.5627 43.6526 23.5824 44.9654 23.5461C46.5828 23.5013 47.2159 23.3693 48.2167 22.8678C48.8339 22.5588 49.5616 21.8127 49.8636 21.1804C50.3817 20.0947 50.4052 18.4216 49.9167 17.4177C49.6315 16.8325 48.9119 16.1326 48.1784 15.7283C47.8502 15.5472 46.7556 15.0664 45.7458 14.6598C42.7297 13.4454 42.1622 13.019 41.9826 11.8327C41.8532 10.9782 42.2533 10.1999 43.0098 9.83474C43.3884 9.65197 43.5934 9.62135 44.462 9.618C45.3706 9.61436 45.5197 9.63761 45.93 9.84628C46.4793 10.1257 46.8509 10.6179 47.0068 11.2732L47.1203 11.7504H48.3841C49.5497 11.7504 49.6473 11.7376 49.6473 11.5832C49.6473 11.278 49.2837 10.0014 49.0573 9.51144C48.5793 8.47785 47.5253 7.69163 46.2619 7.42642C45.4081 7.24723 43.6149 7.26905 42.7951 7.46872ZM57.753 11.3063C56.6516 11.4389 55.721 12.0629 55.2956 12.9539L55.0903 13.3846L55.032 12.7721C54.9994 12.4352 54.9731 12.0062 54.9726 11.8186L54.9722 11.4777H53.687H52.4014V19.6145V27.7512H53.7458H55.0903L55.0334 24.8647C55.0023 23.2771 54.9521 21.8555 54.9224 21.7055C54.8803 21.4926 54.9205 21.5325 55.1061 21.8873C55.7286 23.0778 57.0798 23.6648 58.7497 23.4699C60.5195 23.2633 62.0923 21.6339 62.6564 19.4228C62.9004 18.4657 62.876 15.8642 62.6143 14.9217C62.0602 12.9272 60.7525 11.5196 59.2875 11.3408C58.4789 11.2422 58.3162 11.2384 57.753 11.3063ZM82.3272 11.3225C81.0966 11.5994 80.2951 12.3967 79.7947 13.8414L79.6214 14.3415L79.5458 13.0233C79.5042 12.2982 79.4535 11.6539 79.4339 11.5913C79.4076 11.5087 79.0961 11.4777 78.2932 11.4777H77.1884V17.4325V23.3874H78.5195H79.8511V19.1727V14.958L80.2085 14.5557C80.9454 13.7268 81.9913 13.4055 83.0037 13.697C83.4248 13.8183 83.5779 13.9183 83.7937 14.2127C83.9406 14.4136 84.1047 14.7825 84.1593 15.0324C84.2205 15.3163 84.2573 16.97 84.2573 19.4371V23.3874H85.5947H86.932L86.8961 18.819C86.8573 13.9158 86.8525 13.8655 86.3573 12.8837C86.0717 12.3168 85.3798 11.7143 84.7439 11.4787C84.1052 11.242 83.0018 11.1707 82.3272 11.3225ZM94.0325 11.2894C91.7573 11.6469 90.1344 13.1187 89.5143 15.387C89.2851 16.2249 89.2903 18.7274 89.5229 19.569C90.0573 21.5039 91.2387 22.7491 93.0707 23.3089C93.6253 23.4785 93.9731 23.5197 94.8607 23.5214C96.0851 23.5238 96.6827 23.4098 97.5435 23.0096C98.6018 22.5178 99.4712 21.4035 99.643 20.3191L99.7042 19.9326H98.4071C97.3793 19.9326 97.11 19.9581 97.11 20.0554C97.11 20.3362 96.5573 20.9202 96.0664 21.158C95.6511 21.3593 95.432 21.4037 94.8435 21.4061C93.1702 21.413 92.2023 20.4046 91.9248 18.3653L91.8664 17.9345L95.9339 17.9107L100.002 17.8871L99.9942 16.6598C99.9894 15.8245 99.9372 15.2437 99.832 14.8415C99.3592 13.035 98.2305 11.8706 96.5348 11.4396C95.8645 11.2693 94.632 11.1953 94.0325 11.2894ZM71.3133 17.4325V23.3874H72.5985H73.8836V21.5386C73.8836 20.5217 73.9109 17.842 73.9444 15.5837L74.0052 11.4777H72.6592H71.3133V17.4325ZM95.9626 13.5972C96.7157 13.811 97.265 14.6121 97.4243 15.7279L97.4793 16.1143L95.2061 16.1148C93.9315 16.1151 92.7836 16.1564 92.5927 16.2089C92.4057 16.2603 92.165 16.4129 92.0578 16.5478L91.8631 16.7932L91.9119 16.5674C91.9387 16.4432 92.0014 16.1356 92.0511 15.8838C92.4435 13.9073 93.9506 13.026 95.9626 13.5972ZM58.5104 13.693C59.6832 14.2337 60.2956 15.7959 60.1736 17.9325C60.0865 19.4474 59.7899 20.2622 59.0999 20.8795C58.5186 21.3994 58.1731 21.516 57.2214 21.5134C56.5616 21.5114 56.297 21.4685 55.9104 21.3004C55.0392 20.922 55.064 21.0289 55.064 17.6089V14.6314L55.2985 14.3265C55.7147 13.7866 56.4406 13.4969 57.4047 13.4865C57.897 13.4812 58.1559 13.5295 58.5104 13.693Z" fill="black"/>
</g>
<defs>
<filter id="filter0_f_1_1003" x="5.91406" y="-8.7912" width="43.8203" height="56.0245" filterUnits="userSpaceOnUse" color-interpolation-filters="sRGB">
<feFlood flood-opacity="0" result="BackgroundImageFix"/>
<feBlend mode="normal" in="SourceGraphic" in2="BackgroundImageFix" result="shape"/>
<feGaussianBlur stdDeviation="6" result="effect1_foregroundBlur_1_1003"/>
</filter>
<filter id="filter1_f_1_1003" x="5.91406" y="-8.7912" width="43.8203" height="56.0245" filterUnits="userSpaceOnUse" color-interpolation-filters="sRGB">
<feFlood flood-opacity="0" result="BackgroundImageFix"/>
<feBlend mode="normal" in="SourceGraphic" in2="BackgroundImageFix" result="shape"/>
<feGaussianBlur stdDeviation="6" result="effect1_foregroundBlur_1_1003"/>
</filter>
<filter id="filter2_f_1_1003" x="-9.24219" y="-10.8711" width="35.1406" height="39.4067" filterUnits="userSpaceOnUse" color-interpolation-filters="sRGB">
<feFlood flood-opacity="0" result="BackgroundImageFix"/>
<feBlend mode="normal" in="SourceGraphic" in2="BackgroundImageFix" result="shape"/>
<feGaussianBlur stdDeviation="3.5" result="effect1_foregroundBlur_1_1003"/>
</filter>
<filter id="filter3_f_1_1003" x="-9.24219" y="-10.8711" width="35.1406" height="39.4067" filterUnits="userSpaceOnUse" color-interpolation-filters="sRGB">
<feFlood flood-opacity="0" result="BackgroundImageFix"/>
<feBlend mode="normal" in="SourceGraphic" in2="BackgroundImageFix" result="shape"/>
<feGaussianBlur stdDeviation="3.5" result="effect1_foregroundBlur_1_1003"/>
</filter>
<filter id="filter4_f_1_1003" x="-6.26562" y="-4.81964" width="26.3359" height="24.9603" filterUnits="userSpaceOnUse" color-interpolation-filters="sRGB">
<feFlood flood-opacity="0" result="BackgroundImageFix"/>
<feBlend mode="normal" in="SourceGraphic" in2="BackgroundImageFix" result="shape"/>
<feGaussianBlur stdDeviation="2.5" result="effect1_foregroundBlur_1_1003"/>
</filter>
<filter id="filter5_f_1_1003" x="-6.26562" y="-4.81964" width="26.3359" height="24.9603" filterUnits="userSpaceOnUse" color-interpolation-filters="sRGB">
<feFlood flood-opacity="0" result="BackgroundImageFix"/>
<feBlend mode="normal" in="SourceGraphic" in2="BackgroundImageFix" result="shape"/>
<feGaussianBlur stdDeviation="2.5" result="effect1_foregroundBlur_1_1003"/>
</filter>
<filter id="filter6_f_1_1003" x="-6.26562" y="-4.81964" width="26.3359" height="24.9603" filterUnits="userSpaceOnUse" color-interpolation-filters="sRGB">
<feFlood flood-opacity="0" result="BackgroundImageFix"/>
<feBlend mode="normal" in="SourceGraphic" in2="BackgroundImageFix" result="shape"/>
<feGaussianBlur stdDeviation="2.5" result="effect1_foregroundBlur_1_1003"/>
</filter>
<filter id="filter7_f_1_1003" x="-6.26562" y="-4.81964" width="26.3359" height="24.9603" filterUnits="userSpaceOnUse" color-interpolation-filters="sRGB">
<feFlood flood-opacity="0" result="BackgroundImageFix"/>
<feBlend mode="normal" in="SourceGraphic" in2="BackgroundImageFix" result="shape"/>
<feGaussianBlur stdDeviation="2.5" result="effect1_foregroundBlur_1_1003"/>
</filter>
<filter id="filter8_f_1_1003" x="-5.89062" y="-5.87238" width="21.6406" height="22.5862" filterUnits="userSpaceOnUse" color-interpolation-filters="sRGB">
<feFlood flood-opacity="0" result="BackgroundImageFix"/>
<feBlend mode="normal" in="SourceGraphic" in2="BackgroundImageFix" result="shape"/>
<feGaussianBlur stdDeviation="2.5" result="effect1_foregroundBlur_1_1003"/>
</filter>
<filter id="filter9_f_1_1003" x="-5.89062" y="-5.87238" width="21.6406" height="22.5862" filterUnits="userSpaceOnUse" color-interpolation-filters="sRGB">
<feFlood flood-opacity="0" result="BackgroundImageFix"/>
<feBlend mode="normal" in="SourceGraphic" in2="BackgroundImageFix" result="shape"/>
<feGaussianBlur stdDeviation="2.5" result="effect1_foregroundBlur_1_1003"/>
</filter>
<filter id="filter10_f_1_1003" x="-5.89062" y="-5.87238" width="21.6406" height="22.5862" filterUnits="userSpaceOnUse" color-interpolation-filters="sRGB">
<feFlood flood-opacity="0" result="BackgroundImageFix"/>
<feBlend mode="normal" in="SourceGraphic" in2="BackgroundImageFix" result="shape"/>
<feGaussianBlur stdDeviation="2.5" result="effect1_foregroundBlur_1_1003"/>
</filter>
<filter id="filter11_f_1_1003" x="-5.89062" y="-5.87238" width="21.6406" height="22.5862" filterUnits="userSpaceOnUse" color-interpolation-filters="sRGB">
<feFlood flood-opacity="0" result="BackgroundImageFix"/>
<feBlend mode="normal" in="SourceGraphic" in2="BackgroundImageFix" result="shape"/>
<feGaussianBlur stdDeviation="2.5" result="effect1_foregroundBlur_1_1003"/>
</filter>
<filter id="filter12_f_1_1003" x="-5.89062" y="-5.87238" width="21.6406" height="22.5862" filterUnits="userSpaceOnUse" color-interpolation-filters="sRGB">
<feFlood flood-opacity="0" result="BackgroundImageFix"/>
<feBlend mode="normal" in="SourceGraphic" in2="BackgroundImageFix" result="shape"/>
<feGaussianBlur stdDeviation="2.5" result="effect1_foregroundBlur_1_1003"/>
</filter>
<filter id="filter13_f_1_1003" x="-5.89062" y="-5.87238" width="21.6406" height="22.5862" filterUnits="userSpaceOnUse" color-interpolation-filters="sRGB">
<feFlood flood-opacity="0" result="BackgroundImageFix"/>
<feBlend mode="normal" in="SourceGraphic" in2="BackgroundImageFix" result="shape"/>
<feGaussianBlur stdDeviation="2.5" result="effect1_foregroundBlur_1_1003"/>
</filter>
<filter id="filter14_f_1_1003" x="-5.89062" y="-5.87238" width="21.6406" height="22.5862" filterUnits="userSpaceOnUse" color-interpolation-filters="sRGB">
<feFlood flood-opacity="0" result="BackgroundImageFix"/>
<feBlend mode="normal" in="SourceGraphic" in2="BackgroundImageFix" result="shape"/>
<feGaussianBlur stdDeviation="2.5" result="effect1_foregroundBlur_1_1003"/>
</filter>
<filter id="filter15_f_1_1003" x="-5.89062" y="-5.87238" width="21.6406" height="22.5862" filterUnits="userSpaceOnUse" color-interpolation-filters="sRGB">
<feFlood flood-opacity="0" result="BackgroundImageFix"/>
<feBlend mode="normal" in="SourceGraphic" in2="BackgroundImageFix" result="shape"/>
<feGaussianBlur stdDeviation="2.5" result="effect1_foregroundBlur_1_1003"/>
</filter>
<clipPath id="clip0_1_1003">
<rect width="100" height="30.622" fill="white"/>
</clipPath>
</defs>
</svg>
