<svg width="50" height="51" viewBox="0 0 50 51" fill="none" xmlns="http://www.w3.org/2000/svg">
<g clip-path="url(#clip0_1_850)">
<path d="M0.0078125 25.0306C0.0078125 6.28518 6.25622 0.0368042 25.0016 0.0368042C43.7469 0.0368042 49.9954 6.28518 49.9954 25.0306C49.9954 43.7759 43.7469 50.0243 25.0016 50.0243C6.25622 50.0243 0.0078125 43.7759 0.0078125 25.0306Z" fill="#FFC158"/>
<path fill-rule="evenodd" clip-rule="evenodd" d="M25.2913 12.2034L15.5082 27.1644C15.1978 27.639 15.5383 28.2685 16.1054 28.2685H21.1444H23.7427H25.0744L23.4129 37.3386C23.2726 38.1046 24.2858 38.5095 24.7121 37.8577L34.4952 22.8967C34.8055 22.4221 34.4651 21.7926 33.898 21.7926H27.863H26.2607H24.929L26.5904 12.7225C26.7307 11.9565 25.7175 11.5516 25.2913 12.2034Z" fill="white"/>
</g>
<defs>
<clipPath id="clip0_1_850">
<rect width="50" height="50.0612" fill="white"/>
</clipPath>
</defs>
</svg>
