<svg width="50" height="44" viewBox="0 0 50 44" fill="none" xmlns="http://www.w3.org/2000/svg">
<g clip-path="url(#clip0_1_828)">
<path d="M23.9394 42.6592C24.4076 43.4784 25.5889 43.4784 26.0571 42.6591L49.3028 1.977C49.7674 1.164 49.1803 0.152466 48.2439 0.152466H1.75256C0.81621 0.152466 0.229173 1.164 0.693716 1.977L23.9394 42.6592Z" fill="#33125C"/>
<path d="M35.9766 11.5854C35.9766 10.9118 36.5225 10.3658 37.1961 10.3658H39.6351C40.3086 10.3658 40.8546 10.9118 40.8546 11.5854V31.0976C40.8546 31.7711 40.3086 32.3171 39.6351 32.3171H37.1961C36.5225 32.3171 35.9766 31.7711 35.9766 31.0976V11.5854Z" fill="#F81CE5"/>
<path d="M48.1692 18.9025C48.8427 18.9025 49.3887 19.4484 49.3887 20.122V22.561C49.3887 23.2345 48.8427 23.7805 48.1692 23.7805H28.657C27.9835 23.7805 27.4375 23.2345 27.4375 22.561V20.122C27.4375 19.4484 27.9835 18.9025 28.657 18.9025H48.1692Z" fill="#F81CE5"/>
</g>
<defs>
<clipPath id="clip0_1_828">
<rect width="50" height="43.2927" fill="white"/>
</clipPath>
</defs>
</svg>
