<svg width="50" height="50" viewBox="0 0 50 50" fill="none" xmlns="http://www.w3.org/2000/svg">
<g clip-path="url(#clip0_1_789)">
<mask id="mask0_1_789" style="mask-type:alpha" maskUnits="userSpaceOnUse" x="0" y="0" width="50" height="50">
<path fill-rule="evenodd" clip-rule="evenodd" d="M25 50C38.8071 50 50 38.8071 50 25C50 11.1929 38.8071 0 25 0C11.1929 0 0 11.1929 0 25C0 38.8071 11.1929 50 25 50Z" fill="white"/>
</mask>
<g mask="url(#mask0_1_789)">
<path d="M57.9885 -1.32385H-5.14844V37.2059H57.9885V-1.32385Z" fill="#F64942"/>
<path d="M11.0134 40.8463C7.811 34.5678 10.9003 26.9654 19.255 24.9225C43.5253 20.9582 39.886 13.4416 47.3205 10.7619C61.1515 5.77616 57.6538 23.1285 54.8717 27.9797C52.0896 32.832 58.6788 42.0356 49.2348 42.7059C43.2907 43.1261 41.5586 39.7773 31.0812 44.1011C25.6931 46.3249 25.3788 45.8332 19.7836 44.0297L14.9955 41.6094L11.0134 40.8475V40.8463Z" fill="#F4CE45"/>
<path d="M23.6711 -4.83346C17.2187 -3.97274 -15.8027 2.97607 -18.1562 4.05107L-12.4134 36.6463C-8.96572 36.313 -2.5681 39.7451 -2.5681 34.9106C-2.5681 30.2201 -1.61691 28.2201 1.61881 22.5975C6.37357 14.338 16.8997 14.4761 20.5664 14.2963C29.2414 13.8725 38.7318 11.0963 43.5807 4.05345C60.1973 -20.0775 44.4295 -10.5573 23.6711 -4.83346Z" fill="#5B95BF"/>
<path d="M16.7026 33.0201C9.97649 33.0404 2.88363 35.1142 -3.59375 37.5463L-1.0509 65.0856C16.5764 62.8797 48.261 57.607 50.2312 54.2654C52.5157 50.3916 49.2967 47.807 55.9348 44.2773C61.2443 41.4547 67.1252 30.2892 54.6026 30.1642C47.6681 30.2201 45.8931 31.6582 40.4848 33.688C31.5705 37.032 21.8562 33.0047 16.7026 33.0201Z" fill="#EF90A4"/>
<path fill-rule="evenodd" clip-rule="evenodd" d="M25.2047 8.08801C26.0618 8.08801 26.7975 8.60468 27.1201 9.34277C27.135 9.3768 27.1594 9.40575 27.1906 9.42606C27.2217 9.44636 27.258 9.45713 27.2951 9.45705C27.3219 9.45723 27.3485 9.45144 27.3728 9.44012C27.3971 9.4288 27.4185 9.41221 27.4356 9.39158C27.6915 9.0866 28.0288 8.8608 28.4084 8.74062C28.7879 8.62045 29.1937 8.61087 29.5785 8.713C29.9721 8.81843 30.3263 9.03666 30.5974 9.34082C30.8686 9.64499 31.0449 10.0218 31.1047 10.4249C31.1098 10.4562 31.1229 10.4857 31.1425 10.5106C31.1622 10.5356 31.1878 10.5551 31.2171 10.5675C31.2462 10.5798 31.2781 10.5846 31.3097 10.5813C31.3412 10.578 31.3715 10.5668 31.3975 10.5487C31.7501 10.3014 32.1704 10.1688 32.6011 10.169C32.8953 10.1695 33.1861 10.2323 33.4544 10.353C33.7226 10.4737 33.9624 10.6498 34.158 10.8696C34.3536 11.0894 34.5005 11.3481 34.5892 11.6286C34.6778 11.9091 34.7062 12.2052 34.6725 12.4975C34.6698 12.5289 34.675 12.5605 34.6876 12.5894C34.7001 12.6182 34.7198 12.6435 34.7446 12.663C34.7694 12.6822 34.7987 12.6952 34.8298 12.7005C34.8609 12.7056 34.8928 12.703 34.9225 12.6927C35.1547 12.6094 35.3987 12.5665 35.6416 12.5665C35.9821 12.5671 36.3173 12.6508 36.618 12.8103C36.9188 12.9699 37.1761 13.2005 37.3674 13.482C37.5588 13.7637 37.6785 14.0877 37.7161 14.4262C37.7537 14.7645 37.7081 15.107 37.5832 15.4237C37.5728 15.4533 37.5697 15.485 37.5744 15.5159C37.5792 15.5469 37.5916 15.5762 37.6105 15.6013C37.6293 15.6263 37.6542 15.6462 37.6826 15.6593C37.7111 15.6724 37.7424 15.6781 37.7737 15.676C38.1751 15.6395 38.5786 15.72 38.9354 15.9077C39.2921 16.0955 39.5868 16.3826 39.7838 16.7343C39.9809 17.0859 40.0718 17.4871 40.0457 17.8894C40.0197 18.2918 39.8776 18.6778 39.6368 19.001C39.6185 19.027 39.6071 19.057 39.6034 19.0884C39.5997 19.12 39.604 19.1518 39.6157 19.1812C39.6276 19.2106 39.6467 19.2365 39.6711 19.2566C39.6956 19.2768 39.7248 19.2905 39.7559 19.2963C40.1526 19.3656 40.521 19.5481 40.8165 19.8218C41.1119 20.0955 41.3221 20.4487 41.4213 20.839C41.5207 21.2294 41.5051 21.6401 41.3766 22.0218C41.2479 22.4034 41.0117 22.7399 40.6963 22.9903C40.6721 23.0106 40.6532 23.0366 40.6416 23.0659C40.6299 23.0953 40.6259 23.1271 40.6296 23.1584C40.6334 23.1899 40.6449 23.2197 40.6632 23.2455C40.6816 23.2713 40.7061 23.292 40.7344 23.3058C41.0993 23.4755 41.4074 23.7468 41.6217 24.0874C41.8361 24.4278 41.9476 24.823 41.9428 25.2252C41.938 25.6276 41.8172 26.02 41.5948 26.3552C41.3724 26.6906 41.058 26.9545 40.6892 27.1153C40.563 27.1713 40.5344 27.3427 40.6404 27.432C40.9493 27.6905 41.1769 28.0327 41.2959 28.4175C41.4148 28.8022 41.42 29.2132 41.3109 29.6009C41.2017 29.9885 40.9828 30.3364 40.6805 30.6026C40.3782 30.8688 40.0054 31.0419 39.6071 31.1011C39.5757 31.1064 39.5463 31.1195 39.5215 31.1391C39.4966 31.1587 39.4771 31.1843 39.4647 31.2134C39.4522 31.2426 39.4473 31.2744 39.4503 31.3059C39.4534 31.3375 39.4643 31.3677 39.4821 31.3939C39.7148 31.725 39.8465 32.1164 39.861 32.5208C39.8755 32.9251 39.7723 33.325 39.5638 33.6719C39.3555 34.0187 39.0509 34.2975 38.6869 34.4745C38.3231 34.6515 37.9157 34.7191 37.5142 34.6689C37.4843 34.6696 37.455 34.6772 37.4287 34.6913C37.4024 34.7055 37.3798 34.7255 37.3628 34.75C37.3456 34.7745 37.3347 34.8027 37.3305 34.8322C37.3265 34.8618 37.3294 34.8919 37.3392 34.9201C37.4781 35.2984 37.5046 35.7089 37.4153 36.1019C37.3261 36.495 37.125 36.8538 36.8365 37.1351C36.5479 37.4164 36.1841 37.6081 35.7888 37.6872C35.3937 37.7663 34.9841 37.7294 34.6094 37.5808C34.5881 37.5727 34.5655 37.5687 34.5428 37.5689C34.5171 37.5694 34.4916 37.5751 34.4681 37.5856C34.4447 37.596 34.4235 37.6113 34.406 37.6302C34.3886 37.6491 34.3751 37.6714 34.3665 37.6956C34.3579 37.7199 34.3542 37.7457 34.3559 37.7713C34.3917 38.1726 34.3107 38.5756 34.1228 38.9318C33.9349 39.2881 33.648 39.5825 33.2966 39.7794C32.9453 39.9764 32.5446 40.0676 32.1425 40.0421C31.7405 40.0166 31.3544 39.8755 31.0309 39.6356C30.9999 39.6125 30.9623 39.6 30.9237 39.5999C30.8792 39.5996 30.8361 39.615 30.8017 39.6433C30.7673 39.6715 30.744 39.7109 30.7356 39.7546C30.6665 40.1515 30.484 40.52 30.2101 40.8156C29.9363 41.111 29.5829 41.321 29.1924 41.4202C28.8019 41.5194 28.3911 41.5034 28.0094 41.3744C27.6279 41.2453 27.2917 41.0085 27.0416 40.6927C27.0244 40.6714 27.0026 40.6543 26.9779 40.6425C26.9531 40.6308 26.9261 40.6247 26.8987 40.6249C26.8626 40.6243 26.8272 40.634 26.7966 40.653C26.766 40.672 26.7415 40.6995 26.7261 40.732C26.5565 41.0969 26.2851 41.405 25.9447 41.6194C25.6042 41.8338 25.2091 41.9452 24.8067 41.9405C24.4044 41.9357 24.0121 41.8149 23.6767 41.5925C23.3415 41.3701 23.0774 41.0556 22.9166 40.6868C22.9017 40.6528 22.8773 40.6238 22.8461 40.6035C22.815 40.5832 22.7787 40.5725 22.7416 40.5725C22.7149 40.5722 22.6884 40.5778 22.6641 40.5889C22.6398 40.6001 22.6184 40.6164 22.6011 40.6368C22.3454 40.9419 22.008 41.1678 21.6285 41.288C21.249 41.4082 20.843 41.4177 20.4582 41.3153C20.0648 41.2101 19.7107 40.992 19.4396 40.6881C19.1684 40.3841 18.9919 40.0076 18.9321 39.6046C18.9271 39.5733 18.9142 39.5437 18.8946 39.5185C18.875 39.4934 18.8494 39.4738 18.8201 39.4613C18.7909 39.4488 18.759 39.4439 18.7273 39.4471C18.6956 39.4503 18.6654 39.4615 18.6392 39.4796C18.314 39.7101 17.9294 39.842 17.5312 39.8597C17.1331 39.8775 16.7384 39.7802 16.394 39.5796C16.0412 39.376 15.7557 39.0737 15.5725 38.7099C15.3894 38.346 15.3166 37.9366 15.363 37.532C15.3659 37.5006 15.3609 37.4689 15.3484 37.4399C15.3359 37.4108 15.3163 37.3853 15.2915 37.3658C15.2666 37.3463 15.2373 37.3333 15.2061 37.328C15.1749 37.3227 15.1429 37.3253 15.113 37.3356C14.7391 37.4737 14.3335 37.5014 13.9443 37.4156C13.5551 37.3296 13.1988 37.1337 12.9178 36.851C12.63 36.5628 12.4329 36.1966 12.3504 35.7978C12.2679 35.3989 12.3037 34.9846 12.4535 34.6058C12.4642 34.5763 12.4674 34.5445 12.4628 34.5133C12.4582 34.4821 12.4459 34.4526 12.4269 34.4275C12.408 34.4022 12.3831 34.3822 12.3546 34.3691C12.3259 34.3559 12.2944 34.3502 12.263 34.3522C11.8615 34.3889 11.4581 34.3084 11.1014 34.1207C10.7446 33.9328 10.45 33.6458 10.2529 33.2941C10.0559 32.9425 9.96486 32.5413 9.99096 32.1389C10.017 31.7366 10.1591 31.3506 10.3999 31.0272C10.4182 31.0014 10.4297 30.9714 10.4334 30.94C10.4371 30.9084 10.4328 30.8765 10.4209 30.8472C10.4091 30.8178 10.39 30.7919 10.3656 30.7718C10.3411 30.7516 10.312 30.738 10.2809 30.732C9.88408 30.6628 9.51577 30.4803 9.22027 30.2066C8.92478 29.933 8.7147 29.5796 8.61533 29.1894C8.51595 28.799 8.53152 28.3883 8.66016 28.0066C8.78879 27.625 9.02502 27.2885 9.34039 27.038C9.36465 27.0178 9.38347 26.9918 9.39512 26.9625C9.40678 26.9331 9.4109 26.9013 9.40711 26.8699C9.40333 26.8385 9.39176 26.8087 9.37345 26.7828C9.35514 26.7571 9.33067 26.7364 9.30229 26.7225C8.93743 26.553 8.62933 26.2815 8.41497 25.941C8.2006 25.6006 8.08911 25.2055 8.0939 24.8032C8.09867 24.4008 8.21952 24.0084 8.4419 23.6732C8.66428 23.3378 8.97876 23.0739 9.34753 22.913C9.37666 22.9002 9.40209 22.8802 9.42147 22.8551C9.44086 22.8299 9.45358 22.8001 9.45843 22.7687C9.4633 22.7372 9.46016 22.7051 9.4493 22.6751C9.43846 22.6452 9.42023 22.6185 9.39634 22.5975C9.08704 22.3391 8.85906 21.9969 8.73989 21.6119C8.62071 21.227 8.6154 20.8157 8.72461 20.4278C8.83383 20.0399 9.0529 19.6919 9.35542 19.4256C9.65795 19.1594 10.031 18.9863 10.4297 18.9272C10.4607 18.9219 10.4899 18.9088 10.5147 18.8893C10.5394 18.8697 10.5589 18.8444 10.5713 18.8153C10.5837 18.7864 10.5887 18.7547 10.5858 18.7234C10.5829 18.692 10.5722 18.6619 10.5547 18.6356C10.3215 18.3046 10.1896 17.9131 10.1749 17.5084C10.1601 17.1039 10.2633 16.7038 10.4717 16.3568C10.6802 16.0096 10.985 15.7307 11.3491 15.5537C11.7131 15.3765 12.1209 15.3091 12.5225 15.3594C12.5523 15.359 12.5816 15.3515 12.6079 15.3376C12.6343 15.3237 12.6569 15.3037 12.674 15.2793C12.6911 15.2549 12.7022 15.2266 12.7062 15.1971C12.7103 15.1676 12.7073 15.1376 12.6975 15.1094C12.5592 14.7312 12.5331 14.3209 12.6225 13.9282C12.7119 13.5355 12.913 13.1769 13.2015 12.8958C13.4899 12.6146 13.8535 12.4228 14.2484 12.3435C14.6432 12.2643 15.0526 12.3007 15.4273 12.4487C15.4569 12.4591 15.4886 12.4621 15.5197 12.4574C15.5506 12.4526 15.58 12.4402 15.6051 12.4214C15.6301 12.4026 15.6503 12.3778 15.6635 12.3494C15.6767 12.3208 15.6826 12.2896 15.6809 12.2582C15.645 11.857 15.726 11.454 15.914 11.0978C16.1018 10.7415 16.3887 10.4471 16.74 10.2502C17.0915 10.0532 17.4922 9.96193 17.8942 9.98744C18.2962 10.013 18.6823 10.1541 19.0059 10.394C19.0392 10.4178 19.0773 10.4297 19.113 10.4297C19.1575 10.4299 19.2006 10.4146 19.235 10.3863C19.2694 10.358 19.2928 10.3186 19.3011 10.2749C19.3705 9.87823 19.5531 9.51005 19.8269 9.2147C20.1006 8.91936 20.454 8.70944 20.8442 8.61019C21.2346 8.51095 21.6451 8.52663 22.0268 8.65533C22.4084 8.78404 22.7447 9.02027 22.9951 9.33563C23.0309 9.38325 23.0856 9.40468 23.138 9.40468C23.174 9.40522 23.2094 9.39541 23.24 9.37642C23.2706 9.35742 23.2951 9.33004 23.3106 9.29754C23.644 8.58325 24.3654 8.08801 25.2047 8.08801Z" fill="white"/>
<path fill-rule="evenodd" clip-rule="evenodd" d="M32.7788 33.2046C30.8954 33.2046 31.0431 30.5463 32.7788 30.5463C34.5145 30.5463 34.6621 33.2046 32.7788 33.2046ZM17.2169 33.2046C15.3335 33.2046 15.4812 30.5463 17.2169 30.5463C18.9526 30.5463 19.1002 33.2046 17.2169 33.2046ZM38.4692 23.3832H37.8312C37.2883 23.3831 36.7571 23.226 36.3016 22.9306C35.8463 22.6354 35.486 22.2145 35.2645 21.7189C35.0423 22.2139 34.682 22.6342 34.2266 22.9289C33.7712 23.2238 33.2403 23.3806 32.6978 23.3806C32.1553 23.3806 31.6244 23.2238 31.169 22.9289C30.7135 22.6342 30.3532 22.2139 30.1312 21.7189C29.9089 22.2136 29.5485 22.6335 29.0933 22.928C28.6379 23.2226 28.1073 23.3793 27.5651 23.3793C27.0228 23.3793 26.4921 23.2226 26.0369 22.928C25.5816 22.6335 25.2212 22.2136 24.999 21.7189C24.7769 22.2139 24.4165 22.6342 23.9612 22.9289C23.5057 23.2238 22.9748 23.3806 22.4323 23.3806C21.8898 23.3806 21.3589 23.2238 20.9035 22.9289C20.4481 22.6342 20.0877 22.2139 19.8657 21.7189C19.644 22.2143 19.2837 22.635 18.8283 22.9301C18.3728 23.2252 17.8416 23.3824 17.299 23.3824C16.7563 23.3824 16.2251 23.2252 15.7697 22.9301C15.3142 22.635 14.954 22.2143 14.7323 21.7189C14.5106 22.2143 14.1503 22.6349 13.6948 22.9299C13.2394 23.225 12.7083 23.382 12.1657 23.382H11.5347C10.5787 24.4118 11.1859 25.282 13.549 25.282V30.5689C13.549 35.538 19.2704 38.0225 24.9919 38.0225C30.7145 38.0225 36.4359 35.538 36.4359 30.5701V25.282C38.8014 25.282 39.4181 24.413 38.4692 23.382V23.3832Z" fill="black"/>
<path fill-rule="evenodd" clip-rule="evenodd" d="M25.1844 6.37238C24.3463 6.37238 23.5439 6.63428 22.8785 7.09738C22.0916 6.79101 21.2285 6.7383 20.4101 6.94664C19.5917 7.15497 18.8589 7.61392 18.3142 8.25928C17.4757 8.16727 16.6294 8.33946 15.8935 8.75182C15.1575 9.16416 14.5688 9.79608 14.2094 10.5593C13.3749 10.6874 12.6013 11.0733 11.997 11.6629C11.3927 12.2524 10.9879 13.0163 10.8392 13.8474C10.0505 14.1935 9.39248 14.7818 8.96066 15.5272C8.54876 16.2429 8.36557 17.0674 8.43566 17.8903C7.77689 18.4178 7.29966 19.1381 7.0708 19.9504C6.84194 20.7626 6.87295 21.6262 7.15947 22.42C6.66017 23.1 6.386 23.9192 6.37532 24.7629C6.36466 25.6064 6.61801 26.4323 7.09994 27.1248C6.79341 27.911 6.74038 28.7732 6.9483 29.5911C7.15622 30.4088 7.61467 31.1412 8.25947 31.6855C8.16649 32.5245 8.33837 33.3718 8.75104 34.1082C9.1637 34.8448 9.79647 35.4337 10.5607 35.7926C10.6882 36.6273 11.0735 37.4011 11.6626 38.0059C12.2518 38.6106 13.0154 39.016 13.8463 39.1653C14.1857 39.938 14.7582 40.5853 15.4839 41.0163C16.2095 41.4473 17.0518 41.6405 17.8928 41.5688C18.2719 42.042 18.7526 42.4239 19.2993 42.6863C19.8461 42.9486 20.4448 43.0847 21.0511 43.0843C21.5261 43.0843 21.9892 43.001 22.4249 42.8438C23.1044 43.3419 23.9224 43.6154 24.7648 43.6261C25.6073 43.6368 26.4319 43.3841 27.1237 42.9034C27.9281 43.217 28.8117 43.265 29.6451 43.0403C30.4423 42.8256 31.1547 42.3724 31.6868 41.7414C32.5442 41.8391 33.41 41.6574 34.1558 41.2236C34.8699 40.81 35.4406 40.1882 35.7916 39.4414C36.6445 39.3126 37.4335 38.9128 38.0416 38.301C38.6368 37.7069 39.0178 36.9522 39.1618 36.1534C39.9507 35.8068 40.6087 35.2181 41.0404 34.4724C41.4525 33.7572 41.6362 32.933 41.5666 32.1105C42.2255 31.5831 42.7026 30.8626 42.9313 30.0503C43.16 29.2379 43.1286 28.3743 42.8416 27.5807C43.341 26.9005 43.6153 26.0811 43.6258 25.2373C43.6366 24.3935 43.3831 23.5674 42.9011 22.8748C43.207 22.0887 43.2598 21.2267 43.0518 20.4092C42.8439 19.5918 42.3858 18.8597 41.7416 18.3153C41.8353 17.4762 41.6637 16.6288 41.2512 15.8923C40.8387 15.1556 40.206 14.5667 39.4416 14.2081C39.3114 13.3559 38.9123 12.5675 38.3023 11.9581C37.7191 11.3718 36.9691 10.9797 36.1547 10.8355C35.8157 10.0624 35.2432 9.41474 34.5175 8.98348C33.7919 8.55221 32.9494 8.35891 32.1082 8.43071C31.5803 7.77227 30.8597 7.29543 30.0472 7.06702C29.2347 6.8386 28.3711 6.87003 27.5773 7.1569C26.8835 6.6474 26.0453 6.37255 25.1844 6.37238ZM25.1844 8.3688C26.0261 8.3688 26.7487 8.87714 27.0654 9.60214C27.0805 9.63554 27.105 9.66388 27.1358 9.68372C27.1667 9.70358 27.2025 9.7141 27.2392 9.71404C27.2654 9.71401 27.2912 9.70822 27.3148 9.69711C27.3385 9.68601 27.3594 9.66984 27.3761 9.64976C27.6276 9.34977 27.9594 9.12771 28.3326 9.00964C28.7058 8.89155 29.105 8.88235 29.4832 8.98309C30.2975 9.20214 30.8642 9.88071 30.982 10.6652C30.987 10.696 30.9997 10.725 31.0188 10.7495C31.038 10.7741 31.0631 10.7934 31.0918 10.8056C31.1204 10.8178 31.1517 10.8226 31.1826 10.8195C31.2136 10.8164 31.2433 10.8055 31.2689 10.7879C31.6166 10.5438 32.0308 10.414 32.4523 10.414C32.7413 10.4145 33.027 10.476 33.2907 10.5945C33.5543 10.713 33.7899 10.8859 33.9822 11.1018C34.1743 11.3177 34.3187 11.5718 34.4058 11.8473C34.4931 12.1229 34.5211 12.4138 34.488 12.701C34.4851 12.732 34.49 12.7632 34.5023 12.7919C34.5145 12.8205 34.5339 12.8456 34.5585 12.8649C34.583 12.8841 34.612 12.8968 34.6428 12.9018C34.6735 12.9069 34.705 12.9042 34.7344 12.8938C35.1017 12.7584 35.5001 12.7311 35.8823 12.8155C36.2645 12.9 36.6144 13.0924 36.8904 13.37C37.4868 13.9664 37.638 14.8379 37.3487 15.576C37.3379 15.605 37.3345 15.6364 37.3391 15.6672C37.3435 15.6979 37.3555 15.727 37.3741 15.7519C37.3926 15.7768 37.4172 15.7966 37.4455 15.8095C37.4737 15.8224 37.5047 15.8281 37.5356 15.826C37.9301 15.7898 38.3267 15.8686 38.6773 16.053C39.028 16.2374 39.3176 16.5194 39.5113 16.865C39.705 17.2106 39.7944 17.6049 39.7687 18.0003C39.7431 18.3956 39.6033 18.775 39.3666 19.0926C39.3487 19.118 39.3375 19.1474 39.3339 19.1782C39.3304 19.2091 39.3347 19.2403 39.3462 19.2691C39.3579 19.2978 39.3764 19.3232 39.4004 19.3429C39.4243 19.3626 39.4529 19.376 39.4832 19.3819C39.8732 19.4499 40.2351 19.6293 40.5254 19.8984C40.8157 20.1673 41.022 20.5145 41.1195 20.8981C41.217 21.2817 41.2016 21.6854 41.0749 22.0604C40.9483 22.4353 40.716 22.7657 40.4058 23.0117C40.3822 23.0316 40.3637 23.057 40.3523 23.086C40.341 23.1148 40.3369 23.146 40.3407 23.1768C40.3445 23.2075 40.356 23.2369 40.3739 23.2622C40.392 23.2874 40.4161 23.3076 40.4439 23.3212C40.803 23.4875 41.1061 23.7541 41.3172 24.0887C41.5281 24.4234 41.6379 24.8119 41.6332 25.2075C41.6286 25.603 41.5097 25.9888 41.2908 26.3185C41.0722 26.648 40.7627 26.9074 40.3999 27.0653C40.3711 27.0774 40.3457 27.0968 40.3264 27.1216C40.3072 27.1462 40.2944 27.1755 40.2895 27.2064C40.2847 27.2374 40.2878 27.2692 40.2986 27.2986C40.3093 27.328 40.3274 27.3543 40.3511 27.3748C40.6551 27.6286 40.8793 27.9648 40.9964 28.3431C41.1136 28.7214 41.1188 29.1255 41.0114 29.5067C40.9041 29.8879 40.6888 30.2298 40.3914 30.4913C40.0941 30.7529 39.7274 30.9229 39.3356 30.9807C39.3051 30.9861 39.2766 30.9991 39.2523 31.0184C39.2281 31.0376 39.2091 31.0626 39.197 31.0912C39.185 31.1197 39.1803 31.1507 39.1832 31.1816C39.1862 31.2124 39.1969 31.2419 39.2142 31.2676C39.4432 31.5929 39.5728 31.9776 39.5872 32.3751C39.6014 32.7726 39.5 33.1657 39.295 33.5067C39.0901 33.8475 38.7905 34.1216 38.4328 34.2954C38.0749 34.4691 37.6743 34.5351 37.2797 34.4855C37.2503 34.4859 37.2212 34.4932 37.1951 34.5072C37.1691 34.521 37.1467 34.5407 37.1298 34.565C37.113 34.5892 37.102 34.617 37.0981 34.6463C37.0942 34.6755 37.0973 34.7053 37.107 34.7331C37.2438 35.1048 37.2699 35.5082 37.1824 35.8944C37.0948 36.2807 36.8973 36.6334 36.6136 36.9099C36.33 37.1863 35.9724 37.3748 35.5841 37.4524C35.1956 37.53 34.7931 37.4936 34.4249 37.3474C34.4045 37.3389 34.3828 37.3344 34.3606 37.3343C34.3351 37.3345 34.31 37.34 34.2867 37.3504C34.2635 37.3607 34.2425 37.3757 34.2253 37.3944C34.2079 37.4131 34.1947 37.4353 34.1862 37.4593C34.1778 37.4834 34.1743 37.5088 34.1761 37.5343C34.212 37.9288 34.1329 38.3253 33.9483 38.6759C33.7637 39.0263 33.4816 39.3159 33.136 39.5095C32.7904 39.7032 32.3961 39.7926 32.0007 39.767C31.6055 39.7413 31.226 39.6018 30.9082 39.3653C30.8781 39.3424 30.8413 39.3299 30.8035 39.3295C30.7598 39.3293 30.7174 39.3444 30.6837 39.3723C30.6499 39.4001 30.627 39.4389 30.6189 39.4819C30.551 39.8718 30.3716 40.2337 30.1026 40.5241C29.8336 40.8143 29.4863 41.0207 29.1028 41.1182C28.7192 41.2157 28.3156 41.2003 27.9406 41.0736C27.5656 40.9469 27.2353 40.7147 26.9892 40.4045C26.9723 40.3834 26.9506 40.3663 26.9261 40.3548C26.9016 40.3432 26.8747 40.3375 26.8475 40.3379C26.8126 40.3373 26.7782 40.3468 26.7485 40.3651C26.7188 40.3835 26.6949 40.41 26.6797 40.4414C26.513 40.7997 26.2464 41.1022 25.912 41.3126C25.5776 41.5232 25.1895 41.6328 24.7944 41.6282C24.3993 41.6237 24.0139 41.5053 23.6844 41.2872C23.3549 41.0691 23.0954 40.7605 22.9368 40.3986C22.9223 40.3649 22.8981 40.3363 22.8674 40.3162C22.8368 40.2961 22.8008 40.2855 22.7642 40.2855C22.7379 40.2851 22.7118 40.2909 22.6879 40.3019C22.6639 40.313 22.6429 40.3294 22.6261 40.3498C22.3745 40.6497 22.0428 40.8716 21.6695 40.9897C21.2963 41.1078 20.8973 41.117 20.5189 41.0164C20.1328 40.9125 19.7854 40.6981 19.5193 40.3994C19.2532 40.1009 19.0803 39.7311 19.0213 39.3355C19.0166 39.3045 19.0038 39.2754 18.9847 39.2506C18.9654 39.226 18.9401 39.2066 18.9113 39.1943C18.8825 39.182 18.8511 39.1773 18.8199 39.1805C18.7887 39.1837 18.7589 39.1949 18.7332 39.2129C18.3868 39.4557 17.9713 39.5855 17.5499 39.5855C17.2608 39.5849 16.9751 39.5232 16.7116 39.4045C16.4479 39.2859 16.2123 39.1129 16.0201 38.8969C15.828 38.681 15.6836 38.4268 15.5964 38.1512C15.5092 37.8755 15.4812 37.5845 15.5142 37.2974C15.5167 37.2667 15.5114 37.2359 15.4991 37.2076C15.4866 37.1795 15.4674 37.1549 15.443 37.136C15.4187 37.117 15.39 37.1045 15.3597 37.0994C15.3293 37.0944 15.2981 37.0969 15.2689 37.1069C14.9016 37.2425 14.503 37.2698 14.1206 37.1853C13.7381 37.1009 13.388 36.9084 13.1118 36.6307C12.8287 36.3475 12.6347 35.9876 12.5533 35.5955C12.4722 35.2034 12.5074 34.796 12.6547 34.4236C12.6656 34.3944 12.6689 34.3629 12.6644 34.332C12.66 34.3012 12.6478 34.272 12.6291 34.247C12.6104 34.2222 12.5856 34.2024 12.5573 34.1895C12.5288 34.1767 12.4976 34.1712 12.4666 34.1736C12.0723 34.2093 11.6761 34.13 11.3258 33.9455C10.9755 33.761 10.686 33.4789 10.4925 33.1336C10.2989 32.7882 10.2094 32.3942 10.2348 31.9991C10.2602 31.6039 10.3994 31.2247 10.6357 30.9069C10.6535 30.8816 10.6647 30.8522 10.6683 30.8213C10.6719 30.7905 10.6677 30.7593 10.656 30.7305C10.6445 30.7017 10.6258 30.6763 10.6019 30.6566C10.5779 30.6369 10.5494 30.6235 10.519 30.6176C10.1291 30.5495 9.76718 30.3703 9.47686 30.1012C9.18655 29.8322 8.9802 29.485 8.8827 29.1014C8.7852 28.7178 8.80069 28.3142 8.92731 27.9392C9.05394 27.5642 9.28629 27.2338 9.59637 26.9879C9.6202 26.968 9.63869 26.9426 9.65016 26.9138C9.66163 26.885 9.66572 26.8538 9.66205 26.8231C9.65838 26.7923 9.64707 26.7629 9.62916 26.7376C9.61124 26.7124 9.58729 26.6919 9.55947 26.6784C9.20087 26.5118 8.89799 26.2453 8.68725 25.9107C8.47651 25.5763 8.36688 25.188 8.37154 24.7926C8.37619 24.3973 8.49493 24.0118 8.71348 23.6823C8.93204 23.3528 9.2411 23.0935 9.60351 22.9355C9.72732 22.8807 9.75589 22.7117 9.65113 22.626C9.34675 22.3723 9.12231 22.0359 9.00491 21.6574C8.88751 21.2789 8.88218 20.8747 8.98956 20.4932C9.09693 20.1118 9.31243 19.7695 9.61003 19.508C9.90761 19.2463 10.2746 19.0764 10.6666 19.0188C10.697 19.0135 10.7256 19.0006 10.7498 18.9816C10.774 18.9624 10.793 18.9375 10.8052 18.9091C10.8174 18.8807 10.8223 18.8498 10.8195 18.8191C10.8167 18.7884 10.8063 18.7588 10.7892 18.7331C10.5599 18.4079 10.43 18.023 10.4155 17.6253C10.4009 17.2275 10.5023 16.8342 10.7073 16.493C10.9123 16.1519 11.2121 15.8778 11.5701 15.7039C11.9281 15.5301 12.3289 15.4642 12.7237 15.5141C12.8463 15.5141 12.938 15.3867 12.8951 15.2676C12.7597 14.896 12.7343 14.493 12.8223 14.1073C12.9103 13.7216 13.1078 13.3694 13.3911 13.0934C13.6743 12.8172 14.0314 12.6287 14.4193 12.5507C14.8072 12.4726 15.2093 12.5082 15.5773 12.6534C15.5987 12.6617 15.6201 12.6653 15.6416 12.6653C15.667 12.665 15.6923 12.6595 15.7156 12.6492C15.7388 12.6388 15.7598 12.6238 15.777 12.6051C15.7943 12.5863 15.8076 12.5643 15.8161 12.5403C15.8245 12.5162 15.8279 12.4906 15.8261 12.4653C15.7907 12.0709 15.8703 11.6747 16.0549 11.3245C16.2397 10.9743 16.5217 10.685 16.8672 10.4915C17.2125 10.298 17.6066 10.2085 18.0017 10.2338C18.3968 10.2591 18.7761 10.3982 19.0939 10.6343C19.1193 10.6521 19.1488 10.6634 19.1795 10.6669C19.2104 10.6705 19.2416 10.6663 19.2704 10.6547C19.2992 10.6431 19.3245 10.6245 19.3443 10.6005C19.3639 10.5766 19.3774 10.5481 19.3832 10.5176C19.4511 10.1274 19.6304 9.76522 19.8995 9.47466C20.1686 9.18409 20.5161 8.97759 20.8999 8.88005C21.2837 8.78253 21.6875 8.79813 22.0628 8.92498C22.4379 9.05184 22.7683 9.28454 23.0142 9.59499C23.031 9.6162 23.0523 9.63333 23.0767 9.64508C23.101 9.65683 23.1276 9.66291 23.1547 9.66285C23.1898 9.66328 23.2242 9.65364 23.2539 9.63507C23.2837 9.61649 23.3075 9.58978 23.3225 9.55809C23.6499 8.85571 24.3594 8.3688 25.1844 8.3688Z" fill="black"/>
</g>
</g>
<defs>
<clipPath id="clip0_1_789">
<rect width="50" height="50" fill="white"/>
</clipPath>
</defs>
</svg>
