<svg width="100" height="25" viewBox="0 0 100 25" fill="none" xmlns="http://www.w3.org/2000/svg">
<g clip-path="url(#clip0_1_800)">
<mask id="mask0_1_800" style="mask-type:alpha" maskUnits="userSpaceOnUse" x="0" y="0" width="25" height="25">
<path fill-rule="evenodd" clip-rule="evenodd" d="M12.5 25C19.4036 25 25 19.4036 25 12.5C25 5.59643 19.4036 0 12.5 0C5.59643 0 0 5.59643 0 12.5C0 19.4036 5.59643 25 12.5 25Z" fill="white"/>
</mask>
<g mask="url(#mask0_1_800)">
<path d="M28.9982 -0.661987H-2.57031V18.6029H28.9982V-0.661987Z" fill="#F64942"/>
<path d="M5.5106 20.4231C3.90941 17.2838 5.45405 13.4826 9.63142 12.4612C21.7665 10.479 19.9469 6.7207 23.6642 5.38084C30.5796 2.88799 28.8308 11.5641 27.4398 13.9897C26.0487 16.4159 29.3433 21.0177 24.6213 21.3528C21.6493 21.563 20.7832 19.8886 15.5445 22.0505C12.8505 23.1624 12.6933 22.9165 9.89571 22.0147L7.50166 20.8046L5.5106 20.4237V20.4231Z" fill="#F4CE45"/>
<path d="M11.8356 -2.41679C8.60937 -1.98643 -7.90134 1.48797 -9.07812 2.02547L-6.2067 18.3231C-4.48286 18.1564 -1.28405 19.8725 -1.28405 17.4552C-1.28405 15.11 -0.808453 14.11 0.809404 11.2987C3.18679 7.16893 8.44985 7.23798 10.2832 7.1481C14.6207 6.93619 19.3659 5.54809 21.7903 2.02666C30.0987 -10.0388 22.2147 -5.2787 11.8356 -2.41679Z" fill="#5B95BF"/>
<path d="M8.35131 16.51C4.98824 16.5201 1.44182 17.557 -1.79688 18.7731L-0.525449 32.5427C8.28821 31.4398 24.1305 28.8035 25.1156 27.1326C26.2579 25.1957 24.6483 23.9035 27.9674 22.1386C30.6221 20.7273 33.5626 15.1445 27.3013 15.082C23.834 15.11 22.9465 15.8291 20.2424 16.8439C15.7852 18.516 10.9281 16.5023 8.35131 16.51Z" fill="#EF90A4"/>
<path fill-rule="evenodd" clip-rule="evenodd" d="M12.6023 4.04395C13.0309 4.04395 13.3988 4.30228 13.5601 4.67133C13.5675 4.68834 13.5797 4.70281 13.5953 4.71297C13.6108 4.72312 13.629 4.7285 13.6476 4.72846C13.661 4.72855 13.6742 4.72566 13.6864 4.72C13.6985 4.71434 13.7092 4.70605 13.7178 4.69573C13.8457 4.54324 14.0144 4.43034 14.2042 4.37025C14.3939 4.31017 14.5969 4.30537 14.7892 4.35644C14.986 4.40915 15.1632 4.51827 15.2987 4.67035C15.4343 4.82243 15.5225 5.01085 15.5523 5.2124C15.5549 5.22805 15.5614 5.2428 15.5713 5.25525C15.5811 5.26772 15.5939 5.27749 15.6085 5.28367C15.6231 5.28985 15.6391 5.29223 15.6548 5.29059C15.6706 5.28896 15.6857 5.28335 15.6988 5.2743C15.8751 5.15066 16.0852 5.08436 16.3005 5.08442C16.4476 5.08471 16.5931 5.11606 16.7272 5.17643C16.8613 5.2368 16.9812 5.32483 17.079 5.43474C17.1768 5.54465 17.2503 5.67398 17.2946 5.81424C17.3389 5.95451 17.3531 6.10255 17.3363 6.24868C17.3349 6.26439 17.3375 6.28017 17.3438 6.29463C17.3501 6.30903 17.3599 6.32171 17.3723 6.33142C17.3847 6.34106 17.3994 6.34755 17.4149 6.35017C17.4304 6.35272 17.4464 6.35142 17.4613 6.3463C17.5773 6.30463 17.6994 6.2832 17.8208 6.2832C17.991 6.2835 18.1586 6.32534 18.309 6.40511C18.4594 6.48487 18.5881 6.60017 18.6837 6.74094C18.7794 6.88177 18.8392 7.0438 18.8581 7.21302C18.8769 7.38219 18.8541 7.55344 18.7916 7.71177C18.7864 7.72659 18.7848 7.74243 18.7872 7.7579C18.7896 7.77338 18.7958 7.78802 18.8053 7.80058C18.8147 7.81308 18.8271 7.82302 18.8413 7.82957C18.8555 7.83612 18.8712 7.83898 18.8869 7.83796C19.0876 7.81969 19.2893 7.85993 19.4677 7.9538C19.646 8.04767 19.7934 8.19124 19.8919 8.36707C19.9904 8.5429 20.0359 8.7435 20.0229 8.94463C20.0098 9.14582 19.9388 9.33886 19.8184 9.50046C19.8092 9.51344 19.8035 9.52844 19.8017 9.54415C19.7998 9.55993 19.802 9.57582 19.8079 9.59052C19.8138 9.60522 19.8233 9.6182 19.8356 9.62826C19.8478 9.63832 19.8624 9.64517 19.8779 9.64808C20.0763 9.68273 20.2605 9.77397 20.4082 9.91082C20.556 10.0477 20.661 10.2243 20.7107 10.4195C20.7604 10.6146 20.7526 10.82 20.6883 11.0108C20.6239 11.2017 20.5058 11.3699 20.3482 11.4951C20.336 11.5052 20.3266 11.5183 20.3208 11.5329C20.315 11.5476 20.3129 11.5635 20.3148 11.5792C20.3167 11.5949 20.3225 11.6098 20.3316 11.6227C20.3408 11.6356 20.3531 11.6459 20.3672 11.6528C20.5497 11.7377 20.7037 11.8733 20.8108 12.0436C20.9181 12.2139 20.9738 12.4114 20.9714 12.6125C20.969 12.8137 20.9086 13.0099 20.7974 13.1775C20.6862 13.3452 20.529 13.4772 20.3446 13.5576C20.2815 13.5856 20.2672 13.6713 20.3202 13.7159C20.4747 13.8452 20.5885 14.0163 20.6479 14.2087C20.7074 14.4011 20.71 14.6065 20.6554 14.8004C20.6008 14.9942 20.4914 15.1681 20.3403 15.3012C20.1891 15.4343 20.0027 15.5209 19.8035 15.5505C19.7879 15.5531 19.7732 15.5597 19.7607 15.5695C19.7483 15.5793 19.7385 15.5921 19.7323 15.6067C19.7261 15.6212 19.7236 15.6371 19.7251 15.6529C19.7267 15.6687 19.7322 15.6838 19.741 15.6969C19.8574 15.8624 19.9232 16.0581 19.9305 16.2603C19.9378 16.4625 19.8861 16.6624 19.7819 16.8359C19.6778 17.0093 19.5254 17.1487 19.3435 17.2372C19.1616 17.3257 18.9579 17.3595 18.7571 17.3344C18.7422 17.3347 18.7275 17.3386 18.7144 17.3456C18.7012 17.3527 18.6899 17.3627 18.6814 17.3749C18.6728 17.3872 18.6673 17.4013 18.6653 17.4161C18.6632 17.4308 18.6647 17.4459 18.6696 17.46C18.7391 17.6492 18.7523 17.8544 18.7076 18.0509C18.663 18.2474 18.5625 18.4268 18.4182 18.5675C18.2739 18.7081 18.092 18.804 17.8944 18.8436C17.6969 18.8831 17.492 18.8646 17.3047 18.7903C17.2941 18.7863 17.2828 18.7843 17.2714 18.7844C17.2585 18.7846 17.2458 18.7875 17.2341 18.7927C17.2223 18.798 17.2117 18.8056 17.203 18.815C17.1943 18.8245 17.1876 18.8356 17.1832 18.8477C17.1789 18.8599 17.1771 18.8728 17.1779 18.8856C17.1958 19.0862 17.1554 19.2877 17.0614 19.4658C16.9675 19.644 16.824 19.7912 16.6483 19.8896C16.4726 19.9881 16.2723 20.0337 16.0713 20.021C15.8703 20.0083 15.6772 19.9377 15.5154 19.8177C15.5 19.8062 15.4811 19.7999 15.4619 19.7999C15.4396 19.7997 15.4181 19.8074 15.4008 19.8216C15.3836 19.8357 15.372 19.8554 15.3678 19.8773C15.3332 20.0757 15.242 20.2599 15.1051 20.4077C14.9682 20.5555 14.7914 20.6605 14.5962 20.71C14.401 20.7596 14.1955 20.7517 14.0047 20.6871C13.8139 20.6226 13.6458 20.5042 13.5208 20.3463C13.5122 20.3356 13.5013 20.3271 13.4889 20.3212C13.4766 20.3153 13.4631 20.3123 13.4494 20.3124C13.4313 20.3121 13.4136 20.317 13.3983 20.3264C13.383 20.3359 13.3707 20.3497 13.3631 20.3659C13.2782 20.5484 13.1426 20.7024 12.9723 20.8096C12.8021 20.9168 12.6045 20.9725 12.4033 20.9702C12.2022 20.9678 12.006 20.9074 11.8383 20.7962C11.6707 20.685 11.5387 20.5277 11.4583 20.3433C11.4508 20.3264 11.4386 20.3118 11.423 20.3017C11.4075 20.2915 11.3894 20.2862 11.3708 20.2862C11.3575 20.2861 11.3442 20.2889 11.332 20.2944C11.3199 20.3 11.3092 20.3081 11.3006 20.3183C11.1727 20.4709 11.004 20.5839 10.8142 20.6439C10.6245 20.704 10.4215 20.7088 10.2291 20.6576C10.0324 20.605 9.85537 20.4959 9.71978 20.344C9.58418 20.192 9.49597 20.0037 9.46603 19.8022C9.46353 19.7866 9.4571 19.7718 9.44728 19.7592C9.43751 19.7467 9.42472 19.7368 9.41007 19.7306C9.39543 19.7243 9.37948 19.7219 9.36365 19.7235C9.34781 19.7251 9.33269 19.7307 9.3196 19.7397C9.15698 19.855 8.96472 19.9209 8.76561 19.9298C8.56656 19.9387 8.36918 19.89 8.19698 19.7897C8.02061 19.688 7.87787 19.5368 7.78626 19.3549C7.69472 19.173 7.65829 18.9683 7.6815 18.7659C7.68293 18.7502 7.68043 18.7344 7.67418 18.7199C7.66793 18.7053 7.65817 18.6926 7.64573 18.6828C7.63329 18.6731 7.61865 18.6666 7.60305 18.6639C7.58745 18.6613 7.57144 18.6626 7.5565 18.6677C7.36954 18.7368 7.16674 18.7506 6.97216 18.7077C6.77757 18.6647 6.59942 18.5668 6.45888 18.4255C6.31501 18.2814 6.21644 18.0983 6.17519 17.8989C6.13394 17.6994 6.15186 17.4922 6.22674 17.3028C6.2321 17.2881 6.2337 17.2722 6.23138 17.2566C6.22912 17.241 6.22293 17.2262 6.21347 17.2137C6.204 17.2011 6.19156 17.1911 6.17728 17.1845C6.16293 17.1779 6.14722 17.175 6.1315 17.1761C5.93077 17.1944 5.72904 17.1542 5.55068 17.0603C5.37232 16.9664 5.22498 16.8228 5.12645 16.647C5.02793 16.4712 4.98243 16.2706 4.99548 16.0694C5.00852 15.8683 5.07954 15.6752 5.19995 15.5136C5.2091 15.5006 5.21485 15.4856 5.21669 15.4699C5.21853 15.4542 5.21638 15.4382 5.21046 15.4236C5.20454 15.4089 5.19502 15.3959 5.18279 15.3858C5.17055 15.3758 5.15598 15.3689 5.14043 15.3659C4.94204 15.3314 4.75788 15.2401 4.61013 15.1033C4.46239 14.9664 4.35735 14.7897 4.30766 14.5946C4.25797 14.3995 4.26576 14.1941 4.33008 14.0033C4.3944 13.8124 4.51251 13.6442 4.67019 13.5189C4.68232 13.5089 4.69173 13.4958 4.69756 13.4812C4.70339 13.4665 4.70545 13.4506 4.70356 13.4349C4.70166 13.4192 4.69588 13.4043 4.68672 13.3914C4.67757 13.3785 4.66534 13.3681 4.65115 13.3612C4.46872 13.2764 4.31466 13.1407 4.20748 12.9705C4.1003 12.8002 4.04456 12.6027 4.04695 12.4015C4.04934 12.2003 4.10976 12.0042 4.22095 11.8365C4.33214 11.6689 4.48938 11.5369 4.67376 11.4564C4.68833 11.45 4.70104 11.44 4.71073 11.4275C4.72043 11.4149 4.72679 11.4 4.72922 11.3843C4.73165 11.3686 4.73008 11.3525 4.72465 11.3375C4.71923 11.3225 4.71012 11.3092 4.69817 11.2987C4.54352 11.1695 4.42953 10.9984 4.36994 10.8059C4.31035 10.6134 4.3077 10.4078 4.36231 10.2139C4.41691 10.0199 4.52645 9.84588 4.67771 9.71272C4.82897 9.57963 5.01551 9.49308 5.21484 9.46356C5.23036 9.46088 5.24497 9.45433 5.25734 9.44457C5.2697 9.43481 5.27943 9.42213 5.28563 9.40761C5.29184 9.39314 5.29434 9.37731 5.29288 9.36165C5.29144 9.34594 5.28609 9.33088 5.27734 9.31773C5.16077 9.15225 5.09479 8.95647 5.08744 8.75415C5.08007 8.55189 5.13165 8.35183 5.23587 8.17832C5.3401 8.00475 5.4925 7.86528 5.67454 7.77677C5.85657 7.6882 6.06043 7.65451 6.26126 7.67963C6.27614 7.67945 6.29079 7.6757 6.30394 7.66874C6.31716 7.66177 6.32847 7.65177 6.33698 7.63957C6.34555 7.62737 6.35109 7.61326 6.35311 7.5985C6.35513 7.58374 6.35365 7.56874 6.34876 7.55463C6.2796 7.36552 6.26656 7.1604 6.31126 6.96403C6.35597 6.76767 6.4565 6.58838 6.60073 6.44784C6.74495 6.30725 6.92674 6.21136 7.12418 6.17171C7.32162 6.13207 7.52632 6.15028 7.71365 6.22427C7.72847 6.22951 7.7443 6.231 7.75984 6.22862C7.77531 6.22624 7.79001 6.22005 7.80257 6.21064C7.81507 6.20124 7.82513 6.18886 7.83174 6.17463C7.83835 6.16034 7.84132 6.14475 7.84043 6.12903C7.82251 5.92846 7.86299 5.72696 7.95698 5.54883C8.05091 5.37069 8.19436 5.22351 8.37001 5.12502C8.54573 5.02652 8.74609 4.9809 8.9471 4.99366C9.14811 5.00642 9.34115 5.077 9.50293 5.19692C9.5196 5.20883 9.53865 5.21477 9.5565 5.21477C9.57876 5.21489 9.60031 5.20722 9.61751 5.19308C9.63472 5.17895 9.64638 5.15925 9.65055 5.13739C9.68525 4.93905 9.77656 4.75496 9.91347 4.60729C10.0503 4.45962 10.227 4.35466 10.4221 4.30503C10.6173 4.25542 10.8226 4.26325 11.0134 4.32761C11.2042 4.39196 11.3723 4.51008 11.4976 4.66775C11.5154 4.69156 11.5428 4.70228 11.569 4.70228C11.587 4.70255 11.6047 4.69764 11.62 4.68815C11.6353 4.67865 11.6476 4.66496 11.6553 4.64871C11.822 4.29156 12.1827 4.04395 12.6023 4.04395Z" fill="white"/>
<path fill-rule="evenodd" clip-rule="evenodd" d="M16.3933 16.6022C15.4516 16.6022 15.5254 15.2731 16.3933 15.2731C17.2611 15.2731 17.335 16.6022 16.3933 16.6022ZM8.61234 16.6022C7.67067 16.6022 7.74448 15.2731 8.61234 15.2731C9.4802 15.2731 9.55401 16.6022 8.61234 16.6022ZM19.2385 11.6915H18.9195C18.6481 11.6915 18.3825 11.6129 18.1547 11.4652C17.927 11.3176 17.7469 11.1072 17.6361 10.8594C17.5251 11.1069 17.3449 11.317 17.1172 11.4644C16.8895 11.6118 16.6241 11.6902 16.3528 11.6902C16.0816 11.6902 15.8161 11.6118 15.5884 11.4644C15.3607 11.317 15.1805 11.1069 15.0695 10.8594C14.9584 11.1067 14.7782 11.3166 14.5506 11.4639C14.3229 11.6112 14.0576 11.6896 13.7864 11.6896C13.5153 11.6896 13.25 11.6112 13.0223 11.4639C12.7947 11.3166 12.6145 11.1067 12.5034 10.8594C12.3923 11.1069 12.2122 11.317 11.9845 11.4644C11.7567 11.6118 11.4913 11.6902 11.2201 11.6902C10.9488 11.6902 10.6834 11.6118 10.4557 11.4644C10.2279 11.317 10.0478 11.1069 9.93674 10.8594C9.82591 11.1071 9.64573 11.3174 9.41805 11.465C9.19032 11.6125 8.92472 11.6911 8.65341 11.6911C8.38204 11.6911 8.11645 11.6125 7.88877 11.465C7.66103 11.3174 7.48091 11.1071 7.37008 10.8594C7.25918 11.1071 7.07907 11.3174 6.85133 11.4649C6.62359 11.6124 6.35805 11.6909 6.08674 11.6909H5.77124C5.29327 12.2058 5.59684 12.6409 6.77841 12.6409V15.2844C6.77841 17.7689 9.63913 19.0112 12.4998 19.0112C15.3611 19.0112 18.2219 17.7689 18.2219 15.285V12.6409C19.4046 12.6409 19.7129 12.2064 19.2385 11.6909V11.6915Z" fill="black"/>
<path fill-rule="evenodd" clip-rule="evenodd" d="M12.5922 3.1861C12.1732 3.1861 11.772 3.31705 11.4392 3.5486C11.0458 3.39541 10.6142 3.36906 10.2051 3.47323C9.79584 3.57739 9.42947 3.80687 9.15709 4.12955C8.73786 4.08354 8.31471 4.16964 7.94673 4.37582C7.57876 4.58199 7.28441 4.89795 7.10471 5.27955C6.68745 5.3436 6.30066 5.53654 5.99852 5.83133C5.69636 6.12611 5.49394 6.50807 5.41961 6.92361C5.02524 7.09664 4.69624 7.39081 4.48033 7.76349C4.27438 8.12135 4.18279 8.53361 4.21783 8.94504C3.88845 9.20879 3.64983 9.56897 3.5354 9.9751C3.42097 10.3812 3.43648 10.813 3.57973 11.2099C3.33008 11.5499 3.193 11.9595 3.18766 12.3813C3.18233 12.8031 3.30901 13.216 3.54997 13.5623C3.3967 13.9554 3.37019 14.3865 3.47415 14.7955C3.57811 15.2043 3.80733 15.5705 4.12973 15.8427C4.08324 16.2622 4.16919 16.6858 4.37552 17.054C4.58185 17.4223 4.89823 17.7168 5.28033 17.8962C5.34408 18.3135 5.53674 18.7005 5.83132 19.0028C6.1259 19.3052 6.50769 19.5079 6.92316 19.5825C7.09286 19.9689 7.37911 20.2925 7.74197 20.5081C8.10477 20.7235 8.5259 20.8202 8.94638 20.7843C9.13596 21.0209 9.37632 21.2119 9.64965 21.3431C9.92304 21.4742 10.2224 21.5422 10.5255 21.5421C10.763 21.5421 10.9946 21.5004 11.2124 21.4218C11.5522 21.6709 11.9612 21.8076 12.3824 21.813C12.8036 21.8183 13.216 21.6919 13.5619 21.4516C13.9641 21.6084 14.4058 21.6324 14.8226 21.52C15.2211 21.4127 15.5773 21.1861 15.8434 20.8706C16.2721 20.9194 16.705 20.8286 17.0779 20.6117C17.4349 20.4049 17.7203 20.094 17.8958 19.7206C18.3223 19.6562 18.7167 19.4563 19.0208 19.1504C19.3184 18.8534 19.5089 18.476 19.5809 18.0766C19.9754 17.9033 20.3044 17.609 20.5202 17.2361C20.7263 16.8785 20.8181 16.4664 20.7833 16.0552C21.1127 15.7915 21.3513 15.4312 21.4657 15.025C21.58 14.6188 21.5643 14.1871 21.4208 13.7903C21.6705 13.4502 21.8076 13.0405 21.8129 12.6185C21.8183 12.1966 21.6916 11.7836 21.4505 11.4373C21.6035 11.0443 21.6299 10.6133 21.5259 10.2045C21.422 9.79581 21.1929 9.42974 20.8708 9.15754C20.9176 8.73801 20.8319 8.31432 20.6256 7.94605C20.4194 7.57772 20.103 7.28325 19.7208 7.10397C19.6557 6.67783 19.4561 6.28367 19.1511 5.97897C18.8595 5.6858 18.4845 5.48977 18.0773 5.41764C17.9079 5.03109 17.6216 4.70728 17.2588 4.49165C16.896 4.27601 16.4747 4.17936 16.0541 4.21526C15.7901 3.88604 15.4298 3.64763 15.0236 3.53342C14.6173 3.41921 14.1855 3.43492 13.7886 3.57836C13.4417 3.32361 13.0226 3.18619 12.5922 3.1861ZM12.5922 4.18431C13.013 4.18431 13.3744 4.43848 13.5327 4.80098C13.5402 4.81768 13.5525 4.83185 13.5679 4.84177C13.5833 4.8517 13.6013 4.85696 13.6196 4.85693C13.6327 4.85691 13.6456 4.85402 13.6574 4.84847C13.6692 4.84291 13.6797 4.83483 13.688 4.82479C13.8138 4.67479 13.9797 4.56376 14.1663 4.50473C14.3529 4.44569 14.5525 4.44108 14.7416 4.49145C15.1488 4.60098 15.4321 4.94026 15.491 5.33252C15.4935 5.3479 15.4998 5.3624 15.5094 5.37467C15.519 5.38695 15.5316 5.39659 15.5459 5.40271C15.5602 5.40883 15.5758 5.41123 15.5913 5.40967C15.6068 5.40813 15.6217 5.40267 15.6345 5.39383C15.8083 5.27181 16.0154 5.20693 16.2261 5.20693C16.3707 5.20716 16.5135 5.23791 16.6454 5.29717C16.7771 5.35643 16.8949 5.44286 16.9911 5.55081C17.0871 5.65876 17.1594 5.78579 17.2029 5.92358C17.2466 6.06135 17.2605 6.20682 17.244 6.35039C17.2426 6.36593 17.245 6.38152 17.2511 6.39587C17.2573 6.41016 17.267 6.42272 17.2792 6.43236C17.2915 6.44194 17.306 6.44831 17.3214 6.45081C17.3367 6.45337 17.3525 6.452 17.3672 6.44682C17.5508 6.37908 17.7501 6.36545 17.9411 6.40766C18.1323 6.44992 18.3072 6.54611 18.4452 6.68492C18.7434 6.98313 18.819 7.41885 18.6744 7.78789C18.6689 7.80242 18.6673 7.81813 18.6695 7.83349C18.6717 7.84885 18.6777 7.86343 18.687 7.87587C18.6963 7.88831 18.7086 7.89819 18.7227 7.90468C18.7369 7.91111 18.7523 7.91397 18.7678 7.91289C18.9651 7.8948 19.1633 7.9342 19.3386 8.02641C19.514 8.11861 19.6588 8.25962 19.7557 8.43242C19.8525 8.60522 19.8972 8.80236 19.8844 9.00004C19.8716 9.19772 19.8017 9.38742 19.6833 9.54623C19.6744 9.55891 19.6688 9.57361 19.667 9.58902C19.6652 9.60444 19.6673 9.62004 19.6731 9.63444C19.6789 9.64879 19.6882 9.66152 19.7002 9.67135C19.7121 9.68123 19.7264 9.68789 19.7416 9.69087C19.9366 9.72486 20.1176 9.81456 20.2627 9.94908C20.4079 10.0835 20.511 10.2572 20.5598 10.449C20.6085 10.6408 20.6008 10.8426 20.5374 11.0301C20.4742 11.2175 20.358 11.3828 20.2029 11.5058C20.1911 11.5157 20.1819 11.5284 20.1761 11.5429C20.1705 11.5573 20.1685 11.5729 20.1704 11.5883C20.1723 11.6037 20.178 11.6184 20.187 11.631C20.196 11.6436 20.208 11.6537 20.222 11.6605C20.4015 11.7437 20.553 11.8769 20.6586 12.0443C20.7641 12.2116 20.8189 12.4059 20.8166 12.6037C20.8143 12.8014 20.7548 12.9943 20.6454 13.1591C20.5361 13.3239 20.3814 13.4536 20.1999 13.5325C20.1855 13.5386 20.1729 13.5483 20.1632 13.5607C20.1536 13.573 20.1472 13.5877 20.1448 13.6031C20.1423 13.6186 20.1439 13.6345 20.1493 13.6492C20.1546 13.6639 20.1637 13.6771 20.1755 13.6873C20.3276 13.8142 20.4396 13.9823 20.4982 14.1715C20.5568 14.3606 20.5594 14.5627 20.5057 14.7533C20.452 14.9438 20.3444 15.1148 20.1957 15.2456C20.047 15.3763 19.8637 15.4613 19.6678 15.4903C19.6526 15.493 19.6383 15.4994 19.6261 15.5091C19.6141 15.5187 19.6045 15.5312 19.5985 15.5455C19.5925 15.5597 19.5901 15.5753 19.5916 15.5907C19.5931 15.6061 19.5985 15.6209 19.6071 15.6337C19.7216 15.7963 19.7864 15.9887 19.7936 16.1875C19.8007 16.3862 19.75 16.5828 19.6475 16.7533C19.5451 16.9237 19.3952 17.0607 19.2164 17.1476C19.0374 17.2344 18.8371 17.2675 18.6398 17.2427C18.6251 17.2428 18.6106 17.2465 18.5976 17.2535C18.5845 17.2604 18.5733 17.2703 18.5649 17.2824C18.5565 17.2945 18.551 17.3084 18.5491 17.3231C18.5471 17.3377 18.5486 17.3525 18.5535 17.3665C18.6219 17.5523 18.6349 17.754 18.5912 17.9471C18.5474 18.1403 18.4486 18.3166 18.3068 18.4549C18.165 18.5931 17.9862 18.6873 17.792 18.7261C17.5978 18.7649 17.3966 18.7467 17.2124 18.6736C17.2023 18.6694 17.1914 18.6671 17.1803 18.6671C17.1676 18.6672 17.155 18.6699 17.1433 18.6751C17.1317 18.6803 17.1213 18.6878 17.1126 18.6971C17.1039 18.7065 17.0973 18.7175 17.0931 18.7296C17.0889 18.7416 17.0871 18.7543 17.088 18.7671C17.106 18.9643 17.0664 19.1625 16.9742 19.3378C16.8819 19.5131 16.7408 19.6578 16.568 19.7547C16.3952 19.8515 16.198 19.8962 16.0004 19.8834C15.8027 19.8706 15.613 19.8008 15.4541 19.6825C15.4391 19.6711 15.4207 19.6649 15.4017 19.6647C15.3799 19.6646 15.3587 19.6721 15.3419 19.686C15.3249 19.7 15.3135 19.7194 15.3095 19.7409C15.2755 19.9358 15.1858 20.1168 15.0513 20.2619C14.9168 20.4071 14.7432 20.5103 14.5514 20.559C14.3596 20.6078 14.1578 20.6 13.9703 20.5367C13.7828 20.4734 13.6176 20.3572 13.4946 20.2022C13.4861 20.1916 13.4753 20.1831 13.463 20.1773C13.4508 20.1715 13.4373 20.1687 13.4238 20.1688C13.4063 20.1685 13.3891 20.1733 13.3742 20.1825C13.3594 20.1916 13.3474 20.2049 13.3398 20.2206C13.2565 20.3997 13.1232 20.551 12.956 20.6562C12.7888 20.7615 12.5948 20.8163 12.3972 20.814C12.1996 20.8118 12.007 20.7525 11.8422 20.6435C11.6774 20.5344 11.5477 20.3802 11.4684 20.1992C11.4611 20.1824 11.4491 20.1681 11.4337 20.158C11.4184 20.148 11.4004 20.1427 11.3821 20.1427C11.3689 20.1425 11.3559 20.1453 11.3439 20.1509C11.332 20.1564 11.3214 20.1646 11.313 20.1748C11.1873 20.3247 11.0214 20.4357 10.8348 20.4947C10.6482 20.5538 10.4486 20.5584 10.2595 20.5081C10.0664 20.4562 9.89269 20.349 9.75965 20.1996C9.62661 20.0503 9.54013 19.8655 9.51066 19.6677C9.50828 19.6522 9.50191 19.6376 9.49233 19.6252C9.48269 19.6129 9.47007 19.6032 9.45566 19.5971C9.44126 19.5909 9.42554 19.5885 9.40995 19.5902C9.39435 19.5918 9.37947 19.5974 9.36661 19.6063C9.1934 19.7278 8.98566 19.7927 8.77495 19.7927C8.63042 19.7924 8.48757 19.7615 8.35578 19.7022C8.22394 19.6428 8.10614 19.5563 8.01007 19.4484C7.91399 19.3404 7.84179 19.2133 7.79822 19.0755C7.75459 18.9377 7.7406 18.7922 7.75709 18.6486C7.75834 18.6333 7.75572 18.6178 7.74953 18.6037C7.74328 18.5897 7.7337 18.5774 7.72149 18.5679C7.70935 18.5584 7.69501 18.5522 7.67983 18.5496C7.66465 18.5471 7.64905 18.5484 7.63447 18.5534C7.45078 18.6212 7.25149 18.6348 7.0603 18.5925C6.86905 18.5503 6.694 18.4541 6.5559 18.3153C6.41435 18.1737 6.31733 17.9937 6.27667 17.7977C6.23608 17.6016 6.2537 17.3979 6.32733 17.2117C6.3328 17.1971 6.33447 17.1813 6.33221 17.1659C6.33001 17.1505 6.32388 17.1359 6.31453 17.1234C6.30519 17.111 6.2928 17.1011 6.27864 17.0947C6.26441 17.0883 6.24882 17.0855 6.23328 17.0867C6.03614 17.1046 5.83803 17.0649 5.66288 16.9727C5.48773 16.8804 5.34302 16.7394 5.24623 16.5667C5.14944 16.394 5.10469 16.197 5.1174 15.9994C5.1301 15.8019 5.19972 15.6122 5.31783 15.4534C5.32676 15.4407 5.33237 15.426 5.33415 15.4106C5.33594 15.3952 5.33383 15.3796 5.32802 15.3652C5.32223 15.3508 5.31292 15.3381 5.30095 15.3282C5.28897 15.3184 5.27472 15.3116 5.25949 15.3087C5.06454 15.2747 4.88359 15.185 4.73843 15.0505C4.59327 14.916 4.4901 14.7424 4.44135 14.5506C4.3926 14.3588 4.40035 14.157 4.46366 13.9695C4.52697 13.782 4.64314 13.6168 4.79819 13.4938C4.8101 13.4839 4.81935 13.4712 4.82508 13.4568C4.83082 13.4424 4.83286 13.4268 4.83102 13.4115C4.82919 13.396 4.82354 13.3813 4.81458 13.3687C4.80562 13.3561 4.79364 13.3459 4.77973 13.3391C4.60044 13.2558 4.44899 13.1225 4.34363 12.9553C4.23826 12.7881 4.18344 12.5939 4.18577 12.3962C4.1881 12.1985 4.24747 12.0058 4.35674 11.841C4.46602 11.6763 4.62055 11.5466 4.80176 11.4677C4.86366 11.4403 4.87795 11.3558 4.82557 11.3129C4.67338 11.186 4.56116 11.0178 4.50245 10.8286C4.44376 10.6394 4.44109 10.4372 4.49478 10.2465C4.54847 10.0558 4.65622 9.88468 4.80501 9.75391C4.9538 9.62307 5.13729 9.53813 5.3333 9.50932C5.3485 9.50664 5.3628 9.50022 5.3749 9.49069C5.387 9.48111 5.39652 9.46867 5.40261 9.45444C5.40869 9.44028 5.41115 9.4248 5.40975 9.40944C5.40836 9.39408 5.40316 9.37932 5.39461 9.36647C5.27993 9.20385 5.215 9.01141 5.20773 8.81254C5.20045 8.61367 5.25116 8.417 5.35366 8.24641C5.45616 8.07587 5.60603 7.93879 5.78504 7.85188C5.96405 7.76498 6.16447 7.732 6.36185 7.75694C6.42316 7.75694 6.46899 7.69325 6.44757 7.63373C6.37983 7.44789 6.36715 7.24641 6.41114 7.05355C6.45513 6.86069 6.55388 6.68462 6.69554 6.54658C6.83715 6.40849 7.01572 6.31426 7.20965 6.27527C7.40358 6.23623 7.60465 6.25403 7.78864 6.32658C7.79935 6.33075 7.81007 6.33254 7.82078 6.33254C7.83352 6.33242 7.84614 6.32968 7.8578 6.3245C7.86941 6.31932 7.87989 6.31182 7.88852 6.30248C7.89715 6.29307 7.90382 6.28206 7.90804 6.27004C7.91227 6.25801 7.91394 6.24522 7.91304 6.23254C7.89536 6.03533 7.93513 5.83728 8.02745 5.66217C8.11983 5.48707 8.26084 5.34241 8.43358 5.24565C8.60626 5.14889 8.80328 5.10414 9.00084 5.11681C9.1984 5.12948 9.38804 5.19902 9.54697 5.31705C9.55965 5.32598 9.57441 5.33159 9.58977 5.33338C9.60519 5.33516 9.62078 5.33305 9.63519 5.32725C9.64959 5.32145 9.66227 5.31214 9.67215 5.30017C9.68197 5.2882 9.6887 5.27395 9.69161 5.25872C9.72554 5.06363 9.81519 4.88252 9.94977 4.73724C10.0843 4.59195 10.258 4.4887 10.4499 4.43994C10.6419 4.39117 10.8438 4.39897 11.0314 4.4624C11.2189 4.52583 11.3842 4.64218 11.5071 4.79741C11.5155 4.80801 11.5261 4.81657 11.5383 4.82245C11.5505 4.82832 11.5638 4.83136 11.5773 4.83133C11.5949 4.83155 11.6121 4.82673 11.627 4.81744C11.6419 4.80816 11.6538 4.7948 11.6613 4.77895C11.8249 4.42776 12.1797 4.18431 12.5922 4.18431Z" fill="black"/>
</g>
<path fill-rule="evenodd" clip-rule="evenodd" d="M36.9584 17.275C37.1007 17.4226 37.1715 17.6131 37.1715 17.8458C37.1715 18.078 37.0774 18.2685 36.8894 18.4173C36.7013 18.5649 36.4584 18.6387 36.162 18.6387H35.8536C35.316 18.6445 34.7867 18.5047 34.3221 18.2339C33.867 17.9715 33.4914 17.5908 33.2352 17.1321C32.9733 16.6667 32.8417 16.1435 32.8417 15.5613V11.6435H32.0542C31.8149 11.6435 31.6209 11.5798 31.4727 11.453C31.402 11.3957 31.3451 11.323 31.3066 11.2405C31.268 11.158 31.2487 11.0679 31.2501 10.9768C31.2501 10.7655 31.3245 10.5964 31.4727 10.4696C31.6209 10.3429 31.8149 10.2792 32.0542 10.2792H32.8417V7.99524C32.8417 7.7625 32.9215 7.57202 33.0816 7.42381C33.2411 7.2756 33.4465 7.20179 33.6977 7.20179C33.9483 7.20179 34.1536 7.2756 34.3138 7.42381C34.4733 7.57202 34.553 7.7625 34.553 7.99524V10.2792H36.0078C36.2477 10.2792 36.4417 10.3429 36.5899 10.4696C36.7388 10.5964 36.8126 10.7655 36.8126 10.9774C36.8126 11.1679 36.7382 11.3262 36.5899 11.4536C36.4411 11.5798 36.2477 11.6435 36.0078 11.6435H34.5536V15.5613C34.5536 15.9845 34.6792 16.3387 34.9304 16.6244C35.1816 16.9101 35.4899 17.053 35.8542 17.053H36.4364C36.6417 17.053 36.8155 17.1268 36.9584 17.275ZM45.7721 10.4774C46.4673 10.8468 47.0519 11.3942 47.4661 12.0637C47.8828 12.7351 48.0911 13.4833 48.0911 14.3083V17.8458C48.0911 18.078 48.0078 18.2714 47.8429 18.425C47.6774 18.578 47.4691 18.6548 47.2179 18.6548C46.9673 18.6548 46.759 18.578 46.5929 18.425C46.5124 18.352 46.4486 18.2624 46.4059 18.1624C46.3632 18.0625 46.3425 17.9545 46.3453 17.8458V17.2589C45.9438 17.7151 45.4473 18.0778 44.8905 18.3214C44.3084 18.5777 43.6784 18.7076 43.0423 18.7024C42.2209 18.7024 41.4763 18.5119 40.8084 18.131C40.1493 17.7587 39.6048 17.2129 39.234 16.553C38.8519 15.8815 38.6608 15.1333 38.6608 14.3089C38.6608 13.4833 38.8661 12.7351 39.2769 12.0637C39.6876 11.3923 40.2554 10.8637 40.9798 10.4774C41.7042 10.0917 42.506 9.89821 43.3846 9.89821C44.2632 9.89821 45.059 10.0917 45.7715 10.4774H45.7721ZM44.9328 16.8863C45.3851 16.6372 45.761 16.2697 46.0203 15.8232C46.2822 15.3738 46.4138 14.869 46.4138 14.3083C46.4138 13.7476 46.2828 13.2405 46.0203 12.7857C45.763 12.3357 45.387 11.9651 44.9334 11.7143C44.4715 11.456 43.9548 11.3262 43.3846 11.3262C42.8138 11.3262 42.2977 11.456 41.8358 11.7149C41.3811 11.9668 41.0027 12.3368 40.7405 12.7857C40.4721 13.2405 40.3382 13.7476 40.3382 14.3083C40.3382 14.869 40.4721 15.3738 40.7399 15.8232C41.0039 16.2688 41.382 16.6358 41.8352 16.8863C42.2977 17.1452 42.8138 17.275 43.3846 17.275C43.9548 17.275 44.4715 17.1452 44.9334 16.8863H44.9328ZM51.7364 18.369C51.0519 18.147 50.5161 17.8565 50.1275 17.497C50.0573 17.4358 50.0012 17.3602 49.9629 17.2754C49.9245 17.1905 49.905 17.0985 49.9054 17.0054C49.9054 16.7512 50.0191 16.5452 50.2477 16.3863C50.4644 16.2381 50.6644 16.1643 50.8465 16.1643C51.0745 16.1643 51.2917 16.2595 51.4971 16.45C51.7138 16.672 52.0388 16.8649 52.4721 17.0292C52.9155 17.1949 53.3856 17.2782 53.859 17.275C54.509 17.275 55.0138 17.1738 55.3733 16.9732C55.7328 16.7726 55.9126 16.503 55.9126 16.1643C55.9126 15.8369 55.7358 15.5643 55.3816 15.3476C55.028 15.1304 54.4292 14.9482 53.5846 14.8C51.3941 14.4089 50.2989 13.5738 50.2989 12.294C50.2989 11.7756 50.4644 11.3369 50.7953 10.9774C51.1263 10.6173 51.5596 10.3476 52.0959 10.1679C52.6316 9.9881 53.203 9.89821 53.8072 9.89821C54.5489 9.89821 55.2138 10.0095 55.8013 10.2315C56.3888 10.4536 56.8536 10.7601 57.1959 11.1518C57.3447 11.3208 57.4185 11.4899 57.4185 11.6595C57.4185 11.8393 57.3215 12.003 57.1274 12.1512C57.0024 12.2357 56.8423 12.278 56.6483 12.278C56.3526 12.2783 56.0669 12.1713 55.8441 11.9768C55.5798 11.7452 55.2711 11.5696 54.937 11.4607C54.6173 11.3607 54.2292 11.3101 53.7733 11.3101C53.2483 11.3101 52.8173 11.3923 52.481 11.556C52.1441 11.7202 51.9763 11.95 51.9763 12.2464C51.9763 12.4577 52.0334 12.6345 52.1471 12.7774C52.2614 12.9202 52.478 13.0524 52.7977 13.1744C53.1173 13.2958 53.5792 13.4149 54.184 13.5315C55.428 13.7637 56.309 14.0863 56.828 14.4988C57.3471 14.9113 57.6066 15.4452 57.6066 16.1006C57.6066 16.5875 57.4638 17.0292 57.1792 17.4256C56.8935 17.822 56.4745 18.1339 55.9209 18.3613C55.3673 18.5887 54.703 18.7024 53.9269 18.7024C53.1513 18.7024 52.4209 18.5911 51.7364 18.369ZM66.9 17.9726C66.9 18.2054 66.7976 18.4012 66.5923 18.5595C66.4357 18.6815 66.2429 18.7485 66.0441 18.75C65.7935 18.75 65.5881 18.6548 65.428 18.4643L62.1762 14.7369L61.3208 15.4345V17.8619C61.3208 18.094 61.2435 18.2821 61.0899 18.425C60.9357 18.5679 60.7333 18.6393 60.4822 18.6393C60.231 18.6393 60.0286 18.5679 59.8744 18.425C59.7202 18.2821 59.6435 18.094 59.6435 17.8619V7.02738C59.6435 6.79464 59.7202 6.60714 59.8744 6.46429C60.0286 6.32143 60.231 6.25 60.4822 6.25C60.7333 6.25 60.9357 6.32143 61.0899 6.46429C61.2435 6.60714 61.3208 6.79464 61.3208 7.02738V13.4833L65.4798 10.0411C65.628 9.90417 65.8048 9.83512 66.0101 9.83512C66.2494 9.83512 66.4435 9.91964 66.5923 10.0887C66.7405 10.2262 66.8143 10.3905 66.8143 10.5804C66.8143 10.8024 66.7232 10.9827 66.5405 11.1202L63.3917 13.7214L66.7119 17.497C66.8375 17.6238 66.9 17.7827 66.9 17.9732V17.9726ZM74.9869 10.4774C75.6821 10.8466 76.2667 11.3941 76.681 12.0637C77.0976 12.7351 77.306 13.4833 77.306 14.3083V17.8458C77.306 18.078 77.2232 18.2714 77.0577 18.425C76.8923 18.578 76.6839 18.6548 76.4327 18.6548C76.1822 18.6548 75.9738 18.578 75.8083 18.425C75.728 18.352 75.6637 18.2624 75.6208 18.1625C75.578 18.0626 75.5577 17.9545 75.5601 17.8458V17.2589C75.1589 17.7151 74.6619 18.0777 74.1054 18.3214C73.5232 18.5778 72.8935 18.7077 72.2572 18.7024C71.4357 18.7024 70.6911 18.5119 70.0232 18.131C69.3643 17.7586 68.8197 17.2129 68.4488 16.553C68.0667 15.8815 67.8756 15.1333 67.8756 14.3089C67.8756 13.4833 68.081 12.7351 68.4917 12.0637C68.9024 11.3923 69.4702 10.8637 70.1947 10.4774C70.9191 10.0917 71.7208 9.89821 72.5994 9.89821C73.478 9.89821 74.2738 10.0917 74.9869 10.4774ZM74.1482 16.8863C74.6 16.637 74.9762 16.2696 75.2351 15.8232C75.4976 15.3738 75.6286 14.869 75.6286 14.3083C75.6286 13.7476 75.4976 13.2405 75.2351 12.7857C74.978 12.3358 74.6018 11.9652 74.1482 11.7143C73.6863 11.456 73.1697 11.3262 72.5994 11.3262C72.0286 11.3262 71.5125 11.456 71.0506 11.7149C70.5958 11.9668 70.2173 12.3367 69.9548 12.7857C69.6869 13.2405 69.553 13.7476 69.553 14.3083C69.553 14.869 69.6869 15.3738 69.9548 15.8232C70.2191 16.2688 70.597 16.6358 71.0506 16.8863C71.5125 17.1452 72.0286 17.275 72.5994 17.275C73.1697 17.275 73.6863 17.1452 74.1482 16.8863ZM88.4476 6.47202C88.6071 6.62024 88.6869 6.81607 88.6869 7.05893V14.2923C88.6869 15.1173 88.4792 15.8655 88.0625 16.5369C87.6482 17.2064 87.0631 17.7538 86.3679 18.1232C85.6548 18.5095 84.8589 18.7024 83.9804 18.7024C83.1018 18.7024 82.3006 18.5095 81.5762 18.1232C80.8512 17.7375 80.2839 17.2083 79.8732 16.5369C79.4625 15.8655 79.2571 15.1173 79.2571 14.2929C79.2571 13.4679 79.4482 12.7196 79.8304 12.0482C80.2012 11.3881 80.7458 10.8421 81.4048 10.4696C82.072 10.0887 82.8167 9.89821 83.6381 9.89821C84.3 9.89821 84.9161 10.0256 85.4869 10.2792C86.0435 10.5231 86.5405 10.886 86.9417 11.3423V7.05893C86.9417 6.81548 87.0244 6.62024 87.1899 6.47202C87.3548 6.32381 87.5631 6.25 87.8143 6.25C88.0768 6.25 88.2881 6.32381 88.4476 6.47202ZM85.5292 16.8863C85.9827 16.6357 86.3589 16.2649 86.6161 15.8149C86.8786 15.3607 87.0101 14.853 87.0101 14.2923C87.0101 13.7321 86.8786 13.2268 86.6161 12.7774C86.3572 12.3311 85.981 11.9639 85.5292 11.7149C85.0673 11.4554 84.5512 11.3262 83.9804 11.3262C83.4101 11.3262 82.8941 11.456 82.4316 11.7149C81.9786 11.9654 81.6006 12.3321 81.3363 12.7774C81.0685 13.2268 80.9339 13.7321 80.9339 14.2923C80.9339 14.853 81.0685 15.3607 81.3363 15.8155C81.5988 16.2643 81.9768 16.6343 82.4316 16.8863C82.8941 17.1452 83.4101 17.275 83.9804 17.275C84.5512 17.275 85.0673 17.1452 85.5292 16.8863ZM99.7774 14.6655C99.6292 14.7976 99.4411 14.8637 99.2125 14.8637H92.7089C92.8345 15.6042 93.197 16.2012 93.7958 16.656C94.3946 17.1107 95.128 17.3381 95.9952 17.3381C96.3589 17.3346 96.7191 17.2758 97.0649 17.1637C97.4357 17.0476 97.7411 16.9048 97.9804 16.7351C98.1446 16.6174 98.3429 16.5562 98.5452 16.5607C98.7619 16.5607 98.9333 16.6143 99.0589 16.7196C99.2643 16.878 99.3667 17.0577 99.3667 17.2589C99.3667 17.4494 99.2756 17.6077 99.0929 17.7351C98.7048 18.0208 98.2232 18.253 97.647 18.4327C97.0702 18.6125 96.5202 18.7024 95.9952 18.7024C95.0595 18.7024 94.2208 18.5149 93.4792 18.1393C92.7375 17.7643 92.1583 17.2429 91.7423 16.5768C91.3256 15.9101 91.1173 15.1542 91.1173 14.3089C91.1173 13.4625 91.3143 12.7036 91.7077 12.0321C92.0976 11.3648 92.6667 10.8207 93.3512 10.4619C94.0524 10.0863 94.8482 9.89821 95.7387 9.89821C96.6173 9.89821 97.3756 10.078 98.0149 10.4375C98.6423 10.7854 99.1536 11.3093 99.4863 11.9446C99.8286 12.5899 100 13.3304 100 14.1655C100 14.3667 99.9256 14.5333 99.7774 14.6655ZM93.7101 11.8976C93.1911 12.3202 92.8631 12.8857 92.7262 13.594H98.4256C98.3226 12.8857 98.0375 12.3202 97.5697 11.8976C97.1018 11.4744 96.4917 11.2625 95.7387 11.2625C94.9054 11.2625 94.2298 11.4744 93.7101 11.897V11.8976Z" fill="black"/>
</g>
<defs>
<clipPath id="clip0_1_800">
<rect width="100" height="25" fill="white"/>
</clipPath>
</defs>
</svg>
