<svg width="50" height="38" viewBox="0 0 50 38" fill="none" xmlns="http://www.w3.org/2000/svg">
<g clip-path="url(#clip0_1_732)">
<path d="M21.1897 0L0 21.569L15.1552 37.0862L18.9655 33.0517L7.75862 21.569L28.931 0H21.1897Z" fill="#4498F7"/>
<path fill-rule="evenodd" clip-rule="evenodd" d="M33.3598 0L12.1875 21.569L27.3426 36.9828L48.5322 15.431V0H33.3598ZM37.9805 15.5172C37.0462 15.5344 36.1278 15.2729 35.3426 14.7662C34.5572 14.2596 33.9405 13.5306 33.571 12.6721C33.2016 11.8137 33.0959 10.8647 33.2676 9.94607C33.4395 9.02741 33.8809 8.18067 34.5355 7.51376C35.1902 6.84683 36.0286 6.38991 36.944 6.20119C37.8593 6.01248 38.81 6.10052 39.6752 6.4541C40.5403 6.80769 41.2805 7.41079 41.8017 8.1866C42.3228 8.9624 42.6012 9.87578 42.6012 10.8103C42.5922 12.042 42.0953 13.2198 41.2197 14.0859C40.3438 14.9519 39.1605 15.4356 37.9288 15.431L37.9805 15.5172Z" fill="#4498F7"/>
</g>
<defs>
<clipPath id="clip0_1_732">
<rect width="50" height="37.931" fill="white"/>
</clipPath>
</defs>
</svg>
