<svg width="100" height="34" viewBox="0 0 100 34" fill="none" xmlns="http://www.w3.org/2000/svg">
<g clip-path="url(#clip0_1_622)">
<path d="M14.9157 14.9132H8.77536V16.6667H14.9157V23.6851H5.26658L1.75781 20.1763V1.75439H8.77536V7.89475H14.9157V14.9132Z" fill="white"/>
<path d="M41.2255 23.6851H20.1728L16.6641 20.1763V7.89471H23.6816V16.6666H25.436V7.89471H32.4535V16.6666H34.2079V7.89471H41.2255V23.6851Z" fill="white"/>
<path d="M50.0019 7.89471H42.9844V23.6842H50.0019V7.89471Z" fill="white"/>
<path d="M50.0019 1.75439H42.9844V6.14036H50.0019V1.75439Z" fill="white"/>
<path d="M64.9157 14.9132H58.7754V16.6667H64.9157V23.6851H55.2666L51.7578 20.1763V1.75439H58.7754V7.89475H64.9157V14.9132Z" fill="white"/>
<path d="M80.6992 14.9131H73.6816V16.6666H80.6992V23.6851H70.1728L66.6641 20.1763V11.4044L70.1728 7.89471H80.6992V14.9131Z" fill="white"/>
<path d="M98.2426 23.6851H91.2251V14.9132H89.4707V23.6851H82.4531V1.75439H89.4707V7.89475H94.7338L98.2426 11.4044V23.6851Z" fill="white"/>
<path d="M95.614 6.14035H91.2281V0H81.5974L77.1684 6.14035H69.2982L66.6667 8.77193V6.14035H60.5263V0H41.2281V6.14035H14.0789L9.64912 0H0V21.0526L12.2807 33.3333H24.5614V29.8246L28.0702 33.3333H51.7544V29.8246L55.2632 33.3333H66.6667V29.8246L70.1754 33.3333H92.1053L100 25.4386V10.5263L95.614 6.14035ZM14.9123 14.9123H8.77193V16.6667H14.9123V23.6842H5.26316L1.75439 20.1754V1.75439H8.77193V7.89474H14.9123V14.9123ZM41.2281 23.6842H20.1754L16.6667 20.1754V7.89474H23.6842V16.6667H25.4386V7.89474H32.4561V16.6667H34.2105V7.89474H41.2281V23.6842ZM50 23.6842H42.9825V7.89474H50V23.6842ZM50 6.14035H42.9825V1.75439H50V6.14035ZM64.9123 14.9123H58.7719V16.6667H64.9123V23.6842H55.2632L51.7544 20.1754V1.75439H58.7719V7.89474H64.9123V14.9123ZM80.7018 14.9123H73.6842V16.6667H80.7018V23.6842H70.1754L66.6667 20.1754V11.4035L70.1754 7.89474H80.7018V14.9123ZM98.2456 23.6842H91.2281V14.9123H89.4737V23.6842H82.4561V1.75439H89.4737V7.89474H94.7368L98.2456 11.4035V23.6842Z" fill="#9146FF"/>
</g>
<defs>
<clipPath id="clip0_1_622">
<rect width="100" height="33.3333" fill="white"/>
</clipPath>
</defs>
</svg>
