<svg width="50" height="50" viewBox="0 0 50 50" fill="none" xmlns="http://www.w3.org/2000/svg">
<g clip-path="url(#clip0_1_482)">
<path d="M25 12.5C25 5.59643 30.5965 0 37.5 0C44.4035 0 50 5.59643 50 12.5C50 19.4035 44.4035 25 37.5 25C30.5965 25 25 19.4035 25 12.5Z" fill="#158D71"/>
<path d="M0 25H25V37.5C25 44.4035 19.4035 50 12.5 50C5.59645 50 0 44.4035 0 37.5V25Z" fill="#158D71"/>
<path d="M25 37.5C25 30.5965 30.5965 25 37.5 25C44.4035 25 50 30.5965 50 37.5V50H25V37.5Z" fill="#011936"/>
<path d="M0 12.5C0 5.59643 5.59645 0 12.5 0C19.4035 0 25 5.59643 25 12.5C25 19.4035 19.4035 25 12.5 25C5.59645 25 0 19.4035 0 12.5Z" fill="#011936"/>
</g>
<defs>
<clipPath id="clip0_1_482">
<rect width="50" height="50" fill="white"/>
</clipPath>
</defs>
</svg>
