<svg width="50" height="47" viewBox="0 0 50 47" fill="none" xmlns="http://www.w3.org/2000/svg">
<path d="M34.5593 13.7346C32.7368 13.7362 30.9884 13.0138 29.6984 11.7263C28.4084 10.4388 27.6826 8.69175 27.6805 6.86923C27.6811 5.96665 27.8593 5.073 28.2051 4.23931C28.5511 3.40563 29.0576 2.64823 29.6963 2.01037C30.3349 1.37249 31.0928 0.866652 31.9268 0.521713C32.7611 0.176776 33.6549 -0.000500917 34.5574 4.30769e-06C35.4601 -0.00100636 36.3543 0.175834 37.1886 0.520425C38.023 0.865017 38.7815 1.37061 39.4203 2.00833C40.0593 2.64604 40.5665 3.40338 40.9126 4.2371C41.2588 5.07081 41.4374 5.96456 41.4382 6.86731C41.4374 7.77006 41.2588 8.66381 40.9126 9.49754C40.5665 10.3313 40.0593 11.0886 39.4203 11.7263C38.7815 12.364 38.023 12.8696 37.1886 13.2142C36.3543 13.5588 35.4601 13.7356 34.5574 13.7346H34.5593ZM13.8036 13.7346C12.901 13.7356 12.007 13.5588 11.1728 13.2144C10.3385 12.8699 9.58024 12.3645 8.9413 11.727C8.30238 11.0895 7.79526 10.3324 7.44892 9.49887C7.10259 8.66537 6.9238 7.77183 6.9228 6.86923C6.9233 5.96633 7.1017 5.07237 7.44782 4.23842C7.79393 3.40448 8.30095 2.64692 8.93995 2.009C9.57894 1.37108 10.3374 0.865321 11.1719 0.52061C12.0064 0.175898 12.9006 -0.00100636 13.8036 4.30769e-06C14.7061 -0.000753637 15.6 0.176273 16.4342 0.520977C17.2684 0.865683 18.0265 1.37131 18.6652 2.009C19.304 2.64669 19.8109 3.40394 20.157 4.23754C20.5032 5.07113 20.6816 5.96473 20.6824 6.86731C20.6816 7.7699 20.5032 8.6635 20.157 9.49708C19.8109 10.3307 19.304 11.0879 18.6652 11.7256C18.0265 12.3633 17.2684 12.8689 16.4342 13.2137C15.6 13.5583 14.7061 13.7354 13.8036 13.7346ZM2.62857 22.2865C1.00164 22.2865 -0.286823 23.6865 0.0554852 25.275C1.25562 30.7585 4.29493 35.6665 8.6689 39.1844C13.0429 42.7025 18.4884 44.6188 24.1016 44.6154C35.8978 44.6154 45.7555 36.3327 48.1497 25.275C48.492 23.6865 47.2036 22.2865 45.5766 22.2865H2.62857Z" fill="#EB4E53"/>
</svg>
