<svg width="50" height="38" viewBox="0 0 50 38" fill="none" xmlns="http://www.w3.org/2000/svg">
<g clip-path="url(#clip0_1_325)">
<path d="M23.1106 9.97537V37.7734H0.0859375L23.1106 9.97537ZM23.1106 0C23.1106 3.05325 21.8977 5.98145 19.7387 8.14044C17.5797 10.2994 14.6515 11.5123 11.5983 11.5123C8.54501 11.5123 5.61681 10.2994 3.45782 8.14044C1.29884 5.98145 0.0859375 3.05325 0.0859375 0H23.1106ZM26.9037 37.7759C26.9037 34.7227 28.1165 31.7943 30.2756 29.6355C32.4345 27.4764 35.3628 26.2635 38.416 26.2635C41.4692 26.2635 44.3975 27.4764 46.5564 29.6355C48.7155 31.7943 49.9283 34.7227 49.9283 37.7759H26.9037ZM26.9037 27.8005V0H49.9332L26.9037 27.798V27.8005Z" fill="#03363D"/>
</g>
<defs>
<clipPath id="clip0_1_325">
<rect width="50" height="37.931" fill="white"/>
</clipPath>
</defs>
</svg>
