<svg xmlns="http://www.w3.org/2000/svg" width="320" height="64" fill="none" viewBox="0 0 100 20"><g clip-path="url(#a)"><path fill="#4E5F89" fill-rule="evenodd" d="M5.54 2.971v10.616c0 .332.022.394.334.414l1.704.146v1.638H.282v-1.638l1.788-.145c.29-.021.332-.104.332-.415V6.428c0-.297-.224-.247-1.787.28l-.576-1.7L3.61 2.97h1.932Zm6.89.065h1.226c1.476 0 2.702.352 2.702 2.342 0 2.342-1.517 2.653-2.889 2.653h-1.04V3.036Zm1.517 7.213H12.43v3.317c0 .332.02.374.333.415l2.972.166v1.637H7.587v-1.637L8.897 14c.29-.04.332-.103.332-.414V2.994c0-.31-.042-.394-.333-.415l-1.31-.145V.776h7.047c3.846 0 5.01 2.032 5.01 4.415 0 3.607-2.183 5.058-5.696 5.058Zm11.643 2.8c-.478.351-1.185.746-1.892.746-.686 0-1.185-.311-1.185-1.14 0-.83.437-1.14 1.663-1.223l1.414-.104v1.72Zm9.555-3.96c1.641.373 3.491.954 3.491 3.38 0 2.528-2.057 3.565-4.697 3.565-1.71 0-3.38-.406-3.963-.668v.419H26.15l-.208-1.12-.104-.02c-.79.767-1.83 1.389-3.492 1.389-2.619 0-3.035-1.783-3.035-3.069 0-2.072 1.29-3.026 3.887-3.192l2.39-.166v-1.14c0-.974-.103-1.637-1.392-1.637-.997 0-1.517.145-1.517 1.388l-2.931-.249c0-2.798 2.556-3.192 4.469-3.192 3.16 0 4.427.85 4.427 3.752v5.038c0 .331.02.373.332.414l.846.14v-1.84l2.224.166.208 1.182c.02.186.063.27.25.31.25.084.81.208 1.6.208 1.102 0 1.725-.31 1.725-1.078 0-.829-.831-1.078-1.89-1.264-1.747-.311-4.033-.684-4.033-3.4 0-2.57 2.203-3.628 4.593-3.628 1.642 0 3.242.373 3.825.601v3.006L36.1 8.239l-.208-1.078c-.02-.166-.063-.248-.208-.29-.27-.083-.769-.166-1.33-.166-1.04 0-1.622.394-1.622 1.057 0 .85 1.144 1.037 2.412 1.327Zm60.405 3.607c-.561.477-1.33.891-2.037.891-1.31 0-1.892-1.12-1.892-3.13 0-1.845.603-3.275 2.141-3.275.603 0 1.268.27 1.788.622v4.892ZM99 14.002l.998.145v1.638H96.13l-.207-1.161-.146-.021c-.873.85-1.891 1.43-3.409 1.43-2.452 0-4.032-1.554-4.032-5.514 0-4.166 2.1-5.742 4.407-5.742 1.205 0 2.14.415 2.93.995V2.621c0-.207-.083-.352-.27-.414l-1.143-.394.229-1.68h4.178v13.475c0 .31.02.352.332.394ZM63.998 6.809c-.29.04-.415.145-.498.414l-2.557 8.561h-3.285l-1.62-6.944h-.125l-1.642 6.945h-3.742L47.91 7.203c-.083-.25-.187-.29-.436-.353l-.203-.043v1.577l-2.224-.145-.208-1.078c-.02-.166-.062-.248-.207-.29-.27-.083-.77-.166-1.33-.166-1.04 0-1.622.394-1.622 1.057 0 .85 1.143 1.037 2.411 1.327 1.642.373 3.492.954 3.492 3.38 0 2.528-2.057 3.565-4.697 3.565-1.892 0-3.742-.498-4.116-.747v-3.006l2.224.166.208 1.182c.02.186.063.27.25.31.249.084.81.208 1.6.208 1.101 0 1.725-.31 1.725-1.078 0-.829-.831-1.078-1.892-1.264-1.745-.311-4.032-.684-4.032-3.4 0-2.57 2.203-3.628 4.594-3.628 1.357 0 2.685.255 3.434.473l.052-.265h5.26v1.72l-1.165.125 1.663 5.824h.145l1.85-7.4h3.14l1.787 7.4h.124l1.56-5.824-1.186-.125.27-1.72h4.366v.61c-.26.382-.488.783-.683 1.201l-.066.013Zm21.493.518c-.54 0-1.184.456-1.496.725v5.494c0 .331.02.393.333.414l2.057.166v1.659h-6.797v-1.68l.936-.124c.29-.042.332-.104.332-.415V7.492c0-.228-.063-.373-.27-.435l-1-.35c-.032-.068-.067-.134-.101-.2l.207-1.523h3.659l.249 1.658h.125c.685-1.057 1.6-1.865 2.93-1.865.478 0 1.434.083 1.809.186v3.773l-2.495-.082-.207-1.1c-.042-.186-.104-.227-.271-.227Z" clip-rule="evenodd"/><path fill="#198CFF" fill-rule="evenodd" d="M71.79 3.419a6.838 6.838 0 1 1 0 13.675 6.838 6.838 0 0 1 0-13.675Z" clip-rule="evenodd"/><path fill="#fff" fill-rule="evenodd" d="M63.242 10.256a8.547 8.547 0 1 1 17.094 0 8.547 8.547 0 0 1-8.547 8.547 8.547 8.547 0 0 1-8.547-8.547Zm1.71 0a6.838 6.838 0 1 0 13.675 0 6.838 6.838 0 0 0-13.675 0Z" clip-rule="evenodd"/><path fill="#000" d="M62.96 10.256a8.832 8.832 0 1 0 17.665 0 8.832 8.832 0 0 0-17.664 0Zm.286 0a8.547 8.547 0 1 1 17.094 0 8.547 8.547 0 0 1-17.094 0Zm1.994 0a6.552 6.552 0 1 0 13.105 0 6.552 6.552 0 0 0-13.105 0Zm-.285 0a6.838 6.838 0 1 1 13.676 0 6.838 6.838 0 0 1-13.676 0Z" opacity=".5"/><path fill="#000" fill-opacity=".1" fill-rule="evenodd" d="M74.733 17.401a7.266 7.266 0 0 0 4.423-6.682c0-4.012-3.26-7.265-7.283-7.265-4.023 0-7.283 3.252-7.283 7.264 0 4 3.242 7.245 7.248 7.264H71.8c-4.222 0-7.644-3.412-7.644-7.623 0-4.21 3.422-7.624 7.644-7.624 4.222 0 7.644 3.413 7.644 7.624a7.626 7.626 0 0 1-4.712 7.042Zm-3.08.667c4.716 0 8.54-3.813 8.54-8.516 0-.438-.034-.87-.098-1.29a8.51 8.51 0 0 1 .244 2.024c0 4.704-3.823 8.516-8.538 8.516a8.533 8.533 0 0 1-8.442-7.225 8.536 8.536 0 0 0 8.294 6.491Z" clip-rule="evenodd"/><path fill="#F2F2F2" fill-rule="evenodd" d="M71.792 5.128a5.128 5.128 0 1 1 0 10.257 5.128 5.128 0 0 1 0-10.257Z" clip-rule="evenodd"/><path fill="#000" fill-opacity=".25" d="M71.796 5.128a5.128 5.128 0 1 0 0 10.257 5.128 5.128 0 0 0 0-10.257Zm0-.285a5.413 5.413 0 1 1 0 10.827 5.413 5.413 0 0 1 0-10.827Z"/><path fill="#000" fill-opacity=".05" fill-rule="evenodd" d="M74.074 10.256a2.28 2.28 0 1 1-4.559 0 2.28 2.28 0 0 1 4.559 0Z" clip-rule="evenodd"/><path fill="#000" fill-opacity=".15" d="M73.79 10.256a1.995 1.995 0 1 0-3.991 0 1.995 1.995 0 0 0 3.99 0Zm.284 0a2.28 2.28 0 1 1-4.559 0 2.28 2.28 0 0 1 4.559 0Z"/><path fill="#fff" d="M74.07 10.256a2.28 2.28 0 1 0-4.559 0 2.28 2.28 0 0 0 4.559 0Zm.285 0a2.564 2.564 0 1 1-5.128 0 2.564 2.564 0 0 1 5.128 0Z"/><path fill="#fff" fill-rule="evenodd" d="M70.656 9.219V6.838h2.28v3.968l-.57.529.57.529v2.38h-2.28v-3.967l.57-.53-.57-.528Z" clip-rule="evenodd"/><path fill="#4D4D4D" fill-rule="evenodd" d="M70.656 8.934V6.553h2.28v3.968l-.57.529.57.529v2.381h-2.28V9.992l.57-.53-.57-.528Z" clip-rule="evenodd"/><path fill="gray" fill-rule="evenodd" d="M70.938 9.178V7.122h1.709v3.521l-.427.488v.287l.427.544v1.998h-1.71v-3.527l.428-.478v-.289l-.427-.488Z" clip-rule="evenodd"/></g><defs><clipPath id="a"><path fill="#fff" d="M0 0h100v19.088H0z"/></clipPath></defs></svg>