<svg xmlns="http://www.w3.org/2000/svg" width="64" height="64" fill="none" viewBox="0 0 50 50"><g clip-path="url(#a)"><path fill="#fff" fill-rule="evenodd" d="M.86 25c0 13.332 10.807 24.139 24.138 24.139 13.33 0 24.138-10.807 24.138-24.139C49.136 11.67 38.328.862 24.998.862 11.667.862.859 11.669.859 25Z" clip-rule="evenodd"/><path fill="#1A8CFF" fill-rule="evenodd" d="M24.997 6.034c10.475 0 18.966 8.492 18.966 18.966 0 10.475-8.492 18.966-18.966 18.966-10.475 0-18.966-8.492-18.966-18.966 0-10.475 8.492-18.966 18.966-18.966Z" clip-rule="evenodd"/><path fill="#000" d="M0 25c0 13.808 11.193 25 25 25s25-11.192 25-25C50 11.193 38.807 0 25 0S0 11.193 0 25Zm.862 0C.862 11.67 11.668.862 25 .862 38.333.862 49.138 11.67 49.138 25c0 13.33-10.805 24.138-24.138 24.138C11.667 49.138.862 38.33.862 25Z" opacity=".5"/><path fill="#000" fill-opacity=".052" fill-rule="evenodd" d="M49.102 23.706c.022.429.033.86.033 1.294 0 13.33-10.806 24.138-24.137 24.138C11.667 49.138.859 38.331.859 25c0-.433.012-.865.035-1.294.672 12.73 11.206 22.845 24.104 22.845 12.797 0 23.269-9.96 24.086-22.55l.017-.295ZM24.998 3.448c11.665 0 21.12 9.456 21.12 21.121 0 6.52-2.955 12.352-7.6 16.227a19.773 19.773 0 0 0 6.307-14.503c0-10.95-8.877-19.827-19.827-19.827-10.95 0-19.828 8.876-19.828 19.827a19.771 19.771 0 0 0 6.307 14.503c-4.644-3.875-7.6-9.706-7.6-16.227 0-11.665 9.456-21.12 21.12-21.12Z" clip-rule="evenodd"/><path fill="#000" d="M24.997 6.034c10.475 0 18.966 8.494 18.966 18.966 0 10.474-8.49 18.966-18.966 18.966-10.37 0-18.796-8.323-18.963-18.652L6.03 25c0-10.472 8.491-18.966 18.966-18.966Zm0 .863C15 6.897 6.894 15.002 6.894 25c0 9.998 8.105 18.103 18.103 18.103C34.995 43.103 43.1 34.998 43.1 25c0-9.998-8.105-18.103-18.103-18.103Z" opacity=".256"/><path fill="#000" fill-opacity=".25" d="M25.096 9.914A15.126 15.126 0 0 0 9.914 25.096c0 8.266 6.785 14.99 15.182 14.99 8.236 0 14.99-6.755 14.99-14.99 0-8.396-6.723-15.182-14.99-15.182Zm0 .861c7.76 0 14.128 6.369 14.128 14.32 0 7.76-6.368 14.129-14.128 14.129-7.952 0-14.32-6.368-14.32-14.128a14.265 14.265 0 0 1 14.32-14.32Z"/><path fill="#F7F7F7" fill-rule="evenodd" d="M25.093 10.776c7.76 0 14.129 6.368 14.129 14.32 0 7.76-6.369 14.128-14.129 14.128-7.951 0-14.32-6.368-14.32-14.128a14.265 14.265 0 0 1 14.32-14.32Z" clip-rule="evenodd"/><path fill="#000" fill-opacity=".05" fill-rule="evenodd" d="M31.464 25a6.467 6.467 0 1 1-12.933.205A6.467 6.467 0 0 1 31.464 25Z" clip-rule="evenodd"/><path fill="#fff" d="M25 17.672a7.328 7.328 0 1 0 0 14.657 7.328 7.328 0 0 0 0-14.657Zm0 .862a6.467 6.467 0 1 1 .142 12.934 6.467 6.467 0 0 1-.141-12.934H25Z"/><path fill="#000" fill-opacity=".15" d="M25.003 18.534a6.466 6.466 0 1 1 .143 12.931 6.466 6.466 0 0 1-.142-12.931Zm0 .863a5.602 5.602 0 0 0-5.177 7.747 5.602 5.602 0 0 0 9.14 1.818 5.601 5.601 0 0 0 0-7.925 5.604 5.604 0 0 0-3.963-1.64Z"/><path fill="#fff" d="M27.402 13.793h-4.809c-1.064 0-1.905.934-1.905 2.057v4.652c0 .423.152.832.429 1.139l.706.783c.017.02.017.07 0 .088l-.706.784c-.277.308-.43.716-.43 1.139v9.715c0 1.124.842 2.057 1.907 2.057h4.808c1.066 0 1.906-.933 1.906-2.057v-4.652a1.7 1.7 0 0 0-.429-1.138l-.707-.784c-.016-.019-.016-.07 0-.089l.707-.783c.277-.308.43-.716.43-1.14V15.85c0-1.123-.842-2.057-1.907-2.057Zm-.055.879c.607 0 1.1.558 1.1 1.245v9.644c0 .22-.078.431-.215.587l-.688.779a.913.913 0 0 0 0 1.175l.688.778a.888.888 0 0 1 .214.587v4.616c0 .688-.492 1.246-1.1 1.246H22.65c-.607 0-1.1-.558-1.1-1.246V24.44c0-.22.078-.432.215-.587l.688-.779a.913.913 0 0 0 0-1.175l-.688-.777a.889.889 0 0 1-.215-.588v-4.617c0-.687.493-1.245 1.1-1.245h4.697Z"/><path fill="#0A2D4D" fill-rule="evenodd" d="M21.555 20.527v-4.624c0-.689.492-1.248 1.1-1.248h4.696c.608 0 1.1.558 1.1 1.248v9.659a.89.89 0 0 1-.215.588l-.687.78a.913.913 0 0 0 0 1.176l.687.78a.891.891 0 0 1 .215.588v4.623c0 .69-.492 1.248-1.1 1.248h-4.696c-.608 0-1.1-.558-1.1-1.248v-9.659c0-.22.077-.432.215-.588l.687-.78a.914.914 0 0 0 0-1.176l-.687-.78a.89.89 0 0 1-.215-.587Z" clip-rule="evenodd"/><path fill="#000" fill-opacity=".4" d="M27.352 14.655c.608 0 1.1.558 1.1 1.248v9.659a.89.89 0 0 1-.215.588l-.687.78a.913.913 0 0 0 0 1.176l.687.78a.891.891 0 0 1 .214.588v4.623c0 .69-.491 1.248-1.099 1.248h-4.697c-.608 0-1.1-.558-1.1-1.248v-9.659c0-.22.077-.432.215-.588l.687-.78a.914.914 0 0 0 0-1.176l-.687-.78a.89.89 0 0 1-.215-.587v-4.624c0-.689.492-1.248 1.1-1.248h4.697Zm-.124.886-4.45-.006c-.174 0-.337.163-.358.395l-.003.05v4.583c0 .014.003.025.007.034l.006.01.72.773c.562.604.581 1.552.058 2.18l-.058.067-.72.772a.06.06 0 0 0-.011.025l-.002.018v9.578c0 .24.153.42.324.442l.038.003 4.45.006c.173 0 .337-.164.358-.395l.003-.05v-4.583a.09.09 0 0 0-.007-.033l-.006-.01-.72-.773a1.663 1.663 0 0 1-.058-2.181l.058-.066.72-.773a.055.055 0 0 0 .011-.025l.002-.019v-9.576c0-.242-.153-.421-.325-.444l-.037-.002Z"/></g><defs><clipPath id="a"><path fill="#fff" d="M0 0h50v50H0z"/></clipPath></defs></svg>