<svg xmlns="http://www.w3.org/2000/svg" width="246.154" height="64" fill="none" viewBox="0 0 100 26"><g fill="#000" clip-path="url(#a)"><path d="M36.255 6.126 31.156 19.56h2.607l1.084-3.141h5.308l1.066 3.14h2.626L38.938 6.127h-2.683Zm-.818 8.39c1.18-3.291 1.656-4.624 2.092-5.974.628 1.96 1.276 3.787 2.03 5.975h-4.122ZM49.983 9.898a3.644 3.644 0 0 0-2.963 1.46V6.126h-2.23V19.56h2.13v-1.238c.648.933 1.523 1.428 2.817 1.428 2.34 0 3.901-1.827 3.901-4.929 0-3.101-1.428-4.923-3.655-4.923Zm-.798 7.995c-1.409 0-2.227-1.16-2.227-3.172 0-1.807.952-2.95 2.303-2.95 1.27 0 2.055 1.162 2.055 3.064 0 2.004-.818 3.05-2.131 3.05v.008ZM58.32 11.514c.914 0 1.638.495 2.114 1.334l1.658-1.125c-.838-1.333-2.23-1.903-3.734-1.903-2.344 0-3.68 1.372-3.68 2.858 0 1.448.932 2.305 2.4 2.762l1.014.324c1.43.457 1.753.723 1.753 1.353 0 .57-.533.99-1.505.99-1.048 0-1.924-.571-2.419-1.543l-1.733 1.142c.799 1.2 2.114 2.134 4.06 2.134 2.363 0 3.83-1.276 3.83-3.03 0-1.523-.953-2.305-2.63-2.84l-1.014-.304c-1.22-.38-1.523-.647-1.523-1.218s.452-.934 1.408-.934ZM66.602 16.624v-4.748h1.835V10.09h-1.835V6.992h-2.217l-.043 3.098h-1.483v1.786h1.483v5.19c0 .878.134 1.547.534 2.005.4.458 1.015.687 1.945.687a6.724 6.724 0 0 0 1.665-.215v-1.776a2.768 2.768 0 0 1-.916.17c-.69.007-.968-.335-.968-1.313ZM71.827 11.548V10.09h-2.132v9.518h2.234v-4.442c0-1.015.167-1.685.496-2.18.414-.594 1.005-.953 2.03-.942.277.005.552.048.818.127v-2.08a2.64 2.64 0 0 0-.817-.128c-1.313.004-2.055.559-2.629 1.585ZM83.825 17.005V13.58c0-1.488-.2-2.268-.79-2.821-.635-.61-1.545-.915-2.841-.915-2.421 0-3.95 1.142-4.102 3.203l2.139.19c.114-1.048.628-1.64 1.792-1.64.591 0 1.048.127 1.314.4.267.273.363.61.363 1.142v.508c-1.506.096-3.336.363-4.27.782-1.124.515-1.735 1.316-1.735 2.538 0 1.696 1.22 2.784 2.955 2.784 1.352 0 2.382-.476 3.106-1.353.207.948.875 1.298 2.067 1.298a3.05 3.05 0 0 0 1.016-.152v-1.447c-.858.155-1.008-.349-1.014-1.09ZM81.7 15.576c-.02.533-.114 1.067-.42 1.506-.418.629-1.124.992-1.982.992-.991 0-1.45-.516-1.45-1.2 0-.535.23-.898.82-1.165.668-.323 1.946-.515 3.032-.572v.44ZM89.943 17.966c-1.465 0-2.342-1.104-2.342-3.198 0-2.113.99-3.084 2.284-3.084.894 0 1.58.419 1.848 1.675l2-.685c-.44-1.694-1.734-2.856-3.792-2.856-2.838 0-4.629 1.885-4.629 4.988 0 3.122 1.753 5.025 4.514 5.025 2.158 0 3.41-1.142 3.964-2.722l-2-.685c-.228 1.009-.837 1.542-1.847 1.542ZM98.029 16.624v-4.748h1.834V10.09h-1.834V6.992h-2.217l-.04 3.098H94.29v1.786h1.487v5.19c0 .878.135 1.547.535 2.005.4.458 1.015.687 1.945.687a6.726 6.726 0 0 0 1.656-.215v-1.776a2.766 2.766 0 0 1-.915.17c-.688.007-.968-.335-.968-1.313ZM12.747.127C2.595.1.05 2.632.024 12.784-.003 22.936 2.527 25.481 12.68 25.508c10.152.026 12.698-2.505 12.724-12.658C25.431 2.698 22.9.154 12.747.127Zm-2.115 19.63a4.858 4.858 0 1 1 4.857-4.857 4.864 4.864 0 0 1-4.857 4.858Zm8.823-.199h-2.38V8.456H5.973v-2.38h13.483v13.482Z"/><path d="M10.635 12.421a2.479 2.479 0 1 0 0 4.958 2.479 2.479 0 0 0 0-4.958Z"/></g><defs><clipPath id="a"><path fill="#fff" d="M0 0h100v25.634H0z"/></clipPath></defs></svg>