<svg xmlns="http://www.w3.org/2000/svg" width="64" height="64" fill="none" viewBox="0 0 50 50"><g fill="#000" clip-path="url(#a)"><path d="M24.995.249C5.095.196.107 5.159.055 25.059.003 44.96 4.963 49.949 24.864 50c19.9.052 24.89-4.91 24.942-24.81C49.86 5.287 44.896.3 24.996.248Zm-4.146 38.48a9.521 9.521 0 0 1-6.734-16.256 9.521 9.521 0 0 1 16.256 6.733 9.535 9.535 0 0 1-9.522 9.523m17.296-.39H33.48V16.574H11.715V11.91h26.43z"/><path d="M20.843 24.348a4.859 4.859 0 1 0 0 9.718 4.859 4.859 0 0 0 0-9.718"/></g><defs><clipPath id="a"><path fill="#fff" d="M0 0h50v50H0z"/></clipPath></defs></svg>