<svg xmlns="http://www.w3.org/2000/svg" width="188.235" height="64" fill="none" viewBox="0 0 100 34"><path fill="#171A1E" d="M97.075 19.079v-.457h-5.16c-2.743 0-4.533 1.266-4.533 3.34 0 1.829 1.498 2.99 3.837 2.99 3.698 0 5.855-2.227 5.855-5.873Zm2.924-3.448v11.433h-2.924V24c-.99 2.041-3.44 3.341-6.294 3.341-3.875 0-6.4-2.106-6.4-5.344 0-3.377 2.89-5.528 7.353-5.528h4.168c.813 0 1.173-.386 1.173-.95 0-2.427-1.793-4.08-4.94-4.08-2.709 0-4.825 1.62-4.972 3.553h-2.781c.33-3.42 3.694-5.943 7.826-5.943 4.793.006 7.791 2.64 7.791 6.58v.002Zm-22.414 2.567c0-4.01-2.416-6.61-6.11-6.61-3.694 0-6.145 2.602-6.145 6.61 0 4.01 2.437 6.616 6.145 6.616 3.708 0 6.11-2.615 6.11-6.616Zm-15.253 0c0-5.17 3.145-9.142 8.886-9.142 2.6 0 5.012 1.267 6.11 3.159V.155h2.926v26.908h-2.927v-2.92c-1.083 1.936-3.52 3.199-6.11 3.199-5.74 0-8.885-3.975-8.885-9.145v.001Zm-6.626.882v-.457H50.56c-2.743 0-4.536 1.266-4.536 3.34 0 1.828 1.5 2.99 3.843 2.99 3.672 0 5.839-2.227 5.839-5.873Zm2.927-3.449v11.433h-2.927V24c-.987 2.041-3.437 3.341-6.291 3.341-3.876 0-6.4-2.106-6.4-5.344 0-3.377 2.89-5.528 7.35-5.528h4.171c.813 0 1.17-.386 1.17-.95 0-2.427-1.79-4.08-4.937-4.08-2.709 0-4.83 1.62-4.975 3.553h-2.778c.327-3.42 3.693-5.943 7.826-5.943 4.79.006 7.791 2.64 7.791 6.58v.002ZM8.399 27.447c-.234.026-.453.13-.621.294a1.01 1.01 0 0 0-.298.607c0 .014 0 .029-.002.044v-.014a.944.944 0 0 0-.004.081v3.062a.995.995 0 0 1-.309.722 1.05 1.05 0 0 1-.743.297H1.05a1.074 1.074 0 0 1-.874-.456A1.001 1.001 0 0 1 0 31.521V15.944c.003-4.925 2.322-9.32 5.957-12.214l.003-.003c.067-.052.133-.105.2-.155l.012-.01c.134-.103.27-.204.408-.3l.035-.027.184-.13.02-.014.204-.14.037-.024.17-.114.05-.032c.17-.11.343-.216.518-.32l.008-.005c.103-.062.209-.123.316-.182l.01-.005c.106-.06.215-.12.323-.178l.004-.002A16.43 16.43 0 0 1 13.1.46h.005l.175-.032.021-.004.163-.029.034-.005.155-.024.045-.007.146-.021.054-.008a8.71 8.71 0 0 1 .139-.02l.06-.007.134-.017.068-.007.126-.015.076-.008.12-.011.08-.008.117-.01.088-.007.112-.01.093-.005.107-.007.1-.006.102-.005.106-.005.097-.003.117-.004.087-.002.133-.004h.277c8.97 0 16.233 7.064 16.236 15.779V31.52a.994.994 0 0 1-.308.722 1.05 1.05 0 0 1-.743.297H26.05c-.277 0-.544-.107-.741-.298a1.01 1.01 0 0 1-.309-.72v-3.066c0-.27-.112-.529-.309-.72a1.064 1.064 0 0 0-.741-.298h-7.713l-7.838.008Zm16.602-12.154c0-4.702-3.924-8.513-8.764-8.513-.738 0-1.473.09-2.19.268a8.828 8.828 0 0 0-3.543 1.808 8.519 8.519 0 0 0-2.236 2.898 8.293 8.293 0 0 0-.79 3.54c0 4.702 3.92 8.513 8.757 8.513 4.842 0 8.765-3.811 8.765-8.514h.001Z"/></svg>