<svg xmlns="http://www.w3.org/2000/svg" width="64" height="64" fill="none" viewBox="0 0 50 50"><g clip-path="url(#a)"><path fill="#171A1E" d="M12.722 41.574a1.61 1.61 0 0 0-.941.445 1.53 1.53 0 0 0-.452.92c0 .021 0 .044-.003.067v-.022a1.418 1.418 0 0 0-.005.123v4.639a1.507 1.507 0 0 1-.468 1.092 1.59 1.59 0 0 1-1.125.45H1.59a1.63 1.63 0 0 1-.617-.122 1.583 1.583 0 0 1-.708-.567A1.516 1.516 0 0 1 0 47.746V24.15c.004-7.459 3.518-14.116 9.024-18.5l.004-.004c.101-.08.201-.16.303-.236l.018-.014c.202-.156.408-.31.617-.456l.053-.04.28-.197.029-.02c.103-.073.206-.142.31-.212l.056-.037.256-.172.077-.049c.258-.166.52-.328.785-.485l.011-.007c.156-.094.317-.187.48-.277l.013-.007c.162-.091.327-.181.491-.27l.006-.002a24.886 24.886 0 0 1 7.03-2.47h.007l.265-.048.032-.006.247-.044.052-.007.235-.037.067-.01.221-.033.082-.011.21-.03.092-.012.203-.025.103-.011.191-.022.115-.012.18-.018.124-.012.177-.014.132-.01.17-.015.14-.01.163-.01.15-.008.156-.008.16-.007.148-.006.176-.006.133-.003.201-.005h.42c13.587 0 24.587 10.7 24.592 23.9v23.59a1.506 1.506 0 0 1-.466 1.093 1.59 1.59 0 0 1-1.125.45h-8.137c-.42 0-.825-.161-1.124-.451a1.527 1.527 0 0 1-.467-1.091v-4.643c0-.409-.17-.801-.468-1.091a1.612 1.612 0 0 0-1.123-.452H24.593l-11.872.012v.002Zm25.147-18.41c0-7.121-5.944-12.895-13.275-12.895a13.73 13.73 0 0 0-3.316.408 13.373 13.373 0 0 0-5.368 2.738 12.906 12.906 0 0 0-3.386 4.39 12.562 12.562 0 0 0-1.197 5.361c0 7.122 5.936 12.894 13.264 12.894 7.334 0 13.277-5.772 13.277-12.895h.001Z"/></g><defs><clipPath id="a"><path fill="#fff" d="M0 0h50v50H0z"/></clipPath></defs></svg>