<svg xmlns="http://www.w3.org/2000/svg" width="96" height="64" fill="none"><g clip-path="url(#a)"><path fill="#fff" d="M87.869 63.944c-4.425 0-7.05-2.265-7.25-5.526h4.23c0 1.087.603 2.534 3.22 2.624 1.815 0 2.82-1.087 2.82-1.904-.202-1.267-1.815-1.357-3.422-1.634-1.814-.263-3.22-.63-4.23-1.08-1.406-.728-2.217-2.272-2.217-3.899 0-2.902 2.424-5.166 6.648-5.166 4.03 0 6.648 2.084 6.841 5.256h-4.022c0-.81-.201-2.175-2.618-2.175-1.614 0-2.618.27-2.818 1.448 0 1.634 3.42 1.544 6.038 2.174 2.417.637 4.03 2.174 4.03 4.356 0 3.988-3.22 5.526-7.25 5.526m-77.1-26.76 13.892-8.068 7.45 12.783H13.388M39.98 63.463V47.328Z"/><path stroke="#fff" stroke-width="4.065" d="M39.98 63.463V47.328"/><path fill="#fff" d="M4.323 55.634c0 2.535 2.215 4.619 4.625 4.619a4.594 4.594 0 0 0 4.633-4.619c0-2.444-2.008-4.619-4.633-4.619-2.41 0-4.625 2.175-4.625 4.62m4.425 8.338C4.322 63.972.5 60.253.5 55.634s3.823-8.247 8.248-8.247c1.814 0 3.427.457 4.833 1.447v-1.267h4.03v16.038h-4.03v-.997c-1.205.907-3.02 1.364-4.833 1.364m53.765-22.077L43.186 8.186 57.076.03l24.161 41.867m-58.39 13.738a4.6 4.6 0 0 0 4.632 4.619c2.41 0 4.632-2.084 4.632-4.619 0-2.444-2.223-4.619-4.632-4.619-2.618 0-4.633 2.175-4.633 4.62m4.43 8.338c-4.632 0-8.253-3.719-8.253-8.338s3.621-8.247 8.254-8.247c1.807 0 3.42.457 4.833 1.447v-6.793h4.024v21.564H32.11v-.997q-2.121 1.362-4.833 1.364m-.198-41.197 14.092-7.97 15.505 27.09H41.975v3.988H37.95v-3.988m54.557 4.114c-1.01 0-2.014-.907-2.014-1.995 0-1.087 1.004-1.994 2.014-1.994 1.205 0 2.016.907 2.016 1.994s-.81 1.995-2.016 1.995m0-3.712c-1.01 0-1.613.81-1.613 1.717s.603 1.725 1.613 1.725c1.005 0 1.607-.817 1.607-1.725 0-.907-.602-1.717-1.607-1.717"/><path fill="#fff" d="m92.924 45.108-.402-.907h-.401v.907h-.305v-2.174h.907c.201 0 .603.277.603.637s-.201.54-.402.63l.402.907m-.804-1.897h-.401v.72h.401c.402 0 .402-.09.402-.36 0-.187 0-.36-.402-.36M65.918 55.634a4.6 4.6 0 0 0 4.632 4.619c2.417 0 4.626-2.085 4.626-4.62 0-2.444-2.21-4.618-4.626-4.618-2.617 0-4.632 2.174-4.632 4.619m4.425 8.337c-4.626 0-8.248-3.718-8.248-8.337s3.622-8.247 8.247-8.247c1.815 0 3.428.457 4.834 1.447v-1.268h3.83v16.038h-3.83v-.997q-2.11 1.362-4.833 1.364m-22.935-8.337c0 2.534 2.216 4.619 4.633 4.619a4.6 4.6 0 0 0 4.632-4.62c0-2.444-2.015-4.618-4.632-4.618-2.417 0-4.633 2.174-4.633 4.619m9.265-13.593h4.023v21.563h-4.023v-.997c-1.212.907-2.825 1.364-4.632 1.364-4.633 0-8.456-3.718-8.456-8.337s3.823-8.247 8.456-8.247c1.807 0 3.42.457 4.632 1.447z"/></g><defs><clipPath id="a"><path fill="#fff" d="M.5 0h94.619v64H.5z"/></clipPath></defs></svg>