<svg xmlns="http://www.w3.org/2000/svg" width="228.571" height="64" fill="none" viewBox="0 0 100 28"><path fill="#FA0C00" d="M10.902 0H0v26.072L10.902 0ZM18.57 0h10.888v26.072L18.57 0ZM14.734 9.61l6.94 16.462H17.12l-2.074-5.241H9.969l4.765-11.222ZM47.243 16.58l1.285 3.686c.043.093.107.135.22.135h2.472c.135 0 .156-.064.135-.199L46.249 6.02c-.022-.113-.043-.135-.157-.135h-3.068c-.085 0-.135.064-.135.157-.043.745-.107.973-.199 1.193L38.138 20.18c-.022.156.028.22.156.22h2.209c.135 0 .199-.042.248-.177l1.215-3.644h5.277Zm-4.574-2.407c.668-2.017 1.548-4.603 1.903-6.08h.022c.44 1.548 1.477 4.617 1.946 6.08h-3.871ZM57.927 20.622c1.328 0 2.741-.242 4.176-.86.114-.043.135-.092.135-.199a14.77 14.77 0 0 1-.092-1.413V4.798c0-.086 0-.128-.107-.128h-2.408c-.092 0-.135.042-.135.156V9.35a7.914 7.914 0 0 0-.951-.064c-3.885 0-6.272 2.564-6.272 5.767 0 3.715 2.45 5.569 5.654 5.569Zm1.57-2.472a4.231 4.231 0 0 1-1.286.178c-1.761 0-3.203-.995-3.203-3.41 0-2.137 1.484-3.402 3.452-3.402.397 0 .745.043 1.036.157v6.477ZM69.916 9.286c-3.317 0-5.37 2.543-5.37 5.682 0 2.805 1.634 5.654 5.32 5.654 3.118 0 5.306-2.294 5.306-5.725 0-3.026-1.854-5.61-5.256-5.61Zm-.135 2.23c1.875 0 2.67 1.613 2.67 3.452 0 2.273-1.171 3.402-2.535 3.402-1.683 0-2.677-1.413-2.677-3.452 0-2.095 1.058-3.402 2.542-3.402ZM77.664 4.67c-.092 0-.156.042-.156.156V19.94c0 .064.064.177.156.199 1.058.326 2.166.483 3.31.483 3.274 0 6.456-2.032 6.456-6.123 0-2.961-2.032-5.213-5.213-5.213a6.38 6.38 0 0 0-2.01.313l-.029-4.752c0-.156-.042-.177-.198-.177h-2.316Zm7.046 10.1c0 2.45-1.677 3.6-3.488 3.6-.376 0-.71-.021-1.015-.114v-6.448c.348-.135.767-.249 1.541-.249 1.747 0 2.962 1.108 2.962 3.21ZM96.415 15.565c1.08 0 1.967-.022 2.273-.093.113-.021.156-.064.177-.156.064-.241.093-.746.093-1.364 0-2.102-1.265-4.666-4.532-4.666-3.338 0-5.192 2.72-5.192 5.789 0 2.72 1.435 5.547 5.455 5.547 1.506 0 2.479-.242 3.317-.64.085-.042.128-.113.128-.241V17.9c0-.106-.064-.128-.128-.085-.838.355-1.747.533-2.742.533-2.251 0-3.274-1.243-3.338-2.784h4.489Zm-4.489-1.904c.178-1.08.86-2.251 2.387-2.251 1.683 0 2.123 1.413 2.123 2.052v.178c-.092.021-.376.021-1.214.021h-3.296Z"/></svg>