<svg xmlns="http://www.w3.org/2000/svg" width="53.76" height="64" fill="none" viewBox="0 0 42 50"><g clip-path="url(#a)"><path fill="#FF7D00" fill-rule="evenodd" d="M41.124 24.988v24.988h-8.936v-6.041l-6.15 3.42c-5.195 3.924-18.114 3.378-22.446-.949-3.876-3.871-4.818-13.975-1.825-19.563 2.175-4.06 10.9-7.21 19.964-7.21h6.883v-8.686l-12.511-.238H3.593V0h37.531zm-29.83 13.144c-1.722-4.482 1.855-8.564 8.57-9.785 3.338-.607 6.671-1.21 7.41-1.338.275-.05 1.34 0 1.34 0v9.382s-3.087 1.922-4.553 2.589c-6.398 2.91-11.45 2.575-12.768-.848Z" clip-rule="evenodd"/></g><defs><clipPath id="a"><path fill="#fff" d="M0 0h41.124v50H0z"/></clipPath></defs></svg>