<svg xmlns="http://www.w3.org/2000/svg" width="246.154" height="64" fill="none" viewBox="0 0 100 26"><g clip-path="url(#a)"><path fill="#F18618" d="M1.68 9.788h9.666v2.71l-3.644.283C1.832 13.218 0 14.77 0 19.14v.874c0 3.19 2.226 5.113 5.673 5.113 2.705 0 4.276-.634 6.196-2.6h.328V24.6h3.883V5.528H1.68v4.26Zm9.666 9.198c-1.2 1.202-2.99 1.988-4.473 1.988-1.593 0-2.27-.59-2.226-1.922.044-1.835.72-2.273 3.797-2.556l2.923-.284v2.774h-.021Z"/><path fill="#1F49D2" fill-rule="evenodd" d="M24.383 5.68h7.5v3.859h4.102v15.066h-4.782V9.93h-6.82v14.676h-4.781V0h4.78v5.68Zm69.83 7.63-2.894-.281c-1.601-.152-1.996-.564-1.996-1.821 0-1.43.57-1.778 2.807-1.778 1.996 0 2.566.325 2.851 1.67h4.496c-.11-4.531-1.535-5.68-7.106-5.68-6.097 0-7.632 1.149-7.632 5.788 0 4.249 1.118 5.398 5.658 5.831l2.369.217c2.127.195 2.654.586 2.654 1.865 0 1.539-.636 1.95-3.246 1.95-2.281 0-2.895-.346-3.005-1.82h-4.54c.11 4.682 1.557 5.875 7.347 5.875 6.427 0 8.028-1.28 8.028-6.439 0-3.837-1.163-4.943-5.79-5.376Zm-24.585.348c0-6.114-2.127-8.26-8.224-8.26-6.032 0-8.378 2.775-8.378 9.69 0 7.545 2.083 10.038 8.838 10.038 4.847 0 6.909-1.475 7.588-5.594h-4.605c-.526 1.28-1.075 1.561-3.048 1.561-2.961 0-3.73-.823-3.904-4.357h11.448c.175-1.04.263-2.06.285-3.078Zm-11.711-.672c.043-2.667 1.118-3.642 3.684-3.642 2.456 0 3.443.997 3.531 3.642h-7.215Zm14.496-6.46v18.101h4.782V9.755h5.746V5.702h-5.746v-.52c.043-1.106.329-1.432 1.25-1.432h5.22V.022H78.05C74.212 0 72.413 1.17 72.413 6.525Zm-28.16 18.08h-4.781V5.68h11.887v4.444h-7.106v14.481Z" clip-rule="evenodd"/></g><defs><clipPath id="a"><path fill="#fff" d="M0 0h100v25.126H0z"/></clipPath></defs></svg>