<svg xmlns="http://www.w3.org/2000/svg" width="60.16" height="64" fill="none" viewBox="0 0 47 50"><g clip-path="url(#a)"><path fill="#ff5a5f" d="M46.246 35.5c-.25-.6-.5-1.25-.75-1.8-.4-.9-.8-1.75-1.15-2.55l-.05-.05c-3.45-7.5-7.15-15.1-11.05-22.6l-.15-.3c-.4-.75-.8-1.55-1.2-2.35-.5-.9-1-1.85-1.8-2.75-1.6-2-3.9-3.1-6.35-3.1-2.5 0-4.75 1.1-6.4 3-.75.9-1.3 1.85-1.8 2.75-.4.8-.8 1.6-1.2 2.35l-.15.3c-3.85 7.5-7.6 15.1-11.05 22.6l-.05.1c-.35.8-.75 1.65-1.15 2.55q-.375.825-.75 1.8c-.65 1.85-.85 3.6-.6 5.4.55 3.75 3.05 6.9 6.5 8.3 1.3.55 2.65.8 4.05.8.4 0 .9-.05 1.3-.1 1.65-.2 3.35-.75 5-1.7 2.05-1.15 4-2.8 6.2-5.2 2.2 2.4 4.2 4.05 6.2 5.2 1.65.95 3.35 1.5 5 1.7.4.05.9.1 1.3.1 1.4 0 2.8-.25 4.05-.8 3.5-1.4 5.95-4.6 6.5-8.3.4-1.75.2-3.5-.45-5.35m-22.55 2.6c-2.7-3.4-4.45-6.6-5.05-9.3-.25-1.15-.3-2.15-.15-3.05.1-.8.4-1.5.8-2.1.95-1.35 2.55-2.2 4.4-2.2s3.5.8 4.4 2.2c.4.6.7 1.3.8 2.1.15.9.1 1.95-.15 3.05-.6 2.65-2.35 5.85-5.05 9.3m19.95 2.35c-.35 2.6-2.1 4.85-4.55 5.85-1.2.5-2.5.65-3.8.5-1.25-.15-2.5-.55-3.8-1.3-1.8-1-3.6-2.55-5.7-4.85 3.3-4.05 5.3-7.75 6.05-11.05.35-1.55.4-2.95.25-4.25-.2-1.25-.65-2.4-1.35-3.4-1.55-2.25-4.15-3.55-7.05-3.55s-5.5 1.35-7.05 3.55c-.7 1-1.15 2.15-1.35 3.4-.2 1.3-.15 2.75.25 4.25.75 3.3 2.8 7.05 6.05 11.1-2.05 2.3-3.9 3.85-5.7 4.85-1.3.75-2.55 1.15-3.8 1.3-1.35.15-2.65-.05-3.8-.5-2.45-1-4.2-3.25-4.55-5.85-.15-1.25-.05-2.5.45-3.9.15-.5.4-1 .65-1.6.35-.8.75-1.65 1.15-2.5l.05-.1c3.45-7.45 7.15-15.05 11-22.45l.15-.3c.4-.75.8-1.55 1.2-2.3.4-.8.85-1.55 1.4-2.2 1.05-1.2 2.45-1.85 4-1.85s2.95.65 4 1.85c.55.65 1 1.4 1.4 2.2.4.75.8 1.55 1.2 2.3l.15.3c3.8 7.45 7.5 15.05 10.95 22.5v.05c.4.8.75 1.7 1.15 2.5.25.6.5 1.1.65 1.6.4 1.3.55 2.55.35 3.85"/></g><defs><clipPath id="a"><path fill="#fff" d="M0 0h47v50H0z"/></clipPath></defs></svg>