<svg xmlns="http://www.w3.org/2000/svg" width="200" height="64" fill="none" viewBox="0 0 100 32"><g clip-path="url(#a)"><path fill="#FF5A5F" d="M52.557 7.82a2.02 2.02 0 0 1-2.025 2.024 2.02 2.02 0 0 1-2.025-2.025c0-1.121.873-2.025 2.025-2.025 1.153.032 2.025.935 2.025 2.025Zm-8.349 4.08v.499s-.965-1.246-3.022-1.246c-3.395 0-6.043 2.585-6.043 6.168 0 3.551 2.617 6.168 6.043 6.168 2.088 0 3.022-1.277 3.022-1.277v.53c0 .249.187.436.436.436h2.524V11.464h-2.524a.445.445 0 0 0-.436.436Zm0 7.508c-.467.685-1.402 1.277-2.523 1.277-1.994 0-3.52-1.246-3.52-3.364 0-2.119 1.526-3.365 3.52-3.365 1.09 0 2.087.623 2.523 1.278v4.174Zm4.829-7.944h2.99v11.714h-2.99V11.464Zm44.673-.311c-2.056 0-3.022 1.246-3.022 1.246V5.826h-2.99v17.352h2.523c.249 0 .436-.219.436-.437v-.53s.966 1.278 3.022 1.278c3.395 0 6.043-2.617 6.043-6.168 0-3.552-2.648-6.168-6.012-6.168Zm-.499 9.501c-1.152 0-2.056-.592-2.523-1.277v-4.174c.467-.624 1.464-1.278 2.523-1.278 1.994 0 3.52 1.246 3.52 3.365 0 2.118-1.526 3.364-3.52 3.364ZM86.14 16.23v6.979h-2.991v-6.636c0-1.931-.623-2.71-2.305-2.71-.904 0-1.838.467-2.43 1.153v8.162h-2.99V11.464h2.367c.249 0 .436.218.436.436v.499c.872-.904 2.025-1.246 3.177-1.246 1.309 0 2.4.373 3.272 1.121 1.059.872 1.464 1.994 1.464 3.957Zm-17.975-5.077c-2.056 0-3.022 1.246-3.022 1.246V5.826h-2.99v17.352h2.523c.249 0 .436-.219.436-.437v-.53s.965 1.278 3.021 1.278c3.396 0 6.044-2.617 6.044-6.168.031-3.552-2.617-6.168-6.012-6.168Zm-.499 9.501c-1.153 0-2.056-.592-2.523-1.277v-4.174c.467-.624 1.464-1.278 2.523-1.278 1.994 0 3.52 1.246 3.52 3.365 0 2.118-1.526 3.364-3.52 3.364Zm-8.1-9.501c.904 0 1.371.155 1.371.155v2.773s-2.492-.841-4.05.935v8.193h-2.99V11.464h2.523c.25 0 .436.218.436.436v.499c.56-.654 1.776-1.246 2.71-1.246ZM28.507 22.118c-.155-.373-.311-.778-.467-1.121-.25-.56-.498-1.09-.716-1.589l-.032-.031a325.125 325.125 0 0 0-6.884-14.081l-.094-.187c-.25-.467-.498-.966-.748-1.464-.311-.56-.623-1.153-1.121-1.714C17.448.685 16.015 0 14.489 0c-1.558 0-2.96.685-3.988 1.87-.467.56-.81 1.152-1.121 1.713-.25.498-.499.996-.748 1.464l-.094.187c-2.398 4.673-4.735 9.408-6.884 14.08l-.031.063c-.219.498-.468 1.028-.717 1.589-.156.342-.312.716-.467 1.121-.405 1.153-.53 2.243-.374 3.365a6.62 6.62 0 0 0 4.05 5.171c.81.343 1.65.498 2.523.498A8.23 8.23 0 0 0 10.563 30c1.278-.716 2.492-1.744 3.863-3.239 1.371 1.495 2.617 2.523 3.863 3.24a8.23 8.23 0 0 0 3.925 1.122c.873 0 1.745-.156 2.524-.499 2.18-.872 3.707-2.866 4.05-5.171.249-1.09.124-2.181-.28-3.334Zm-14.05 1.62c-1.682-2.118-2.772-4.112-3.146-5.794-.156-.717-.187-1.34-.094-1.9.063-.499.25-.935.499-1.309.592-.84 1.589-1.37 2.741-1.37 1.153 0 2.181.498 2.742 1.37.25.374.436.81.498 1.309.094.56.063 1.215-.093 1.9-.374 1.651-1.464 3.645-3.147 5.794Zm12.43 1.465a4.63 4.63 0 0 1-2.835 3.644c-.747.312-1.557.405-2.367.312-.779-.094-1.558-.343-2.368-.81-1.121-.623-2.243-1.589-3.551-3.022 2.056-2.523 3.302-4.829 3.77-6.885a7.81 7.81 0 0 0 .155-2.648 5.056 5.056 0 0 0-.841-2.118c-.966-1.402-2.586-2.212-4.393-2.212-1.806 0-3.426.841-4.392 2.212a5.055 5.055 0 0 0-.841 2.118 6.468 6.468 0 0 0 .156 2.648c.467 2.056 1.744 4.393 3.769 6.916-1.277 1.433-2.43 2.399-3.551 3.022-.81.467-1.59.717-2.368.81a4.982 4.982 0 0 1-2.368-.312 4.63 4.63 0 0 1-2.834-3.644 5.157 5.157 0 0 1 .28-2.43c.093-.312.25-.623.405-.997.218-.499.467-1.028.716-1.558l.032-.062a340.611 340.611 0 0 1 6.853-13.988l.094-.187c.249-.467.498-.965.747-1.433.25-.498.53-.965.873-1.37.654-.748 1.526-1.153 2.492-1.153s1.838.405 2.492 1.153c.343.405.623.872.872 1.37.25.468.499.966.748 1.433l.093.187a413.3 413.3 0 0 1 6.823 14.02v.03c.249.499.467 1.06.716 1.558.156.374.312.685.405.997.25.81.343 1.588.218 2.399Z"/></g><defs><clipPath id="a"><path fill="#fff" d="M0 0h100v31.153H0z"/></clipPath></defs></svg>