<svg xmlns="http://www.w3.org/2000/svg" width="76.19" height="64" fill="none" viewBox="0 0 50 42"><g clip-path="url(#a)"><path fill="#FCB400" d="M22.044.52 3.637 8.138c-1.024.424-1.013 1.878.017 2.287l18.484 7.33a6.86 6.86 0 0 0 5.057 0l18.484-7.33c1.03-.409 1.041-1.863.017-2.286L27.289.52a6.86 6.86 0 0 0-5.245 0"/><path fill="#18BFFF" d="M26.313 21.756v18.312c0 .87.878 1.467 1.687 1.146l20.597-7.995a1.23 1.23 0 0 0 .779-1.146V13.762c0-.871-.878-1.468-1.688-1.147L27.091 20.61a1.235 1.235 0 0 0-.779 1.146"/><path fill="#F82B60" d="m21.499 22.701-6.113 2.952-.62.3-12.904 6.183C1.044 32.53 0 31.934 0 31.026V13.838c0-.329.169-.613.395-.826q.14-.14.312-.235a1.32 1.32 0 0 1 1.122-.086l19.567 7.753c.995.395 1.073 1.788.103 2.257"/><path fill="#000" fill-opacity=".25" d="m21.503 22.701-6.113 2.952L.398 13.013a1.4 1.4 0 0 1 .313-.235 1.32 1.32 0 0 1 1.122-.086L21.4 20.445c.995.395 1.073 1.788.103 2.257"/></g><defs><clipPath id="a"><path fill="#fff" d="M0 0h50v41.861H0z"/></clipPath></defs></svg>