<svg xmlns="http://www.w3.org/2000/svg" width="64" height="64" fill="none" viewBox="0 0 32 32"><circle cx="16" cy="16" r="14" fill="#2D5E6E"/><path fill="#1E1D51" d="M29.325 16c0 7.359-5.966 13.324-13.325 13.324S2.675 23.36 2.675 16 8.641 2.675 16 2.675 29.325 8.641 29.325 16"/><path fill="url(#a)" d="M15.948 6.647a10.4 10.4 0 0 0-3.245.579v7.315h3.245zm-5.902 2.18c-1.692 1.437-2.885 3.417-3.29 5.661h3.29zm2.543 8.309v7.647c1.041.354 2.162.556 3.33.577v-8.224zm-5.844.02a9.7 9.7 0 0 0 3.322 6.015v-6.014z"/><path fill="url(#b)" d="M16.184 6.742c5.028.098 9.074 4.207 9.074 9.258s-4.046 9.158-9.074 9.256z"/><path fill="url(#c)" d="M12.462 7.342v7.406h3.435v2.186h-3.435v7.743a9.5 9.5 0 0 1-2.202-1.28v-6.463H6.68a9.4 9.4 0 0 1 .04-2.186h3.54V8.622a9.5 9.5 0 0 1 2.202-1.28"/><path fill="#9D0D16" d="M18.528 9.86h3.185v.444h-3.185z"/><path fill="url(#d)" d="M16.039 2c-4.847-.008-9.567 2.504-12.163 7C.012 15.692 2.308 24.26 9 28.124s15.26 1.568 19.124-5.125S29.692 7.74 23 3.876A13.9 13.9 0 0 0 16.039 2M16 2.675c7.355 0 13.325 5.97 13.325 13.325S23.355 29.324 16 29.324 2.675 23.354 2.675 16C2.675 8.645 8.645 2.675 16 2.675m-.802.467v2.761h.841v-.93l.68.93 1.107.163-.96-1.24c.211-.044.606-.268.606-.74 0-.704-.635-.93-1.034-.93zm1.063.605c.229 0 .391.155.399.325.007.17-.11.354-.37.354h-.265l-.015-.664zm3.967.157h-.045c-.726.015-1.34.456-1.486 1.175-.147.716.504 1.563 1.299 1.743.862.196 1.667-.213 1.849-1.143.155-.796-.43-1.578-1.299-1.743a2 2 0 0 0-.318-.032m-10.184.73-.753.398.354 3.116.798-.59-.104-.473.871-.517.399.295.916-.369zm10.204.033q.077 0 .155.015c.42.08.686.443.612.827-.073.384-.458.646-.877.566-.42-.08-.626-.486-.553-.87.064-.336.305-.539.663-.538m-10.175.955.635.488-.458.266zm14.045.4L21.755 7.66l.694.546 1.137-.886-.576 1.432.295.28 1.448-.59-.872 1.182.532.753 1.669-2.393-.532-.634-1.359.546.547-1.374zM16 6.37c-5.313 0-9.63 4.316-9.63 9.63 0 5.312 4.317 9.628 9.63 9.628s9.63-4.316 9.63-9.629S21.313 6.37 16 6.37m-8.821.315-1.152 1.33 2.008 1.787.562-.65-.768-.68.56-.605-.487-.443-.56.62-.281-.265.605-.665zm8.635.056v7.642h-2.996V7.302a9.2 9.2 0 0 1 2.996-.56m.37 0a9.26 9.26 0 0 1 8.073 5.066l-.06-.076c-.368-.458-.832-.761-1.227-1.015a.185.185 0 0 0-.25.047.6.6 0 0 1-.493.234h-1.706a.4.4 0 0 0-.236.074.32.32 0 0 0-.133.249v.194q.001.001-.01.01a.15.15 0 0 1-.086.026h-1.47l.002-.122v-.003a.7.7 0 0 0-.29-.555l-.003-.003h-.003l-.642-.437h-.001a.57.57 0 0 0-.325-.098.53.53 0 0 0-.422.242.566.566 0 0 0 .164.76l.301.231.002.002.003.001c.063.046.098.1.098.116l-.007.488v.003q0 .007-.002.01a.2.2 0 0 1-.058-.013c-.071-.024-.125-.054-.21-.086a.9.9 0 0 0-.33-.056.75.75 0 0 0-.679.42zm-3.736.704v7.308h3.366v2.158h-3.366v7.64a9.3 9.3 0 0 1-2.157-1.262v-6.378H6.784a9.4 9.4 0 0 1 .04-2.158h3.467V8.71a9.3 9.3 0 0 1 2.157-1.263m6.277 1.424a.274.274 0 1 0 0 .548.274.274 0 0 0 0-.548m.698 0a.274.274 0 1 0 0 .548.274.274 0 0 0 0-.548m.698 0a.274.274 0 1 0 0 .548.274.274 0 0 0 0-.548m.697 0a.274.274 0 1 0 0 .548.274.274 0 0 0 0-.548m.698 0a.274.274 0 1 0 0 .548.274.274 0 0 0 0-.548m-11.595.146v5.368H6.88a9.25 9.25 0 0 1 3.04-5.368m8.607.57v.445h3.185v-.445zm0 .598v.445h3.185v-.445zm8.868.002-2.51 1.019.708 1.654.665-.28-.37-.843.31-.147.355.812.606-.251-.34-.783.296-.132.354.841.62-.25zm-22.935.31-.354.783 2.451 1.137.783-1.595-.605-.31-.473.827zm12.873.206a.18.18 0 0 1 .11.037l.64.435c.08.058.134.165.134.252l-.008.6v.003c0 .236.12.438.274.579a.9.9 0 0 0 .307.188.9.9 0 0 0-.307.189.8.8 0 0 0-.274.578v.002l.008.603a.35.35 0 0 1-.139.254l-.637.432c-.062.041-.1.04-.136.032a.16.16 0 0 1-.095-.071c-.047-.073-.068-.158.07-.257l.002-.002.003-.002.306-.233c.104-.075.249-.2.249-.413v-.003l-.008-.491a.37.37 0 0 0-.143-.303c-.106-.08-.257-.09-.402-.043-.104.034-.171.07-.225.09a.5.5 0 0 1-.2.034.35.35 0 0 1-.29-.128.42.42 0 0 1-.097-.25v-.036a.42.42 0 0 1 .098-.25.35.35 0 0 1 .29-.127c.099 0 .145.012.199.033.054.02.122.057.225.09.145.048.296.038.402-.042a.38.38 0 0 0 .143-.306l.008-.489v-.002c0-.215-.15-.342-.254-.417l-.301-.23-.003-.002-.002-.002c-.138-.098-.117-.184-.07-.257a.16.16 0 0 1 .095-.07zm5.566.412c.354.231.722.493 1.01.85.322.401.55.917.55 1.678 0 1.428-1.334 2.576-2.617 2.576h-3.101a.32.32 0 0 0-.233.102.3.3 0 0 0-.076.21.3.3 0 0 0 .078.207.32.32 0 0 0 .231.102h3.028c1.088 0 1.668.701 1.668 1.528 0 .806-.602 1.564-1.661 1.564h-3.12a.3.3 0 0 0-.205.09.27.27 0 0 0-.07.185c0 .064.021.13.07.185.05.054.13.089.205.089h2.322c.5 0 .925.486.925.952 0 .236-.067.453-.215.612s-.385.273-.783.273h-1.393a.3.3 0 0 0-.167.05.24.24 0 0 0-.096.19.24.24 0 0 0 .098.18.3.3 0 0 0 .165.05h.924c.13 0 .226.057.302.15a.54.54 0 0 1 .12.326.43.43 0 0 1-.131.323.4.4 0 0 1-.234.09.3.3 0 0 0-.03-.186.32.32 0 0 0-.26-.154h-.554a.88.88 0 0 1-.563-.21.77.77 0 0 1-.265-.613c0-.258.107-.441.26-.573a.83.83 0 0 1 .506-.201h1.362a.3.3 0 0 0 .178-.046.24.24 0 0 0 .117-.199.24.24 0 0 0-.117-.199.33.33 0 0 0-.178-.045h-2.134c-.82 0-1.278-.58-1.278-1.207 0-.559.479-1.221 1.204-1.221h3.175a.3.3 0 0 0 .228-.102.3.3 0 0 0 .074-.205.3.3 0 0 0-.075-.202.3.3 0 0 0-.227-.101h-3.234c-.904 0-1.62-.67-1.62-1.683 0-.846.693-1.713 1.716-1.713h2.931c.16 0 .304-.072.392-.177a.56.56 0 0 0 .127-.361.56.56 0 0 0-.125-.364.52.52 0 0 0-.394-.177h-3.127l-.002-.176c0-.108.058-.217.153-.303a.5.5 0 0 1 .299-.135h1.752a.34.34 0 0 0 .201-.061.33.33 0 0 0 .128-.266c0-.126-.038-.19-.128-.266a.34.34 0 0 0-.2-.06h-1.753a.5.5 0 0 1-.3-.136.43.43 0 0 1-.152-.305v-.107h2.14a.5.5 0 0 0 .312-.104.37.37 0 0 0 .154-.291v-.16h1.04a1 1 0 0 0 .673-.253m1.887 1.962c.306.919.471 1.902.471 2.924a9.25 9.25 0 0 1-4.172 7.737.82.82 0 0 0 .144-.474.9.9 0 0 0-.204-.561l-.017-.019c.42-.02.741-.163.95-.386.226-.241.316-.558.316-.865 0-.454-.254-.89-.639-1.13h.141c1.24 0 2.032-.938 2.032-1.935 0-.845-.55-1.602-1.465-1.828 1.313-.247 2.487-1.428 2.487-2.898q-.001-.3-.044-.565m-8.603.066a.75.75 0 0 0 .68.42.9.9 0 0 0 .33-.057c.084-.032.138-.062.21-.085a.2.2 0 0 1 .058-.013v.012l.008.491c0 .015-.035.067-.098.113l-.003.001-.002.002-.306.234a.56.56 0 0 0-.16.757c.061.093.15.169.259.21a2.1 2.1 0 0 0-.466 1.302c0 1.029.667 1.808 1.551 2.004-.662.226-1.078.888-1.078 1.51 0 .815.646 1.578 1.649 1.578h.073q-.025.018-.049.038a1.12 1.12 0 0 0-.389.854c0 .381.161.69.392.892.23.201.524.301.807.301h.464l-.02.065a.19.19 0 0 0 .058.223.2.2 0 0 0 .075.034q.2.038.371.009a9.2 9.2 0 0 1-4.414 1.22zm-9.98.322-2.88.945-.103.857 2.732 1.477-.014-.99-.413-.19.062-1.018.483-.12zm21.177.089c-.964 0-1.447.79-1.447 1.58s.572 1.58 1.447 1.58 1.462-.716 1.462-1.58c0-.85-.513-1.58-1.462-1.58m-8.794.554h3.123c.064 0 .087.017.11.045a.2.2 0 0 1 .039.124c0 .05-.018.097-.041.125s-.047.045-.108.045H18.78q-.134 0-.262.016.069-.136.07-.296v-.059m8.813.303c.425 0 .672.396.672.723 0 .32-.256.724-.672.724s-.658-.351-.658-.724.233-.723.658-.723m-22.46.297-.036.567-.782-.363zm1.888 2.575H9.92v5.701a9.24 9.24 0 0 1-3.093-5.701m5.99 0h2.996v7.974a9.2 9.2 0 0 1-2.996-.56z"/><path fill="#9D0D16" d="M17.334 10.702a.18.18 0 0 1 .11.037l.64.434a.34.34 0 0 1 .133.253l-.007.6v.003c0 .236.12.438.274.579a.9.9 0 0 0 .307.188.9.9 0 0 0-.307.189.8.8 0 0 0-.274.578v.002l.007.603a.35.35 0 0 1-.138.254l-.637.432c-.062.041-.1.04-.136.032a.16.16 0 0 1-.095-.071c-.047-.073-.068-.159.07-.257l.002-.002.002-.002.307-.234c.104-.074.249-.198.249-.412v-.003l-.008-.491a.37.37 0 0 0-.143-.304c-.106-.08-.257-.09-.402-.042-.104.034-.171.07-.225.09a.5.5 0 0 1-.2.033.35.35 0 0 1-.29-.127.42.42 0 0 1-.097-.25v-.036a.42.42 0 0 1 .098-.25.35.35 0 0 1 .29-.127c.099 0 .145.012.199.033.054.02.122.057.225.09.145.048.296.038.402-.042a.38.38 0 0 0 .143-.306l.008-.489v-.002c0-.215-.15-.342-.254-.417l-.302-.23-.002-.002-.002-.002c-.138-.098-.117-.184-.07-.257a.17.17 0 0 1 .095-.07z"/><path fill="url(#e)" d="M22.9 11.114c.354.231.722.493 1.01.85.322.401.55.917.55 1.677 0 1.43-1.334 2.577-2.617 2.577h-3.101a.32.32 0 0 0-.233.102.3.3 0 0 0-.076.21.3.3 0 0 0 .078.207.32.32 0 0 0 .23.102h3.029c1.088 0 1.669.701 1.669 1.528 0 .806-.603 1.564-1.662 1.564h-3.12a.3.3 0 0 0-.205.09.27.27 0 0 0-.07.185.27.27 0 0 0 .275.274h2.322c.5 0 .925.486.925.952 0 .236-.067.453-.215.612s-.385.273-.783.273h-1.393a.3.3 0 0 0-.167.05.24.24 0 0 0-.096.19.23.23 0 0 0 .098.18.3.3 0 0 0 .165.05h.924c.13 0 .226.057.303.15.076.092.12.222.12.325a.43.43 0 0 1-.132.324.4.4 0 0 1-.234.09.3.3 0 0 0-.03-.186.31.31 0 0 0-.26-.154h-.554a.88.88 0 0 1-.563-.21.77.77 0 0 1-.265-.613c0-.258.107-.442.26-.574a.83.83 0 0 1 .506-.2h1.362a.33.33 0 0 0 .178-.046.24.24 0 0 0 .117-.199.24.24 0 0 0-.117-.199.33.33 0 0 0-.178-.045h-2.134c-.82 0-1.278-.58-1.278-1.207 0-.559.479-1.221 1.204-1.221h3.175a.3.3 0 0 0 .229-.102.3.3 0 0 0 .073-.205.3.3 0 0 0-.075-.202.3.3 0 0 0-.227-.101h-3.234c-.904 0-1.62-.67-1.62-1.683 0-.846.693-1.713 1.716-1.713h2.931c.16 0 .304-.072.392-.177a.56.56 0 0 0 .127-.361.56.56 0 0 0-.125-.364.52.52 0 0 0-.394-.177h-3.127l-.002-.176c0-.108.058-.217.153-.303a.5.5 0 0 1 .299-.135h1.752a.34.34 0 0 0 .201-.061.33.33 0 0 0 .128-.266c0-.126-.038-.19-.128-.266a.34.34 0 0 0-.2-.06h-1.753a.5.5 0 0 1-.3-.136.43.43 0 0 1-.152-.305v-.107h2.14a.5.5 0 0 0 .312-.104.37.37 0 0 0 .154-.291v-.16h1.04a1 1 0 0 0 .673-.253"/><defs><linearGradient id="a" x1="10.44" x2="16.401" y1="9.753" y2="25.938" gradientUnits="userSpaceOnUse"><stop stop-color="#fff"/><stop offset="1" stop-color="#53EEEF"/></linearGradient><linearGradient id="b" x1="16.294" x2="22.533" y1="7.15" y2="25.032" gradientUnits="userSpaceOnUse"><stop stop-color="#2F7FBE"/><stop offset="1" stop-color="#225D8B"/></linearGradient><linearGradient id="c" x1="8.196" x2="16.4" y1="9.49" y2="25.521" gradientUnits="userSpaceOnUse"><stop stop-color="#D50D16"/><stop offset=".5" stop-color="#880D16"/><stop offset="1" stop-color="#520D16"/></linearGradient><linearGradient id="d" x1="6.397" x2="24.517" y1="7.797" y2="23.274" gradientUnits="userSpaceOnUse"><stop stop-color="#F8FFBF"/><stop offset=".509" stop-color="#F8E45E"/><stop offset=".75" stop-color="#F8D35E"/><stop offset="1" stop-color="#EE8E0A"/></linearGradient><linearGradient id="e" x1="19.452" x2="23.127" y1="12.087" y2="23.015" gradientUnits="userSpaceOnUse"><stop stop-color="#157031"/><stop offset="1" stop-color="#0F5324"/></linearGradient></defs></svg>