<svg width="32" height="32" viewBox="0 0 32 32" fill="none" xmlns="http://www.w3.org/2000/svg">
<circle cx="16" cy="16" r="14" fill="#2D5E6E"/>
<path d="M29.3246 15.9996C29.3246 23.3586 23.359 29.3242 16.0001 29.3242C8.64109 29.3242 2.67549 23.3586 2.67548 15.9996C2.67548 8.64071 8.64109 2.67511 16.0001 2.67511C23.359 2.67511 29.3246 8.64071 29.3246 15.9996Z" fill="#1E1D51"/>
<path d="M15.9481 6.6474C14.8101 6.66881 13.7184 6.87134 12.7034 7.2256V14.5405H15.9481V6.6474ZM10.0462 8.82738C8.3541 10.2635 7.16088 12.2442 6.75516 14.4882H10.0462V8.82738ZM12.5886 17.1357V24.783C13.6302 25.1366 14.7506 25.3389 15.9185 25.3602V17.1357H12.5886ZM6.74451 17.1565C7.08182 19.5463 8.30033 21.6601 10.067 23.171V17.1565H6.74451V17.1565Z" fill="url(#paint0_linear_1261_219)"/>
<path d="M16.1841 6.74164C21.2119 6.83996 25.2581 10.9487 25.2581 15.9999C25.2581 21.0511 21.2118 25.1576 16.1841 25.2558V6.74164Z" fill="url(#paint1_linear_1261_219)"/>
<path d="M12.4617 7.34174V14.7477H15.8974V16.934H12.4617V24.6768C11.6735 24.3515 10.933 23.9212 10.2602 23.3975V16.934H6.6808C6.65056 16.627 6.63542 16.3187 6.63544 16.0102C6.63538 15.588 6.66379 15.1662 6.72048 14.7478H10.2602V8.62159C10.933 8.09774 11.6735 7.66723 12.4617 7.34174V7.34174Z" fill="url(#paint2_linear_1261_219)"/>
<path d="M18.528 9.8595H21.7129V10.3039H18.528V9.8595Z" fill="#9D0D16"/>
<path d="M16.0389 2.00002C11.1917 1.9923 6.47217 4.50372 3.87619 9.00007C0.0124141 15.6923 2.30817 24.2597 9.00042 28.1235C15.6927 31.9873 24.2601 29.6915 28.1238 22.9993C31.9876 16.307 29.6918 7.73961 22.9996 3.87583C20.8037 2.60803 18.4061 2.00378 16.0389 2.00002V2.00002ZM16 2.67497C23.3552 2.67497 29.3247 8.64451 29.3247 15.9997C29.3247 23.3548 23.3552 29.3244 16 29.3244C8.64485 29.3244 2.67532 23.3548 2.67532 15.9997C2.67532 8.64451 8.64485 2.67497 16 2.67497V2.67497ZM15.1977 3.14161V5.90349H16.0393V4.973L16.7189 5.90349L17.8263 6.06553L16.8666 4.82532C17.0772 4.78156 17.4721 4.55796 17.4721 4.08693C17.4721 3.38176 16.8371 3.15644 16.4384 3.15644L15.1977 3.14161V3.14161ZM16.2611 3.74713C16.49 3.74713 16.6523 3.90229 16.6597 4.07212C16.6671 4.24196 16.5496 4.42626 16.2907 4.42626H16.0245L16.0102 3.76195L16.2611 3.74713ZM20.2284 3.90407C20.2135 3.90398 20.1984 3.90423 20.1835 3.90453C19.4575 3.91931 18.8436 4.35955 18.6966 5.07854C18.5503 5.79463 19.2006 6.64199 19.9956 6.82242C20.8581 7.0182 21.6631 6.60864 21.8446 5.67896C22 4.88289 21.4149 4.10121 20.546 3.93553C20.4391 3.91517 20.333 3.90471 20.2284 3.90407V3.90407ZM10.0439 4.6332L9.29067 5.03178L9.64482 8.14781L10.4425 7.5571L10.3392 7.08491L11.2105 6.56781L11.609 6.86317L12.5247 6.49422L10.0439 4.6332V4.6332ZM20.2479 4.66745C20.2991 4.6676 20.351 4.67228 20.4034 4.68226C20.8227 4.7622 21.0888 5.12464 21.0154 5.50906C20.9422 5.89349 20.5569 6.15517 20.1377 6.07523C19.7185 5.9953 19.5117 5.58935 19.585 5.20491C19.6491 4.86855 19.8895 4.66647 20.2479 4.66745ZM10.0735 5.62249L10.7082 6.10996L10.2503 6.37569L10.0735 5.62249V5.62249ZM24.1176 6.02153L21.7548 7.66078L22.4487 8.20705L23.5861 7.321L23.0098 8.75333L23.3051 9.03388L24.7527 8.44317L23.8815 9.62458L24.413 10.3778L26.0818 7.98531L25.5499 7.35063L24.1912 7.89689L24.7379 6.52336L24.1176 6.02153V6.02153ZM16 6.37059C10.6868 6.37059 6.37048 10.6869 6.37048 16.0001C6.37048 21.3134 10.6868 25.6292 16 25.6292C21.3132 25.6292 25.6295 21.3134 25.6295 16.0001C25.6295 10.6869 21.3132 6.37059 16 6.37059ZM7.17876 6.68585L6.02698 8.01494L8.03518 9.80188L8.59672 9.15237L7.82871 8.47278L8.38979 7.86726L7.90232 7.42424L7.34125 8.04457L7.06071 7.77884L7.66623 7.11406L7.17876 6.68585V6.68585ZM15.8139 6.74186V14.384H12.8182V7.30156C13.7553 6.95853 14.7632 6.7626 15.8139 6.74186V6.74186ZM16.1842 6.74186C19.7103 6.81081 22.7535 8.85245 24.2569 11.8082C24.2376 11.7824 24.2179 11.757 24.1977 11.7319C23.8293 11.2743 23.3653 10.9708 22.97 10.7166C22.9385 10.6965 22.9017 10.6863 22.8644 10.6875C22.836 10.6883 22.8081 10.6957 22.783 10.709C22.7579 10.7223 22.7361 10.7412 22.7195 10.7643C22.6275 10.8917 22.4538 10.9976 22.2274 10.9976H20.5215C20.4359 10.9976 20.3546 11.021 20.2845 11.0717C20.2144 11.1225 20.1521 11.2133 20.1521 11.3208V11.5152C20.1512 11.5163 20.1497 11.5193 20.1423 11.5249C20.1257 11.5377 20.0929 11.5513 20.0563 11.5513H18.5864L18.5878 11.4286V11.4263C18.5878 11.2025 18.4737 10.9993 18.2976 10.8708L18.2948 10.8685L18.2925 10.8671L17.6499 10.4315L17.649 10.4305L17.6481 10.4301C17.5458 10.3626 17.4314 10.3306 17.3236 10.3329C17.2881 10.3337 17.2529 10.3383 17.2185 10.3468C17.0829 10.38 16.9726 10.4656 16.9014 10.575C16.7588 10.7938 16.7916 11.1396 17.0657 11.3356L17.3671 11.5661L17.3694 11.568L17.3717 11.5694C17.4351 11.6148 17.4703 11.6696 17.4703 11.6847L17.4629 12.1731V12.1758C17.4629 12.1818 17.462 12.1833 17.4615 12.1856C17.4531 12.1855 17.4368 12.1836 17.4032 12.1726C17.3319 12.1492 17.2778 12.1191 17.1939 12.0874C17.11 12.0557 17.0022 12.0305 16.8634 12.0305C16.6191 12.0305 16.4183 12.1407 16.2926 12.2874C16.2499 12.3372 16.2135 12.3921 16.1843 12.4508V6.74186H16.1842ZM12.4479 7.44646V14.7544H15.8139V16.9116H12.4479V24.5519C11.6752 24.2306 10.9496 23.8059 10.2911 23.2895V16.9116H6.78434C6.75472 16.6087 6.73989 16.3045 6.7399 16.0001C6.73984 15.5835 6.76768 15.1673 6.82323 14.7544H10.2911V8.70935C10.9496 8.19281 11.6752 7.76797 12.4479 7.44646V7.44646ZM18.7248 8.86999C18.5736 8.86999 18.4508 8.99277 18.4508 9.14405C18.4508 9.29534 18.5736 9.41811 18.7248 9.41811C18.8761 9.41811 18.9989 9.29534 18.9989 9.14405C18.9989 8.99277 18.8761 8.86999 18.7248 8.86999ZM19.4229 8.86999C19.2717 8.86999 19.1489 8.99277 19.1489 9.14405C19.1489 9.29534 19.2717 9.41811 19.4229 9.41811C19.5742 9.41811 19.697 9.29534 19.697 9.14405C19.697 8.99277 19.5742 8.86999 19.4229 8.86999ZM20.1206 8.86999C19.9693 8.86999 19.8465 8.99277 19.8465 9.14405C19.8465 9.29534 19.9693 9.41811 20.1206 9.41811C20.2719 9.41811 20.3946 9.29534 20.3946 9.14405C20.3946 8.99277 20.2719 8.86999 20.1206 8.86999ZM20.8182 8.86999C20.667 8.86999 20.5442 8.99277 20.5442 9.14405C20.5442 9.29534 20.667 9.41811 20.8182 9.41811C20.9695 9.41811 21.0923 9.29534 21.0923 9.14405C21.0923 8.99277 20.9695 8.86999 20.8182 8.86999ZM21.5163 8.86999C21.3651 8.86999 21.2423 8.99277 21.2423 9.14405C21.2423 9.29534 21.3651 9.41811 21.5163 9.41811C21.6676 9.41811 21.7904 9.29534 21.7904 9.14405C21.7904 8.99277 21.6676 8.86999 21.5163 8.86999ZM9.92073 9.0158V14.384H6.88063C7.25547 12.2559 8.35754 10.3778 9.92073 9.0158ZM18.5281 9.58614V10.0306H21.7131V9.58614H18.5281ZM18.5281 10.1843V10.6287H21.7131V10.1843H18.5281ZM27.3961 10.1861L24.8856 11.205L25.5943 12.8591L26.2587 12.5786L25.8897 11.7365L26.1999 11.5888L26.5545 12.4013L27.1595 12.1499L26.8202 11.3675L27.1156 11.2347L27.4697 12.0763L28.0901 11.8253L27.3961 10.1861V10.1861ZM4.46134 10.4963L4.10719 11.2786L6.55844 12.4161L7.34125 10.8208L6.73574 10.5106L6.26308 11.3379L4.46134 10.4963ZM17.3342 10.7023C17.3634 10.7006 17.3975 10.7082 17.4439 10.7389L18.0846 11.1736C18.1645 11.2318 18.2175 11.3395 18.2175 11.4263L18.21 12.0267V12.029C18.21 12.2655 18.3297 12.467 18.4841 12.6077C18.5752 12.6907 18.6795 12.7561 18.791 12.7961C18.6795 12.8361 18.5752 12.9016 18.4841 12.9845C18.3297 13.1253 18.21 13.3268 18.21 13.5632V13.5655L18.2175 14.1683C18.2175 14.2551 18.1589 14.3642 18.079 14.4224L17.442 14.8543C17.3802 14.8952 17.3423 14.8946 17.3064 14.8858C17.2705 14.877 17.2353 14.8516 17.2115 14.815C17.1638 14.7418 17.1431 14.6566 17.2809 14.5581L17.2833 14.5562L17.2856 14.5544L17.592 14.3206C17.6957 14.2464 17.8406 14.1218 17.8406 13.9076V13.9049L17.8332 13.4137C17.8332 13.3089 17.7956 13.1906 17.6897 13.1105C17.5838 13.0303 17.4326 13.0204 17.2879 13.0679C17.1845 13.1017 17.117 13.1382 17.0629 13.1586C17.0088 13.1791 16.963 13.1915 16.8634 13.1915C16.7238 13.1915 16.6381 13.139 16.5736 13.0637C16.509 12.9884 16.4759 12.8835 16.4759 12.8146V12.7776C16.4759 12.7087 16.509 12.6039 16.5736 12.5286C16.6381 12.4533 16.7238 12.4008 16.8634 12.4008C16.963 12.4008 17.0088 12.4132 17.0629 12.4337C17.117 12.4541 17.1845 12.4905 17.2879 12.5244C17.4326 12.5718 17.5838 12.5619 17.6897 12.4818C17.7956 12.4017 17.8332 12.2806 17.8332 12.1758L17.8406 11.6874V11.6846C17.8406 11.4705 17.6911 11.3426 17.5874 11.2684L17.2856 11.0379L17.2833 11.0361L17.2809 11.0342C17.1431 10.9357 17.1639 10.8504 17.2115 10.7773C17.2353 10.7407 17.2705 10.7152 17.3064 10.7064C17.3155 10.7042 17.3248 10.7028 17.3342 10.7023ZM22.8996 11.1138C23.2541 11.3455 23.6217 11.607 23.9093 11.9642C24.232 12.3652 24.4606 12.881 24.4606 13.6415C24.4606 15.0701 23.1264 16.2177 21.8432 16.2177H18.742C18.6538 16.2177 18.5637 16.2581 18.5091 16.3205C18.4545 16.3829 18.4326 16.4582 18.4332 16.5302C18.4338 16.6022 18.457 16.6758 18.5109 16.7371C18.5649 16.7985 18.6537 16.8394 18.742 16.8394H21.7696C22.8581 16.8394 23.4384 17.54 23.4384 18.3671C23.4384 19.1731 22.8356 19.9309 21.777 19.9309H18.6572C18.5816 19.9309 18.5013 19.9652 18.4517 20.0202C18.4021 20.0753 18.3814 20.1423 18.3818 20.2063C18.3822 20.2704 18.4031 20.3363 18.4522 20.3906C18.5013 20.4449 18.5814 20.4795 18.6572 20.4795H20.9793C21.4791 20.4795 21.9043 20.9665 21.9043 21.4317C21.9043 21.6676 21.8372 21.8854 21.689 22.0437C21.5408 22.2021 21.304 22.3169 20.9057 22.3169H19.5132C19.4577 22.3169 19.3993 22.329 19.3456 22.3678C19.2919 22.4066 19.248 22.4807 19.2503 22.5576C19.2525 22.6345 19.2969 22.7005 19.3484 22.7372C19.4 22.7739 19.4575 22.7872 19.5132 22.7872H20.4368C20.5671 22.7872 20.6634 22.8442 20.7395 22.9367C20.8157 23.0293 20.8599 23.159 20.8599 23.2626C20.8599 23.3918 20.8122 23.5111 20.728 23.5858C20.6733 23.6342 20.5978 23.6679 20.4942 23.676C20.4993 23.6227 20.5002 23.5623 20.4646 23.49C20.4223 23.4042 20.3045 23.3358 20.2044 23.3358H19.6503C19.4573 23.3358 19.2443 23.263 19.0869 23.1256C18.9295 22.9882 18.8216 22.7935 18.8216 22.5132C18.8216 22.2554 18.9294 22.0716 19.0823 21.9396C19.2351 21.8076 19.4382 21.7387 19.5878 21.7387H20.9498C21.0112 21.7387 21.0712 21.7281 21.1284 21.6933C21.1857 21.6586 21.2447 21.5853 21.2446 21.4942C21.2446 21.4032 21.1852 21.3299 21.128 21.2952C21.0708 21.2605 21.0112 21.2503 20.9498 21.2503H18.8161C17.9951 21.2503 17.5379 20.6693 17.5379 20.0429C17.5379 19.4841 18.0165 18.8217 18.742 18.8217H21.9173C22.0037 18.8217 22.0927 18.7814 22.1455 18.7198C22.1984 18.6583 22.2192 18.5851 22.2187 18.5152C22.2182 18.4454 22.1965 18.3735 22.1441 18.3129C22.0918 18.2524 22.0039 18.2116 21.9173 18.2116H18.6833C17.7792 18.2116 17.0639 17.5411 17.0639 16.5288C17.0639 15.6831 17.7559 14.8159 18.7791 14.8159H21.7104C21.8702 14.8159 22.0137 14.744 22.1016 14.6391C22.1895 14.5341 22.2287 14.4048 22.2293 14.2775C22.23 14.1502 22.192 14.0198 22.1039 13.9141C22.0157 13.8085 21.8713 13.7368 21.7104 13.7368H18.5828L18.5805 13.5613C18.5805 13.4531 18.6393 13.3441 18.7337 13.2581C18.8281 13.1721 18.9551 13.1229 19.0328 13.1229H20.7855C20.8533 13.1229 20.9204 13.1073 20.9864 13.0618C21.0523 13.0164 21.1137 12.9184 21.1137 12.7961C21.1137 12.6701 21.0762 12.6064 20.9864 12.5304C20.9204 12.4849 20.8533 12.4693 20.7855 12.4693H19.0328C18.9551 12.4693 18.8281 12.4201 18.7337 12.3341C18.6393 12.2481 18.5805 12.1373 18.5805 12.029L18.5819 11.9216H20.7211C20.8395 11.9216 20.9476 11.8836 21.0327 11.8184C21.1177 11.7531 21.1873 11.653 21.1873 11.5267V11.3679H22.2275C22.4973 11.368 22.7318 11.2674 22.8996 11.1138V11.1138ZM24.787 13.0758C25.0928 13.995 25.2582 14.9784 25.2582 16.0001C25.2582 19.2345 23.5996 22.0813 21.0863 23.7367C21.1844 23.5971 21.2302 23.4288 21.2302 23.2627C21.2302 23.0647 21.1592 22.864 21.0256 22.7016C21.0204 22.6952 21.014 22.6894 21.0085 22.6831C21.4298 22.6627 21.7504 22.5202 21.9594 22.297C22.1852 22.0558 22.2746 21.7387 22.2746 21.4318C22.2746 20.9783 22.0208 20.5419 21.6362 20.3013H21.777C23.0177 20.3013 23.8088 19.364 23.8088 18.3671C23.8088 17.5219 23.259 16.7647 22.3445 16.539C23.6575 16.2924 24.831 15.1109 24.831 13.6415C24.831 13.4403 24.8154 13.2522 24.787 13.0758V13.0758ZM16.1842 13.1415C16.2135 13.2002 16.2499 13.2551 16.2926 13.3049C16.4183 13.4516 16.619 13.5618 16.8634 13.5618C17.0021 13.5618 17.11 13.5366 17.1939 13.5049C17.2778 13.4732 17.3319 13.4431 17.4031 13.4197C17.4368 13.4087 17.453 13.4068 17.4615 13.4067C17.462 13.4091 17.4629 13.4107 17.4629 13.4165V13.4193L17.4703 13.9104C17.4703 13.9255 17.4351 13.9775 17.3717 14.0229L17.3694 14.0243L17.367 14.0262L17.061 14.2604C16.7869 14.4564 16.7588 14.7985 16.9013 15.0173C16.962 15.1104 17.051 15.186 17.1597 15.227C16.8631 15.5984 16.6935 16.0624 16.6935 16.5288C16.6935 17.5575 17.3606 18.3372 18.2452 18.5328C17.5826 18.7593 17.1675 19.4212 17.1675 20.0429C17.1675 20.8582 17.8132 21.6206 18.816 21.6206H18.8887C18.8725 21.6333 18.8559 21.6454 18.8401 21.6591C18.6179 21.8509 18.4512 22.1468 18.4512 22.5132C18.4512 22.894 18.6123 23.2035 18.8429 23.4048C19.0735 23.6061 19.3673 23.7062 19.6503 23.7062H20.1141C20.1045 23.74 20.0937 23.7714 20.0937 23.7714C20.0826 23.7968 20.0772 23.8244 20.0781 23.8521C20.079 23.8799 20.0861 23.907 20.0989 23.9316C20.1117 23.9563 20.1298 23.9777 20.152 23.9944C20.1742 24.011 20.1999 24.0225 20.2271 24.0279C20.3596 24.0541 20.4849 24.056 20.5983 24.0367C19.2933 24.7849 17.7888 25.2247 16.1842 25.2561V13.1415V13.1415ZM6.20428 13.4642L3.32437 14.4095L3.22113 15.2659L5.95338 16.7427L5.93857 15.7534L5.52563 15.5622L5.58767 14.5451L6.07143 14.4243L6.20428 13.4642V13.4642ZM27.3813 13.553C26.4173 13.553 25.9341 14.343 25.9341 15.133C25.9341 15.9231 26.5058 16.7135 27.3813 16.7135C28.2564 16.7135 28.8432 15.997 28.8432 15.133C28.8432 14.2839 28.3304 13.553 27.3813 13.553ZM18.5869 14.1072H21.7103C21.7736 14.1072 21.7968 14.1244 21.8196 14.1516C21.8423 14.1789 21.8592 14.2258 21.8589 14.2757C21.8586 14.3256 21.8412 14.3732 21.8177 14.4011C21.7943 14.4291 21.7709 14.4456 21.7103 14.4456H18.779C18.6898 14.4456 18.6026 14.4513 18.5175 14.4618C18.5624 14.3714 18.5878 14.2711 18.5878 14.166V14.1637L18.5869 14.1072V14.1072ZM27.3998 14.4095C27.8247 14.4095 28.0724 14.8062 28.0724 15.133C28.0724 15.4525 27.8155 15.8566 27.3998 15.8566C26.9839 15.8566 26.742 15.5059 26.742 15.133C26.742 14.7602 26.9749 14.4095 27.3998 14.4095ZM4.93955 14.7071L4.90436 15.2738L4.12201 14.9113L4.93955 14.7071ZM6.82786 17.282H9.92073V22.9831C8.27621 21.5508 7.14184 19.5472 6.82786 17.282ZM12.8182 17.282H15.8139V25.2561C14.7632 25.2353 13.7553 25.0392 12.8182 24.6964V17.282Z" fill="url(#paint3_linear_1261_219)"/>
<path d="M17.3341 10.7022C17.3633 10.7006 17.3974 10.7082 17.4438 10.7388L18.0845 11.1735C18.1644 11.2318 18.2174 11.3394 18.2174 11.4263L18.21 12.0267V12.029C18.21 12.2655 18.3296 12.467 18.484 12.6077C18.5751 12.6906 18.6794 12.7561 18.791 12.7961C18.6794 12.8361 18.5751 12.9015 18.484 12.9845C18.3296 13.1252 18.21 13.3267 18.21 13.5632V13.5655L18.2174 14.1682C18.2174 14.2551 18.1588 14.3642 18.079 14.4224L17.442 14.8543C17.3801 14.8951 17.3422 14.8945 17.3063 14.8857C17.2705 14.877 17.2353 14.8515 17.2114 14.8149C17.1638 14.7418 17.143 14.6565 17.2809 14.558L17.2832 14.5561L17.2855 14.5543L17.592 14.3205C17.6956 14.2464 17.8406 14.1217 17.8406 13.9076V13.9048L17.8332 13.4136C17.8332 13.3088 17.7955 13.1905 17.6896 13.1104C17.5838 13.0303 17.4326 13.0204 17.2878 13.0678C17.1845 13.1017 17.117 13.1381 17.0628 13.1585C17.0087 13.179 16.9629 13.1914 16.8633 13.1914C16.7238 13.1914 16.6381 13.1389 16.5735 13.0636C16.509 12.9884 16.4758 12.8835 16.4758 12.8146V12.7776C16.4758 12.7087 16.509 12.6038 16.5735 12.5285C16.6381 12.4532 16.7238 12.4007 16.8633 12.4007C16.9629 12.4007 17.0087 12.4132 17.0628 12.4336C17.1169 12.4541 17.1845 12.4905 17.2878 12.5243C17.4326 12.5718 17.5838 12.5619 17.6896 12.4818C17.7955 12.4016 17.8332 12.2806 17.8332 12.1758L17.8406 11.6874V11.6846C17.8406 11.4704 17.691 11.3426 17.5873 11.2684L17.2855 11.0379L17.2832 11.036L17.2809 11.0342C17.1431 10.9356 17.1638 10.8504 17.2114 10.7772C17.2353 10.7407 17.2705 10.7152 17.3063 10.7064C17.3155 10.7042 17.3247 10.7028 17.3341 10.7022Z" fill="#9D0D16"/>
<path d="M22.8997 11.1138C23.2541 11.3455 23.6218 11.607 23.9094 11.9642C24.2322 12.3652 24.4607 12.881 24.4607 13.6414C24.4607 15.0701 23.1265 16.2176 21.8432 16.2176H18.7419C18.6538 16.2176 18.5637 16.258 18.5091 16.3204C18.4545 16.3828 18.4326 16.4581 18.4331 16.5301C18.4337 16.6021 18.4569 16.6757 18.5109 16.7371C18.5649 16.7984 18.6537 16.8394 18.7419 16.8394H21.7696C22.8582 16.8394 23.4385 17.54 23.4385 18.367C23.4385 19.1731 22.8357 19.9308 21.777 19.9308H18.6572C18.5816 19.9308 18.5013 19.9651 18.4517 20.0201C18.4021 20.0752 18.3814 20.1422 18.3818 20.2062C18.3822 20.2703 18.403 20.3362 18.4521 20.3905C18.5012 20.4448 18.5813 20.4794 18.6572 20.4794H20.9794C21.4792 20.4794 21.9043 20.9664 21.9043 21.4316C21.9043 21.6675 21.8373 21.8853 21.6891 22.0436C21.5408 22.2019 21.304 22.3167 20.9058 22.3167H19.5132C19.4577 22.3167 19.3993 22.3289 19.3456 22.3677C19.2919 22.4065 19.248 22.4805 19.2503 22.5575C19.2525 22.6344 19.2968 22.7004 19.3484 22.7371C19.4 22.7738 19.4575 22.7871 19.5132 22.7871H20.4368C20.5671 22.7871 20.6634 22.8441 20.7396 22.9366C20.8157 23.0292 20.8599 23.1589 20.8599 23.2625C20.8599 23.3916 20.8122 23.5109 20.728 23.5856C20.6734 23.6341 20.5978 23.6678 20.4942 23.6759C20.4993 23.6226 20.5002 23.5621 20.4646 23.4898C20.4223 23.404 20.3045 23.3357 20.2044 23.3357H19.6503C19.4573 23.3357 19.2443 23.2629 19.0869 23.1255C18.9295 22.9881 18.8216 22.7934 18.8216 22.513C18.8216 22.2553 18.9294 22.0715 19.0822 21.9395C19.2351 21.8075 19.4382 21.7385 19.5878 21.7385H20.9498C21.0113 21.7385 21.0712 21.7279 21.1285 21.6932C21.1858 21.6584 21.2448 21.5852 21.2447 21.4941C21.2446 21.4031 21.1852 21.3298 21.128 21.2951C21.0708 21.2603 21.0113 21.2502 20.9498 21.2502H18.8161C17.9951 21.2502 17.5379 20.6692 17.5379 20.0428C17.5379 19.484 18.0165 18.8216 18.742 18.8216H21.9173C22.0038 18.8216 22.0927 18.7813 22.1456 18.7198C22.1985 18.6583 22.2192 18.585 22.2187 18.5152C22.2182 18.4453 22.1965 18.3734 22.1442 18.3129C22.0919 18.2523 22.004 18.2115 21.9174 18.2115H18.6832C17.7791 18.2115 17.0638 17.5411 17.0638 16.5287C17.0638 15.6831 17.7558 14.8159 18.7791 14.8159H21.7104C21.8703 14.8159 22.0137 14.744 22.1016 14.639C22.1896 14.5341 22.2287 14.4048 22.2294 14.2775C22.2301 14.1502 22.1921 14.0197 22.1039 13.9141C22.0158 13.8084 21.8713 13.7368 21.7104 13.7368H18.5828L18.5805 13.5613C18.5805 13.453 18.6393 13.3441 18.7337 13.2581C18.8281 13.1721 18.9551 13.1229 19.0328 13.1229H20.7855C20.8533 13.1229 20.9204 13.1072 20.9864 13.0618C21.0524 13.0164 21.1137 12.9184 21.1137 12.7961C21.1137 12.6701 21.0762 12.6064 20.9864 12.5304C20.9204 12.4849 20.8533 12.4692 20.7855 12.4692H19.0328C18.9551 12.4692 18.8281 12.4201 18.7337 12.3341C18.6393 12.2481 18.5805 12.1373 18.5805 12.029L18.5818 11.9216H20.7211C20.8395 11.9216 20.9476 11.8836 21.0327 11.8184C21.1178 11.7531 21.1873 11.653 21.1873 11.5267V11.3679H22.2276C22.4973 11.368 22.7318 11.2674 22.8997 11.1138V11.1138Z" fill="url(#paint4_linear_1261_219)"/>
<defs>
<linearGradient id="paint0_linear_1261_219" x1="10.4402" y1="9.7528" x2="16.4006" y2="25.9384" gradientUnits="userSpaceOnUse">
<stop stop-color="white"/>
<stop offset="1" stop-color="#53EEEF"/>
</linearGradient>
<linearGradient id="paint1_linear_1261_219" x1="16.2941" y1="7.15044" x2="22.5327" y2="25.032" gradientUnits="userSpaceOnUse">
<stop stop-color="#2F7FBE"/>
<stop offset="1" stop-color="#225D8B"/>
</linearGradient>
<linearGradient id="paint2_linear_1261_219" x1="8.19624" y1="9.49015" x2="16.3996" y2="25.5215" gradientUnits="userSpaceOnUse">
<stop stop-color="#D50D16"/>
<stop offset="0.5" stop-color="#880D16"/>
<stop offset="1" stop-color="#520D16"/>
</linearGradient>
<linearGradient id="paint3_linear_1261_219" x1="6.39688" y1="7.79746" x2="24.5169" y2="23.2742" gradientUnits="userSpaceOnUse">
<stop stop-color="#F8FFBF"/>
<stop offset="0.509" stop-color="#F8E45E"/>
<stop offset="0.75" stop-color="#F8D35E"/>
<stop offset="1" stop-color="#EE8E0A"/>
</linearGradient>
<linearGradient id="paint4_linear_1261_219" x1="19.4517" y1="12.0868" x2="23.1269" y2="23.015" gradientUnits="userSpaceOnUse">
<stop stop-color="#157031"/>
<stop offset="1" stop-color="#0F5324"/>
</linearGradient>
</defs>
</svg>
