<svg xmlns="http://www.w3.org/2000/svg" width="206.452" height="64" fill="none" viewBox="0 0 100 31"><g clip-path="url(#a)"><path fill="#f90" d="M62.02 23.58c-5.803 4.278-14.216 6.56-21.46 6.56-10.156 0-19.299-3.756-26.216-10.004-.544-.491-.057-1.16.595-.778 7.465 4.343 16.696 6.956 26.23 6.956 6.43 0 13.504-1.33 20.008-4.091.983-.418 1.805.643.844 1.357Z"/><path fill="#f90" d="M64.436 20.819c-.74-.948-4.905-.448-6.774-.226-.57.07-.657-.427-.143-.783 3.317-2.335 8.76-1.66 9.395-.878.635.787-.165 6.243-3.282 8.847-.479.4-.935.187-.722-.343.7-1.748 2.27-5.665 1.526-6.617"/><path fill="#221f1f" d="M57.797 3.328v-2.27a.56.56 0 0 1 .574-.574h10.16c.327 0 .588.235.588.574v1.944c-.005.326-.279.752-.766 1.426l-5.265 7.517c1.957-.048 4.022.243 5.796 1.243.4.226.508.557.539.883v2.422c0 .33-.365.717-.748.517-3.126-1.64-7.278-1.817-10.734.017-.353.192-.722-.19-.722-.521v-2.3c0-.37.004-1 .374-1.561l6.1-8.748h-5.309c-.326 0-.587-.23-.587-.57ZM20.73 17.488h-3.092a.584.584 0 0 1-.552-.526V1.097a.58.58 0 0 1 .596-.57h2.882c.3.014.54.244.561.531v2.074h.056c.753-2.004 2.166-2.939 4.07-2.939 1.935 0 3.143.935 4.013 2.94.748-2.005 2.448-2.94 4.27-2.94 1.295 0 2.712.535 3.578 1.735.978 1.335.778 3.274.778 4.974l-.005 10.012a.584.584 0 0 1-.595.574h-3.087a.587.587 0 0 1-.556-.573v-8.41c0-.669.06-2.338-.087-2.973-.23-1.065-.922-1.365-1.818-1.365-.748 0-1.53.5-1.848 1.3-.317.8-.286 2.139-.286 3.039v8.409a.584.584 0 0 1-.596.573h-3.087a.584.584 0 0 1-.557-.573l-.004-8.41c0-1.769.291-4.373-1.904-4.373-2.222 0-2.135 2.54-2.135 4.374v8.409a.584.584 0 0 1-.596.573ZM77.863.193c4.587 0 7.07 3.939 7.07 8.948 0 4.839-2.744 8.678-7.07 8.678-4.504 0-6.957-3.94-6.957-8.848 0-4.939 2.483-8.778 6.957-8.778m.026 3.239c-2.278 0-2.422 3.104-2.422 5.04 0 1.938-.03 6.077 2.396 6.077 2.395 0 2.508-3.339 2.508-5.374 0-1.339-.056-2.939-.46-4.208-.348-1.105-1.04-1.535-2.022-1.535m12.992 14.056h-3.078a.59.59 0 0 1-.556-.573l-.005-15.87a.585.585 0 0 1 .596-.517h2.865a.59.59 0 0 1 .552.443v2.426h.057c.865-2.17 2.078-3.204 4.213-3.204 1.386 0 2.739.5 3.608 1.87.809 1.269.809 3.404.809 4.939v9.986a.594.594 0 0 1-.596.5h-3.1c-.282-.021-.517-.23-.547-.5V8.371c0-1.735.2-4.274-1.935-4.274-.752 0-1.444.505-1.787 1.27-.435.97-.491 1.935-.491 3.004v8.543a.594.594 0 0 1-.605.574M9.171 9.91v-.67c-2.235 0-4.596.479-4.596 3.114 0 1.334.692 2.239 1.879 2.239.87 0 1.647-.535 2.139-1.405.608-1.07.578-2.074.578-3.278m3.117 7.535a.65.65 0 0 1-.73.074c-1.026-.852-1.209-1.248-1.774-2.061-1.696 1.73-2.896 2.248-5.096 2.248-2.6 0-4.625-1.605-4.625-4.818 0-2.508 1.36-4.217 3.295-5.052 1.678-.739 4.022-.87 5.813-1.074v-.4c0-.734.057-1.604-.374-2.239-.378-.57-1.1-.804-1.735-.804-1.178 0-2.23.604-2.487 1.856-.052.279-.256.553-.534.566l-3-.322C.789 5.362.51 5.159.58 4.77 1.27 1.136 4.554.041 7.493.041c1.504 0 3.47.4 4.656 1.539 1.505 1.404 1.361 3.278 1.361 5.317v4.817c0 1.448.6 2.083 1.165 2.866.2.278.244.613-.009.821-.63.526-1.752 1.505-2.369 2.052zM49.241 9.91v-.67c-2.234 0-4.595.479-4.595 3.114 0 1.334.691 2.239 1.878 2.239.87 0 1.648-.535 2.139-1.405.609-1.07.578-2.074.578-3.278m3.118 7.535a.65.65 0 0 1-.73.074c-1.027-.852-1.21-1.248-1.775-2.061-1.695 1.73-2.895 2.248-5.095 2.248-2.6 0-4.626-1.605-4.626-4.818 0-2.508 1.36-4.217 3.295-5.052 1.679-.739 4.022-.87 5.813-1.074v-.4c0-.734.057-1.604-.373-2.239-.379-.57-1.1-.804-1.735-.804-1.179 0-2.23.604-2.487 1.856-.053.279-.257.553-.535.566l-3-.322c-.252-.057-.53-.26-.46-.648.69-3.635 3.973-4.73 6.912-4.73 1.505 0 3.47.4 4.656 1.539 1.505 1.404 1.361 3.278 1.361 5.317v4.817c0 1.448.6 2.083 1.166 2.866.2.278.243.613-.01.821-.63.526-1.751 1.505-2.369 2.052z"/></g><defs><clipPath id="a"><path fill="#fff" d="M0 0h100v30.182H0z"/></clipPath></defs></svg>