<svg xmlns="http://www.w3.org/2000/svg" width="64" height="64" fill="none" viewBox="0 0 50 50"><g clip-path="url(#a)"><path fill="#f90" d="M43.043 40.367c-20.24 9.633-32.8 1.574-40.842-3.321-.497-.309-1.343.072-.61.915 2.68 3.248 11.459 11.077 22.918 11.077 11.467 0 18.288-6.257 19.142-7.349.847-1.082.249-1.679-.608-1.322m5.684-3.139c-.543-.708-3.304-.84-5.042-.626-1.741.207-4.354 1.271-4.127 1.91.117.24.355.132 1.55.024 1.2-.12 4.559-.543 5.258.372.704.921-1.07 5.31-1.395 6.017-.313.708.12.89.708.42.58-.472 1.63-1.692 2.335-3.42.7-1.736 1.126-4.158.713-4.697"/><path fill="#000" fill-rule="evenodd" d="M29.436 20.712c0 2.528.064 4.636-1.214 6.88-1.03 1.825-2.664 2.947-4.489 2.947-2.49 0-3.942-1.898-3.942-4.699 0-5.53 4.955-6.533 9.645-6.533zm6.542 15.813c-.429.383-1.05.41-1.533.155-2.153-1.788-2.536-2.618-3.722-4.325-3.559 3.632-6.077 4.718-10.694 4.718-5.457 0-9.709-3.367-9.709-10.11 0-5.265 2.856-8.851 6.916-10.603 3.523-1.551 8.44-1.825 12.2-2.253v-.84c0-1.542.119-3.367-.785-4.7-.794-1.194-2.308-1.687-3.64-1.687-2.473 0-4.681 1.268-5.22 3.896-.11.584-.538 1.159-1.122 1.186l-6.296-.675c-.529-.119-1.113-.547-.967-1.36C12.857 2.3 19.746 0 25.914 0c3.157 0 7.281.84 9.772 3.23 3.157 2.947 2.856 6.88 2.856 11.16V24.5c0 3.038 1.26 4.37 2.445 6.012.42.584.511 1.287-.018 1.724a274 274 0 0 0-4.973 4.307z" clip-rule="evenodd"/><path fill="#f90" d="M43.043 40.367c-20.24 9.633-32.8 1.574-40.842-3.321-.497-.309-1.343.072-.61.915 2.68 3.248 11.459 11.077 22.918 11.077 11.467 0 18.288-6.257 19.142-7.349.847-1.082.249-1.679-.608-1.322m5.684-3.139c-.543-.708-3.304-.84-5.042-.626-1.741.207-4.354 1.271-4.127 1.91.117.24.355.132 1.55.024 1.2-.12 4.559-.543 5.258.372.704.921-1.07 5.31-1.395 6.017-.313.708.12.89.708.42.58-.472 1.63-1.692 2.335-3.42.7-1.736 1.126-4.158.713-4.697"/><path fill="#000" fill-rule="evenodd" d="M29.436 20.712c0 2.528.064 4.636-1.214 6.88-1.03 1.825-2.664 2.947-4.489 2.947-2.49 0-3.942-1.898-3.942-4.699 0-5.53 4.955-6.533 9.645-6.533zm6.542 15.813c-.429.383-1.05.41-1.533.155-2.153-1.788-2.536-2.618-3.722-4.325-3.559 3.632-6.077 4.718-10.694 4.718-5.457 0-9.709-3.367-9.709-10.11 0-5.265 2.856-8.851 6.916-10.603 3.523-1.551 8.44-1.825 12.2-2.253v-.84c0-1.542.119-3.367-.785-4.7-.794-1.194-2.308-1.687-3.64-1.687-2.473 0-4.681 1.268-5.22 3.896-.11.584-.538 1.159-1.122 1.186l-6.296-.675c-.529-.119-1.113-.547-.967-1.36C12.857 2.3 19.746 0 25.914 0c3.157 0 7.281.84 9.772 3.23 3.157 2.947 2.856 6.88 2.856 11.16V24.5c0 3.038 1.26 4.37 2.445 6.012.42.584.511 1.287-.018 1.724a274 274 0 0 0-4.973 4.307z" clip-rule="evenodd"/></g><defs><clipPath id="a"><path fill="#fff" d="M0 0h50v50H0z"/></clipPath></defs></svg>