<svg xmlns="http://www.w3.org/2000/svg" width="67.429" height="64" fill="none" viewBox="0 0 59 56"><g clip-path="url(#a)"><path fill="#0077A6" fill-rule="evenodd" d="M1.817 55h-.183c0-.09-.046-.228-.046-.274s0-.137-.137-.137h-.275v.412h-.138v-.962h.413c.183 0 .32.046.32.229 0 .137-.046.184-.091.229.046.046.091.092.091.183v.183c0 .046 0 .046.046.046zm-.183-.686c0-.137-.092-.137-.138-.137h-.32v.275h.275c.091 0 .183-.047.183-.138m.779.183c0-.55-.458-1.008-1.054-1.008-.55 0-1.008.459-1.008 1.008 0 .595.459 1.054 1.008 1.054.595 0 1.054-.459 1.054-1.054m-.138 0c0 .504-.412.87-.916.87a.84.84 0 0 1-.87-.87.87.87 0 0 1 .87-.87c.504 0 .916.412.916.87m56.43-18.504c0 1.374-.871 2.015-2.429 2.015H53.3v-1.375h2.976c.275 0 .505-.045.596-.137a.58.58 0 0 0 .183-.412.7.7 0 0 0-.183-.458q-.137-.138-.55-.137c-1.419-.046-3.205.045-3.205-1.97 0-.916.595-1.924 2.198-1.924h3.069v1.374h-2.84c-.275 0-.458 0-.596.092-.137.137-.228.275-.228.504s.137.366.32.458c.184.046.367.092.596.092h.824c.87 0 1.42.182 1.787.504.274.32.457.733.457 1.374m-6.459-1.374c-.367-.322-.916-.504-1.787-.504h-.824c-.228 0-.412-.047-.595-.092-.184-.092-.32-.23-.32-.458 0-.23.045-.367.228-.504.138-.092.32-.092.596-.092h2.84v-1.374h-3.07c-1.648 0-2.198 1.008-2.198 1.924 0 2.015 1.787 1.924 3.207 1.97q.411 0 .549.137a.7.7 0 0 1 .183.458c0 .183-.092.32-.183.412-.138.092-.32.137-.596.137H47.3v1.375h2.977c1.557 0 2.428-.641 2.428-2.015 0-.641-.183-1.054-.458-1.374m-5.863 2.06h-3.618v-1.282h3.527v-1.282h-3.527v-1.191h3.618v-1.328h-5.13v6.412h5.13zm-6.779-4.762c-.504-.275-1.099-.322-1.877-.322H34.2v6.413h1.557v-2.336h1.65c.548 0 .87.046 1.098.275.275.32.275.87.275 1.282v.779h1.511V36.77c0-.596-.045-.87-.228-1.19-.138-.184-.412-.413-.779-.55.412-.137 1.1-.687 1.1-1.695 0-.733-.276-1.145-.78-1.42m-8.702-.322h-4.901l-1.97 2.108-1.877-2.108H15.97v6.413h6.092l1.97-2.108 1.878 2.108h2.977v-2.153h1.924c1.328 0 2.657-.366 2.657-2.152 0-1.741-1.375-2.108-2.566-2.108m7.466 2.657c-.23.092-.458.092-.733.092l-1.878.046v-1.466h1.878c.275 0 .55 0 .733.137.183.092.32.275.32.55a.8.8 0 0 1-.32.641m-7.466.32h-2.015v-1.648h2.015c.55 0 .916.229.916.779 0 .549-.367.87-.916.87m-5.909.23 2.382-2.52v5.176zm-3.71 1.878h-3.802v-1.283h3.39v-1.282h-3.39v-1.191h3.848l1.695 1.878zm33.161-9.71h-2.198l-2.886-4.81v4.81h-3.114l-.596-1.42h-3.206l-.595 1.42h-1.787c-.732 0-1.694-.184-2.243-.734-.505-.55-.78-1.282-.78-2.427 0-.962.138-1.832.825-2.52.458-.503 1.282-.732 2.335-.732h1.466v1.374h-1.466c-.549 0-.87.092-1.19.367-.275.275-.413.778-.413 1.465q0 1.03.413 1.512c.228.229.641.32 1.053.32h.687l2.199-5.038h2.29l2.565 6.046v-6.046h2.382L52.887 25v-4.443h1.557zm-18.183-6.413h-1.557v6.412h1.557zm-3.252.275c-.504-.275-1.053-.275-1.832-.275H27.65v6.412h1.511v-2.336h1.65c.549 0 .915.046 1.144.275.275.32.229.87.229 1.237v.824h1.557v-1.282c0-.55-.046-.825-.274-1.145a1.9 1.9 0 0 0-.733-.55c.411-.183 1.1-.687 1.1-1.695 0-.732-.322-1.145-.825-1.465m-6.459 4.81h-3.572v-1.283h3.527V23.03h-3.527v-1.146h3.572v-1.328h-5.13v6.413h5.13zm-6.274-5.085h-2.52l-1.877 4.351-2.016-4.351H11.39v6.046l-2.61-6.046H6.49L3.74 26.969H5.39l.595-1.42h3.206l.595 1.42h3.115v-5.038l2.244 5.038h1.329l2.244-5.038v5.038h1.557zM45.1 24.175l-1.054-2.519-1.053 2.52zm-13.283-1.007c-.229.137-.458.137-.779.137h-1.878v-1.42h1.878c.275 0 .595 0 .779.092.183.138.275.321.275.596s-.092.503-.275.595M6.535 24.175l1.053-2.519 1.054 2.52zM58.338.45H3.695v23.085l1.878-4.26h3.984l.55 1.054v-1.053h4.672l1.054 2.29 1.007-2.29h14.886c.687 0 1.282.137 1.74.503v-.503h4.077v.503c.687-.366 1.557-.503 2.565-.503h5.909l.55 1.053v-1.053h4.35l.642 1.053v-1.053h4.26v8.977h-4.306l-.824-1.374v1.374h-5.36l-.594-1.466h-1.33l-.595 1.466h-2.793c-1.1 0-1.924-.275-2.474-.55v.55h-6.641v-2.061c0-.275-.046-.321-.23-.321h-.228v2.382H17.62v-1.145l-.458 1.145H14.46l-.458-1.1v1.1H8.825l-.55-1.466H6.947l-.595 1.466H3.695v27.07h54.643V38.877c-.595.275-1.42.412-2.245.412h-3.985v-.55c-.457.367-1.282.55-2.06.55h-12.55v-2.06c0-.276-.046-.276-.276-.276h-.228v2.336H32.87v-2.427c-.686.32-1.465.32-2.152.32h-.458v2.107h-5.039l-1.19-1.374-1.328 1.374h-8.108v-8.977h8.244l1.191 1.374 1.283-1.374h5.542c.641 0 1.695.091 2.153.55v-.55h4.946c.504 0 1.467.091 2.107.55v-.55h7.466v.55c.413-.367 1.191-.55 1.878-.55h4.168v.55c.459-.32 1.1-.55 1.924-.55h2.84z" clip-rule="evenodd"/></g><defs><clipPath id="a"><path fill="#fff" d="M0 0h59v56H0z"/></clipPath></defs></svg>