<svg xmlns="http://www.w3.org/2000/svg" width="60.377" height="64" fill="none" viewBox="0 0 50 53"><path fill="#1C56EE" d="M21.907 11.645a.6.6 0 0 0-.468-.29.67.67 0 0 0-.36.126c-1.322 1.08-3.134 5.663-4.618 11.702l1.314.016c2.595.03 5.274.062 7.925.104-.7-2.766-1.355-5.137-1.965-7.05a22.2 22.2 0 0 0-1.828-4.608"/><path fill="#1C56EE" d="M24.855 0C11.128 0 0 11.58 0 25.863s11.128 25.86 24.855 25.86S49.71 40.145 49.71 25.863 38.581 0 24.855 0m17.868 26.33-.006.007q-.038.031-.083.063l-.027.02-.058.036a1.26 1.26 0 0 1-.666.19H30.104c.096.405.2.866.313 1.369.644 2.9 2.358 10.607 4.179 10.607h.094c1.424 0 2.149-2.14 3.74-6.827l.019-.059c.256-.753.544-1.602.857-2.5l.08-.23a.564.564 0 0 1 .624-.364.586.586 0 0 1 .444.742l-.066.23c-.166.559-.342 1.32-.546 2.198-.948 4.09-2.382 10.267-6.057 10.267h-.027c-2.374-.02-3.791-3.97-4.402-5.657-1.135-3.153-1.997-6.516-2.822-9.77H15.701l-2.25 7.488-.034-.028a1.12 1.12 0 0 1-1.282.506 1.19 1.19 0 0 1-.828-1.139v-.04l.137-.847c.312-1.924.682-3.924 1.108-5.944H7.984l-.016-.018a1.81 1.81 0 0 1-.059-3.541q.267-.03.535-.023h.223c1.45.026 2.995.049 4.677.07C15.729 13.04 18.5 7.907 21.57 7.897c3.292 0 5.735 7.803 7.69 15.435l.008.032c4.019.084 8.3.208 12.463.52l.175.017q.1.003.2.018h.056a1.34 1.34 0 0 1 1.021 1.022 1.4 1.4 0 0 1-.461 1.39Z"/></svg>