<svg xmlns="http://www.w3.org/2000/svg" width="290.909" height="64" fill="none" viewBox="0 0 100 22"><g fill="#3260E7" clip-path="url(#a)"><path d="M9.181 4.882a.25.25 0 0 0-.196-.122.282.282 0 0 0-.15.053c-.555.452-1.314 2.374-1.937 4.905l.551.007c1.088.013 2.211.026 3.322.044a51.977 51.977 0 0 0-.823-2.955 9.321 9.321 0 0 0-.767-1.932Z"/><path d="M10.42 0C4.665 0 0 4.854 0 10.842s4.665 10.841 10.42 10.841c5.754 0 10.42-4.854 10.42-10.841C20.84 4.855 16.173 0 10.42 0Zm7.49 11.038-.003.003-.034.026-.011.009-.025.015a.53.53 0 0 1-.279.08H12.62c.04.17.084.363.131.573.27 1.216.989 4.447 1.752 4.447h.04c.596 0 .9-.897 1.567-2.862l.008-.025c.108-.315.228-.671.36-1.048l.033-.096a.237.237 0 0 1 .262-.153.245.245 0 0 1 .186.311l-.028.097c-.07.234-.143.553-.229.921-.397 1.715-.998 4.304-2.539 4.304h-.011c-.995-.008-1.59-1.664-1.845-2.371-.476-1.322-.838-2.732-1.183-4.096H6.582l-.943 3.139-.015-.012a.47.47 0 0 1-.788.03.498.498 0 0 1-.096-.295v-.017l.057-.355a54.29 54.29 0 0 1 .465-2.492H3.347l-.007-.007a.759.759 0 0 1-.024-1.485c.074-.008.149-.011.224-.01h.093c.608.011 1.256.021 1.96.03 1-4.233 2.162-6.385 3.45-6.389 1.38 0 2.404 3.271 3.223 6.47l.004.014c1.685.035 3.48.087 5.225.218l.073.007c.028.001.056.003.083.008h.024a.564.564 0 0 1 .428.428.589.589 0 0 1-.193.583ZM26.624 13.554l-.826 2.124h-2.4l4.566-11.092h2.12l4.55 11.092h-2.386l-.826-2.124h-4.798Zm2.383-6.161-1.558 4.038h3.147l-1.59-4.038ZM48.154 11.415v4.263h-2.166v-4.07c0-1.232-.576-1.897-1.59-1.897a1.7 1.7 0 0 0-1.402.86c.037.28.057.561.061.843v4.264h-2.164v-4.07c0-1.232-.577-1.897-1.605-1.897a1.722 1.722 0 0 0-1.325.873v5.092h-2.166V7.912h2.166v.47a2.371 2.371 0 0 1 1.84-.715 3.034 3.034 0 0 1 2.386 1.102A3.53 3.53 0 0 1 44.9 7.667c1.82 0 3.255 1.477 3.255 3.748ZM57.674 11.803c0 2.254-1.652 4.037-3.71 4.037a3.703 3.703 0 0 1-2.118-.616v4.2H49.68V7.911h2.166v.454a3.703 3.703 0 0 1 2.119-.615c2.058 0 3.709 1.767 3.709 4.053Zm-2.135 0a2.015 2.015 0 0 0-3.693-1.248v2.481a2.076 2.076 0 0 0 1.761.892 2.025 2.025 0 0 0 1.932-2.125ZM61.057 15.678H58.89V4.166h2.166v11.512ZM63.008 5.172a1.307 1.307 0 0 1 .795-1.233 1.303 1.303 0 0 1 1.808 1.233 1.301 1.301 0 0 1-2.603 0Zm2.4 2.74v7.766h-2.166V7.911h2.166ZM73.276 15.565a5.509 5.509 0 0 1-2.01.356c-1.806 0-2.99-1.329-2.99-3.34V9.81h-1.573V7.91h1.572V5.14h2.15v2.772h2.696v1.897h-2.696v2.757a1.177 1.177 0 0 0 .345.958 1.167 1.167 0 0 0 .965.322 5.003 5.003 0 0 0 1.262-.21l.279 1.93ZM81.97 15.678h-2.165v-.551a3.232 3.232 0 0 1-2.134.792c-1.965 0-3.273-1.475-3.273-3.729V7.91h2.166v4.07c0 1.233.593 1.899 1.606 1.899a2.212 2.212 0 0 0 1.636-.973V7.91h2.166l-.001 7.767ZM91.165 15.679h-2.166v-.454a3.704 3.704 0 0 1-2.119.616c-2.057 0-3.724-1.768-3.724-4.054 0-2.253 1.667-4.037 3.724-4.037.753-.015 1.492.2 2.12.616v-4.2h2.165V15.68Zm-2.166-2.643v-2.482a2.076 2.076 0 0 0-1.761-.892 2.012 2.012 0 0 0-1.932 2.124c0 1.152.795 2.157 1.932 2.157a2.052 2.052 0 0 0 1.761-.907ZM99.957 12.371h-5.503a1.823 1.823 0 0 0 1.934 1.622 1.348 1.348 0 0 0 1.261-.584h2.26c-.405 1.491-1.808 2.513-3.569 2.513-2.4 0-4.02-1.8-4.02-4.118 0-2.402 1.606-4.137 3.959-4.137 2.134 0 3.724 1.572 3.724 3.974.003.245-.012.49-.047.732v-.002Zm-5.486-1.33h3.382c-.126-.972-.686-1.507-1.559-1.507a1.767 1.767 0 0 0-1.823 1.507Z"/></g><defs><clipPath id="a"><path fill="#fff" d="M0 0h100v21.834H0z"/></clipPath></defs></svg>