<svg xmlns="http://www.w3.org/2000/svg" width="290.909" height="64" fill="none" viewBox="0 0 100 22"><g fill="#3260E7" clip-path="url(#a)"><path d="M9.181 4.882a.25.25 0 0 0-.196-.122.3.3 0 0 0-.15.053c-.555.452-1.314 2.374-1.937 4.905l.551.007c1.088.013 2.211.026 3.322.044a52 52 0 0 0-.823-2.955 9.3 9.3 0 0 0-.767-1.932"/><path d="M10.42 0C4.665 0 0 4.854 0 10.842s4.665 10.841 10.42 10.841c5.754 0 10.42-4.854 10.42-10.841S16.173 0 10.42 0m7.49 11.038-.003.003-.034.026-.011.009-.025.015a.53.53 0 0 1-.279.08H12.62q.06.257.131.573c.27 1.216.989 4.447 1.752 4.447h.04c.596 0 .9-.897 1.567-2.862l.008-.025c.108-.315.228-.671.36-1.048l.033-.096a.24.24 0 0 1 .262-.153.245.245 0 0 1 .186.311l-.028.097c-.07.234-.143.553-.229.921-.397 1.715-.998 4.304-2.539 4.304h-.011c-.995-.008-1.59-1.664-1.845-2.371-.476-1.322-.838-2.732-1.183-4.096H6.582l-.943 3.139-.015-.012a.47.47 0 0 1-.788.03.5.5 0 0 1-.096-.295v-.017l.057-.355a54 54 0 0 1 .465-2.492H3.347l-.007-.007a.759.759 0 0 1-.024-1.485q.111-.012.224-.01h.093c.608.011 1.256.021 1.96.03 1-4.233 2.162-6.385 3.45-6.389 1.38 0 2.404 3.271 3.223 6.47l.004.014c1.685.035 3.48.087 5.225.218l.073.007.083.008h.024a.56.56 0 0 1 .428.428.59.59 0 0 1-.193.583m8.714 2.516-.826 2.124h-2.4l4.566-11.092h2.12l4.55 11.092h-2.386l-.826-2.124zm2.383-6.161-1.558 4.038h3.147l-1.59-4.038Zm19.147 4.022v4.263h-2.166v-4.07c0-1.232-.576-1.897-1.59-1.897a1.7 1.7 0 0 0-1.402.86q.055.42.061.843v4.264h-2.164v-4.07c0-1.232-.577-1.897-1.605-1.897a1.72 1.72 0 0 0-1.325.873v5.092h-2.166V7.912h2.166v.47a2.37 2.37 0 0 1 1.84-.715 3.03 3.03 0 0 1 2.386 1.102A3.53 3.53 0 0 1 44.9 7.667c1.82 0 3.255 1.477 3.255 3.748Zm9.52.388c0 2.254-1.652 4.037-3.71 4.037a3.7 3.7 0 0 1-2.118-.616v4.2H49.68V7.911h2.166v.454a3.7 3.7 0 0 1 2.119-.615c2.058 0 3.709 1.767 3.709 4.053m-2.135 0a2.015 2.015 0 0 0-3.693-1.248v2.481a2.08 2.08 0 0 0 1.761.892 2.025 2.025 0 0 0 1.932-2.125m5.518 3.875H58.89V4.166h2.166v11.512Zm1.951-10.506a1.31 1.31 0 0 1 .795-1.233 1.303 1.303 0 0 1 1.808 1.233 1.301 1.301 0 0 1-2.603 0m2.4 2.74v7.766h-2.166V7.911h2.166Zm7.868 7.653a5.5 5.5 0 0 1-2.01.356c-1.806 0-2.99-1.329-2.99-3.34V9.81h-1.573v-1.9h1.572V5.14h2.15v2.772h2.696v1.897h-2.696v2.757a1.18 1.18 0 0 0 .345.958 1.17 1.17 0 0 0 .965.322 5 5 0 0 0 1.262-.21zm8.694.113h-2.165v-.551a3.23 3.23 0 0 1-2.134.792c-1.965 0-3.273-1.475-3.273-3.729V7.91h2.166v4.07c0 1.233.593 1.899 1.606 1.899a2.21 2.21 0 0 0 1.636-.973V7.91h2.166l-.001 7.767Zm9.195.001h-2.166v-.454a3.7 3.7 0 0 1-2.119.616c-2.057 0-3.724-1.768-3.724-4.054 0-2.253 1.667-4.037 3.724-4.037.753-.015 1.492.2 2.12.616v-4.2h2.165zm-2.166-2.643v-2.482a2.08 2.08 0 0 0-1.761-.892 2.01 2.01 0 0 0-1.932 2.124c0 1.152.795 2.157 1.932 2.157a2.05 2.05 0 0 0 1.761-.907m10.958-.665h-5.503a1.823 1.823 0 0 0 1.934 1.622 1.35 1.35 0 0 0 1.261-.584h2.26c-.405 1.491-1.808 2.513-3.569 2.513-2.4 0-4.02-1.8-4.02-4.118 0-2.402 1.606-4.137 3.959-4.137 2.134 0 3.724 1.572 3.724 3.974q.005.368-.047.732zm-5.486-1.33h3.382c-.126-.972-.686-1.507-1.559-1.507a1.767 1.767 0 0 0-1.823 1.507"/></g><defs><clipPath id="a"><path fill="#fff" d="M0 0h100v21.834H0z"/></clipPath></defs></svg>