<svg xmlns="http://www.w3.org/2000/svg" width="65" height="64" fill="none"><g clip-path="url(#a)"><path fill="#fff" d="M9.412 20.783q-1.651 0-2.804 1.152c-1.152 1.152-1.152 1.69-1.152 2.766V41.22q0 1.654 1.152 2.805t2.804 1.152 2.786-1.152q1.133-1.151 1.133-2.805V24.701q0-1.614-1.152-2.766c-1.152-1.152-1.69-1.152-2.767-1.152M41.22 5.955 43.948.923q.269-.499-.192-.768-.5-.23-.768.23l-2.766 5.072a18.9 18.9 0 0 0-7.721-1.615q-4.073 0-7.722 1.615L22.013.385q-.27-.46-.768-.23-.46.27-.191.768l2.727 5.032q-4.148 2.114-6.607 5.897-2.46 3.785-2.459 8.279h35.533q0-4.494-2.459-8.28Q45.33 8.07 41.22 5.956m-15.769 7.318a1.44 1.44 0 0 1-1.057.443q-.614 0-1.037-.443a1.47 1.47 0 0 1-.422-1.056q0-.614.422-1.056a1.38 1.38 0 0 1 1.037-.441c.615 0 .762.147 1.057.44q.441.444.442 1.057 0 .615-.442 1.056m16.191 0a1.38 1.38 0 0 1-1.036.443q-.615 0-1.057-.443a1.44 1.44 0 0 1-.442-1.056q0-.614.442-1.056a1.44 1.44 0 0 1 1.057-.441q.614 0 1.036.44.423.444.423 1.057 0 .615-.422 1.056M14.868 47.097q0 1.768 1.23 2.996 1.228 1.23 2.996 1.229h2.842l.04 8.721q0 1.651 1.152 2.805C24.279 64 24.817 64 25.892 64q1.652 0 2.804-1.152 1.153-1.153 1.153-2.805v-8.72h5.3v8.72q0 1.651 1.153 2.805C37.454 64 38.005 64 39.106 64q1.651 0 2.804-1.152 1.152-1.153 1.152-2.805v-8.72h2.882q1.727 0 2.958-1.23 1.228-1.227 1.228-2.995V21.512H14.868zm40.72-26.314a3.8 3.8 0 0 0-2.765 1.133q-1.153 1.134-1.153 2.785V41.22q0 1.654 1.153 2.805 1.152 1.152 2.765 1.152 1.652 0 2.804-1.152 1.153-1.151 1.153-2.805V24.701q0-1.65-1.152-2.785-1.154-1.133-2.805-1.133"/></g><defs><clipPath id="a"><path fill="#fff" d="M.5 0h64v64H.5z"/></clipPath></defs></svg>