<svg xmlns="http://www.w3.org/2000/svg" width="44.8" height="64" fill="none" viewBox="0 0 35 50"><path fill="#000" d="M27.977 20.797q2.95.564 4.183 2.543 1.234 1.98 1.216 6.227 0 8.44-4.992 13.796-4.993 5.356-12.764 5.399a16.2 16.2 0 0 1-5.942-1.122 14.7 14.7 0 0 1-4.958-3.13 15.8 15.8 0 0 1-3.54-4.673A11.5 11.5 0 0 1 0 34.797q0-2.88 1.216-4.45a6.4 6.4 0 0 1 3.853-2.148 19 19 0 0 1-.732-1.98c-.13-.4-.207-.815-.23-1.235q0-1.512 1.564-3.084c1.027-1.05 2.012-1.571 2.933-1.571a4 4 0 0 1 1.25.216 8 8 0 0 1 1.517.72Q8.839 13.97 7.683 10c-.767-2.646-1.18-4.475-1.18-5.477 0-1.386.23-2.442.92-3.27C8.261.24 9.518 0 10.728 0c2.443 0 3.31 2.13 7.53 14.066.59 1.602.967 2.844 1.257 3.714.241-.69.59-1.674 1.02-2.946C23.698 5.55 25.044.906 28.702.906a3.35 3.35 0 0 1 1.471.271c.465.2.88.503 1.214.886A4.56 4.56 0 0 1 32.39 5.16c0 .983-.365 2.777-1.103 5.398-.738 2.622-1.818 6.017-3.31 10.24ZM4.373 34.456q.458.575 1.28 1.673 2.177 3.053 4.019 3.047c.408.005.805-.138 1.12-.402a1.09 1.09 0 0 0 .497-.834 4.14 4.14 0 0 0-.661-1.673 21 21 0 0 0-1.812-2.645 19.4 19.4 0 0 0-2.172-2.496 2.46 2.46 0 0 0-1.398-.786 2.74 2.74 0 0 0-2.124 1.254 4.7 4.7 0 0 0-.974 2.963 8.3 8.3 0 0 0 .679 3.066 14.7 14.7 0 0 0 1.959 3.395 13.15 13.15 0 0 0 4.827 4.073c1.989.964 4.17 1.45 6.373 1.422a13.7 13.7 0 0 0 5.92-1.218 13.9 13.9 0 0 0 4.855-3.653q4.337-4.877 4.331-12.207a15.6 15.6 0 0 0-.324-3.6 3.43 3.43 0 0 0-1.116-1.907q-1.345-1.146-5.252-2.046a36.2 36.2 0 0 0-8.155-.905 2.7 2.7 0 0 0-1.676.402 1.69 1.69 0 0 0-.496 1.374q0 2.279 2.503 3.299 2.502 1.02 8.102 1.02h1.351a.9.9 0 0 1 .744.353c.214.313.344.677.377 1.056a7.7 7.7 0 0 1-2.307 1.2c-.94.343-1.835.8-2.667 1.361a11.9 11.9 0 0 0-3.18 3.497 7.6 7.6 0 0 0-1.181 3.834c.03.909.2 1.808.508 2.663.238.621.41 1.267.513 1.925v.234l-.065.3c-.5-.05-.976-.236-1.379-.539a2.8 2.8 0 0 1-.91-1.182 9.5 9.5 0 0 1-.845-4.337v-.306c-.147.142-.32.256-.507.336a1.5 1.5 0 0 1-.543.102 3.3 3.3 0 0 1-.59-.048 6 6 0 0 1-.59-.15q.097.354.148.72.045.273.053.551c.002.404-.083.802-.248 1.17a2.8 2.8 0 0 1-.708.954 3.22 3.22 0 0 1-2.272.888q-2.077 0-4.22-2.058-2.14-2.056-2.14-4.036-.004-.331.082-.654a1.2 1.2 0 0 1 .29-.45zm9.878.803a1.32 1.32 0 0 0 1.02-.516c.293-.298.46-.7.467-1.121a11.9 11.9 0 0 0-.909-2.964 30 30 0 0 0-2.23-4.57 10.8 10.8 0 0 0-1.948-2.532 2.8 2.8 0 0 0-1.817-.828 2.3 2.3 0 0 0-.858.275c-.266.148-.5.348-.688.59a2.54 2.54 0 0 0-.826 1.655c.103.85.385 1.668.826 2.4a23 23 0 0 0 2.207 3.418 18.8 18.8 0 0 0 2.732 3.078c.855.75 1.552 1.115 2.041 1.115zm3.228-16.196-3.54-10.45a32.6 32.6 0 0 0-2.143-5.206c-.507-.81-1.056-1.2-1.646-1.2a1.36 1.36 0 0 0-1.122.534 2.23 2.23 0 0 0-.43 1.44q0 1.536 1.18 5.357 1.18 3.82 3.458 10.011c.126-.241.336-.425.59-.516.316-.113.65-.164.985-.15l.791.03c.348.03.997.084 1.894.174zm3.723 10.15a21 21 0 0 1-2.685-.306 14 14 0 0 1-2.42-.666c.349.714.668 1.428.939 2.142q.403 1.033.679 2.111a17 17 0 0 1 1.658-1.8 14 14 0 0 1 1.847-1.457zm4.384-8.998q2.202-6.088 3.44-10.066c.827-2.645 1.234-4.264 1.234-4.87a2.43 2.43 0 0 0-.407-1.506 1.36 1.36 0 0 0-1.139-.534c-.59 0-1.24.516-1.877 1.554a26 26 0 0 0-2.106 5.009l-3.281 9.687 4.137.726Z"/></svg>