<svg xmlns="http://www.w3.org/2000/svg" width="44.8" height="64" fill="none" viewBox="0 0 35 50"><path fill="#000" d="M27.977 20.797c1.966.376 3.361 1.223 4.183 2.543.823 1.32 1.228 3.395 1.216 6.227 0 5.626-1.664 10.225-4.992 13.796-3.329 3.571-7.583 5.37-12.764 5.399a16.189 16.189 0 0 1-5.942-1.122A14.72 14.72 0 0 1 4.72 44.51a15.839 15.839 0 0 1-3.54-4.673A11.467 11.467 0 0 1 0 34.797c0-1.92.405-3.403 1.216-4.45a6.398 6.398 0 0 1 3.853-2.148 19.036 19.036 0 0 1-.732-1.98c-.13-.4-.207-.815-.23-1.235 0-1.008.521-2.036 1.564-3.084 1.027-1.05 2.012-1.571 2.933-1.571a4.01 4.01 0 0 1 1.25.216 7.939 7.939 0 0 1 1.517.72C9.683 16.402 8.454 12.647 7.683 10c-.767-2.646-1.18-4.475-1.18-5.477 0-1.386.23-2.442.92-3.27C8.261.24 9.518 0 10.728 0c2.443 0 3.31 2.13 7.53 14.066.59 1.602.967 2.844 1.257 3.714.241-.69.59-1.674 1.02-2.946C23.698 5.55 25.044.906 28.702.906a3.35 3.35 0 0 1 1.471.271c.465.2.88.503 1.214.886A4.56 4.56 0 0 1 32.39 5.16c0 .983-.365 2.777-1.103 5.398-.738 2.622-1.818 6.017-3.31 10.24ZM4.373 34.456c.306.383.731.941 1.28 1.673 1.452 2.035 2.791 3.051 4.019 3.047.408.005.805-.138 1.12-.402a1.09 1.09 0 0 0 .497-.834 4.142 4.142 0 0 0-.661-1.673 21.005 21.005 0 0 0-1.812-2.645 19.38 19.38 0 0 0-2.172-2.496 2.461 2.461 0 0 0-1.398-.786c-.426.027-.84.154-1.208.372-.37.217-.683.52-.916.882a4.699 4.699 0 0 0-.974 2.963 8.284 8.284 0 0 0 .679 3.066 14.69 14.69 0 0 0 1.959 3.395 13.153 13.153 0 0 0 4.827 4.073c1.989.964 4.17 1.45 6.373 1.422a13.72 13.72 0 0 0 5.92-1.218 13.933 13.933 0 0 0 4.855-3.653c2.891-3.252 4.335-7.32 4.331-12.207a15.55 15.55 0 0 0-.324-3.6 3.425 3.425 0 0 0-1.116-1.907c-.897-.764-2.647-1.446-5.252-2.046a36.217 36.217 0 0 0-8.155-.905 2.702 2.702 0 0 0-1.676.402 1.686 1.686 0 0 0-.496 1.374c0 1.519.835 2.619 2.503 3.299 1.668.68 4.369 1.02 8.102 1.02h1.351a.907.907 0 0 1 .744.353c.214.313.344.677.377 1.056a7.734 7.734 0 0 1-2.307 1.2c-.94.343-1.835.8-2.667 1.361a11.921 11.921 0 0 0-3.18 3.497 7.591 7.591 0 0 0-1.181 3.834c.03.909.2 1.808.508 2.663.238.621.41 1.267.513 1.925v.234l-.065.3c-.5-.05-.976-.236-1.379-.539a2.813 2.813 0 0 1-.91-1.182 9.497 9.497 0 0 1-.845-4.337v-.306c-.147.142-.32.256-.507.336a1.46 1.46 0 0 1-.543.102 3.316 3.316 0 0 1-.59-.048 6.052 6.052 0 0 1-.59-.15c.065.236.114.476.148.72.03.182.048.366.053.551.002.404-.083.802-.248 1.17a2.77 2.77 0 0 1-.708.954 3.222 3.222 0 0 1-2.272.888c-1.385 0-2.791-.686-4.22-2.058C4.734 38.225 4.02 36.88 4.02 35.56c-.003-.22.025-.44.082-.654a1.2 1.2 0 0 1 .29-.45h-.018Zm9.878.803a1.323 1.323 0 0 0 1.02-.516c.293-.298.46-.7.467-1.121a11.853 11.853 0 0 0-.909-2.964 29.797 29.797 0 0 0-2.23-4.57 10.771 10.771 0 0 0-1.948-2.532 2.794 2.794 0 0 0-1.817-.828 2.263 2.263 0 0 0-.858.275c-.266.148-.5.348-.688.59a2.54 2.54 0 0 0-.826 1.655c.103.85.385 1.668.826 2.4a22.899 22.899 0 0 0 2.207 3.418 18.806 18.806 0 0 0 2.732 3.078c.855.75 1.552 1.115 2.041 1.115h-.017Zm3.228-16.196-3.54-10.45a32.551 32.551 0 0 0-2.143-5.206c-.507-.81-1.056-1.2-1.646-1.2a1.356 1.356 0 0 0-1.122.534 2.233 2.233 0 0 0-.43 1.44c0 1.024.393 2.81 1.18 5.357.787 2.547 1.94 5.884 3.458 10.011.126-.241.336-.425.59-.516.316-.113.65-.164.985-.15l.791.03c.348.03.997.084 1.894.174l-.017-.024Zm3.723 10.15a20.65 20.65 0 0 1-2.685-.306 14.244 14.244 0 0 1-2.42-.666c.349.714.668 1.428.939 2.142.269.688.495 1.393.679 2.111.509-.64 1.063-1.241 1.658-1.8a13.845 13.845 0 0 1 1.847-1.457l-.018-.024Zm4.384-8.998c1.468-4.059 2.615-7.414 3.44-10.066.827-2.645 1.234-4.264 1.234-4.87a2.43 2.43 0 0 0-.407-1.506 1.355 1.355 0 0 0-1.139-.534c-.59 0-1.24.516-1.877 1.554a26.025 26.025 0 0 0-2.106 5.009l-3.281 9.687 4.137.726Z"/></svg>