<svg xmlns="http://www.w3.org/2000/svg" width="424.421" height="64" fill="none" viewBox="0 0 126 19"><path fill="#000" d="M85.354 14.114V4.5h-4.05V3.257h9.693V4.5h-4.122v9.615h-1.52ZM96.694 12.38a.54.54 0 0 0 .37.576c.08.027.164.036.247.027.24-.005.477-.066.688-.179v.796a1.554 1.554 0 0 1-1.214.461c-.815 0-1.394-.603-1.485-1.522-.435.902-1.557 1.575-2.843 1.575-1.54 0-2.535-.815-2.535-2.14 0-1.467 1.285-2.07 3.186-2.44l2.137-.424v-.302c0-1.061-.632-1.715-1.74-1.715-1.141 0-1.756.654-1.991 1.556l-1.34-.166c.309-1.45 1.485-2.512 3.351-2.512 1.992 0 3.169.992 3.169 2.954v3.455Zm-1.449-2.298-1.774.372c-1.25.265-2.047.494-2.047 1.43 0 .655.453 1.152 1.36 1.152 1.393 0 2.461-1.028 2.461-2.582v-.372ZM100.155 3.257v10.857h-1.616V3.257h1.616ZM108.741 11.305c-.384 1.749-1.661 2.81-3.57 2.81-2.275 0-3.937-1.555-3.937-3.958 0-2.436 1.662-4.186 3.865-4.186 2.432 0 3.674 1.75 3.674 3.851v.577h-6.092c.07 1.501 1.137 2.56 2.502 2.56 1.277 0 2.029-.617 2.344-1.8l1.214.146ZM107.29 9.45c-.053-1.236-.735-2.366-2.187-2.366-1.382 0-2.203 1.094-2.377 2.366h4.564ZM111.341 14.114h-1.497V6.19h1.497v1.415c.379-.962 1.445-1.633 2.617-1.633 2.056 0 2.886 1.379 2.886 3.23v4.913h-1.497v-4.79c0-1.323-.631-2.157-1.876-2.157-1.192 0-2.13.942-2.13 2.395v4.552ZM118.507 7.444h-1.124v-.771l.477-.085c.699-.138.853-.481 1.025-1.2l.221-1.045h.801v2.072h2.101v1.03h-2.101v4.542c0 .669.273.977.922.977.496-.03.977-.183 1.4-.446v.959a2.923 2.923 0 0 1-1.912.636c-1.057 0-1.81-.498-1.81-1.955V7.444ZM9.93 7.409c.698.134 1.193.436 1.485.906.292.47.435 1.21.431 2.218 0 2.005-.59 3.643-1.772 4.915-1.181 1.272-2.691 1.913-4.53 1.923a5.726 5.726 0 0 1-2.11-.4 5.22 5.22 0 0 1-1.758-1.115 5.64 5.64 0 0 1-1.257-1.664A4.097 4.097 0 0 1 0 12.396c0-.683.144-1.212.431-1.585a2.269 2.269 0 0 1 1.368-.765c-.1-.23-.186-.465-.26-.705a1.74 1.74 0 0 1-.081-.44c0-.36.185-.726.555-1.099.364-.374.714-.56 1.04-.56.152.002.302.028.445.077.187.066.368.152.538.257-.599-1.733-1.035-3.07-1.31-4.014-.271-.942-.418-1.594-.418-1.95 0-.494.082-.87.327-1.165C2.932.085 3.378 0 3.808 0c.867 0 1.175.759 2.672 5.011.21.57.344 1.013.446 1.323.086-.246.21-.596.363-1.05C8.41 1.978 8.889.324 10.187.324a1.185 1.185 0 0 1 .953.412c.25.31.377.703.356 1.103 0 .35-.13.99-.391 1.923A60.088 60.088 0 0 1 9.93 7.41Zm-8.378 4.866c.109.136.26.335.454.596.516.725.991 1.087 1.427 1.086a.609.609 0 0 0 .398-.144.388.388 0 0 0 .176-.297 1.48 1.48 0 0 0-.235-.596 7.487 7.487 0 0 0-.643-.942 6.9 6.9 0 0 0-.77-.89.873.873 0 0 0-.497-.28.957.957 0 0 0-.754.447c-.231.301-.353.674-.346 1.056.01.377.092.747.241 1.092.178.433.411.84.696 1.21a4.673 4.673 0 0 0 1.713 1.45 5.02 5.02 0 0 0 2.262.507 4.855 4.855 0 0 0 2.101-.434c.66-.3 1.25-.744 1.723-1.301 1.027-1.158 1.539-2.608 1.538-4.349.01-.43-.028-.86-.116-1.282a1.222 1.222 0 0 0-.396-.68c-.318-.272-.94-.515-1.864-.728-.95-.218-1.92-.326-2.894-.323a.956.956 0 0 0-.595.143.594.594 0 0 0-.176.49c0 .54.296.933.888 1.175.592.242 1.55.363 2.876.363h.48a.32.32 0 0 1 .263.126.79.79 0 0 1 .134.376 2.742 2.742 0 0 1-.818.428 4.389 4.389 0 0 0-.947.485 4.242 4.242 0 0 0-1.13 1.246c-.258.408-.402.88-.418 1.365.01.324.071.645.18.949.085.221.146.451.182.686v.083l-.023.107a.973.973 0 0 1-.489-.192 1.002 1.002 0 0 1-.323-.421 3.395 3.395 0 0 1-.3-1.545v-.11a.517.517 0 0 1-.373.156c-.07.001-.14-.004-.209-.016a2.139 2.139 0 0 1-.21-.054 1.997 1.997 0 0 1 .072.453 1.006 1.006 0 0 1-.34.757 1.141 1.141 0 0 1-.806.316c-.491 0-.99-.244-1.497-.733-.507-.489-.76-.968-.76-1.438-.001-.079.008-.157.029-.233a.427.427 0 0 1 .102-.16h-.006Zm3.506.286a.468.468 0 0 0 .362-.184.587.587 0 0 0 .166-.4 4.235 4.235 0 0 0-.323-1.055 10.632 10.632 0 0 0-.791-1.628 3.837 3.837 0 0 0-.692-.902.99.99 0 0 0-.645-.295.8.8 0 0 0-.548.308.906.906 0 0 0-.294.59c.037.303.137.594.294.854.225.43.487.837.783 1.218.283.4.608.769.97 1.097.303.267.55.397.724.397h-.006Zm1.146-5.77L4.947 3.07c-.2-.64-.454-1.26-.76-1.855-.18-.289-.375-.428-.585-.428a.48.48 0 0 0-.398.19.798.798 0 0 0-.152.513c0 .365.14 1.001.418 1.909a74.8 74.8 0 0 0 1.228 3.566.381.381 0 0 1 .21-.183.914.914 0 0 1 .349-.054l.28.01c.124.012.355.03.673.063l-.006-.009Zm1.321 3.616a7.319 7.319 0 0 1-.953-.109 5.045 5.045 0 0 1-.858-.237c.123.254.236.508.333.763.095.245.175.496.24.752a6.02 6.02 0 0 1 .589-.641c.204-.192.423-.366.656-.52l-.007-.008Zm1.556-3.205c.521-1.446.928-2.642 1.222-3.586.293-.943.437-1.52.437-1.735a.868.868 0 0 0-.144-.537.49.49 0 0 0-.405-.19c-.209 0-.44.184-.666.553a9.29 9.29 0 0 0-.747 1.785L7.613 6.943l1.468.259ZM23 3.257l4.464 10.857h-2.31l-1.095-2.683h-4.654l-1.059 2.683h-2.19l4.43-10.857h2.415ZM20.057 9.78h3.327L21.75 5.713h-.069L20.056 9.78ZM30.127 14.104H28V6.186h2.127v1.29c.389-.898 1.384-1.505 2.551-1.505 2.097 0 2.86 1.439 2.86 3.198v4.945h-2.115V9.6c0-1.221-.481-1.92-1.53-1.92-1.082 0-1.756.86-1.756 2.19l-.01 4.235ZM40.203 11.633a4.664 4.664 0 0 1-1.695-.28.644.644 0 0 0-.314.558c0 .35.226.577.803.577h3.077c1.711 0 2.586.927 2.586 2.165 0 1.922-2.237 2.718-4.631 2.718-2.132 0-3.95-.541-3.95-1.972 0-.786.627-1.344 1.537-1.464a1.464 1.464 0 0 1-1.065-1.413c0-.699.49-1.224 1.241-1.52a2.33 2.33 0 0 1-1.067-1.975c0-1.642 1.45-2.637 3.478-2.637a4.332 4.332 0 0 1 2.446.682 2.605 2.605 0 0 1 2.044-1.1v1.673c-.45 0-.898.07-1.326.209.218.35.333.756.33 1.169-.008 1.614-1.475 2.61-3.494 2.61Zm-.174 4.471c1.538 0 2.656-.35 2.656-1.1 0-.508-.419-.7-1.118-.7H38.99c-.559 0-1.013.227-1.013.786 0 .698.804 1.014 2.045 1.014h.008Zm.193-8.436c-.787 0-1.33.472-1.33 1.361s.543 1.364 1.33 1.364c.786 0 1.345-.473 1.345-1.364 0-.89-.55-1.361-1.354-1.361h.009ZM52.718 11.392c-.413 1.713-1.78 2.722-3.812 2.722-2.447 0-4.21-1.522-4.21-3.954 0-2.431 1.78-4.189 4.156-4.189 2.585 0 3.92 1.751 3.92 3.85v.752h-5.944c.025.533.265 1.036.668 1.399a2.13 2.13 0 0 0 1.485.542c1.062 0 1.691-.438 1.997-1.313l1.74.19Zm-2.05-2.118c-.071-.892-.629-1.749-1.835-1.749s-1.781.788-1.977 1.75h3.812ZM55.459 3.257v10.857h-2.154V3.257h2.154ZM59.122 3.257v9.068h3.88v1.79h-5.924V3.256h2.044ZM63.54 3.257h2.153v2.016h-2.154V3.257Zm2.136 3.259v7.598H63.58v-7.59l2.097-.008ZM68.567 11.271c.122.927.818 1.4 1.873 1.4.767 0 1.392-.261 1.392-.823 0-.524-.348-.753-1.112-.874l-1.219-.21c-1.634-.264-2.538-.876-2.538-2.306 0-1.468 1.235-2.487 3.182-2.487 2.121 0 3.392.965 3.54 2.68l-1.723.069c-.14-.874-.73-1.312-1.825-1.312-.748 0-1.235.333-1.235.857 0 .42.279.667.833.753l1.457.245c1.618.264 2.573.946 2.573 2.4 0 1.575-1.355 2.451-3.33 2.451-1.976 0-3.53-.876-3.67-2.767l1.802-.076ZM74.86 7.841h-1.094V6.634l.522-.085c.746-.118.954-.493 1.127-1.189l.244-1.017h1.268v2.071h2.08V7.84h-2.08v3.706c0 .645.295.934.921.934a3.278 3.278 0 0 0 1.302-.356v1.341c-.608.45-1.357.68-2.119.647-1.181 0-2.172-.51-2.172-2.108V7.84Z"/></svg>