<svg xmlns="http://www.w3.org/2000/svg" width="213.333" height="64" fill="none" viewBox="0 0 100 30"><g clip-path="url(#a)"><path fill="#FF6250" d="M.19 0h25.329a.186.186 0 0 1 .17.267A28.4 28.4 0 0 1 16.137 11.2C9.552 15.642 2.921 16.1.191 16.125a.2.2 0 0 1-.135-.053.19.19 0 0 1-.056-.134V.187A.187.187 0 0 1 .19 0"/><path fill="#FFDF90" d="M5.656 29.41a5.656 5.656 0 1 0 0-11.311 5.656 5.656 0 0 0 0 11.312Z"/><path fill="#36F" d="M17.22 29.076c-1.6-.61-2.45-2.372-1.908-3.93l4.27-12.185c.546-1.559 2.287-2.326 3.887-1.715s2.45 2.371 1.909 3.931l-4.27 12.184c-.547 1.56-2.287 2.328-3.887 1.715Z"/><path fill="#000" d="M39.989 21.555q-1.515 0-2.658-.712a4.7 4.7 0 0 1-1.765-2.036q-.624-1.323-.62-3.11.002-1.786.633-3.132a4.94 4.94 0 0 1 1.776-2.091 4.7 4.7 0 0 1 2.636-.747q1.515 0 2.59.734 1.077.735 1.457 2.094l-.27.18V9.999h2.262v11.403h-2.261v-2.783l.27.114q-.384 1.356-1.457 2.09-1.073.736-2.593.733Zm.542-1.81q1.54 0 2.386-1.063.846-1.065.847-3.032 0-1.968-.847-3.031t-2.386-1.064q-1.56 0-2.433 1.096t-.87 3.04q0 1.946.87 2.998t2.433 1.056m8.821 1.651v-8.19q.001-.793-.034-1.607a17 17 0 0 0-.146-1.606h2.171l.204 2.308-.226.135q.497-1.335 1.594-2.023a4.63 4.63 0 0 1 2.522-.687q4.093 0 4.095 4.594v7.08h-2.286v-6.994q0-1.47-.588-2.15-.588-.677-1.81-.679-1.47 0-2.34.905-.87.904-.87 2.422v6.493zv-.002ZM62.61 5.017h2.646v2.398H62.61zm.157 16.38V9.994h2.285v11.403zm5.609 0v-8.19q0-.793-.033-1.607a16 16 0 0 0-.148-1.606h2.172l.204 2.308-.227.09q.427-1.267 1.426-1.969.998-.7 2.375-.7 1.629 0 2.55.801.92.803 1.183 2.474l-.543-.384a3.8 3.8 0 0 1 1.483-2.115q1.1-.785 2.589-.785 1.901 0 2.851 1.142.95 1.14.95 3.449v7.082h-2.284v-6.983q-.001-1.47-.51-2.15-.504-.68-1.64-.679-1.311 0-2.069.905-.757.905-.759 2.467v6.448h-2.285v-6.991q0-1.47-.52-2.15-.521-.68-1.63-.679-1.335 0-2.091.905t-.759 2.467v6.448h-2.285zm24.505.158q-1.514 0-2.657-.712a4.7 4.7 0 0 1-1.764-2.036q-.624-1.325-.624-3.11c0-1.785.211-2.235.633-3.132a4.96 4.96 0 0 1 1.776-2.092 4.7 4.7 0 0 1 2.636-.747q1.516 0 2.59.735 1.076.734 1.458 2.094l-.271.18V9.998h2.262V21.4h-2.262v-2.784l.271.114q-.386 1.357-1.458 2.091t-2.59.733Zm.541-1.81q1.54 0 2.389-1.064.847-1.064.847-3.031t-.847-3.032q-.847-1.063-2.389-1.063-1.56 0-2.433 1.096-.874 1.096-.87 3.04 0 1.946.87 2.998.87 1.051 2.433 1.056"/></g><defs><clipPath id="a"><path fill="#fff" d="M0 0h100v29.412H0z"/></clipPath></defs></svg>