<svg xmlns="http://www.w3.org/2000/svg" width="213.333" height="64" fill="none" viewBox="0 0 100 30"><g clip-path="url(#a)"><path fill="#FF6250" d="M.19 0h25.329a.186.186 0 0 1 .17.267A28.41 28.41 0 0 1 16.137 11.2C9.552 15.642 2.921 16.1.191 16.125a.189.189 0 0 1-.135-.053.186.186 0 0 1-.056-.134V.187A.187.187 0 0 1 .19 0Z"/><path fill="#FFDF90" d="M5.656 29.41a5.656 5.656 0 1 0 0-11.311 5.656 5.656 0 0 0 0 11.312Z"/><path fill="#36F" d="M17.22 29.076c-1.6-.61-2.45-2.372-1.908-3.93l4.27-12.185c.546-1.559 2.287-2.326 3.887-1.715s2.45 2.371 1.909 3.931l-4.27 12.184c-.547 1.56-2.287 2.328-3.887 1.715Z"/><path fill="#000" d="M39.989 21.555c-1.01 0-1.896-.237-2.658-.712a4.683 4.683 0 0 1-1.765-2.036c-.416-.882-.623-1.919-.62-3.11.001-1.19.212-2.235.633-3.132a4.936 4.936 0 0 1 1.776-2.091 4.705 4.705 0 0 1 2.636-.747c1.01 0 1.873.245 2.59.734.718.49 1.204 1.188 1.457 2.094l-.27.18V9.999h2.262v11.403h-2.261v-2.783l.27.114c-.256.904-.742 1.601-1.457 2.09-.715.49-1.58.735-2.593.733Zm.542-1.81c1.026 0 1.822-.354 2.386-1.063.564-.71.846-1.72.847-3.032 0-1.312-.282-2.322-.847-3.031-.565-.71-1.36-1.064-2.386-1.064-1.04 0-1.851.366-2.433 1.096-.581.731-.872 1.744-.87 3.04 0 1.297.29 2.297.87 2.998.58.702 1.391 1.054 2.433 1.056ZM49.352 21.396v-8.19c0-.529-.01-1.064-.034-1.607a17.3 17.3 0 0 0-.146-1.606h2.171l.204 2.308-.226.135c.331-.89.863-1.565 1.594-2.023a4.63 4.63 0 0 1 2.522-.687c2.729 0 4.094 1.531 4.095 4.594V21.4h-2.286v-6.994c0-.98-.196-1.697-.588-2.15-.392-.451-.995-.678-1.81-.679-.98 0-1.76.302-2.34.905-.58.603-.87 1.41-.87 2.422v6.493h-2.286v-.002ZM62.61 5.017h2.646v2.398H62.61V5.017Zm.157 16.38V9.994h2.285v11.403h-2.285ZM68.376 21.397v-8.19c0-.529-.01-1.064-.033-1.607a16.115 16.115 0 0 0-.148-1.606h2.172l.204 2.308-.227.09c.285-.845.76-1.501 1.426-1.969.665-.467 1.457-.7 2.375-.7 1.086 0 1.936.267 2.55.801.613.535 1.008 1.36 1.183 2.474l-.543-.384a3.805 3.805 0 0 1 1.483-2.115c.733-.523 1.596-.785 2.589-.785 1.267 0 2.218.38 2.851 1.142.633.76.95 1.91.95 3.449v7.082h-2.284v-6.983c0-.98-.172-1.697-.51-2.15-.337-.453-.882-.679-1.64-.679-.874 0-1.564.302-2.069.905-.505.603-.758 1.426-.759 2.467v6.448h-2.285v-6.991c0-.98-.174-1.697-.52-2.15-.348-.453-.89-.68-1.63-.679-.89 0-1.587.302-2.091.905-.504.603-.757 1.426-.759 2.467v6.448h-2.285v.002ZM92.881 21.555c-1.01 0-1.895-.238-2.657-.712a4.682 4.682 0 0 1-1.764-2.036c-.416-.883-.624-1.92-.624-3.11s.211-2.235.633-3.132a4.955 4.955 0 0 1 1.776-2.092 4.706 4.706 0 0 1 2.636-.747c1.01 0 1.874.245 2.59.735.717.49 1.203 1.187 1.458 2.094l-.271.18V9.998h2.262V21.4h-2.262v-2.784l.271.114c-.257.905-.743 1.602-1.458 2.091-.715.49-1.578.734-2.59.733Zm.541-1.81c1.027 0 1.823-.355 2.389-1.064.565-.709.847-1.72.847-3.031 0-1.312-.283-2.322-.847-3.032-.565-.709-1.361-1.063-2.389-1.063-1.04 0-1.85.365-2.433 1.096-.583.73-.872 1.744-.87 3.04 0 1.297.29 2.297.87 2.998.58.701 1.39 1.053 2.433 1.056Z"/></g><defs><clipPath id="a"><path fill="#fff" d="M0 0h100v29.412H0z"/></clipPath></defs></svg>