<svg xmlns="http://www.w3.org/2000/svg" width="56.32" height="64" fill="none" viewBox="0 0 44 50"><g clip-path="url(#a)"><path fill="#ff6250" d="M.322-.001h43.06a.316.316 0 0 1 .29.455 48.3 48.3 0 0 1-16.239 18.583C16.238 26.591 4.965 27.371.325 27.412A.32.32 0 0 1 0 27.094V.317A.32.32 0 0 1 .322 0Z"/><path fill="#ffdf90" d="M9.615 49.999a9.615 9.615 0 1 0 0-19.23 9.615 9.615 0 0 0 0 19.23"/><path fill="#36f" d="M29.273 49.43c-2.72-1.04-4.167-4.032-3.245-6.682l7.258-20.714c.93-2.65 3.888-3.955 6.608-2.916s4.167 4.031 3.245 6.683l-7.258 20.713c-.93 2.65-3.888 3.957-6.608 2.915Z"/></g><defs><clipPath id="a"><path fill="#fff" d="M0 0h44v50H0z"/></clipPath></defs></svg>