<svg xmlns="http://www.w3.org/2000/svg" width="237.037" height="64" fill="none" viewBox="0 0 100 27"><g clip-path="url(#a)"><path fill="#000" fill-rule="evenodd" d="M97.282 16.893c-1.16 0-1.484-.843-1.484-1.687V7.148h3.855v-4.05h-3.855V0h-4.577v3.097h-2.409V7.15h2.41v8.09c0 4.725 2.287 5.636 4.982 5.636 1.638 0 2.727-.236 3.449-.608v-3.779c-.723.27-1.415.405-2.37.405ZM65.947 5.35c-3.918 0-5.079 1.79-5.079 1.79V.24h-5.06v16.345l-.003 4.275 4.057-.05a.61.61 0 0 0 .605-.598l.02-1.444c.054.54 1.095 1.274 1.515 1.538 2.89 1.819 7.155.433 8.806-2.396q.08-.135.15-.271c.532-1.009.821-2.134.973-3.263.253-1.882.15-3.86-.681-5.572-1.01-2.074-2.96-3.453-5.303-3.453zm1.459 8.364c-.097.97-.445 1.966-1.205 2.584-.544.441-1.264.652-1.963.74-2.09.266-3.61-1.093-3.61-1.093V10.5s1.198-.96 3.065-.951c.894.004 1.838.137 2.53.697.338.274.6.617.79 1 .366.742.476 1.635.393 2.468M16.302 16.51V5.48H11.82c-.29 0-.577.323-.577.61v.976s-1.19-1.79-5.108-1.79c-2.343 0-4.308 1.38-5.316 3.452-.831 1.712-.955 3.69-.702 5.573.151 1.13.444 2.254.974 3.262q.074.137.153.272c1.652 2.828 5.918 4.215 8.808 2.396.419-.264 1.462-.998 1.515-1.539 0 0-.186 1.694 1.839 2.06 2.307.417 5.064-.367 5.064-.367v-3.368s-.328.18-1.27.18c-.943 0-.898-.688-.898-.688Zm-4.818-.639c0 .412-1.152.843-1.45.94-.7.229-1.488.252-2.213.154-.697-.094-1.413-.299-1.957-.74-.76-.618-1.114-1.616-1.21-2.584-.083-.834.02-1.726.385-2.468.19-.383.447-.727.786-1 .691-.56 1.673-.755 2.566-.698.367.024 3.093.444 3.093.953zm23.643-7.107a7 7 0 0 0-.151-.272c-1.651-2.829-5.916-4.214-8.807-2.397-.419.265-1.461.998-1.514 1.538 0 0 .182-1.694-1.842-2.06-2.306-.416-5.066.368-5.066.368v3.368s.448-.179 1.39-.179c.943 0 1.02.687 1.02.687V26.21h4.817v-6.95s1.192 1.79 5.11 1.79c2.342 0 4.31-1.379 5.317-3.452.832-1.712.956-3.69.703-5.573-.151-1.13-.446-2.254-.977-3.262zm-3.942 6.39a2.9 2.9 0 0 1-.786 1c-.692.56-1.557.756-2.449.698-.367-.023-2.976-.442-2.976-.951v-5.444c0-.412 1.035-.843 1.333-.94.699-.228 1.427-.251 2.152-.154.698.094 1.384.3 1.928.74.76.618 1.1 1.616 1.196 2.584.083.834-.032 1.727-.398 2.468Zm22.445-6.39a7 7 0 0 0-.15-.272c-1.653-2.829-5.918-4.214-8.808-2.396-.42.265-1.462.998-1.514 1.538 0 0 .205-1.694-1.819-2.06-2.307-.417-5.042.368-5.042.368V9.31s.327-.18 1.27-.18c.941 0 .897.688.897.688V26.21h5.06v-6.95s1.168 1.79 5.086 1.79c2.343 0 4.298-1.38 5.306-3.453.832-1.71.95-3.69.697-5.572-.151-1.13-.452-2.254-.983-3.262Zm-3.942 6.39a2.9 2.9 0 0 1-.786 1c-.692.56-1.654.756-2.546.698-.368-.023-3.074-.442-3.074-.951v-5.444c0-.412 1.132-.843 1.43-.94.699-.228 1.476-.251 2.202-.154.697.094 1.407.3 1.952.74.76.618 1.11 1.616 1.207 2.584.083.834-.018 1.727-.384 2.468h-.001Zm31.825-10.2c-4.556 0-8.249 3.603-8.249 8.049s3.692 8.048 8.248 8.048 8.25-3.603 8.25-8.048-3.693-8.049-8.25-8.049Zm-.048 11.633c-1.896 0-3.434-1.633-3.434-3.647s1.538-3.648 3.434-3.648 3.433 1.633 3.433 3.648c0 2.014-1.536 3.647-3.433 3.647" clip-rule="evenodd"/></g><defs><clipPath id="a"><path fill="#fff" d="M0 0h100v26.496H0z"/></clipPath></defs></svg>