<svg xmlns="http://www.w3.org/2000/svg" width="72.727" height="64" fill="none" viewBox="0 0 50 44"><g clip-path="url(#a)"><path fill="#000" fill-rule="evenodd" d="M43.347 30.264V.937H31.432c-.773 0-1.537.857-1.537 1.622v2.594S26.732.39 16.314.39c-6.23 0-11.455 3.67-14.137 9.182C-.032 14.125-.362 19.387.311 24.391c.402 3.005 1.18 5.993 2.591 8.675.13.243.266.484.407.723 4.39 7.52 15.736 11.207 23.42 6.37 1.114-.702 3.887-2.652 4.028-4.09 0 0-.494 4.504 4.89 5.477 6.135 1.109 13.466-.977 13.466-.977v-8.955s-.872.477-3.377.477c-2.507 0-2.389-1.827-2.389-1.827Zm-12.81-1.7c0 1.095-3.064 2.24-3.858 2.5-1.859.607-3.954.668-5.881.409-1.855-.25-3.757-.795-5.205-1.97-2.023-1.641-2.961-4.294-3.218-6.869-.22-2.218.052-4.59 1.025-6.563.504-1.018 1.188-1.932 2.088-2.66 1.84-1.486 4.45-2.006 6.823-1.854.977.064 8.225 1.18 8.225 2.532v14.475Z" clip-rule="evenodd"/></g><defs><clipPath id="a"><path fill="#fff" d="M0 0h50v43.182H0z"/></clipPath></defs></svg>