<svg xmlns="http://www.w3.org/2000/svg" width="58" height="64" fill="none"><path fill="#fff" d="M47.059 33.709c-.028-5.227 2.336-9.171 7.12-12.077-2.677-3.83-6.721-5.938-12.062-6.351-5.055-.399-10.58 2.948-12.603 2.948-2.136 0-7.035-2.806-10.88-2.806-7.947.128-16.392 6.338-16.392 18.97q0 5.596 2.05 11.563C6.117 51.183 12.696 64 19.56 63.786c3.589-.085 6.124-2.549 10.795-2.549 4.529 0 6.879 2.55 10.88 2.55 6.922-.1 12.874-11.75 14.612-16.99-9.285-4.372-8.787-12.817-8.787-13.088M39 10.325C42.886 5.71 42.53 1.51 42.416 0c-3.432.2-7.405 2.336-9.67 4.97-2.492 2.82-3.958 6.309-3.645 10.24 3.717.284 7.106-1.624 9.898-4.885"/></svg>