<svg xmlns="http://www.w3.org/2000/svg" width="376.471" height="64" fill="none" viewBox="0 0 100 17"><g clip-path="url(#a)"><path fill="#2A2F3D" d="M65.148 2.173a1.19 1.19 0 0 1-.375-.889q0-.526.375-.897.374-.371.904-.371.531 0 .895.371.365.373.365.897 0 .526-.374.889a1.23 1.23 0 0 1-.886.362 1.25 1.25 0 0 1-.904-.362M6.689 13.015q-.166-.29-.256-1.142-.95 1.36-3.033 1.36-1.553 0-2.477-.744Q0 11.746 0 10.421q0-2.556 3.618-2.918l1.426-.126q.712-.091 1.023-.336t.31-.734q0-.598-.392-.88-.393-.28-1.326-.28-1.004 0-1.443.335-.437.335-.512 1.15H.438q.201-3.19 4.24-3.19 3.93 0 3.93 2.81v4.987q0 1.233.384 1.776zM5.7 11.011q.676-.59.676-1.696v-.851q-.33.289-1.078.38l-1.243.144q-.913.109-1.306.426c-.393.317-.394.517-.394.916q0 .599.412.934.41.336 1.179.336 1.08 0 1.754-.59Zm14.327-6.246q1.133 1.343 1.133 3.572 0 2.213-1.133 3.554-1.152 1.342-3.088 1.342-1.92 0-2.924-1.432v4.768h-2.304V3.66h2.21v1.342q1.024-1.56 3.016-1.56 1.939 0 3.09 1.324Zm-3.638 6.581q1.133 0 1.791-.816.64-.798.64-2.266 0-1.433-.631-2.185-.63-.753-1.8-.753-1.151 0-1.79.78-.64.78-.64 2.23 0 1.469.658 2.23.62.78 1.772.78M31.87 4.765q1.131 1.343 1.132 3.572 0 2.213-1.133 3.554-1.151 1.342-3.088 1.342-1.92 0-2.923-1.432v4.768h-2.303V3.66h2.21v1.342q1.024-1.56 3.016-1.56 1.936 0 3.088 1.324Zm-3.638 6.581q1.133 0 1.79-.816.64-.798.64-2.266 0-1.433-.63-2.185-.63-.753-1.8-.753-1.153 0-1.79.78-.64.78-.64 2.23 0 1.469.657 2.23.621.78 1.773.78m6.854-1.305h2.248q.092.87.576 1.233t1.526.363q1.865-.001 1.865-1.124 0-.508-.403-.78-.403-.27-1.443-.453l-1.078-.181q-3.088-.508-3.087-2.829 0-1.323 1.023-2.075t2.888-.753q4.039 0 4.167 3.173h-2.175q-.036-.834-.53-1.187t-1.462-.354q-1.645 0-1.645 1.089a.85.85 0 0 0 .365.733q.365.263 1.206.408l1.188.182q1.718.308 2.494.979.776.67.777 1.868 0 1.413-1.098 2.175-1.095.762-3.088.762-4.131-.001-4.313-3.229Zm24.257-5.693q.869.907.869 2.484v6.182h-2.303v-5.82q0-1.777-1.627-1.776-.876 0-1.417.626-.537.624-.538 1.822v5.15h-2.285V7.193q0-1.777-1.645-1.776-.86 0-1.399.626-.54.625-.539 1.822v5.15h-2.303V3.658h2.23V5q.969-1.56 2.686-1.56 2.157 0 2.925 1.741 1.059-1.74 2.923-1.741 1.556 0 2.423.907ZM74.914 5.4v5.058q0 .455.246.635.247.18.832.181h1.682v1.741c-.5.048-1.798.072-2.102.072q-1.535 0-2.24-.571-.703-.571-.703-1.822V5.4h-2.137V3.659h2.138V.537h2.285V3.66h2.947V5.4zm13.242-1.08q.886.88.886 2.494v6.201h-2.303v-5.82q0-1.778-1.773-1.777a2 2 0 0 0-1.489.626q-.611.624-.612 1.73v5.24h-2.302V.536h2.302V4.91q1.08-1.47 2.869-1.469 1.534 0 2.422.88Z"/><path fill="#FF6D2D" d="M99.89 14.356h-8.992v1.74h8.992z"/><path fill="#2A2F3D" d="M67.218 11.274V3.66h-4.843V5.4h2.54v5.875h-2.54v1.741h7.383v-1.74h-2.54Z"/></g><defs><clipPath id="a"><path fill="#fff" d="M0 0h100v16.583H0z"/></clipPath></defs></svg>