<svg xmlns="http://www.w3.org/2000/svg" width="376.471" height="64" fill="none" viewBox="0 0 100 17"><g clip-path="url(#a)"><path fill="#2A2F3D" d="M65.148 2.173a1.185 1.185 0 0 1-.375-.889c0-.35.126-.65.375-.897.249-.248.551-.371.904-.371.354 0 .653.124.895.371.244.249.365.548.365.897 0 .351-.125.647-.374.889-.25.242-.545.362-.886.362a1.25 1.25 0 0 1-.904-.362ZM6.689 13.015c-.11-.194-.196-.574-.256-1.142-.633.907-1.645 1.36-3.033 1.36-1.036 0-1.861-.248-2.477-.744C.308 11.993 0 11.305 0 10.421c0-1.704 1.206-2.677 3.618-2.918l1.426-.126c.475-.061.816-.173 1.023-.336.207-.164.31-.408.31-.734 0-.399-.13-.692-.392-.88-.262-.187-.704-.28-1.326-.28-.67 0-1.15.111-1.443.335-.292.223-.462.607-.512 1.15H.438c.134-2.127 1.548-3.19 4.24-3.19 2.62 0 3.93.937 3.93 2.81v4.987c0 .822.127 1.414.384 1.776H6.689ZM5.7 11.011c.451-.393.676-.958.676-1.696v-.851c-.22.192-.579.32-1.078.38l-1.243.144c-.609.073-1.044.214-1.306.426s-.394.517-.394.916c0 .4.137.71.412.934.274.224.666.336 1.179.336.72 0 1.304-.197 1.754-.59ZM20.027 4.765c.755.895 1.133 2.086 1.133 3.572 0 1.475-.378 2.66-1.133 3.554-.768.895-1.797 1.342-3.088 1.342-1.28 0-2.255-.478-2.924-1.432v4.768h-2.304V3.66h2.21v1.342c.683-1.04 1.688-1.56 3.016-1.56 1.293 0 2.322.442 3.09 1.324Zm-3.638 6.581c.755 0 1.353-.272 1.791-.816.427-.532.64-1.287.64-2.266 0-.956-.21-1.683-.631-2.185-.42-.502-1.02-.753-1.8-.753-.767 0-1.365.26-1.79.78-.427.52-.64 1.263-.64 2.23 0 .98.22 1.722.658 2.23.413.52 1.005.78 1.772.78ZM31.87 4.765c.754.895 1.132 2.086 1.132 3.572 0 1.475-.378 2.66-1.133 3.554-.767.895-1.797 1.342-3.088 1.342-1.28 0-2.254-.478-2.923-1.432v4.768h-2.303V3.66h2.21v1.342c.683-1.04 1.688-1.56 3.016-1.56 1.291 0 2.32.442 3.088 1.324Zm-3.638 6.581c.755 0 1.352-.272 1.79-.816.427-.532.64-1.287.64-2.266 0-.956-.21-1.683-.63-2.185-.42-.502-1.021-.753-1.8-.753-.768 0-1.366.26-1.79.78-.427.52-.64 1.263-.64 2.23 0 .98.219 1.722.657 2.23.414.52 1.005.78 1.773.78ZM35.086 10.041h2.248c.061.58.253.991.576 1.233.323.242.831.363 1.526.363 1.243 0 1.865-.376 1.865-1.124 0-.339-.134-.598-.403-.78-.268-.18-.75-.332-1.443-.453l-1.078-.181C36.318 8.76 35.29 7.818 35.29 6.27c0-.881.341-1.575 1.023-2.075.682-.502 1.645-.753 2.888-.753 2.692 0 4.082 1.058 4.167 3.173h-2.175c-.024-.556-.2-.952-.53-1.187-.33-.236-.816-.354-1.462-.354-1.096 0-1.645.363-1.645 1.089a.85.85 0 0 0 .365.733c.244.175.645.312 1.206.408l1.188.182c1.145.205 1.977.532 2.494.979.517.447.777 1.07.777 1.868 0 .942-.366 1.667-1.098 2.175-.73.508-1.76.762-3.088.762-2.754-.001-4.192-1.077-4.313-3.229ZM59.343 4.348c.579.605.869 1.432.869 2.484v6.182h-2.303v-5.82c0-1.185-.543-1.776-1.627-1.776-.585 0-1.056.209-1.417.626-.358.417-.538 1.023-.538 1.822v5.15h-2.285V7.193c0-1.185-.548-1.776-1.645-1.776-.573 0-1.039.209-1.399.626-.36.417-.539 1.023-.539 1.822v5.15h-2.303V3.658h2.23v1.342c.645-1.04 1.542-1.56 2.686-1.56 1.438 0 2.413.58 2.925 1.741.706-1.16 1.68-1.741 2.923-1.741 1.038 0 1.845.303 2.423.907ZM74.914 5.4v5.058c0 .303.082.515.246.635.165.12.442.181.832.181h1.682v1.741c-.5.048-1.798.072-2.102.072-1.023 0-1.77-.19-2.24-.571-.468-.381-.703-.988-.703-1.822V5.4h-2.137V3.659h2.138V.537h2.285V3.66h2.947V5.4h-2.948ZM88.156 4.32c.59.587.886 1.417.886 2.494v6.201h-2.303v-5.82c0-1.186-.591-1.777-1.773-1.777a2 2 0 0 0-1.489.626c-.407.416-.612.993-.612 1.73v5.24h-2.302V.536h2.302V4.91c.72-.98 1.676-1.469 2.869-1.469 1.023 0 1.83.294 2.422.88Z"/><path fill="#FF6D2D" d="M99.89 14.356h-8.992v1.74h8.992v-1.74Z"/><path fill="#2A2F3D" d="M67.218 11.274V3.66h-4.843v1.74h2.54v5.875h-2.54v1.741h7.383v-1.74h-2.54Z"/></g><defs><clipPath id="a"><path fill="#fff" d="M0 0h100v16.583H0z"/></clipPath></defs></svg>