<svg xmlns="http://www.w3.org/2000/svg" width="64" height="64" fill="none" viewBox="0 0 50 50"><g clip-path="url(#a)"><path fill="#EE5C27" d="M49.751 2.778H3.791a.253.253 0 0 0-.252.252v45.96c0 .14.113.252.253.252h45.96c.139 0 .252-.113.252-.252V3.03a.253.253 0 0 0-.253-.252Z"/><path fill="#fff" d="M46.212 0H.252A.253.253 0 0 0 0 .253v45.96c0 .139.113.252.253.252h45.96c.139 0 .252-.113.252-.253V.252A.252.252 0 0 0 46.212 0Z"/><path fill="#2A2F3D" d="M17.234 30.859c-.22-.39-.393-1.154-.513-2.295-1.274 1.82-3.307 2.733-6.098 2.733-2.082 0-3.74-.5-4.978-1.495-1.237-.999-1.856-2.382-1.856-4.157 0-3.426 2.424-5.382 7.273-5.866l2.865-.254c.955-.123 1.64-.347 2.057-.675.416-.329.624-.82.624-1.475 0-.802-.262-1.39-.789-1.768-.526-.377-1.414-.565-2.664-.565-1.348 0-2.313.224-2.901.675-.588.448-.93 1.22-1.03 2.312H4.67c.27-4.276 3.111-6.413 8.523-6.413 5.266 0 7.897 1.882 7.897 5.65v10.022c0 1.653.257 2.842.773 3.57h-4.629Zm-1.985-4.03c.907-.79 1.359-1.925 1.359-3.407V21.71c-.442.387-1.163.644-2.167.764l-2.498.29c-1.225.146-2.1.43-2.627.856-.526.425-.79 1.04-.79 1.842s.274 1.426.826 1.877c.552.45 1.34.675 2.37.675 1.448 0 2.621-.395 3.527-1.185ZM42.465 31.382H24.39v3.5h18.074v-3.5Z"/></g><defs><clipPath id="a"><path fill="#fff" d="M0 0h50v49.242H0z"/></clipPath></defs></svg>