<svg xmlns="http://www.w3.org/2000/svg" width="64" height="64" fill="none" viewBox="0 0 50 50"><g clip-path="url(#a)"><path fill="#EE5C27" d="M49.751 2.778H3.791a.253.253 0 0 0-.252.252v45.96c0 .14.113.252.253.252h45.96a.25.25 0 0 0 .252-.252V3.03a.253.253 0 0 0-.253-.252"/><path fill="#fff" d="M46.212 0H.252A.253.253 0 0 0 0 .253v45.96c0 .139.113.252.253.252h45.96a.25.25 0 0 0 .252-.253V.252A.25.25 0 0 0 46.212 0"/><path fill="#2A2F3D" d="M17.234 30.859q-.331-.584-.513-2.295-1.911 2.732-6.098 2.733-3.122-.001-4.978-1.495-1.856-1.496-1.856-4.157 0-5.14 7.273-5.866l2.865-.254q1.432-.184 2.057-.675.624-.493.624-1.475 0-1.202-.789-1.768-.789-.565-2.664-.565-2.02 0-2.901.675-.881.673-1.03 2.312H4.67q.405-6.414 8.523-6.413 7.898-.001 7.897 5.65v10.022q0 2.479.773 3.57h-4.629Zm-1.985-4.03q1.36-1.184 1.359-3.407V21.71q-.662.582-2.167.764l-2.498.29q-1.837.218-2.627.856t-.79 1.842c0 1.204.274 1.426.826 1.877q.826.675 2.37.675c1.448 0 2.621-.395 3.527-1.185m27.216 4.553H24.39v3.5h18.074v-3.5Z"/></g><defs><clipPath id="a"><path fill="#fff" d="M0 0h50v49.242H0z"/></clipPath></defs></svg>