<svg xmlns="http://www.w3.org/2000/svg" width="320" height="64" fill="none" viewBox="0 0 100 20"><g fill-rule="evenodd" clip-path="url(#a)" clip-rule="evenodd"><path fill="#0D0E10" d="M96.606 14.913c.06.683.606 1.553 1.554 1.553h.553a.392.392 0 0 0 .391-.391V3.892h-.002a.39.39 0 0 0-.389-.37h-1.716a.39.39 0 0 0-.388.37h-.003v.99c-1.052-1.297-2.71-1.835-4.372-1.835a6.846 6.846 0 0 0-6.843 6.85 6.846 6.846 0 0 0 6.843 6.848c1.662 0 3.475-.645 4.372-1.834v.002Zm-4.366-.565c-2.403 0-4.352-1.993-4.352-4.452 0-2.458 1.948-4.452 4.352-4.452 2.404 0 4.353 1.994 4.353 4.452 0 2.46-1.949 4.452-4.353 4.452ZM83.225 15.332V9.028c0-3.554-2.24-5.951-5.813-5.951-1.705 0-3.103.987-3.597 1.834-.106-.663-.458-1.36-1.548-1.36h-.556a.392.392 0 0 0-.39.392V16.127h.002a.39.39 0 0 0 .388.37h1.716a.399.399 0 0 0 .077-.009c.012-.002.022-.006.033-.01.013-.003.026-.006.039-.011l.043-.023.021-.012a.399.399 0 0 0 .048-.038l.008-.006a.386.386 0 0 0 .12-.26h.002V8.929a3.455 3.455 0 0 1 3.454-3.456 3.455 3.455 0 0 1 3.453 3.456l.001 6.016v-.002l.002.016v1.167h.002a.39.39 0 0 0 .388.37h1.717a.395.395 0 0 0 .077-.009c.01-.001.02-.005.03-.008l.041-.013c.014-.006.027-.014.04-.022l.025-.013a.435.435 0 0 0 .044-.035l.011-.01a.402.402 0 0 0 .044-.05l.004-.004a.388.388 0 0 0 .072-.206h.003v-.795ZM65.349 14.913c.06.683.606 1.553 1.553 1.553h.554c.215 0 .39-.176.39-.391V3.892h-.002a.39.39 0 0 0-.388-.37h-1.717a.391.391 0 0 0-.388.37h-.002v.99c-1.052-1.297-2.71-1.835-4.373-1.835a6.846 6.846 0 0 0-6.843 6.85 6.846 6.846 0 0 0 6.843 6.848c1.663 0 3.475-.645 4.373-1.834v.002Zm-4.366-.565c-2.404 0-4.353-1.993-4.353-4.452 0-2.458 1.95-4.452 4.353-4.452 2.404 0 4.352 1.994 4.352 4.452 0 2.46-1.948 4.452-4.352 4.452ZM43.976 13.168c1.146.794 2.397 1.18 3.599 1.18 1.145 0 2.328-.594 2.328-1.628 0-1.38-2.58-1.595-4.2-2.147-1.62-.55-3.017-1.69-3.017-3.536 0-2.824 2.514-3.99 4.86-3.99 1.487 0 3.022.49 4.016 1.194.343.26.134.558.134.558l-.95 1.357c-.106.152-.293.284-.56.119-.268-.165-1.208-.83-2.64-.83-1.431 0-2.294.66-2.294 1.481 0 .984 1.121 1.293 2.434 1.628 2.288.617 4.784 1.36 4.784 4.166 0 2.488-2.325 4.026-4.895 4.026-1.948 0-3.606-.556-4.997-1.577-.29-.29-.087-.56-.087-.56l.944-1.35c.192-.252.435-.164.54-.091ZM37.38 14.913c.06.683.607 1.553 1.553 1.553h.554c.215 0 .391-.176.391-.391V3.892h-.002a.39.39 0 0 0-.389-.37h-1.716a.391.391 0 0 0-.389.37h-.002v.99c-1.052-1.297-2.71-1.835-4.373-1.835a6.846 6.846 0 0 0-6.843 6.85 6.846 6.846 0 0 0 6.843 6.848c1.663 0 3.475-.645 4.373-1.834v.002Zm-4.366-.565c-2.404 0-4.352-1.993-4.352-4.452 0-2.458 1.948-4.452 4.352-4.452 2.404 0 4.352 1.994 4.352 4.452 0 2.46-1.948 4.452-4.352 4.452Z"/><path fill="#F06A6A" d="M16.57 10.362a4.605 4.605 0 1 0 0 9.21 4.605 4.605 0 0 0 0-9.21Zm-11.965 0a4.605 4.605 0 1 0 0 9.21 4.605 4.605 0 0 0 0-9.21Zm10.588-5.757a4.605 4.605 0 1 1-9.21 0 4.605 4.605 0 0 1 9.21 0Z"/></g><defs><clipPath id="a"><path fill="#fff" d="M0 0h100v19.643H0z"/></clipPath></defs></svg>