<svg xmlns="http://www.w3.org/2000/svg" width="68.085" height="64" fill="none" viewBox="0 0 50 47"><g clip-path="url(#a)"><path fill="#F06A6A" fill-rule="evenodd" d="M39.071 24.433c-5.997 0-10.859 4.861-10.859 10.859 0 5.997 4.862 10.859 10.86 10.859 5.996 0 10.858-4.862 10.858-10.859 0-5.998-4.862-10.86-10.859-10.86Zm-28.212 0C4.862 24.434 0 29.295 0 35.293s4.862 10.859 10.859 10.859 10.86-4.862 10.86-10.859c0-5.998-4.863-10.858-10.86-10.858ZM35.824 10.86c0 5.997-4.862 10.86-10.859 10.86s-10.859-4.863-10.859-10.86C14.106 4.862 18.968 0 24.966 0c5.996 0 10.858 4.862 10.858 10.859Z" clip-rule="evenodd"/></g><defs><clipPath id="a"><path fill="#fff" d="M0 0h50v46.316H0z"/></clipPath></defs></svg>