<svg xmlns="http://www.w3.org/2000/svg" width="64" height="64" fill="none" viewBox="0 0 50 50"><g clip-path="url(#a)"><path fill="url(#b)" d="M15.187 23.22a1.385 1.385 0 0 0-2.356.256L.893 47.345a1.427 1.427 0 0 0 1.276 2.065h16.623a1.38 1.38 0 0 0 1.276-.789c3.586-7.41 1.413-18.676-4.881-25.4Z"/><path fill="#2684ff" d="M23.945 1.51a31.48 31.48 0 0 0-1.838 31.083L30.12 48.62a1.43 1.43 0 0 0 1.276.789h16.62a1.426 1.426 0 0 0 1.276-2.065S26.933 2.62 26.372 1.502a1.348 1.348 0 0 0-2.427.008"/></g><defs><linearGradient id="b" x1="21.729" x2="9.131" y1="26.904" y2="48.726" gradientUnits="userSpaceOnUse"><stop stop-color="#0052cc"/><stop offset=".923" stop-color="#2684ff"/></linearGradient><clipPath id="a"><path fill="#fff" d="M0 0h50v50H0z"/></clipPath></defs></svg>