<svg xmlns="http://www.w3.org/2000/svg" width="492.308" height="64" fill="none" viewBox="0 0 100 13"><g clip-path="url(#a)"><path fill="url(#b)" d="M3.631 5.65a.348.348 0 0 0-.592.064L.038 11.715a.359.359 0 0 0 .32.52h4.18a.345.345 0 0 0 .32-.199c.902-1.863.356-4.695-1.227-6.386Z"/><path fill="#2684FF" d="M5.833.192a7.915 7.915 0 0 0-.462 7.814l2.015 4.03a.36.36 0 0 0 .32.198h4.18a.358.358 0 0 0 .32-.519S6.585.471 6.443.19a.339.339 0 0 0-.61.002Z"/><path fill="#0052CC" d="M54.843 5.004c0 1.485.69 2.665 3.385 3.186 1.609.338 1.946.597 1.946 1.134 0 .52-.338.858-1.47.858a8.299 8.299 0 0 1-3.907-1.057v2.42c.812.398 1.884.842 3.876.842 2.818 0 3.937-1.257 3.937-3.125l-7.767-4.258Zm7.767 4.258c0-1.761-.935-2.589-3.57-3.155-1.455-.322-1.807-.644-1.807-1.103 0-.582.52-.828 1.486-.828 1.164 0 2.313.353 3.4.843V2.706a7.687 7.687 0 0 0-3.324-.69c-2.604 0-3.952 1.134-3.952 2.988M91.055 2.17v10.064h2.144V4.56l.904 2.038 3.034 5.637h2.696V2.17h-2.145v6.496l-.812-1.884-2.436-4.612h-3.385ZM77.414 2.17H75.07v10.064h2.344V2.17ZM72.368 9.262c0-1.761-.935-2.589-3.57-3.155-1.455-.322-1.808-.644-1.808-1.103 0-.582.521-.828 1.486-.828 1.165 0 2.314.353 3.401.843V2.706a7.686 7.686 0 0 0-3.324-.69c-2.604 0-3.952 1.134-3.952 2.988 0 1.485.689 2.665 3.385 3.186 1.609.338 1.946.597 1.946 1.134 0 .52-.338.858-1.47.858a8.299 8.299 0 0 1-3.907-1.057v2.42c.812.398 1.884.842 3.875.842 2.82 0 3.938-1.257 3.938-3.125ZM36.633 2.17v10.064h4.817l.759-2.175h-3.217v-7.89h-2.36ZM27.117 2.17v2.175h2.604v7.89h2.36v-7.89h2.788V2.169h-7.752ZM23.695 2.17h-3.091l-3.51 10.064h2.68l.498-1.695c1.225.36 2.528.36 3.754 0l.497 1.695h2.68L23.696 2.17ZM22.15 8.723c-.436 0-.87-.062-1.29-.185l1.29-4.393 1.29 4.394a4.578 4.578 0 0 1-1.29.184ZM49.758 2.17h-3.092l-3.51 10.064h2.681l.498-1.695c1.225.36 2.528.36 3.754 0l.497 1.695h2.68L49.759 2.17Zm-1.546 6.554c-.437 0-.871-.062-1.29-.185l1.29-4.393 1.29 4.394a4.578 4.578 0 0 1-1.29.184ZM85.86 2.17h-3.092l-3.51 10.064h2.68l.498-1.695c1.226.36 2.529.36 3.754 0l.498 1.695h2.68L85.86 2.17Zm-1.548 6.554c-.436 0-.87-.062-1.29-.185l1.29-4.393 1.29 4.394a4.578 4.578 0 0 1-1.29.184Z"/></g><defs><linearGradient id="b" x1="5.276" x2="2.109" y1="6.576" y2="12.062" gradientUnits="userSpaceOnUse"><stop stop-color="#0052CC"/><stop offset=".923" stop-color="#2684FF"/></linearGradient><clipPath id="a"><path fill="#fff" d="M0 0h100v12.57H0z"/></clipPath></defs></svg>