<svg xmlns="http://www.w3.org/2000/svg" width="256" height="64" fill="none" viewBox="0 0 100 25"><g clip-path="url(#a)"><path fill="#000" fill-rule="evenodd" d="M79.949 4.36a2.474 2.474 0 0 1-1.816.757c-.685 0-1.28-.252-1.783-.756-.503-.504-.755-1.1-.755-1.786 0-.687.252-1.288.755-1.803C76.853.257 77.448 0 78.133 0c.707 0 1.312.257 1.816.772.503.515.755 1.116.755 1.803 0 .686-.252 1.282-.755 1.786ZM61.61 23.14c-2.806.322-5.71.059-6.9-.788-1.188-.848-1.783-2.387-1.783-4.619V11.04h-2.795V7.048h2.795V2.575l4.145-.033v4.506h3.63v3.99h-3.63v6.694c0 .558.14.966.418 1.223.278.258.685.403 1.22.435.536.032 2.108.027 2.9-.016v3.765Zm-22.95.45c2.249 0 3.995-.782 5.237-2.349v1.899h4.145V7.048h-4.145v1.899c-1.242-1.567-2.988-2.35-5.237-2.35-2.142 0-3.985.826-5.527 2.478-1.52 1.652-2.281 3.658-2.281 6.019 0 2.381.76 4.398 2.281 6.05 1.542 1.63 3.385 2.446 5.527 2.446Zm.77-3.958c-1.284 0-2.345-.418-3.18-1.255-.836-.858-1.253-1.952-1.253-3.283 0-1.33.417-2.413 1.253-3.25.835-.858 1.896-1.287 3.18-1.287 1.286 0 2.346.429 3.182 1.287.857.837 1.285 1.92 1.285 3.25s-.428 2.425-1.285 3.283c-.836.837-1.896 1.255-3.181 1.255Zm27.473 2.72c1.189.847 4.094 1.11 6.9.788v-3.765c-.793.043-2.364.048-2.9.016-.535-.032-.942-.177-1.22-.435-.279-.257-.418-.665-.418-1.223V11.04h3.63V7.048h-3.63V2.542l-4.145.033v4.473h-2.796v3.99h2.796v6.694c0 2.232.594 3.771 1.783 4.619Zm13.319.788V7.048h-4.145v16.091h4.145Zm11.07.45c2.398 0 4.412-.815 6.04-2.445 1.65-1.652 2.474-3.669 2.474-6.05 0-2.36-.825-4.367-2.474-6.019-1.65-1.652-3.663-2.478-6.04-2.478-2.379 0-4.392.826-6.042 2.478-1.628 1.631-2.442 3.637-2.442 6.019 0 2.402.814 4.42 2.442 6.05 1.628 1.63 3.642 2.446 6.041 2.446Zm0-4.054c-1.243 0-2.282-.419-3.118-1.256-.814-.858-1.22-1.92-1.22-3.185 0-1.266.406-2.328 1.22-3.187.835-.836 1.875-1.255 3.117-1.255s2.281.419 3.117 1.255c.835.837 1.253 1.9 1.253 3.187s-.418 2.349-1.253 3.185c-.836.837-1.875 1.256-3.117 1.256Z" clip-rule="evenodd"/><path fill="#DF3F40" d="M5.444.915a5.444 5.444 0 1 0 0 10.887 5.444 5.444 0 0 0 0-10.887Z"/><path fill="#00BCA6" fill-rule="evenodd" d="M12.703 6.358a5.444 5.444 0 0 1 10.888 0v5.39c0 .03-.025.054-.055.054h-5.39a5.444 5.444 0 0 1-5.443-5.444Z" clip-rule="evenodd"/><path fill="#967DB8" d="M0 19.06a5.444 5.444 0 0 1 10.887 0v5.39c0 .03-.024.054-.054.054h-5.39A5.444 5.444 0 0 1 0 19.06Z"/><path fill="#EDC500" d="M12.703 19.06a5.444 5.444 0 0 1 10.888 0v5.39c0 .03-.025.054-.055.054H12.757a.054.054 0 0 1-.054-.054v-5.39Z"/></g><defs><clipPath id="a"><path fill="#fff" d="M0 0h100v24.711H0z"/></clipPath></defs></svg>