<svg xmlns="http://www.w3.org/2000/svg" width="256" height="64" fill="none" viewBox="0 0 100 25"><g clip-path="url(#a)"><path fill="#000" fill-rule="evenodd" d="M79.949 4.36a2.47 2.47 0 0 1-1.816.757q-1.028 0-1.783-.756t-.755-1.786.755-1.803Q77.105 0 78.133 0a2.45 2.45 0 0 1 1.816.772q.755.773.755 1.803t-.755 1.786ZM61.61 23.14c-2.806.322-5.71.059-6.9-.788q-1.782-1.272-1.783-4.619V11.04h-2.795V7.048h2.795V2.575l4.145-.033v4.506h3.63v3.99h-3.63v6.694q0 .837.418 1.223.417.387 1.22.435c.536.032 2.108.027 2.9-.016v3.765Zm-22.95.45q3.374 0 5.237-2.349v1.899h4.145V7.048h-4.145v1.899q-1.863-2.35-5.237-2.35-3.214 0-5.527 2.478-2.28 2.478-2.281 6.019 0 3.572 2.281 6.05 2.313 2.445 5.527 2.446m.77-3.958q-1.927 0-3.18-1.255-1.254-1.287-1.253-3.283 0-1.995 1.253-3.25 1.253-1.287 3.18-1.287t3.182 1.287q1.285 1.255 1.285 3.25c0 1.995-.428 2.425-1.285 3.283q-1.254 1.255-3.181 1.255Zm27.473 2.72c1.189.847 4.094 1.11 6.9.788v-3.765c-.793.043-2.364.048-2.9.016q-.803-.048-1.22-.435-.418-.386-.418-1.223V11.04h3.63V7.048h-3.63V2.542l-4.145.033v4.473h-2.796v3.99h2.796v6.694q0 3.348 1.783 4.619Zm13.319.788V7.048h-4.145v16.091h4.145Zm11.07.45q3.597 0 6.04-2.445 2.474-2.478 2.474-6.05 0-3.54-2.474-6.019t-6.04-2.478q-3.568 0-6.042 2.478-2.442 2.446-2.442 6.019 0 3.604 2.442 6.05t6.041 2.446Zm0-4.054q-1.864 0-3.118-1.256-1.22-1.287-1.22-3.185t1.22-3.187q1.253-1.255 3.117-1.255c1.864 0 2.281.419 3.117 1.255q1.253 1.256 1.253 3.187c0 1.931-.418 2.349-1.253 3.185q-1.254 1.256-3.117 1.256Z" clip-rule="evenodd"/><path fill="#df3f40" d="M5.444.915a5.444 5.444 0 1 0 0 10.887 5.444 5.444 0 0 0 0-10.887"/><path fill="#00bca6" fill-rule="evenodd" d="M12.703 6.358a5.444 5.444 0 0 1 10.888 0v5.39c0 .03-.025.054-.055.054h-5.39a5.444 5.444 0 0 1-5.443-5.444" clip-rule="evenodd"/><path fill="#967db8" d="M0 19.06a5.444 5.444 0 0 1 10.887 0v5.39c0 .03-.024.054-.054.054h-5.39A5.444 5.444 0 0 1 0 19.06"/><path fill="#edc500" d="M12.703 19.06a5.444 5.444 0 0 1 10.888 0v5.39c0 .03-.025.054-.055.054H12.757a.054.054 0 0 1-.054-.054z"/></g><defs><clipPath id="a"><path fill="#fff" d="M0 0h100v24.711H0z"/></clipPath></defs></svg>