<svg xmlns="http://www.w3.org/2000/svg" width="64" height="64" fill="none" viewBox="0 0 32 32"><path fill="#000" fill-rule="evenodd" d="M5.59 11C2.525 11-.051 13.53 0 16.59.053 19.594 2.54 22 5.59 22c1.31 0 2.516-.444 3.47-1.188A5.63 5.63 0 0 0 12.53 22c1.31 0 2.516-.444 3.47-1.188A5.63 5.63 0 0 0 19.47 22c1.31 0 2.516-.444 3.47-1.188A5.63 5.63 0 0 0 26.41 22c3.05 0 5.538-2.406 5.59-5.41.051-3.06-2.525-5.59-5.59-5.59-1.299 0-2.51.454-3.47 1.21A5.6 5.6 0 0 0 19.47 11c-1.299 0-2.51.454-3.47 1.21A5.6 5.6 0 0 0 12.53 11c-1.299 0-2.51.454-3.47 1.21A5.6 5.6 0 0 0 5.59 11m6.94 9.752c-.96 0-1.847-.308-2.565-.829a5.39 5.39 0 0 0-.003-6.823 4.33 4.33 0 0 1 2.568-.852c.952 0 1.844.319 2.568.852a5.39 5.39 0 0 0-.003 6.823 4.35 4.35 0 0 1-2.565.829M9.913 16.57a4.15 4.15 0 0 0-.853-2.58 4.15 4.15 0 0 0 0 5.047 4.2 4.2 0 0 0 .853-2.467m-2.972.02a5.4 5.4 0 0 1 1.217-3.49 4.33 4.33 0 0 0-2.568-.852c-2.367 0-4.363 1.968-4.323 4.322.039 2.32 1.962 4.182 4.323 4.182.96 0 1.847-.308 2.565-.829a5.42 5.42 0 0 1-1.214-3.332m11.178 0a5.4 5.4 0 0 0-1.217-3.49 4.33 4.33 0 0 1 2.568-.852c.952 0 1.844.319 2.568.852a5.39 5.39 0 0 0-.003 6.823 4.35 4.35 0 0 1-2.565.829c-.96 0-1.847-.308-2.565-.829a5.43 5.43 0 0 0 1.214-3.332m3.968-.02a4.15 4.15 0 0 1 .853-2.58 4.15 4.15 0 0 1 0 5.047 4.2 4.2 0 0 1-.854-2.467m4.323 4.182c-.96 0-1.847-.308-2.565-.829a5.39 5.39 0 0 0-.003-6.823 4.33 4.33 0 0 1 2.568-.852c2.367 0 4.363 1.968 4.323 4.322-.039 2.32-1.962 4.182-4.323 4.182m-9.557-4.153A4.15 4.15 0 0 0 16 14.02a4.15 4.15 0 0 0 0 5.046 4.2 4.2 0 0 0 .853-2.467" clip-rule="evenodd"/></svg>