<svg xmlns="http://www.w3.org/2000/svg" width="192" height="64" fill="none" viewBox="0 0 66 22"><g clip-path="url(#a)"><path fill="#000" fill-rule="evenodd" d="M12.18 0C6.05 0 .898 5.06 1 11.18 1.106 17.188 6.08 22 12.18 22c2.62 0 5.032-.888 6.94-2.376A11.26 11.26 0 0 0 26.06 22c2.62 0 5.032-.888 6.94-2.376A11.26 11.26 0 0 0 39.94 22c2.62 0 5.032-.888 6.94-2.376A11.26 11.26 0 0 0 53.82 22c6.1 0 11.076-4.812 11.18-10.82C65.102 5.06 59.95 0 53.82 0c-2.598 0-5.02.908-6.94 2.42A11.2 11.2 0 0 0 39.94 0C37.342 0 34.92.908 33 2.42A11.2 11.2 0 0 0 26.06 0c-2.598 0-5.02.908-6.94 2.42A11.2 11.2 0 0 0 12.18 0m13.88 19.504a8.7 8.7 0 0 1-5.13-1.658A10.78 10.78 0 0 0 20.924 4.2a8.66 8.66 0 0 1 5.136-1.704c1.904 0 3.688.638 5.136 1.704a10.78 10.78 0 0 0-.006 13.646 8.7 8.7 0 0 1-5.13 1.658m-5.234-8.364a8.3 8.3 0 0 0-1.706-5.16 8.3 8.3 0 0 0 0 10.094 8.4 8.4 0 0 0 1.706-4.934m-5.944.04a10.8 10.8 0 0 1 2.434-6.98 8.66 8.66 0 0 0-5.136-1.704c-4.734 0-8.726 3.936-8.646 8.644.078 4.64 3.924 8.364 8.646 8.364 1.92 0 3.694-.616 5.13-1.658a10.85 10.85 0 0 1-2.428-6.666m22.356.002a10.8 10.8 0 0 0-2.434-6.98 8.66 8.66 0 0 1 5.136-1.704c1.904 0 3.688.638 5.136 1.704a10.78 10.78 0 0 0-.006 13.646 8.7 8.7 0 0 1-5.13 1.658 8.7 8.7 0 0 1-5.13-1.658 10.87 10.87 0 0 0 2.428-6.666m7.936-.038a8.3 8.3 0 0 1 1.706-5.16 8.3 8.3 0 0 1 0 10.094 8.4 8.4 0 0 1-1.706-4.934m8.644 8.364a8.7 8.7 0 0 1-5.13-1.658 10.78 10.78 0 0 0-.006-13.646A8.66 8.66 0 0 1 53.818 2.5c4.734 0 8.726 3.936 8.646 8.644-.078 4.64-3.924 8.364-8.646 8.364m-19.114-8.306A8.3 8.3 0 0 0 33 6.04a8.3 8.3 0 0 0 0 10.092 8.4 8.4 0 0 0 1.706-4.934" clip-rule="evenodd"/></g><defs><clipPath id="a"><path fill="#fff" d="M0 0h66v22H0z"/></clipPath></defs></svg>