<svg xmlns="http://www.w3.org/2000/svg" width="102.737" height="64" fill="none" viewBox="0 0 61 38"><g clip-path="url(#a)"><mask id="b" width="61" height="38" x="0" y="0" maskUnits="userSpaceOnUse" style="mask-type:luminance"><path fill="#fff" d="M60.5 0H.5v38h60z"/></mask><g mask="url(#b)"><path fill="#fff" fill-rule="evenodd" d="M50.491 36.792v-7.747h-3.197v7.747zm-16.925-3.216v-4.413h-3.1v3.373c0 .98-.038 1.255-.097 1.51-.216.707-.961 1.02-1.726 1.02-1.059 0-1.55-.412-1.745-1.06a4 4 0 0 1-.098-.685c-.02-.255 0-.53 0-.823v-3.335h-3.138v4.433c0 1 .333 1.745.882 2.255.941.922 2.53 1.197 4.001 1.197 1.785 0 3.158-.255 4.138-1.216.51-.491.883-1.138.883-2.256m-15.22-.55a2.7 2.7 0 0 0-.47-.039h-3.53c-.177 0-.373.02-.47.04.058-.06.176-.177.293-.334l1.589-2.628c.216-.353.314-.588.353-.686.039.098.137.333.353.706l1.628 2.648c.078.117.196.234.255.293m5.924 3.766-7.061-10.59h-3.961l1.039 1.235c.02.02.059.04.098.06-.04.02-.079.038-.098.058L8.13 36.792h3.57l.96-1.589a.5.5 0 0 0 .059-.195c.04 0 .137.038.235.038h6.374c.098 0 .177-.02.216-.038q-.005.085.039.157l1 1.627zm22.162-3.98c0-.864-.354-1.864-1.452-3.257l-2.648-3.353h-3.687l2.099 2.353c.353.392.804.745.804.745-.51-.294-1.157-.412-1.667-.412-1.216 0-2.452.255-3.55.864-1.177.646-1.961 1.725-1.961 3.157 0 1.098.49 1.942 1.118 2.589 1.412 1.412 3.98 1.55 4.922 1.55 1.393 0 3.57-.315 4.806-1.433.726-.666 1.216-1.588 1.216-2.804m-3.06.097c0 .804-.53 1.412-1.197 1.745-.549.295-1.196.373-1.765.373-.568 0-1.235-.118-1.784-.392-.667-.334-1.177-.98-1.177-1.687 0-.843.647-1.51 1.412-1.844.47-.215 1.04-.294 1.49-.294.432 0 1.06.059 1.55.255.883.373 1.471 1.079 1.471 1.844M49.476.953A10.16 10.16 0 0 0 43.15 3.15 10.15 10.15 0 0 0 36.825.953 10.16 10.16 0 0 0 30.5 3.15 10.15 10.15 0 0 0 24.175.953a10.16 10.16 0 0 0-6.326 2.197A10.16 10.16 0 0 0 11.525.953c-5.634 0-10.2 4.566-10.2 10.2 0 5.635 4.565 10.202 10.2 10.202a10.16 10.16 0 0 0 6.326-2.198 10.16 10.16 0 0 0 6.325 2.198 10.15 10.15 0 0 0 6.325-2.198 10.16 10.16 0 0 0 6.325 2.198c2.296.004 4.526-.77 6.325-2.198a10.15 10.15 0 0 0 6.326 2.198c5.635 0 10.2-4.566 10.2-10.201S55.112.953 49.477.953M16.18 17.49a7.9 7.9 0 0 1-4.656 1.527 7.86 7.86 0 0 1-7.864-7.864 7.86 7.86 0 0 1 7.864-7.865 7.92 7.92 0 0 1 4.656 1.528 10.14 10.14 0 0 0-2.206 6.337c0 2.3.778 4.533 2.206 6.337m1.67-1.665a7.8 7.8 0 0 1-1.54-4.672 7.8 7.8 0 0 1 1.54-4.673 7.8 7.8 0 0 1 1.539 4.673 7.82 7.82 0 0 1-1.54 4.672m10.98 1.665a7.84 7.84 0 0 1-4.66 1.525 7.8 7.8 0 0 1-4.651-1.525 10.2 10.2 0 0 0 2.206-6.337 10.14 10.14 0 0 0-2.206-6.337 7.8 7.8 0 0 1 4.65-1.525c1.745 0 3.357.565 4.662 1.525a10.14 10.14 0 0 0-2.207 6.337c.001 2.3.779 4.534 2.207 6.337m1.67-1.665a7.8 7.8 0 0 1-1.54-4.672A7.8 7.8 0 0 1 30.5 6.48a7.8 7.8 0 0 1 1.539 4.673 7.8 7.8 0 0 1-1.54 4.672M41.48 17.49a7.83 7.83 0 0 1-4.661 1.525 7.8 7.8 0 0 1-4.651-1.525 10.2 10.2 0 0 0 2.206-6.337 10.14 10.14 0 0 0-2.206-6.337 7.8 7.8 0 0 1 4.65-1.525c1.745 0 3.357.565 4.662 1.525a10.14 10.14 0 0 0-2.206 6.337c0 2.3.778 4.533 2.206 6.337m1.67-1.665a7.8 7.8 0 0 1-1.54-4.672 7.8 7.8 0 0 1 1.54-4.673 7.8 7.8 0 0 1 1.538 4.673 7.82 7.82 0 0 1-1.538 4.672m6.325 3.192a7.9 7.9 0 0 1-4.656-1.527 10.2 10.2 0 0 0 2.206-6.337 10.14 10.14 0 0 0-2.206-6.337 7.86 7.86 0 0 1 12.52 6.337 7.86 7.86 0 0 1-7.864 7.864" clip-rule="evenodd"/></g></g><defs><clipPath id="a"><path fill="#fff" d="M.5 0h60v38H.5z"/></clipPath></defs></svg>