<svg xmlns="http://www.w3.org/2000/svg" width="64" height="64" viewBox="0 0 192.756 192.756"><g fill-rule="evenodd" clip-rule="evenodd"><path fill="#fff" d="M0 0h192.756v192.756H0z"/><path d="M156.588 149.965v-23.332h-9.629v23.332zm-50.977-9.688v-13.291h-9.333v10.16c0 2.953-.118 3.781-.295 4.549-.65 2.127-2.895 3.07-5.198 3.07-3.189 0-4.666-1.24-5.257-3.189-.177-.648-.236-1.357-.295-2.066-.059-.768 0-1.596 0-2.48v-10.043h-9.451v13.35c0 3.014 1.005 5.258 2.658 6.793 2.835 2.777 7.62 3.604 12.05 3.604 5.375 0 9.51-.768 12.463-3.662 1.537-1.478 2.658-3.427 2.658-6.795m-45.837-1.654a8 8 0 0 0-1.417-.117H47.725c-.532 0-1.123.059-1.418.117.177-.178.532-.531.886-1.004l4.784-7.916c.65-1.062.945-1.771 1.063-2.066.118.295.413 1.004 1.063 2.127l4.903 7.975c.237.353.591.706.768.884m17.839 11.342-21.265-31.896H44.417l3.13 3.721c.059.059.178.117.295.178-.118.059-.236.117-.295.176L29 149.965h10.75l2.895-4.785c.118-.236.177-.473.177-.59.118 0 .414.117.709.117h19.197c.295 0 .531-.059.649-.117a.8.8 0 0 0 .118.473l3.013 4.902zm66.748-11.99c0-2.6-1.064-5.613-4.371-9.807l-7.975-10.1H120.91l6.32 7.088c1.064 1.182 2.422 2.244 2.422 2.244-1.535-.887-3.484-1.24-5.02-1.24-3.662 0-7.385.768-10.691 2.6-3.545 1.947-5.908 5.197-5.908 9.51 0 3.307 1.477 5.848 3.367 7.797 4.254 4.252 11.99 4.666 14.826 4.666 4.193 0 10.75-.945 14.473-4.312 2.186-2.009 3.662-4.784 3.662-8.446m-9.215.295c0 2.422-1.596 4.252-3.604 5.256-1.654.887-3.604 1.123-5.316 1.123s-3.721-.355-5.375-1.182c-2.008-1.004-3.545-2.953-3.545-5.08 0-2.539 1.949-4.549 4.254-5.553 1.418-.648 3.131-.885 4.488-.885 1.301 0 3.191.176 4.668.768 2.659 1.121 4.43 3.248 4.43 5.553m18.383-96.247a30.6 30.6 0 0 0-19.051 6.619 30.58 30.58 0 0 0-19.051-6.619 30.6 30.6 0 0 0-19.05 6.619 30.57 30.57 0 0 0-19.05-6.619 30.6 30.6 0 0 0-19.05 6.619 30.6 30.6 0 0 0-19.05-6.619c-16.971 0-30.724 13.752-30.724 30.724 0 16.97 13.752 30.724 30.724 30.724a30.6 30.6 0 0 0 19.05-6.619 30.6 30.6 0 0 0 19.05 6.619 30.58 30.58 0 0 0 19.05-6.619 30.6 30.6 0 0 0 19.05 6.619 30.58 30.58 0 0 0 19.051-6.619 30.58 30.58 0 0 0 19.051 6.619c16.971 0 30.723-13.753 30.723-30.724S170.5 42.023 153.529 42.023M53.25 91.833c-3.915 2.856-8.806 4.599-14.023 4.599-13.092 0-23.686-10.593-23.686-23.685s10.594-23.686 23.686-23.686c5.217 0 10.105 1.744 14.023 4.601a30.54 30.54 0 0 0-6.646 19.085 30.77 30.77 0 0 0 6.646 19.086m5.028-5.013a23.54 23.54 0 0 1-4.635-14.073 23.5 23.5 0 0 1 4.635-14.073 23.5 23.5 0 0 1 4.635 14.073 23.55 23.55 0 0 1-4.635 14.073m33.073 5.013a23.6 23.6 0 0 1-14.04 4.592 23.5 23.5 0 0 1-14.007-4.592 30.76 30.76 0 0 0 6.646-19.085 30.54 30.54 0 0 0-6.646-19.085 23.5 23.5 0 0 1 14.007-4.593c5.255 0 10.11 1.7 14.04 4.593a30.54 30.54 0 0 0-6.646 19.085 30.76 30.76 0 0 0 6.646 19.085m5.026-5.013a23.54 23.54 0 0 1-4.635-14.073 23.5 23.5 0 0 1 4.635-14.073 23.5 23.5 0 0 1 4.636 14.073 23.54 23.54 0 0 1-4.636 14.073m33.074 5.013c-3.93 2.894-8.785 4.592-14.039 4.592s-10.078-1.701-14.008-4.592a30.76 30.76 0 0 0 6.646-19.085 30.54 30.54 0 0 0-6.646-19.085c3.93-2.892 8.754-4.593 14.008-4.593s10.109 1.7 14.039 4.593a30.55 30.55 0 0 0-6.646 19.085 30.77 30.77 0 0 0 6.646 19.085m5.028-5.013a23.54 23.54 0 0 1-4.635-14.073 23.5 23.5 0 0 1 4.635-14.073 23.5 23.5 0 0 1 4.635 14.073 23.55 23.55 0 0 1-4.635 14.073m19.05 9.612c-5.219 0-10.109-1.743-14.023-4.599a30.77 30.77 0 0 0 6.646-19.085 30.55 30.55 0 0 0-6.646-19.085c3.918-2.856 8.805-4.601 14.023-4.601 13.09 0 23.686 10.594 23.686 23.686 0 13.09-10.596 23.684-23.686 23.684"/></g></svg>