<svg xmlns="http://www.w3.org/2000/svg" width="57.143" height="64" fill="none" viewBox="0 0 50 56"><g clip-path="url(#a)"><path fill="#000" d="M39.589 44.593 33.993 27.56l14.65-10.523h-18.11L24.938.005 24.935 0h18.112l5.598 17.035.005-.003c3.25 9.883-.098 21.123-9.061 27.561Zm-29.306 0-.005.003 14.654 10.527 14.657-10.53-14.652-10.526-14.654 10.526Zm-9.057-27.56c-3.422 10.417.55 21.455 9.054 27.562l.001-.005 5.598-17.032L1.232 17.036h18.105L24.934.005 24.935 0H6.823L1.226 17.032Z"/></g><defs><clipPath id="a"><path fill="#fff" d="M0 0h50v55.172H0z"/></clipPath></defs></svg>