<svg xmlns="http://www.w3.org/2000/svg" width="213.333" height="64" fill="none" viewBox="0 0 100 30"><g clip-path="url(#a)"><path fill="#000" d="M22.88 0h-9.594l2.963 9.273h9.595l-7.76 5.522 2.962 9.322c4.994-3.652 6.632-9.184 4.798-14.854L22.88 0ZM.73 9.273h9.595L13.285 0H3.692L.729 9.273c-1.835 5.67-.196 11.202 4.797 14.854l2.963-9.322-7.76-5.532Zm4.797 14.844 7.76 5.512 7.76-5.512-7.76-5.61-7.76 5.61Zm72.41-15.08c-2.266 0-3.718 1.033-4.395 2.716h-.176V4.125H69.96v19.953h3.482v-8.663c0-2.146 1.325-3.376 3.199-3.376 1.824 0 2.903 1.171 2.903 3.17v8.869h3.483v-9.45c-.01-3.593-2.03-5.592-5.092-5.592Zm14.5-4.952c-4.709 0-7.554 3.701-7.564 10.13 0 6.447 2.826 10.197 7.564 10.197 4.729.01 7.564-3.74 7.564-10.198-.01-6.418-2.855-10.129-7.564-10.129Zm-3.963 10.13c.01-4.696 1.53-7.167 3.963-7.167 1.668 0 2.904 1.142 3.522 3.357l-7.426 5.414a20.41 20.41 0 0 1-.06-1.605Zm3.963 7.195c-1.717 0-2.982-1.22-3.58-3.583l7.465-5.444c.059.571.088 1.182.088 1.841 0 4.725-1.52 7.186-3.973 7.186Zm-38.152-3.564c0 2.255-1.61 3.377-3.15 3.377-1.677 0-2.785-1.191-2.785-3.071V9.253h-3.483v9.44c0 3.563 2.02 5.582 4.925 5.582 2.217 0 3.767-1.172 4.444-2.826h.157v2.638h3.374V9.253h-3.482v8.593Zm-17.296-8.82c-3.11 0-5.494 1.389-6.259 4.096l3.247.462c.344-1.014 1.325-1.88 3.032-1.88 1.618 0 2.501.827 2.501 2.284v.059c0 1.004-1.05 1.053-3.659 1.329-2.865.305-5.612 1.171-5.612 4.508 0 2.914 2.13 4.46 4.945 4.46 2.315 0 3.699-1.093 4.336-2.334h.118v2.038h3.345v-9.922c.01-3.918-3.169-5.1-5.994-5.1Zm2.531 9.697c0 1.653-1.324 3.051-3.424 3.051-1.451 0-2.492-.67-2.492-1.949 0-1.339 1.168-1.9 2.718-2.126.912-.128 2.737-.354 3.198-.729v1.753ZM65.203 5.542H61.72v3.711h-2.11v2.786h2.11v8.21c-.02 2.785 2.001 4.163 4.62 4.085a6.847 6.847 0 0 0 1.776-.266v-2.766c-.264.04-.882.118-1.324.128-.873.02-1.58-.305-1.58-1.723v-7.668h2.904V9.263h-2.913V5.542Z"/></g><defs><clipPath id="a"><path fill="#fff" d="M0 0h100v29.63H0z"/></clipPath></defs></svg>