<svg xmlns="http://www.w3.org/2000/svg" width="187.077" height="64" fill="none" viewBox="0 0 76 26"><g fill-rule="evenodd" clip-path="url(#a)" clip-rule="evenodd"><path fill="#000" d="M2.713 12.988c0-5.688 4.699-10.315 10.473-10.315 5.776 0 10.474 4.627 10.474 10.315s-4.698 10.315-10.474 10.315c-5.774 0-10.473-4.627-10.473-10.315m-2.713 0c0 7.161 5.915 12.988 13.186 12.988 7.272 0 13.187-5.827 13.187-12.988C26.373 5.826 20.458 0 13.186 0 5.916 0 0 5.826 0 12.988M50.92.016h-2.896l-8.436 21.74L31.134.016h-2.915l10.102 25.959h2.534zm11.893 2.68c-5.774 0-10.473 4.627-10.473 10.314s4.699 10.316 10.473 10.316 10.474-4.628 10.474-10.316c0-5.687-4.699-10.315-10.474-10.315Zm0 23.302c-7.27 0-13.186-5.826-13.186-12.988 0-7.16 5.916-12.987 13.186-12.987C70.085.023 76 5.849 76 13.01S70.085 26 62.813 26Z"/><path fill="#ec008c" d="M22.883 26h4.07V0h-4.07z"/></g><defs><clipPath id="a"><path fill="#fff" d="M0 0h76v26H0z"/></clipPath></defs></svg>