<svg xmlns="http://www.w3.org/2000/svg" width="182.154" height="64" fill="none" viewBox="0 0 74 26"><g fill-rule="evenodd" clip-path="url(#a)" clip-rule="evenodd"><path fill="#000" d="M2.642 12.988c0-5.688 4.575-10.315 10.197-10.315 5.623 0 10.198 4.627 10.198 10.315S18.462 23.303 12.84 23.303c-5.622 0-10.197-4.627-10.197-10.315Zm-2.642 0c0 7.161 5.76 12.988 12.84 12.988s12.84-5.827 12.84-12.988C25.68 5.826 19.92 0 12.84 0S0 5.826 0 12.988ZM49.58.016h-2.82l-8.214 21.74L30.314.016h-2.837l9.835 25.959h2.468L49.58.016Zm11.58 2.68c-5.622 0-10.197 4.627-10.197 10.314 0 5.688 4.575 10.316 10.197 10.316 5.623 0 10.198-4.628 10.198-10.316 0-5.687-4.575-10.315-10.198-10.315Zm0 23.302c-7.079 0-12.84-5.826-12.84-12.988C48.32 5.85 54.082.023 61.16.023 68.24.023 74 5.849 74 13.01 74 20.172 68.24 26 61.16 26Z"/><path fill="#EC008C" d="M22.281 26h3.963V0h-3.963v26Z"/></g><defs><clipPath id="a"><path fill="#fff" d="M0 0h74v26H0z"/></clipPath></defs></svg>