<svg xmlns="http://www.w3.org/2000/svg" width="228.571" height="64" fill="none" viewBox="0 0 100 28"><g clip-path="url(#a)"><path fill="#1D2D35" d="M25.27 17.133c-.6 0-1.067-.466-1.133-1.066-.4-5.734-3.534-13.8-9.334-13.8-4.8 0-8.4 3.333-10.733 9.933-.2.6-.867.933-1.467.667-.6-.2-.933-.867-.666-1.4C4.603 3.867 8.937 0 14.803 0c7.667 0 11.2 9.733 11.6 15.933.067.6-.4 1.2-1.066 1.2z"/><path fill="#FFE000" d="m27.933 19.333-20 8.267L0 8.4l3.6-1.467L20.067.2z" opacity=".4"/><path fill="#FFE000" d="m27.002 21.533-21.2 4.4L1.602 5.6l3.533-.733L22.802 1.2z"/><path fill="#1D2D35" d="M14.531 21.333a13.66 13.66 0 0 1-10.2-4.6c-.333-.266-.4-.733-.267-1.133.734-1.933 2.667-6.4 5.134-6.467 1.266 0 2.2 1 2.933 1.8.2.267.533.6.8.8.6-.6 1.733-2.466 2.6-4.4.267-.6.933-.8 1.533-.533s.8.933.534 1.533c-2.667 5.8-4.067 5.8-4.6 5.8-1.067 0-1.8-.8-2.534-1.6-.333-.333-1-1.066-1.266-1.066-.6.066-1.867 2.133-2.734 4.333 2.2 2.2 5.2 3.4 8.267 3.333 2.667 0 7.4-.466 9.333-3.333-.533-5.733-3.666-13.467-9.333-13.467-.6 0-1.133-.533-1.133-1.133s.533-1.2 1.2-1.2c7.666 0 11.2 9.733 11.6 15.933 0 .2-.067.467-.134.667-1.8 3.067-5.866 4.8-11.466 4.8-.067-.067-.2-.067-.267-.067M31.203 5.667h4.067c2.266 0 3.466.933 3.466 2.666V8.4c.067 1.067-.666 2-1.666 2.2 1.267.133 2.133 1.2 2.066 2.467v.066c0 1.934-1.266 2.934-3.666 2.934h-4.267zm3.667 4.266c1.133 0 1.6-.4 1.6-1.333v-.067c0-.866-.467-1.266-1.6-1.266h-1.4v2.666zm.267 4.467c1.133 0 1.666-.533 1.666-1.467v-.066c0-.934-.533-1.467-1.8-1.467h-1.467v3zm4.597-.467c0-1.733 1.6-2.4 3.934-2.4h.866V11.2c0-.933-.266-1.4-1.2-1.4-.6-.067-1.2.333-1.266 1v.067h-2c.133-1.8 1.533-2.6 3.4-2.6s3.2.733 3.2 2.8V16H44.6v-.867a2.58 2.58 0 0 1-2.267 1.067c-1.466 0-2.6-.667-2.6-2.267Zm4.8-.533v-.667h-.8c-1.2 0-1.933.267-1.933 1.067 0 .533.333.933 1.133.933.867 0 1.6-.533 1.6-1.333m2.935.267h1.933c.067.666.4 1.066 1.333 1.066.934 0 1.2-.333 1.2-.8 0-.466-.466-.733-1.533-.933-2-.333-2.8-.867-2.8-2.4s1.4-2.333 3-2.333c1.667 0 2.933.6 3.133 2.333h-1.933c-.133-.6-.467-.933-1.2-.933s-1.067.333-1.067.8c0 .466.334.666 1.467.8 1.867.266 2.933.733 2.933 2.4s-1.2 2.533-3.2 2.533-3.2-.933-3.266-2.533m7.062-1.334V12.2a3.7 3.7 0 0 1 3.6-3.933h.334c1.933 0 3.733 1.133 3.733 3.866v.6h-5.534c.067 1.267.734 2 1.867 2 1 0 1.467-.4 1.6-1.066h2c-.267 1.666-1.533 2.533-3.6 2.533-2.333 0-4-1.467-4-3.867m5.534-.933c-.067-1.133-.667-1.733-1.667-1.733-.934 0-1.734.733-1.734 1.733h3.4Zm2.601.933V12.2c-.067-2.067 1.533-3.867 3.6-3.933h.333c1.734 0 3.4.733 3.534 2.933h-2c-.067-.733-.734-1.333-1.467-1.267-1.067 0-1.8.8-1.8 2.267v.133c0 1.534.667 2.334 1.867 2.334.866.066 1.6-.6 1.6-1.467h1.866c-.133 1.8-1.4 3.067-3.6 3.067s-3.933-1.467-3.933-3.934m8.068 1.6c0-1.733 1.6-2.4 3.934-2.4h.866V11.2c0-.933-.266-1.4-1.2-1.4-.6-.067-1.2.333-1.266 1v.133h-2c.133-1.8 1.533-2.6 3.4-2.6s3.2.734 3.2 2.8V16H75.6v-.867a2.58 2.58 0 0 1-2.267 1.067c-1.466 0-2.6-.667-2.6-2.267Zm4.734-.533v-.667h-.8c-1.2 0-1.934.267-1.934 1.067 0 .533.334.933 1.134.933.933 0 1.6-.533 1.6-1.333M79 8.467h2.133V9.6c.467-.867 1.334-1.333 2.334-1.333A2.11 2.11 0 0 1 85.6 9.6a3.04 3.04 0 0 1 2.533-1.333c1.4 0 2.534.866 2.534 2.933V16H88.6v-4.6c0-1-.4-1.4-1.2-1.4-.8-.067-1.467.6-1.467 1.333V16h-2.066v-4.6c0-1-.467-1.4-1.2-1.4-.8-.067-1.4.6-1.467 1.333V16h-2.133zm13.07 0h2.067v1.2a2.82 2.82 0 0 1 2.4-1.334c1.867 0 3.333 1.4 3.333 3.867v.133c0 2.534-1.4 3.934-3.333 3.934a2.54 2.54 0 0 1-2.4-1.334v3.734H92.07zm5.667 3.8v-.134c0-1.533-.733-2.266-1.8-2.266s-1.867.733-1.867 2.266v.134c0 1.533.734 2.266 1.867 2.266s1.8-.8 1.8-2.266"/></g><defs><clipPath id="a"><path fill="#fff" d="M0 0h100v28H0z"/></clipPath></defs></svg>