<svg xmlns="http://www.w3.org/2000/svg" width="64" height="64" fill="none" viewBox="0 0 50 50"><g clip-path="url(#a)"><path fill="#1D2D35" d="M45.175 30.68c-1.065 0-1.893-.828-2.011-1.893C42.454 18.609 36.89 4.26 26.566 4.26c-8.52 0-14.94 5.917-19.083 17.663-.355 1.065-1.538 1.657-2.603 1.183-1.065-.355-1.657-1.538-1.184-2.485C8.43 7.101 16.152.237 26.566.237c13.64 0 19.911 17.307 20.621 28.313.119 1.065-.71 2.13-1.893 2.13h-.118Z"/><path fill="#FFE000" d="M49.909 34.586 14.347 49.29.234 15.148l6.39-2.604L35.886.563 49.91 34.586Z" opacity=".4"/><path fill="#FFE000" d="m48.257 38.52-37.692 7.811-7.456-36.154 6.273-1.301 31.42-6.51 7.455 36.155Z"/><path fill="#1D2D35" d="M26.09 38.166A24.315 24.315 0 0 1 7.956 30c-.592-.474-.71-1.302-.474-2.012 1.302-3.432 4.734-11.39 9.113-11.509 2.248 0 3.905 1.775 5.207 3.195a8.065 8.065 0 0 0 1.42 1.42c1.065-1.065 3.077-4.378 4.616-7.81.473-1.065 1.656-1.42 2.721-.947 1.066.473 1.42 1.657.947 2.722-4.734 10.296-7.219 10.296-8.165 10.296-1.894 0-3.196-1.42-4.498-2.84-.591-.592-1.775-1.894-2.248-1.894-1.065.119-3.314 3.787-4.852 7.693a20.202 20.202 0 0 0 14.704 5.917c4.734 0 13.166-.829 16.598-5.918-.947-10.177-6.51-23.934-16.598-23.934-1.065 0-2.012-.947-2.012-2.012s.947-2.13 2.13-2.13c13.64 0 19.912 17.307 20.622 28.313 0 .355-.119.829-.237 1.184-3.195 5.444-10.414 8.52-20.385 8.52-.118-.088-.355-.088-.473-.088Z"/></g><defs><clipPath id="a"><path fill="#fff" d="M0 0h50v49.408H0z"/></clipPath></defs></svg>