<svg xmlns="http://www.w3.org/2000/svg" width="72.727" height="64" fill="none" viewBox="0 0 50 44"><g fill="#000" clip-path="url(#a)"><path fill-rule="evenodd" d="m40.21 33.33 4.014.772c3.986.767 7.028-3.505 4.998-7.02L34.976 2.41c-2.03-3.515-7.25-3.017-8.58.817L25.059 7.09a7.055 7.055 0 0 1 1.973 2.205L39.286 30.52c.529.915.826 1.867.924 2.81Zm-2.431-.468c-.106-.4-.268-.8-.493-1.188L25.031 10.45a4.844 4.844 0 0 0-.783-1.02l-2.592 7.48 4.74 13.762 11.383 2.19Z" clip-rule="evenodd"/><path d="M4.12 40.92c-2.98-.468-4.767-3.565-3.684-6.38l5.272-13.694c1.43-3.718 6.532-4.117 8.524-.667l9.225 15.977c1.992 3.449-.905 7.667-4.84 7.047L4.12 40.921Z"/><path fill-rule="evenodd" d="m26.393 37.917 6.161.82c3.897.52 6.694-3.659 4.728-7.063L25.027 10.449c-1.966-3.404-6.984-3.071-8.483.562l-2.37 5.746a7.052 7.052 0 0 1 2.06 2.267L25.458 35c.549.951.848 1.94.934 2.917Zm-2.382-.317c-.1-.487-.28-.973-.553-1.445l-9.225-15.977a4.805 4.805 0 0 0-.974-1.2L8.884 29.583c-1.185 2.874.673 6.091 3.754 6.502L24.011 37.6Z" clip-rule="evenodd"/></g><defs><clipPath id="a"><path fill="#fff" d="M0 0h50v43.298H0z"/></clipPath></defs></svg>