<svg xmlns="http://www.w3.org/2000/svg" width="400" height="64" fill="none" viewBox="0 0 100 16"><g fill="#000" clip-path="url(#a)"><path d="M24.898 12.797h3.857c1.996 0 3.372-1.024 3.372-2.818 0-1.24-.728-1.996-1.591-2.333a2.142 2.142 0 0 0 1.105-1.86c0-1.578-1.28-2.428-2.993-2.428h-3.75v9.44Zm1.996-5.838V4.963h1.565c.903 0 1.308.364 1.308.998s-.405.998-1.268.998h-1.605Zm0 4.085V8.671h1.686c1.12 0 1.619.432 1.619 1.2 0 .769-.5 1.173-1.619 1.173h-1.686ZM37.52 10.492c-.148.58-.647.876-1.402.876-.944 0-1.551-.593-1.686-1.55h4.882c.014-.149.027-.351.027-.608 0-1.55-.957-3.317-3.358-3.317-2.306 0-3.358 1.767-3.358 3.493 0 1.712 1.187 3.52 3.493 3.52 1.672 0 2.967-.945 3.237-2.414H37.52Zm-1.537-3.223c.904 0 1.43.607 1.484 1.362h-3.008c.162-.944.674-1.362 1.524-1.362ZM40.855 3.992V5.53c0 .337-.189.472-.472.472h-.836v1.564h1.308v2.765c0 1.577 1.012 2.467 2.576 2.467h1.12v-1.699h-.864c-.607 0-.957-.31-.957-.97V7.564h1.82V6.001h-1.82V3.992h-1.875ZM46.167 3.992V5.53c0 .337-.188.472-.471.472h-.837v1.564h1.308v2.765c0 1.577 1.012 2.467 2.576 2.467h1.12v-1.699h-.864c-.606 0-.957-.31-.957-.97V7.564h1.82V6.001h-1.82V3.992h-1.875ZM55.028 10.492c-.148.58-.648.876-1.402.876-.944 0-1.551-.593-1.686-1.55h4.882c.013-.149.027-.351.027-.608 0-1.55-.958-3.317-3.358-3.317-2.306 0-3.358 1.767-3.358 3.493 0 1.712 1.186 3.52 3.493 3.52 1.672 0 2.966-.945 3.236-2.414h-1.834Zm-1.537-3.223c.903 0 1.43.607 1.483 1.362h-3.007c.161-.944.674-1.362 1.524-1.362ZM61.974 7.565V6.001h-.77c-.822 0-1.335.283-1.699 1.133V6h-1.888v6.796h1.888V9.494c0-1.16.419-1.929 1.35-1.929h1.119ZM68.444 12.905c2.117 0 3.547-1.105 3.547-2.872 0-3.735-4.964-2.144-4.964-4.113 0-.553.5-.93 1.295-.93.904 0 1.47.485 1.537 1.227h1.93c-.055-1.793-1.43-2.967-3.467-2.967-1.915 0-3.263 1.106-3.263 2.67 0 3.709 4.895 2.293 4.895 4.14 0 .715-.607 1.092-1.51 1.092-.998 0-1.632-.606-1.713-1.564h-1.942c.08 2.01 1.51 3.317 3.654 3.317ZM73.566 3.992V5.53c0 .337-.19.472-.472.472h-.836v1.564h1.308v2.765c0 1.577 1.01 2.467 2.576 2.467h1.119v-1.699h-.863c-.607 0-.958-.31-.958-.97V7.564h1.82V6.001h-1.82V3.992h-1.874ZM80.85 12.905c.796 0 1.511-.323 1.848-.822v.714h1.888V6.001h-1.888v.674c-.377-.471-1.052-.782-1.874-.782-1.983 0-3.183 1.39-3.183 3.506 0 2.117 1.2 3.506 3.21 3.506Zm.297-1.618c-.998 0-1.659-.755-1.659-1.888 0-1.146.661-1.901 1.66-1.901 1.01 0 1.671.755 1.671 1.901 0 1.133-.66 1.888-1.672 1.888ZM88.967 12.905c1.767 0 3.17-1.132 3.372-2.643h-1.916c-.134.607-.688 1.025-1.375 1.025-1.025 0-1.632-.782-1.632-1.888 0-1.105.594-1.901 1.605-1.901.688 0 1.268.445 1.375 1.052h1.889c-.122-1.578-1.538-2.657-3.318-2.657-2.104 0-3.506 1.524-3.506 3.506 0 1.983 1.402 3.506 3.506 3.506ZM97.697 12.797h2.266l-2.927-4.126 2.711-2.67h-2.374l-2.36 2.32V3.048h-1.888v9.75h1.888v-2.131l.755-.742 1.929 2.872Z"/><path fill-rule="evenodd" d="m14.681 12.17 1.466.282c1.455.28 2.566-1.28 1.825-2.563L12.77.88c-.741-1.283-2.648-1.1-3.133.3l-.489 1.41c.28.203.528.47.72.805l4.476 7.75c.193.334.301.682.337 1.026Zm-.888-.17a1.767 1.767 0 0 0-.18-.434l-4.475-7.75a1.77 1.77 0 0 0-.285-.373l-.947 2.732L9.637 11.2l4.156.8Z" clip-rule="evenodd"/><path d="M1.509 14.942a1.73 1.73 0 0 1-1.346-2.33l1.925-5c.523-1.358 2.385-1.503 3.113-.244l3.368 5.834c.728 1.26-.33 2.8-1.767 2.574l-5.293-.834Z"/><path fill-rule="evenodd" d="m9.634 13.845 2.25.3c1.423.19 2.444-1.336 1.727-2.58l-4.476-7.75c-.717-1.243-2.55-1.121-3.097.206l-.865 2.098c.293.205.551.48.752.827l3.368 5.834c.2.348.31.709.341 1.065Zm-.87-.116a1.757 1.757 0 0 0-.201-.527L5.194 7.368c-.1-.172-.22-.318-.356-.438l-1.597 3.872a1.73 1.73 0 0 0 1.37 2.374l4.154.553Z" clip-rule="evenodd"/></g><defs><clipPath id="a"><path fill="#fff" d="M0 0h100v15.81H0z"/></clipPath></defs></svg>