<svg xmlns="http://www.w3.org/2000/svg" width="53.76" height="64" fill="none" viewBox="0 0 42 50"><g clip-path="url(#a)"><path fill="url(#b)" d="M22.556 25V2.023c0-1.776-2.231-2.568-3.351-1.19L.528 23.811c-1.002 1.232-.125 3.075 1.464 3.075h18.677A1.886 1.886 0 0 0 22.556 25"/><path fill="#0e153a" d="M39.345 23.114H20.668A1.886 1.886 0 0 0 18.78 25v22.977c0 1.776 2.231 2.568 3.351 1.19L40.81 26.189c1.002-1.232.125-3.075-1.464-3.075Z"/></g><defs><linearGradient id="b" x1="9.348" x2="25.375" y1="3.311" y2="33.493" gradientUnits="userSpaceOnUse"><stop stop-color="#bcbecd"/><stop offset="1" stop-color="#bcbecd" stop-opacity="0"/></linearGradient><clipPath id="a"><path fill="#fff" d="M0 0h41.283v50H0z"/></clipPath></defs></svg>