<svg xmlns="http://www.w3.org/2000/svg" width="400" height="64" fill="none" viewBox="0 0 100 16"><path fill="#2684FF" d="M.837 1.694a.448.448 0 0 0-.448.52L2.29 13.76a.61.61 0 0 0 .595.508h9.125a.45.45 0 0 0 .448-.376l1.906-11.674a.45.45 0 0 0-.448-.52zm8.008 8.345H5.933L5.145 5.92H9.55z"/><path fill="url(#a)" d="M13.754 5.921H9.549l-.706 4.118H5.931l-3.439 4.084a.6.6 0 0 0 .392.148h9.127a.45.45 0 0 0 .448-.377z"/><path fill="#253858" d="M26.566 1.318c2.641 0 3.923 1.301 3.923 3.391 0 1.569-.71 2.523-2.169 2.879 1.913.316 2.859 1.36 2.859 3.195 0 2.07-1.4 3.49-4.297 3.49h-5.343V1.318zm-3.253 1.695v3.863h3.016c1.675 0 2.365-.769 2.365-2.017s-.748-1.852-2.365-1.852zm0 5.442v4.033h3.627c1.696 0 2.464-.612 2.464-1.914 0-1.38-.73-2.128-2.502-2.128zM34.084.628a1.106 1.106 0 0 1 1.183 1.182 1.183 1.183 0 0 1-2.366 0A1.106 1.106 0 0 1 34.084.628m-.867 3.783h1.696v9.857h-1.696zm8.165 8.204q.54-.016 1.065-.139v1.635a4 4 0 0 1-1.143.157c-2.11 0-3.136-1.24-3.136-3.075V5.988H36.57V4.42h1.598V2.323h1.646v2.09h2.621v1.569h-2.62v5.172c0 .867.512 1.461 1.567 1.461m8.052 1.85c-1.438 0-2.543-.65-3.137-1.93v1.733h-1.695V.294h1.707v5.892c.631-1.302 1.814-1.972 3.33-1.972 2.622 0 3.944 2.227 3.944 5.126-.01 2.78-1.39 5.125-4.15 5.125Zm-.258-8.674c-1.523 0-2.867.968-2.867 3.154v.789c0 2.189 1.24 3.154 2.688 3.154 1.913 0 2.899-1.26 2.899-3.548-.018-2.366-.964-3.549-2.72-3.549m6.176-1.38h1.695v5.964c0 1.774.71 2.563 2.326 2.563 1.568 0 2.661-1.044 2.661-3.036v-5.49h1.696v9.856h-1.696v-1.615a3.46 3.46 0 0 1-3.114 1.815c-2.267 0-3.568-1.569-3.568-4.28V4.412Zm17.902 9.602c-.591.316-1.499.448-2.406.448-3.508 0-5.153-2.128-5.153-5.152 0-2.978 1.636-5.106 5.153-5.106a5.2 5.2 0 0 1 2.35.486v1.568a5 5 0 0 0-2.24-.466c-2.563 0-3.607 1.618-3.607 3.529s1.073 3.52 3.656 3.52c.762.02 1.522-.1 2.24-.355zm1.934.255V.294h1.695V9.03l4.24-4.613h2.208l-4.635 4.837 4.83 5.013h-2.308l-4.337-4.612v4.612h-1.694Zm13.95.197c-3.687 0-5.302-2.128-5.302-5.152 0-2.977 1.655-5.106 4.653-5.106 3.035 0 4.256 2.11 4.256 5.106v.768H85.55c.237 1.676 1.321 2.76 3.647 2.76a8.7 8.7 0 0 0 2.997-.533v1.568c-.808.433-2.05.59-3.056.59Zm-3.607-5.824h5.5c-.098-1.833-.927-2.879-2.62-2.879-1.797-.009-2.702 1.154-2.88 2.87zm13.132 3.974q.54-.016 1.065-.139v1.635a4 4 0 0 1-1.143.157c-2.11 0-3.137-1.24-3.137-3.075V5.988h-1.596V4.42h1.596V2.323h1.656v2.09h2.621v1.569h-2.62v5.172c.001.867.51 1.461 1.558 1.461"/><defs><linearGradient id="a" x1="14.726" x2="7.777" y1="7.073" y2="12.498" gradientUnits="userSpaceOnUse"><stop offset=".18" stop-color="#0052CC"/><stop offset="1" stop-color="#2684FF"/></linearGradient></defs></svg>