<svg xmlns="http://www.w3.org/2000/svg" width="306.513" height="64" viewBox="-0.003 0.004 306.507 64"><path fill="#f7931a" d="M63.033 39.744C58.759 56.89 41.396 67.32 24.25 63.046 7.113 58.772-3.32 41.408.956 24.266 5.228 7.12 22.59-3.313 39.73.961c17.144 4.274 27.576 21.64 23.302 38.783z"/><path fill="#fff" d="M46.103 27.445c.637-4.258-2.605-6.547-7.038-8.074l1.438-5.768-3.511-.875-1.4 5.616a149 149 0 0 0-2.812-.662l1.41-5.653-3.51-.875-1.438 5.766c-.764-.174-1.514-.346-2.242-.527l.004-.018-4.842-1.209-.934 3.75s2.605.597 2.55.634c1.422.355 1.679 1.296 1.636 2.042l-1.638 6.571c.098.025.225.062.365.117l-.371-.092-2.296 9.205c-.174.432-.615 1.08-1.61.834.036.051-2.551-.637-2.551-.637l-1.743 4.02 4.569 1.14c.85.212 1.683.435 2.503.645l-1.453 5.834 3.507.875 1.438-5.773c.958.261 1.888.5 2.798.727l-1.434 5.745 3.51.875 1.454-5.823c5.987 1.133 10.489.676 12.384-4.738 1.527-4.36-.076-6.875-3.226-8.516 2.294-.53 4.022-2.039 4.483-5.156M38.08 38.693c-1.085 4.36-8.426 2.004-10.806 1.412l1.928-7.729c2.38.595 10.012 1.771 8.878 6.317m1.086-11.31c-.99 3.965-7.1 1.95-9.082 1.456l1.748-7.01c1.982.494 8.365 1.416 7.334 5.553z"/><path fill="#4d4d4d" d="M93.773 19.365c2.595 0 4.837.465 6.72 1.378 1.894.922 3.456 2.164 4.709 3.726 1.236 1.57 2.156 3.405 2.75 5.508q.886 3.164.886 6.802c0 3.73-.683 7.25-2.062 10.57-1.38 3.325-3.25 6.21-5.63 8.67-2.378 2.457-5.186 4.393-8.424 5.824-3.233 1.432-6.748 2.148-10.522 2.148-.488 0-1.346-.014-2.558-.039s-2.605-.15-4.165-.36a49 49 0 0 1-4.983-.978 25 25 0 0 1-4.983-1.78L79.523 1.956 92.073.012l-5.017 20.893a19.5 19.5 0 0 1 3.236-1.132 14.4 14.4 0 0 1 3.48-.408zm-10.527 34.67c1.89 0 3.67-.465 5.344-1.377a14.1 14.1 0 0 0 4.339-3.686 18.6 18.6 0 0 0 2.873-5.227 17.8 17.8 0 0 0 1.054-6.078c0-2.592-.433-4.61-1.296-6.073-.863-1.455-2.46-2.187-4.78-2.187-.76 0-1.738.145-2.952.404-1.218.275-2.308.846-3.285 1.705L79.2 53.704q.484.086.85.162c.238.055.5.094.763.121.277.031.594.047.977.047zm38.607 8.83h-11.987l10.123-42.597h12.069zm5.833-47.787a7.44 7.44 0 0 1-4.536-1.496c-1.357-.992-2.03-2.519-2.03-4.577 0-1.132.23-2.194.687-3.196a8.6 8.6 0 0 1 1.826-2.593 9 9 0 0 1 2.63-1.743 8 8 0 0 1 3.204-.646q2.506 0 4.532 1.496c1.346 1.003 2.023 2.53 2.023 4.577a7.6 7.6 0 0 1-.69 3.202 8.4 8.4 0 0 1-1.82 2.593 8.8 8.8 0 0 1-2.63 1.738c-1.002.438-2.064.645-3.196.645m14.877-5.423 12.555-1.945-3.083 12.556h13.446l-2.428 9.878h-13.365l-3.56 14.9q-.49 1.861-.566 3.48c-.06 1.083.078 2.013.402 2.796q.482 1.177 1.74 1.817c.837.435 2.034.654 3.604.654 1.293 0 2.554-.123 3.77-.367a26.5 26.5 0 0 0 3.68-1.01l.896 9.235a43 43 0 0 1-5.264 1.535c-1.893.436-4.134.645-6.724.645q-5.584-.002-8.668-1.653c-2.054-1.108-3.506-2.624-4.375-4.542-.857-1.91-1.24-4.113-1.133-6.596.11-2.488.486-5.104 1.133-7.857zm22.391 36.201q0-5.507 1.78-10.369c1.185-3.242 2.892-6.077 5.106-8.509 2.207-2.42 4.896-4.339 8.062-5.747 3.148-1.4 6.676-2.106 10.562-2.106q3.65 0 6.52.691c1.92.465 3.656 1.066 5.227 1.82l-4.133 9.4a39 39 0 0 0-3.361-1.174c-1.16-.357-2.575-.529-4.25-.529-4.002 0-7.164 1.38-9.518 4.128-2.346 2.751-3.527 6.454-3.527 11.1q0 4.128 1.787 6.681c1.186 1.703 3.377 2.551 6.558 2.551 1.569 0 3.085-.164 4.536-.484 1.462-.324 2.753-.732 3.89-1.214l.896 9.636a43 43 0 0 1-5.021 1.584c-1.84.45-4.027.682-6.564.682-3.348 0-6.184-.489-8.502-1.455-2.32-.979-4.237-2.28-5.748-3.928-1.518-1.652-2.607-3.582-3.281-5.795s-1.02-4.54-1.02-6.963zm53.25 18.138c-2.861 0-5.347-.436-7.455-1.299q-3.153-1.291-5.22-3.644c-1.38-1.562-2.411-3.413-3.118-5.546-.707-2.132-1.047-4.493-1.047-7.08 0-3.244.52-6.488 1.574-9.725q1.575-4.86 4.66-8.743c2.043-2.593 4.563-4.713 7.527-6.366 2.963-1.642 6.37-2.468 10.199-2.468 2.809 0 5.28.437 7.418 1.3 2.127.861 3.879 2.082 5.264 3.644 1.37 1.57 2.412 3.413 3.11 5.55.706 2.127 1.054 4.494 1.054 7.083 0 3.234-.514 6.48-1.533 9.724-1.021 3.23-2.536 6.15-4.536 8.744q-2.993 3.885-7.49 6.354c-2.993 1.647-6.466 2.472-10.407 2.472m5.99-34.66c-1.777 0-3.348.515-4.693 1.534q-2.026 1.547-3.397 3.89c-.924 1.57-1.608 3.282-2.071 5.143-.46 1.865-.685 3.63-.685 5.303 0 2.703.437 4.81 1.293 6.324.868 1.506 2.43 2.265 4.698 2.265q2.673 0 4.699-1.542c1.342-1.023 2.478-2.32 3.398-3.887.918-1.56 1.609-3.278 2.072-5.143.453-1.859.684-3.632.684-5.304 0-2.696-.434-4.806-1.3-6.319-.862-1.507-2.431-2.265-4.698-2.265zm31.039 33.531h-11.996l10.123-42.597h12.074zm5.824-47.787a7.42 7.42 0 0 1-4.531-1.496q-2.029-1.489-2.03-4.577a7.6 7.6 0 0 1 .69-3.196 8.4 8.4 0 0 1 1.824-2.593 9 9 0 0 1 2.633-1.743 8 8 0 0 1 3.193-.646q2.516 0 4.539 1.496c1.349 1.003 2.029 2.53 2.029 4.577 0 1.136-.242 2.202-.695 3.202s-1.062 1.861-1.816 2.593a8.9 8.9 0 0 1-2.63 1.738c-1.005.438-2.067.645-3.206.645m13.016 7.127c.91-.266 1.926-.586 3.03-.934a40 40 0 0 1 3.733-.964 45 45 0 0 1 4.613-.734c1.698-.193 3.635-.287 5.785-.287 6.322 0 10.68 1.841 13.086 5.512 2.404 3.671 2.82 8.694 1.26 15.063l-5.514 23H288l5.345-22.517c.325-1.405.58-2.765.77-4.093q.29-1.975-.042-3.48a4.17 4.17 0 0 0-1.494-2.433c-.791-.619-1.986-.93-3.606-.93a24.4 24.4 0 0 0-4.776.492l-7.857 32.958h-12.07z"/></svg>