<svg xmlns="http://www.w3.org/2000/svg" width="457.143" height="64" fill="none" viewBox="0 0 150 21"><g fill="#000" clip-path="url(#a)"><path fill-rule="evenodd" d="M10.542 21c5.822 0 10.542-4.701 10.542-10.5S16.364 0 10.542 0 0 4.701 0 10.5 4.72 21 10.542 21m5.856-16.334H4.685v11.668h11.713z" clip-rule="evenodd"/><path fill-rule="evenodd" d="M10.542 21c5.822 0 10.542-4.701 10.542-10.5S16.364 0 10.542 0 0 4.701 0 10.5 4.72 21 10.542 21m5.856-16.334H4.685v11.668h11.713z" clip-rule="evenodd"/><path d="M35.932 2.131q2.416 0 3.763 1.206 1.368 1.182 1.368 3.185 0 1.116-.524 1.934-.525.795-1.529 1.251v.091q1.233.478 1.916 1.433.684.957.684 2.366 0 2.229-1.413 3.504-1.393 1.274-3.946 1.274h-8.165V2.13h7.846Zm-.639 6.712q1.14 0 1.733-.524.615-.523.616-1.501 0-.979-.616-1.502-.593-.546-1.733-.546h-3.786v4.073zm.274 6.825q1.253 0 1.893-.57.66-.59.661-1.637 0-1.047-.661-1.615-.64-.591-1.893-.592h-4.06v4.414zM46.133 1.904v16.47H42.94V1.905h3.193Zm7.48 4.14q1.87 0 3.26.774a5.27 5.27 0 0 1 2.145 2.207q.752 1.433.752 3.344c0 1.911-.25 2.389-.753 3.344a5.3 5.3 0 0 1-2.143 2.184q-1.392.75-3.262.75-1.894 0-3.307-.75a5.3 5.3 0 0 1-2.144-2.184q-.73-1.433-.73-3.344 0-1.935.73-3.344a5.27 5.27 0 0 1 2.144-2.207q1.413-.774 3.307-.774Zm0 10.215q1.344 0 2.12-1 .776-1.002.776-2.89 0-1.911-.776-2.912-.776-1.024-2.12-1.024-1.37 0-2.167 1.024-.776 1-.776 2.912 0 1.887.776 2.89.797 1 2.166 1Zm13.62.023q2.052 0 2.645-2.343l3.216.364a6.05 6.05 0 0 1-1.87 3.07q-1.413 1.275-3.992 1.275-1.847 0-3.215-.75a5.2 5.2 0 0 1-2.099-2.185q-.73-1.433-.73-3.344c0-1.911.244-2.389.73-3.344a5.17 5.17 0 0 1 2.099-2.207q1.368-.774 3.215-.774 2.509 0 3.878 1.183t1.801 2.617l-3.101.705q-.66-2.115-2.578-2.116-1.299 0-2.052 1.024-.753 1-.753 2.912 0 1.888.753 2.912.753 1 2.052 1Zm10.119 2.093h-3.193V1.904h3.193v9.1l4.356-4.664h3.672l-4.516 4.618 5.04 7.417h-3.716l-3.49-5.3-1.345 1.387v3.913zM96.417 6.59h-.091l-2.44 11.785h-4.152L85.811 2.13h3.513l2.531 12.172h.092L94.433 2.13h3.831l2.486 12.172h.091l2.555-12.172h3.535l-3.923 16.244h-4.105zm18.631 11.785q-.159-.183-.251-.614a5.6 5.6 0 0 1-.091-1.07q-.5.933-1.619 1.456a5.6 5.6 0 0 1-2.372.5 4.7 4.7 0 0 1-2.007-.431 3.8 3.8 0 0 1-1.483-1.229q-.547-.82-.547-1.91 0-1.845 1.255-2.73 1.254-.888 3.763-1.184 1.733-.227 2.349-.5.639-.297.638-.865 0-.683-.524-1.07-.524-.409-1.574-.409-.866 0-1.551.455-.66.455-.935 1.343l-2.942-.455q.389-1.684 1.87-2.64 1.483-.978 3.627-.978 2.623 0 3.922 1.047 1.3 1.046 1.3 2.844v6.028q0 1.047.046 1.57.069.5.274.842zm-.365-5.938q-.272.227-.935.387-.637.136-1.687.273-.958.159-1.551.614-.57.432-.57 1.229 0 .727.456 1.137.478.386 1.3.387.707 0 1.391-.296.685-.296 1.14-.91.457-.637.456-1.57v-1.25Zm8.25-10.533v16.47h-3.193V1.905h3.193Zm5.141 0v16.47h-3.193V1.905h3.193Zm13.488 12.9q-.433 1.569-1.87 2.706-1.436 1.137-4.037 1.138-1.847 0-3.215-.75a5.2 5.2 0 0 1-2.099-2.185q-.73-1.433-.73-3.344 0-1.935.707-3.344.73-1.434 2.076-2.207 1.368-.774 3.239-.774 1.801 0 3.17.728t2.121 2.162q.752 1.41.752 3.39 0 .453-.022.705h-8.804q.046 1.523.798 2.457.753.91 2.007.91 1.188 0 1.802-.546a2.94 2.94 0 0 0 .844-1.32zm-5.929-6.53q-1.209 0-1.939.773-.707.774-.798 1.934h5.496q-.09-1.184-.821-1.934-.707-.773-1.938-.773m14.279 7.621v2.48q-.638.045-2.098.045-1.3 0-2.053-.227-.752-.25-1.117-.865-.365-.636-.365-1.82v-7.03h-1.916V6.34h1.916V2.973h3.193V6.34h2.532v2.14h-2.532v6.233q0 .75.296.978.32.205 1.118.205h1.026Z"/></g><defs><clipPath id="a"><path fill="#fff" d="M0 0h150v21H0z"/></clipPath></defs></svg>