<svg xmlns="http://www.w3.org/2000/svg" width="457.143" height="64" fill="none" viewBox="0 0 150 21"><g fill="#000" clip-path="url(#a)"><path fill-rule="evenodd" d="M10.542 21c5.822 0 10.542-4.701 10.542-10.5S16.364 0 10.542 0C4.72 0 0 4.701 0 10.5S4.72 21 10.542 21Zm5.856-16.334H4.685v11.668h11.713V4.666Z" clip-rule="evenodd"/><path fill-rule="evenodd" d="M10.542 21c5.822 0 10.542-4.701 10.542-10.5S16.364 0 10.542 0C4.72 0 0 4.701 0 10.5S4.72 21 10.542 21Zm5.856-16.334H4.685v11.668h11.713V4.666Z" clip-rule="evenodd"/><path d="M35.932 2.131c1.611 0 2.865.403 3.763 1.206.912.788 1.368 1.85 1.368 3.185 0 .744-.175 1.388-.524 1.934-.35.53-.86.947-1.529 1.251v.091c.822.319 1.46.796 1.916 1.433.456.637.684 1.427.684 2.366 0 1.486-.471 2.654-1.413 3.504-.929.849-2.244 1.274-3.946 1.274h-8.165V2.13h7.846Zm-.639 6.712c.76 0 1.338-.175 1.733-.524.41-.349.616-.848.616-1.501 0-.653-.205-1.153-.616-1.502-.395-.364-.973-.546-1.733-.546h-3.786v4.073h3.786Zm.274 6.825c.836 0 1.466-.19 1.893-.57.44-.393.661-.94.661-1.637 0-.698-.221-1.236-.661-1.615-.427-.394-1.057-.592-1.893-.592h-4.06v4.414h4.06ZM46.133 1.904v16.47H42.94V1.905h3.193Zm7.48 4.14c1.246 0 2.333.258 3.26.774a5.272 5.272 0 0 1 2.145 2.207c.501.955.752 2.07.752 3.344s-.25 2.389-.753 3.344a5.305 5.305 0 0 1-2.143 2.184c-.928.5-2.015.75-3.262.75-1.262 0-2.365-.25-3.307-.75a5.306 5.306 0 0 1-2.144-2.184c-.486-.955-.73-2.07-.73-3.344 0-1.29.244-2.405.73-3.344a5.27 5.27 0 0 1 2.144-2.207c.942-.516 2.045-.774 3.307-.774Zm0 10.215c.896 0 1.603-.334 2.12-1 .518-.668.776-1.632.776-2.89 0-1.274-.259-2.245-.776-2.912-.517-.683-1.224-1.024-2.12-1.024-.913 0-1.636.341-2.167 1.024-.518.667-.776 1.638-.776 2.912 0 1.258.258 2.222.776 2.89.531.666 1.254 1 2.166 1Zm13.62.023c1.368 0 2.25-.781 2.645-2.343l3.216.364c-.304 1.198-.927 2.222-1.87 3.07-.942.85-2.273 1.275-3.992 1.275-1.231 0-2.303-.25-3.215-.75a5.2 5.2 0 0 1-2.099-2.185c-.486-.955-.73-2.07-.73-3.344s.244-2.389.73-3.344a5.168 5.168 0 0 1 2.099-2.207c.912-.516 1.984-.774 3.215-.774 1.673 0 2.965.394 3.878 1.183.912.789 1.513 1.661 1.801 2.617l-3.101.705c-.44-1.41-1.3-2.116-2.578-2.116-.866 0-1.55.341-2.052 1.024-.502.667-.753 1.638-.753 2.912 0 1.258.251 2.23.753 2.912.502.667 1.186 1 2.052 1Zm10.119 2.093h-3.193V1.904h3.193v9.1l4.356-4.664h3.672l-4.516 4.618 5.04 7.417h-3.716l-3.49-5.3-1.345 1.387v3.913h-.001ZM96.417 6.59h-.091l-2.44 11.785h-4.152L85.811 2.13h3.513l2.531 12.172h.092L94.433 2.13h3.831l2.486 12.172h.091l2.555-12.172h3.535l-3.923 16.244h-4.105L96.417 6.59Zm18.631 11.785c-.106-.122-.189-.326-.251-.614a5.637 5.637 0 0 1-.091-1.07c-.334.622-.873 1.107-1.619 1.456a5.635 5.635 0 0 1-2.372.5 4.726 4.726 0 0 1-2.007-.431 3.79 3.79 0 0 1-1.483-1.229c-.364-.546-.547-1.183-.547-1.91 0-1.23.419-2.14 1.255-2.73.836-.592 2.091-.987 3.763-1.184 1.156-.152 1.938-.318 2.349-.5.426-.198.638-.486.638-.865 0-.455-.174-.812-.524-1.07-.349-.272-.874-.409-1.574-.409-.577 0-1.095.152-1.551.455-.44.303-.752.751-.935 1.343l-2.942-.455c.259-1.123.883-2.002 1.87-2.64.989-.652 2.198-.978 3.627-.978 1.749 0 3.056.349 3.922 1.047.867.697 1.3 1.645 1.3 2.844v6.028c0 .698.016 1.221.046 1.57.046.333.137.614.274.842h-3.148Zm-.365-5.938c-.182.152-.493.28-.935.387-.425.09-.987.182-1.687.273-.639.106-1.156.31-1.551.614-.38.289-.57.697-.57 1.229 0 .484.152.864.456 1.137.319.257.752.387 1.3.387.472 0 .935-.099 1.391-.296.456-.198.837-.5 1.14-.91.305-.425.456-.948.456-1.57v-1.25Zm8.25-10.533v16.47h-3.193V1.905h3.193Zm5.141 0v16.47h-3.193V1.905h3.193Zm13.488 12.9c-.288 1.046-.912 1.948-1.87 2.706-.958.758-2.303 1.138-4.037 1.138-1.231 0-2.303-.25-3.215-.75a5.206 5.206 0 0 1-2.099-2.185c-.486-.955-.73-2.07-.73-3.344 0-1.29.236-2.405.707-3.344.487-.956 1.179-1.692 2.076-2.207.912-.516 1.992-.774 3.239-.774 1.201 0 2.257.243 3.17.728.912.485 1.619 1.206 2.121 2.162.501.94.752 2.07.752 3.39 0 .302-.007.537-.022.705h-8.804c.031 1.015.297 1.835.798 2.457.502.606 1.171.91 2.007.91.792 0 1.392-.182 1.802-.546a2.94 2.94 0 0 0 .844-1.32l3.261.273Zm-5.929-6.53c-.806 0-1.452.257-1.939.773-.471.517-.737 1.16-.798 1.934h5.496c-.06-.79-.334-1.433-.821-1.934-.471-.516-1.117-.773-1.938-.773Zm14.279 7.621v2.48c-.425.03-1.125.045-2.098.045-.867 0-1.551-.076-2.053-.227-.501-.166-.874-.455-1.117-.865-.243-.424-.365-1.031-.365-1.82v-7.03h-1.916V6.34h1.916V2.973h3.193V6.34h2.532V8.48h-2.532v6.233c0 .5.099.826.296.978.214.137.586.205 1.118.205h1.026Z"/></g><defs><clipPath id="a"><path fill="#fff" d="M0 0h150v21H0z"/></clipPath></defs></svg>