<svg xmlns="http://www.w3.org/2000/svg" width="64" height="64" fill="none" viewBox="0 0 32 32"><path fill="url(#a)" d="M16 2C8.268 2 2 8.268 2 16s6.268 14 14 14 14-6.268 14-14S23.732 2 16 2"/><path fill="#fff" d="M16 24.943a8.943 8.943 0 1 1 0-17.886 8.943 8.943 0 0 1 0 17.886"/><path fill="url(#b)" d="M7.633 16H16V7.633A8.37 8.37 0 0 0 7.633 16M16 16v8.368A8.37 8.37 0 0 0 24.367 16z"/><path fill="#fff" fill-rule="evenodd" d="M8.243 7.36c.43-.267.889-.18 1.185.108.456.442.389.954-.045 1.47l-1.896 2.26L4.66 8.826 6.46 6.685c.372-.444.892-.798 1.387-.383l.026.022c.135.112.202.168.376.486a.82.82 0 0 1-.005.55m-.802-.136c-.182-.153-.464-.16-.59-.01l-1.08 1.287.669.56L7.507 7.79c.135-.16.134-.398-.066-.565m.185 2.833L8.75 8.715c.15-.178.128-.456-.09-.639-.193-.161-.478-.117-.606.036L6.92 9.465z" clip-rule="evenodd"/><path fill="#fff" d="m17.44 3.876-.972 2.573h-.806l-.97-2.573V6.45h-.738V2.764h1.108l1.003 2.625 1.003-2.625h1.109V6.45h-.738zM24.999 9.949l1.389-1.967-.612-.755-2.212.95 1.447-1.894-.57-.704-2.312 2.974.676.827 2.184-.898.008.01-1.333 1.949.669.833 3.39-1.643-.571-.704z"/><defs><linearGradient id="a" x1="6.277" x2="25.183" y1="6.277" y2="26.264" gradientUnits="userSpaceOnUse"><stop offset=".027" stop-color="#949AA0"/><stop offset=".403" stop-color="#1A1D1E"/><stop offset="1" stop-color="#040606"/></linearGradient><linearGradient id="b" x1="16" x2="16" y1="7.633" y2="24.367" gradientUnits="userSpaceOnUse"><stop stop-color="#7CD1F4"/><stop offset="1" stop-color="#1274B9"/></linearGradient></defs></svg>