<svg xmlns="http://www.w3.org/2000/svg" width="290.909" height="64" fill="none" viewBox="0 0 100 22"><g clip-path="url(#a)"><path fill="#071124" fill-rule="evenodd" d="M11.613.21c-2.027.55-3.67 1.764-4.727 3.496l-.33.54-.972.184c-1.72.325-3.18 1.194-4.146 2.47C.496 8.144.063 9.42.063 10.945c0 1.159.169 1.865.72 2.997.764 1.571 2.224 2.799 4.046 3.401.543.18 1.182.198 8.064.23 6.483.03 7.57.012 8.197-.134 3.407-.79 5.177-4.533 3.609-7.633-.61-1.206-1.81-2.266-3.018-2.667-.51-.17-.517-.18-.588-.715-.04-.3-.212-.926-.383-1.393-.804-2.204-2.605-3.921-4.937-4.71-1.025-.346-3.088-.4-4.16-.11ZM31.39.24c-.148.21-.167 1.204-.167 8.583 0 8.203.003 8.35.215 8.56.117.118.31.215.429.215.118 0 .31-.097.429-.215.184-.184.214-.357.214-1.23v-1.016l.836.848c.977.992 1.944 1.52 3.16 1.724 2.981.503 5.954-1.564 6.68-4.644.206-.872.205-2.546-.001-3.358-.713-2.806-3.039-4.667-5.825-4.662-1.683.003-3.181.76-4.356 2.202l-.494.606V4.166c0-3.164-.023-3.722-.167-3.926a.594.594 0 0 0-.953 0M14.754 1.557C16.855 2 18.69 3.594 19.38 5.578a9 9 0 0 1 .348 1.6c.055.486.124.909.154.939s.397.143.815.25c1.353.348 2.228 1.053 2.786 2.244.243.518.283.745.283 1.622 0 .91-.034 1.088-.313 1.657-.4.813-1.087 1.5-1.866 1.865l-.61.287-7.565.029c-7.348.028-7.585.023-8.285-.19-1.435-.435-2.754-1.66-3.315-3.077-.207-.524-.247-.823-.247-1.859s.04-1.334.247-1.858c.558-1.41 1.87-2.633 3.297-3.073.95-.294 2.584-.302 3.213-.016 1.971.895 2.397 3.5.797 4.87-.74.633-1.307.72-2.906.446-.464-.08-.741.14-.741.588 0 .397.247.597 1.012.817 1.74.503 3.708-.486 4.544-2.283.253-.544.287-.75.29-1.744.001-.996-.031-1.196-.281-1.73-.502-1.069-1.288-1.795-2.37-2.186l-.631-.23.488-.663c1.384-1.88 3.892-2.816 6.229-2.326ZM55.609 5.21c-1.475.397-2.948 1.645-3.62 3.067-.587 1.244-.733 1.98-.677 3.417.074 1.91.655 3.286 1.887 4.473 2.257 2.173 6.11 2.163 8.363-.02.369-.358.67-.709.67-.78 0-.195-.402-.559-.617-.559-.104 0-.449.213-.767.474-1.135.932-2.24 1.35-3.562 1.35-2.345 0-4.35-1.793-4.665-4.171l-.073-.55h4.842c4.789 0 4.845-.002 5.07-.227.204-.205.22-.302.154-.97-.28-2.847-1.839-4.892-4.195-5.506-.775-.201-2.059-.2-2.81.002m12.92-.005c-.96.264-1.712.716-2.487 1.496-1.962 1.975-2.44 5.117-1.18 7.768.49 1.033 1.627 2.194 2.628 2.682a6.33 6.33 0 0 0 6.265-.418c1.249-.835 1.592-1.353 1.157-1.747-.302-.273-.508-.219-1.153.306-3.11 2.533-7.266 1.295-8.142-2.425-.09-.378-.163-.748-.164-.822-.001-.105 1.042-.134 4.864-.134 4.577 0 4.876-.011 5.043-.196.393-.435.106-2.253-.574-3.633C74.06 6.608 72.86 5.605 71.34 5.2c-.708-.188-2.115-.186-2.81.005Zm-19.012.197c-1.156.43-2.209 1.308-2.967 2.475l-.412.634V7.123c0-1.561-.103-1.864-.633-1.864-.675 0-.655-.19-.655 6.127 0 5.017.021 5.765.167 5.973.191.272.554.31.86.087.195-.144.21-.345.264-3.407.054-3.158.064-3.277.332-4.016.7-1.932 2.05-3.117 3.967-3.483.378-.073.771-.175.874-.227.278-.142.35-.581.145-.894-.151-.23-.254-.267-.737-.262-.308.003-.85.114-1.205.245m27.439.024c-.29.202-.31.594-.042.835.175.159.624.178 4.184.178 2.194 0 3.989.023 3.989.051s-1.932 2.35-4.292 5.158c-2.36 2.81-4.292 5.193-4.292 5.297s.088.27.196.368c.177.16.69.177 5.134.177 4.647 0 4.947-.011 5.115-.196.23-.254.225-.479-.018-.698-.172-.156-.675-.18-4.407-.204l-4.212-.028 2.343-2.79c6.064-7.22 6.257-7.458 6.257-7.72 0-.587-.069-.595-5.097-.595-4.007 0-4.651.022-4.858.167m11.693-.039c-.071.071-.129.258-.129.416s1.232 2.834 2.738 5.947l2.737 5.66-.269.588c-.824 1.801-1.886 2.46-3.495 2.168-1.38-.25-1.466-.25-1.603.006a.78.78 0 0 0-.065.48c.161.643 2.527.94 3.77.476.75-.28 1.599-1.1 2.123-2.048C94.904 18.266 100 6.112 100 5.854c0-.377-.213-.595-.581-.595-.197 0-.405.06-.462.134s-1.06 2.513-2.228 5.42c-1.169 2.909-2.138 5.274-2.154 5.258a619 619 0 0 1-2.462-5.287c-1.34-2.891-2.484-5.317-2.544-5.391-.14-.171-.752-.175-.921-.006Zm-30.794.85c1.628.346 2.774 1.517 3.256 3.328.084.316.154.733.155.924v.35h-8.72l.066-.479c.276-2.014 1.654-3.648 3.45-4.092.695-.172 1.095-.178 1.793-.03Zm12.862-.011c1.697.322 2.91 1.626 3.358 3.614.096.425.175.823.175.885 0 .077-1.392.113-4.4.113-3.448 0-4.398-.029-4.397-.134.005-.413.371-1.595.666-2.148.616-1.155 1.585-1.949 2.768-2.267.716-.192 1.083-.205 1.83-.063m-32.082.169c2.188.64 3.538 2.794 3.391 5.409-.149 2.645-1.546 4.333-3.926 4.741-2.512.431-5.034-1.363-5.577-3.969-.682-3.27 1.612-6.322 4.77-6.346.418-.003 1.021.071 1.342.165" clip-rule="evenodd"/></g><defs><clipPath id="a"><path fill="#fff" d="M0 0h100v21.459H0z"/></clipPath></defs></svg>