<svg width="78" height="20" viewBox="0 0 78 20" fill="none" xmlns="http://www.w3.org/2000/svg">
<path d="M52.3125 4.13312C50.9638 4.13312 49.9237 4.61375 48.9587 5.61688V4.36687H46.31V16.6669H49.16V9.53313C49.16 7.9 50.1325 6.86688 51.6081 6.86688C51.8762 6.86688 52.1113 6.9 52.2788 6.93313L54.2569 4.33313C53.4856 4.2 52.815 4.13312 52.3119 4.13312H52.3125ZM76.8906 4.36687H73.6044L70.57 8.37875L67.5356 4.36625H64.2494L68.8856 10.5644L64.2494 16.6669H67.6025L70.5531 12.7756L73.5038 16.6669H76.8906L72.2231 10.5744L76.8906 4.36687ZM17.0375 1.6C16.065 2.9 15.83 3.33313 14.8913 3.33313H0.875V20H6.37437C7.615 20 8.82188 19.4 9.59313 18.4C10.5994 17.0669 10.7331 16.6669 11.7056 16.6669H25.7556V0H20.2225C18.9819 0 17.775 0.6 17.0369 1.6H17.0375ZM21.3962 12.3669H15.5281C14.2537 12.3669 13.0806 12.9 12.3094 13.9331C11.3031 15.2669 11.1019 15.6669 10.1631 15.6669H5.20063V7.66688H11.0687C12.3425 7.66688 13.5162 7.06687 14.2875 6.06687C15.2937 4.76687 15.5619 4.36687 16.4669 4.36687H21.3962V12.3669ZM42.4538 8.26688C43.695 7.56688 44.5662 6.33312 44.5662 4.7C44.5662 2.3 42.7225 0 40.04 0H31.9925V16.6669H40.04C42.9569 16.6669 44.9688 14.6 44.9688 12C44.9688 10.4669 44.265 9.13313 42.4538 8.26688ZM34.8425 2.6H39.805C41.0456 2.6 41.7831 3.76687 41.7831 4.8C41.7831 6.06687 40.6769 6.93313 39.6375 6.93313H34.8425V2.6ZM39.6375 14.0669H34.8425V9.53313H39.805C41.0794 9.53313 42.1187 10.6331 42.1187 11.7669C42.1187 13.0331 40.8113 14.0669 39.6375 14.0669Z" fill="black"/>
<path d="M61.4025 13.1331C60.9331 13.8668 60.0275 14.2999 59.0213 14.2999C57.4463 14.2999 56.1382 13.2331 56.1382 11.5999H64.655C64.7894 11.0999 64.8225 10.8668 64.8225 10.4331C64.8225 6.69993 62.5088 4.13306 59.0219 4.13306C55.6013 4.13306 53.1875 6.56681 53.1875 10.5331C53.1875 14.3999 55.5007 16.8999 59.0888 16.8999C61.6038 16.8999 63.8169 15.6668 64.4538 13.1331H61.4025ZM59.0213 6.73306C60.5975 6.73306 61.805 7.73306 61.7713 9.23306H56.1713C56.1713 7.76681 57.4463 6.73306 59.0213 6.73306Z" fill="black"/>
</svg>
