<svg xmlns="http://www.w3.org/2000/svg" width="60.16" height="64" fill="none" viewBox="0 0 47 50"><g clip-path="url(#a)"><path fill="#000" d="M28.445 13.042c-4.477 0-8.903 1.92-12.27 5.711V.1H9.492v31.409c0 10.2 8.267 18.466 18.466 18.466s18.467-8.267 18.467-18.466-7.793-18.467-17.98-18.467m-.486 29.813c-6.272 0-11.347-5.087-11.347-11.346s5.087-11.347 11.347-11.347c6.271 0 11.346 5.087 11.346 11.347S34.23 42.855 27.96 42.855Z"/><path fill="#00f" d="M4.642 49.963a4.564 4.564 0 1 0 0-9.127 4.564 4.564 0 0 0 0 9.127"/></g><defs><clipPath id="a"><path fill="#fff" d="M0 0h46.509v50H0z"/></clipPath></defs></svg>