<svg xmlns="http://www.w3.org/2000/svg" width="278.261" height="64" fill="none" viewBox="0 0 100 23"><g clip-path="url(#a)"><path fill="#000" d="M48.757 5.906c-2.027 0-4.032.87-5.556 2.586V.045H40.18V14.27a8.362 8.362 0 0 0 8.362 8.362 8.362 8.362 0 0 0 8.363-8.362c0-4.62-3.53-8.363-8.148-8.363Zm-.22 13.501a5.139 5.139 0 1 1 0-10.278 5.139 5.139 0 0 1 0 10.278ZM67.491 5.906c-2.027 0-4.032.87-5.556 2.586V.045h-3.02V14.27a8.362 8.362 0 0 0 8.362 8.362 8.362 8.362 0 0 0 8.362-8.362c0-4.62-3.535-8.363-8.148-8.363Zm-.22 13.501a5.139 5.139 0 1 1 .001-10.278 5.139 5.139 0 0 1-.001 10.278ZM23.172 15.731V6.358h3.241v9.345c0 2.389 1.383 3.919 3.715 3.919 2.36 0 3.716-1.474 3.716-3.919V6.358h3.27v9.373c0 4.331-2.627 6.895-6.986 6.895-4.246.005-6.956-2.649-6.956-6.895ZM81.475 22.247h-3.24V.045h3.24v22.202ZM99.828 15.556H87.422c.475 2.473 2.208 4.156 5.274 4.156 1.796 0 3.98-.678 5.392-1.71l1.356 2.388c-1.62 1.208-4.184 2.207-6.867 2.207-5.951 0-8.514-4.155-8.514-8.34 0-2.388.733-4.359 2.241-5.923 1.502-1.564 3.478-2.36 5.867-2.36 2.27 0 4.156.706 5.601 2.151 1.446 1.446 2.18 3.388 2.18 5.867-.011.446-.04.977-.124 1.564Zm-12.412-2.654h9.255c-.265-2.507-2.123-4.127-4.511-4.127-2.445 0-4.27 1.654-4.743 4.127ZM12.88 5.906c-2.028 0-4.032.87-5.557 2.586V.045H4.297V14.27a8.362 8.362 0 0 0 8.362 8.362 8.362 8.362 0 0 0 8.363-8.362c0-4.62-3.53-8.363-8.142-8.363Zm-.22 13.501a5.139 5.139 0 1 1 0-10.278 5.139 5.139 0 0 1 0 10.278Z"/><path fill="#00F" d="M2.098 22.626a2.067 2.067 0 1 0 0-4.133 2.067 2.067 0 0 0 0 4.133Z"/></g><defs><clipPath id="a"><path fill="#fff" d="M0 0h100v22.643H0z"/></clipPath></defs></svg>