<svg xmlns="http://www.w3.org/2000/svg" width="71.111" height="64" fill="none" viewBox="0 0 50 45"><path fill="#0a0b1e" d="M40.67 2.863 33.069.791c-2.817-.743-5.901-.371-8.56.85L7.125 9.981C2.818 11.947 0 16.461 0 21.242v5.365c0 4.515 2.446 8.712 6.38 10.89l8.346 4.674c1.967 1.115 4.04 1.594 6.114 1.594 2.34 0 4.679-.638 6.752-1.966l16.64-10.783c3.616-2.337 5.742-6.268 5.742-10.517v-5.525c0-5.737-3.828-10.73-9.303-12.11Z"/><path fill="#fffd63" d="M9.78 15.611c-2.179.956-3.561 3.188-3.561 5.63v5.366c0 2.178 1.223 4.409 3.19 5.524l8.346 4.675c1.967 1.115 4.52 1.115 6.38-.266l16.64-10.624c1.861-1.115 2.925-3.187 2.925-5.258v-5.525c0-2.815-1.968-5.258-4.679-6.002l-7.602-1.966c-1.49-.371-2.925-.265-4.307.372z"/></svg>