<svg xmlns="http://www.w3.org/2000/svg" width="290.909" height="64" fill="none" viewBox="0 0 100 22"><path fill="#0A0B1E" d="M19.515 1.374 15.867.38C14.515.023 13.036.2 11.76.788L3.418 4.789C1.352 5.732 0 7.9 0 10.193v2.574a5.98 5.98 0 0 0 3.061 5.225l4.005 2.243A5.87 5.87 0 0 0 10 21a6 6 0 0 0 3.24-.943l7.985-5.174a5.98 5.98 0 0 0 2.755-5.047v-2.65c0-2.754-1.837-5.15-4.465-5.812"/><path fill="#FFFD63" d="M4.694 7.49c-1.046.46-1.71 1.53-1.71 2.703v2.574c0 1.045.587 2.116 1.531 2.65l4.005 2.244c.944.535 2.168.535 3.061-.128l7.985-5.097c.893-.536 1.403-1.53 1.403-2.524v-2.65c0-1.351-.944-2.524-2.245-2.88l-3.648-.944c-.714-.178-1.403-.127-2.066.179z"/><path fill="#0A0B1E" d="M95.077 9.581c-.331-.076-.204-.535 0-.866.204-.408.332-.816.332-1.275v-.127a.44.44 0 0 0-.46-.459H91.99a.44.44 0 0 0-.459.459v11.572c0 .28.204.459.46.459h3.035c.28 0 .46-.204.46-.46v-4.256c0-3.084.943-4.384 4.03-4.307.28 0 .46-.204.46-.46V7.11a.44.44 0 0 0-.46-.459c-2.704.077-3.367.943-4.107 2.55 0 .178-.128.381-.332.381Zm-4.517 2.957c0-4.384-3.164-6.397-6.404-6.397-4.234 0-6.734 2.829-6.734 6.729 0 3.772 2.347 6.729 6.811 6.729 3.29 0 5.255-1.887 5.918-4.104a.418.418 0 0 0-.408-.535h-2.959a.48.48 0 0 0-.46.28c-.484.765-1.07 1.274-2.142 1.274-1.403 0-2.5-.866-2.832-2.217a.418.418 0 0 1 .409-.535H90.1c.204 0 .383-.026.434-.408 0-.102.026-.535.026-.816m-6.327-3.364c1.276 0 2.168.662 2.5 1.962.077.28-.128.46-.408.46h-4.388c-.28 0-.46-.281-.408-.536.357-1.122 1.097-1.886 2.704-1.886m-7.682.816c.28 0 .46-.204.46-.46V7.314a.44.44 0 0 0-.46-.459h-2.143c-.28 0-.331-.204-.331-.458V3.54a.44.44 0 0 0-.46-.459h-3.035c-.28 0-.46.204-.46.459v2.83c0 .28-.204.458-.459.458h-1.071c-.28 0-.46.204-.46.459v2.217c0 .28.205.459.46.459h1.072c.28 0 .459.204.459.459v5.046c0 3.085 1.224 3.9 3.775 3.9h2.883c.28 0 .459-.204.459-.459v-2.217a.44.44 0 0 0-.46-.459h-1.657c-1.072 0-1.072-.076-1.072-1.274v-4.486c0-.28.128-.46.332-.46h2.168zm-9.891 0c.281 0 .46-.204.46-.46V7.314a.44.44 0 0 0-.46-.459h-2.142c-.28 0-.332-.204-.332-.458V3.54a.44.44 0 0 0-.459-.459h-3.036a.44.44 0 0 0-.459.459v2.83c0 .28-.204.458-.46.458h-1.07a.44.44 0 0 0-.46.459v2.217c0 .28.204.459.46.459h1.07c.282 0 .46.204.46.459v5.046c0 3.085 1.224 3.9 3.775 3.9h2.832c.28 0 .46-.204.46-.459v-2.217a.44.44 0 0 0-.46-.459h-1.658c-1.072 0-1.072-.076-1.072-1.274v-4.486c0-.28.128-.46.332-.46h2.22zm-17.71 9.685c2.219 0 3.57-1.759 4.234-2.957.077-.203.204-.458.536-.33.331.127.076.61-.128 1.019a2.86 2.86 0 0 0-.331 1.35v.128c0 .28.203.459.459.459h2.959c.28 0 .535-.204.535-.459V7.313c0-.28-.28-.459-.535-.459h-2.96a.44.44 0 0 0-.459.46v4.18c0 2.956-1.402 4.919-2.959 4.919-1.352 0-1.964-.816-1.964-3.645V7.313c0-.28-.28-.459-.536-.459h-2.959a.44.44 0 0 0-.459.46v7.008c-.026 3.543 1.786 5.353 4.566 5.353ZM33.93 2.394a.44.44 0 0 0-.459-.46h-3.035c-.28 0-.46.205-.46.46v16.49c0 .281.205.46.46.46h2.959c.28 0 .536-.204.536-.46 0-.33-.204-.662-.408-1.019-.205-.408-.409-.815-.077-.943.28-.076.332.204.408.331.816 1.555 2.092 2.498 4.03 2.498 3.496 0 5.536-2.956 5.536-6.729 0-3.772-2.015-6.729-5.535-6.729-1.965 0-3.24 1.02-4.03 2.498-.077.204-.281.536-.536.332-.332-.128 0-.612.203-1.02.205-.331.409-.663.409-1.07v-4.64Zm2.909 13.993c-1.811 0-2.96-1.606-2.96-3.492s1.123-3.517 2.96-3.517c1.964 0 2.831 1.605 2.831 3.492 0 1.886-.892 3.517-2.831 3.517"/></svg>