<svg xmlns="http://www.w3.org/2000/svg" width="61.538" height="64" fill="none" viewBox="0 0 50 52"><g clip-path="url(#a)"><path fill="#006BFF" d="M34.26 33.17c-1.617 1.435-3.636 3.22-7.297 3.22h-2.19c-2.65 0-5.059-.962-6.784-2.708-1.685-1.706-2.612-4.04-2.612-6.574v-2.996c0-2.534.927-4.868 2.612-6.574 1.725-1.745 4.135-2.707 6.784-2.707h2.19c3.665 0 5.68 1.784 7.297 3.22 1.679 1.479 3.127 2.772 6.99 2.772q.885 0 1.758-.141l-.013-.034a13 13 0 0 0-.812-1.669l-2.581-4.472a13.26 13.26 0 0 0-11.486-6.63h-5.164a13.26 13.26 0 0 0-11.485 6.63L8.886 18.98a13.27 13.27 0 0 0 0 13.262l2.581 4.472a13.26 13.26 0 0 0 11.485 6.63h5.164a13.26 13.26 0 0 0 11.486-6.63l2.581-4.465q.465-.806.812-1.668l.013-.033a11 11 0 0 0-1.758-.148c-3.863 0-5.311 1.286-6.99 2.773"/><path fill="#006BFF" d="M26.957 17.546h-2.19c-4.032 0-6.681 2.88-6.681 6.567v2.995c0 3.686 2.65 6.567 6.682 6.567h2.19c5.875 0 5.413-5.991 14.286-5.991.84-.002 1.68.076 2.506.23.27-1.524.27-3.084 0-4.608-.826.154-1.665.231-2.506.231-8.876 0-8.411-5.991-14.287-5.991"/><path fill="#006BFF" d="M48.852 30.104a12.4 12.4 0 0 0-5.096-2.191v.044a13.3 13.3 0 0 1-.74 2.581 9.7 9.7 0 0 1 4.214 1.736c0 .011-.008.026-.012.04a22.717 22.717 0 1 1 0-13.407c0 .013.007.028.012.04a9.7 9.7 0 0 1-4.213 1.733c.332.835.58 1.7.74 2.585a.1.1 0 0 0 0 .041 12.4 12.4 0 0 0 5.095-2.19c1.453-1.075 1.172-2.29.952-3.008a25.463 25.463 0 1 0 0 15.004c.22-.718.501-1.933-.952-3.009Z"/><path fill="#0AE8F0" d="M43.007 20.68q-.874.145-1.76.148c-3.862 0-5.31-1.285-6.987-2.772-1.619-1.435-3.633-3.22-7.3-3.22h-2.189c-2.65 0-5.059.963-6.784 2.708-1.684 1.706-2.612 4.04-2.612 6.574v2.996c0 2.534.927 4.868 2.612 6.574 1.725 1.745 4.134 2.707 6.784 2.707h2.19c3.666 0 5.68-1.784 7.299-3.219 1.677-1.48 3.125-2.772 6.988-2.772q.885 0 1.759.14c.334-.833.581-1.698.74-2.581v-.044a13.7 13.7 0 0 0-2.507-.23c-8.875 0-8.41 5.993-14.287 5.993h-2.189c-4.032 0-6.682-2.882-6.682-6.568v-3.002c0-3.686 2.65-6.566 6.682-6.566h2.19c5.875 0 5.414 5.99 14.286 5.99.841.001 1.68-.076 2.506-.23v-.041a13.4 13.4 0 0 0-.74-2.585Z"/><path fill="#0AE8F0" d="M43.007 20.68q-.874.145-1.76.148c-3.862 0-5.31-1.285-6.987-2.772-1.619-1.435-3.633-3.22-7.3-3.22h-2.189c-2.65 0-5.059.963-6.784 2.708-1.684 1.706-2.612 4.04-2.612 6.574v2.996c0 2.534.927 4.868 2.612 6.574 1.725 1.745 4.134 2.707 6.784 2.707h2.19c3.666 0 5.68-1.784 7.299-3.219 1.677-1.48 3.125-2.772 6.988-2.772q.885 0 1.759.14c.334-.833.581-1.698.74-2.581v-.044a13.7 13.7 0 0 0-2.507-.23c-8.875 0-8.41 5.993-14.287 5.993h-2.189c-4.032 0-6.682-2.882-6.682-6.568v-3.002c0-3.686 2.65-6.566 6.682-6.566h2.19c5.875 0 5.414 5.99 14.286 5.99.841.001 1.68-.076 2.506-.23v-.041a13.4 13.4 0 0 0-.74-2.585Z"/></g><defs><clipPath id="a"><path fill="#fff" d="M0 0h50v51.183H0z"/></clipPath></defs></svg>