<svg xmlns="http://www.w3.org/2000/svg" width="256" height="64" fill="none" viewBox="0 0 100 25"><g clip-path="url(#a)"><path fill="#006bff" d="M59.354 9.522c1.551 0 3.02.949 3.33 2.998h-6.907c.289-1.798 1.634-2.998 3.577-2.998m3.11 6.031c-.528.823-1.548 1.455-2.944 1.455-1.923 0-3.392-1.054-3.743-2.916h8.665a5 5 0 0 0 .064-.806c0-2.895-2.025-5.46-5.15-5.46-3.226 0-5.419 2.378-5.419 5.44 0 3.099 2.214 5.44 5.543 5.44 2.068 0 3.64-.932 4.55-2.341l-1.567-.812ZM53.088 3.338h-1.799v15.098h1.799zm21.425 8.749v6.348h-1.799V12.19c0-1.696-.971-2.647-2.564-2.647-1.655 0-2.999.972-2.999 3.412v5.48h-1.8V8.096h1.8v1.489c.765-1.22 1.903-1.758 3.352-1.758 2.42 0 4.012 1.613 4.012 4.26m9.923 1.178c0-2.11-1.593-3.702-3.681-3.702-2.069 0-3.66 1.593-3.66 3.702s1.591 3.702 3.66 3.702c2.087 0 3.68-1.593 3.68-3.702Zm1.799-9.927v15.098h-1.8v-1.78c-.826 1.266-2.15 2.049-3.908 2.049-2.875 0-5.232-2.38-5.232-5.44s2.357-5.44 5.232-5.44c1.758 0 3.082.786 3.909 2.048V3.338zm3.249 0h-1.799v15.098h1.8zm-41.408 9.927c0-2.11-1.592-3.702-3.68-3.702-2.068 0-3.661 1.593-3.661 3.702s1.593 3.702 3.66 3.702c2.088 0 3.681-1.592 3.681-3.702m1.8-5.169v10.34h-1.8v-1.78c-.827 1.266-2.15 2.049-3.908 2.049-2.875 0-5.233-2.38-5.233-5.44s2.358-5.44 5.233-5.44c1.758 0 3.081.786 3.908 2.048V8.096z"/><path fill="#006bff" d="M36.27 16.445a5.6 5.6 0 1 1 1.619-9.577c.316.26.602.556.852.88l1.557-1.138a7.538 7.538 0 1 0-1.374 10.54l-1.036-1.638a5.7 5.7 0 0 1-1.618.933m61.9-8.349v5.868c0 1.898-1.103 3.1-2.788 3.1s-2.905-1.202-2.905-3.1V8.096h-1.82v5.693c0 2.983 1.858 4.92 4.725 4.92 2.48 0 2.866-1.57 2.866-1.608v2.11c0 2.093-.91 3.274-2.808 3.274a2.796 2.796 0 0 1-2.783-2.416l-1.628.57a4.52 4.52 0 0 0 4.414 3.492c2.944 0 4.554-1.937 4.554-4.92V8.097h-1.826ZM14.648 14.12c-.691.613-1.555 1.377-3.12 1.377h-.936c-1.133 0-2.163-.412-2.901-1.159-.72-.729-1.117-1.727-1.117-2.81v-1.281c0-1.084.397-2.082 1.117-2.811.738-.747 1.768-1.158 2.9-1.158h.937c1.567 0 2.429.763 3.12 1.377.718.632 1.337 1.185 2.989 1.185q.378 0 .752-.06l-.006-.015a6 6 0 0 0-.347-.713L16.932 6.14a5.67 5.67 0 0 0-4.91-2.835h-2.21a5.67 5.67 0 0 0-4.91 2.835L3.798 8.052a5.67 5.67 0 0 0 0 5.67l1.103 1.912a5.67 5.67 0 0 0 4.911 2.835h2.208a5.67 5.67 0 0 0 4.911-2.835l1.104-1.909q.198-.344.347-.713l.006-.014a5 5 0 0 0-.752-.063c-1.652 0-2.271.55-2.989 1.185"/><path fill="#006bff" d="M11.527 7.439h-.936c-1.724 0-2.857 1.231-2.857 2.808v1.28c0 1.577 1.133 2.808 2.857 2.808h.937c2.512 0 2.314-2.561 6.108-2.561a6 6 0 0 1 1.072.098 5.7 5.7 0 0 0 0-1.97 6 6 0 0 1-1.072.099c-3.795 0-3.596-2.562-6.108-2.562Z"/><path fill="#006bff" d="M20.885 12.808a5.3 5.3 0 0 0-2.18-.936v.018a5.7 5.7 0 0 1-.315 1.104 4.15 4.15 0 0 1 1.801.742q-.001.009-.005.017a9.714 9.714 0 1 1 0-5.732q.001.01.005.017a4.14 4.14 0 0 1-1.801.741q.213.537.316 1.105v.018a5.3 5.3 0 0 0 2.179-.936c.621-.46.5-.98.406-1.287a10.887 10.887 0 1 0 0 6.416c.095-.308.215-.827-.406-1.287"/><path fill="#0ae8f0" d="M18.385 8.78a5 5 0 0 1-.752.062c-1.652 0-2.27-.55-2.988-1.185-.692-.613-1.553-1.377-3.12-1.377h-.937c-1.133 0-2.163.412-2.9 1.158-.721.73-1.118 1.728-1.118 2.811v1.281c0 1.084.397 2.082 1.117 2.81.738.747 1.768 1.158 2.901 1.158h.936c1.568 0 2.429-.762 3.12-1.376.718-.633 1.337-1.185 2.989-1.185q.378 0 .752.06a5.6 5.6 0 0 0 .316-1.104v-.019a6 6 0 0 0-1.071-.098c-3.795 0-3.597 2.562-6.109 2.562h-.936c-1.724 0-2.857-1.232-2.857-2.808v-1.283c0-1.577 1.133-2.808 2.857-2.808h.936c2.512 0 2.315 2.561 6.109 2.561q.54 0 1.071-.098v-.018a5.7 5.7 0 0 0-.316-1.105Z"/><path fill="#0ae8f0" d="M18.385 8.78a5 5 0 0 1-.752.062c-1.652 0-2.27-.55-2.988-1.185-.692-.613-1.553-1.377-3.12-1.377h-.937c-1.133 0-2.163.412-2.9 1.158-.721.73-1.118 1.728-1.118 2.811v1.281c0 1.084.397 2.082 1.117 2.81.738.747 1.768 1.158 2.901 1.158h.936c1.568 0 2.429-.762 3.12-1.376.718-.633 1.337-1.185 2.989-1.185q.378 0 .752.06a5.6 5.6 0 0 0 .316-1.104v-.019a6 6 0 0 0-1.071-.098c-3.795 0-3.597 2.562-6.109 2.562h-.936c-1.724 0-2.857-1.232-2.857-2.808v-1.283c0-1.577 1.133-2.808 2.857-2.808h.936c2.512 0 2.315 2.561 6.109 2.561q.54 0 1.071-.098v-.018a5.7 5.7 0 0 0-.316-1.105Z"/></g><defs><clipPath id="a"><path fill="#fff" d="M0 0h100v24.162H0z"/></clipPath></defs></svg>