<svg xmlns="http://www.w3.org/2000/svg" width="200" height="64" fill="none" viewBox="0 0 100 32"><g fill="#525df9" clip-path="url(#a)"><path d="M12.146 3.41c3.678 0 6.321 1.877 7.28 5.134l.038.153h3.678l-.039-.23C22.07 3.257 17.893 0 12.183 0 5.25 0 0 5.402 0 12.605s5.249 12.606 12.184 12.606c5.709 0 9.885-3.257 10.958-8.468l.038-.23h-3.678l-.038.154c-.958 3.256-3.64 5.134-7.28 5.134-5.02 0-8.39-3.678-8.39-9.196-.04-5.479 3.332-9.195 8.352-9.195m30.041 18.812c-.881 0-1.34-.536-1.34-1.609V12.53c0-3.372-2.76-5.632-6.859-5.632-2.874 0-6.398 1.494-7.011 5.708l-.039.23h3.219l.038-.153c.536-2.184 2.222-2.644 3.563-2.644 2.299 0 3.64 1.035 3.64 2.836v.996l-5.21.536c-2.913.307-6.016 1.916-6.016 5.594 0 3.104 2.299 5.172 5.67 5.172 2.49 0 4.521-1.302 5.748-2.605.498 1.61 1.724 2.49 3.486 2.49.651 0 1.226-.114 1.992-.344l.115-.039v-2.682l-.23.077c-.23.115-.46.153-.766.153Zm-4.75-5.555v2.797c-1.763 1.762-3.41 2.567-5.173 2.567-.767 0-2.606-.23-2.606-2.184 0-1.456 1.073-2.414 2.836-2.644l4.942-.536Zm18.695-9.77c-2.49 0-4.597 1.187-5.824 2.337V7.24h-3.41v17.625h3.41V13.142c.843-1.226 2.567-3.18 4.981-3.18 2.146 0 3.334 1.188 3.334 3.371v11.533h3.41V12.759c0-3.678-2.223-5.862-5.9-5.862Zm18.891 0c-2.49 0-4.598 1.187-5.824 2.337V7.24h-3.41v17.625h3.41V13.142c.843-1.226 2.567-3.18 4.98-3.18 2.147 0 3.334 1.188 3.334 3.371v11.533h3.41V12.759c0-3.678-2.222-5.862-5.9-5.862m21.261.344-4.866 12.606-.306-1.495-4.674-11.11h-3.602l6.935 16.666-3.18 7.854h3.448l9.732-24.52h-3.487Z"/></g><defs><clipPath id="a"><path fill="#fff" d="M0 0h100v31.801H0z"/></clipPath></defs></svg>