<svg xmlns="http://www.w3.org/2000/svg" width="200" height="64" fill="none" viewBox="0 0 100 32"><g clip-path="url(#a)"><path fill="url(#b)" d="M99.305 21.778c-.17 0-.325.11-.405.338-1.025 2.906-2.41 4.635-3.55 4.635-.655 0-.92-.725-.92-1.863 0-2.846 1.715-8.882 2.58-11.634.1-.333.165-.631.165-.884 0-.8-.44-1.193-1.53-1.193-1.175 0-2.44.457-3.67 2.598-.425-1.887-1.71-2.712-3.505-2.712-2.075 0-4.08 1.326-5.73 3.477-1.65 2.151-3.59 2.857-5.05 2.51 1.05-2.554 1.44-4.462 1.44-5.878 0-2.22-1.105-3.562-2.89-3.562-2.715 0-4.28 2.574-4.28 5.281 0 2.091.955 4.243 3.055 5.286-1.76 3.954-4.33 7.53-5.305 7.53-1.26 0-1.63-6.124-1.56-10.506.045-2.514.255-2.643.255-3.403 0-.437-.285-.735-1.43-.735-2.67 0-3.495 2.245-3.62 4.824-.04.98-.195 1.951-.46 2.896-1.115 3.954-3.415 6.955-4.915 6.955-.695 0-.885-.69-.885-1.595 0-2.846 1.605-6.403 1.605-9.439 0-2.23-.985-3.641-2.84-3.641-2.185 0-5.075 2.583-7.81 7.422.9-3.706 1.27-7.293-1.395-7.293A3.627 3.627 0 0 0 45 11.62a.937.937 0 0 0-.54.905c.255 3.944-3.2 14.048-6.475 14.048-.595 0-.885-.64-.885-1.674 0-2.851 1.71-8.872 2.57-11.63.11-.357.17-.665.17-.933 0-.755-.47-1.143-1.535-1.143-1.17 0-2.44.442-3.665 2.583-.43-1.887-1.715-2.712-3.51-2.712-2.945 0-6.235 3.095-7.68 7.129-1.935 5.385-5.835 10.586-11.085 10.586-4.765 0-7.28-3.94-7.28-10.164 0-8.987 6.64-16.329 11.565-16.329 2.355 0 3.48 1.49 3.48 3.776 0 2.767-1.555 4.053-1.555 5.106 0 .323.27.641.805.641 2.14 0 4.66-2.499 4.66-5.906C24.04 2.494 21.255 0 16.33 0 8.19 0 0 8.137 0 18.564c0 8.296 4.12 13.299 11.245 13.299 4.86 0 9.105-3.756 11.395-8.137.26 3.631 1.92 5.529 4.45 5.529 2.25 0 4.07-1.332 5.46-3.671.535 2.449 1.955 3.646 3.8 3.646 2.115 0 3.885-1.332 5.57-3.805-.025 1.942.42 3.77 2.115 3.77.8 0 1.755-.184 1.925-.88 1.785-7.332 6.195-13.318 7.545-13.318.4 0 .51.383.51.835 0 1.992-1.415 6.075-1.415 8.683 0 2.817 1.205 4.68 3.695 4.68 2.76 0 5.565-3.358 7.435-8.266.585 4.585 1.85 8.286 3.83 8.286 2.43 0 6.745-5.082 9.36-10.462 1.025.13 2.565.094 4.045-.944-.63 1.585-1 3.319-1 5.052 0 4.993 2.4 6.394 4.465 6.394 2.245 0 4.065-1.332 5.46-3.671.46 2.11 1.635 3.64 3.795 3.64 3.38 0 6.315-3.432 6.315-6.248 0-.746-.32-1.198-.695-1.198Zm-70.155 4.71c-1.365 0-1.9-1.366-1.9-3.403 0-3.537 2.435-9.444 5.01-9.444 1.125 0 1.55 1.317 1.55 2.926 0 3.592-2.315 9.92-4.66 9.92ZM75.905 15.93c-.815-.963-1.11-2.275-1.11-3.442 0-1.44.53-2.658 1.165-2.658s.83.621.83 1.485c0 1.446-.52 3.557-.885 4.615ZM86.49 26.488c-1.365 0-1.9-1.57-1.9-3.403 0-3.413 2.435-9.444 5.03-9.444 1.125 0 1.525 1.307 1.525 2.926 0 3.592-2.275 9.92-4.655 9.92Z"/></g><defs><linearGradient id="b" x1="9.559" x2="100" y1="0" y2="25.735" gradientUnits="userSpaceOnUse"><stop stop-color="#00BBC6"/><stop offset=".489" stop-color="#355AE4"/><stop offset="1" stop-color="#7225E3"/></linearGradient><clipPath id="a"><path fill="#fff" d="M0 0h100v31.863H0z"/></clipPath></defs></svg>