<svg xmlns="http://www.w3.org/2000/svg" width="200" height="64" fill="none" viewBox="0 0 50 16"><g clip-path="url(#a)"><path fill="url(#b)" d="M49.653 10.89c-.086 0-.163.054-.203.168-.513 1.453-1.205 2.318-1.775 2.318-.327 0-.46-.363-.46-.932 0-1.423.857-4.441 1.29-5.817.05-.167.082-.316.082-.442 0-.4-.22-.596-.765-.596-.587 0-1.22.228-1.835 1.299-.212-.944-.854-1.356-1.752-1.356-1.037 0-2.04.663-2.865 1.738-.825 1.076-1.795 1.428-2.525 1.255.525-1.277.72-2.23.72-2.939 0-1.11-.552-1.78-1.445-1.78-1.357 0-2.14 1.286-2.14 2.64 0 1.045.478 2.12 1.528 2.642-.88 1.978-2.166 3.766-2.653 3.766-.63 0-.815-3.063-.78-5.253.022-1.257.127-1.322.127-1.702 0-.218-.142-.367-.715-.367-1.334 0-1.747 1.122-1.81 2.411-.02.49-.097.976-.23 1.448-.557 1.978-1.707 3.478-2.457 3.478-.348 0-.442-.345-.442-.797 0-1.424.802-3.202.802-4.72 0-1.115-.492-1.82-1.42-1.82-1.093 0-2.538 1.291-3.905 3.71.45-1.853.635-3.646-.697-3.646a1.8 1.8 0 0 0-.828.214.47.47 0 0 0-.27.452c.128 1.972-1.6 7.024-3.238 7.024-.297 0-.442-.32-.442-.837 0-1.426.855-4.436 1.285-5.815q.084-.266.085-.467c0-.377-.235-.57-.768-.57-.585 0-1.22.22-1.832 1.29-.215-.943-.858-1.355-1.755-1.355-1.473 0-3.117 1.547-3.84 3.564-.967 2.692-2.918 5.293-5.542 5.293-2.383 0-3.64-1.97-3.64-5.082 0-4.493 3.32-8.164 5.782-8.164 1.178 0 1.74.745 1.74 1.887 0 1.384-.777 2.027-.777 2.554 0 .161.134.32.402.32 1.07 0 2.33-1.25 2.33-2.953C12.02 1.247 10.627 0 8.165 0 4.095 0 0 4.069 0 9.282c0 4.148 2.06 6.65 5.622 6.65 2.43 0 4.553-1.878 5.698-4.07.13 1.816.96 2.765 2.225 2.765 1.125 0 2.035-.665 2.73-1.835.268 1.224.978 1.823 1.9 1.823 1.058 0 1.942-.666 2.785-1.903-.012.972.21 1.886 1.057 1.886.4 0 .878-.092.963-.44.892-3.666 3.098-6.66 3.773-6.66.2 0 .255.192.255.418 0 .996-.708 3.038-.708 4.342 0 1.408.602 2.34 1.848 2.34 1.38 0 2.782-1.68 3.717-4.134.293 2.293.925 4.143 1.915 4.143 1.215 0 3.373-2.54 4.68-5.23.513.064 1.282.047 2.023-.472a6.9 6.9 0 0 0-.5 2.526c0 2.496 1.2 3.196 2.232 3.196 1.122 0 2.033-.665 2.73-1.835.23 1.055.818 1.82 1.897 1.82 1.69 0 3.158-1.716 3.158-3.124 0-.373-.16-.599-.347-.599Zm-35.078 2.354c-.682 0-.95-.683-.95-1.702 0-1.768 1.217-4.721 2.505-4.721.563 0 .775.658.775 1.463 0 1.795-1.158 4.96-2.33 4.96m23.377-5.278c-.407-.482-.554-1.138-.554-1.722 0-.72.264-1.328.582-1.328s.415.31.415.742c0 .723-.26 1.779-.443 2.308m5.293 5.278c-.682 0-.95-.785-.95-1.702 0-1.706 1.218-4.721 2.515-4.721.563 0 .763.653.763 1.463 0 1.795-1.138 4.96-2.328 4.96"/></g><defs><linearGradient id="b" x1="4.779" x2="50" y1="0" y2="12.868" gradientUnits="userSpaceOnUse"><stop stop-color="#00bbc6"/><stop offset=".489" stop-color="#355ae4"/><stop offset="1" stop-color="#7225e3"/></linearGradient><clipPath id="a"><path fill="#fff" d="M0 0h50v15.931H0z"/></clipPath></defs></svg>