<svg xmlns="http://www.w3.org/2000/svg" width="98" height="64" fill="none"><g clip-path="url(#a)"><path fill="#fff" d="M7.414 63.995c-.04-.005-.18-.02-.31-.032-1.178-.118-2.436-.6-3.425-1.313a7.65 7.65 0 0 1-2.964-4.409 7.9 7.9 0 0 1-.13-2.992c.397-2.624 2.131-4.871 4.537-5.88a7.3 7.3 0 0 1 1.897-.507c.39-.053 1.337-.054 1.73 0a7.2 7.2 0 0 1 2.262.672c.797.386 1.35.784 2.017 1.453.584.585.945 1.072 1.363 1.84l.089.163-.315.233a86 86 0 0 1-1.785 1.273l-.274.187-.113-.245a4.6 4.6 0 0 0-.399-.723 4.4 4.4 0 0 0-2.782-1.86 4.9 4.9 0 0 0-1.9.033 4.8 4.8 0 0 0-1.781.857 6 6 0 0 0-.747.74c-.893 1.12-1.222 2.545-.915 3.97.106.492.38 1.136.667 1.564.758 1.133 1.92 1.858 3.235 2.02.233.03.793.03 1.026 0a4.53 4.53 0 0 0 2.978-1.674 4.8 4.8 0 0 0 .54-.843c.075-.147.143-.267.15-.267s.545.379 1.193.842l1.178.841-.12.226a7.5 7.5 0 0 1-1.07 1.48 7.2 7.2 0 0 1-2.193 1.628 7.4 7.4 0 0 1-2.358.693 15 15 0 0 1-1.28.03m10.075-7.66V48.96h2.86v5.293h7.47V48.96h2.86v14.75h-2.86v-6.49h-7.47v6.489h-2.86zm16.08 6.066 3.268-7.374 2.689-6.067h4.012l3.25 7.284 3.292 7.374.04.09h-3.424l-.661-1.461-.661-1.462-3.827.005-3.827.005-.654 1.457-.654 1.457H32.99zm10.595-4.592c-.012-.052-2.61-5.86-2.621-5.86-.008 0-2.476 5.76-2.515 5.87-.005.012.982.02 2.568.02 2.19 0 2.574-.004 2.568-.03m8.264-1.475V48.96h2.012l2.011.001 3.148 4.422 3.148 4.421.006-4.422.005-4.422h2.881v14.75l-1.156-.006-1.156-.005-3.993-5.543c-2.196-3.049-4-5.544-4.009-5.544s-.016 2.496-.016 5.548v5.55h-2.881zm18.42 0V48.96h10.308v2.967H73.73v2.945h6.87v2.967h-6.87v2.946h8.494v2.924H70.847zm15.41 0V48.96h2.88v11.825h8.026v2.924H86.257zM36.88 45.21c-3.079-.142-6.507-1.077-9.27-2.527-2.122-1.114-3.804-2.36-5.565-4.124-1.38-1.382-2.398-2.655-3.26-4.076l-.377-.622.535-.284c1.043-.553 5.796-2.987 5.834-2.987.02 0 .217.267.436.594 2.477 3.692 6.353 6.094 10.888 6.748.792.114 3.176.096 4.04-.031.96-.142 2.113-.404 2.845-.647.047-.016-.044-.164-.253-.41-1.621-1.911-3.099-4.534-3.93-6.976a22.54 22.54 0 0 1-.308-13.611c.81-2.766 2.203-5.451 3.967-7.645.263-.327.478-.616.478-.641 0-.087-1.377-.454-2.28-.607-1.394-.237-3.577-.266-4.838-.065-2.12.338-4.273 1.132-5.955 2.197a15.7 15.7 0 0 0-4.684 4.571l-.551.821-.701-.368a879 879 0 0 0-3.183-1.65 635 635 0 0 1-2.491-1.29c-.022-.018.833-1.378 1.185-1.883 1.067-1.536 2.964-3.57 4.365-4.682C27.471 2.106 31.544.468 36.13.06c.85-.076 2.96-.077 3.78-.001 2.911.267 5.407.973 7.985 2.258l1.232.615.413-.235c.666-.38 1.85-.927 2.75-1.271C54.814.459 57.355-.001 60.163 0c1.961.001 3.597.194 5.373.633 4.012.992 7.433 2.895 10.381 5.773 1.598 1.56 2.85 3.154 3.862 4.913l.153.266-2.494 1.287c-1.372.708-2.807 1.45-3.19 1.651l-.694.364-.525-.792c-2.591-3.909-6.83-6.453-11.469-6.886-1.373-.128-3.413-.01-4.653.27-.638.143-1.673.439-1.673.477 0 .02.17.245.377.499 2.658 3.262 4.318 7.238 4.855 11.63.127 1.048.145 3.724.03 4.761-.485 4.382-2.141 8.426-4.786 11.681-.6.738-.574.687-.382.761.091.035.516.153.945.261a15.9 15.9 0 0 0 6.723.224c4.004-.739 7.61-3.107 9.93-6.52.215-.318.41-.599.433-.625.022-.026.557.212 1.188.528 1.25.627 5.166 2.653 5.207 2.695.07.07-1.178 1.922-1.943 2.885-.724.91-2.624 2.808-3.531 3.527-3.28 2.599-6.96 4.188-11.013 4.755-4.654.651-9.582-.221-13.593-2.406l-.566-.309-.703.372c-3.483 1.843-7.479 2.722-11.525 2.534m13.002-12.802c1.941-2.402 3.152-5.317 3.45-8.304.101-1.002.041-3.044-.115-3.957-.429-2.511-1.347-4.664-2.83-6.631-.278-.37-.685-.866-.902-1.1l-.396-.428-.367.399c-.484.524-1.29 1.595-1.697 2.252-2.063 3.337-2.737 7.437-1.863 11.339.55 2.455 1.814 4.929 3.518 6.882l.393.45.171-.162c.095-.09.382-.422.638-.74"/></g><defs><clipPath id="a"><path fill="#fff" d="M.5 0h96.664v64H.5z"/></clipPath></defs></svg>