<svg xmlns="http://www.w3.org/2000/svg" width="336.842" height="64" fill="none" viewBox="0 0 100 19"><g fill="#000" clip-path="url(#a)"><path d="M93.85 8.538c0 .87-.217 1.557-.667 2.042-.45.486-1.033.703-1.75.703-.633 0-1.166-.217-1.566-.67-.417-.451-.634-1.004-.634-1.673V2.946h-2.3V8.94c0 1.356.384 2.51 1.167 3.314.783.82 1.733 1.222 2.95 1.222.35 0 .717-.05 1.05-.134.35-.1.633-.2.85-.318.217-.117.45-.234.633-.385a.873.873 0 0 0 .184-.167l.066-.1v.903h2.284V2.93H93.85v5.608ZM6.733 11.25c-2.466 0-4.466-2.026-4.466-4.487 0-2.477 2.016-4.486 4.466-4.486a4.4 4.4 0 0 1 3.6 1.858l1.984-1.138C11.1 1.189 9.05 0 6.733 0 3.017 0 0 3.047 0 6.763c0 3.733 3.033 6.764 6.733 6.764a6.762 6.762 0 0 0 5.6-2.98L10.35 9.408a4.506 4.506 0 0 1-3.617 1.842Zm91-11.133H100v13.225h-2.267V.117Zm-37.866 0L56.15 6.462 52.433.117h-2.916v13.225h2.266V3.516l3.55 6.06h1.617l3.583-6.127v9.877H62.8L62.817.1h-2.95v.017ZM44.983 5.24h3.05V2.963h-3.05V.151H42.7v9.29c0 2.244 1.017 3.901 3.833 3.901h1.484v-2.276h-1.25c-1.6 0-1.784-.804-1.784-1.59V5.24Zm-10.9-2.277h-2.266v.938a5.26 5.26 0 0 0-2.984-.938c-2.9 0-5.283 2.377-5.283 5.307 0 2.913 2.367 5.307 5.283 5.307 1.1 0 2.15-.352 2.984-.938v.72h2.266V2.963Zm-5.266 8.27a2.97 2.97 0 0 1-2.967-2.98 2.98 2.98 0 0 1 2.967-2.98 2.97 2.97 0 0 1 2.966 2.98 2.98 2.98 0 0 1-2.966 2.98Zm12.25-8.287c-.45 0-1.867.034-3.134.837v-.837h-2.266V13.31h2.266V7.667c0-.653.15-1.155.45-1.506.784-.921 2.267-.988 2.367-.988.117 0 .267-.017.4-.017h.583v-2.21h-.666ZM69.05 13.543c-2.9 0-5.267-2.377-5.267-5.29 0-2.913 2.367-5.29 5.267-5.29 2.9 0 5.267 2.377 5.267 5.29 0 2.913-2.367 5.29-5.267 5.29Zm0-8.253c-1.617 0-2.95 1.34-2.95 2.963 0 1.624 1.333 2.963 2.95 2.963 1.617 0 2.95-1.339 2.95-2.963a2.94 2.94 0 0 0-2.95-2.963Zm14.167-2.344v.938a5.193 5.193 0 0 0-2.967-.92c-2.9 0-5.267 2.376-5.267 5.29 0 2.912 2.367 5.29 5.267 5.29 1.1 0 2.117-.352 2.967-.921v.2c0 .1-.017.201-.017.201a4.012 4.012 0 0 1-.917 1.993c-.566.552-1.266.803-2.083.82h-.05c-1.167-.034-2.2-.57-2.85-1.406l-1.55 1.657c.917 1.272 2.6 2.11 4.5 2.076 1.467 0 2.717-.536 3.733-1.59.934-.988 1.434-2.194 1.5-3.6 0 0 .017-.167.017-.368V2.98h-2.283v-.034Zm-2.967 8.287c-1.617 0-2.95-1.34-2.95-2.963 0-1.624 1.333-2.963 2.95-2.963 1.617 0 2.95 1.34 2.95 2.963 0 1.624-1.333 2.963-2.95 2.963ZM17.667 5.257h.45c-.067 0-.15-.017-.217-.017-.1 0-.15 0-.233.017Z"/><path d="M22.48 7.388c0-2.707-1.87-4.411-4.405-4.411-.917 0-1.784.3-2.502.785V.153h-2.268v13.183h2.268V7.99c0-.87.2-1.538.617-2.022.367-.418.868-.669 1.502-.702.066 0 .133-.017.2-.017s.15 0 .217.017c.617.033 1.1.284 1.484.702.384.468.584 1.103.617 1.905v5.463h2.27V7.388Z"/></g><defs><clipPath id="a"><path fill="#fff" d="M0 0h100v18.165H0z"/></clipPath></defs></svg>