<svg xmlns="http://www.w3.org/2000/svg" width="64" height="64" fill="none" viewBox="0 0 32 32"><path fill="#ef3f36" d="M16 2.004s8.253-.37 12.628 7.896h-13.33s-2.515-.08-4.664 2.96c-.617 1.276-1.28 2.591-.536 5.182-1.073-1.81-5.695-9.83-5.695-9.83s3.26-5.881 11.598-6.208"/><path fill="#fcd900" d="M28.2 22.986s-3.808 7.308-13.175 6.946L21.69 18.43s1.331-2.13-.239-5.505c-.799-1.172-1.613-2.399-4.236-3.052 2.11-.02 11.389 0 11.389 0s3.476 5.755-.405 13.113"/><path fill="#61bc5b" d="M3.86 23.043s-4.45-6.938.55-14.842c1.154 1.995 6.663 11.502 6.663 11.502s1.188 2.214 4.903 2.544c1.416-.103 2.89-.192 4.773-2.125-1.038 1.83-5.695 9.826-5.695 9.826s-6.744.123-11.196-6.905"/><path fill="#5ab055" d="m15.02 30.001 1.876-7.796s2.06-.161 3.788-2.049c-1.072 1.88-5.663 9.845-5.663 9.845"/><path fill="#fff" d="M9.72 16.089c0-3.437 2.797-6.224 6.246-6.224s6.246 2.787 6.246 6.224-2.797 6.224-6.246 6.224c-3.449-.004-6.246-2.787-6.246-6.224"/><path fill="url(#a)" d="M10.765 16.09c0-2.861 2.327-5.183 5.201-5.183 2.87 0 5.2 2.318 5.2 5.182 0 2.86-2.326 5.182-5.2 5.182-2.87 0-5.2-2.322-5.2-5.182"/><path fill="#eaca05" d="m28.6 9.877-7.719 2.256s-1.165-1.703-3.669-2.256c2.172-.012 11.389 0 11.389 0"/><path fill="#df3a32" d="M9.948 17.758c-1.085-1.872-5.544-9.546-5.544-9.546l5.717 5.636s-.586 1.203-.366 2.925z"/><defs><linearGradient id="a" x1="15.966" x2="15.966" y1="10.98" y2="20.959" gradientUnits="userSpaceOnUse"><stop stop-color="#86bbe5"/><stop offset="1" stop-color="#1072ba"/></linearGradient></defs></svg>