<svg xmlns="http://www.w3.org/2000/svg" width="228.571" height="64" fill="none" viewBox="0 0 100 28"><g clip-path="url(#a)"><path fill="#3E45EB" fill-rule="evenodd" d="M76.1 25.236c0 1.262-1.005 2.227-2.272 2.227a2.214 2.214 0 0 1-2.236-2.227V2.226c0-1.224.969-2.226 2.236-2.226C75.095 0 76.1 1.002 76.1 2.227v23.01Zm-43.765-22.6c0 1.335-1.118 2.226-2.571 2.226s-2.571-.89-2.571-2.227v-.223c0-1.336 1.118-2.19 2.57-2.19 1.454 0 2.572.854 2.572 2.19v.223Zm-9.607 21.598c-2.46 2.153-5.254 3.489-9.464 3.489C5.664 27.723 0 21.822 0 14.363v-.075C0 6.903 5.552.854 13.45.854c4.024 0 6.67 1.187 8.942 2.931.485.372.895 1.002.895 1.819 0 1.262-1.006 2.227-2.273 2.227-.634 0-1.08-.223-1.379-.446-1.788-1.447-3.726-2.338-6.222-2.338-4.955 0-8.607 4.083-8.607 9.167v.074c0 5.085 3.614 9.204 8.607 9.204 2.757 0 4.62-.89 6.52-2.487a2.09 2.09 0 0 1 1.379-.52c1.155 0 2.16.966 2.16 2.116 0 .705-.335 1.262-.744 1.633Zm7.037 3.229c1.267 0 2.273-.965 2.273-2.227V9.723a2.254 2.254 0 0 0-2.273-2.263c-1.267 0-2.236 1.002-2.236 2.263v15.513a2.214 2.214 0 0 0 2.236 2.227Zm11.806-2.227c0 1.225-1.006 2.227-2.273 2.227a2.214 2.214 0 0 1-2.235-2.227V9.723c0-1.261.969-2.263 2.235-2.263a2.254 2.254 0 0 1 2.273 2.263v2.004c1.044-2.449 2.98-4.305 4.956-4.305 1.415 0 2.235.928 2.235 2.227 0 1.188-.782 1.967-1.788 2.153-3.204.556-5.403 3.006-5.403 7.645v5.79Zm18.439 2.487c3.278 0 5.402-1.114 7.153-2.784.41-.334.633-.816.633-1.41 0-1.076-.856-1.967-1.937-1.967-.521 0-.969.26-1.23.483-1.229 1.039-2.608 1.744-4.396 1.744-3.465 0-5.887-2.784-5.887-6.272v-.074c0-3.415 2.422-6.235 5.7-6.235 1.79 0 3.056.705 4.211 1.67.298.223.782.445 1.341.445 1.155 0 2.087-.89 2.087-2.04 0-.743-.41-1.3-.708-1.56-1.677-1.447-3.8-2.449-6.893-2.449-5.924 0-10.246 4.676-10.246 10.243v.074c0 5.567 4.322 10.132 10.172 10.132Zm30.134 0c3.055 0 5.291-1.002 7.08-2.598.335-.334.596-.817.596-1.373 0-1.04-.783-1.819-1.789-1.819-.522 0-.82.149-1.155.409-1.267 1.039-2.757 1.707-4.657 1.707-2.906 0-5.18-1.782-5.664-4.973h12.333c1.155 0 2.124-.891 2.124-2.153 0-4.528-3.093-9.65-9.352-9.65-5.626 0-9.613 4.603-9.613 10.207v.074c0 6.05 4.397 10.169 10.097 10.169Zm-5.626-11.616h10.097c-.298-2.895-2.012-5.159-4.992-5.159-2.758 0-4.695 2.116-5.105 5.159Z" clip-rule="evenodd"/></g><defs><clipPath id="a"><path fill="#fff" d="M0 0h100v27.723H0z"/></clipPath></defs></svg>