<svg xmlns="http://www.w3.org/2000/svg" width="64" height="64" fill="none" viewBox="0 0 50 50"><g clip-path="url(#a)"><path fill="#4661ee" d="M25 50c13.807 0 25-11.193 25-25S38.807 0 25 0 0 11.193 0 25s11.193 25 25 25"/><path fill="#fff" d="M25.922 36.765c3.56 0 5.924-1.134 8.004-2.96a1.86 1.86 0 0 0 .63-1.385c0-.976-.85-1.795-1.828-1.795-.472 0-.882.19-1.166.441-1.607 1.354-3.182 2.11-5.514 2.11-4.223 0-7.28-3.495-7.28-7.808v-.063c0-4.314 3.088-7.777 7.28-7.777 2.111 0 3.75.756 5.262 1.984.252.189.63.378 1.166.378 1.072 0 1.923-.82 1.923-1.89 0-.692-.347-1.227-.757-1.542-1.922-1.48-4.16-2.487-7.563-2.487-6.68 0-11.376 5.131-11.376 11.397v.063c0 6.328 4.79 11.334 11.219 11.334"/></g><defs><clipPath id="a"><path fill="#fff" d="M0 0h50v50H0z"/></clipPath></defs></svg>