<svg xmlns="http://www.w3.org/2000/svg" width="64" height="64" fill="none" viewBox="0 0 50 50"><g clip-path="url(#a)"><path fill="url(#b)" d="M40.625 0H9.375A9.375 9.375 0 0 0 0 9.375v31.25A9.375 9.375 0 0 0 9.375 50h31.25A9.375 9.375 0 0 0 50 40.625V9.375A9.375 9.375 0 0 0 40.625 0"/><path fill="#fff" d="M24.555 40.468c-6.05-.771-10.28-4.734-11.805-11.075-.136-.572-.25-2.51-.25-4.293 0-3.875.432-5.768 1.865-8.476 1.729-3.259 4.754-5.658 8.438-6.693 2.366-.66 7.12-.749 9.485-.176 1.342.33 4.663 1.739 4.868 2.07.045.065 0 .726-.114 1.452-.592 3.809-.819 5.196-.955 5.306-.069.066-.82-.286-1.684-.77-1.956-1.167-3.366-1.586-5.663-1.718-5.209-.33-8.28 2.973-8.28 8.873 0 3.413.751 5.438 2.57 7.067 2.093 1.872 4.777 2.466 7.893 1.74 1.638-.375 2.639-.815 4.186-1.762.682-.418 1.319-.682 1.387-.572.114.176.66 3.324.955 5.438.114.903.114.925-.978 1.607-2.752 1.673-7.778 2.51-11.918 1.982"/></g><defs><linearGradient id="b" x1="1.563" x2="48.438" y1="3.125" y2="50" gradientUnits="userSpaceOnUse"><stop stop-color="#DEBF4B"/><stop offset=".193" stop-color="#6FAA72"/><stop offset=".657" stop-color="#4967BD"/></linearGradient><clipPath id="a"><path fill="#fff" d="M0 0h50v50H0z"/></clipPath></defs></svg>