<svg xmlns="http://www.w3.org/2000/svg" width="249.263" height="64" fill="none" viewBox="0 0 148 38"><path fill="#000" d="M64.56 14.364a4.25 4.25 0 0 0-1.963-1.485q-1.21-.486-2.367-.486-1.478 0-2.688.54a6.5 6.5 0 0 0-2.098 1.485 6.9 6.9 0 0 0-1.344 2.214 8.1 8.1 0 0 0-.457 2.754q0 1.566.457 2.862c.282.823.72 1.584 1.29 2.24a6.1 6.1 0 0 0 2.044 1.432q1.184.513 2.662.513 1.533 0 2.716-.594 1.182-.621 1.91-1.62l2.715 1.917a8.84 8.84 0 0 1-3.093 2.484q-1.828.864-4.275.864-2.232 0-4.114-.73a9.7 9.7 0 0 1-3.2-2.078 9.65 9.65 0 0 1-2.096-3.186q-.753-1.863-.753-4.104 0-2.295.78-4.131.807-1.863 2.178-3.16a9.8 9.8 0 0 1 3.28-1.997q1.883-.702 4.087-.702.914 0 1.91.189.995.162 1.91.54a8.7 8.7 0 0 1 1.72.89q.805.54 1.371 1.297l-2.583 2.052Zm4.874-5.778h3.227v20.412h-3.227zm16.23 12.636q0-.621-.189-1.188a2.6 2.6 0 0 0-.538-1 2.54 2.54 0 0 0-.968-.674q-.564-.27-1.344-.27-1.452 0-2.474.89-.994.865-1.102 2.242zm3.226 1.458v.432q0 .216-.027.432H79.05q.053.702.35 1.296.321.566.833.999.51.405 1.156.648t1.345.243q1.209 0 2.043-.432a3.96 3.96 0 0 0 1.371-1.242l2.151 1.728q-1.909 2.592-5.539 2.592-1.505 0-2.77-.46a6.9 6.9 0 0 1-2.204-1.35 6.3 6.3 0 0 1-1.452-2.105q-.51-1.269-.51-2.862 0-1.567.51-2.835.54-1.296 1.452-2.187a6.2 6.2 0 0 1 2.151-1.404 7.2 7.2 0 0 1 2.716-.513q1.344 0 2.474.459a5.16 5.16 0 0 1 1.99 1.323q.833.864 1.29 2.187.484 1.296.484 3.05Zm10.98 4.67h-.08q-.484.865-1.56 1.432-1.076.54-2.447.54-.78 0-1.64-.216a5 5 0 0 1-1.56-.648 4.35 4.35 0 0 1-1.183-1.242q-.457-.783-.457-1.917 0-1.458.807-2.322.834-.864 2.124-1.323t2.85-.594a30 30 0 0 1 3.092-.162v-.324q0-1.215-.887-1.782-.861-.594-2.07-.594a4.65 4.65 0 0 0-1.963.432q-.942.432-1.56 1.053l-1.667-1.971a7.3 7.3 0 0 1 2.528-1.54 8.7 8.7 0 0 1 2.93-.512q1.723 0 2.824.486 1.13.486 1.774 1.269t.888 1.755q.269.972.269 1.944v7.884h-3.013zm-.054-4.265h-.726q-.78 0-1.64.08c-.54.03-1.072.13-1.586.298q-.726.216-1.21.648-.484.405-.484 1.134 0 .459.188.783.215.297.538.486t.726.27q.404.08.806.08 1.667 0 2.528-.89.86-.891.86-2.43v-.46Zm6.825-7.047h3.092v2.16h.054a4.7 4.7 0 0 1 1.506-1.836q.968-.702 2.258-.702.189 0 .403.027.216 0 .377.054v2.97a4 4 0 0 0-.565-.108 4 4 0 0 0-.43-.027q-1.103 0-1.775.405a3.2 3.2 0 0 0-1.048.972c-.24.352-.413.745-.511 1.16q-.135.595-.135.946v6.939h-3.226zm13.074-7.452v9.099h.081q.243-.324.619-.675.375-.351.887-.648a5.5 5.5 0 0 1 1.237-.486 5.4 5.4 0 0 1 1.586-.216q1.371 0 2.528.54 1.156.513 1.99 1.43a6.5 6.5 0 0 1 1.29 2.16c.31.857.465 1.762.457 2.674a7.9 7.9 0 0 1-.457 2.7 6.5 6.5 0 0 1-1.264 2.187 6.15 6.15 0 0 1-1.99 1.485q-1.155.54-2.635.54a5.8 5.8 0 0 1-2.58-.594 4.4 4.4 0 0 1-1.856-1.728h-.054v1.944h-3.065V8.586zm7.395 13.878q0-.757-.242-1.485a4 4 0 0 0-.672-1.35 3.3 3.3 0 0 0-1.157-.945q-.698-.378-1.64-.378-.887 0-1.586.378t-1.21.972c-.327.403-.582.86-.753 1.35-.159.488-.24.998-.242 1.512q0 .756.242 1.512.27.729.753 1.323.51.594 1.21.972.7.35 1.586.35.942 0 1.64-.377a3.6 3.6 0 0 0 1.157-.972q.456-.594.672-1.35c.159-.488.24-.998.242-1.512m6.447-6.426h3.226v12.96h-3.226zm-.458-4.401q0-.783.564-1.35.592-.594 1.48-.594.886 0 1.478.567.618.54.618 1.377c0 .837-.206 1.026-.618 1.404q-.591.54-1.479.54-.886 0-1.479-.567a1.94 1.94 0 0 1-.564-1.377m5.743 6.993v-2.592h2.26v-3.753h3.172v3.753h3.225v2.592h-3.226v6.02q0 .865.296 1.432.322.567 1.398.567.323 0 .699-.054.376-.081.672-.216l.108 2.538q-.498.178-1.022.243-.59.108-1.13.108-1.29 0-2.097-.351-.806-.378-1.29-1a4.1 4.1 0 0 1-.646-1.457 9.4 9.4 0 0 1-.16-1.782V18.63h-2.26z"/><g filter="url(#a)"><path fill="#C4D3E0" fill-opacity=".2" d="M26.357 35H11.511l-.606-.005c-2.507-.04-3.504-.346-4.509-.886a6.05 6.05 0 0 1-2.51-2.52l-.12-.233c-.481-.978-.745-2.057-.765-4.591L3 11.546c0-2.971.308-4.05.887-5.135a6.05 6.05 0 0 1 2.51-2.52l.232-.12c.973-.485 2.048-.75 4.572-.77L26.357 3c2.96 0 4.033.31 5.114.89a6.05 6.05 0 0 1 2.51 2.52l.12.234c.482.977.746 2.056.766 4.591l.001 15.219-.005.608c-.04 2.517-.344 3.519-.882 4.527a6.05 6.05 0 0 1-2.51 2.52l-.232.12c-1.012.504-2.134.77-4.882.77Z"/></g><path fill="url(#b)" d="M34.871 19v7.454c0 2.971-.308 4.049-.886 5.135a6.04 6.04 0 0 1-2.51 2.52c-1.082.581-2.155.89-5.115.89h-7.422V19H34.87Z"/><path fill="url(#c)" d="M18.938 3h7.422c2.96 0 4.033.31 5.115.89a6.05 6.05 0 0 1 2.51 2.52c.578 1.087.886 2.165.886 5.136V19H18.938z"/><path fill="url(#d)" d="M11.511 3h7.423v32h-7.423c-2.96 0-4.033-.31-5.115-.89a6.05 6.05 0 0 1-2.51-2.52C3.309 30.502 3 29.424 3 26.453V11.546c0-2.971.308-4.05.887-5.135a6.05 6.05 0 0 1 2.51-2.52C7.477 3.308 8.551 3 11.51 3Z"/><defs><linearGradient id="b" x1="26.904" x2="34.924" y1="19" y2="34.973" gradientUnits="userSpaceOnUse"><stop stop-color="#DEF2FE"/><stop offset="1" stop-color="#DBF1FE"/></linearGradient><linearGradient id="c" x1="18.938" x2="26.957" y1="3" y2="18.973" gradientUnits="userSpaceOnUse"><stop stop-color="#57BCFD"/><stop offset="1" stop-color="#51B5FD"/></linearGradient><linearGradient id="d" x1="8.975" x2="22.609" y1="3" y2="30.155" gradientUnits="userSpaceOnUse"><stop stop-color="#1CA7FD"/><stop offset="1" stop-color="#148CFC"/></linearGradient><filter id="a" width="37.296" height="37.428" x=".286" y=".286" color-interpolation-filters="sRGB" filterUnits="userSpaceOnUse"><feFlood flood-opacity="0" result="BackgroundImageFix"/><feBlend in="SourceGraphic" in2="BackgroundImageFix" result="shape"/><feGaussianBlur result="effect1_foregroundBlur_1_3269" stdDeviation="1.357"/></filter></defs></svg>