<svg xmlns="http://www.w3.org/2000/svg" width="304.762" height="64" fill="none" viewBox="0 0 100 21"><g fill="#000" clip-path="url(#a)"><path d="M78.89 12.86V5.32h1.15c1.124 0 1.148 0 1.18.182.023.095.087.405.142.69l.103.507.539-.491c.981-.88 1.94-1.197 3.223-1.055 1.687.19 2.875 1.356 3.374 3.307.159.65.19.951.19 2.005-.007 2.236-.515 3.671-1.695 4.734-1.108 1.007-2.653 1.348-4.443.99-.388-.078-.776-.174-.847-.205-.135-.056-.143.071-.143 1.926 0 1.095-.032 2.006-.071 2.03-.064.04-.34.087-1.632.285-.261.04-.61.096-.768.127l-.301.056V12.86Zm5.379 1.126c.728-.23 1.227-.785 1.568-1.745.206-.562.198-2.505-.008-3.14-.19-.61-.554-1.07-1.037-1.315-.832-.436-1.783-.175-2.67.721l-.459.476v4.654l.245.135c.317.158 1.117.333 1.585.34a2.7 2.7 0 0 0 .776-.126M4.198 16.34c-2.107-.277-3.58-1.704-4.11-3.988C.04 12.146 0 11.45 0 10.806 0 9.411.15 8.73.65 7.754a4.78 4.78 0 0 1 2.938-2.41c.824-.238 2.479-.27 3.303-.064.467.12 1.623.627 1.695.746.016.023 0 .261-.04.523-.206 1.371-.285 1.87-.333 1.91-.023.024-.285-.103-.586-.277-.68-.42-1.172-.57-1.972-.618-1.814-.12-2.883 1.07-2.883 3.195 0 1.229.262 1.958.895 2.545.729.674 1.663.888 2.749.626.57-.135.918-.293 1.457-.634.238-.15.46-.246.483-.206.04.063.23 1.197.333 1.958.04.325.04.333-.34.579-.96.603-2.71.904-4.151.713m15.754 0c-.634-.102-1.394-.372-1.814-.642-.365-.23-1.077-.904-1.307-1.237-.261-.38-.594-1.141-.753-1.712-.23-.88-.23-3.013 0-3.853.507-1.808 1.688-3.108 3.272-3.584.42-.127.768-.159 1.544-.166.895 0 1.07.023 1.6.214 1.41.507 2.345 1.57 2.772 3.147.182.698.325 2.038.262 2.498l-.048.34-3.414.016-3.413.024.023.397c.048 1.078.777 2.045 1.743 2.347.594.174 1.529.182 2.218.007.633-.166 1.71-.65 2.154-.983.317-.23.444-.15.499.31.024.206.087.666.135 1.014.087.61.079.635-.095.77-.46.34-1.3.713-2.163.95-.641.175-2.503.255-3.215.143m2.859-6.913c0-.286-.198-.944-.388-1.308-.364-.722-.911-1.055-1.703-1.055-.943 0-1.87.983-2.004 2.125l-.047.412h4.142zm6.419 6.922c-.88-.19-1.672-.84-1.989-1.642-.27-.666-.27-1.998 0-2.672.261-.674.966-1.395 1.695-1.752 1.077-.515 1.893-.73 4.095-1.054l.436-.072-.008-.444c-.016-.951-.547-1.332-1.846-1.332-.871 0-1.473.12-2.519.484-.958.341-.998.341-1.069-.047-.158-.84-.285-1.745-.245-1.808.079-.135 1.362-.54 2.312-.738.792-.166 3.042-.166 3.683 0 1.465.389 2.226 1.182 2.424 2.546.04.309.08 2.267.08 4.463v3.901h-2.354l-.087-.404a3 3 0 0 1-.095-.595c0-.246-.159-.246-.396.008-.31.333-1.03.77-1.584.975-.396.15-.713.198-1.386.222-.476.008-.998 0-1.149-.04Zm3.104-2.324c.245-.11.61-.356.808-.539l.364-.34v-2.3l-.412.056c-1.354.174-2.614.721-3.01 1.308-.475.682-.388 1.475.198 1.895.23.166.325.182.927.158.523-.023.776-.071 1.125-.238m16.891 2.315c-.641-.095-1.75-.428-2.384-.713-.507-.23-.514-.238-.475-.492.253-1.577.317-1.934.372-1.998.032-.031.27.064.523.214a6.3 6.3 0 0 0 3.231.952c.745.016.927-.008 1.244-.159.451-.206.658-.5.658-.943 0-.627-.5-.975-1.94-1.356-2.48-.65-3.296-1.15-3.747-2.3-.143-.364-.199-1.625-.095-2.045.253-1.007 1.116-1.84 2.249-2.18.697-.206 2.788-.23 3.627-.04.69.159 1.751.508 1.807.595.023.04.007.301-.04.587-.04.285-.119.76-.159 1.054-.047.294-.11.563-.15.603s-.261-.032-.491-.15c-1.275-.643-3.002-.937-3.739-.627-.641.261-.815.935-.364 1.371.222.222 1.394.73 1.68.73.181 0 1.663.475 2.066.658 1.307.602 1.87 1.45 1.87 2.846 0 1.705-.848 2.823-2.495 3.275-.563.15-2.535.222-3.248.119Zm11.567.024c-.459-.047-1.362-.325-1.821-.563-.626-.309-1.545-1.292-1.885-1.998-.492-1.022-.57-1.45-.57-2.973.007-1.522.095-2.006.554-2.95.657-1.34 1.742-2.22 3.216-2.6.68-.182 2.384-.174 3.08 0 .54.143 1.609.603 1.688.73.055.095-.262 2.339-.349 2.434-.031.04-.158-.008-.285-.087-.705-.508-1.655-.817-2.471-.817-1.687 0-2.701 1.22-2.701 3.259 0 1.553.626 2.608 1.798 3.06.974.373 2.313.127 3.39-.61l.356-.246.072.182c.15.365.356 2.053.269 2.196-.12.19-1.014.627-1.663.801-.57.159-2.036.262-2.678.182m9.778-.015c-.53-.104-1.322-.389-1.655-.595-.515-.325-1.18-.999-1.473-1.483-.705-1.157-.943-2.156-.887-3.758.04-1.268.15-1.768.617-2.703a4.78 4.78 0 0 1 2.804-2.45c.539-.175.768-.206 1.664-.206.894 0 1.109.023 1.647.198 1.592.531 2.693 1.696 3.231 3.457.167.523.19.76.19 1.942 0 1.174-.023 1.427-.182 1.982-.49 1.689-1.584 2.886-3.104 3.41-.476.166-.784.213-1.545.237-.523.016-1.109 0-1.307-.031m1.83-2.316c.689-.174 1.354-1.102 1.576-2.188.142-.69.063-1.99-.15-2.664-.341-1.038-1.125-1.712-2.084-1.784-.617-.047-1.377.262-1.718.69-.57.722-.76 1.403-.76 2.704 0 .824.031 1.086.182 1.546.514 1.522 1.465 2.07 2.954 1.697Zm22.171 2.339c-.578-.08-1.56-.436-1.98-.721-1.592-1.079-2.321-2.862-2.194-5.336.063-1.126.198-1.65.657-2.609.57-1.165 1.457-1.942 2.693-2.347.523-.174.776-.206 1.576-.206 1.521-.008 2.432.341 3.311 1.269.919.983 1.347 2.188 1.354 3.853l.009 1.03-3.422.025-3.43.015v.286c0 .412.206 1.062.475 1.482.808 1.285 2.725 1.539 4.626.611.356-.167.808-.404 1.014-.531.206-.12.396-.19.428-.167.079.08.34 1.967.293 2.093-.064.175-1.577.888-2.242 1.07-.586.16-2.51.27-3.168.183m2.732-6.85c.072-.119-.102-.825-.316-1.308-.206-.46-.682-.936-1.061-1.063-1.205-.396-2.321.397-2.694 1.919-.047.206-.07.412-.047.46.071.103 4.055.095 4.118-.008M10.9 14.174c-.024-.07-.048-2.746-.048-5.952 0-6.366-.024-6 .443-6.314.103-.068.5-.373.88-.685l1.077-.891.372-.306v16.13h-2.725v-1.982Zm27.99-3.424V5.32h1.15c1.124 0 1.148 0 1.187.182.016.095.095.516.167.928.063.412.142.777.166.816.023.04.158-.103.3-.317.302-.444 1.126-1.237 1.49-1.419.523-.277 1.513-.468 1.631-.317.056.071.357 1.816.428 2.466.016.127-.047.166-.34.222-1.252.23-2.131.69-2.9 1.506l-.506.531-.016 3.116-.024 3.108-1.362.024-1.37.016z"/></g><defs><clipPath id="a"><path fill="#fff" d="M0 0h100v20.408H0z"/></clipPath></defs></svg>