<svg xmlns="http://www.w3.org/2000/svg" width="249.263" height="64" fill="none" viewBox="0 0 148 38"><path fill="#000" d="M64.56 14.364a4.253 4.253 0 0 0-1.963-1.485c-.807-.324-1.596-.486-2.367-.486-.985 0-1.882.18-2.688.54a6.451 6.451 0 0 0-2.098 1.485 6.908 6.908 0 0 0-1.344 2.214 8.07 8.07 0 0 0-.457 2.754c0 1.044.152 1.998.457 2.862.282.823.72 1.584 1.29 2.24a6.083 6.083 0 0 0 2.044 1.432c.79.342 1.676.513 2.662.513 1.022 0 1.927-.198 2.716-.594.788-.414 1.425-.954 1.91-1.62l2.715 1.917a8.842 8.842 0 0 1-3.093 2.484c-1.219.576-2.644.864-4.275.864-1.488 0-2.859-.243-4.114-.73a9.738 9.738 0 0 1-3.2-2.078 9.65 9.65 0 0 1-2.096-3.186c-.502-1.242-.753-2.61-.753-4.104 0-1.53.26-2.907.78-4.131.538-1.242 1.264-2.295 2.178-3.16a9.81 9.81 0 0 1 3.28-1.997c1.255-.468 2.618-.702 4.087-.702.61 0 1.246.063 1.91.189.663.108 1.3.288 1.91.54.61.234 1.182.53 1.72.89.537.36.994.793 1.371 1.297l-2.583 2.052Zm4.874-5.778h3.227v20.412h-3.227V8.586Zm16.23 12.636c0-.414-.063-.81-.189-1.188a2.572 2.572 0 0 0-.538-1 2.54 2.54 0 0 0-.968-.674c-.376-.18-.824-.27-1.344-.27-.968 0-1.793.297-2.474.89-.663.577-1.03 1.324-1.102 2.242h6.614Zm3.226 1.458v.432c0 .144-.009.288-.027.432H79.05c.036.468.152.9.35 1.296.214.378.492.71.833.999.34.27.726.486 1.156.648.43.162.878.243 1.345.243.806 0 1.487-.144 2.043-.432a3.956 3.956 0 0 0 1.371-1.242l2.151 1.728c-1.272 1.728-3.119 2.592-5.539 2.592-1.003 0-1.927-.153-2.77-.46a6.868 6.868 0 0 1-2.204-1.35 6.3 6.3 0 0 1-1.452-2.105c-.34-.846-.51-1.8-.51-2.862 0-1.044.17-1.99.51-2.835.36-.864.843-1.593 1.452-2.187a6.199 6.199 0 0 1 2.151-1.404 7.152 7.152 0 0 1 2.716-.513c.896 0 1.72.153 2.474.459a5.16 5.16 0 0 1 1.99 1.323c.555.576.985 1.305 1.29 2.187.323.864.484 1.88.484 3.05Zm10.98 4.67h-.08c-.323.577-.843 1.054-1.56 1.432-.717.36-1.533.54-2.447.54-.52 0-1.066-.072-1.64-.216a4.944 4.944 0 0 1-1.56-.648 4.346 4.346 0 0 1-1.183-1.242c-.305-.522-.457-1.161-.457-1.917 0-.972.27-1.746.807-2.322.556-.576 1.264-1.017 2.124-1.323.86-.306 1.81-.504 2.85-.594a30.44 30.44 0 0 1 3.092-.162v-.324c0-.81-.295-1.404-.887-1.782-.574-.396-1.264-.594-2.07-.594a4.65 4.65 0 0 0-1.963.432c-.628.288-1.148.639-1.56 1.053l-1.667-1.971a7.303 7.303 0 0 1 2.528-1.54 8.745 8.745 0 0 1 2.93-.512c1.148 0 2.09.162 2.824.486.753.324 1.344.747 1.774 1.269.43.522.726 1.107.888 1.755.179.648.269 1.296.269 1.944v7.884h-3.013V27.35h.001Zm-.054-4.265h-.726c-.52 0-1.066.027-1.64.08-.54.03-1.072.13-1.586.298-.484.144-.888.36-1.21.648-.323.27-.484.648-.484 1.134 0 .306.063.567.188.783.143.198.323.36.538.486.215.126.457.216.726.27.27.054.538.08.806.08 1.112 0 1.954-.296 2.528-.89.574-.594.86-1.404.86-2.43v-.46Zm6.825-7.047h3.092v2.16h.054a4.72 4.72 0 0 1 1.506-1.836c.645-.468 1.398-.702 2.258-.702.126 0 .26.009.403.027.144 0 .27.018.377.054v2.97a4.38 4.38 0 0 0-.565-.108 3.474 3.474 0 0 0-.43-.027c-.735 0-1.327.135-1.775.405a3.222 3.222 0 0 0-1.048.972c-.24.352-.413.745-.511 1.16-.09.397-.135.712-.135.946v6.939h-3.226v-12.96Zm13.074-7.452v9.099h.081c.162-.216.368-.441.619-.675.25-.234.546-.45.887-.648a5.525 5.525 0 0 1 1.237-.486 5.37 5.37 0 0 1 1.586-.216c.914 0 1.757.18 2.528.54.77.342 1.434.819 1.99 1.43a6.53 6.53 0 0 1 1.29 2.16c.31.857.465 1.762.457 2.674a7.908 7.908 0 0 1-.457 2.7 6.475 6.475 0 0 1-1.264 2.187 6.148 6.148 0 0 1-1.99 1.485c-.77.36-1.649.54-2.635.54a5.779 5.779 0 0 1-2.58-.594 4.416 4.416 0 0 1-1.856-1.728h-.054v1.944h-3.065V8.586h3.227-.001Zm7.395 13.878c0-.504-.08-1-.242-1.485a3.98 3.98 0 0 0-.672-1.35 3.31 3.31 0 0 0-1.157-.945c-.466-.252-1.012-.378-1.64-.378-.591 0-1.12.126-1.586.378-.466.252-.87.576-1.21.972-.327.403-.582.86-.753 1.35-.159.488-.24.998-.242 1.512 0 .504.08 1.008.242 1.512.18.486.43.927.753 1.323.34.396.744.72 1.21.972.466.234.995.35 1.586.35.628 0 1.174-.125 1.64-.377a3.59 3.59 0 0 0 1.157-.972c.304-.396.528-.846.672-1.35.159-.488.24-.998.242-1.512Zm6.447-6.426h3.226v12.96h-3.226v-12.96Zm-.458-4.401c0-.522.188-.972.564-1.35.395-.396.888-.594 1.48-.594.59 0 1.084.189 1.478.567.412.36.618.819.618 1.377s-.206 1.026-.618 1.404c-.394.36-.887.54-1.479.54-.591 0-1.084-.19-1.479-.567a1.94 1.94 0 0 1-.564-1.377Zm5.743 6.993v-2.592h2.26v-3.753h3.172v3.753h3.225v2.592h-3.226v6.02c0 .577.099 1.054.296 1.432.215.378.68.567 1.398.567.215 0 .448-.018.699-.054.25-.054.475-.126.672-.216l.108 2.538c-.331.118-.673.2-1.022.243-.394.072-.77.108-1.13.108-.86 0-1.559-.117-2.097-.351-.537-.252-.968-.585-1.29-1a4.114 4.114 0 0 1-.646-1.457 9.425 9.425 0 0 1-.16-1.782V18.63h-2.26.001Z"/><g filter="url(#a)"><path fill="#C4D3E0" fill-opacity=".2" d="M26.357 35H11.511l-.606-.005c-2.507-.04-3.504-.346-4.509-.886a6.045 6.045 0 0 1-2.51-2.52l-.12-.233c-.481-.978-.745-2.057-.765-4.591L3 11.546c0-2.971.308-4.05.887-5.135a6.045 6.045 0 0 1 2.51-2.52l.232-.12c.973-.485 2.048-.75 4.572-.77L26.357 3c2.96 0 4.033.31 5.114.89a6.045 6.045 0 0 1 2.51 2.52l.12.234c.482.977.746 2.056.766 4.591l.001 15.219-.005.608c-.04 2.517-.344 3.519-.882 4.527a6.045 6.045 0 0 1-2.51 2.52l-.232.12c-1.012.504-2.134.77-4.882.77Z"/></g><path fill="url(#b)" d="M34.871 19v7.454c0 2.971-.308 4.049-.886 5.135a6.044 6.044 0 0 1-2.51 2.52c-1.082.581-2.155.89-5.115.89h-7.422V19H34.87Z"/><path fill="url(#c)" d="M18.938 3h7.422c2.96 0 4.033.31 5.115.89a6.045 6.045 0 0 1 2.51 2.52c.578 1.087.886 2.165.886 5.136V19H18.938V3Z"/><path fill="url(#d)" d="M11.511 3h7.423v32h-7.423c-2.96 0-4.033-.31-5.115-.89a6.045 6.045 0 0 1-2.51-2.52C3.309 30.502 3 29.424 3 26.453V11.546c0-2.971.308-4.05.887-5.135a6.045 6.045 0 0 1 2.51-2.52C7.477 3.308 8.551 3 11.51 3Z"/><defs><linearGradient id="b" x1="26.904" x2="34.924" y1="19" y2="34.973" gradientUnits="userSpaceOnUse"><stop stop-color="#DEF2FE"/><stop offset="1" stop-color="#DBF1FE"/></linearGradient><linearGradient id="c" x1="18.938" x2="26.957" y1="3" y2="18.973" gradientUnits="userSpaceOnUse"><stop stop-color="#57BCFD"/><stop offset="1" stop-color="#51B5FD"/></linearGradient><linearGradient id="d" x1="8.975" x2="22.609" y1="3" y2="30.155" gradientUnits="userSpaceOnUse"><stop stop-color="#1CA7FD"/><stop offset="1" stop-color="#148CFC"/></linearGradient><filter id="a" width="37.296" height="37.428" x=".286" y=".286" color-interpolation-filters="sRGB" filterUnits="userSpaceOnUse"><feFlood flood-opacity="0" result="BackgroundImageFix"/><feBlend in="SourceGraphic" in2="BackgroundImageFix" result="shape"/><feGaussianBlur result="effect1_foregroundBlur_1_3269" stdDeviation="1.357"/></filter></defs></svg>