<svg xmlns="http://www.w3.org/2000/svg" width="62.836" height="64" fill="none" viewBox="0 0 54 55"><g filter="url(#a)"><path fill="#C4D3E0" fill-opacity=".2" d="M38.305 51.369h-22.44l-.916-.008c-3.79-.061-5.297-.523-6.815-1.338a9.137 9.137 0 0 1-3.794-3.81l-.18-.352c-.73-1.478-1.129-3.109-1.158-6.94L3 15.918c0-4.492.466-6.12 1.34-7.763a9.138 9.138 0 0 1 3.794-3.81l.351-.181c1.472-.731 3.096-1.132 6.911-1.162L38.305 3c4.473 0 6.095.468 7.73 1.346a9.137 9.137 0 0 1 3.794 3.809l.18.353c.73 1.477 1.129 3.108 1.158 6.94l.002 23.003-.007.92c-.061 3.804-.521 5.318-1.333 6.843a9.136 9.136 0 0 1-3.794 3.809l-.35.182c-1.531.76-3.227 1.164-7.38 1.164Z"/></g><path fill="url(#b)" d="M51.17 27.184v11.267c0 4.492-.465 6.12-1.34 7.763a9.136 9.136 0 0 1-3.793 3.809c-1.636.878-3.258 1.345-7.731 1.345h-11.22V27.184H51.17Z"/><path fill="url(#c)" d="M27.086 3h11.22c4.473 0 6.095.468 7.73 1.346a9.137 9.137 0 0 1 3.794 3.809c.875 1.642 1.34 3.271 1.34 7.763v11.266H27.086V3Z"/><path fill="url(#d)" d="M15.865 3h11.22v48.369h-11.22c-4.474 0-6.096-.468-7.731-1.346a9.137 9.137 0 0 1-3.794-3.81C3.466 44.572 3 42.944 3 38.452V15.918c0-4.492.466-6.12 1.34-7.763a9.138 9.138 0 0 1 3.794-3.81C9.769 3.469 11.39 3 15.864 3Z"/><defs><linearGradient id="b" x1="39.128" x2="51.25" y1="27.184" y2="51.328" gradientUnits="userSpaceOnUse"><stop stop-color="#DEF2FE"/><stop offset="1" stop-color="#DBF1FE"/></linearGradient><linearGradient id="c" x1="27.086" x2="39.208" y1="3" y2="27.144" gradientUnits="userSpaceOnUse"><stop stop-color="#57BCFD"/><stop offset="1" stop-color="#51B5FD"/></linearGradient><linearGradient id="d" x1="12.032" x2="32.639" y1="3" y2="44.045" gradientUnits="userSpaceOnUse"><stop stop-color="#1CA7FD"/><stop offset="1" stop-color="#148CFC"/></linearGradient><filter id="a" width="53.6" height="53.797" x=".286" y=".286" color-interpolation-filters="sRGB" filterUnits="userSpaceOnUse"><feFlood flood-opacity="0" result="BackgroundImageFix"/><feBlend in="SourceGraphic" in2="BackgroundImageFix" result="shape"/><feGaussianBlur result="effect1_foregroundBlur_1_3263" stdDeviation="1.357"/></filter></defs></svg>