<svg xmlns="http://www.w3.org/2000/svg" width="188.235" height="64" fill="none" viewBox="0 0 100 34"><g clip-path="url(#a)"><path fill="#F6821F" d="m84.771 21.29.245-.845c.29-1.005.182-1.934-.306-2.616-.45-.629-1.199-1-2.109-1.042l-17.233-.218a.34.34 0 0 1-.272-.145.351.351 0 0 1-.04-.31.458.458 0 0 1 .401-.306l17.393-.22c2.064-.095 4.298-1.768 5.08-3.808l.991-2.59c.041-.11.05-.228.027-.342C87.822 3.786 83.301 0 77.895 0c-4.98 0-9.21 3.212-10.727 7.677a5.1 5.1 0 0 0-7.994 5.338c-3.903.114-7.033 3.31-7.033 7.238 0 .35.026.7.077 1.048a.337.337 0 0 0 .332.29l31.817.004h.008a.42.42 0 0 0 .396-.305Z"/><path fill="#FBAD41" d="M90.514 9.378c-.16 0-.319.004-.477.012a.266.266 0 0 0-.075.017.272.272 0 0 0-.174.182l-.677 2.34c-.291 1.004-.183 1.933.306 2.615.45.63 1.198.999 2.108 1.042l3.674.22a.334.334 0 0 1 .3.455.458.458 0 0 1-.399.305l-3.817.22c-2.073.096-4.306 1.768-5.088 3.808l-.275.72a.204.204 0 0 0 .181.277h13.145a.35.35 0 0 0 .34-.253c.232-.83.35-1.687.349-2.55-.002-5.196-4.22-9.41-9.421-9.41Z"/><path fill="#222" d="M11.125 25.48h2.24v6.117h3.917v1.962h-6.157V25.48ZM19.602 29.543v-.023c0-2.32 1.87-4.202 4.366-4.202 2.494 0 4.342 1.859 4.342 4.178v.024c0 2.32-1.871 4.2-4.365 4.2s-4.343-1.858-4.343-4.177Zm6.421 0v-.023c0-1.164-.843-2.182-2.078-2.182-1.225 0-2.045.993-2.045 2.159v.023c0 1.164.843 2.181 2.068 2.181 1.235 0 2.055-.993 2.055-2.158ZM31.055 30.016V25.48h2.275v4.49c0 1.164.59 1.72 1.49 1.72s1.49-.531 1.49-1.663V25.48h2.275v4.477c0 2.608-1.49 3.75-3.788 3.75-2.299 0-3.742-1.164-3.742-3.692M42.008 25.48h3.118c2.888 0 4.563 1.662 4.563 3.993v.024c0 2.33-1.698 4.062-4.609 4.062h-3.072V25.48Zm3.153 6.093c1.34 0 2.229-.737 2.229-2.043v-.023c0-1.292-.889-2.043-2.229-2.043h-.912v4.11l.912-.001ZM52.945 25.48h6.468v1.963h-4.227v1.372h3.823v1.858h-3.823v2.886h-2.24V25.48ZM62.531 25.48h2.24v6.117h3.917v1.962H62.53V25.48ZM74.544 25.422h2.16l3.441 8.137h-2.402l-.59-1.443h-3.118l-.577 1.443h-2.356l3.442-8.137Zm1.963 4.952-.901-2.297-.913 2.297h1.814ZM83.031 25.48h3.823c1.237 0 2.09.323 2.634.877.474.462.716 1.087.716 1.882v.023c0 1.234-.66 2.054-1.663 2.48l1.929 2.817h-2.588l-1.629-2.447h-.981v2.447h-2.24v-8.08Zm3.72 3.878c.762 0 1.201-.37 1.201-.958v-.023c0-.635-.462-.958-1.214-.958h-1.466v1.94l1.478-.001ZM93.438 25.48h6.502v1.905h-4.285v1.223h3.881v1.766h-3.88v1.28h4.342v1.905h-6.56V25.48ZM6.217 30.49c-.314.709-.974 1.21-1.852 1.21-1.224 0-2.067-1.015-2.067-2.18v-.024c0-1.164.82-2.158 2.044-2.158.923 0 1.626.567 1.923 1.339h2.362c-.378-1.923-2.07-3.358-4.262-3.358-2.495 0-4.365 1.883-4.365 4.2v.023c0 2.32 1.847 4.179 4.342 4.179 2.134 0 3.802-1.38 4.242-3.231H6.217Z"/></g><defs><clipPath id="a"><path fill="#fff" d="M0 0h100v33.721H0z"/></clipPath></defs></svg>