<svg xmlns="http://www.w3.org/2000/svg" width="139.13" height="64" fill="none" viewBox="0 0 50 23"><g clip-path="url(#a)"><path fill="#f6821f" d="m34.142 22.174.254-.88c.303-1.046.19-2.014-.318-2.725-.469-.655-1.249-1.04-2.197-1.085l-17.949-.227a.36.36 0 0 1-.283-.15.37.37 0 0 1-.04-.324.48.48 0 0 1 .417-.318l18.115-.23c2.15-.098 4.476-1.84 5.29-3.965l1.033-2.698a.65.65 0 0 0 .028-.357C37.32 3.943 32.61 0 26.98 0c-5.187 0-9.592 3.346-11.172 7.996a5.3 5.3 0 0 0-3.726-1.03 5.312 5.312 0 0 0-4.6 6.59c-4.065.118-7.326 3.446-7.326 7.538q0 .548.081 1.091a.35.35 0 0 0 .346.302l33.137.005h.01a.44.44 0 0 0 .412-.318"/><path fill="#fbad41" d="M40.12 9.768q-.25 0-.498.012a.3.3 0 0 0-.078.017.28.28 0 0 0-.18.19l-.706 2.437c-.303 1.046-.19 2.013.319 2.724.468.656 1.248 1.04 2.196 1.085l3.826.23a.347.347 0 0 1 .313.473.48.48 0 0 1-.416.318l-3.976.23c-2.159.1-4.485 1.84-5.299 3.965l-.287.75a.21.21 0 0 0 .094.26.2.2 0 0 0 .095.028h13.691a.364.364 0 0 0 .353-.263 9.8 9.8 0 0 0 .364-2.655c-.001-5.413-4.394-9.801-9.812-9.801Z"/></g><defs><clipPath id="a"><path fill="#fff" d="M0 0h50v22.664H0z"/></clipPath></defs></svg>