<svg xmlns="http://www.w3.org/2000/svg" width="139.13" height="64" fill="none" viewBox="0 0 50 23"><g clip-path="url(#a)"><path fill="#F6821F" d="m34.142 22.174.254-.88c.303-1.046.19-2.014-.318-2.725-.469-.655-1.249-1.04-2.197-1.085l-17.949-.227a.355.355 0 0 1-.283-.15.366.366 0 0 1-.04-.324.477.477 0 0 1 .417-.318l18.115-.23c2.15-.098 4.476-1.84 5.29-3.965l1.033-2.698a.653.653 0 0 0 .028-.357C37.32 3.943 32.61 0 26.98 0c-5.187 0-9.592 3.346-11.172 7.996a5.297 5.297 0 0 0-3.726-1.03 5.312 5.312 0 0 0-4.6 6.59c-4.065.118-7.326 3.446-7.326 7.538 0 .365.028.73.081 1.091a.351.351 0 0 0 .346.302l33.137.005h.01a.437.437 0 0 0 .412-.318Z"/><path fill="#FBAD41" d="M40.12 9.768c-.167 0-.333.004-.498.012a.278.278 0 0 0-.078.017.284.284 0 0 0-.18.19l-.706 2.437c-.303 1.046-.19 2.013.319 2.724.468.656 1.248 1.04 2.196 1.085l3.826.23a.347.347 0 0 1 .313.473.478.478 0 0 1-.416.318l-3.976.23c-2.159.1-4.485 1.84-5.299 3.965l-.287.75a.213.213 0 0 0 .094.26c.029.017.062.027.095.028H49.214a.364.364 0 0 0 .353-.263 9.794 9.794 0 0 0 .364-2.655c-.001-5.413-4.394-9.801-9.812-9.801Z"/></g><defs><clipPath id="a"><path fill="#fff" d="M0 0h50v22.664H0z"/></clipPath></defs></svg>