<svg xmlns="http://www.w3.org/2000/svg" width="177.778" height="64" fill="none" viewBox="0 0 50 18"><g fill="#101010" clip-path="url(#a)"><path d="M0 10.488c0 4.126 2.856 6.69 6.47 6.69 1.27 0 2.54-.307 3.466-1v-3.224a4.552 4.552 0 0 1-3.053 1.156c-1.877 0-3.374-1.343-3.374-3.613S5 6.908 6.883 6.908a4.448 4.448 0 0 1 3.068 1.147v-3.23c-.92-.708-2.196-.978-3.466-.978C2.855 3.847 0 6.41 0 10.487ZM17.298 3.847c-3.68 0-6.251 2.736-6.251 6.64 0 3.906 2.564 6.691 6.251 6.691 3.688 0 6.273-2.76 6.273-6.69 0-3.93-2.56-6.641-6.273-6.641Zm0 10.328c-1.757 0-2.736-1.534-2.736-3.681 0-2.147.979-3.663 2.736-3.663 1.758 0 2.734 1.534 2.734 3.663 0 2.129-.951 3.68-2.734 3.68ZM33.643 5.19a4.442 4.442 0 0 0-3.224-1.343c-3.712 0-5.81 3.003-5.81 6.64 0 3.682 2.098 6.69 5.81 6.69a4.544 4.544 0 0 0 3.224-1.343v1.053h3.54V0h-3.54v5.19Zm0 7.423a2.71 2.71 0 0 1-2.417 1.464c-1.93 0-3.067-1.534-3.067-3.59 0-2.054 1.147-3.564 3.067-3.564a2.715 2.715 0 0 1 2.417 1.491v4.2ZM44.266 3.847c-1.708 0-3.343.466-4.273 1.052v3.067a6.378 6.378 0 0 1 3.491-1.052c1.807 0 2.859.782 2.859 2.028v.708c-.515-.368-1.76-.757-2.859-.757-2.807 0-4.93 1.66-4.93 4.1 0 2.639 2.123 4.127 4.712 4.127 1.39 0 2.66-.488 3.068-.902v.684h3.417V8.73c.01-3.101-1.994-4.883-5.485-4.883Zm2.077 9.57c-.307.684-1.245 1.101-2.248 1.101-1.123 0-2.27-.466-2.27-1.564s1.147-1.561 2.27-1.561c1.003 0 1.929.414 2.248 1.098v.926Z"/></g><defs><clipPath id="a"><path fill="#fff" d="M0 0h50v17.178H0z"/></clipPath></defs></svg>