<svg xmlns="http://www.w3.org/2000/svg" width="182.857" height="64" fill="none" viewBox="0 0 100 35"><g fill="#101010" clip-path="url(#a)"><path d="M0 20.975c0 8.252 5.712 13.38 12.939 13.38 2.54 0 5.08-.613 6.932-2v-6.447a9.104 9.104 0 0 1-6.104 2.313c-3.755 0-6.749-2.687-6.749-7.227 0-4.54 2.982-7.178 6.749-7.178a8.896 8.896 0 0 1 6.135 2.294V9.65c-1.84-1.417-4.393-1.957-6.933-1.957C5.712 7.693 0 12.823 0 20.975ZM34.597 7.693c-7.362 0-12.503 5.473-12.503 13.282 0 7.81 5.129 13.38 12.503 13.38 7.374 0 12.546-5.52 12.546-13.38 0-7.859-5.123-13.282-12.546-13.282Zm0 20.657c-3.516 0-5.473-3.068-5.473-7.362 0-4.295 1.957-7.325 5.473-7.325 3.515 0 5.466 3.067 5.466 7.325 0 4.257-1.902 7.362-5.466 7.362ZM67.278 10.38a8.884 8.884 0 0 0-6.447-2.687c-7.424 0-11.62 6.006-11.62 13.283 0 7.361 4.196 13.38 11.62 13.38a9.086 9.086 0 0 0 6.447-2.687v2.104h7.08V0h-7.08v10.38Zm0 14.847a5.419 5.419 0 0 1-4.834 2.926c-3.859 0-6.135-3.067-6.135-7.177 0-4.111 2.295-7.13 6.135-7.13a5.43 5.43 0 0 1 4.834 2.982v8.399ZM88.525 7.693c-3.417 0-6.687.933-8.546 2.105v6.134a12.755 12.755 0 0 1 6.981-2.104c3.614 0 5.718 1.565 5.718 4.055v1.418c-1.03-.737-3.521-1.516-5.718-1.516-5.613 0-9.858 3.32-9.858 8.203 0 5.276 4.245 8.251 9.423 8.251 2.779 0 5.319-.975 6.135-1.803v1.368h6.834V17.46c.019-6.202-3.987-9.767-10.97-9.767Zm4.153 19.141c-.613 1.368-2.49 2.203-4.497 2.203-2.245 0-4.54-.933-4.54-3.129 0-2.196 2.295-3.123 4.54-3.123 2.007 0 3.86.828 4.497 2.197v1.852Z"/></g><defs><clipPath id="a"><path fill="#fff" d="M0 0h100v34.356H0z"/></clipPath></defs></svg>