<svg xmlns="http://www.w3.org/2000/svg" width="64" height="64" fill="none" viewBox="0 0 50 50"><g clip-path="url(#a)"><path fill="#0052FF" d="M25 0c13.809 0 25 11.191 25 25S38.809 50 25 50 0 38.809 0 25 11.191 0 25 0Z"/><path fill="#fff" d="M25.005 33.79a8.787 8.787 0 0 1-8.79-8.79 8.787 8.787 0 0 1 8.79-8.79c4.35 0 7.964 3.175 8.657 7.325h8.853C41.768 14.512 34.214 7.422 25 7.422 15.293 7.422 7.422 15.293 7.422 25c0 9.707 7.871 17.578 17.578 17.578 9.214 0 16.768-7.09 17.515-16.113h-8.858c-.698 4.15-4.301 7.324-8.652 7.324Z"/></g><defs><clipPath id="a"><path fill="#fff" d="M0 0h50v50H0z"/></clipPath></defs></svg>