<svg xmlns="http://www.w3.org/2000/svg" width="355.556" height="64" fill="none" viewBox="0 0 100 18"><g clip-path="url(#a)"><path fill="#0052FF" d="M20.142 4.977c-3.625 0-6.458 2.752-6.458 6.437 0 3.684 2.76 6.412 6.458 6.412 3.697 0 6.506-2.775 6.506-6.436 0-3.637-2.761-6.413-6.506-6.413m.024 10.194c-2.064 0-3.577-1.603-3.577-3.757 0-2.177 1.488-3.78 3.553-3.78 2.089 0 3.6 1.627 3.6 3.78 0 2.154-1.511 3.757-3.576 3.757m7.274-7.394h1.8v9.811h2.881V5.216H27.44zM6.434 7.633c1.513 0 2.713.933 3.169 2.321h3.049c-.553-2.967-3.001-4.977-6.194-4.977C2.833 4.977 0 7.729 0 11.414s2.761 6.413 6.458 6.413c3.121 0 5.618-2.01 6.17-5.001H9.603C9.17 14.214 7.97 15.17 6.457 15.17c-2.089 0-3.553-1.603-3.553-3.757.001-2.177 1.442-3.78 3.53-3.78m75.742 2.585-2.112-.311c-1.008-.143-1.729-.478-1.729-1.268 0-.862.937-1.292 2.209-1.292 1.392 0 2.281.598 2.473 1.579h2.785c-.313-2.489-2.233-3.948-5.186-3.948-3.049 0-5.065 1.555-5.065 3.757 0 2.105 1.32 3.326 3.985 3.709l2.112.31c1.033.143 1.61.551 1.61 1.316 0 .982-1.009 1.388-2.401 1.388-1.706 0-2.666-.694-2.81-1.746h-2.832c.264 2.417 2.16 4.115 5.617 4.115 3.145 0 5.234-1.436 5.234-3.9 0-2.202-1.513-3.35-3.89-3.71ZM30.681.12c-1.056 0-1.849.765-1.849 1.818s.792 1.818 1.85 1.818c1.055 0 1.848-.766 1.848-1.818S31.737.12 30.681.12m42.277 9.332c0-2.68-1.632-4.474-5.09-4.474-3.264 0-5.089 1.651-5.45 4.188h2.858c.144-.981.912-1.795 2.545-1.795 1.465 0 2.185.646 2.185 1.436 0 1.03-1.321 1.292-2.954 1.46-2.208.239-4.945 1.004-4.945 3.876 0 2.226 1.657 3.66 4.298 3.66 2.064 0 3.36-.86 4.01-2.225.095 1.22 1.008 2.01 2.28 2.01h1.68v-2.56H72.96V9.452zm-2.833 3.111c0 1.651-1.44 2.872-3.193 2.872-1.08 0-1.993-.455-1.993-1.412 0-1.22 1.465-1.555 2.81-1.698 1.296-.12 2.016-.407 2.376-.958zM54.833 4.977c-1.61 0-2.954.67-3.914 1.795V0h-2.88v17.588h2.832v-1.627c.96 1.172 2.33 1.866 3.962 1.866 3.456 0 6.074-2.727 6.074-6.413 0-3.685-2.665-6.437-6.074-6.437M54.4 15.171c-2.065 0-3.578-1.603-3.578-3.757s1.537-3.78 3.601-3.78c2.09 0 3.553 1.604 3.553 3.78 0 2.154-1.512 3.757-3.576 3.757M41.148 4.977c-1.873 0-3.097.766-3.817 1.843V5.216h-2.858v12.371h2.881v-6.723c0-1.891 1.2-3.23 2.977-3.23 1.657 0 2.688 1.171 2.688 2.87v7.084H45.9V10.29c.001-3.112-1.607-5.313-4.752-5.313m58.65 6.03c0-3.54-2.593-6.03-6.074-6.03-3.697 0-6.41 2.777-6.41 6.437 0 3.853 2.905 6.413 6.458 6.413 3.001 0 5.354-1.77 5.954-4.283h-3.002c-.432 1.1-1.488 1.723-2.905 1.723-1.849 0-3.241-1.149-3.553-3.159h9.531zm-9.364-.957c.457-1.723 1.754-2.56 3.242-2.56 1.632 0 2.88.933 3.169 2.56h-6.41Z"/></g><defs><clipPath id="a"><path fill="#fff" d="M0 0h100v17.827H0z"/></clipPath></defs></svg>