<svg xmlns="http://www.w3.org/2000/svg" width="128" height="64" fill="none" viewBox="0 0 100 50"><path fill="#fff" d="M47.5 20.168c0-7.06 0-10.59 1.374-13.286a12.6 12.6 0 0 1 5.508-5.508C57.08 0 60.61 0 67.668 0h9.664c7.06 0 10.59 0 13.286 1.374a12.6 12.6 0 0 1 5.508 5.508C97.5 9.58 97.5 13.11 97.5 20.168v9.664c0 7.06 0 10.59-1.374 13.285a12.6 12.6 0 0 1-5.508 5.509C87.92 50 84.39 50 77.332 50h-9.664c-7.06 0-10.59 0-13.286-1.374a12.6 12.6 0 0 1-5.508-5.508C47.5 40.42 47.5 36.89 47.5 29.831z"/><path fill="#000" fill-rule="evenodd" d="M77.332 2.941h-9.664c-3.578 0-6.085.002-8.04.162-1.92.157-3.046.451-3.91.891a9.66 9.66 0 0 0-4.224 4.224c-.44.864-.734 1.99-.89 3.91-.16 1.955-.163 4.462-.163 8.04v9.664c0 3.578.002 6.085.162 8.04.157 1.92.45 3.046.891 3.91a9.66 9.66 0 0 0 4.224 4.224c.864.44 1.99.734 3.91.89 1.955.16 4.462.163 8.04.163h9.664c3.578 0 6.085-.002 8.04-.162 1.92-.157 3.046-.451 3.91-.892a9.67 9.67 0 0 0 4.224-4.223c.44-.864.734-1.99.89-3.91.16-1.955.163-4.462.163-8.04v-9.664c0-3.578-.002-6.085-.162-8.04-.157-1.92-.451-3.046-.891-3.91a9.67 9.67 0 0 0-4.224-4.224c-.864-.44-1.99-.734-3.91-.89-1.955-.16-4.462-.163-8.04-.163M48.874 6.882C47.5 9.58 47.5 13.11 47.5 20.168v9.664c0 7.06 0 10.59 1.374 13.285a12.6 12.6 0 0 0 5.508 5.509C57.08 50 60.61 50 67.668 50h9.664c7.06 0 10.59 0 13.286-1.374a12.6 12.6 0 0 0 5.508-5.508C97.5 40.42 97.5 36.89 97.5 29.831v-9.664c0-7.06 0-10.59-1.374-13.286a12.6 12.6 0 0 0-5.508-5.508C87.92 0 84.39 0 77.332 0h-9.664c-7.06 0-10.59 0-13.286 1.374a12.6 12.6 0 0 0-5.508 5.508" clip-rule="evenodd"/><path fill="#000" d="M76.117 44.065c1.991 0 3.163-.291 4.158-.64v-4.08c-1.054.408-2.225.642-3.748.642-2.46 0-3.806-1.457-3.806-4.429V17.262h7.144v-4.078h-7.144V6.25h-4.86v6.934h-4.392v4.078h4.392v18.762c0 4.778 2.693 8.041 8.256 8.041"/><path fill="#000" fill-rule="evenodd" d="M50 25c0 13.807-11.193 25-25 25S0 38.807 0 25 11.193 0 25 0s25 11.193 25 25m-8.403 6.597c-1.394 9.243-7.75 13.781-16.672 13.781-11.541 0-18.622-7.955-18.622-20.28v-.448c0-11.877 7.917-20.448 18.734-20.448 8.308 0 15.333 4.425 16.17 13.109H36.41c-1.003-6.107-4.516-9.244-11.318-9.244-8.252 0-13.772 6.443-13.772 16.527v.448c0 10.196 5.13 16.359 13.716 16.359 6.523 0 11.04-3.306 12.043-9.804h4.517Z" clip-rule="evenodd"/></svg>