<svg xmlns="http://www.w3.org/2000/svg" width="128" height="64" fill="none" viewBox="0 0 50 25"><path fill="#fff" d="M23.75 10.084c0-3.53 0-5.295.687-6.643A6.303 6.303 0 0 1 27.191.687C28.54 0 30.304 0 33.834 0h4.832c3.53 0 5.295 0 6.643.687a6.303 6.303 0 0 1 2.754 2.754c.687 1.348.687 3.113.687 6.643v4.832c0 3.53 0 5.295-.687 6.643a6.303 6.303 0 0 1-2.754 2.754C43.96 25 42.196 25 38.666 25h-4.832c-3.53 0-5.295 0-6.643-.687a6.303 6.303 0 0 1-2.754-2.754c-.687-1.348-.687-3.113-.687-6.643v-4.832Z"/><path fill="#000" fill-rule="evenodd" d="M38.666 1.47h-4.832c-1.79 0-3.043.002-4.02.082-.96.078-1.523.225-1.955.445a4.832 4.832 0 0 0-2.112 2.112c-.22.432-.367.995-.445 1.955-.08.977-.081 2.23-.081 4.02v4.832c0 1.79 0 3.043.08 4.02.079.96.226 1.523.446 1.955a4.832 4.832 0 0 0 2.112 2.112c.432.22.995.367 1.955.445.977.08 2.23.081 4.02.081h4.832c1.79 0 3.043 0 4.02-.08.96-.079 1.523-.226 1.955-.446a4.833 4.833 0 0 0 2.112-2.112c.22-.432.367-.995.445-1.955.08-.977.081-2.23.081-4.02v-4.832c0-1.79 0-3.043-.08-4.02-.079-.96-.226-1.523-.446-1.955a4.833 4.833 0 0 0-2.112-2.112c-.432-.22-.995-.367-1.955-.445-.977-.08-2.23-.081-4.02-.081ZM24.437 3.442c-.687 1.348-.687 3.113-.687 6.643v4.832c0 3.53 0 5.295.687 6.643a6.303 6.303 0 0 0 2.754 2.754C28.54 25 30.304 25 33.834 25h4.832c3.53 0 5.295 0 6.643-.687a6.303 6.303 0 0 0 2.754-2.754c.687-1.348.687-3.113.687-6.643v-4.832c0-3.53 0-5.295-.687-6.643A6.303 6.303 0 0 0 45.309.687C43.96 0 42.196 0 38.666 0h-4.832c-3.53 0-5.295 0-6.643.687a6.303 6.303 0 0 0-2.754 2.754Z" clip-rule="evenodd"/><path fill="#000" d="M38.059 22.033c.995 0 1.58-.146 2.079-.32v-2.04c-.527.204-1.113.32-1.874.32-1.23 0-1.903-.728-1.903-2.214V8.631h3.572v-2.04H36.36V3.126h-2.43v3.467h-2.197v2.04h2.196v9.38c0 2.39 1.347 4.02 4.129 4.02Z"/><path fill="#000" fill-rule="evenodd" d="M25 12.5C25 19.404 19.404 25 12.5 25S0 19.404 0 12.5 5.596 0 12.5 0 25 5.596 25 12.5Zm-4.202 3.298c-.697 4.622-3.875 6.891-8.335 6.891-5.771 0-9.312-3.977-9.312-10.14v-.224C3.151 6.387 7.11 2.1 12.518 2.1c4.154 0 7.667 2.213 8.085 6.554h-2.397c-.502-3.053-2.258-4.621-5.66-4.621-4.126 0-6.886 3.22-6.886 8.263v.224c0 5.098 2.565 8.18 6.858 8.18 3.262 0 5.52-1.653 6.022-4.903h2.258Z" clip-rule="evenodd"/></svg>