<svg xmlns="http://www.w3.org/2000/svg" width="304.762" height="64" fill="none" viewBox="0 0 100 21"><g clip-path="url(#a)"><path fill="#FFD500" d="M6.153 14.428A5.702 5.702 0 0 1 4.5 10.382 5.638 5.638 0 0 1 6.181 6.35a2.25 2.25 0 0 0 .1-3.267 2.25 2.25 0 0 0-3.27.085 10.198 10.198 0 0 0-.043 14.427 2.25 2.25 0 1 0 3.185-3.168Z"/><path fill="#5CAAFF" d="M6.183 6.35a5.726 5.726 0 0 1 8.083.03 2.25 2.25 0 1 0 3.183-3.167A10.175 10.175 0 0 0 6.344.95a10.174 10.174 0 0 0-3.316 2.203 2.249 2.249 0 1 0 3.155 3.197Z"/><path fill="#E8505D" d="M14.25 14.457a5.712 5.712 0 0 1-4.05 1.657 5.648 5.648 0 0 1-4.034-1.686 2.25 2.25 0 0 0-3.724 2.437c.128.278.312.526.54.73a10.195 10.195 0 0 0 14.437.058 2.25 2.25 0 1 0-3.17-3.196Z"/><path fill="#3E97FF" d="M6.184 6.35A2.25 2.25 0 0 1 2.73 3.5a2.25 2.25 0 1 1 3.454 2.85Z"/><path fill="#CF3D54" d="M6.136 17.596a2.25 2.25 0 0 1-3.453-2.852 2.25 2.25 0 0 1 4.114 1.27 2.248 2.248 0 0 1-.66 1.582Z"/><path fill="#000" d="M27.46 12.585c.649-.49.735-.216 1.282.331.274.274 1.023.75.533 1.152-1.022.834-1.945 1.21-3.25 1.21-2.954-.015-5.042-2.218-4.875-5.141.071-1.31.59-2.548 1.614-3.398.936-.792 2.102-1.137 3.327-1.108.6-.002 1.195.116 1.75.345.376.136.73.325 1.051.562.65.5.347.792-.158 1.295a7.73 7.73 0 0 0-.332.346c-.258.259-.432.446-.777.202-.663-.461-1.5-.706-2.291-.5-2.55.647-2.435 5.183.692 5.198a2.422 2.422 0 0 0 1.434-.494Zm70.884 2.748a.777.777 0 0 1-.779-.777l.044-10.05a.768.768 0 0 1 .226-.55.779.779 0 0 1 .551-.227h.837a.777.777 0 0 1 .777.78l-.044 10.049a.767.767 0 0 1-.227.55.775.775 0 0 1-.55.227l-.835-.002Zm-4.375-1.165c-.908.85-1.772 1.295-3.055 1.295-2.593-.015-3.832-2.16-3.832-4.564l.015-4.089a.776.776 0 0 1 .48-.718.772.772 0 0 1 .298-.057h.836a.772.772 0 0 1 .778.777l-.014 4.088c0 1.34.72 2.39 2.132 2.39 1.413 0 2.277-1.18 2.29-2.499v-1.46a.744.744 0 0 1-.013-.172l.013-2.319a.769.769 0 0 1 .48-.718.773.773 0 0 1 .298-.059h.825a.773.773 0 0 1 .777.777l-.027 7.718a.77.77 0 0 1-.777.763h-.707a.788.788 0 0 1-.763-.763l-.034-.39Zm-9.946-8.105h1.613a.775.775 0 0 1 .764.792v.532a.781.781 0 0 1-.775.777h-1.618l-.028 6.35a.777.777 0 0 1-.778.778h-.835a.777.777 0 0 1-.778-.778l.028-8.782c0-1.915 1.095-3.427 3.055-3.6.058 0 .1-.013.158-.013.115-.008.23-.008.346 0h.75a.774.774 0 0 1 .764.79v.49a.782.782 0 0 1-.778.778h-.605c-.922 0-1.311.705-1.326 1.57l.043.316Zm-5.791-.028H80a.772.772 0 0 1 .764.777v.532a.771.771 0 0 1-.778.763h-1.77l-.013 3.885c0 .75.36 1.18 1.108 1.18h.36a.773.773 0 0 1 .764.778v.54a.773.773 0 0 1-.778.763h-.677a3.124 3.124 0 0 1-.375-.015C76.69 15.114 75.84 13.872 75.84 12c.015-2.52.015-5.024.029-7.543a.77.77 0 0 1 .779-.764h.82a.772.772 0 0 1 .764.777v1.566Zm-25.626-.102h1.769a.77.77 0 0 1 .764.777v.535a.772.772 0 0 1-.778.763h-1.775v3.886c0 .75.36 1.18 1.109 1.18h.361a.771.771 0 0 1 .763.778v.532a.772.772 0 0 1-.778.763h-.532c-2.09-.014-3.3-.907-3.3-3.248.015-2.52.015-5.025.028-7.544a.772.772 0 0 1 .78-.764h.82a.771.771 0 0 1 .763.779l.006 1.563ZM42.205 7.028c.85-.792 1.773-1.296 2.968-1.296 2.593.014 3.933 2.124 3.918 4.564l-.014 4.088a.773.773 0 0 1-.48.72.777.777 0 0 1-.298.058h-.835a.777.777 0 0 1-.779-.778l.015-4.06c0-1.339-.72-2.39-2.133-2.39-1.412 0-2.276 1.167-2.29 2.491l-.014 3.959a.77.77 0 0 1-.778.763h-.821a.771.771 0 0 1-.764-.777c.014-2.462.014-4.938.029-7.4v-.33a.77.77 0 0 1 .771-.769h.706a.788.788 0 0 1 .764.763l.035.394Zm25.674.1c.85-.791 1.771-1.296 2.968-1.296 2.593.015 3.932 2.131 3.918 4.565l-.015 4.093a.768.768 0 0 1-.227.551.77.77 0 0 1-.55.227h-.835a.776.776 0 0 1-.78-.778l.016-4.06c0-1.339-.721-2.39-2.133-2.39-1.411 0-2.276 1.166-2.29 2.492l-.021 3.958a.77.77 0 0 1-.779.763h-.821a.771.771 0 0 1-.762-.777l.029-7.732a.768.768 0 0 1 .778-.768h.707a.789.789 0 0 1 .762.77l.035.382ZM34.36 5.66c-2.81-.015-4.797 2.015-4.812 4.808-.014 2.822 1.945 4.824 4.784 4.838 2.838.014 4.826-1.972 4.84-4.813.014-2.774-2.017-4.82-4.812-4.833Zm23.325 5.774c.202 1.295 1.441 1.827 2.652 1.842a4.34 4.34 0 0 0 1.757-.389c.089-.036.175-.077.259-.124.288-.16.547-.259.807 0 .144.143.274.288.418.417.136.13.26.27.375.418.388.489.115.605-.331.907-.952.633-2.19.95-3.33.95-3.053-.014-5.07-1.874-5.07-4.952.015-2.91 2.03-4.838 4.941-4.824 2.968.015 4.654 1.757 4.697 4.723.014.805.043 1.065-.792 1.065l-6.383-.034Zm-23.325-3.6c1.455 0 2.42 1.267 2.42 2.664 0 1.454-.907 2.623-2.435 2.623-1.527 0-2.42-1.18-2.42-2.634s.923-2.654 2.435-2.654Zm23.39 1.598 4.783.014c-.174-1.195-1.168-1.67-2.305-1.67-1.138 0-2.125.533-2.479 1.656Z"/></g><defs><clipPath id="a"><path fill="#fff" d="M0 0h100v20.619H0z"/></clipPath></defs></svg>