<svg xmlns="http://www.w3.org/2000/svg" width="66.667" height="64" fill="none" viewBox="0 0 50 48"><g clip-path="url(#a)"><path fill="url(#b)" d="M2.522 36.352c-.507.828-1.078 1.789-1.562 2.554a1.56 1.56 0 0 0 .523 2.125l10.157 6.25a1.564 1.564 0 0 0 2.164-.531c.406-.68.93-1.563 1.5-2.508 4.023-6.64 8.07-5.828 15.367-2.343l10.07 4.788a1.56 1.56 0 0 0 2.102-.78l4.836-10.938a1.563 1.563 0 0 0-.782-2.047c-2.124-1-6.351-2.992-10.156-4.828-13.687-6.649-25.32-6.219-34.218 8.258Z"/><path fill="url(#c)" d="M48.06 11.531c.508-.828 1.079-1.789 1.563-2.554a1.563 1.563 0 0 0-.523-2.125L38.943.602a1.563 1.563 0 0 0-2.226.515c-.406.68-.93 1.563-1.5 2.508-4.023 6.64-8.07 5.828-15.367 2.344L9.81 1.203a1.563 1.563 0 0 0-2.1.781L2.872 12.922a1.56 1.56 0 0 0 .781 2.047c2.125 1 6.352 2.992 10.157 4.828 13.718 6.64 25.351 6.195 34.25-8.266"/></g><defs><linearGradient id="b" x1="47.405" x2="16.679" y1="50.508" y2="32.852" gradientUnits="userSpaceOnUse"><stop offset=".18" stop-color="#0052CC"/><stop offset="1" stop-color="#2684FF"/></linearGradient><linearGradient id="c" x1="-12956.6" x2="-11892.7" y1="36857" y2="38077.8" gradientUnits="userSpaceOnUse"><stop offset=".18" stop-color="#0052CC"/><stop offset="1" stop-color="#2684FF"/></linearGradient><clipPath id="a"><path fill="#fff" d="M0 0h50v47.656H0z"/></clipPath></defs></svg>