<svg xmlns="http://www.w3.org/2000/svg" width="492.308" height="64" fill="none" viewBox="0 0 100 13"><g clip-path="url(#a)"><path fill="#253858" d="M26.316 11.742c-.706.465-1.826.671-2.996.671-3.718 0-5.82-2.239-5.82-5.802 0-3.445 2.102-5.856 5.787-5.856 1.102 0 2.203.208 3.013.783v1.5c-.81-.517-1.704-.783-3.013-.783-2.652 0-4.237 1.76-4.237 4.356 0 2.595 1.636 4.323 4.323 4.323a6.352 6.352 0 0 0 2.935-.69l.008 1.498ZM27.398 7.922c0-2.583 1.515-4.46 4.098-4.46 2.584 0 4.065 1.877 4.065 4.46s-1.5 4.5-4.065 4.5c-2.565 0-4.098-1.917-4.098-4.5Zm1.447 0c0 1.636.81 3.117 2.651 3.117 1.842 0 2.619-1.481 2.619-3.117s-.783-3.082-2.617-3.082c-1.833 0-2.65 1.446-2.65 3.082h-.003ZM44.608 12.245h-1.481v-5.2c0-1.55-.62-2.239-2.032-2.239-1.37 0-2.325.912-2.325 2.652v4.787h-1.48v-8.61h1.48v1.412a3.017 3.017 0 0 1 2.72-1.585c1.981 0 3.118 1.37 3.118 3.738v5.045ZM48.732 3.634h2.221v1.37h-2.22v7.24h-1.447v-7.24H45.89v-1.37h1.395v-.947c0-1.6.896-2.687 2.74-2.687a3.56 3.56 0 0 1 .998.137v1.37a4.894 4.894 0 0 0-.93-.086c-.912 0-1.37.534-1.37 1.309l.008.904ZM54.854 12.296c-1.413 0-2.307-.672-2.307-2.257V.035h1.481v9.832c0 .783.517 1.05 1.155 1.05.144.003.287-.003.43-.017v1.327c-.249.053-.504.076-.759.069ZM56.867 3.634h1.482v5.2c0 1.55.62 2.239 2.03 2.239 1.37 0 2.326-.912 2.326-2.652V3.634h1.485v8.61H62.71v-1.412a3.017 3.017 0 0 1-2.72 1.585c-1.98 0-3.118-1.37-3.118-3.736l-.004-5.047ZM70.538 12.417c-3.22 0-4.632-1.86-4.632-4.501 0-2.6 1.446-4.46 4.065-4.46 2.651 0 3.718 1.844 3.718 4.46v.671h-6.284c.208 1.464 1.155 2.411 3.186 2.411.894 0 1.78-.158 2.619-.466v1.37c-.709.376-1.793.515-2.672.515Zm-3.15-5.088h4.804c-.086-1.6-.81-2.515-2.29-2.515-1.567-.01-2.36 1.006-2.514 2.505v.01ZM82.764 12.245h-1.481v-5.2c0-1.55-.62-2.239-2.031-2.239-1.37 0-2.325.912-2.325 2.652v4.787h-1.482v-8.61h1.482v1.412a3.017 3.017 0 0 1 2.72-1.585c1.98 0 3.117 1.37 3.117 3.738v5.045ZM90.915 12.02c-.516.276-1.309.39-2.102.39-3.064 0-4.5-1.858-4.5-4.5 0-2.6 1.428-4.46 4.5-4.46a4.552 4.552 0 0 1 2.05.413v1.37a4.341 4.341 0 0 0-1.946-.413c-2.239 0-3.15 1.413-3.15 3.082 0 1.67.93 3.102 3.184 3.102a5.44 5.44 0 0 0 1.956-.31l.008 1.326ZM96.718 12.417c-3.221 0-4.632-1.86-4.632-4.501 0-2.6 1.446-4.46 4.064-4.46 2.652 0 3.719 1.844 3.719 4.46v.671h-6.286c.207 1.464 1.155 2.411 3.186 2.411a7.63 7.63 0 0 0 2.618-.466v1.37c-.706.376-1.79.515-2.669.515Zm-3.15-5.088h4.804c-.087-1.6-.81-2.515-2.29-2.515-1.567-.01-2.36 1.006-2.515 2.505v.01Z"/><path fill="url(#b)" d="M.438 9.693c-.127.207-.27.448-.391.64a.391.391 0 0 0 .13.532l2.545 1.566a.392.392 0 0 0 .542-.134l.376-.628c1.008-1.663 2.021-1.46 3.849-.587l2.522 1.2a.391.391 0 0 0 .527-.196l1.211-2.74a.392.392 0 0 0-.195-.512c-.533-.25-1.591-.75-2.544-1.21C5.58 5.96 2.667 6.067.438 9.693Z"/><path fill="url(#c)" d="M11.844 3.476c.127-.208.27-.449.391-.64a.391.391 0 0 0-.13-.533L9.56.738a.391.391 0 0 0-.558.129c-.101.17-.232.391-.375.628-1.008 1.664-2.022 1.46-3.85.587L2.263.888a.391.391 0 0 0-.527.196L.525 3.824a.391.391 0 0 0 .196.513c.532.25 1.59.75 2.544 1.209 3.436 1.663 6.35 1.552 8.579-2.07Z"/></g><defs><linearGradient id="b" x1="11.681" x2="3.984" y1="13.239" y2="8.816" gradientUnits="userSpaceOnUse"><stop offset=".18" stop-color="#0052CC"/><stop offset="1" stop-color="#2684FF"/></linearGradient><linearGradient id="c" x1=".601" x2="8.3" y1="-.072" y2="4.352" gradientUnits="userSpaceOnUse"><stop offset=".18" stop-color="#0052CC"/><stop offset="1" stop-color="#2684FF"/></linearGradient><clipPath id="a"><path fill="#fff" d="M0 0h100v12.524H0z"/></clipPath></defs></svg>