<svg xmlns="http://www.w3.org/2000/svg" width="192" height="64" fill="none" viewBox="0 0 72 24"><path fill="#254078" fill-rule="evenodd" d="M12.43 22.33c0 .37.3.67.67.67h9.247c.37 0 .672-.3.65-.67a10.589 10.589 0 0 0-9.897-9.896.64.64 0 0 0-.67.65v9.246ZM10.568 13.103c0-.37-.3-.67-.67-.67H.65a.64.64 0 0 0-.649.67 10.589 10.589 0 0 0 9.896 9.896.64.64 0 0 0 .67-.65v-9.246Z" clip-rule="evenodd"/><path fill="#FF62FD" fill-rule="evenodd" d="M10.568 9.898c0 .37-.3.67-.67.67H.65a.64.64 0 0 1-.649-.67A10.589 10.589 0 0 1 9.897 0a.64.64 0 0 1 .67.65v9.247Z" clip-rule="evenodd"/><path fill="#0078FF" fill-rule="evenodd" d="M12.43.67c0-.37.3-.67.67-.67h9.247c.37 0 .672.3.65.67a10.589 10.589 0 0 1-9.897 9.896.64.64 0 0 1-.67-.649V.67Z" clip-rule="evenodd"/><path fill="#121212" d="M39.879 12.964c-.306 1.301-.976 2.36-2.008 3.175-1.033.804-2.219 1.205-3.558 1.205-1.58 0-2.926-.548-4.035-1.645-1.097-1.096-1.645-2.441-1.645-4.035 0-1.569.542-2.9 1.626-3.997 1.083-1.097 2.41-1.645 3.978-1.645 1.377 0 2.588.408 3.634 1.224 1.045.816 1.708 1.893 1.989 3.232h-3.213c-.46-.995-1.25-1.492-2.372-1.492-.74 0-1.332.262-1.779.784-.446.523-.67 1.16-.67 1.913 0 .765.23 1.409.69 1.932.471.51 1.083.765 1.835.765 1.033 0 1.798-.472 2.296-1.416h3.232Zm7.026-3.748c-.816.025-1.441.172-1.875.44-.42.255-.63.758-.63 1.51V17h-3.176V6.385h2.984v1.129h.038c.51-.995 1.396-1.492 2.659-1.492v3.194ZM58.81 17h-3.175v-1.148h-.038c-.268.51-.695.893-1.282 1.148a4.623 4.623 0 0 1-1.817.363c-1.593 0-2.881-.541-3.863-1.625-.982-1.084-1.473-2.436-1.473-4.055 0-1.581.498-2.92 1.492-4.016.995-1.097 2.276-1.645 3.844-1.645.638 0 1.237.127 1.798.382.574.242 1.008.612 1.3 1.11h.039V6.385h3.175V17Zm-3.175-5.317c0-.778-.255-1.422-.765-1.932-.497-.51-1.135-.765-1.913-.765-.765 0-1.396.268-1.893.804-.485.522-.727 1.166-.727 1.931 0 .74.255 1.37.765 1.894.51.522 1.135.784 1.875.784.765 0 1.396-.261 1.893-.784.51-.523.765-1.167.765-1.932Zm15.838-2.888h-1.53V17h-3.175V8.795h-2.735V17h-3.175V8.795h-1.185v-2.41h1.185v-.287c0-2.167 1.352-3.251 4.055-3.251h.478v2.39h-.363c-.14 0-.274.02-.402.058-.127.025-.261.121-.401.287-.128.166-.192.382-.192.65v.153h2.735V2.847h3.175v3.538h1.53v2.41Z"/></svg>