<svg xmlns="http://www.w3.org/2000/svg" width="192" height="64" fill="none" viewBox="0 0 72 24"><path fill="#254078" fill-rule="evenodd" d="M12.43 22.33c0 .37.3.67.67.67h9.247c.37 0 .672-.3.65-.67a10.59 10.59 0 0 0-9.897-9.896.64.64 0 0 0-.67.65zm-1.862-9.227c0-.37-.3-.67-.67-.67H.65a.64.64 0 0 0-.649.67 10.59 10.59 0 0 0 9.896 9.896.64.64 0 0 0 .67-.65z" clip-rule="evenodd"/><path fill="#ff62fd" fill-rule="evenodd" d="M10.568 9.898c0 .37-.3.67-.67.67H.65a.64.64 0 0 1-.649-.67A10.59 10.59 0 0 1 9.897 0a.64.64 0 0 1 .67.65z" clip-rule="evenodd"/><path fill="#0078ff" fill-rule="evenodd" d="M12.43.67c0-.37.3-.67.67-.67h9.247c.37 0 .672.3.65.67a10.59 10.59 0 0 1-9.897 9.896.64.64 0 0 1-.67-.649z" clip-rule="evenodd"/><path fill="#121212" d="M39.879 12.964q-.46 1.952-2.008 3.175-1.55 1.206-3.558 1.205-2.37 0-4.035-1.645-1.645-1.644-1.645-4.035 0-2.352 1.626-3.997t3.978-1.645q2.065 0 3.634 1.224 1.567 1.224 1.989 3.232h-3.213q-.69-1.492-2.372-1.492-1.11 0-1.779.784-.67.784-.67 1.913 0 1.148.69 1.932.707.765 1.835.765 1.55 0 2.296-1.416zm7.026-3.748q-1.224.038-1.875.44-.63.382-.63 1.51V17h-3.176V6.385h2.984v1.129h.038q.765-1.492 2.659-1.492zM58.81 17h-3.175v-1.148h-.038q-.402.765-1.282 1.148a4.6 4.6 0 0 1-1.817.363q-2.39 0-3.863-1.625t-1.473-4.055q0-2.372 1.492-4.016t3.844-1.645q.957 0 1.798.382.861.363 1.3 1.11h.039V6.385h3.175zm-3.175-5.317q0-1.167-.765-1.932-.746-.765-1.913-.765-1.148 0-1.893.804-.727.783-.727 1.931 0 1.109.765 1.894a2.52 2.52 0 0 0 1.875.784q1.148 0 1.893-.784.765-.784.765-1.932m15.838-2.888h-1.53V17h-3.175V8.795h-2.735V17h-3.175V8.795h-1.185v-2.41h1.185v-.287q0-3.25 4.055-3.251h.478v2.39h-.363q-.21 0-.402.058-.19.038-.401.287-.192.248-.192.65v.153h2.735V2.847h3.175v3.538h1.53z"/></svg>