<svg xmlns="http://www.w3.org/2000/svg" width="64" height="64" fill="none" viewBox="0 0 50 50"><g fill-rule="evenodd" clip-path="url(#a)" clip-rule="evenodd"><path fill="#254078" d="M27.023 48.544c0 .804.653 1.456 1.457 1.456h20.102c.805 0 1.462-.654 1.412-1.457-.722-11.55-9.963-20.792-21.514-21.513-.803-.05-1.457.607-1.457 1.411v20.103ZM22.973 28.484c0-.805-.652-1.457-1.457-1.457H1.414c-.805 0-1.461.654-1.411 1.457.721 11.55 9.962 20.792 21.513 21.514.803.05 1.457-.607 1.457-1.412V28.484Z"/><path fill="#FF62FD" d="M22.973 21.516c0 .805-.652 1.457-1.457 1.457H1.414c-.805 0-1.461-.654-1.411-1.457C.724 9.966 9.965.724 21.516.003c.803-.05 1.457.606 1.457 1.411v20.102Z"/><path fill="#0078FF" d="M27.023 1.457C27.023.652 27.676 0 28.48 0h20.102c.805 0 1.462.654 1.412 1.457-.722 11.55-9.963 20.792-21.514 21.513-.803.05-1.457-.607-1.457-1.411V1.457Z"/></g><defs><clipPath id="a"><path fill="#fff" d="M0 0h50v50H0z"/></clipPath></defs></svg>