<svg xmlns="http://www.w3.org/2000/svg" width="228.571" height="64" fill="none" viewBox="0 0 100 28"><g fill="#1972F5" fill-rule="evenodd" clip-path="url(#a)" clip-rule="evenodd"><path d="M52.014 20.568a5.937 5.937 0 0 0 5.034-2.334l-1.883-1.766a3.532 3.532 0 0 1-3.024 1.569c-2.36 0-3.965-1.812-3.965-4.379 0-2.555 1.605-4.344 3.965-4.344a3.491 3.491 0 0 1 3.024 1.51l1.883-1.707a5.858 5.858 0 0 0-5.035-2.323c-3.976 0-6.779 2.904-6.779 6.864 0 3.972 2.791 6.91 6.78 6.91Zm10.046-.325V11.3c.581-.952 2.174-1.765 3.407-1.765.349 0 .628.023.872.081V6.783a5.702 5.702 0 0 0-4.279 2.23V7.107H59.2v13.135h2.86Zm7.651-14.738A1.769 1.769 0 0 0 71.48 3.74a1.764 1.764 0 0 0-1.768-1.766 1.768 1.768 0 0 0-1.767 1.766 1.764 1.764 0 0 0 1.767 1.765Zm1.419 14.75V7.096h-2.872v13.136l2.872.023Zm7.849.313c3.534 0 5.465-1.765 5.465-4.1 0-5.226-7.954-3.484-7.954-5.806 0-.918.93-1.626 2.43-1.626 1.663 0 3.105.708 3.896 1.58l1.197-2.01a7.517 7.517 0 0 0-5.093-1.823c-3.325 0-5.174 1.823-5.174 3.971 0 5.053 7.954 3.206 7.954 5.796 0 1.034-.907 1.742-2.617 1.742a6.748 6.748 0 0 1-4.442-1.824l-1.302 2.033a7.971 7.971 0 0 0 5.64 2.067Zm15.023 0c-1.663 0-3.128-.755-4.221-2.148v6.829h-2.849V7.108h2.849v1.8A5.243 5.243 0 0 1 94 6.783c3.408 0 5.826 2.555 5.826 6.875 0 4.332-2.418 6.91-5.814 6.91h-.011Zm-.837-2.532c2.255 0 3.72-1.811 3.72-4.378 0-2.555-1.465-4.344-3.72-4.344-1.338 0-2.721.755-3.372 1.742v5.192a4.29 4.29 0 0 0 3.372 1.788ZM13.455 22.055l5.383 5.714 4.21-6.782 11.163-1.22L32.408.186.164 3.74l1.814 19.58 11.477-1.265Z"/></g><defs><clipPath id="a"><path fill="#fff" d="M0 0h100v27.874H0z"/></clipPath></defs></svg>