<svg xmlns="http://www.w3.org/2000/svg" width="64" height="64" fill="none" viewBox="0 0 50 50"><g clip-path="url(#a)"><path fill="url(#b)" d="M25 50c13.807 0 25-11.193 25-25S38.807 0 25 0 0 11.193 0 25s11.193 25 25 25"/><g filter="url(#c)"><path fill="url(#d)" d="M16.193 16.169v7.608c-.512 0-2.632-.697-3.382-1.175-2.029-1.292-3.412-3.645-3.555-6.046C9.05 13.1 11.12 9.828 16.193 8.56z"/><path fill="url(#e)" d="M24.436 16.169v7.608H17.46v-4.294c0-5.54 1.057-7.225 2.959-8.915 1.902-1.691 4.016-2.008 4.016-2.008z"/><path fill="url(#f)" fill-rule="evenodd" d="M35.55 8.912c3.921 1.324 6.177 5.44 5.07 9.252-1.992 6.85-11.236 7.566-14.19 1.099-1.913-4.19.152-8.7 4.76-10.397 1.06-.39 3.132-.369 4.36.046m-2.82 7.472a311 311 0 0 1-.002-5.683.136.136 0 0 1 .136-.133h.843c.075 0 .136.06.136.136v10.93c0 .075-.06.135-.136.135h-.786a.136.136 0 0 1-.136-.134z" clip-rule="evenodd"/></g><g filter="url(#g)"><path fill="url(#h)" d="M19.07 25.352c2.127.719 3.716 2.145 4.67 4.192.585 1.253.593 1.325.656 5.97l.064 4.703h-6.981l-.056-6.604-.055-6.47a.136.136 0 0 0-.135-.135h-.786a.136.136 0 0 0-.136.134l-.055 6.47-.055 6.605H9.242V25h4.394c3.542 0 4.597.068 5.435.352Z"/></g><g filter="url(#i)"><path fill="#fff" d="M34.25 37.782q-.771 0-1.387-.287a2.4 2.4 0 0 1-.961-.796 2.06 2.06 0 0 1-.353-1.19q0-.675.345-1.183a2.37 2.37 0 0 1 .96-.796q.615-.288 1.396-.288.772 0 1.38.288.607.287.96.796t.353 1.182-.353 1.19a2.4 2.4 0 0 1-.96.797 3.2 3.2 0 0 1-1.38.287m0-5.566q-.657 0-1.174-.255a2.1 2.1 0 0 1-.804-.714 1.9 1.9 0 0 1-.296-1.05q0-.6.296-1.043.296-.444.804-.69a2.6 2.6 0 0 1 1.174-.254q.657 0 1.166.254.51.246.796.69.296.443.296 1.042a1.9 1.9 0 0 1-.296 1.051q-.287.452-.796.715a2.6 2.6 0 0 1-1.166.254m-.04 6.609q1.124 0 2.002-.41a3.44 3.44 0 0 0 1.388-1.158q.51-.747.509-1.716 0-.656-.222-1.15a2.7 2.7 0 0 0-.566-.853 3 3 0 0 0-.747-.558 3 3 0 0 0-.748-.296v-.016q.362-.115.797-.42a2.7 2.7 0 0 0 .747-.828q.312-.525.312-1.29 0-.87-.452-1.543a3 3 0 0 0-1.215-1.05q-.772-.386-1.765-.386-.985 0-1.765.385-.78.378-1.232 1.051a2.74 2.74 0 0 0-.443 1.544q0 .747.304 1.272.304.517.73.83.436.311.813.435v.016a3.2 3.2 0 0 0-.747.296 3 3 0 0 0-.747.558 2.8 2.8 0 0 0-.566.845 2.9 2.9 0 0 0-.222 1.166q0 .977.493 1.716.492.73 1.362 1.15.87.41 1.98.41"/></g></g><defs><linearGradient id="b" x1="25" x2="25" y1="0" y2="50" gradientUnits="userSpaceOnUse"><stop stop-color="#fe5821"/><stop offset="1" stop-color="#ff3e01"/></linearGradient><linearGradient id="d" x1="25.071" x2="25.071" y1="8.56" y2="23.777" gradientUnits="userSpaceOnUse"><stop stop-color="#d93300"/><stop offset="1" stop-color="#d93108"/></linearGradient><linearGradient id="e" x1="25.071" x2="25.071" y1="8.56" y2="23.777" gradientUnits="userSpaceOnUse"><stop stop-color="#d93300"/><stop offset="1" stop-color="#d93108"/></linearGradient><linearGradient id="f" x1="25.072" x2="25.072" y1="8.56" y2="23.777" gradientUnits="userSpaceOnUse"><stop stop-color="#d93300"/><stop offset="1" stop-color="#d93108"/></linearGradient><linearGradient id="h" x1="16.851" x2="16.851" y1="25" y2="40.217" gradientUnits="userSpaceOnUse"><stop stop-color="#d93300"/><stop offset="1" stop-color="#d93108"/></linearGradient><filter id="c" width="31.656" height="17.217" x="9.242" y="8.56" color-interpolation-filters="sRGB" filterUnits="userSpaceOnUse"><feFlood flood-opacity="0" result="BackgroundImageFix"/><feBlend in="SourceGraphic" in2="BackgroundImageFix" result="shape"/><feColorMatrix in="SourceAlpha" result="hardAlpha" values="0 0 0 0 0 0 0 0 0 0 0 0 0 0 0 0 0 0 127 0"/><feOffset dy="3"/><feGaussianBlur stdDeviation="1"/><feComposite in2="hardAlpha" k2="-1" k3="1" operator="arithmetic"/><feColorMatrix values="0 0 0 0 0.545833 0 0 0 0 0.0932465 0 0 0 0 0.0932465 0 0 0 0.2 0"/><feBlend in2="shape" result="effect1_innerShadow_1_3125"/></filter><filter id="g" width="15.219" height="17.217" x="9.242" y="25" color-interpolation-filters="sRGB" filterUnits="userSpaceOnUse"><feFlood flood-opacity="0" result="BackgroundImageFix"/><feBlend in="SourceGraphic" in2="BackgroundImageFix" result="shape"/><feColorMatrix in="SourceAlpha" result="hardAlpha" values="0 0 0 0 0 0 0 0 0 0 0 0 0 0 0 0 0 0 127 0"/><feOffset dy="3"/><feGaussianBlur stdDeviation="1"/><feComposite in2="hardAlpha" k2="-1" k3="1" operator="arithmetic"/><feColorMatrix values="0 0 0 0 0.545833 0 0 0 0 0.0932465 0 0 0 0 0.0932465 0 0 0 0.2 0"/><feBlend in2="shape" result="effect1_innerShadow_1_3125"/></filter><filter id="i" width="7.734" height="13.674" x="30.375" y="27.151" color-interpolation-filters="sRGB" filterUnits="userSpaceOnUse"><feFlood flood-opacity="0" result="BackgroundImageFix"/><feBlend in="SourceGraphic" in2="BackgroundImageFix" result="shape"/><feColorMatrix in="SourceAlpha" result="hardAlpha" values="0 0 0 0 0 0 0 0 0 0 0 0 0 0 0 0 0 0 127 0"/><feOffset dy="3"/><feGaussianBlur stdDeviation="1"/><feComposite in2="hardAlpha" k2="-1" k3="1" operator="arithmetic"/><feColorMatrix values="0 0 0 0 0.175 0 0 0 0 0.0386458 0 0 0 0 0.0386458 0 0 0 0.25 0"/><feBlend in2="shape" result="effect1_innerShadow_1_3125"/></filter><clipPath id="a"><path fill="#fff" d="M0 0h50v50H0z"/></clipPath></defs></svg>