<svg xmlns="http://www.w3.org/2000/svg" width="64" height="64" fill="none" viewBox="0 0 50 50"><g clip-path="url(#a)"><path fill="url(#b)" d="M25 50c13.807 0 25-11.193 25-25S38.807 0 25 0 0 11.193 0 25s11.193 25 25 25Z"/><g filter="url(#c)"><path fill="url(#d)" d="M16.193 16.169v7.608c-.512 0-2.632-.697-3.382-1.175-2.029-1.292-3.412-3.645-3.555-6.046C9.05 13.1 11.12 9.828 16.193 8.56v7.609Z"/><path fill="url(#e)" d="M24.436 16.169v7.608H17.46v-4.294c0-5.54 1.057-7.225 2.959-8.915 1.902-1.691 4.016-2.008 4.016-2.008v7.609Z"/><path fill="url(#f)" fill-rule="evenodd" d="M35.55 8.912c3.921 1.324 6.177 5.44 5.07 9.252-1.992 6.85-11.236 7.566-14.19 1.099-1.913-4.19.152-8.7 4.76-10.397 1.06-.39 3.132-.369 4.36.046Zm-2.82 7.472a310.785 310.785 0 0 1-.002-5.683c.001-.074.062-.133.136-.133h.843c.075 0 .136.06.136.136v10.93c0 .075-.06.135-.136.135h-.786a.136.136 0 0 1-.136-.134l-.055-5.252Z" clip-rule="evenodd"/></g><g filter="url(#g)"><path fill="url(#h)" d="M19.07 25.352c2.127.719 3.716 2.145 4.67 4.192.585 1.253.593 1.325.656 5.97l.064 4.703h-6.981l-.056-6.604-.055-6.47a.136.136 0 0 0-.135-.135h-.786a.136.136 0 0 0-.136.134l-.055 6.47-.055 6.605H9.242V25h4.394c3.542 0 4.597.068 5.435.352Z"/></g><g filter="url(#i)"><path fill="#fff" d="M34.25 37.782c-.514 0-.977-.095-1.387-.287a2.378 2.378 0 0 1-.961-.796 2.061 2.061 0 0 1-.353-1.19c0-.45.115-.844.345-1.183.235-.34.556-.605.96-.796.41-.192.876-.288 1.396-.288.515 0 .974.096 1.38.288.404.191.725.457.96.796.235.34.353.733.353 1.182 0 .449-.118.846-.353 1.19-.235.34-.556.605-.96.797a3.187 3.187 0 0 1-1.38.287Zm0-5.566c-.438 0-.83-.085-1.174-.255a2.08 2.08 0 0 1-.804-.714 1.9 1.9 0 0 1-.296-1.05c0-.4.099-.748.296-1.043.197-.296.465-.526.804-.69.345-.17.736-.254 1.174-.254.438 0 .827.084 1.166.254.34.164.605.394.796.69.197.295.296.643.296 1.042a1.9 1.9 0 0 1-.296 1.051c-.191.301-.457.54-.796.715-.34.17-.728.254-1.166.254Zm-.04 6.609c.749 0 1.417-.137 2.002-.41a3.439 3.439 0 0 0 1.388-1.158c.34-.498.509-1.07.509-1.716 0-.438-.074-.82-.222-1.15a2.675 2.675 0 0 0-.566-.853 3.053 3.053 0 0 0-.747-.558 3.017 3.017 0 0 0-.748-.296v-.016c.241-.077.507-.217.797-.42.29-.207.539-.483.747-.828.208-.35.312-.78.312-1.29 0-.58-.15-1.094-.452-1.543-.295-.449-.7-.799-1.215-1.05-.514-.258-1.103-.386-1.765-.386-.657 0-1.245.128-1.765.385-.52.252-.93.602-1.232 1.051a2.743 2.743 0 0 0-.443 1.544c0 .498.101.922.304 1.272.202.345.446.621.73.83.29.208.562.352.813.435v.016c-.23.055-.478.153-.747.296a3.052 3.052 0 0 0-.747.558c-.23.23-.418.512-.566.845a2.858 2.858 0 0 0-.222 1.166c0 .651.164 1.224.493 1.716.328.487.782.87 1.362 1.15.58.273 1.24.41 1.98.41Z"/></g></g><defs><linearGradient id="b" x1="25" x2="25" y1="0" y2="50" gradientUnits="userSpaceOnUse"><stop stop-color="#FE5821"/><stop offset="1" stop-color="#FF3E01"/></linearGradient><linearGradient id="d" x1="25.071" x2="25.071" y1="8.56" y2="23.777" gradientUnits="userSpaceOnUse"><stop stop-color="#D93300"/><stop offset="1" stop-color="#D93108"/></linearGradient><linearGradient id="e" x1="25.071" x2="25.071" y1="8.56" y2="23.777" gradientUnits="userSpaceOnUse"><stop stop-color="#D93300"/><stop offset="1" stop-color="#D93108"/></linearGradient><linearGradient id="f" x1="25.072" x2="25.072" y1="8.56" y2="23.777" gradientUnits="userSpaceOnUse"><stop stop-color="#D93300"/><stop offset="1" stop-color="#D93108"/></linearGradient><linearGradient id="h" x1="16.851" x2="16.851" y1="25" y2="40.217" gradientUnits="userSpaceOnUse"><stop stop-color="#D93300"/><stop offset="1" stop-color="#D93108"/></linearGradient><filter id="c" width="31.656" height="17.217" x="9.242" y="8.56" color-interpolation-filters="sRGB" filterUnits="userSpaceOnUse"><feFlood flood-opacity="0" result="BackgroundImageFix"/><feBlend in="SourceGraphic" in2="BackgroundImageFix" result="shape"/><feColorMatrix in="SourceAlpha" result="hardAlpha" values="0 0 0 0 0 0 0 0 0 0 0 0 0 0 0 0 0 0 127 0"/><feOffset dy="3"/><feGaussianBlur stdDeviation="1"/><feComposite in2="hardAlpha" k2="-1" k3="1" operator="arithmetic"/><feColorMatrix values="0 0 0 0 0.545833 0 0 0 0 0.0932465 0 0 0 0 0.0932465 0 0 0 0.2 0"/><feBlend in2="shape" result="effect1_innerShadow_1_3125"/></filter><filter id="g" width="15.219" height="17.217" x="9.242" y="25" color-interpolation-filters="sRGB" filterUnits="userSpaceOnUse"><feFlood flood-opacity="0" result="BackgroundImageFix"/><feBlend in="SourceGraphic" in2="BackgroundImageFix" result="shape"/><feColorMatrix in="SourceAlpha" result="hardAlpha" values="0 0 0 0 0 0 0 0 0 0 0 0 0 0 0 0 0 0 127 0"/><feOffset dy="3"/><feGaussianBlur stdDeviation="1"/><feComposite in2="hardAlpha" k2="-1" k3="1" operator="arithmetic"/><feColorMatrix values="0 0 0 0 0.545833 0 0 0 0 0.0932465 0 0 0 0 0.0932465 0 0 0 0.2 0"/><feBlend in2="shape" result="effect1_innerShadow_1_3125"/></filter><filter id="i" width="7.734" height="13.674" x="30.375" y="27.151" color-interpolation-filters="sRGB" filterUnits="userSpaceOnUse"><feFlood flood-opacity="0" result="BackgroundImageFix"/><feBlend in="SourceGraphic" in2="BackgroundImageFix" result="shape"/><feColorMatrix in="SourceAlpha" result="hardAlpha" values="0 0 0 0 0 0 0 0 0 0 0 0 0 0 0 0 0 0 127 0"/><feOffset dy="3"/><feGaussianBlur stdDeviation="1"/><feComposite in2="hardAlpha" k2="-1" k3="1" operator="arithmetic"/><feColorMatrix values="0 0 0 0 0.175 0 0 0 0 0.0386458 0 0 0 0 0.0386458 0 0 0 0.25 0"/><feBlend in2="shape" result="effect1_innerShadow_1_3125"/></filter><clipPath id="a"><path fill="#fff" d="M0 0h50v50H0z"/></clipPath></defs></svg>