<svg xmlns="http://www.w3.org/2000/svg" width="64" height="64" fill="none" viewBox="0 0 50 50"><g clip-path="url(#a)"><path fill="#8F2FA9" d="M39.056 30.683c.135.239.18.518.127.787a11.187 11.187 0 0 1-3.575 6.029.948.948 0 0 0-.246.276.374.374 0 0 0 0 .312.354.354 0 0 0 .295.123c.262-.07.514-.168.754-.294a9.666 9.666 0 0 0 2.76-2.35 50.9 50.9 0 0 0 1.35-1.692 11.608 11.608 0 0 0 1.79-3.772c.331-1.097.613-2.207.957-3.305.14-.403.31-.794.509-1.172.08-.116.172-.223.276-.319h.086c.085.289.19.565.251.86.16.925.183 1.87.068 2.802a18.264 18.264 0 0 1-.742 3.575 8.992 8.992 0 0 1-1.03 2.024 27.807 27.807 0 0 1-3.785 4.907 25.764 25.764 0 0 1-3.428 2.784.902.902 0 0 0-.24.178.453.453 0 0 0-.104.306.343.343 0 0 0 .264.184c.257-.001.512-.034.76-.098a9.198 9.198 0 0 0 3.122-1.594 20.53 20.53 0 0 0 6.158-7.299 18.576 18.576 0 0 0 1.772-5.985c.15-1.314.164-2.64.043-3.956a5.522 5.522 0 0 1 .061-2.03c.039-.153.095-.301.166-.442.166-.319.405-.337.564 0 .168.32.292.66.368 1.012a18.93 18.93 0 0 1 .313 5.128 25.19 25.19 0 0 1-2.073 8.07 19.196 19.196 0 0 1-5.047 6.85c-.706.614-1.38 1.227-2.11 1.804a15.992 15.992 0 0 1-2.803 1.631 26.233 26.233 0 0 1-6.887 2.3 21.088 21.088 0 0 1-4.44.294c-.73 0-1.466-.048-2.196-.085a17.065 17.065 0 0 1-4.833-.982 34.432 34.432 0 0 1-6.458-3.03 19.044 19.044 0 0 1-5.949-5.758 22.783 22.783 0 0 1-1.974-3.471.473.473 0 0 0-.338-.288 2.74 2.74 0 0 1-1.84-1.54 19.84 19.84 0 0 1-1.054-3.434A26.703 26.703 0 0 1 0 24.239c.018-1.233.131-2.463.337-3.68a23.092 23.092 0 0 1 1.227-4.838 14.161 14.161 0 0 1 2.146-3.796c.528-.663.963-1.405 1.478-2.08a23.164 23.164 0 0 1 13.23-8.586c1.017-.245 2.035-.503 3.066-.693.92-.171 1.84-.282 2.784-.368C25.359.1 26.45.014 27.549.002A21.239 21.239 0 0 1 39.895 3.75c.413.25.785.563 1.103.926.236.287.392.629.454.994a.454.454 0 0 0 .142.22c.864.835 1.784 1.626 2.581 2.521a11.746 11.746 0 0 1 2.674 4.864 5.827 5.827 0 0 1-.423 4.44 7.027 7.027 0 0 1-2.453 2.453 6.065 6.065 0 0 1-3.827 1.036 5.23 5.23 0 0 1-3.385-1.453 32.428 32.428 0 0 0-3.067-2.803 37.916 37.916 0 0 0-2.19-1.533 8.024 8.024 0 0 0-2.925-1.055 14.832 14.832 0 0 0-3.569-.214c-2.61.05-5.136.935-7.206 2.526a13.356 13.356 0 0 0-3.741 4.385 9.726 9.726 0 0 0-.963 3.325c-.1.713-.157 1.432-.172 2.152a13.221 13.221 0 0 0 1.564 5.875 13.686 13.686 0 0 0 2.821 3.754c1.07.96 2.254 1.785 3.527 2.453a11.552 11.552 0 0 0 4.691 1.368 12.8 12.8 0 0 0 6.336-.951 10.208 10.208 0 0 0 2.612-1.766 14.846 14.846 0 0 0 3.312-4.073c.319-.558.54-1.171.81-1.76.08-.177.171-.355.263-.527.055-.082.12-.156.192-.223Z"/></g><defs><clipPath id="a"><path fill="#fff" d="M0 0h50v50H0z"/></clipPath></defs></svg>