<svg xmlns="http://www.w3.org/2000/svg" width="426.667" height="64" fill="none" viewBox="0 0 100 15"><g fill="#8F2FA9" clip-path="url(#a)"><path d="M10.394 8.166a.304.304 0 0 1 .034.21 2.977 2.977 0 0 1-.952 1.604.252.252 0 0 0-.065.073.1.1 0 0 0 0 .083.096.096 0 0 0 .078.033.964.964 0 0 0 .201-.079c.282-.16.531-.372.735-.625.122-.148.243-.297.359-.45a3.09 3.09 0 0 0 .476-1.004c.088-.292.163-.587.255-.88a2.27 2.27 0 0 1 .135-.311.505.505 0 0 1 .074-.085h.023c.022.076.05.15.066.228.043.247.05.498.018.746-.033.323-.1.642-.197.952-.068.19-.16.371-.274.538-.286.472-.624.91-1.007 1.306-.283.273-.588.52-.913.741a.242.242 0 0 0-.063.047.12.12 0 0 0-.028.082.092.092 0 0 0 .07.049c.068 0 .136-.01.202-.026.302-.087.584-.231.831-.425a5.464 5.464 0 0 0 1.639-1.942 4.941 4.941 0 0 0 .483-2.645 1.467 1.467 0 0 1 .016-.54c.01-.041.025-.08.044-.118.044-.085.108-.09.15 0 .045.085.078.175.098.27.09.448.118.907.084 1.364a6.703 6.703 0 0 1-.552 2.147 5.106 5.106 0 0 1-1.343 1.823c-.188.164-.367.327-.562.48-.233.17-.483.316-.745.434a6.983 6.983 0 0 1-1.833.613c-.39.067-.787.094-1.182.078-.194 0-.39-.013-.584-.023a4.54 4.54 0 0 1-1.287-.261 9.164 9.164 0 0 1-1.718-.806 5.068 5.068 0 0 1-1.583-1.533 6.066 6.066 0 0 1-.526-.924.126.126 0 0 0-.09-.076.73.73 0 0 1-.49-.41 5.28 5.28 0 0 1-.28-.914A7.107 7.107 0 0 1 0 6.45c.005-.327.035-.655.09-.979.062-.44.171-.871.326-1.287.137-.365.33-.705.571-1.01.14-.177.257-.374.394-.554A6.165 6.165 0 0 1 4.9.335c.271-.065.542-.134.816-.184.245-.046.49-.075.741-.098.29-.026.581-.05.874-.052a5.652 5.652 0 0 1 3.285.997c.11.066.21.15.294.246a.569.569 0 0 1 .12.265.12.12 0 0 0 .038.058c.23.222.475.433.687.671.338.369.582.812.712 1.295a1.552 1.552 0 0 1-.113 1.181c-.16.269-.384.493-.652.653-.3.203-.658.3-1.019.276a1.392 1.392 0 0 1-.9-.387 8.629 8.629 0 0 0-.817-.746c-.19-.143-.385-.279-.583-.408a2.135 2.135 0 0 0-.778-.28 3.947 3.947 0 0 0-.95-.058 3.248 3.248 0 0 0-1.918.673c-.413.312-.753.71-.995 1.167a2.588 2.588 0 0 0-.257.884c-.026.19-.042.382-.045.573.015.547.157 1.082.416 1.564.19.374.445.711.75.999.285.255.6.475.939.652.386.21.811.334 1.249.364a3.406 3.406 0 0 0 1.686-.253c.254-.12.489-.278.695-.47.356-.306.654-.673.881-1.083.085-.149.144-.312.216-.469.021-.047.045-.094.07-.14a.335.335 0 0 1 .05-.06ZM22.404 9.762c-1.737 0-2.9-1.292-2.9-3.081s1.163-3.082 2.9-3.082a3.08 3.08 0 0 1 2.448 1.254.153.153 0 0 0 .248.026l1.384-1.188a.18.18 0 0 0 .026-.235c-.849-1.24-2.285-1.867-4.1-1.867-3.1 0-5.144 2.31-5.144 5.092 0 2.807 2.05 5.118 5.144 5.118 1.815 0 3.343-.77 4.1-1.893a.178.178 0 0 0-.026-.235l-1.397-1.143a.142.142 0 0 0-.235.027 3.073 3.073 0 0 1-2.448 1.2v.007ZM31.849 8.728c0 .796-.47 1.266-1.306 1.266-.835 0-1.332-.47-1.332-1.266V4.262a.163.163 0 0 0-.163-.163h-1.697a.163.163 0 0 0-.163.163v4.544c0 1.985 1.162 2.977 2.624 2.977 1.045 0 1.75-.64 2.05-1.606v1.24a.173.173 0 0 0 .163.164h1.71a.163.163 0 0 0 .164-.164V4.262a.163.163 0 0 0-.163-.163h-1.717a.163.163 0 0 0-.164.163l-.006 4.466ZM38.582 5.689a.163.163 0 0 0 .163.163h1.097v3.506c0 1.41.718 2.232 2.22 2.232h1.397a.163.163 0 0 0 .163-.163V9.958a.15.15 0 0 0-.163-.163h-.948c-.47 0-.627-.163-.627-.561V5.855h1.554a.163.163 0 0 0 .163-.163V4.269a.163.163 0 0 0-.163-.164h-1.554V1.951a.163.163 0 0 0-.163-.163h-1.735a.15.15 0 0 0-.163.163v2.141h-1.097a.163.163 0 0 0-.163.164l.02 1.433ZM49.42 8.728c0 .796-.471 1.266-1.306 1.266-.836 0-1.332-.47-1.332-1.266V4.262a.163.163 0 0 0-.164-.163h-1.697a.163.163 0 0 0-.163.163v4.544c0 1.985 1.162 2.977 2.624 2.977 1.045 0 1.75-.64 2.05-1.606v1.24a.173.173 0 0 0 .163.164h1.71a.164.164 0 0 0 .164-.164V4.262a.163.163 0 0 0-.163-.163h-1.717a.163.163 0 0 0-.163.163l-.007 4.466ZM53.147 11.417a.164.164 0 0 0 .163.164h1.685a.164.164 0 0 0 .163-.164v-4.1c0-1.031.653-1.227 1.567-1.227h.678a.164.164 0 0 0 .164-.163V4.262a.163.163 0 0 0-.163-.163h-.163c-1.097 0-1.776.51-2.09 1.75v-1.58a.163.163 0 0 0-.163-.164h-1.684a.164.164 0 0 0-.163.164l.006 7.148Z"/><path fill-rule="evenodd" d="M65.18 7.843c0-2.233-1.332-4.048-3.735-4.048-2.259 0-3.734 1.815-3.734 4.048 0 2.311 1.645 4.035 4.152 4.035 1.358 0 2.52-.601 3.069-1.397a.173.173 0 0 0-.04-.249L63.75 9.214a.148.148 0 0 0-.117-.036.148.148 0 0 0-.105.062 2.065 2.065 0 0 1-1.75.888c-.966 0-1.854-.457-1.985-1.71h5.223a.15.15 0 0 0 .163-.164v-.411Zm-2.063-.983c-.144-.81-.745-1.318-1.659-1.318-.9 0-1.502.502-1.645 1.318h3.304ZM67.907 11.434a.119.119 0 0 0 .105.163h1.997a.223.223 0 0 0 .222-.163l.797-2.168h4.021l.816 2.168a.224.224 0 0 0 .222.163h2.037a.12.12 0 0 0 .094-.055.119.119 0 0 0 .01-.108L74.573 1.94a.21.21 0 0 0-.21-.143h-2.598a.212.212 0 0 0-.222.143l-3.636 9.493Zm5.123-7.59L71.713 7.4h2.638l-1.32-3.555Z" clip-rule="evenodd"/><path d="M79.374 11.417a.163.163 0 0 0 .163.164h1.697a.163.163 0 0 0 .163-.164V6.86c0-.73.405-1.188 1.175-1.188.771 0 1.202.457 1.202 1.188v4.557a.163.163 0 0 0 .163.164h1.71a.164.164 0 0 0 .164-.164V6.86c0-.73.417-1.188 1.175-1.188.757 0 1.201.457 1.201 1.188v4.557a.171.171 0 0 0 .163.164h1.698a.164.164 0 0 0 .163-.164V6.795c0-1.932-1.143-2.912-2.598-2.912-1.228 0-1.854.797-2.18 1.796a2.194 2.194 0 0 0-2.123-1.796c-1.07 0-1.553.653-1.919 1.62v-1.24a.164.164 0 0 0-.163-.164H79.53a.163.163 0 0 0-.164.163l.007 7.155Z"/><path fill-rule="evenodd" d="M99.995 7.84c0-2.194-1.292-3.957-3.369-3.957-1.357 0-2.402.719-2.728 1.737V4.262a.163.163 0 0 0-.163-.163H92.03a.163.163 0 0 0-.164.163v10.054a.163.163 0 0 0 .163.163h1.711a.163.163 0 0 0 .163-.163v-4.244c.327 1.019 1.371 1.724 2.729 1.724 2.076 0 3.369-1.75 3.369-3.956h-.007Zm-2.167 0c0-1.293-.783-2.168-1.959-2.168-1.188 0-1.971.849-1.971 2.155 0 1.305.796 2.167 1.971 2.167 1.176 0 1.959-.862 1.959-2.154Z" clip-rule="evenodd"/><path d="m37.448 1.265-1.722.004a.15.15 0 0 0-.163.163v9.989a.163.163 0 0 0 .163.163h1.722a.163.163 0 0 0 .163-.163V1.429a.15.15 0 0 0-.163-.164Z"/></g><defs><clipPath id="a"><path fill="#fff" d="M0 0h100v14.516H0z"/></clipPath></defs></svg>