<svg xmlns="http://www.w3.org/2000/svg" width="64" height="64" fill="none" viewBox="0 0 50 50"><g clip-path="url(#a)"><path fill="#8f2fa9" d="M39.056 30.683c.135.239.18.518.127.787a11.2 11.2 0 0 1-3.575 6.029 1 1 0 0 0-.246.276.37.37 0 0 0 0 .312.35.35 0 0 0 .295.123 3.6 3.6 0 0 0 .754-.294 9.7 9.7 0 0 0 2.76-2.35 51 51 0 0 0 1.35-1.692 11.6 11.6 0 0 0 1.79-3.772c.331-1.097.613-2.207.957-3.305q.21-.605.509-1.172.12-.175.276-.319h.086c.085.289.19.565.251.86.16.925.183 1.87.068 2.802a18.3 18.3 0 0 1-.742 3.575 9 9 0 0 1-1.03 2.024 27.8 27.8 0 0 1-3.785 4.907 26 26 0 0 1-3.428 2.784.9.9 0 0 0-.24.178.45.45 0 0 0-.104.306.34.34 0 0 0 .264.184q.387-.002.76-.098a9.2 9.2 0 0 0 3.122-1.594 20.5 20.5 0 0 0 6.158-7.299 18.6 18.6 0 0 0 1.772-5.985c.15-1.314.164-2.64.043-3.956a5.5 5.5 0 0 1 .061-2.03 2.2 2.2 0 0 1 .166-.442c.166-.319.405-.337.564 0 .168.32.292.66.368 1.012a19 19 0 0 1 .313 5.128 25.2 25.2 0 0 1-2.073 8.07 19.2 19.2 0 0 1-5.047 6.85c-.706.614-1.38 1.227-2.11 1.804a16 16 0 0 1-2.803 1.631 26.2 26.2 0 0 1-6.887 2.3 21 21 0 0 1-4.44.294c-.73 0-1.466-.048-2.196-.085a17 17 0 0 1-4.833-.982 34.4 34.4 0 0 1-6.458-3.03 19 19 0 0 1-5.949-5.758 23 23 0 0 1-1.974-3.471.47.47 0 0 0-.338-.288 2.74 2.74 0 0 1-1.84-1.54 20 20 0 0 1-1.054-3.434A26.7 26.7 0 0 1 0 24.239c.018-1.233.131-2.463.337-3.68a23 23 0 0 1 1.227-4.838 14.2 14.2 0 0 1 2.146-3.796c.528-.663.963-1.405 1.478-2.08a23.16 23.16 0 0 1 13.23-8.586c1.017-.245 2.035-.503 3.066-.693.92-.171 1.84-.282 2.784-.368C25.359.1 26.45.014 27.549.002A21.24 21.24 0 0 1 39.895 3.75c.413.25.785.563 1.103.926.236.287.392.629.454.994a.45.45 0 0 0 .142.22c.864.835 1.784 1.626 2.581 2.521a11.75 11.75 0 0 1 2.674 4.864 5.83 5.83 0 0 1-.423 4.44 7 7 0 0 1-2.453 2.453 6.07 6.07 0 0 1-3.827 1.036 5.23 5.23 0 0 1-3.385-1.453 32 32 0 0 0-3.067-2.803 38 38 0 0 0-2.19-1.533 8 8 0 0 0-2.925-1.055 14.8 14.8 0 0 0-3.569-.214c-2.61.05-5.136.935-7.206 2.526a13.4 13.4 0 0 0-3.741 4.385 9.7 9.7 0 0 0-.963 3.325q-.15 1.07-.172 2.152a13.2 13.2 0 0 0 1.564 5.875 13.7 13.7 0 0 0 2.821 3.754c1.07.96 2.254 1.785 3.527 2.453a11.55 11.55 0 0 0 4.691 1.368 12.8 12.8 0 0 0 6.336-.951 10.2 10.2 0 0 0 2.612-1.766 14.9 14.9 0 0 0 3.312-4.073c.319-.558.54-1.171.81-1.76.08-.177.171-.355.263-.527q.083-.123.192-.223Z"/></g><defs><clipPath id="a"><path fill="#fff" d="M0 0h50v50H0z"/></clipPath></defs></svg>