<svg xmlns="http://www.w3.org/2000/svg" width="426.667" height="64" fill="none" viewBox="0 0 100 15"><g fill="#8F2FA9" clip-path="url(#a)"><path d="M10.394 8.166a.3.3 0 0 1 .034.21 2.98 2.98 0 0 1-.952 1.604.3.3 0 0 0-.065.073.1.1 0 0 0 0 .083.1.1 0 0 0 .078.033 1 1 0 0 0 .201-.079 2.6 2.6 0 0 0 .735-.625q.184-.221.359-.45a3.1 3.1 0 0 0 .476-1.004c.088-.292.163-.587.255-.88a2 2 0 0 1 .135-.311.5.5 0 0 1 .074-.085h.023c.022.076.05.15.066.228q.065.372.018.746-.05.486-.197.952-.102.286-.274.538a7.4 7.4 0 0 1-1.007 1.306q-.425.41-.913.741a.2.2 0 0 0-.063.047.12.12 0 0 0-.028.082.1.1 0 0 0 .07.049 1 1 0 0 0 .202-.026c.302-.087.584-.231.831-.425a5.46 5.46 0 0 0 1.639-1.942 4.94 4.94 0 0 0 .483-2.645 1.5 1.5 0 0 1 .016-.54.6.6 0 0 1 .044-.118c.044-.085.108-.09.15 0q.068.128.098.27c.09.448.118.907.084 1.364a6.7 6.7 0 0 1-.552 2.147 5.1 5.1 0 0 1-1.343 1.823c-.188.164-.367.327-.562.48q-.35.256-.745.434a7 7 0 0 1-1.833.613 5.6 5.6 0 0 1-1.182.078c-.194 0-.39-.013-.584-.023a4.5 4.5 0 0 1-1.287-.261 9 9 0 0 1-1.718-.806 5.1 5.1 0 0 1-1.583-1.533 6 6 0 0 1-.526-.924.13.13 0 0 0-.09-.076.73.73 0 0 1-.49-.41 5.3 5.3 0 0 1-.28-.914A7 7 0 0 1 0 6.45q.008-.492.09-.979.093-.662.326-1.287a3.8 3.8 0 0 1 .571-1.01c.14-.177.257-.374.394-.554A6.17 6.17 0 0 1 4.9.335c.271-.065.542-.134.816-.184a8 8 0 0 1 .741-.098c.29-.026.581-.05.874-.052a5.65 5.65 0 0 1 3.285.997q.166.1.294.246a.57.57 0 0 1 .12.265.12.12 0 0 0 .038.058c.23.222.475.433.687.671.338.369.582.812.712 1.295a1.55 1.55 0 0 1-.113 1.181c-.16.269-.384.493-.652.653-.3.203-.658.3-1.019.276a1.4 1.4 0 0 1-.9-.387 9 9 0 0 0-.817-.746q-.285-.214-.583-.408a2.1 2.1 0 0 0-.778-.28 4 4 0 0 0-.95-.058 3.25 3.25 0 0 0-1.918.673c-.413.312-.753.71-.995 1.167a2.6 2.6 0 0 0-.257.884 5 5 0 0 0-.045.573c.015.547.157 1.082.416 1.564.19.374.445.711.75.999q.429.385.939.652c.386.21.811.334 1.249.364a3.4 3.4 0 0 0 1.686-.253c.254-.12.489-.278.695-.47.356-.306.654-.673.881-1.083.085-.149.144-.312.216-.469a2 2 0 0 1 .07-.14.3.3 0 0 1 .05-.06Zm12.01 1.596c-1.737 0-2.9-1.292-2.9-3.081s1.163-3.082 2.9-3.082a3.08 3.08 0 0 1 2.448 1.254.153.153 0 0 0 .248.026l1.384-1.188a.18.18 0 0 0 .026-.235c-.849-1.24-2.285-1.867-4.1-1.867-3.1 0-5.144 2.31-5.144 5.092 0 2.807 2.05 5.118 5.144 5.118 1.815 0 3.343-.77 4.1-1.893a.18.18 0 0 0-.026-.235l-1.397-1.143a.142.142 0 0 0-.235.027 3.07 3.07 0 0 1-2.448 1.2zm9.445-1.034c0 .796-.47 1.266-1.306 1.266-.835 0-1.332-.47-1.332-1.266V4.262a.163.163 0 0 0-.163-.163h-1.697a.163.163 0 0 0-.163.163v4.544c0 1.985 1.162 2.977 2.624 2.977 1.045 0 1.75-.64 2.05-1.606v1.24a.173.173 0 0 0 .163.164h1.71a.163.163 0 0 0 .164-.164V4.262a.163.163 0 0 0-.163-.163h-1.717a.163.163 0 0 0-.164.163zm6.733-3.039a.163.163 0 0 0 .163.163h1.097v3.506c0 1.41.718 2.232 2.22 2.232h1.397a.163.163 0 0 0 .163-.163V9.958a.15.15 0 0 0-.163-.163h-.948c-.47 0-.627-.163-.627-.561V5.855h1.554a.163.163 0 0 0 .163-.163V4.269a.163.163 0 0 0-.163-.164h-1.554V1.951a.163.163 0 0 0-.163-.163h-1.735a.15.15 0 0 0-.163.163v2.141h-1.097a.163.163 0 0 0-.163.164l.02 1.433ZM49.42 8.728c0 .796-.471 1.266-1.306 1.266s-1.332-.47-1.332-1.266V4.262a.163.163 0 0 0-.164-.163h-1.697a.163.163 0 0 0-.163.163v4.544c0 1.985 1.162 2.977 2.624 2.977 1.045 0 1.75-.64 2.05-1.606v1.24a.173.173 0 0 0 .163.164h1.71a.164.164 0 0 0 .164-.164V4.262a.163.163 0 0 0-.163-.163h-1.717a.163.163 0 0 0-.163.163zm3.727 2.689a.164.164 0 0 0 .163.164h1.685a.164.164 0 0 0 .163-.164v-4.1c0-1.031.653-1.227 1.567-1.227h.678a.164.164 0 0 0 .164-.163V4.262a.163.163 0 0 0-.163-.163h-.163c-1.097 0-1.776.51-2.09 1.75v-1.58a.163.163 0 0 0-.163-.164h-1.684a.164.164 0 0 0-.163.164z"/><path fill-rule="evenodd" d="M65.18 7.843c0-2.233-1.332-4.048-3.735-4.048-2.259 0-3.734 1.815-3.734 4.048 0 2.311 1.645 4.035 4.152 4.035 1.358 0 2.52-.601 3.069-1.397a.173.173 0 0 0-.04-.249L63.75 9.214a.15.15 0 0 0-.117-.036.15.15 0 0 0-.105.062 2.07 2.07 0 0 1-1.75.888c-.966 0-1.854-.457-1.985-1.71h5.223a.15.15 0 0 0 .163-.164v-.411Zm-2.063-.983c-.144-.81-.745-1.318-1.659-1.318-.9 0-1.502.502-1.645 1.318zm4.79 4.574a.12.12 0 0 0 .105.163h1.997a.22.22 0 0 0 .222-.163l.797-2.168h4.021l.816 2.168a.224.224 0 0 0 .222.163h2.037a.12.12 0 0 0 .094-.055.12.12 0 0 0 .01-.108L74.573 1.94a.21.21 0 0 0-.21-.143h-2.598a.21.21 0 0 0-.222.143zm5.123-7.59L71.713 7.4h2.638l-1.32-3.555Z" clip-rule="evenodd"/><path d="M79.374 11.417a.163.163 0 0 0 .163.164h1.697a.163.163 0 0 0 .163-.164V6.86c0-.73.405-1.188 1.175-1.188.771 0 1.202.457 1.202 1.188v4.557a.163.163 0 0 0 .163.164h1.71a.164.164 0 0 0 .164-.164V6.86c0-.73.417-1.188 1.175-1.188.757 0 1.201.457 1.201 1.188v4.557a.17.17 0 0 0 .163.164h1.698a.164.164 0 0 0 .163-.164V6.795c0-1.932-1.143-2.912-2.598-2.912-1.228 0-1.854.797-2.18 1.796a2.194 2.194 0 0 0-2.123-1.796c-1.07 0-1.553.653-1.919 1.62v-1.24a.164.164 0 0 0-.163-.164H79.53a.163.163 0 0 0-.164.163z"/><path fill-rule="evenodd" d="M99.995 7.84c0-2.194-1.292-3.957-3.369-3.957-1.357 0-2.402.719-2.728 1.737V4.262a.163.163 0 0 0-.163-.163H92.03a.163.163 0 0 0-.164.163v10.054a.163.163 0 0 0 .163.163h1.711a.163.163 0 0 0 .163-.163v-4.244c.327 1.019 1.371 1.724 2.729 1.724 2.076 0 3.369-1.75 3.369-3.956h-.007Zm-2.167 0c0-1.293-.783-2.168-1.959-2.168-1.188 0-1.971.849-1.971 2.155s.796 2.167 1.971 2.167 1.959-.862 1.959-2.154" clip-rule="evenodd"/><path d="m37.448 1.265-1.722.004a.15.15 0 0 0-.163.163v9.989a.163.163 0 0 0 .163.163h1.722a.163.163 0 0 0 .163-.163V1.429a.15.15 0 0 0-.163-.164"/></g><defs><clipPath id="a"><path fill="#fff" d="M0 0h100v14.516H0z"/></clipPath></defs></svg>