<svg xmlns="http://www.w3.org/2000/svg" width="177.778" height="64" fill="none" viewBox="0 0 50 18"><g clip-path="url(#a)"><path fill="#1c4396" d="M40.679 17.053a.13.13 0 0 1-.132-.132V1.022c0-.063.044-.117.105-.13L43.43.32a.132.132 0 0 1 .159.129V16.92c0 .073-.06.132-.132.132zm-34.883.337q-1.662 0-2.97-.808a5.8 5.8 0 0 1-2.066-2.21Q0 12.971 0 11.19t.76-3.16q.76-1.4 2.067-2.185 1.306-.808 2.97-.808 1.33 0 2.327.5.802.4 1.358 1.061c.084.1.258.043.258-.087V.736c0-.062.044-.116.105-.13l2.777-.573a.132.132 0 0 1 .159.13v16.81c0 .072-.06.131-.132.131H10.18a.13.13 0 0 1-.13-.106l-.253-1.284c-.022-.113-.17-.147-.244-.058q-.532.638-1.335 1.14-.926.593-2.423.593Zm.642-2.661q1.472 0 2.4-.974.95-.999.95-2.542 0-1.545-.95-2.518-.928-.998-2.4-.998-1.449 0-2.4.974-.95.975-.95 2.518 0 1.545.95 2.542.951.998 2.4.998m13.761 2.662q-1.782 0-3.16-.76a5.5 5.5 0 0 1-2.161-2.138q-.784-1.379-.784-3.183 0-1.83.76-3.255a5.63 5.63 0 0 1 2.138-2.21q1.377-.807 3.23-.807 1.735 0 3.065.76a5.35 5.35 0 0 1 2.067 2.09q.76 1.308.76 2.923 0 .261-.024.546 0 .229-.015.472a.13.13 0 0 1-.13.122h-8.693a.13.13 0 0 0-.13.141q.128 1.278.939 2.02.878.785 2.114.785.927 0 1.544-.404a2.64 2.64 0 0 0 .914-1.017.14.14 0 0 1 .12-.076h2.828a.13.13 0 0 1 .124.169 5.6 5.6 0 0 1-1.064 1.874 5.4 5.4 0 0 1-1.9 1.426q-1.117.522-2.542.522m.024-9.882q-1.117 0-1.972.641-.803.58-1.061 1.745a.13.13 0 0 0 .127.156h5.569a.13.13 0 0 0 .129-.14q-.108-1.066-.844-1.713-.784-.69-1.948-.69Zm13.203 9.882q-1.782 0-3.16-.76a5.5 5.5 0 0 1-2.162-2.138q-.784-1.379-.784-3.183 0-1.83.76-3.255a5.63 5.63 0 0 1 2.139-2.21q1.377-.807 3.23-.807 1.735 0 3.065.76a5.35 5.35 0 0 1 2.067 2.09q.76 1.308.76 2.923 0 .261-.024.546 0 .229-.015.472a.13.13 0 0 1-.131.122h-8.692a.13.13 0 0 0-.13.141q.128 1.278.939 2.02.878.785 2.114.785.926 0 1.544-.404.604-.404.913-1.017a.14.14 0 0 1 .121-.076h2.827c.089 0 .152.085.124.169a5.6 5.6 0 0 1-1.063 1.874 5.4 5.4 0 0 1-1.9 1.426q-1.117.522-2.542.522m.023-9.882q-1.116 0-1.971.641-.803.58-1.062 1.745a.13.13 0 0 0 .128.156h5.568a.13.13 0 0 0 .13-.14q-.109-1.066-.845-1.713-.783-.69-1.948-.69Z"/><path fill="#2c71f0" d="M47.57 17.056a2.047 2.047 0 1 0 0-4.094 2.047 2.047 0 0 0 0 4.095Z"/></g><defs><clipPath id="a"><path fill="#fff" d="M0 0h50v17.391H0z"/></clipPath></defs></svg>