<svg xmlns="http://www.w3.org/2000/svg" width="177.778" height="64" fill="none" viewBox="0 0 50 18"><g clip-path="url(#a)"><path fill="#1C4396" d="M40.679 17.053a.132.132 0 0 1-.132-.132V1.022c0-.063.044-.117.105-.13L43.43.32a.132.132 0 0 1 .159.129V16.92c0 .073-.06.132-.132.132h-2.777ZM5.796 17.39c-1.108 0-2.098-.27-2.97-.808a5.787 5.787 0 0 1-2.066-2.21C.253 13.438 0 12.377 0 11.19c0-1.188.253-2.24.76-3.16.507-.934 1.196-1.662 2.067-2.185.871-.539 1.86-.808 2.97-.808.886 0 1.662.167 2.327.5.535.266.987.62 1.358 1.061.084.1.258.043.258-.087V.736c0-.062.044-.116.105-.13l2.777-.573a.132.132 0 0 1 .159.13v16.81c0 .072-.06.131-.132.131H10.18a.132.132 0 0 1-.13-.106l-.253-1.284c-.022-.113-.17-.147-.244-.058-.354.425-.8.805-1.335 1.14-.617.395-1.425.593-2.423.593Zm.642-2.661c.982 0 1.781-.325 2.4-.974.633-.666.95-1.513.95-2.542 0-1.03-.317-1.869-.95-2.518-.619-.665-1.418-.998-2.4-.998-.966 0-1.766.325-2.4.974-.633.65-.95 1.489-.95 2.518 0 1.03.317 1.877.95 2.542.634.665 1.434.998 2.4.998ZM20.199 17.391c-1.188 0-2.241-.253-3.16-.76a5.502 5.502 0 0 1-2.161-2.138c-.523-.919-.784-1.98-.784-3.183 0-1.22.253-2.305.76-3.255a5.63 5.63 0 0 1 2.138-2.21c.918-.538 1.995-.807 3.23-.807 1.157 0 2.178.253 3.065.76a5.352 5.352 0 0 1 2.067 2.09c.507.872.76 1.846.76 2.923 0 .174-.008.356-.024.546 0 .152-.005.31-.015.472a.13.13 0 0 1-.13.122h-8.693a.13.13 0 0 0-.13.141c.085.852.398 1.525.939 2.02.586.523 1.29.785 2.114.785.618 0 1.133-.135 1.544-.404.403-.269.708-.608.914-1.017a.136.136 0 0 1 .12-.076h2.828c.088 0 .152.085.124.169a5.643 5.643 0 0 1-1.064 1.874 5.369 5.369 0 0 1-1.9 1.426c-.744.348-1.592.522-2.542.522Zm.024-9.882c-.745 0-1.402.213-1.972.641-.535.387-.889.968-1.061 1.745a.129.129 0 0 0 .127.156h5.569a.128.128 0 0 0 .129-.14c-.072-.711-.353-1.282-.844-1.713-.523-.46-1.172-.69-1.948-.69ZM33.426 17.391c-1.188 0-2.241-.253-3.16-.76a5.503 5.503 0 0 1-2.162-2.138c-.522-.919-.784-1.98-.784-3.183 0-1.22.254-2.305.76-3.255a5.628 5.628 0 0 1 2.139-2.21c.918-.538 1.995-.807 3.23-.807 1.157 0 2.178.253 3.065.76a5.352 5.352 0 0 1 2.067 2.09c.506.872.76 1.846.76 2.923 0 .174-.008.356-.024.546 0 .152-.005.31-.015.472a.13.13 0 0 1-.131.122h-8.692a.13.13 0 0 0-.13.141c.085.852.398 1.525.939 2.02.586.523 1.29.785 2.114.785.617 0 1.132-.135 1.544-.404.403-.269.707-.608.913-1.017a.136.136 0 0 1 .121-.076h2.827c.089 0 .152.085.124.169a5.643 5.643 0 0 1-1.063 1.874 5.369 5.369 0 0 1-1.9 1.426c-.745.348-1.592.522-2.542.522Zm.023-9.882c-.744 0-1.401.213-1.971.641-.535.387-.89.968-1.062 1.745a.129.129 0 0 0 .128.156h5.568a.128.128 0 0 0 .13-.14c-.073-.711-.354-1.282-.845-1.713-.522-.46-1.172-.69-1.948-.69Z"/><path fill="#2C71F0" d="M47.57 17.056a2.047 2.047 0 1 0 0-4.094 2.047 2.047 0 0 0 0 4.095Z"/></g><defs><clipPath id="a"><path fill="#fff" d="M0 0h50v17.391H0z"/></clipPath></defs></svg>