<svg xmlns="http://www.w3.org/2000/svg" width="182.857" height="64" fill="none" viewBox="0 0 100 35"><g clip-path="url(#a)"><path fill="#1C4396" d="M81.35 34.106a.264.264 0 0 1-.264-.264V2.044c0-.125.088-.233.21-.258L86.85.638a.264.264 0 0 1 .317.258v32.946a.264.264 0 0 1-.264.264H81.35ZM11.593 34.779c-2.217 0-4.197-.539-5.94-1.616-1.741-1.077-3.119-2.55-4.133-4.418C.507 26.876 0 24.754 0 22.378c0-2.375.507-4.482 1.52-6.319 1.014-1.869 2.392-3.326 4.134-4.371 1.742-1.077 3.722-1.615 5.939-1.615 1.774 0 3.326.332 4.656.997a8.425 8.425 0 0 1 2.715 2.124c.167.199.516.086.516-.174V1.472c0-.125.088-.233.21-.258L25.244.066a.264.264 0 0 1 .317.258v33.62a.264.264 0 0 1-.264.265h-4.935a.264.264 0 0 1-.26-.213l-.505-2.568c-.045-.226-.341-.293-.489-.116-.708.85-1.598 1.61-2.669 2.279-1.235.792-2.85 1.188-4.846 1.188Zm1.283-5.322c1.963 0 3.563-.649 4.798-1.948 1.267-1.33 1.9-3.024 1.9-5.083 0-2.06-.633-3.738-1.9-5.036-1.235-1.33-2.835-1.996-4.798-1.996-1.932 0-3.532.65-4.799 1.948-1.267 1.299-1.9 2.977-1.9 5.036 0 2.059.633 3.754 1.9 5.084 1.267 1.33 2.867 1.995 4.799 1.995ZM40.39 34.782c-2.375 0-4.482-.506-6.319-1.52a11.005 11.005 0 0 1-4.323-4.276c-1.046-1.837-1.568-3.96-1.568-6.367 0-2.439.506-4.608 1.52-6.509 1.045-1.9 2.47-3.373 4.276-4.418 1.837-1.077 3.991-1.616 6.462-1.616 2.312 0 4.355.507 6.129 1.52a10.705 10.705 0 0 1 4.133 4.182c1.014 1.742 1.52 3.69 1.52 5.844 0 .348-.015.712-.047 1.092 0 .305-.01.62-.03.944a.261.261 0 0 1-.262.244H34.496a.258.258 0 0 0-.259.282c.17 1.703.796 3.05 1.877 4.042 1.172 1.045 2.582 1.568 4.229 1.568 1.235 0 2.264-.27 3.088-.808.806-.537 1.415-1.215 1.827-2.034a.272.272 0 0 1 .242-.152h5.654c.176 0 .303.17.247.338a11.286 11.286 0 0 1-2.126 3.748c-1.014 1.204-2.28 2.154-3.801 2.851-1.489.697-3.183 1.045-5.084 1.045Zm.048-19.764c-1.489 0-2.803.427-3.944 1.282-1.07.773-1.777 1.936-2.122 3.49a.257.257 0 0 0 .254.311h11.138a.256.256 0 0 0 .257-.28c-.143-1.42-.706-2.563-1.687-3.426-1.046-.918-2.344-1.377-3.896-1.377ZM66.843 34.782c-2.375 0-4.482-.506-6.319-1.52a11.004 11.004 0 0 1-4.323-4.276c-1.046-1.837-1.568-3.96-1.568-6.367 0-2.439.507-4.608 1.52-6.509 1.046-1.9 2.47-3.373 4.276-4.418 1.837-1.077 3.991-1.616 6.462-1.616 2.312 0 4.355.507 6.129 1.52a10.703 10.703 0 0 1 4.133 4.182c1.014 1.742 1.52 3.69 1.52 5.844 0 .348-.015.712-.047 1.092 0 .305-.01.62-.03.944a.261.261 0 0 1-.262.244H60.95a.258.258 0 0 0-.26.282c.17 1.703.796 3.05 1.877 4.042 1.172 1.045 2.582 1.568 4.229 1.568 1.235 0 2.265-.27 3.088-.808.806-.537 1.415-1.215 1.827-2.034a.272.272 0 0 1 .242-.152h5.654c.177 0 .303.17.248.338a11.283 11.283 0 0 1-2.127 3.748c-1.014 1.204-2.28 2.154-3.8 2.851-1.49.697-3.184 1.045-5.085 1.045Zm.048-19.764c-1.489 0-2.803.427-3.944 1.282-1.07.773-1.777 1.936-2.122 3.49a.257.257 0 0 0 .254.311h11.138a.256.256 0 0 0 .258-.28c-.144-1.42-.706-2.563-1.688-3.426-1.046-.918-2.344-1.377-3.896-1.377Z"/><path fill="#2C71F0" d="M95.141 34.113a4.094 4.094 0 1 0 0-8.189 4.094 4.094 0 0 0 0 8.189Z"/></g><defs><clipPath id="a"><path fill="#fff" d="M0 0h100v34.783H0z"/></clipPath></defs></svg>