<svg xmlns="http://www.w3.org/2000/svg" width="266.667" height="64" fill="none" viewBox="0 0 100 24"><g fill="#0062FF" fill-rule="evenodd" clip-path="url(#a)" clip-rule="evenodd"><path d="M.523 21.493c0 1.292.828 2.129 2.105 2.129h6.149c3.668 0 6.668-1.255 8.708-3.453H.523v1.324ZM8.777 0h-6.15C1.352 0 .524.838.524 2.129v1.324h16.962C15.445 1.255 12.445 0 8.777 0Zm5.366 15.177c0 1.044.673 1.722 1.71 1.722h3.684c.418-1.048.699-2.2.829-3.444h-4.513c-1.037 0-1.71.677-1.71 1.722ZM9.036 8.454c0 1.044.673 1.722 1.71 1.722h9.62a12.925 12.925 0 0 0-.829-3.445h-8.791c-1.037 0-1.71.678-1.71 1.723Zm1.709 6.723c0-1.045-.673-1.722-1.71-1.722H.523v3.444h8.512c1.037 0 1.71-.678 1.71-1.722ZM5.638 8.454c0-1.045-.673-1.723-1.71-1.723H.523v3.445h3.405c1.037 0 1.71-.678 1.71-1.722ZM43.794 11.455c.274-1.348 1.159-2.033 2.322-2.033 1.153 0 1.997.716 2.266 2.033h-4.588Zm2.385-4.368c-2.962 0-4.804 2.4-4.804 5.335 0 3.04 1.969 5.295 4.895 5.295 2.018 0 3.242-.947 4-2.138l-1.884-1.22c-.474.655-1.232 1.002-2.044 1.002-1.329 0-2.219-.63-2.522-1.892h4.972l-.001.005 1.812.01c.07-.332.11-.675.11-1.062 0-2.557-1.554-5.335-4.534-5.335ZM33.791 15.354c-1.822 0-2.917-1.322-2.917-2.952 0-1.631 1.116-2.953 2.918-2.953 1.8 0 2.917 1.322 2.917 2.953 0 1.63-1.095 2.952-2.918 2.952Zm2.72-6.707c-.728-.884-1.761-1.426-3.044-1.426-2.866 0-4.928 2.35-4.928 5.248s2.042 5.248 4.928 5.248c1.283 0 2.316-.543 3.044-1.427v1.168h2.533V3.543H36.51v5.104ZM58.462 12.227c.687.486 1.123 1.215 1.123 2.177 0 1.944-1.295 3.293-3.716 3.293-2.278 0-3.5-1.182-3.986-2.375l2.091-1.235s.282 1.289 1.858 1.289c.976 0 1.276-.436 1.276-.822 0-.178-.056-.507-.75-.785-1.395-.557-4.092-.808-4.092-3.352 0-2.082 1.613-3.193 3.603-3.193 1.861 0 3.056 1.171 3.51 2.083l-2.046 1.21s-.394-1.012-1.445-1.012c-1.05 0-1.145.615-1.145.793 0 .52.525.735 1.652 1.071.667.2 1.352.38 2.069.856l-.002.002Zm41.277-2.266h-2.122v4.126c0 1.289 1.239 1.011 2.122 1.011v2.321s-.465.08-1.277.08c-1.801 0-3.265-.556-3.265-3.412V9.96h-1.633V7.5h1.633V4.724h2.42v2.777h2.122v2.46Zm-34.135 5.236c1.004 0 1.777-.506 2.167-1.337l2.099 1.272c-.823 1.524-2.355 2.585-4.266 2.585-2.9 0-4.926-2.345-4.926-5.237s2.045-5.236 4.926-5.236c1.883 0 3.41 1.043 4.24 2.547l-2.093 1.3c-.398-.82-1.165-1.328-2.147-1.328-1.465 0-2.506 1.216-2.506 2.717 0 1.5 1.031 2.717 2.506 2.717ZM87.86 15.17c-1.578 0-2.526-1.244-2.526-2.778 0-1.535.966-2.779 2.525-2.779 1.56 0 2.526 1.244 2.526 2.779 0 1.534-.948 2.778-2.526 2.778Zm.3-7.98c2.662 0 4.577 2.328 4.577 5.202 0 2.873-1.896 5.202-4.577 5.202-1.19 0-2.15-.537-2.826-1.414v5.08h-2.352V7.465h2.352v1.138c.676-.876 1.636-1.414 2.826-1.414Zm-9.699 10.148V7.485h2.352v9.853H78.46Zm-4.383-8.17c.454-1.194 1.379-1.877 2.772-1.88v2.838c-1.633-.167-2.813.71-2.77 2.783 0-.001 0-.003-.002-.005v4.434h-2.351V7.485h2.351v1.683Zm4.383-2.998V3.543h2.43V6.17h-2.43Z"/></g><defs><clipPath id="a"><path fill="#fff" d="M0 0h100v23.622H0z"/></clipPath></defs></svg>