<svg xmlns="http://www.w3.org/2000/svg" width="62.745" height="64" fill="none" viewBox="0 0 50 51"><g clip-path="url(#a)"><path fill="#0062FF" fill-rule="evenodd" d="M6.523 45.68c0 2.744 1.775 4.523 4.512 4.523h13.18c7.863 0 14.295-2.668 18.668-7.338H6.523v2.814ZM24.215 0h-13.18C8.298 0 6.523 1.78 6.523 4.524V7.34h36.36C38.51 2.668 32.078 0 24.215 0Zm11.503 32.255c0 2.22 1.441 3.66 3.665 3.66h7.898c.895-2.228 1.496-4.677 1.776-7.32h-9.674c-2.224 0-3.666 1.44-3.666 3.66ZM24.77 17.966c0 2.22 1.442 3.66 3.666 3.66h20.621c-.28-2.642-.881-5.092-1.776-7.32H28.436c-2.224 0-3.666 1.44-3.666 3.66Zm3.663 14.29c0-2.221-1.442-3.661-3.665-3.661H6.523v7.32h18.245c2.223 0 3.665-1.44 3.665-3.66Zm-10.947-14.29c0-2.22-1.442-3.66-3.665-3.66H6.523v7.32h7.298c2.223 0 3.665-1.44 3.665-3.66Z" clip-rule="evenodd"/></g><defs><clipPath id="a"><path fill="#fff" d="M0 0h50v50.685H0z"/></clipPath></defs></svg>