<svg xmlns="http://www.w3.org/2000/svg" width="60.377" height="64" fill="none" viewBox="0 0 50 53"><g clip-path="url(#a)"><path fill="#f4c345" d="M11.924 0H3.215A2.926 2.926 0 0 0 .29 2.926v17.417a2.926 2.926 0 0 0 2.926 2.926h8.709a11.634 11.634 0 0 0 0-23.269Z"/><path fill="#ff7e69" d="M19.674 5.817h-8.709A2.926 2.926 0 0 0 8.04 8.745V26.16a2.927 2.927 0 0 0 2.926 2.926h8.709a11.634 11.634 0 1 0 0-23.268Z"/><path fill="#391145" d="M27.431 11.635h-8.708a2.927 2.927 0 0 0-2.926 2.926v17.416a2.926 2.926 0 0 0 2.926 2.927h8.708a11.635 11.635 0 0 0 0-23.27Z"/><path fill="#52a8ce" d="M35.19 17.452h-8.71a2.926 2.926 0 0 0-2.926 2.926v17.416a2.927 2.927 0 0 0 2.926 2.927h8.708a11.634 11.634 0 0 0 0-23.27Z"/><path fill="#391145" d="m35.825 51.783 4.075-3.938a3.2 3.2 0 0 1 2.701-.866l5.51.817a.912.912 0 0 0 .874-1.438L35.927 28.549a.915.915 0 0 0-1.654.537V51.13a.916.916 0 0 0 1.552.654Z"/></g><defs><clipPath id="a"><path fill="#fff" d="M0 0h50v52.041H0z"/></clipPath></defs></svg>