<svg xmlns="http://www.w3.org/2000/svg" width="320" height="64" fill="none" viewBox="0 0 100 20"><g clip-path="url(#a)"><path fill="#391145" d="m28.137 11.79.201 1.197h1.836V3.866h-2.12V7.1c-.343-.7-.995-1.114-1.99-1.114-1.042 0-1.895.474-2.357 1.469-.237.51-.355 1.125-.355 1.907v.201c0 2.37 1.03 3.554 2.7 3.554 1.066 0 1.742-.521 2.085-1.327Zm-1.374-.51c-.735 0-1.244-.485-1.244-1.728v-.154c0-1.078.474-1.635 1.28-1.635.781 0 1.279.592 1.279 1.635v.154c0 1.16-.521 1.729-1.315 1.729ZM38.011 10.807h-2.286c-.154.391-.497.652-1.101.652-.841 0-1.303-.427-1.41-1.28h4.845v-.77c0-1.255-.462-2.321-1.48-2.96-.51-.32-1.173-.475-1.979-.475-1.433 0-2.5.58-3.091 1.647-.297.521-.439 1.149-.439 1.895v.201c0 2.133 1.102 3.447 3.495 3.447 2.013 0 3.068-.912 3.447-2.357ZM34.624 7.61c.805 0 1.208.438 1.303 1.22h-2.713c.142-.83.616-1.22 1.41-1.22ZM41.911 13.176c1.433 0 2.357-.45 2.831-1.16.225-.368.344-.77.344-1.232 0-.806-.344-1.28-.853-1.564-.521-.284-1.15-.403-1.753-.486-1.02-.13-1.6-.201-1.6-.628 0-.331.237-.58.9-.58.64 0 1.008.237 1.102.734h2.12c-.2-1.385-1.113-2.297-3.198-2.297-1.954 0-2.996.923-2.996 2.274 0 .829.331 1.303.852 1.575.51.285 1.138.391 1.73.474.569.06 1.09.13 1.374.284.154.083.225.202.225.356 0 .379-.284.604-.971.604-.711 0-1.126-.284-1.268-.841h-2.227c.225 1.587 1.327 2.487 3.388 2.487ZM47.018 5.726c.888 0 1.29-.285 1.29-1.067 0-.805-.438-1.077-1.29-1.077-.877 0-1.291.272-1.291 1.077 0 .806.343 1.067 1.29 1.067Zm-1.125.438v6.823h2.238V6.152c-.083.047-.379.107-.699.118-.154.012-.284.024-.414.024-.237 0-.593-.024-.865-.06-.142-.011-.213-.035-.26-.07ZM52.152 15.889h.095c2.605 0 3.707-.948 3.707-2.452 0-1.291-.864-2.061-2.796-2.061H51.69c-.746 0-.96-.083-.96-.32 0-.178.084-.272.45-.332.178-.012.439-.035.782-.035h.403c2.061 0 3.234-.806 3.234-2.357v-.048c0-1.042-.628-1.741-1.8-1.978.994 0 1.516-.13 1.717-.521.107-.202.166-.486.166-.853v-.201H53.36v.237c0 .568-.06.852-.343.959-.142.06-.368.095-.688.107l-.177.011c-1.789.06-2.95.806-2.95 2.263v.012c0 .971.45 1.575 1.303 1.895-.947.201-1.48.723-1.48 1.528 0 .746.485 1.208 1.362 1.35-1.019.19-1.48.64-1.48 1.327 0 .616.32 1.054 1.255 1.291.474.13 1.137.178 1.99.178Zm.237-6.622c-.64 0-1.043-.272-1.043-.876v-.048c0-.651.45-.947 1.055-.947.604 0 1.042.237 1.042.936v.047c0 .604-.403.888-1.054.888Zm.035 5.106h-.296c-.935 0-1.267-.273-1.267-.593v-.012c0-.367.426-.592 1.137-.627h1.054c.794 0 1.042.201 1.042.52 0 .415-.461.712-1.67.712ZM58.668 12.987v-3.59c0-.947.296-1.563 1.125-1.563.794 0 1.007.545 1.007 1.398v3.755h2.18V8.616c0-1.67-.794-2.642-2.334-2.642-1.066 0-1.765.51-2.132 1.303l-.202-1.16h-1.835v6.87h2.19ZM66.966 13.176c1.433 0 2.357-.45 2.83-1.16.226-.368.344-.77.344-1.232 0-.806-.343-1.28-.852-1.564-.521-.284-1.15-.403-1.753-.486-1.02-.13-1.6-.201-1.6-.628 0-.331.237-.58.9-.58.64 0 1.008.237 1.102.734h2.12c-.2-1.385-1.113-2.297-3.198-2.297-1.954 0-2.996.923-2.996 2.274 0 .829.331 1.303.853 1.575.509.285 1.137.391 1.729.474.568.06 1.09.13 1.374.284.154.083.225.202.225.356 0 .379-.284.604-.971.604-.71 0-1.126-.284-1.268-.841h-2.227c.225 1.587 1.327 2.487 3.388 2.487ZM75.286 12.987v-2.002h-.438c-.687 0-.983-.071-1.114-.438a3.817 3.817 0 0 1-.082-.877V8.024h1.634V6.116h-1.634V4.4h-1.778c-.011.284-.035.651-.07.936-.06.592-.225.77-.676.829a3.027 3.027 0 0 1-.675.07v1.79h1.161v2.072c0 1.434.237 2.24.983 2.618.38.178.9.273 1.6.273h1.089ZM76.188 12.987h2.203V9.942c0-.829.141-1.29.592-1.492.237-.107.556-.166.97-.166h.807V6.022h-.391c-1.244 0-1.931.426-2.156 1.504l-.296-1.41h-1.73v6.87ZM82.783 5.726c.889 0 1.291-.285 1.291-1.067 0-.805-.438-1.077-1.29-1.077-.877 0-1.292.272-1.292 1.077 0 .806.344 1.067 1.291 1.067Zm-1.125.438v6.823h2.239V6.152c-.083.047-.38.107-.7.118-.153.012-.283.024-.414.024-.237 0-.592-.024-.865-.06-.142-.011-.213-.035-.26-.07ZM89.208 13.117c1.042 0 1.884-.474 2.346-1.469.236-.51.355-1.125.355-1.907V9.54c0-2.37-1.019-3.566-2.713-3.566-1.042 0-1.73.522-2.073 1.327l-.2-1.184h-1.837v9.215h2.12v-3.34c.344.71.983 1.125 2.002 1.125Zm-.734-1.8c-.782 0-1.291-.569-1.291-1.635v-.154c0-1.16.52-1.73 1.303-1.73.746 0 1.29.522 1.29 1.742v.166c0 1.078-.509 1.61-1.302 1.61ZM99.644 10.807h-2.286c-.154.391-.497.652-1.101.652-.841 0-1.303-.427-1.41-1.28h4.845v-.77c0-1.255-.462-2.321-1.48-2.96-.51-.32-1.174-.475-1.98-.475-1.432 0-2.498.58-3.09 1.647-.297.521-.439 1.149-.439 1.895v.201c0 2.133 1.102 3.447 3.494 3.447 2.014 0 3.068-.912 3.447-2.357ZM96.257 7.61c.805 0 1.208.438 1.303 1.22h-2.713c.142-.83.616-1.22 1.41-1.22Z"/><path fill="#F4C345" d="M4.461 0H1.204A1.095 1.095 0 0 0 .109 1.095v6.514a1.095 1.095 0 0 0 1.095 1.095h3.257a4.352 4.352 0 0 0 0-8.704Z"/><path fill="#FF7E69" d="M7.36 2.176H4.102a1.094 1.094 0 0 0-1.094 1.095v6.514a1.095 1.095 0 0 0 1.094 1.095H7.36a4.352 4.352 0 0 0 0-8.704Z"/><path fill="#391145" d="M10.266 4.352H7.009a1.094 1.094 0 0 0-1.095 1.094v6.515a1.095 1.095 0 0 0 1.095 1.095h3.257a4.352 4.352 0 0 0 0-8.704Z"/><path fill="#52A8CE" d="M13.164 6.528H9.907a1.095 1.095 0 0 0-1.095 1.094v6.515a1.095 1.095 0 0 0 1.095 1.095h3.257a4.352 4.352 0 0 0 0-8.704Z"/><path fill="#391145" d="m13.4 19.37 1.525-1.474a1.201 1.201 0 0 1 1.01-.324l2.061.306a.341.341 0 0 0 .327-.538l-4.884-6.661a.343.343 0 0 0-.619.2v8.246a.343.343 0 0 0 .58.244Z"/></g><defs><clipPath id="a"><path fill="#fff" d="M0 0h100v19.466H0z"/></clipPath></defs></svg>