<svg xmlns="http://www.w3.org/2000/svg" width="376.471" height="64" fill="none" viewBox="0 0 100 17"><g fill="#0069FF" clip-path="url(#a)"><path fill-rule="evenodd" d="M8.428 16.754V13.51c3.464 0 6.126-3.404 4.805-7.026a4.83 4.83 0 0 0-2.903-2.886C6.687 2.285 3.263 4.952 3.263 8.375H0C0 2.902 5.325-1.378 11.09.414c2.523.776 4.525 2.786 5.326 5.294a8.407 8.407 0 0 1-7.988 11.046" clip-rule="evenodd"/><path fill-rule="evenodd" d="M8.43 13.53H5.189v-3.225H8.43zm-3.248 2.487H2.68V13.53h2.502zM2.68 13.53H.578v-2.07H2.66v2.07zm27.294-8.658c-.961-.657-2.163-.995-3.564-.995h-3.043v9.633h3.043c1.401 0 2.603-.358 3.564-1.055.52-.378.94-.896 1.22-1.553.281-.656.441-1.413.441-2.269 0-.855-.14-1.612-.44-2.249-.28-.656-.68-1.174-1.221-1.512m-4.824.617h.96c1.062 0 1.943.199 2.603.617.741.438 1.121 1.294 1.121 2.508 0 1.254-.38 2.13-1.12 2.607-.641.418-1.502.637-2.583.637h-.961v-6.37zm8.622-1.752c-.3 0-.54.1-.74.299s-.321.438-.321.736c0 .299.1.538.3.757.2.199.46.298.761.298.3 0 .54-.1.76-.298.2-.2.301-.458.301-.757 0-.298-.1-.537-.3-.736-.22-.18-.48-.299-.761-.299" clip-rule="evenodd"/><path d="M34.612 6.703h-1.721v6.787h1.721z"/><path fill-rule="evenodd" d="M40.836 7.28c-.52-.458-1.1-.716-1.721-.716-.941 0-1.742.318-2.343.975-.62.637-.92 1.453-.92 2.428 0 .955.3 1.771.9 2.428.601.637 1.402.956 2.343.956.66 0 1.221-.18 1.701-.538v.16c0 .557-.16.994-.44 1.293-.3.299-.72.458-1.221.458-.801 0-1.281-.319-1.902-1.115l-1.161 1.115.04.04q.39.537 1.141 1.015c.5.318 1.161.497 1.902.497 1.02 0 1.842-.318 2.442-.935s.921-1.453.921-2.468v-6.17h-1.682zm-.46 4c-.3.339-.68.498-1.18.498-.501 0-.882-.159-1.162-.497-.3-.339-.44-.777-.44-1.334s.14-.995.44-1.333c.3-.339.68-.498 1.161-.498.5 0 .881.16 1.181.498s.44.796.44 1.333c.02.557-.14.995-.44 1.334Z" clip-rule="evenodd"/><path d="M45.706 6.703h-1.722v6.787h1.722z"/><path fill-rule="evenodd" d="M44.866 3.737c-.3 0-.54.1-.741.299s-.32.438-.32.736c0 .299.1.538.3.757.2.199.46.298.76.298.301 0 .541-.1.761-.298.2-.2.3-.458.3-.757 0-.298-.1-.537-.3-.736-.22-.18-.46-.299-.76-.299m4.601 1.135h-1.681v1.83h-.981v1.553h.98v2.807c0 .875.18 1.512.521 1.87.36.359.981.558 1.842.558.28 0 .56 0 .84-.02h.08v-1.553l-.58.04c-.4 0-.68-.08-.82-.219s-.2-.438-.2-.895V8.275h1.6V6.723h-1.6zm9.65-1.015h1.722v9.633h-1.722zm19.041 7.205c-.3.338-.62.636-.86.796-.24.159-.541.219-.882.219-.5 0-.92-.18-1.24-.558-.321-.378-.501-.855-.501-1.433q0-.865.48-1.433c.32-.378.741-.557 1.242-.557.56 0 1.14.338 1.64.936l1.142-1.075c-.74-.956-1.681-1.393-2.803-1.393-.94 0-1.761.338-2.422 1.015-.66.676-1 1.512-1 2.527s.34 1.871 1 2.528a3.28 3.28 0 0 0 2.422 1.015c1.242 0 2.243-.537 2.923-1.513l-1.14-1.074Zm7.045-3.404a2.6 2.6 0 0 0-.981-.816c-.4-.199-.881-.298-1.422-.298-.96 0-1.741.358-2.322 1.035-.58.696-.86 1.552-.86 2.547 0 1.035.32 1.871.94 2.528.621.637 1.462.975 2.483.975q1.742 0 2.822-1.373l.04-.04-1.12-1.075c-.1.12-.261.259-.381.398-.16.16-.32.279-.5.359a2 2 0 0 1-.861.199c-.48 0-.861-.14-1.162-.418-.28-.26-.44-.597-.48-1.035h4.544l.02-.617q0-.657-.18-1.254a5 5 0 0 0-.58-1.115M81.46 9.251c.08-.319.24-.598.44-.797.24-.218.54-.338.901-.338q.63 0 .96.358c.2.22.321.478.341.796H81.46zM91.79 7.22c-.52-.438-1.24-.656-2.142-.656-.58 0-1.1.119-1.581.358-.44.219-.881.597-1.162 1.094l.02.02 1.102 1.055c.46-.716.96-.975 1.621-.975.36 0 .661.1.881.279s.34.418.34.736v.338a4.6 4.6 0 0 0-1.261-.199c-.86 0-1.541.2-2.062.597-.52.398-.78.976-.78 1.692 0 .637.22 1.155.66 1.533s1 .557 1.662.557c.66 0 1.26-.259 1.822-.716v.557h1.681V9.13c-.02-.836-.28-1.473-.8-1.91Zm-3.043 3.682c.2-.139.46-.199.82-.199.421 0 .862.08 1.302.24v.656c-.38.338-.88.517-1.481.517-.3 0-.52-.06-.681-.199a.58.58 0 0 1-.24-.497c0-.22.08-.398.28-.518m10.43-3.562c-.48-.538-1.142-.796-2.002-.796-.681 0-1.241.199-1.642.577v-.418h-1.681v6.787h1.721V9.748c0-.517.12-.915.36-1.214s.58-.438 1.022-.438c.38 0 .68.12.9.378.22.259.32.617.32 1.075v3.92h1.722V9.55q0-1.403-.72-2.21m-42.222-.12c-.52-.438-1.242-.656-2.142-.656-.58 0-1.101.119-1.582.358a2.8 2.8 0 0 0-1.161 1.094l.02.02 1.1 1.055c.462-.716.962-.975 1.623-.975.36 0 .66.1.88.279s.34.418.34.736v.338a4.6 4.6 0 0 0-1.26-.199c-.861 0-1.542.2-2.062.597-.521.398-.781.976-.781 1.692 0 .637.22 1.155.66 1.533s1.001.557 1.662.557c.66 0 1.261-.259 1.822-.716v.557h1.681V9.13c-.02-.836-.28-1.473-.8-1.91m-3.044 3.682c.2-.139.46-.199.821-.199.42 0 .86.08 1.301.24v.656c-.38.338-.88.517-1.481.517-.3 0-.52-.06-.68-.199a.58.58 0 0 1-.24-.497c0-.22.08-.398.28-.518Zm13.136 2.728c-2.742 0-4.984-2.23-4.984-4.957s2.242-4.956 4.984-4.956 4.985 2.23 4.985 4.956-2.222 4.956-4.985 4.956Zm0-8.18a3.21 3.21 0 0 0-3.223 3.203 3.21 3.21 0 0 0 3.223 3.205 3.21 3.21 0 0 0 3.223-3.205 3.21 3.21 0 0 0-3.223-3.204Z" clip-rule="evenodd"/></g><defs><clipPath id="a"><path fill="#fff" d="M0 0h100v16.754H0z"/></clipPath></defs></svg>