<svg xmlns="http://www.w3.org/2000/svg" width="228.571" height="64" fill="none" viewBox="0 0 100 28"><path fill="#000" d="M30.494 5.771c.428-.005.84.168 1.135.478.31.306.48.726.472 1.161.008.43-.161.846-.467 1.148a1.52 1.52 0 0 1-1.12.476 1.54 1.54 0 0 1-1.143-.483 1.62 1.62 0 0 1-.472-1.174c0-.883.714-1.6 1.597-1.603zm-1.258 5.468h2.515v10.483h-2.515zm10.935 1.66-1.558 1.558q-.95-.95-1.73-.95a1.1 1.1 0 0 0-.662.179.54.54 0 0 0-.088.82c.223.197.477.356.75.473l.922.46q1.455.72 2 1.465a3.05 3.05 0 0 1-.436 3.98q-.983.893-2.631.893a4.18 4.18 0 0 1-3.491-1.712l1.558-1.686c.291.34.644.623 1.04.834.315.188.671.298 1.038.32.287.014.57-.07.803-.24a.7.7 0 0 0 .304-.553q0-.582-1.096-1.132l-.847-.424q-2.431-1.226-2.431-3.067a2.66 2.66 0 0 1 .916-2.031 3.33 3.33 0 0 1 2.338-.844 4.07 4.07 0 0 1 3.299 1.657zm11.715.626-2.094 1.15a3.6 3.6 0 0 0-1.166-.857 3.5 3.5 0 0 0-1.35-.239 3.15 3.15 0 0 0-2.284.842 2.86 2.86 0 0 0-.872 2.156 2.77 2.77 0 0 0 .838 2.077c.595.56 1.39.858 2.206.826q1.688 0 2.628-1.15l1.985 1.358q-1.614 2.096-4.551 2.096-2.644 0-4.14-1.558a5.208 5.208 0 0 1 1.26-8.278 6.06 6.06 0 0 1 2.927-.709 5.9 5.9 0 0 1 2.68.595 5.1 5.1 0 0 1 1.933 1.69Zm6.194-2.286a5.3 5.3 0 0 1 2.668.71 5.2 5.2 0 0 1 2.65 4.55 5.26 5.26 0 0 1-.705 2.652 5.1 5.1 0 0 1-1.914 1.932 5.3 5.3 0 0 1-2.68.696 5 5 0 0 1-3.68-1.535 5.1 5.1 0 0 1-1.525-3.727 5.254 5.254 0 0 1 5.194-5.278zm.042 2.369a2.6 2.6 0 0 0-1.95.815 2.9 2.9 0 0 0-.78 2.078 2.95 2.95 0 0 0 .78 2.12 2.58 2.58 0 0 0 1.95.81 2.6 2.6 0 0 0 1.966-.82c.53-.572.811-1.331.78-2.11a2.9 2.9 0 0 0-.78-2.096 2.6 2.6 0 0 0-1.966-.797m6.813-2.11h2.543v4.827a6.7 6.7 0 0 0 .192 1.958c.113.343.331.641.623.852.312.21.682.317 1.058.304.378.012.75-.092 1.067-.299.306-.216.534-.525.652-.88q.156-.435.156-1.852v-4.91h2.514v4.248q0 2.625-.415 3.592a3.93 3.93 0 0 1-1.494 1.818 4.57 4.57 0 0 1-2.506.631q-1.65 0-2.668-.738a3.9 3.9 0 0 1-1.431-2.054q-.29-.92-.29-3.325V11.5Zm10.47 0h2.156v1.263c.2-.456.521-.848.93-1.132a2.25 2.25 0 0 1 1.27-.387c.356.007.707.096 1.023.26l-.779 2.165a1.7 1.7 0 0 0-.727-.22q-.582 0-.982.72-.4.718-.4 2.817v4.538H75.4l.005-10.023Zm12.499 1.4-1.558 1.56q-.95-.952-1.723-.951a1.1 1.1 0 0 0-.662.179.54.54 0 0 0-.088.82c.224.194.477.35.75.465l.922.46q1.455.72 2 1.465a3.05 3.05 0 0 1-.436 3.98q-.982.893-2.631.893a4.18 4.18 0 0 1-3.501-1.714l1.558-1.686c.291.34.643.623 1.039.834a2.3 2.3 0 0 0 1.055.317c.287.014.57-.07.802-.24a.7.7 0 0 0 .283-.54q0-.582-1.096-1.132l-.847-.424q-2.43-1.226-2.43-3.067a2.66 2.66 0 0 1 .916-2.031 3.33 3.33 0 0 1 2.338-.844 4.07 4.07 0 0 1 3.299 1.657h.01Zm11.945 4.338h-8.078c.09.663.423 1.269.936 1.7.55.435 1.239.659 1.94.63a3.35 3.35 0 0 0 2.423-.984l2.12.995a5 5 0 0 1-1.9 1.662 5.9 5.9 0 0 1-2.625.538q-2.358 0-3.842-1.489a5.06 5.06 0 0 1-1.472-3.722 5.23 5.23 0 0 1 1.478-3.81 4.97 4.97 0 0 1 3.709-1.514q2.365 0 3.852 1.514 1.485 1.515 1.483 4.002zm-2.514-1.982a2.52 2.52 0 0 0-.971-1.36 2.86 2.86 0 0 0-1.702-.52 3 3 0 0 0-1.846.59c-.41.35-.726.796-.922 1.298zM13.473 0C6.158 0 0 5.93 0 13.247v13.717l13.47-.013c7.314 0 13.247-6.159 13.247-13.473S20.779 0 13.473 0"/><path fill="#fff9ae" d="M13.602 5.127A8.213 8.213 0 0 0 6.384 17.25l-1.486 4.78 5.335-1.206A8.21 8.21 0 1 0 13.61 5.127z"/><path fill="#00aeef" d="M20.022 18.42a8.21 8.21 0 0 1-9.788 2.39l-5.336 1.221 5.432-.641a8.208 8.208 0 0 0 9.787-13.047 8.21 8.21 0 0 1-.095 10.076Z"/><path fill="#00a94f" d="M19.563 16.86a8.21 8.21 0 0 1-9.485 3.4l-5.18 1.771 5.335-1.208A8.208 8.208 0 0 0 18.605 6.83a8.21 8.21 0 0 1 .958 10.03"/><path fill="#f15d22" d="M6.875 17.431a8.21 8.21 0 0 1 13.247-9.09 8.21 8.21 0 0 0-13.738 8.908l-1.486 4.78z"/><path fill="#d0232b" d="M6.38 17.25A8.21 8.21 0 0 1 18.603 6.828 8.21 8.21 0 0 0 5.874 17.122l-.976 4.91 1.483-4.783Z"/></svg>