<svg xmlns="http://www.w3.org/2000/svg" width="228.571" height="64" fill="none" viewBox="0 0 100 28"><path fill="#000" d="M30.494 5.771c.428-.005.84.168 1.135.478.31.306.48.726.472 1.161.008.43-.161.846-.467 1.148a1.52 1.52 0 0 1-1.12.476 1.543 1.543 0 0 1-1.143-.483 1.618 1.618 0 0 1-.472-1.174c0-.883.714-1.6 1.597-1.603l-.002-.003Zm-1.258 5.468h2.515v10.483h-2.515V11.24Zm10.935 1.66-1.558 1.558c-.634-.634-1.21-.95-1.73-.95a1.084 1.084 0 0 0-.662.179.54.54 0 0 0-.088.82c.223.197.477.356.75.473l.922.46c.97.48 1.637.968 2 1.465a3.05 3.05 0 0 1-.436 3.98c-.655.595-1.532.893-2.631.893a4.181 4.181 0 0 1-3.491-1.712l1.558-1.686c.291.34.644.623 1.04.834.315.188.671.298 1.038.32.287.014.57-.07.803-.24a.694.694 0 0 0 .304-.553c0-.388-.366-.765-1.096-1.132l-.847-.424c-1.621-.817-2.431-1.84-2.431-3.067a2.662 2.662 0 0 1 .916-2.031 3.327 3.327 0 0 1 2.338-.844 4.067 4.067 0 0 1 3.299 1.657h.002Zm11.715.626-2.094 1.15a3.557 3.557 0 0 0-1.166-.857 3.51 3.51 0 0 0-1.35-.239 3.148 3.148 0 0 0-2.284.842 2.857 2.857 0 0 0-.872 2.156 2.77 2.77 0 0 0 .838 2.077c.595.56 1.39.858 2.206.826 1.125 0 2.002-.383 2.628-1.15l1.985 1.358c-1.076 1.398-2.593 2.096-4.551 2.096-1.763 0-3.143-.52-4.14-1.558a5.208 5.208 0 0 1 1.26-8.278 6.063 6.063 0 0 1 2.927-.709 5.908 5.908 0 0 1 2.68.595c.778.389 1.444.971 1.933 1.69Zm6.194-2.286a5.314 5.314 0 0 1 2.668.71 5.195 5.195 0 0 1 2.65 4.55 5.259 5.259 0 0 1-.705 2.652 5.086 5.086 0 0 1-1.914 1.932 5.306 5.306 0 0 1-2.68.696 5 5 0 0 1-3.68-1.535 5.09 5.09 0 0 1-1.525-3.727 5.254 5.254 0 0 1 5.194-5.278h-.008Zm.042 2.369a2.598 2.598 0 0 0-1.95.815 2.896 2.896 0 0 0-.78 2.078 2.946 2.946 0 0 0 .78 2.12 2.575 2.575 0 0 0 1.95.81 2.597 2.597 0 0 0 1.966-.82c.53-.572.811-1.331.78-2.11.03-.774-.25-1.529-.78-2.096a2.597 2.597 0 0 0-1.966-.797Zm6.813-2.11h2.543v4.827a6.713 6.713 0 0 0 .192 1.958c.113.343.331.641.623.852.312.21.682.317 1.058.304.378.012.75-.092 1.067-.299.306-.216.534-.525.652-.88.104-.29.156-.907.156-1.852v-4.91h2.514v4.248c0 1.75-.138 2.947-.415 3.592-.3.744-.822 1.379-1.494 1.818a4.571 4.571 0 0 1-2.506.631c-1.1 0-1.99-.246-2.668-.738a3.896 3.896 0 0 1-1.431-2.054c-.194-.613-.29-1.721-.29-3.325V11.5Zm10.47 0h2.156v1.263c.2-.456.521-.848.93-1.132a2.246 2.246 0 0 1 1.27-.387c.356.007.707.096 1.023.26l-.779 2.165a1.729 1.729 0 0 0-.727-.22c-.388 0-.715.24-.982.72-.267.479-.4 1.418-.4 2.817v4.538H75.4l.005-10.023Zm12.499 1.4-1.558 1.56c-.633-.635-1.207-.951-1.723-.951a1.084 1.084 0 0 0-.662.179.54.54 0 0 0-.088.82c.224.194.477.35.75.465l.922.46c.97.48 1.637.968 2 1.465a3.052 3.052 0 0 1-.436 3.98c-.654.595-1.532.893-2.631.893a4.182 4.182 0 0 1-3.501-1.714l1.558-1.686c.291.34.643.623 1.039.834a2.3 2.3 0 0 0 1.055.317c.287.014.57-.07.802-.24a.694.694 0 0 0 .283-.54c0-.388-.365-.765-1.096-1.132l-.847-.424c-1.62-.817-2.43-1.84-2.43-3.067a2.662 2.662 0 0 1 .916-2.031 3.33 3.33 0 0 1 2.338-.844 4.067 4.067 0 0 1 3.299 1.657h.01Zm11.945 4.338h-8.078c.09.663.423 1.269.936 1.7.55.435 1.239.659 1.94.63a3.35 3.35 0 0 0 2.423-.984l2.12.995a5.002 5.002 0 0 1-1.9 1.662 5.937 5.937 0 0 1-2.625.538c-1.572 0-2.853-.497-3.842-1.489a5.063 5.063 0 0 1-1.472-3.722 5.234 5.234 0 0 1 1.478-3.81 4.966 4.966 0 0 1 3.709-1.514c1.577 0 2.861.504 3.852 1.514.99 1.01 1.484 2.344 1.483 4.002l-.024.478Zm-2.514-1.982a2.523 2.523 0 0 0-.971-1.36 2.857 2.857 0 0 0-1.702-.52 3.012 3.012 0 0 0-1.846.59c-.41.35-.726.796-.922 1.298l5.441-.008ZM13.473 0C6.158 0 0 5.93 0 13.247v13.717l13.47-.013c7.314 0 13.247-6.159 13.247-13.473C26.717 6.164 20.779 0 13.473 0Z"/><path fill="#FFF9AE" d="M13.602 5.127A8.213 8.213 0 0 0 6.384 17.25l-1.486 4.78 5.335-1.206A8.21 8.21 0 1 0 13.61 5.127h-.008Z"/><path fill="#00AEEF" d="M20.022 18.42a8.208 8.208 0 0 1-9.788 2.39l-5.336 1.221 5.432-.641a8.208 8.208 0 0 0 9.787-13.047 8.208 8.208 0 0 1-.095 10.076Z"/><path fill="#00A94F" d="M19.563 16.86a8.208 8.208 0 0 1-9.485 3.4l-5.18 1.771 5.335-1.208A8.208 8.208 0 0 0 18.605 6.83a8.208 8.208 0 0 1 .958 10.03Z"/><path fill="#F15D22" d="M6.875 17.431a8.21 8.21 0 0 1 13.247-9.09 8.21 8.21 0 0 0-13.738 8.908l-1.486 4.78 1.977-4.598Z"/><path fill="#D0232B" d="M6.38 17.25A8.21 8.21 0 0 1 18.603 6.828 8.21 8.21 0 0 0 5.874 17.122l-.976 4.91 1.483-4.783Z"/></svg>