<svg xmlns="http://www.w3.org/2000/svg" width="320" height="64" fill="none" viewBox="0 0 100 20"><g fill="#5862E3" clip-path="url(#a)"><path d="M20.969 1.575A20.4 20.4 0 0 0 15.857 0c-.225.387-.475.912-.65 1.325a19.542 19.542 0 0 0-5.664 0A16.257 16.257 0 0 0 8.893 0c-1.8.3-3.512.837-5.113 1.575C.542 6.35-.333 11.012.105 15.612a20.835 20.835 0 0 0 6.263 3.137c.5-.675.95-1.4 1.338-2.162a13.116 13.116 0 0 1-2.113-1.013c.175-.125.35-.262.513-.4 4.075 1.863 8.488 1.863 12.513 0 .175.138.337.275.512.4-.675.4-1.374.738-2.112 1.013.388.762.838 1.487 1.338 2.162a20.72 20.72 0 0 0 6.263-3.137c.537-5.325-.851-9.95-3.651-14.037Zm-12.7 11.2c-1.226 0-2.226-1.113-2.226-2.476 0-1.362.975-2.474 2.225-2.474 1.238 0 2.25 1.112 2.225 2.474 0 1.363-.987 2.475-2.225 2.475Zm8.213 0c-1.225 0-2.226-1.113-2.226-2.476 0-1.362.976-2.474 2.226-2.474 1.237 0 2.25 1.112 2.224 2.474 0 1.363-.974 2.475-2.224 2.475ZM33.281 3.924h5.314c1.275 0 2.362.2 3.25.6.887.4 1.55.95 1.987 1.663.438.712.663 1.525.663 2.45 0 .9-.225 1.712-.688 2.45-.462.725-1.162 1.312-2.1 1.737-.937.425-2.1.637-3.487.637H33.28V3.924Zm4.876 7.113c.863 0 1.525-.213 1.988-.65.462-.425.7-1.025.7-1.763 0-.687-.213-1.237-.625-1.65-.413-.412-1.038-.625-1.875-.625h-1.663v4.688h1.475ZM52.769 13.45a6.752 6.752 0 0 1-1.988-.838V10.35c.45.35 1.038.625 1.788.85.75.225 1.475.337 2.175.337.325 0 .575-.037.737-.125.163-.087.25-.187.25-.312 0-.138-.05-.25-.138-.338-.087-.087-.262-.162-.525-.237l-1.637-.363c-.937-.212-1.6-.525-2-.9-.4-.375-.587-.887-.587-1.512 0-.525.175-.988.512-1.375.35-.388.838-.688 1.475-.9.638-.213 1.375-.325 2.237-.325.763 0 1.463.075 2.1.25.638.162 1.163.375 1.575.625v2.137a6.066 6.066 0 0 0-1.475-.6 6.665 6.665 0 0 0-1.724-.225c-.85 0-1.275.15-1.275.438 0 .137.062.237.2.312.137.075.374.138.724.213l1.363.25c.887.15 1.55.425 1.987.812.438.388.65.95.65 1.713 0 .825-.362 1.487-1.087 1.962-.725.487-1.75.725-3.075.725a10.498 10.498 0 0 1-2.262-.313ZM62.569 13.162c-.775-.387-1.375-.9-1.763-1.55-.4-.65-.587-1.387-.587-2.212 0-.812.2-1.55.612-2.187.413-.65 1.013-1.15 1.8-1.525.788-.363 1.738-.55 2.838-.55 1.362 0 2.487.287 3.387.862v2.488a3.983 3.983 0 0 0-1.113-.525 4.357 4.357 0 0 0-1.35-.2c-.85 0-1.5.15-1.987.462-.475.313-.712.713-.712 1.213 0 .487.225.887.7 1.2.462.312 1.137.475 2.012.475.45 0 .9-.063 1.337-.2.438-.138.825-.288 1.138-.488v2.412c-1 .6-2.163.9-3.475.9-1.112 0-2.05-.2-2.837-.575ZM72.425 13.162c-.788-.387-1.388-.9-1.8-1.562A4.118 4.118 0 0 1 70 9.375c0-.812.213-1.55.625-2.187.412-.638 1.012-1.138 1.787-1.5.775-.363 1.713-.55 2.789-.55 1.075 0 2.012.175 2.787.55.775.362 1.375.862 1.788 1.5.412.637.612 1.362.612 2.187 0 .813-.2 1.563-.612 2.225-.413.662-1 1.188-1.788 1.563-.787.374-1.712.574-2.787.574-1.064 0-1.989-.2-2.776-.575Zm4.138-2.412c.325-.325.5-.775.5-1.312 0-.55-.162-.975-.5-1.3-.337-.325-.787-.488-1.35-.488-.587 0-1.038.163-1.376.488-.325.325-.5.75-.5 1.3s.163.987.5 1.312c.338.338.79.5 1.376.5.563-.012 1.026-.175 1.35-.5ZM88.747 5.637v2.938c-.35-.225-.8-.338-1.35-.338-.725 0-1.288.225-1.675.663-.388.437-.588 1.124-.588 2.05v2.5h-3.337V5.5h3.275v2.537c.175-.925.475-1.612.875-2.05.4-.437.925-.675 1.562-.675.475 0 .888.113 1.238.325ZM99.996 3.65v9.812H96.66v-1.788c-.288.675-.713 1.188-1.288 1.538-.575.35-1.288.525-2.138.525-.75 0-1.412-.188-1.975-.55-.562-.363-1-.875-1.3-1.513-.3-.65-.45-1.375-.45-2.175-.012-.837.15-1.587.488-2.25a3.74 3.74 0 0 1 1.4-1.55c.6-.374 1.287-.562 2.062-.562 1.588 0 2.651.688 3.201 2.075V3.65h3.337Zm-3.837 7.037c.337-.325.512-.763.512-1.288 0-.512-.162-.925-.5-1.237-.337-.313-.787-.475-1.35-.475-.563 0-1.013.162-1.35.487-.338.325-.5.738-.5 1.263 0 .525.162.937.5 1.262.337.325.775.488 1.337.488.563 0 1.013-.163 1.351-.5ZM47.573 5.975c.959 0 1.738-.7 1.738-1.562 0-.863-.779-1.563-1.738-1.563-.96 0-1.737.7-1.737 1.563 0 .862.777 1.562 1.737 1.562ZM49.31 7.05a4.47 4.47 0 0 1-3.474 0v6.411h3.475V7.05Z"/></g><defs><clipPath id="a"><path fill="#fff" d="M0 0h100v19.355H0z"/></clipPath></defs></svg>