<svg xmlns="http://www.w3.org/2000/svg" width="82.051" height="64" fill="none" viewBox="0 0 50 39"><g clip-path="url(#a)"><path fill="#5865F2" d="M42.326 3.242A40.673 40.673 0 0 0 32.018 0a30.194 30.194 0 0 0-1.32 2.744 37.82 37.82 0 0 0-11.425 0A29.36 29.36 0 0 0 17.936 0 40.533 40.533 0 0 0 7.62 3.25C1.096 13.116-.672 22.737.212 32.222c4.327 3.234 8.52 5.198 12.643 6.484a31.462 31.462 0 0 0 2.708-4.463 26.605 26.605 0 0 1-4.264-2.077c.357-.265.707-.543 1.045-.828 8.222 3.849 17.154 3.849 25.278 0 .342.285.691.563 1.045.828a26.536 26.536 0 0 1-4.272 2.08 31.332 31.332 0 0 0 2.708 4.464c4.126-1.286 8.324-3.25 12.65-6.488 1.038-10.995-1.772-20.528-7.427-28.98ZM16.683 26.389c-2.468 0-4.492-2.306-4.492-5.114s1.98-5.118 4.492-5.118c2.511 0 4.535 2.306 4.492 5.118.004 2.808-1.981 5.114-4.492 5.114Zm16.6 0c-2.468 0-4.492-2.306-4.492-5.114s1.98-5.118 4.492-5.118c2.511 0 4.535 2.306 4.492 5.118 0 2.808-1.98 5.114-4.492 5.114Z"/></g><defs><clipPath id="a"><path fill="#fff" d="M0 0h50v38.71H0z"/></clipPath></defs></svg>