<svg xmlns="http://www.w3.org/2000/svg" width="62.745" height="64" fill="none" viewBox="0 0 50 51"><g clip-path="url(#a)"><path fill="#000" d="M25.18 0C11.51 0 0 11.082 0 24.757v25.636l25.175-.024c13.67 0 24.757-11.51 24.757-25.18S38.835 0 25.18 0Z"/><path fill="#FFF9AE" d="M25.423 9.583a15.35 15.35 0 0 0-13.49 22.655L9.156 41.17l9.971-2.252a15.345 15.345 0 1 0 6.31-29.335h-.014Z"/><path fill="#00AEEF" d="M37.422 34.424a15.34 15.34 0 0 1-18.295 4.47l-9.97 2.28 10.15-1.198c6.729 3.942 15.345 2.207 20.024-4.031 4.68-6.239 3.934-14.995-1.733-20.353a15.34 15.34 0 0 1-.176 18.832Z"/><path fill="#00A94F" d="M36.564 31.51a15.34 15.34 0 0 1-17.728 6.354l-9.68 3.31 9.971-2.257c7.101 3.208 15.48.582 19.48-6.105s2.35-15.31-3.834-20.05a15.34 15.34 0 0 1 1.79 18.747Z"/><path fill="#F15D22" d="M12.85 32.578a15.345 15.345 0 0 1 24.758-16.99c-4.863-6.383-13.822-7.94-20.555-3.575-6.732 4.366-8.964 13.181-5.12 20.225L9.156 41.17l3.694-8.593Z"/><path fill="#D0232B" d="M11.929 32.238a15.345 15.345 0 0 1 22.84-19.476c-5.51-5.802-14.554-6.396-20.776-1.364-6.222 5.032-7.532 14-3.01 20.602l-1.826 9.175 2.772-8.937Z"/></g><defs><clipPath id="a"><path fill="#fff" d="M0 0h50v50.485H0z"/></clipPath></defs></svg>