<svg xmlns="http://www.w3.org/2000/svg" width="320" height="64" fill="none" viewBox="0 0 100 20"><g fill="#5862e3" clip-path="url(#a)"><path d="M20.969 1.575A20.4 20.4 0 0 0 15.857 0c-.225.387-.475.912-.65 1.325a19.5 19.5 0 0 0-5.664 0A16 16 0 0 0 8.893 0c-1.8.3-3.512.837-5.113 1.575C.542 6.35-.333 11.012.105 15.612a20.8 20.8 0 0 0 6.263 3.137c.5-.675.95-1.4 1.338-2.162a13 13 0 0 1-2.113-1.013c.175-.125.35-.262.513-.4 4.075 1.863 8.488 1.863 12.513 0 .175.138.337.275.512.4-.675.4-1.374.738-2.112 1.013.388.762.838 1.487 1.338 2.162a20.7 20.7 0 0 0 6.263-3.137c.537-5.325-.851-9.95-3.651-14.037m-12.7 11.2c-1.226 0-2.226-1.113-2.226-2.476s.975-2.474 2.225-2.474c1.238 0 2.25 1.112 2.225 2.474 0 1.363-.987 2.475-2.225 2.475Zm8.213 0c-1.225 0-2.226-1.113-2.226-2.476s.976-2.474 2.226-2.474c1.237 0 2.25 1.112 2.224 2.474 0 1.363-.974 2.475-2.224 2.475Zm16.799-8.851h5.314c1.275 0 2.362.2 3.25.6s1.55.95 1.987 1.663c.438.712.663 1.525.663 2.45a4.5 4.5 0 0 1-.688 2.45c-.462.725-1.162 1.312-2.1 1.737q-1.406.637-3.487.637h-4.94zm4.876 7.113c.863 0 1.525-.213 1.988-.65.462-.425.7-1.025.7-1.763 0-.687-.213-1.237-.625-1.65s-1.038-.625-1.875-.625h-1.663v4.688zm14.612 2.413a6.8 6.8 0 0 1-1.988-.838V10.35c.45.35 1.038.625 1.788.85q1.125.337 2.175.337c.325 0 .575-.037.737-.125.163-.087.25-.187.25-.312 0-.138-.05-.25-.138-.338-.087-.087-.262-.162-.525-.237l-1.637-.363c-.937-.212-1.6-.525-2-.9s-.587-.887-.587-1.512c0-.525.175-.988.512-1.375.35-.388.838-.688 1.475-.9s1.375-.325 2.237-.325c.763 0 1.463.075 2.1.25.638.162 1.163.375 1.575.625v2.137a6 6 0 0 0-1.475-.6 6.7 6.7 0 0 0-1.724-.225c-.85 0-1.275.15-1.275.438 0 .137.062.237.2.312.137.075.374.138.724.213l1.363.25c.887.15 1.55.425 1.987.812s.65.95.65 1.713c0 .825-.362 1.487-1.087 1.962-.725.487-1.75.725-3.075.725a10.5 10.5 0 0 1-2.262-.313Zm9.8-.288c-.775-.387-1.375-.9-1.763-1.55-.4-.65-.587-1.387-.587-2.212 0-.812.2-1.55.612-2.187.413-.65 1.013-1.15 1.8-1.525.788-.363 1.738-.55 2.838-.55 1.362 0 2.487.287 3.387.862v2.488a4 4 0 0 0-1.113-.525 4.4 4.4 0 0 0-1.35-.2c-.85 0-1.5.15-1.987.462-.475.313-.712.713-.712 1.213 0 .487.225.887.7 1.2.462.312 1.137.475 2.012.475.45 0 .9-.063 1.337-.2.438-.138.825-.288 1.138-.488v2.412c-1 .6-2.163.9-3.475.9-1.112 0-2.05-.2-2.837-.575m9.856 0c-.788-.387-1.388-.9-1.8-1.562A4.1 4.1 0 0 1 70 9.375c0-.812.213-1.55.625-2.187.412-.638 1.012-1.138 1.787-1.5s1.713-.55 2.789-.55c1.075 0 2.012.175 2.787.55.775.362 1.375.862 1.788 1.5.412.637.612 1.362.612 2.187 0 .813-.2 1.563-.612 2.225-.413.662-1 1.188-1.788 1.563-.787.374-1.712.574-2.787.574-1.064 0-1.989-.2-2.776-.575m4.138-2.412c.325-.325.5-.775.5-1.312 0-.55-.162-.975-.5-1.3q-.506-.488-1.35-.488c-.587 0-1.038.163-1.376.488-.325.325-.5.75-.5 1.3s.163.987.5 1.312c.338.338.79.5 1.376.5.563-.012 1.026-.175 1.35-.5m12.184-5.113v2.938q-.525-.338-1.35-.338c-.725 0-1.288.225-1.675.663-.388.437-.588 1.124-.588 2.05v2.5h-3.337V5.5h3.275v2.537c.175-.925.475-1.612.875-2.05s.925-.675 1.562-.675c.475 0 .888.113 1.238.325M99.996 3.65v9.812H96.66v-1.788c-.288.675-.713 1.188-1.288 1.538q-.863.525-2.138.525c-.75 0-1.412-.188-1.975-.55a3.6 3.6 0 0 1-1.3-1.513q-.45-.975-.45-2.175-.019-1.255.488-2.25a3.74 3.74 0 0 1 1.4-1.55q.9-.561 2.062-.562c1.588 0 2.651.688 3.201 2.075V3.65h3.337Zm-3.837 7.037c.337-.325.512-.763.512-1.288 0-.512-.162-.925-.5-1.237s-.787-.475-1.35-.475q-.845 0-1.35.487c-.338.325-.5.738-.5 1.263s.162.937.5 1.262.775.488 1.337.488c.563 0 1.013-.163 1.351-.5M47.573 5.975c.959 0 1.738-.7 1.738-1.562s-.779-1.563-1.738-1.563c-.96 0-1.737.7-1.737 1.563 0 .862.777 1.562 1.737 1.562M49.31 7.05a4.47 4.47 0 0 1-3.474 0v6.411h3.475z"/></g><defs><clipPath id="a"><path fill="#fff" d="M0 0h100v19.355H0z"/></clipPath></defs></svg>