<svg xmlns="http://www.w3.org/2000/svg" width="160" height="64" fill="none" viewBox="0 0 65 26"><g clip-path="url(#a)"><mask id="b" width="65" height="26" x="0" y="0" maskUnits="userSpaceOnUse" style="mask-type:luminance"><path fill="#fff" d="M64.5 0H.5v26h64z"/></mask><g mask="url(#b)"><path fill="#fff" d="M32.691 2.956c.423.02.826.18 1.146.458.436.412.55 1.1.344 1.65-.802 1.65-2.708 2.752-4.01 3.116-.78.184-1.765.184-2.476-.091-.343.206-.634.872-1.054.595-.608-.474-.081-1.217-.432-1.745-.073-.108-.255-.116-.347-.294-.481-1.054.115-2.062.78-2.864 1.107-1.236 4.285-2.613 6.05-.825m-3.69.824c-.618.115-1.317.384-1.695.826-.378.44-.619.87-.39 1.329.803-.596 1.192-1.421 2.086-1.925 0-.092.137-.16 0-.23m3.736.23c-1.581-.138-2.773 1.054-3.896 2.2-.068.183-.48.389-.16.595 1.513.138 2.956-.297 4.056-1.306.321-.298.55-.687.39-1.1a.8.8 0 0 0-.39-.39m13.703 6.829c.734 1.787 1.352 4.605 0 6.324-.366.413-1.008.793-1.42.482-1.513-1.215-2.154-2.956-3.094-4.515-.137-.069-.137.115-.206.184-.343 1.58.298 3.643-.779 4.88a.825.825 0 0 1-.94-.55c-.526-1.626.023-3.322.16-4.95.322-.824.459-1.787 1.17-2.405 1.145.458 1.695 1.741 2.36 2.68.481.711.87 1.513 1.42 2.155.481-.206.244-.835.23-1.215-.185-1.49-.597-2.864-.987-4.285-.022-.366-.228-.985.16-1.214 1.033.458 1.468 1.535 1.926 2.429m-6.92-.55c0 .343-.275.773-.505.825-2.2.343-4.651.137-6.714.824-.068.252.23.298.39.367 1.764.275 3.62.344 5.34.78.908.23 1.237 1.306 1.306 2.2.042.704-.229 1.557-.917 2.039-1.695 1.077-4.285 1.03-6.004.046-.657-.369-1.283-.962-1.329-1.696.004-.582.253-1.04.665-1.26 1.65-.665 3.69-.298 5.11.55.091.458-.405.433-.642.596-1.581.916-2.773-1.03-4.24-.321-.206.137-.355.52-.114.641 1.81.803 3.827.23 5.614-.275.207-.068.459-.274.481-.48-.068-.734-.893-.894-1.42-1.1-1.558-.39-3.277-.39-4.95-.55-.32-.069-.73-.292-.825-.55-.183-.55-.183-1.306.23-1.764 2.13-1.88 5.361-1.719 8.065-1.215.184.068.39.136.459.343m-10.014.87c.206 2.2.32 4.24.275 6.554-.046.298-.39.367-.619.481-.366.07-.84-.009-.985-.206-.527-.848-.344-1.993-.39-3.025.07-1.626.046-3.39.505-4.904.087-.22.343-.412.55-.275.55.275.641.825.664 1.375m25.46-.32c.11.185.225.471 0 .595-1.032.459-2.429.252-3.621.39-.32.275-.573.733-.459 1.146.115.068.218.173.344.16.733.046 1.834-.344 2.315.343.118.205-.016.968-.343.986-.894.115-2.365-.112-2.797.115-.55.367-.504 1.077-.71 1.65.39.252.798-.006 1.26-.069.849-.137 1.788-.39 2.636-.206.16.298.39.619.229.985-1.445 1.146-3.308 2.32-5.294 1.49-.745-.334-1.077-1.467-.824-2.429.16-.687.87-1.352.435-2.085-.069-.321.115-.596.39-.665.756 0 .595-.94.985-1.375-.435-.48-1.535-.458-1.42-1.42.527-.275 1.169-.184 1.764-.275 1.352-.276 2.864-.436 4.24-.276.274.055.64.596.87.94M22.242 5.614c2.114 1.728 4.858 4.675 4.514 8.066-.413 2.682-3.254 4.698-5.66 5.34-2.338.687-5.27.618-7.654.069-.16.435-.321.962-.825 1.145-.32.115-.734.046-.986-.16-.71-.665-.137-1.948-1.168-2.36-2.017-.848-4.194-2.521-5.225-4.583-.138-.413.023-.825.275-1.146 1.581-1.26 3.575-1.764 5.569-2.154.114.046.068-.115.16-.16.114-1.375.16-2.773.596-4.01.099-.175.343-.23.504-.115 1.26.962.664 2.773 1.214 4.078 2.407.115 4.813.23 6.715 1.582.642.527.798 1.533.595 2.108-.202.574-.87.986-1.49 1.03-.412 0-1.19.041-1.145-.274.046-.315 1.402-.83.986-1.26-.6-.618-3.594-.986-5.45-1.215-.23-.046-.44.023-.44.275-.046 1.741-.183 3.666.115 5.34a.41.41 0 0 0 .275.274c3.277.527 6.737.23 9.304-1.65 1.191-.962 1.581-2.315 1.374-3.804-1.03-4.147-5.362-6.646-8.914-8.25A25.1 25.1 0 0 0 4.092 1.695c-.653.048-1.688.274-1.696.505-.007.23 1.173.158 1.031.595-.14.437-1.34.178-1.695.07-.356-.11-.321-.62-.23-.94C2.397.342 4.892.214 6.018.16 12.25 0 18.277 2.373 22.242 5.614m-11.23 6.141c-1.58.023-3.253.184-4.72.733-.298.115-.665.436-.436.826.596.801 1.448 1.46 2.246 1.924.799.464 1.857 1.055 2.82 1.192.228-1.49.228-2.956.205-4.491-.092-.046 0-.138-.114-.184M58.38 9.67c-.069 1.993-1.926 3.231-1.926 5.225.069.068.115.16.206.115 1.49-1.627 2.957-3.942 5.134-4.63.574-.045 1.092.453 1.306.826.757 1.512.574 3.644-.48 5.018-1.088 1.35-2.98 2.704-5.133 2.475a29.4 29.4 0 0 0-1.857 6.92c-.183.482-.618.047-.893-.045-1.856-1.467-.332-5.349-.206-5.844.125-.494.622-1.66.985-2.636-.87-1.558-.32-3.437.39-4.88.55-.963 1.306-1.926 2.2-2.659.113 0 .205.023.274.115m3.69 2.475c-.275-.046-.39.32-.619.39-1.054 1.191-2.108 2.383-2.635 3.804.71.091 1.306-.367 1.925-.619 1.054-.665 1.719-1.764 1.65-3.025-.046-.207-.23-.367-.321-.55"/></g></g><defs><clipPath id="a"><path fill="#fff" d="M.5 0h64v26H.5z"/></clipPath></defs></svg>