<svg xmlns="http://www.w3.org/2000/svg" width="182.857" height="64" fill="none" viewBox="0 0 100 35"><g clip-path="url(#a)"><path fill="#000" fill-rule="evenodd" d="M29.922 1.27c-3.024 3.024.174 7.584 4.351 6.205 2.878-.95 3.617-4.061 1.473-6.205-1.693-1.693-4.13-1.693-5.824 0m-13.96 6.87v6.042l-.926-1.357c-1.446-2.117-3.35-2.956-6.33-2.785-3.541.202-5.585 1.607-7.15 4.914C-1.231 20.85-.161 28.775 3.873 32.1c3.607 2.974 9.56 2.4 11.463-1.103.588-1.084.594-1.077.61.86l.017 1.955h8.652l-.108-15.74-.108-15.741-4.218-.117-4.218-.118zm27.076-.767-.121 2.778-1.561.129-1.56.128.12 2.958.12 2.958 1.543.127 1.543.128v6.614c0 5.913.088 6.756.83 7.956 1.392 2.253 4.823 3.39 8.747 2.9 3.52-.44 3.43-.193 2.154-5.838-.152-.677-.426-.826-1.233-.672-1.986.38-2.267-.354-2.267-5.916v-5.094h4.115v-6.128l-1.955-.126-1.955-.125-.121-2.778-.122-2.778H43.16l-.122 2.778Zm17.368.103v2.88h-2.88v6.173h2.825l.13 6.762c.146 7.528.368 8.2 3.26 9.905 2.229 1.313 10.086 1.058 9.638-.313-.092-.28-.374-1.564-.627-2.853-.453-2.307-.484-2.345-1.98-2.469l-1.518-.126-.115-5.43-.114-5.43 1.966-.125 1.967-.126.12-2.984.122-2.983h-4.152V4.595h-8.642v2.88Zm22.518 3.06c-6.552 2.338-9.47 10.037-6.457 17.039 1.932 4.492 6.51 6.96 12.125 6.535 7.056-.533 11.038-4.859 11.069-12.025.032-7.544-4.627-12.168-12.213-12.122-1.632.01-3.668.268-4.524.573M28.719 22.084v11.728h8.23V10.356h-8.23zm60.831-5.017c1.618 1.722 1.908 6.724.536 9.255-1.126 2.079-4.015 1.962-5.126-.208-2.736-5.345 1.053-12.812 4.59-9.047m-74.654.728c.906 1.076 1.066 1.664 1.066 3.93 0 3.071-.782 4.94-2.312 5.521-2.795 1.063-4.68-1.126-4.682-5.439-.002-2.356.15-2.926 1.063-4.012.796-.946 1.411-1.267 2.433-1.267s1.636.32 2.432 1.267" clip-rule="evenodd"/></g><defs><clipPath id="a"><path fill="#fff" d="M0 0h100v34.568H0z"/></clipPath></defs></svg>