<svg xmlns="http://www.w3.org/2000/svg" width="177.778" height="64" fill="none" viewBox="0 0 50 18"><g clip-path="url(#a)"><path fill="#000" fill-rule="evenodd" d="M14.96.635c-1.51 1.51.088 3.79 2.177 3.1 1.439-.474 1.808-2.03.736-3.1-.847-.847-2.065-.847-2.912 0ZM7.98 4.067v3.019l-.462-.678C6.795 5.35 5.843 4.931 4.353 5.016c-1.77.101-2.792.803-3.575 2.456-1.394 2.946-.86 6.906 1.158 8.568 1.804 1.485 4.78 1.2 5.731-.551.295-.542.297-.539.306.43l.008.976h4.326l-.054-7.865-.054-7.865-2.11-.059-2.108-.059v3.02Zm13.54-.383-.062 1.388-.78.064-.78.064.06 1.478.06 1.478.771.064.772.064v3.304c0 2.955.044 3.376.415 3.976.696 1.126 2.411 1.694 4.373 1.449 1.76-.22 1.715-.096 1.078-2.917-.077-.338-.213-.413-.617-.336-.993.19-1.134-.177-1.134-2.956V8.26h2.058V5.197l-.977-.063-.978-.062-.06-1.388-.061-1.388H21.58l-.06 1.388Zm8.683.051v1.44h-1.44v3.084h1.412l.066 3.378c.072 3.762.183 4.098 1.63 4.95 1.114.656 5.043.528 4.819-.157-.046-.14-.188-.781-.314-1.425-.227-1.153-.242-1.172-.99-1.234l-.759-.063-.058-2.713-.057-2.713.983-.063.984-.063.06-1.49.06-1.492h-2.075V2.295h-4.32v1.44Zm11.259 1.53c-3.276 1.167-4.735 5.015-3.229 8.513.967 2.245 3.256 3.478 6.063 3.266 3.528-.267 5.519-2.428 5.534-6.01.017-3.769-2.313-6.08-6.106-6.056-.816.005-1.834.134-2.262.286Zm-27.103 5.77v5.86h4.116V5.175h-4.116v5.86Zm30.416-2.507c.81.86.954 3.36.268 4.624-.563 1.04-2.008.98-2.563-.103-1.368-2.671.527-6.402 2.295-4.521Zm-37.327.364c.453.537.533.831.533 1.963 0 1.535-.391 2.469-1.156 2.76-1.398.53-2.34-.564-2.341-2.719 0-1.177.075-1.462.532-2.004.398-.473.705-.633 1.216-.633.51 0 .818.16 1.216.633Z" clip-rule="evenodd"/></g><defs><clipPath id="a"><path fill="#fff" d="M0 0h50v17.273H0z"/></clipPath></defs></svg>