<svg xmlns="http://www.w3.org/2000/svg" width="246.154" height="64" fill="none" viewBox="0 0 100 26"><g fill="#4990df" clip-path="url(#a)"><path d="M47.017 7.601a.955.955 0 0 0-.984.987v4.745a5.296 5.296 0 0 0-7.457.816 5.33 5.33 0 0 0-1.169 3.331 5.31 5.31 0 0 0 5.212 5.405 5.31 5.31 0 0 0 5.392-5.405V8.593a.94.94 0 0 0-.289-.708.98.98 0 0 0-.705-.28zM45.772 18.76a3.38 3.38 0 0 1-1.765 1.78 3.33 3.33 0 0 1-2.605 0 3.33 3.33 0 0 1-1.755-1.775 3.32 3.32 0 0 1 0-2.581 3.315 3.315 0 0 1 4.36-1.767 3.38 3.38 0 0 1 1.765 1.78c.348.822.348 1.75 0 2.572m12.318-5.052a5.294 5.294 0 0 0-7.499.004 5.32 5.32 0 0 0-1.551 3.755 5.31 5.31 0 0 0 5.211 5.405 5.31 5.31 0 0 0 5.393-5.405 5.5 5.5 0 0 0-.393-2.04 5.2 5.2 0 0 0-1.16-1.719Zm-.684 5.038c-.17.394-.41.753-.71 1.058a3.4 3.4 0 0 1-1.057.722 3.33 3.33 0 0 1-2.602 0 3.33 3.33 0 0 1-1.758-1.775 3.317 3.317 0 0 1 5.416-3.62 3.31 3.31 0 0 1 .71 3.63m22.612-5.623c0-.13-.026-.26-.079-.38a1.1 1.1 0 0 0-.215-.31.94.94 0 0 0-.697-.289.96.96 0 0 0-.53.155l-5.661 3.692V8.602a.96.96 0 0 0-.29-.707.94.94 0 0 0-.7-.294.99.99 0 0 0-.993.984v13.203a.97.97 0 0 0 .289.702c.183.193.439.3.704.295a.94.94 0 0 0 .698-.295.97.97 0 0 0 .288-.702v-3.42l1.155-.76 4.376 4.926c.177.17.415.263.661.255a1 1 0 0 0 .388-.076.9.9 0 0 0 .31-.212q.136-.14.214-.32a.9.9 0 0 0 .079-.379c0-.257-.097-.505-.274-.692l-4.067-4.593 3.965-2.581a.89.89 0 0 0 .379-.789m-16.432 1.971a3.4 3.4 0 0 1 1.062-.713c.41-.175.851-.263 1.296-.26a3.2 3.2 0 0 1 1.155.207c.37.15.712.359 1.013.62.182.146.41.224.644.22a.953.953 0 0 0 .994-.991.97.97 0 0 0-.342-.75 5.05 5.05 0 0 0-3.456-1.29 5.31 5.31 0 0 0-5.302 5.315 5.3 5.3 0 0 0 5.281 5.32 5.3 5.3 0 0 0 3.477-1.293 1 1 0 0 0 .31-.73.955.955 0 0 0-.985-.986 1.06 1.06 0 0 0-.626.207 3.4 3.4 0 0 1-1.003.612c-.37.14-.76.209-1.155.205a3.25 3.25 0 0 1-1.296-.26 3.33 3.33 0 0 1-1.076-5.414l.014-.015m36.087-2.297a1.85 1.85 0 0 0-.667-.403 4 4 0 0 0-.88-.204 7 7 0 0 0-.894-.056 5.2 5.2 0 0 0-1.78.31c-.56.204-1.082.5-1.547.873v-.198a.992.992 0 0 0-1.98 0v8.655a.992.992 0 0 0 1.98 0v-4.326a3.3 3.3 0 0 1 .26-1.302c.167-.394.408-.753.71-1.056a3.4 3.4 0 0 1 1.055-.713c.41-.175.853-.263 1.299-.26a3.5 3.5 0 0 1 1.296.237c.13.063.273.098.418.104a1 1 0 0 0 .388-.076.9.9 0 0 0 .309-.214q.133-.136.213-.31a1 1 0 0 0 .08-.389.88.88 0 0 0-.266-.664m-9.189 2.61a5.38 5.38 0 0 0-4.914-3.269 5.31 5.31 0 0 0-5.302 5.312v.002a5.31 5.31 0 0 0 5.303 5.318 5.3 5.3 0 0 0 3.465-1.29l.038-.037a1.1 1.1 0 0 0 .224-.245c.319-.46.205-1.09-.253-1.41a.99.99 0 0 0-1.223.11l-.14.129-.014.012a3.2 3.2 0 0 1-.952.558c-.368.13-.756.194-1.145.189a3.3 3.3 0 0 1-1.058-.17 3.34 3.34 0 0 1-1.661-1.22 3.3 3.3 0 0 1-.473-.954h7.498a.97.97 0 0 0 .704-.28.93.93 0 0 0 .29-.707 5.3 5.3 0 0 0-.389-2.045zm-8.107 1.061c.1-.342.256-.665.464-.954a3.3 3.3 0 0 1 .739-.74c.287-.207.603-.368.938-.48a3.3 3.3 0 0 1 2.096 0c.668.223 1.25.65 1.666 1.22.212.289.374.611.479.954zm-46.78-6.671c-.097-.077-1.006-.765-2.923-.765a9.3 9.3 0 0 0-1.51.13c-.37-2.548-2.473-3.79-2.567-3.846l-.514-.298-.339.49a6.9 6.9 0 0 0-.915 2.144c-.343 1.455-.134 2.82.603 3.989-.89.497-2.319.62-2.608.63H1.178a1.126 1.126 0 0 0-1.122 1.12 17.1 17.1 0 0 0 1.036 6.09c.814 2.141 2.026 3.718 3.602 4.684 1.767 1.084 4.637 1.704 7.89 1.704 1.47.004 2.937-.13 4.382-.399a18.3 18.3 0 0 0 5.719-2.082 15.7 15.7 0 0 0 3.902-3.202c1.874-2.125 2.99-4.493 3.82-6.596h.33c2.051 0 3.313-.823 4.008-1.512.462-.44.823-.975 1.057-1.57l.147-.43z"/><path d="M3.37 11.614h3.17a.277.277 0 0 0 .276-.278V8.507a.277.277 0 0 0-.275-.278H3.37a.277.277 0 0 0-.276.277v2.83c0 .153.124.277.276.277Zm4.361 0H10.9a.277.277 0 0 0 .276-.278V8.507a.277.277 0 0 0-.275-.278h-3.17a.28.28 0 0 0-.278.278v2.83a.28.28 0 0 0 .278.277m4.436 0h3.169a.277.277 0 0 0 .276-.278V8.507a.277.277 0 0 0-.275-.278h-3.17a.277.277 0 0 0-.276.277v2.83c0 .153.124.277.276.277Zm4.383 0h3.168a.28.28 0 0 0 .279-.278V8.507a.28.28 0 0 0-.279-.278H16.55a.277.277 0 0 0-.277.277v2.83c0 .153.124.277.277.277Zm-8.819-4.07H10.9a.28.28 0 0 0 .276-.279V4.436a.277.277 0 0 0-.276-.277H7.73a.28.28 0 0 0-.278.277v2.829a.28.28 0 0 0 .278.279Zm4.436 0h3.169a.28.28 0 0 0 .276-.279V4.436a.277.277 0 0 0-.276-.277h-3.169a.277.277 0 0 0-.276.277v2.829c0 .153.123.278.276.279m4.383 0h3.168a.28.28 0 0 0 .279-.279V4.436a.28.28 0 0 0-.279-.277H16.55a.277.277 0 0 0-.277.277v2.829a.28.28 0 0 0 .277.279m0-4.071h3.168a.28.28 0 0 0 .279-.278V.365a.28.28 0 0 0-.279-.277H16.55a.277.277 0 0 0-.277.277v2.83c0 .153.124.278.277.278m4.414 8.141h3.169a.28.28 0 0 0 .278-.278V8.507a.28.28 0 0 0-.278-.278h-3.169a.277.277 0 0 0-.276.277v2.83c0 .153.123.277.276.277Z"/></g><defs><clipPath id="a"><path fill="#fff" d="M0 0h100v25.995H0z"/></clipPath></defs></svg>