<svg xmlns="http://www.w3.org/2000/svg" width="278.261" height="64" fill="none" viewBox="0 0 100 23"><g clip-path="url(#a)"><path fill="#000" d="M6.915 15.178c3.372 0 4.687-2.059 4.687-5.581 0-3.522-1.538-5.977-4.588-5.977H3.596v11.558h3.32ZM0 .545h7.46c4.736 0 7.786 3.82 7.786 9.052 0 2.877-.968 5.407-2.827 6.97-1.314 1.09-3.025 1.71-5.256 1.71H0V.546Zm25.516 11.384c0-2.48-1.165-4.167-3.223-4.167-2.083 0-3.224 1.686-3.224 4.167 0 2.48 1.14 4.141 3.224 4.141 2.058 0 3.223-1.661 3.223-4.141Zm-9.869 0c0-3.795 2.703-6.722 6.646-6.722 3.942 0 6.645 2.927 6.645 6.722 0 3.793-2.703 6.72-6.645 6.72-3.944 0-6.646-2.926-6.646-6.72Zm13.848 0c0-3.795 2.48-6.722 6.348-6.722 3.299 0 5.331 1.91 5.778 4.663h-3.298c-.223-1.116-1.09-1.96-2.33-1.96-2.034 0-3.075 1.564-3.075 4.019 0 2.406.966 4.018 3.024 4.018 1.364 0 2.332-.72 2.555-2.158h3.248c-.223 2.703-2.332 4.86-5.728 4.86-4.017 0-6.522-2.926-6.522-6.72Zm21.03 6.35V16.79h-.074c-.868 1.166-1.86 1.835-3.645 1.835-2.827 0-4.414-1.81-4.414-4.588V5.554h3.347v7.912c0 1.488.67 2.307 2.108 2.307 1.587 0 2.554-1.19 2.554-2.877V5.554h3.372v12.724h-3.248Zm19.678 0h3.371V5.553h-3.371v12.724Zm0-14.503h3.371V.623h-3.371v3.153Zm13.672 7.582c0-1.86-.992-3.447-3.025-3.447C79.14 7.911 78 9.25 78 11.383c0 2.157 1.14 3.423 2.876 3.423 2.133 0 3-1.563 3-3.448Zm-8.902 7.292h3.347c.273.793.991 1.414 2.554 1.414 1.91 0 2.827-.918 2.827-2.654v-1.39h-.075c-.744.844-1.71 1.489-3.323 1.489-2.826 0-5.603-2.232-5.603-6.076 0-3.795 2.28-6.226 5.504-6.226 1.587 0 2.752.62 3.521 1.687h.05v-1.34h3.248V17.31c0 1.786-.57 3.001-1.513 3.87-1.066.991-2.702 1.438-4.586 1.438-3.472 0-5.605-1.488-5.952-3.968h.001ZM91.768 7.29h.074c.868-1.363 2.034-2.083 3.77-2.083C98.24 5.207 100 7.191 100 9.97v8.309h-3.372v-7.813c0-1.364-.794-2.331-2.207-2.331-1.488 0-2.579 1.19-2.579 2.926v7.217H88.47V5.554h3.298v1.737Zm-29.25.298c-2.629-.57-3.868-.991-3.868-2.43 0-1.265 1.264-2.084 3.199-2.084 1.764 0 3.114.829 3.39 2.48h3.459C68.346 2.111 65.79.222 61.873.222c-3.942 0-6.794 1.81-6.794 5.308 0 3.695 2.901 4.539 6.075 5.258 2.703.62 4.39.967 4.39 2.703 0 1.637-1.613 2.282-3.447 2.282-2.53 0-3.745-.843-3.993-2.976h-3.52c.123 3.745 2.85 5.877 7.661 5.877 3.992 0 6.893-2.008 6.893-5.605 0-3.82-2.975-4.687-6.62-5.481"/></g><defs><clipPath id="a"><path fill="#fff" d="M0 0h100v22.84H0z"/></clipPath></defs></svg>