<svg xmlns="http://www.w3.org/2000/svg" width="237.037" height="64" fill="none" viewBox="0 0 100 27"><g fill="#230078" fill-rule="evenodd" clip-path="url(#a)" clip-rule="evenodd"><path d="M38.648 17.649h-2.513v-7.606h2.513c1.056 0 1.926.353 2.59 1.052q.996 1.057.996 2.755c0 1.124-.332 2.05-.996 2.748s-1.534 1.05-2.59 1.05Zm0-10.096h-5.03V20.14h5.03c1.727 0 3.187-.61 4.345-1.815s1.75-2.711 1.75-4.475c0-1.771-.59-3.277-1.75-4.482-1.158-1.205-2.618-1.815-4.345-1.815m11.953 10.443c-.664 0-1.232-.221-1.667-.671-.442-.45-.671-1.026-.671-1.719 0-.686.229-1.262.67-1.712.436-.45 1.004-.671 1.668-.671s1.232.221 1.674.671c.451.45.68 1.026.68 1.712 0 .693-.229 1.269-.68 1.719-.442.45-1.01.671-1.674.671m3.408-5.783c-.929-.923-2.073-1.388-3.408-1.388s-2.479.465-3.4 1.388c-.923.922-1.388 2.065-1.388 3.393 0 1.335.465 2.479 1.387 3.401s2.066 1.387 3.401 1.387 2.48-.465 3.408-1.387c.923-.923 1.395-2.066 1.395-3.4 0-1.33-.473-2.472-1.395-3.394m11.047-1.304L61.73 20.14h-2.938l-3.356-9.23h2.693l2.11 6.092 2.124-6.093zm2.568 3.79c.14-.51.39-.915.76-1.203.391-.303.892-.458 1.49-.458.502 0 .959.148 1.358.437.369.271.626.678.76 1.223zm2.25-3.874c-1.394 0-2.552.458-3.445 1.366-.893.914-1.343 2.057-1.343 3.415 0 1.372.458 2.523 1.358 3.43.906.9 2.117 1.358 3.608 1.358 1.733 0 3.06-.65 3.946-1.94l.051-.067-1.983-1.143-.037.05c-.437.577-1.093.865-1.94.865-1.306 0-2.103-.502-2.42-1.527h6.691l.014-.068c.059-.331.09-.656.09-.958 0-1.343-.437-2.486-1.3-3.401-.862-.915-1.97-1.38-3.29-1.38m9.314 2.626v3.637q-.002.43.206.62c.14.132.354.206.634.228a12 12 0 0 0 1.1-.015h.074v2.228l-.067.008a10 10 0 0 1-1.196.074c-.98 0-1.718-.177-2.198-.532-.671-.486-1.003-1.365-1.003-2.61V13.45h-1.724v-2.26h1.724V9.305l2.45-.745v2.629h1.7v2.262zm7.381 4.604c-.693 0-1.269-.235-1.712-.686-.449-.45-.678-1.047-.678-1.763 0-.708.23-1.306.679-1.755.442-.459 1.025-.687 1.712-.687.686 0 1.269.228 1.726.687.45.456.678 1.047.678 1.755 0 .716-.228 1.313-.678 1.763-.457.45-1.033.686-1.727.686m2.434-7.146v1.095c-.694-.782-1.674-1.179-2.862-1.179-1.203 0-2.257.465-3.113 1.388-.863.922-1.299 2.065-1.299 3.393 0 1.335.437 2.479 1.3 3.401.856.922 1.903 1.387 3.113 1.387 1.187 0 2.168-.483 2.86-1.265v1.011h2.518v-9.23zm4.345-1.687a1.4 1.4 0 0 1-.324-.471 1.4 1.4 0 0 1-.11-.562c0-.392.144-.741.434-1.032q.434-.446 1.023-.444a1.4 1.4 0 0 1 1.044.443c.29.292.435.64.435 1.033s-.145.741-.435 1.032a1.43 1.43 0 0 1-1.044.43 1.42 1.42 0 0 1-1.023-.43Zm-.15 10.918h2.518v-9.23h-2.518zm4.197 0h2.517V6.713h-2.517zm-73.843-3.356-5.875 3.356v-6.713l-5.874-3.394 5.874-3.32 5.875 3.357zm-11.75-6.714-5.874 3.357V6.713L.055 3.357 5.929 0l5.873 3.357zm0 13.427-5.874 3.357V20.14L.056 16.783l5.873-3.356 5.874 3.357v6.713Z"/></g><defs><clipPath id="a"><path fill="#fff" d="M0 0h100v26.854H0z"/></clipPath></defs></svg>