<svg xmlns="http://www.w3.org/2000/svg" width="59.259" height="64" fill="none" viewBox="0 0 50 54"><g clip-path="url(#a)"><path fill="#5A45FF" d="m28.762.983 17.22 9.663a7.59 7.59 0 0 1 3.888 6.619v19.042a7.59 7.59 0 0 1-3.889 6.618l-17.22 9.663a7.7 7.7 0 0 1-7.528 0l-17.22-9.663a7.59 7.59 0 0 1-3.888-6.618V17.265a7.59 7.59 0 0 1 3.889-6.619L21.233.983a7.7 7.7 0 0 1 7.529 0M2.995 17.342v18.965c0 1.702.924 3.274 2.423 4.116l16.975 9.525a1.912 1.912 0 0 0 2.604-1.784V32.835a6.7 6.7 0 0 0-3.607-5.94l-1.263-.658a12 12 0 0 1-.882-.417zm17.802 6.782c3.05 1.591 5.359 1.591 8.409 0l16.485-9.255a4.75 4.75 0 0 0-2.031-2.24L27.357 3.486a4.83 4.83 0 0 0-4.72 0L6.366 12.629a4.75 4.75 0 0 0-2.031 2.24zm4.2-17.428c3.588 0 6.516 1.764 6.689 3.979l.008 3.794c0 2.312-2.998 4.185-6.697 4.185s-6.696-1.873-6.696-4.185v-3.794c.18-2.216 3.11-3.979 6.696-3.979m.001 6.697c3.107 0 5.625-1.26 5.625-2.813s-2.518-2.812-5.625-2.812-5.625 1.259-5.625 2.812c0 1.554 2.518 2.813 5.625 2.813"/></g><defs><clipPath id="a"><path fill="#fff" d="M0 0h50v53.571H0z"/></clipPath></defs></svg>