<svg xmlns="http://www.w3.org/2000/svg" width="270.933" height="64" fill="none" viewBox="0 0 127 30"><g clip-path="url(#a)"><path fill="#5A45FF" d="m16.107.55 9.643 5.412a4.252 4.252 0 0 1 2.177 3.706v10.664a4.252 4.252 0 0 1-2.177 3.706l-9.643 5.411a4.311 4.311 0 0 1-4.216 0l-9.643-5.41A4.252 4.252 0 0 1 .07 20.331V9.668c0-1.535.832-2.951 2.178-3.706L11.891.55a4.31 4.31 0 0 1 4.216 0ZM1.677 9.712v10.62c0 .954.518 1.835 1.357 2.306l9.506 5.334A1.071 1.071 0 0 0 14 26.972v-8.584a3.75 3.75 0 0 0-2.02-3.327l-.708-.368a6.959 6.959 0 0 1-.494-.234l-9.1-4.748Zm9.97 3.798c1.708.891 3 .891 4.708 0l9.232-5.182a2.659 2.659 0 0 0-1.137-1.255l-9.13-5.12a2.704 2.704 0 0 0-2.643 0l-9.112 5.12c-.516.29-.91.734-1.137 1.255l9.219 5.182Zm2.352-9.759c2.009 0 3.649.987 3.745 2.228l.005 2.125c0 1.294-1.679 2.343-3.75 2.343-2.071 0-3.75-1.049-3.75-2.343V5.978c.101-1.24 1.741-2.228 3.75-2.228Zm0 3.75c1.74 0 3.15-.705 3.15-1.575S15.74 4.35 14 4.35s-3.15.705-3.15 1.575S12.26 7.5 14 7.5Z"/><path fill="#16192F" fill-rule="evenodd" d="M42.698 15.805c0 1.202.309 2.167.927 2.897.618.73 1.433 1.094 2.446 1.094.978 0 1.776-.369 2.394-1.107.618-.738.927-1.708.927-2.91 0-1.184-.3-2.128-.9-2.832-.602-.704-1.4-1.056-2.395-1.056-.996 0-1.811.357-2.447 1.069-.635.712-.952 1.66-.952 2.845Zm9.578-12.333v18.642H50.59c-.447 0-.856-.251-1.06-.65a1.368 1.368 0 0 1-.162-.622c-.347.396-.623.729-1.275 1.09-.652.36-1.515.49-2.356.49-1.785 0-3.236-.626-4.351-1.879-1.116-1.253-1.674-2.832-1.674-4.738 0-1.836.562-3.39 1.686-4.66 1.125-1.27 2.554-1.906 4.288-1.906.995 0 1.798.18 2.407.541.61.36 1.034.781 1.275 1.262v-7.57h2.91ZM62.934 9.42v3.038h-.384c-2.249 0-3.373 1.227-3.373 3.682v5.974H56.19V9.574h1.937c.344 0 .648.222.754.549l.296.915c.142-.297.539-.957 1.232-1.288.693-.33 1.497-.33 2.321-.33h.204Zm1.674 9.295c0-1.064.347-1.918 1.043-2.562.695-.644 1.609-1.052 2.742-1.223l3.218-.49c.618-.085.927-.386.927-.9 0-.567-.197-1.026-.592-1.378-.395-.352-.987-.528-1.776-.528-.756 0-1.357.21-1.803.63-.446.421-.704.966-.772 1.636l-2.692-.026c.12-1.133.623-2.69 1.584-3.489.962-.798 2.18-1.197 3.657-1.197 1.82 0 3.162.438 4.03 1.313.866.875 1.3 2 1.3 3.373v6.231c0 .824.051 1.494.154 2.009h-1.606c-.17 0-.338-.032-.497-.092-.532-.205-.799-.537-.799-.998-.594.99-2.119 1.476-3.87 1.476-1.27 0-2.296-.373-3.077-1.12-.78-.747-1.171-1.635-1.171-2.665Zm4.815 1.442c.927 0 1.678-.253 2.253-.76.575-.506.862-1.334.862-2.485v-.566l-3.27.49c-1.115.188-1.673.754-1.673 1.699 0 .446.163.828.489 1.145.326.318.772.477 1.339.477ZM84.64 6.417c-.498 0-.931.141-1.3.425-.37.283-.554.776-.554 1.48v1.252h2.91v2.6h-2.91v9.94h-3.012v-9.94h-2.189v-2.6h.86c.734 0 1.329-.595 1.329-1.329 0-1.39.403-2.489 1.21-3.296.807-.807 1.862-1.21 3.167-1.21h1.545v2.678H84.64Zm8.083-.628v3.837h2.6v2.652h-2.6v5.819c0 .55.13.948.386 1.197.258.249.661.373 1.21.373h.41v2.653h-1.207c-1.168 0-2.086-.33-2.756-.992-.669-.66-1.004-1.575-1.004-2.742v-6.308h-2.317V9.626h.644c.635 0 1.115-.18 1.442-.541.326-.36.489-.833.489-1.416v-1.88h2.703Zm5.021-2.377h2.91v7.673c.241-.48.74-.875 1.349-1.236.61-.36 1.579-.594 2.575-.594 1.734 0 3.119.56 4.244 1.83 1.124 1.27 1.5 2.87 1.5 4.706 0 1.906-.372 3.44-1.488 4.692-1.115 1.254-2.669 1.944-4.454 1.944-.841 0-1.601-.194-2.253-.555-.652-.36-1.126-.693-1.473-1.09 0 .202-.054.41-.163.623a1.189 1.189 0 0 1-1.06.65h-1.687V3.411Zm8.646 15.303c.635-.721.953-1.691.953-2.91s-.309-2.175-.927-2.87c-.618-.696-1.433-1.044-2.446-1.044-.979 0-1.785.348-2.42 1.043-.636.696-.953 1.652-.953 2.871 0 1.202.317 2.163.953 2.884.635.721 1.441 1.081 2.42 1.081.996 0 1.802-.351 2.42-1.055Zm6.849-6.192h-1.234v-2.97h2.971v.021h1.225v12.54h-2.962v-9.59Zm.103-5.987a1.862 1.862 0 0 1-.566-1.365c0-.532.189-.991.566-1.378.378-.386.833-.579 1.365-.579.549 0 1.013.189 1.391.567.377.377.566.84.566 1.39 0 .532-.189.987-.566 1.365a1.893 1.893 0 0 1-1.391.566c-.532 0-.987-.189-1.365-.566Zm10.506-.799v3.837h2.6v2.652h-2.6v5.82c0 .549.129.948.386 1.197.258.249.661.373 1.21.373h.41v2.652h-1.208c-1.167 0-2.086-.33-2.755-.991-.67-.661-1.004-1.575-1.004-2.742v-6.309h-2.318V9.574h.644c.635 0 1.116-.18 1.442-.54.326-.361.489-.833.489-1.417v-1.88h2.704Z" clip-rule="evenodd"/></g><defs><clipPath id="a"><path fill="#fff" d="M0 0h127v30H0z"/></clipPath></defs></svg>