<svg xmlns="http://www.w3.org/2000/svg" width="270.933" height="64" fill="none" viewBox="0 0 127 30"><g clip-path="url(#a)"><path fill="#5a45ff" d="m16.107.55 9.643 5.412a4.25 4.25 0 0 1 2.177 3.706v10.664a4.25 4.25 0 0 1-2.177 3.706l-9.643 5.411a4.31 4.31 0 0 1-4.216 0l-9.643-5.41A4.25 4.25 0 0 1 .07 20.331V9.668c0-1.535.832-2.951 2.178-3.706L11.891.55a4.31 4.31 0 0 1 4.216 0M1.677 9.712v10.62c0 .954.518 1.835 1.357 2.306l9.506 5.334a1.07 1.07 0 0 0 1.46-1v-8.584a3.75 3.75 0 0 0-2.02-3.327l-.708-.368a7 7 0 0 1-.494-.234l-9.1-4.748Zm9.97 3.798c1.708.891 3 .891 4.708 0l9.232-5.182a2.66 2.66 0 0 0-1.137-1.255l-9.13-5.12a2.7 2.7 0 0 0-2.643 0l-9.112 5.12c-.516.29-.91.734-1.137 1.255zm2.352-9.759c2.009 0 3.649.987 3.745 2.228l.005 2.125c0 1.294-1.679 2.343-3.75 2.343s-3.75-1.049-3.75-2.343V5.978c.101-1.24 1.741-2.228 3.75-2.228Zm0 3.75c1.74 0 3.15-.705 3.15-1.575S15.74 4.35 14 4.35s-3.15.705-3.15 1.575S12.26 7.5 14 7.5Z"/><path fill="#16192f" fill-rule="evenodd" d="M42.698 15.805q0 1.803.927 2.897.927 1.095 2.446 1.094 1.467 0 2.394-1.107t.927-2.91q0-1.776-.9-2.832-.903-1.056-2.395-1.056-1.494 0-2.447 1.069-.952 1.068-.952 2.845m9.578-12.333v18.642H50.59a1.19 1.19 0 0 1-1.06-.65 1.4 1.4 0 0 1-.162-.622c-.347.396-.623.729-1.275 1.09-.652.36-1.515.49-2.356.49q-2.678 0-4.351-1.879t-1.674-4.738q0-2.754 1.686-4.66 1.687-1.905 4.288-1.906 1.493 0 2.407.541.914.54 1.275 1.262v-7.57h2.91ZM62.934 9.42v3.038h-.384q-3.373 0-3.373 3.682v5.974H56.19V9.574h1.937c.344 0 .648.222.754.549l.296.915c.142-.297.539-.957 1.232-1.288.693-.33 1.497-.33 2.321-.33zm1.674 9.295q0-1.596 1.043-2.562t2.742-1.223l3.218-.49q.927-.128.927-.9 0-.85-.592-1.378-.593-.528-1.776-.528-1.134 0-1.803.63-.67.631-.772 1.636l-2.692-.026c.12-1.133.623-2.69 1.584-3.489q1.442-1.197 3.657-1.197 2.729 0 4.03 1.313 1.3 1.313 1.3 3.373v6.231q0 1.236.154 2.009h-1.606q-.257-.001-.497-.092-.798-.307-.799-.998c-.594.99-2.119 1.476-3.87 1.476q-1.905 0-3.077-1.12-1.17-1.12-1.171-2.665m4.815 1.442q1.39 0 2.253-.76.862-.759.862-2.485v-.566l-3.27.49q-1.673.282-1.673 1.699 0 .67.489 1.145.489.477 1.339.477M84.64 6.417q-.747 0-1.3.425-.555.424-.554 1.48v1.252h2.91v2.6h-2.91v9.94h-3.012v-9.94h-2.189v-2.6h.86c.734 0 1.329-.595 1.329-1.329q0-2.085 1.21-3.296t3.167-1.21h1.545v2.678zm8.083-.628v3.837h2.6v2.652h-2.6v5.819q.001.824.386 1.197.387.373 1.21.373h.41v2.653h-1.207q-1.751 0-2.756-.992-1.004-.99-1.004-2.742v-6.308h-2.317V9.626h.644q.952 0 1.442-.541.489-.54.489-1.416v-1.88zm5.021-2.377h2.91v7.673c.241-.48.74-.875 1.349-1.236.61-.36 1.579-.594 2.575-.594 1.734 0 3.119.56 4.244 1.83s1.5 2.87 1.5 4.706c0 1.906-.372 3.44-1.488 4.692-1.115 1.254-2.669 1.944-4.454 1.944-.841 0-1.601-.194-2.253-.555-.652-.36-1.126-.693-1.473-1.09q0 .303-.163.623a1.19 1.19 0 0 1-1.06.65h-1.687zm8.646 15.303q.953-1.082.953-2.91c0-1.828-.309-2.175-.927-2.87q-.927-1.044-2.446-1.044-1.468 0-2.42 1.043-.953 1.043-.953 2.871 0 1.803.953 2.884.952 1.081 2.42 1.081 1.494 0 2.42-1.055m6.849-6.192h-1.234v-2.97h2.971v.021h1.225v12.54h-2.962zm.103-5.987a1.86 1.86 0 0 1-.566-1.365q0-.798.566-1.378a1.84 1.84 0 0 1 1.365-.579q.824 0 1.391.567.566.565.566 1.39 0 .798-.566 1.365a1.9 1.9 0 0 1-1.391.566q-.798 0-1.365-.566m10.506-.799v3.837h2.6v2.652h-2.6v5.82q0 .824.386 1.197.387.373 1.21.373h.41v2.652h-1.208q-1.751 0-2.755-.991t-1.004-2.742v-6.309h-2.318V9.574h.644q.953 0 1.442-.54.489-.541.489-1.417v-1.88z" clip-rule="evenodd"/></g><defs><clipPath id="a"><path fill="#fff" d="M0 0h127v30H0z"/></clipPath></defs></svg>