<svg xmlns="http://www.w3.org/2000/svg" width="237.037" height="64" fill="none" viewBox="0 0 100 27"><path fill="#0D0C22" fill-rule="evenodd" d="M99.845 19.943c-4.179 7.085-10.797 5.03-12.784 3.42-.846.574-2.33 1.832-4.308 1.686-4.212-.309-5.72-6.328-5.72-6.328.03.024-1.255.443-1.95.436-.008 1.765-1.534 5.982-5.653 5.928-4.62-.06-5.56-6.945-5.56-6.945s-.46.639-2.209 1.274c.088-1.356.024 5.464-5.515 5.565-4.378.08-5.56-6.945-5.56-6.945s-.76.789-2.232 1.063c.094-1.379-.059 5.905-5.598 5.882-3.743-.016-5.022-4.327-4.923-4.926.127-.762-1.265 5.033-4.901 4.943-1.5-.044-2.62-1.13-3.322-2.58-.94 1.076-2.304 2.58-3.834 2.58-2.747 0-3.959-2.298-3.753-8.861.017-.779-.04-1.085-.813-1.201-.465-.078-.94-.225-1.443-.302-.162.538-1.53 10.189-6.234 10.372-1.579.061-2.442-1.306-3.15-2.32-1.087 1.436-2.521 2.365-4.564 2.365C2.358 25.05 0 22.252 0 18.801s2.358-6.25 5.819-6.25c.612 0 .783.088 1.342.252C6.011 2.336 8.727.7 11.101.7c2.281 0 6.176 5.292.695 18.716 1.217 4.003 3.84 3.777 5.101-4.465.257-1.676-.43-3.937.638-4.252 1.95-.577 2.157 1.153 3.072 1.442.967.304 1.532.275 2.46.469 1.587.31 2.206 1.162 2.012 3.06-.232 2.401-.638 5.897.6 6.323.893.31 2.523-1.542 2.809-2.555s.346-1.36.371-2.103c.039-1.588.087-2.752.358-3.953.116-.464.248-.772.774-.793.433-.011 1.224-.142 1.572.13.464.348.406.702.353 1.634-.54 13.28 3.615 6.65 4.854 1.342C36.33 9.692 36.632.81 40.394.661c1.956-.078 2.82 1.49 2.916 2.66.269 3.303-1.238 8.776-3.22 12.456-1.133 7.51 4.953 8.995 5.926 3-1.592-.756-3.313-3.82-1.913-5.314.786-.838 4.057.366 4.11 2.992 1.605-.43 1.82-1.335 1.841-1.185-.44-6.003-.032-14.46 3.73-14.61C55.74.584 56.605 2.15 56.7 3.32c.27 3.304-1.238 8.777-3.22 12.458-1.133 7.51 4.953 8.994 5.926 3-1.179-.227-3.667-3.487-2.231-5.315.767-.977 4.026 1.055 4.39 3.079 1.542-.436 1.751-1.314 1.774-1.166-.442-6.002-.033-14.46 3.73-14.609 1.955-.077 2.82 1.49 2.915 2.66.27 3.304-1.238 8.776-3.22 12.457-1.133 7.51 4.953 8.994 5.927 3-1.62-.27-3.923-3.711-2.07-5.472.74-.703 3.57 1.123 4.232 3.206.92-.035 1.493-.353 1.615-.385C75 9.187 76.093.731 80.14.661c2.187-.038 4.325 1.182 3.387 7.886-.896 6.397-4.117 9.081-4.11 9.122.188.767 1.84 7.18 6.002 3.796-.215-.488-.431-.986-.551-1.59-.69-3.516.665-7.488 4.347-8.13 2.11-.368 4.097.66 4.411 2.975.517 3.789-2.904 6.533-4.206 7.128-.582-.33 5.283 3.43 8.764-4.107.201-.43.445-.394.76-.172.223.156 1.491 1.358.901 2.374M8.336 17.87a45 45 0 0 1-.669-2.201c-.708-.616-1.213-.716-2.122-.716-2.019 0-3.207 1.867-3.207 3.88s1.295 3.88 3.314 3.88c1.75 0 3.081-1.19 3.488-2.874-.285-.656-.567-1.26-.804-1.969m2.716-14.4c-1.418 0-1.9 3.385-1.806 6.272.082 2.553.796 4.8 1.166 5.807.094.126.076.044.16.178 2.463-5.397 1.442-12.257.48-12.257m29.544.107c-1.833-.21-1.822 7.428-1.594 9.142.952-1.524 2.607-8.732 1.594-9.142m13.39 0c-1.833-.21-1.821 7.428-1.594 9.142.953-1.524 2.607-8.732 1.594-9.142m13.285.106c-1.834-.21-1.822 7.428-1.595 9.142.953-1.524 2.607-8.732 1.595-9.142m13.071-.553c-2.857.573-2.192 10.099-1.758 11.77 3.366-4.623 3.435-11.944 1.758-11.77M91.05 15.033c-.145-.607-.871-.932-1.373-.852-1.434.196-2.825 1.983-2.287 4.703.12.606.42 1.163.415 1.145 3.21-2.154 3.483-3.851 3.245-4.996m-60.496-4.547a2.073 2.073 0 1 1 0-4.145 2.073 2.073 0 0 1 0 4.145" clip-rule="evenodd"/></svg>