<svg xmlns="http://www.w3.org/2000/svg" width="64" height="64" fill="none" viewBox="0 0 50 50"><g clip-path="url(#a)"><path fill="#e74d89" d="M25 1.66c12.89 0 23.32 10.43 23.32 23.3 0 12.872-10.43 23.321-23.32 23.321s-23.32-10.43-23.32-23.3C1.68 12.108 12.11 1.66 25 1.66"/><path fill="#b2215a" d="M25 49.941c-13.79 0-25-11.191-25-24.96C0 11.19 11.21 0 25 0s25 11.191 25 24.96-11.21 24.981-25 24.981M46.074 28.38c-.722-.235-6.601-1.973-13.3-.918 2.792 7.656 3.925 13.906 4.14 15.195 4.805-3.222 8.223-8.34 9.16-14.277M33.34 44.629c-.313-1.875-1.563-8.398-4.55-16.172a.4.4 0 0 1-.138.04c-12.05 4.198-16.367 12.538-16.758 13.32A21.27 21.27 0 0 0 25 46.308a20.9 20.9 0 0 0 8.34-1.68Zm-24.2-5.371c.489-.82 6.348-10.508 17.364-14.082.273-.098.566-.176.84-.254a56 56 0 0 0-1.739-3.613C14.941 24.492 4.59 24.355 3.652 24.336c0 .215-.02.43-.02.645a21.34 21.34 0 0 0 5.509 14.277ZM4.103 20.625c.957.02 9.746.059 19.746-2.598-3.535-6.289-7.364-11.562-7.91-12.324-5.997 2.813-10.45 8.32-11.836 14.922M20 4.258c.586.781 4.473 6.054 7.969 12.48 7.597-2.851 10.8-7.148 11.191-7.695A21.3 21.3 0 0 0 25 3.672c-1.719 0-3.398.215-5 .586m21.523 7.246c-.449.605-4.023 5.195-11.914 8.418a88 88 0 0 1 1.426 3.086c.156.37.313.742.469 1.094 7.11-.899 14.16.546 14.863.683a21.24 21.24 0 0 0-4.844-13.281"/></g><defs><clipPath id="a"><path fill="#fff" d="M0 0h50v50H0z"/></clipPath></defs></svg>