<svg xmlns="http://www.w3.org/2000/svg" width="44.8" height="64" fill="none" viewBox="0 0 35 50"><path fill="#111" d="M33.439.27h-.537L12.592 0c-.94 0-1.477.27-1.882.943l-.136.269L3.31 13.989l-2.15 3.9c-.135.135-.135.404-.135.672 0 .539.405.807 1.076.807h4.708c.807.134 1.346.807.941 1.48 0 .134-.134.269-.134.269L.352 33.22s-.268.27-.268.405c-.268.672.134 1.209.807 1.345h4.84c.81.135 1.214.805.81 1.612l-.134.405L.623 48.956s-.134.27-.134.405c-.136.269-.002.403.132.536l.002.002c.268.134.402.134.67 0 .137 0 .405-.268.405-.268L23.083 33.76l.268-.269a1.042 1.042 0 0 0 .27-1.075c-.27-.27-.672-.541-1.075-.541h-3.362c-.944 0-1.346-.67-.944-1.342 0-.134.133-.266.265-.398l.006-.006 9.144-10.356.405-.405c.402-.67 0-1.344-.807-1.48h-5.111c-.941-.134-1.346-.805-.941-1.478 0-.134.27-.404.27-.404L33.844 1.885c.134 0 .134-.135.268-.27.404-.537 0-1.21-.673-1.345Z"/></svg>