<svg xmlns="http://www.w3.org/2000/svg" width="266.667" height="64" fill="none" viewBox="0 0 100 24"><g fill="#111" clip-path="url(#a)"><path d="m36.52 23.325-3-7.004h-2.565v7.004h-6.814V.313h12.006c5.253 0 8.067 3.564 8.067 7.94 0 4.003-2.252 6.067-4.066 7.005l4.066 8.129h-7.692v-.062h-.001Zm.814-14.695c0-1.565-1.063-2.252-2.25-2.252h-4.129v4.564h4.128c1.188 0 2.25-.687 2.25-2.312Zm24.635 14.695V.313h17.133v6.065H68.785v3.064h10.067v6.066H68.785v7.817zM0 23.325V.313h10.13c7.13 0 12.382 4.126 12.382 11.505s-5.316 11.569-12.381 11.569H0zm15.57-11.506c0-3.127-1.75-5.44-5.44-5.44H6.879v10.88h3.253c3.438 0 5.44-2.564 5.44-5.44Zm71.288 11.506V6.378h-6.066V.313H99.74v6.065h-6.003v16.947h-6.88ZM60.469.313h.25c.313.062.5.375.313.625-.063.063-.063.125-.125.125L55.155 7.63s-.126.125-.126.188c-.188.313 0 .625.437.687h2.377c.375.063.562.376.375.688l-.188.188-4.252 4.815c-.062.063-.125.125-.125.188-.188.312 0 .624.438.624h1.563c.188 0 .375.126.5.252a.49.49 0 0 1-.125.5l-.125.124-9.943 7.38s-.124.124-.188.124c-.124.063-.187.063-.312 0-.062-.062-.125-.125-.062-.25 0-.063.062-.188.062-.188l2.69-5.565.062-.188c.188-.375 0-.687-.376-.75h-2.25c-.314-.063-.5-.312-.376-.625 0-.063.125-.188.125-.188l3.377-5.628s.062-.062.062-.125c.188-.313-.062-.626-.437-.688h-2.19c-.311 0-.5-.125-.5-.375 0-.125 0-.25.063-.313l1-1.813 3.377-5.94.063-.125c.189-.313.438-.439.876-.439l9.442.126Z"/></g><defs><clipPath id="a"><path fill="#fff" d="M0 0h100v23.762H0z"/></clipPath></defs></svg>