<svg xmlns="http://www.w3.org/2000/svg" width="320" height="64" fill="none" viewBox="0 0 100 20"><path fill="#000" fill-rule="evenodd" d="M89.313 14.653 93 9.691l-3.4-4.689h2.913l1.97 2.926 1.989-2.926h2.897l-3.453 4.672 3.637 4.98H96.69l-2.24-3.15-2.173 3.15h-2.965Z" clip-rule="evenodd"/><path fill="#000" fill-rule="evenodd" d="M80.04 10.02c0 3.186 1.739 4.879 4.82 4.879 2.884 0 4.84-1.693 4.84-4.878v-.269c0-3.218-1.99-4.996-4.84-4.996-2.783 0-4.82 1.744-4.82 4.996zm7.148.001c0 1.767-.881 2.727-2.328 2.727-1.429 0-2.31-.976-2.31-2.727v-.235c0-1.885.931-2.878 2.327-2.878 1.413 0 2.31 1.06 2.31 2.878v.235Zm-15.575 2.867c.522 1.24 1.568 2.011 3.17 2.011 2.478 0 4.097-1.81 4.097-5.027v-.285c0-3.218-1.72-4.81-4.03-4.826-1.534 0-2.613.687-3.153 1.944v-4.96H69.22v12.903h2.192l.202-1.76Zm4.755-2.993c0 1.913-.884 2.853-2.336 2.853-1.384 0-2.301-1.04-2.301-2.853v-.202c0-1.66.95-2.785 2.335-2.785 1.334 0 2.302.973 2.302 2.752zM58.21 5.014v12.959h2.475V13.12c.522 1.127 1.548 1.817 3.097 1.817 2.289 0 4.09-1.666 4.09-4.863v-.27c0-3.264-1.616-5.048-4.09-5.048-1.6 0-2.676.825-3.198 2.07l-.253-1.812zm7.15 4.998c0 1.78-.918 2.736-2.352 2.736-1.385 0-2.285-1.074-2.285-2.786v-.185c0-1.795.934-2.87 2.335-2.87 1.318 0 2.302.957 2.302 2.887zm-18.165.008c0 3.186 1.757 4.879 4.839 4.879 2.883 0 4.822-1.693 4.822-4.878v-.269c0-3.218-1.972-4.996-4.822-4.996-2.784 0-4.839 1.744-4.839 4.996zm7.15.001c0 1.767-.898 2.727-2.328 2.727s-2.31-.976-2.31-2.727v-.235c0-1.885.93-2.878 2.327-2.878 1.413 0 2.31 1.06 2.31 2.878v.235ZM40.43 14.653h2.534V10.22c0-2.049.506-2.771 2.601-2.771h1.047v-2.57h-.625c-1.807 0-2.804.79-3.192 2.335l-.321-2.212H40.43zM29.227 2.728v11.925h4.6c2.997 0 5.254-1.74 5.254-5.59v-.82c0-3.834-2.391-5.515-5.32-5.515zm2.511 2.151h1.917c1.731 0 2.914 1.094 2.914 3.5v.623c0 2.406-1.149 3.5-2.828 3.5h-2.003z" clip-rule="evenodd"/><path fill="#0056fe" d="M5.88.245.367 3.75 5.88 7.257l5.514-3.506 5.514 3.506L22.42 3.75 16.908.245 11.394 3.75zm0 14.024L.367 10.763 5.88 7.257l5.514 3.506z"/><path fill="#0056fe" d="m11.39 10.763 5.514-3.506 5.513 3.506-5.513 3.506-5.513-3.506Zm0 8.181-5.515-3.506 5.514-3.506 5.513 3.506z"/></svg>