<svg xmlns="http://www.w3.org/2000/svg" width="152.381" height="64" fill="none" viewBox="0 0 50 21"><g clip-path="url(#a)"><path fill="#e53238" d="M6.477 4.385C2.952 4.385.016 5.88.016 10.39c0 3.573 1.974 5.824 6.552 5.824 5.387 0 5.733-3.55 5.733-3.55H9.69s-.56 1.912-3.283 1.912c-2.217 0-3.811-1.498-3.811-3.597h9.977V9.663c0-2.077-1.319-5.278-6.097-5.278Zm-.091 1.683c2.11 0 3.549 1.293 3.549 3.23h-7.28c0-2.056 1.878-3.23 3.73-3.23Z"/><path fill="#0064d2" d="M12.572.017V13.95c0 .79-.056 1.9-.056 1.9h2.49s.089-.797.089-1.525c0 0 1.23 1.924 4.575 1.924 3.523 0 5.915-2.445 5.915-5.95 0-3.259-2.198-5.88-5.91-5.88-3.475 0-4.555 1.877-4.555 1.877V.016zm6.461 6.125c2.392 0 3.913 1.776 3.913 4.158 0 2.554-1.757 4.226-3.896 4.226-2.553 0-3.93-1.994-3.93-4.203 0-2.06 1.236-4.18 3.913-4.18Z"/><path fill="#f5af02" d="M31.774 4.385c-5.302 0-5.643 2.903-5.643 3.367h2.64s.138-1.695 2.82-1.695c1.744 0 3.095.798 3.095 2.332v.546h-3.094c-4.108 0-6.28 1.201-6.28 3.64 0 2.4 2.007 3.705 4.718 3.705 3.696 0 4.886-2.042 4.886-2.042 0 .813.063 1.613.063 1.613h2.346s-.091-.992-.091-1.627V8.74c0-3.597-2.902-4.354-5.46-4.354Zm2.912 6.188v.728c0 .95-.586 3.31-4.036 3.31-1.889 0-2.698-.943-2.698-2.036 0-1.99 2.727-2.002 6.734-2.002"/><path fill="#86b817" d="M35.813 4.84h2.968l4.261 8.536 4.251-8.536h2.69l-7.744 15.197h-2.82l2.234-4.236z"/></g><defs><clipPath id="a"><path fill="#fff" d="M0 0h50v20.054H0z"/></clipPath></defs></svg>