<svg xmlns="http://www.w3.org/2000/svg" width="156.098" height="64" fill="none" viewBox="0 0 100 41"><g clip-path="url(#a)"><path fill="#E53238" d="M12.953 8.77C5.905 8.77.031 11.76.031 20.781c0 7.147 3.95 11.648 13.104 11.648 10.776 0 11.467-7.098 11.467-7.098H19.38s-1.12 3.822-6.563 3.822c-4.434 0-7.623-2.996-7.623-7.194h19.954v-2.634c0-4.154-2.637-10.557-12.195-10.557Zm-.182 3.366c4.221 0 7.098 2.586 7.098 6.462H5.31c0-4.115 3.756-6.462 7.462-6.462Z"/><path fill="#0064D2" d="M25.144.033V27.9c0 1.582-.113 3.803-.113 3.803h4.98s.179-1.595.179-3.053c0 0 2.46 3.849 9.15 3.849 7.045 0 11.83-4.891 11.83-11.898 0-6.52-4.395-11.762-11.818-11.762-6.952 0-9.112 3.754-9.112 3.754V.033zm12.922 12.251c4.784 0 7.826 3.55 7.826 8.316 0 5.109-3.513 8.451-7.792 8.451-5.105 0-7.86-3.986-7.86-8.406 0-4.118 2.472-8.36 7.826-8.36Z"/><path fill="#F5AF02" d="M63.547 8.77c-10.604 0-11.284 5.806-11.284 6.734h5.278s.277-3.39 5.642-3.39c3.487 0 6.188 1.595 6.188 4.663v1.092h-6.188c-8.215 0-12.558 2.404-12.558 7.28 0 4.8 4.013 7.411 9.436 7.411 7.39 0 9.77-4.083 9.77-4.083 0 1.624.126 3.225.126 3.225h4.692s-.182-1.984-.182-3.254v-10.97c0-7.195-5.802-8.709-10.92-8.709Zm5.824 12.376v1.456c0 1.899-1.172 6.62-8.07 6.62-3.778 0-5.398-1.886-5.398-4.072 0-3.979 5.455-4.004 13.468-4.004"/><path fill="#86B817" d="M71.625 9.68h5.938l8.521 17.073L94.586 9.68h5.38L84.478 40.075h-5.642l4.469-8.473z"/></g><defs><clipPath id="a"><path fill="#fff" d="M0 0h100v40.108H0z"/></clipPath></defs></svg>