<svg xmlns="http://www.w3.org/2000/svg" width="64" height="64" fill="none" viewBox="0 0 32 32"><path fill="url(#a)" d="M19.592 15.873c0-2.673-2.778-7.287-9.036-7.287S2 13.805 2 16.032C2 8.077 8.481 2 16.176 2 23.87 2 30 7.76 30 13.614c0 5.218-3.927 7.031-7.12 7.031-2.107 0-4.501-.7-4.501-1.813 0-.86 1.213-.86 1.213-2.96"/><path fill="url(#b)" d="M10.556 8.586c6.258 0 9.036 4.614 9.036 7.287v.061c-.032-1.78-1.234-3.466-3.608-3.466-3.001 0-7.056 4.073-6.513 9.132.434 4.05 3.863 9.482 11.302 7.573 0 0-1.405.827-5.332.827C8.481 30 2 23.636 2 16.35q0-.29.009-.568c.16-2.344 2.513-7.196 8.547-7.196"/><path fill="url(#c)" d="M10.556 8.586c6.258 0 9.036 4.614 9.036 7.287v.061c-.032-1.78-1.234-3.466-3.608-3.466-3.001 0-7.056 4.073-6.513 9.132.434 4.05 3.863 9.482 11.302 7.573 0 0-1.405.827-5.332.827C8.481 30 2 23.636 2 16.35q0-.29.009-.568c.16-2.344 2.513-7.196 8.547-7.196"/><path fill="#0E458A" d="M19.907 29.5c3.985-1.088 6.832-4.48 7.347-5.164.575-.763.735-1.24.575-1.4s-.383-.127-.958.16c-.574.286-3.959 1.686-7.822.509S12.536 19.373 12.536 16c0-2.61 2.235-3.532 3.448-3.532-3.001 0-7.056 4.073-6.513 9.132.434 4.05 3.863 9.482 11.302 7.573 0 0-.26.152-.866.327"/><path fill="url(#d)" d="M19.907 29.5c3.985-1.088 6.832-4.48 7.347-5.164.575-.763.735-1.24.575-1.4s-.383-.127-.958.16c-.574.286-3.959 1.686-7.822.509S12.536 19.373 12.536 16c0-2.61 2.235-3.532 3.448-3.532-3.001 0-7.056 4.073-6.513 9.132.434 4.05 3.863 9.482 11.302 7.573 0 0-.26.152-.866.327"/><defs><radialGradient id="c" cx="0" cy="0" r="1" gradientTransform="matrix(4.85291 8.14546 -8.15874 4.86082 10.94 18.99)" gradientUnits="userSpaceOnUse"><stop stop-color="#1284D8"/><stop offset=".814" stop-color="#1170B2" stop-opacity=".768"/><stop offset="1" stop-color="#0E649B" stop-opacity=".65"/></radialGradient><radialGradient id="d" cx="0" cy="0" r="1" gradientTransform="rotate(77.998 -4.004 22.326)scale(7.6769 8.28824)" gradientUnits="userSpaceOnUse"><stop stop-color="#104890"/><stop offset=".699" stop-color="#12529E" stop-opacity=".706"/><stop offset="1" stop-color="#0E4584" stop-opacity=".58"/></radialGradient><linearGradient id="a" x1="28.372" x2=".988" y1="18.546" y2="12.076" gradientUnits="userSpaceOnUse"><stop stop-color="#3BCC50"/><stop offset=".49" stop-color="#2ABAD6"/><stop offset="1" stop-color="#7DCFE7"/></linearGradient><linearGradient id="b" x1="11.386" x2="11.386" y1="8.586" y2="30" gradientUnits="userSpaceOnUse"><stop stop-color="#035989"/><stop offset=".266" stop-color="#1175B6"/><stop offset="1" stop-color="#0470CF"/></linearGradient></defs></svg>