<svg xmlns="http://www.w3.org/2000/svg" width="278.261" height="64" fill="none" viewBox="0 0 100 23"><g clip-path="url(#a)"><path fill="#000" d="M21.225 14.412C23.168 8.72 20.128 2.53 14.435.588 8.744-1.356 2.554 1.684.61 7.377S1.707 19.259 7.4 21.202s11.882-1.097 13.825-6.79"/><path fill="#ffc94c" d="M1.696 16.69c1.695-.81 7.464-3.641 8.6-4.308.934-.544 2.325-1.346 2.325-1.346l.59 1.202.9 5.924.688-.397.458-8.275c1.39-.869 2.614-1.714 3.896-2.599.47-.324.948-.654 1.444-.992q-.235-.456-.513-.886-.809.388-1.58.754c-1.407.667-2.752 1.305-4.2 2.074L6.91 4.101l-.688.397 4.68 3.741.745 1.11.001.002s-1.39.803-2.328 1.34c-1.146.651-6.484 4.232-8.03 5.295q.19.36.406.703Z"/><path fill="#000" d="M97.76 8.47V7.275h2.107v10.891H97.7V16.93c-.773.9-1.861 1.495-3.433 1.495-3.097 0-5.086-2.467-5.086-5.698 0-3.208 1.99-5.698 5.086-5.698 1.375 0 2.651.519 3.494 1.441Zm-.146 2.138c-.641-.95-1.727-1.534-3.002-1.534-1.918 0-3.238 1.623-3.238 3.653s1.272 3.702 3.238 3.702c1.313 0 2.375-.748 3.002-1.718zM84.813 4.471c0-.837.685-1.514 1.531-1.514.82 0 1.514.695 1.514 1.514 0 .846-.677 1.532-1.514 1.532a1.53 1.53 0 0 1-1.531-1.532m.397 13.696h2.254V7.275H85.21zM80.812 3.236h2.204v14.93h-2.168V16.93c-.773.902-1.86 1.497-3.434 1.497-3.096 0-5.086-2.468-5.086-5.699 0-3.208 1.99-5.698 5.086-5.698 1.325 0 2.556.48 3.398 1.339zm-.049 7.372c-.641-.95-1.727-1.534-3.003-1.534-1.917 0-3.237 1.623-3.237 3.653s1.272 3.702 3.237 3.702c1.313 0 2.376-.748 3.003-1.718z"/><path fill="#000" fill-rule="evenodd" d="M68.66 17.891q-1.203.549-2.678.553c-3.242-.004-5.584-2.392-5.584-5.726 0-3.269 2.345-5.726 5.456-5.726 3.088 0 5.32 2.525 5.32 5.636q0 .392-.03.78v.007l-.005.067h-8.47c.212 1.668 1.676 2.935 3.358 2.935q1.067-.001 1.9-.416a5.6 5.6 0 0 0 1.508-1.133l.004-.003 1.345 1.433a6.3 6.3 0 0 1-2.124 1.593m-2.853-8.915c1.601 0 2.847 1.13 3.064 2.645h-6.148c.1-.637.463-1.285.995-1.78.554-.518 1.287-.865 2.089-.865" clip-rule="evenodd"/><path fill="#000" d="M50.837 17.075v5.131h-2.204V7.276H50.8v1.237c.773-.9 1.86-1.496 3.433-1.496 3.097 0 5.087 2.468 5.087 5.698 0 3.209-1.99 5.699-5.087 5.699-1.324 0-2.555-.48-3.397-1.34Zm.049-2.24c.641.95 1.727 1.534 3.003 1.534 1.916 0 3.237-1.623 3.237-3.654s-1.272-3.701-3.237-3.701c-1.313 0-2.376.748-3.003 1.718zm-10.074-2.268L36.97 7.275h2.72l2.562 3.61 2.563-3.61h2.683L43.64 12.59l4.037 5.577h-2.723l-2.73-3.855-2.732 3.855h-2.734zm-11.1-.79h5.658V9.64h-5.658V5.757h6.147V3.62H27.25v14.547h8.654V16.03H29.71v-4.253Z"/></g><defs><clipPath id="a"><path fill="#fff" d="M0 0h100v22.222H0z"/></clipPath></defs></svg>