<svg xmlns="http://www.w3.org/2000/svg" width="64" height="64" fill="none" viewBox="0 0 50 50"><g clip-path="url(#a)"><path fill="#072f54" d="M46.84 47.815c-1.364 0-2.206-1.066-2.206-2.37 0-1.395.964-2.368 2.205-2.368 1.23 0 2.19.973 2.19 2.369 0 1.399-.96 2.369-2.19 2.369Zm0-5.006c-1.397 0-2.59 1.05-2.59 2.637 0 1.5 1.077 2.628 2.59 2.628 1.377 0 2.577-1.045 2.577-2.628 0-1.587-1.2-2.637-2.578-2.637Z"/><path fill="#072f54" d="M46.218 45.228v-.96h.65c.327 0 .713.05.713.449 0 .473-.357.511-.764.511zm1.843-.449c0-.628-.387-.896-1.137-.896h-1.182V47h.515v-1.333h.476L47.54 47h.58l-.875-1.369c.473-.056.816-.286.816-.851ZM29.047 19.071l-1-2.83-8.483-11.337 1.524-.378L35.713 17.17l8.608-2.461c1.011-.262 2.16-.319 3.035-.313-2.705-5.833-7.655-10.622-14.19-12.949-12.92-4.605-27.126 2.145-31.72 15.07A24.7 24.7 0 0 0 .281 28.562L20.9 21.398l8.146-2.327ZM48.26 16.63c-.755.491-1.865 1.134-2.967 1.488l-8.625 2.461-5.755 18.477-1.495.485 1.215-14.11-.679-2.932-8.083 2.307-21.363 5.03c1.69 8.223 7.512 15.383 15.997 18.407 12.922 4.604 27.122-2.149 31.717-15.065a24.75 24.75 0 0 0 .039-16.548Z"/><path fill="#fbc108" d="m29.954 22.5.681 2.93-1.217 14.11 1.494-.486 5.756-18.473 8.625-2.462c1.101-.354 2.212-1.002 2.968-1.488a25 25 0 0 0-.905-2.235c-.875-.006-2.024.054-3.036.31l-8.607 2.467L21.085 4.524l-1.521.381 8.48 11.337 1.002 2.827-8.149 2.333L.281 28.56q.098.643.226 1.277l21.367-5.03z"/></g><defs><clipPath id="a"><path fill="#fff" d="M0 0h50v50H0z"/></clipPath></defs></svg>