<svg xmlns="http://www.w3.org/2000/svg" width="304.762" height="64" fill="none" viewBox="0 0 100 21"><g fill="#1877f2" clip-path="url(#a)"><path d="M7.76 3.007c-1.167 0-1.505.518-1.505 1.66v1.896H9.37l-.312 3.061H6.256v9.292H2.518V9.624H0V6.563h2.518V4.72C2.518 1.63 3.763 0 7.238 0q1.093-.003 2.178.13v2.88l-1.655-.003Zm1.873 9.343c0-3.452 1.635-6.051 5.06-6.051 1.869 0 3.01.96 3.556 2.154v-1.89h3.58v12.353h-3.58v-1.869c-.52 1.195-1.687 2.129-3.555 2.129-3.426 0-5.061-2.596-5.061-6.05zm3.737.83c0 1.843.674 3.062 2.413 3.062 1.532 0 2.31-1.115 2.31-2.88v-1.24c0-1.764-.778-2.88-2.31-2.88-1.74 0-2.413 1.22-2.413 3.061v.878Zm16.241-6.878c1.452 0 2.828.313 3.581.83l-.83 2.648a5.9 5.9 0 0 0-2.492-.57c-2.024 0-2.904 1.167-2.904 3.166v.726c0 2 .882 3.167 2.904 3.167a5.9 5.9 0 0 0 2.492-.571l.83 2.646c-.753.52-2.128.832-3.58.832-4.387 0-6.385-2.362-6.385-6.151v-.572c0-3.788 1.997-6.15 6.384-6.15Zm4.077 6.908v-1.088c0-3.504 1.997-5.809 6.073-5.809 3.841 0 5.528 2.336 5.528 5.762v1.972h-7.866c.079 1.687.831 2.44 2.904 2.44 1.403 0 2.882-.286 3.972-.753l.684 2.56c-.986.52-3.011.908-4.8.908-4.731-.001-6.495-2.36-6.495-5.991Zm3.736-1.609h4.517v-.31c0-1.35-.545-2.42-2.179-2.42-1.688 0-2.338 1.065-2.338 2.726zm21.716 1.528c0 3.45-1.66 6.05-5.083 6.05-1.868 0-3.165-.934-3.684-2.128v1.868h-3.53V.359l3.738-.338v8.253c.544-1.09 1.739-1.973 3.478-1.973 3.425 0 5.082 2.596 5.082 6.05zm-3.737-.857c0-1.74-.674-3.036-2.465-3.036-1.532 0-2.362 1.089-2.362 2.854v1.298c0 1.764.83 2.854 2.362 2.854 1.791 0 2.465-1.297 2.465-3.036zm4.987.778v-.622c0-3.557 2.025-6.126 6.152-6.126 4.126 0 6.152 2.57 6.152 6.126v.622c0 3.555-2.025 6.126-6.151 6.126-4.127 0-6.152-2.57-6.152-6.126Zm8.566-.882c0-1.635-.675-2.932-2.42-2.932s-2.415 1.297-2.415 2.932v1.142c0 1.635.676 2.932 2.415 2.932s2.42-1.297 2.42-2.932zm4.982.882v-.622c0-3.557 2.024-6.126 6.15-6.126s6.152 2.57 6.152 6.126v.622c0 3.555-2.025 6.126-6.151 6.126-4.127 0-6.151-2.57-6.151-6.126m8.565-.882c0-1.635-.675-2.932-2.414-2.932s-2.413 1.297-2.413 2.932v1.142c0 1.635.674 2.932 2.413 2.932s2.414-1.297 2.414-2.932zm8.876.285 3.685-5.89h3.97l-3.866 6.099 4.022 6.253h-3.97l-3.841-6.05v6.05H87.64V.36l3.738-.338v12.432Z"/></g><defs><clipPath id="a"><path fill="#fff" d="M0 0h100v20.635H0z"/></clipPath></defs></svg>