<svg xmlns="http://www.w3.org/2000/svg" width="64" height="64" fill="none" viewBox="0 0 50 50"><g clip-path="url(#a)"><path fill="#3C5A9A" d="M25 50c13.807 0 25-11.193 25-25S38.807 0 25 0 0 11.193 0 25s11.193 25 25 25"/><path fill="#fff" d="M33.126 7.674h-5.538c-3.287 0-6.942 1.382-6.942 6.146.016 1.66 0 3.25 0 5.039h-3.802v6.05h3.92v17.417h7.202V24.794h4.754l.43-5.952h-5.308s.012-2.648 0-3.417c0-1.883 1.959-1.775 2.077-1.775.932 0 2.744.003 3.21 0V7.674z"/></g><defs><clipPath id="a"><path fill="#fff" d="M0 0h50v50H0z"/></clipPath></defs></svg>