<svg xmlns="http://www.w3.org/2000/svg" width="256" height="64" fill="none" viewBox="0 0 100 25"><g clip-path="url(#a)"><path fill="#272827" d="M5.98 8.126v-.968a.976.976 0 0 0-.976-.976H3.139v-.897c-.003-1.05.234-1.676.446-1.905l.01-.012c.146-.143.328-.243.528-.288.689-.11 1.386-.164 2.083-.161h.359a.976.976 0 0 0 .976-.976V1.07a.974.974 0 0 0-.789-.958c-.118-.023-.25-.045-.397-.068C6.17.015 5.204 0 5.014 0H5C3.43 0 2.092.367 1.196 1.328.319 2.294.004 3.658 0 5.315v18.264a.976.976 0 0 0 .976.976h1.186a.973.973 0 0 0 .976-.976V9.1h1.865a.975.975 0 0 0 .977-.974Z"/><path fill="#7476EB" d="M89.737 24.19a.943.943 0 0 0 .682.303h1.207a.974.974 0 0 0 .92-.653l7.4-21.231a.977.977 0 0 0-.92-1.297H97.84a.974.974 0 0 0-.922.654l-7.4 21.23a.892.892 0 0 0-.057.316 1 1 0 0 0 .276.678"/><path fill="#272827" d="M66.054 24.492h1.155a.976.976 0 0 0 .975-.975v-9.96c.005-.572.1-1.14.281-1.683a5.452 5.452 0 0 1 .822-1.59c.331-.451.752-.83 1.236-1.112a3.024 3.024 0 0 1 1.557-.384 2.737 2.737 0 0 1 1.68.447c.44.339.77.8.95 1.325a6.29 6.29 0 0 1 .36 2.217v10.74a.976.976 0 0 0 .975.975H77.2a.976.976 0 0 0 .975-.975v-9.96c.005-.572.1-1.14.28-1.683.184-.572.462-1.109.821-1.59.332-.451.753-.83 1.237-1.112a3.026 3.026 0 0 1 1.557-.384 2.736 2.736 0 0 1 1.68.447c.44.338.77.799.95 1.324.251.712.373 1.463.359 2.218v10.74a.976.976 0 0 0 .975.975h1.155a.976.976 0 0 0 .976-.975V12.495a8.707 8.707 0 0 0-.626-3.461 5.198 5.198 0 0 0-2.016-2.391 5.924 5.924 0 0 0-3.194-.836h-.02a6.235 6.235 0 0 0-3.383.963 6.432 6.432 0 0 0-1.715 1.618 5.1 5.1 0 0 0-1.656-1.742 5.778 5.778 0 0 0-3.154-.84h-.022a6.182 6.182 0 0 0-3.35.964c-.3.195-.583.417-.844.662v-.35a.977.977 0 0 0-.961-.965h-1.17a.974.974 0 0 0-.976.975v16.425a.976.976 0 0 0 .976.975ZM50.662 23.626a8.042 8.042 0 0 0 4.35 1.15h.019a8.105 8.105 0 0 0 4.276-1.11 7.238 7.238 0 0 0 2.832-3.303c.661-1.593.985-3.305.95-5.03a12.554 12.554 0 0 0-.928-4.99 7.455 7.455 0 0 0-2.785-3.36 7.892 7.892 0 0 0-4.343-1.17h-.02a8.095 8.095 0 0 0-4.292 1.127 7.22 7.22 0 0 0-2.833 3.307 12.495 12.495 0 0 0-.93 5.09 12.383 12.383 0 0 0 .907 4.929 7.23 7.23 0 0 0 2.797 3.36Zm.75-13.271A3.912 3.912 0 0 1 52.9 9.187a5.28 5.28 0 0 1 2.118-.4 4.98 4.98 0 0 1 2.063.405 4.03 4.03 0 0 1 1.492 1.2c.853 1.092 1.337 2.693 1.338 4.91v.003c0 2.284-.483 3.906-1.306 4.953a3.857 3.857 0 0 1-1.474 1.164 5.253 5.253 0 0 1-2.112.4 4.224 4.224 0 0 1-3.575-1.612c-.863-1.094-1.35-2.682-1.35-4.875v-.003c0-2.303.49-3.933 1.32-4.978M30.378 1.038v22.479a.974.974 0 0 0 .976.976h1.17a.98.98 0 0 0 .96-.96v-9.976a4.952 4.952 0 0 1 .304-1.657 5.25 5.25 0 0 1 .897-1.58 4.35 4.35 0 0 1 1.393-1.124 3.922 3.922 0 0 1 1.833-.407 3.71 3.71 0 0 1 2.044.482c.49.318.868.78 1.083 1.322.275.695.408 1.438.393 2.185v10.74a.976.976 0 0 0 .976.976h1.2a.98.98 0 0 0 .961-.962V12.496a7.86 7.86 0 0 0-.725-3.508 5.49 5.49 0 0 0-2.197-2.363 6.743 6.743 0 0 0-3.419-.819h-.014a6.936 6.936 0 0 0-3.596.965 6.808 6.808 0 0 0-1.133.843V1.038a.977.977 0 0 0-.976-.975h-1.17a.98.98 0 0 0-.963.962l.003.013ZM22.32 3.286v16.015c.003 1.64.323 3 1.19 3.964.9.977 2.25 1.35 3.84 1.35.188 0 .371-.006.55-.017.235-.013.466-.061.685-.144a.977.977 0 0 0 .62-.903v-.876a.975.975 0 0 0-.976-.974h-.458a4.634 4.634 0 0 1-1.326-.163 1.097 1.097 0 0 1-.529-.285l-.01-.013c-.215-.23-.45-.857-.45-1.905V9.038h2.036a.979.979 0 0 0 .96-.961v-.982a.976.976 0 0 0-.975-.975h-2.02V3.286a.976.976 0 0 0-.975-.975h-1.2a.98.98 0 0 0-.962.962v.013ZM5.667 19.24v.012a5.389 5.389 0 0 0 .83 2.988 5.165 5.165 0 0 0 2.316 1.923 8.29 8.29 0 0 0 3.323.611 7.566 7.566 0 0 0 2.563-.479 8.143 8.143 0 0 0 2.518-1.486c.147-.125.285-.259.42-.396.086.57.28 1.117.568 1.616a.969.969 0 0 0 .832.464l.57-.006a.975.975 0 0 0 .965-.976v-10.45a9.144 9.144 0 0 0-.708-3.737 5.63 5.63 0 0 0-2.316-2.614 7.364 7.364 0 0 0-3.79-.9 8.627 8.627 0 0 0-3.78.768 6.07 6.07 0 0 0-2.576 2.303l-.005.007a.843.843 0 0 0-.126.444.891.891 0 0 0 .6.836l.957.34a1.35 1.35 0 0 0 1.042-.055c.184-.088.346-.215.475-.373.09-.111.187-.217.289-.317.626-.608 1.556-.966 3-.972a5.221 5.221 0 0 1 1.83.286 2.5 2.5 0 0 1 1.08.759c.543.665.884 1.693.916 3.166-1.394.022-2.63.08-3.7.18-1.343.12-2.668.396-3.947.822H9.81l-.012.003c-1.17.32-2.222.97-3.03 1.876a5.084 5.084 0 0 0-1.1 3.338v.02Zm11.09-.162a5.75 5.75 0 0 1-1.927 2.007c-.776.494-1.68.75-2.6.738a3.97 3.97 0 0 1-2.607-.743 2.168 2.168 0 0 1-.61-.79 2.813 2.813 0 0 1-.209-1.113 2.53 2.53 0 0 1 .326-1.282 2.614 2.614 0 0 1 1.197-.96 10.992 10.992 0 0 1 3.028-.789 33.951 33.951 0 0 1 4.114-.289v.604a5.103 5.103 0 0 1-.712 2.617"/></g><defs><clipPath id="a"><path fill="#fff" d="M0 0h100v25H0z"/></clipPath></defs></svg>