<svg xmlns="http://www.w3.org/2000/svg" width="256" height="64" fill="none" viewBox="0 0 100 25"><g clip-path="url(#a)"><path fill="#272827" d="M5.98 8.126v-.968a.976.976 0 0 0-.976-.976H3.139v-.897c-.003-1.05.234-1.676.446-1.905l.01-.012c.146-.143.328-.243.528-.288q1.035-.165 2.083-.161h.359a.976.976 0 0 0 .976-.976V1.07a.974.974 0 0 0-.789-.958Q6.575.078 6.355.044C6.17.015 5.204 0 5.014 0H5C3.43 0 2.092.367 1.196 1.328.319 2.294.004 3.658 0 5.315v18.264a.976.976 0 0 0 .976.976h1.186a.973.973 0 0 0 .976-.976V9.1h1.865a.975.975 0 0 0 .977-.974"/><path fill="#7476eb" d="M89.737 24.19a.94.94 0 0 0 .682.303h1.207a.97.97 0 0 0 .92-.653l7.4-21.231a.977.977 0 0 0-.92-1.297H97.84a.97.97 0 0 0-.922.654l-7.4 21.23a.9.9 0 0 0-.057.316 1 1 0 0 0 .276.678"/><path fill="#272827" d="M66.054 24.492h1.155a.976.976 0 0 0 .975-.975v-9.96c.005-.572.1-1.14.281-1.683a5.5 5.5 0 0 1 .822-1.59c.331-.451.752-.83 1.236-1.112a3 3 0 0 1 1.557-.384 2.74 2.74 0 0 1 1.68.447c.44.339.77.8.95 1.325a6.3 6.3 0 0 1 .36 2.217v10.74a.976.976 0 0 0 .975.975H77.2a.976.976 0 0 0 .975-.975v-9.96c.005-.572.1-1.14.28-1.683a5.5 5.5 0 0 1 .821-1.59 4.1 4.1 0 0 1 1.237-1.112 3 3 0 0 1 1.557-.384 2.74 2.74 0 0 1 1.68.447c.44.338.77.799.95 1.324.251.712.373 1.463.359 2.218v10.74a.976.976 0 0 0 .975.975h1.155a.976.976 0 0 0 .976-.975V12.495a8.7 8.7 0 0 0-.626-3.461 5.2 5.2 0 0 0-2.016-2.391 5.9 5.9 0 0 0-3.194-.836h-.02a6.24 6.24 0 0 0-3.383.963 6.4 6.4 0 0 0-1.715 1.618 5.1 5.1 0 0 0-1.656-1.742 5.8 5.8 0 0 0-3.154-.84h-.022a6.2 6.2 0 0 0-3.35.964 6 6 0 0 0-.844.662v-.35a.977.977 0 0 0-.961-.965h-1.17a.974.974 0 0 0-.976.975v16.425a.976.976 0 0 0 .976.975m-15.392-.866a8.04 8.04 0 0 0 4.35 1.15h.019a8.1 8.1 0 0 0 4.276-1.11 7.24 7.24 0 0 0 2.832-3.303c.661-1.593.985-3.305.95-5.03a12.6 12.6 0 0 0-.928-4.99 7.46 7.46 0 0 0-2.785-3.36 7.9 7.9 0 0 0-4.343-1.17h-.02a8.1 8.1 0 0 0-4.292 1.127 7.2 7.2 0 0 0-2.833 3.307 12.5 12.5 0 0 0-.93 5.09 12.4 12.4 0 0 0 .907 4.929 7.23 7.23 0 0 0 2.797 3.36m.75-13.271A3.9 3.9 0 0 1 52.9 9.187a5.3 5.3 0 0 1 2.118-.4 5 5 0 0 1 2.063.405 4 4 0 0 1 1.492 1.2c.853 1.092 1.337 2.693 1.338 4.91v.003c0 2.284-.483 3.906-1.306 4.953a3.86 3.86 0 0 1-1.474 1.164 5.25 5.25 0 0 1-2.112.4 4.22 4.22 0 0 1-3.575-1.612c-.863-1.094-1.35-2.682-1.35-4.875v-.003c0-2.303.49-3.933 1.32-4.978M30.378 1.038v22.479a.974.974 0 0 0 .976.976h1.17a.98.98 0 0 0 .96-.96v-9.976a5 5 0 0 1 .304-1.657 5.3 5.3 0 0 1 .897-1.58 4.35 4.35 0 0 1 1.393-1.124 3.9 3.9 0 0 1 1.833-.407 3.7 3.7 0 0 1 2.044.482c.49.318.868.78 1.083 1.322.275.695.408 1.438.393 2.185v10.74a.976.976 0 0 0 .976.976h1.2a.98.98 0 0 0 .961-.962V12.496a7.86 7.86 0 0 0-.725-3.508 5.5 5.5 0 0 0-2.197-2.363 6.74 6.74 0 0 0-3.419-.819h-.014a6.94 6.94 0 0 0-3.596.965 6.8 6.8 0 0 0-1.133.843V1.038a.977.977 0 0 0-.976-.975h-1.17a.98.98 0 0 0-.963.962zM22.32 3.286v16.015c.003 1.64.323 3 1.19 3.964.9.977 2.25 1.35 3.84 1.35q.282 0 .55-.017c.235-.013.466-.061.685-.144a.98.98 0 0 0 .62-.903v-.876a.975.975 0 0 0-.976-.974h-.458a4.6 4.6 0 0 1-1.326-.163 1.1 1.1 0 0 1-.529-.285l-.01-.013c-.215-.23-.45-.857-.45-1.905V9.038h2.036a.98.98 0 0 0 .96-.961v-.982a.976.976 0 0 0-.975-.975h-2.02V3.286a.976.976 0 0 0-.975-.975h-1.2a.98.98 0 0 0-.962.962zM5.667 19.24v.012a5.4 5.4 0 0 0 .83 2.988 5.17 5.17 0 0 0 2.316 1.923 8.3 8.3 0 0 0 3.323.611 7.6 7.6 0 0 0 2.563-.479 8.1 8.1 0 0 0 2.518-1.486q.219-.189.42-.396c.086.57.28 1.117.568 1.616a.97.97 0 0 0 .832.464l.57-.006a.975.975 0 0 0 .965-.976v-10.45a9.1 9.1 0 0 0-.708-3.737 5.63 5.63 0 0 0-2.316-2.614 7.36 7.36 0 0 0-3.79-.9 8.6 8.6 0 0 0-3.78.768 6.07 6.07 0 0 0-2.576 2.303l-.005.007a.84.84 0 0 0-.126.444.89.89 0 0 0 .6.836l.957.34a1.35 1.35 0 0 0 1.042-.055c.184-.088.346-.215.475-.373a4 4 0 0 1 .289-.317c.626-.608 1.556-.966 3-.972a5.2 5.2 0 0 1 1.83.286 2.5 2.5 0 0 1 1.08.759c.543.665.884 1.693.916 3.166q-2.093.031-3.7.18a17.4 17.4 0 0 0-3.947.822H9.81l-.012.003c-1.17.32-2.222.97-3.03 1.876a5.08 5.08 0 0 0-1.1 3.338v.02Zm11.09-.162a5.75 5.75 0 0 1-1.927 2.007c-.776.494-1.68.75-2.6.738a3.97 3.97 0 0 1-2.607-.743 2.2 2.2 0 0 1-.61-.79 2.8 2.8 0 0 1-.209-1.113 2.53 2.53 0 0 1 .326-1.282 2.6 2.6 0 0 1 1.197-.96 11 11 0 0 1 3.028-.789 34 34 0 0 1 4.114-.289v.604a5.1 5.1 0 0 1-.712 2.617"/></g><defs><clipPath id="a"><path fill="#fff" d="M0 0h100v25H0z"/></clipPath></defs></svg>