<svg xmlns="http://www.w3.org/2000/svg" width="246.154" height="64" fill="none" viewBox="0 0 50 13"><g clip-path="url(#a)"><path fill="#272827" d="M2.99 4.063v-.484a.488.488 0 0 0-.488-.488H1.57v-.449c-.002-.524.117-.837.223-.952l.005-.006a.546.546 0 0 1 .264-.144 6.364 6.364 0 0 1 1.042-.08h.179A.488.488 0 0 0 3.77.972V.535a.487.487 0 0 0-.394-.48 5.036 5.036 0 0 0-.199-.034A10.457 10.457 0 0 0 2.507 0H2.5C1.715 0 1.046.183.598.664.159 1.147.002 1.829 0 2.658v9.132a.488.488 0 0 0 .488.488h.593a.486.486 0 0 0 .488-.488V4.55h.933a.487.487 0 0 0 .488-.487Z"/><path fill="#7476EB" d="M44.865 12.095a.473.473 0 0 0 .34.152h.604a.486.486 0 0 0 .46-.327l3.7-10.615a.485.485 0 0 0-.236-.595.488.488 0 0 0-.224-.054h-.593a.487.487 0 0 0-.46.327l-3.7 10.615a.446.446 0 0 0-.03.158.5.5 0 0 0 .139.34"/><path fill="#272827" d="M33.027 12.246h.577a.49.49 0 0 0 .488-.488v-4.98c.003-.285.05-.57.14-.84.093-.287.232-.555.411-.796.166-.226.377-.415.619-.556.237-.133.506-.199.778-.192.297-.019.592.06.84.224.22.169.385.4.475.662.126.356.187.731.18 1.109v5.37a.488.488 0 0 0 .487.487h.578a.487.487 0 0 0 .487-.488v-4.98c.003-.285.05-.57.14-.84.093-.287.231-.555.411-.796.166-.226.377-.415.619-.556.237-.133.506-.2.778-.192.297-.019.591.06.84.223.22.17.385.4.475.663.126.355.186.731.18 1.108v5.37a.488.488 0 0 0 .487.488h.578a.488.488 0 0 0 .487-.488v-5.51a4.354 4.354 0 0 0-.313-1.731 2.599 2.599 0 0 0-1.007-1.196 2.962 2.962 0 0 0-1.598-.418h-.01a3.117 3.117 0 0 0-1.691.482 3.217 3.217 0 0 0-.858.81 2.55 2.55 0 0 0-.828-.872 2.889 2.889 0 0 0-1.576-.42h-.012a3.091 3.091 0 0 0-1.675.482c-.15.098-.29.208-.421.331v-.175a.489.489 0 0 0-.481-.483h-.585a.487.487 0 0 0-.488.488v8.212a.488.488 0 0 0 .488.488ZM25.331 11.813a4.02 4.02 0 0 0 2.175.575h.01c.75.016 1.49-.176 2.137-.555a3.619 3.619 0 0 0 1.417-1.652c.33-.796.492-1.652.474-2.514a6.278 6.278 0 0 0-.464-2.495 3.727 3.727 0 0 0-1.392-1.68 3.946 3.946 0 0 0-2.171-.585h-.01a4.048 4.048 0 0 0-2.147.563 3.61 3.61 0 0 0-1.416 1.653 6.248 6.248 0 0 0-.465 2.546 6.191 6.191 0 0 0 .454 2.464c.281.69.77 1.278 1.398 1.68Zm.375-6.636c.197-.252.452-.453.744-.583a2.64 2.64 0 0 1 1.059-.2 2.49 2.49 0 0 1 1.032.202c.293.137.549.343.746.6.426.546.668 1.347.669 2.455v.001c0 1.142-.242 1.953-.653 2.477a1.927 1.927 0 0 1-.738.582 2.625 2.625 0 0 1-1.056.2 2.112 2.112 0 0 1-1.787-.806c-.431-.547-.675-1.34-.675-2.437v-.002c0-1.152.245-1.967.66-2.489M15.189.519v11.24a.486.486 0 0 0 .488.487h.585a.49.49 0 0 0 .48-.48V6.78a2.625 2.625 0 0 1 .6-1.619c.191-.234.428-.425.697-.562.285-.141.6-.21.916-.204.357-.02.712.065 1.022.242.245.158.435.39.542.66.137.348.204.72.197 1.093v5.37a.488.488 0 0 0 .487.488h.6a.489.489 0 0 0 .481-.48V6.247a3.93 3.93 0 0 0-.362-1.754 2.745 2.745 0 0 0-1.099-1.182 3.371 3.371 0 0 0-1.71-.409h-.007a3.467 3.467 0 0 0-1.798.482 3.4 3.4 0 0 0-.566.422V.52a.488.488 0 0 0-.488-.488h-.585a.49.49 0 0 0-.482.481l.002.007ZM11.164 1.643V9.65c.002.82.162 1.5.595 1.982.45.489 1.125.675 1.92.675.094 0 .185-.002.275-.008.117-.006.233-.03.343-.072a.488.488 0 0 0 .31-.452v-.438a.488.488 0 0 0-.489-.487h-.229a2.313 2.313 0 0 1-.662-.081.547.547 0 0 1-.265-.143l-.005-.006c-.107-.115-.225-.429-.225-.953V4.52h1.018a.49.49 0 0 0 .48-.48v-.491a.488.488 0 0 0-.487-.488h-1.01V1.643a.488.488 0 0 0-.488-.488h-.6a.49.49 0 0 0-.48.482v.006ZM2.837 9.62v.006a2.694 2.694 0 0 0 .415 1.494c.282.428.685.763 1.158.961a4.147 4.147 0 0 0 1.662.306 3.785 3.785 0 0 0 1.281-.24 4.073 4.073 0 0 0 1.469-.94 2.3 2.3 0 0 0 .284.807.485.485 0 0 0 .416.232l.286-.003a.488.488 0 0 0 .482-.488V6.531a4.575 4.575 0 0 0-.354-1.869 2.815 2.815 0 0 0-1.158-1.307 3.682 3.682 0 0 0-1.895-.45 4.314 4.314 0 0 0-1.89.384c-.532.25-.98.65-1.288 1.151l-.003.004a.422.422 0 0 0-.063.222.446.446 0 0 0 .3.418l.479.17a.675.675 0 0 0 .521-.028.686.686 0 0 0 .237-.186c.045-.056.094-.108.145-.158.313-.304.778-.484 1.5-.486a2.61 2.61 0 0 1 .915.142c.211.076.397.207.54.38.271.333.442.847.458 1.583-.697.011-1.316.04-1.85.09a8.688 8.688 0 0 0-1.974.41h-.002l-.006.003a3.136 3.136 0 0 0-1.515.937 2.542 2.542 0 0 0-.55 1.67v.01Zm5.545-.081a2.875 2.875 0 0 1-.963 1.004c-.388.246-.84.375-1.3.369a1.985 1.985 0 0 1-1.304-.372 1.085 1.085 0 0 1-.305-.395 1.407 1.407 0 0 1-.104-.557 1.265 1.265 0 0 1 .163-.64c.147-.217.355-.384.598-.48a5.494 5.494 0 0 1 1.514-.395c.682-.09 1.37-.138 2.057-.144v.301c.002.46-.121.913-.356 1.309"/></g><defs><clipPath id="a"><path fill="#fff" d="M0 0h50v12.5H0z"/></clipPath></defs></svg>