<svg xmlns="http://www.w3.org/2000/svg" width="278.261" height="64" fill="none" viewBox="0 0 100 23"><g clip-path="url(#a)"><path fill="#000" d="M76.22 8.544c-3.065 0-5.486 2.55-5.486 5.665 0 3.116 2.42 5.665 5.485 5.665 3.064 0 5.485-2.55 5.485-5.665 0-3.116-2.42-5.665-5.485-5.665Zm0 8.55c-1.469 0-2.757-1.288-2.757-2.86 0-1.57 1.262-2.857 2.756-2.857 1.493 0 2.755 1.287 2.755 2.858 0 1.57-1.288 2.858-2.755 2.858ZM48.253 8.724 48.02 9.96s-.824-1.416-3.038-1.416c-2.833 0-5.202 2.009-5.202 5.588 0 3.45 2.55 5.768 4.97 5.768 2.266 0 3.27-1.906 3.27-1.906l.232 1.622h2.498V8.724h-2.498Zm-2.987 8.37c-1.52 0-2.755-1.288-2.755-2.86 0-1.57 1.236-2.857 2.755-2.857 1.52 0 2.755 1.287 2.755 2.858 0 1.57-1.236 2.858-2.755 2.858ZM55.388 16.114V11.48h2.755V8.724h-2.755v-2.73l-2.755.748v9.398c0 .85 0 3.785 3.321 3.785 1.494 0 2.189-.463 2.189-.463v-2.343c0-.026-2.755 1.081-2.755-1.005ZM95.84 8.544c-2.446 0-3.45 1.803-3.45 1.803s-.696-1.803-3.116-1.803c-1.726 0-2.961.798-3.45 1.416l-.232-1.236h-2.498V19.72h2.73v-5.51c0-1.416.566-2.832 2.162-2.832 1.39 0 1.957.824 1.957 2.188v6.155h2.755v-6.077c0-.747.413-2.24 2.112-2.24 1.7 0 1.983 1.235 1.983 2.137v6.18h2.755v-7.056c0-1.081-.438-4.12-3.708-4.12ZM30.18 3.24v16.48h3.012v-6.876h5.228v-2.73h-5.228v-4.12h7.957V3.24H30.18ZM65.64 8.544c-1.777 0-2.73.979-3.065 1.416V3.24l-2.755.746V19.72h2.755v-6.283c0-.746.31-2.034 1.983-2.034 1.648 0 2.06 1.417 2.06 2.37v5.947h2.755v-6.437c0-2.575-1.544-4.738-3.733-4.738Z"/><path fill="#4ABEA7" d="M5.612 16.837H0v5.612h5.612v-5.612Z"/><path fill="#4ABEA7" d="M10.714 11.225V5.612H0v5.613h5.612v5.612H21.94v-5.612H10.714ZM21.935 0H10.711v5.612h11.224V0Z"/></g><defs><clipPath id="a"><path fill="#fff" d="M0 0h100v22.449H0z"/></clipPath></defs></svg>