<svg xmlns="http://www.w3.org/2000/svg" width="246.154" height="64" fill="none" viewBox="0 0 50 13"><g clip-path="url(#a)"><path fill="#272827" d="M2.99 4.063v-.484a.49.49 0 0 0-.488-.488H1.57v-.449c-.002-.524.117-.837.223-.952l.005-.006a.55.55 0 0 1 .264-.144 6.4 6.4 0 0 1 1.042-.08h.179A.49.49 0 0 0 3.77.972V.535a.49.49 0 0 0-.394-.48 5 5 0 0 0-.199-.034A11 11 0 0 0 2.507 0H2.5C1.715 0 1.046.183.598.664.159 1.147.002 1.829 0 2.658v9.132a.49.49 0 0 0 .488.488h.593a.486.486 0 0 0 .488-.488V4.55h.933a.487.487 0 0 0 .488-.487"/><path fill="#7476eb" d="M44.865 12.095a.47.47 0 0 0 .34.152h.604a.49.49 0 0 0 .46-.327l3.7-10.615a.485.485 0 0 0-.236-.595.5.5 0 0 0-.224-.054h-.593a.49.49 0 0 0-.46.327l-3.7 10.615a.5.5 0 0 0-.03.158.5.5 0 0 0 .139.34"/><path fill="#272827" d="M33.027 12.246h.577a.49.49 0 0 0 .488-.488v-4.98c.003-.285.05-.57.14-.84.093-.287.232-.555.411-.796.166-.226.377-.415.619-.556a1.5 1.5 0 0 1 .778-.192c.297-.019.592.06.84.224.22.169.385.4.475.662.126.356.187.731.18 1.109v5.37a.49.49 0 0 0 .487.487h.578a.487.487 0 0 0 .487-.488v-4.98c.003-.285.05-.57.14-.84.093-.287.231-.555.411-.796.166-.226.377-.415.619-.556a1.5 1.5 0 0 1 .778-.192c.297-.019.591.06.84.223.22.17.385.4.475.663.126.355.186.731.18 1.108v5.37a.49.49 0 0 0 .487.488h.578a.49.49 0 0 0 .487-.488v-5.51a4.4 4.4 0 0 0-.313-1.731 2.6 2.6 0 0 0-1.007-1.196 2.96 2.96 0 0 0-1.598-.418h-.01a3.1 3.1 0 0 0-1.691.482 3.2 3.2 0 0 0-.858.81 2.55 2.55 0 0 0-.828-.872 2.9 2.9 0 0 0-1.576-.42h-.012a3.1 3.1 0 0 0-1.675.482 3 3 0 0 0-.421.331v-.175a.49.49 0 0 0-.481-.483h-.585a.487.487 0 0 0-.488.488v8.212a.49.49 0 0 0 .488.488m-7.696-.433a4 4 0 0 0 2.175.575h.01c.75.016 1.49-.176 2.137-.555a3.6 3.6 0 0 0 1.417-1.652c.33-.796.492-1.652.474-2.514a6.3 6.3 0 0 0-.464-2.495 3.73 3.73 0 0 0-1.392-1.68 3.95 3.95 0 0 0-2.171-.585h-.01a4.05 4.05 0 0 0-2.147.563 3.6 3.6 0 0 0-1.416 1.653 6.25 6.25 0 0 0-.465 2.546 6.2 6.2 0 0 0 .454 2.464c.281.69.77 1.278 1.398 1.68m.375-6.636c.197-.252.452-.453.744-.583a2.6 2.6 0 0 1 1.059-.2 2.5 2.5 0 0 1 1.032.202c.293.137.549.343.746.6.426.546.668 1.347.669 2.455v.001c0 1.142-.242 1.953-.653 2.477a1.9 1.9 0 0 1-.738.582 2.6 2.6 0 0 1-1.056.2 2.11 2.11 0 0 1-1.787-.806c-.431-.547-.675-1.34-.675-2.437v-.002c0-1.152.245-1.967.66-2.489M15.189.519v11.24a.486.486 0 0 0 .488.487h.585a.49.49 0 0 0 .48-.48V6.78a2.63 2.63 0 0 1 .6-1.619 2.2 2.2 0 0 1 .697-.562c.285-.141.6-.21.916-.204.357-.02.712.065 1.022.242.245.158.435.39.542.66.137.348.204.72.197 1.093v5.37a.49.49 0 0 0 .487.488h.6a.49.49 0 0 0 .481-.48V6.247a3.9 3.9 0 0 0-.362-1.754 2.75 2.75 0 0 0-1.099-1.182 3.37 3.37 0 0 0-1.71-.409h-.007a3.47 3.47 0 0 0-1.798.482 3.4 3.4 0 0 0-.566.422V.52a.49.49 0 0 0-.488-.488h-.585a.49.49 0 0 0-.482.481l.002.007Zm-4.025 1.124V9.65c.002.82.162 1.5.595 1.982.45.489 1.125.675 1.92.675q.14 0 .275-.008.177-.009.343-.072a.49.49 0 0 0 .31-.452v-.438a.49.49 0 0 0-.489-.487h-.229a2.3 2.3 0 0 1-.662-.081.55.55 0 0 1-.265-.143l-.005-.006c-.107-.115-.225-.429-.225-.953V4.52h1.018a.49.49 0 0 0 .48-.48v-.491a.49.49 0 0 0-.487-.488h-1.01V1.643a.49.49 0 0 0-.488-.488h-.6a.49.49 0 0 0-.48.482v.006ZM2.837 9.62v.006a2.7 2.7 0 0 0 .415 1.494 2.6 2.6 0 0 0 1.158.961 4.15 4.15 0 0 0 1.662.306 3.8 3.8 0 0 0 1.281-.24 4.1 4.1 0 0 0 1.469-.94 2.3 2.3 0 0 0 .284.807.49.49 0 0 0 .416.232l.286-.003a.49.49 0 0 0 .482-.488V6.531a4.6 4.6 0 0 0-.354-1.869 2.8 2.8 0 0 0-1.158-1.307 3.7 3.7 0 0 0-1.895-.45 4.3 4.3 0 0 0-1.89.384c-.532.25-.98.65-1.288 1.151l-.003.004a.4.4 0 0 0-.063.222.45.45 0 0 0 .3.418l.479.17a.68.68 0 0 0 .521-.028.7.7 0 0 0 .237-.186 2 2 0 0 1 .145-.158c.313-.304.778-.484 1.5-.486a2.6 2.6 0 0 1 .915.142c.211.076.397.207.54.38.271.333.442.847.458 1.583q-1.047.016-1.85.09a8.7 8.7 0 0 0-1.974.41h-.002l-.006.003a3.14 3.14 0 0 0-1.515.937 2.54 2.54 0 0 0-.55 1.67v.01Zm5.545-.081a2.9 2.9 0 0 1-.963 1.004c-.388.246-.84.375-1.3.369a2 2 0 0 1-1.304-.372 1.1 1.1 0 0 1-.305-.395 1.4 1.4 0 0 1-.104-.557 1.26 1.26 0 0 1 .163-.64c.147-.217.355-.384.598-.48a5.5 5.5 0 0 1 1.514-.395 17 17 0 0 1 2.057-.144v.301c.002.46-.121.913-.356 1.309"/></g><defs><clipPath id="a"><path fill="#fff" d="M0 0h50v12.5H0z"/></clipPath></defs></svg>