<svg xmlns="http://www.w3.org/2000/svg" width="71.111" height="64" fill="none" viewBox="0 0 50 45"><g clip-path="url(#a)"><path fill="#26a943" fill-rule="evenodd" d="M21.01 1.626a5.405 5.405 0 0 1 7.727 0L48.164 21.43c2.124 2.165 2.124 5.713 0 7.88L34.577 43.164a5.42 5.42 0 0 1-3.883 1.64h-11.64c-1.38 0-2.64-.52-3.606-1.376L1.593 29.301c-2.124-2.166-2.124-5.712 0-7.88L21.009 1.627Zm7.186 36.156-1.937 1.976a.78.78 0 0 1-.555.234h-1.66a.77.77 0 0 1-.516-.197l-1.976-2.015a.81.81 0 0 1 0-1.123l2.77-2.824a.77.77 0 0 1 1.102 0l2.772 2.825a.807.807 0 0 1 0 1.124m0-11.849-7.749 7.901a.78.78 0 0 1-.553.234h-1.661a.77.77 0 0 1-.515-.197l-1.977-2.014a.81.81 0 0 1 0-1.124l8.58-8.75a.773.773 0 0 1 1.105 0l2.77 2.826a.807.807 0 0 1 0 1.124m0-11.849L14.637 27.909a.78.78 0 0 1-.555.234h-1.66a.77.77 0 0 1-.514-.197L9.93 25.931a.81.81 0 0 1 0-1.125l14.392-14.673a.77.77 0 0 1 1.102 0l2.772 2.827a.807.807 0 0 1 0 1.124" clip-rule="evenodd"/></g><defs><clipPath id="a"><path fill="#fff" d="M0 0h50v44.828H0z"/></clipPath></defs></svg>