<svg xmlns="http://www.w3.org/2000/svg" width="213.333" height="64" fill="none" viewBox="0 0 100 30"><g clip-path="url(#a)"><path fill="#26a943" fill-rule="evenodd" d="M12.827.993a3.3 3.3 0 0 1 4.718 0l11.86 12.091c1.297 1.322 1.297 3.488 0 4.812l-8.295 8.456a3.3 3.3 0 0 1-2.37 1.001h-7.106a3.3 3.3 0 0 1-2.203-.84L.972 17.89c-1.296-1.323-1.296-3.487 0-4.81zm4.388 22.074-1.183 1.206a.47.47 0 0 1-.34.143H14.68a.47.47 0 0 1-.315-.12l-1.206-1.23a.495.495 0 0 1 0-.686l1.691-1.724a.47.47 0 0 1 .673 0l1.693 1.725a.493.493 0 0 1 0 .686Zm0-7.234-4.731 4.824a.47.47 0 0 1-.338.142h-1.014a.47.47 0 0 1-.315-.12L9.61 19.45a.494.494 0 0 1 0-.686l5.24-5.341a.47.47 0 0 1 .673 0l1.692 1.724a.493.493 0 0 1 0 .687Zm0-7.234-8.279 8.44a.48.48 0 0 1-.338.143H7.584a.47.47 0 0 1-.314-.12l-1.208-1.23a.494.494 0 0 1 0-.687l8.787-8.958a.47.47 0 0 1 .673 0l1.693 1.725a.493.493 0 0 1 0 .687" clip-rule="evenodd"/><path fill="#2e2e2e" d="M86.777 11.11V6.035h-3.59v18.4h3.59V11.648l4.401 11.96c.102.256.151.54.151.824 0 .825-.454 1.57-1.39 1.674-.707.027-1.414-.052-2.096-.129v3.017a21 21 0 0 0 2.198.128c2.45 0 3.715-.877 4.499-3.016L100 11.111h-3.716l-2.857 9.122h-.05l-2.958-9.122h-3.642ZM44.713 6.137c-.606-.026-1.263-.103-1.895-.103-2.932 0-4.372 1.675-4.372 4.045v1.032h-2.15v2.447h2.15v10.875h3.588V13.558h2.478V11.11h-2.478v-.8c0-1.108.38-1.52 1.364-1.52.43 0 .885.026 1.315.078z"/><path fill="#2e2e2e" fill-rule="evenodd" d="M82.402 6.034v18.4h-3.413V22.73h-.05c-.834 1.444-2.275 2.062-3.969 2.062-3.583 0-5.496-2.83-5.815-6.132h-9.4c.102 2.345 1.188 3.375 3.21 3.375 1.44 0 2.604-.903 2.831-1.726h3.16c-1.013 3.17-3.16 4.483-6.117 4.483-3.82 0-6.293-2.482-6.631-6.132h-9.242c.1 2.345 1.187 3.375 3.209 3.375 1.44 0 2.603-.903 2.83-1.726h3.16c-1.01 3.17-3.16 4.483-6.116 4.483-4.121 0-6.674-2.886-6.674-7.01 0-3.993 2.705-7.033 6.674-7.033 3.6 0 5.71 2.498 6.236 5.623.559-3.278 3.07-5.623 6.554-5.623 3.778 0 5.915 2.75 6.302 6.09.275-3.256 2.207-6.09 5.754-6.09 1.541 0 3.058.67 3.866 1.983h.052v-6.7h3.589Zm-32.454 7.472c-2.326 0-2.906 1.805-2.983 2.836h5.838c-.328-1.857-1.111-2.836-2.855-2.836m9.807 2.836c.077-1.031.657-2.836 2.983-2.836 1.743 0 2.528.98 2.856 2.836zm19.184 1.39c0-2.164-.758-4.226-3.084-4.226-2.35 0-3.159 2.088-3.159 4.253 0 2.087.935 4.277 3.159 4.277 2.352 0 3.084-2.113 3.084-4.303Z" clip-rule="evenodd"/></g><defs><clipPath id="a"><path fill="#fff" d="M0 0h100v29.123H0z"/></clipPath></defs></svg>