<svg xmlns="http://www.w3.org/2000/svg" width="237.037" height="64" fill="none" viewBox="0 0 100 27"><g clip-path="url(#a)"><path fill="#000" d="M0 3.946a.52.52 0 0 1 .313-.479.5.5 0 0 1 .196-.039h11.102a.5.5 0 0 1 .36.152c.096.097.15.229.15.366v2.977a.52.52 0 0 1-.314.478.5.5 0 0 1-.196.04h-7.43v3.935h6.108a.52.52 0 0 1 .355.155.54.54 0 0 1 .154.362v2.976a.54.54 0 0 1-.155.362.52.52 0 0 1-.354.157H4.18v6.632a.54.54 0 0 1-.153.362.52.52 0 0 1-.356.156H.51a.5.5 0 0 1-.36-.149.5.5 0 0 1-.149-.365zm14.909 0a.52.52 0 0 1 .314-.478.5.5 0 0 1 .195-.04H26.52a.5.5 0 0 1 .474.32q.038.095.038.198v2.977a.51.51 0 0 1-.513.518h-7.426v3.387h6.108c.134.004.262.06.357.156a.55.55 0 0 1 .16.362v2.976a.53.53 0 0 1-.314.482.5.5 0 0 1-.195.04h-6.108v3.686h7.42a.5.5 0 0 1 .36.15.52.52 0 0 1 .151.368v2.976a.53.53 0 0 1-.15.366.5.5 0 0 1-.362.148H15.417a.5.5 0 0 1-.36-.151.52.52 0 0 1-.149-.367zm15.504 0a.52.52 0 0 1 .313-.479.5.5 0 0 1 .196-.039h3.192c.133.005.26.061.354.157.095.097.15.226.155.361V18.53h6.375a.5.5 0 0 1 .36.151c.096.098.15.23.15.367v2.976a.52.52 0 0 1-.315.475.5.5 0 0 1-.194.04H30.921a.5.5 0 0 1-.36-.15.5.5 0 0 1-.149-.365V3.946zm36.434 7.292a.617.617 0 0 0 .815.17c1.93-1.149 8.586-4.916 10.585-8.672 1.69-3.17-1.849-2.902-3.881-2.516a5.64 5.64 0 0 0-2.442 1.127c-1.878 1.493-4.825 4.258-5.196 9.431a.7.7 0 0 0 .118.46zM54.898 18.58a.5.5 0 0 0-.216-.05h-6.384V3.946a.54.54 0 0 0-.153-.361.52.52 0 0 0-.356-.157h-3.191a.5.5 0 0 0-.36.152.52.52 0 0 0-.15.366v18.078a.52.52 0 0 0 .315.475q.093.04.194.04h6.062a22 22 0 0 1 4.24-3.96ZM74.684 8.8a45 45 0 0 1-3.786 2.119 5.52 5.52 0 0 1-.42 5.002 5.4 5.4 0 0 1-1.833 1.789 5.26 5.26 0 0 1-2.437.724 13 13 0 0 1-1.519 4.3q.627.08 1.258.082a9.5 9.5 0 0 0 3.702-.728 9.6 9.6 0 0 0 3.14-2.125 9.8 9.8 0 0 0 2.092-3.192 9.9 9.9 0 0 0 .724-3.767 10.1 10.1 0 0 0-.92-4.203Zm-13.667 6.276a5.4 5.4 0 0 1-.406-2.073c0-1.432.554-2.808 1.546-3.841a5.35 5.35 0 0 1 3.745-1.642 13.6 13.6 0 0 1 1.629-4.236 9.47 9.47 0 0 0-5.286.612 9.6 9.6 0 0 0-3.13 2.138 9.8 9.8 0 0 0-2.083 3.201 10 10 0 0 0-.713 3.77 10.1 10.1 0 0 0 .85 4.07 38 38 0 0 1 3.848-1.999m4.068-.344a.62.62 0 0 0-.815-.165c-1.93 1.144-8.431 4.974-10.431 8.704-1.69 3.172 1.853 2.903 3.885 2.518a5.6 5.6 0 0 0 2.442-1.124 12.65 12.65 0 0 0 3.557-4.167 12.9 12.9 0 0 0 1.488-5.31.7.7 0 0 0-.126-.456M99.389 3.428H96.25a.54.54 0 0 0-.48.382l-2.308 9.256h-.106L89.2 3.47a.47.47 0 0 0-.179-.229.45.45 0 0 0-.277-.074h-.484a.51.51 0 0 0-.44.302l-4.174 9.597h-.105L81.236 3.81a25 25 0 0 1-3.347 3l4.315 15.625a.53.53 0 0 0 .179.27.5.5 0 0 0 .302.111h.431a.56.56 0 0 0 .456-.298l4.886-11.173h.077l4.902 11.193a.55.55 0 0 0 .457.299h.438a.51.51 0 0 0 .485-.382l5.07-18.35a.48.48 0 0 0-.248-.648.46.46 0 0 0-.25-.029M65.968 14.231c.674 0 1.221-.557 1.221-1.244s-.547-1.244-1.221-1.244c-.675 0-1.222.558-1.222 1.244 0 .687.547 1.244 1.222 1.244"/></g><defs><clipPath id="a"><path fill="#fff" d="M0 0h100v26.016H0z"/></clipPath></defs></svg>