<svg xmlns="http://www.w3.org/2000/svg" width="237.037" height="64" fill="none" viewBox="0 0 100 27"><g clip-path="url(#a)"><path fill="#000" d="M0 3.946a.522.522 0 0 1 .313-.479.504.504 0 0 1 .196-.039h11.102a.504.504 0 0 1 .36.152c.096.097.15.229.15.366v2.977a.522.522 0 0 1-.314.478.504.504 0 0 1-.196.04h-7.43v3.935h6.108a.52.52 0 0 1 .355.155.54.54 0 0 1 .154.362v2.976a.54.54 0 0 1-.155.362.52.52 0 0 1-.354.157H4.18v6.632a.539.539 0 0 1-.153.362.52.52 0 0 1-.356.156H.51a.497.497 0 0 1-.36-.149.513.513 0 0 1-.149-.365V3.946Zm14.909 0a.52.52 0 0 1 .314-.478.504.504 0 0 1 .195-.04H26.52a.501.501 0 0 1 .474.32c.025.063.039.13.038.198v2.977a.508.508 0 0 1-.513.518h-7.426v3.387h6.108c.134.004.262.06.357.156a.547.547 0 0 1 .16.362v2.976a.528.528 0 0 1-.314.482.508.508 0 0 1-.195.04h-6.108v3.686h7.42a.5.5 0 0 1 .36.15.518.518 0 0 1 .151.368v2.976a.526.526 0 0 1-.15.366.503.503 0 0 1-.362.148H15.417a.506.506 0 0 1-.36-.151.523.523 0 0 1-.149-.367V3.947Zm15.504 0a.52.52 0 0 1 .313-.479.505.505 0 0 1 .196-.039h3.192c.133.005.26.061.354.157.095.097.15.226.155.361V18.53h6.375a.504.504 0 0 1 .36.151c.096.098.15.23.15.367v2.976a.523.523 0 0 1-.315.475.504.504 0 0 1-.194.04H30.921a.497.497 0 0 1-.36-.15.514.514 0 0 1-.149-.365V3.946h.001Zm36.434 7.292a.617.617 0 0 0 .815.17c1.93-1.149 8.586-4.916 10.585-8.672 1.69-3.17-1.849-2.902-3.881-2.516-.893.173-1.731.56-2.442 1.127-1.878 1.493-4.825 4.258-5.196 9.431a.71.71 0 0 0 .118.46h.001ZM54.898 18.58a.534.534 0 0 0-.216-.05h-6.384V3.946a.538.538 0 0 0-.153-.361.52.52 0 0 0-.356-.157h-3.191a.504.504 0 0 0-.36.152.523.523 0 0 0-.15.366v18.078a.523.523 0 0 0 .315.475c.061.026.127.04.194.04h6.062a21.919 21.919 0 0 1 4.24-3.96ZM74.684 8.8a45.042 45.042 0 0 1-3.786 2.119 5.518 5.518 0 0 1-.42 5.002 5.377 5.377 0 0 1-1.833 1.789 5.262 5.262 0 0 1-2.437.724 12.998 12.998 0 0 1-1.519 4.3c.418.054.838.081 1.258.082a9.462 9.462 0 0 0 3.702-.728 9.581 9.581 0 0 0 3.14-2.125 9.78 9.78 0 0 0 2.092-3.192 9.923 9.923 0 0 0 .724-3.767c0-1.453-.315-2.888-.92-4.203Zm-13.667 6.276a5.415 5.415 0 0 1-.406-2.073c0-1.432.554-2.808 1.546-3.841a5.35 5.35 0 0 1 3.745-1.642 13.619 13.619 0 0 1 1.629-4.236 9.468 9.468 0 0 0-5.286.612 9.61 9.61 0 0 0-3.13 2.138 9.809 9.809 0 0 0-2.083 3.201 9.948 9.948 0 0 0-.713 3.77 10.063 10.063 0 0 0 .85 4.07 37.672 37.672 0 0 1 3.848-1.999Zm4.068-.344a.618.618 0 0 0-.815-.165c-1.93 1.144-8.431 4.974-10.431 8.704-1.69 3.172 1.853 2.903 3.885 2.518a5.582 5.582 0 0 0 2.442-1.124 12.65 12.65 0 0 0 3.557-4.167 12.895 12.895 0 0 0 1.488-5.31.69.69 0 0 0-.126-.456ZM99.389 3.428H96.25a.544.544 0 0 0-.48.382l-2.308 9.256h-.106L89.2 3.47a.465.465 0 0 0-.179-.229.45.45 0 0 0-.277-.074h-.484a.506.506 0 0 0-.44.302l-4.174 9.597h-.105L81.236 3.81a25.103 25.103 0 0 1-3.347 3l4.315 15.625c.03.107.093.201.179.27a.509.509 0 0 0 .302.111h.431a.562.562 0 0 0 .456-.298l4.886-11.173h.077l4.902 11.193a.55.55 0 0 0 .457.299h.438a.51.51 0 0 0 .485-.382l5.07-18.35a.48.48 0 0 0-.248-.648.459.459 0 0 0-.25-.029ZM65.968 14.231c.674 0 1.221-.557 1.221-1.244 0-.686-.547-1.244-1.221-1.244-.675 0-1.222.558-1.222 1.244 0 .687.547 1.244 1.222 1.244Z"/></g><defs><clipPath id="a"><path fill="#fff" d="M0 0h100v26.016H0z"/></clipPath></defs></svg>