<svg xmlns="http://www.w3.org/2000/svg" width="62.72" height="64" fill="none" viewBox="0 0 49 50"><path fill="#51B1CF" d="M25.847 21.607a1.187 1.187 0 0 0 1.566.328c3.707-2.21 16.498-9.448 20.34-16.666C50.999-.824 44.2-.306 40.295.434a10.86 10.86 0 0 0-4.693 2.167c-3.607 2.868-9.27 8.181-9.983 18.122-.028.312.053.625.228.884m15.06-4.684a87 87 0 0 1-7.275 4.07 10.6 10.6 0 0 1-.81 9.612 10.3 10.3 0 0 1-3.52 3.437 10.1 10.1 0 0 1-4.683 1.392 25 25 0 0 1-2.918 8.261q1.205.157 2.417.16a18.2 18.2 0 0 0 7.113-1.4 18.4 18.4 0 0 0 6.033-4.082 18.8 18.8 0 0 0 4.021-6.135A19.1 19.1 0 0 0 42.675 25c0-2.792-.604-5.549-1.768-8.077m-26.262 12.06a10.4 10.4 0 0 1-.782-3.985c0-2.751 1.065-5.397 2.972-7.381a10.28 10.28 0 0 1 7.197-3.156 26.2 26.2 0 0 1 3.13-8.139 18.2 18.2 0 0 0-10.157 1.176 18.5 18.5 0 0 0-6.014 4.11 18.85 18.85 0 0 0-4.003 6.15A19.1 19.1 0 0 0 5.616 25a19.3 19.3 0 0 0 1.636 7.822 72 72 0 0 1 7.393-3.84Zm7.815-.662a1.19 1.19 0 0 0-1.565-.318C17.188 30.2 4.695 37.562.852 44.729c-3.247 6.095 3.56 5.578 7.464 4.837a10.7 10.7 0 0 0 4.693-2.159 24.3 24.3 0 0 0 6.835-8.008 24.8 24.8 0 0 0 2.858-10.201 1.32 1.32 0 0 0-.242-.877m1.697-.964c1.297 0 2.348-1.07 2.348-2.39 0-1.318-1.051-2.39-2.348-2.39s-2.346 1.072-2.346 2.39c0 1.32 1.05 2.39 2.346 2.39"/></svg>