<svg xmlns="http://www.w3.org/2000/svg" width="62.72" height="64" fill="none" viewBox="0 0 49 50"><path fill="#51B1CF" d="M25.847 21.607a1.187 1.187 0 0 0 1.566.328c3.707-2.21 16.498-9.448 20.34-16.666C50.999-.824 44.2-.306 40.295.434a10.86 10.86 0 0 0-4.693 2.167c-3.607 2.868-9.27 8.181-9.983 18.122-.028.312.053.625.228.884Zm15.06-4.684a86.543 86.543 0 0 1-7.275 4.07 10.604 10.604 0 0 1-.81 9.612 10.333 10.333 0 0 1-3.52 3.437 10.11 10.11 0 0 1-4.683 1.392 24.98 24.98 0 0 1-2.918 8.261c.802.105 1.61.158 2.417.16a18.18 18.18 0 0 0 7.113-1.4 18.415 18.415 0 0 0 6.033-4.082 18.791 18.791 0 0 0 4.021-6.135A19.064 19.064 0 0 0 42.675 25c0-2.792-.604-5.549-1.768-8.077Zm-26.262 12.06a10.408 10.408 0 0 1-.782-3.985c0-2.751 1.065-5.397 2.972-7.381a10.28 10.28 0 0 1 7.197-3.156 26.172 26.172 0 0 1 3.13-8.139 18.192 18.192 0 0 0-10.157 1.176 18.464 18.464 0 0 0-6.014 4.11 18.847 18.847 0 0 0-4.003 6.15A19.115 19.115 0 0 0 5.616 25a19.334 19.334 0 0 0 1.636 7.822 72.357 72.357 0 0 1 7.393-3.84Zm7.815-.662a1.188 1.188 0 0 0-1.565-.318C17.188 30.2 4.695 37.562.852 44.729c-3.247 6.095 3.56 5.578 7.464 4.837a10.728 10.728 0 0 0 4.693-2.159 24.31 24.31 0 0 0 6.835-8.008 24.773 24.773 0 0 0 2.858-10.201 1.323 1.323 0 0 0-.242-.877Zm1.697-.964c1.297 0 2.348-1.07 2.348-2.39 0-1.318-1.051-2.39-2.348-2.39s-2.346 1.072-2.346 2.39c0 1.32 1.05 2.39 2.346 2.39Z"/></svg>