<svg xmlns="http://www.w3.org/2000/svg" width="142.222" height="64" fill="none" viewBox="0 0 100 45"><path fill="#000" fill-rule="evenodd" d="M7.01 0A7.01 7.01 0 0 0 0 7.01v23.016a7.01 7.01 0 0 0 7.01 7.011h23.016a7.01 7.01 0 0 0 7.011-7.01V7.01A7.01 7.01 0 0 0 30.027 0zm16.535 3.968h4.762a5.026 5.026 0 0 1 5.026 5.027v19.047a5.026 5.026 0 0 1-5.026 5.027h-4.762a5.026 5.026 0 0 1-5.027-5.027V8.995a5.026 5.026 0 0 1 5.027-5.027" clip-rule="evenodd"/><path fill="#000" d="M50.488 34.593V22.441h12.264v-4.879H50.488V9.036h13.428V4.045h-19.47v30.548zm16.438 0h5.886V10.848h-5.886zm-.403-29.63q0 1.365.985 2.238.985.85 2.35.85 1.387 0 2.35-.85.985-.873.985-2.238 0-1.388-.985-2.238-.963-.873-2.35-.873-1.365 0-2.35.873-.984.85-.985 2.238m21.069 33.994q-1.297 0-2.283-.38-.984-.358-1.61-1.03a3.2 3.2 0 0 1-.83-1.477h-5.706a7.4 7.4 0 0 0 1.32 3.626q1.142 1.633 3.38 2.596 2.238.984 5.64.984 2.014 0 3.96-.492a10.8 10.8 0 0 0 3.56-1.544 8.1 8.1 0 0 0 2.55-2.798q.963-1.7.963-4.14V10.85h-5.819v3.49h-.246q-.471-1.074-1.455-1.924-.962-.873-2.327-1.365-1.344-.515-2.977-.515-2.707 0-4.744 1.276t-3.178 3.76q-1.142 2.46-1.142 6.064v1.477q0 3.648 1.142 6.133 1.14 2.484 3.178 3.76 2.037 1.275 4.744 1.275 1.23 0 2.305-.291a7.4 7.4 0 0 0 1.947-.806 6.2 6.2 0 0 0 1.477-1.186q.627-.693.963-1.454h.246v3.379q0 2.395-1.343 3.715t-3.715 1.32Zm.134-23.722q1.5 0 2.596.783t1.701 2.26q.627 1.477.627 3.559v1.387q0 2.104-.604 3.581-.582 1.477-1.701 2.26-1.096.784-2.619.784-1.566 0-2.708-.761-1.119-.784-1.723-2.26-.604-1.5-.604-3.604v-1.387q0-2.149.604-3.603.604-1.477 1.723-2.238 1.142-.761 2.708-.761"/></svg>