<svg xmlns="http://www.w3.org/2000/svg" width="142.222" height="64" fill="none" viewBox="0 0 100 45"><path fill="#000" fill-rule="evenodd" d="M7.01 0A7.01 7.01 0 0 0 0 7.01v23.016a7.01 7.01 0 0 0 7.01 7.011h23.016a7.01 7.01 0 0 0 7.011-7.01V7.01A7.01 7.01 0 0 0 30.027 0H7.01Zm16.535 3.968h4.762a5.026 5.026 0 0 1 5.026 5.027v19.047a5.026 5.026 0 0 1-5.026 5.027h-4.762a5.026 5.026 0 0 1-5.027-5.027V8.995a5.026 5.026 0 0 1 5.027-5.027Z" clip-rule="evenodd"/><path fill="#000" d="M50.488 34.593V22.441h12.264v-4.879H50.488V9.036h13.428V4.045h-19.47v30.548h6.042ZM66.926 34.593h5.886V10.848h-5.886v23.745Zm-.403-29.63c0 .91.329 1.656.985 2.238.657.566 1.44.85 2.35.85.925 0 1.708-.284 2.35-.85.656-.582.985-1.328.985-2.238 0-.925-.329-1.671-.985-2.238-.642-.582-1.425-.873-2.35-.873-.91 0-1.693.29-2.35.873-.656.567-.985 1.313-.985 2.238ZM87.592 38.957c-.865 0-1.626-.127-2.283-.38-.656-.239-1.193-.582-1.61-1.03a3.183 3.183 0 0 1-.83-1.477h-5.706a7.378 7.378 0 0 0 1.32 3.626c.762 1.089 1.888 1.954 3.38 2.596 1.492.656 3.372.984 5.64.984 1.342 0 2.663-.164 3.96-.492a10.748 10.748 0 0 0 3.56-1.544 8.072 8.072 0 0 0 2.55-2.798c.642-1.133.963-2.513.963-4.14V10.85h-5.819v3.49h-.246c-.314-.716-.799-1.357-1.455-1.924-.642-.582-1.417-1.037-2.327-1.365-.896-.343-1.888-.515-2.977-.515-1.805 0-3.386.425-4.744 1.276-1.358.85-2.417 2.104-3.178 3.76-.761 1.64-1.142 3.662-1.142 6.064v1.477c0 2.432.381 4.476 1.142 6.133.76 1.656 1.82 2.909 3.178 3.76 1.358.85 2.939 1.275 4.744 1.275.82 0 1.589-.097 2.305-.291a7.412 7.412 0 0 0 1.947-.806 6.217 6.217 0 0 0 1.477-1.186c.418-.462.739-.947.963-1.454h.246v3.379c0 1.596-.448 2.835-1.343 3.715-.895.88-2.133 1.32-3.715 1.32Zm.134-23.722c1 0 1.865.261 2.596.783.731.522 1.298 1.276 1.701 2.26.418.985.627 2.171.627 3.559v1.387c0 1.403-.202 2.596-.604 3.581-.388.985-.955 1.738-1.701 2.26-.731.523-1.604.784-2.619.784-1.044 0-1.947-.254-2.708-.761-.746-.522-1.32-1.276-1.723-2.26-.403-1-.604-2.201-.604-3.604v-1.387c0-1.433.201-2.633.604-3.603.403-.985.977-1.731 1.723-2.238.761-.508 1.664-.761 2.708-.761Z"/></svg>