<svg xmlns="http://www.w3.org/2000/svg" width="64" height="64" fill="none" viewBox="0 0 50 50"><g clip-path="url(#a)"><path fill="#000" fill-rule="evenodd" d="M9.464 0A9.464 9.464 0 0 0 0 9.464v31.072A9.464 9.464 0 0 0 9.464 50h31.072A9.464 9.464 0 0 0 50 40.536V9.464A9.464 9.464 0 0 0 40.536 0H9.464Zm22.322 5.357h6.428A6.786 6.786 0 0 1 45 12.143v25.714a6.786 6.786 0 0 1-6.786 6.786h-6.428A6.786 6.786 0 0 1 25 37.857V12.143a6.786 6.786 0 0 1 6.786-6.786Z" clip-rule="evenodd"/></g><defs><clipPath id="a"><path fill="#fff" d="M0 0h50v50H0z"/></clipPath></defs></svg>