<svg xmlns="http://www.w3.org/2000/svg" width="43.52" height="64" fill="none" viewBox="0 0 34 50"><g clip-path="url(#a)"><path fill="#0ACF83" d="M8.333 50c4.6 0 8.334-3.733 8.334-8.333v-8.334H8.333A8.336 8.336 0 0 0 0 41.667C0 46.267 3.733 50 8.333 50"/><path fill="#A259FF" d="M0 25c0-4.6 3.733-8.333 8.333-8.333h8.334v16.666H8.333A8.336 8.336 0 0 1 0 25"/><path fill="#F24E1E" d="M0 8.333C0 3.733 3.733 0 8.333 0h8.334v16.667H8.333A8.336 8.336 0 0 1 0 8.333"/><path fill="#FF7262" d="M16.672 0h8.333c4.6 0 8.334 3.733 8.334 8.333s-3.734 8.334-8.334 8.334h-8.333z"/><path fill="#1ABCFE" d="M33.339 25c0 4.6-3.734 8.333-8.334 8.333A8.336 8.336 0 0 1 16.672 25c0-4.6 3.733-8.333 8.333-8.333S33.34 20.4 33.34 25Z"/></g><defs><clipPath id="a"><path fill="#fff" d="M0 0h33.34v50H0z"/></clipPath></defs></svg>