<svg xmlns="http://www.w3.org/2000/svg" width="177.778" height="64" fill="none" viewBox="0 0 100 36"><g fill="#000" clip-path="url(#a)"><path d="M.71 0v27.616l3.563.014V14.48h8.561V11H4.26V3.466h11.164V0H.711Zm21.097 5.616a2.329 2.329 0 1 0 0-4.657 2.329 2.329 0 0 0 0 4.657Zm-1.795 3.466V27.63h3.562V9.082h-3.562Z"/><path fill-rule="evenodd" d="M36.742 8.548c-4.712 0-8 3.986-8 8.726S32.03 26 36.742 26c2.165 0 3.945-.822 5.247-2.192v2.466a5.578 5.578 0 0 1-5.562 5.644c-1.137 0-2.26-.438-3.15-1.069l-1.781 3.082a9.108 9.108 0 0 0 14.054-7.67V9.095H41.99v1.658c-1.302-1.37-3.082-2.192-5.247-2.192v-.014Zm-4.452 8.726c0-2.945 2.247-5.26 4.85-5.26 2.602 0 4.835 2.329 4.835 5.26 0 2.945-2.247 5.247-4.836 5.247-2.602 0-4.849-2.302-4.849-5.247Z" clip-rule="evenodd"/><path d="M58.339 12.014a3.877 3.877 0 0 0-3.809 3.89V27.63H50.97V9.082h3.561v1.699a5.615 5.615 0 0 1 4.576-2.233c2.493 0 4.41 1.233 5.507 3.123a6.821 6.821 0 0 1 5.657-3.123c4.041 0 6.576 3.26 6.576 7.301V27.63H73.31V15.89A3.877 3.877 0 0 0 69.503 12a3.877 3.877 0 0 0-3.808 3.89v11.727h-3.562V15.89A3.876 3.876 0 0 0 58.34 12v.014Z"/><path fill-rule="evenodd" d="M95.794 11.192a8.588 8.588 0 0 0-6.26-2.644c-5.288 0-9.042 4.466-9.042 9.808s3.754 9.808 9.041 9.808a8.634 8.634 0 0 0 6.26-2.644v2.11h3.548V9.082H95.78v2.11h.014ZM84.04 18.356c0-3.534 2.712-6.342 5.877-6.342 3.15 0 5.877 2.808 5.877 6.342s-2.713 6.329-5.877 6.329c-3.15 0-5.877-2.795-5.877-6.329Z" clip-rule="evenodd"/></g><defs><clipPath id="a"><path fill="#fff" d="M0 0h100v35.616H0z"/></clipPath></defs></svg>