<svg xmlns="http://www.w3.org/2000/svg" width="64" height="64" fill="none" viewBox="0 0 32 32"><path fill="url(#a)" d="M28.99 10.727c-.608-1.47-1.843-3.056-2.812-3.557.789 1.55 1.245 3.105 1.42 4.264l.003.024c-1.585-3.96-4.273-5.557-6.468-9.034-.112-.175-.223-.35-.331-.538a4 4 0 0 1-.154-.293 2.6 2.6 0 0 1-.218-.578.04.04 0 0 0-.023-.013h-.026l-.007.004-.01.005.006-.007c-3.522 2.067-4.716 5.89-4.826 7.804a7 7 0 0 0-3.861 1.49 4 4 0 0 0-.363-.275 6.5 6.5 0 0 1-.039-3.434c-1.44.658-2.56 1.696-3.374 2.614H7.9c-.556-.706-.517-3.033-.485-3.519-.007-.03-.414.213-.467.25q-.737.526-1.37 1.176A12 12 0 0 0 4.27 8.683a11.9 11.9 0 0 0-1.881 4.257l-.019.093c-.026.123-.121.742-.138.877v.03q-.186.961-.231 1.94v.071C2 23.71 8.276 30 16.018 30c6.934 0 12.69-5.045 13.818-11.672q.034-.27.064-.542c.279-2.41-.031-4.942-.91-7.06M12.834 21.724c.065.03.127.065.194.096l.01.006zm14.769-10.26v-.013.015z"/><path fill="url(#b)" d="M28.99 10.727c-.608-1.47-1.843-3.056-2.812-3.557.789 1.55 1.245 3.105 1.42 4.264v.03c1.323 3.593.602 7.248-.437 9.481-1.606 3.455-5.495 6.997-11.583 6.824-6.572-.187-12.366-5.08-13.449-11.485-.197-1.01 0-1.523.1-2.343-.121.631-.167.814-.227 1.938v.072C2.002 23.71 8.278 30 16.02 30c6.934 0 12.69-5.045 13.818-11.672q.034-.27.064-.542c.277-2.41-.033-4.942-.912-7.06"/><path fill="url(#c)" d="M28.99 10.727c-.608-1.47-1.843-3.056-2.812-3.557.789 1.55 1.245 3.105 1.42 4.264v.03c1.323 3.593.602 7.248-.437 9.481-1.606 3.455-5.495 6.997-11.583 6.824-6.572-.187-12.366-5.08-13.449-11.485-.197-1.01 0-1.523.1-2.343-.121.631-.167.814-.227 1.938v.072C2.002 23.71 8.278 30 16.02 30c6.934 0 12.69-5.045 13.818-11.672q.034-.27.064-.542c.277-2.41-.033-4.942-.912-7.06"/><path fill="url(#d)" d="m22.178 12.377.088.065a7.6 7.6 0 0 0-1.302-1.702c-4.358-4.367-1.142-9.47-.6-9.729l.005-.007c-3.521 2.067-4.716 5.89-4.825 7.804.163-.011.325-.025.492-.025 2.628 0 4.916 1.448 6.142 3.594"/><path fill="url(#e)" d="M16.045 13.25c-.023.35-1.255 1.555-1.686 1.555-3.987 0-4.634 2.416-4.634 2.416.175 2.036 1.59 3.712 3.303 4.599q.117.059.233.113.206.088.412.169a6.2 6.2 0 0 0 1.824.35c6.987.329 8.341-8.372 3.298-10.899 1.291-.225 2.632.296 3.38.823-1.225-2.146-3.514-3.595-6.142-3.595-.166 0-.33.014-.493.025a7 7 0 0 0-3.857 1.492c.214.182.456.424.964.925.953.943 3.392 1.913 3.397 2.027"/><path fill="url(#f)" d="M16.045 13.25c-.023.35-1.255 1.555-1.686 1.555-3.987 0-4.634 2.416-4.634 2.416.175 2.036 1.59 3.712 3.303 4.599q.117.059.233.113.206.088.412.169a6.2 6.2 0 0 0 1.824.35c6.987.329 8.341-8.372 3.298-10.899 1.291-.225 2.632.296 3.38.823-1.225-2.146-3.514-3.595-6.142-3.595-.166 0-.33.014-.493.025a7 7 0 0 0-3.857 1.492c.214.182.456.424.964.925.953.943 3.392 1.913 3.397 2.027"/><path fill="url(#g)" d="m11.031 9.83.292.193a6.5 6.5 0 0 1-.039-3.434c-1.44.658-2.56 1.696-3.374 2.614.065-.002 2.099-.039 3.121.628"/><path fill="url(#h)" d="M2.13 16.284C3.212 22.69 9.006 27.582 15.583 27.77c6.088.173 9.975-3.369 11.583-6.824 1.039-2.233 1.76-5.888.437-9.482v-.027l.002.024c.497 3.254-1.154 6.407-3.736 8.539l-.007.018c-5.031 4.105-9.845 2.477-10.82 1.812l-.204-.102c-2.933-1.403-4.145-4.083-3.885-6.38-2.476 0-3.321-2.094-3.321-2.094s2.224-1.589 5.154-.207c2.714 1.28 5.263.208 5.263.207-.005-.114-2.444-1.087-3.396-2.026-.508-.502-.75-.744-.963-.925a4 4 0 0 0-.363-.275c-.084-.059-.175-.117-.292-.193-1.022-.666-3.056-.63-3.123-.627h-.006c-.556-.706-.517-3.033-.486-3.52-.006-.03-.414.213-.466.25-.49.35-.95.744-1.37 1.176q-.72.732-1.31 1.573a11.9 11.9 0 0 0-1.88 4.257c-.012.027-.51 2.21-.264 3.341"/><path fill="url(#i)" d="M20.964 10.74c.511.503.95 1.076 1.302 1.702q.109.083.21.176c3.177 2.932 1.515 7.083 1.388 7.381 2.582-2.132 4.233-5.284 3.736-8.539-1.584-3.962-4.272-5.56-6.467-9.036-.112-.175-.223-.35-.331-.538a4 4 0 0 1-.154-.293 2.6 2.6 0 0 1-.218-.578.04.04 0 0 0-.023-.013h-.026l-.007.004-.01.005c-.543.26-3.758 5.362.6 9.729"/><path fill="url(#j)" d="M22.474 12.615a3 3 0 0 0-.21-.176l-.087-.065c-.748-.526-2.089-1.047-3.38-.822 5.042 2.527 3.688 11.228-3.299 10.9a6.2 6.2 0 0 1-1.823-.352 8 8 0 0 1-.412-.169 4 4 0 0 1-.234-.112l.01.005c.974.667 5.789 2.296 10.82-1.812l.007-.018c.125-.293 1.787-4.444-1.392-7.38"/><path fill="url(#k)" d="M9.725 17.221s.647-2.416 4.634-2.416c.43 0 1.663-1.206 1.685-1.555.023-.35-2.549 1.073-5.263-.207-2.93-1.382-5.154.207-5.154.207s.845 2.094 3.32 2.094c-.259 2.297.953 4.975 3.886 6.38.066.03.127.065.194.096-1.711-.885-3.125-2.563-3.302-4.599"/><path fill="url(#l)" d="M28.99 10.727c-.608-1.47-1.843-3.056-2.812-3.557.789 1.55 1.245 3.105 1.42 4.264l.003.024c-1.585-3.96-4.273-5.557-6.468-9.034-.112-.175-.223-.35-.331-.538a4 4 0 0 1-.154-.293 2.6 2.6 0 0 1-.218-.578.04.04 0 0 0-.023-.013h-.026l-.007.004-.01.005.006-.007c-3.522 2.067-4.716 5.89-4.826 7.804.163-.011.326-.025.492-.025 2.628 0 4.917 1.448 6.143 3.594-.749-.526-2.09-1.047-3.38-.822 5.042 2.527 3.688 11.228-3.299 10.899a6.2 6.2 0 0 1-1.824-.35 8 8 0 0 1-.412-.17 4 4 0 0 1-.233-.113l.01.006-.204-.101c.065.03.127.065.194.096-1.716-.887-3.129-2.565-3.306-4.6 0 0 .647-2.417 4.634-2.417.43 0 1.663-1.206 1.685-1.555-.005-.114-2.444-1.087-3.396-2.027-.508-.501-.75-.743-.963-.925a4 4 0 0 0-.363-.275 6.5 6.5 0 0 1-.04-3.434c-1.44.658-2.56 1.696-3.374 2.614h-.006c-.556-.706-.517-3.033-.485-3.519-.007-.03-.414.213-.467.25-.49.35-.95.744-1.37 1.176a12.3 12.3 0 0 0-1.31 1.573 11.9 11.9 0 0 0-1.88 4.257l-.019.093a25 25 0 0 0-.162.885c0 .01 0-.01 0 0q-.164.975-.209 1.961v.072C2 23.71 8.276 30 16.018 30c6.934 0 12.69-5.045 13.818-11.672q.034-.27.064-.542c.279-2.41-.031-4.942-.91-7.06m-1.39.72v.016z"/><defs><radialGradient id="b" cx="0" cy="0" r="1" gradientTransform="matrix(29.2246 0 0 29.2888 26.06 4.219)" gradientUnits="userSpaceOnUse"><stop offset=".13" stop-color="#FFBD4F"/><stop offset=".19" stop-color="#FFAC31"/><stop offset=".25" stop-color="#FF9D17"/><stop offset=".28" stop-color="#FF980E"/><stop offset=".4" stop-color="#FF563B"/><stop offset=".47" stop-color="#FF3750"/><stop offset=".71" stop-color="#F5156C"/><stop offset=".78" stop-color="#EB0878"/><stop offset=".86" stop-color="#E50080"/></radialGradient><radialGradient id="c" cx="0" cy="0" r="1" gradientTransform="matrix(29.2246 0 0 29.2888 15.38 16.192)" gradientUnits="userSpaceOnUse"><stop offset=".3" stop-color="#960E18"/><stop offset=".35" stop-color="#B11927" stop-opacity=".74"/><stop offset=".43" stop-color="#DB293D" stop-opacity=".34"/><stop offset=".5" stop-color="#F5334B" stop-opacity=".09"/><stop offset=".53" stop-color="#FF3750" stop-opacity="0"/></radialGradient><radialGradient id="d" cx="0" cy="0" r="1" gradientTransform="matrix(21.172 0 0 21.2184 18.904 -2.428)" gradientUnits="userSpaceOnUse"><stop offset=".13" stop-color="#FFF44F"/><stop offset=".25" stop-color="#FFDC3E"/><stop offset=".51" stop-color="#FF9D12"/><stop offset=".53" stop-color="#FF980E"/></radialGradient><radialGradient id="e" cx="0" cy="0" r="1" gradientTransform="matrix(13.915 0 0 13.9455 12.149 23.843)" gradientUnits="userSpaceOnUse"><stop offset=".35" stop-color="#3A8EE6"/><stop offset=".47" stop-color="#5C79F0"/><stop offset=".67" stop-color="#9059FF"/><stop offset="1" stop-color="#C139E6"/></radialGradient><radialGradient id="f" cx="0" cy="0" r="1" gradientTransform="matrix(7.15643 -1.77455 2.08872 8.42342 15.8 12.712)" gradientUnits="userSpaceOnUse"><stop offset=".21" stop-color="#9059FF" stop-opacity="0"/><stop offset=".28" stop-color="#8C4FF3" stop-opacity=".06"/><stop offset=".75" stop-color="#7716A8" stop-opacity=".45"/><stop offset=".97" stop-color="#6E008B" stop-opacity=".6"/></radialGradient><radialGradient id="g" cx="0" cy="0" r="1" gradientTransform="matrix(10.0108 0 0 10.0328 15.011 3.02)" gradientUnits="userSpaceOnUse"><stop stop-color="#FFE226"/><stop offset=".12" stop-color="#FFDB27"/><stop offset=".3" stop-color="#FFC82A"/><stop offset=".5" stop-color="#FFA930"/><stop offset=".73" stop-color="#FF7E37"/><stop offset=".79" stop-color="#FF7139"/></radialGradient><radialGradient id="h" cx="0" cy="0" r="1" gradientTransform="matrix(42.7109 0 0 42.8046 22.88 -3.343)" gradientUnits="userSpaceOnUse"><stop offset=".11" stop-color="#FFF44F"/><stop offset=".46" stop-color="#FF980E"/><stop offset=".62" stop-color="#FF5634"/><stop offset=".72" stop-color="#FF3647"/><stop offset=".9" stop-color="#E31587"/></radialGradient><radialGradient id="i" cx="0" cy="0" r="1" gradientTransform="matrix(3.12854 31.04235 -20.3512 2.05105 18.751 1.334)" gradientUnits="userSpaceOnUse"><stop stop-color="#FFF44F"/><stop offset=".06" stop-color="#FFE847"/><stop offset=".17" stop-color="#FFC830"/><stop offset=".3" stop-color="#FF980E"/><stop offset=".36" stop-color="#FF8B16"/><stop offset=".45" stop-color="#FF672A"/><stop offset=".57" stop-color="#FF3647"/><stop offset=".74" stop-color="#E31587"/></radialGradient><radialGradient id="j" cx="0" cy="0" r="1" gradientTransform="matrix(26.6644 0 0 26.723 14.776 6.736)" gradientUnits="userSpaceOnUse"><stop offset=".14" stop-color="#FFF44F"/><stop offset=".48" stop-color="#FF980E"/><stop offset=".59" stop-color="#FF5634"/><stop offset=".66" stop-color="#FF3647"/><stop offset=".9" stop-color="#E31587"/></radialGradient><radialGradient id="k" cx="0" cy="0" r="1" gradientTransform="matrix(29.1844 0 0 29.2484 21.814 8.3)" gradientUnits="userSpaceOnUse"><stop offset=".09" stop-color="#FFF44F"/><stop offset=".23" stop-color="#FFE141"/><stop offset=".51" stop-color="#FFAF1E"/><stop offset=".63" stop-color="#FF980E"/></radialGradient><linearGradient id="a" x1="27.135" x2="3.814" y1="5.493" y2="27.944" gradientUnits="userSpaceOnUse"><stop offset=".05" stop-color="#FFF44F"/><stop offset=".11" stop-color="#FFE847"/><stop offset=".22" stop-color="#FFC830"/><stop offset=".37" stop-color="#FF980E"/><stop offset=".4" stop-color="#FF8B16"/><stop offset=".46" stop-color="#FF672A"/><stop offset=".53" stop-color="#FF3647"/><stop offset=".7" stop-color="#E31587"/></linearGradient><linearGradient id="l" x1="26.855" x2="7.01" y1="5.372" y2="25.174" gradientUnits="userSpaceOnUse"><stop offset=".17" stop-color="#FFF44F" stop-opacity=".8"/><stop offset=".27" stop-color="#FFF44F" stop-opacity=".63"/><stop offset=".49" stop-color="#FFF44F" stop-opacity=".22"/><stop offset=".6" stop-color="#FFF44F" stop-opacity="0"/></linearGradient></defs></svg>