<svg xmlns="http://www.w3.org/2000/svg" width="64" height="64" fill="none" viewBox="0 0 50 50"><g fill="#3B2FC9" clip-path="url(#a)"><path d="M12.328 27.335c-.613.613-1.378.92-2.297.92H2.374c-.69 0-1.225-.23-1.685-.69C.306 27.105 0 26.57 0 25.881V2.374c0-.69.306-1.225.69-1.685C1.148.306 1.76 0 2.373 0h14.088c.69 0 1.226.306 1.685.69.46.459.69.995.69 1.684v17.075c0 .842-.307 1.684-.92 2.22l-2.756 2.757-2.833 2.91ZM22.513 12.328a3.066 3.066 0 0 1-.92-2.22V2.373c0-.69.307-1.225.69-1.685C22.743.306 23.355 0 23.967 0H47.474c.69 0 1.226.306 1.685.69.46.459.69.995.69 1.684v14.088c0 .69-.307 1.226-.69 1.685-.46.46-.995.69-1.685.69H30.323c-.843 0-1.685-.307-2.297-.92l-2.757-2.756-2.756-2.833ZM37.593 22.665c.612-.613 1.378-.92 2.297-.92h7.58c.69 0 1.225.307 1.685.69.46.46.689.995.689 1.684V47.55c0 .689-.306 1.225-.69 1.684-.459.46-.995.69-1.684.69H33.381c-.689 0-1.225-.307-1.684-.69-.46-.459-.69-.995-.69-1.684V30.475c0-.843.307-1.685.92-2.22l2.756-2.757 2.91-2.833ZM27.335 37.672c.613.613.92 1.379.92 2.298V47.626c0 .69-.307 1.226-.69 1.685-.46.46-.995.69-1.684.69H2.374c-.69 0-1.225-.307-1.685-.69C.306 48.851 0 48.239 0 47.626V33.538c0-.69.306-1.225.69-1.685.459-.46.995-.69 1.684-.69h17.075c.842 0 1.684.307 2.22.92l2.757 2.756 2.91 2.834Z"/></g><defs><clipPath id="a"><path fill="#fff" d="M0 0h50v50H0z"/></clipPath></defs></svg>