<svg xmlns="http://www.w3.org/2000/svg" width="277.333" height="64" fill="none" viewBox="0 0 104 24"><g clip-path="url(#a)"><path fill="#3B2FC9" d="M5.917 13.121a1.496 1.496 0 0 1-1.102.441H1.139c-.33 0-.588-.11-.808-.33-.184-.221-.331-.479-.331-.81V1.14C0 .81.147.551.33.331.552.147.846 0 1.14 0H7.901c.33 0 .588.147.809.33.22.221.33.479.33.81v8.195c0 .405-.147.809-.44 1.066l-1.324 1.323-1.36 1.397ZM10.808 5.917a1.472 1.472 0 0 1-.44-1.066V1.14c0-.33.146-.588.33-.808.22-.184.515-.331.809-.331H22.79c.33 0 .588.147.809.33.22.221.33.479.33.81V7.901c0 .33-.147.588-.33.809-.221.22-.478.33-.81.33h-8.232c-.404 0-.808-.147-1.103-.44l-1.323-1.324-1.323-1.36ZM18.044 10.879a1.496 1.496 0 0 1 1.102-.441H22.785c.33 0 .588.147.808.33.22.221.331.479.331.81v11.246c0 .33-.147.588-.33.808-.221.221-.479.331-.81.331H16.023c-.33 0-.588-.147-.808-.33a1.08 1.08 0 0 1-.331-.81v-8.195c0-.404.147-.809.44-1.066l1.324-1.323 1.397-1.36ZM13.121 18.083c.294.294.441.661.441 1.102v3.676c0 .33-.147.588-.33.808-.221.22-.479.331-.81.331H1.14c-.33 0-.588-.147-.808-.33-.184-.221-.331-.515-.331-.81V16.099c0-.33.147-.588.33-.808.221-.221.479-.331.81-.331h8.195c.405 0 .809.147 1.066.44l1.323 1.324 1.397 1.36Z"/><path fill="#090B2B" d="M61.893 18.083c-.147.11-.294.22-.405.294-.11.073-.184.11-.257.147a.62.62 0 0 1-.184.073h-.22a.644.644 0 0 1-.625-.404c-.11-.294-.184-.809-.184-1.58v-3.566c0-.624-.037-1.139-.11-1.47a3.033 3.033 0 0 0-.368-.955c-.588-.92-1.727-1.397-3.381-1.397-1.213 0-2.205.22-2.94.625-.735.404-1.066.992-1.066 1.727 0 .368.11.699.33.92.221.22.515.367.846.367.368 0 .698-.11.919-.331.22-.22.367-.515.367-.845 0-.295-.11-.552-.294-.736l-.22-.22c-.037-.037-.037-.037-.037-.073 0-.074.037-.148.147-.258.11-.073.22-.147.368-.22.147-.074.33-.11.514-.147.184-.037.404-.037.588-.037.993 0 1.654.294 1.985.882.073.147.147.257.184.404.036.11.073.294.11.478.037.184.037.404.073.662 0 .294.037.624.037.992l-2.021.368-.809.147c-.404.073-.772.147-1.029.22-.294.074-.551.147-.772.22a2.93 2.93 0 0 0-.588.295 5.4 5.4 0 0 0-.478.33c-.514.478-.771 1.14-.771 1.985 0 .919.257 1.654.808 2.168.515.515 1.25.81 2.169.81.661 0 1.286-.148 1.837-.442.552-.294 1.103-.772 1.691-1.433.074.294.147.551.184.698.073.147.147.294.257.441.147.22.33.368.551.478.22.11.441.184.699.184.404 0 .771-.11 1.139-.294.367-.184.809-.552 1.286-.993l-.33-.514Zm-3.786-4.117v1.69c0 .736-.11 1.324-.33 1.692-.221.367-.515.661-.92.882-.404.22-.845.33-1.286.33-.588 0-1.066-.183-1.397-.55-.367-.368-.514-.846-.514-1.434 0-.956.44-1.58 1.286-1.911a9.89 9.89 0 0 1 1.176-.331c.478-.074 1.14-.22 1.985-.368ZM69.388 18.23c-.367.147-.698.257-.919.294-.22.073-.44.073-.624.073-.552 0-.956-.147-1.213-.478-.258-.33-.404-.808-.404-1.433v-6.138h3.013V9.85h-3.013V5.807h-.478l-1.397 1.397v2.609h-2.462v.698h2.462v6.873c0 .772.184 1.397.551 1.764.368.405.92.588 1.618.588.477 0 .955-.073 1.433-.257.478-.147 1.029-.44 1.654-.808l-.22-.441ZM82.218 8.16c.368 0 .699-.111.956-.368.257-.258.367-.552.367-.92 0-.367-.11-.66-.367-.918-.257-.257-.552-.368-.92-.368-.33 0-.66.11-.918.368a1.194 1.194 0 0 0-.367.882c0 .368.11.662.367.919.22.257.551.404.882.404ZM102.913 17.127c-.294.33-.588.588-.845.809-.257.22-.515.367-.772.514-.257.11-.515.22-.809.258-.294.036-.588.073-.955.073-1.213 0-2.132-.404-2.757-1.213a3.504 3.504 0 0 1-.551-1.25c-.11-.477-.147-1.102-.147-1.91h7.682a16.405 16.405 0 0 0-.184-1.802 4.936 4.936 0 0 0-.478-1.286c-.368-.662-.919-1.176-1.654-1.544-.735-.367-1.544-.55-2.462-.55-.772 0-1.47.11-2.096.367a4.71 4.71 0 0 0-1.58 1.029c-.44.44-.772.992-.992 1.654a6.878 6.878 0 0 0-.368 2.168c0 .809.11 1.544.368 2.205.22.662.588 1.213.992 1.691.441.478.956.808 1.58 1.066.625.257 1.324.367 2.096.367.477 0 .882-.036 1.286-.11.404-.073.772-.22 1.103-.404a4.646 4.646 0 0 0 1.029-.698c.33-.295.698-.625 1.029-1.03l-.515-.404Zm-4.043-7.24c.919 0 1.581.294 1.985.882.404.588.662 1.543.772 2.94H96.04c.11-1.36.368-2.352.809-2.94.44-.588 1.14-.882 2.021-.882ZM48.667 18.67a1.003 1.003 0 0 1-.441-.33c-.11-.147-.147-.368-.184-.625-.037-.257-.037-.625-.037-1.066V4.153l-3.785.919v.698c.367 0 .698.037.919.11.257.074.44.184.55.331.148.147.221.368.295.662.036.294.073.661.073 1.102v8.674c0 .441 0 .772-.037 1.066-.036.257-.073.478-.183.625-.11.147-.258.257-.441.33-.184.074-.441.11-.772.184l-.515.037v.662h5.88v-.662l-.514-.036a2.938 2.938 0 0 1-.808-.184ZM84.2 18.67a1.003 1.003 0 0 1-.44-.33c-.11-.147-.148-.368-.184-.625-.037-.257-.037-.625-.037-1.066V8.931l-3.786.919v.698c.368 0 .699.037.92.11a1.3 1.3 0 0 1 .587.331c.147.147.22.368.294.662.037.294.074.661.074 1.102v3.933c0 .44 0 .772-.037 1.066-.037.257-.074.478-.184.625-.11.147-.257.257-.44.33-.185.074-.442.11-.773.184l-.514.037v.661h5.88v-.661l-.514-.037a4.428 4.428 0 0 1-.846-.22ZM91.515 18.67a1.003 1.003 0 0 1-.44-.33c-.111-.147-.148-.368-.185-.625-.036-.257-.036-.625-.036-1.066V4.153l-3.75.956v.698c.368 0 .699.037.92.11.257.074.44.184.588.331.147.147.22.368.294.662.036.294.073.661.073 1.102v8.674c0 .441 0 .772-.037 1.066-.036.257-.073.478-.183.625-.11.147-.258.257-.441.33-.184.074-.442.11-.772.184l-.515.037v.662h5.88v-.662l-.514-.037a6.057 6.057 0 0 1-.882-.22ZM78.135 5.072c-.441-.294-.993-.478-1.69-.478-1.03 0-1.875.331-2.5.993-.625.661-.919 1.58-.919 2.72v.881c0 .22.037.405.037.625h-1.985v.698h1.985v6.138c0 .441 0 .772-.037 1.066-.037.258-.073.478-.184.625-.11.147-.257.257-.44.33-.184.074-.442.111-.773.185l-.514.036v.662h6.027v-.662l-.661-.036c-.33-.074-.588-.11-.772-.184a1.004 1.004 0 0 1-.441-.331c-.11-.147-.147-.367-.184-.625-.037-.257-.037-.625-.037-1.066v-6.1h2.72V9.85h-2.72c-.036-.074-.33-.956-.477-1.911-.074-.588-.074-1.066.037-1.47.11-.515.367-.846.771-1.03h.147c.184-.073.368-.11.552-.11.183 0 .367.037.55.11.148.074.258.148.258.221 0 .037-.037.11-.11.184-.22.22-.368.514-.368.845 0 .331.11.588.331.809.22.22.515.294.846.294.367 0 .698-.147.955-.404.257-.258.368-.625.368-1.03-.11-.588-.331-.992-.772-1.286ZM31.938 5.109v.698l.771.073c.588.074.993.221 1.176.442.074.073.11.147.147.22a.569.569 0 0 1 .074.294c0 .11.037.257.037.441v10.107c0 .184-.037.331-.037.441 0 .11-.037.22-.074.294-.036.074-.073.147-.147.184-.183.257-.588.404-1.176.441l-.772.074v.698h6.873v-.698l-.992-.074c-.588-.037-.956-.184-1.176-.44-.074-.074-.11-.111-.11-.185-.037-.073-.037-.183-.074-.294-.037-.11-.037-.257-.037-.44v-4.08h1.875c.22 0 .404.036.551.073.184.037.368.11.515.22.147.111.257.258.367.478.11.184.22.441.294.736l.184.588h.845v-5.11h-.845l-.147.589c-.11.33-.22.588-.294.772-.11.22-.22.367-.368.478-.147.11-.294.22-.477.257-.11.037-.22.037-.405.073h-2.131V6.027h2.352c.698 0 1.286.037 1.727.11.441.074.809.221 1.066.442.257.22.441.514.515.882.11.367.147.882.183 1.47h.846V5.109H31.938Z"/></g><defs><clipPath id="a"><path fill="#fff" d="M0 0h104v24H0z"/></clipPath></defs></svg>