<svg xmlns="http://www.w3.org/2000/svg" width="277.333" height="64" fill="none" viewBox="0 0 104 24"><g clip-path="url(#a)"><path fill="#3B2FC9" d="M5.917 13.121a1.5 1.5 0 0 1-1.102.441H1.139c-.33 0-.588-.11-.808-.33-.184-.221-.331-.479-.331-.81V1.14C0 .81.147.551.33.331.552.147.846 0 1.14 0h6.761c.33 0 .588.147.809.33.22.221.33.479.33.81v8.195c0 .405-.147.809-.44 1.066l-1.324 1.323-1.36 1.397Zm4.891-7.204a1.47 1.47 0 0 1-.44-1.066V1.14c0-.33.146-.588.33-.808.22-.184.515-.331.809-.331H22.79c.33 0 .588.147.809.33.22.221.33.479.33.81v6.76c0 .33-.147.588-.33.809-.221.22-.478.33-.81.33h-8.232c-.404 0-.808-.147-1.103-.44l-1.323-1.324-1.323-1.36Zm7.236 4.962a1.5 1.5 0 0 1 1.102-.441h3.639c.33 0 .588.147.808.33.22.221.331.479.331.81v11.246c0 .33-.147.588-.33.808a1.08 1.08 0 0 1-.81.331h-6.761c-.33 0-.588-.147-.808-.33a1.08 1.08 0 0 1-.331-.81v-8.195c0-.404.147-.809.44-1.066l1.324-1.323zm-4.923 7.204q.441.44.441 1.102v3.676c0 .33-.147.588-.33.808-.221.22-.479.331-.81.331H1.14c-.33 0-.588-.147-.808-.33-.184-.221-.331-.515-.331-.81v-6.761c0-.33.147-.588.33-.808.221-.221.479-.331.81-.331h8.195c.405 0 .809.147 1.066.44l1.323 1.324 1.397 1.36Z"/><path fill="#090B2B" d="M61.893 18.083c-.147.11-.294.22-.405.294-.11.073-.184.11-.257.147a.6.6 0 0 1-.184.073h-.22a.64.64 0 0 1-.625-.404c-.11-.294-.184-.809-.184-1.58v-3.566c0-.624-.037-1.139-.11-1.47a3 3 0 0 0-.368-.955c-.588-.92-1.727-1.397-3.381-1.397-1.213 0-2.205.22-2.94.625-.735.404-1.066.992-1.066 1.727 0 .368.11.699.33.92a1.2 1.2 0 0 0 .846.367c.368 0 .698-.11.919-.331.22-.22.367-.515.367-.845 0-.295-.11-.552-.294-.736l-.22-.22c-.037-.037-.037-.037-.037-.073 0-.074.037-.148.147-.258.11-.073.22-.147.368-.22.147-.074.33-.11.514-.147s.404-.037.588-.037q1.489 0 1.985.882c.073.147.147.257.184.404.036.11.073.294.11.478s.037.404.073.662c0 .294.037.624.037.992l-2.021.368-.809.147c-.404.073-.772.147-1.029.22q-.44.11-.772.22a3 3 0 0 0-.588.295 5 5 0 0 0-.478.33q-.771.717-.771 1.985c0 .919.257 1.654.808 2.168.515.515 1.25.81 2.169.81.661 0 1.286-.148 1.837-.442.552-.294 1.103-.772 1.691-1.433.074.294.147.551.184.698.073.147.147.294.257.441.147.22.33.368.551.478.22.11.441.184.699.184.404 0 .771-.11 1.139-.294.367-.184.809-.552 1.286-.993zm-3.786-4.117v1.69c0 .736-.11 1.324-.33 1.692a2.37 2.37 0 0 1-.92.882c-.404.22-.845.33-1.286.33-.588 0-1.066-.183-1.397-.55-.367-.368-.514-.846-.514-1.434 0-.956.44-1.58 1.286-1.911a10 10 0 0 1 1.176-.331c.478-.074 1.14-.22 1.985-.368m11.281 4.264c-.367.147-.698.257-.919.294-.22.073-.44.073-.624.073-.552 0-.956-.147-1.213-.478s-.404-.808-.404-1.433v-6.138h3.013V9.85h-3.013V5.807h-.478l-1.397 1.397v2.609h-2.462v.698h2.462v6.873c0 .772.184 1.397.551 1.764.368.405.92.588 1.618.588.477 0 .955-.073 1.433-.257.478-.147 1.029-.44 1.654-.808l-.22-.441Zm12.83-10.07c.368 0 .699-.111.956-.368.257-.258.367-.552.367-.92 0-.367-.11-.66-.367-.918-.257-.257-.552-.368-.92-.368-.33 0-.66.11-.918.368a1.2 1.2 0 0 0-.367.882c0 .368.11.662.367.919.22.257.551.404.882.404Zm20.695 8.967c-.294.33-.588.588-.845.809-.257.22-.515.367-.772.514-.257.11-.515.22-.809.258-.294.036-.588.073-.955.073q-1.82 0-2.757-1.213a3.5 3.5 0 0 1-.551-1.25c-.11-.477-.147-1.102-.147-1.91h7.682a16 16 0 0 0-.184-1.802 5 5 0 0 0-.478-1.286q-.552-.992-1.654-1.544c-.735-.367-1.544-.55-2.462-.55-.772 0-1.47.11-2.096.367a4.7 4.7 0 0 0-1.58 1.029q-.661.66-.992 1.654a6.9 6.9 0 0 0-.368 2.168c0 .809.11 1.544.368 2.205.22.662.588 1.213.992 1.691.441.478.956.808 1.58 1.066.625.257 1.324.367 2.096.367a7 7 0 0 0 1.286-.11 3.6 3.6 0 0 0 1.103-.404 4.7 4.7 0 0 0 1.029-.698c.33-.295.698-.625 1.029-1.03zm-4.043-7.24q1.379 0 1.985.882c.404.588.662 1.543.772 2.94H96.04c.11-1.36.368-2.352.809-2.94.44-.588 1.14-.882 2.021-.882M48.667 18.67a1 1 0 0 1-.441-.33c-.11-.147-.147-.368-.184-.625s-.037-.625-.037-1.066V4.153l-3.785.919v.698c.367 0 .698.037.919.11q.385.11.55.331c.148.147.221.368.295.662.036.294.073.661.073 1.102v8.674c0 .441 0 .772-.037 1.066-.036.257-.073.478-.183.625a1 1 0 0 1-.441.33c-.184.074-.441.11-.772.184l-.515.037v.662h5.88v-.662l-.514-.036a3 3 0 0 1-.808-.184Zm35.533 0a1 1 0 0 1-.44-.33c-.11-.147-.148-.368-.184-.625s-.037-.625-.037-1.066V8.931l-3.786.919v.698c.368 0 .699.037.92.11a1.3 1.3 0 0 1 .587.331c.147.147.22.368.294.662.037.294.074.661.074 1.102v3.933c0 .44 0 .772-.037 1.066-.037.257-.074.478-.184.625a1 1 0 0 1-.44.33c-.185.074-.442.11-.773.184l-.514.037v.661h5.88v-.661l-.514-.037a4.4 4.4 0 0 1-.846-.22Zm7.315 0a1 1 0 0 1-.44-.33c-.111-.147-.148-.368-.185-.625-.036-.257-.036-.625-.036-1.066V4.153l-3.75.956v.698c.368 0 .699.037.92.11.257.074.44.184.588.331s.22.368.294.662c.036.294.073.661.073 1.102v8.674c0 .441 0 .772-.037 1.066-.036.257-.073.478-.183.625a1 1 0 0 1-.441.33c-.184.074-.442.11-.772.184l-.515.037v.662h5.88v-.662l-.514-.037a6 6 0 0 1-.882-.22ZM78.135 5.072c-.441-.294-.993-.478-1.69-.478-1.03 0-1.875.331-2.5.993s-.919 1.58-.919 2.72v.881c0 .22.037.405.037.625h-1.985v.698h1.985v6.138c0 .441 0 .772-.037 1.066-.037.258-.073.478-.184.625a1 1 0 0 1-.44.33c-.184.074-.442.111-.773.185l-.514.036v.662h6.027v-.662l-.661-.036c-.33-.074-.588-.11-.772-.184a1 1 0 0 1-.441-.331c-.11-.147-.147-.367-.184-.625-.037-.257-.037-.625-.037-1.066v-6.1h2.72V9.85h-2.72c-.036-.074-.33-.956-.477-1.911-.074-.588-.074-1.066.037-1.47.11-.515.367-.846.771-1.03h.147q.276-.11.552-.11.275 0 .55.11c.148.074.258.148.258.221 0 .037-.037.11-.11.184-.22.22-.368.514-.368.845s.11.588.331.809c.22.22.515.294.846.294.367 0 .698-.147.955-.404.257-.258.368-.625.368-1.03-.11-.588-.331-.992-.772-1.286m-46.197.037v.698l.771.073c.588.074.993.221 1.176.442.074.073.11.147.147.22a.57.57 0 0 1 .074.294c0 .11.037.257.037.441v10.107c0 .184-.037.331-.037.441s-.037.22-.074.294c-.036.074-.073.147-.147.184-.183.257-.588.404-1.176.441l-.772.074v.698h6.873v-.698l-.992-.074c-.588-.037-.956-.184-1.176-.44-.074-.074-.11-.111-.11-.185-.037-.073-.037-.183-.074-.294s-.037-.257-.037-.44v-4.08h1.875c.22 0 .404.036.551.073.184.037.368.11.515.22.147.111.257.258.367.478.11.184.22.441.294.736l.184.588h.845v-5.11h-.845l-.147.589c-.11.33-.22.588-.294.772-.11.22-.22.367-.368.478-.147.11-.294.22-.477.257-.11.037-.22.037-.405.073h-2.131V6.027h2.352c.698 0 1.286.037 1.727.11s.809.221 1.066.442c.257.22.441.514.515.882.11.367.147.882.183 1.47h.846V5.109z"/></g><defs><clipPath id="a"><path fill="#fff" d="M0 0h104v24H0z"/></clipPath></defs></svg>