<svg xmlns="http://www.w3.org/2000/svg" width="290.909" height="64" fill="none" viewBox="0 0 100 22"><g clip-path="url(#a)"><path fill="url(#b)" fill-rule="evenodd" d="M5.913 14.854c-.002 4.49-.005 4.538-.312 5.195-.709 1.51-2.38 2.047-3.907 1.255-.512-.265-.811-.537-1.1-1 0 0-.269-.332-.396-.636-.127-.305-.17-1.68-.174-2.759-.003-1.13 0-2.323.174-2.89.086-.28.397-.637.397-.637.506-.813 1.494-1.365 2.443-1.365h.642v1.696h-.4c-.486 0-1.115.304-1.226.592-.045.117-.082 1.288-.082 2.604 0 0-.15 2.045 0 2.304.15.26.346.36.346.36.46.358.996.385 1.449 0 0 0 .113-.058.313-.36.201-.301.098-4.446.098-4.446l.038-4.446h1.698z" clip-rule="evenodd"/><path fill="url(#c)" fill-rule="evenodd" d="M3.679 4.909c0 .803-.016.847-.309.847-.488 0-1.13.267-1.27.527-.232.43-.15 1.103.168 1.4.29.27.417.279 4.832.317 0 0 3.484.075 4.15.128s1.038.244 1.038.244c.912.466 1.41 1.203 1.481 2.196.069.935-.13 1.581-.676 2.198-.753.852-1.133.94-4.06.944l-2.595.002v-1.694h2.44s2.14.014 2.372-.074c.233-.088.454-.307.454-.307.454-.451.504-1.007.133-1.463 0 0-.183-.16-.449-.225S6.932 9.8 6.932 9.8s-3.79.05-4.548-.188c-.76-.24-.747-.27-.747-.27C-.024 8.32-.202 5.935 1.293 4.708c.55-.452 1.032-.62 1.827-.636l.559-.012z" clip-rule="evenodd"/><path fill="url(#d)" fill-rule="evenodd" d="M14.669.212c.739.218 1.461.836 1.797 1.538.47.983.168 2.487-.651 3.25-.78.725-1.001.756-5.367.756H6.437V4.061h3.75c4.487 0 4.659-.044 4.659-1.19 0-.237-.323-.707-.323-.707s-.071-.084-.386-.232-3.72-.084-3.72-.084c-2.767.003-3.84.046-3.992.163-.453.346-.514.708-.514 3.085v2.356H4.203V4.828c0-2.577.006-2.634.341-3.245C4.934.871 5.46.441 6.23.202c.826-.257 7.563-.249 8.44.01Z" clip-rule="evenodd"/><path fill="#2b0866" d="M20.055 15.401V6.215h6.486v1.718h-4.652v2.57h4.343v1.607h-4.343v3.291zm7.097-3.332q0-1.546 1.01-2.494 1.017-.955 2.645-.955t2.646.955q1.03.948 1.03 2.494 0 1.539-1.03 2.487-1.017.955-2.646.955-1.628 0-2.645-.955-1.01-.948-1.01-2.487m1.787 0q0 .88.501 1.388.509.508 1.367.508.867 0 1.375-.522.508-.521.508-1.388 0-.88-.508-1.388-.502-.515-1.347-.515-.866 0-1.381.529-.515.522-.515 1.388m10.464-3.435q.24 0 .309.013v1.663h-.337q-1.772 0-1.772 2.054v3.037h-1.76V8.743h1.547l.157.914q.18-.474.674-.749.495-.274 1.182-.274m7.66 2.995q0 .46-.054.818h-4.824q.041.728.626 1.14.583.406 1.594.406 1.428 0 2.453-.605v1.594q-1.065.543-2.68.543-1.786 0-2.77-.941-.995-.955-.995-2.515 0-1.553.941-2.494.955-.955 2.5-.955 1.452 0 2.323.831.887.825.887 2.178Zm-4.837-.391h3.079a1.06 1.06 0 0 0-.454-.804q-.412-.31-1.037-.31-.626 0-1.051.303a1.33 1.33 0 0 0-.536.81Zm7.318 4.163v-5.18H47.84V8.743h1.704V6.957l1.745-.11v1.896H53v1.478h-1.71v5.18h-1.745Zm4.617 0V5.906h1.745V9.56q.296-.447.845-.694.55-.247 1.182-.247 1.182 0 1.814.66t.632 1.84V15.4H58.62v-3.97q0-1.306-1.237-1.306-.7 0-1.092.426-.385.42-.385 1.107V15.4zm7.565-3.332q0-1.546 1.01-2.494 1.017-.955 2.645-.955t2.645.955q1.03.948 1.03 2.494 0 1.539-1.03 2.487-1.017.955-2.645.955c-1.628 0-1.967-.318-2.645-.955q-1.01-.948-1.01-2.487m1.786 0q0 .88.502 1.388.508.508 1.367.508.865 0 1.374-.522.51-.521.509-1.388 0-.88-.509-1.388-.501-.515-1.346-.515-.867 0-1.382.529-.515.522-.515 1.388m13.11-3.326v6.658h-1.615l-.145-.831q-.296.432-.858.694a2.9 2.9 0 0 1-1.237.26q-1.134 0-1.759-.652-.618-.653-.618-1.766V8.743h1.759v3.944q0 .585.288.962.296.371.948.371.687 0 1.079-.412.399-.413.398-1.065v-3.8zm1.415 3.237q0-1.505.927-2.433.949-.927 2.433-.927 1.531 0 2.322.872l.082-.749h1.54v5.813q0 1.67-1.058 2.577-1.052.913-2.914.927-1.519.021-2.631-.494v-1.629q1.215.591 2.48.591 1.092 0 1.731-.46.646-.454.646-1.23v-.55q-.336.46-.969.729a3.6 3.6 0 0 1-1.394.26q-1.457 0-2.336-.92-.86-.9-.86-2.377Zm5.558 0v-.138q0-.77-.535-1.243-.53-.475-1.368-.475-.817 0-1.347.502-.522.502-.522 1.312 0 .818.509 1.326.522.502 1.346.502.84 0 1.368-.488.55-.509.55-1.298Zm3.56 3.421V5.906H88.9V9.56q.295-.447.844-.694a2.85 2.85 0 0 1 1.182-.247q1.182 0 1.814.66t.632 1.84V15.4h-1.758v-3.97q0-1.306-1.237-1.306-.701 0-1.093.426-.384.42-.384 1.107V15.4zm9 0v-5.18H94.45V8.743h1.704V6.957l1.745-.11v1.896h1.71v1.478H97.9v5.18z"/></g><defs><linearGradient id="b" x1="2.969" x2="2.969" y1="10.321" y2="21.668" gradientUnits="userSpaceOnUse"><stop stop-color="#c539f8"/><stop offset="1" stop-color="#913ff3"/></linearGradient><linearGradient id="c" x1="1.09" x2="12.835" y1="4.962" y2="13.558" gradientUnits="userSpaceOnUse"><stop stop-color="#348ef6"/><stop offset=".656" stop-color="#2ad4e6"/><stop offset="1" stop-color="#4aa3eb"/></linearGradient><linearGradient id="d" x1="4.191" x2="12.571" y1="5.647" y2="3.347" gradientUnits="userSpaceOnUse"><stop stop-color="#9b19ff"/><stop offset="1" stop-color="#3378f0"/></linearGradient><clipPath id="a"><path fill="#fff" d="M0 0h100v21.692H0z"/></clipPath></defs></svg>