<svg xmlns="http://www.w3.org/2000/svg" width="49.92" height="64" fill="none" viewBox="0 0 39 50"><g fill-rule="evenodd" clip-path="url(#a)" clip-rule="evenodd"><path fill="url(#b)" d="M13.53 34.238c-.003 10.35-.01 10.461-.714 11.974-1.621 3.48-5.446 4.72-8.94 2.894-1.17-.611-1.854-1.239-2.515-2.306 0 0-.615-.765-.906-1.466-.29-.701-.392-3.87-.399-6.358-.007-2.607 0-5.355.399-6.664.196-.644.906-1.466.906-1.466 1.159-1.874 3.42-3.147 5.592-3.147h1.469v3.908h-.917c-1.11 0-2.55.701-2.805 1.367-.102.267-.186 2.968-.186 6.002 0 0-.342 4.713 0 5.31.341.599.792.828.792.828 1.05.826 2.278.89 3.313 0 0 0 .259-.132.719-.827s.223-10.248.223-10.248l.086-10.248h3.886z"/><path fill="url(#c)" d="M8.425 11.314c0 1.851-.037 1.954-.707 1.954-1.116 0-2.586.614-2.907 1.215-.53.989-.344 2.543.385 3.228.662.622.954.64 11.058.729 0 0 7.972.172 9.495.296 1.523.123 2.374.562 2.374.562 2.087 1.074 3.225 2.774 3.39 5.06.156 2.157-.298 3.646-1.546 5.068-1.725 1.964-2.595 2.167-9.291 2.175l-5.938.007v-3.909h5.585s4.893.033 5.426-.17 1.038-.709 1.038-.709c1.039-1.038 1.155-2.321.305-3.372 0 0-.418-.367-1.027-.517-.61-.15-10.197-.343-10.197-.343s-8.67.118-10.407-.433c-1.736-.55-1.707-.623-1.707-.623-3.803-2.353-4.208-7.849-.789-10.678 1.26-1.042 2.361-1.428 4.182-1.467l1.278-.027z"/><path fill="url(#d)" d="M33.572.488c1.691.503 3.344 1.927 4.112 3.546 1.074 2.264.384 5.732-1.49 7.49-1.784 1.673-2.29 1.745-12.28 1.745h-9.178V9.36h8.583c10.265 0 10.658-.1 10.658-2.744 0-.545-.738-1.629-.738-1.629s-.163-.192-.883-.533-8.512-.195-8.512-.195c-6.331.007-8.785.108-9.134.376-1.038.797-1.177 1.632-1.177 7.11v5.432H9.625V11.13c0-5.94.014-6.073.78-7.481.893-1.64 2.095-2.633 3.856-3.184 1.889-.592 17.304-.573 19.311.023"/></g><defs><linearGradient id="b" x1="6.794" x2="6.794" y1="23.791" y2="49.945" gradientUnits="userSpaceOnUse"><stop stop-color="#c539f8"/><stop offset="1" stop-color="#913ff3"/></linearGradient><linearGradient id="c" x1="2.502" x2="29.513" y1="11.437" y2="31.063" gradientUnits="userSpaceOnUse"><stop stop-color="#348ef6"/><stop offset=".656" stop-color="#2ad4e6"/><stop offset="1" stop-color="#4aa3eb"/></linearGradient><linearGradient id="d" x1="9.597" x2="28.792" y1="13.017" y2="7.787" gradientUnits="userSpaceOnUse"><stop stop-color="#9b19ff"/><stop offset="1" stop-color="#3378f0"/></linearGradient><clipPath id="a"><path fill="#fff" d="M0 0h38.218v50H0z"/></clipPath></defs></svg>