<svg xmlns="http://www.w3.org/2000/svg" width="290.909" height="64" fill="none" viewBox="0 0 100 22"><g clip-path="url(#a)"><path fill="url(#b)" fill-rule="evenodd" d="M5.913 14.854c-.002 4.49-.005 4.538-.312 5.195-.709 1.51-2.38 2.047-3.907 1.255-.512-.265-.811-.537-1.1-1 0 0-.269-.332-.396-.636-.127-.305-.17-1.68-.174-2.759-.003-1.13 0-2.323.174-2.89.086-.28.397-.637.397-.637.506-.813 1.494-1.365 2.443-1.365h.642v1.696h-.4c-.486 0-1.115.304-1.226.592-.045.117-.082 1.288-.082 2.604 0 0-.15 2.045 0 2.304.15.26.346.36.346.36.46.358.996.385 1.449 0 0 0 .113-.058.313-.36.201-.301.098-4.446.098-4.446l.038-4.446h1.698l-.001 4.533Z" clip-rule="evenodd"/><path fill="url(#c)" fill-rule="evenodd" d="M3.679 4.909c0 .803-.016.847-.309.847-.488 0-1.13.267-1.27.527-.232.43-.15 1.103.168 1.4.29.27.417.279 4.832.317 0 0 3.484.075 4.15.128.666.054 1.038.244 1.038.244.912.466 1.41 1.203 1.481 2.196.069.935-.13 1.581-.676 2.198-.753.852-1.133.94-4.06.944l-2.595.002V12.018h2.44s2.14.014 2.372-.074c.233-.088.454-.307.454-.307.454-.451.504-1.007.133-1.463 0 0-.183-.16-.449-.225S6.932 9.8 6.932 9.8s-3.79.05-4.548-.188c-.76-.24-.747-.27-.747-.27C-.024 8.32-.202 5.935 1.293 4.708c.55-.452 1.032-.62 1.827-.636l.559-.012v.848Z" clip-rule="evenodd"/><path fill="url(#d)" fill-rule="evenodd" d="M14.669.212c.739.218 1.461.836 1.797 1.538.47.983.168 2.487-.651 3.25-.78.725-1.001.756-5.367.756H6.437V4.061h3.75c4.487 0 4.659-.044 4.659-1.19 0-.237-.323-.707-.323-.707s-.071-.084-.386-.232c-.315-.148-3.72-.084-3.72-.084-2.767.003-3.84.046-3.992.163-.453.346-.514.708-.514 3.085v2.356H4.203V4.828c0-2.577.006-2.634.341-3.245C4.934.871 5.46.441 6.23.202c.826-.257 7.563-.249 8.44.01Z" clip-rule="evenodd"/><path fill="#2B0866" d="M20.055 15.401V6.215h6.486v1.718h-4.652v2.57h4.343v1.607h-4.343v3.291h-1.834Zm7.097-3.332c0-1.03.337-1.862 1.01-2.494.678-.637 1.56-.955 2.645-.955 1.086 0 1.968.318 2.646.955.687.632 1.03 1.463 1.03 2.494 0 1.026-.343 1.855-1.03 2.487-.678.637-1.56.955-2.646.955-1.085 0-1.967-.318-2.645-.955-.673-.632-1.01-1.461-1.01-2.487Zm1.787 0c0 .586.167 1.049.501 1.388.339.339.795.508 1.367.508.578 0 1.036-.174 1.375-.522.338-.348.508-.81.508-1.388 0-.586-.17-1.049-.508-1.388-.335-.343-.784-.515-1.347-.515-.577 0-1.038.176-1.381.529-.344.348-.515.81-.515 1.388Zm10.464-3.435c.16 0 .263.004.309.013v1.663h-.337c-1.181 0-1.772.685-1.772 2.054v3.037h-1.76V8.743h1.547l.157.914c.12-.316.344-.565.674-.749.33-.183.724-.274 1.182-.274Zm7.66 2.995c0 .307-.018.58-.054.818h-4.824c.028.485.236.866.626 1.14.389.27.92.406 1.594.406.952 0 1.77-.202 2.453-.605v1.594c-.71.362-1.604.543-2.68.543-1.191 0-2.114-.314-2.77-.941-.663-.637-.995-1.475-.995-2.515 0-1.035.314-1.867.941-2.494.637-.637 1.47-.955 2.5-.955.968 0 1.742.277 2.323.831.591.55.887 1.276.887 2.178Zm-4.837-.391h3.079a1.064 1.064 0 0 0-.454-.804c-.275-.206-.62-.31-1.037-.31-.417 0-.768.101-1.051.303-.28.201-.459.472-.536.81Zm7.318 4.163v-5.18H47.84V8.743h1.704V6.957l1.745-.11v1.896H53v1.478h-1.71v5.18h-1.745Zm4.617 0V5.906h1.745V9.56c.197-.298.479-.529.845-.694.367-.165.76-.247 1.182-.247.788 0 1.393.22 1.814.66.421.44.632 1.053.632 1.84v4.281H58.62V11.43c0-.87-.412-1.306-1.237-1.306-.467 0-.83.143-1.092.426-.256.28-.385.649-.385 1.107V15.4h-1.745Zm7.565-3.332c0-1.03.337-1.862 1.01-2.494.678-.637 1.56-.955 2.645-.955 1.086 0 1.967.318 2.645.955.687.632 1.03 1.463 1.03 2.494 0 1.026-.343 1.855-1.03 2.487-.678.637-1.56.955-2.645.955s-1.967-.318-2.645-.955c-.673-.632-1.01-1.461-1.01-2.487Zm1.786 0c0 .586.167 1.049.502 1.388.339.339.794.508 1.367.508.577 0 1.035-.174 1.374-.522.34-.348.509-.81.509-1.388 0-.586-.17-1.049-.509-1.388-.334-.343-.783-.515-1.346-.515-.578 0-1.038.176-1.382.529-.343.348-.515.81-.515 1.388Zm13.11-3.326v6.658h-1.615l-.145-.831c-.197.288-.483.52-.858.694a2.904 2.904 0 0 1-1.237.26c-.756 0-1.342-.217-1.759-.652-.412-.435-.618-1.024-.618-1.766V8.743h1.759v3.944c0 .39.096.71.288.962.197.248.513.371.948.371.458 0 .818-.137 1.079-.412.266-.275.398-.63.398-1.065v-3.8h1.76Zm1.415 3.237c0-1.004.309-1.814.927-2.433.633-.618 1.443-.927 2.433-.927 1.021 0 1.795.29 2.322.872l.082-.749h1.54v5.813c0 1.113-.353 1.972-1.058 2.577-.701.609-1.673.918-2.914.927-1.012.014-1.89-.15-2.631-.494v-1.629c.81.394 1.637.591 2.48.591.728 0 1.305-.153 1.731-.46.431-.303.646-.713.646-1.23v-.55c-.224.307-.547.55-.969.729a3.62 3.62 0 0 1-1.394.26c-.971 0-1.75-.306-2.336-.92-.573-.6-.86-1.393-.86-2.377Zm5.558 0v-.138c0-.513-.178-.927-.535-1.243-.353-.316-.809-.475-1.368-.475-.545 0-.994.168-1.347.502-.348.335-.522.772-.522 1.312 0 .545.17.987.509 1.326.348.335.797.502 1.346.502.56 0 1.015-.163 1.368-.488.366-.339.55-.772.55-1.298Zm3.56 3.421V5.906H88.9V9.56c.197-.298.478-.529.844-.694.367-.165.761-.247 1.182-.247.788 0 1.393.22 1.814.66.422.44.632 1.053.632 1.84v4.281h-1.758V11.43c0-.87-.413-1.306-1.237-1.306-.467 0-.832.143-1.093.426-.256.28-.384.649-.384 1.107V15.4h-1.746Zm9 0v-5.18H94.45V8.743h1.704V6.957l1.745-.11v1.896h1.71v1.478H97.9v5.18h-1.745Z"/></g><defs><linearGradient id="b" x1="2.969" x2="2.969" y1="10.321" y2="21.668" gradientUnits="userSpaceOnUse"><stop stop-color="#C539F8"/><stop offset="1" stop-color="#913FF3"/></linearGradient><linearGradient id="c" x1="1.09" x2="12.835" y1="4.962" y2="13.558" gradientUnits="userSpaceOnUse"><stop stop-color="#348EF6"/><stop offset=".656" stop-color="#2AD4E6"/><stop offset="1" stop-color="#4AA3EB"/></linearGradient><linearGradient id="d" x1="4.191" x2="12.571" y1="5.647" y2="3.347" gradientUnits="userSpaceOnUse"><stop stop-color="#9B19FF"/><stop offset="1" stop-color="#3378F0"/></linearGradient><clipPath id="a"><path fill="#fff" d="M0 0h100v21.692H0z"/></clipPath></defs></svg>