<svg xmlns="http://www.w3.org/2000/svg" width="228.571" height="64" fill="none" viewBox="0 0 100 28"><g fill="#000" clip-path="url(#a)"><path d="M0 8.958h8.97l9.176 9.164H8.97v9.164L0 18.122V8.958ZM0 0h18.146v8.958H8.97L0 0ZM35.219 19.356V5.78h8.333v2.736h-5.195v3.562h5.195v2.684h-5.195v4.594h-3.138ZM45.43 19.356v-9.339h3.123v2.104c.051-.667.358-1.231.82-1.693.46-.41 1.075-.616 1.69-.616.409 0 .614.206.819.206v2.719h-.82c-.717-.103-1.433.256-1.894.82-.41.411-.615 1.232-.615 2.258v3.54H45.43ZM57.732 17.298a1.622 1.622 0 0 0 1.639-.82 2.42 2.42 0 0 0 .614-1.641c0-.667-.204-1.333-.614-1.846-.41-.461-1.025-.666-1.639-.615-.614 0-1.23.205-1.69.615-.41.513-.666 1.18-.615 1.846 0 .615.205 1.23.615 1.64a2.16 2.16 0 0 0 1.69.82Zm-.82 2.461a4.528 4.528 0 0 1-3.328-1.436 5.738 5.738 0 0 1-1.025-3.537c0-.82.154-1.692.41-2.461.359-.77.973-1.385 1.639-1.897.666-.41 1.485-.616 2.305-.616.614.052 1.28.154 1.843.41.512.257.87.718 1.025 1.23V9.967h3.123v9.332h-3.123v-1.231a4.684 4.684 0 0 1-1.025 1.23c-.563.308-1.178.41-1.843.462ZM65.328 19.387v-9.42h2.929v1.501c.205-.62.616-.828 1.027-1.242.514-.258 1.08-.362 1.696-.414 1.439 0 2.518.621 2.929 1.708l1.233-1.242c.616-.259 1.233-.362 1.9-.414 2.262 0 3.34 1.242 3.34 3.778v5.848h-2.928v-5.33c0-.518-.154-1.036-.411-1.45-.308-.258-.668-.414-1.079-.414a1.295 1.295 0 0 0-1.233.621c-.308.518-.463 1.087-.411 1.657v4.813H71.39v-5.228c0-.517-.154-1.035-.411-1.449a1.522 1.522 0 0 0-1.028-.414c-.462.052-.924.26-1.233.621-.308.518-.462 1.087-.41 1.657v4.813h-2.98ZM84.868 13.733h4.012c0-.519-.156-1.039-.417-1.454-.417-.416-.833-.416-1.459-.416a3.77 3.77 0 0 0-1.667.416 2.425 2.425 0 0 0-.469 1.454Zm6.93.416v1.454h-6.982c0 .572.209 1.091.625 1.455.417.312.938.467 1.46.415 1.041 0 1.458-.207 1.875-.83h2.97a3.44 3.44 0 0 1-1.668 2.285c-.99.52-2.084.83-3.178.83-1.667 0-2.97-.415-3.803-1.453-.938-.935-1.511-2.234-1.511-3.585 0-1.402.521-2.753 1.51-3.792.834-.83 2.085-1.246 3.804-1.246 1.303-.052 2.605.415 3.595 1.246.886.883 1.355 2.026 1.303 3.221ZM93.422 19.356v-9.339h2.942v2.104c.206-.616.568-1.18 1.032-1.693a2.443 2.443 0 0 1 1.652-.616c.206 0 .62.206.826.206v2.719H98.84c-.67-.052-1.29.308-1.651.82-.62.411-.826 1.232-.826 2.258v3.54h-2.942Z"/></g><defs><clipPath id="a"><path fill="#fff" d="M0 0h100v27.286H0z"/></clipPath></defs></svg>