<svg xmlns="http://www.w3.org/2000/svg" width="46.08" height="64" fill="none" viewBox="0 0 36 50"><g clip-path="url(#a)"><path fill="#001B38" d="M.203 8.288A8.288 8.288 0 0 1 8.491 0h26.577v11.794a4.144 4.144 0 0 1-4.144 4.144H20.126a3.985 3.985 0 0 0-3.985 3.985v25.74a4.144 4.144 0 0 1-4.144 4.144H.203V8.288Z"/><path fill="url(#b)" d="M9.46 20.022c0 5.942 4.818 10.759 10.76 10.759 5.94 0 10.758-4.817 10.758-10.759 0-5.941-4.817-10.758-10.759-10.758-5.941 0-10.758 4.817-10.758 10.758Z"/><path fill="url(#c)" d="M9.46 20.022c0 5.942 4.818 10.759 10.76 10.759 5.94 0 10.758-4.817 10.758-10.759 0-5.941-4.817-10.758-10.759-10.758-5.941 0-10.758 4.817-10.758 10.758Z" opacity=".5"/></g><defs><linearGradient id="b" x1="12.642" x2="28.821" y1="11.958" y2="28.248" gradientUnits="userSpaceOnUse"><stop stop-color="#FF0057" stop-opacity=".16"/><stop offset=".861" stop-color="#FF0057"/></linearGradient><linearGradient id="c" x1="12.642" x2="28.821" y1="11.958" y2="28.248" gradientUnits="userSpaceOnUse"><stop stop-color="#FF0057" stop-opacity=".16"/><stop offset=".861" stop-color="#FF0057"/></linearGradient><clipPath id="a"><path fill="#fff" d="M0 0h35.143v50H0z"/></clipPath></defs></svg>