<svg xmlns="http://www.w3.org/2000/svg" width="188.235" height="64" fill="none" viewBox="0 0 100 34"><g clip-path="url(#a)"><path fill="#001B38" d="M.133 5.484A5.484 5.484 0 0 1 5.616 0H23.2v7.803a2.742 2.742 0 0 1-2.741 2.742h-7.145a2.636 2.636 0 0 0-2.636 2.636v17.03a2.742 2.742 0 0 1-2.742 2.742H.133V5.483Z"/><path fill="url(#b)" d="M6.266 13.247a7.118 7.118 0 1 0 14.236 0 7.118 7.118 0 0 0-14.236 0Z"/><path fill="url(#c)" d="M6.266 13.247a7.118 7.118 0 1 0 14.236 0 7.118 7.118 0 0 0-14.236 0Z" opacity=".5"/><path fill="#061B36" d="M51.966 16.083V13.54H48.46V27.94h2.365a1.14 1.14 0 0 0 1.141-1.144v-5.656c0-2.743.883-4.657 3.108-4.657h2.252v-2.943h-1.682c-1.853.001-2.964.715-3.678 2.544Zm13.484-2.771c-4.39 0-7.526 3.143-7.526 7.427s3.137 7.427 7.526 7.427c4.362 0 7.498-3.143 7.498-7.427s-3.136-7.427-7.498-7.427Zm0 11.827c-2.394 0-3.99-1.8-3.99-4.4 0-2.6 1.596-4.4 3.99-4.4 2.366 0 3.963 1.8 3.963 4.4 0 2.6-1.597 4.4-3.963 4.4Zm17.618-11.827c-2.052 0-3.677.885-4.476 2.456V13.54h-3.506V27.94h2.365a1.14 1.14 0 0 0 1.141-1.144v-6.713c0-2.113 1.369-3.656 3.335-3.656 1.796 0 2.993 1.371 2.993 3.343v8.17h2.365a1.141 1.141 0 0 0 1.142-1.143v-7.77c0-3.372-2.11-5.714-5.359-5.714Zm16.934 2.028v-1.8h-3.991V9.198h-3.506v3.399c0 .685-.343.942-.912.942h-1.91v2.943h2.822v6.428c0 3.2 2.053 5.028 5.188 5.028h2.309v-3.172h-1.91c-1.312 0-2.082-.742-2.082-2.2v-6.084h2.85a1.137 1.137 0 0 0 1.055-.705c.057-.138.087-.287.087-.437Zm-65.596-3.771v16.37h2.622a1.145 1.145 0 0 0 1.141-1.144v-7.256h7.64v-3.257h-7.64v-4.085a.997.997 0 0 1 .998-1h7.383a1.14 1.14 0 0 0 1.14-1.144V7.939h-9.663a3.626 3.626 0 0 0-3.62 3.63Z"/></g><defs><linearGradient id="b" x1="8.371" x2="19.075" y1="7.911" y2="18.689" gradientUnits="userSpaceOnUse"><stop stop-color="#FF0057" stop-opacity=".16"/><stop offset=".861" stop-color="#FF0057"/></linearGradient><linearGradient id="c" x1="8.371" x2="19.075" y1="7.911" y2="18.689" gradientUnits="userSpaceOnUse"><stop stop-color="#FF0057" stop-opacity=".16"/><stop offset=".861" stop-color="#FF0057"/></linearGradient><clipPath id="a"><path fill="#fff" d="M0 0h100v33.081H0z"/></clipPath></defs></svg>