<svg xmlns="http://www.w3.org/2000/svg" width="220.69" height="64" fill="none" viewBox="0 0 100 29"><g clip-path="url(#a)"><path fill="#0d61ff" fill-rule="evenodd" d="M0 9.449 9.449 0h18.898l9.448 9.449-9.449 9.449-9.448 9.448zm28.346 9.449-9.448-9.45L28.346 0z" clip-rule="evenodd"/><path fill="#17181a" d="M78.64 23.622h3.874v-8.254c0-1.896 1.201-2.858 2.697-2.858 1.362 0 2.19.802 2.19 2.591v8.52h3.847v-8.253c0-1.896 1.201-2.858 2.697-2.858 1.39 0 2.19.802 2.19 2.591v8.52h3.847v-8.947c0-3.713-2.004-5.342-4.594-5.342-1.763 0-3.58.748-4.701 2.43-.668-1.656-2.057-2.43-3.9-2.43-2.083 0-3.579 1.148-4.273 2.457V9.652H78.64zm-8.536.296c3.82 0 6.224-1.683 6.678-4.7h-3.66c-.24 1.174-1.121 1.949-2.91 1.949-2.11 0-3.366-1.336-3.473-3.66h10.07V16.44c0-4.994-3.206-7.104-6.812-7.104-4.06 0-7.184 2.857-7.184 7.265v.213c0 4.46 3.071 7.105 7.291 7.105Zm-3.312-8.787c.294-1.977 1.47-3.125 3.205-3.125 1.844 0 2.912 1.015 3.045 3.124h-6.25Zm-14.546 8.786c5.716 0 8.974-3.392 8.974-8.493v-2.03h-8.574v3.151h4.3c-.08 2.19-1.388 4.034-4.593 4.034-3.74 0-5.316-2.645-5.316-6.33v-.214c0-3.9 1.95-6.384 5.262-6.384 2.297 0 3.766 1.015 4.14 3.259h4.3c-.454-4.728-4.246-6.678-8.493-6.678-5.636 0-9.723 4.007-9.723 9.75v.213c0 5.663 3.473 9.722 9.723 9.722"/></g><defs><clipPath id="a"><path fill="#fff" d="M0 0h100v28.346H0z"/></clipPath></defs></svg>