<svg xmlns="http://www.w3.org/2000/svg" width="376.471" height="64" fill="none" viewBox="0 0 100 17"><g clip-path="url(#a)"><path fill="#417E62" d="M11.226.473A8.445 8.445 0 0 0 8.43 0c-.766 0-1.507.102-2.212.292-2.23.602-4.46 2.43-5.054 4.726-.265 1.021-.23 2.084.296 3.016.098.173.207.34.327.498a4.412 4.412 0 0 0 1.255 1.13 4.365 4.365 0 0 0 3.327.495 4.385 4.385 0 0 0 3.004-2.6H7.085a.181.181 0 0 1-.181-.181V5.858c0-.1.08-.182.18-.182h5.403c.1 0 .182.082.182.182v5.719c0 .1-.082.182-.182.182H10.97a.182.182 0 0 1-.182-.182V8.946a6.258 6.258 0 0 1-3.965 3.036 6.235 6.235 0 0 1-4.75-.708A6.26 6.26 0 0 1 0 9.254 8.466 8.466 0 1 0 11.226.473Z"/><path fill="#0F1013" d="M24.821 9.452h2.346v1.727a3.45 3.45 0 0 1-.986.507 3.882 3.882 0 0 1-1.226.193c-.47 0-.894-.084-1.273-.25a2.94 2.94 0 0 1-.98-.686 2.94 2.94 0 0 1-.637-1.035 3.844 3.844 0 0 1-.22-1.313v-.028c0-.436.077-.852.229-1.248.151-.393.362-.737.628-1.03.267-.292.582-.527.943-.702a2.68 2.68 0 0 1 1.176-.264c.287 0 .551.026.792.072a3.426 3.426 0 0 1 1.24.505c.145.097.288.203.428.32l1.116-1.115.015-.018c-.235-.2-.48-.377-.729-.53a4.459 4.459 0 0 0-.791-.387 5.15 5.15 0 0 0-.912-.244 6.74 6.74 0 0 0-1.096-.082c-.688 0-1.324.126-1.906.378a4.723 4.723 0 0 0-1.503 1.03 4.576 4.576 0 0 0-.984 1.514 4.781 4.781 0 0 0-.35 1.82v.026c0 .674.112 1.296.341 1.87.227.571.547 1.069.964 1.494.413.424.915.755 1.5.995.585.241 1.236.362 1.952.362.402 0 .787-.037 1.154-.111a5.969 5.969 0 0 0 1.03-.308c.318-.133.615-.284.891-.458a7.05 7.05 0 0 0 .754-.552V8.05H24.82v1.402Zm6.345-.222c.07-.542.264-.981.583-1.318.32-.335.722-.505 1.212-.505a1.633 1.633 0 0 1 1.233.532c.148.161.266.353.353.576.087.224.146.462.17.715h-3.551Zm4.293-2.007a2.992 2.992 0 0 0-1.036-.811c-.415-.201-.898-.302-1.449-.302-.497 0-.951.094-1.363.281-.41.189-.766.446-1.068.774-.301.328-.535.71-.701 1.147a3.912 3.912 0 0 0-.249 1.402v.027c0 .533.092 1.02.275 1.461.183.442.435.82.754 1.134.32.315.695.56 1.127.734.432.174.898.262 1.396.262.637 0 1.187-.118 1.645-.354a3.83 3.83 0 0 0 1.186-.943l-.93-.825c-.28.27-.564.476-.852.615-.289.139-.63.21-1.022.21-.517 0-.956-.151-1.319-.453-.362-.302-.587-.736-.674-1.304h5.085a3.607 3.607 0 0 0 .026-.445c0-.499-.07-.973-.208-1.422a3.574 3.574 0 0 0-.623-1.188Zm3.884-2.87h-1.6v1.9h-1.106v1.364h1.107v3.644c0 .386.048.705.145.963.097.258.236.466.417.623.18.157.394.271.64.341.247.07.514.104.803.104.297 0 .56-.03.786-.091.228-.06.442-.148.643-.262V11.64a2.165 2.165 0 0 1-.982.236c-.272 0-.482-.068-.63-.203-.15-.135-.223-.355-.223-.661V7.617h1.861V6.254h-1.861v-1.9Zm4.631 1.101h5.217V4h-6.816v9.175h1.6V9.44h4.04V7.985h-4.04v-2.53ZM50.32 9.23c.07-.542.264-.981.583-1.318.32-.335.722-.505 1.212-.505a1.633 1.633 0 0 1 1.232.532c.148.161.267.353.355.576.086.224.143.462.17.715h-3.553Zm4.293-2.007a3.003 3.003 0 0 0-1.036-.811c-.415-.201-.899-.302-1.45-.302-.496 0-.952.094-1.362.281-.41.189-.767.446-1.068.774-.301.328-.535.71-.701 1.147a3.912 3.912 0 0 0-.249 1.402v.027c0 .533.091 1.02.275 1.461.183.442.434.82.754 1.134.318.315.695.56 1.127.734.432.174.898.262 1.395.262.638 0 1.187-.118 1.646-.354a3.83 3.83 0 0 0 1.186-.943l-.93-.825c-.28.27-.564.476-.853.615-.288.139-.629.21-1.022.21-.516 0-.955-.151-1.318-.453-.362-.302-.587-.736-.675-1.304h5.086a3.535 3.535 0 0 0 .026-.445c0-.499-.07-.973-.21-1.422a3.552 3.552 0 0 0-.621-1.188Zm3.041 2.007c.07-.542.265-.981.583-1.318.32-.335.723-.505 1.213-.505a1.634 1.634 0 0 1 1.232.532c.148.161.267.353.354.576.087.224.144.462.17.715h-3.552Zm4.294-2.007a3.003 3.003 0 0 0-1.036-.811c-.415-.201-.898-.302-1.45-.302-.497 0-.952.094-1.362.281-.41.189-.767.446-1.068.774-.301.328-.535.71-.701 1.147a3.914 3.914 0 0 0-.249 1.402v.027c0 .533.091 1.02.275 1.461.183.442.434.82.754 1.134.318.315.695.56 1.127.734.432.174.898.262 1.395.262.638 0 1.186-.118 1.646-.354a3.83 3.83 0 0 0 1.186-.943l-.93-.825c-.28.27-.564.476-.853.615-.288.139-.629.21-1.022.21-.516 0-.955-.151-1.318-.453-.362-.302-.587-.736-.675-1.304h5.086a3.609 3.609 0 0 0 .026-.445c0-.499-.07-.973-.21-1.422a3.553 3.553 0 0 0-.621-1.188ZM69 9.727a2.4 2.4 0 0 1-.164.905c-.109.27-.255.505-.438.701a1.885 1.885 0 0 1-.64.452 1.899 1.899 0 0 1-.758.158 1.93 1.93 0 0 1-1.398-.603 2.064 2.064 0 0 1-.432-.702 2.561 2.561 0 0 1-.156-.911v-.025c0-.342.053-.65.156-.925.105-.275.249-.508.432-.702.183-.191.394-.337.634-.438a1.953 1.953 0 0 1 2.162.452c.183.192.329.425.438.701.109.276.163.58.163.912v.025Zm-.027-2.399a3.887 3.887 0 0 0-.942-.85c-.375-.246-.846-.368-1.412-.368-.41 0-.808.078-1.197.236-.387.157-.73.388-1.026.694a3.435 3.435 0 0 0-.712 1.127c-.18.447-.27.958-.27 1.535v.025c0 .578.093 1.088.276 1.534.184.446.424.822.722 1.127.296.306.638.537 1.022.696.384.156.782.236 1.192.236.56 0 1.029-.129 1.409-.381.38-.253.697-.56.951-.918l-.013 1.154h1.598V3.606h-1.599v3.722h.001Zm8.175 2.399c0 .34-.053.649-.157.925a1.923 1.923 0 0 1-1.822 1.291 1.948 1.948 0 0 1-1.416-.603 2.153 2.153 0 0 1-.44-.702 2.45 2.45 0 0 1-.163-.911v-.025c0-.333.054-.634.163-.905.11-.271.256-.505.44-.702.183-.197.397-.347.642-.452a1.948 1.948 0 0 1 1.54 0c.24.105.45.254.63.446.179.192.32.425.425.701.105.276.158.58.158.912v.025Zm.596-2.687a3.113 3.113 0 0 0-2.221-.93c-.56 0-1.028.124-1.402.374a3.427 3.427 0 0 0-.944.923l.012-3.8h-1.599v9.568h1.6v-1.076c.244.324.553.608.927.853.375.244.847.367 1.413.367.41 0 .809-.079 1.197-.235.387-.16.732-.39 1.033-.696.3-.306.54-.681.72-1.127.177-.446.267-.956.267-1.534v-.025c0-.577-.092-1.088-.275-1.535a3.47 3.47 0 0 0-.728-1.127Zm6.232 3.624c0 .217-.046.417-.138.595a1.353 1.353 0 0 1-.387.46c-.165.127-.36.225-.582.294-.224.07-.466.105-.728.105-.376 0-.693-.087-.95-.262-.259-.175-.388-.428-.388-.76v-.026c0-.332.14-.595.42-.786.28-.193.668-.29 1.166-.29.306 0 .597.027.872.079.275.053.514.118.715.197v.394ZM82.47 6.142c-.569 0-1.054.052-1.455.156a7.285 7.285 0 0 0-1.18.42l.433 1.271c.314-.13.624-.236.93-.314a4.239 4.239 0 0 1 1.049-.118c.55 0 .97.127 1.264.38.293.253.44.62.44 1.101v.131a6.288 6.288 0 0 0-.846-.21 6.12 6.12 0 0 0-1.068-.079c-.402 0-.776.046-1.12.138a2.55 2.55 0 0 0-.893.42 1.956 1.956 0 0 0-.583.708c-.14.284-.21.618-.21 1.002v.027c0 .349.068.657.204.923.135.267.314.49.537.67.223.178.483.313.78.405.297.093.612.138.944.138.524 0 .97-.096 1.337-.289.367-.191.668-.427.904-.707v.851h1.573V9.065c0-.927-.249-1.646-.747-2.157-.499-.511-1.263-.766-2.293-.766Zm8.468 5.563a1.967 1.967 0 0 1-.99.242c-.307 0-.585-.058-.84-.177a2.057 2.057 0 0 1-1.08-1.186c-.101-.27-.15-.559-.15-.864v-.027c0-.297.049-.58.15-.852.1-.27.237-.505.412-.701.175-.197.384-.355.63-.472.244-.118.51-.177.799-.177.402 0 .74.08 1.017.242.274.162.534.37.779.623l.983-1.062a3.844 3.844 0 0 0-1.134-.864c-.433-.22-.977-.328-1.632-.328a3.599 3.599 0 0 0-2.581 1.068 3.647 3.647 0 0 0-1.024 2.55v.025a3.591 3.591 0 0 0 1.025 2.53 3.588 3.588 0 0 0 2.567 1.049c.673 0 1.227-.12 1.665-.361.437-.24.826-.552 1.166-.937l-.956-.944a3.787 3.787 0 0 1-.806.623Zm8.909-5.459H97.92l-2.871 3.067V3.598h-1.6v9.569h1.6v-1.98l.97-1.01 2.085 2.99h1.834l-2.845-4.103 2.754-2.818Z"/></g><defs><clipPath id="a"><path fill="#fff" d="M0 0h100v16.931H0z"/></clipPath></defs></svg>