<svg xmlns="http://www.w3.org/2000/svg" width="376.471" height="64" fill="none" viewBox="0 0 100 17"><g clip-path="url(#a)"><path fill="#417E62" d="M11.226.473A8.5 8.5 0 0 0 8.43 0c-.766 0-1.507.102-2.212.292-2.23.602-4.46 2.43-5.054 4.726-.265 1.021-.23 2.084.296 3.016q.147.26.327.498a4.4 4.4 0 0 0 1.255 1.13 4.37 4.37 0 0 0 3.327.495 4.39 4.39 0 0 0 3.004-2.6H7.085a.18.18 0 0 1-.181-.181V5.858c0-.1.08-.182.18-.182h5.403c.1 0 .182.082.182.182v5.719c0 .1-.082.182-.182.182H10.97a.18.18 0 0 1-.182-.182V8.946a6.26 6.26 0 0 1-3.965 3.036 6.24 6.24 0 0 1-4.75-.708A6.26 6.26 0 0 1 0 9.254 8.466 8.466 0 1 0 11.226.473"/><path fill="#0F1013" d="M24.821 9.452h2.346v1.727a3.5 3.5 0 0 1-.986.507 3.9 3.9 0 0 1-1.226.193 3.1 3.1 0 0 1-1.273-.25 2.9 2.9 0 0 1-.98-.686 2.9 2.9 0 0 1-.637-1.035 3.8 3.8 0 0 1-.22-1.313v-.028q0-.654.229-1.248.228-.59.628-1.03a3.1 3.1 0 0 1 .943-.702 2.7 2.7 0 0 1 1.176-.264q.43.002.792.072a3.4 3.4 0 0 1 1.24.505q.218.145.428.32l1.116-1.115.015-.018q-.354-.3-.729-.53a4.5 4.5 0 0 0-.791-.387 5 5 0 0 0-.912-.244 7 7 0 0 0-1.096-.082q-1.032 0-1.906.378a4.7 4.7 0 0 0-1.503 1.03 4.6 4.6 0 0 0-.984 1.514 4.8 4.8 0 0 0-.35 1.82v.026q-.001 1.01.341 1.87.34.856.964 1.494.621.636 1.5.995a5.1 5.1 0 0 0 1.952.362 6 6 0 0 0 1.154-.111 6 6 0 0 0 1.03-.308 6 6 0 0 0 .891-.458 7 7 0 0 0 .754-.552V8.05H24.82v1.402Zm6.345-.222q.105-.813.583-1.318.478-.504 1.212-.505a1.63 1.63 0 0 1 1.233.532q.222.242.353.576.132.336.17.715zm4.293-2.007a3 3 0 0 0-1.036-.811q-.623-.302-1.449-.302-.745 0-1.363.281a3.3 3.3 0 0 0-1.068.774q-.452.492-.701 1.147a3.9 3.9 0 0 0-.249 1.402v.027q0 .8.275 1.461.275.663.754 1.134.48.473 1.127.734.649.261 1.396.262.957 0 1.645-.354a3.8 3.8 0 0 0 1.186-.943l-.93-.825q-.42.406-.852.615-.434.21-1.022.21-.775 0-1.319-.453t-.674-1.304h5.085a4 4 0 0 0 .026-.445q0-.749-.208-1.422a3.6 3.6 0 0 0-.623-1.188m3.884-2.87h-1.6v1.9h-1.106v1.364h1.107v3.644q0 .578.145.963.145.387.417.623.27.236.64.341t.803.104q.446 0 .786-.091a2.7 2.7 0 0 0 .643-.262V11.64a2.2 2.2 0 0 1-.982.236q-.408 0-.63-.203-.224-.202-.223-.661V7.617h1.861V6.254h-1.861zm4.631 1.101h5.217V4h-6.816v9.175h1.6V9.44h4.04V7.985h-4.04v-2.53ZM50.32 9.23q.105-.813.583-1.318.478-.504 1.212-.505a1.63 1.63 0 0 1 1.232.532q.223.242.355.576.13.336.17.715zm4.293-2.007a3 3 0 0 0-1.036-.811q-.623-.302-1.45-.302a3.25 3.25 0 0 0-1.362.281q-.616.283-1.068.774t-.701 1.147a3.9 3.9 0 0 0-.249 1.402v.027q0 .8.275 1.461.274.663.754 1.134.478.473 1.127.734t1.395.262q.957 0 1.646-.354a3.8 3.8 0 0 0 1.186-.943l-.93-.825q-.42.406-.853.615a2.3 2.3 0 0 1-1.022.21q-.774 0-1.318-.453-.543-.453-.675-1.304h5.086a4 4 0 0 0 .026-.445q0-.749-.21-1.422a3.6 3.6 0 0 0-.621-1.188m3.041 2.007q.106-.813.583-1.318.479-.504 1.213-.505a1.63 1.63 0 0 1 1.232.532q.223.242.354.576.13.336.17.715zm4.294-2.007a3 3 0 0 0-1.036-.811q-.622-.302-1.45-.302-.746 0-1.362.281-.616.283-1.068.774t-.701 1.147a3.9 3.9 0 0 0-.249 1.402v.027q0 .8.275 1.461.274.663.754 1.134.478.473 1.127.734t1.395.262q.956 0 1.646-.354a3.8 3.8 0 0 0 1.186-.943l-.93-.825q-.42.406-.853.615a2.3 2.3 0 0 1-1.022.21q-.774 0-1.318-.453-.543-.453-.675-1.304h5.086a4 4 0 0 0 .026-.445q0-.749-.21-1.422a3.6 3.6 0 0 0-.621-1.188M69 9.727a2.4 2.4 0 0 1-.164.905q-.163.406-.438.701a1.9 1.9 0 0 1-.64.452 1.9 1.9 0 0 1-.758.158 1.93 1.93 0 0 1-1.398-.603 2.1 2.1 0 0 1-.432-.702 2.6 2.6 0 0 1-.156-.911v-.025q0-.513.156-.925a2.1 2.1 0 0 1 .432-.702 1.9 1.9 0 0 1 .634-.438 1.95 1.95 0 0 1 2.162.452q.275.288.438.701.163.414.163.912zm-.027-2.399a3.9 3.9 0 0 0-.942-.85q-.563-.368-1.412-.368-.614 0-1.197.236-.581.235-1.026.694a3.4 3.4 0 0 0-.712 1.127q-.27.67-.27 1.535v.025q0 .866.276 1.534a3.5 3.5 0 0 0 .722 1.127q.445.458 1.022.696.577.235 1.192.236.84-.001 1.409-.381t.951-.918l-.013 1.154h1.598V3.606h-1.599v3.722zm8.175 2.399q0 .51-.157.925a1.92 1.92 0 0 1-1.822 1.291 1.95 1.95 0 0 1-1.416-.603 2.2 2.2 0 0 1-.44-.702 2.5 2.5 0 0 1-.163-.911v-.025q0-.499.163-.905.165-.407.44-.702t.642-.452a1.95 1.95 0 0 1 1.54 0q.36.158.63.446.268.288.425.701.158.414.158.912zm.596-2.687a3.11 3.11 0 0 0-2.221-.93q-.84 0-1.402.374a3.4 3.4 0 0 0-.944.923l.012-3.8H71.59v9.568h1.6v-1.076q.366.486.927.853.563.367 1.413.367.615 0 1.197-.235a3.1 3.1 0 0 0 1.033-.696q.45-.458.72-1.127.266-.668.267-1.534v-.025q0-.865-.275-1.535a3.5 3.5 0 0 0-.728-1.127m6.232 3.624q0 .327-.138.595a1.35 1.35 0 0 1-.387.46q-.248.19-.582.294-.335.105-.728.105-.564 0-.95-.262-.388-.262-.388-.76v-.026q0-.499.42-.786.42-.29 1.166-.29.46 0 .872.079.413.079.715.197zM82.47 6.142q-.853 0-1.455.156a7.3 7.3 0 0 0-1.18.42l.433 1.271q.471-.196.93-.314a4.2 4.2 0 0 1 1.049-.118q.824 0 1.264.38t.44 1.101v.131a6 6 0 0 0-.846-.21 6 6 0 0 0-1.068-.079q-.603 0-1.12.138a2.6 2.6 0 0 0-.893.42 1.96 1.96 0 0 0-.583.708q-.21.426-.21 1.002v.027q0 .524.204.923.203.4.537.67.335.267.78.405.446.139.944.138.786 0 1.337-.289.55-.287.904-.707v.851h1.573V9.065q0-1.39-.747-2.157-.748-.766-2.293-.766m8.468 5.563a1.97 1.97 0 0 1-.99.242q-.459 0-.84-.177a2.06 2.06 0 0 1-1.08-1.186 2.5 2.5 0 0 1-.15-.864v-.027q0-.445.15-.852t.412-.701q.262-.296.63-.472a1.8 1.8 0 0 1 .799-.177q.602 0 1.017.242.411.243.779.623l.983-1.062a3.8 3.8 0 0 0-1.134-.864q-.65-.329-1.632-.328a3.6 3.6 0 0 0-2.581 1.068 3.65 3.65 0 0 0-1.024 2.55v.025a3.6 3.6 0 0 0 1.025 2.53 3.59 3.59 0 0 0 2.567 1.049q1.009 0 1.665-.361.656-.36 1.166-.937l-.956-.944a3.8 3.8 0 0 1-.806.623m8.909-5.459H97.92l-2.871 3.067V3.598h-1.6v9.569h1.6v-1.98l.97-1.01 2.085 2.99h1.834l-2.845-4.103z"/></g><defs><clipPath id="a"><path fill="#fff" d="M0 0h100v16.931H0z"/></clipPath></defs></svg>