<svg xmlns="http://www.w3.org/2000/svg" width="64" height="64" fill="none" viewBox="0 0 50 50"><g clip-path="url(#a)"><path fill="#417e62" d="M33.153 1.397A25 25 0 0 0 24.891 0c-2.26 0-4.45.3-6.532.863C11.772 2.64 5.187 8.04 3.434 14.819c-.78 3.015-.678 6.153.875 8.906q.432.768.966 1.472a13 13 0 0 0 3.706 3.338 12.9 12.9 0 0 0 9.825 1.459 12.95 12.95 0 0 0 8.872-7.675h-6.756a.535.535 0 0 1-.535-.538V17.3c0-.297.238-.538.535-.538h15.953c.297 0 .538.241.538.538v16.887a.54.54 0 0 1-.538.538h-4.478a.537.537 0 0 1-.538-.538V26.42a18.48 18.48 0 0 1-11.709 8.965 18.4 18.4 0 0 1-14.028-2.09 18.5 18.5 0 0 1-3.819-3.038A18.3 18.3 0 0 1 0 27.328C1.175 40.044 11.869 50 24.89 50c13.81 0 25-11.194 25-25 0-10.912-6.99-20.194-16.737-23.603"/></g><defs><clipPath id="a"><path fill="#fff" d="M0 0h50v50H0z"/></clipPath></defs></svg>