<svg xmlns="http://www.w3.org/2000/svg" width="320" height="64" fill="none" viewBox="0 0 100 20"><g clip-path="url(#a)"><path fill="#4D82F7" d="M12.337 16.322c.41 0 .777.328.777.78a.777.777 0 1 1-1.553 0c0-.452.368-.78.776-.78Zm12.015-4.758a.777.777 0 0 1-.776-.78.777.777 0 1 1 1.553 0c0 .41-.368.78-.777.78Zm0-3.159a2.376 2.376 0 0 0-2.37 2.38c0 .245.04.492.123.738l-7.806 4.184a2.365 2.365 0 0 0-1.962-1.026c-.899 0-1.716.533-2.125 1.313l-7.029-3.692c-.735-.41-1.307-1.6-1.226-2.748.041-.574.246-1.026.532-1.19.204-.123.408-.082.694.041 1.88.985 8.01 4.225 8.255 4.348.409.164.613.246 1.308-.082L25.333 6.11c.204-.083.409-.247.409-.534 0-.369-.368-.533-.368-.533-.736-.328-1.84-.861-2.902-1.353-2.288-1.067-4.904-2.297-6.048-2.913-.98-.533-1.798-.082-1.92 0C9.313 3.401 2.161 6.93 1.752 7.175 1.058 7.585.609 8.446.568 9.513c-.082 1.682.776 3.445 2.002 4.06l7.438 3.856c.164 1.149 1.185 2.051 2.33 2.051 1.307 0 2.329-1.025 2.37-2.338l8.173-4.43c.409.328.94.492 1.471.492a2.376 2.376 0 0 0 2.37-2.379c0-1.353-1.062-2.42-2.37-2.42Z"/><path fill="#000" d="M92.964 10.408V3.64h-3.12v12.72h3.12v-2.952l.568-.683 2.36 3.635h3.552l-3.597-5.502 3.405-4.098h-3.476l-2.812 3.648ZM84.09 16.564c3.02 0 4.903-1.822 4.903-5.027 0-3.142-1.91-5.017-4.902-5.017-2.976 0-4.903 1.884-4.903 5.018 0 3.195 1.883 5.026 4.903 5.026Zm0-2.289c-1.073 0-1.734-.977-1.734-2.729 0-1.725.678-2.737 1.735-2.737 1.065 0 1.743 1.012 1.743 2.737 0 1.752-.678 2.73-1.743 2.73ZM73.685 16.571c3.019 0 4.902-1.822 4.902-5.026 0-3.143-1.91-5.018-4.902-5.018-2.976 0-4.904 1.884-4.904 5.018 0 3.195 1.884 5.026 4.904 5.026Zm0-2.288c-1.074 0-1.735-.977-1.735-2.73 0-1.725.678-2.737 1.735-2.737 1.064 0 1.742 1.012 1.742 2.738 0 1.752-.678 2.729-1.742 2.729ZM63.752 16.36c2.72 0 4.429-1.453 4.429-3.68 0-1.69-1.355-3.009-3.072-3.088 1.409-.194 2.482-1.357 2.482-2.783 0-1.963-1.505-3.169-4.005-3.169H57.68v12.72h6.072ZM60.91 5.929h1.823c1.082 0 1.716.528 1.716 1.417 0 .915-.704 1.47-1.875 1.47H60.91V5.929Zm0 8.125v-3.275h1.902c1.329 0 2.086.58 2.086 1.62 0 1.074-.74 1.655-2.069 1.655H60.91ZM51.975 4.609v2.15h-1.303v2.295h1.303v4.656c0 1.884.97 2.722 3.46 2.722.608 0 1.082-.125 1.381-.186v-2.219c-.184.036-.37.044-.616.044-.748 0-1.1-.334-1.1-.994V9.054h1.716V6.76h-1.717V4.609h-3.124ZM46.688 16.36h3.12v-9.6h-3.12v9.6ZM49.857 4.485a1.609 1.609 0 1 1-3.218-.011 1.609 1.609 0 0 1 3.218.01ZM45.538 14.234V9.437h-5.182v2.304h2.062v1.536c-.528.453-.936.678-2.317.678-1.858 0-3.055-1.523-3.055-4.04 0-2.474 1.083-3.909 2.914-3.909 1.241 0 2.141.687 2.458 1.814h3.12c-.326-2.588-2.506-4.41-5.587-4.41-3.838 0-6.03 2.422-6.03 6.542 0 4.172 2.192 6.6 6.11 6.6 3.465 0 4.883-1.286 5.507-2.318Z"/></g><defs><clipPath id="a"><path fill="#fff" d="M0 0h100v20H0z"/></clipPath></defs></svg>