<svg xmlns="http://www.w3.org/2000/svg" width="67" height="64" fill="none"><g fill="#000" clip-path="url(#a)"><path d="M33.267 0C15.173 0 .5 14.67.5 32.767c0 14.478 9.389 26.76 22.408 31.093 1.638.303 2.24-.71 2.24-1.576 0-.781-.031-3.363-.045-6.1-9.116 1.981-11.04-3.867-11.04-3.867-1.49-3.787-3.638-4.794-3.638-4.794-2.973-2.034.224-1.992.224-1.992 3.29.23 5.023 3.376 5.023 3.376 2.922 5.01 7.665 3.562 9.535 2.725.294-2.119 1.144-3.564 2.08-4.382-7.277-.83-14.927-3.64-14.927-16.194 0-3.577 1.28-6.5 3.376-8.795-.34-.826-1.462-4.158.317-8.672 0 0 2.752-.88 9.014 3.36 2.613-.727 5.417-1.091 8.201-1.103 2.785.012 5.59.376 8.209 1.102 6.254-4.24 9.002-3.359 9.002-3.359 1.784 4.514.661 7.846.321 8.672 2.101 2.294 3.373 5.218 3.373 8.795 0 12.585-7.666 15.357-14.962 16.168 1.175 1.017 2.222 3.01 2.222 6.068 0 4.384-.038 7.913-.038 8.992 0 .872.59 1.894 2.251 1.572 13.012-4.338 22.39-16.616 22.39-31.089C66.034 14.67 51.363 0 33.266 0"/><path d="M12.772 46.678c-.072.162-.328.211-.561.1-.238-.107-.372-.33-.294-.493.07-.167.327-.214.564-.101.238.106.374.33.291.494m1.612 1.438c-.156.145-.462.077-.669-.151-.214-.229-.254-.534-.096-.682.161-.144.458-.077.672.152.215.231.256.535.093.681m1.106 1.84c-.2.14-.53.009-.732-.283-.2-.291-.2-.64.004-.78s.527-.015.733.274c.2.297.2.646-.005.79m1.87 2.13c-.18.198-.562.145-.842-.125-.287-.265-.367-.64-.186-.838s.566-.142.848.126c.285.264.371.641.18.837m2.417.72c-.08.256-.448.373-.819.264-.37-.112-.613-.413-.538-.672.077-.259.447-.38.82-.264.37.112.614.41.537.672m2.75.305c.01.27-.305.494-.695.499-.392.009-.709-.21-.713-.476 0-.273.308-.495.7-.501.39-.008.708.21.708.478m2.702-.104c.047.264-.224.535-.61.607-.38.069-.733-.094-.782-.355-.047-.27.23-.541.609-.611.387-.068.734.091.783.36"/></g><defs><clipPath id="a"><path fill="#fff" d="M.5 0h65.789v64H.5z"/></clipPath></defs></svg>