<svg xmlns="http://www.w3.org/2000/svg" width="64" height="64" fill="none" viewBox="0 0 50 50"><path fill="#1B1F23" fill-rule="evenodd" d="M25 0C11.187 0 0 11.188 0 25c0 11.063 7.156 20.406 17.094 23.719 1.25.218 1.718-.532 1.718-1.188 0-.593-.03-2.562-.03-4.656-6.282 1.156-7.907-1.531-8.407-2.938-.281-.718-1.5-2.937-2.563-3.53-.875-.47-2.125-1.626-.03-1.657 1.968-.031 3.374 1.813 3.843 2.563 2.25 3.78 5.844 2.718 7.281 2.062.219-1.625.875-2.719 1.594-3.344-5.563-.625-11.375-2.781-11.375-12.343 0-2.72.969-4.97 2.563-6.72-.25-.624-1.126-3.187.25-6.624 0 0 2.093-.656 6.874 2.562 2-.562 4.125-.844 6.25-.844s4.25.282 6.25.844c4.782-3.25 6.875-2.562 6.875-2.562 1.376 3.437.5 6 .25 6.625C40.032 18.719 41 20.937 41 23.687c0 9.594-5.844 11.72-11.406 12.344.906.782 1.687 2.282 1.687 4.625 0 3.344-.031 6.032-.031 6.875 0 .657.469 1.438 1.719 1.188C42.844 45.406 50 36.03 50 25 50 11.187 38.812 0 25 0" clip-rule="evenodd"/></svg>