<svg xmlns="http://www.w3.org/2000/svg" width="180" height="64" fill="none" viewBox="0 0 135 48"><path fill="#24292E" fill-rule="evenodd" d="M17.43 5C7.8 5 0 12.8 0 22.43c0 7.713 4.99 14.227 11.918 16.537.871.152 1.198-.37 1.198-.828 0-.414-.022-1.787-.022-3.247-4.379.807-5.512-1.067-5.86-2.048-.197-.5-1.046-2.048-1.787-2.462-.61-.326-1.482-1.133-.022-1.154 1.373-.022 2.353 1.263 2.68 1.786 1.569 2.637 4.074 1.896 5.076 1.438.153-1.133.61-1.895 1.112-2.331-3.879-.436-7.931-1.94-7.931-8.606 0-1.896.675-3.464 1.787-4.684-.175-.436-.785-2.223.174-4.62 0 0 1.46-.457 4.793 1.787a16.2 16.2 0 0 1 4.358-.588c1.481 0 2.963.196 4.357.588 3.334-2.266 4.793-1.786 4.793-1.786.959 2.396.349 4.183.175 4.619 1.11 1.22 1.786 2.767 1.786 4.684 0 6.689-4.074 8.17-7.952 8.606.632.545 1.176 1.59 1.176 3.225 0 2.33-.021 4.205-.021 4.793 0 .457.326 1.002 1.198.828A17.46 17.46 0 0 0 34.86 22.43C34.86 12.8 27.06 5 17.43 5" clip-rule="evenodd"/><path fill="#24292E" d="M81.256 30.843h-.04c.017 0 .03.02.048.022h.012l-.02-.02zm.008.022c-.19.002-.665.102-1.167.102-1.587 0-2.135-.732-2.135-1.688v-6.367h3.233c.183 0 .325-.162.325-.386v-3.457c0-.183-.163-.346-.325-.346h-3.233v-4.29c0-.163-.102-.265-.285-.265h-4.393c-.183 0-.284.102-.284.265v4.412s-2.217.55-2.36.57a.35.35 0 0 0-.264.345v2.766c0 .224.163.386.346.386h2.257v6.67c0 4.962 3.457 5.47 5.816 5.47 1.078 0 2.38-.345 2.583-.447.122-.04.183-.183.183-.325v-3.05a.36.36 0 0 0-.297-.367zm48.186-4.475c0-3.681-1.485-4.169-3.051-4.006-1.22.081-2.196.691-2.196.691v7.158s.997.691 2.481.732c2.095.061 2.766-.691 2.766-4.575m4.941-.326c0 6.975-2.257 8.968-6.202 8.968-3.335 0-5.125-1.688-5.125-1.688s-.081.936-.183 1.058c-.061.122-.162.162-.284.162h-3.01c-.203 0-.386-.162-.386-.345l.041-22.593c0-.183.162-.345.345-.345h4.332c.183 0 .345.162.345.345v7.667s1.668-1.078 4.108-1.078l-.02-.04c2.44 0 6.039.914 6.039 7.89m-17.732-7.34h-4.27c-.224 0-.346.162-.346.386v11.062s-1.119.793-2.644.793-1.972-.691-1.972-2.216v-9.66a.357.357 0 0 0-.346-.345h-4.352a.356.356 0 0 0-.345.345v10.392c0 4.473 2.501 5.592 5.938 5.592 2.826 0 5.124-1.566 5.124-1.566s.102.793.163.915c.04.102.183.183.325.183h2.725c.224 0 .346-.163.346-.346l.04-15.19c0-.183-.162-.346-.386-.346m-48.194-.021h-4.331c-.183 0-.346.183-.346.407v14.926c0 .406.264.549.61.549h3.904c.407 0 .509-.183.509-.55V19.05a.356.356 0 0 0-.346-.346M66.33 11.83a2.786 2.786 0 0 0-2.806 2.806 2.786 2.786 0 0 0 2.806 2.806c1.525 0 2.765-1.24 2.765-2.806s-1.24-2.806-2.765-2.806m33.532-.509h-4.29a.356.356 0 0 0-.346.346v8.317h-6.731v-8.317a.356.356 0 0 0-.346-.346h-4.331a.356.356 0 0 0-.346.346V34.26c0 .183.183.346.346.346h4.331a.356.356 0 0 0 .346-.346V24.6h6.73l-.04 9.66c0 .182.163.345.346.345h4.331a.357.357 0 0 0 .346-.346V11.667a.357.357 0 0 0-.346-.346M61.49 21.326V33c0 .08-.02.223-.122.264 0 0-2.542 1.81-6.73 1.81-5.064 0-11.063-1.586-11.063-12.039s5.246-12.607 10.37-12.587c4.434 0 6.223.996 6.508 1.18.081.101.122.182.122.284l-.854 3.62c0 .183-.183.406-.407.345-.732-.223-1.83-.67-4.412-.67-2.99 0-6.203.854-6.203 7.584 0 6.731 3.05 7.524 5.247 7.524 1.87 0 2.542-.223 2.542-.223v-4.677h-2.99c-.223 0-.386-.163-.386-.346v-3.742c0-.183.163-.346.386-.346h7.606c.223 0 .386.163.386.346"/></svg>