<svg xmlns="http://www.w3.org/2000/svg" width="228.571" height="64" fill="none" viewBox="0 0 100 28"><g fill="#161312" clip-path="url(#a)"><path d="M19.238 11.562h-8.393a.392.392 0 0 0-.393.392v4.104c0 .216.176.392.393.392h3.274v5.099s-.735.25-2.768.25c-2.398 0-5.748-.876-5.748-8.242 0-7.368 3.488-8.338 6.763-8.338 2.835 0 4.056.5 4.834.74.244.075.47-.168.47-.385l.936-3.965a.366.366 0 0 0-.15-.307C18.14 1.077 16.215 0 11.35 0 5.748 0 0 2.384 0 13.844c0 11.46 6.58 13.168 12.126 13.168 4.592 0 7.377-1.962 7.377-1.962.115-.063.127-.224.127-.297v-12.8a.392.392 0 0 0-.392-.391ZM62.496 1.373a.391.391 0 0 0-.39-.394H57.38a.393.393 0 0 0-.391.394l.001 9.133h-7.367V1.373a.392.392 0 0 0-.39-.394h-4.725a.393.393 0 0 0-.39.394v24.73c0 .218.175.396.39.396h4.725c.217 0 .39-.177.39-.396V15.525h7.367l-.013 10.578c0 .218.176.396.392.396h4.737c.216 0 .39-.177.39-.396V1.373ZM28.157 4.618c0-1.701-1.364-3.077-3.047-3.077-1.682 0-3.047 1.376-3.047 3.077 0 1.7 1.365 3.08 3.047 3.08 1.683 0 3.047-1.38 3.047-3.08ZM27.816 20.887V9.47a.393.393 0 0 0-.39-.394h-4.712c-.216 0-.41.223-.41.44v16.355c0 .48.3.623.688.623h4.244c.466 0 .58-.228.58-.63v-4.978ZM80.455 9.114h-4.69a.393.393 0 0 0-.39.396v12.126s-1.191.872-2.882.872-2.14-.768-2.14-2.424V9.51a.393.393 0 0 0-.39-.396h-4.76a.394.394 0 0 0-.39.396v11.375c0 4.918 2.74 6.121 6.511 6.121 3.094 0 5.588-1.709 5.588-1.709s.119.901.172 1.008a.413.413 0 0 0 .346.214l3.028-.013c.214 0 .39-.178.39-.395L80.847 9.51a.394.394 0 0 0-.392-.396ZM91.427 22.493c-1.627-.05-2.73-.788-2.73-.788v-7.832s1.088-.667 2.424-.786c1.689-.151 3.316.359 3.316 4.387 0 4.249-.734 5.087-3.01 5.019Zm1.85-13.934c-2.664 0-4.476 1.188-4.476 1.188V1.373a.392.392 0 0 0-.39-.394h-4.74a.392.392 0 0 0-.39.394v24.73c0 .218.175.396.391.396h3.289c.148 0 .26-.076.343-.21.081-.133.2-1.14.2-1.14s1.937 1.837 5.606 1.837c4.307 0 6.777-2.185 6.777-9.808 0-7.623-3.945-8.62-6.61-8.62ZM41.404 9.075H37.86l-.005-4.684c0-.177-.091-.265-.296-.265h-4.831c-.188 0-.289.082-.289.263v4.84s-2.42.584-2.585.631a.393.393 0 0 0-.283.377v3.041c0 .22.175.396.391.396h2.477v7.316c0 5.435 3.812 5.969 6.384 5.969 1.176 0 2.582-.378 2.814-.464.14-.051.222-.197.222-.354l.004-3.346a.4.4 0 0 0-.392-.395c-.207 0-.735.084-1.28.084-1.74 0-2.33-.81-2.33-1.857v-6.953h3.544a.393.393 0 0 0 .391-.396V9.47a.392.392 0 0 0-.39-.394Z"/></g><defs><clipPath id="a"><path fill="#fff" d="M0 0h100v27.122H0z"/></clipPath></defs></svg>