<svg xmlns="http://www.w3.org/2000/svg" width="65.306" height="64" fill="none" viewBox="0 0 50 49"><g clip-path="url(#a)"><path fill="#e24329" d="m49.046 19.226-.067-.178-6.752-17.612a1.784 1.784 0 0 0-3.373.182L34.297 15.57H15.842L11.284 1.618a1.786 1.786 0 0 0-3.372-.182L1.163 19.051l-.07.175a12.535 12.535 0 0 0 4.16 14.487l.025.02.057.044 10.271 7.697 5.096 3.85 3.095 2.342a2.09 2.09 0 0 0 2.523 0l3.095-2.341 5.096-3.85 10.343-7.742.03-.023a12.536 12.536 0 0 0 4.162-14.484"/><path fill="#fc6d26" d="m49.046 19.226-.067-.178a22.8 22.8 0 0 0-9.076 4.083L25.078 34.34l9.44 7.134 10.344-7.742.028-.023a12.534 12.534 0 0 0 4.156-14.484Z"/><path fill="#fca326" d="m15.602 41.475 5.095 3.85 3.096 2.34a2.09 2.09 0 0 0 2.522 0l3.095-2.34 5.096-3.85-9.44-7.134z"/><path fill="#fc6d26" d="M10.237 23.13a22.75 22.75 0 0 0-9.074-4.079l-.07.175a12.535 12.535 0 0 0 4.16 14.487l.025.02.057.044 10.271 7.697 9.446-7.133-14.815-11.21Z"/></g><defs><clipPath id="a"><path fill="#fff" d="M0 0h50v48.089H0z"/></clipPath></defs></svg>