<svg xmlns="http://www.w3.org/2000/svg" width="290.909" height="64" fill="none" viewBox="0 0 100 22"><g clip-path="url(#a)"><path fill="#171321" d="M40.423 8.275h3.278c-.547-3.485-3.564-5.912-7.49-5.912-4.646 0-8.133 3.416-8.133 9.136 0 5.619 3.33 9.104 8.228 9.104 4.395 0 7.542-2.827 7.542-7.404v-2.133h-7.204v2.514h4.092c-.052 2.532-1.743 4.135-4.413 4.135-2.973 0-5.01-2.227-5.01-6.25 0-3.997 2.072-6.216 4.94-6.216 2.142 0 3.606 1.144 4.17 3.026M46.01 20.36h3.139V7.05h-3.138v13.31Zm1.584-15.425c.997 0 1.811-.764 1.811-1.699s-.814-1.708-1.811-1.708c-.998 0-1.82.763-1.82 1.708s.808 1.7 1.814 1.7zM58.545 7.05h-2.627V3.853H52.78V7.05h-1.89v2.428h1.89v7.404c-.017 2.505 1.804 3.741 4.161 3.668a6.4 6.4 0 0 0 1.847-.313l-.529-2.454q-.451.117-.918.122c-.79 0-1.423-.278-1.423-1.544v-6.89h2.627zm2.432 13.31h11.036v-2.697h-7.82V2.604h-3.216zm17.049.269c2.089 0 3.336-.98 3.909-2.098h.104v1.829h3.021v-8.912c0-3.52-2.869-4.578-5.41-4.578-2.8 0-4.95 1.248-5.643 3.675l2.93.418c.312-.911 1.197-1.691 2.735-1.691 1.457 0 2.254.745 2.254 2.055v.051c0 .901-.945.946-3.295 1.196-2.582.278-5.053 1.049-5.053 4.049-.008 2.619 1.907 4.006 4.448 4.006m1.031-2.302c-1.31 0-2.246-.599-2.246-1.752 0-1.205 1.05-1.707 2.446-1.907.825-.113 2.472-.321 2.878-.65v1.569c.009 1.478-1.189 2.735-3.078 2.735zm8.31 2.033h3.087v-2.098h.18c.496.971 1.527 2.332 3.817 2.332 3.138 0 5.487-2.489 5.487-6.875 0-4.438-2.418-6.848-5.496-6.848-2.35 0-3.33 1.413-3.807 2.375h-.133V2.604h-3.135zm3.078-6.658c0-2.59 1.11-4.257 3.13-4.257 2.089 0 3.165 1.777 3.165 4.257s-1.092 4.317-3.166 4.317c-2.002 0-3.13-1.734-3.13-4.317Z"/><path fill="#E24329" d="m22.156 8.686-.03-.08-3.05-7.957a.806.806 0 0 0-1.524.082l-2.06 6.304H7.155L5.095.73A.807.807 0 0 0 3.572.649L.522 8.607l-.03.08a5.66 5.66 0 0 0 1.878 6.545l.012.008.026.02 4.64 3.478 2.302 1.74 1.399 1.057a.945.945 0 0 0 1.14 0l1.398-1.057 2.302-1.74 4.673-3.498.013-.01a5.664 5.664 0 0 0 1.88-6.544Z"/><path fill="#FC6D26" d="m22.157 8.686-.03-.08a10.3 10.3 0 0 0-4.101 1.844l-6.698 5.065 4.265 3.223 4.673-3.498.013-.01a5.664 5.664 0 0 0 1.878-6.544"/><path fill="#FCA326" d="m7.047 18.738 2.302 1.74 1.399 1.057a.945.945 0 0 0 1.14 0l1.398-1.057 2.302-1.74-4.265-3.223z"/><path fill="#FC6D26" d="M4.622 10.45a10.3 10.3 0 0 0-4.1-1.843l-.03.08a5.66 5.66 0 0 0 1.878 6.545l.012.008.026.02 4.64 3.478 4.268-3.223z"/></g><defs><clipPath id="a"><path fill="#fff" d="M0 0h100v21.727H0z"/></clipPath></defs></svg>