<svg xmlns="http://www.w3.org/2000/svg" width="304.762" height="64" fill="none" viewBox="0 0 100 21"><path fill="#1ad6d6" d="M18.569.878c-2.237-1.4-5.183-1.07-7.81.587C8.142-.19 5.195-.521 2.96.878-.574 3.093-1.003 8.797 2 13.618c2.215 3.555 5.68 5.638 8.764 5.6 3.084.038 6.548-2.045 8.763-5.6C22.53 8.796 22.104 3.093 18.57.878ZM3.626 12.6A11.6 11.6 0 0 1 2.24 9.416a9.1 9.1 0 0 1-.301-3.002c.134-1.78.857-3.167 2.037-3.907s2.737-.782 4.397-.123q.378.153.74.343A13.6 13.6 0 0 0 6.727 5.6c-1.824 2.927-2.382 6.186-1.745 8.782a12 12 0 0 1-1.357-1.78Zm15.665-3.185a11.6 11.6 0 0 1-1.387 3.185q-.594.956-1.358 1.784c.57-2.329.183-5.18-1.213-7.855a.35.35 0 0 0-.504-.138L10.476 9.12a.356.356 0 0 0-.113.491l.639 1.024a.354.354 0 0 0 .49.114l2.821-1.767c.091.274.183.544.25.823.267.977.369 1.991.302 3.002-.134 1.782-.858 3.17-2.036 3.908a4 4 0 0 1-2.018.586h-.09a3.97 3.97 0 0 1-2.019-.586c-1.18-.739-1.903-2.126-2.036-3.909a9.1 9.1 0 0 1 .3-3 11.9 11.9 0 0 1 3.633-5.83 9.1 9.1 0 0 1 2.555-1.587c1.656-.66 3.217-.616 4.396.122 1.18.74 1.902 2.128 2.037 3.908a9.2 9.2 0 0 1-.296 2.998ZM44.62 7.787c-2.445 0-4.42 1.914-4.42 4.349 0 2.418 1.975 4.3 4.42 4.3 2.462 0 4.438-1.88 4.438-4.3 0-2.434-1.973-4.349-4.437-4.349Zm0 6.376c-1.126 0-1.984-.914-1.984-2.044s.858-2.058 1.985-2.058c1.143 0 2 .93 2 2.061s-.857 2.045-2 2.045zm9.951-9.716h-4.498a.36.36 0 0 0-.368.37v10.997a.37.37 0 0 0 .22.362q.071.03.148.03h4.498c3.6 0 6.103-2.402 6.103-5.895 0-3.514-2.502-5.864-6.103-5.864m.107 9.435h-2.462V6.764h2.462c1.993 0 3.366 1.494 3.366 3.542 0 2.016-1.373 3.576-3.366 3.576M69.63 8.023h-1.692a.38.38 0 0 0-.351.37v.503c-.386-.638-1.256-1.108-2.34-1.108-2.11 0-4.086 1.661-4.086 4.315 0 2.64 1.959 4.332 4.07 4.332 1.087 0 1.975-.47 2.36-1.108v.52a.355.355 0 0 0 .352.353h1.691a.34.34 0 0 0 .352-.353V8.393a.36.36 0 0 0-.218-.34.4.4 0 0 0-.139-.03Zm-3.936 6.159c-1.12 0-1.961-.864-1.961-2.061s.841-2.06 1.961-2.06 1.962.862 1.962 2.059-.84 2.06-1.962 2.06zm13.43-9.735h-1.691a.356.356 0 0 0-.368.352v4.064c-.39-.605-1.273-1.075-2.378-1.075-2.094 0-4.036 1.661-4.036 4.315 0 2.64 1.959 4.332 4.07 4.332 1.087 0 1.909-.47 2.36-1.108v.52c0 .194.158.352.352.353h1.691a.34.34 0 0 0 .252-.1.35.35 0 0 0 .1-.253V4.802a.35.35 0 0 0-.215-.33.3.3 0 0 0-.137-.025m-3.935 9.755c-1.115 0-1.95-.872-1.95-2.082s.838-2.082 1.95-2.082 1.95.872 1.95 2.082-.833 2.082-1.95 2.082m13.428-9.755H86.93a.357.357 0 0 0-.37.352v4.064c-.385-.605-1.273-1.075-2.377-1.075-2.094 0-4.036 1.661-4.036 4.315 0 2.64 1.96 4.332 4.07 4.332 1.088 0 1.908-.47 2.36-1.108v.52a.356.356 0 0 0 .353.353h1.688a.34.34 0 0 0 .327-.217.3.3 0 0 0 .024-.136V4.802a.343.343 0 0 0-.35-.355Zm-3.935 9.755c-1.116 0-1.95-.872-1.95-2.082s.838-2.082 1.95-2.082 1.95.872 1.95 2.082-.831 2.082-1.947 2.082zm13.196-5.607-2.524 8.68c-.486 1.544-1.574 2.468-3.265 2.468-.77 0-1.47-.158-2.018-.473-.32-.183-.586-.35-.586-.617 0-.167.054-.252.151-.408l.501-.753c.142-.21.247-.278.398-.278.12.003.238.043.334.116.315.205.608.38 1.053.38.52 0 .918-.167 1.132-.788l.217-.721H92.25c-.252 0-.39-.15-.453-.353l-2.259-7.253c-.084-.285-.006-.57.412-.57h1.78c.216 0 .369.073.463.386l1.67 5.84 1.559-5.84c.05-.202.184-.387.452-.387h1.687c.333 0 .434.234.317.571m-58.316 2.582v4.636a.376.376 0 0 1-.383.383h-1.396a.375.375 0 0 1-.382-.383v-1.217c-.886 1.122-2.427 1.829-4.17 1.829-3.274 0-5.833-2.47-5.833-5.984 0-3.653 2.762-6.171 6.252-6.171 2.576 0 4.635 1.11 5.55 3.344q.038.089.041.187c0 .105-.07.185-.293.262l-1.63.63a.42.42 0 0 1-.307.005.47.47 0 0 1-.196-.224c-.585-1.116-1.626-1.872-3.229-1.872-2.078 0-3.567 1.627-3.567 3.737 0 2.046 1.267 3.728 3.626 3.728 1.241 0 2.231-.586 2.693-1.23h-1.473a.375.375 0 0 1-.382-.384v-1.26a.38.38 0 0 1 .382-.383h4.313a.36.36 0 0 1 .383.367Zm58.361-4.87v-.112q0-.013.007-.022a.03.03 0 0 1 .02-.008h.713a.03.03 0 0 1 .02.008.03.03 0 0 1 .008.022v.112a.03.03 0 0 1-.008.02.03.03 0 0 1-.02.008h-.26v.705a.03.03 0 0 1-.009.02.03.03 0 0 1-.02.01h-.135q-.006 0-.01-.003l-.009-.006-.007-.01-.002-.01v-.706h-.26l-.011-.001-.01-.006-.006-.01-.002-.011Zm1.245-.117.195.453.195-.453a.04.04 0 0 1 .016-.019l.026-.006h.226q.006 0 .011.002l.01.006.006.009.002.01v.849q0 .006-.002.01l-.005.01-.01.006-.01.002h-.127a.03.03 0 0 1-.021-.008l-.006-.009-.002-.011V6.4l-.209.465-.016.023-.026.006h-.104l-.025-.006a.04.04 0 0 1-.016-.023l-.208-.465v.64a.03.03 0 0 1-.008.02.03.03 0 0 1-.02.008h-.129l-.01-.002-.009-.006-.006-.009v-.859q-.002-.006.001-.011l.006-.01a.03.03 0 0 1 .02-.007h.22q.012 0 .025.006a.04.04 0 0 1 .01.02"/></svg>