<svg xmlns="http://www.w3.org/2000/svg" width="71.111" height="64" fill="none" viewBox="0 0 50 45"><g clip-path="url(#a)"><mask id="b" width="50" height="45" x="0" y="0" maskUnits="userSpaceOnUse" style="mask-type:alpha"><path fill="#fff" d="M0 0h50v44.565H0z"/></mask><g mask="url(#b)"><path fill="#1BDBDB" fill-rule="evenodd" d="M44.801 21.837c-.668 2.547-1.752 5.03-3.22 7.383a27.6 27.6 0 0 1-3.153 4.138c1.323-5.399.428-12.012-2.818-18.214a.817.817 0 0 0-1.173-.32L24.33 21.147a.83.83 0 0 0-.263 1.14l1.482 2.374a.826.826 0 0 0 1.14.263l6.55-4.098q.331.945.584 1.902c.63 2.4.865 4.742.698 6.96-.311 4.131-1.991 7.35-4.73 9.063-1.368.855-2.957 1.309-4.684 1.358h-.212c-1.727-.05-3.317-.503-4.685-1.358-2.739-1.714-4.419-4.932-4.73-9.062-.167-2.22.068-4.561.698-6.96.669-2.547 1.752-5.031 3.22-7.384 1.47-2.352 3.224-4.416 5.218-6.134 1.878-1.62 3.878-2.857 5.943-3.68 3.845-1.53 7.471-1.43 10.21.284s4.419 4.932 4.73 9.062c.168 2.219-.067 4.56-.698 6.96M8.42 29.22c-1.469-2.352-2.553-4.836-3.222-7.383-.63-2.4-.865-4.741-.697-6.96.311-4.13 1.99-7.349 4.73-9.062 2.739-1.713 6.365-1.814 10.21-.283.579.23 1.152.498 1.719.794a31.5 31.5 0 0 0-5.534 6.66c-4.242 6.794-5.532 14.342-4.053 20.373A27.6 27.6 0 0 1 8.42 29.22M43.127 2.038C37.93-1.212 31.09-.44 24.998 3.4 18.908-.44 12.07-1.212 6.873 2.038-1.336 7.173-2.333 20.4 4.646 31.581 9.793 39.825 17.838 44.654 25 44.564c7.163.09 15.208-4.74 20.354-12.983C52.333 20.4 51.336 7.173 43.127 2.038" clip-rule="evenodd"/></g></g><defs><clipPath id="a"><path fill="#fff" d="M0 0h50v44.565H0z"/></clipPath></defs></svg>