<svg xmlns="http://www.w3.org/2000/svg" width="55.172" height="64" fill="none" viewBox="0 0 50 58"><g clip-path="url(#a)"><path fill="#F8AB00" d="M35.96 6.866v43.157c0 4.833 3.332 7.52 6.867 7.52 3.27 0 6.866-2.288 6.866-7.52V7.194c0-4.424-3.27-7.193-6.866-7.193-3.597 0-6.866 3.055-6.866 6.866Z"/><path fill="#E37300" d="M17.984 28.772v21.252c0 4.832 3.331 7.52 6.866 7.52 3.27 0 6.866-2.289 6.866-7.52V29.098c0-4.424-3.27-7.193-6.866-7.193s-6.866 3.055-6.866 6.866Zm-4.252 21.906a6.87 6.87 0 0 1-6.866 6.866A6.87 6.87 0 0 1 0 50.678a6.87 6.87 0 0 1 6.866-6.866 6.87 6.87 0 0 1 6.866 6.866"/></g><defs><clipPath id="a"><path fill="#fff" d="M0 0h50v57.576H0z"/></clipPath></defs></svg>