<svg xmlns="http://www.w3.org/2000/svg" width="426.667" height="64" fill="none" viewBox="0 0 100 15"><g clip-path="url(#a)"><path fill="#5f6368" d="M71.73 7.33v3.923h-1.175V2.104h5.34v1.124H71.73v3.003h3.757v1.1zm4.7.793q0-1.443.907-2.39.92-.945 2.313-.945t2.3.945q.92.947.92 2.39 0 1.457-.92 2.39-.907.945-2.3.945t-2.313-.946q-.907-.945-.907-2.39Zm1.175 0q0 1.01.588 1.635.588.626 1.457.626t1.456-.626.588-1.635q0-.998-.588-1.623a1.93 1.93 0 0 0-1.456-.639q-.857 0-1.457.64-.588.624-.588 1.622m6.262-3.131h1.125v.869h.05q.27-.46.825-.766.555-.307 1.157-.307 1.15 0 1.769.658.62.657.62 1.872v3.935h-1.176V7.394q-.037-1.533-1.546-1.533-.703 0-1.175.569-.474.568-.473 1.36v3.463h-1.176v-6.26Zm9.161 6.364q-.766 0-1.271-.474-.506-.472-.518-1.315V6.066h-1.098V4.993h1.098V3.076h1.176v1.917h1.533v1.073h-1.533v3.117q0 .627.243.85.243.224.549.223a1.3 1.3 0 0 0 .525-.115l.37 1.048a3.2 3.2 0 0 1-1.074.167m6.697-1.84q-.001.818-.716 1.38-.716.562-1.802.562-.946 0-1.661-.492a2.7 2.7 0 0 1-1.023-1.297l1.048-.447q.23.562.67.875.443.313.966.313.562 0 .94-.243.375-.242.376-.575 0-.6-.92-.881l-1.073-.269q-1.828-.46-1.828-1.763 0-.856.696-1.373.698-.518 1.784-.518.83 0 1.5.396.671.396.94 1.06l-1.048.435a1.32 1.32 0 0 0-.581-.62 1.83 1.83 0 0 0-.901-.223q-.46 0-.825.23t-.364.562q0 .537 1.01.767l.946.242q1.865.46 1.866 1.879M30.27 11.454c-2.862 0-5.27-2.32-5.27-5.171 0-2.85 2.408-5.172 5.27-5.172 1.585 0 2.712.618 3.562 1.426l-1.003.996a3.63 3.63 0 0 0-2.558-1.01c-2.091 0-3.725 1.679-3.725 3.76s1.634 3.76 3.725 3.76c1.355 0 2.128-.544 2.623-1.035.405-.404.672-.984.772-1.78h-3.395V5.817h4.777c.05.252.075.556.075.883 0 1.06-.291 2.372-1.23 3.305-.911.946-2.076 1.45-3.622 1.45Zm12.246-3.33c0 1.918-1.48 3.33-3.297 3.33s-3.297-1.412-3.297-3.33c0-1.93 1.48-3.33 3.297-3.33 1.816 0 3.297 1.4 3.297 3.33m-1.443 0c0-1.198-.86-2.018-1.855-2.018s-1.853.82-1.853 2.018c0 1.186.858 2.019 1.853 2.019s1.855-.833 1.855-2.019m8.834 0c0 1.918-1.481 3.33-3.298 3.33-1.815 0-3.297-1.412-3.297-3.33 0-1.93 1.482-3.33 3.297-3.33 1.817 0 3.298 1.4 3.298 3.33m-1.443 0c0-1.198-.86-2.018-1.855-2.018s-1.853.82-1.853 2.018c0 1.186.858 2.019 1.853 2.019.996 0 1.855-.833 1.855-2.019m8.642-3.128v5.98c0 2.46-1.456 3.468-3.18 3.468-1.621 0-2.597-1.085-2.964-1.967l1.279-.53c.228.542.785 1.185 1.685 1.185 1.103 0 1.787-.68 1.787-1.955v-.48h-.05c-.33.405-.964.757-1.762.757-1.672 0-3.206-1.45-3.206-3.317 0-1.88 1.534-3.343 3.206-3.343.798 0 1.432.354 1.761.745h.051v-.543zm-1.292 3.141c0-1.173-.785-2.031-1.786-2.031-1.014 0-1.863.858-1.863 2.031 0 1.16.85 2.006 1.863 2.006 1 0 1.786-.845 1.786-2.006m3.875 3.115h-1.47V1.464h1.47zm5.77-2.03 1.14.756c-.367.543-1.254 1.476-2.787 1.476-1.9 0-3.273-1.462-3.273-3.329 0-1.98 1.384-3.33 3.108-3.33 1.736 0 2.585 1.374 2.864 2.118l.151.379-4.472 1.841c.342.669.874 1.01 1.622 1.01.747 0 1.267-.366 1.647-.921m-3.51-1.199 2.99-1.235c-.164-.416-.658-.707-1.242-.707-.747 0-1.785.656-1.748 1.942"/><path fill="#fbbc04" d="M.281 12.778 8.337 0h5v1.778l-6.945 11"/><path fill="#1a73e8" d="M13.336 12.778h-5V0h5z"/><path fill="#34a853" d="M16.947 9.167a3.61 3.61 0 0 1-3.611 3.61v-7.22a3.61 3.61 0 0 1 3.611 3.61"/><path fill="#0d652d" d="M13.33 12.778a3.611 3.611 0 1 1 0-7.222z"/><path fill="#1a73e8" d="M16.114 2.778a2.78 2.78 0 0 1-2.778 2.778V0a2.78 2.78 0 0 1 2.778 2.778"/><path fill="#174ea6" d="M13.332 5.556a2.778 2.778 0 1 1 0-5.556z"/><path fill="#ea4335" d="M.555 2.5a2.5 2.5 0 1 1 5 0 2.5 2.5 0 0 1-5 0"/></g><defs><clipPath id="a"><path fill="#fff" d="M0 0h100v14.444H0z"/></clipPath></defs></svg>