<svg xmlns="http://www.w3.org/2000/svg" width="426.667" height="64" fill="none" viewBox="0 0 100 15"><g clip-path="url(#a)"><path fill="#5F6368" d="M71.73 7.33v3.923h-1.175V2.104h5.34v1.124H71.73v3.003h3.757v1.1H71.73ZM76.43 8.123c0-.962.302-1.759.907-2.39.613-.63 1.384-.945 2.313-.945.929 0 1.695.315 2.3.945.613.631.92 1.428.92 2.39 0 .971-.307 1.768-.92 2.39-.605.63-1.371.945-2.3.945-.929 0-1.7-.315-2.313-.946-.605-.63-.907-1.427-.907-2.39Zm1.175 0c0 .673.196 1.218.588 1.635.392.418.877.626 1.457.626.58 0 1.065-.208 1.456-.626.392-.417.588-.962.588-1.635 0-.665-.196-1.206-.588-1.623a1.925 1.925 0 0 0-1.456-.639c-.571 0-1.057.213-1.457.64-.392.416-.588.957-.588 1.622ZM83.867 4.992h1.125v.869h.05c.18-.306.455-.562.825-.766.37-.205.756-.307 1.157-.307.766 0 1.356.219 1.769.658.413.438.62 1.062.62 1.872v3.935h-1.176V7.394c-.025-1.022-.54-1.533-1.546-1.533-.469 0-.86.19-1.175.569-.316.379-.473.832-.473 1.36v3.463h-1.176v-6.26ZM93.028 11.356c-.51 0-.935-.158-1.271-.474-.337-.315-.51-.753-.518-1.315V6.066h-1.098V4.993h1.098V3.076h1.176v1.917h1.533v1.073h-1.533v3.117c0 .418.08.701.243.85.162.15.345.223.549.223.094 0 .185-.01.275-.03.09-.022.172-.05.25-.085l.37 1.048c-.307.11-.665.167-1.074.167ZM99.725 9.516c0 .545-.24 1.005-.716 1.38-.477.374-1.078.562-1.802.562-.63 0-1.185-.165-1.661-.492a2.707 2.707 0 0 1-1.023-1.297l1.048-.447c.154.375.377.666.67.875.295.209.617.313.966.313.375 0 .688-.08.94-.243.25-.161.376-.353.376-.575 0-.4-.306-.694-.92-.881l-1.073-.269c-1.219-.306-1.828-.894-1.828-1.763 0-.57.232-1.029.696-1.373.465-.345 1.06-.518 1.784-.518.553 0 1.054.132 1.5.396.448.264.76.617.94 1.06l-1.048.435a1.323 1.323 0 0 0-.581-.62 1.834 1.834 0 0 0-.901-.223c-.307 0-.582.076-.825.23-.242.153-.364.34-.364.562 0 .358.337.613 1.01.767l.946.242c1.243.307 1.866.933 1.866 1.879ZM30.27 11.454c-2.862 0-5.27-2.32-5.27-5.171 0-2.85 2.408-5.172 5.27-5.172 1.585 0 2.712.618 3.562 1.426l-1.003.996a3.626 3.626 0 0 0-2.558-1.01c-2.091 0-3.725 1.679-3.725 3.76 0 2.081 1.634 3.76 3.725 3.76 1.355 0 2.128-.544 2.623-1.035.405-.404.672-.984.772-1.78h-3.395V5.817h4.777c.05.252.075.556.075.883 0 1.06-.291 2.372-1.23 3.305-.911.946-2.076 1.45-3.622 1.45ZM42.516 8.124c0 1.918-1.48 3.33-3.297 3.33-1.817 0-3.297-1.412-3.297-3.33 0-1.93 1.48-3.33 3.297-3.33 1.816 0 3.297 1.4 3.297 3.33Zm-1.443 0c0-1.198-.86-2.018-1.855-2.018s-1.853.82-1.853 2.018c0 1.186.858 2.019 1.853 2.019s1.855-.833 1.855-2.019ZM49.907 8.124c0 1.918-1.481 3.33-3.298 3.33-1.815 0-3.297-1.412-3.297-3.33 0-1.93 1.482-3.33 3.297-3.33 1.817 0 3.298 1.4 3.298 3.33Zm-1.443 0c0-1.198-.86-2.018-1.855-2.018s-1.853.82-1.853 2.018c0 1.186.858 2.019 1.853 2.019.996 0 1.855-.833 1.855-2.019ZM57.106 4.996v5.98c0 2.46-1.456 3.468-3.18 3.468-1.621 0-2.597-1.085-2.964-1.967l1.279-.53c.228.542.785 1.185 1.685 1.185 1.103 0 1.787-.68 1.787-1.955v-.48h-.05c-.33.405-.964.757-1.762.757-1.672 0-3.206-1.45-3.206-3.317 0-1.88 1.534-3.343 3.206-3.343.798 0 1.432.354 1.761.745h.051v-.543h1.393Zm-1.292 3.141c0-1.173-.785-2.031-1.786-2.031-1.014 0-1.863.858-1.863 2.031 0 1.16.85 2.006 1.863 2.006 1 0 1.786-.845 1.786-2.006ZM59.689 11.252h-1.47V1.464h1.47v9.788ZM65.459 9.222l1.14.756c-.367.543-1.254 1.476-2.787 1.476-1.9 0-3.273-1.462-3.273-3.329 0-1.98 1.384-3.33 3.108-3.33 1.736 0 2.585 1.374 2.864 2.118l.151.379-4.472 1.841c.342.669.874 1.01 1.622 1.01.747 0 1.267-.366 1.647-.921Zm-3.51-1.199 2.99-1.235c-.164-.416-.658-.707-1.242-.707-.747 0-1.785.656-1.748 1.942Z"/><path fill="#FBBC04" d="M.281 12.778 8.337 0h5v1.778l-6.945 11"/><path fill="#1A73E8" d="M13.336 12.778h-5V0h5v12.778Z"/><path fill="#34A853" d="M16.947 9.167a3.611 3.611 0 0 1-3.611 3.61V5.557a3.611 3.611 0 0 1 3.611 3.61Z"/><path fill="#0D652D" d="M13.33 12.778a3.611 3.611 0 1 1 0-7.222v7.222Z"/><path fill="#1A73E8" d="M16.114 2.778a2.778 2.778 0 0 1-2.778 2.778V0a2.778 2.778 0 0 1 2.778 2.778Z"/><path fill="#174EA6" d="M13.332 5.556a2.778 2.778 0 1 1 0-5.556v5.556Z"/><path fill="#EA4335" d="M.555 2.5a2.5 2.5 0 1 1 5 0 2.5 2.5 0 0 1-5 0Z"/></g><defs><clipPath id="a"><path fill="#fff" d="M0 0h100v14.444H0z"/></clipPath></defs></svg>