<svg xmlns="http://www.w3.org/2000/svg" width="69.565" height="64" fill="none" viewBox="0 0 50 46"><g clip-path="url(#a)"><path fill="#3C8BD9" d="M17.049 5.743c.482-1.265 1.144-2.43 2.128-3.374 3.936-3.835 10.442-2.871 13.112 1.948 2.008 3.655 4.137 7.23 6.205 10.844 3.454 6.004 6.948 12.008 10.362 18.032 2.871 5.04-.241 11.405-5.944 12.269-3.494.522-6.767-1.085-8.574-4.217-3.033-5.281-6.085-10.562-9.117-15.823-.06-.12-.14-.221-.22-.322-.322-.26-.463-.642-.663-.984-1.346-2.369-2.731-4.718-4.077-7.068-.863-1.526-1.767-3.032-2.63-4.558a8.3 8.3 0 0 1-1.105-4.418c.06-.803.161-1.606.523-2.329"/><path fill="#FABC04" d="M17.046 5.743c-.18.723-.342 1.446-.382 2.209-.06 1.687.362 3.253 1.205 4.719 2.209 3.795 4.418 7.61 6.606 11.425.201.342.362.683.563 1.004a978 978 0 0 1-3.635 6.245c-1.686 2.912-3.373 5.844-5.08 8.755-.08 0-.1-.04-.12-.1-.02-.16.04-.301.08-.462.823-3.012.14-5.683-1.928-7.972-1.265-1.385-2.872-2.168-4.719-2.43-2.41-.34-4.538.282-6.446 1.788-.341.26-.562.642-.963.843-.08 0-.121-.04-.141-.1.964-1.667 1.908-3.334 2.871-5A6931 6931 0 0 1 16.905 5.964c.04-.08.1-.14.14-.221Z"/><path fill="#34A852" d="M2.166 31.727c.382-.341.743-.703 1.145-1.024 4.88-3.856 12.208-1.064 13.273 5.04.26 1.466.12 2.871-.322 4.277-.02.12-.04.221-.08.341-.18.322-.341.663-.542.984-1.787 2.952-4.418 4.418-7.872 4.197C3.813 45.261.7 42.29.158 38.353c-.261-1.907.12-3.694 1.104-5.34.201-.362.442-.684.663-1.045.1-.08.06-.241.241-.241"/><path fill="#FABC04" d="M2.17 31.727c-.081.08-.081.22-.222.24-.02-.14.06-.22.141-.32z"/><path fill="#E1C025" d="M16.182 40.361c-.08-.14 0-.24.08-.34l.08.08z"/></g><defs><clipPath id="a"><path fill="#fff" d="M0 0h50v45.582H0z"/></clipPath></defs></svg>