<svg xmlns="http://www.w3.org/2000/svg" width="400" height="64" fill="none" viewBox="0 0 100 16"><g clip-path="url(#a)"><path fill="#757575" d="m60.165 5.56 1.391 3.651h-2.695zm-.521-1.216-3.042 7.997h1.13l.782-2.173h3.39l.782 2.173h1.13l-3.042-7.997zM76.07 12.34h1.043V4.344H76.07v7.997ZM65.377 7.647c.348-.522 1.043-.956 1.738-.956 1.39 0 2.086.956 2.086 2.347v3.39h-1.043V9.21c0-1.13-.608-1.564-1.39-1.564-.87 0-1.478.87-1.478 1.651v3.043h-1.043V6.778h1.043zm4.694 3.042c0-1.217 1.13-1.912 2.434-1.912.782 0 1.304.174 1.477.348v-.174c0-.87-.695-1.304-1.39-1.304-.608 0-1.13.26-1.304.782l-.954-.435c.174-.521.87-1.304 2.264-1.304 1.304 0 2.434.783 2.434 2.347v3.303h-.956v-.786h-.087c-.261.434-.87.956-1.826.956-1.13 0-2.086-.695-2.086-1.825zm3.918-.7s-.435-.347-1.304-.347c-1.043 0-1.478.608-1.478 1.043 0 .608.608.869 1.13.869.782 0 1.651-.696 1.651-1.564"/><path fill="#757575" fill-rule="evenodd" d="m78.589 14.774 1.217-2.872-2.173-5.041h1.043l1.651 3.824 1.651-3.824h1.043l-3.389 7.913H78.59ZM93.886 8.69c-.261-.696-.87-1.13-1.477-1.13-.87 0-1.652.782-1.652 1.912s.783 1.912 1.652 1.912c.608 0 1.217-.434 1.477-1.043l.87.522c-.435.956-1.304 1.564-2.347 1.564-1.478 0-2.695-1.304-2.695-2.955 0-1.739 1.217-2.955 2.695-2.955 1.043 0 1.912.608 2.347 1.564z" clip-rule="evenodd"/><path fill="#757575" d="M97.627 12.514c1.391 0 2.087-.782 2.087-1.738 0-2.086-3.043-1.304-3.043-2.52 0-.435.348-.696.956-.696.609 0 1.217.261 1.478.695l.608-.608c-.348-.434-1.304-1.043-2.173-1.043-1.304 0-1.999.783-1.999 1.739 0 1.999 3.13 1.304 3.13 2.347 0 .521-.349.87-1.044.87-.694 0-1.042-.435-1.39-.87l-.782.608c.521.522 1.304 1.217 2.172 1.217Zm-9.908-.174h1.043V6.778h-1.043z"/><path fill="#757575" fill-rule="evenodd" d="M88.155 4.083c.434 0 .695.348.695.695a.686.686 0 0 1-.695.696c-.348 0-.695-.348-.695-.696 0-.347.347-.695.695-.695m-1.478 7.389.174.782h-1.043c-.956 0-1.39-.695-1.39-1.738V7.82h-1.043V6.778h1.043V5.127h1.043v1.651h1.217v1.043H85.46v2.872c0 .782.608.782 1.217.782z" clip-rule="evenodd"/><path fill="#757575" d="M22.62 7.56v1.304h3.042c-.087.695-.348 1.217-.695 1.564-.435.434-1.13.956-2.347.956-1.826 0-3.303-1.478-3.303-3.39 0-1.825 1.477-3.39 3.303-3.39 1.043 0 1.738.435 2.263.87l.87-.87c-.783-.695-1.74-1.304-3.13-1.304-2.52 0-4.693 2.086-4.693 4.607 0 2.52 2.17 4.607 4.69 4.607 1.39 0 2.434-.435 3.216-1.304.87-.87 1.13-2 1.13-2.956 0-.26 0-.608-.087-.782h-4.256zm7.735-1.04c-1.651 0-2.955 1.217-2.955 2.956s1.304 2.955 2.955 2.955a2.93 2.93 0 0 0 2.956-2.955c0-1.739-1.304-2.956-2.956-2.956m0 4.78c-.869 0-1.651-.782-1.651-1.825s.782-1.825 1.651-1.825c.87 0 1.652.695 1.652 1.825s-.783 1.826-1.652 1.826ZM44.61 7.129c-.348-.348-.87-.695-1.651-.695-1.478 0-2.782 1.304-2.782 2.956 0 1.65 1.304 2.955 2.782 2.955.695 0 1.304-.348 1.564-.696h.087v.435c0 1.13-.608 1.738-1.564 1.738-.783 0-1.304-.608-1.478-1.043l-1.13.435c.348.782 1.217 1.738 2.607 1.738 1.564 0 2.872-.869 2.872-3.129V6.434H44.7v.695zm-1.478 4.173c-.869 0-1.564-.783-1.564-1.826s.696-1.825 1.564-1.825c.87 0 1.565.782 1.565 1.825s-.696 1.826-1.565 1.826m-6.345-4.78c-1.651 0-2.955 1.216-2.955 2.955 0 1.738 1.304 2.955 2.955 2.955a2.93 2.93 0 0 0 2.956-2.955c.086-1.739-1.305-2.956-2.956-2.956Zm0 4.78c-.87 0-1.651-.783-1.651-1.826s.782-1.825 1.651-1.825 1.651.695 1.651 1.825-.782 1.826-1.65 1.826ZM46.87 3.388h1.304v9.04H46.87zm4.867 7.91c-.695 0-1.13-.349-1.477-.87l3.998-1.651-.174-.348c-.26-.696-1.043-1.912-2.52-1.912-1.564 0-2.782 1.216-2.782 2.955a2.93 2.93 0 0 0 2.956 2.955c1.39 0 2.173-.87 2.52-1.304l-1.043-.695c-.348.521-.782.869-1.478.869Zm-.086-3.651c.521 0 .956.26 1.13.695l-2.695 1.13c0-1.304.87-1.825 1.564-1.825Z"/><path fill="#F9AB00" d="M10.133 1.903v11.814c0 1.322.913 2.059 1.88 2.059.894 0 1.879-.627 1.879-2.059V1.993c0-1.212-.895-1.97-1.88-1.97s-1.88.836-1.88 1.88Z"/><path fill="#E37400" d="M5.21 7.9v5.817c0 1.322.914 2.059 1.88 2.059.896 0 1.88-.627 1.88-2.059V7.99c0-1.212-.895-1.969-1.88-1.969s-1.88.835-1.88 1.88Zm-3.041 7.876a1.88 1.88 0 1 0 0-3.76 1.88 1.88 0 0 0 0 3.76"/></g><defs><clipPath id="a"><path fill="#fff" d="M0 0h100v15.878H0z"/></clipPath></defs></svg>