<svg xmlns="http://www.w3.org/2000/svg" width="61.538" height="64" fill="none" viewBox="0 0 50 52"><g clip-path="url(#a)"><path fill="#4280EF" d="M50 26.166c0-1.722-.167-3.5-.444-5.166H25.5v9.833h13.778a11.59 11.59 0 0 1-5.111 7.722l8.222 6.39C47.222 40.444 50 33.888 50 26.165Z"/><path fill="#34A353" d="M25.497 51.056c6.888 0 12.666-2.278 16.888-6.167l-8.222-6.333C31.885 40.11 28.941 41 25.497 41c-6.667 0-12.278-4.5-14.334-10.5L2.72 37a25.475 25.475 0 0 0 22.777 14.056Z"/><path fill="#F6B704" d="M11.168 30.444a15.49 15.49 0 0 1 0-9.777L2.724 14.11C-.887 21.333-.887 29.833 2.724 37l8.444-6.556Z"/><path fill="#E54335" d="M25.497 10.167A13.912 13.912 0 0 1 35.273 14l7.278-7.333C37.941 2.333 31.83 0 25.497.056A25.475 25.475 0 0 0 2.719 14.11l8.444 6.556c2.056-6.056 7.667-10.5 14.334-10.5Z"/></g><defs><clipPath id="a"><path fill="#fff" d="M0 0h50v51.111H0z"/></clipPath></defs></svg>