<svg xmlns="http://www.w3.org/2000/svg" width="61.538" height="64" fill="none" viewBox="0 0 50 52"><g clip-path="url(#a)"><path fill="#4280ef" d="M50 26.166c0-1.722-.167-3.5-.444-5.166H25.5v9.833h13.778a11.6 11.6 0 0 1-5.111 7.722l8.222 6.39C47.222 40.444 50 33.888 50 26.165Z"/><path fill="#34a353" d="M25.497 51.056c6.888 0 12.666-2.278 16.888-6.167l-8.222-6.333C31.885 40.11 28.941 41 25.497 41c-6.667 0-12.278-4.5-14.334-10.5L2.72 37a25.48 25.48 0 0 0 22.777 14.056"/><path fill="#f6b704" d="M11.168 30.444a15.5 15.5 0 0 1 0-9.777L2.724 14.11c-3.611 7.223-3.611 15.723 0 22.89z"/><path fill="#e54335" d="M25.497 10.167A13.9 13.9 0 0 1 35.273 14l7.278-7.333C37.941 2.333 31.83 0 25.497.056A25.48 25.48 0 0 0 2.719 14.11l8.444 6.556c2.056-6.056 7.667-10.5 14.334-10.5Z"/></g><defs><clipPath id="a"><path fill="#fff" d="M0 0h50v51.111H0z"/></clipPath></defs></svg>