<svg xmlns="http://www.w3.org/2000/svg" width="256" height="64" fill="none" viewBox="0 0 100 25"><g clip-path="url(#a)"><path fill="#0e101a" fill-rule="evenodd" d="M30.408 17.844c-.368-.14-.609-.437-.609-.832a.88.88 0 0 1 .878-.873.9.9 0 0 1 .353.07 4.9 4.9 0 0 0 2.094.451c1.471 0 2.164-.704 2.164-2.058v-.367c-.637.762-1.33 1.227-2.475 1.227-1.769 0-3.368-1.283-3.368-3.525v-.028c0-2.256 1.627-3.524 3.368-3.524 1.174 0 1.867.493 2.447 1.127v-.014a1.07 1.07 0 0 1 1.075-1.057c.594 0 1.075.48 1.075 1.071v4.864c0 1.354-.325 2.34-.962 2.975-.707.705-1.797 1.015-3.267 1.015a7.3 7.3 0 0 1-2.773-.522m4.88-5.907v-.028c0-1.03-.806-1.748-1.853-1.748s-1.839.719-1.839 1.748v.028c0 1.043.792 1.748 1.839 1.748s1.853-.719 1.853-1.748" clip-rule="evenodd"/><path fill="#0e101a" fill-rule="evenodd" d="M30.408 17.844c-.368-.14-.609-.437-.609-.832a.88.88 0 0 1 .878-.873.9.9 0 0 1 .353.07 4.9 4.9 0 0 0 2.094.451c1.471 0 2.164-.705 2.164-2.058v-.367c-.637.762-1.33 1.226-2.475 1.226-1.769 0-3.368-1.282-3.368-3.524v-.028c0-2.256 1.627-3.524 3.368-3.524 1.174 0 1.867.493 2.447 1.127v-.014a1.07 1.07 0 0 1 1.075-1.057c.594 0 1.075.48 1.075 1.071v4.864c0 1.354-.325 2.34-.962 2.975-.707.705-1.797 1.015-3.267 1.015a7.3 7.3 0 0 1-2.773-.522m4.88-5.907v-.028c0-1.03-.806-1.748-1.853-1.748s-1.839.719-1.839 1.748v.028c0 1.043.792 1.748 1.839 1.748s1.853-.719 1.853-1.748m3.34-2.425c0-.592.48-1.07 1.074-1.07s1.075.478 1.075 1.07v.338c.312-.732.82-1.409 1.458-1.409.665 0 1.046.437 1.046 1.043 0 .564-.367.902-.806 1.001-1.09.254-1.698 1.086-1.698 2.608v2.002c0 .592-.48 1.072-1.075 1.072-.594 0-1.075-.48-1.075-1.072V9.512Zm4.399 4.399v-.028c0-1.65 1.259-2.411 3.056-2.411a5.4 5.4 0 0 1 1.853.31v-.127c0-.888-.552-1.382-1.627-1.382-.594 0-1.075.085-1.485.212a.9.9 0 0 1-.311.057.875.875 0 0 1-.892-.875c0-.38.24-.704.58-.832.68-.253 1.415-.394 2.42-.394 1.173 0 2.022.31 2.56.846.566.563.82 1.396.82 2.41v3.44a1.03 1.03 0 0 1-1.047 1.03c-.622 0-1.032-.437-1.032-.889v-.014c-.524.578-1.245.959-2.292.959-1.429 0-2.603-.817-2.603-2.312m4.937-.493v-.381a3.35 3.35 0 0 0-1.372-.282c-.92 0-1.485.366-1.485 1.043v.028c0 .579.48.917 1.174.917 1.004 0 1.683-.55 1.683-1.325m3.184-3.906c0-.592.48-1.07 1.075-1.07.594 0 1.075.478 1.075 1.07v.085c.495-.634 1.146-1.212 2.235-1.212.99 0 1.74.436 2.136 1.198.665-.775 1.458-1.198 2.49-1.198 1.599 0 2.56.958 2.56 2.777v3.933c0 .592-.48 1.072-1.075 1.072-.593 0-1.075-.48-1.075-1.072v-3.228c0-1.015-.453-1.537-1.259-1.537s-1.301.522-1.301 1.537v3.228c0 .592-.48 1.072-1.075 1.072s-1.076-.48-1.076-1.072v-3.228c0-1.015-.452-1.537-1.258-1.537-.807 0-1.302.522-1.302 1.537v3.228c0 .592-.48 1.072-1.075 1.072-.594 0-1.075-.48-1.075-1.072zm12.732 0c0-.592.481-1.07 1.076-1.07.594 0 1.075.478 1.075 1.07v.085c.495-.634 1.146-1.212 2.235-1.212.99 0 1.74.436 2.136 1.198.665-.775 1.457-1.198 2.49-1.198 1.599 0 2.56.958 2.56 2.777v3.933c0 .592-.48 1.072-1.075 1.072-.594 0-1.075-.48-1.075-1.072v-3.228c0-1.015-.453-1.537-1.259-1.537s-1.302.522-1.302 1.537v3.228c0 .592-.48 1.072-1.075 1.072-.594 0-1.075-.48-1.075-1.072v-3.228c0-1.015-.452-1.537-1.259-1.537s-1.3.522-1.3 1.537v3.228c0 .592-.482 1.072-1.076 1.072s-1.076-.48-1.076-1.072zm12.28 4.399v-.028c0-1.65 1.26-2.411 3.056-2.411.764 0 1.316.127 1.853.31v-.127c0-.888-.551-1.382-1.627-1.382-.594 0-1.075.085-1.485.212a.9.9 0 0 1-.311.057.874.874 0 0 1-.891-.875c0-.38.24-.704.58-.832.679-.253 1.414-.394 2.419-.394 1.174 0 2.023.31 2.56.846.566.563.82 1.396.82 2.41v3.44a1.03 1.03 0 0 1-1.046 1.03c-.622 0-1.033-.437-1.033-.889v-.014c-.523.578-1.245.959-2.291.959-1.43 0-2.603-.817-2.603-2.312Zm4.938-.493v-.381a3.35 3.35 0 0 0-1.372-.282c-.92 0-1.486.366-1.486 1.043v.028c0 .579.48.917 1.174.917 1.004 0 1.684-.55 1.684-1.325m3.183-3.906c0-.592.481-1.07 1.075-1.07.595 0 1.075.478 1.075 1.07v.338c.311-.732.821-1.409 1.458-1.409.665 0 1.046.437 1.046 1.043 0 .564-.367.902-.807 1.001-1.088.254-1.697 1.086-1.697 2.608v2.002c0 .592-.48 1.072-1.075 1.072-.594 0-1.075-.48-1.075-1.072zm5.306-2.735c0-.592.48-1.071 1.074-1.071s1.076.479 1.076 1.071v8.318c0 .592-.48 1.072-1.076 1.072-.594 0-1.074-.48-1.074-1.072zm3.862 11.406c-.312-.113-.68-.367-.68-.888 0-.522.411-.875.85-.875.168 0 .268.029.353.057.184.056.297.085.453.085.381 0 .566-.071.764-.452l.07-.169-2.588-5.978a1.6 1.6 0 0 1-.113-.493c0-.606.466-1.029 1.06-1.029.538 0 .849.296 1.033.803l1.641 4.4 1.585-4.386c.17-.45.48-.817 1.033-.817.55 0 1.018.423 1.018.987 0 .17-.057.409-.1.507l-2.645 6.33c-.637 1.537-1.273 2.115-2.56 2.115-.482 0-.82-.07-1.174-.197" clip-rule="evenodd"/><path fill="#4ca385" d="M11.71.586C5.242.586 0 5.828 0 12.296h23.418c0-6.468-5.242-11.71-11.709-11.71Z"/><path fill="#4ca385" d="M11.71 24.004c6.466 0 11.708-5.242 11.708-11.709H0c0 6.467 5.243 11.71 11.71 11.71Z"/><g filter="url(#b)"><path fill="#fff" fill-rule="evenodd" d="M14.019 13.882a.793.793 0 0 0-.78.941c.069.384.43.646.82.646h1.226l.711-.1c-1.138 1.67-3.114 2.438-5.274 2.1-1.758-.277-3.267-1.466-3.908-3.128-1.445-3.772 1.31-7.374 4.9-7.374 1.87 0 3.51 1.096 4.452 2.418v.029a.8.8 0 0 0 1.104.213.783.783 0 0 0 .229-1.042h.006a6.87 6.87 0 0 0-6.27-3.156c-3.42.23-6.19 3.032-6.387 6.457-.23 3.986 2.933 7.241 6.865 7.241a6.8 6.8 0 0 0 5.176-2.355l-.15.836v.754c0 .39.263.75.647.819a.793.793 0 0 0 .94-.78v-4.519z" clip-rule="evenodd"/></g></g><defs><clipPath id="a"><path fill="#fff" d="M0 0h100v24.59H0z"/></clipPath><filter id="b" width="14.294" height="14.885" x="4.435" y="5.413" color-interpolation-filters="sRGB" filterUnits="userSpaceOnUse"><feFlood flood-opacity="0" result="BackgroundImageFix"/><feColorMatrix in="SourceAlpha" result="hardAlpha" values="0 0 0 0 0 0 0 0 0 0 0 0 0 0 0 0 0 0 127 0"/><feOffset dy=".702"/><feGaussianBlur stdDeviation=".2"/><feColorMatrix values="0 0 0 0 0 0 0 0 0 0 0 0 0 0 0 0 0 0 0.15 0"/><feBlend in2="BackgroundImageFix" result="effect1_dropShadow_1_2558"/><feBlend in="SourceGraphic" in2="effect1_dropShadow_1_2558" result="shape"/></filter></defs></svg>