<svg xmlns="http://www.w3.org/2000/svg" width="64" height="64" fill="none" viewBox="0 0 50 50"><g clip-path="url(#a)"><path fill="#129c78" d="M25 0C11.193 0 0 11.193 0 25h50C50 11.193 38.808 0 25 0m0 50c13.808 0 25-11.193 25-25H0c0 13.807 11.193 25 25 25"/><path fill="#000" fill-rule="evenodd" d="M29.934 28.718a1.693 1.693 0 0 0-1.665 2.01c.148.818.917 1.378 1.75 1.378h2.618l1.519-.213c-2.43 3.565-6.648 5.204-11.26 4.48-3.754-.59-6.976-3.128-8.344-6.676-3.086-8.054 2.796-15.743 10.46-15.743 3.995 0 7.497 2.339 9.506 5.162v.061a1.703 1.703 0 0 0 2.359.456 1.67 1.67 0 0 0 .488-2.225h.013a14.67 14.67 0 0 0-13.385-6.738c-7.305.492-13.22 6.473-13.64 13.786-.488 8.51 6.263 15.46 14.66 15.46a14.53 14.53 0 0 0 11.05-5.028l-.32 1.784v1.61c0 .831.56 1.602 1.38 1.749a1.69 1.69 0 0 0 1.848-.945 1.66 1.66 0 0 0 .161-.72v-9.648z" clip-rule="evenodd" opacity=".2"/><path fill="#fff" fill-rule="evenodd" d="M29.934 28.389a1.693 1.693 0 0 0-1.665 2.01c.148.818.917 1.378 1.75 1.378h2.618l1.519-.213c-2.43 3.565-6.648 5.204-11.26 4.48-3.754-.589-6.976-3.128-8.344-6.676-3.086-8.054 2.796-15.743 10.46-15.743 3.995 0 7.497 2.339 9.506 5.162v.062a1.703 1.703 0 0 0 2.359.455 1.67 1.67 0 0 0 .488-2.225h.013a14.67 14.67 0 0 0-13.385-6.738c-7.305.492-13.22 6.474-13.64 13.786-.488 8.51 6.263 15.46 14.66 15.46a14.53 14.53 0 0 0 11.05-5.028l-.32 1.784v1.611c0 .83.56 1.6 1.38 1.748a1.69 1.69 0 0 0 1.848-.945 1.66 1.66 0 0 0 .161-.72v-9.648z" clip-rule="evenodd"/></g><defs><clipPath id="a"><path fill="#fff" d="M0 0h50v50H0z"/></clipPath></defs></svg>