<svg xmlns="http://www.w3.org/2000/svg" width="66.667" height="64" fill="none" viewBox="0 0 50 48"><g clip-path="url(#a)"><path fill="#251d63" fill-rule="evenodd" d="M30.571 3.532 10.628 38.12c-1.324 2.281-.515 5.446 1.84 6.77 2.281 1.325 5.446.516 6.77-1.84l9.935-17.22L39.181 8.536c1.325-2.28.516-5.445-1.84-6.77-2.28-1.325-5.445-.515-6.77 1.766m-19.943 0c1.325-2.281 4.49-3.09 6.77-1.766 2.282 1.325 3.165 4.49 1.84 6.77L9.23 25.83c-1.325 2.282-4.489 3.165-6.77 1.84C.178 26.272-.705 23.181.62 20.826zM40.58 20.826c1.324-2.281 4.489-3.164 6.77-1.84s3.164 4.49 1.84 6.77L39.18 43.125c-1.324 2.282-4.488 3.164-6.77 1.84s-3.164-4.49-1.84-6.77z" clip-rule="evenodd"/></g><defs><clipPath id="a"><path fill="#fff" d="M0 0h50v47.727H0z"/></clipPath></defs></svg>