<svg xmlns="http://www.w3.org/2000/svg" width="304.762" height="64" fill="none" viewBox="0 0 100 21"><g clip-path="url(#a)"><path fill="#251d63" fill-rule="evenodd" d="M60.419 4.43v15.542h3.03v-5.207l.156.13a5.8 5.8 0 0 0 3.6 1.217 5.93 5.93 0 0 0 5.933-5.932 5.93 5.93 0 0 0-5.932-5.932 5.87 5.87 0 0 0-3.601 1.218l-.155.13V4.43zm2.927 5.75a3.295 3.295 0 0 1 3.29-3.29 3.295 3.295 0 0 1 3.29 3.29 3.294 3.294 0 0 1-3.29 3.29 3.294 3.294 0 0 1-3.29-3.29m-8.16 5.75h3.031V4.43h-3.03v1.165l-.156-.13a5.8 5.8 0 0 0-3.6-1.217 5.93 5.93 0 0 0-5.933 5.932 5.93 5.93 0 0 0 5.932 5.932 5.87 5.87 0 0 0 3.6-1.217l.156-.13v1.166Zm-3.16-9.04a3.294 3.294 0 0 1 3.29 3.29 3.294 3.294 0 0 1-3.29 3.29 3.294 3.294 0 0 1-3.29-3.29 3.294 3.294 0 0 1 3.29-3.29M10.761 1.243l-7.02 12.175c-.466.803-.181 1.917.648 2.383.803.467 1.917.182 2.383-.647l3.497-6.062 3.523-6.087c.466-.803.181-1.917-.648-2.383-.803-.467-1.917-.182-2.383.621m-7.02 0C4.207.44 5.321.155 6.124.622c.803.466 1.114 1.58.648 2.383L3.249 9.092c-.466.803-1.58 1.114-2.383.648C.063 9.248-.248 8.16.218 7.33zm10.543 6.088c.466-.803 1.58-1.114 2.383-.648s1.114 1.58.648 2.383l-3.523 6.114c-.466.803-1.58 1.114-2.383.647-.803-.466-1.114-1.58-.648-2.383zm14.506.052v3.108h3.912l-.052.13c-.155.44-.44.854-.777 1.165-.674.674-1.606 1.062-2.565 1.166-.207.026-.414.026-.621.026a4.78 4.78 0 0 1-3.394-1.399 4.74 4.74 0 0 1-1.399-3.393c0-1.296.493-2.487 1.4-3.394a4.74 4.74 0 0 1 3.393-1.399c.621 0 1.243.13 1.839.363.57.233 1.114.596 1.554 1.036l2.202-2.202A7.8 7.8 0 0 0 31.717.88a8 8 0 0 0-3.005-.595 7.86 7.86 0 0 0-5.569 2.305 7.86 7.86 0 0 0-2.305 5.57 7.86 7.86 0 0 0 2.305 5.569 7.86 7.86 0 0 0 5.57 2.306c.336 0 .673-.026 1.01-.052 1.606-.208 3.16-.881 4.352-2.02 1.217-1.192 1.916-2.747 1.916-4.456V8.73c0-.778-.621-1.4-1.398-1.4H28.79zm8.911-2.953v11.5h3.186v-5.439c0-.078 0-.181.026-.259v-.104a3.007 3.007 0 0 1 3.005-3.004h.855v-2.85c-.13-.026-.285-.026-.415-.026a4.28 4.28 0 0 0-3.419 1.684l-.181.233V4.404H37.7zM74.718 0v15.93h3.186V9.378a2.69 2.69 0 0 1 2.694-2.694 2.69 2.69 0 0 1 2.694 2.694v6.528h3.186v-6.89a4.81 4.81 0 0 0-4.818-4.819c-1.347 0-2.642.57-3.549 1.555l-.181.181V0zm12.2 4.43 5.026 11.682-.052.156c-.182.414-.44.88-.803 1.165-.337.26-.777.363-1.191.363-.363 0-.7-.078-1.036-.207a2.9 2.9 0 0 1-.83-.466l-1.14 2.227c.39.337.882.544 1.374.7.57.181 1.165.285 1.761.285 1.01 0 1.969-.234 2.798-.803.932-.648 1.554-1.762 1.942-2.798L100 4.455h-3.03l-3.394 7.979-3.368-7.979h-3.29z" clip-rule="evenodd"/></g><defs><clipPath id="a"><path fill="#fff" d="M0 0h100v20.8H0z"/></clipPath></defs></svg>