<svg xmlns="http://www.w3.org/2000/svg" width="30.72" height="64" fill="none" viewBox="0 0 24 50"><path fill="#008561" d="M19.738 15.701c0 2.287-.966 4.309-2.55 5.89-1.758 1.759-4.308 2.2-4.308 3.694 0 2.021 3.253 1.407 6.375 4.528 2.067 2.067 3.34 4.792 3.34 7.957 0 6.241-5.012 11.21-11.297 11.21C5.012 48.978 0 44.017 0 37.772c0-3.166 1.275-5.89 3.342-7.957 3.12-3.12 6.373-2.505 6.373-4.527 0-1.495-2.55-1.935-4.308-3.693-1.584-1.583-2.55-3.605-2.55-5.978 0-4.572 3.736-8.265 8.308-8.265.88 0 1.672.133 2.33.133 1.188 0 1.803-.528 1.803-1.363 0-.484-.22-1.1-.22-1.759 0-1.495 1.275-2.726 2.814-2.726 1.538 0 2.77 1.275 2.77 2.813 0 1.627-1.275 2.375-2.242 2.727-.792.263-1.408.615-1.408 1.406 0 1.49 2.726 2.942 2.726 7.118Zm-.88 22.072c0-4.35-3.208-7.868-7.56-7.868-4.353 0-7.561 3.517-7.561 7.868 0 4.308 3.208 7.87 7.561 7.87 4.35 0 7.56-3.566 7.56-7.87Zm-2.591-22.16c0-2.768-2.242-5.055-4.967-5.055-2.727 0-4.967 2.287-4.967 5.055 0 2.77 2.24 5.057 4.967 5.057 2.725 0 4.967-2.287 4.967-5.057Z"/></svg>