<svg xmlns="http://www.w3.org/2000/svg" width="66.56" height="64" fill="none" viewBox="0 0 52 50"><g clip-path="url(#a)"><path fill="#000" d="M30.468 49.51C42.36 49.51 52 40.205 52 28.726 52 17.246 42.36 7.94 30.47 7.94c-11.892 0-21.532 9.306-21.532 20.785s9.64 20.784 21.531 20.784Z"/><path fill="#FF90E8" stroke="#000" stroke-width="1.563" d="M24.913 45.154c12.507 0 22.718-9.797 22.718-21.971S37.42 1.211 24.913 1.211 2.195 11.009 2.195 23.183s10.212 21.971 22.718 21.971Z"/><path fill="#000" d="M23.207 34.268c-6.358 0-10.098-5.137-10.098-11.527 0-6.641 4.114-12.029 11.968-12.029 8.103 0 10.846 5.513 10.97 8.646h-5.859c-.124-1.755-1.62-4.386-5.236-4.386-3.864 0-6.357 3.383-6.357 7.518s2.493 7.518 6.357 7.518c3.491 0 4.987-2.757 5.61-5.513h-5.61v-2.256h11.772v11.527H31.56V26.5c-.374 2.632-1.995 7.769-8.353 7.769Z"/></g><defs><clipPath id="a"><path fill="#fff" d="M0 0h52v50H0z"/></clipPath></defs></svg>