<svg xmlns="http://www.w3.org/2000/svg" width="457.143" height="64" fill="none" viewBox="0 0 100 14"><g fill="#000" clip-path="url(#a)"><path d="M59.44 0c-2.065 0-4.085 1.871-4.317 4.574V.224h-2.967v13.119h3.003v-6.35c0-1.78 1.261-4.289 4.282-4.289V0Zm31.501 11.242V2.255h1.74c2.32 0 4.204 1.45 4.204 4.422S95 11.243 92.681 11.243zm-2.972 2.103h5.074c3.117 0 6.959-2.03 6.959-6.67 0-4.566-3.842-6.45-6.959-6.45H87.97v13.12ZM76.591 6.82c0-2.391 1.233-4.348 3.262-4.348 1.958 0 3.045 1.957 3.045 4.349s-1.087 4.35-3.045 4.35c-2.03 0-3.262-1.958-3.262-4.35Zm-3.044.146c0 3.914 2.03 6.669 5.219 6.669 2.32 0 3.697-1.522 4.422-3.987v3.697h2.971V.225h-2.971v3.479c-.653-2.32-2.03-3.697-4.204-3.697-3.263 0-5.437 2.972-5.437 6.959M5.872 13.635C2.175 13.635 0 10.663 0 6.965 0 3.125 2.392.008 6.959.008c4.712 0 6.306 3.19 6.379 5.002H9.93c-.073-1.015-.942-2.537-3.045-2.537-2.247 0-3.697 1.957-3.697 4.349s1.45 4.35 3.697 4.35c2.03 0 2.9-1.596 3.262-3.19H6.886V6.676h6.845v6.669h-3.003V9.14c-.217 1.523-1.16 4.495-4.856 4.495m13.945 0c-2.827 0-4.567-1.885-4.567-5.655V.224h3.044V7.98c0 1.958.943 2.9 2.538 2.9 3.117 0 4.276-3.842 4.276-6.524V.224h3.045v13.12h-2.972V8.489c-.58 2.682-2.175 5.147-5.364 5.147ZM46.35 0c-2.597 0-4.236 2.51-4.77 4.83C41.487 1.72 39.958 0 37.512 0c-2.114 0-4.075 1.885-4.584 4.867V.223H29.96v13.121h3.006V8.64c0-1.166.486-5.951 3.512-5.951 1.96 0 2.165 1.768 2.165 4.185v6.47h3.004V8.64c0-1.166.506-5.951 3.532-5.951 1.96 0 2.161 1.768 2.161 4.185v6.47h3.009v-7.76C50.364 1.86 49.05 0 46.35 0m19.538 0c-3.892 0-6.529 3.051-6.529 6.817 0 4.15 2.508 6.818 6.529 6.818 3.89 0 6.575-3.051 6.575-6.818 0-4.15-2.557-6.817-6.575-6.817m0 11.312c-2.266 0-3.733-1.918-3.733-4.495s1.472-4.495 3.733-4.495c2.26 0 3.673 1.918 3.673 4.495s-1.415 4.495-3.673 4.495"/></g><defs><clipPath id="a"><path fill="#fff" d="M0 0h100v13.636H0z"/></clipPath></defs></svg>