<svg xmlns="http://www.w3.org/2000/svg" width="64" height="64" fill="none" viewBox="0 0 50 50"><g clip-path="url(#a)"><path fill="url(#b)" d="M11.364 5.682A5.682 5.682 0 1 0 0 5.682v9.09a5.682 5.682 0 1 0 11.364 0z"/><path fill="url(#c)" d="M11.364 27.273a5.682 5.682 0 1 0-11.364 0v4.545a5.682 5.682 0 0 0 11.364 0z"/><path fill="url(#d)" d="M11.364 44.318a5.682 5.682 0 1 0-11.364 0 5.682 5.682 0 0 0 11.364 0"/><path fill="url(#e)" d="M49.996 5.682a5.682 5.682 0 1 0-11.363 0V25a5.682 5.682 0 0 0 11.363 0z"/><path fill="url(#f)" d="M49.996 37.5a5.682 5.682 0 1 0-11.363 0v6.818a5.682 5.682 0 0 0 11.363 0z"/><path fill="url(#g)" d="M30.678 20.454H19.315a5.682 5.682 0 0 0 0 11.364h11.363a5.682 5.682 0 0 0 0-11.364"/></g><defs><linearGradient id="b" x1="5.682" x2="5.682" y1="0" y2="20.454" gradientUnits="userSpaceOnUse"><stop stop-color="#32e7f9"/><stop offset="1" stop-color="#17caf0"/></linearGradient><linearGradient id="c" x1="0" x2="11.364" y1="29.545" y2="29.545" gradientUnits="userSpaceOnUse"><stop stop-color="#ffc505"/><stop offset="1" stop-color="#ffb801"/></linearGradient><linearGradient id="d" x1="0" x2="11.364" y1="44.318" y2="44.318" gradientUnits="userSpaceOnUse"><stop stop-color="#ff4772"/><stop offset=".978" stop-color="#f42"/></linearGradient><linearGradient id="e" x1="38.633" x2="49.996" y1="15.341" y2="15.341" gradientUnits="userSpaceOnUse"><stop stop-color="#9d02f9"/><stop offset="1" stop-color="#6301f0"/></linearGradient><linearGradient id="f" x1="44.315" x2="44.315" y1="31.818" y2="49.667" gradientUnits="userSpaceOnUse"><stop stop-color="#3b29f6"/><stop offset="1" stop-color="#6302f0"/></linearGradient><linearGradient id="g" x1="13.633" x2="36.36" y1="26.136" y2="26.136" gradientUnits="userSpaceOnUse"><stop stop-color="#d793ff"/><stop offset="1" stop-color="#ae5aff"/></linearGradient><clipPath id="a"><path fill="#fff" d="M0 0h50v50H0z"/></clipPath></defs></svg>