<svg xmlns="http://www.w3.org/2000/svg" width="164.103" height="64" fill="none" viewBox="0 0 100 39"><g clip-path="url(#a)"><path fill="#000" d="M5.236 8.414H.813V30.09h4.423zM14.822.156h-4.424V16.67h4.424z"/><path fill="#31d891" d="M14.822 21.834h-4.424v16.513h4.424zm9.586-13.42h-4.424V30.09h4.424z"/><path fill="#000" d="M49.383 30.075V20.45h-11.06v9.625h-2.995V8.41h2.995v9.26h11.06V8.41h2.997v21.665zm19.133-4.187c-.824 2.597-3.178 4.644-6.598 4.644-3.94 0-7.395-2.872-7.395-7.852 0-4.615 3.33-7.763 7.028-7.763 4.523 0 7.06 3.117 7.06 7.702q0 .46-.062.916H57.484c.06 2.628 1.956 4.465 4.43 4.465 2.383 0 3.575-1.314 4.125-2.965zm-2.905-4.675c-.06-2.109-1.435-3.758-4.032-3.758-2.413 0-3.88 1.863-4.004 3.758zm8.882.459 3.972-.58c.887-.123 1.131-.581 1.131-1.1 0-1.435-.947-2.627-3.177-2.627-2.017 0-3.148 1.253-3.332 2.964l-2.75-.642c.306-2.811 2.842-4.765 6.02-4.765 4.4 0 6.112 2.506 6.112 5.378v7.361c-.01.808.051 1.616.182 2.414h-2.81a11 11 0 0 1-.153-1.987c-.642 1.04-2.109 2.445-4.736 2.445-2.995 0-4.92-2.078-4.92-4.399 0-2.629 1.925-4.096 4.461-4.462m5.103 2.108v-.671l-4.492.671c-1.222.184-2.139.886-2.139 2.2 0 1.1.917 2.138 2.384 2.138 2.352.002 4.247-1.13 4.247-4.338m5.584 12.102V15.377h2.78v2.293c.795-1.467 2.537-2.629 4.92-2.629 4.4 0 6.754 3.392 6.754 7.67 0 4.37-2.537 7.762-6.845 7.762-2.262 0-3.972-1.07-4.765-2.384v7.793zm7.18-18.304c-2.627 0-4.369 2.2-4.369 5.132 0 3.025 1.742 5.195 4.37 5.195 2.659 0 4.339-2.17 4.339-5.195 0-2.933-1.65-5.132-4.34-5.132"/></g><defs><clipPath id="a"><path fill="#fff" d="M0 0h100v38.824H0z"/></clipPath></defs></svg>