<svg xmlns="http://www.w3.org/2000/svg" width="426.667" height="64" fill="none" viewBox="0 0 100 15"><g clip-path="url(#a)"><path fill="#00b3e6" fill-rule="evenodd" d="M2.487 14.634V12.21h10.909v2.424zm8.592-12.12H4.803L7.94 6.856l3.138-4.344ZM15.82.088l-7.879 10.91L.063.088z" clip-rule="evenodd"/><path fill="#000" d="M25.434 12.211v-3.89h-3.731v3.89h-2.25V2.514h2.25V6.31h3.73V2.512h2.25v9.697zm5.089 0V2.514h6.145v2.062h-3.895v1.733h3.546v1.959h-3.546v1.892h3.895v2.051zm8.821 0V2.514h2.248v7.648h3.891v2.051l-6.14-.002Zm8.031 0V2.514h2.252v7.648h3.89v2.051zm12.485.159c-3.004 0-4.922-2.157-4.922-5.002 0-2.846 2.01-5.016 5.015-5.016s4.922 2.158 4.922 5.016-2.024 5.002-5.015 5.002m.037-8.005c-1.534 0-2.567 1.256-2.567 3.003 0 1.746 1.033 3.004 2.567 3.004s2.568-1.271 2.568-3.004-1.03-3.003-2.568-3.003m9.839 8.005c-1.098 0-2.424-.437-3.267-.993l.621-2.038c.78.569 1.8.94 2.713.94.794 0 1.098-.371 1.098-.847 0-.505-.251-.847-1.733-1.442-1.707-.688-2.3-1.681-2.3-2.846 0-1.414 1.15-2.792 3.413-2.792 1.058 0 2.144.371 2.713.755l-.57 2.011c-.557-.384-1.456-.794-2.145-.794-.82 0-1.15.384-1.15.781 0 .635.488.847 1.706 1.363 1.813.767 2.355 1.641 2.355 2.884 0 1.549-1.124 3.018-3.454 3.018m5.866-.159V2.514h2.25v9.697zM89.07 6.76v4.63a7 7 0 0 1-3.68.98c-2.844 0-5.093-2.038-5.093-5.002s2.276-5.016 5.213-5.016c1.27 0 2.289.332 3.255.835l-.94 1.812a4.7 4.7 0 0 0-2.166-.542c-1.932 0-2.963 1.204-2.963 2.91 0 1.853 1.243 3.005 2.828 3.005.714 0 1.072-.08 1.43-.265v-1.43h-1.947V6.76zm10.676 5.636-5.848-5.253v5.068h-2.25V2.38l.303-.054 5.77 5.213V2.512h2.25v9.845z"/></g><defs><clipPath id="a"><path fill="#fff" d="M0 0h100v14.646H0z"/></clipPath></defs></svg>