<svg xmlns="http://www.w3.org/2000/svg" width="320" height="64" fill="none" viewBox="0 0 100 20"><g clip-path="url(#a)"><path fill="#2A3B47" d="m27.473 3.744-.034.016v5.308h-5.041V3.76l-.034-.016a5.6 5.6 0 0 0-2.23 0l-.032.016v12.213l.033.017c.366.067.732.117 1.098.117a5.2 5.2 0 0 0 1.115-.117l.033-.017v-4.958h5.042v4.958l.033.017c.732.15 1.48.15 2.23 0l.033-.017V3.76l-.033-.016a5.5 5.5 0 0 0-2.213 0m7.803 3.427c-2.645 0-4.21 1.664-4.21 4.46 0 1.447.333 2.595.999 3.394.732.865 1.814 1.314 3.245 1.314 2.429 0 3.677-1.447 3.843-2.895v-.033l-.033-.017a3.9 3.9 0 0 0-1.864-.15h-.016v.017c-.15.849-.849 1.365-1.897 1.365-1.448 0-2.163-.799-2.18-2.43h6.123v-.033c.183-1.614-.15-2.928-.931-3.81-.716-.766-1.78-1.182-3.079-1.182m-.016 1.581c.599 0 1.114.183 1.464.566s.532.948.499 1.63h-4.06c.033-1.397.799-2.196 2.097-2.196m5.507-5.008-.033.016v12.213l.033.017c.35.067.682.117 1.048.117a4.5 4.5 0 0 0 1.049-.117l.033-.017V3.76l-.033-.016c-.683-.167-1.398-.15-2.097 0M48.92 7.17c-.915 0-1.88.35-2.795 1.032l-.133-.649-.017-.017a2.44 2.44 0 0 0-1.464 0l-.017.017v12.163l.034.017c.349.066.682.116 1.048.116s.699-.033 1.048-.116l.033-.017v-4.06a4.25 4.25 0 0 0 2.363.682c2.396 0 3.844-1.697 3.844-4.559-.034-2.911-1.448-4.609-3.944-4.609m-2.313 2.413c.65-.433 1.232-.649 1.88-.649 1.465 0 2.264 1.015 2.264 2.862 0 1.814-.783 2.779-2.28 2.779-.649 0-1.248-.2-1.847-.633zM62.015 9.4c-.366-.15-.699-.266-1.015-.366-1.664-.6-2.662-.948-2.679-1.847a1.4 1.4 0 0 1 .4-1.065c.416-.432 1.114-.649 1.98-.649.848 0 1.497.233 1.896.65.333.349.483.848.433 1.447v.033l.033.017c.732.15 1.448.133 2.23-.05l.033-.017V7.52c.05-1.015-.266-1.914-.898-2.58-.782-.831-2.047-1.264-3.644-1.28h-.05c-2.962 0-4.742 1.314-4.759 3.527-.017 2.196 2.013 2.929 3.228 3.361l.183.067c.4.15.782.266 1.115.399 1.647.566 2.629.915 2.662 1.78q.026.675-.4 1.098c-.398.4-1.08.6-1.996.6-1.015 0-1.78-.267-2.23-.733-.316-.349-.449-.815-.399-1.347v-.034l-.033-.016a5.3 5.3 0 0 0-2.23.033l-.016.017v.033c-.067.982.233 1.864.881 2.546.85.915 2.263 1.397 4.06 1.38 1.764 0 4.676-.482 4.71-3.56-.034-2.096-1.798-2.762-3.495-3.411m8.802-.45c1.464 0 1.814.95 1.88 1.515v.033h.034c.682.1 1.314.067 1.93-.116l.033-.017v-.033c-.067-.849-.433-1.63-1.032-2.18-.682-.632-1.68-.982-2.845-.982-2.779 0-4.31 1.631-4.31 4.593 0 2.945 1.515 4.575 4.277 4.575 1.181 0 2.18-.349 2.895-.998a3.3 3.3 0 0 0 1.015-2.08v-.033l-.033-.017c-.583-.2-1.232-.233-1.93-.116h-.017v.016c-.183 1.332-1.481 1.431-1.88 1.431-1.498 0-2.197-.898-2.197-2.812-.016-1.896.683-2.778 2.18-2.778Zm9.151-1.78c-2.728 0-4.243 1.631-4.243 4.593 0 2.945 1.515 4.575 4.243 4.575 2.73 0 4.243-1.63 4.243-4.575 0-2.962-1.514-4.593-4.243-4.593m2.18 4.61c0 1.896-.715 2.811-2.18 2.811-1.464 0-2.18-.915-2.18-2.812 0-1.93.683-2.828 2.18-2.828 1.465 0 2.18.915 2.18 2.828Zm8.902-4.21-.033.016v6.074c-.682.599-1.315.848-2.047.848-1.015 0-1.464-.582-1.464-1.963V7.554l-.033-.017a4.5 4.5 0 0 0-2.097 0l-.033.017v5.474c0 2.08 1.115 3.278 3.078 3.278 1.048 0 1.963-.4 2.945-1.314l.2.948.016.017a2.9 2.9 0 0 0 1.515 0l.033-.017V7.537l-.033-.016a4.5 4.5 0 0 0-2.047.05Zm8.702 6.772-.016-.034-.034.017c-.832.183-1.314.183-1.597-.05-.233-.183-.35-.516-.35-1.048V9.334h1.681l.017-.033a4.3 4.3 0 0 0 0-1.73l-.017-.034h-1.68V5.225l-.034-.017a4.9 4.9 0 0 0-2.08 0l-.033.017.017 2.312H94.56l-.017.034a3.8 3.8 0 0 0 0 1.73l.017.033h1.065l.016 3.744c0 1.049.067 2.097.782 2.712.4.317.965.483 1.697.483.45 0 .982-.067 1.581-.183h.017l.017-.017a3.4 3.4 0 0 0 .016-1.73Z"/><path fill="#1087D8" d="m1.198 11.547 5.774-5.773a4.05 4.05 0 0 0 1.214-2.895A4.08 4.08 0 0 0 7.005 0L1.231 5.774A4.05 4.05 0 0 0 .017 8.669c0 1.131.449 2.146 1.181 2.878M15.175 8.17 9.4 13.943a4.05 4.05 0 0 0-1.215 2.896c0 1.114.45 2.146 1.182 2.878l5.773-5.774a4.05 4.05 0 0 0 1.215-2.895 4.05 4.05 0 0 0-1.181-2.878Zm-.034-2.38a4.05 4.05 0 0 0 1.215-2.895c0-1.115-.45-2.146-1.181-2.878L1.215 13.96A4.1 4.1 0 0 0 0 16.872c0 1.115.45 2.146 1.181 2.878z"/></g><defs><clipPath id="a"><path fill="#fff" d="M0 0h100v19.967H0z"/></clipPath></defs></svg>