<svg xmlns="http://www.w3.org/2000/svg" width="53.333" height="64" fill="none" viewBox="0 0 50 60"><g clip-path="url(#a)"><path fill="#1087D8" d="m4.053 35.15 17.35-17.35c2.25-2.2 3.65-5.3 3.65-8.7 0-3.35-1.35-6.45-3.55-8.65L4.153 17.8c-2.25 2.2-3.65 5.3-3.65 8.7s1.35 6.45 3.55 8.65m42-10.15-17.35 17.35c-2.25 2.2-3.65 5.3-3.65 8.7 0 3.35 1.35 6.45 3.55 8.65l17.35-17.35c2.25-2.2 3.65-5.3 3.65-8.7s-1.35-6.45-3.55-8.65m-.1-7.15c2.25-2.2 3.65-5.3 3.65-8.7 0-3.35-1.35-6.45-3.55-8.65L4.103 42.4c-2.25 2.25-3.65 5.3-3.65 8.75 0 3.35 1.35 6.45 3.55 8.65z"/></g><defs><clipPath id="a"><path fill="#fff" d="M0 0h50v60H0z"/></clipPath></defs></svg>