<svg xmlns="http://www.w3.org/2000/svg" width="57.143" height="64" fill="none" viewBox="0 0 50 56"><g clip-path="url(#a)"><path fill="#430098" d="M44.861 0H5a4.98 4.98 0 0 0-5 5v45.556c0 2.777 2.222 5 5 5h39.861c2.778 0 5-2.223 5-5V5c0-2.778-2.222-5-5-5Zm2.222 50.556c0 1.25-.972 2.222-2.222 2.222H5a2.194 2.194 0 0 1-2.222-2.222V5c0-1.25.972-2.222 2.222-2.222h39.861c1.25 0 2.222.972 2.222 2.222v45.556ZM12.5 47.222l6.25-5.555-6.25-5.556v11.111Zm22.5-22.5c-1.111-1.11-3.194-2.5-6.667-2.5-3.75 0-7.639.972-10.416 1.945V8.333H12.36v24.028l3.889-1.805s6.389-2.917 11.944-2.917c2.778 0 3.473 1.528 3.473 2.917v16.666h5.555V30.556c.14-.417.14-3.473-2.222-5.834Zm-7.361-7.36h5.555c2.5-2.918 3.75-5.834 4.167-9.029h-5.555c-.556 3.195-1.945 6.111-4.167 9.028Z"/></g><defs><clipPath id="a"><path fill="#fff" d="M0 0h50v55.556H0z"/></clipPath></defs></svg>