<svg xmlns="http://www.w3.org/2000/svg" width="81.455" height="64" fill="none" viewBox="0 0 56 44"><g fill="#c23c40" fill-rule="evenodd" clip-path="url(#a)" clip-rule="evenodd"><path d="m7.255 38.335.818.086c.388.043.388.345.388.56v.991H4.67v-.99c0-.216.043-.518.43-.561l.819-.086v-.819H1.008v.819l.818.086c.345.043.388.345.388.56v3.188c0 .216-.043.518-.388.56l-.818.087v.819h4.911v-.819l-.818-.086c-.388-.043-.431-.344-.431-.56v-.948h3.791v.947c0 .216 0 .518-.387.56l-.819.087v.819h4.911v-.819l-.818-.086c-.345-.043-.388-.344-.388-.56v-3.19c0-.215.043-.517.388-.56l.818-.086v-.819H7.255zm32.873-.819h-6.075v.819l.733.086c.258.043.43.13.43.517v3.231c0 .216-.042.518-.43.56l-.82.087v.818h6.162c2.197 0 4.007-.86 4.007-3.059 0-2.197-1.81-3.059-4.007-3.059m-.43 4.955H37.63V38.68h2.068c1.206 0 1.594.56 1.594 1.895 0 1.336-.388 1.896-1.594 1.896"/><path d="M54.519 42.73c-.388-.044-.518-.302-.646-.475l-2.844-4.351c-.215-.302-.345-.388-.646-.388H45.73v.819l1.077.13c.172 0 .387.215.215.516l-2.11 3.404c-.087.13-.173.302-.432.345l-.819.086v.818h3.921v-.818l-.646-.043c-.302-.043-.474-.259-.302-.474l.302-.518h3.792l.258.432c.258.344-.043.517-.345.517l-.689.086v.818h5.342v-.818zm-6.937-2.069 1.163-1.852 1.25 1.852zm-17.966-2.326.862.086c.344.043.387.345.387.56v3.06l-3.231-4.266c-.172-.216-.302-.258-.646-.258h-4.223v.818l.819.086c.388.044.43.345.43.56v3.189c0 .216-.042.517-.43.56l-.819.087v.818h3.92v-.818l-.818-.087c-.344-.043-.388-.344-.388-.56v-3.06l3.232 4.267c.173.215.301.258.646.258h2.973v-4.653c0-.215.043-.517.43-.56l.82-.087v-.819h-3.965zM17.466 37.3c-4.007 0-5.04 1.766-5.04 3.274 0 1.551 1.033 3.275 5.04 3.275s5.041-1.724 5.041-3.275c0-1.508-1.034-3.274-5.041-3.274m0 5.385c-1.551 0-2.197-.646-2.197-2.11 0-1.466.646-2.112 2.197-2.112s2.197.646 2.197 2.111-.646 2.111-2.197 2.111m-2.154-6.333-2.973-2.758 14.993-1.723 7.239 4.48zM40.559 24.59 9.021 30.494l2.714 2.54 14.563-1.808c-.258-.13-.301-.26-.301-.431 0-.173.129-.345.387-.388.13 0 8.057-1.163 8.617-1.25a5.8 5.8 0 0 0 1.594-.517c.69-.301 1.12-.646 1.379-.905.215-.172.818-.819 1.25-1.293q.366-.368.689-.775c.173-.215.56-.69.732-.905.044-.085 0-.172-.086-.172m4.955-6.893L6.092 27.822l2.37 2.198 12.15-2.327c-.216-.13-.345-.215-.345-.43a.4.4 0 0 1 .344-.389l19.733-3.834c.258-.043.948-.173 1.594-.604.646-.387.991-.818 1.207-1.034.258-.301.732-.905 1.077-1.335.258-.345.474-.69.646-.948s.56-.948.775-1.25c.044-.086-.043-.215-.129-.172"/><path d="M40.301 6.237c.517-.216 3.145-1.336 3.705-1.638.603-.258 2.327-1.034 2.973-1.335.732-.302 2.8-1.293 3.102-1.422C51.546 1.152 53.356.29 53.7.076c.086-.044.258.043.215.172a30 30 0 0 1-1.077 2.93c-.258.603-.646 1.465-.99 2.025-.431.69-.862 1.163-1.207 1.465-.732.69-1.336 1.034-1.982 1.293-.388.129-1.206.473-1.766.689-.13.043-2.327.861-2.801.99L5.23 23.385c-.905.302-1.939.905-1.939 2.068 0 .518.302 1.207.905 1.767l9.823 9.134H9.452c-.086-.258-.215-.646-.388-.905-.172-.259-.258-.517-.775-.99-.388-.432-.776-.82-.905-.949l-5.17-5.17c-.991-.947-1.508-2.197-1.508-3.317 0-1.551.861-3.059 3.446-4.093z"/><path d="M44.566 11.45c.517-.172 1.508-.517 1.766-.603.259-.086 1.293-.474 1.465-.517.69-.302 1.379-.56 2.111-.862.086-.043.216.043.172.173a21 21 0 0 1-.689 1.378 19 19 0 0 1-.905 1.637c-.301.474-.689 1.12-.947 1.422-.431.517-.82.862-1.422 1.293-.776.517-1.465.69-1.767.819L15.7 23.858c-.216.043-.302.302-.302.388 0 .173.13.344.302.43l-10.168 2.63-.819-.776a1.3 1.3 0 0 1-.43-.947c0-.733.56-1.077 1.464-1.379z"/></g><defs><clipPath id="a"><path fill="#fff" d="M0 0h56v44H0z"/></clipPath></defs></svg>