<svg xmlns="http://www.w3.org/2000/svg" width="81.92" height="64" fill="none" viewBox="0 0 64 50"><g clip-path="url(#a)"><path fill="#000" fill-rule="evenodd" d="m29.804 36.081-15.636 1.681 3.087 3.012H39.39l-8.207-4.844zm0-12.474 21.534-5.747s3.138-.226 6.25-7.279l-27.784 9.111-21.61 7.052s-1.857.602-2.585 1.105c0 0-.502.301-.502 1.003 0 0 .05.527.427.904l.929.929 11.796-3.062s-.728-.954.727-1.155zm0 11.244c.025.25.226.477.226.477l-.226.025-16.389 1.857-3.112-2.91 19.5-3.49 16.665-2.961c-2.735 5.371-8.257 5.371-8.257 5.371l-6.876.878c-1.155.026-1.48.326-1.531.628zm0-9.286 22.714-5.748c-2.685 6.074-8.081 6.275-8.081 6.275l-14.633 2.961-4.794.979c-2.309.05-1.305 1.23-1.305 1.23l-13.98 2.385-2.61-2.31zm0-12.273L61.554.316s-1.08 3.188-1.758 4.819c0 0-.828 2.585-4.14 3.614l-25.852 9.136-22.413 7.88S4.505 26.796 4.028 28c0 0-.677 1.38 1.155 2.936L16 40.775H11.76l-8.71-8.534s-1.957-1.606-2.108-3.89v-.477c.026-.15.026-.3.076-.477 0 0 .376-2.51 4.14-4.04zM6.714 42.38H1.092v1.38h1.28v4.191h-1.28v1.431h5.622v-1.43h-1.38v-1.33h4.14v1.33H8.12v1.43h5.547v-1.43h-1.33V43.76h1.33v-1.38H8.094v1.38h1.38v1.38h-4.14v-1.38h1.38zm49.368 3.237h1.079l-1.079-1.631-.126-.15-.978 1.781zm0-3.237h2.233l3.364 5.571h1.38v1.431H57.01v-1.43h1.355l-.577-.829h-3.664l-.452.828h1.33v1.431h-4.667v-1.43h1.43l2.309-4.192h-1.556v-1.38zm-10.767 5.496c1.33-.15 2.108-.653 2.108-1.958 0-1.505-.878-1.982-2.108-2.108-.226-.025-.452-.025-.703-.025h-1.405v4.141h1.13c.35 0 .676-.025.978-.05m0-5.496h.903c2.31 0 4.041 1.079 4.041 3.538 0 2.836-1.631 3.414-4.944 3.464h-6.3v-1.43h1.355V43.76h-1.355v-1.38zm-25.75 5.822c1.304-.025 2.333-1.053 2.333-2.309a2.314 2.314 0 0 0-2.334-2.334h-.025a2.287 2.287 0 0 0-2.31 2.31c0 1.229.98 2.333 2.285 2.333zm0-6.174h.074c3.288 0 5.447 1.23 5.447 3.765 0 2.334-1.983 3.89-5.522 3.89h-.1c-3.439 0-5.497-1.33-5.497-3.84 0-2.41 2.033-3.815 5.597-3.815m11.52.352h-5.547v1.38h1.33v4.191h-1.33v1.431h4.417v-1.43h-1.38v-3.59l3.89 5.02h4.291V43.76h1.405v-1.38h-4.568v1.38h1.431v3.689z" clip-rule="evenodd"/></g><defs><clipPath id="a"><path fill="#fff" d="M0 0h64v50H0z"/></clipPath></defs></svg>