<svg xmlns="http://www.w3.org/2000/svg" width="220.69" height="64" fill="none" viewBox="0 0 100 29"><g clip-path="url(#a)"><path fill="#2C3242" d="M81.333 4.857c1.303 0 2.313-1.032 2.313-2.328 0-1.27-1.01-2.302-2.313-2.302-1.277 0-2.34 1.032-2.34 2.302-.027 1.296 1.063 2.328 2.34 2.328ZM61.39 6.471h3.484v2.117c.878-1.27 2.819-2.434 5.106-2.434 4.334 0 7.632 3.677 7.632 8.202 0 4.498-3.298 8.202-7.632 8.202-2.287 0-4.202-1.164-5.106-2.434v8.705h-3.483V6.47Zm7.952 2.831c-2.82 0-4.76 2.196-4.76 5.054 0 2.831 1.94 5.054 4.76 5.054 2.792 0 4.733-2.197 4.733-5.054 0-2.831-1.941-5.054-4.733-5.054ZM85.64 6.471h3.484v2.143c.957-1.587 2.766-2.46 4.813-2.46 3.67 0 6.063 2.593 6.063 6.588v9.499h-3.484v-8.917c0-2.487-1.276-3.995-3.297-3.995-2.313 0-4.095 1.799-4.095 5.16v7.752h-3.483V6.47ZM34.851 6.154c-2.047 0-3.855.873-4.813 2.46V.227h-3.483v22.014h3.483v-7.753c0-3.36 1.782-5.16 4.095-5.16 2.021 0 3.298 1.509 3.298 3.996v8.917h3.483v-9.499c-.026-3.995-2.393-6.588-6.063-6.588ZM83.03 6.471h-3.483v15.77h3.483V6.47ZM51.148 22.558c-4.68 0-8.296-3.625-8.296-8.202 0-4.578 3.616-8.202 8.296-8.202s8.297 3.624 8.297 8.202c0 4.577-3.617 8.202-8.297 8.202Zm0-3.228c2.792 0 4.76-2.17 4.76-4.974 0-2.805-1.968-4.974-4.76-4.974-2.818 0-4.786 2.17-4.786 4.974 0 2.804 1.968 4.974 4.786 4.974Z"/><path fill="#175FFF" d="M13.865 4.444c-.027 1.054-.77 2.557-2.017 2.557-.77 0-1.406-.633-1.406-1.397v-.027c-.027-1.238-.584-2.319-1.46-3.083a4.548 4.548 0 0 0-2.388-1.028A4.24 4.24 0 0 1 9.646.2c1.512 0 2.892.87 3.688 2.134.372.633.558 1.397.53 2.109ZM8.929 4.55c.663.843 1.061 2.45.106 3.241-.61.501-1.486.422-1.99-.158A4.281 4.281 0 0 0 3.94 6.21a4.255 4.255 0 0 0-2.495.738 4.186 4.186 0 0 1 1.513-2.926c1.194-.975 2.866-1.265 4.299-.685a3.662 3.662 0 0 1 1.672 1.212ZM5.218 7.765c1.035.211 2.415 1.213 2.202 2.425-.132.764-.875 1.265-1.645 1.133h-.027a4.236 4.236 0 0 0-3.29.896 4.227 4.227 0 0 0-1.433 2.162 4.349 4.349 0 0 1-.743-3.216 4.334 4.334 0 0 1 2.866-3.268 4.257 4.257 0 0 1 2.07-.132ZM4.444 12.615c.929-.501 2.627-.607 3.237.448.398.659.16 1.528-.504 1.924-1.061.632-1.725 1.66-1.964 2.794-.159.843-.08 1.74.319 2.556a4.18 4.18 0 0 1-2.627-1.976 4.272 4.272 0 0 1 .053-4.323c.371-.606.876-1.107 1.486-1.423ZM6.995 16.805c.398-.975 1.619-2.134 2.76-1.713a1.395 1.395 0 0 1 .85 1.793 4.143 4.143 0 0 0 .318 3.373 4.206 4.206 0 0 0 1.884 1.766c-1.008.475-2.176.58-3.29.158a4.27 4.27 0 0 1-2.76-3.347c-.08-.685 0-1.397.238-2.03ZM11.663 18.387c-.345-1.002-.16-2.662 1.008-3.084a1.4 1.4 0 0 1 1.805.843 4.27 4.27 0 0 0 2.441 2.399c.796.316 1.725.369 2.601.158a4.29 4.29 0 0 1-2.415 2.24c-1.46.527-3.131.211-4.272-.817-.531-.5-.956-1.08-1.168-1.74ZM16.28 16.621c-.903-.553-1.859-1.95-1.222-3.005a1.458 1.458 0 0 1 1.938-.527 4.329 4.329 0 0 0 3.423.29 4.355 4.355 0 0 0 2.096-1.555 4.135 4.135 0 0 1-.424 3.242 4.238 4.238 0 0 1-3.795 2.109c-.743 0-1.46-.185-2.017-.554ZM18.67 12.325c-1.06.158-2.68-.317-2.892-1.529-.159-.738.372-1.476 1.141-1.608h.027a4.156 4.156 0 0 0 2.786-1.95 4.09 4.09 0 0 0 .584-2.504c.902.606 1.592 1.581 1.778 2.741.265 1.502-.345 3.084-1.539 4.033-.557.421-1.22.738-1.884.817ZM17.712 7.528c-.716.79-2.255 1.476-3.21.685-.611-.5-.69-1.37-.187-1.977a4.173 4.173 0 0 0 .876-3.294 4.314 4.314 0 0 0-1.168-2.32 4.31 4.31 0 0 1 3.158.976 4.2 4.2 0 0 1 1.433 4.085 3.899 3.899 0 0 1-.902 1.845Z"/></g><defs><clipPath id="a"><path fill="#fff" d="M0 0h100v28.829H0z"/></clipPath></defs></svg>