<svg xmlns="http://www.w3.org/2000/svg" width="65.306" height="64" fill="none" viewBox="0 0 50 49"><path fill="#175FFF" d="M29.6 9.486c-.057 2.25-1.644 5.458-4.306 5.458-1.643 0-3.002-1.35-3.002-2.982v-.056c-.057-2.645-1.246-4.951-3.116-6.583a9.7 9.7 0 0 0-5.098-2.194c1.643-1.688 3.965-2.7 6.515-2.7 3.228 0 6.174 1.856 7.873 4.556A8.46 8.46 0 0 1 29.6 9.486m-10.54.225c1.416 1.8 2.266 5.233.227 6.92a3.047 3.047 0 0 1-4.249-.337c-1.756-1.97-4.191-2.982-6.627-3.038-1.87-.056-3.739.506-5.325 1.575a8.94 8.94 0 0 1 3.229-6.245c2.549-2.082 6.118-2.7 9.176-1.463a7.8 7.8 0 0 1 3.57 2.588Zm-7.93 6.865c2.21.45 5.155 2.588 4.702 5.176-.283 1.631-1.869 2.7-3.512 2.419h-.056a9.04 9.04 0 0 0-7.025 1.913 9.02 9.02 0 0 0-3.059 4.613C.821 28.784.198 26.365.594 23.833a9.25 9.25 0 0 1 6.118-6.976c1.416-.45 3.002-.563 4.419-.281ZM9.49 26.927c1.983-1.068 5.609-1.294 6.912.957.85 1.407.34 3.263-1.077 4.107-2.265 1.35-3.682 3.545-4.191 5.964-.34 1.8-.17 3.713.68 5.457-2.267-.562-4.362-2.025-5.609-4.22a9.12 9.12 0 0 1 .114-9.226c.793-1.294 1.869-2.363 3.172-3.039Zm5.435 8.946c.85-2.081 3.456-4.557 5.891-3.657 1.587.563 2.38 2.307 1.813 3.826-.85 2.475-.51 5.064.68 7.202.906 1.631 2.266 2.925 4.022 3.77-2.153 1.012-4.645 1.237-7.024.337a9.11 9.11 0 0 1-5.892-7.146c-.17-1.462 0-2.981.51-4.332m9.977 3.376c-.737-2.138-.34-5.683 2.152-6.583 1.586-.563 3.286.225 3.852 1.8.963 2.42 2.89 4.22 5.212 5.12 1.699.675 3.682.788 5.55.338-.962 2.138-2.775 3.882-5.154 4.782-3.116 1.125-6.684.45-9.12-1.744-1.133-1.069-2.04-2.307-2.492-3.713m9.856-3.769c-1.926-1.182-3.965-4.164-2.606-6.414a3.11 3.11 0 0 1 4.136-1.125 9.24 9.24 0 0 0 7.307.618c1.756-.618 3.342-1.744 4.475-3.319.623 2.25.397 4.726-.906 6.92-1.643 2.87-4.815 4.614-8.1 4.501-1.587 0-3.116-.394-4.306-1.181m5.094-9.172c-2.266.338-5.721-.675-6.174-3.263-.34-1.575.793-3.15 2.435-3.432h.057a8.87 8.87 0 0 0 5.948-4.163 8.73 8.73 0 0 0 1.246-5.345c1.926 1.294 3.399 3.376 3.795 5.851.567 3.207-.736 6.583-3.285 8.608-1.19.9-2.606 1.576-4.022 1.744M37.817 16.07c-1.53 1.687-4.815 3.15-6.855 1.462-1.302-1.069-1.472-2.926-.396-4.22a8.9 8.9 0 0 0 1.87-7.032 9.2 9.2 0 0 0-2.493-4.951 9.2 9.2 0 0 1 6.74 2.081c2.55 2.082 3.74 5.514 3.06 8.72-.284 1.464-.963 2.87-1.926 3.94"/></svg>