<svg xmlns="http://www.w3.org/2000/svg" width="246.154" height="64" fill="none" viewBox="0 0 100 26"><g clip-path="url(#a)"><path fill="#323232" d="M26.14 19.566V.028h3.036v7.703c.956-1.424 2.39-2.136 4.301-2.137 1.63 0 2.89.483 3.781 1.448.89.965 1.336 2.31 1.336 4.034v8.49h-3.036v-8.068c0-2.23-.993-3.345-2.98-3.346-.993 0-1.808.3-2.445.9-.637.6-.956 1.443-.956 2.53v7.983H26.14ZM52.94 17.88c-1.35 1.349-3.046 2.023-5.089 2.023-2.042 0-3.743-.674-5.102-2.023-1.359-1.35-2.038-3.065-2.038-5.146 0-2.08.68-3.79 2.038-5.13 1.359-1.34 3.06-2.01 5.102-2.01 2.043 0 3.74.67 5.088 2.01 1.35 1.34 2.025 3.05 2.025 5.13s-.675 3.795-2.025 5.146Zm-7.97-1.716c.72.844 1.681 1.265 2.881 1.265 1.2 0 2.16-.421 2.882-1.265.72-.843 1.082-1.986 1.082-3.43 0-1.424-.365-2.558-1.096-3.401-.731-.844-1.687-1.265-2.868-1.265-1.2 0-2.16.417-2.881 1.25-.721.835-1.082 1.973-1.082 3.416 0 1.444.36 2.587 1.082 3.43ZM61.992 19.903c-2.792 0-4.189-1.5-4.189-4.498V8.49h-2.108V5.932h2.193l.703-4.02h2.277v4.02h5.425V8.49h-5.425v6.83c0 1.257.459 1.884 1.377 1.884.862 0 1.64-.787 2.333-2.361l2.362 1.209c-1.162 2.568-2.812 3.851-4.948 3.851Z"/><path fill="#323232" d="M67.916 25.806c-1.35 0-2.465-.374-3.346-1.124l1.125-2.39c.544.637 1.134.956 1.77.957.844 0 1.266-.544 1.266-1.63V5.931h3.035v15.742c0 1.462-.36 2.516-1.082 3.162-.721.647-1.644.97-2.768.97Zm2.333-22.18a1.884 1.884 0 0 1-1.35-.506 1.704 1.704 0 0 1-.534-1.293A1.749 1.749 0 0 1 68.9.52a1.993 1.993 0 0 1 2.685 0 1.728 1.728 0 0 1 .548 1.307 1.694 1.694 0 0 1-.548 1.28 1.868 1.868 0 0 1-1.335.52ZM79.307 19.903c-1.556 0-2.816-.389-3.781-1.166-.965-.778-1.448-1.823-1.448-3.134 0-1.2.501-2.216 1.504-3.05 1.003-.835 2.263-1.252 3.781-1.252 1.556 0 2.868.497 3.936 1.49v-1.659c0-.974-.249-1.728-.745-2.262-.497-.535-1.205-.802-2.123-.802-1.855 0-3.008.947-3.457 2.84l-2.784-.59c.375-1.463 1.115-2.615 2.221-3.458 1.107-.844 2.484-1.266 4.133-1.266 1.799 0 3.219.474 4.259 1.42 1.04.947 1.56 2.329 1.56 4.146v8.406H83.41V17.85c-.993 1.368-2.362 2.052-4.104 2.052Zm.561-2.249c1.35 0 2.493-.674 3.43-2.024v-.422c-.937-1.124-2.08-1.686-3.43-1.686-.787 0-1.424.192-1.912.576a1.796 1.796 0 0 0-.731 1.476 1.84 1.84 0 0 0 .717 1.504c.479.384 1.121.576 1.927.576ZM89.32 19.566V5.932h2.952v2.36c.75-1.723 2.042-2.585 3.88-2.585 1.086 0 1.986.356 2.698 1.068.713.712 1.069 1.668 1.068 2.867a6.671 6.671 0 0 1-.365 2.109l-2.783-.281c.057-.373.094-.748.112-1.125 0-1.405-.58-2.108-1.743-2.108-.787 0-1.448.417-1.982 1.25-.534.835-.8 1.936-.801 3.304v6.775H89.32Z"/><path fill="#FF3C00" d="M7.183 8.018c2.262-1.257 5.36-2.979 5.36-7.99H8.793c0 2.804-1.365 3.562-3.431 4.71C3.099 5.995 0 7.716 0 12.728h3.752c0-2.804 1.365-3.563 3.431-4.71ZM13.675 6.866c0 2.804-1.365 3.562-3.431 4.71-2.262 1.257-5.361 2.978-5.361 7.99h3.752c0-2.804 1.365-3.562 3.43-4.71 2.263-1.257 5.361-2.979 5.361-7.99h-3.751Z"/></g><defs><clipPath id="a"><path fill="#fff" d="M0 0h100v25.806H0z"/></clipPath></defs></svg>