<svg xmlns="http://www.w3.org/2000/svg" width="206.452" height="64" fill="none" viewBox="0 0 100 31"><path fill="#33475B" d="M10.83 5.636v7.995H3.485V5.636H0v19.086h3.486v-7.736h7.343v7.736h3.487V5.636zm14.644 12.917a2.885 2.885 0 0 1-5.77 0v-8.176h-3.306v8.176a6.185 6.185 0 1 0 12.37 0v-8.176h-3.294zm24.5-7.333c0-1.676 1.109-2.208 2.323-2.208.98 0 2.272.746 3.118 1.65l2.165-2.553c-1.08-1.463-3.273-2.473-5.069-2.473-3.587 0-6.182 2.1-6.182 5.584 0 6.462 7.898 4.411 7.898 8.028 0 1.115-1.083 2.1-2.322 2.1-1.956 0-2.59-.955-3.488-1.967l-2.404 2.5c1.538 1.886 3.434 2.845 5.705 2.845 3.408 0 6.15-2.127 6.15-5.451 0-7.174-7.9-4.945-7.9-8.055zm48.863 10.453c-1.954 0-2.51-.845-2.51-2.14v-5.731h3.038v-2.904h-3.038v-3.83l-3.352 1.504v11.673c0 2.986 2.06 4.491 4.884 4.491q.668.012 1.323-.106l.818-3.01c-.369.026-.793.05-1.163.05v.004Zm-60.777-11.2c-1.637 0-2.78.475-3.886 1.56V5.75h-3.312v11.645c0 4.358 3.151 7.345 6.693 7.345 3.928 0 7.384-3.04 7.384-7.132 0-4.042-3.18-7.132-6.879-7.132zm-.02 10.934a3.757 3.757 0 1 1 0-7.515 3.757 3.757 0 0 1 0 7.515m35.983-3.973c0-4.1-3.448-7.132-7.384-7.132-3.54 0-6.693 2.986-6.693 7.345v11.651h3.312v-6.29c1.103 1.082 2.249 1.56 3.884 1.56 3.699 0 6.88-3.091 6.88-7.134Zm-3.136-.041a3.758 3.758 0 1 1-7.517 0 3.758 3.758 0 0 1 7.517 0"/><path fill="#FF7A59" d="M84.719 10.142V6.814a2.56 2.56 0 0 0 1.477-2.31v-.076a2.56 2.56 0 0 0-2.562-2.562h-.076a2.56 2.56 0 0 0-2.563 2.562v.077a2.56 2.56 0 0 0 1.478 2.31v3.327a7.26 7.26 0 0 0-3.45 1.518l-9.126-7.107q.098-.354.103-.719a2.887 2.887 0 1 0-2.89 2.881c.5-.002.99-.136 1.421-.387l8.986 6.993a7.28 7.28 0 0 0 .112 8.198l-2.734 2.734a2.4 2.4 0 0 0-.683-.111 2.37 2.37 0 1 0 2.373 2.372 2.3 2.3 0 0 0-.111-.683l2.703-2.705a7.29 7.29 0 0 0 11.728-6.16 7.29 7.29 0 0 0-6.186-6.825Zm-1.12 10.943a3.74 3.74 0 1 1 0-7.478 3.74 3.74 0 0 1 .003 7.476"/></svg>