<svg xmlns="http://www.w3.org/2000/svg" width="64" height="64" fill="none" viewBox="0 0 50 50"><path fill="#FF7A59" d="M37.547 16.925v-5.872a4.52 4.52 0 0 0 2.607-4.075v-.135a4.52 4.52 0 0 0-4.521-4.522h-.135a4.52 4.52 0 0 0-4.522 4.522v.135a4.52 4.52 0 0 0 2.607 4.075v5.872a12.8 12.8 0 0 0-6.088 2.681L11.39 7.063q.172-.625.182-1.27a5.095 5.095 0 1 0-5.101 5.086 5.04 5.04 0 0 0 2.509-.683l15.858 12.34a12.845 12.845 0 0 0 .196 14.468l-4.823 4.824a4.1 4.1 0 0 0-1.205-.196 4.184 4.184 0 1 0 4.187 4.187 4.1 4.1 0 0 0-.197-1.205l4.772-4.773a12.867 12.867 0 1 0 9.779-22.916m-1.978 19.313a6.6 6.6 0 1 1 0-13.198 6.601 6.601 0 0 1 .007 13.194"/></svg>