<svg xmlns="http://www.w3.org/2000/svg" width="376.471" height="64" fill="none" viewBox="0 0 100 17"><g fill="#11141d" clip-path="url(#a)"><path d="M22.01 12.486V7.797q0-1.076.52-1.615.523-.538 1.392-.538.784 0 1.252.46.47.46.47 1.329v5.053h2.243V7.155q0-1.685-.93-2.64T24.6 3.56q-1.774 0-2.59 1.216V.33h-2.244v12.156h2.243Zm7.912 3.473q1.67.087 2.792-.755 1.12-.842 1.8-2.718l3.165-8.683h-2.4l-1.93 5.835-2.262-5.835h-2.452l3.565 8.405q-.313.886-.843 1.285-.53.4-1.435.382zm11.061 0v-4.497q.99 1.267 2.818 1.267 1.755 0 3-1.328 1.242-1.329 1.243-3.256 0-1.927-1.243-3.256-1.245-1.329-3-1.329-1.827 0-2.818 1.268V3.803H38.74V15.96h2.243Zm2.4-5.366q-1.044 0-1.722-.677-.678-.695-.678-1.771t.678-1.763q.679-.686 1.722-.686c1.043 0 1.273.229 1.73.686q.688.686.688 1.763t-.688 1.762q-.686.686-1.73.686M53.94 12.73q2.505 0 3.79-1.858L55.923 9.83q-.66.868-1.948.868-2 0-2.452-1.632h6.557q.087-.486.087-.92 0-1.945-1.244-3.265t-3.156-1.32q-2.018 0-3.305 1.311t-1.287 3.274q0 1.98 1.305 3.282t3.46 1.302m1.982-5.4h-4.435q.192-.834.783-1.294t1.496-.46q.765 0 1.365.434t.791 1.32m6.052 5.157v-4.15q0-1.25.809-1.789t1.835-.417v-2.5q-.887 0-1.609.416-.721.417-1.035 1.25V3.804h-2.243v8.683zm6.192 3.473v-4.497q.99 1.267 2.817 1.267 1.757 0 3-1.328t1.243-3.256q0-1.927-1.243-3.256t-3-1.329q-1.826 0-2.817 1.268V3.803h-2.244V15.96zm2.4-5.366q-1.044 0-1.722-.677-.678-.695-.678-1.771t.678-1.763 1.722-.686 1.73.686.687 1.763q0 1.076-.687 1.762-.687.687-1.73.686m7.356-7.832q.574 0 .983-.408t.409-.964q0-.555-.41-.972A1.33 1.33 0 0 0 77.923 0q-.555 0-.965.417a1.35 1.35 0 0 0-.409.972q0 .555.409.964t.965.408Zm1.13 9.725V3.803H76.81v8.683h2.244Zm4.296 0v-4.69q0-1.076.522-1.615t1.391-.538q.783 0 1.252.46.47.46.47 1.329v5.053h2.244V7.155q0-1.685-.931-2.64-.93-.955-2.356-.955-1.775 0-2.592 1.216v-.973h-2.243v8.683zm12.105 3.716q1.877 0 3.208-1.059t1.33-3.074V3.803h-2.19V4.88q-.991-1.32-2.784-1.32-1.826 0-3.077 1.302-1.253 1.303-1.253 3.144 0 1.858 1.244 3.152 1.244 1.293 3.086 1.293 1.793 0 2.783-1.32v.938q0 1.025-.608 1.58-.609.556-1.67.556-1.617 0-2.278-1.215l-1.913 1.094q.573 1.041 1.643 1.58c1.07.539 1.54.539 2.479.539m-.087-5.817q-1.061 0-1.757-.66-.678-.678-.678-1.72 0-1.024.686-1.692.688-.669 1.749-.669t1.747.669q.688.668.687 1.693 0 1.042-.687 1.71-.687.669-1.747.669"/><path fill-rule="evenodd" d="M4.308 11.725a1.068 1.068 0 0 0 1.821-.18l1.54-3.301 2.084 4.512c.403.873 1.68.799 1.977-.114l1.983-6.087.682 1.321c.267.517.907.722 1.429.458s.73-.897.463-1.413l-1.85-3.585c-.431-.835-1.667-.736-1.957.155l-1.932 5.93-1.91-4.132c-.377-.817-1.55-.819-1.93-.003L4.957 9.043l-1.02-1.38a1.07 1.07 0 0 0-1.69-.033L.232 10.142a1.043 1.043 0 0 0 .17 1.476 1.07 1.07 0 0 0 1.493-.17l1.15-1.432 1.264 1.71Z" clip-rule="evenodd"/></g><defs><clipPath id="a"><path fill="#fff" d="M0 0h100v16.379H0z"/></clipPath></defs></svg>