<svg xmlns="http://www.w3.org/2000/svg" width="96.97" height="64" fill="none" viewBox="0 0 50 33"><g clip-path="url(#a)"><path fill="#11141d" fill-rule="evenodd" d="M13.131 27.36c1.458 1.973 4.519 1.67 5.553-.551l4.69-10.077 6.356 13.775c1.228 2.662 5.119 2.437 6.025-.35l6.045-18.58 2.079 4.033c.813 1.577 2.763 2.203 4.355 1.397a3.193 3.193 0 0 0 1.411-4.315L44.005 1.75c-1.313-2.547-5.079-2.247-5.964.475l-5.89 18.102-5.82-12.614c-1.15-2.494-4.724-2.5-5.883-.01l-5.34 11.47-3.11-4.212c-1.261-1.708-3.818-1.759-5.147-.102L.703 22.526a3.19 3.19 0 0 0 .52 4.506 3.257 3.257 0 0 0 4.549-.515l3.507-4.374z" clip-rule="evenodd"/></g><defs><clipPath id="a"><path fill="#fff" d="M0 0h50v32.53H0z"/></clipPath></defs></svg>