<svg xmlns="http://www.w3.org/2000/svg" width="376.471" height="64" fill="none" viewBox="0 0 100 17"><g fill="#11141D" clip-path="url(#a)"><path d="M22.01 12.486V7.797c0-.717.173-1.256.52-1.615.349-.359.813-.538 1.392-.538.522 0 .94.153 1.252.46.313.307.47.75.47 1.329v5.053h2.243V7.155c0-1.123-.31-2.003-.93-2.64-.62-.637-1.406-.955-2.357-.955-1.182 0-2.046.405-2.59 1.216V.33h-2.244v12.156h2.243Zm7.912 3.473c1.113.058 2.044-.194 2.792-.755.747-.562 1.347-1.467 1.8-2.718l3.165-8.683h-2.4l-1.93 5.835-2.262-5.835h-2.452l3.565 8.405c-.208.59-.49 1.02-.843 1.285-.354.267-.832.394-1.435.382v2.084Zm11.061 0v-4.497c.66.845 1.6 1.267 2.818 1.267 1.17 0 2.17-.442 3-1.328.828-.886 1.243-1.971 1.243-3.256 0-1.285-.414-2.37-1.243-3.256-.83-.886-1.83-1.329-3-1.329-1.218 0-2.157.423-2.818 1.268V3.803H38.74V15.96h2.243Zm2.4-5.366c-.696 0-1.27-.226-1.722-.677-.452-.463-.678-1.054-.678-1.771 0-.718.226-1.306.678-1.763.453-.457 1.026-.686 1.722-.686s1.273.229 1.73.686c.458.457.688 1.045.688 1.763 0 .717-.23 1.305-.688 1.762-.457.458-1.034.686-1.73.686ZM53.94 12.73c1.67 0 2.933-.62 3.79-1.858L55.923 9.83c-.44.579-1.09.868-1.948.868-1.333 0-2.15-.544-2.452-1.632h6.557c.058-.324.087-.63.087-.92 0-1.297-.415-2.385-1.244-3.265-.829-.88-1.881-1.32-3.156-1.32-1.345 0-2.447.437-3.305 1.311-.858.874-1.287 1.965-1.287 3.274 0 1.32.435 2.414 1.305 3.282.87.868 2.023 1.302 3.46 1.302Zm1.982-5.4h-4.435c.128-.556.389-.987.783-1.294.394-.307.893-.46 1.496-.46.51 0 .965.144 1.365.434.4.29.664.729.791 1.32Zm6.052 5.157v-4.15c0-.834.27-1.43.809-1.789.54-.359 1.15-.498 1.835-.417v-2.5c-.591 0-1.128.138-1.609.416-.481.278-.826.695-1.035 1.25V3.804h-2.243v8.683h2.243Zm6.192 3.473v-4.497c.66.845 1.6 1.267 2.817 1.267 1.171 0 2.171-.442 3-1.328.83-.886 1.243-1.971 1.243-3.256 0-1.285-.414-2.37-1.243-3.256-.829-.886-1.829-1.329-3-1.329-1.217 0-2.157.423-2.817 1.268V3.803h-2.244V15.96h2.244Zm2.4-5.366c-.696 0-1.27-.226-1.722-.677-.452-.463-.678-1.054-.678-1.771 0-.718.226-1.306.678-1.763.452-.457 1.026-.686 1.722-.686.695 0 1.272.229 1.73.686.458.457.687 1.045.687 1.763 0 .717-.229 1.305-.687 1.762-.458.458-1.035.686-1.73.686Zm7.356-7.832c.383 0 .71-.136.983-.408.272-.272.409-.593.409-.964 0-.37-.137-.694-.41-.972A1.327 1.327 0 0 0 77.923 0c-.37 0-.692.139-.965.417a1.345 1.345 0 0 0-.409.972c0 .37.136.692.409.964.273.272.594.408.965.408Zm1.13 9.725V3.803H76.81v8.683h2.244Zm4.296 0V7.797c0-.717.174-1.256.522-1.615.348-.359.812-.538 1.391-.538.522 0 .94.153 1.252.46.314.307.47.75.47 1.329v5.053h2.244V7.155c0-1.123-.31-2.003-.931-2.64-.62-.637-1.405-.955-2.356-.955-1.183 0-2.047.405-2.592 1.216v-.973h-2.243v8.683h2.243Zm12.105 3.716c1.251 0 2.321-.353 3.208-1.059.888-.706 1.33-1.73 1.33-3.074V3.803h-2.19V4.88c-.661-.88-1.589-1.32-2.784-1.32-1.217 0-2.243.434-3.077 1.302-.835.869-1.253 1.917-1.253 3.144 0 1.238.415 2.29 1.244 3.152.829.862 1.858 1.293 3.086 1.293 1.195 0 2.123-.44 2.783-1.32v.938c0 .683-.202 1.21-.608 1.58-.406.371-.962.556-1.67.556-1.078 0-1.837-.405-2.278-1.215l-1.913 1.094c.382.694.93 1.221 1.643 1.58s1.54.539 2.479.539Zm-.087-5.817c-.708 0-1.293-.22-1.757-.66-.452-.452-.678-1.025-.678-1.72 0-.682.229-1.247.686-1.692.46-.446 1.041-.669 1.749-.669.707 0 1.29.223 1.747.669.459.445.687 1.01.687 1.693 0 .694-.228 1.265-.687 1.71-.458.446-1.04.669-1.747.669Z"/><path fill-rule="evenodd" d="M4.308 11.725a1.068 1.068 0 0 0 1.821-.18l1.54-3.301 2.084 4.512c.403.873 1.68.799 1.977-.114l1.983-6.087.682 1.321c.267.517.907.722 1.429.458.522-.264.73-.897.463-1.413l-1.85-3.585c-.431-.835-1.667-.736-1.957.155l-1.932 5.93-1.91-4.132c-.377-.817-1.55-.819-1.93-.003L4.957 9.043l-1.02-1.38a1.069 1.069 0 0 0-1.69-.033L.232 10.142a1.043 1.043 0 0 0 .17 1.476 1.07 1.07 0 0 0 1.493-.17l1.15-1.432 1.264 1.71Z" clip-rule="evenodd"/></g><defs><clipPath id="a"><path fill="#fff" d="M0 0h100v16.379H0z"/></clipPath></defs></svg>