<svg xmlns="http://www.w3.org/2000/svg" width="160" height="64" fill="none" viewBox="0 0 50 20"><g clip-path="url(#a)"><path fill="#000" d="M.516.206v1.34h9.53V.206H.517Zm10.882 0v1.34h13.584S23.594.206 21.757.206H11.398Zm16.248 0v1.34h8.217l-.487-1.34h-7.73Zm14.11 0-.488 1.34h8.144V.206h-7.656ZM.516 2.813v1.34h9.53v-1.34H.517Zm10.882.001v1.338h15.159s-.177-1.031-.486-1.338H11.398Zm16.248 0v1.338h9.125l-.451-1.338h-8.674Zm13.134 0-.451 1.338h9.082V2.814H40.78ZM3.255 5.42V6.76h4.128V5.419H3.255Zm10.883 0V6.76h4.128V5.419h-4.128Zm8.143 0V6.76h4.128s.263-.71.263-1.342h-4.39Zm8.105 0V6.76H37.7l-.488-1.342h-6.825Zm9.496 0-.49 1.342h7.355V5.419h-6.865ZM3.256 8.027v1.34h4.128v-1.34H3.256Zm10.882 0v1.34h10.544s.881-.688 1.162-1.34H14.138Zm16.248 0v1.34h4.128V8.62l.263.746h7.562l.282-.746v.746h4.128v-1.34h-7.75l-.412 1.135-.412-1.135h-7.789ZM3.255 10.633v1.34h4.128v-1.34H3.255Zm10.883 0v1.34h11.706c-.282-.65-1.163-1.34-1.163-1.34H14.137Zm16.248 0v1.34h4.128v-1.34h-4.128Zm4.878 0 .5 1.34h5.67l.475-1.34h-6.645Zm7.355 0v1.34h4.128v-1.34h-4.128ZM3.256 13.24v1.34h4.128v-1.34H3.256Zm10.883 0v1.34h4.128v-1.34h-4.128Zm8.143 0v1.34h4.39c0-.632-.262-1.34-.262-1.34h-4.128Zm8.105 0v1.34h4.129v-1.34h-4.128Zm5.816 0 .483 1.34h3.8l.488-1.34h-4.771Zm6.417 0v1.34h4.128v-1.34H42.62ZM.592 15.846v1.342h9.531v-1.342H.592Zm10.808 0v1.342h14.674c.308-.308.485-1.342.485-1.342H11.4Zm16.322 0v1.342h6.791v-1.342h-6.79Zm9.42 0 .497 1.342h1.933l.467-1.342h-2.898Zm5.478 0v1.342h6.867v-1.342H42.62ZM.592 18.454v1.34h9.531v-1.34H.592Zm10.808 0v1.337h10.357c1.837 0 3.225-1.337 3.225-1.337H11.4Zm16.322 0v1.34h6.791v-1.34h-6.79Zm10.363 0 .478 1.336.083.002.485-1.338h-1.046Zm4.536 0v1.34h6.867v-1.34h-6.867Z"/></g><defs><clipPath id="a"><path fill="#fff" d="M0 0h50v20H0z"/></clipPath></defs></svg>