<svg xmlns="http://www.w3.org/2000/svg" width="161" height="64" fill="none"><g clip-path="url(#a)"><mask id="b" width="161" height="64" x="0" y="0" maskUnits="userSpaceOnUse" style="mask-type:luminance"><path fill="#fff" d="M.5 0h160v64H.5z"/></mask><g mask="url(#b)"><path fill="#fff" d="M2.151.66v4.287h30.496V.66zm34.823 0v4.287h43.468S76.001.66 70.122.66zm51.993 0v4.287h26.295L113.703.66zm45.152 0-1.561 4.287h26.06V.66zM2.151 9.001v4.288h30.496V9.002zm34.823.003v4.281h48.508s-.566-3.299-1.555-4.281zm51.993 0v4.281h29.2l-1.443-4.281zm42.029 0-1.443 4.281h29.062V9.005zm-120.08 8.339v4.288h13.21v-4.291zm34.826 0v4.288h13.21v-4.291zm26.057 0v4.288h13.21s.841-2.272.841-4.294H71.802zm25.936 0v4.288h23.405l-1.562-4.294h-21.84zm30.387 0-1.568 4.294h23.536v-4.297zM10.919 25.686v4.288h13.21v-4.288zm34.823 0v4.288h33.74s2.82-2.201 3.719-4.288zm51.993 0v4.288h13.21v-2.39l.841 2.387h24.199l.902-2.387v2.387h13.21v-4.288h-24.8l-1.319 3.632-1.318-3.632zm-86.82 8.34v4.288h13.21v-4.288zm34.827 0v4.288H83.2c-.903-2.08-3.722-4.288-3.722-4.288zm51.993 0v4.288h13.21v-4.288zm15.61 0 1.6 4.288h18.144l1.52-4.288zm23.536 0v4.288h13.209v-4.288zM10.919 42.368v4.288h13.21v-4.288zm34.826 0v4.288h13.21v-4.288zm26.057 0v4.288H85.85c0-2.022-.838-4.288-.838-4.288zm25.936 0v4.288h13.213v-4.288zm18.612 0 1.545 4.288h12.16l1.562-4.288zm20.534 0v4.288h13.21v-4.288zm-134.49 8.34v4.294h30.5v-4.295zm34.586 0v4.294h46.957c.985-.986 1.552-4.295 1.552-4.295zm52.23 0v4.294h21.732v-4.295zm30.144 0 1.591 4.294h6.185l1.495-4.295zm17.53 0v4.294h21.974v-4.295zM2.394 59.052v4.288h30.5v-4.288zm34.586 0v4.278h33.142c5.879 0 10.32-4.278 10.32-4.278zm52.23 0v4.288h21.732v-4.288zm33.162 0 1.53 4.275.265.006 1.552-4.281zm14.515 0v4.288h21.975v-4.288z"/></g></g><defs><clipPath id="a"><path fill="#fff" d="M.5 0h160v64H.5z"/></clipPath></defs></svg>