<svg xmlns="http://www.w3.org/2000/svg" width="160" height="64" fill="none" viewBox="0 0 50 20"><g clip-path="url(#a)"><path fill="#000" d="M.516.206v1.34h9.53V.206zm10.882 0v1.34h13.584S23.594.206 21.757.206zm16.248 0v1.34h8.217l-.487-1.34zm14.11 0-.488 1.34h8.144V.206zM.516 2.813v1.34h9.53v-1.34zm10.882.001v1.338h15.159s-.177-1.031-.486-1.338zm16.248 0v1.338h9.125l-.451-1.338zm13.134 0-.451 1.338h9.082V2.814zM3.255 5.42v1.34h4.128V5.419H3.255Zm10.883 0v1.34h4.128V5.419h-4.128Zm8.143 0v1.34h4.128s.263-.71.263-1.342h-4.39Zm8.105 0v1.34H37.7l-.488-1.342h-6.825Zm9.496 0-.49 1.342h7.355V5.419h-6.865ZM3.256 8.027v1.34h4.128v-1.34zm10.882 0v1.34h10.544s.881-.688 1.162-1.34zm16.248 0v1.34h4.128V8.62l.263.746h7.562l.282-.746v.746h4.128v-1.34h-7.75l-.412 1.135-.412-1.135zM3.255 10.633v1.34h4.128v-1.34zm10.883 0v1.34h11.706c-.282-.65-1.163-1.34-1.163-1.34zm16.248 0v1.34h4.128v-1.34zm4.878 0 .5 1.34h5.67l.475-1.34zm7.355 0v1.34h4.128v-1.34zM3.256 13.24v1.34h4.128v-1.34zm10.883 0v1.34h4.128v-1.34zm8.143 0v1.34h4.39c0-.632-.262-1.34-.262-1.34zm8.105 0v1.34h4.129v-1.34zm5.816 0 .483 1.34h3.8l.488-1.34zm6.417 0v1.34h4.128v-1.34zM.592 15.846v1.342h9.531v-1.342zm10.808 0v1.342h14.674c.308-.308.485-1.342.485-1.342zm16.322 0v1.342h6.791v-1.342zm9.42 0 .497 1.342h1.933l.467-1.342h-2.898Zm5.478 0v1.342h6.867v-1.342zM.592 18.454v1.34h9.531v-1.34zm10.808 0v1.337h10.357c1.837 0 3.225-1.337 3.225-1.337zm16.322 0v1.34h6.791v-1.34zm10.363 0 .478 1.336.083.002.485-1.338zm4.536 0v1.34h6.867v-1.34z"/></g><defs><clipPath id="a"><path fill="#fff" d="M0 0h50v20H0z"/></clipPath></defs></svg>