<svg xmlns="http://www.w3.org/2000/svg" width="161" height="64" fill="none"><path fill="#fff" d="M2.15.66V4.95h30.5V.66zm34.824 0V4.95h43.469S76.003.66 70.123.66zm51.993 0V4.95h26.295L113.702.66zm45.152 0-1.561 4.289h26.06V.66h-24.502zM2.149 9v4.288h30.5V9zm34.823.006v4.28h48.509s-.566-3.3-1.554-4.28zm51.994 0v4.28h29.2l-1.444-4.28zm42.028 0-1.444 4.28h29.065v-4.28zM10.916 17.341v4.292h13.21v-4.292zm34.824 0v4.292h13.21v-4.292zm26.06 0v4.292h13.21s.84-2.267.84-4.292zm25.937 0v4.292h23.398l-1.56-4.292zm30.384 0-1.568 4.292h23.536v-4.292zM10.919 25.686v4.288h13.21v-4.288zm34.824 0v4.288h33.741s2.82-2.2 3.72-4.288H45.742zm51.994 0v4.288h13.211v-2.39l.84 2.389h24.2l.899-2.39v2.39h13.211v-4.288h-24.8l-1.316 3.632-1.32-3.632H97.737zm-86.82 8.34v4.287h13.209v-4.288zm34.823 0v4.287H83.2c-.9-2.08-3.72-4.288-3.72-4.288zm51.994 0v4.287h13.211v-4.288zm15.611 0 1.6 4.287h18.144l1.52-4.288zm23.536 0v4.287h13.209v-4.288zM10.918 42.367v4.288h13.21v-4.288zm34.824 0v4.288h13.21v-4.288zm26.06 0v4.288H85.85c0-2.024-.84-4.288-.84-4.288zm25.936 0v4.288h13.21v-4.288zm18.608 0 1.549 4.288h12.16l1.56-4.288zm20.536 0v4.288h13.21v-4.288zM2.394 50.704v4.294h30.5v-4.294zm34.586 0v4.294h46.957c.987-.984 1.552-4.294 1.552-4.294zm52.232 0v4.294h21.73v-4.294zm30.139 0 1.594 4.294h6.187l1.494-4.294zm17.533 0v4.294h21.976v-4.294zM2.394 59.053v4.288h30.5v-4.288zm34.586 0v4.28h33.143c5.88 0 10.32-4.28 10.32-4.28zm52.232 0v4.288h21.73v-4.288zm33.16 0 1.53 4.275.264.006 1.555-4.28zm14.514 0v4.288h21.976v-4.288z"/></svg>