<svg xmlns="http://www.w3.org/2000/svg" width="160" height="64" fill="none" viewBox="0 0 100 40"><path fill="#000" d="M1.031.413v2.68h19.063V.413zm21.765 0v2.68h27.168s-2.775-2.68-6.45-2.68zm32.496 0v2.68h16.434l-.975-2.68zm28.22 0-.976 2.68h16.288V.413H83.51ZM1.031 5.625v2.68h19.062v-2.68zm21.764.004v2.675h30.318s-.354-2.063-.971-2.675zm32.496 0v2.675h18.25l-.902-2.675H55.292Zm26.268 0-.903 2.675h18.166V5.629H81.56ZM6.51 10.838v2.683h8.256v-2.683zm21.765 0v2.683h8.256v-2.683zm16.288 0v2.683h8.256s.525-1.417.525-2.683h-8.782Zm16.21 0v2.683h14.624l-.975-2.683zm18.99 0-.98 2.683h14.71v-2.683zM6.512 16.054v2.68h8.256v-2.68H6.511Zm21.765 0v2.68h21.088s1.762-1.375 2.325-2.68H28.276Zm32.496 0v2.68h8.257V17.24l.525 1.493H84.68l.562-1.493v1.493h8.257v-2.68h-15.5l-.823 2.27-.825-2.27H60.773ZM6.51 21.266v2.68h8.256v-2.68zm21.765 0v2.68h23.413c-.563-1.3-2.326-2.68-2.326-2.68zm32.496 0v2.68h8.257v-2.68zm9.757 0 1 2.68h11.34l.95-2.68zm14.71 0v2.68h8.256v-2.68h-8.257ZM6.511 26.48v2.68h8.257v-2.68zm21.765 0v2.68h8.257v-2.68zm16.288 0v2.68h8.78c0-1.265-.525-2.68-.525-2.68zm16.21 0v2.68h8.256v-2.68zm11.63 0 .968 2.68h7.6l.975-2.68zm12.835 0v2.68h8.256v-2.68zM1.184 31.69v2.684h19.062V31.69zm21.616 0v2.684h29.348c.617-.615.97-2.684.97-2.684zm32.645 0v2.684h13.581V31.69zm18.837 0 .996 2.684h3.867l.934-2.684zm10.958 0v2.684h13.735V31.69zM1.184 36.908v2.68h19.062v-2.68zm21.616 0v2.675h20.714c3.675 0 6.45-2.675 6.45-2.675zm32.645 0v2.68h13.581v-2.68zm20.725 0 .956 2.672.165.004.972-2.675zm9.071 0v2.68h13.735v-2.68z"/></svg>