<svg xmlns="http://www.w3.org/2000/svg" width="64" height="64" fill="none" viewBox="0 0 32 32"><path fill="#1EBBEE" d="M28.425 10.455c4.279-9.87-4.585-8.425-5.079-8.326a22.2 22.2 0 0 0-5.218 1.738c-6.107-.352-11.645 3.986-12.982 9.93 3.153-3.604 5.359-5.059 6.68-5.64-3.88 3.537-7.717 8.163-9.13 13.31-3.555 12.949 7.592 7.536 9.151 6.714a12.34 12.34 0 0 0 5.568 1.32c5.473 0 10.129-3.56 11.862-8.532h-6.613c-.979 1.685-2.863 2.826-5.027 2.826-3.171 0-5.742-2.448-5.742-5.47h18.002c.34-2.696-.17-5.481-1.472-7.87M27.65 4.05c1.084.746 1.953 1.917.46 5.86a12.7 12.7 0 0 0-6.146-5.2c1.164-.573 4.049-1.786 5.686-.66M4.616 28.155c-.883-.923-1.039-3.17.91-7.266a12.8 12.8 0 0 0 5.48 6.827c-1.261.707-4.61 2.3-6.39.438m7.252-13.337c.1-2.936 2.607-5.287 5.687-5.287s5.588 2.351 5.688 5.287z"/></svg>