<svg xmlns="http://www.w3.org/2000/svg" width="61.538" height="64" fill="none" viewBox="0 0 50 52"><path fill="#131313" fill-rule="evenodd" d="M25.58 21.053a4.651 4.651 0 1 1 0 9.302 4.651 4.651 0 0 1 0-9.302" clip-rule="evenodd"/><path fill="#676767" fill-rule="evenodd" d="M25.585 18.727c-3.847 0-6.977 3.13-6.977 6.978a6.984 6.984 0 0 0 6.977 6.976c3.846 0 6.977-3.13 6.977-6.976a6.985 6.985 0 0 0-6.977-6.977Zm0 15.116c-4.488 0-8.14-3.65-8.14-8.139s3.652-8.14 8.14-8.14 8.14 3.652 8.14 8.14-3.652 8.14-8.14 8.14Z" clip-rule="evenodd"/><path fill="#00933F" fill-rule="evenodd" d="M25 8.262a2.907 2.907 0 1 1 .001 5.814 2.907 2.907 0 0 1 0-5.814Z" clip-rule="evenodd"/><path fill="#D7E100" fill-rule="evenodd" d="M25 .123a2.907 2.907 0 1 1 .001 5.813 2.907 2.907 0 0 1 0-5.813Z" clip-rule="evenodd"/><path fill="#FF3684" fill-rule="evenodd" d="M25 36.169a2.907 2.907 0 1 1 0 5.813 2.907 2.907 0 0 1 0-5.813" clip-rule="evenodd"/><path fill="#00B73E" fill-rule="evenodd" d="M18.025 11.75a1.744 1.744 0 1 1 .001 3.488 1.744 1.744 0 0 1 0-3.488Z" clip-rule="evenodd"/><path fill="#FF7CAD" fill-rule="evenodd" d="M33.143 36.169a1.744 1.744 0 1 1 0 3.488 1.744 1.744 0 0 1 0-3.488" clip-rule="evenodd"/><path fill="#00ACE5" fill-rule="evenodd" d="M37.79 15.238a2.907 2.907 0 1 1 0 5.814 2.907 2.907 0 0 1 0-5.814" clip-rule="evenodd"/><path fill="#FF1E7D" fill-rule="evenodd" d="M13.376 29.192a2.907 2.907 0 1 1 0 5.814 2.907 2.907 0 0 1 0-5.814" clip-rule="evenodd"/><path fill="#B81961" fill-rule="evenodd" d="M40.12 24.54a1.744 1.744 0 1 1 0 3.489 1.744 1.744 0 0 1 0-3.488Zm-29.071 0a1.744 1.744 0 1 1 0 3.489 1.744 1.744 0 0 1 0-3.488Z" clip-rule="evenodd"/><path fill="#00B73E" fill-rule="evenodd" d="M33.143 11.75a1.744 1.744 0 1 1 0 3.488 1.744 1.744 0 0 1 0-3.488" clip-rule="evenodd"/><path fill="#FF7CAD" fill-rule="evenodd" d="M18.025 36.169a1.744 1.744 0 1 1 .001 3.487 1.744 1.744 0 0 1 0-3.487Z" clip-rule="evenodd"/><path fill="#FF1E7D" fill-rule="evenodd" d="M37.79 29.192a2.907 2.907 0 1 1 0 5.814 2.907 2.907 0 0 1 0-5.814" clip-rule="evenodd"/><path fill="#00ACE5" fill-rule="evenodd" d="M13.376 15.238a2.907 2.907 0 1 1 0 5.814 2.907 2.907 0 0 1 0-5.814" clip-rule="evenodd"/><path fill="#FFD000" fill-rule="evenodd" d="M25.688 44.318c1.816 0 3.289 1.3 3.289 2.902s-1.473 2.903-3.29 2.903-3.289-1.3-3.289-2.903 1.473-2.902 3.29-2.902" clip-rule="evenodd"/><path fill="#00CEF4" fill-rule="evenodd" d="M5.235 11.75a2.907 2.907 0 1 1 0 5.814 2.907 2.907 0 0 1 0-5.814" clip-rule="evenodd"/><path fill="#FF72AB" fill-rule="evenodd" d="M44.766 33.843a2.907 2.907 0 1 1 0 5.814 2.907 2.907 0 0 1 0-5.814" clip-rule="evenodd"/><path fill="#00CEF4" fill-rule="evenodd" d="M44.766 11.75a2.907 2.907 0 1 1 0 5.814 2.907 2.907 0 0 1 0-5.814" clip-rule="evenodd"/><path fill="#FF72AB" fill-rule="evenodd" d="M5.235 33.843a2.907 2.907 0 1 1 0 5.814 2.907 2.907 0 0 1 0-5.814" clip-rule="evenodd"/><path fill="#6DC72E" fill-rule="evenodd" d="M14.532 2.448a2.907 2.907 0 1 1 0 5.813 2.907 2.907 0 0 1 0-5.813" clip-rule="evenodd"/><path fill="#FF9500" fill-rule="evenodd" d="M35.462 41.983a2.907 2.907 0 1 1 0 5.814 2.907 2.907 0 0 1 0-5.814" clip-rule="evenodd"/><path fill="#6DC72E" fill-rule="evenodd" d="M35.462 2.448a2.907 2.907 0 1 1 0 5.813 2.907 2.907 0 0 1 0-5.813" clip-rule="evenodd"/><path fill="#FF9500" fill-rule="evenodd" d="M14.532 41.983a2.907 2.907 0 1 1 0 5.814 2.907 2.907 0 0 1 0-5.814" clip-rule="evenodd"/><path fill="#AB2692" fill-rule="evenodd" d="M47.094 22.215a2.907 2.907 0 1 1 0 5.814 2.907 2.907 0 0 1 0-5.814m-44.187.075a2.907 2.907 0 1 1 0 5.814 2.907 2.907 0 0 1 0-5.814" clip-rule="evenodd"/></svg>