<svg xmlns="http://www.w3.org/2000/svg" width="400" height="64" fill="none" viewBox="0 0 100 16"><g clip-path="url(#a)"><path fill="#003d29" d="m38.574 8.58-1.328-.122c-.87-.076-1.221-.381-1.221-.916 0-.626.534-1.038 1.572-1.038.977 0 1.466.427 1.542 1.114h3.115c-.199-2.03-1.634-3.465-4.565-3.465-3.053 0-4.733 1.557-4.733 3.618 0 1.924 1.053 2.977 3.664 3.191l1.314.107c1.022.076 1.388.427 1.388 1.038 0 .641-.534 1.114-1.633 1.114-1.023 0-1.633-.458-1.74-1.266h-3.283c.29 2.213 1.847 3.678 5.008 3.678 3.068 0 4.763-1.572 4.763-3.694 0-2.061-1.13-3.114-3.863-3.359M27.826 4.153c-1.954 0-3.114 1.022-3.664 3.114h-.198V4.336H20.88v11.115h3.282V8.977c0-1.481.764-2.29 2.138-2.29 1.358 0 2.03.84 2.03 2.275v6.489h3.282V8.382c0-2.687-1.404-4.23-3.786-4.23ZM17.69 0c-1.115 0-1.955.733-1.955 1.847 0 1.115.825 1.848 1.94 1.848s1.938-.734 1.938-1.848C19.612.748 18.788 0 17.69 0m1.633 4.336H16.04v11.115h3.282V4.336Zm28.275-2.351h-2.091c-.062 1.786-.825 2.564-2.535 2.702v2.26h1.344v4.885c0 2.458 1.404 3.801 4.198 3.801.525 0 1.049-.066 1.557-.198v-2.642a4.5 4.5 0 0 1-.793.061c-1.176 0-1.68-.443-1.68-1.68V6.948h2.886V4.336h-2.886zm52.061 4.962V4.336h-2.885V1.985h-2.061c-.046 1.236-.412 1.954-1.222 2.351v7.496c0 2.458 1.405 3.801 4.199 3.801.525 0 1.049-.066 1.557-.198v-2.642a4.5 4.5 0 0 1-.794.061c-1.176 0-1.679-.443-1.679-1.68V6.948h2.885Zm-10.748.488h-.198v-3.1h-3.038v11.116h3.282V9.435c0-1.664.748-2.366 2.458-2.366.29 0 .611.03 1.054.106v-2.87a2.7 2.7 0 0 0-.932-.152c-1.328 0-2.244.763-2.626 3.282m-20.962 5.39c-1.542 0-2.656-1.024-2.656-3.008 0-1.771 1.038-2.87 2.626-2.87 1.358 0 2.137.763 2.366 1.984h3.328c-.32-2.855-2.366-4.778-5.648-4.778-3.604 0-5.97 2.442-5.97 5.786 0 3.466 2.275 5.694 5.924 5.694 3.313 0 5.466-1.846 5.771-4.84h-3.33c-.182 1.222-1.022 2.032-2.412 2.032Zm-11.77-8.672c-2.856 0-4.58 1.404-4.886 3.923h3.145c.107-.87.672-1.328 1.664-1.328 1.007 0 1.465.458 1.465 1.115 0 .549-.35.84-1.251 1.007l-1.497.275c-2.64.488-3.648 1.572-3.648 3.298 0 1.969 1.389 3.206 3.313 3.206 1.572 0 2.595-.733 3.069-2.565h.198v2.367h3.1V8.199c0-2.52-1.512-4.046-4.672-4.046m-.367 9.252c-.885 0-1.39-.474-1.39-1.176 0-.58.352-.977 1.222-1.176l.61-.137c.527-.122.936-.285 1.314-.611v1.176c0 1.358-.718 1.924-1.756 1.924m23.695-9.252c-2.856 0-4.58 1.404-4.886 3.923h3.145c.107-.87.672-1.328 1.664-1.328 1.008 0 1.466.458 1.466 1.115 0 .549-.351.84-1.252 1.007l-1.496.275c-2.641.488-3.65 1.572-3.65 3.298 0 1.969 1.39 3.206 3.314 3.206 1.573 0 2.595-.733 3.069-2.565h.198v2.367h3.1V8.199c0-2.52-1.512-4.046-4.672-4.046m-.367 9.252c-.885 0-1.39-.474-1.39-1.176 0-.58.352-.977 1.222-1.176l.61-.137c.527-.122.937-.285 1.314-.611v1.176c0 1.358-.717 1.924-1.756 1.924"/><path fill="#0aad0a" d="M10.513 2.66c-.674 0-1.156.293-1.6.932L7.633 5.43V.183H4.58V5.43L3.3 3.592c-.443-.639-.925-.933-1.6-.933-1.019 0-1.697.752-1.7 1.679-.003.793.371 1.31 1.16 1.819l4.947 3.186 4.946-3.186c.789-.508 1.163-1.026 1.16-1.819-.002-.927-.681-1.679-1.7-1.679Z"/><path fill="#ff7009" d="M6.109 10.107c2.94 0 5.35 2.194 5.343 5.344H.766c-.006-3.148 2.403-5.344 5.343-5.344"/></g><defs><clipPath id="a"><path fill="#fff" d="M0 0h100v16H0z"/></clipPath></defs></svg>