<svg xmlns="http://www.w3.org/2000/svg" width="51.2" height="64" fill="none" viewBox="0 0 40 50"><path fill="#0aad0a" d="M32.854 8.31c-2.108 0-3.612.919-5 2.915l-4 5.743V.573h-9.541v16.395l-4-5.743c-1.386-1.996-2.89-2.915-5-2.915C2.129 8.31.01 10.66 0 13.556c-.008 2.48 1.16 4.096 3.625 5.683l15.458 9.959 15.459-9.959c2.464-1.587 3.633-3.204 3.625-5.683-.009-2.896-2.13-5.246-5.313-5.246"/><path fill="#ff7009" d="M19.08 31.584c9.188 0 16.72 6.858 16.699 16.7H2.383c-.019-9.838 7.51-16.7 16.698-16.7Z"/></svg>