<svg xmlns="http://www.w3.org/2000/svg" width="278.261" height="64" fill="none" viewBox="0 0 100 23"><g fill="#000" clip-path="url(#a)"><path d="m24.399 8.163-1.243 10.114h3.254l1.242-10.114zm.158-4.308c0 1.066.836 1.905 1.898 1.905a1.884 1.884 0 0 0 1.898-1.905 1.884 1.884 0 0 0-1.898-1.905 1.884 1.884 0 0 0-1.898 1.905m5.889 4.308-1.243 10.114h3.253l.588-4.989c.068-.544.203-1.52.79-2.132.407-.408.904-.544 1.47-.544.338 0 .835.068 1.197.431.339.363.406.839.406 1.225 0 .158 0 .59-.135 1.632l-.542 4.377h3.253l.61-5.193c.135-1.089.158-1.587.158-1.928 0-.612-.068-1.632-.859-2.403-.768-.749-1.784-.862-2.62-.862-.7 0-1.265.045-1.988.431-.43.227-.859.544-1.243.952l.158-1.11zm19.974.681c-1.378-.953-2.575-1.02-3.32-1.02-.724 0-2.282.067-3.322 1.088a3.36 3.36 0 0 0-.949 2.358c0 .975.43 1.542.678 1.814.474.476 1.152.748 1.695.907l.722.227c.272.09.588.158.791.294a.73.73 0 0 1 .316.635c0 .318-.135.5-.406.658s-.588.227-.994.227c-.7 0-1.288-.272-1.401-.318a4.8 4.8 0 0 1-1.243-.839l-1.378 2.2c.474.43.994.794 1.56 1.043.903.408 1.761.499 2.62.499.881 0 2.463-.136 3.547-1.27.429-.43.949-1.247.949-2.494 0-.794-.226-1.406-.746-1.928-.564-.59-1.242-.816-1.74-.952l-.745-.204c-.565-.159-.723-.227-.79-.272-.25-.16-.317-.363-.317-.545 0-.181.09-.385.226-.498.226-.205.655-.273.971-.273.791 0 1.446.34 1.898.68zm7.676 1.95.316-2.63h-1.988l.407-3.266h-3.253l-.407 3.265h-1.175l-.316 2.63h1.175l-.927 7.484h3.254l.926-7.483zm9.236-1.406a3.63 3.63 0 0 0-1.378-1.18c-.655-.317-1.379-.385-1.966-.385-1.4 0-2.666.408-3.705 1.474-.971.998-1.627 2.494-1.627 4.354 0 1.746.61 2.925 1.356 3.719.88.93 1.875 1.247 3.118 1.247.384 0 1.175-.046 1.875-.363.542-.25 1.062-.703 1.423-1.134l-.248 1.157h3.253l1.243-10.114h-3.254zm-2.643 1.247c.88 0 1.4.295 1.694.567.43.385.7 1.02.7 1.746 0 .748-.27 1.61-.858 2.177-.339.317-.927.68-1.853.68-.655 0-1.242-.181-1.717-.68-.316-.34-.655-.885-.655-1.724s.316-1.564.768-2.018c.497-.499 1.107-.748 1.92-.748Zm13.665.159.316-2.63h-1.988l.407-3.266h-3.254l-.406 3.265h-1.175l-.317 2.63h1.175l-.926 7.484h3.253l.927-7.483zm8.76-2.631-.633 5.306c-.135 1.202-.52 1.678-.655 1.814-.361.386-.971.567-1.491.567-.475 0-1.04-.158-1.333-.43-.226-.205-.43-.567-.43-1.112 0-.25.046-.476.114-1.11l.587-5.035H80.02l-.61 5.148a13 13 0 0 0-.113 1.428c0 1.066.406 2.086 1.084 2.721 1.13 1.089 2.915 1.157 3.931 1.157 1.153 0 2.757-.136 3.954-1.293 1.13-1.088 1.333-2.494 1.468-3.696l.633-5.465zm12.994.681c-1.378-.953-2.575-1.02-3.321-1.02-.723 0-2.282.067-3.321 1.088a3.36 3.36 0 0 0-.949 2.358c0 .975.43 1.542.678 1.814.474.476 1.152.748 1.694.907l.723.227c.271.09.588.158.79.294a.73.73 0 0 1 .317.635c0 .318-.135.5-.406.658-.272.159-.588.227-.995.227-.7 0-1.287-.272-1.4-.318a4.8 4.8 0 0 1-1.243-.839l-1.378 2.2c.474.43.994.794 1.56 1.043.903.408 1.761.499 2.62.499.88 0 2.462-.136 3.547-1.27.429-.43.949-1.247.949-2.494 0-.794-.226-1.406-.746-1.928-.565-.59-1.243-.816-1.74-.952l-.745-.204c-.565-.159-.723-.227-.79-.272-.25-.16-.317-.363-.317-.545 0-.181.09-.385.226-.498.226-.205.655-.273.971-.273.791 0 1.446.34 1.898.68zM6.495 20.39A8.865 8.865 0 1 1 17.378 7.639c-1.135 2.63-2.945 5.41-5.336 7.996-1.765 1.908-3.658 3.51-5.547 4.755"/><path d="M.41 22.485c-.987-.742-.035-3.204 1.197-4.875l.381.538c-.458 1.081-1.256 3.28 2.022.744 3.278-2.534 8.77-9.598 11.129-13.858 1.886-3.408-.154-2.599-1.378-1.815l-.536-.289C14.468 1.725 16.634.274 17.67.73c2.248.99.574 7.425-4.483 13.665S1.801 23.532.409 22.485Zm18.15-11.308a8.87 8.87 0 0 1-4.645 8.787 8.8 8.8 0 0 1-3.5 1.019c1.145-2.137 2.69-4.33 4.589-6.415a34 34 0 0 1 3.556-3.39Z"/></g><defs><clipPath id="a"><path fill="#fff" d="M0 0h100v22.695H0z"/></clipPath></defs></svg>