<svg xmlns="http://www.w3.org/2000/svg" width="65" height="64" fill="none"><g clip-path="url(#a)"><path fill="#fff" d="M21.835 32c0-5.89 4.774-10.667 10.665-10.667S43.167 26.109 43.167 32c0 5.89-4.776 10.667-10.667 10.667-5.89 0-10.665-4.776-10.665-10.667m-5.767 0c0 9.075 7.357 16.432 16.432 16.432S48.932 41.075 48.932 32 41.575 15.568 32.5 15.568 16.068 22.925 16.068 32m29.674-17.083a3.842 3.842 0 0 0 7.682 0 3.84 3.84 0 0 0-3.841-3.838 3.84 3.84 0 0 0-3.841 3.838m-26.171 43.13c-3.12-.142-4.816-.661-5.943-1.101-1.494-.581-2.559-1.274-3.68-2.393-1.12-1.12-1.815-2.185-2.394-3.679-.44-1.127-.959-2.822-1.101-5.942-.155-3.373-.186-4.387-.186-12.932s.033-9.556.186-12.932c.142-3.12.664-4.813 1.101-5.942.582-1.494 1.274-2.56 2.393-3.681 1.12-1.12 2.185-1.815 3.681-2.394 1.127-.439 2.823-.959 5.943-1.1 3.373-.156 4.386-.187 12.929-.187 8.545 0 9.556.034 12.932.186 3.12.142 4.813.665 5.942 1.101 1.494.58 2.56 1.275 3.681 2.394s1.812 2.187 2.394 3.68c.439 1.128.959 2.823 1.1 5.943.156 3.376.187 4.387.187 12.932 0 8.543-.031 9.556-.186 12.932-.142 3.12-.664 4.815-1.101 5.942-.582 1.494-1.275 2.56-2.394 3.678-1.12 1.12-2.187 1.813-3.68 2.394-1.128.44-2.823.959-5.943 1.101-3.373.155-4.387.186-12.932.186-8.543 0-9.556-.03-12.93-.186M19.307.194C15.9.349 13.574.889 11.54 1.68c-2.104.817-3.888 1.913-5.669 3.691-1.778 1.779-2.874 3.562-3.69 5.669C1.388 13.074.848 15.4.693 18.807.536 22.22.5 23.31.5 32s.036 9.78.194 13.193c.155 3.407.695 5.733 1.486 7.767.817 2.104 1.91 3.89 3.691 5.669 1.779 1.778 3.562 2.872 5.669 3.69 2.037.792 4.36 1.332 7.767 1.487 3.415.155 4.503.194 13.193.194 8.693 0 9.78-.036 13.193-.194 3.407-.155 5.733-.695 7.767-1.486 2.104-.82 3.888-1.913 5.669-3.691 1.778-1.779 2.872-3.565 3.69-5.669.792-2.034 1.335-4.36 1.487-7.767.155-3.415.191-4.503.191-13.193s-.036-9.78-.19-13.193c-.156-3.407-.696-5.733-1.487-7.767-.82-2.104-1.913-3.888-3.691-5.669-1.779-1.778-3.565-2.874-5.666-3.69C51.426.888 49.1.345 45.696.193 42.283.039 41.193 0 32.503 0c-8.693 0-9.781.036-13.196.194"/></g><defs><clipPath id="a"><path fill="#fff" d="M.5 0h64v64H.5z"/></clipPath></defs></svg>