<svg xmlns="http://www.w3.org/2000/svg" width="55.04" height="64" fill="none" viewBox="0 0 43 50"><g fill="#000" clip-path="url(#a)"><path d="M14.547 44.84a19.762 19.762 0 0 1-10.243-9.13C-.85 26.04 2.812 14.022 12.482 8.87c9.417-5.019 21.06-1.677 26.422 7.433-2.54 5.886-6.591 12.106-11.943 17.895-3.949 4.271-8.187 7.855-12.414 10.643Z"/><path d="M.917 49.53c-2.208-1.66-.077-7.171 2.68-10.912l.853 1.205c-1.025 2.42-2.811 7.34 4.525 1.666 7.336-5.672 19.63-21.48 24.907-31.016 4.222-7.628-.344-5.816-3.083-4.063l-1.201-.645C32.38 3.068 37.228-.18 39.548.84c5.034 2.215 1.286 16.618-10.032 30.583C18.198 45.39 4.032 51.873.917 49.53ZM41.536 24.222c.853 7.824-3.026 15.738-10.396 19.666a19.771 19.771 0 0 1-7.835 2.28c2.565-4.783 6.024-9.69 10.272-14.357a76.358 76.358 0 0 1 7.96-7.59Z"/></g><defs><clipPath id="a"><path fill="#fff" d="M0 0h42.063v50H0z"/></clipPath></defs></svg>