<svg xmlns="http://www.w3.org/2000/svg" width="64" height="64" fill="none" viewBox="0 0 50 50"><g clip-path="url(#a)"><path fill="#081d34" d="M43.22 27.394c0 .444-.175.87-.487 1.183a1.654 1.654 0 0 1-2.348 0 1.68 1.68 0 0 1-.486-1.183V12.446c0-.444.175-.87.486-1.184a1.654 1.654 0 0 1 2.348 0c.312.314.487.74.487 1.183zm-.577 10.357c-.22.221-6.393 5.407-17.713 5.407S7.478 38 7.217 37.778a1.64 1.64 0 0 1-.575-1.12 1.66 1.66 0 0 1 .383-1.203 1.65 1.65 0 0 1 2.332-.18c.096.07 5.612 4.578 15.56 4.578 9.947 0 15.503-4.536 15.558-4.577a1.68 1.68 0 0 1 2.347.18 1.654 1.654 0 0 1-.165 2.309zM6.627 12.446c.025-.446.223-.863.553-1.16a1.65 1.65 0 0 1 2.288.062c.289.293.46.684.48 1.097v14.921c0 .444-.176.87-.487 1.183a1.653 1.653 0 0 1-2.348 0 1.68 1.68 0 0 1-.486-1.183zm8.328-3.32c.025-.444.224-.862.553-1.16a1.67 1.67 0 0 1 1.204-.43c.41.024.796.2 1.085.493.288.294.459.685.479 1.098v22.125c0 .444-.175.87-.486 1.183a1.654 1.654 0 0 1-2.348 0 1.68 1.68 0 0 1-.487-1.183V9.127Zm8.37-.829c0-.444.175-.87.486-1.183a1.654 1.654 0 0 1 2.348 0c.311.314.486.74.486 1.183v24.061c0 .444-.175.87-.486 1.183a1.654 1.654 0 0 1-2.348 0 1.68 1.68 0 0 1-.486-1.183zm8.232.83c0-.444.175-.87.486-1.183a1.654 1.654 0 0 1 2.348 0c.312.313.486.739.486 1.183v22.125c0 .444-.174.87-.486 1.183a1.654 1.654 0 0 1-2.348 0 1.68 1.68 0 0 1-.486-1.183zM43.672 0H6.242a6.2 6.2 0 0 0-2.379.461 6.2 6.2 0 0 0-2.022 1.345A6.3 6.3 0 0 0 .484 3.83 6.3 6.3 0 0 0 0 6.223v37.336c.004.822.168 1.635.484 2.393a6.3 6.3 0 0 0 1.357 2.023 6.2 6.2 0 0 0 2.022 1.345 6.2 6.2 0 0 0 2.38.461h37.43a6.2 6.2 0 0 0 4.397-1.801 6.3 6.3 0 0 0 1.846-4.407V6.223a6.3 6.3 0 0 0-1.837-4.412A6.2 6.2 0 0 0 46.061.465 6.2 6.2 0 0 0 43.686 0"/></g><defs><clipPath id="a"><path fill="#fff" d="M0 0h50v49.782H0z"/></clipPath></defs></svg>