<svg xmlns="http://www.w3.org/2000/svg" width="278.261" height="64" fill="none" viewBox="0 0 100 23"><g fill="#081D34" clip-path="url(#a)"><path d="M34.415 7.917a.86.86 0 0 0-.883-.868.86.86 0 0 0-.884.868v7.046a.86.86 0 0 0 .884.869.853.853 0 0 0 .883-.869zm8.695-.868a.85.85 0 0 0-.872.868v3.01l.05 2.69-1.068-2.52-1.398-2.862c-.43-.893-.92-1.186-1.62-1.186-1.03 0-1.483.648-1.483 1.578v6.336a.85.85 0 0 0 .87.869.85.85 0 0 0 .872-.869l-.013-2.972-.037-3.046 1.141 2.789 1.41 2.911c.442.93.908 1.2 1.62 1.2.92 0 1.398-.564 1.398-1.603V7.917a.85.85 0 0 0-.87-.868m7.381 1.798 2 .049c.466.012.834-.343.834-.856 0-.514-.368-.869-.834-.869L46.7 7.16c-.454 0-.834.355-.834.868 0 .514.38.869.834.857l2.012-.037v6.116a.86.86 0 0 0 .883.869c.527 0 .895-.392.895-.869zm5.926 6.875h4.306a.806.806 0 0 0 .822-.82.81.81 0 0 0-.822-.832l-3.741.013V12.04h3.238c.441 0 .797-.33.797-.783a.78.78 0 0 0-.797-.795l-3.238.024V8.798h3.74a.81.81 0 0 0 .822-.832c0-.49-.367-.82-.821-.82l-4.293.013c-.785 0-1.227.44-1.227 1.223V14.5c0 .782.442 1.223 1.214 1.223Zm12.143-3.486c1.165-.306 1.852-1.212 1.852-2.41 0-1.334-.87-2.667-2.956-2.667h-2.698c-.785 0-1.227.44-1.227 1.223v6.581c0 .478.368.869.908.869.527 0 .908-.392.908-.869l-.013-2.3h1.484l1.51 2.716c.245.416.76.588 1.238.343.478-.257.613-.77.356-1.187zm-3.226-3.45h2.135c.723 0 1.177.452 1.177 1.125 0 .66-.43 1.15-1.153 1.15h-2.159zm10.498 7.094c1.791 0 2.944-.807 3.337-2.115.208-.747-.233-1.285-.896-1.285-.404 0-.674.208-.834.66-.245.686-.846 1.114-1.705 1.114-1.361 0-1.95-.918-1.95-2.826 0-1.872.601-2.765 1.95-2.765.847 0 1.337.355 1.644 1.175.172.465.454.673.87.673.639 0 1.105-.514.908-1.224-.392-1.443-1.533-2.25-3.373-2.25-2.526 0-3.814 1.54-3.814 4.391 0 2.875 1.288 4.453 3.863 4.453Zm8.716-.023c2.6 0 3.888-1.59 3.888-4.429 0-2.862-1.325-4.44-3.888-4.44-2.576 0-3.864 1.602-3.876 4.44 0 2.85 1.312 4.428 3.876 4.428Zm0-1.64c-1.448 0-2.073-.917-2.073-2.789 0-1.896.638-2.813 2.06-2.813 1.436 0 2.11.917 2.098 2.813 0 1.884-.638 2.79-2.085 2.79Zm15.305-5.639c0-.967-.6-1.541-1.533-1.541-.76 0-1.337.415-1.62 1.37l-.944 3.07-.625 2.214-.601-2.214-1.006-3.07c-.282-.893-.773-1.37-1.631-1.37-.945 0-1.534.562-1.534 1.54v6.386c0 .478.344.869.847.869s.846-.392.846-.869l-.012-3.082-.086-3.303.969 3.376 1.03 2.985c.221.66.638.88 1.178.88.503 0 .907-.183 1.116-.856l.981-3.009 1.043-3.4-.098 3.327v3.082c0 .478.355.869.846.869.503 0 .846-.392.846-.869zm-79.999 4.006c0 .204-.08.4-.223.544a.76.76 0 0 1-1.302-.544V5.717c0-.204.08-.4.223-.543a.76.76 0 0 1 1.079 0c.143.144.223.34.223.543zm-.265 4.758c-.1.102-2.937 2.484-8.137 2.484s-8.017-2.37-8.137-2.471a.755.755 0 0 1-.23-.81.8.8 0 0 1 .142-.258.76.76 0 0 1 1.072-.082c.044.032 2.577 2.103 7.147 2.103s7.122-2.084 7.148-2.103a.77.77 0 0 1 1.077.083.76.76 0 0 1-.075 1.06zM3.044 5.717a.78.78 0 0 1 .254-.533.76.76 0 0 1 1.051.029.77.77 0 0 1 .22.504v6.854c0 .204-.08.4-.223.544a.76.76 0 0 1-1.078 0 .77.77 0 0 1-.224-.544zM6.87 4.193a.78.78 0 0 1 .254-.533.76.76 0 0 1 1.051.029.77.77 0 0 1 .22.504v10.163c0 .204-.08.4-.223.544a.76.76 0 0 1-1.302-.544zm3.845-.382c0-.203.08-.399.223-.543a.76.76 0 0 1 1.079 0c.143.144.223.34.223.543v11.054c0 .203-.08.399-.223.543a.76.76 0 0 1-1.302-.543zm3.782.382c0-.204.08-.4.223-.544a.76.76 0 0 1 1.079 0c.143.144.223.34.223.544v10.163c0 .204-.08.4-.223.544a.76.76 0 0 1-1.302-.544zM20.062 0H2.868A2.83 2.83 0 0 0 .846.83 2.87 2.87 0 0 0 0 2.859V20.01a2.9 2.9 0 0 0 .846 2.029 2.85 2.85 0 0 0 2.022.83h17.194a2.83 2.83 0 0 0 2.02-.828 2.87 2.87 0 0 0 .848-2.025V2.86a2.9 2.9 0 0 0-.843-2.027A2.85 2.85 0 0 0 20.068 0"/></g><defs><clipPath id="a"><path fill="#fff" d="M0 0h100v22.869H0z"/></clipPath></defs></svg>