<svg xmlns="http://www.w3.org/2000/svg" width="64" height="64" fill="none" viewBox="0 0 50 50"><g clip-path="url(#a)"><path fill="#f36" d="M45.481 0H4.534A4.526 4.526 0 0 0 .008 4.527v40.928A4.53 4.53 0 0 0 4.534 50h40.928c2.5 0 4.527-2.026 4.527-4.526V4.526A4.5 4.5 0 0 0 45.48 0Z"/><path fill="#fff" d="M16.713 15.739c1.667 0 3.05-1.307 3.05-3.012 0-1.704-1.402-3.011-3.05-3.011-1.666 0-3.049 1.307-3.049 3.011s1.402 3.012 3.05 3.012Zm-6.327 16.117c-.17.758-.265 1.591-.265 2.254 0 2.651 1.44 4.413 4.489 4.413 2.538 0 4.583-1.497 6.06-3.94l-.909 3.618H24.8l2.879-11.534c.72-2.917 2.102-4.432 4.223-4.432 1.667 0 2.69 1.041 2.69 2.746 0 .492-.038 1.042-.228 1.61l-1.477 5.303a8 8 0 0 0-.322 2.254c0 2.519 1.477 4.356 4.584 4.356 2.651 0 4.753-1.705 5.927-5.796l-1.97-.757c-.984 2.746-1.836 3.238-2.518 3.238s-1.042-.454-1.042-1.344c0-.398.095-.853.227-1.402l1.44-5.17c.36-1.212.492-2.292.492-3.277 0-3.863-2.33-5.871-5.17-5.871-2.652 0-5.341 2.386-6.686 4.905l.985-4.507h-7.69L20.065 22.5h3.599l-2.216 8.864c-1.743 3.863-4.924 3.92-5.322 3.844-.663-.151-1.08-.397-1.08-1.25 0-.492.095-1.193.322-2.064l3.371-13.371h-8.541L9.117 22.5h3.542z"/></g><defs><clipPath id="a"><path fill="#fff" d="M0 0h50v50H0z"/></clipPath></defs></svg>