<svg xmlns="http://www.w3.org/2000/svg" width="182.857" height="64" fill="none" viewBox="0 0 100 35"><g clip-path="url(#a)"><path fill="#f36" d="M42.5 12.4h3.8L40.9 26h-3.4L32 12.4h3.9l3.3 9.1zm5 13.5h3.7V12.4h-3.7zm5.4-4.4h3.7c.1.9.7 1.8 2.3 1.8 1.4 0 2.1-.5 2.1-1.2 0-2.3-7.5-.1-7.5-5.5 0-2.5 2.1-4.5 5.4-4.5 4.1 0 5.5 2.6 5.6 4.6H61c-.1-.9-.7-1.6-2-1.6-1.2 0-1.9.6-1.9 1.3 0 2.3 7.5 0 7.5 5.6 0 2.4-2.1 4.3-5.7 4.3-4.3-.1-5.8-2.2-6-4.8m13.5 4.4h3.7V12.4h-3.7zM78.8 23c1.9 0 3.4-1.4 3.4-3.9 0-2.4-1.5-3.9-3.4-3.9s-3.4 1.4-3.4 3.9 1.5 3.9 3.4 3.9m-7.1-3.9c0-3.9 2.8-7.1 7.1-7.1s7.1 3.2 7.1 7.1-2.8 7.1-7.1 7.1-7.1-3.2-7.1-7.1M91 14c.6-1.2 2-2 4-2 3.3 0 5 2.2 5 5.4v8.5h-3.7v-8.1c0-1.6-.7-2.7-2.3-2.7-1.8 0-2.8 1.1-2.8 3v7.8h-3.7V12.4H91z"/><path fill="#f36" d="M0 34.1h34.1V0H0z"/><path fill="#fff" d="M12 10.7c1.1 0 2-.8 2-2 0-1.1-.9-2-2-2s-2 .8-2 2 .9 2 2 2M7.8 21.3c-.1.5-.2 1-.2 1.5 0 1.7.9 2.9 2.9 2.9 1.7 0 3-1 4-2.6l-.6 2.4h3.3l1.9-7.5c.5-1.9 1.4-2.9 2.8-2.9 1.1 0 1.8.7 1.8 1.8 0 .3 0 .7-.1 1.1l-1 3.5c-.1.5-.2 1-.2 1.5 0 1.6 1 2.8 3 2.8 1.7 0 3.1-1.1 3.9-3.8l-1.3-.5c-.6 1.8-1.2 2.1-1.6 2.1s-.7-.3-.7-.9c0-.3.1-.6.1-.9l.9-3.4q.3-1.2.3-2.1c0-2.5-1.5-3.8-3.4-3.8-1.7 0-3.5 1.6-4.4 3.2l.6-2.9h-5l-.7 2.6h2.3L15 20.9c-1.1 2.5-3.2 2.6-3.5 2.5-.4-.1-.7-.3-.7-.8 0-.3.1-.8.2-1.3l2.2-8.7H7.7L7 15.2h2.3z"/></g><defs><clipPath id="a"><path fill="#fff" d="M0 0h100v35H0z"/></clipPath></defs></svg>