<svg xmlns="http://www.w3.org/2000/svg" width="61.538" height="64" fill="none" viewBox="0 0 50 52"><g clip-path="url(#a)"><path fill="#2684FF" d="M49.217 24.15 27.22 2.152 25.087.022.96 24.15a2.025 2.025 0 0 0 0 2.86L16.087 42.14l9 9.002 24.13-24.13c.79-.79.79-2.07 0-2.86Zm-24.13 8.987-7.556-7.556 7.556-7.558 7.558 7.558-7.558 7.556Z"/><path fill="url(#b)" d="M25.091 18.024C20.144 13.074 20.12 5.059 25.04.08L8.5 16.613l9.002 9.002 7.59-7.591Z"/><path fill="url(#c)" d="m32.672 25.56-7.578 7.577a12.727 12.727 0 0 1 0 18.004l16.578-16.579-9-9.002Z"/></g><defs><linearGradient id="b" x1="21.843" x2="13.189" y1="12.279" y2="20.93" gradientUnits="userSpaceOnUse"><stop stop-color="#0052CC"/><stop offset="1" stop-color="#2684FF"/></linearGradient><linearGradient id="c" x1="28.435" x2="37.072" y1="38.8" y2="30.163" gradientUnits="userSpaceOnUse"><stop stop-color="#0052CC"/><stop offset="1" stop-color="#2684FF"/></linearGradient><clipPath id="a"><path fill="#fff" d="M0 0h50v51.163H0z"/></clipPath></defs></svg>