<svg xmlns="http://www.w3.org/2000/svg" width="457.143" height="64" fill="none" viewBox="0 0 100 14"><g clip-path="url(#a)"><path fill="#253858" d="M60.25 1.122c-1.601 0-2.38.944-2.38 2.334v.816h-1.212v1.19h1.217v6.29h1.256v-6.29h1.93v-1.19h-1.93l-.011-.779c0-.673.397-1.137 1.19-1.137q.406-.002.807.075v-1.19a3.1 3.1 0 0 0-.867-.12Zm-37.577.277a.84.84 0 0 0-.807.899.897.897 0 1 0 1.795 0 .838.838 0 0 0-.897-.897 1 1 0 0 0-.091-.002m21.457.376c-2.29 0-3.456 1.132-3.456 2.662 0 1.615.991 2.378 3.201 2.917 1.87.45 2.409.911 2.409 1.78s-.56 1.452-2.04 1.452c-1.3 0-2.707-.344-3.62-.823v1.376c.764.39 1.646.763 3.547.763 2.44 0 3.456-1.153 3.466-2.858 0-1.771-1.167-2.438-3.246-2.962-1.735-.433-2.364-.838-2.364-1.645 0-.898.764-1.346 2.05-1.346a6.03 6.03 0 0 1 3.06.748V2.492c-.673-.377-1.585-.717-3.007-.717m-25.166.15.004 6.925c0 .981-.393 1.661-1.53 1.661a3.8 3.8 0 0 1-1.391-.255v1.309c.52.177 1.066.263 1.615.255 1.857 0 2.649-1.25 2.649-3.06V1.926h-1.347Zm44.007.76V4.28h-1.213v1.19h1.217v3.948c0 1.392.78 2.334 2.38 2.334.294.001.586-.039.868-.12v-1.24a4 4 0 0 1-.808.105c-.792 0-1.182-.449-1.189-1.107V5.462h1.99v-1.19h-1.99V2.686zm33.412 1.432c-2.274 0-3.53 1.615-3.53 3.875 0 2.295 1.225 3.91 4.024 3.91.763 0 1.707-.116 2.32-.447v-1.19a6.6 6.6 0 0 1-2.274.404c-1.766 0-2.588-.822-2.768-2.094h5.458v-.583c0-2.273-.926-3.875-3.23-3.875m-63.492.006c-2.095 0-3.142 1.78-3.142 3.89 0 2.199 1.003 3.889 2.992 3.889 1.151 0 2.049-.508 2.529-1.496l.001 1.346h1.287v-7.48h-1.287v1.316c-.45-.973-1.289-1.465-2.38-1.465m19.434 0c-2.245 0-3.56 1.63-3.56 3.874s1.33 3.91 3.56 3.91 3.53-1.666 3.53-3.91-1.287-3.874-3.53-3.874m30.504 0c-2.095 0-3.142 1.78-3.142 3.89 0 2.199 1.003 3.889 2.992 3.889 1.151 0 2.049-.508 2.528-1.496l.002 1.346h1.287v-7.48H85.21v1.316c-.45-.973-1.289-1.465-2.38-1.465Zm-53.853.035c-1.287-.002-1.977.603-2.384 1.43V4.272h-1.256v7.486h1.256v-4.42c0-1.585 1.003-2.085 2.649-1.915V4.167a4 4 0 0 0-.265-.009m63.103 0c-1.287-.002-1.977.603-2.384 1.43V4.272H88.44v7.486h1.256v-4.42c0-1.585 1.004-2.085 2.65-1.915V4.167a4 4 0 0 0-.266-.009Zm-25.496.114 2.752 7.48h1.646l1.304-3.619.68-2.304.68 2.304 1.287 3.62h1.646l2.752-7.48h-1.42l-2.156 6.342-2.185-6.343h-1.227l-2.183 6.343-2.154-6.343zm-44.477.002v7.48h1.286v-7.48zM96.32 5.297c1.286 0 1.914.794 1.99 2.185h-4.17v-.009c.134-1.297.822-2.183 2.18-2.176m-63.09.016c1.098 0 2.04.733 2.04 2.393v.605c0 1.66-1.032 2.394-2.183 2.394-1.334 0-2.05-.898-2.058-2.7 0-1.735.748-2.692 2.2-2.692Zm49.937 0c1.099 0 2.04.733 2.04 2.393v.605c0 1.66-1.03 2.393-2.183 2.394-1.333 0-2.055-.898-2.055-2.693 0-1.735.753-2.686 2.198-2.7Zm-30.842.013c1.586 0 2.274 1.25 2.274 2.67 0 1.422-.675 2.71-2.274 2.71-1.6 0-2.304-1.288-2.304-2.71h.006c0-1.42.711-2.67 2.298-2.67"/><path fill="#2684FF" d="M12.69 6.475 7.149.933 6.611.396l-6.08 6.08a.51.51 0 0 0 0 .72l3.813 3.812 2.267 2.268 6.08-6.08a.51.51 0 0 0 0-.72ZM6.612 8.74 4.707 6.836l1.904-1.904 1.904 1.904L6.611 8.74Z"/><path fill="url(#b)" d="M6.618 4.932A3.206 3.206 0 0 1 6.604.41L2.437 4.576l2.269 2.268z"/><path fill="url(#c)" d="m8.527 6.83-1.91 1.91a3.206 3.206 0 0 1 0 4.536l4.177-4.177z"/></g><defs><linearGradient id="b" x1="5.799" x2="3.619" y1="3.484" y2="5.664" gradientUnits="userSpaceOnUse"><stop stop-color="#0052CC"/><stop offset="1" stop-color="#2684FF"/></linearGradient><linearGradient id="c" x1="7.459" x2="9.635" y1="10.166" y2="7.99" gradientUnits="userSpaceOnUse"><stop stop-color="#0052CC"/><stop offset="1" stop-color="#2684FF"/></linearGradient><clipPath id="a"><path fill="#fff" d="M0 0h100v13.672H0z"/></clipPath></defs></svg>