<svg xmlns="http://www.w3.org/2000/svg" width="64" height="64" fill="none" viewBox="0 0 50 50"><g clip-path="url(#a)"><path fill="#000" d="M40.625 0H9.375A9.375 9.375 0 0 0 0 9.375v31.25A9.375 9.375 0 0 0 9.375 50h31.25A9.375 9.375 0 0 0 50 40.625V9.375A9.375 9.375 0 0 0 40.625 0Z"/><path fill="#fff" d="M25 40.625c8.63 0 15.625-6.996 15.625-15.625 0-8.63-6.996-15.625-15.625-15.625-8.63 0-15.625 6.996-15.625 15.625 0 8.63 6.996 15.625 15.625 15.625Z"/></g><defs><clipPath id="a"><path fill="#fff" d="M0 0h50v50H0z"/></clipPath></defs></svg>