<svg xmlns="http://www.w3.org/2000/svg" width="70" height="64" fill="none"><g clip-path="url(#a)"><path fill="#fff" d="M37.771 4.362a3.676 3.676 0 1 1 3.49 2.986c-.081.022-.13.032-.201.094-.208.325.53.264.028 1.684 0 0-.003.155-.06.311-.039.545-.248 2.16-.278 3.02.106.124.136.185.125.487-.048.408-.142 1.41-.292 2.05-.128.55-.352.655-.533.79-.255 1.139-.322 2.082-.974 3.466-.06 1.048-.133 1.334-.353 1.846-.025 1.544.082 1.773-.96 4.218-.269 1.144-.013 1.935.27 3.123.291 1.22 1.097 1.73 1.217 2.981.282 2.945.211 4.95-.42 7.258l.55 1.306c.685.314 2.383 1.172 1.442 2.53 1.326.698 3.329 1.438 4.981 2.851.665.553 1.367 1.157 1.997 1.865 1.2.187 1.071.282 1.96.829 2.614 1.603 6.807 4.782 9.237 7.033.418.245.589.42.927.598.053.101.067.125.055.152-.116.294-.111.303-.216.537.13.145.375.28.521.407.137.043.137-.023.371-.08.305.285.683.515.819.502.413-.105.343-.02.692-.41.126-.13.337.001.337.001.131-.154.413-.46.79-.683.3-.176.872-.196.872-.196.192.001.156.198.14.262-.217.112-.676.235-.934.425-.562.58-1.001 1.364-1.001 1.364 1.13-.155 1.825.126 2.767.018.513-.03.892.003 1.432-.387 0 0 .518-.37.983-.565.45-.197.879-.092 1.276.197.28.316.45.318.023.764-.154.174-.377.368-.661.649-.499.492-1.17 1.15-1.865 1.693-.705.55-1.504 1.043-2.002 1.27-1.259.904-.962.668-1.951 1.564-.125.111-.456.311-.617.418-.39.256-.512.043-.766-.427 0 0-.117-.175-.309-.55-.21-.408-.367-.875-.303-.867-.235-.03-1.29-1.267-1.293-1.532-.223-.051-1.175-.973-1.209-1.15l-.843-.675c-.965.2-1.186-.4-3.734-2.207-.291-.005-.74-.162-1.384-.64-1.15-.92-3.908-3.004-4.376-3.242-.502-.256-1.102-.497-1.47-.801-.552-.102-.854-.16-1.13-.236-.281-.077-.538-.177-1.251-.273-1.162-.144-2.366-.625-3.513-1.199-.543-.257-1.016-.388-1.483-.59-1.049-.442-1.948-.84-2.645-1.002-.265-.026-1.529-.405-2.191-.792-.23-.118-.363-.231-.514-.266-.348-.08-.571.057-.729.11-.85.443-1.645.826-2.38 1.221-.685.366-1.315.746-1.983 1.13-.602.349-1.298.677-2.013 1.018 0 0-2.04 1.022-3.154 1.42-.966.789-2.942 2.154-4.148 2.83-.597.284-1.757 1.019-2.292 1.183-.305.246-1.393 1.022-2.244 1.662-.658.492-1.156.907-1.156.907-.382.343-.356.506-1.082.197-.202.166-.358.269-.488.364-.525.38-.57.29-.761.28-.366.316-.412.152-.732.517-.21.325.005.247-.438.405-.094.036-.138.149-.21.211-.356.294-.358 1.123-1.21 1.182-.495.352-.368.778-.746.76.023.365-.668.899-.792.897-1.088.375-1.164-.425-2.47.172-.169.078-.417.291-.743.353-.574.108-1.268-.005-1.692-.333-.666-.514-1.28-1.505-1.28-1.505-.211-.5-.088-.817.573-1.29.276-.175.327-.306.79-.338.23-.087.167.046.577-.101.238-.086.238-.025.717-.066.11-.074.264-.1.47-.167.38-.125.75-.264.75-.264s.096-.097.46-.062c.309-.127.625-.314.788-.372-.041-.488.011-.466.238-.662.282-.243.333-.204.543-.053.088-.051.131-.069.121-.143-.034-.254-.252-.374-.187-.935-.097-.225-.24-.502-.208-.67.046-.18.09-.267.2-.325.117-.062.154.022.217.092.111.13.202.514.202.514.039.433.173.994.602.678.252-.256.301-.939.817-.793l.367.32c.312-.294.327-.294.514-.411 0 0-.292-.296-.036-.526.175-.156.387-.267.763-.684 1.032-1.14 1.562-1.644 2.678-2.563 2.226-1.832 4.76-3.116 6.37-3.755.524-.666 1.035-1.109 2.2-1.22 1.384-2.339 4.036-4.427 4.645-4.76.495-.898.71-.803 1.358-.983.514-.411.63-.411.86-.841.224-.888-.515-3.259 1.37-3.379.4-.566.3-.43.747-.965a8 8 0 0 1-.509-1.905c-.015-.062-.748-.579-.54-1.253-.311-.371-.894-1.236-1.076-1.642-.084.002-.153-.03-.244-.042-.096-.015-.214-.01-.347-.021-.293.757-.613.814-1.135.98-.932 1.987-1.26 2.828-3.897 4.47-1.047 1.172-1.382 2.478-1.377 2.458-.18.387-.116.929-.021 1.22-.138.43-.102.472-.102.472.058.162.207.377.39.423.317.084.634.07.616.423-.043.441-.622.37-.896.32-1.055-.168-.722-.855-1.397-.626-.516.339-.71 1.336-1.553 1.207-.112-.074-.078-.292-.002-.45.118-.246.328-.45.203-.542q-.825.264-1.647.537c-.517.141-1.083-.116-.574-.456.236-.092.574-.207.99-.474 0 0 .215-.292-.196-.146-.45.16-1.113.26-1.588.208 0 0-.987-.13-1.113-.207-.128-.077-.245-.382.064-.38.39.003 1.368-.112 2.126-.314.366-.143 1.062-.554 1.453-.748 0 0 .423-.617.656-.738.389-.448.717-.712 1.061-1.17.337-.695.685-1.794 1.799-3.495.515-.785 1.155-1.698 1.96-2.515 0 0 .209-1.308 1.257-2.238.232-.545.583-1.187.93-1.78.134-.229.262-.427.39-.644.325-.51.666-1.46 1.933-1.61 0 0 .541-.4.75-.684.325-.278.25-.709.515-1.013-.404-.393-1.436-1.134-1.536-2.162a3.21 3.21 0 0 1 .942-2.654c.731-.731 1.503-1.097 2.44-1.041 1.17.173 1.39.56 1.763.945.358.364.49.13.642.556.981.26.927.146.918.868.151.203.404.392.4.814.33-.684.396-.81 1.277-1.564.209-.612.35-1.214.533-1.826.172-.566.386-1.148.551-1.587-.175-1.237.185-1.442.666-2.526-.085-.15-.067-.192-.03-.437.186-.717.478-1.665.652-2.284 0 0 .057-.246.312-.264.22-.783.55-2.24.605-2.537.227-.819.08-1.081-.093-1.542-.056-.151-.03-.366-.126-.534a19 19 0 0 1-.77-1.54c-.13-.283-.334-1.346-.334-1.346-.177-.543-.024 0-.024 0"/></g><defs><clipPath id="a"><path fill="#fff" d="M.5 0h68.611v64H.5z"/></clipPath></defs></svg>