<svg xmlns="http://www.w3.org/2000/svg" width="355.556" height="64" fill="none" viewBox="0 0 100 18"><g clip-path="url(#a)"><path fill="#0A1551" fill-rule="evenodd" d="M69.965 13.806a2.3 2.3 0 0 1-1.649-.664c-.436-.436-.73-1.098-.73-1.992 0-.905.294-1.564.73-2a2.3 2.3 0 0 1 1.649-.654c.62 0 1.212.218 1.648.654s.728 1.095.728 2-.292 1.564-.728 2a2.3 2.3 0 0 1-1.648.654zm0-8.201c-3.156 0-5.545 2.321-5.545 5.545 0 3.201 2.39 5.545 5.545 5.545s5.545-2.344 5.545-5.545c0-3.224-2.39-5.545-5.545-5.545M43.73 13.883a2.3 2.3 0 0 1-1.648-.665c-.436-.436-.728-1.095-.728-1.99 0-.904.295-1.566.728-2a2.3 2.3 0 0 1 1.651-.656c.621 0 1.213.22 1.649.654.436.436.727 1.098.727 2 0 .905-.294 1.567-.727 2a2.3 2.3 0 0 1-1.652.657m0-8.202c-3.152 0-5.542 2.324-5.542 5.545 0 3.204 2.39 5.545 5.542 5.545 3.156 0 5.545-2.343 5.545-5.545 0-3.22-2.39-5.542-5.542-5.542zm40.4 10.978h3.148v-6.25c0-.518.163-.968.447-1.284a1.6 1.6 0 0 1 1.242-.517c.567 0 .954.19 1.202.48.253.293.382.721.382 1.239v6.332h3.127v-6.25c0-.504.164-.954.447-1.278a1.58 1.58 0 0 1 1.221-.523c.58 0 .965.19 1.21.48.25.293.376.721.376 1.239v6.332h3.065V9.766c0-1.41-.463-2.436-1.196-3.107-.727-.667-1.697-.964-2.67-.964-.695 0-1.33.12-1.9.406a3.65 3.65 0 0 0-1.29 1.106c-.609-.989-1.718-1.512-3.025-1.512-.96 0-2.063.381-2.76 1.117v-.861H84.13zm-1.184-10.7v3.207l-.246-.049a4 4 0 0 0-.779-.079c-.668 0-1.262.164-1.687.561-.422.396-.713 1.052-.713 2.11v4.95h-3.14V5.951h3.058v1.035c.755-.91 1.929-1.09 2.667-1.09.235 0 .45.025.654.044l.186.02ZM26.352 11.5h3.068l.035.035a.14.14 0 0 1 .041.09 2.17 2.17 0 0 0 .72 1.518c.403.33.912.503 1.433.49a1.99 1.99 0 0 0 1.54-.651 2.43 2.43 0 0 0 .552-1.63v-8.97h3.319v9.063c0 2.902-2.22 5.327-5.39 5.327-1.58 0-2.91-.526-3.842-1.439-.91-.89-1.452-2.163-1.476-3.71zm37.623-7.665.175.052V1.455l-.082-.035a2.4 2.4 0 0 0-.547-.145 5 5 0 0 0-.782-.062c-1.082 0-2.297.36-2.927 1.005-.63.643-.978 1.561-.978 2.662v.512h-1.58v2.79h1.58v8.477h3.174V8.183h2.142v-2.79h-2.142v-.475c0-.493.172-.779.393-.943a1.34 1.34 0 0 1 .8-.231c.41 0 .65.054.774.09Zm-7.858 10.321.164-.051v2.438l-.077.038c-.114.055-.3.107-.515.145a5 5 0 0 1-.735.06c-1.014 0-2.153-.36-2.744-1.008-.591-.646-.918-1.567-.918-2.67V8.182h-1.485V5.406h1.485V2.398h2.978v3.01h2.01v2.78h-2.01v4.88c0 .496.163.782.37.948.213.172.494.232.752.232.385 0 .608-.055.725-.09v-.003Z" clip-rule="evenodd"/><path fill="#0A1551" d="M4.477 17.093c.338.327.098.89-.382.89H1.076A1.063 1.063 0 0 1 0 16.938v-2.92c0-.47.58-.7.921-.371z"/><path fill="#FFB629" d="M9.192 17.319a2.263 2.263 0 0 1 0-3.21l3.22-3.199a2.294 2.294 0 0 1 3.232 0 2.26 2.26 0 0 1 0 3.21l-3.22 3.199a2.294 2.294 0 0 1-3.232 0"/><path fill="#09F" d="M.684 9.278a2.26 2.26 0 0 1 0-3.21L6.104.681a2.294 2.294 0 0 1 3.231 0 2.26 2.26 0 0 1 0 3.21L3.913 9.278a2.294 2.294 0 0 1-3.23 0Z"/><path fill="#FF6100" d="M5.113 13.12a2.26 2.26 0 0 1 0-3.21l7.322-7.275a2.294 2.294 0 0 1 3.232 0 2.26 2.26 0 0 1 0 3.21L8.345 13.12a2.294 2.294 0 0 1-3.232 0"/></g><defs><clipPath id="a"><path fill="#fff" d="M0 0h100v17.984H0z"/></clipPath></defs></svg>