<svg width="45" height="50" viewBox="0 0 45 50" fill="none" xmlns="http://www.w3.org/2000/svg">
<g clip-path="url(#clip0_1_2254)">
<path d="M12.2612 46.8132C13.1866 47.7087 12.5299 49.2535 11.2164 49.2535H2.94776C2.17712 49.2634 1.43399 48.9673 0.881373 48.4301C0.32876 47.8929 0.0117925 47.1584 0 46.3878V38.3878C0 37.1042 1.58955 36.4699 2.52239 37.3729L12.2612 46.8132Z" fill="#0A1551"/>
<path d="M25.1659 47.4329C24.586 46.8572 24.1258 46.1724 23.8117 45.418C23.4977 44.6636 23.3359 43.8546 23.3359 43.0374C23.3359 42.2202 23.4977 41.4111 23.8117 40.6568C24.1258 39.9024 24.586 39.2176 25.1659 38.6419L33.9868 29.8807C35.1637 28.7131 36.7544 28.058 38.4121 28.058C40.07 28.058 41.6606 28.7131 42.8375 29.8807C43.4174 30.4564 43.8777 31.1412 44.1917 31.8956C44.5058 32.6499 44.6674 33.459 44.6674 34.2762C44.6674 35.0934 44.5058 35.9024 44.1917 36.6568C43.8777 37.4112 43.4174 38.096 42.8375 38.6717L34.0166 47.4329C32.8397 48.6004 31.2491 49.2556 29.5912 49.2556C27.9335 49.2556 26.3428 48.6004 25.1659 47.4329Z" fill="#FFB629"/>
<path d="M1.86899 25.4104C1.28911 24.8347 0.828882 24.1499 0.514815 23.3956C0.200752 22.6412 0.0390625 21.8321 0.0390625 21.0149C0.0390625 20.1978 0.200752 19.3887 0.514815 18.6343C0.828882 17.8799 1.28911 17.1951 1.86899 16.6194L16.7123 1.86566C17.8892 0.698113 19.4798 0.0429688 21.1377 0.0429688C22.7954 0.0429688 24.3861 0.698113 25.5631 1.86566C26.1429 2.4414 26.6031 3.12619 26.9172 3.88058C27.2313 4.63496 27.393 5.44404 27.393 6.26119C27.393 7.07834 27.2313 7.88743 26.9172 8.64184C26.6031 9.39617 26.1429 10.0809 25.5631 10.6567L10.7123 25.4104C9.53567 26.5757 7.94664 27.2294 6.29063 27.2294C4.63464 27.2294 3.0456 26.5757 1.86899 25.4104Z" fill="#0099FF"/>
<path d="M14.0018 35.9328C13.4219 35.3571 12.9617 34.6723 12.6476 33.9179C12.3335 33.1635 12.1719 32.3544 12.1719 31.5373C12.1719 30.7201 12.3335 29.911 12.6476 29.1566C12.9617 28.4023 13.4219 27.7175 14.0018 27.1418L34.054 7.21638C35.2309 6.04882 36.8216 5.39368 38.4794 5.39368C40.1372 5.39368 41.7279 6.04882 42.9048 7.21638C43.4846 7.79208 43.9449 8.47693 44.259 9.23126C44.573 9.98566 44.7347 10.7948 44.7347 11.6119C44.7347 12.429 44.573 13.2381 44.259 13.9925C43.9449 14.7469 43.4846 15.4317 42.9048 16.0075L22.8525 35.9328C21.6756 37.1004 20.0849 37.7555 18.4272 37.7555C16.7693 37.7555 15.1787 37.1004 14.0018 35.9328Z" fill="#FF6100"/>
</g>
<defs>
<clipPath id="clip0_1_2254">
<rect width="44.7761" height="50" fill="white"/>
</clipPath>
</defs>
</svg>
