<svg xmlns="http://www.w3.org/2000/svg" width="139.13" height="64" fill="none" viewBox="0 0 50 23"><g clip-path="url(#a)"><path fill="#FF7E61" d="M24.348 4.625c1.21 0 2.192-.984 2.192-2.198A2.195 2.195 0 0 0 24.348.228c-1.21 0-2.192.984-2.192 2.199s.982 2.198 2.192 2.198"/><path fill="#3C4151" d="m5.833 11.712 5.623-5.64a.156.156 0 0 0-.11-.266H6.803c-.04 0-.08.017-.11.045L3.766 8.788V1.074A.156.156 0 0 0 3.553.93L.339 2.235a.155.155 0 0 0-.097.145v15.192a.26.26 0 0 0 .258.259h3.008a.26.26 0 0 0 .258-.259v-2.937l3.145 3.153a.16.16 0 0 0 .11.045l4.545-.002a.156.156 0 0 0 .11-.265zm17.011 6.118h3.007a.26.26 0 0 0 .259-.258V6.067a.26.26 0 0 0-.259-.259h-3.007a.26.26 0 0 0-.258.26v11.506a.26.26 0 0 0 .258.257Z"/><path fill="#3C4151" fill-rule="evenodd" d="M44.151 5.821c2.956.203 5.35 2.605 5.556 5.567.243 3.517-2.527 6.443-5.977 6.445a5.95 5.95 0 0 1-2.472-.537v3.895c0 .105-.063.2-.162.239l-3.149 1.28a.155.155 0 0 1-.213-.145V11.82h.002c0-3.464 2.913-6.24 6.415-5.999m-2.893 5.999a2.476 2.476 0 0 0 2.471 2.479 2.475 2.475 0 0 0 2.47-2.48 2.475 2.475 0 0 0-2.47-2.479 2.476 2.476 0 0 0-2.471 2.48" clip-rule="evenodd"/><path fill="#3C4151" d="M32.044 8.704c.01 0 .024 0 .034.002.579-.024 1.1.347 1.523.928a.254.254 0 0 0 .301.084l2.423-.977a.26.26 0 0 0 .142-.341c-.61-1.472-2.461-2.592-4.425-2.592-2.564 0-4.647 1.636-4.647 3.653 0 1.081.628 2.02 1.491 2.633.774.55 1.7.906 2.611 1.143l.046.012.045.012c1.23.274 1.407.6 1.407.921 0 .419-.506.758-1.127.758-.644.04-1.214-.402-1.661-1.075a.256.256 0 0 0-.31-.093l-2.394.984a.26.26 0 0 0-.142.335c.686 1.864 2.536 2.744 4.506 2.744 2.565 0 4.647-1.633 4.647-3.653 0-.44-.1-.86-.282-1.251-.174-.373-.628-1.167-1.803-1.718-.292-.136-.811-.318-1.357-.509-.705-.246-1.453-.508-1.813-.708-.22-.12-.345-.321-.345-.535 0-.418.508-.757 1.13-.757M21.347 6.022a.156.156 0 0 0-.144-.214h-2.27c-3.302 0-5.98 2.687-5.98 5.999v5.765a.26.26 0 0 0 .258.259h3.007a.255.255 0 0 0 .256-.257v-5.767a2.464 2.464 0 0 1 2.461-2.469h.951a.15.15 0 0 0 .142-.095z"/></g><defs><clipPath id="a"><path fill="#fff" d="M0 0h50v22.727H0z"/></clipPath></defs></svg>