<svg xmlns="http://www.w3.org/2000/svg" width="139.13" height="64" fill="none" viewBox="0 0 100 46"><g clip-path="url(#a)"><path fill="#FF7E61" d="M48.697 9.25a4.39 4.39 0 0 0 4.383-4.396A4.39 4.39 0 0 0 48.697.456a4.39 4.39 0 0 0-4.385 4.398 4.39 4.39 0 0 0 4.385 4.397Z"/><path fill="#3C4151" d="m11.658 23.423 11.246-11.28a.312.312 0 0 0-.22-.53h-9.086a.32.32 0 0 0-.22.09l-5.854 5.873V2.148a.31.31 0 0 0-.426-.289L.67 4.47a.31.31 0 0 0-.193.29v30.384c0 .285.232.518.516.518h6.014a.52.52 0 0 0 .517-.518v-5.873l6.29 6.305c.055.056.137.09.219.09l9.09-.004a.312.312 0 0 0 .22-.531zm34.03 12.239h6.015a.52.52 0 0 0 .516-.518v-23.01a.52.52 0 0 0-.516-.518h-6.015a.52.52 0 0 0-.516.518v23.014a.517.517 0 0 0 .516.514"/><path fill="#3C4151" fill-rule="evenodd" d="M88.302 11.642c5.911.406 10.7 5.21 11.113 11.134.486 7.034-5.055 12.886-11.956 12.89-1.764 0-3.438-.388-4.943-1.074v7.789a.51.51 0 0 1-.323.48l-6.298 2.558a.31.31 0 0 1-.426-.289V23.64h.004c0-6.927 5.825-12.481 12.83-11.998ZM82.516 23.64c0 2.736 2.211 4.959 4.943 4.959 2.728 0 4.939-2.223 4.939-4.959s-2.211-4.958-4.939-4.958c-2.732 0-4.943 2.222-4.943 4.958" clip-rule="evenodd"/><path fill="#3C4151" d="M64.096 17.408a.4.4 0 0 1 .068.004c1.158-.047 2.199.695 3.046 1.856a.51.51 0 0 0 .603.168l4.844-1.955a.52.52 0 0 0 .284-.682c-1.218-2.943-4.922-5.183-8.85-5.183-5.128 0-9.292 3.271-9.292 7.306 0 2.162 1.256 4.04 2.981 5.265 1.549 1.1 3.399 1.813 5.223 2.287l.09.024.09.024c2.461.548 2.814 1.2 2.814 1.843 0 .837-1.01 1.514-2.254 1.514-1.287.082-2.427-.803-3.322-2.149a.51.51 0 0 0-.619-.186l-4.788 1.968a.52.52 0 0 0-.284.67c1.372 3.728 5.072 5.488 9.013 5.488 5.128 0 9.292-3.266 9.292-7.306 0-.88-.197-1.721-.563-2.502-.348-.747-1.256-2.335-3.605-3.436-.586-.272-1.624-.636-2.715-1.017-1.41-.494-2.906-1.017-3.627-1.416-.439-.242-.688-.643-.688-1.07 0-.838 1.015-1.515 2.258-1.515Zm-21.41-5.364a.312.312 0 0 0-.289-.428H37.86c-6.604 0-11.96 5.373-11.96 11.997v11.53c0 .286.232.519.516.519h6.014a.51.51 0 0 0 .512-.514V23.613a4.93 4.93 0 0 1 4.922-4.937h1.901a.3.3 0 0 0 .284-.19z"/></g><defs><clipPath id="a"><path fill="#fff" d="M0 0h100v45.455H0z"/></clipPath></defs></svg>