<svg xmlns="http://www.w3.org/2000/svg" width="345.043" height="64" fill="none" viewBox="0 0 124 23"><g fill-rule="evenodd" clip-path="url(#a)" clip-rule="evenodd"><path fill="#16b8a2" d="m9.578 16.422-5.496-5.52a2.384 2.384 0 0 0-3.382 0 2.41 2.41 0 0 0 0 3.397l7.187 7.22a2.384 2.384 0 0 0 3.382 0l6.765-6.796-3.382-3.398z"/><path fill="#ffb41f" d="M30.29 5.806 19.722 16.422 9.152 5.804a2.383 2.383 0 0 0-3.381 0 2.41 2.41 0 0 0 0 3.398l12.26 12.316a2.384 2.384 0 0 0 3.382 0l12.26-12.315a2.41 2.41 0 0 0 0-3.397 2.384 2.384 0 0 0-3.383 0"/><path fill="#f56358" d="m38.75 14.3-7.185 7.218a2.383 2.383 0 0 1-3.382 0L10.849 4.105a2.41 2.41 0 0 1 0-3.397 2.383 2.383 0 0 1 3.382 0l15.643 15.714 5.494-5.52a2.384 2.384 0 0 1 3.382 0 2.41 2.41 0 0 1 0 3.398"/><path fill="#16b8a2" d="M28.598.709a2.384 2.384 0 0 0-3.382 0L14.648 11.325l3.382 3.398L28.598 4.107a2.41 2.41 0 0 0 0-3.398"/><path fill="#0e0e29" d="M51.831 2.368h-2.94v17.354h10.775v-2.62H51.83V2.368Zm14.2 5.218c1.788 0 2.987.732 3.646 1.63l.141-1.394h2.541v11.9h-2.54l-.142-1.393c-.659.898-1.858 1.63-3.647 1.63-3.223 0-5.41-2.621-5.41-6.187 0-3.589 2.187-6.186 5.41-6.186Zm.611 2.503c-1.835 0-3.152 1.44-3.152 3.683s1.317 3.684 3.152 3.684c1.412 0 2.259-.756 2.894-1.771V11.86c-.635-1.015-1.482-1.771-2.894-1.771m12.835-6.257h-2.823v3.99h-2.236v2.409h2.236v5.289c0 2.88 1.717 4.438 4.423 4.438 1.176 0 2.046-.33 2.635-.708l-.753-2.22c-.353.213-.87.378-1.624.378-1.105 0-1.858-.708-1.858-1.912V10.23h3.576V7.822h-3.576zm9.729 0h-2.823v3.99h-2.236v2.409h2.236v5.289c0 2.88 1.717 4.438 4.423 4.438 1.176 0 2.046-.33 2.635-.708l-.753-2.22c-.353.213-.87.378-1.624.378-1.105 0-1.858-.708-1.858-1.912V10.23h3.576V7.822h-3.576zm8.952 3.99h-2.823v11.9h2.823zm-1.411-5.548c-.988 0-1.741.732-1.741 1.747s.753 1.747 1.74 1.747c1.013 0 1.765-.732 1.765-1.747s-.752-1.747-1.764-1.747m9.941 5.312c-3.647 0-6.07 2.597-6.07 6.186 0 3.566 2.447 6.186 6.093 6.186 2.141 0 3.764-.968 4.823-2.62l-2.023-1.582c-.565.944-1.482 1.723-2.776 1.723-2.094 0-3.247-1.629-3.247-3.707 0-2.101 1.106-3.707 3.223-3.707 1.318 0 2.188.756 2.729 1.7l2.047-1.558c-1.059-1.653-2.635-2.62-4.799-2.62Zm11.752 0c3.647 0 5.435 2.74 5.435 6.068v.992h-8.376c.071 1.889 1.2 2.928 3.176 2.928 1.388 0 2.4-.614 2.941-1.37l1.953 1.606c-1.177 1.417-2.729 2.148-4.917 2.148-3.67 0-6.023-2.597-6.023-6.162 0-3.589 2.4-6.21 5.811-6.21m-.047 2.267c-1.67 0-2.8 1.11-2.894 2.762h5.6c-.071-1.629-1.012-2.762-2.706-2.762"/></g><defs><clipPath id="a"><path fill="#fff" d="M0 0h124v23H0z"/></clipPath></defs></svg>