<svg xmlns="http://www.w3.org/2000/svg" width="110.345" height="64" fill="none" viewBox="0 0 50 29"><path fill="#16B8A2" fill-rule="evenodd" d="m11.973 20.528-6.87-6.901a2.98 2.98 0 0 0-4.228 0 3.013 3.013 0 0 0 0 4.247l8.984 9.024a2.98 2.98 0 0 0 4.228 0l8.455-8.494-4.227-4.247z" clip-rule="evenodd"/><path fill="#FFB41F" fill-rule="evenodd" d="m37.868 7.257-13.21 13.27-13.211-13.27a2.98 2.98 0 0 0-4.228 0 3.013 3.013 0 0 0 0 4.246l15.325 15.396a2.98 2.98 0 0 0 4.228 0l15.324-15.394a3.013 3.013 0 0 0 0-4.247 2.98 2.98 0 0 0-4.228 0Z" clip-rule="evenodd"/><path fill="#F56358" fill-rule="evenodd" d="m48.44 17.875-8.982 9.023a2.98 2.98 0 0 1-4.228 0L13.563 5.131a3.013 3.013 0 0 1 0-4.246 2.98 2.98 0 0 1 4.228 0l19.553 19.643 6.868-6.9a2.98 2.98 0 0 1 4.228 0 3.013 3.013 0 0 1 0 4.247" clip-rule="evenodd"/><path fill="#16B8A2" fill-rule="evenodd" d="M35.75.886a2.98 2.98 0 0 0-4.228 0l-13.21 13.27 4.228 4.248 13.21-13.27a3.013 3.013 0 0 0 0-4.248" clip-rule="evenodd"/></svg>