<svg xmlns="http://www.w3.org/2000/svg" width="66.667" height="64" fill="none" viewBox="0 0 50 48"><g clip-path="url(#a)"><path fill="#242424" d="M24.612 47.947a1.12 1.12 0 0 1-.956-.582c-.16-.372-.16-.742.106-1.06l11.324-15.524-19.83 8.054c-.16.052-.266.106-.424.106a1.036 1.036 0 0 1-1.01-.742c-.16-.424.052-.9.424-1.166l17.438-10.224-30.674-1.75A1.05 1.05 0 0 1 0 23.999c0-.476.318-1.006 1.01-1.06l30.674-1.746-17.438-10.226c-.372-.264-.584-.74-.424-1.166a1.08 1.08 0 0 1 1.01-.74c.158 0 .264.052.424.104l19.83 8.054L23.762 1.643c-.212-.32-.266-.742-.106-1.06A1.01 1.01 0 0 1 24.612 0c.266 0 .532.106.744.318l22.542 22.41c.31.33.48.767.478 1.22 0 .422-.16.846-.478 1.216L25.356 47.629a1.05 1.05 0 0 1-.744.318"/></g><defs><clipPath id="a"><path fill="#fff" d="M0 0h50v48H0z"/></clipPath></defs></svg>