<svg xmlns="http://www.w3.org/2000/svg" width="400" height="64" fill="none" viewBox="0 0 100 16"><g fill="#1D1D1B" clip-path="url(#a)"><path d="M6.05 11.91v-1.464H1.719v-7.07H.062v8.599H6.05v-.064Zm4.14-.254c.382-.255.637-.637.828-1.083v1.338h1.592V7.77c0-.446-.127-.828-.318-1.21a1.908 1.908 0 0 0-.956-.765c-.382-.19-.891-.318-1.465-.318-.318 0-.637.063-.891.063-.319.064-.574.128-.828.255-.255.128-.51.191-.701.382l.064 1.465A4.823 4.823 0 0 1 8.66 7.07a3.708 3.708 0 0 1 1.21-.191c.383 0 .637.064.828.255.191.19.319.382.319.637v.446H9.617c-.828 0-1.529.19-1.975.51-.51.381-.7.827-.7 1.464 0 .382.063.637.254.955.191.319.382.51.7.637.32.192.638.255 1.02.255.51 0 .892-.127 1.274-.382Zm-1.401-1.083c-.191-.127-.255-.318-.255-.573 0-.318.127-.51.382-.637a2.463 2.463 0 0 1 1.083-.255h1.019v.255c0 .191-.064.382-.191.637-.128.191-.319.382-.51.573-.255.128-.51.255-.828.255-.318 0-.573-.127-.7-.255Zm8.79 1.083c.382-.318.636-.764.827-1.274v1.593H20V5.732h-1.593v2.93c0 .446-.063.765-.19 1.083a1.74 1.74 0 0 1-.574.765c-.255.19-.573.254-.892.254-.382 0-.637-.127-.828-.318-.19-.191-.318-.51-.318-.892V5.732h-1.592v3.886c0 .828.19 1.401.573 1.847.382.446.891.637 1.528.637s1.083-.127 1.465-.446Zm5.732.255V8.98c0-.446.064-.764.191-1.083a1.74 1.74 0 0 1 .573-.764c.255-.191.51-.255.828-.255.382 0 .637.127.828.318.191.192.319.51.319.892v3.886h1.592V8.088c0-.828-.191-1.401-.573-1.847-.382-.446-.892-.637-1.529-.637-.573 0-1.019.191-1.401.446-.382.318-.637.764-.828 1.274V5.732h-1.592v6.179h1.592Zm9.745.127c.191-.063.382-.063.573-.127.192-.064.319-.127.51-.191V10.19c-.255.127-.51.191-.828.319-.319.063-.573.127-.892.127-.446 0-.764-.064-1.083-.255-.318-.127-.51-.382-.637-.637s-.19-.573-.19-.955.063-.637.19-.956c.128-.254.383-.51.637-.637.319-.19.637-.254 1.02-.254.318 0 .636.063.891.127.319.064.574.191.764.319v-1.53c-.19-.063-.382-.127-.509-.19-.191-.064-.382-.064-.573-.128-.191-.063-.446-.063-.637-.063-.7 0-1.338.127-1.847.446-.51.318-.956.7-1.21 1.21-.319.51-.446 1.083-.446 1.72 0 .636.127 1.21.445 1.656.319.445.701.891 1.21 1.146a4.16 4.16 0 0 0 1.848.446c.318 0 .573 0 .764-.064Zm4.077-.127V8.98c0-.446.063-.764.19-1.083.128-.318.32-.573.574-.764.255-.191.51-.255.828-.255.382 0 .637.127.828.318.191.192.318.51.318.892v3.886h1.593V8.088c0-.828-.191-1.401-.573-1.847-.383-.446-.892-.637-1.53-.637-.572 0-1.018.191-1.4.446-.383.318-.637.764-.828 1.274v-3.95H35.54v8.6h1.593v-.064Zm9.49 0c.892 0 1.72-.191 2.357-.51.637-.382 1.146-.828 1.465-1.465.318-.637.51-1.401.51-2.229 0-.828-.192-1.592-.51-2.23-.319-.636-.828-1.146-1.465-1.528-.637-.382-1.402-.51-2.357-.51h-3.312v8.6l3.312-.128Zm-1.656-1.401V4.84h1.656c.828 0 1.465.256 1.91.765.447.51.701 1.21.701 2.102 0 .892-.254 1.592-.7 2.102-.446.51-1.147.764-1.911.764h-1.656v-.063Zm10.127 1.146c.383-.255.637-.637.828-1.083v1.338h1.593V7.77c0-.446-.128-.828-.319-1.21a1.908 1.908 0 0 0-.955-.765c-.382-.127-.892-.318-1.465-.318-.319 0-.637.063-.892.063-.318.064-.573.128-.828.255-.255.128-.51.191-.7.382l.063 1.465a4.823 4.823 0 0 1 1.147-.573 3.708 3.708 0 0 1 1.21-.191c.382 0 .637.064.828.255.191.19.318.382.318.637v.446h-1.4c-.829 0-1.53.19-1.975.51-.51.381-.701.827-.701 1.464 0 .382.064.637.255.955.19.319.382.51.7.637.319.192.637.255 1.02.255.509 0 .955-.127 1.273-.382Zm-1.4-1.083c-.192-.127-.256-.318-.256-.573 0-.318.128-.51.383-.637a2.463 2.463 0 0 1 1.082-.255h1.02v.255c0 .191-.064.382-.192.637-.127.191-.318.382-.51.573-.254.128-.509.191-.764.191-.318.064-.573-.063-.764-.19Zm7.005 1.338V9.236c0-.701.128-1.21.446-1.593.319-.382.7-.51 1.21-.51.255 0 .446.064.637.128V5.732c-.127-.063-.19-.063-.318-.063h-.319c-.382 0-.7.127-1.019.382-.254.255-.51.637-.637 1.146V5.732h-1.592v6.179H60.7Zm4.905 0V9.873l.573-.51 1.847 2.548h1.911L67.26 8.28l2.611-2.612h-1.974l-2.293 2.165V3.248H64.01v8.6h1.593v.063Zm6.879 0V3.376H70.89v8.599h1.593v-.064Zm2.484 2.357c.573 0 1.083-.128 1.465-.383.382-.254.7-.637.955-1.274l2.867-6.942h-1.657L76.941 10l-1.783-4.268h-1.656l2.548 6.179-.128.318c-.063.191-.19.383-.318.446-.128.128-.382.128-.637.128h-1.338v1.4h1.338v.065ZM91.911 15.287a.35.35 0 0 1-.318-.192c-.064-.127-.064-.254.063-.318l3.631-4.968-6.306 2.548c-.063 0-.063.063-.127.063-.127 0-.319-.127-.319-.254a.306.306 0 0 1 .128-.383l5.541-3.248-9.745-.573c-.191 0-.318-.191-.318-.319 0-.127.127-.318.318-.318l9.745-.573-5.541-3.249a.306.306 0 0 1-.127-.382c.063-.127.19-.255.318-.255.064 0 .064 0 .127.064l6.306 2.548L91.657.51c-.064-.128-.064-.255-.064-.319A.35.35 0 0 1 91.91 0c.064 0 .191.064.255.127l7.198 7.134c.127.128.127.255.127.382 0 .128-.064.255-.127.382l-7.198 7.134c-.127.064-.191.128-.255.128Z"/></g><defs><clipPath id="a"><path fill="#fff" d="M0 0h100v15.287H0z"/></clipPath></defs></svg>