<svg xmlns="http://www.w3.org/2000/svg" width="139.13" height="64" fill="none" viewBox="0 0 100 46"><g fill="#292D33" clip-path="url(#a)"><path d="M0 3.698V2.075h9.962v1.623l-2.49.227c0 1.207-.038 2.49-.038 3.735v8.831c0 1.207.038 2.452.038 3.698h5.207l.83-4.227h2.453l-.302 5.925H0v-1.623l2.264-.226c.038-1.208.076-2.415.076-3.623V7.698c0-1.245 0-2.49-.076-3.736zM28.757 22.34c-1.774 0-2.868-.717-3.321-2.189a12.7 12.7 0 0 1-1.849 1.623c-.755.415-1.585.641-2.453.603a4.15 4.15 0 0 1-2.868-.98c-.717-.68-1.094-1.623-1.094-2.869 0-.679.15-1.358.49-1.962a4.5 4.5 0 0 1 1.736-1.623 17.4 17.4 0 0 1 3.585-1.434c.302-.113.642-.188 1.057-.302l1.245-.301v-.982c0-1.358-.15-2.264-.49-2.754s-.982-.717-1.963-.717h-.377c-.151 0-.264 0-.415.038l-.151 1.32c0 .981-.264 1.698-.68 2.151-.377.415-.943.68-1.509.68-1.094 0-1.773-.491-2.038-1.51.076-1.245.717-2.264 1.887-3.057 1.17-.792 2.868-1.17 5.057-1.17 1.924 0 3.32.453 4.15 1.321s1.246 2.34 1.246 4.378v6.755c0 .565.227.867.68.867a.73.73 0 0 0 .452-.15c.189-.152.34-.34.453-.529l.83.529a3.8 3.8 0 0 1-1.434 1.735c-.717.378-1.471.566-2.226.529m-7.132-4.604a2.37 2.37 0 0 0 .528 1.66c.34.34.793.566 1.283.528.226 0 .49-.037.68-.15a5.6 5.6 0 0 0 1.131-.68V14.19c-.264.075-.528.15-.754.264-.227.113-.453.189-.642.264-.641.264-1.207.641-1.622 1.207a2.58 2.58 0 0 0-.604 1.812Zm21.359 4.528-.189-2.528a7.7 7.7 0 0 1-2.189 1.962c-.83.453-1.735.717-2.679.68a4.1 4.1 0 0 1-3.094-1.246c-.793-.83-1.17-2.226-1.132-4.226l.113-7.359-1.736-.377V7.925l6.151-.868.49.34-.226 4.226v5.358c0 .906.151 1.585.453 1.925.302.377.717.566 1.208.528.452 0 .905-.151 1.32-.377a6.4 6.4 0 0 0 1.283-.981l.114-8.529-1.66-.377V7.962l6-.98.49.339-.076 4.264v8.566l1.585.34v1.433zm7.319-.34v-1.433l1.623-.378c.038-.717.038-1.51.038-2.34v-5.886c0-.453-.038-.981-.076-1.585l-1.849-.264v-1.17l5.962-2.038.529.34.188 2.188a7.8 7.8 0 0 1 2.34-1.962 5.7 5.7 0 0 1 2.49-.566 4.16 4.16 0 0 1 3.17 1.283c.793.868 1.208 2.151 1.208 3.887v5.774c0 .83 0 1.622.038 2.377l1.509.302v1.434h-8v-1.434l1.585-.34c.038-.755.038-1.547.038-2.377v-5.32c0-.982-.113-1.661-.378-2.039a1.42 1.42 0 0 0-1.283-.603c-.792 0-1.66.377-2.604 1.094v6.943c0 .868 0 1.66.038 2.415l1.434.302v1.434zm25.278.453c-1.32 0-2.603-.264-3.773-.868a6.6 6.6 0 0 1-2.717-2.566 7.94 7.94 0 0 1-1.019-4.264 7.95 7.95 0 0 1 1.094-4.226 7.46 7.46 0 0 1 2.944-2.68 8.6 8.6 0 0 1 4.113-.905 6.1 6.1 0 0 1 2.83.604c.793.377 1.472.905 1.962 1.585.491.641.755 1.396.83 2.188-.188.944-1.094 1.623-2.037 1.585a2.2 2.2 0 0 1-1.547-.641c-.453-.415-.68-1.17-.755-2.227l-.226-1.51c-.076-.037-.19-.037-.265-.037h-.302c-.603 0-1.207.226-1.698.566-.641.453-1.094 1.094-1.396 1.811a7.5 7.5 0 0 0-.528 3.283c0 1.736.377 3.057 1.17 4 .754.944 1.886 1.434 3.094 1.397.641 0 1.32-.151 1.887-.453a6.6 6.6 0 0 0 1.471-1.208l1.057.944c-.528 1.132-1.358 2.113-2.453 2.717a7.1 7.1 0 0 1-3.736.905m7.059-.453v-1.433l1.623-.378c0-.717.038-1.51.038-2.34V2.944l-1.887-.301V1.358L88.678 0l.49.302-.15 4.226v4.868a7.8 7.8 0 0 1 2.34-1.962 5.6 5.6 0 0 1 2.452-.566c1.208-.038 2.378.415 3.208 1.283.792.868 1.207 2.15 1.207 3.887v5.773c0 .83 0 1.623.038 2.378l1.51.302v1.433h-7.925v-1.433l1.585-.34c.038-.755.038-1.547.038-2.377v-5.359q0-1.471-.34-2.038c-.302-.415-.792-.641-1.283-.566-.453 0-.906.151-1.283.378-.49.264-.981.604-1.396 1.018v6.604c0 .868 0 1.66.038 2.415l1.434.302v1.434zm-70.3 4.604v-1.622h7.924v1.622l-2.566.378v17.886H15.17L4.528 30.075v12.642l3.434.377v1.623H0v-1.623l2.566-.377V27.321l-.415-.566-2.076-.227v-1.622h6.83l8.869 12.188V26.906zm16.003 18.68a8.04 8.04 0 0 1-4.076-.982 6.64 6.64 0 0 1-2.641-2.754c-.642-1.283-.981-2.68-.944-4.076-.037-1.396.302-2.83 1.02-4.038a6.96 6.96 0 0 1 2.754-2.679 8.25 8.25 0 0 1 3.887-.98c1.358 0 2.68.301 3.887.942a6.73 6.73 0 0 1 2.754 2.68 7.8 7.8 0 0 1 1.02 4.075c.037 1.434-.303 2.83-.944 4.113a6.8 6.8 0 0 1-2.642 2.717 8.04 8.04 0 0 1-4.075.982m0-1.585c.83 0 1.472-.49 1.887-1.472.415-.981.641-2.528.641-4.68 0-2.15-.226-3.735-.641-4.716s-1.057-1.472-1.887-1.472q-1.302 0-1.925 1.472c-.415.98-.641 2.566-.641 4.717s.226 3.698.641 4.679q.624 1.472 1.925 1.472M42.6 45.208c-1.358 0-2.415-.34-3.17-.982s-1.132-1.736-1.132-3.207v-8.793h-1.962v-1.773l2.226-.302 1.51-4.227h3.094l-.075 4.265h3.17v2.037h-3.17v8.453a2.27 2.27 0 0 0 .453 1.547c.264.34.679.491 1.094.491a2.8 2.8 0 0 0 1.623-.642l.754.717a4.2 4.2 0 0 1-1.66 1.774 5.5 5.5 0 0 1-2.755.642m11.967 0c-1.358.037-2.68-.302-3.887-.906a6.37 6.37 0 0 1-2.641-2.642 8.4 8.4 0 0 1-.982-4.15 7.7 7.7 0 0 1 1.133-4.265 7.5 7.5 0 0 1 2.905-2.641c1.132-.566 2.415-.906 3.698-.906a6.66 6.66 0 0 1 3.397.83 5.3 5.3 0 0 1 2.113 2.264c.49 1.02.755 2.151.717 3.283 0 .529-.038 1.095-.189 1.585h-8.755c.114 1.585.529 2.755 1.321 3.51a3.86 3.86 0 0 0 2.717 1.132c.717.038 1.472-.151 2.113-.453a5.8 5.8 0 0 0 1.548-1.17l1.056.981a6.1 6.1 0 0 1-2.528 2.642c-1.094.604-2.415.906-3.736.906m-.038-13.963c-.566 0-1.094.34-1.547 1.057s-.755 1.962-.792 3.811h2.566q1.075 0 1.471-.453c.302-.415.415-.943.378-1.471 0-1.02-.189-1.736-.604-2.227-.377-.453-.906-.717-1.472-.717m13.247 13.963c-1.849 0-3.66-.453-5.245-1.397l.076-3.698h2.415l.528 2.981c.34.151.717.227 1.094.302a6 6 0 0 0 1.17.113 3.7 3.7 0 0 0 2-.452c.453-.302.717-.793.68-1.359 0-.453-.19-.868-.529-1.208-.34-.34-1.019-.641-2.038-.943l-1.622-.49c-1.057-.265-2-.83-2.717-1.66a4.28 4.28 0 0 1-.944-2.831c0-1.358.604-2.642 1.66-3.51 1.095-.943 2.642-1.433 4.68-1.433.83 0 1.66.113 2.453.301a13.4 13.4 0 0 1 2.302.906l-.227 3.283h-2.415l-.603-2.604a4.1 4.1 0 0 0-1.66-.226 2.87 2.87 0 0 0-1.661.415 1.42 1.42 0 0 0-.604 1.283c0 .415.189.83.49 1.094.34.302 1.02.642 2.038.944l1.472.415c1.434.415 2.453 1.019 3.094 1.811.642.83.981 1.85.944 2.868.075 1.472-.642 2.868-1.812 3.698-1.207.944-2.905 1.397-5.019 1.397"/></g><defs><clipPath id="a"><path fill="#fff" d="M0 0h100v45.283H0z"/></clipPath></defs></svg>