<svg xmlns="http://www.w3.org/2000/svg" width="139.13" height="64" fill="none" viewBox="0 0 50 23"><g fill="#292d33" clip-path="url(#a)"><path d="M0 1.849v-.811h4.981v.811l-1.245.113c0 .604-.019 1.246-.019 1.868v4.415c0 .604.019 1.227.019 1.85H6.34l.415-2.114H7.98l-.15 2.962H0v-.81l1.132-.114c.019-.604.038-1.208.038-1.811V3.849c0-.623 0-1.245-.038-1.868L0 1.85Zm14.378 9.321c-.886 0-1.434-.359-1.66-1.095a6.3 6.3 0 0 1-.925.812c-.377.207-.792.32-1.226.302a2.08 2.08 0 0 1-1.434-.49c-.358-.34-.547-.812-.547-1.435 0-.34.075-.68.245-.981.208-.34.51-.623.868-.811a8.7 8.7 0 0 1 1.793-.717c.15-.057.32-.095.528-.151l.623-.151v-.49c0-.68-.076-1.133-.246-1.378s-.49-.359-.98-.359h-.19c-.075 0-.132 0-.207.02l-.076.66c0 .49-.132.849-.34 1.075-.188.208-.47.34-.754.34-.547 0-.887-.246-1.019-.755.038-.623.359-1.132.944-1.528s1.434-.585 2.528-.585c.962 0 1.66.226 2.075.66s.623 1.17.623 2.189v3.377c0 .283.113.434.34.434.075 0 .15-.019.226-.075a1 1 0 0 0 .226-.264l.416.264c-.151.358-.397.66-.717.868a2.15 2.15 0 0 1-1.114.264m-3.566-2.302c-.018.302.076.604.264.83.17.17.397.283.642.264a.7.7 0 0 0 .34-.075q.31-.142.566-.34V7.094a2.3 2.3 0 0 0-.378.132c-.113.057-.226.095-.32.132-.321.133-.604.321-.812.604-.207.246-.32.566-.302.906m10.68 2.264-.094-1.264a3.9 3.9 0 0 1-1.095.981c-.415.226-.868.358-1.34.34a2.05 2.05 0 0 1-1.547-.623c-.396-.415-.585-1.113-.566-2.113l.057-3.68-.868-.188v-.623l3.075-.434.246.17-.113 2.113v2.68c0 .452.075.792.226.962a.68.68 0 0 0 .604.264 1.4 1.4 0 0 0 .66-.189 3.2 3.2 0 0 0 .642-.49l.056-4.264-.83-.19v-.603l3-.49.245.17-.037 2.131v4.283l.792.17v.717zm3.656-.17v-.717l.811-.188c.019-.359.019-.755.019-1.17V5.943c0-.226-.019-.49-.038-.792l-.924-.132v-.585l2.98-1.019.265.17.094 1.094a3.9 3.9 0 0 1 1.17-.98 2.9 2.9 0 0 1 1.245-.284 2.08 2.08 0 0 1 1.585.642c.397.434.604 1.075.604 1.943v2.887c0 .415 0 .811.019 1.188l.755.151v.717h-4v-.717l.792-.17c.019-.377.019-.773.019-1.188v-2.66c0-.491-.057-.83-.189-1.02a.71.71 0 0 0-.641-.301c-.396 0-.83.188-1.302.547v3.472c0 .434 0 .83.019 1.207l.717.151v.717zm12.642.227c-.66 0-1.301-.132-1.886-.434a3.3 3.3 0 0 1-1.359-1.283 3.97 3.97 0 0 1-.509-2.132 4 4 0 0 1 .547-2.114 3.73 3.73 0 0 1 1.472-1.34 4.3 4.3 0 0 1 2.056-.452c.491-.019.982.094 1.416.302.396.189.735.453.98.792.246.321.378.698.416 1.095a1.01 1.01 0 0 1-1.02.792c-.282 0-.565-.113-.773-.32-.226-.208-.34-.586-.377-1.114l-.113-.755c-.038-.018-.095-.018-.132-.018h-.151c-.302 0-.604.113-.85.283-.32.226-.546.547-.697.905a3.76 3.76 0 0 0-.265 1.642c0 .868.19 1.528.585 2 .378.471.944.717 1.547.698.321 0 .66-.076.944-.227.283-.17.528-.377.736-.603l.528.471c-.264.566-.68 1.057-1.226 1.359a3.56 3.56 0 0 1-1.868.453Zm3.534-.227v-.717l.812-.188c0-.359.018-.755.018-1.17V1.472l-.943-.151V.679L44.343 0l.245.15-.075 2.114v2.434a3.9 3.9 0 0 1 1.17-.981 2.8 2.8 0 0 1 1.226-.283 2.12 2.12 0 0 1 1.604.641c.396.434.604 1.076.604 1.944v2.887c0 .415 0 .811.019 1.188l.754.151v.717h-3.962v-.717l.792-.17c.02-.377.02-.773.02-1.188v-2.68q0-.735-.17-1.018a.67.67 0 0 0-.642-.283c-.226 0-.453.075-.642.188a3 3 0 0 0-.698.51v3.302c0 .434 0 .83.02 1.207l.716.151v.717zM6.17 13.264v-.811h3.962v.811l-1.283.189v8.943H7.585l-5.32-7.358v6.32l1.716.19v.81H0v-.81l1.283-.19V13.66l-.208-.283-1.037-.113v-.811h3.415l4.434 6.094v-5.094zm7.998 9.34a4 4 0 0 1-2.038-.49 3.3 3.3 0 0 1-1.32-1.378 4.3 4.3 0 0 1-.473-2.038 3.8 3.8 0 0 1 .51-2.019 3.5 3.5 0 0 1 1.377-1.34 4.1 4.1 0 0 1 1.944-.49c.679 0 1.34.151 1.943.472a3.36 3.36 0 0 1 1.377 1.34c.359.622.529 1.339.51 2.037a4.3 4.3 0 0 1-.472 2.057 3.4 3.4 0 0 1-1.32 1.358c-.623.34-1.322.51-2.038.49Zm0-.793c.415 0 .735-.245.943-.735.207-.491.32-1.265.32-2.34 0-1.076-.112-1.868-.32-2.359s-.528-.735-.944-.735q-.65 0-.962.735c-.207.49-.32 1.283-.32 2.359 0 1.075.113 1.849.32 2.34q.312.735.963.735m7.136.793c-.68 0-1.208-.17-1.585-.49-.377-.322-.566-.869-.566-1.605v-4.396h-.981v-.887l1.113-.15.755-2.114h1.547l-.038 2.132h1.585v1.02H21.55v4.226c-.019.283.057.547.227.773a.68.68 0 0 0 .547.245c.302-.018.585-.132.811-.32l.378.358c-.19.378-.472.68-.83.887a2.74 2.74 0 0 1-1.378.32Zm5.976 0a4.1 4.1 0 0 1-1.944-.453 3.2 3.2 0 0 1-1.32-1.32 4.2 4.2 0 0 1-.491-2.076 3.85 3.85 0 0 1 .566-2.132 3.76 3.76 0 0 1 1.453-1.321 4.2 4.2 0 0 1 1.849-.453 3.33 3.33 0 0 1 1.698.415c.453.264.83.66 1.056 1.132.246.51.378 1.076.359 1.642 0 .264-.019.547-.094.792h-4.378c.057.793.264 1.378.66 1.755.36.358.85.566 1.36.566a2.3 2.3 0 0 0 1.056-.227c.283-.15.547-.34.773-.584l.529.49a3.05 3.05 0 0 1-1.264 1.32c-.548.303-1.208.454-1.868.454m-.02-6.981c-.282 0-.547.17-.773.528s-.377.981-.396 1.906h1.283q.538 0 .736-.227a1.1 1.1 0 0 0 .188-.736c0-.51-.094-.868-.301-1.113a.96.96 0 0 0-.736-.358Zm6.628 6.981a5.1 5.1 0 0 1-2.622-.698l.037-1.85h1.208l.264 1.491c.17.076.359.113.547.151s.396.057.585.057c.34.019.698-.057 1-.227a.74.74 0 0 0 .34-.679.85.85 0 0 0-.264-.604c-.17-.17-.51-.32-1.02-.471l-.81-.246c-.529-.132-1-.415-1.36-.83a2.14 2.14 0 0 1-.47-1.415c0-.68.301-1.32.83-1.755.547-.471 1.32-.717 2.339-.717.415 0 .83.057 1.227.151a6.7 6.7 0 0 1 1.15.453l-.113 1.642H35.55l-.302-1.302a2.1 2.1 0 0 0-.83-.114 1.44 1.44 0 0 0-.83.208.71.71 0 0 0-.303.642c0 .207.095.415.246.547.17.15.51.32 1.019.471l.736.208c.717.207 1.226.51 1.547.906.32.415.49.924.471 1.434a2.15 2.15 0 0 1-.905 1.849c-.604.471-1.453.698-2.51.698Z"/></g><defs><clipPath id="a"><path fill="#fff" d="M0 0h50v22.642H0z"/></clipPath></defs></svg>