<svg xmlns="http://www.w3.org/2000/svg" width="220.69" height="64" fill="none" viewBox="0 0 100 29"><g clip-path="url(#a)"><path fill="#C3C6CC" d="m28.134 26.908-5.347-5.348a.904.904 0 0 0-1.265 0l-5.347 5.348a.868.868 0 0 0 .632 1.494h10.695a.872.872 0 0 0 .632-1.494"/><path fill="#E1E3E6" d="m28.313 7.7-1.675-4.972a1.75 1.75 0 0 0-.354-.608L.204 28.2a.8.8 0 0 0 .557.202H8.17a1.58 1.58 0 0 0 1.117-.457L27.958 9.273a1.5 1.5 0 0 0 .355-1.572Z"/><path fill="#C3C6CC" d="M25.674 1.763 20.702.09a1.5 1.5 0 0 0-1.573.355L.457 19.116A1.58 1.58 0 0 0 0 20.233v7.407a.8.8 0 0 0 .204.559l26.08-26.08a1.8 1.8 0 0 0-.61-.356"/><path fill="#262933" d="M96.99 13.8a1.5 1.5 0 0 1-.197.827 1.2 1.2 0 0 1-.52.444 2.1 2.1 0 0 1-.738.177q-.415.03-.827.03h-.964v-2.934h1.063q.384 0 .767.04c.245.02.484.084.708.187.208.096.385.25.511.442.142.237.21.511.197.788Zm.354 7.502H100l-1.456-2.146a27 27 0 0 0-.757-1.063q-.385-.513-.64-.847a1.8 1.8 0 0 0-.472-.512 2.88 2.88 0 0 0 1.88-.915 2.9 2.9 0 0 0 .736-2.057 2.94 2.94 0 0 0-1.1-2.363 3 3 0 0 0-1.25-.581 8.3 8.3 0 0 0-1.8-.167h-3.58V21.3h2.183v-4.43c.215-.009.427.046.61.159q.24.16.433.373.29.356.541.739.325.481.954 1.447zm-18.499 0h6.846v-1.85H81.07v-2.836h3.462v-1.752H81.05v-2.461h4.17l.315-1.752h-6.689V21.3Zm-8.587-.001 4.15-10.65h-2.302l-2.105 5.532a8 8 0 0 0-.265.768 24 24 0 0 0-.384 1.456l-.058.257-.08-.257a16 16 0 0 0-.156-.658 23 23 0 0 0-.227-.818 15 15 0 0 0-.246-.768l-1.947-5.512h-2.439l4.072 10.65zm-17.3 0h6.845v-1.85h-4.622v-2.835h3.463v-1.752h-3.482v-2.461h4.17l.315-1.752h-6.688zm-5.993 0 .413-1.81h-4.327v-8.84h-2.223V21.3z"/></g><defs><clipPath id="a"><path fill="#fff" d="M0 0h100v28.402H0z"/></clipPath></defs></svg>