<svg xmlns="http://www.w3.org/2000/svg" width="64" height="64" fill="none" viewBox="0 0 50 50"><g clip-path="url(#a)"><path fill="#c3c6cc" d="m49.525 47.369-9.413-9.414a1.59 1.59 0 0 0-2.226 0l-9.413 9.414A1.527 1.527 0 0 0 29.586 50h18.827a1.535 1.535 0 0 0 1.112-2.631"/><path fill="#e1e3e6" d="m49.844 13.556-2.949-8.753a3.1 3.1 0 0 0-.623-1.072L.359 49.642c.27.241.622.37.983.358h13.04a2.77 2.77 0 0 0 1.967-.805l32.87-32.87a2.64 2.64 0 0 0 .625-2.769"/><path fill="#c3c6cc" d="M45.198 3.104 36.444.157a2.64 2.64 0 0 0-2.768.625L.804 33.652A2.78 2.78 0 0 0 0 35.619v13.04c-.012.362.116.714.358.984L46.27 3.73a3.1 3.1 0 0 0-1.073-.627Z"/></g><defs><clipPath id="a"><path fill="#fff" d="M0 0h50v50H0z"/></clipPath></defs></svg>