<svg xmlns="http://www.w3.org/2000/svg" width="64" height="64" fill="none" viewBox="0 0 32 32"><path fill="#000" fill-rule="evenodd" d="M16.642 6.782c-1.676 1.948-6.455 8.234-7 9.048-1.048 1.56-1.14 2.316-1.172 2.82-.03.494-.03 1.385.823 2.112 1.429 1.2 3.433 1.007 5.212 1.007h14.647c.627 0 .813-.175 1.152-.6C31.476 19.482 32 17.651 32 16.013c0-3.507-2.415-7.924-8.532-9.92l-.689.93c4.852 2.17 6.857 5.009 6.857 8.98.03 1.066-.268 2.219-1.008 3.284H14.38c-.853 0-.977-.91-.669-1.424a53 53 0 0 1 4.081-5.899 242 242 0 0 1 4.348-5.28c.401-.494.134-.968-.668-1.123-1.665-.33-3.402-.562-5.51-.562C4.278 5 0 11.326 0 16.014 0 21.1 4.307 27 15.994 27c6.486 0 10.732-1.967 13.189-4.495h-2.478c-2.148 1.87-5.839 3.197-10.71 3.197-9.9 0-13.548-5.241-13.548-9.756.071-4.03 3.988-9.59 13.794-9.774.37-.01.659.31.401.61" clip-rule="evenodd"/></svg>