<svg xmlns="http://www.w3.org/2000/svg" width="64" height="64" fill="none" viewBox="0 0 50 50"><g fill="#5E6AD2" clip-path="url(#a)"><path d="M.313 29.218 20.78 49.685C10.328 47.918 2.08 39.67.312 29.218ZM0 23.662 26.338 50a25.003 25.003 0 0 0 4.572-.67L.67 19.09A25 25 0 0 0 0 23.662ZM1.984 15.16l32.86 32.859a24.958 24.958 0 0 0 3.437-1.804L3.789 11.721a24.942 24.942 0 0 0-1.805 3.438ZM6.016 8.707C10.604 3.376 17.4 0 24.986 0c13.817 0 25.018 11.2 25.018 25.018 0 7.585-3.376 14.382-8.707 18.97L6.016 8.707Z"/></g><defs><clipPath id="a"><path fill="#fff" d="M0 0h50v50H0z"/></clipPath></defs></svg>