<svg xmlns="http://www.w3.org/2000/svg" width="64" height="64" fill="none" viewBox="0 0 50 50"><g clip-path="url(#a)"><path fill="#0a66c2" d="M42.486 41.821h-7.273v-11.39c0-2.715-.048-6.211-3.782-6.211-3.788 0-4.368 2.959-4.368 6.014V41.82h-7.272V18.4h6.981v3.2h.098a7.65 7.65 0 0 1 6.889-3.783c7.371 0 8.73 4.848 8.73 11.156zM11.585 15.198a4.22 4.22 0 1 1-.002-8.44 4.22 4.22 0 0 1 .002 8.44M15.22 41.82H7.94V18.4h7.28v23.422ZM46.11.003H4.287A3.58 3.58 0 0 0 .664 3.541v42a3.584 3.584 0 0 0 3.622 3.54h41.826a3.59 3.59 0 0 0 3.636-3.54V3.537A3.59 3.59 0 0 0 46.112 0v.003Z"/></g><defs><clipPath id="a"><path fill="#fff" d="M0 0h50v49.242H0z"/></clipPath></defs></svg>