<svg xmlns="http://www.w3.org/2000/svg" width="68" height="64" fill="none"><g clip-path="url(#a)"><path fill="#fff" d="M.5 7.434q0-3.232 2.263-5.333T8.646 0q3.555 0 5.753 2.069 2.263 2.133 2.263 5.56 0 3.102-2.198 5.171-2.262 2.133-5.948 2.133h-.064q-3.555 0-5.754-2.133C.5 10.667.5 9.59.5 7.434M1.34 64V20.816h14.352V64zm22.304 0h14.351V39.887q0-2.263.517-3.491a9.4 9.4 0 0 1 2.748-3.717q1.842-1.52 4.622-1.52 7.24 0 7.24 9.762V64h14.352V39.24q0-9.567-4.525-14.513c-4.526-4.945-7.004-4.945-11.96-4.945q-8.339 0-12.994 7.176v.129h-.064l.064-.13v-6.14H23.644q.129 2.067.129 12.864 0 10.796-.13 30.319"/></g><defs><clipPath id="a"><path fill="#fff" d="M.5 0h66.974v64H.5z"/></clipPath></defs></svg>