<svg xmlns="http://www.w3.org/2000/svg" width="246.154" height="64" fill="none" viewBox="0 0 100 26"><g clip-path="url(#a)"><path fill="#0a66c2" d="M96.127 21.564h-3.75v-5.873c0-1.4-.025-3.203-1.95-3.203-1.954 0-2.253 1.526-2.253 3.101v5.975h-3.75V9.487h3.6v1.65h.05a3.95 3.95 0 0 1 3.553-1.95c3.8 0 4.501 2.5 4.501 5.752zM80.193 7.836a2.175 2.175 0 1 1-.001-4.35 2.175 2.175 0 0 1 .001 4.35m1.875 13.728h-3.754V9.487h3.754zM97.996.002H76.43a1.846 1.846 0 0 0-1.868 1.824v21.656a1.85 1.85 0 0 0 1.868 1.826h21.566a1.85 1.85 0 0 0 1.875-1.826V1.824A1.85 1.85 0 0 0 97.996 0zm-33.64 12.4c-1.875 0-3 1.252-3 3.076s1.124 3.077 3 3.077 3.002-1.25 3.002-3.077-1.125-3.076-3.002-3.076m6.455 9.155h-3.453v-1.602h-.051a4.72 4.72 0 0 1-3.728 1.902c-3.603 0-5.977-2.6-5.977-6.278 0-3.377 2.1-6.478 5.554-6.478 1.551 0 3.001.424 3.851 1.601h.05V3.741h3.753v17.816Zm-18.024-7.44a2.26 2.26 0 0 0-.658-1.644 2.25 2.25 0 0 0-1.644-.657 2.503 2.503 0 0 0-2.65 2.3h4.953Zm3.177 5.35a6.6 6.6 0 0 1-5.128 2.404c-3.75 0-6.752-2.503-6.752-6.38s3.002-6.378 6.752-6.378c3.505 0 5.703 2.5 5.703 6.378v1.176h-8.704a2.8 2.8 0 0 0 2.826 2.351 3.2 3.2 0 0 0 2.676-1.476zM18.685 9.485h3.601v1.65h.051a3.94 3.94 0 0 1 3.551-1.95c3.803 0 4.503 2.502 4.503 5.752v6.623h-3.75v-5.872c0-1.401-.026-3.203-1.953-3.203-1.95 0-2.25 1.526-2.25 3.101v5.972h-3.75zm13.608-5.742h3.75v10.65l4.25-4.915h4.597l-4.922 5.591 4.819 6.496h-4.714l-3.98-5.97h-.05v5.97h-3.75zm-19.437 5.74h3.75V21.56h-3.75zM14.73 3.48a2.175 2.175 0 1 1-.001 4.35 2.175 2.175 0 0 1 0-4.35ZM0 3.745h3.904v14.219h7.226v3.602H0z"/></g><defs><clipPath id="a"><path fill="#fff" d="M0 0h100v25.391H0z"/></clipPath></defs></svg>