<svg xmlns="http://www.w3.org/2000/svg" width="246.154" height="64" fill="none" viewBox="0 0 100 26"><g clip-path="url(#a)"><path fill="#0A66C2" d="M96.127 21.564h-3.75v-5.873c0-1.4-.025-3.203-1.95-3.203-1.954 0-2.253 1.526-2.253 3.101v5.975h-3.75V9.487h3.6v1.65h.05a3.945 3.945 0 0 1 3.553-1.95c3.8 0 4.501 2.5 4.501 5.752l-.001 6.625ZM80.193 7.836a2.175 2.175 0 1 1-.001-4.35 2.175 2.175 0 0 1 .001 4.35Zm1.875 13.728h-3.754V9.487h3.754v12.077ZM97.996.002H76.43a1.846 1.846 0 0 0-1.868 1.824v21.656a1.85 1.85 0 0 0 1.868 1.826h21.566a1.851 1.851 0 0 0 1.875-1.826V1.824A1.85 1.85 0 0 0 97.996 0v.002Zm-33.64 12.4c-1.875 0-3 1.252-3 3.076s1.124 3.077 3 3.077c1.875 0 3.002-1.25 3.002-3.077s-1.125-3.076-3.002-3.076Zm6.455 9.155h-3.453v-1.602h-.051a4.716 4.716 0 0 1-3.728 1.902c-3.603 0-5.977-2.6-5.977-6.278 0-3.377 2.1-6.478 5.554-6.478 1.551 0 3.001.424 3.851 1.601h.05V3.741h3.753v17.816Zm-18.024-7.44a2.259 2.259 0 0 0-.658-1.644 2.249 2.249 0 0 0-1.644-.657 2.503 2.503 0 0 0-2.65 2.3h4.953Zm3.177 5.35a6.607 6.607 0 0 1-5.128 2.404c-3.75 0-6.752-2.503-6.752-6.38 0-3.876 3.002-6.378 6.752-6.378 3.505 0 5.703 2.5 5.703 6.378v1.176h-8.704a2.8 2.8 0 0 0 2.826 2.351 3.201 3.201 0 0 0 2.676-1.476l2.627 1.926ZM18.685 9.485h3.601v1.65h.051a3.94 3.94 0 0 1 3.551-1.95c3.803 0 4.503 2.502 4.503 5.752v6.623h-3.75v-5.872c0-1.401-.026-3.203-1.953-3.203-1.95 0-2.25 1.526-2.25 3.101v5.972h-3.75l-.003-12.073Zm13.608-5.742h3.75v10.65l4.25-4.915h4.597l-4.922 5.591 4.819 6.496h-4.714l-3.98-5.97h-.05v5.97h-3.75V3.742Zm-19.437 5.74h3.75V21.56h-3.75V9.483ZM14.73 3.48a2.175 2.175 0 1 1-.001 4.35 2.175 2.175 0 0 1 0-4.35ZM0 3.745h3.904v14.219h7.226v3.602H0V3.745Z"/></g><defs><clipPath id="a"><path fill="#fff" d="M0 0h100v25.391H0z"/></clipPath></defs></svg>