<svg xmlns="http://www.w3.org/2000/svg" width="64" height="64" fill="none" viewBox="0 0 50 50"><g clip-path="url(#a)"><path fill="#12262b" d="M49.998 25.158c0 6.861.23 14.85-4.877 19.975-5.106 5.123-13.1 4.863-19.96 4.863-6.862 0-14.851.23-19.975-4.876S.323 32.019.323 25.158s-.226-14.85 4.88-19.974C10.31.06 18.303.321 25.16.321s14.85-.226 19.974 4.88c5.124 5.107 4.864 13.1 4.864 19.957"/><path fill="#fff" d="M27.956 12.175H12.068a2.545 2.545 0 1 0 0 5.089h15.888a2.545 2.545 0 1 0 0-5.09Zm5.204 10.438H17.27a2.544 2.544 0 1 0 0 5.09h15.89a2.545 2.545 0 1 0 0-5.09m-5.201 10.443h-5.485a2.545 2.545 0 0 0 0 5.09h5.485a2.544 2.544 0 1 0 0-5.09M40.792 14.72a2.545 2.545 0 1 0-5.09 0 2.545 2.545 0 0 0 5.09 0"/></g><defs><clipPath id="a"><path fill="#fff" d="M0 0h50v50H0z"/></clipPath></defs></svg>