<svg xmlns="http://www.w3.org/2000/svg" width="278.261" height="64" fill="none" viewBox="0 0 100 23"><g clip-path="url(#a)"><path fill="#FE5000" d="M17.145 3.844a85.961 85.961 0 0 0-11.882 0c-.8.057-1.404.669-1.465 1.416-.192 2.398-.218 5.99-.041 8.386.058.79.753 1.47 1.693 1.47h2.946v3.634l-2.94-.002c-2.697 0-5.118-2-5.327-4.835-.19-2.582-.164-6.36.043-8.944C.38 2.38 2.462.397 5.002.215a89.591 89.591 0 0 1 12.404 0c2.54.182 4.622 2.165 4.83 4.754.207 2.583.198 6.362.008 8.944-.21 2.836-2.624 4.843-5.321 4.843l-2.91-.002-5.617 3.634V18.75l5.617-3.634h2.91c.94 0 1.635-.68 1.693-1.47.177-2.396.186-5.988-.006-8.386-.06-.747-.666-1.359-1.465-1.416Z"/><path fill="#1B1B20" d="M27.953 15.973h8.792v-2.207h-6.128V2.653h-2.664v13.32ZM38.022 15.974h2.588V6.078h-2.588v9.896Zm-.21-12.484c0 .856.629 1.503 1.504 1.503s1.503-.647 1.503-1.503c0-.856-.628-1.503-1.503-1.503-.876 0-1.504.647-1.504 1.503ZM50.76 6.078H48.17l-2.131 7.25-2.132-7.25H41.32l3.369 9.895h2.702l3.368-9.895ZM55.379 16.202c2.188 0 3.958-1.313 4.3-3.121h-2.264c-.248.685-.933 1.256-2.036 1.256-1.504 0-2.094-1.009-2.094-2.17v-.247h6.47v-1.732c0-2.378-1.484-4.338-4.414-4.338-2.97 0-4.568 1.903-4.568 4.586v1.35c0 2.78 1.808 4.416 4.606 4.416Zm-2.094-6.204c0-1.332.571-2.322 2.056-2.322 1.389 0 2.036.933 2.036 2.17v.247h-4.092v-.095ZM66.636 16.24c3.368 0 5.442-2.284 5.575-5.005h-2.474c-.17 1.504-1.122 2.817-3.101 2.817-2.227 0-3.178-1.523-3.178-3.654v-2.17c0-2.13.951-3.653 3.178-3.653 1.979 0 2.93 1.313 3.102 2.816h2.473c-.133-2.721-2.207-5.005-5.575-5.005-4.016 0-5.823 2.57-5.823 5.976v1.903c0 3.406 1.807 5.975 5.823 5.975ZM73.617 15.974h2.588v-5.862c0-1.332.742-2.017 1.903-2.017 1.256 0 1.808.818 1.808 1.96v5.919h2.588V9.637c0-2.341-1.35-3.787-3.502-3.787-1.274 0-2.283.552-2.797 1.408V2.082h-2.588v13.892ZM87.445 16.202c1.141 0 2.397-.476 2.854-1.142v.913h2.493V9.656c0-2.303-1.694-3.806-4.168-3.806-2.13 0-3.673 1.027-4.244 2.95h2.398c.267-.534.819-.933 1.713-.933 1.066 0 1.713.685 1.713 1.598v1.351c-.457-.38-1.333-.837-2.512-.837-2.379 0-3.997.99-3.997 3.14 0 1.922 1.523 3.083 3.75 3.083Zm.665-1.713c-1.084 0-1.903-.533-1.903-1.446 0-.914.761-1.408 1.98-1.408 1.16 0 2.017.513 2.017 1.389 0 .837-.952 1.465-2.094 1.465ZM97.628 15.973h1.789V13.88H98.37c-.685 0-.933-.266-.933-.913V8.17h2.112V6.078h-2.112V3.376H94.83v2.702h-1.408V8.17h1.408v4.986c0 1.75.895 2.816 2.798 2.816Z"/></g><defs><clipPath id="a"><path fill="#fff" d="M0 0h100v22.388H0z"/></clipPath></defs></svg>