<svg xmlns="http://www.w3.org/2000/svg" width="376.471" height="64" fill="none" viewBox="0 0 100 17"><g clip-path="url(#a)"><path fill="#12262B" d="M23.234 3.174v11.157h7.694v-2.225h-5.092V3.174h-2.602ZM32.478 4.82c.25.25.595.376 1.003.376.407 0 .736-.126 1.002-.376.251-.251.392-.58.392-.988 0-.391-.14-.72-.392-.971a1.409 1.409 0 0 0-1.002-.392c-.408 0-.753.141-1.003.392-.267.25-.392.58-.392.971 0 .408.125.737.392.988Zm-.157 1.488v8.023h2.32V6.308h-2.32ZM35.703 6.308l2.79 8.023h3.353l2.79-8.023h-2.43l-1.959 6.127h-.156l-1.943-6.127h-2.445ZM47.115 14.05c.674.36 1.442.532 2.304.532.972 0 1.818-.204 2.539-.611.72-.408 1.206-.987 1.457-1.708l-1.974-.502a1.986 1.986 0 0 1-.768.8c-.345.203-.721.297-1.16.297-.564 0-1.05-.156-1.426-.501-.376-.33-.611-.784-.705-1.363h6.3c.015-.11.03-.345.03-.705 0-.831-.187-1.568-.548-2.21a3.859 3.859 0 0 0-1.52-1.489 4.733 4.733 0 0 0-2.24-.532c-.863 0-1.63.188-2.289.532a3.842 3.842 0 0 0-1.566 1.473c-.377.643-.565 1.38-.565 2.194 0 .846.188 1.598.565 2.257a3.89 3.89 0 0 0 1.566 1.535Zm4.231-4.498h-3.98c.094-.533.314-.972.658-1.285.345-.313.784-.486 1.317-.486.532 0 .971.173 1.347.502.36.329.58.752.658 1.269ZM55.831 13.83c.674.533 1.614.783 2.805.783 1.175 0 2.1-.235 2.774-.72.673-.47 1.018-1.144 1.018-2.006 0-.596-.172-1.05-.486-1.395a2.526 2.526 0 0 0-1.175-.72c-.47-.142-1.003-.251-1.614-.33-.564-.062-.971-.11-1.206-.156a1.447 1.447 0 0 1-.627-.235c-.188-.126-.267-.298-.267-.533 0-.282.126-.517.392-.69.25-.172.596-.266 1.034-.266.47 0 .846.11 1.129.329.282.22.438.501.454.846h2.116c0-.533-.157-1.018-.47-1.426-.314-.407-.753-.736-1.317-.956-.564-.22-1.206-.329-1.912-.329-1.08 0-1.943.25-2.6.737-.659.485-.972 1.128-.972 1.943 0 .642.172 1.128.517 1.473.344.345.736.58 1.206.705s1.034.22 1.724.282c.611.063 1.066.157 1.363.266.282.11.439.33.439.659 0 .313-.141.548-.407.72-.267.188-.612.267-1.05.267-.564 0-1.019-.126-1.348-.392-.329-.25-.486-.595-.486-1.034h-2.053c0 .924.33 1.645 1.019 2.178ZM65.224 13.799c.47.532 1.113.783 1.927.783.236 0 .502-.016.8-.063.282-.047.548-.11.768-.188v-1.66a3.46 3.46 0 0 1-.831.109c-.33 0-.596-.094-.784-.298-.188-.204-.282-.486-.282-.83V8h1.834V6.308h-1.834l.016-2.538H65.02l-.454 2.538h-1.191v1.693h1.128v3.745c0 .846.235 1.535.721 2.053ZM71.71 14.065c.657.345 1.44.517 2.334.517.877 0 1.645-.172 2.32-.517a3.778 3.778 0 0 0 1.566-1.489c.376-.642.564-1.394.564-2.256 0-.846-.188-1.599-.564-2.241a3.779 3.779 0 0 0-1.567-1.489c-.674-.344-1.442-.532-2.319-.532-.893 0-1.677.188-2.335.532a3.78 3.78 0 0 0-1.567 1.489c-.376.642-.548 1.395-.548 2.24 0 .863.172 1.615.548 2.257a3.78 3.78 0 0 0 1.567 1.489Zm3.854-2.1c-.407.439-.909.643-1.52.643-.627 0-1.144-.204-1.536-.643-.407-.423-.595-.971-.595-1.645 0-.658.188-1.207.595-1.63.392-.423.91-.642 1.536-.642.611 0 1.113.219 1.52.642.392.423.596.972.596 1.63 0 .674-.204 1.222-.596 1.645ZM79.898 6.308v8.023h2.32v-4.105c0-.611.156-1.113.47-1.505.313-.376.72-.58 1.238-.58.172 0 .376.032.626.079.251.063.47.125.69.22V6.354a2.205 2.205 0 0 0-.909-.203c-.423 0-.815.125-1.175.344-.36.235-.627.533-.8.91h-.172V6.307h-2.288ZM86.46 6.308v8.023h2.32V9.756c0-.502.125-.925.407-1.238.267-.314.627-.47 1.097-.47.44 0 .784.156 1.05.47.251.313.392.72.392 1.238v4.575h2.335V9.756c0-.502.14-.91.423-1.223a1.446 1.446 0 0 1 1.113-.485c.438.015.799.188 1.08.501.283.313.424.72.424 1.207v4.575h2.319V9.364c0-.627-.141-1.207-.392-1.708a2.971 2.971 0 0 0-1.08-1.16 2.974 2.974 0 0 0-1.568-.423c-.564 0-1.066.141-1.504.408a2.755 2.755 0 0 0-1.019 1.097H93.7a2.594 2.594 0 0 0-1.002-1.097 2.716 2.716 0 0 0-1.458-.423c-.501 0-.956.14-1.363.391a2.681 2.681 0 0 0-.956 1.05h-.157V6.31h-2.303ZM16.81 8.405c0 2.322.079 5.025-1.65 6.76-1.728 1.733-4.433 1.645-6.754 1.645-2.322 0-5.026.078-6.76-1.65C-.087 13.432.001 10.727.001 8.405s-.077-5.025 1.651-6.76C3.38-.087 6.085 0 8.406 0c2.32 0 5.025-.076 6.759 1.652s1.646 4.433 1.646 6.753Z"/><path fill="#fff" d="M9.355 4.011H3.978a.861.861 0 0 0 0 1.723h5.377a.861.861 0 0 0 0-1.723ZM11.113 7.544H5.736a.861.861 0 0 0 0 1.722h5.377a.861.861 0 1 0 0-1.722ZM9.35 11.078H7.494a.861.861 0 0 0 0 1.722H9.35a.861.861 0 1 0 0-1.722ZM13.699 4.873a.861.861 0 1 0-1.723 0 .861.861 0 0 0 1.723 0Z"/></g><defs><clipPath id="a"><path fill="#fff" d="M0 0h100v16.811H0z"/></clipPath></defs></svg>