<svg xmlns="http://www.w3.org/2000/svg" width="65.306" height="64" fill="none" viewBox="0 0 50 49"><g clip-path="url(#a)"><path fill="#FE5000" d="M37.056 8.307c-8.247-.592-17.434-.592-25.682 0-1.726.124-3.035 1.446-3.164 3.062-.417 5.182-.472 12.946-.09 18.123.126 1.71 1.627 3.178 3.658 3.178h6.367v7.854l-6.354-.004C5.962 40.52.73 36.2.278 30.07c-.411-5.58-.355-13.747.094-19.33C.822 5.143 5.32.858 10.81.464c8.622-.62 18.186-.62 26.809 0 5.49.394 9.989 4.679 10.438 10.274.449 5.584.43 13.752.018 19.331-.452 6.13-5.672 10.467-11.501 10.467l-6.289-.004-12.14 7.854v-7.863l12.14-7.854h6.29c2.03 0 3.532-1.468 3.658-3.178.382-5.177.403-12.94-.013-18.123-.13-1.616-1.438-2.938-3.165-3.062Z"/></g><defs><clipPath id="a"><path fill="#fff" d="M0 0h50v48.387H0z"/></clipPath></defs></svg>