<svg xmlns="http://www.w3.org/2000/svg" width="290.909" height="64" fill="none" viewBox="0 0 100 22"><g clip-path="url(#a)"><path fill="#222838" d="M32.61 16.57h10.413v-2.887h-7.06V1.027h-3.354V16.57Zm17.117.177c3.441 0 5.906-2.442 5.906-5.773s-2.465-5.773-5.906-5.773c-3.442 0-5.907 2.443-5.907 5.773s2.465 5.773 5.907 5.773m0-2.664c-1.666 0-2.798-1.266-2.798-3.109 0-1.865 1.132-3.13 2.798-3.13 1.665 0 2.797 1.265 2.797 3.13 0 1.843-1.132 3.109-2.797 3.109m13.776.2h-2.975c-.6 0-.933-.2-.933-.622 0-.289.178-.51.51-.866a6.8 6.8 0 0 0 1.688.222c2.71 0 4.552-1.532 4.552-3.908 0-.844-.244-1.576-.666-2.176l1.443-1.71L65.28 3.67l-1.554 1.843a5.9 5.9 0 0 0-1.932-.31c-2.664 0-4.53 1.553-4.53 3.907 0 .955.29 1.776.822 2.398-.888.777-1.443 1.51-1.443 2.531 0 .6.266 1.133.71 1.555-.665.577-1.087 1.42-1.087 2.153 0 2.065 1.065 3.353 3.885 3.353h3.442c2.309 0 3.774-1.465 3.774-3.597 0-1.998-1.576-3.22-3.863-3.22Zm-1.71-6.728c.955 0 1.666.622 1.666 1.554 0 .933-.71 1.532-1.666 1.532-.932 0-1.643-.6-1.643-1.532s.71-1.554 1.643-1.554m1.643 11.08h-3.13c-.622 0-1.022-.511-1.022-1.088 0-.356.09-.622.355-.933.311.044.644.066.978.066h2.664c.755 0 1.066.356 1.066.978 0 .532-.2.976-.91.976ZM70.278 2.07V4.6c0 .556-.31.778-.777.778h-1.377v2.576h2.154v4.551c0 2.598 1.665 4.064 4.24 4.064h1.844v-2.798H74.94c-1 0-1.577-.51-1.577-1.599V7.955h2.998V5.379h-2.998V2.07h-3.086Zm12.44 14.676c1.31 0 2.487-.533 3.042-1.354v1.177h3.108V5.379H85.76v1.11c-.622-.777-1.732-1.288-3.086-1.288-3.264 0-5.24 2.287-5.24 5.773s1.976 5.773 5.284 5.773Zm.489-2.664c-1.643 0-2.731-1.244-2.731-3.109 0-1.887 1.088-3.13 2.73-3.13 1.666 0 2.754 1.243 2.754 3.13 0 1.865-1.088 3.109-2.753 3.109M91.187.427v3.287h3.397V.427zm.133 16.143h3.109V5.379H91.32v11.19Zm5.556 0h3.086V.516h-3.087V16.57Z"/><path fill="#B8BFD1" d="M11.996 7.42H2.768a2.768 2.768 0 0 0 0 5.536h9.228a2.768 2.768 0 0 0 0-5.537Zm5.534 7.382h-3.691a2.768 2.768 0 1 0 0 5.536h3.69a2.768 2.768 0 0 0 0-5.536Z"/><path fill="#222838" d="M17.533.037h-7.382a2.768 2.768 0 0 0 0 5.537h7.382a2.768 2.768 0 1 0 0-5.537"/></g><defs><clipPath id="a"><path fill="#fff" d="M0 0h100v21.1H0z"/></clipPath></defs></svg>