<svg xmlns="http://www.w3.org/2000/svg" width="336.842" height="64" fill="none" viewBox="0 0 100 19"><g fill="#192d41" clip-path="url(#a)"><path d="M57.84 6.161c-1.55 0-2.575.651-3.95 1.743V.196L53.516 0l-4.75 2.246v.344l1.838 1.13v14.028c1.688.736 3.2.933 4.75.933 3.462 0 6.875-2.357 6.875-6.775-.013-3.302-1.875-5.745-4.388-5.745Zm-1.75 10.813c-.924 0-1.625-.417-2.212-1.13v-7.02a9.5 9.5 0 0 1 2.037-.257c1.688 0 2.8 1.374 2.8 4.161.013 2.7-.85 4.246-2.624 4.246Zm16.688-.528V10.96c0-3.117-1.2-4.811-4.212-4.811-1.95 0-3.55.7-4.95 2.074l.537 1.068c1.025-.65 2-1.043 3-1.043 1.662 0 2.313.982 2.313 2.897v.503c-4.95.503-6.388 2.136-6.388 4.246 0 2.074 1.462 2.787 2.837 2.787 1.176 0 2.376-.504 3.55-1.29v.982h4.726v-1.791h-1.288zm-3.288-.036a6.6 6.6 0 0 1-1.55.258c-.974 0-1.661-.479-1.625-1.547.025-1.264.95-1.878 3.176-2.074v3.363Zm12.663.319c-1.975 0-3.838-1.57-3.838-5.094 0-2.503.776-3.854 2.238-3.854.6 0 1.062.221 1.575.65l2.175 2.86h.375V6.776a10 10 0 0 0-3.35-.614c-4.013 0-6.5 2.86-6.5 6.542 0 3.597 2.287 5.953 5.863 5.953a6.73 6.73 0 0 0 4.5-1.633l-.538-.982c-.862.491-1.587.688-2.5.688zm16.075-.147-3.862-5.34 5.062-4.577v-.221h-6.325v.244L94.74 8.26l-3.662 3.83 4.4 6.296h4.525v-1.803z"/><path d="M90.837 16.446V.197l-.4-.197-4.725 2.246v.331l1.838 1.13v12.74l-.15.135h-1.288v1.804h6.163v-1.803h-1.287l-.15-.135zM2.937 1.853H0v16.558h9.937v-2.664h-7zM16.3 6.186c-3.625 0-6.363 2.688-6.363 6.247 0 3.56 2.738 6.272 6.363 6.272s6.388-2.7 6.388-6.272S19.95 6.186 16.3 6.186m0 9.917c-2.025 0-3.55-1.57-3.55-3.658 0-2.086 1.525-3.645 3.55-3.645 2 0 3.575 1.596 3.575 3.633 0 2.086-1.525 3.67-3.575 3.67M30 6.173c-3.625 0-6.363 2.689-6.363 6.248s2.738 6.272 6.363 6.272 6.388-2.7 6.388-6.272S33.638 6.173 30 6.173m0 9.905c-2.025 0-3.55-1.57-3.55-3.657S27.976 8.788 30 8.788c2 0 3.575 1.595 3.575 3.633 0 2.086-1.538 3.657-3.575 3.657m18.175-9.622H44.35l-3.638 3.707V1.252H37.9v17.134h2.813V13.12l4.924 5.266h3.688l-6.3-6.75z"/></g><defs><clipPath id="a"><path fill="#fff" d="M0 0h100v18.705H0z"/></clipPath></defs></svg>