<svg xmlns="http://www.w3.org/2000/svg" width="64" height="64" fill="none" viewBox="0 0 50 50"><g clip-path="url(#a)"><path fill="#192D41" d="M25 50c13.807 0 25-11.193 25-25S38.807 0 25 0 0 11.193 0 25s11.193 25 25 25"/><path fill="#F1AE0E" fill-rule="evenodd" d="M30.501 7.17c4.241 1.371 7.313 3.86 9.146 7.41 1.248 2.416 1.681 4.092 1.8 6.975.169 4.054-.763 7.9-2.948 12.171-1.448 2.833-3.062 5.065-5.465 7.562-1.998 2.075-2.529 2.394-3.073 1.85-.477-.477-.184-1.008 1.609-2.92 4.075-4.347 6.662-9.046 7.727-14.03.452-2.118.413-5.867-.081-7.75-1.256-4.787-4.872-8.334-9.847-9.658-2.057-.548-5.52-.54-7.628.015-5.303 1.399-9.07 5.058-10.653 10.347-.45 1.506-.52 2.083-.525 4.343-.012 5.272 1.574 9.348 5.054 12.99 1.315 1.377 4.192 3.558 4.408 3.342.05-.05-.131-.38-.402-.735-.27-.355-.778-1.251-1.127-1.992-.534-1.129-.637-1.57-.64-2.732-.003-1.128-.078-1.47-.405-1.834-1.917-2.141-2.369-5.746-1.071-8.561.622-1.35.623-1.358.297-2.123-.486-1.138-.44-2.898.106-4.026.957-1.977 3.561-3.829 6.308-4.486 1.535-.367 4.948-.429 6.247-.113.475.115.894.179.932.14.038-.037-.03-.255-.153-.483-.17-.318-.166-.483.016-.702.482-.58 1.017-.221 1.762 1.18.394.743.72 1.497.724 1.676.009.478-2.842 2.02-3.256 1.76-.536-.335-.487-.968.098-1.275.523-.274.518-.277-.728-.494-5.167-.9-10.598 1.633-10.584 4.937.005 1.19.18 1.268 1.256.554 4.163-2.76 12.024-2.234 13.984.938.542.877.523 2.176-.046 3.024-1.778 2.653-8.851 3.174-13.21.975-.627-.318-1.255-.715-1.395-.882s-.316-.306-.392-.306c-.224 0-.542.84-.785 2.074-.285 1.45-.03 2.82.79 4.257l.584 1.02.751-.642c2.041-1.747 5.497-2.58 8.692-2.093 2.054.313 3.11.702 4.022 1.483 1.524 1.305 1.511 3.046-.033 4.47-1.189 1.095-2.698 1.612-5.051 1.729-2.366.117-4.185-.23-6.142-1.175-.762-.367-1.423-.63-1.469-.584s.062.539.24 1.095c.42 1.316 1.876 3.23 3.696 4.86 1.055.944 1.455 1.43 1.455 1.771 0 1.135-1.74.98-4.798-.424-6.013-2.762-10.336-8.584-11.425-15.384-.303-1.888-.137-6.162.302-7.765 1.254-4.592 4.481-8.556 8.681-10.666 2.746-1.38 4.755-1.793 8.302-1.709 2.31.055 2.94.141 4.343.595ZM19.71 22.592c.45-.542 1.852-1.234 3.282-1.62 1.895-.51 5.388-.443 6.803.132 1.191.484 2.252 1.328 2.252 1.792 0 .198-.265.584-.589.856-2.09 1.759-8.334 1.547-11.25-.382-.616-.409-.698-.536-.498-.778m.754 10.158c0-.437 2.36-1.65 3.746-1.924 3.15-.625 7.26.261 7.416 1.598.201 1.738-4.246 2.856-7.756 1.951-1.192-.307-3.406-1.364-3.406-1.625" clip-rule="evenodd"/></g><defs><clipPath id="a"><path fill="#fff" d="M0 0h50v50H0z"/></clipPath></defs></svg>