<svg xmlns="http://www.w3.org/2000/svg" width="64" height="64" fill="none" viewBox="0 0 50 50"><g clip-path="url(#a)"><path fill="#5753F3" d="M50.029 22.383h-15.24l13.198-7.616-2.618-4.534-13.2 7.617 7.619-13.192-4.534-2.616-7.62 13.188V0h-5.239v15.232l-7.62-13.19-4.536 2.616 7.619 13.189L4.66 10.233l-2.619 4.534 13.198 7.616H0v5.235h15.239L2.042 35.235l2.617 4.533 13.2-7.616-7.62 13.191 4.535 2.617 7.621-13.19V50h5.238V34.443l7.76 13.434 4.253-2.454-7.762-13.436 13.482 7.78 2.619-4.534-13.197-7.616h15.239v-5.234h.002Zm-25.015 9.734a7.12 7.12 0 0 1-5.036-12.151 7.118 7.118 0 0 1 5.035-2.086 7.121 7.121 0 0 1 7.12 7.118 7.117 7.117 0 0 1-7.119 7.119Z"/></g><defs><clipPath id="a"><path fill="#fff" d="M0 0h50v50H0z"/></clipPath></defs></svg>