<svg xmlns="http://www.w3.org/2000/svg" width="213.333" height="64" fill="none" viewBox="0 0 100 30"><g clip-path="url(#a)"><path fill="#5753F3" d="M30.01 13.43h-9.142l7.917-4.57-1.57-2.72-7.918 4.57 4.57-7.915-2.72-1.57-4.571 7.913V0h-3.142v9.139L8.863 1.225l-2.721 1.57 4.57 7.913L2.796 6.14 1.225 8.86l7.917 4.57H0v3.141h9.141l-7.916 4.57 1.57 2.72 7.918-4.57-4.571 7.915 2.72 1.57 4.572-7.914V30h3.142v-9.334l4.655 8.06 2.551-1.472-4.656-8.062 8.087 4.668 1.571-2.72-7.916-4.57h9.141v-3.14h.001Zm-15.005 5.84a4.27 4.27 0 1 1-.002-8.54 4.27 4.27 0 0 1 .002 8.54Z"/><path fill="#1E1E1E" d="M38.11 25.973V4.027h4.027v21.946H38.11ZM76.741 11.06h3.846v1.82c.818-1.455 2.727-2.244 4.362-2.244 2.03 0 3.665.88 4.422 2.485 1.18-1.82 2.756-2.485 4.725-2.485 2.756 0 5.39 1.667 5.39 5.668v9.67h-3.906v-8.85c0-1.608-.788-2.82-2.636-2.82-1.727 0-2.757 1.334-2.757 2.941v8.73h-3.996v-8.852c0-1.607-.818-2.82-2.636-2.82-1.757 0-2.787 1.305-2.787 2.942v8.73h-4.027V11.06ZM51.24 26.405c-4.538 0-7.824-3.367-7.824-7.889 0-4.45 3.276-7.896 7.824-7.896 4.57 0 7.824 3.478 7.824 7.896 0 4.49-3.288 7.89-7.824 7.89Zm0-12.135a4.25 4.25 0 0 0-4.244 4.247 4.25 4.25 0 0 0 4.244 4.247 4.25 4.25 0 0 0 4.243-4.247 4.25 4.25 0 0 0-4.243-4.247Zm16.427 12.135c-4.538 0-7.824-3.367-7.824-7.889 0-4.45 3.276-7.896 7.824-7.896 4.57 0 7.824 3.478 7.824 7.896 0 4.49-3.29 7.89-7.824 7.89Zm0-12.186a4.3 4.3 0 0 0-4.293 4.296 4.3 4.3 0 0 0 4.293 4.296 4.3 4.3 0 0 0 4.293-4.296 4.3 4.3 0 0 0-4.293-4.296Z"/></g><defs><clipPath id="a"><path fill="#fff" d="M0 0h100v30H0z"/></clipPath></defs></svg>