<svg xmlns="http://www.w3.org/2000/svg" width="88.889" height="64" fill="none" viewBox="0 0 50 36"><g clip-path="url(#a)"><path fill="#EA0B8C" fill-rule="evenodd" d="M0 .448h7.593V20.89c0 3.234 1.475 5.161 2.641 5.987C9 27.98 5.226 28.942 2.413 26.602.754 25.222 0 22.954 0 20.821V.448Zm47.452 16.98V15.28h2.315V7.744h-2.543c-.976-4.525-4.991-7.915-9.794-7.915-5.532 0-10.017 4.499-10.017 10.048v17.6c1.576.222 3.454-.028 5.051-1.357 1.659-1.38 2.413-3.647 2.413-5.781v-.648h3.792v-7.537h-3.792V9.877h.009a2.548 2.548 0 0 1 2.544-2.552 2.552 2.552 0 0 1 2.548 2.552v7.551c0 5.55 4.49 10.049 10.022 10.049V19.98a2.552 2.552 0 0 1-2.548-2.552ZM18.695 7.744v11.06c0 .628-.52 1.137-1.16 1.137-.64 0-1.16-.509-1.16-1.137V7.744H8.862v13.008c0 2.34.791 5.3 4.391 6.263 3.604.965 5.695-1.032 5.695-1.032-.19 1.315-1.426 2.279-3.415 2.485-1.506.157-3.431-.344-4.391-.757v6.892c2.447.724 5.035.958 7.568.465 4.597-.895 7.498-4.75 7.498-9.877V7.744h-7.513Z" clip-rule="evenodd"/></g><defs><clipPath id="a"><path fill="#fff" d="M0 0h50v35.427H0z"/></clipPath></defs></svg>