<svg xmlns="http://www.w3.org/2000/svg" width="90.483" height="64" fill="none" viewBox="0 0 82 58"><g clip-path="url(#a)"><path fill="#ea0b8c" fill-rule="evenodd" d="M0 .69h12.452v33.466c0 5.296 2.42 8.451 4.332 9.803-2.025 1.803-8.214 3.38-12.827-.45C1.237 41.25 0 37.535 0 34.042zm77.82 27.8v-3.517h3.799V12.635h-4.171C75.847 5.226 69.26-.325 61.385-.325c-9.073 0-16.428 7.366-16.428 16.451V44.94c2.585.364 5.665-.045 8.285-2.221 2.72-2.259 3.956-5.972 3.956-9.465v-1.062h6.22V19.855h-6.22v-3.728h.015a4.175 4.175 0 1 1 8.351 0V28.49c0 9.085 7.363 16.45 16.436 16.45V32.668a4.18 4.18 0 0 1-4.18-4.177ZM30.66 12.635v18.107c0 1.028-.852 1.861-1.902 1.861-1.051 0-1.903-.833-1.903-1.86V12.634H14.534V33.93c0 3.83 1.297 8.676 7.201 10.254 5.91 1.579 9.34-1.69 9.34-1.69-.313 2.153-2.339 3.73-5.602 4.069-2.468.255-5.626-.563-7.2-1.24v11.283c4.012 1.185 8.257 1.568 12.411.761 7.539-1.465 12.297-7.775 12.297-16.17V12.635z" clip-rule="evenodd"/></g><defs><clipPath id="a"><path fill="#fff" d="M0 0h82v58H0z"/></clipPath></defs></svg>