<svg xmlns="http://www.w3.org/2000/svg" width="278.261" height="64" fill="none" viewBox="0 0 100 23"><g clip-path="url(#a)"><path fill="#fff" d="M4.85 11.756a2 2 0 0 0-.496.034 2.084 2.084 0 0 0-1.72 2.423c.119 1.123 1.316 2.07 2.424 2.098a2 2 0 0 0 .34-.023c1.2-.194 1.513-1.43 1.315-2.644-.223-1.37-1.2-1.853-1.863-1.888m1.175 3.247a.5.5 0 0 1-.467.222.63.63 0 0 1-.581-.637 1.6 1.6 0 0 1 .12-.62.564.564 0 0 0-.23-.7.65.65 0 0 0-.478-.084.61.61 0 0 0-.39.256q-.093.15-.143.32l-.016.045c-.054.138-.14.179-.2.171a.11.11 0 0 1-.09-.085 1.18 1.18 0 0 1 .332-1.025 1.076 1.076 0 0 1 1.369-.126c.141.098.257.228.336.38a1.23 1.23 0 0 1-.1 1.136l-.036.079a.45.45 0 0 0-.011.434.32.32 0 0 0 .266.128.5.5 0 0 0 .145-.02c.062-.013.126-.027.164.02a.09.09 0 0 1 .01.107Z"/><path fill="#fff" d="M20.178 17.306a6.3 6.3 0 0 0 .429-1.988c0-.838-.475-1.185-.777-1.185-.01-.033-.069-.251-.151-.514a4 4 0 0 0-.167-.449c.247-.341.351-.766.291-1.183a1.5 1.5 0 0 0-.436-.846 3.55 3.55 0 0 0-1.539-.761c-.085-.024-.367-.101-.392-.109-.002-.016-.02-.923-.038-1.312a4.5 4.5 0 0 0-.173-1.154 3.1 3.1 0 0 0-.8-1.427c.977-1.01 1.586-2.124 1.585-3.08-.003-1.837-2.263-2.393-5.047-1.241l-.59.25-1.083-1.06C8.116-1.516-1.81 9.5 1.363 12.177l.694.587a3.4 3.4 0 0 0-.193 1.572 3.1 3.1 0 0 0 1.07 1.987 3.26 3.26 0 0 0 2.103.846c1.235 2.841 4.056 4.585 7.365 4.683 3.549.105 6.528-1.558 7.777-4.545Zm.729-3.363c.304.392.46.879.442 1.375a6.9 6.9 0 0 1-.479 2.257l-.006.017a7.83 7.83 0 0 1-3.208 3.71 9.56 9.56 0 0 1-4.937 1.295q-.17 0-.34-.005a9.6 9.6 0 0 1-4.834-1.427 8.3 8.3 0 0 1-2.997-3.292 4.1 4.1 0 0 1-2.105-.996 3.83 3.83 0 0 1-1.318-2.468 4.3 4.3 0 0 1 .08-1.395l-.322-.272a2.52 2.52 0 0 1-.872-1.803 5.1 5.1 0 0 1 .363-2.09c.66-1.804 2.181-3.953 4.067-5.748A15.2 15.2 0 0 1 7.224.967a5.8 5.8 0 0 1 2.8-.902 2.6 2.6 0 0 1 1.754.624c.028.025.445.432.761.742l.138-.058a7.9 7.9 0 0 1 2.96-.657c1.89 0 3.113 1.013 3.115 2.581.002.968-.473 2.053-1.35 3.103.239.369.42.772.535 1.195.125.433.193.88.203 1.331.008.194.017.505.024.78.646.163 1.243.48 1.74.924.338.335.56.768.632 1.238a2.3 2.3 0 0 1-.205 1.36 6 6 0 0 1 .103.322c.182.099.343.232.473.393"/><path fill="#fff" d="M18.657 13.025a1.12 1.12 0 0 0 .35-.889.77.77 0 0 0-.22-.438c-.35-.29-.766-.49-1.212-.58-.203-.058-.341-.095-.49-.144-.265-.088-.396-.159-.425-.662-.013-.22-.051-.986-.065-1.303-.024-.554-.09-1.313-.555-1.626a.8.8 0 0 0-.398-.128.7.7 0 0 0-.236.023 1.25 1.25 0 0 0-.619.353 2.12 2.12 0 0 1-1.616.546c-.325-.014-.67-.065-1.066-.09l-.231-.012a2.13 2.13 0 0 0-2.055 1.881c-.227 1.576.902 2.39 1.228 2.868a.4.4 0 0 1 .09.214.34.34 0 0 1-.117.226 4.07 4.07 0 0 0-.878 3.79q.065.235.165.459c.824 1.945 3.378 2.851 5.874 2.027a6 6 0 0 0 .948-.405 5 5 0 0 0 1.452-1.097 4.4 4.4 0 0 0 1.21-2.397c.075-.501-.036-.695-.186-.789a.55.55 0 0 0-.348-.064 5 5 0 0 0-.332-1.145zM14.563 5.51c.04.01.066-.06.03-.08a4.5 4.5 0 0 0-1.925-.503.035.035 0 0 1-.034-.039q0-.01.006-.017a2 2 0 0 1 .363-.363.036.036 0 0 0-.024-.065c-.822.08-1.612.36-2.303.812a.036.036 0 0 1-.053-.017.04.04 0 0 1-.002-.02q.085-.314.244-.594a.034.034 0 0 0-.046-.047 9.4 9.4 0 0 0-2.623 2.14.036.036 0 0 0 .048.053 8 8 0 0 1 2.832-1.25 7.85 7.85 0 0 1 3.487-.01m-2.937-2.814s-.864-1-1.125-1.074c-1.604-.433-5.07 1.955-7.284 5.109-.896 1.276-2.178 3.536-1.565 4.698q.328.391.733.705a2.73 2.73 0 0 1 1.724-1.098 14 14 0 0 1 4.426-6.212 22.6 22.6 0 0 1 3.091-2.127Z"/><path fill="#000" d="M5.971 14.96a.1.1 0 0 1 .01.11.48.48 0 0 1-.45.224.625.625 0 0 1-.557-.646c-.003-.216.036-.43.116-.631a.59.59 0 0 0-.443-.799.6.6 0 0 0-.613.263 1.4 1.4 0 0 0-.138.325q-.008.03-.015.045c-.052.141-.135.182-.191.175-.027-.004-.064-.022-.087-.086a1.24 1.24 0 0 1 .319-1.042 1 1 0 0 1 .858-.31 1.02 1.02 0 0 1 .78.569 1.3 1.3 0 0 1-.095 1.153l-.035.08a.48.48 0 0 0-.011.441.3.3 0 0 0 .255.13.6.6 0 0 0 .14-.02c.059-.014.12-.028.157.02Zm14.604.365a6.3 6.3 0 0 1-.425 1.984c-1.24 2.98-4.2 4.64-7.726 4.535-3.287-.098-6.09-1.838-7.317-4.674a3.23 3.23 0 0 1-2.088-.843 3.1 3.1 0 0 1-1.064-1.983 3.4 3.4 0 0 1 .192-1.57l-.69-.585C-1.694 9.52 8.167-1.475 11.32 1.284c.016.014 1.073 1.054 1.076 1.057l.586-.25c2.766-1.149 5.01-.594 5.014 1.24.001.953-.605 2.064-1.575 3.073.388.395.663.886.795 1.423.107.375.165.762.172 1.152.017.388.035 1.294.037 1.31l.39.108c.564.124 1.09.385 1.53.76.231.227.383.523.432.844.06.416-.044.84-.29 1.18q.096.22.167.448c.081.263.14.48.15.513.3 0 .771.346.771 1.183M6.642 13.689c-.214-1.392-1.153-1.883-1.79-1.918a2 2 0 0 0-.477.034c-1.137.23-1.78 1.2-1.653 2.461a2.546 2.546 0 0 0 2.33 2.13 1.6 1.6 0 0 0 .326-.022c1.152-.197 1.454-1.452 1.264-2.685m1.943-8.836a22.5 22.5 0 0 1 3.072-2.123s-.858-.999-1.118-1.072c-1.594-.432-5.038 1.95-7.237 5.097-.89 1.274-2.163 3.529-1.554 4.689q.325.391.728.704a2.7 2.7 0 0 1 1.713-1.097 14 14 0 0 1 4.396-6.198m3.465 11.015a1.05 1.05 0 0 0 .744.78q.286.107.586.16c2.522.435 4.88-1.011 5.41-1.376.04-.027.067 0 .035.048a1 1 0 0 1-.052.074c-.65.84-2.396 1.814-4.669 1.814-.99 0-1.981-.35-2.345-.889-.564-.835-.028-2.053.912-1.926l.412.046a8.6 8.6 0 0 0 4.279-.686c1.283-.598 1.767-1.255 1.694-1.787a.77.77 0 0 0-.22-.435 2.77 2.77 0 0 0-1.213-.576c-.204-.057-.342-.094-.491-.143-.265-.088-.396-.158-.426-.657-.013-.219-.05-.98-.064-1.294-.024-.551-.09-1.304-.556-1.615a.8.8 0 0 0-.399-.128.8.8 0 0 0-.236.023 1.25 1.25 0 0 0-.62.352 2.13 2.13 0 0 1-1.617.541c-.325-.014-.67-.065-1.067-.088q-.116-.008-.231-.013A2.13 2.13 0 0 0 9.859 9.96c-.227 1.565.903 2.374 1.229 2.848.05.06.082.135.09.213a.34.34 0 0 1-.116.224 4.02 4.02 0 0 0-.88 3.763q.066.234.166.456c.824 1.932 3.381 2.832 5.88 2.013q.49-.16.948-.402a5 5 0 0 0 1.454-1.09 4.34 4.34 0 0 0 1.21-2.38c.075-.498-.035-.69-.185-.783a.55.55 0 0 0-.35-.064 4.8 4.8 0 0 0-.331-1.136c-.714.538-1.52.94-2.38 1.187a9.6 9.6 0 0 1-3.181.345c-.69-.056-1.147-.258-1.318.301a7.4 7.4 0 0 0 3.244.331.06.06 0 0 1 .064.053.06.06 0 0 1-.036.063s-1.282.596-3.317-.035ZM8.297 6.795a8 8 0 0 1 2.814-1.248 7.8 7.8 0 0 1 3.464-.009c.04.01.066-.06.03-.08a4.5 4.5 0 0 0-1.913-.503.04.04 0 0 1-.03-.02.04.04 0 0 1 .003-.036q.157-.205.36-.362a.036.036 0 0 0-.002-.059.04.04 0 0 0-.022-.006 5.1 5.1 0 0 0-2.288.81.035.035 0 0 1-.052-.016.04.04 0 0 1-.002-.02q.084-.313.242-.593a.034.034 0 0 0-.024-.05.03.03 0 0 0-.021.003A9.3 9.3 0 0 0 8.25 6.743a.035.035 0 0 0 .023.058.04.04 0 0 0 .024-.006m6.641 5.31a.33.33 0 0 0 .437-.072c.064-.123-.029-.29-.206-.373a.33.33 0 0 0-.437.073c-.064.123.029.29.206.373Zm.545-1.995c.042.221.134.43.269.612a1.7 1.7 0 0 1 .418 0c.081-.244.088-.506.02-.753-.1-.456-.236-.733-.516-.69-.281.043-.291.374-.191.83Zm.597 1.048a.352.352 0 1 0 .255.345.31.31 0 0 0-.255-.345"/><path fill="#000" d="M12.967 11.623c.079-.28.083-.576.013-.86-.102-.456-.255-.717-.54-.674s-.292.411-.2.87c.042.21.124.41.242.59.226.316.38.234.484.074Zm21.599-1.513c-1.372 0-2.049 1.084-2.361 1.783-.173.389-.222.696-.362.696-.202 0-.057-.265-.22-.861-.213-.783-.858-1.613-2.227-1.613-1.438 0-2.056 1.221-2.347 1.893-.201.458-.201.586-.354.586-.222 0-.037-.364.061-.792.121-.49.138-1 .05-1.497h-2.283v8.622h3.11v-4.284c0-.847.354-1.918.957-1.918.702 0 .838.54.838 1.536v4.675h3.126v-4.293c0-.754.305-1.918.96-1.918.71 0 .832.758.832 1.536v4.673h3.073V13.86c.002-2.25-.788-3.75-2.853-3.75m52.859 0c-1.37 0-2.049 1.084-2.359 1.783-.174.389-.221.696-.364.696-.2 0-.064-.34-.217-.861-.229-.778-.797-1.613-2.228-1.613-1.433 0-2.055 1.221-2.348 1.893-.2.458-.2.586-.352.586-.225 0-.04-.364.061-.792.12-.49.135-1 .047-1.497h-2.282v8.622h3.112v-4.284c0-.847.352-1.918.955-1.918.697 0 .84.54.84 1.536v4.675h3.123v-4.293c0-.754.308-1.918.963-1.918.702 0 .832.758.832 1.536v4.673h3.07V13.86c.003-2.25-.785-3.75-2.853-3.75m-44.686.003a9.8 9.8 0 0 0-4.1.879v2.592s1.892-1.093 3.426-1.093c1.223 0 1.373.665 1.319 1.211 0 0-.352-.093-1.43-.093-2.538 0-3.821 1.16-3.821 3.018 0 1.763 1.44 2.499 2.654 2.499 1.77 0 2.548-1.194 2.789-1.763.165-.394.194-.657.345-.657.17 0 .11.19.1.58-.014.688.018 1.205.124 1.643h2.351v-4.24c0-2.649-.93-4.576-3.757-4.576m-.76 6.802c-.747.172-1.13-.059-1.13-.554 0-.68.7-.953 1.696-.953.44 0 .854.04.854.04.002.29-.626 1.283-1.42 1.467m9.646-9.217h3.117V18.93h-3.117zm6.551 6.922c0-.775.716-1.48 2.03-1.48 1.436 0 2.588.695 2.846.85v-2.998s-.91-.88-3.148-.88c-2.361 0-4.326 1.39-4.326 4.376s1.782 4.638 4.316 4.638c1.98 0 3.161-1.093 3.161-1.093v-2.844c-.374.21-1.413.936-2.836.936-1.502 0-2.043-.697-2.043-1.505m11.184-4.507c-1.806 0-2.488 1.713-2.626 2.016-.14.303-.21.47-.323.466-.2-.006-.059-.365.02-.599.3-.975.45-1.989.45-3.01 0-.963-.13-1.283-.13-1.283h-2.689V18.93h3.112v-4.289c0-.699.278-1.917 1.064-1.917.65 0 .852.485.852 1.46v4.749h3.112v-4.565c.007-2.216-.36-4.256-2.842-4.256Zm3.859.207v8.611h3.112V10.32s-.525.303-1.556.303c-1.03 0-1.556-.303-1.556-.303m3.454-1.458c0-.691-.854-1.25-1.908-1.25-1.051 0-1.906.559-1.906 1.25 0 .69.855 1.251 1.906 1.251 1.054 0 1.908-.561 1.908-1.25ZM47.508 10.32v8.611h3.112V10.32s-.525.303-1.554.303-1.558-.303-1.558-.303m3.452-1.458c0-.691-.855-1.25-1.906-1.25-1.053 0-1.906.559-1.906 1.25 0 .69.852 1.251 1.906 1.251 1.051 0 1.906-.561 1.906-1.25Zm45.514 1.248c-1.6 0-2.334 1.212-2.651 1.894-.212.453-.202.585-.355.585-.222 0-.037-.364.062-.792.12-.488.135-.997.047-1.492h-2.28v11.007h3.112v-3.49c.369.63 1.05 1.301 2.107 1.301 2.253 0 3.385-1.917 3.385-4.502-.002-2.933-1.359-4.51-3.427-4.51Zm-.854 6.97c-.714 0-1.238-.908-1.238-2.178 0-1.234.539-2.18 1.213-2.18.867 0 1.236.8 1.236 2.18 0 1.435-.34 2.178-1.211 2.178"/></g><defs><clipPath id="a"><path fill="#fff" d="M0 0h100v22.689H0z"/></clipPath></defs></svg>