<svg xmlns="http://www.w3.org/2000/svg" width="304.762" height="64" fill="none" viewBox="0 0 100 21"><g clip-path="url(#a)"><path fill="#000" d="M34.304 10.747v8.993a.526.526 0 0 1-.53.53H29.89a.53.53 0 0 1-.53-.53V5.536a.531.531 0 0 1 .53-.53h3.886a.529.529 0 0 1 .529.53v1.119c.977-1.225 2.347-1.984 4.27-1.984 1.8 0 3.357.732 4.299 2.106 1.16-1.374 2.808-2.106 4.822-2.106 3.419 0 5.77 2.015 5.77 5.86v9.207a.53.53 0 0 1-.53.529h-3.879a.53.53 0 0 1-.53-.53V11.57c0-1.679-.945-2.503-2.227-2.503-1.069 0-1.923.672-2.411 1.678v8.994a.53.53 0 0 1-.53.529h-3.886a.53.53 0 0 1-.529-.53V11.57c0-1.679-.946-2.503-2.227-2.503-1.1 0-1.923.672-2.412 1.68Zm25.665 9.825c-2.869 0-5.28-1.892-5.28-4.822 0-2.685 1.77-3.938 5.066-4.792l4.213-1.098c-.122-1.008-.916-1.496-2.198-1.496-1.131 0-1.953.435-2.33 1.303a.537.537 0 0 1-.617.324l-3.34-.792a.532.532 0 0 1-.376-.698c.958-2.593 3.62-3.951 6.843-3.951 4.334 0 6.837 2.045 6.837 5.646v9.543a.53.53 0 0 1-.53.53h-3.68a.53.53 0 0 1-.53-.518l-.018-.792-.03.03c-1.253 1.064-2.473 1.583-4.03 1.583Zm1.251-3.815c.642 0 1.132-.182 1.862-.61l.855-.52.031-2.47-2.198.609c-1.495.427-2.167.792-2.167 1.648 0 .947.824 1.343 1.617 1.343Zm15.464-3.693-1.495 1.374v5.3a.53.53 0 0 1-.53.529h-3.794a.53.53 0 0 1-.53-.53V.53a.531.531 0 0 1 .53-.529h3.795a.53.53 0 0 1 .53.53v8.688l4.426-4.072a.534.534 0 0 1 .361-.14h4.684a.53.53 0 0 1 .357.922l-4.549 4.145 5.183 9.409a.531.531 0 0 1-.463.785h-4.43a.53.53 0 0 1-.469-.285l-3.606-6.917Z"/><path fill="#000" d="M92.783 20.603c-4.242 0-8.119-2.655-8.119-8.032 0-5.066 3.724-7.996 7.813-7.996 4.244 0 7.326 2.96 7.448 7.63.014.493.022.837.026 1.081a.53.53 0 0 1-.529.536h-9.874c.152 1.832 1.617 2.991 3.48 2.991 1.324 0 2.41-.55 3.167-1.546a.524.524 0 0 1 .709-.113l2.467 1.651a.537.537 0 0 1 .14.746c-1.315 1.946-3.495 3.052-6.728 3.052Zm-3.144-9.767h5.342c-.03-1.74-1.312-2.502-2.655-2.502-1.252 0-2.534.732-2.687 2.502Z"/><path fill="url(#b)" d="M21.598 20.223h-3.834a.53.53 0 0 1-.53-.53V5.543a.53.53 0 0 1 .53-.527h3.832a.53.53 0 0 1 .53.527v14.15a.53.53 0 0 1-.529.53Z"/><path fill="url(#c)" d="M3.825 20.276.401 18.552a.53.53 0 0 1-.235-.71L6.519 5.204a.53.53 0 0 1 .71-.236l3.425 1.72a.53.53 0 0 1 .236.711L4.536 20.041a.53.53 0 0 1-.71.235Z"/><path fill="url(#d)" d="m13.938 19.99 2.715-13.778a.529.529 0 0 0-.414-.621l-3.757-.76a.53.53 0 0 0-.624.417l-2.715 13.78a.53.53 0 0 0 .415.621l3.756.758a.527.527 0 0 0 .624-.416Z"/></g><defs><linearGradient id="b" x1="12.585" x2="22.928" y1="15.236" y2="11.423" gradientUnits="userSpaceOnUse"><stop offset=".02" stop-color="#B02DE9"/><stop offset=".8" stop-color="#6D00CC"/></linearGradient><linearGradient id="c" x1="3.503" x2="14.621" y1="13.497" y2="8.689" gradientUnits="userSpaceOnUse"><stop stop-color="#F0F"/><stop offset=".18" stop-color="#E80DF9"/><stop offset=".54" stop-color="#C024ED"/><stop offset=".73" stop-color="#B02DE9"/></linearGradient><linearGradient id="d" x1=".907" x2="23.699" y1="17.035" y2="8.644" gradientUnits="userSpaceOnUse"><stop offset=".02" stop-color="#F0F"/><stop offset=".09" stop-color="#E80DF9"/><stop offset=".23" stop-color="#C024ED"/><stop offset=".3" stop-color="#B02DE9"/><stop offset=".42" stop-color="#A42BE3"/><stop offset=".63" stop-color="#8527D5"/><stop offset=".85" stop-color="#6021C3"/></linearGradient><clipPath id="a"><path fill="#fff" d="M0 0h100v20.701H0z"/></clipPath></defs></svg>