<svg xmlns="http://www.w3.org/2000/svg" width="88.889" height="64" fill="none" viewBox="0 0 50 36"><g clip-path="url(#a)"><path fill="url(#b)" d="M48.699 34.89h-8.646a1.194 1.194 0 0 1-1.194-1.194V1.786a1.196 1.196 0 0 1 1.194-1.19h8.643a1.194 1.194 0 0 1 1.197 1.19v31.91a1.189 1.189 0 0 1-1.194 1.194Z"/><path fill="url(#c)" d="M8.63 35.01.906 31.123a1.194 1.194 0 0 1-.53-1.603l14.326-28.5a1.194 1.194 0 0 1 1.602-.53l7.725 3.88a1.194 1.194 0 0 1 .53 1.602L10.232 34.48a1.194 1.194 0 0 1-1.602.53Z"/><path fill="url(#d)" d="M31.438 34.367 37.56 3.293a1.194 1.194 0 0 0-.934-1.4L28.155.181a1.196 1.196 0 0 0-1.409.939l-6.122 31.076a1.195 1.195 0 0 0 .936 1.401l8.47 1.71a1.19 1.19 0 0 0 1.408-.94Z"/></g><defs><linearGradient id="b" x1="28.375" x2="51.699" y1="23.645" y2="15.046" gradientUnits="userSpaceOnUse"><stop offset=".02" stop-color="#B02DE9"/><stop offset=".8" stop-color="#6D00CC"/></linearGradient><linearGradient id="c" x1="7.902" x2="32.976" y1="19.722" y2="8.88" gradientUnits="userSpaceOnUse"><stop stop-color="#F0F"/><stop offset=".18" stop-color="#E80DF9"/><stop offset=".54" stop-color="#C024ED"/><stop offset=".73" stop-color="#B02DE9"/></linearGradient><linearGradient id="d" x1="2.053" x2="53.45" y1="27.701" y2="8.778" gradientUnits="userSpaceOnUse"><stop offset=".02" stop-color="#F0F"/><stop offset=".09" stop-color="#E80DF9"/><stop offset=".23" stop-color="#C024ED"/><stop offset=".3" stop-color="#B02DE9"/><stop offset=".42" stop-color="#A42BE3"/><stop offset=".63" stop-color="#8527D5"/><stop offset=".85" stop-color="#6021C3"/></linearGradient><clipPath id="a"><path fill="#fff" d="M0 0h50v35.459H0z"/></clipPath></defs></svg>