<svg xmlns="http://www.w3.org/2000/svg" width="64" height="64" fill="none" viewBox="0 0 50 50"><g clip-path="url(#a)"><path fill="#000" d="M24.752.514C11.082.514 0 11.477 0 25c0 13.523 11.082 24.486 24.752 24.486 13.67 0 24.75-10.963 24.75-24.486 0-13.523-11.079-24.486-24.75-24.486ZM36.5 31.004c-8.465 8.373-23.583 5.702-23.583 5.702s-2.728-14.928 5.763-23.33c4.704-4.654 12.501-4.461 17.43.385 4.929 4.847 5.095 12.588.39 17.242v.001Zm-8.91-16.14-2.422 4.931-4.982 2.396 4.982 2.396 2.423 4.93 2.422-4.93L35 22.191l-4.985-2.396-2.422-4.93Z"/></g><defs><clipPath id="a"><path fill="#fff" d="M0 0h50v50H0z"/></clipPath></defs></svg>