<svg xmlns="http://www.w3.org/2000/svg" width="50" height="64" fill="none"><path fill="#1DADFF" d="M21.84 21.053c3.422 0-2.894 17.631-2.105 25.263.79 7.632 9.21 5.526 8.684 1.052-1.052-7.631 4.211-31.578 9.211-31.578 3.684 0-4.21 16.315-2.632 26.578 1.053 6.58 10 4.737 8.948.264-2.895-13.421 6.579-26.316 5.263-35.79C48.683 2.895 46.314.79 43.946.79c-8.421 0-15.263 17.368-15.263 17.368s1.052-9.737-6.053-10.263c-10-.526-20.263 24.737-20 47.631.263 7.369 9.21 6.053 8.684.264-.526-10.263 5.263-34.737 10.526-34.737Z"/></svg>