<svg xmlns="http://www.w3.org/2000/svg" width="142.222" height="64" fill="none" viewBox="0 0 100 45"><g clip-path="url(#a)"><path fill="#57B3F9" d="M85.147 29.143C49.289 26.286 19.718 35 13.004 38.286c-3.714 1.714-4 3.857-3.429 5 .429.857 2.286 1.428 4.143.428 14.286-7.714 43-13.857 71.429-12.143a1.28 1.28 0 0 0 1.285-1.285c0-.572-.571-1.143-1.285-1.143Zm8.857-10.857c-1.572 1.714-3.715 3-4.429 2.428-.714-.571 0-2.714 0-2.714 3.572-2.286 10.429-8.143 10.429-12.714 0-4.143-3.715-5.429-7.572-1.572C89.29 7.143 87.004 11.43 85.718 16c-2 2-5.286 4.571-8.143 4.571-1.571 0-1.857-1.142-1.714-2.571 2.428 0 9.286-2 9.286-7.714 0-1-.429-1.857-1.143-2.572-.715-.714-1.572-1-2.572-.857-3.142 0-7 3.143-9 7.714-.428-.142-1-.285-1.428-.571.571-1.143.857-2.286 1.285-3.429.429-2.428-.571-3.857-2.428-3.571-1.286 0-2.714 1.143-3.143 3.571-.143 1.286.143 2.572.572 3.572-.858 2.714-4.286 6-5.43 5.857-1.142-.143.144-4.857 1.287-8.429.714-.714 1.143-1.428 1.571-2.428.286-.714.143-1.572-.571-1.857-1.715-.715-3.715.143-4.429 1.857-.429.857-.857 1.714-1.286 2.714-1 1.143-2.428 2.714-2.857 2.572-.571-.429 1.572-3.286 1.286-5-.143-1.286-1.429-2.286-2.714-2.143-2 .285-4.429 4-4.429 4 .286-.715.429-1.429.571-2.143-.142-1.429-2.714-2-4 .571-.857 2.429-1.571 5-1.857 7.572-.571 1.143-2.714 4.571-4.428 4.714-1.429.143.285-6.143.571-6.429.714-1.142 1.714-3.571 1.572-4.714 0-.571-.143-1-.572-1.286-.428-.285-1-.428-1.428-.285-.858.285-1.572.857-2 1.571-.572-.714-1.572-1.143-2.572-1-5.714.572-9.286 10.572-8.857 15.286.286 2.571 1.572 4.143 3.714 3.714 2.429-.286 4.429-4 4.429-4s.571 3 3.286 2.714c2-.571 3.714-1.857 5-3.571 0 .143-.143.286-.143.571-.429 2.572 3.714 2.286 4 .286 1.285-9.571 4.428-13.428 5.285-13.428.715 0-2 4.428-.428 6.285 1.286 1.429 3.428.286 5.286-1.285-.286 1.142-.429 2.428-.572 3.571-.143 2.714.857 4.857 3.429 4.714 3.428-.143 7-4.428 9.428-8.428.572.428 1.286.714 2 .857-.285 1-.285 2-.285 2.857.142 3.143 2.285 4.286 4.857 4.143 2.857-.143 6.285-2.286 8.571-4.429 0 .143 0 .286-.143.286-.142 1.571.143 4.286 2.286 4.429 2.429.142 6.714-2.286 8.857-5 1.572-.858-.285-2.572-1.571-1.143Zm2.285-12.857c.286 0 .429.285.429.571 0 2.714-6.571 8.286-6.571 8.286s4.285-8.857 6.142-8.857ZM80.29 11c.286 0 .429 0 .572.286.143.285.143.428.143.571 0 1.572-2 2.714-4.286 2.714C78.004 12.714 79.29 11 80.29 11Zm-44.285 4.143c-.143 1.571-3 8.857-4.429 8.857-1.857.143 1-10.143 4-10.143.572 0 .572.429.429 1.286Zm-24.143 2c1.857 0-1.572 9.571-1.143 13.714.429 4.143 5 3 4.714.572-.571-4.143 2.286-17.143 5-17.143 2 0-2.285 8.857-1.428 14.428.571 3.572 5.428 2.572 4.857.143-1.572-7.286 3.571-14.286 2.857-19.428-.286-2.143-1.571-3.286-2.857-3.286-4.572 0-8.286 9.428-8.286 9.428s.572-5.285-3.285-5.571c-5.429-.286-11 13.429-10.858 25.857.143 4 5 3.286 4.715.143-.286-5.571 2.857-18.857 5.714-18.857Z"/></g><defs><clipPath id="a"><path fill="#fff" d="M0 0h100v44.286H0z"/></clipPath></defs></svg>