<svg xmlns="http://www.w3.org/2000/svg" width="128" height="64" fill="none" viewBox="0 0 50 25"><g clip-path="url(#a)"><path fill="#000" fill-rule="evenodd" d="M2.345 21.973a7.89 7.89 0 0 1 0-11.227l8.493-8.42c2.643-2.622 6.675-3.027 9.748-1.217.95.56.942 1.845.16 2.62s-2.058.708-3.119.4a4.03 4.03 0 0 0-3.958 1.003l-8.493 8.42a3.946 3.946 0 0 0 0 5.614 4.03 4.03 0 0 0 5.662 0l16.985-16.84c3.127-3.101 8.197-3.101 11.324 0l8.492 8.42a7.89 7.89 0 0 1 0 11.227c-3.126 3.1-8.196 3.1-11.323 0l-2.83-2.807-3.54 3.509c-2.643 2.62-6.675 3.026-9.747 1.216-.95-.56-.942-1.844-.16-2.62.781-.775 2.057-.708 3.118-.4a4.03 4.03 0 0 0 3.959-1.003l3.64-3.609a3.884 3.884 0 0 1 5.459 0l2.932 2.907a4.03 4.03 0 0 0 5.662 0 3.945 3.945 0 0 0 0-5.613l-8.493-8.42a4.03 4.03 0 0 0-5.662 0L13.67 21.972c-3.127 3.1-8.197 3.1-11.324 0Z" clip-rule="evenodd"/></g><defs><clipPath id="a"><path fill="#fff" d="M0 0h50v25H0z"/></clipPath></defs></svg>