<svg xmlns="http://www.w3.org/2000/svg" width="336.842" height="64" fill="none" viewBox="0 0 100 19"><g fill="#000" clip-path="url(#a)"><path fill-rule="evenodd" d="M1.719 16.102a5.783 5.783 0 0 1 0-8.227l6.223-6.171a5.91 5.91 0 0 1 7.144-.891c.696.41.69 1.351.117 1.92-.573.567-1.508.519-2.285.293a2.95 2.95 0 0 0-2.901.735L3.793 9.93a2.89 2.89 0 0 0 0 4.115 2.95 2.95 0 0 0 4.15 0L20.39 1.704a5.903 5.903 0 0 1 8.298 0l6.223 6.17a5.783 5.783 0 0 1 0 8.228 5.903 5.903 0 0 1-8.298 0l-2.074-2.056-2.594 2.57c-1.937 1.921-4.891 2.218-7.143.892-.696-.41-.69-1.352-.117-1.92.572-.568 1.507-.519 2.285-.293a2.95 2.95 0 0 0 2.9-.735l2.668-2.645a2.846 2.846 0 0 1 4.001 0l2.149 2.13a2.95 2.95 0 0 0 4.149 0 2.89 2.89 0 0 0 0-4.113L26.613 3.76a2.95 2.95 0 0 0-4.149 0L10.017 16.102a5.903 5.903 0 0 1-8.298 0" clip-rule="evenodd"/><path d="M60.065 3.297c-1.441 0-2.534.517-3.255 1.55-.633-1.033-1.638-1.55-2.97-1.55-1.377 0-2.382.474-3.038 1.442v-1.14h-2.818v10.756h2.819V8.31c0-1.57.808-2.431 2.053-2.431 1.158 0 1.835.753 1.835 2.044v6.432h2.818V8.31c0-1.57.743-2.431 2.032-2.431 1.158 0 1.835.753 1.835 2.044v6.432h2.818V7.729c0-2.69-1.616-4.432-4.129-4.432m14.609 1.571c-.852-1.054-2.031-1.57-3.56-1.57-1.464 0-2.71.559-3.758 1.656-1.027 1.097-1.551 2.43-1.551 4.023s.524 2.947 1.55 4.044c1.05 1.097 2.295 1.635 3.758 1.635 1.53 0 2.71-.516 3.561-1.57v1.269h2.819V3.599h-2.819zm-5.2 6.303q-.85-.87-.851-2.194c0-.882.284-1.614.852-2.173.568-.58 1.289-.86 2.163-.86s1.594.28 2.162.86c.59.56.874 1.29.874 2.173 0 .882-.284 1.613-.874 2.194q-.85.84-2.162.84t-2.163-.84Zm18.414-5.722v-1.85h-8.192v2.603h4.39l-4.61 6.303v1.85h8.63v-2.603h-4.85zm12.001 4.668c.065-.409.109-.774.109-1.14 0-1.614-.524-2.947-1.573-4.045-1.026-1.097-2.36-1.635-3.954-1.635-1.682 0-3.08.538-4.151 1.635-1.07 1.076-1.617 2.431-1.617 4.045q0 2.452 1.64 4.066c1.091 1.075 2.533 1.613 4.346 1.613 2.097 0 3.693-.774 4.763-2.302l-2.272-1.29c-.546.71-1.376 1.075-2.447 1.075-1.682 0-2.709-.667-3.08-2.022zm-8.28-2.151c.328-1.377 1.354-2.173 2.862-2.173 1.289 0 2.381.71 2.71 2.173z"/></g><defs><clipPath id="a"><path fill="#fff" d="M0 0h100v18.321H0z"/></clipPath></defs></svg>