<svg xmlns="http://www.w3.org/2000/svg" width="400" height="64" fill="none" viewBox="0 0 100 16"><g clip-path="url(#a)"><path fill="#000" d="M15.058 7.773c0 4.15-3.34 7.53-7.49 7.53s-7.49-3.38-7.49-7.53 3.34-7.53 7.49-7.53 7.49 3.38 7.49 7.53m8.218 0c0 3.907-1.68 7.085-3.744 7.085s-3.745-3.178-3.745-7.085S17.467.688 19.532.688c2.064 0 3.744 3.178 3.744 7.085m3.36 0c0 3.502-.586 6.357-1.315 6.357s-1.316-2.855-1.316-6.357.587-6.356 1.316-6.356 1.316 2.854 1.316 6.356ZM47.265.891h.02V.729h-4.25l-3.948 9.291L35.14.73h-4.575v.16h.02c.77.182 1.174.445 1.174 1.376V13.3c0 .951-.405 1.194-1.174 1.376h-.02v.162h3.117v-.162h-.02c-.77-.182-1.174-.445-1.174-1.376V2.895l5.081 11.943h.283l5.223-12.267v10.992c-.06.749-.465.971-1.154 1.133h-.02v.162h5.425v-.162h-.02c-.709-.162-1.114-.384-1.174-1.133V2.247c-.02-.911.364-1.174 1.133-1.356m2.49 7.307c.081-1.983.81-3.42 2.004-3.44q.547 0 .911.363c.506.486.75 1.539.709 3.077zm-.06.567h6.356v-.02c-.02-1.518-.466-2.692-1.296-3.502-.728-.709-1.822-1.093-2.955-1.093h-.02c-.588 0-1.316.141-1.822.405a4.2 4.2 0 0 0-1.539 1.214c-.688.85-1.113 2.025-1.214 3.32v.243c0 .182-.02.364 0 .547.06 2.955 1.66 5.323 4.494 5.323 2.49 0 3.947-1.821 4.291-4.27l-.182-.062c-.628 1.316-1.782 2.106-3.077 2.005-1.802-.142-3.158-1.944-3.036-4.11m13.522 4.008c-.203.486-.648.77-1.235.77s-1.113-.405-1.498-1.134c-.405-.79-.627-1.883-.627-3.178 0-2.713.85-4.474 2.145-4.474.547 0 .972.263 1.195.75v7.266zm4.23 1.944c-.769-.183-1.174-.466-1.174-1.458V.081l-4.716 1.397v.162h.02c.648-.061 1.093.04 1.356.283.203.182.304.466.304.87v1.802c-.466-.304-1.012-.445-1.68-.445a4.53 4.53 0 0 0-3.502 1.62c-.931 1.092-1.437 2.57-1.437 4.29 0 3.078 1.518 5.142 3.765 5.142 1.316 0 2.368-.728 2.854-1.943v1.64h4.23v-.162zm4.029-12.855c0-.951-.729-1.68-1.68-1.68-.952 0-1.7.75-1.7 1.68 0 .952.748 1.68 1.7 1.68.971.02 1.68-.708 1.68-1.68m1.113 12.855c-.769-.183-1.174-.466-1.174-1.458V4.17l-4.23 1.215v.162h.02c.91.08 1.174.404 1.174 1.457v7.854h4.23v-.162l-.02.02Zm10.85 0c-.769-.183-1.174-.466-1.174-1.458V4.17l-4.028 1.174v.162h.02c.75.081.972.405.972 1.478v5.769c-.243.486-.709.79-1.296.81-.91 0-1.417-.628-1.417-1.741V4.19l-4.23 1.215v.162h.02c.91.08 1.174.405 1.174 1.457v4.859c0 .344.02.668.08 1.012l.082.324c.364 1.275 1.295 1.963 2.773 1.963 1.255 0 2.348-.77 2.814-1.984v1.68h4.23zm16.458.162v-.162h-.02c-.85-.203-1.174-.567-1.174-1.316V7.227c0-1.923-1.073-3.077-2.895-3.077-1.316 0-2.43.769-2.854 1.943-.344-1.255-1.316-1.943-2.774-1.943-1.275 0-2.267.668-2.692 1.801V4.17l-4.23 1.174v.162h.02c.91.081 1.174.405 1.174 1.458v7.915h3.947v-.162h-.02c-.668-.162-.89-.446-.89-1.195V6.437c.181-.425.525-.91 1.234-.91.87 0 1.336.607 1.336 1.8v7.531h3.947v-.162h-.02c-.668-.162-.89-.445-.89-1.194V7.206c0-.242-.02-.465-.061-.708.182-.445.566-.992 1.295-.992.89 0 1.336.587 1.336 1.802v7.53h4.231z"/></g><defs><clipPath id="a"><path fill="#fff" d="M0 0h100v15.385H0z"/></clipPath></defs></svg>