<svg xmlns="http://www.w3.org/2000/svg" width="110.345" height="64" fill="none" viewBox="0 0 50 29"><g clip-path="url(#a)"><path fill="#000" d="M28.193 14.194c0 7.838-6.311 14.193-14.096 14.193S0 22.03 0 14.193C0 6.357 6.311 0 14.097 0s14.096 6.355 14.096 14.194m15.464 0c0 7.378-3.156 13.362-7.048 13.362s-7.049-5.984-7.049-13.363S32.715.831 36.608.831s7.049 5.982 7.049 13.363m6.325 0c0 6.609-1.11 11.97-2.479 11.97s-2.478-5.36-2.478-11.97 1.11-11.97 2.478-11.97c1.37 0 2.48 5.358 2.48 11.97Z"/></g><defs><clipPath id="a"><path fill="#fff" d="M0 0h50v28.4H0z"/></clipPath></defs></svg>