<svg xmlns="http://www.w3.org/2000/svg" width="336.842" height="64" fill="none" viewBox="0 0 100 19"><g clip-path="url(#a)"><path fill="#1F1F30" d="M12.013 15.374a2.92 2.92 0 0 0-.931-2.662 2.91 2.91 0 0 0-1.98-.782c-.433 0-.85-.1-1.232-.3a2.847 2.847 0 0 1-1.165-1.18c.15-.383.217-.8.217-1.249 0 1.215.965 2.197 2.163 2.197h.05c1.181-.017 2.13-.999 2.13-2.197 0-.432.083-.848.216-1.248a3.5 3.5 0 0 1 1.165-1.564 3.44 3.44 0 0 1 2.246-.698 6.738 6.738 0 0 0-2.33-2.363v.166c0 .766-.25 1.498-.698 2.113a2.514 2.514 0 0 0-.433-.3c.4-.515.599-1.147.599-1.796 0-.383-.067-.766-.216-1.132A2.943 2.943 0 0 0 9.168.532h-.166c-.732 0-1.448.1-2.147.3C3.91 1.63 1.597 3.977.815 6.955A3.548 3.548 0 0 0 0 9.118C.05 4.11 4.043.05 9.002 0h.233c4.925.083 8.901 4.11 8.951 9.118v.2a3.45 3.45 0 0 1-.815 2.163 3.392 3.392 0 0 1-1.83 1.148 3.42 3.42 0 0 1-2.895-.599c-.217.3-.483.549-.766.782.483.649.732 1.464.682 2.28a6.738 6.738 0 0 0 2.33-2.363c.216-.017.433-.05.649-.1a7.31 7.31 0 0 1-3.078 3.111 7.18 7.18 0 0 1-3.361.832c-.516 0-.999-.25-1.298-.648a1.686 1.686 0 0 1 .25-2.28c.332.083.698.133 1.064.133-.616 0-1.131.516-1.131 1.148 0 .632.499 1.148 1.131 1.148h.017c.615 0 1.131-.516 1.131-1.148 0-.632-.499-1.148-1.131-1.148a4.51 4.51 0 0 1-2.346-.665c-.15-.1-.3-.2-.433-.3-.3-.233-.549-.5-.782-.782.133-.1.266-.216.4-.35.316.417.715.783 1.18 1.049.6.35 1.282.532 1.98.532.4 0 .783.15 1.066.4a1.686 1.686 0 0 1 .25 2.28 6.56 6.56 0 0 0 1.58-.533l-.017-.034Zm3.71-7.487a6.127 6.127 0 0 0-.532-1.614 2.924 2.924 0 0 0-2.246.566 3.012 3.012 0 0 0-1.165 2.379c0 .45-.1.865-.3 1.248-.249.5-.665.915-1.147 1.181.449.167.848.433 1.198.766a3.837 3.837 0 0 0 1.015-1.182c.35-.615.532-1.298.532-2.013a1.666 1.666 0 0 1 1.648-1.664c.365 0 .715.117.998.333Zm.117 1.281c-.016-.599-.515-1.081-1.131-1.098-.633 0-1.132.516-1.132 1.131v.034a1.133 1.133 0 0 0 2.263-.033v-.034ZM13.477 10.3c-.116.449-.282.898-.532 1.297.632.5 1.448.7 2.246.566.217-.033.433-.1.65-.183a2.984 2.984 0 0 0 1.83-2.679v-.15c0-.732-.1-1.464-.3-2.18-.782-2.961-3.095-5.307-6.023-6.122a3.574 3.574 0 0 1 1.131 1.847v.016a7.35 7.35 0 0 1 3.361 3.76c.35.85.533 1.78.533 2.763a1.64 1.64 0 0 1-.65 1.314c-.282.216-.632.35-.998.35-.499-.017-.948-.25-1.248-.6Zm-4.509 8.12C4.043 18.335.067 14.292.017 9.3v-.2a3.45 3.45 0 0 1 .815-2.163 3.492 3.492 0 0 1 1.83-1.148c.266-.066.55-.1.816-.1.748 0 1.48.25 2.08.7.216-.3.482-.55.765-.783a3.598 3.598 0 0 1-.699-2.28 6.739 6.739 0 0 0-2.33 2.364c-.216.016-.432.05-.648.1a7.309 7.309 0 0 1 3.078-3.112 7.18 7.18 0 0 1 3.36-.832c.517 0 1 .25 1.299.649.216.283.333.632.333 1.015 0 .516-.233.965-.583 1.264a4.553 4.553 0 0 0-1.065-.133c.616 0 1.132-.516 1.132-1.148 0-.632-.5-1.148-1.132-1.148h-.016c-.616 0-1.132.516-1.132 1.148 0 .632.5 1.148 1.132 1.148.832 0 1.63.233 2.346.666.15.1.3.2.432.3.283.232.55.498.782.781-.133.1-.266.217-.399.35a3.973 3.973 0 0 0-1.181-1.048 3.925 3.925 0 0 0-1.98-.533 1.69 1.69 0 0 1-1.065-.4 1.682 1.682 0 0 1-.583-1.264c0-.383.133-.732.333-1.015-.549.117-1.098.3-1.597.533a2.92 2.92 0 0 0 .932 2.662 2.91 2.91 0 0 0 1.98.782c.432 0 .848.1 1.23.3.5.266.9.682 1.166 1.18-.15.4-.233.816-.217 1.249 0-1.215-.965-2.197-2.163-2.197h-.016c-1.182.017-2.13.999-2.13 2.197 0 .432-.083.848-.217 1.248a3.5 3.5 0 0 1-1.164 1.564 3.44 3.44 0 0 1-2.246.698 6.738 6.738 0 0 0 2.329 2.363c-.033-.815.2-1.614.682-2.263.133.117.283.217.433.3a2.92 2.92 0 0 0-.6 1.797c0 .383.067.765.217 1.131a2.943 2.943 0 0 0 2.646 1.847h.15c.732 0 1.447-.1 2.146-.3 2.945-.798 5.258-3.144 6.04-6.122a3.55 3.55 0 0 0 .815-2.163c-.05 5.008-4.043 9.068-9.002 9.118h-.2c.05.016.017.016.017.016Zm-2.113-.833a3.575 3.575 0 0 1-1.131-1.847v-.016a7.35 7.35 0 0 1-3.361-3.76A7.482 7.482 0 0 1 1.83 9.2c0-.532.25-1.015.65-1.314.282-.216.615-.35.998-.35.499 0 .948.233 1.247.583.117-.466.283-.899.533-1.298a2.858 2.858 0 0 0-2.246-.566c-.233.034-.433.1-.65.183a2.984 2.984 0 0 0-1.83 2.68v.166c0 .732.1 1.464.3 2.18.799 2.978 3.095 5.324 6.023 6.122Zm-3.843-5.424a2.924 2.924 0 0 0 2.246-.566 3.011 3.011 0 0 0 1.165-2.379c0-.45.1-.865.3-1.248.249-.5.665-.915 1.147-1.181h-.016a3.51 3.51 0 0 1-1.198-.766A3.837 3.837 0 0 0 5.64 7.205a4.047 4.047 0 0 0-.533 2.013 1.665 1.665 0 0 1-1.647 1.664c-.383 0-.716-.133-.998-.35.133.566.316 1.115.549 1.631Zm-.65-2.895c.034.599.517 1.098 1.132 1.098.632 0 1.132-.516 1.132-1.131V9.2a1.126 1.126 0 0 0-1.132-1.098c-.632 0-1.131.516-1.131 1.148v.017Zm23.129-4.875h2.496l2.33 6.356h.032l2.297-6.356h2.495v8.951h-1.58V6.156h-.017l-2.712 7.188h-1.115l-2.679-7.188h-.016v7.188h-1.514l-.017-8.951Zm14.01 0h5.923V5.79h-4.326v2.28h4.11V9.4h-4.127v2.53h4.56v1.413h-6.157l.017-8.951Zm12.978 3.86c.233 0 .45-.017.682-.05.217-.033.416-.1.616-.183a1.3 1.3 0 0 0 .45-.4c.116-.166.182-.399.182-.665 0-.25-.05-.45-.166-.599a1.25 1.25 0 0 0-.416-.366 1.407 1.407 0 0 0-.582-.183c-.2-.033-.416-.05-.633-.05h-1.447V8.27c.016-.017 1.314-.017 1.314-.017Zm-2.895-3.86h3.111c.416 0 .833.05 1.232.133.383.083.732.233 1.048.432.3.2.566.483.732.8.183.332.283.731.283 1.197 0 .649-.183 1.181-.55 1.58-.365.417-.864.683-1.497.833l2.38 3.96h-1.914l-2.063-3.794h-1.165v3.794h-1.597V4.393Zm16.789 2.096a1.996 1.996 0 0 0-.915-.699 2.832 2.832 0 0 0-1.115-.216c-.433 0-.866.083-1.265.25-.366.166-.699.399-.982.698-.282.3-.499.65-.632 1.032-.15.416-.233.849-.216 1.281 0 .483.067.932.216 1.331.15.4.35.75.616 1.049.266.283.582.515.948.682.366.166.782.233 1.248.233a2.9 2.9 0 0 0 1.281-.283c.35-.183.666-.433.899-.749l1.281.899c-.383.499-.882.882-1.447 1.148-.566.266-1.248.416-2.014.416a5.173 5.173 0 0 1-1.93-.35 4.526 4.526 0 0 1-1.514-.965 4.26 4.26 0 0 1-.982-1.497 5.087 5.087 0 0 1-.35-1.914c0-.715.117-1.364.367-1.946a4.2 4.2 0 0 1 1.015-1.465c.45-.416.965-.732 1.53-.931a5.405 5.405 0 0 1 2.813-.25c.316.05.615.133.898.25.283.116.55.25.815.415.25.167.466.367.65.6 0 .033-1.215.981-1.215.981Zm11.847 3.56c0 .533-.1 1.033-.283 1.465a2.979 2.979 0 0 1-.766 1.098c-.332.3-.715.55-1.131.7a4.248 4.248 0 0 1-2.862 0 3.55 3.55 0 0 1-1.148-.7 3.353 3.353 0 0 1-.765-1.098c-.183-.432-.267-.915-.267-1.464V4.393h1.598v5.59c0 .267.033.516.1.782.066.25.183.483.332.683.15.2.366.366.616.499s.582.183.948.183c.383 0 .7-.067.949-.183.25-.117.449-.283.615-.5.15-.2.267-.432.333-.682.067-.25.1-.515.1-.782v-5.59h1.597c.034 0 .034 5.657.034 5.657Zm7.171-1.796c.233 0 .45-.017.682-.05.233-.033.433-.1.616-.183a1.3 1.3 0 0 0 .45-.4c.116-.166.182-.399.182-.665 0-.25-.05-.45-.166-.599-.1-.15-.25-.283-.416-.366a1.407 1.407 0 0 0-.583-.183c-.2-.033-.416-.05-.632-.05h-1.448V8.27c.017-.017 1.315-.017 1.315-.017Zm-2.895-3.86h3.111c.416 0 .832.05 1.232.133.382.083.732.233 1.048.432.3.2.549.466.732.8.183.332.283.731.283 1.197 0 .649-.183 1.181-.55 1.58-.365.417-.865.683-1.497.833l2.38 3.96H87.32l-2.063-3.794h-1.165v3.794h-1.597V4.393Zm12.413 5.075-3.362-5.059h1.947l2.246 3.76 2.28-3.76h1.847l-3.361 5.059v3.876h-1.597V9.468Z"/></g><defs><clipPath id="a"><path fill="#fff" d="M0 0h100v18.469H0z"/></clipPath></defs></svg>