<svg xmlns="http://www.w3.org/2000/svg" width="64" height="64" fill="none" viewBox="0 0 32 32"><path fill="#283544" fill-rule="evenodd" d="M30 16c0-7.7-6.3-14-14-14S2 8.3 2 16s6.3 14 14 14 14-6.3 14-14M16 27.725a11.69 11.69 0 0 0 10.073-5.734l-10.117-4.154-10.054 4.128c.492.834 1.09 1.608 1.785 2.304A11.72 11.72 0 0 0 16 27.725M5.621 21.463A11.7 11.7 0 0 1 4.275 16c0-3.106 1.225-6.081 3.456-8.225a11.68 11.68 0 0 1 7.818-3.404l-1.343 10.492zm10.517-17.1c3.055.035 5.933 1.214 8.13 3.412a11.7 11.7 0 0 1 3.413 8.269c0 1.917-.45 3.768-1.32 5.43l-8.392-6.655z" clip-rule="evenodd"/></svg>