<svg xmlns="http://www.w3.org/2000/svg" width="62.745" height="64" fill="none" viewBox="0 0 50 51"><g clip-path="url(#a)"><path fill="#1F1F30" d="M32.818 42a7.978 7.978 0 0 0-2.545-7.273 7.951 7.951 0 0 0-5.41-2.136 7.21 7.21 0 0 1-3.363-.818c-1.364-.727-2.454-1.864-3.182-3.227.41-1.046.591-2.182.591-3.41 0 3.319 2.637 6 5.91 6h.136c3.227-.045 5.818-2.727 5.818-6 0-1.181.227-2.318.59-3.409a9.564 9.564 0 0 1 3.182-4.273c1.773-1.363 3.955-2 6.137-1.909a18.41 18.41 0 0 0-6.364-6.454v.454c0 2.091-.682 4.091-1.909 5.773a6.862 6.862 0 0 0-1.182-.818c1.091-1.41 1.637-3.136 1.637-4.91a8.12 8.12 0 0 0-.591-3.09c-1.182-2.91-3.955-4.955-7.228-5.045h-.454c-2 0-3.955.272-5.864.818C10.682 4.455 4.364 10.863 2.227 19 .864 20.682.045 22.727 0 24.91.136 11.226 11.046.135 24.59 0h.637c13.455.227 24.318 11.227 24.455 24.91v.545a9.424 9.424 0 0 1-2.227 5.909c-1.273 1.545-3.046 2.681-5 3.136-.728.182-1.5.273-2.228.273a9.5 9.5 0 0 1-5.681-1.91c-.591.819-1.319 1.5-2.091 2.137 1.318 1.773 2 4 1.863 6.227a18.41 18.41 0 0 0 6.364-6.454c.59-.046 1.182-.137 1.773-.273-1.864 3.636-4.819 6.59-8.41 8.5-2.818 1.5-6 2.273-9.181 2.273a4.456 4.456 0 0 1-3.546-1.773 4.707 4.707 0 0 1-.909-2.773c0-1.363.637-2.636 1.591-3.454.91.227 1.91.363 2.91.363-1.683 0-3.092 1.41-3.092 3.137s1.364 3.136 3.091 3.136h.046c1.681 0 3.09-1.409 3.09-3.136 0-1.728-1.363-3.137-3.09-3.137-2.273 0-4.455-.636-6.41-1.818-.409-.273-.818-.545-1.181-.818-.819-.636-1.5-1.364-2.137-2.136.364-.273.727-.591 1.091-.955.864 1.136 1.955 2.136 3.227 2.864 1.637.954 3.5 1.454 5.41 1.454a4.43 4.43 0 0 1 2.909 1.091 4.606 4.606 0 0 1 1.59 3.455c0 1-.318 1.954-.909 2.772 1.5-.318 2.955-.772 4.319-1.454L32.818 42Zm10.137-20.454c-.273-1.546-.773-3-1.455-4.41-2.182-.363-4.41.228-6.136 1.546a8.227 8.227 0 0 0-3.182 6.5 7.258 7.258 0 0 1-.818 3.409c-.682 1.363-1.819 2.5-3.137 3.227 1.227.455 2.319 1.182 3.273 2.091 1.136-.864 2.09-2 2.773-3.227a11.055 11.055 0 0 0 1.454-5.5c0-1.136.41-2.136 1.091-2.955.864-1 2.091-1.59 3.41-1.59 1 0 1.954.317 2.727.909Zm.318 3.5c-.046-1.637-1.41-2.955-3.091-3a3.094 3.094 0 0 0-3.091 3.09v.091c.045 1.682 1.409 3 3.09 3 1.728 0 3.092-1.409 3.092-3.09v-.091Zm-6.455 3.09c-.318 1.228-.773 2.455-1.454 3.546 1.727 1.363 3.954 1.909 6.136 1.545.59-.09 1.182-.272 1.773-.5 2.954-1.227 4.909-4.09 5-7.318V25c0-2-.273-4-.819-5.954C45.319 10.955 39 4.546 31 2.317c1.545 1.318 2.59 3.091 3.09 5.046v.045c4.183 2.227 7.41 5.864 9.183 10.273.954 2.318 1.454 4.864 1.454 7.545a4.478 4.478 0 0 1-1.772 3.591c-.773.591-1.728.955-2.728.955a4.712 4.712 0 0 1-3.409-1.637ZM24.5 50.318C11.046 50.091.182 39.045.045 25.41v-.545a9.425 9.425 0 0 1 2.228-5.91c1.272-1.545 3.045-2.636 5-3.136a9.334 9.334 0 0 1 2.227-.272 9.5 9.5 0 0 1 5.682 1.909c.59-.819 1.318-1.5 2.09-2.137a9.83 9.83 0 0 1-1.908-6.227A18.41 18.41 0 0 0 9 15.546c-.59.045-1.182.136-1.773.272 1.864-3.636 4.819-6.59 8.41-8.5 2.817-1.5 6-2.273 9.181-2.273 1.41 0 2.727.682 3.546 1.773.59.773.909 1.727.909 2.773 0 1.409-.637 2.636-1.591 3.455a12.436 12.436 0 0 0-2.91-.364c1.683 0 3.092-1.41 3.092-3.137S26.5 6.41 24.773 6.41h-.046c-1.681 0-3.09 1.41-3.09 3.136 0 1.728 1.363 3.137 3.09 3.137 2.273 0 4.455.636 6.41 1.818.409.273.817.546 1.181.818.773.636 1.5 1.364 2.137 2.136-.364.273-.728.591-1.091.955-.864-1.136-1.955-2.136-3.228-2.863a10.721 10.721 0 0 0-5.409-1.455c-1.045 0-2.09-.41-2.909-1.091a4.595 4.595 0 0 1-1.59-3.455c0-1.045.363-2 .908-2.772-1.5.318-3 .818-4.363 1.454a7.978 7.978 0 0 0 2.545 7.273 7.952 7.952 0 0 0 5.41 2.136 7.21 7.21 0 0 1 3.363.819c1.363.727 2.454 1.863 3.182 3.227-.41 1.09-.637 2.227-.591 3.409 0-3.318-2.636-6-5.91-6h-.045c-3.227.045-5.818 2.727-5.818 6 0 1.182-.227 2.318-.59 3.409a9.564 9.564 0 0 1-3.183 4.273c-1.772 1.363-3.954 2-6.136 1.909a18.41 18.41 0 0 0 6.364 6.454c-.091-2.227.545-4.409 1.863-6.181.364.318.773.59 1.182.818-1.09 1.409-1.636 3.136-1.636 4.909 0 1.045.181 2.09.59 3.09 1.183 2.91 3.955 4.955 7.228 5.046H25c2 0 3.954-.273 5.864-.818 8.045-2.182 14.363-8.59 16.5-16.727 1.363-1.682 2.181-3.727 2.227-5.91C49.455 39.046 38.545 50.137 25 50.274h-.546c.137.045.046.045.046.045Zm-5.773-2.273c-1.545-1.318-2.59-3.09-3.09-5.045v-.045c-4.183-2.228-7.41-5.864-9.182-10.273A20.438 20.438 0 0 1 5 25.136c0-1.454.682-2.772 1.773-3.59.772-.591 1.682-.955 2.727-.955 1.364 0 2.59.636 3.41 1.59.317-1.272.772-2.454 1.454-3.545-1.728-1.363-3.955-1.909-6.137-1.545-.636.09-1.182.273-1.772.5-2.955 1.227-4.91 4.09-5 7.318v.455c0 2 .272 4 .818 5.954 2.182 8.137 8.454 14.546 16.454 16.727Zm-10.5-14.818c2.182.364 4.41-.227 6.137-1.545a8.227 8.227 0 0 0 3.181-6.5 7.26 7.26 0 0 1 .819-3.41c.681-1.363 1.818-2.5 3.136-3.226h-.046c-1.227-.455-2.318-1.182-3.272-2.091-1.136.863-2.091 2-2.773 3.227a11.055 11.055 0 0 0-1.455 5.5c0 1.136-.409 2.136-1.09 2.954-.864 1-2.091 1.591-3.41 1.591-1.045 0-1.954-.363-2.727-.954a24.442 24.442 0 0 0 1.5 4.454Zm-1.772-7.909c.09 1.636 1.409 3 3.09 3 1.728 0 3.091-1.409 3.091-3.09v-.092a3.076 3.076 0 0 0-3.09-3c-1.728 0-3.091 1.41-3.091 3.137v.045Z"/></g><defs><clipPath id="a"><path fill="#fff" d="M0 0h50v50.455H0z"/></clipPath></defs></svg>