<svg xmlns="http://www.w3.org/2000/svg" width="320" height="64" fill="none" viewBox="0 0 100 20"><path fill="#161616" d="M87.944 9.674c-.517-.337-1.081-.581-1.616-.883-.35-.192-.721-.367-1.023-.617-.512-.418-.408-1.25.127-1.61.774-.512 2.047-.227 2.186.82 0 .023.024.04.047.04h1.163c.029 0 .052-.023.04-.058a2.3 2.3 0 0 0-.848-1.71 2.7 2.7 0 0 0-1.651-.563c-3.07 0-3.355 3.25-1.698 4.273.192.116 1.814.93 2.383 1.285.582.355.756 1.006.512 1.512-.232.47-.814.796-1.407.755-.64-.034-1.14-.383-1.314-.924a1.8 1.8 0 0 1-.046-.366.05.05 0 0 0-.015-.032.05.05 0 0 0-.032-.015h-1.261c-.018 0-.041.024-.041.047 0 .907.227 1.413.843 1.872.581.436 1.22.622 1.872.622 1.727 0 2.616-.977 2.79-1.983.163-.988-.127-1.877-1.011-2.465M33.177 5.262h-1.175a.05.05 0 0 0-.04.029l-1.035 3.407a.047.047 0 0 1-.093 0L29.799 5.29c-.006-.024-.024-.03-.047-.03h-1.924c-.023 0-.047.024-.047.041V14c0 .023.024.046.047.046h1.261a.05.05 0 0 0 .047-.046V7.384c0-.053.076-.059.087-.012l1.047 3.43.075.233c0 .029.018.035.04.035h.972c.023 0 .035-.018.04-.03l.076-.244 1.047-3.43c.011-.046.087-.035.087.018v6.61a.05.05 0 0 0 .046.047h1.262a.05.05 0 0 0 .047-.047V5.302c0-.017-.024-.04-.047-.04zm35.453 0q-.016 0-.027.007a.05.05 0 0 0-.02.022L67.55 8.698a.046.046 0 0 1-.047.046.046.046 0 0 1-.047-.047l-1.034-3.406c0-.024-.018-.03-.04-.03h-1.92c-.023 0-.046.024-.046.041V14a.05.05 0 0 0 .046.046h1.262c.018 0 .04-.023.04-.046V7.384c0-.053.076-.059.094-.012l1.046 3.43.07.233c.012.029.023.035.047.035h.965a.06.06 0 0 0 .046-.03l.076-.244 1.046-3.43c.012-.046.087-.035.087.018v6.61c0 .023.024.047.047.047h1.262a.05.05 0 0 0 .046-.047V5.302c0-.017-.023-.04-.046-.04zm-16.273 0h-5.96c-.017 0-.04.023-.04.04v1.093c0 .023.023.047.04.047h2.309V14c0 .029.023.052.04.052h1.262a.05.05 0 0 0 .046-.046v-7.57h2.303a.05.05 0 0 0 .046-.047V5.302c0-.017-.011-.04-.046-.04m7.442 8.784h1.15c.03 0 .053-.034.042-.058l-2.373-8.726c0-.024-.017-.035-.04-.035H56.92a.05.05 0 0 0-.04.034l-2.373 8.721c-.012.03.012.059.04.059H55.7c.023 0 .035-.012.046-.03l.686-2.534c.006-.024.024-.03.047-.03h2.535q.036.001.046.03l.686 2.534c.012.018.035.035.047.035zm-3.012-3.843.919-3.4a.047.047 0 1 1 .093 0l.918 3.4a.043.043 0 0 1-.04.059h-1.843c-.035 0-.059-.03-.047-.059m22.587 3.843h1.151c.03 0 .053-.034.047-.058L78.2 5.256c-.012-.024-.023-.035-.047-.035h-1.645q-.016 0-.028.01a.05.05 0 0 0-.019.025l-2.372 8.72c-.005.03.018.059.047.059h1.145q.035-.002.047-.03l.686-2.534c.011-.023.023-.03.046-.03h2.541c.017 0 .035.012.04.03l.693 2.535c0 .017.023.035.04.035zm-3.011-3.843.924-3.4a.05.05 0 0 1 .017-.023.05.05 0 0 1 .027-.008.1.1 0 0 1 .026.008.05.05 0 0 1 .017.022l.925 3.401c0 .03-.018.059-.047.059H76.41c-.029 0-.058-.03-.046-.059Zm-37.28 2.553v-2.698c0-.023.018-.046.041-.046h3.36c.024 0 .047-.024.047-.041V8.884a.05.05 0 0 0-.046-.047H39.13c-.023 0-.04-.023-.04-.046V6.488c0-.023.017-.046.04-.046h3.826a.05.05 0 0 0 .046-.047V5.314a.05.05 0 0 0-.046-.047H37.78a.05.05 0 0 0-.046.047V14a.05.05 0 0 0 .046.046h5.332a.05.05 0 0 0 .046-.046v-1.151a.05.05 0 0 0-.047-.046h-3.988q-.035-.01-.035-.053zm60.384 1.215-4.36-4.5a.05.05 0 0 1-.01-.03q0-.015.01-.028l3.924-4.07a.04.04 0 0 0 .022-.024.04.04 0 0 0-.001-.031.04.04 0 0 0-.056-.02h-1.604c-.018 0-.023.005-.03.017l-3.33 3.447a.046.046 0 0 1-.066-.006.04.04 0 0 1-.01-.023v-3.39a.05.05 0 0 0-.015-.03.05.05 0 0 0-.032-.016h-1.262a.05.05 0 0 0-.046.047v8.692a.05.05 0 0 0 .046.046h1.262a.05.05 0 0 0 .047-.046V10.18c0-.04.052-.058.075-.029l3.78 3.884a.1.1 0 0 0 .023.017h1.61c.03-.006.058-.058.023-.081"/><path fill="#E17726" stroke="#E17726" stroke-linecap="round" stroke-linejoin="round" stroke-width=".25" d="m19.163.581-7.64 5.652L12.948 2.9z"/><path fill="#E27625" stroke="#E27625" stroke-linecap="round" stroke-linejoin="round" stroke-width=".25" d="M1.55.581 9.12 6.28 7.765 2.907zm14.867 13.1-2.035 3.104 4.354 1.198 1.244-4.233zM.742 13.75l1.239 4.233 4.343-1.198L4.3 13.68z"/><path fill="#E27625" stroke="#E27625" stroke-linecap="round" stroke-linejoin="round" stroke-width=".25" d="m6.084 8.436-1.209 1.826 4.302.197-.14-4.633-2.953 2.616zm8.535.006-3-2.675-.099 4.692 4.303-.197zm-8.302 8.343 2.61-1.256-2.244-1.744zm5.465-1.262 2.593 1.262-.349-3.006z"/><path fill="#D5BFB2" stroke="#D5BFB2" stroke-linecap="round" stroke-linejoin="round" stroke-width=".25" d="m14.379 16.785-2.594-1.256.21 1.686-.023.715zm-8.059 0 2.42 1.145-.018-.715.21-1.686-2.61 1.256Z"/><path fill="#233447" stroke="#233447" stroke-linecap="round" stroke-linejoin="round" stroke-width=".25" d="m8.776 12.663-2.151-.628 1.523-.698.634 1.326zm3.146 0 .639-1.332 1.53.698-2.17.64v-.006Z"/><path fill="#CC6228" stroke="#CC6228" stroke-linecap="round" stroke-linejoin="round" stroke-width=".25" d="m6.32 16.785.378-3.105-2.401.07zm7.692-3.105.366 3.105 2.035-3.035zm1.82-3.418-4.303.197.396 2.21.64-1.338 1.528.698zm-9.204 1.773 1.524-.698.633 1.326.401-2.21-4.302-.191z"/><path fill="#E27525" stroke="#E27525" stroke-linecap="round" stroke-linejoin="round" stroke-width=".25" d="m4.883 10.262 1.802 3.517-.058-1.744zm9.21 1.773-.07 1.744 1.802-3.517-1.733 1.773Zm-4.908-1.576-.407 2.21.512 2.604.116-3.436zm2.337 0-.209 1.372.105 3.442.506-2.61-.402-2.21z"/><path fill="#F5841F" stroke="#F5841F" stroke-linecap="round" stroke-linejoin="round" stroke-width=".25" d="m11.927 12.663-.505 2.61.366.256 2.238-1.744.07-1.75zm-5.296-.628.058 1.744 2.244 1.744.36-.25-.505-2.61-2.163-.628z"/><path fill="#C0AC9D" stroke="#C0AC9D" stroke-linecap="round" stroke-linejoin="round" stroke-width=".25" d="m11.977 17.93.018-.715-.198-.163H8.913l-.192.163.018.715-2.419-1.145.85.698 1.714 1.18h2.936l1.721-1.186.838-.692-2.407 1.145z"/><path fill="#161616" stroke="#161616" stroke-linecap="round" stroke-linejoin="round" stroke-width=".25" d="m11.783 15.523-.367-.25H9.29l-.36.256-.21 1.686.192-.163h2.883l.198.163-.21-1.686z"/><path fill="#763E1A" stroke="#763E1A" stroke-linecap="round" stroke-linejoin="round" stroke-width=".25" d="m19.485 6.599.64-3.11L19.16.58l-7.384 5.466 2.843 2.389 4.011 1.169.884-1.03-.384-.278.61-.559-.464-.36.61-.465-.407-.314zM.578 3.483l.651 3.116-.418.308.622.465-.465.366.604.559-.383.279.883 1.029 4.012-1.163L8.927 6.04 1.543.58z"/><path fill="#F5841F" stroke="#F5841F" stroke-linecap="round" stroke-linejoin="round" stroke-width=".25" d="m18.637 9.605-4.011-1.163 1.21 1.82-1.803 3.517 2.384-.029h3.563zM6.091 8.436 2.079 9.605.742 13.75h3.564l2.384.03-1.802-3.518 1.209-1.826H6.09Zm5.436 2.023.262-4.418L12.95 2.9H7.765l1.163 3.14.262 4.418.099 1.384v3.43h2.133l.012-3.43z"/></svg>