<svg xmlns="http://www.w3.org/2000/svg" width="66.667" height="64" fill="none" viewBox="0 0 50 48"><path fill="#E17726" stroke="#E17726" stroke-linecap="round" stroke-linejoin="round" stroke-width=".25" d="M47.084 1.429 28.312 15.314l3.5-8.185z"/><path fill="#E27625" stroke="#E27625" stroke-linecap="round" stroke-linejoin="round" stroke-width=".25" d="m3.798 1.429 18.6 14-3.328-8.286zm36.529 32.185-5 7.629 10.7 2.943 3.057-10.4zm-38.514.172 3.042 10.4 10.672-2.943-4.972-7.629z"/><path fill="#E27625" stroke="#E27625" stroke-linecap="round" stroke-linejoin="round" stroke-width=".25" d="m14.956 20.728-2.972 4.486 10.572.486-.343-11.386-7.257 6.429zm20.971.015-7.371-6.572-.243 11.529 10.571-.486zm-20.4 20.5 6.415-3.086-5.515-4.286zm13.429-3.1 6.371 3.1-.857-7.386z"/><path fill="#D5BFB2" stroke="#D5BFB2" stroke-linecap="round" stroke-linejoin="round" stroke-width=".25" d="m35.331 41.243-6.371-3.086.514 4.143-.057 1.757zm-19.8 0 5.943 2.814-.043-1.757.514-4.143z"/><path fill="#233447" stroke="#233447" stroke-linecap="round" stroke-linejoin="round" stroke-width=".25" d="m21.575 31.114-5.286-1.543 3.743-1.714 1.557 3.257zm7.728 0 1.572-3.271 3.757 1.714-5.329 1.572z"/><path fill="#CC6228" stroke="#CC6228" stroke-linecap="round" stroke-linejoin="round" stroke-width=".25" d="m15.526 41.243.929-7.629-5.9.172zm18.9-7.629.9 7.629 5-7.457zm4.472-8.4-10.572.486.972 5.428 1.571-3.285 3.757 1.714zm-22.615 4.357 3.743-1.714 1.557 3.257.986-5.428-10.571-.472z"/><path fill="#E27525" stroke="#E27525" stroke-linecap="round" stroke-linejoin="round" stroke-width=".25" d="m12 25.214 4.429 8.643-.143-4.286zm22.629 4.357-.172 4.286 4.429-8.643zM22.57 25.7l-1 5.428 1.258 6.4.285-8.442zm5.743 0-.513 3.37.257 8.457 1.243-6.414-.986-5.428v.014Z"/><path fill="#F5841F" stroke="#F5841F" stroke-linecap="round" stroke-linejoin="round" stroke-width=".25" d="m29.302 31.114-1.243 6.415.9.628 5.5-4.286.172-4.3zm-13.014-1.543.143 4.286 5.514 4.286.886-.614-1.243-6.415-5.315-1.543z"/><path fill="#C0AC9D" stroke="#C0AC9D" stroke-linecap="round" stroke-linejoin="round" stroke-width=".25" d="m29.431 44.057.043-1.757-.486-.4h-7.085l-.472.4.043 1.757-5.943-2.814 2.086 1.714 4.214 2.9h7.215l4.228-2.914 2.057-1.7-5.914 2.814z"/><path fill="#161616" stroke="#161616" stroke-linecap="round" stroke-linejoin="round" stroke-width=".25" d="m28.958 38.143-.9-.614H22.83l-.886.628-.514 4.143.471-.4h7.086l.486.4-.515-4.143z"/><path fill="#763E1A" stroke="#763E1A" stroke-linecap="round" stroke-linejoin="round" stroke-width=".25" d="m47.887 16.214 1.571-7.643-2.371-7.142-18.143 13.428 6.986 5.872 9.857 2.871 2.171-2.529-.943-.685 1.5-1.372-1.142-.885 1.5-1.143-1-.772zM1.43 8.557l1.6 7.657-1.03.757 1.529 1.143-1.143.9 1.486 1.372-.943.685L5.1 23.6l9.857-2.857 6.986-5.9L3.801 1.429z"/><path fill="#F5841F" stroke="#F5841F" stroke-linecap="round" stroke-linejoin="round" stroke-width=".25" d="m45.784 23.6-9.857-2.857 2.971 4.471-4.428 8.643 5.857-.071h8.757zm-30.829-2.871L5.098 23.6 1.813 33.786h8.757l5.857.071-4.429-8.643 2.972-4.485zM28.312 25.7l.643-10.857 2.858-7.714H19.07l2.857 7.714.643 10.857.242 3.4v8.429h5.243l.029-8.429z"/></svg>