<svg xmlns="http://www.w3.org/2000/svg" width="290.909" height="64" fill="none" viewBox="0 0 100 22"><g clip-path="url(#a)"><path fill="#737373" d="M41.535 4.26v12.781h-2.219V7.011h-.03l-3.964 10.03h-1.479L29.79 7.011h-.03v10.03h-2.04V4.261h3.195l3.669 9.467h.059l3.875-9.468zm1.835.977c0-.355.118-.651.384-.888.267-.237.562-.355.917-.355.385 0 .71.118.947.355s.385.533.385.888-.119.65-.385.887a1.34 1.34 0 0 1-.947.355c-.384 0-.68-.118-.917-.355-.236-.266-.384-.562-.384-.887m2.396 2.633v9.171h-2.16V7.87zm6.538 7.603c.326 0 .681-.059 1.066-.236.384-.148.74-.355 1.065-.592v2.012c-.355.207-.74.355-1.184.444a7.3 7.3 0 0 1-1.45.148c-1.36 0-2.455-.415-3.284-1.273-.858-.858-1.272-1.952-1.272-3.254 0-1.48.444-2.692 1.302-3.64.858-.946 2.071-1.42 3.669-1.42.414 0 .828.06 1.213.149.414.088.74.236.976.355v2.07a4.3 4.3 0 0 0-1.006-.561c-.355-.119-.71-.208-1.065-.208-.858 0-1.538.267-2.07.829-.534.562-.77 1.302-.77 2.248 0 .917.266 1.657.77 2.16.502.503 1.182.77 2.04.77Zm8.255-7.751a2.4 2.4 0 0 1 .828.118v2.19a1.3 1.3 0 0 0-.503-.237 3 3 0 0 0-.798-.118c-.533 0-.977.236-1.332.68s-.562 1.124-.562 2.071v4.615h-2.16V7.87h2.16v1.45h.03c.207-.503.503-.888.887-1.184a2.6 2.6 0 0 1 1.45-.414m.947 4.881c0-1.508.444-2.721 1.272-3.609q1.287-1.33 3.55-1.331c1.42 0 2.544.414 3.343 1.272.8.858 1.213 2.012 1.213 3.461 0 1.48-.443 2.663-1.272 3.55-.858.888-2.012 1.332-3.49 1.332q-2.131 0-3.374-1.242c-.828-.859-1.242-2.012-1.242-3.433m2.248-.088c0 .946.207 1.686.651 2.19.444.502 1.065.768 1.864.768.77 0 1.39-.236 1.805-.769.414-.503.621-1.243.621-2.248 0-.977-.207-1.716-.621-2.249-.415-.503-1.036-.77-1.775-.77-.8 0-1.391.267-1.835.8-.503.562-.71 1.301-.71 2.278m10.355-2.22c0 .297.089.563.296.74s.621.385 1.302.651c.858.355 1.48.74 1.805 1.154.355.444.532.947.532 1.568 0 .858-.325 1.539-1.006 2.071-.65.533-1.568.77-2.692.77-.385 0-.799-.06-1.272-.148a5 5 0 0 1-1.184-.355v-2.13a5.2 5.2 0 0 0 1.272.65c.444.148.858.237 1.243.237.474 0 .858-.06 1.065-.207.237-.148.355-.355.355-.68 0-.296-.118-.533-.355-.77-.236-.207-.71-.444-1.36-.71-.8-.325-1.362-.71-1.687-1.124-.326-.414-.503-.947-.503-1.598q0-1.242.976-2.041c.651-.533 1.51-.799 2.545-.799.325 0 .68.03 1.065.118.384.089.74.178 1.006.267v2.1a6.4 6.4 0 0 0-1.006-.503 3.1 3.1 0 0 0-1.125-.207c-.414 0-.74.089-.946.237-.207.207-.326.414-.326.71Zm4.852 2.309c0-1.51.444-2.722 1.273-3.61q1.286-1.33 3.55-1.331c1.42 0 2.544.414 3.343 1.272s1.213 2.012 1.213 3.461c0 1.48-.444 2.663-1.272 3.55-.858.888-2.012 1.332-3.491 1.332q-2.13 0-3.373-1.242c-.799-.859-1.243-2.012-1.243-3.433Zm2.249-.09c0 .947.207 1.687.65 2.19.445.503 1.066.77 1.865.77.769 0 1.39-.237 1.804-.77.415-.503.622-1.243.622-2.248 0-.977-.207-1.716-.622-2.249-.414-.503-1.035-.77-1.775-.77-.799 0-1.39.267-1.834.8-.474.562-.71 1.301-.71 2.278Zm14.32-2.87h-3.225v7.397h-2.19V9.645h-1.538V7.87h1.538V6.598c0-.947.326-1.746.947-2.367.621-.622 1.42-.917 2.396-.917.267 0 .503.03.71.03a1.4 1.4 0 0 1 .533.118v1.863a4 4 0 0 0-.385-.147 2 2 0 0 0-.621-.09c-.444 0-.799.149-1.035.415-.237.266-.355.71-.355 1.243V7.84h3.224V5.77l2.16-.652V7.84h2.19v1.775h-2.19v4.29c0 .562.119.947.296 1.184q.31.354.976.355.178 0 .444-.089c.178-.06.326-.118.444-.207v1.775c-.148.089-.355.148-.68.207-.326.06-.622.089-.947.089q-1.376 0-2.042-.71c-.444-.474-.68-1.213-.68-2.19z"/><path fill="#f25022" d="M10.118 0H0v10.118h10.118z"/><path fill="#7fba00" d="M21.298 0H11.18v10.118h10.118z"/><path fill="#00a4ef" d="M10.118 11.183H0v10.119h10.118z"/><path fill="#ffb900" d="M21.298 11.183H11.18v10.119h10.118z"/></g><defs><clipPath id="a"><path fill="#fff" d="M0 0h100v21.302H0z"/></clipPath></defs></svg>