<svg xmlns="http://www.w3.org/2000/svg" width="64" height="64" fill="none" viewBox="0 0 50 50"><g clip-path="url(#a)"><path fill="#FFD02F" d="M10.832 0h28.336C45.147 0 50 4.854 50 10.832v28.336C50 45.147 45.147 50 39.168 50H10.832C4.854 50 0 45.147 0 39.168V10.832C0 4.854 4.854 0 10.832 0Z"/><path fill="#050038" d="M34.746 6.244h-5.49l4.572 8.035-10.062-8.035h-5.49l5.032 9.826-10.521-9.826h-5.49l5.49 12.504-5.49 25.007h5.49l10.52-26.797-5.03 26.797h5.49l10.061-28.573-4.572 28.573h5.49L44.808 12.49 34.746 6.244Z"/></g><defs><clipPath id="a"><path fill="#fff" d="M0 0h50v50H0z"/></clipPath></defs></svg>