<svg xmlns="http://www.w3.org/2000/svg" width="177.778" height="64" fill="none" viewBox="0 0 100 36"><g clip-path="url(#a)"><path fill="#050038" fill-rule="evenodd" d="m48.692 35.18-5.526-1.319v-22.25l5.526-1.052v24.62Zm38.656-5.247c-4.008.014-7.257-3.222-7.284-7.23v-.04c0-3.941 3.236-7.177 7.27-7.177 4.035 0 7.27 3.236 7.27 7.177.014 4.008-3.235 7.257-7.23 7.27h-.026Zm12.53-7.27c0 6.924-5.606 12.53-12.53 12.53-6.924 0-12.53-5.606-12.53-12.53 0-6.83 5.619-12.437 12.543-12.437 6.924 0 12.516 5.606 12.516 12.437ZM28.785 33.875l5.432 1.132v-14.98c0-7.19-5.606-9.72-9.467-9.72-2.543 0-4.647.612-6.485 2.45-1.93-1.838-4.207-2.544-6.045-2.544-2.716 0-4.993 1.132-6.578 3.063v-2.544L.117 11.784v22.077l5.526 1.132v-15.14c0-2.45 1.758-4.114 4.46-4.114 2.544 0 4.382 1.665 4.382 4.114v14.022l5.433 1.132V19.854c0-2.45 1.837-4.115 4.474-4.115 2.543 0 4.38 1.665 4.38 4.114l.014 14.022ZM70.69 10.226l-3.25.44c-6.044 1.398-9.986 3.329-9.986 9.986v13.223l5.526 1.052V21.438c0-3.063 1.758-4.474 4.474-4.993l3.25-.52-.014-5.699Zm-27.257-9.12a3.432 3.432 0 0 0 0 4.82c1.345 1.384 3.568 1.398 4.94.053l.053-.054a3.432 3.432 0 0 0 0-4.82 3.647 3.647 0 0 0-4.993 0Z" clip-rule="evenodd"/></g><defs><clipPath id="a"><path fill="#fff" d="M0 0h100v35.286H0z"/></clipPath></defs></svg>