<svg width="50" height="50" viewBox="0 0 50 50" fill="none" xmlns="http://www.w3.org/2000/svg">
<g clip-path="url(#clip0_1_1990)">
<path d="M10.8316 0H39.1683C45.1466 0 50 4.85351 50 10.8316V39.1683C50 45.1466 45.1466 50 39.1683 50H10.8316C4.85351 50 0 45.1466 0 39.1683V10.8316C0 4.85351 4.85351 0 10.8316 0Z" fill="#FFD02F"/>
<path d="M34.7458 6.24438H29.256L33.8285 14.2793L23.7662 6.24438H18.2765L23.3075 16.0698L12.7867 6.24438H7.29688L12.7867 18.7481L7.29688 43.7555H12.7867L23.3075 16.9576L18.2765 43.7555H23.7662L33.8285 15.182L29.256 43.7555H34.7458L44.8081 12.4888L34.7458 6.24438Z" fill="#050038"/>
</g>
<defs>
<clipPath id="clip0_1_1990">
<rect width="50" height="50" fill="white"/>
</clipPath>
</defs>
</svg>
