<svg xmlns="http://www.w3.org/2000/svg" width="188.235" height="64" fill="none" viewBox="0 0 100 34"><g fill="#000" clip-path="url(#a)"><path d="M8.85 28.923a4.3 4.3 0 0 1-4.308 4.308 4.3 4.3 0 0 1-4.308-4.308 4.3 4.3 0 0 1 4.308-4.308 4.3 4.3 0 0 1 4.308 4.308M23.232 29a3.086 3.086 0 0 1-3.077 3.077A3.086 3.086 0 0 1 17.078 29a3.086 3.086 0 0 1 3.077-3.077A3.086 3.086 0 0 1 23.232 29m11.154 0c0 .77-.615 1.384-1.384 1.384-.77 0-1.385-.615-1.385-1.384 0-.77.616-1.385 1.385-1.385s1.384.616 1.384 1.385m-15.077-9.154c-.77 0-1.308-.615-1.308-1.308v-5.692c0-1.923-.923-3.461-3-3.461S11.617 11 11.617 12.846v5.616c0 .769-.539 1.307-1.308 1.307-.77 0-1.308-.615-1.308-1.307v-5.693c0-1.923-1-3.461-3.077-3.461-2.154 0-3.23 1.615-3.23 3.461v5.616c0 .769-.539 1.307-1.308 1.307-.77 0-1.308-.615-1.308-1.307V8.462c0-.77.539-1.385 1.308-1.385.923 0 1.308.615 1.308 1.385v.923C3.463 7.923 5 7 6.694 7c2 0 3.538 1 4.307 2.539C12.078 7.846 13.694 7 15.694 7c3.384 0 5.076 2.385 5.076 5.692v5.846c-.076.693-.615 1.308-1.461 1.308m5.073 0a1.297 1.297 0 0 1-1.308-1.307V8.462c0-.77.539-1.308 1.308-1.308.77 0 1.308.615 1.308 1.308v10.077c0 .692-.539 1.307-1.308 1.307m0-17.769c.846 0 1.539.692 1.539 1.539 0 .846-.693 1.538-1.539 1.538a1.543 1.543 0 0 1-1.538-1.538c0-.847.692-1.539 1.538-1.539m8.768 9.615 3.385-4.154c.23-.23.538-.384.846-.384.77 0 1.23.461 1.23 1.154 0 .23-.076.538-.307.769l-3.692 4.384 3.769 4.462c.23.23.308.462.308.77 0 .614-.539 1.153-1.154 1.153q-.577 0-.923-.462l-3.385-4.23-3.384 4.23a1.1 1.1 0 0 1-.924.462c-.615 0-1.153-.538-1.153-1.154 0-.308.077-.538.307-.77l3.77-4.46-3.693-4.385a1.1 1.1 0 0 1-.307-.77c0-.692.461-1.153 1.23-1.153.385 0 .616.154.846.384zM47.08 9.23c-2.308 0-3.77 2-3.77 4.309 0 2.23 1.54 4.307 3.77 4.307 2.308 0 3.77-1.692 3.77-4.307s-1.462-4.308-3.77-4.308ZM47.618 20c-1.923 0-3.461-1-4.307-2.461v6.307c0 .77-.539 1.308-1.308 1.308-.77 0-1.308-.615-1.308-1.308V8.462c0-.77.462-1.308 1.231-1.308s1.308.615 1.308 1.385v1c.846-1.462 2.538-2.462 4.384-2.462 3.231 0 5.846 2.692 5.846 6.462 0 3.846-2.615 6.461-5.846 6.461M61 9.308c-2.23 0-3.846 1.923-3.846 4.23 0 2.462 1.308 4.231 3.847 4.231 2.307 0 3.846-2 3.846-4.23C64.77 10.846 63.23 9.308 61 9.308m6.462 9.23c0 .77-.538 1.308-1.308 1.308a1.296 1.296 0 0 1-1.307-1.307v-.616C64.077 19.077 62.539 20 60.77 20c-3.923 0-6.23-2.923-6.23-6.461s2.538-6.462 6.538-6.462c4.076 0 6.461 2.692 6.461 6.462v5h-.077ZM75.388 7c3.385 0 5.923 2.615 5.923 5.923v5.615c0 .77-.615 1.308-1.308 1.308a1.296 1.296 0 0 1-1.307-1.308v-5.922c0-1.77-1.385-3.154-3.23-3.154-1.847 0-3.232 1.384-3.232 3.154v5.922c0 .77-.615 1.308-1.307 1.308-.77 0-1.308-.615-1.308-1.308v-5.615C69.542 9.615 72.004 7 75.389 7ZM89.23 9.154c-1.924 0-3.231 1.385-3.539 3.154h6.923c-.23-1.77-1.461-3.154-3.384-3.154m5.846 4.385c0 .461-.231.923-1 .923H85.69c.154 1.923 1.462 3.384 3.77 3.384 1.46 0 2.307-.538 3.23-1.384.23-.231.539-.462.846-.462.616 0 1.077.462 1.077 1.077 0 .308-.154.538-.308.77-1.076 1.23-3 2.076-5 2.076-4.23 0-6.384-2.923-6.384-6.461C82.922 9.769 85.614 7 89.23 7c3.538 0 5.846 2.923 5.846 6.539m3.154 6.307c-.77 0-1.308-.615-1.308-1.308V1.923c0-.77.538-1.308 1.308-1.308.769 0 1.307.616 1.307 1.308v16.615c0 .693-.538 1.308-1.307 1.308"/></g><defs><clipPath id="a"><path fill="#fff" d="M0 0h100v33.846H0z"/></clipPath></defs></svg>