<svg xmlns="http://www.w3.org/2000/svg" width="66.667" height="64" fill="none" viewBox="0 0 50 48"><path fill="#000" fill-rule="evenodd" d="M39.923 1.474a.95.95 0 0 0-.555.125l-14.48 8.36-14.48-8.36a.95.95 0 0 0-.503-.128.95.95 0 0 0-.504.128l-7.44 4.295a.95.95 0 0 0-.476.778 1 1 0 0 0-.016.177v33.886q0 .075.01.145c-.021.35.151.7.476.888l7.44 4.295a.95.95 0 0 0 .579.123.95.95 0 0 0 .578-.123l7.44-4.295a.95.95 0 0 0 .36-.368.95.95 0 0 0 .155-.522v-16.31l6.066 3.502c.174.1.367.14.554.125a.95.95 0 0 0 .555-.125l5.855-3.38v16.188q0 .138.036.263a.95.95 0 0 0 .456.627l7.44 4.295a.95.95 0 0 0 .567.124.95.95 0 0 0 .567-.124l7.44-4.295a.96.96 0 0 0 .475-.899 1 1 0 0 0 .01-.134V6.849a.95.95 0 0 0-.363-.75 1 1 0 0 0-.248-.205l-7.44-4.295a.95.95 0 0 0-.554-.125m6.695 38.912V7.83L25.204 20.195a.95.95 0 0 1-.501.128.95.95 0 0 1-.502-.128L3.378 8.172v32.213l5.727 3.306v-24.91c0-.27.112-.513.291-.687a.955.955 0 0 1 1.252-.268l14.48 8.36 14.479-8.36a.954.954 0 0 1 1.4.583q.074.173.075.371v24.802zm-7.445 3.302-5.727-3.307V23.696a1 1 0 0 0-.006-.105l5.733-3.31zm-22.575-3.32V23.696q0-.111.025-.216l-5.609-3.238v23.35zm28.53-33.88L24.702 18.28 4.515 6.624l5.39-3.112 14.429 8.33c.175.101.368.14.555.126a.95.95 0 0 0 .554-.125l14.48-8.36z" clip-rule="evenodd"/><path fill="#000" d="m39.923 1.474-.03.366.03.003.03-.003zM24.889 9.958l-.184.319.184.106.184-.106zM9.905 1.471l-.01.367h.021l-.01-.367Zm-8.42 5.201.362.068.004-.024.002-.025zM1.48 40.88l.367.023.003-.04-.006-.038zm8.494 5.306.04-.366-.04-.004-.04.004zm8.379-4.786-.308-.202-.008.013-.007.012zm.155-16.832.184-.318-.552-.319v.637zm6.62 3.627.03-.367-.03-.002-.03.002zm6.409-3.505h.368v-.637l-.552.318zm.037 16.45.36-.076-.004-.012-.003-.012zm8.463 5.047.035-.366-.035-.003-.035.003zm8.482-5.318-.364-.051-.006.04.003.039zM48.165 6.1l-.279.24.023.027.028.022zM46.62 40.386l.184.318.184-.106v-.212zm0-32.555h.368v-.636l-.552.318zM24.703 20.323l.01-.368h-.02zM3.378 8.173l.184-.319-.551-.318v.636zm0 32.212h-.367v.212l.183.106zm5.727 3.306-.183.319.551.318v-.637zm.291-25.597.256.264.024-.022.019-.027zm15.732 8.092-.184.318.184.106.183-.106zm15.88-7.777-.356.094.007.025.01.024zm.075 25.173h-.368v.637l.552-.318zm-7.637-3.201h-.367v.212l.183.106zm5.728 3.307-.184.318.551.319v-.637zM33.44 23.59l-.183-.319-.208.12.026.239zm5.734-3.31h.367v-.637l-.551.318zM16.599 40.368l.183.319.184-.107v-.212H16.6Zm.024-16.888.358.083.062-.265-.236-.136zm-5.609-3.238.184-.319-.551-.318v.637zm0 23.35h-.367v.637l.551-.319zm13.69-25.312-.184.318.183.107.184-.107-.184-.318ZM45.127 6.488l.184.318.551-.318-.551-.318zm-40.613.136-.184-.318-.551.318.551.319zm5.39-3.112.184-.318-.184-.106-.183.106zm14.984 8.456.03-.367-.03-.002-.03.002zm15.034-8.485.184-.318-.184-.107-.184.107zm-.37-1.566a.6.6 0 0 1 .34-.077l.06-.733a1.3 1.3 0 0 0-.768.173zm-14.48 8.36 14.48-8.36-.368-.637-14.48 8.36zm-14.848-8.36 14.48 8.36.368-.637-14.48-8.36-.367.637Zm-.309-.079a.6.6 0 0 1 .31.079l.367-.637a1.3 1.3 0 0 0-.698-.177zm-.33.079a.6.6 0 0 1 .309-.079l.021-.735a1.3 1.3 0 0 0-.698.177zm-7.44 4.295 7.44-4.295-.368-.637-7.44 4.296zm-.293.48a.59.59 0 0 1 .292-.48l-.367-.636a1.32 1.32 0 0 0-.66 1.077l.735.038Zm-.016.157a.6.6 0 0 1 .01-.11l-.723-.134a1.3 1.3 0 0 0-.022.244zm0 33.886V6.849h-.735v33.886zm.007.09a1 1 0 0 1-.007-.09h-.735q0 .102.015.2zm.296.624a.59.59 0 0 1-.293-.546l-.734-.046c-.03.484.209.969.659 1.229zm7.44 4.296-7.44-4.296-.368.637 7.44 4.296zm.355.075a.6.6 0 0 1-.356-.075l-.367.637c.252.145.532.198.802.17zm.434-.075a.6.6 0 0 1-.355.075l-.08.731c.27.03.55-.024.803-.17zm7.44-4.296-7.44 4.296.368.637 7.44-4.296zm.221-.226a.6.6 0 0 1-.221.226l.367.637c.218-.125.387-.304.5-.51zm.11-.345a.6.6 0 0 1-.095.32l.615.403c.136-.208.215-.457.215-.723zm0-16.31v16.31h.735v-16.31zm6.617 3.184-6.065-3.502-.368.637 6.066 3.501zm.34.076a.6.6 0 0 1-.34-.076l-.367.636c.24.14.509.194.768.173l-.06-.733Zm.401-.076a.6.6 0 0 1-.34.076l-.06.733c.258.021.527-.033.768-.173zm5.855-3.38-5.855 3.38.368.636 5.855-3.38zm.552 16.506V24.69h-.736v16.188zm.022.162a.6.6 0 0 1-.022-.162h-.736q0 .19.051.364zm.287.41a.59.59 0 0 1-.28-.386l-.72.154c.076.352.295.673.632.868zm7.44 4.295-7.44-4.296-.368.637 7.44 4.296zm.348.076a.6.6 0 0 1-.349-.076l-.367.637c.247.142.521.196.786.17zm.418-.076a.6.6 0 0 1-.348.076l-.07.732c.264.025.539-.029.786-.171zm7.44-4.296-7.44 4.296.368.637 7.44-4.296zm.292-.552a.59.59 0 0 1-.292.552l.368.637c.455-.263.694-.755.657-1.244zm.008-.162a1 1 0 0 1-.005.083l.728.103a1.3 1.3 0 0 0 .013-.186zm0-33.886v33.886h.736V6.849zm-.223-.461a.59.59 0 0 1 .223.46h.736c0-.42-.197-.795-.503-1.037zm-.203-.176a.6.6 0 0 1 .152.127l.558-.479a1.3 1.3 0 0 0-.343-.284zm-7.44-4.295 7.44 4.295.367-.636-7.44-4.296zm-.341-.077a.6.6 0 0 1 .34.077l.368-.637a1.3 1.3 0 0 0-.768-.173zm7.034 38.546V7.83h-.736v32.555h.736Zm-.552-32.873L25.021 19.877l.367.636L46.803 8.15zM25.021 19.877a.6.6 0 0 1-.308.078l-.02.735c.236.006.477-.05.695-.177zm-.327.078a.6.6 0 0 1-.308-.078l-.368.636c.219.127.46.183.695.177zm-.308-.078L3.562 7.854l-.368.637 20.824 12.022zM3.01 8.172v32.213h.735V8.172zm.183 32.53 5.728 3.308.367-.637-5.727-3.307zm6.28 2.99V18.78h-.736v24.911zm0-24.912c0-.165.067-.314.178-.422l-.511-.528c-.248.24-.403.577-.403.95zm.22-.471a.587.587 0 0 1 .77-.165l.368-.636a1.32 1.32 0 0 0-1.734.372l.597.429Zm.77-.165 14.48 8.36.367-.637-14.48-8.36zm14.847 8.36 14.48-8.36-.367-.636-14.48 8.36zm14.48-8.36a.587.587 0 0 1 .802.215l.637-.368a1.32 1.32 0 0 0-1.806-.483zm.802.215a.6.6 0 0 1 .06.144l.71-.188a1.3 1.3 0 0 0-.133-.324zm.076.193q.046.106.046.228h.735c0-.181-.037-.356-.104-.514zm.046.228v24.802h.735V18.78zm.552 25.12 5.536-3.196-.368-.636-5.536 3.196.368.637Zm-8.005-3.2 5.728 3.306.367-.637-5.727-3.306zm-.184-17.004v16.685h.736V23.696zm-.003-.065.003.065h.736q0-.074-.008-.145zm5.915-3.669-5.733 3.31.367.637 5.733-3.31zm.551 23.726V20.28h-.735v23.407h.735ZM16.23 23.696v16.672h.735V23.696zm.034-.299a1.3 1.3 0 0 0-.034.3h.735a.6.6 0 0 1 .015-.134zM10.83 20.56l5.608 3.238.368-.636-5.609-3.238zm.551 23.032v-23.35h-.735v23.35zm5.033-3.542-5.584 3.224.367.636 5.584-3.223zm8.472-21.452L45.312 6.806l-.368-.636L24.52 17.962l.368.636ZM4.331 6.943 24.52 18.598l.367-.636L4.7 6.306zm5.39-3.75-5.39 3.113.368.637 5.39-3.112-.367-.637Zm14.797 8.331L10.09 3.194l-.367.637 14.429 8.33.367-.637Zm.34.077a.6.6 0 0 1-.34-.077l-.367.637c.241.14.51.194.768.173l-.06-.733Zm.401-.077a.6.6 0 0 1-.34.077l-.06.733c.259.021.527-.033.768-.173zm14.48-8.36-14.48 8.36.368.637 14.48-8.36zm5.573 3.006-5.205-3.005-.368.636 5.205 3.005z"/></svg>