<svg xmlns="http://www.w3.org/2000/svg" width="278.261" height="64" fill="none" viewBox="0 0 100 23"><path fill="#000" d="M32.883 17.931V3.927h3.037l4.16 7.022h.078l4.16-7.022h2.998v14.004H44.68V8.273h-.078l-4.405 7.314h-.195l-4.404-7.373h-.078v9.717zm21.718.176q-2.44 0-3.74-1.475-1.318-1.465-1.318-3.877t1.318-3.906q1.32-1.494 3.74-1.494 2.403 0 3.721 1.494 1.32 1.494 1.319 3.906 0 2.384-1.3 3.858-1.317 1.494-3.74 1.494m0-2.354q2.316 0 2.315-2.998 0-3.047-2.314-3.047-2.325 0-2.325 3.047 0 2.998 2.325 2.998Zm12.54 2.354q-1.865 0-2.872-1.299h-.087l-.274 1.123h-2.402V3.126h2.676v5.528h.087q1.006-1.3 2.872-1.3 1.982 0 3.124 1.495 1.144 1.494 1.143 3.887 0 2.431-1.143 3.896-1.181 1.475-3.124 1.475m-2.5-3.213q.566.86 1.748.86 1.18 0 1.758-.84.536-.831.537-2.178 0-1.377-.537-2.207-.587-.82-1.758-.82-1.202 0-1.748.84-.558.81-.557 2.187 0 1.347.557 2.158m14.257 3.213q-1.865 0-2.87-1.299h-.089l-.273 1.123h-2.403V3.126h2.676v5.528h.089q1.005-1.3 2.87-1.3 1.983 0 3.125 1.495 1.143 1.494 1.143 3.887 0 2.431-1.143 3.896-1.182 1.475-3.124 1.475Zm-2.5-3.213q.566.86 1.748.86c1.182 0 1.374-.28 1.758-.84q.538-.831.537-2.178 0-1.377-.537-2.207-.586-.82-1.758-.82-1.2 0-1.748.84-.555.81-.556 2.187 0 1.347.556 2.158m9.98-8.662q-.83 0-1.24-.44-.42-.42-.42-1.2 0-.734.42-1.182.42-.42 1.24-.42.772 0 1.222.42.439.439.44 1.181-.001.792-.44 1.201-.44.44-1.221.44ZM85.022 17.93V7.53h2.676v10.4zm4.942 0V7.53h2.402l.196 1.181h.077q1.035-1.357 2.96-1.357 1.739 0 2.763.996 1.026 1.026 1.026 2.764v6.816H96.7v-6.065q0-2.08-1.924-2.08-.947 0-1.533.645-.605.635-.606 1.738v5.762h-2.675Z"/><path fill="#000" fill-rule="evenodd" d="M18.721.691a.45.45 0 0 0-.26.059l-6.79 3.92L4.88.75a.45.45 0 0 0-.237-.06.45.45 0 0 0-.237.06L.918 2.764a.45.45 0 0 0-.223.365l-.007.083v15.891q0 .035.005.068c-.01.165.07.329.223.417l3.489 2.014c.085.05.18.067.271.057a.45.45 0 0 0 .271-.057l3.49-2.014a.45.45 0 0 0 .168-.173.45.45 0 0 0 .073-.245v-7.648l2.845 1.642a.45.45 0 0 0 .26.058.45.45 0 0 0 .26-.058l2.745-1.585v7.591q0 .064.017.124a.45.45 0 0 0 .214.294l3.49 2.014a.45.45 0 0 0 .265.058c.09.009.183-.01.266-.058l3.49-2.014a.45.45 0 0 0 .222-.422l.005-.063V3.212a.45.45 0 0 0-.17-.352.5.5 0 0 0-.117-.096L18.981.75a.45.45 0 0 0-.26-.059m3.14 18.249V3.673L11.82 9.47a.45.45 0 0 1-.236.06.45.45 0 0 1-.235-.06L1.583 3.833v15.106l2.686 1.55V8.808c0-.126.052-.24.136-.321a.45.45 0 0 1 .587-.126l6.79 3.92 6.79-3.92a.448.448 0 0 1 .658.273.5.5 0 0 1 .035.174V20.44zm-3.491 1.548-2.686-1.55v-7.825l-.003-.05 2.689-1.552zM7.783 18.931v-7.818q0-.053.011-.102l-2.63-1.518v10.95zM21.162 3.043l-9.578 5.53-9.468-5.466 2.528-1.46 6.767 3.907a.45.45 0 0 0 .26.058.45.45 0 0 0 .26-.058l6.79-3.92z" clip-rule="evenodd"/><path fill="#000" d="m18.722.691-.015.172.015.001.014-.001zm-7.05 3.98-.087.148.086.05.086-.05-.086-.149ZM4.643.69 4.64.862h.01L4.644.69ZM.696 3.13l.17.03.001-.01v-.012zM.693 19.17l.172.011.001-.018-.002-.019-.17.026Zm3.984 2.488.018-.17-.018-.003-.019.002zm3.929-2.244-.145-.094-.003.005-.003.006zm.073-7.893.086-.15-.259-.15v.3zm3.104 1.7.014-.171-.014-.002-.014.002zm3.006-1.643h.172v-.3l-.258.15zm.017 7.715.169-.037-.002-.005-.001-.006zm3.969 2.366.016-.172-.016-.001-.016.001zm3.978-2.494-.171-.024-.003.019.002.018zM22.587 2.86l-.131.113.01.012.014.01zm-.725 16.08.086.149.086-.05v-.1h-.172Zm0-15.267h.172v-.299l-.258.15zM11.584 9.53l.005-.173h-.01zm-10-5.698.086-.15-.26-.149v.299h.173Zm0 15.106H1.41v.1l.086.05.086-.15Zm2.685 1.55-.086.15.259.15v-.3zm.137-12.003.12.123.01-.01.01-.013zm7.377 3.794-.086.15.086.05.086-.05zm7.447-3.647-.166.044.003.012.004.011.16-.067Zm.035 11.806h-.172v.298l.259-.15zm-3.58-1.502h-.173v.1l.086.05zm2.685 1.551-.086.15.259.149v-.299zm-2.689-9.425-.086-.15-.097.057.012.112zm2.69-1.552h.172v-.299l-.26.15zM7.782 18.93l.086.15.087-.05v-.1zm.012-7.92.168.04.028-.125-.11-.064zm-2.63-1.518.086-.15-.259-.149v.299h.172Zm0 10.95h-.173v.299l.259-.15zm6.419-11.87-.086.149.086.05.086-.05zm9.579-5.53.086.149.258-.15-.258-.149zm-19.047.064-.086-.15-.258.15.258.149zm2.528-1.46.087-.15-.087-.049-.086.05.086.15Zm7.027 3.965.014-.171-.014-.002-.014.002zm7.05-3.979.087-.149-.086-.05-.087.05.087.15ZM18.549.9a.27.27 0 0 1 .16-.036l.028-.344a.6.6 0 0 0-.36.081zm-6.79 3.92L18.547.9l-.172-.3-6.79 3.92.172.3ZM4.793.9l6.79 3.92.173-.298L4.967.6l-.173.298ZM4.65.862q.076-.002.145.037L4.967.6a.6.6 0 0 0-.328-.083l.01.345ZM4.494.9A.3.3 0 0 1 4.64.862l.01-.345A.6.6 0 0 0 4.322.6zM1.005 2.913 4.495.9 4.321.6.832 2.615zm-.137.225a.28.28 0 0 1 .137-.225l-.172-.298a.62.62 0 0 0-.31.505zm-.008.074q0-.027.005-.051l-.339-.064a.6.6 0 0 0-.01.115zm0 15.891V3.212H.516v15.891zm.004.042-.004-.042H.516q0 .048.007.094l.34-.052Zm.138.293a.28.28 0 0 1-.137-.256l-.344-.022a.62.62 0 0 0 .309.577zm3.49 2.015-3.49-2.015-.172.299 3.489 2.014.172-.298Zm.166.035a.27.27 0 0 1-.167-.035l-.172.298c.118.069.25.093.376.08zm.204-.035a.27.27 0 0 1-.167.035l-.037.343a.6.6 0 0 0 .376-.08zm3.489-2.015-3.49 2.015.173.298 3.49-2.014zm.104-.106a.3.3 0 0 1-.104.106l.172.299a.6.6 0 0 0 .234-.24zm.051-.162a.27.27 0 0 1-.045.15l.29.19a.6.6 0 0 0 .1-.34zm0-7.648v7.648h.345v-7.648zm3.103 1.493-2.844-1.643-.173.299 2.845 1.642zm.16.036a.27.27 0 0 1-.16-.036l-.172.298a.6.6 0 0 0 .36.081zm.188-.036a.27.27 0 0 1-.16.036l-.028.343a.6.6 0 0 0 .36-.08zm2.746-1.586-2.746 1.586.172.298 2.746-1.585zm.258 7.741v-7.59h-.345v7.591zm.01.076a.3.3 0 0 1-.01-.076h-.345q0 .09.024.171zm.135.192a.27.27 0 0 1-.131-.18l-.338.072a.62.62 0 0 0 .297.407zm3.49 2.015-3.49-2.015-.172.299 3.489 2.014.172-.298Zm.163.035a.27.27 0 0 1-.164-.035l-.172.298a.62.62 0 0 0 .368.08zm.196-.035a.27.27 0 0 1-.164.035l-.032.344a.62.62 0 0 0 .368-.08zm3.489-2.015-3.49 2.015.173.298 3.49-2.014zm.137-.259a.28.28 0 0 1-.137.26l.172.298a.62.62 0 0 0 .308-.584zm.004-.076-.003.04.341.047.006-.087zm0-15.891v15.891h.344V3.212zm-.105-.216c.064.05.105.128.105.216h.344a.62.62 0 0 0-.235-.487zm-.096-.083a.3.3 0 0 1 .072.06l.262-.225a.6.6 0 0 0-.161-.133zM18.895.9l3.49 2.014.172-.298L19.067.6l-.171.3Zm-.16-.036a.27.27 0 0 1 .16.036l.173-.3a.6.6 0 0 0-.36-.08l.028.343Zm3.3 18.077V3.673h-.346V18.94h.345Zm-.26-15.417L11.734 9.321l.172.3 10.043-5.799-.172-.299ZM11.734 9.321a.3.3 0 0 1-.145.037l-.008.345a.6.6 0 0 0 .325-.083zm-.153.037a.3.3 0 0 1-.145-.037l-.172.3a.6.6 0 0 0 .325.082zm-.145-.037L1.67 3.683l-.173.299 9.766 5.638zM1.411 3.833v15.106h.345V3.833H1.41Zm.086 15.255 2.686 1.551.172-.299-2.685-1.55zm2.945 1.402V8.807h-.345V20.49zm0-11.683a.28.28 0 0 1 .083-.198l-.24-.247a.62.62 0 0 0-.188.445zm.104-.22a.275.275 0 0 1 .36-.078l.173-.299a.62.62 0 0 0-.813.175zm.36-.078 6.79 3.92.173-.298-6.79-3.92zm6.963 3.92 6.79-3.92-.172-.299-6.79 3.92.172.3Zm6.79-3.92c.132-.076.3-.03.377.1l.298-.172a.62.62 0 0 0-.847-.227zm.377.1a.3.3 0 0 1 .028.068l.333-.088a.6.6 0 0 0-.063-.152l-.298.173Zm.035.091a.3.3 0 0 1 .022.107h.345a.6.6 0 0 0-.049-.241zm.022.107V20.44h.345V8.807zm.259 11.78 2.596-1.498-.172-.299-2.597 1.5zm-3.754-1.5 2.686 1.55.172-.298-2.686-1.551zm-.086-7.974v7.824h.345v-7.824zm-.002-.03.002.03h.345l-.004-.069-.343.038Zm2.774-1.721-2.689 1.552.173.299 2.688-1.553zm.259 11.126V9.511h-.345v10.977zM7.61 11.113v7.818h.345v-7.818zm.016-.14a.6.6 0 0 0-.016.14h.345q0-.033.007-.063l-.336-.078Zm-2.549-1.33 2.63 1.518.173-.299-2.63-1.519zm.259 10.8V9.493h-.345v10.95zm2.36-1.661-2.619 1.512.173.299 2.618-1.512-.172-.3Zm3.973-10.06 9.579-5.53-.173-.299-9.578 5.53zM2.03 3.256l9.468 5.466.172-.299-9.467-5.466zm2.528-1.758L2.03 2.958l.173.298 2.528-1.46zm6.94 3.907L4.73 1.498l-.173.298 6.767 3.907.172-.298Zm.159.036a.27.27 0 0 1-.16-.036l-.172.298a.6.6 0 0 0 .36.081zm.188-.036a.27.27 0 0 1-.16.036l-.028.343a.6.6 0 0 0 .36-.08l-.172-.3Zm6.79-3.92-6.79 3.92.172.298 6.79-3.92zm2.614 1.408-2.441-1.409-.173.299 2.441 1.409z"/></svg>