<svg xmlns="http://www.w3.org/2000/svg" width="278.261" height="64" fill="none" viewBox="0 0 100 23"><path fill="#000" d="M32.883 17.931V3.927h3.037l4.16 7.022h.078l4.16-7.022h2.998v14.004H44.68V8.273h-.078l-4.405 7.314h-.195l-4.404-7.373h-.078v9.717h-2.637Zm21.718.176c-1.627 0-2.874-.492-3.74-1.475-.879-.976-1.318-2.269-1.318-3.877 0-1.608.44-2.91 1.318-3.906.88-.996 2.126-1.494 3.74-1.494 1.602 0 2.842.498 3.721 1.494.88.996 1.319 2.298 1.319 3.906 0 1.589-.433 2.875-1.3 3.858-.878.996-2.125 1.494-3.74 1.494Zm0-2.354c1.544 0 2.315-1 2.315-2.998 0-2.031-.771-3.047-2.314-3.047-1.55 0-2.325 1.016-2.325 3.047 0 1.999.775 2.998 2.325 2.998Zm12.54 2.354c-1.244 0-2.2-.433-2.872-1.299h-.087l-.274 1.123h-2.402V3.126h2.676v5.528h.087c.671-.866 1.628-1.3 2.872-1.3 1.321 0 2.363.499 3.124 1.495.763.996 1.143 2.292 1.143 3.887 0 1.62-.38 2.92-1.143 3.896-.787.983-1.829 1.475-3.124 1.475Zm-2.5-3.213c.377.573.96.86 1.748.86.787 0 1.373-.28 1.758-.84.357-.554.537-1.28.537-2.178 0-.918-.18-1.654-.537-2.207-.391-.547-.977-.82-1.758-.82-.801 0-1.384.28-1.748.84-.372.54-.557 1.269-.557 2.187 0 .898.185 1.618.557 2.158Zm14.257 3.213c-1.243 0-2.2-.433-2.87-1.299h-.089l-.273 1.123h-2.403V3.126h2.676v5.528h.089c.67-.866 1.627-1.3 2.87-1.3 1.322 0 2.364.499 3.125 1.495.762.996 1.143 2.292 1.143 3.887 0 1.62-.38 2.92-1.143 3.896-.787.983-1.83 1.475-3.124 1.475Zm-2.5-3.213c.378.573.96.86 1.748.86s1.374-.28 1.758-.84c.359-.554.537-1.28.537-2.178 0-.918-.178-1.654-.537-2.207-.39-.547-.977-.82-1.758-.82-.8 0-1.383.28-1.748.84-.37.54-.556 1.269-.556 2.187 0 .898.186 1.618.556 2.158Zm9.98-8.662c-.553 0-.966-.147-1.24-.44-.28-.28-.42-.68-.42-1.2 0-.49.14-.883.42-1.182.28-.28.694-.42 1.24-.42.515 0 .922.14 1.222.42.292.293.44.686.44 1.181 0 .528-.148.928-.44 1.201-.293.293-.7.44-1.221.44ZM85.022 17.93v-10.4h2.676v10.4h-2.676Zm4.942 0v-10.4h2.402l.196 1.181h.077c.69-.905 1.677-1.357 2.96-1.357 1.159 0 2.08.332 2.763.996.684.684 1.026 1.605 1.026 2.764v6.816H96.7v-6.065c0-1.386-.641-2.08-1.924-2.08-.63 0-1.143.215-1.533.645-.403.423-.606 1.003-.606 1.738v5.762h-2.675Z"/><path fill="#000" fill-rule="evenodd" d="M18.721.691a.446.446 0 0 0-.26.059l-6.79 3.92L4.88.75a.446.446 0 0 0-.237-.06.446.446 0 0 0-.237.06L.918 2.764a.447.447 0 0 0-.223.365.45.45 0 0 0-.007.083v15.891c0 .023.001.046.005.068-.01.165.07.329.223.417l3.489 2.014c.085.05.18.067.271.057a.445.445 0 0 0 .271-.057l3.49-2.014a.446.446 0 0 0 .168-.173.446.446 0 0 0 .073-.245v-7.648l2.845 1.642a.446.446 0 0 0 .26.058.446.446 0 0 0 .26-.058l2.745-1.585v7.591c0 .043.006.084.017.124.026.119.1.228.214.294l3.49 2.014a.446.446 0 0 0 .265.058c.09.009.183-.01.266-.058l3.49-2.014a.448.448 0 0 0 .222-.422.469.469 0 0 0 .005-.063V3.212a.447.447 0 0 0-.17-.352.448.448 0 0 0-.117-.096L18.981.75a.445.445 0 0 0-.26-.059Zm3.14 18.249V3.673L11.82 9.47a.445.445 0 0 1-.236.06.445.445 0 0 1-.235-.06L1.583 3.833v15.106l2.686 1.55V8.808c0-.126.052-.24.136-.321a.448.448 0 0 1 .587-.126l6.79 3.92 6.79-3.92a.448.448 0 0 1 .658.273.447.447 0 0 1 .035.174V20.44l2.596-1.5Zm-3.491 1.548-2.686-1.55v-7.825a.45.45 0 0 0-.003-.05l2.689-1.552v10.977ZM7.783 18.931v-7.818c0-.035.004-.07.011-.102l-2.63-1.518v10.95l2.619-1.512ZM21.162 3.043l-9.578 5.53-9.468-5.466 2.528-1.46 6.767 3.907a.446.446 0 0 0 .26.058.446.446 0 0 0 .26-.058l6.79-3.92 2.44 1.409Z" clip-rule="evenodd"/><path fill="#000" d="m18.722.691-.015.172.015.001.014-.001-.014-.172Zm-7.05 3.98-.087.148.086.05.086-.05-.086-.149ZM4.643.69 4.64.862h.01L4.644.69ZM.696 3.13l.17.03.001-.01v-.012l-.171-.009ZM.693 19.17l.172.011.001-.018-.002-.019-.17.026Zm3.984 2.488.018-.17-.018-.003-.019.002.019.171Zm3.929-2.244-.145-.094-.003.005-.003.006.15.083Zm.073-7.893.086-.15-.259-.15v.3h.173Zm3.104 1.7.014-.171-.014-.002-.014.002.014.171Zm3.006-1.643h.172v-.3l-.258.15.086.15Zm.017 7.715.169-.037-.002-.005-.001-.006-.166.048Zm3.969 2.366.016-.172-.016-.001-.016.001.016.172Zm3.978-2.494-.171-.024-.003.019.002.018.172-.013ZM22.587 2.86l-.131.113.01.012.014.01.107-.135Zm-.725 16.08.086.149.086-.05v-.1h-.172Zm0-15.267h.172v-.299l-.258.15.086.149ZM11.584 9.53l.005-.173h-.01l.005.173Zm-10-5.698.086-.15-.26-.149v.299h.173Zm0 15.106H1.41v.1l.086.05.086-.15Zm2.685 1.55-.086.15.259.15v-.3h-.173Zm.137-12.003.12.123.01-.01.01-.013-.14-.1Zm7.377 3.794-.086.15.086.05.086-.05-.086-.15Zm7.447-3.647-.166.044.003.012.004.011.16-.067Zm.035 11.806h-.172v.298l.259-.15-.087-.148Zm-3.58-1.502h-.173v.1l.086.05.086-.15Zm2.685 1.551-.086.15.259.149v-.299h-.173Zm-2.689-9.425-.086-.15-.097.057.012.112.171-.019Zm2.69-1.552h.172v-.299l-.26.15.087.149ZM7.782 18.93l.086.15.087-.05v-.1h-.173Zm.012-7.92.168.04.028-.125-.11-.064-.086.15Zm-2.63-1.518.086-.15-.259-.149v.299h.172Zm0 10.95h-.173v.299l.259-.15-.087-.149Zm6.419-11.87-.086.149.086.05.086-.05-.086-.15Zm9.579-5.53.086.149.258-.15-.258-.149-.086.15Zm-19.047.064-.086-.15-.258.15.258.149.086-.15Zm2.528-1.46.087-.15-.087-.049-.086.05.086.15Zm7.027 3.965.014-.171-.014-.002-.014.002.014.171Zm7.05-3.979.087-.149-.086-.05-.087.05.087.15ZM18.549.9c.05-.03.106-.04.16-.036l.028-.344a.618.618 0 0 0-.36.081l.172.299Zm-6.79 3.92L18.547.9 18.375.6l-6.79 3.92.172.3ZM4.793.9l6.79 3.92.173-.298L4.967.6l-.173.298ZM4.65.862c.05-.001.1.01.145.037L4.967.6a.618.618 0 0 0-.328-.083l.01.345ZM4.494.9A.273.273 0 0 1 4.64.862l.01-.345A.618.618 0 0 0 4.322.6L4.494.9ZM1.005 2.913 4.495.9 4.321.6.832 2.615l.173.298Zm-.137.225a.275.275 0 0 1 .137-.225l-.172-.298a.62.62 0 0 0-.31.505l.345.018Zm-.008.074c0-.018.002-.035.005-.051l-.339-.064a.623.623 0 0 0-.01.115H.86Zm0 15.891V3.212H.516v15.891H.86Zm.004.042a.278.278 0 0 1-.004-.042H.516c0 .032.002.064.007.094l.34-.052Zm.138.293a.275.275 0 0 1-.137-.256l-.344-.022a.62.62 0 0 0 .309.577l.172-.299Zm3.49 2.015-3.49-2.015-.172.299 3.489 2.014.172-.298Zm.166.035a.273.273 0 0 1-.167-.035l-.172.298c.118.069.25.093.376.08l-.037-.343Zm.204-.035a.273.273 0 0 1-.167.035l-.037.343a.618.618 0 0 0 .376-.08l-.172-.298Zm3.489-2.015-3.49 2.015.173.298 3.49-2.014-.173-.299Zm.104-.106a.274.274 0 0 1-.104.106l.172.299a.618.618 0 0 0 .234-.24l-.302-.165Zm.051-.162a.273.273 0 0 1-.045.15l.29.19a.618.618 0 0 0 .1-.34h-.345Zm0-7.648v7.648h.345v-7.648h-.345Zm3.103 1.493-2.844-1.643-.173.299 2.845 1.642.172-.298Zm.16.036a.273.273 0 0 1-.16-.036l-.172.298a.618.618 0 0 0 .36.081l-.028-.343Zm.188-.036a.274.274 0 0 1-.16.036l-.028.343a.619.619 0 0 0 .36-.08l-.172-.3Zm2.746-1.586-2.746 1.586.172.298 2.746-1.585-.172-.299Zm.258 7.741V11.58h-.345v7.591h.345Zm.01.076a.273.273 0 0 1-.01-.076h-.345c0 .06.009.117.024.171l.332-.095Zm.135.192a.274.274 0 0 1-.131-.18l-.338.072a.619.619 0 0 0 .297.407l.172-.299Zm3.49 2.015-3.49-2.015-.172.299 3.489 2.014.172-.298Zm.163.035a.273.273 0 0 1-.164-.035l-.172.298a.62.62 0 0 0 .368.08l-.032-.343Zm.196-.035a.273.273 0 0 1-.164.035l-.032.344a.62.62 0 0 0 .368-.08l-.172-.3Zm3.489-2.015-3.49 2.015.173.298 3.49-2.014-.173-.299Zm.137-.259a.276.276 0 0 1-.137.26l.172.298a.62.62 0 0 0 .308-.584l-.343.026Zm.004-.076c0 .014-.001.027-.003.04l.341.047a.627.627 0 0 0 .006-.087h-.344Zm0-15.891v15.891h.344V3.212h-.344Zm-.105-.216c.064.05.105.128.105.216h.344a.62.62 0 0 0-.235-.487l-.214.27Zm-.096-.083a.274.274 0 0 1 .072.06l.262-.225a.62.62 0 0 0-.161-.133l-.173.298ZM18.895.9l3.49 2.014.172-.298L19.067.6 18.896.9Zm-.16-.036a.273.273 0 0 1 .16.036L19.068.6a.618.618 0 0 0-.36-.08l.028.343Zm3.3 18.077V3.673h-.346V18.94h.345Zm-.26-15.417L11.734 9.321l.172.3 10.043-5.799-.172-.299ZM11.734 9.321a.273.273 0 0 1-.145.037l-.008.345a.617.617 0 0 0 .325-.083l-.172-.299Zm-.153.037a.273.273 0 0 1-.145-.037l-.172.3c.102.058.215.085.325.082l-.008-.345Zm-.145-.037L1.67 3.683l-.173.299 9.766 5.638.172-.299ZM1.411 3.833v15.106h.345V3.833H1.41Zm.086 15.255 2.686 1.551.172-.299-2.685-1.55-.173.298Zm2.945 1.402V8.807h-.345V20.49h.345Zm0-11.683c0-.077.032-.147.083-.198l-.24-.247a.619.619 0 0 0-.188.445h.345Zm.104-.22a.275.275 0 0 1 .36-.078l.173-.299a.62.62 0 0 0-.813.175l.28.201Zm.36-.078 6.79 3.92.173-.298-6.79-3.92-.173.298Zm6.963 3.92 6.79-3.92-.172-.299-6.79 3.92.172.3Zm6.79-3.92c.132-.076.3-.03.377.1l.298-.172a.62.62 0 0 0-.847-.227l.173.299Zm.377.1a.274.274 0 0 1 .028.068l.333-.088a.622.622 0 0 0-.063-.152l-.298.173Zm.035.091a.272.272 0 0 1 .022.107h.345a.618.618 0 0 0-.049-.241l-.318.134Zm.022.107V20.44h.345V8.807h-.345Zm.259 11.78 2.596-1.498-.172-.299-2.597 1.5.173.298Zm-3.754-1.5 2.686 1.55.172-.298-2.686-1.551-.172.299Zm-.086-7.974v7.824h.345v-7.824h-.345Zm-.002-.03a.28.28 0 0 1 .002.03h.345a.618.618 0 0 0-.004-.069l-.343.038Zm2.774-1.721-2.689 1.552.173.299 2.688-1.553-.172-.298Zm.259 11.126V9.511h-.345v10.977h.345ZM7.61 11.113v7.818h.345v-7.818H7.61Zm.016-.14a.622.622 0 0 0-.016.14h.345c0-.022.002-.043.007-.063l-.336-.078Zm-2.549-1.33 2.63 1.518.173-.299-2.63-1.519-.173.3Zm.259 10.8V9.493h-.345v10.95h.345Zm2.36-1.661-2.619 1.512.173.299 2.618-1.512-.172-.3Zm3.973-10.06 9.579-5.53-.173-.299-9.578 5.53.172.299ZM2.03 3.256l9.468 5.466.172-.299-9.467-5.466-.173.299Zm2.528-1.758L2.03 2.958l.173.298 2.528-1.46-.173-.298Zm6.94 3.907L4.73 1.498l-.173.298 6.767 3.907.172-.298Zm.159.036a.273.273 0 0 1-.16-.036l-.172.298a.618.618 0 0 0 .36.081l-.028-.343Zm.188-.036a.273.273 0 0 1-.16.036l-.028.343a.617.617 0 0 0 .36-.08l-.172-.3Zm6.79-3.92-6.79 3.92.172.298 6.79-3.92-.172-.299Zm2.614 1.408-2.441-1.409-.173.299 2.441 1.409.173-.299Z"/></svg>