<svg xmlns="http://www.w3.org/2000/svg" width="103.226" height="64" fill="none" viewBox="0 0 50 31"><g clip-path="url(#a)"><path fill="#F62B54" d="M6.207 30.246a6.231 6.231 0 0 1-5.43-3.151 6.024 6.024 0 0 1 .17-6.202L12.13 3.333A6.235 6.235 0 0 1 17.65.336a6.224 6.224 0 0 1 5.342 3.293 6.019 6.019 0 0 1-.336 6.192L11.48 27.38a6.232 6.232 0 0 1-5.273 2.866Z"/><path fill="#FC0" d="M25.383 30.246c-2.255 0-4.33-1.206-5.42-3.144a6.004 6.004 0 0 1 .17-6.186l11.16-17.518A6.226 6.226 0 0 1 36.818.334a6.217 6.217 0 0 1 5.378 3.312 6.005 6.005 0 0 1-.403 6.221l-11.158 17.52a6.222 6.222 0 0 1-5.252 2.859Z"/><path fill="#00CA72" d="M44.14 30.392c3.179 0 5.756-2.523 5.756-5.636 0-3.112-2.577-5.635-5.757-5.635-3.179 0-5.756 2.523-5.756 5.636 0 3.112 2.577 5.635 5.756 5.635Z"/></g><defs><clipPath id="a"><path fill="#fff" d="M0 0h50v30.769H0z"/></clipPath></defs></svg>