<svg xmlns="http://www.w3.org/2000/svg" width="103.226" height="64" fill="none" viewBox="0 0 50 31"><g clip-path="url(#a)"><path fill="#f62b54" d="M6.207 30.246a6.23 6.23 0 0 1-5.43-3.151 6.02 6.02 0 0 1 .17-6.202L12.13 3.333A6.24 6.24 0 0 1 17.65.336a6.22 6.22 0 0 1 5.342 3.293 6.02 6.02 0 0 1-.336 6.192L11.48 27.38a6.23 6.23 0 0 1-5.273 2.866"/><path fill="#fc0" d="M25.383 30.246c-2.255 0-4.33-1.206-5.42-3.144a6 6 0 0 1 .17-6.186l11.16-17.518A6.23 6.23 0 0 1 36.818.334a6.22 6.22 0 0 1 5.378 3.312 6 6 0 0 1-.403 6.221l-11.158 17.52a6.22 6.22 0 0 1-5.252 2.859"/><path fill="#00ca72" d="M44.14 30.392c3.179 0 5.756-2.523 5.756-5.636s-2.577-5.635-5.757-5.635-5.756 2.523-5.756 5.636 2.577 5.635 5.756 5.635Z"/></g><defs><clipPath id="a"><path fill="#fff" d="M0 0h50v30.769H0z"/></clipPath></defs></svg>