<svg xmlns="http://www.w3.org/2000/svg" width="336.842" height="64" fill="none" viewBox="0 0 100 19"><g clip-path="url(#a)"><path fill="#F62B54" d="M2.069 14.355a2.08 2.08 0 0 1-1.81-1.05 2.01 2.01 0 0 1 .057-2.067l3.727-5.853a2.08 2.08 0 0 1 1.84-1 2.08 2.08 0 0 1 1.78 1.098 2.01 2.01 0 0 1-.111 2.064L3.827 13.4a2.08 2.08 0 0 1-1.758.955"/><path fill="#FC0" d="M8.464 14.355a2.07 2.07 0 0 1-1.807-1.048 2 2 0 0 1 .057-2.061l3.72-5.84a2.08 2.08 0 0 1 1.841-1.021c.758.017 1.445.44 1.793 1.104a2 2 0 0 1-.134 2.074l-3.72 5.84a2.07 2.07 0 0 1-1.75.952"/><path fill="#00CA72" d="M14.716 14.404c1.06 0 1.919-.84 1.919-1.878s-.86-1.879-1.92-1.879c-1.059 0-1.918.841-1.918 1.879 0 1.037.859 1.878 1.919 1.878"/><path fill="#333" d="M98.078 10.756c.58 0 .926.412.926 1.088v2.313h.787v-2.366c0-1.149-.54-1.814-1.557-1.814-.398 0-1.03.109-1.407.84a1.29 1.29 0 0 0-1.056-.797 1.8 1.8 0 0 0-.442-.026c-.324.026-.9.228-1.116.684v-.614h-.788v4.093h.788v-2.209c0-.859.562-1.192 1.125-1.192.528 0 .875.404.875 1.079v2.322h.783v-2.209c0-.683.41-1.2 1.082-1.192m-7.545 2.717a1.3 1.3 0 0 0 .96-.396 1.34 1.34 0 0 0 .373-.98c0-.824-.607-1.34-1.333-1.34-.728 0-1.333.516-1.333 1.34-.014.364.12.718.37.978.252.26.598.405.956.398zm0 .768c-1.152 0-2.113-.85-2.113-2.148 0-1.297.961-2.121 2.113-2.121 1.151 0 2.12.824 2.12 2.121s-.975 2.152-2.126 2.152zm-6.168-2.148-.007.005c0-1.298.986-2.121 2.145-2.126a2.08 2.08 0 0 1 1.558.657l-.597.508a1.34 1.34 0 0 0-.961-.385c-.727 0-1.358.517-1.358 1.341 0 .557.33 1.058.838 1.271a1.35 1.35 0 0 0 1.48-.298l.607.508a2.1 2.1 0 0 1-1.567.667c-1.15 0-2.138-.85-2.138-2.148m-2.521 1.278a.546.546 0 0 1 .538-.55.54.54 0 0 1 .539.55.545.545 0 0 1-.539.518.544.544 0 0 1-.538-.518"/><path fill="#333" fill-rule="evenodd" d="M83.995 4.861h-2.804l-1.965 5.067-1.955-5.067h-2.805l3.41 8.007-2.12 5.294h2.783zM66.942 9.315c0 1.28 1.118 2.121 2.216 2.121 1.08 0 2.14-.783 2.14-2.122s-1.06-2.122-2.14-2.122c-1.098 0-2.216.842-2.216 2.122Zm4.356 4.471v-1.013c-.568.86-1.895 1.186-2.576 1.186-2.253 0-4.508-1.777-4.508-4.645s2.254-4.644 4.508-4.644c.568 0 1.895.19 2.576 1.185v-.99h2.614v8.923l-2.614-.001zm-7.828 0h-2.614v-1.109c-.436.822-1.495 1.3-2.594 1.3-2.274 0-4.282-1.815-4.282-4.627 0-2.864 2.008-4.681 4.282-4.681 1.097 0 2.16.458 2.594 1.28V0h2.614zM60.8 9.294c0-1.337-.966-2.121-2.046-2.121-1.118 0-2.046.84-2.046 2.121 0 1.322.928 2.16 2.046 2.16 1.1 0 2.046-.879 2.046-2.16m-13.283-.23c0-1.357.702-1.816 1.63-1.816.89 0 1.534.593 1.534 1.777v4.76h2.633V8.453c0-2.542-1.251-3.784-3.24-3.784-1.042 0-2.084.592-2.557 1.49V4.861h-2.632v8.924h2.632zm-7.978 4.874c-2.5 0-4.585-1.835-4.585-4.644 0-2.812 2.083-4.628 4.585-4.628 2.503 0 4.604 1.816 4.604 4.628 0 2.81-2.104 4.644-4.604 4.644m0-2.598c1.098 0 2.008-.804 2.008-2.046 0-1.204-.91-2.026-2.008-2.026a1.95 1.95 0 0 0-1.423.585 2 2 0 0 0-.566 1.441c0 1.243.91 2.046 1.99 2.046Zm-9.305-4.09c.776 0 1.458.611 1.458 1.776v4.76h2.614V8.718c0-2.694-1.31-4.051-3.41-4.051-.623 0-1.799.19-2.651 1.586-.493-1.032-1.44-1.568-2.84-1.568a2.53 2.53 0 0 0-2.31 1.472V4.862h-2.634v8.923h2.632V9.064c0-1.357.74-1.816 1.534-1.816.758 0 1.44.593 1.459 1.72v4.817h2.632V9.064c0-1.298.683-1.814 1.516-1.814" clip-rule="evenodd"/></g><defs><clipPath id="a"><path fill="#fff" d="M0 0h100v18.162H0z"/></clipPath></defs></svg>