<svg xmlns="http://www.w3.org/2000/svg" width="299.52" height="64" fill="none" viewBox="0 0 117 25"><path fill="#1a1a1a" fill-rule="evenodd" d="M19.39 18.588v6.197l9.697-6.197v-6.196L19.39 18.59Z" clip-rule="evenodd"/><path fill="#1a1a1a" fill-rule="evenodd" d="M9.695 18.588v6.197l9.696-6.197v-6.196L9.695 18.59Z" clip-rule="evenodd"/><path fill="#1a1a1a" fill-rule="evenodd" d="M0 18.588v6.197l9.696-6.197v-6.196L0 18.59ZM29.087 0 19.39 6.196v6.197l9.696-6.197V0Z" clip-rule="evenodd"/><path fill="#1a1a1a" fill-rule="evenodd" d="M19.391 0 9.695 6.196v6.197l9.696-6.197z" clip-rule="evenodd"/><path fill="#1a1a1a" fill-rule="evenodd" d="M9.696 0 0 6.196v6.197l9.696-6.197zm40.01 12.768v5.87h-2.503v-5.675c0-1.15-.54-1.716-1.579-1.716q-1.155 0-2.021.994v6.397h-2.504v-5.675c0-1.15-.52-1.716-1.56-1.716-.788 0-1.462.351-2.04 1.053v6.338h-2.522v-9.36h2.349v.877c.77-.683 1.848-1.053 2.946-1.053 1.27 0 2.194.43 2.734 1.287q1.53-1.287 3.35-1.287c2.175 0 3.35 1.287 3.35 3.666m9.134 1.17c0-1.657-1.156-2.691-2.465-2.691-.847 0-1.56.332-2.118.956v3.568c.558.605 1.232.917 2.022.917 1.425 0 2.56-1.034 2.56-2.75Zm1.867-2.535c.424.741.654 1.58.654 2.535 0 1.443-.577 2.73-1.444 3.568-.866.84-2.021 1.346-3.234 1.346-.943 0-1.733-.292-2.387-.858v5.012h-2.523V9.277h2.446V10a3.77 3.77 0 0 1 2.464-.897c1.656 0 3.138.819 4.024 2.301Zm8.761 4.387v-3.626c-.558-.605-1.251-.917-2.06-.917-1.348 0-2.503 1.053-2.503 2.73s1.136 2.71 2.484 2.71c.847 0 1.54-.292 2.079-.896Zm2.484 2.848h-2.365l-.003-.8c-.694.683-1.54 1.014-2.542 1.014-1.656 0-3.138-.838-4.005-2.34-.443-.74-.654-1.58-.654-2.535 0-1.892.963-3.471 2.387-4.27a4.53 4.53 0 0 1 2.291-.605c1.001 0 1.83.331 2.504.975v-.8h2.387v9.36Zm4.506-9.361v.859c.751-.761 1.58-1.034 3.004-1.034v2.418c-.174-.059-.424-.078-.693-.078-.77 0-1.58.39-2.137 1.072v6.124h-2.523v-9.36zm10.608 0v2.106h-2.08v7.255h-2.503v-7.255H80.54V9.277h1.944v-3.12h2.503v3.12h2.08Z" clip-rule="evenodd"/><mask id="a" width="117" height="25" x="0" y="0" maskUnits="userSpaceOnUse" style="mask-type:alpha"><path fill="#fff" d="M0 24.785h116.875V.005H0z"/></mask><g fill="#1a1a1a" fill-rule="evenodd" clip-rule="evenodd" mask="url(#a)"><path d="M88.541 18.638h2.523v-9.36h-2.522zM88.484 8.03h2.638V5.456h-2.638zm13.186 8.716c-.886 1.287-2.388 2.087-4.101 2.087-1.81 0-3.408-.858-4.294-2.34a4.8 4.8 0 0 1-.673-2.496c0-1.853.943-3.432 2.464-4.271a5.1 5.1 0 0 1 2.483-.624c1.83 0 3.196.702 4.101 2.125l-1.925 1.21c-.54-.78-1.251-1.17-2.156-1.17-1.464 0-2.446 1.15-2.446 2.749s.944 2.652 2.426 2.652c.944 0 1.695-.39 2.272-1.15zm1.65 1.892h2.503V4.617h-2.503v14.02Zm8.91-7.472c1.174 0 1.906.566 2.214 1.717h-4.601c.346-1.112 1.174-1.716 2.387-1.716Zm2.254 4.401c-.596.714-1.375 1.079-2.312 1.079-1.308 0-2.233-.722-2.426-2.086h7.105c.019-.137.019-.273.019-.39 0-3.1-1.906-5.09-4.698-5.09-.963 0-1.81.215-2.56.663-1.502.877-2.331 2.418-2.331 4.231 0 1.327.501 2.555 1.329 3.413.828.878 2.118 1.424 3.562 1.424 1.695 0 3.158-.741 4.082-2.067l-.002-.002z"/></g></svg>