<svg xmlns="http://www.w3.org/2000/svg" width="336.842" height="64" fill="none" viewBox="0 0 100 19"><g clip-path="url(#a)"><path fill="#ff0065" d="M99.973 18.194a.37.37 0 0 1-.361.362H81.806a.37.37 0 0 1-.36-.362V.361c0-.194.166-.361.36-.361h17.806c.194 0 .361.167.361.361zm-81.417 0a.37.37 0 0 1-.362.362H.361A.37.37 0 0 1 0 18.194V.361C0 .167.167 0 .361 0h17.806c.194 0 .36.167.36.361v17.833zM59.274.556A.557.557 0 0 0 58.72 0H41.274a.557.557 0 0 0-.555.556V18c0 .306.25.556.555.556h13l5-5zM38.915 18.194a.37.37 0 0 1-.361.362H20.72a.37.37 0 0 1-.36-.362V.361c0-.194.166-.361.36-.361h17.806c.194 0 .361.167.361.361v17.833zm40.699 0a.37.37 0 0 1-.361.362H61.447a.37.37 0 0 1-.361-.362V.361c0-.194.167-.361.361-.361h17.806c.194 0 .36.167.36.361v17.833Z"/><path fill="#fff" d="M50.247 6.333c.278 0 .667.056.834.111a2.2 2.2 0 0 1 1.416 1c.528.862.417 2.112-.5 2.723-.11.055-.194.139-.305.222.028.056.861 1.361 1.166 1.806.056.055 0 .166-.083.166h-1.833c-.084 0-.14-.028-.195-.111l-.972-1.528h-.778v1.417a.24.24 0 0 1-.222.222h-1.389a.24.24 0 0 1-.222-.222V6.583c0-.11.111-.222.222-.222h2.861zm-1.25 2.89h1.25a.74.74 0 0 0 .334-.084c.25-.111.36-.333.36-.611 0-.306-.11-.445-.333-.584a.8.8 0 0 0-.416-.11h-1.195zM12.918 6.528v5.583a.19.19 0 0 1-.194.195H11.28a.19.19 0 0 1-.195-.195V9.333c-.583.806-1.194 1.611-1.778 2.473-.11-.167-1.75-2.445-1.833-2.584v2.917a.19.19 0 0 1-.194.194H5.835a.19.19 0 0 1-.194-.194V6.528a.19.19 0 0 1 .194-.195h1.278q.083 0 .167.084l1.972 2.722 2-2.722c.027-.056.11-.084.166-.084h1.306c.083 0 .194.084.194.195m19.665-.195a.22.22 0 0 1 .223.223v3.138c-.028.723-.25 1.417-.806 1.945-.444.444-1 .667-1.611.778-.361.055-.75.083-1.111.055-.778-.055-1.5-.305-2.056-.889a2.6 2.6 0 0 1-.666-1.416c-.056-.278-.056-.584-.056-.861V6.583c0-.11.111-.222.222-.222h1.361a.22.22 0 0 1 .223.222v2.695c0 .305.027.639.139.916.11.25.25.445.5.584a1.46 1.46 0 0 0 1.027.11c.473-.082.778-.36.89-.832.055-.167.055-.334.055-.5V6.583a.22.22 0 0 1 .222-.222h1.444zm38.636 0 2.666 5.806c.028.083-.027.194-.11.194h-1.612q-.166 0-.25-.166l-.25-.611H69.08l-.25.61q-.084.168-.25.167h-1.611c-.111 0-.167-.11-.111-.194l2.694-5.806zm-.25 3.778-.639-1.667-.639 1.667zm19.255-3.555v4.222h2.528c.11 0 .222.11.222.222v1.111a.24.24 0 0 1-.222.222h-4.14a.24.24 0 0 1-.221-.222V6.556c0-.112.11-.223.222-.223h1.361c.167 0 .25.084.25.223"/><path fill="#b0044b" d="m49.61 18.555 4.805-4.833h4.694l-4.833 4.833z"/><path fill="#ff5ba0" d="M59.281 13.556h-4.444a.557.557 0 0 0-.556.555v4.445z"/></g><defs><clipPath id="a"><path fill="#fff" d="M0 0h100v18.611H0z"/></clipPath></defs></svg>