<svg xmlns="http://www.w3.org/2000/svg" width="64" height="64" fill="none" viewBox="0 0 50 50"><g clip-path="url(#a)"><path fill="#FF0061" d="M50 1.467a1.476 1.476 0 0 0-1.483-1.483H1.483A1.477 1.477 0 0 0 0 1.467v47.066a1.476 1.476 0 0 0 1.483 1.483H36.52L50 36.536V1.466Z"/><path fill="#000" d="M36.914 36.998 23.93 49.98h12.588l13.447-13.445" opacity=".3"/><path fill="#FF5BA0" d="M49.996 36.503H38a1.479 1.479 0 0 0-1.483 1.48v12l13.48-13.48Z"/><path fill="#fff" d="M34.836 17.617V32.68a.519.519 0 0 1-.528.527h-3.922a.52.52 0 0 1-.528-.527V25.16c-1.613 2.21-3.197 4.384-4.845 6.625-.329-.428-4.713-6.592-4.943-6.987 0 .297 0 6.065-.034 7.878a.52.52 0 0 1-.527.527h-3.786a.52.52 0 0 1-.528-.527V17.58a.518.518 0 0 1 .528-.525h3.46a.565.565 0 0 1 .43.231l5.339 7.35 5.403-7.35a.566.566 0 0 1 .43-.23h3.493c.33.033.56.263.56.56h-.002Z"/></g><defs><clipPath id="a"><path fill="#fff" d="M0 0h50v50H0z"/></clipPath></defs></svg>