<svg xmlns="http://www.w3.org/2000/svg" width="49.92" height="64" fill="none" viewBox="0 0 39 50"><g clip-path="url(#a)"><path fill="#748297" fill-rule="evenodd" d="m17.178 2.92-.015-.003c-.297-.042-.695-.048-1.361-.048-1.144 0-2.303.177-3.486.545-3.672 1.244-6.72 4.501-8.353 9.623-1.562 4.988-1.46 10.998.384 16.913 3.096 9.703 10.083 16.229 16.712 17.035h.006c.41.051.851.055 1.412.055 1.143 0 2.302-.177 3.486-.545 3.705-1.255 6.797-4.46 8.341-9.586l.005-.015.005-.015c1.564-4.99 1.463-11.003-.383-16.92-3.09-9.681-10.073-16.165-16.738-17.038l-.015-.002ZM36.67 19.095c1.994 6.391 2.148 13.01.383 18.64-1.764 5.859-5.447 9.89-10.203 11.489a14.561 14.561 0 0 1-4.373.684c-.538 0-1.151 0-1.765-.076-8.132-.989-15.804-8.673-19.103-19.02-1.995-6.391-2.148-13.01-.384-18.64C3.066 6.391 6.672 2.283 11.43.685A14.564 14.564 0 0 1 15.802 0c.614 0 1.227 0 1.764.076C25.7 1.141 33.371 8.75 36.67 19.096Z" clip-rule="evenodd"/><path fill="#748297" d="M15.483 23.567a2.598 2.598 0 0 0 2.609-2.587 2.598 2.598 0 0 0-2.608-2.587 2.598 2.598 0 0 0-2.609 2.587 2.598 2.598 0 0 0 2.608 2.587Z"/><path fill="#fff" fill-rule="evenodd" d="M15.485 18.442a2.549 2.549 0 0 0-2.56 2.538 2.549 2.549 0 0 0 2.56 2.538 2.549 2.549 0 0 0 2.56-2.538 2.549 2.549 0 0 0-2.56-2.538Zm-2.657 2.538c0-1.456 1.19-2.636 2.657-2.636a2.646 2.646 0 0 1 2.658 2.636 2.646 2.646 0 0 1-2.658 2.635c-1.467 0-2.657-1.18-2.657-2.635Z" clip-rule="evenodd"/><path fill="#748297" d="m28.067 32.925-8.286-21.227 12.966 19.4-4.68 1.827Z"/></g><defs><clipPath id="a"><path fill="#fff" d="M0 0h38.462v50H0z"/></clipPath></defs></svg>