<svg xmlns="http://www.w3.org/2000/svg" width="336.842" height="64" fill="none" viewBox="0 0 100 19"><g clip-path="url(#a)"><path fill="#8D80D1" fill-rule="evenodd" d="M2.112 6.325a4.518 4.518 0 1 1 8.946.905A6.305 6.305 0 0 0 6.63 5.422 6.305 6.305 0 0 0 2.202 7.23a4.54 4.54 0 0 1-.09-.905ZM.913 9.036a6.325 6.325 0 1 1 11.434 0 6.325 6.325 0 1 1-11.434 0Zm10.145 1.807a4.518 4.518 0 1 1-8.856 0A6.305 6.305 0 0 0 6.63 12.65c1.724 0 3.287-.69 4.428-1.808Zm-.814-1.807a4.51 4.51 0 0 1-3.614 1.807 4.512 4.512 0 0 1-3.614-1.807A4.512 4.512 0 0 1 6.63 7.23a4.51 4.51 0 0 1 3.614 1.807Z" clip-rule="evenodd"/><path fill="#2B2A45" d="M29.29 14.501v-9.31l1.129-.189-.073-.68-1.619.044-1.576-.043-.043.68 1.07.187v6.333l-.405-1.243-4.641-5.957-1.547.043-1.171-.043-.073.68 1.1.23v8.372l-1.128.188.072.68 1.633-.044 1.576.043.044-.68-1.07-.187v-7.49l.332 1.33 5.306 7.056h1.085Zm5.517-1.04.462 1.156 2.501-.506-.1-.68h-.695c-.13-.245-.188-.506-.188-1.084V9.542c0-1.691-.68-2.226-2.703-2.226l-3.008 1.229v1.214h1.808l.216-1.272a1.94 1.94 0 0 1 .882-.217c.506 0 .738.26.738 1.142v.824l-3.21 1.027c-.39.376-.65.853-.65 1.474 0 1.186.954 1.938 2.284 1.938l1.663-1.215Zm-1.2-.015c-.347 0-.738-.29-.738-.983 0-.333.101-.723.318-.955l1.533-.607v1.995l-.376.26c-.188.116-.448.29-.738.29Zm6.616.983 2.458.043.073-.708-1.532-.16v-3.05l.201-.231c.376-.434.738-.795 1.085-.954h1.475V7.388h-1.345L41.106 9.73l-.16-2.24-.78.043-1.894.419.072.708.853-.058v5.017l-.853.174.073.68 1.807-.044Zm6.312 0 2.458.043.072-.708-1.533-.16v-3.05l.203-.231c.376-.434.737-.795 1.084-.954h1.475V7.388h-1.345L47.417 9.73l-.16-2.24-.78.043-1.894.419.072.708.853-.058v5.017l-.853.174.073.68 1.807-.044Zm8.25-.969.462 1.157 2.502-.506-.102-.68h-.694c-.13-.245-.188-.506-.188-1.084V9.542c0-1.691-.679-2.226-2.703-2.226l-3.007 1.229v1.214h1.807l.217-1.272a1.94 1.94 0 0 1 .882-.217c.506 0 .737.26.737 1.142v.824l-3.21 1.027c-.39.376-.65.853-.65 1.474 0 1.186.954 1.938 2.284 1.938l1.663-1.215Zm-1.2-.014c-.347 0-.738-.29-.738-.983 0-.333.102-.723.319-.955l1.532-.607v1.995l-.376.26c-.188.116-.448.29-.737.29Zm9.756.202-.304-.65c-.506.274-.81.361-1.156.361-.39 0-.723-.361-.723-.896V8.588h1.937v-.78h-1.952V5.681h-.68l-1.315 1.07v.997h-.766l-.564.579v.26h1.316v3.802c0 1.533.766 2.285 2.284 2.285l1.923-1.027Zm3.176-7.446.188-.81-.1-.982-.464-.087-1.373.087-.174.824.102.968.477.102 1.344-.102Zm-.795 8.227 1.793.043.072-.68-.867-.173V7.49l-.897.044-2.038.404.072.68.839-.044v5.046l-.839.174.072.68 1.793-.044Zm6.739-.16 2.226-5.898.853-.173-.072-.68-1.142.029-1.345-.029-.072.68.68.173-1.605 4.887-.116-1.171-1.345-3.716.781-.173-.072-.68-1.648.043-1.923-.043-.073.68.723.173 2.588 6.304 1.562-.405Zm9.218-4.177c0-1.519-.78-2.776-2.805-2.776-2.66.694-3.47 2.168-3.47 3.903 0 2.097 1.519 3.456 3.514 3.456 1.156-.362 1.98-.723 2.747-1.388l-.318-.65c-.42.274-1.128.577-1.807.577-1.244 0-1.967-.983-2.053-2.327h4.192v-.795Zm-4.192.086c.072-1.3.477-1.952 1.156-1.952.795 0 1.012.723 1.012 1.822l-2.168.13Zm10.373 4.25 2.992.044c2.198-.303 3.832-1.113 3.832-2.92 0-1.417-1.056-2.43-3.094-2.53 1.532-.304 2.544-1.258 2.544-2.444 0-1.113-.838-2.27-2.646-2.255l-3.629.043-1.821-.043-.072.68 1.127.187v8.415l-1.127.188.072.68 1.822-.044Zm1.445-9.281.998-.101c1.128.014 1.59.723 1.59 1.72 0 1.114-.636 2.024-1.648 2.024h-.94V5.147Zm0 8.501v-4.15h1.142c1.258 0 1.996.883 1.996 2.083 0 .968-.535 2.154-2.183 2.154l-.955-.087Zm8.05.78 2.155.044.072-.694-1.127-.188v-8.4l1.127-.188-.072-.68-2.154.044-2.169-.043-.072.68 1.128.187v8.4l-1.128.188.072.694 2.169-.043Z"/></g><defs><clipPath id="a"><path fill="#fff" d="M0 0h100v18.072H0z"/></clipPath></defs></svg>