<svg xmlns="http://www.w3.org/2000/svg" width="47.36" height="64" fill="none" viewBox="0 0 37 50"><path fill="#8D80D1" fill-rule="evenodd" d="M5.836 17.5a12.5 12.5 0 1 1 24.75 2.502A17.443 17.443 0 0 0 18.336 15a17.443 17.443 0 0 0-12.25 5.002 12.558 12.558 0 0 1-.25-2.502ZM2.519 25a17.433 17.433 0 0 1-1.683-7.5C.836 7.835 8.671 0 18.336 0s17.5 7.835 17.5 17.5c0 2.683-.605 5.227-1.683 7.5a17.432 17.432 0 0 1 1.683 7.5c0 9.665-7.835 17.5-17.5 17.5S.836 42.165.836 32.5c0-2.683.605-5.227 1.683-7.5Zm28.067 4.998a12.5 12.5 0 1 1-24.5 0A17.443 17.443 0 0 0 18.336 35c4.77 0 9.093-1.908 12.25-5.002ZM28.336 25a12.478 12.478 0 0 1-10 5 12.481 12.481 0 0 1-10-5 12.482 12.482 0 0 1 10-5 12.48 12.48 0 0 1 10 5Z" clip-rule="evenodd"/></svg>