<svg xmlns="http://www.w3.org/2000/svg" width="228.571" height="64" fill="none" viewBox="0 0 100 28"><g clip-path="url(#a)"><path fill="#D81F26" d="M13.75 25.284c-1.504.264-3.035.343-4.618.554l-4.83-14.146v14.753c-1.504.158-2.877.37-4.302.58V0h4.012l5.49 15.334V0h4.248zm8.314-15.387c1.636 0 4.143-.08 5.648-.08v4.223c-1.874 0-4.064 0-5.648.08v6.28c2.48-.158 4.962-.37 7.469-.449v4.064l-11.692.924V0h11.692v4.223h-7.47zm23.172-5.674h-4.38v19.425c-1.426 0-2.851 0-4.224.052V4.223h-4.38V0h12.984zm6.862 5.384h5.78v4.223h-5.78v9.58h-4.144V0h11.798v4.223h-7.654zm14.516 10.108c2.401.053 4.83.238 7.178.37v4.17c-3.773-.238-7.548-.476-11.4-.555V0h4.222zm10.741 4.83c1.346.079 2.772.158 4.144.316V0h-4.144zM100 0l-5.358 12.853L100 27.026c-1.584-.212-3.167-.502-4.75-.766l-3.036-7.812-3.087 7.179c-1.531-.264-3.01-.343-4.54-.554l5.437-12.379L85.114 0h4.54l2.771 7.1L95.381 0z"/></g><defs><clipPath id="a"><path fill="#fff" d="M0 0h100v27.051H0z"/></clipPath></defs></svg>