<svg xmlns="http://www.w3.org/2000/svg" width="64" height="64" fill="none" viewBox="0 0 50 50"><g clip-path="url(#a)"><path fill="url(#b)" d="m36.198 17.356-.018-.008a.075.075 0 0 1-.03-.017.143.143 0 0 1-.036-.121l1.007-6.16 4.726 4.726-4.915 2.09a.105.105 0 0 1-.043.009h-.02a.136.136 0 0 1-.025-.023 2.24 2.24 0 0 0-.646-.496Zm6.854-.376 5.053 5.052c1.049 1.05 1.574 1.575 1.766 2.182.029.09.052.18.07.272l-12.074-5.113-.02-.008c-.048-.019-.104-.041-.104-.09 0-.05.057-.074.106-.093l.015-.007 5.188-2.195Zm6.683 9.128c-.26.49-.769.998-1.629 1.86l-5.696 5.694-7.368-1.534-.039-.008c-.065-.01-.134-.022-.134-.08a2.22 2.22 0 0 0-.854-1.556c-.03-.03-.022-.077-.013-.12 0-.006 0-.012.003-.018l1.385-8.506.005-.028c.008-.065.02-.14.079-.14a2.254 2.254 0 0 0 1.512-.868c.012-.012.02-.027.035-.035.042-.02.091 0 .134.019l12.58 5.32ZM41.1 34.972l-9.367 9.366 1.603-9.854.003-.013a.187.187 0 0 1 .007-.037c.013-.032.047-.045.08-.058l.015-.006c.352-.15.662-.381.906-.674.032-.037.07-.072.118-.078a.12.12 0 0 1 .037 0l6.596 1.355.002-.001ZM29.75 46.32l-1.056 1.056-11.673-16.868a.854.854 0 0 0-.013-.018c-.018-.025-.038-.05-.034-.079 0-.02.015-.039.029-.054l.013-.017c.035-.052.065-.105.098-.16l.026-.046.004-.004c.018-.031.035-.061.066-.078.028-.013.065-.008.095-.002l12.932 2.667c.037.006.07.02.1.043.016.017.02.035.024.056a2.29 2.29 0 0 0 1.34 1.532c.037.018.021.058.004.101a.3.3 0 0 0-.02.059c-.162.99-1.56 9.512-1.935 11.812Zm-2.206 2.204c-.778.77-1.237 1.178-1.755 1.343a2.607 2.607 0 0 1-1.573 0c-.607-.193-1.132-.717-2.181-1.768L10.312 36.38l3.062-4.749a.196.196 0 0 1 .052-.061c.033-.024.08-.013.119 0a3.174 3.174 0 0 0 2.135-.108c.035-.013.07-.022.098.002a.245.245 0 0 1 .036.042l11.73 17.02ZM9.182 35.248l-2.69-2.689 5.311-2.265a.108.108 0 0 1 .043-.009c.045 0 .07.044.094.085.053.082.11.162.17.24l.017.02c.015.023.005.045-.01.066l-2.934 4.552h-.001Zm-3.88-3.879-3.401-3.401c-.58-.579-.999-.999-1.291-1.36l10.345 2.146.039.006c.064.01.134.022.134.082 0 .065-.077.095-.142.12l-.03.013-5.653 2.394ZM.017 24.86c.011-.219.05-.436.117-.645.193-.607.717-1.131 1.768-2.182l4.353-4.353c2.005 2.909 4.015 5.814 6.03 8.716.035.047.074.099.034.138-.19.21-.38.439-.515.688a.21.21 0 0 1-.065.08c-.017.011-.035.007-.055.003h-.002L.016 24.858v.001Zm7.404-8.345 5.851-5.854c.551.242 2.555 1.087 4.345 1.843 1.355.574 2.59 1.095 2.98 1.265.038.015.074.03.09.07.011.024.006.053 0 .078a2.611 2.611 0 0 0 .682 2.383c.04.039 0 .095-.034.143l-.018.027-5.944 9.206a.18.18 0 0 1-.056.065c-.031.02-.075.01-.112.002a2.957 2.957 0 0 0-.708-.097c-.213 0-.446.04-.68.082h-.001c-.026.004-.05.01-.07-.006a.277.277 0 0 1-.06-.067l-6.267-9.14h.002Zm7.036-7.036 7.579-7.577C23.084.85 23.609.326 24.216.135a2.608 2.608 0 0 1 1.573 0C26.396.326 26.92.85 27.97 1.9l1.642 1.642-5.39 8.346a.202.202 0 0 1-.053.063c-.033.022-.079.013-.118 0a2.732 2.732 0 0 0-2.502.482c-.036.037-.088.016-.132-.004-.704-.306-6.179-2.62-6.962-2.952Zm16.302-4.79 4.976 4.975-1.199 7.427v.02a.175.175 0 0 1-.01.049c-.013.026-.04.031-.066.039a2.391 2.391 0 0 0-.74.378c-.014.016-.029.03-.052.032a.15.15 0 0 1-.056-.009l-7.584-3.221-.014-.007c-.048-.02-.106-.043-.106-.093a2.863 2.863 0 0 0-.404-1.192c-.036-.06-.077-.123-.046-.184l5.3-8.215Zm-5.126 11.216 7.11 3.01c.039.019.082.036.099.076a.14.14 0 0 1 0 .075c-.021.104-.04.222-.04.342v.2c0 .05-.05.07-.097.09l-.015.005a9859.75 9859.75 0 0 1-15.833 6.742c-.023 0-.046 0-.068-.022-.04-.04 0-.094.035-.143a.861.861 0 0 0 .018-.027l5.843-9.045.01-.015c.034-.055.073-.116.136-.116l.058.009c.133.018.25.035.37.035a2.64 2.64 0 0 0 2.202-1.17.21.21 0 0 1 .044-.051c.036-.026.088-.013.128.005ZM17.49 27.875l16.008-6.826s.023 0 .045.023c.088.087.162.146.233.2l.036.023c.032.018.065.038.068.072 0 .014 0 .021-.003.033l-1.371 8.422-.006.034c-.009.065-.018.14-.08.14a2.253 2.253 0 0 0-1.789 1.104l-.006.01c-.019.03-.036.059-.066.074-.027.013-.062.008-.09.002l-12.766-2.633c-.013-.003-.198-.677-.212-.678Z"/></g><defs><radialGradient id="b" cx="0" cy="0" r="1" gradientTransform="matrix(0 49.9197 -57.641 0 -1.66 24.295)" gradientUnits="userSpaceOnUse"><stop stop-color="#20C6B7"/><stop offset="1" stop-color="#4D9ABF"/></radialGradient><clipPath id="a"><path fill="#fff" d="M0 0h50v50H0z"/></clipPath></defs></svg>