<svg xmlns="http://www.w3.org/2000/svg" width="237.037" height="64" fill="none" viewBox="0 0 100 27"><g clip-path="url(#a)"><path fill="#0E1E25" fill-rule="evenodd" d="M36.315 8.29 36.4 9.79c.957-1.16 2.213-1.739 3.768-1.739 2.694 0 4.065 1.547 4.113 4.64v8.569h-2.905v-8.402c0-.823-.177-1.432-.532-1.828-.355-.395-.935-.593-1.74-.593-1.172 0-2.046.532-2.619 1.594v9.229h-2.906V8.29h2.739-.002ZM52.94 21.5c-1.842 0-3.335-.581-4.478-1.744-1.145-1.162-1.717-2.71-1.717-4.644v-.36c0-1.294.25-2.45.748-3.47.497-1.018 1.198-1.811 2.099-2.38.9-.566 1.905-.85 3.014-.85 1.76 0 3.123.564 4.083 1.69.961 1.127 1.441 2.72 1.441 4.783v1.174h-8.455c.088 1.07.444 1.918 1.07 2.54.626.624 1.414.936 2.362.936 1.331 0 2.416-.54 3.253-1.618l1.566 1.498a5.24 5.24 0 0 1-2.074 1.804c-.865.427-1.836.64-2.912.64Zm-.347-11.11c-.798 0-1.44.28-1.93.839-.492.559-.804 1.338-.94 2.337h5.537v-.216c-.064-.975-.323-1.712-.777-2.211-.455-.5-1.084-.749-1.89-.749Zm11.432-5.25v3.152h2.285v2.157h-2.285v7.24c0 .494.099.852.293 1.072.196.22.545.329 1.047.329a4.467 4.467 0 0 0 1.016-.12v2.253a7.124 7.124 0 0 1-1.913.276c-2.232 0-3.348-1.234-3.348-3.703v-7.347h-2.13V8.29h2.128V5.138h2.906l.001.001Zm7.594 16.12h-2.906V2.85h2.906v18.41Zm6.255 0h-2.906V8.291h2.906V21.26ZM74.787 4.923c0-.447.141-.818.424-1.114.284-.295.689-.443 1.214-.443.527 0 .933.148 1.22.443.287.296.43.667.43 1.115 0 .439-.143.804-.43 1.096-.287.292-.693.438-1.22.438-.525 0-.93-.146-1.213-.438-.284-.291-.425-.657-.425-1.096v-.001Zm7.272 16.336V10.448h-1.974V8.29h1.974V7.104c0-1.439.398-2.549 1.195-3.332.797-.783 1.913-1.174 3.348-1.174.51 0 1.053.071 1.627.215l-.072 2.278c-.366-.068-.739-.1-1.112-.096-1.388 0-2.081.715-2.081 2.145v1.15h2.63v2.158h-2.63v10.81h-2.905v.001Zm12.185-4.17 2.63-8.798h3.098L94.83 23.225c-.79 2.181-2.13 3.272-4.019 3.272a5.2 5.2 0 0 1-1.4-.216v-2.254l.551.037c.733 0 1.286-.134 1.656-.402.37-.267.664-.717.88-1.348l.418-1.115-4.545-12.908h3.133l2.739 8.797Z" clip-rule="evenodd"/><path fill="url(#b)" d="m18.936 9.08-.01-.005a.039.039 0 0 1-.015-.009.075.075 0 0 1-.02-.063l.528-3.222 2.472 2.472-2.571 1.093a.056.056 0 0 1-.023.005h-.01a.07.07 0 0 1-.014-.012 1.17 1.17 0 0 0-.337-.26Zm3.585-.197 2.643 2.643c.55.55.824.823.924 1.141.015.047.028.094.037.143l-6.316-2.675-.01-.004c-.026-.01-.055-.022-.055-.048 0-.026.03-.038.055-.049l.008-.003 2.714-1.148Zm3.496 4.775c-.136.256-.402.522-.852.973l-2.98 2.979-3.854-.803-.02-.004c-.034-.006-.07-.012-.07-.042a1.164 1.164 0 0 0-.447-.814c-.016-.015-.012-.04-.007-.063l.001-.009.725-4.45.003-.015c.004-.034.01-.073.04-.073a1.178 1.178 0 0 0 .792-.454c.006-.006.01-.014.018-.018.022-.01.048 0 .07.01l6.58 2.783h.002ZM21.5 18.295l-4.9 4.9.838-5.155.002-.007a.09.09 0 0 1 .004-.02c.007-.016.024-.023.042-.03l.008-.003c.183-.079.346-.2.474-.353.016-.019.036-.037.061-.04a.06.06 0 0 1 .02 0l3.45.708Zm-5.937 5.936-.553.553-6.106-8.824a.245.245 0 0 0-.007-.01c-.01-.013-.02-.026-.018-.041 0-.01.008-.02.015-.029l.007-.009c.019-.027.034-.054.051-.083l.014-.024.002-.002c.01-.017.018-.032.035-.041.014-.007.034-.004.05 0l6.765 1.394c.019.003.036.01.052.023.008.008.01.018.013.029a1.198 1.198 0 0 0 .7.801c.02.01.011.03.003.053a.154.154 0 0 0-.01.031c-.086.518-.817 4.976-1.013 6.18Zm-1.154 1.153c-.407.403-.647.617-.919.703a1.364 1.364 0 0 1-.822 0c-.318-.101-.593-.375-1.141-.925L5.394 19.03l1.602-2.483a.103.103 0 0 1 .027-.032c.017-.013.042-.007.062 0 .368.11.763.09 1.117-.057.019-.007.037-.012.051.001a.129.129 0 0 1 .02.022l6.136 8.904ZM4.803 18.44l-1.407-1.406 2.778-1.185a.056.056 0 0 1 .023-.005c.023 0 .037.023.049.044.028.043.057.085.088.126l.01.01c.008.012.002.024-.006.035l-1.534 2.381h-.001Zm-2.03-2.029-1.78-1.78c-.302-.302-.521-.522-.674-.71l5.411 1.122a.473.473 0 0 0 .02.003c.034.006.071.012.071.043 0 .034-.04.05-.074.063l-.016.007-2.957 1.252ZM.009 13.005c.006-.115.027-.229.061-.338.101-.318.375-.592.925-1.141L3.27 9.248c1.049 1.522 2.1 3.042 3.155 4.56.018.024.039.052.018.072-.1.11-.2.23-.27.36a.109.109 0 0 1-.034.042c-.009.006-.018.004-.029.002l-6.103-1.28ZM3.88 8.639l3.061-3.062c.288.126 1.337.568 2.273.964.709.3 1.355.573 1.559.661.02.008.039.017.047.037.006.012.003.028 0 .04a1.366 1.366 0 0 0 .357 1.247c.02.02 0 .05-.018.075l-.01.015-3.109 4.815a.095.095 0 0 1-.029.034c-.016.01-.04.006-.059.001a1.553 1.553 0 0 0-.37-.05c-.112 0-.233.02-.356.043-.014.002-.027.004-.037-.004a.144.144 0 0 1-.031-.035L3.88 8.64h.001Zm3.68-3.68L11.528.993c.548-.549.823-.823 1.14-.924.269-.084.556-.084.823 0 .318.1.593.375 1.142.924l.86.86-2.82 4.366a.106.106 0 0 1-.029.032c-.017.012-.04.007-.06 0a1.43 1.43 0 0 0-1.31.253c-.019.019-.046.008-.07-.002-.367-.16-3.231-1.37-3.641-1.545Zm8.529-2.507 2.603 2.603-.627 3.885v.01a.092.092 0 0 1-.006.026c-.006.014-.02.017-.034.02a1.252 1.252 0 0 0-.387.198c-.008.009-.015.016-.027.017a.078.078 0 0 1-.03-.004L13.615 7.52l-.007-.003c-.026-.01-.056-.023-.056-.049a1.498 1.498 0 0 0-.211-.623c-.02-.032-.04-.064-.024-.097l2.773-4.297ZM13.409 8.32l3.719 1.575c.02.01.043.018.051.04a.073.073 0 0 1 0 .038.925.925 0 0 0-.02.18v.104c0 .026-.027.037-.051.047l-.008.002c-.589.252-8.271 3.528-8.283 3.528-.011 0-.024 0-.035-.012-.02-.02 0-.05.018-.075a.379.379 0 0 0 .01-.014l3.056-4.731.005-.009c.018-.028.039-.06.071-.06l.031.004c.07.01.131.019.193.019.464 0 .893-.226 1.152-.612a.107.107 0 0 1 .024-.027c.018-.014.045-.007.066.003Zm-4.26 6.262 8.374-3.57s.012 0 .024.011c.046.046.084.076.122.105l.018.012c.017.01.034.02.036.038 0 .007 0 .01-.002.017l-.717 4.406-.003.018c-.004.034-.01.072-.041.072a1.18 1.18 0 0 0-.936.578l-.004.006c-.01.015-.018.03-.034.038-.014.007-.033.005-.048.001l-6.677-1.377c-.007-.002-.104-.354-.112-.355Z"/></g><defs><radialGradient id="b" cx="0" cy="0" r="1" gradientTransform="matrix(0 26.1143 -30.1535 0 -.87 12.71)" gradientUnits="userSpaceOnUse"><stop stop-color="#20C6B7"/><stop offset="1" stop-color="#4D9ABF"/></radialGradient><clipPath id="a"><path fill="#fff" d="M0 0h100v26.555H0z"/></clipPath></defs></svg>