<svg xmlns="http://www.w3.org/2000/svg" width="170" height="64" fill="none"><g clip-path="url(#a)"><mask id="b" width="170" height="64" x="0" y="0" maskUnits="userSpaceOnUse" style="mask-type:luminance"><path fill="#fff" d="M.5 64h168.727V0H.5z"/></mask><g fill="#fff" mask="url(#b)"><path fill-rule="evenodd" d="M27.713 1.94C17.916 13.135 4.342 25.671 1.086 41.314-4.05 65.97 25.943 65.305 40.5 59.287c42.85-17.71 85.226-36.534 127.841-54.803-41.434 11.035-82.721 22.648-124.302 33.11-29.748 7.485-23.96-19.069-16.326-35.655" clip-rule="evenodd"/><path d="M27.81.016a.06.06 0 0 0-.085.004l-.617.698-.47.527q-.874.984-1.758 1.96c-1.774 1.958-3.563 3.901-5.33 5.866-4.155 4.62-8.215 9.369-11.603 14.59-2.637 4.063-4.862 8.428-6.206 13.097a38 38 0 0 0-.607 2.418c-.892 4.15-1.041 8.67.863 12.573a13.2 13.2 0 0 0 3.227 4.199 16.9 16.9 0 0 0 4.112 2.61c2.273 1.038 4.722 1.657 7.19 2.011 3.643.522 7.361.49 11.013.088a50.4 50.4 0 0 0 10.641-2.308c1.438-.485 2.832-1.078 4.234-1.66q2.428-1.003 4.849-2.015 8.36-3.483 16.698-7.013c20.957-8.875 41.838-17.938 62.716-26.996 10.523-4.568 21.042-9.145 31.577-13.677l7.657-3.287 1.827-.792.5-.213c.019-.008.136-.052.136-.064.005-.023-.02-.02-.035-.023 0-.006-.01-.008-.004-.014l-.008.004c-.037.002-.077.016-.101.02l-.322.087-1.619.43-4.207 1.127q-6.147 1.648-12.291 3.305c-12.292 3.316-24.573 6.666-36.861 9.992-21.608 5.849-43.23 11.669-64.936 17.157q-1.95.497-3.896.984a52 52 0 0 1-3.328.725q-1.306.238-2.626.388-1.02.115-2.043.159a37 37 0 0 0 6.185-.834c.933-.2 1.86-.434 2.787-.667l2.925-.737q8.118-2.06 16.223-4.168c18.486-4.788 36.916-9.774 55.346-14.768 10.83-2.937 21.663-5.875 32.5-8.796l10.836-2.909 3.723-.995 1.133-.302.318-.084-.019.008-.501.214-1.664.717-6.656 2.857c-8.818 3.79-17.625 7.614-26.434 11.43-21.934 9.508-43.851 19.053-65.87 28.368A3675 3675 0 0 1 42.378 56.6c-1.237.513-2.469 1.04-3.733 1.484a48.5 48.5 0 0 1-7.729 1.986 54 54 0 0 1-5.185.65 50 50 0 0 1-4.058.128 39 39 0 0 1-5.416-.423c-4.554-.694-9.29-2.378-12.362-5.975a13 13 0 0 1-2.614-4.855 17.5 17.5 0 0 1-.67-5.164c.04-2.836.623-5.652 1.455-8.353 1.329-4.31 3.402-8.359 5.838-12.14 3.73-5.798 8.29-11.003 12.912-16.094 1.544-1.699 3.101-3.39 4.637-5.097.454-.502.277-.308 2.236-2.51l.004-.003.122-.136.012-.02a.06.06 0 0 0-.002-.044zm8.287 36.96c-1.898.084-3.88-.02-5.746-.488 1.478.372 3.006.524 4.525.528.407 0 .814-.022 1.221-.04M27.591.45l-.236.524q-.166.37-.322.74c.056-.131.215-.494.558-1.264m-.558 1.265-.208.465-.054.144zm-1.68 4.162-.085.21q-.201.561-.4 1.128.236-.669.485-1.338m-.485 1.338c-.104.297-.217.591-.318.892l-.067.207q.188-.55.387-1.1m-1.132 3.457-.218.766q.105-.384.218-.766m-.218.766c-.116.403-.236.807-.343 1.212l-.09.376q.204-.796.433-1.588m-.434 1.588q-.087.35-.17.7zm-.574 2.477-.05.23a3 3 0 0 0-.04.222q.042-.227.09-.452m-.708 4.524c-.029.285-.07.569-.091.854q-.02.288-.033.578c.027-.48.078-.954.124-1.432m-.011 5.995c.035.299.066.595.116.892q.025.122.058.248-.105-.567-.174-1.14m.496 2.517c.045.17.083.336.136.5a16 16 0 0 1-.136-.5m1.026 2.642.074.14a3 3 0 0 1-.074-.14m.656 1.092q.562.825 1.287 1.528c.35.336.731.632 1.127.913a9.7 9.7 0 0 1-2.415-2.441m2.449 2.467c.151.104.299.219.456.318.168.104.353.182.525.277a10 10 0 0 1-.981-.595m2.748 1.384c.177.062.35.144.531.198.198.058.4.103.602.155q-.574-.15-1.133-.353"/></g></g><defs><clipPath id="a"><path fill="#fff" d="M.5 0h168.727v64H.5z"/></clipPath></defs></svg>