<svg xmlns="http://www.w3.org/2000/svg" width="64" height="64" fill="none" viewBox="0 0 32 32"><path fill="url(#a)" d="M30.899 12.61c-.296-.085-.625-.124-1.319-.212-2.87-.12-9.965-.402-13.58-.402s-10.71.281-13.58.402c-.694.088-1.023.127-1.319.212C.2 12.827 0 13.158 0 13.819v4.527c0 .66.693 1.106 1.17 1.195.478.09.78.127 1.283.176 2.567.162 8.524.501 13.547.506 5.023-.005 10.98-.344 13.547-.506.503-.05.805-.085 1.283-.176S32 19.006 32 18.346v-4.527c0-.66-.198-.992-1.101-1.21"/><path fill="url(#b)" d="M4.488 12.788C5.9 7.767 10.542 4.083 16.051 4.083c5.493 0 10.125 3.664 11.551 8.665l.013.043a14.6 14.6 0 0 0 2.07-.38l-.02-.07C28.046 6.382 22.564 2 16.052 2 9.516 2 4.02 6.412 2.42 12.398c.72.202 1.248.286 2.068.39"/><path fill="url(#c)" d="m27.569 19.368-.038.119c-1.502 4.88-6.073 8.43-11.48 8.43-5.45 0-10.05-3.605-11.515-8.544-.896.162-1.198.224-2.083.344C4.093 25.645 9.559 30 16.05 30c6.495 0 11.963-4.36 13.6-10.292-.78-.099-1.24-.173-2.082-.34"/><path fill="url(#d)" d="M4.776 12.777c.34-.143.67-.372 1.182-.52a10.77 10.77 0 0 1 10.093-6.949c4.608 0 8.54 2.873 10.078 6.912q.007.023.015.04a29 29 0 0 1 1.287.526l.184.005-.013-.044c-1.427-4.999-6.058-8.661-11.551-8.661-5.508 0-10.15 3.682-11.562 8.702.081 0 .237-.007.287-.01"/><path fill="#fff" d="M15.963 4.425c5.154 0 9.723 3.14 11.454 8.317l.014.044.183.005-.012-.043c-1.427-5-6.059-8.662-11.552-8.662-5.508 0-10.149 3.682-11.562 8.702.11-.002.163-.002.288-.01 1.547-4.915 6.07-8.353 11.187-8.353"/><path fill="url(#e)" d="M27.276 19.383a7 7 0 0 1-1.2.533l-.03.078a10.775 10.775 0 0 1-9.995 6.7c-4.555 0-8.45-2.806-10.025-6.772-.424-.12-1.058-.416-1.298-.539l-.193-.01c1.466 4.939 6.066 8.544 11.516 8.544 5.425 0 10.008-3.572 11.495-8.476l.023-.072c-.086.003-.217.014-.293.014"/><path fill="url(#f)" d="M30.643 12.938c-.76-.095-1.28-.085-3.131-.15l-.257-.009c-3.358-.118-8.403-.275-11.255-.275s-7.896.157-11.255.275l-.256.009c-1.853.065-2.37.055-3.131.15S0 13.373 0 13.952v4.198c0 .579.72 1.047 1.357 1.047 0 0 8.12.513 14.643.519 6.523-.006 14.643-.519 14.643-.519.637 0 1.357-.468 1.357-1.047v-4.198c0-.579-.597-.92-1.357-1.014"/><path fill="#fff" d="M27.276 19.383c-1.593 4.83-6.074 8.194-11.136 8.194-5.114 0-9.651-3.09-11.412-8.194l-.192-.01c1.465 4.939 6.067 8.544 11.517 8.544 5.451 0 10.053-3.608 11.517-8.55z"/><path fill="#8C8C8C" d="M27.286 19.382h-.01a7 7 0 0 1-1.2.534l-.03.078a10.7 10.7 0 0 1-2.148 3.331 11.7 11.7 0 0 0 3.388-3.943"/><path fill="#4D4D4D" d="M8.51 23.638a10.7 10.7 0 0 1-2.484-3.716c-.424-.12-1.058-.416-1.298-.54q.387.817.904 1.553c.705.939 1.56 1.775 2.534 2.483q.17.114.344.22"/><path fill="#252525" d="M4.536 19.374h-.004c-.893.162-1.196.224-2.08.343q.107.388.236.765z"/><path fill="url(#g)" d="M22.502 14.797c-.267-.61-.172-.546-.753-.561-.047-.017-.173-.017-.346-.017-.172 0-.204 0-.345.017-.55 0-.455-.033-.643.368 0 0-.943 2.165-1.35 3.064l-.016.032c-.079.16-.031.16.094.16h.848c.063 0 .094-.032.11-.064 0 0 .125-.273.282-.658h2.072c.157.37.267.641.267.657.015.049.063.065.11.065h.878c.126 0 .158.016.11-.097-.157-.384-1.177-2.63-1.318-2.966m-1.805 1.571c.267-.641.534-1.266.534-1.283q.023-.048.094-.048c.016-.016.063-.016.11-.016.031 0 .078 0 .094.016.031 0 .063.016.078.064.064.176.298.722.518 1.267zm-11.301-2.18c.078 0 .094.031.094.095v3.433c0 .08-.016.112-.11.112h-.816c-.094 0-.11-.016-.11-.112v-3.433c0-.064.016-.096.078-.096zm-1.743.031c.094 0 .11.032.11.113v3.416c0 .096-.016.112-.11.112h-.957c-.565 0-.612 0-.8-.32-.393-.625-1.57-2.47-1.57-2.47v2.678c0 .097-.016.112-.11.112h-.707c-.094 0-.11-.015-.11-.112v-3.416c0-.08.016-.113.11-.113h.817c.612 0 .69-.016.91.305.173.289 1.601 2.534 1.601 2.534v-2.726c0-.08.016-.113.11-.113zm20.955 0c.094 0 .11.032.11.113v3.416c0 .096-.016.112-.11.112h-.957c-.566 0-.613 0-.801-.32-.393-.626-1.57-2.47-1.57-2.47v2.678c0 .096-.016.112-.11.112h-.706c-.094 0-.11-.015-.11-.112v-3.416c0-.08.016-.113.11-.113h.816c.612 0 .69-.016.91.305.189.289 1.601 2.534 1.601 2.534v-2.726c0-.08.016-.113.11-.113zM12.99 15.615c.628.064 1.083.176 1.209.786 0 .047.016.208.016.385 0 .112 0 .256-.032.384-.11.578-.534.69-1.192.69h-2.638c-.094 0-.11-.016-.11-.112v-.578c0-.096.016-.112.11-.112h2.668c.11 0 .141-.032.157-.113v-.24c-.016-.064-.031-.16-.172-.176a50 50 0 0 1-1.774-.16c-.77-.08-.958-.417-.99-.706-.015-.097-.015-.225-.015-.337 0-.097 0-.24.016-.353.11-.514.487-.754 1.146-.754h2.558c.095 0 .126.016.126.096v.594c0 .08-.031.112-.126.096h-2.511c-.11 0-.157.048-.173.16v.145c0 .08.047.144.157.16.299.032 1.225.112 1.57.145m4.536 0c.628.064 1.083.176 1.209.786 0 .047.016.208.016.385 0 .112 0 .256-.032.384-.11.578-.533.69-1.193.69H14.89c-.094 0-.11-.016-.11-.112v-.578c0-.096.016-.112.11-.112h2.669c.11 0 .14-.032.157-.113v-.24c-.017-.064-.048-.16-.173-.176a50 50 0 0 1-1.774-.16c-.77-.08-.942-.417-.989-.706-.015-.097-.015-.225-.015-.337 0-.097 0-.24.015-.353.11-.514.487-.754 1.146-.754h2.559c.094 0 .125.016.125.096v.594c0 .08-.031.112-.125.096h-2.512c-.11 0-.156.048-.172.16v.145c0 .08.031.144.157.16.298.032 1.224.112 1.569.145"/><defs><radialGradient id="b" cx="0" cy="0" r="1" gradientTransform="matrix(22.3141 0 0 22.8011 7.017 -3.629)" gradientUnits="userSpaceOnUse"><stop offset=".202" stop-color="#fff"/><stop offset=".382" stop-color="#FDFDFD"/><stop offset=".487" stop-color="#F4F4F4"/><stop offset=".573" stop-color="#E6E6E6"/><stop offset=".648" stop-color="#D2D2D2"/><stop offset=".689" stop-color="#C4C4C4"/><stop offset="1" stop-color="#333"/></radialGradient><radialGradient id="c" cx="0" cy="0" r="1" gradientTransform="matrix(46.472 0 0 47.4863 61.019 32.893)" gradientUnits="userSpaceOnUse"><stop offset=".202" stop-color="#fff"/><stop offset=".368" stop-color="#E4E4E4"/><stop offset=".594" stop-color="#C4C4C4"/><stop offset="1" stop-color="#333"/></radialGradient><radialGradient id="d" cx="0" cy="0" r="1" gradientTransform="matrix(14.267 0 0 14.5784 12.377 22.414)" gradientUnits="userSpaceOnUse"><stop offset=".202" stop-color="#fff"/><stop offset=".368" stop-color="#E4E4E4"/><stop offset=".594" stop-color="#C4C4C4"/><stop offset="1" stop-color="#333"/></radialGradient><radialGradient id="e" cx="0" cy="0" r="1" gradientTransform="matrix(27.071 0 0 27.6619 23.89 37.32)" gradientUnits="userSpaceOnUse"><stop offset=".202" stop-color="#fff"/><stop offset=".368" stop-color="#E4E4E4"/><stop offset=".594" stop-color="#C4C4C4"/><stop offset="1" stop-color="#333"/></radialGradient><radialGradient id="f" cx="0" cy="0" r="1" gradientTransform="matrix(21.5123 0 0 21.9818 15.786 4.884)" gradientUnits="userSpaceOnUse"><stop offset=".202" stop-color="#fff"/><stop offset=".397" stop-color="#FDFDFD"/><stop offset=".51" stop-color="#F4F4F4"/><stop offset=".603" stop-color="#E6E6E6"/><stop offset=".684" stop-color="#D2D2D2"/><stop offset=".728" stop-color="#C4C4C4"/><stop offset="1" stop-color="#4D4D4D"/></radialGradient><radialGradient id="g" cx="0" cy="0" r="1" gradientTransform="matrix(14.4898 0 0 14.806 16.284 7.086)" gradientUnits="userSpaceOnUse"><stop offset=".111" stop-color="#4D4D4D"/><stop offset=".248" stop-color="#494949"/><stop offset=".355" stop-color="#404040"/><stop offset=".451" stop-color="#2F2F2F"/><stop offset=".541" stop-color="#181818"/><stop offset=".611"/></radialGradient><linearGradient id="a" x1="16" x2="16" y1="2.413" y2="25.204" gradientUnits="userSpaceOnUse"><stop offset=".194" stop-color="#fff"/><stop offset=".208" stop-color="#F8F8F8"/><stop offset=".366" stop-color="#AEAEAE"/><stop offset=".513" stop-color="#707070"/><stop offset=".647" stop-color="#404040"/><stop offset=".764" stop-color="#1D1D1D"/><stop offset=".86" stop-color="#080808"/><stop offset=".922"/></linearGradient></defs></svg>