<svg xmlns="http://www.w3.org/2000/svg" width="64" height="64" fill="none" viewBox="0 0 50 50"><path fill="#000" fill-rule="evenodd" d="M9.37 8.898c1.546 1.257 2.127 1.161 5.032.967l27.39-1.644c.58 0 .097-.58-.096-.676l-4.55-3.289c-.87-.676-2.032-1.451-4.258-1.257L6.368 4.933c-.968.096-1.161.58-.776.967l3.777 2.998Zm1.644 6.383V44.1c0 1.548.774 2.128 2.515 2.032L43.63 44.39c1.743-.095 1.938-1.16 1.938-2.419V13.346c0-1.256-.484-1.934-1.55-1.837l-31.456 1.837c-1.161.098-1.549.678-1.549 1.935Zm29.715 1.546c.193.871 0 1.742-.873 1.84l-1.45.289V40.23c-1.26.677-2.42 1.064-3.388 1.064-1.55 0-1.937-.484-3.098-1.934l-9.487-14.893v14.41l3.003.677s0 1.74-2.422 1.74l-6.677.387c-.194-.387 0-1.353.677-1.547l1.742-.483V20.6l-2.419-.194c-.194-.87.29-2.127 1.645-2.224l7.163-.483 9.873 15.087V19.439L32.5 19.15c-.194-1.065.58-1.838 1.548-1.934l6.68-.389ZM4.14 2.322 31.727.291C35.114 0 35.986.195 38.115 1.74l8.806 6.19c1.453 1.064 1.937 1.354 1.937 2.514V44.39c0 2.128-.775 3.386-3.484 3.578l-32.036 1.935c-2.034.097-3.002-.193-4.067-1.548l-6.485-8.413c-1.162-1.55-1.645-2.708-1.645-4.063V5.706c0-1.74.775-3.191 3-3.384Z" clip-rule="evenodd"/></svg>