<svg xmlns="http://www.w3.org/2000/svg" width="182.857" height="64" fill="none" viewBox="0 0 100 35"><g clip-path="url(#a)"><path fill="#fff" d="M2.075 1.487 21.155.078c2.344-.201 2.946-.065 4.42 1.006l6.09 4.29c1.005.739 1.34.94 1.34 1.743V30.65c0 1.475-.536 2.348-2.41 2.48L8.436 34.472c-1.407.067-2.077-.134-2.814-1.073l-4.485-5.832C.333 26.492 0 25.689 0 24.75V3.832c0-1.206.536-2.211 2.075-2.345Z"/><path fill="#000" fill-rule="evenodd" d="m21.155.078-19.08 1.41C.535 1.62 0 2.625 0 3.831V24.75c0 .939.333 1.742 1.138 2.816l4.485 5.832c.737.939 1.407 1.14 2.814 1.073l22.157-1.341c1.874-.133 2.41-1.006 2.41-2.48V7.116c0-.762-.3-.981-1.187-1.632a90.044 90.044 0 0 1-.153-.11l-6.09-4.291C24.102.013 23.5-.123 21.156.078ZM8.938 6.732c-1.81.122-2.22.15-3.247-.686L3.078 3.968c-.265-.27-.132-.605.537-.671l18.342-1.34c1.54-.135 2.343.402 2.945.87l3.146 2.28c.135.068.47.469.067.469L9.172 6.716l-.234.016Zm-2.11 23.716V10.471c0-.872.269-1.274 1.07-1.342l21.757-1.274c.738-.067 1.071.402 1.071 1.274v19.843c0 .873-.134 1.61-1.339 1.677l-20.82 1.207c-1.204.067-1.738-.334-1.738-1.408Zm20.553-18.905c.133.603 0 1.207-.604 1.275l-1.003.2v14.749c-.872.469-1.674.736-2.344.736-1.071 0-1.34-.335-2.142-1.34L14.726 16.84v9.989l2.076.47s0 1.207-1.674 1.207l-4.618.267c-.134-.268 0-.939.468-1.072l1.206-.334V14.159l-1.674-.136c-.134-.603.2-1.475 1.138-1.543l4.954-.333 6.828 10.458v-9.252l-1.74-.2c-.135-.74.4-1.276 1.07-1.341l4.62-.27Z" clip-rule="evenodd"/><path fill="#000" d="M47.624 24.426v-9.091h.157l6.557 9.091h2.064v-13.36h-2.296v9.082h-.157l-6.556-9.082H45.32v13.36h2.305-.001Zm15.265.205c3.029 0 4.871-1.982 4.871-5.269 0-3.278-1.851-5.269-4.87-5.269-3.01 0-4.87 2-4.87 5.27 0 3.286 1.832 5.268 4.87 5.268Zm0-1.926c-1.6 0-2.517-1.222-2.517-3.343 0-2.111.916-3.342 2.517-3.342 1.593 0 2.51 1.23 2.51 3.342 0 2.12-.907 3.343-2.51 3.343Zm6.97-10.889v2.546h-1.602v1.833h1.601v5.528c0 1.963.927 2.75 3.25 2.75.444 0 .87-.045 1.204-.11v-1.797c-.278.027-.454.046-.778.046-.962 0-1.388-.444-1.388-1.444v-4.973h2.166v-1.833h-2.166v-2.547h-2.288v.001Zm5.83 12.61h2.287v-10.13h-2.288v10.13Zm1.138-11.804a1.37 1.37 0 0 0 1.37-1.38c0-.77-.61-1.39-1.37-1.39-.75 0-1.37.62-1.37 1.39 0 .767.62 1.379 1.37 1.379ZM84.25 24.63c3.028 0 4.87-1.982 4.87-5.269 0-3.278-1.851-5.269-4.87-5.269-3.01 0-4.871 2-4.871 5.27 0 3.286 1.833 5.268 4.871 5.268Zm0-1.926c-1.602 0-2.52-1.222-2.52-3.343 0-2.111.918-3.342 2.52-3.342 1.592 0 2.51 1.23 2.51 3.342 0 2.12-.909 3.343-2.51 3.343Zm6.237 1.721h2.297V18.53c0-1.491.862-2.436 2.23-2.436 1.4 0 2.047.778 2.047 2.324v6.01h2.297V17.87c0-2.417-1.232-3.778-3.49-3.778-1.51 0-2.53.694-3.01 1.824H92.7v-1.62h-2.213v10.13Z"/></g><defs><clipPath id="a"><path fill="#fff" d="M0 0h100v34.483H0z"/></clipPath></defs></svg>