<svg xmlns="http://www.w3.org/2000/svg" width="64" height="64" fill="none" viewBox="0 0 50 50"><g clip-path="url(#a)"><path fill="#F8B228" d="m28.791 20.59 9.5-16.455a24.72 24.72 0 0 1 8.585 32.022L30.42 26.67a4.451 4.451 0 0 1-1.63-6.08Z"/><path fill="#2D1D2F" d="m29.216 28.81 16.455 9.5a24.719 24.719 0 0 1-32.023 8.578l9.5-16.45a4.45 4.45 0 0 1 6.068-1.629Z"/><path fill="#6AB3E3" d="M11.464 45.652 24.453 23.18a.86.86 0 0 0-1.292-1.124A65.73 65.73 0 0 1 1.812 33.815a24.562 24.562 0 0 0 9.652 11.837Z"/><path fill="#E41E26" d="M1.053 31.46A63.42 63.42 0 0 0 36.154 2.917 24.719 24.719 0 0 0 1.053 31.46Z"/></g><defs><clipPath id="a"><path fill="#fff" d="M0 0h50v50H0z"/></clipPath></defs></svg>