<svg xmlns="http://www.w3.org/2000/svg" width="336.842" height="64" fill="none" viewBox="0 0 100 19"><g clip-path="url(#a)"><path fill="#000" d="M0 9.72a5.548 5.548 0 0 1 .349-1.956 4.833 4.833 0 0 1 1-1.625c.946-1.01 2.176-1.514 3.687-1.514 1.512 0 2.708.475 3.589 1.425.848.904 1.272 2.078 1.271 3.521 0 1.444-.437 2.64-1.31 3.588-.922 1-2.146 1.5-3.67 1.5-1.573 0-2.806-.493-3.698-1.478C.406 12.286 0 11.133 0 9.72Zm2.259-.055c0 .386.065.769.195 1.133.119.348.309.667.557.938.514.564 1.189.846 2.025.846.775 0 1.386-.275 1.832-.827.433-.533.65-1.226.65-2.081s-.223-1.555-.67-2.1c-.477-.57-1.13-.855-1.96-.855-.842 0-1.502.302-1.98.906a3.215 3.215 0 0 0-.65 2.04ZM13.672 5.166a4.585 4.585 0 0 1 2.125-.538 4.7 4.7 0 0 1 1.875.34c.52.225.988.555 1.375.97.861.936 1.292 2.12 1.292 3.55 0 1.567-.467 2.83-1.403 3.79-.899.924-2.017 1.386-3.355 1.386-1.176 0-2.146-.307-2.91-.92-.854-.694-1.281-1.653-1.28-2.875V.697h2.276l.005 4.47Zm0 5.679c0 1.09.678 1.635 2.035 1.635.666 0 1.224-.292 1.672-.875.449-.583.678-1.324.688-2.221 0-.891-.242-1.563-.725-2.017-.433-.402-1.017-.603-1.75-.603-.44 0-.926.148-1.459.446a3.51 3.51 0 0 0-.465.306l.004 3.329ZM20.813 4.814h2.625l2.267 6.393 2.193-6.393h2.573l-3.837 9.711h-1.91l-3.912-9.711ZM31.914 2.045A14.89 14.89 0 0 1 33.465 0l2 1.57c-.267.328-.515.65-.743.968l-.717 1.012-2.09-1.505Zm2.444 11.439c-.008.347.004.695.036 1.041h-2.36V4.814h2.324v8.67ZM53.863 13.679c-.792.656-1.656.985-2.592.985-1 0-1.787-.338-2.36-1.013-.545-.657-.818-1.559-.819-2.705V7.258c0-1.24-.025-1.95-.079-2.133a2.909 2.909 0 0 0-.115-.349c.284.025.58.038.892.038h.77c.206 0 .475-.01.81-.028v5.375c0 1.277.347 2.017 1.04 2.222.224.063.455.094.687.092a2.19 2.19 0 0 0 1.766-.799V4.814h2.305v8.521c-.01.398.014.796.074 1.19h-2.375l-.004-.846ZM62.028 14.664c-1.75 0-3.066-.32-3.95-.958.013-.185.031-.396.056-.631l.084-.669.093-.822c.004-.06.013-.12.027-.178 0-.008.056.041.149.149.156.157.335.29.53.395.285.167.587.304.901.409.742.253 1.521.38 2.305.375 1.071 0 1.607-.357 1.608-1.069a.548.548 0 0 0-.307-.511c-.366-.185-.903-.326-1.612-.423a7.175 7.175 0 0 1-1.743-.422 3.732 3.732 0 0 1-1.106-.669c-.526-.49-.789-1.131-.79-1.924 0-.966.372-1.726 1.115-2.277.744-.552 1.763-.823 3.058-.814 1.288 0 2.388.365 3.298 1.096-.044.161-.09.316-.138.465-.143.409-.25.704-.317.883l-.213.556c-.013.05-.023.074-.028.074A.793.793 0 0 1 64.9 7.5c-.39-.45-.998-.748-1.82-.891a4.046 4.046 0 0 0-.782-.075c-1.128 0-1.691.34-1.691 1.022a.583.583 0 0 0 .353.539c.439.237 1.041.41 1.808.52.766.11 1.347.26 1.741.451.361.163.686.395.958.684.446.483.67 1.125.668 1.924a2.572 2.572 0 0 1-1.05 2.125c-.73.577-1.75.866-3.056.865ZM70.203 13.484c-.009.347.004.695.037 1.041h-2.365V.679h2.324l.004 12.805ZM72.226 17.759l.613-.493c.924-.75 1.69-1.856 2.296-3.317l.427-1.033L72 4.814h2.603l2.23 5.612 2.072-5.612h2.676c-.322.446-.716 1.276-1.18 2.49L79.01 10.75c-1.865 4.387-3.327 7.002-4.385 7.845l-2.399-.836ZM81.148 14.525c.053-.33.08-.665.084-1v-.6c0-.109-.009-.215-.015-.32l-.017-.298-.03-.232h2.696a7.52 7.52 0 0 0-.028.576l-.018.39v.665c-.003.275.012.55.046.823l-2.718-.004ZM92.386 13.949c-.88.476-1.677.715-2.39.715a7.265 7.265 0 0 1-1.83-.2 3.758 3.758 0 0 1-1.292-.589c-.718-.526-1.077-1.288-1.077-2.286 0-.892.44-1.635 1.319-2.23.955-.644 2.25-.966 3.885-.966l.375.008c.075.007.158.012.25.015.083.002.167.01.25.023-.05-.991-.478-1.57-1.283-1.738a4.11 4.11 0 0 0-.85-.083c-.296-.001-.591.025-.882.078a6.628 6.628 0 0 0-.842.21c-.6.192-1.031.412-1.292.659l-.028-.018-.278-2.053a7.611 7.611 0 0 1 3.595-.869c2.02 0 3.311.728 3.875 2.184.186.502.277 1.035.268 1.571v3.37c0 .72.254 1.208.763 1.467L93.24 14.76a2.172 2.172 0 0 1-.855-.811Zm-.5-3.839a2.934 2.934 0 0 0-.52-.046h-.375c-1.37 0-2.24.303-2.612.911a1.051 1.051 0 0 0-.167.566c-.004.181.032.36.106.525.078.159.203.29.358.375.322.186.8.279 1.436.279a3.633 3.633 0 0 0 1.78-.455c0-.068-.01-.139-.01-.214l.004-1.941ZM96.453 2.045C96.91 1.32 97.43.636 98.003 0l2 1.57c-.266.328-.516.65-.75.968l-.715 1.012-2.085-1.505Zm2.445 11.439c-.008.347.004.695.036 1.041h-2.36V4.814h2.324v8.67Z"/><path fill="#F8B228" d="m42.156 8.956 2.114-3.661a5.5 5.5 0 0 1 1.91 7.125l-3.661-2.111a.992.992 0 0 1-.363-1.353Z"/><path fill="#2D1D2F" d="m42.253 10.785 3.661 2.114a5.5 5.5 0 0 1-7.125 1.909l2.114-3.66a.99.99 0 0 1 1.35-.363Z"/><path fill="#6AB3E3" d="m38.304 14.533 2.89-5a.191.191 0 0 0-.288-.25 14.621 14.621 0 0 1-4.75 2.616 5.465 5.465 0 0 0 2.148 2.634Z"/><path fill="#E41E26" d="M35.985 11.375a14.111 14.111 0 0 0 7.81-6.351 5.5 5.5 0 0 0-7.81 6.351Z"/></g><defs><clipPath id="a"><path fill="#fff" d="M0 0h100v18.625H0z"/></clipPath></defs></svg>