<svg xmlns="http://www.w3.org/2000/svg" width="188.235" height="64" fill="none" viewBox="0 0 50 17"><g fill="#00297A" clip-path="url(#a)"><path d="M6.287 4.225A6.284 6.284 0 0 0 0 10.512 6.284 6.284 0 0 0 6.287 16.8a6.284 6.284 0 0 0 6.288-6.288 6.284 6.284 0 0 0-6.287-6.287Zm0 9.438a3.153 3.153 0 0 1-3.15-3.15 3.153 3.153 0 0 1 3.15-3.15 3.153 3.153 0 0 1 3.15 3.15 3.153 3.153 0 0 1-3.15 3.15ZM17.34 12.625c0-.5.6-.738.95-.387 1.576 1.6 4.176 4.35 4.188 4.362.038.037.075.1.225.15a.855.855 0 0 0 .275.025h2.838c.512 0 .662-.587.425-.887l-4.7-4.813-.25-.25c-.538-.637-.475-.887.137-1.537l3.725-4.163c.238-.3.088-.875-.437-.875H22.14c-.1 0-.175 0-.25.025-.15.05-.213.1-.25.15-.013.013-2.075 2.237-3.35 3.6a.563.563 0 0 1-.975-.388V.5c0-.362-.3-.5-.538-.5h-2.1c-.362 0-.537.237-.537.45v15.825c0 .363.3.463.55.463h2.1c.325 0 .537-.238.537-.476v-3.637h.013ZM34.486 16.2l-.225-2.1a.499.499 0 0 0-.588-.438 3.15 3.15 0 0 1-3.625-2.938V7.976c0-.337.25-.612.588-.612h2.812c.2 0 .5-.176.5-.538V4.838c0-.388-.25-.588-.475-.588h-2.837a.585.585 0 0 1-.6-.563V.5c0-.2-.15-.5-.538-.5h-2.087c-.263 0-.513.163-.513.487v10.238c.088 3.4 2.875 6.112 6.288 6.112.287 0 .562-.024.837-.062.3-.037.5-.287.463-.575ZM49.638 13.563c-1.776 0-2.05-.638-2.05-3.026V4.775c0-.2-.15-.537-.55-.537h-2.1c-.263 0-.55.212-.55.537v.263a6.207 6.207 0 0 0-3.1-.825A6.284 6.284 0 0 0 35 10.5a6.284 6.284 0 0 0 10.375 4.775c.587.9 1.538 1.5 3.025 1.513.25 0 1.6.05 1.6-.588v-2.237c0-.188-.15-.4-.362-.4Zm-8.338.1a3.153 3.153 0 0 1-3.15-3.15 3.153 3.153 0 0 1 3.15-3.15 3.153 3.153 0 0 1 3.15 3.15c-.013 1.737-1.425 3.15-3.15 3.15Z"/></g><defs><clipPath id="a"><path fill="#fff" d="M0 0h50v16.875H0z"/></clipPath></defs></svg>