<svg xmlns="http://www.w3.org/2000/svg" width="110.345" height="64" fill="none" viewBox="0 0 100 58"><g clip-path="url(#a)"><path fill="#002f34" fill-rule="evenodd" d="M65.477 57.143H51.941V0h13.536zM47.107 28.64c0 13.007-10.546 23.532-23.54 23.532S.007 41.63.007 28.64 10.556 5.107 23.55 5.107s23.559 10.526 23.559 23.534Zm-16.436 0a7.104 7.104 0 0 0-7.113-7.11 7.103 7.103 0 0 0-7.113 7.11 7.105 7.105 0 0 0 7.112 7.108 7.103 7.103 0 0 0 7.114-7.108m69.163-14.286h-8.996l-5.281 5.275-5.282-5.276h-8.998v9.143l5.211 5.204-5.21 5.205v9.02h9.137l5.158-5.151 5.158 5.151h9.138v-9.02l-5.211-5.204 5.211-5.204v-9.143z" clip-rule="evenodd"/></g><defs><clipPath id="a"><path fill="#fff" d="M0 0h100v57.143H0z"/></clipPath></defs></svg>