<svg xmlns="http://www.w3.org/2000/svg" width="110.345" height="64" fill="none" viewBox="0 0 50 29"><g clip-path="url(#a)"><path fill="#002f34" fill-rule="evenodd" d="M32.735 28.571h-6.768V0h6.768zm-9.185-14.25c0 6.503-5.274 11.766-11.77 11.766C5.282 26.087 0 20.815 0 14.32S5.273 2.554 11.77 2.554c6.498 0 11.78 5.262 11.78 11.766Zm-8.218 0a3.55 3.55 0 0 0-3.557-3.555 3.55 3.55 0 0 0-3.557 3.554 3.55 3.55 0 0 0 3.556 3.555 3.55 3.55 0 0 0 3.558-3.555Zm34.581-7.143h-4.498l-2.64 2.637-2.641-2.638h-4.5v4.572l2.606 2.601-2.605 2.603v4.51h4.569l2.579-2.576 2.579 2.576h4.569v-4.51l-2.606-2.602 2.606-2.602V7.178z" clip-rule="evenodd"/></g><defs><clipPath id="a"><path fill="#fff" d="M0 0h50v28.571H0z"/></clipPath></defs></svg>