<svg xmlns="http://www.w3.org/2000/svg" width="64" height="64" fill="none" viewBox="0 0 32 32"><g clip-path="url(#a)"><path fill="#1A1A1A" d="m21.166 13.507 1.78-.64-4.101 3.127-1.578.485z"/><path fill="#8C8C8C" d="m32 16.776-1 .52-13.733-.817 1.578-.485z"/><path fill="#1A1A1A" d="m30.982 18.373-22.078.748 1.781-.639 19.99-.677z"/><path fill="#8C8C8C" d="m8.904 19.12 1.781-.638 3.904-2.972-1.579.484z"/><path fill="#1A1A1A" d="m14.589 15.51-1.579.484L0 15.213l1-.52z"/><path fill="#EEE" d="m1.297 14.188-.313.53 13.594.798-3.922 2.984 20.032-.703.296-.516-13.703-.812 3.875-2.969z"/><path fill="#8C8C8C" d="m1.018 13.615.308.568-.326.51-1 .52z"/><path fill="url(#b)" d="m1.018 13.615.308.568 19.84-.676 1.78-.64"/><path fill="#1A1A1A" d="m30.982 18.373-.308-.568.325-.51 1.001-.52"/><path fill="url(#c)" d="M27.816 18.242a12.6 12.6 0 0 1-2.143 5.127c-3.928 5.514-11.46 6.694-16.791 2.63-3.44-2.622-5.136-6.798-4.849-10.913l-.583.334c-.177 4.181 1.598 8.375 5.1 11.045 5.588 4.259 13.455 3.026 17.572-2.753a13.2 13.2 0 0 0 2.226-5.25z"/><path fill="url(#d)" d="M28.562 16.572c.174-4.18-1.601-8.369-5.101-11.037C17.874 1.276 10.006 2.51 5.889 8.288a13.2 13.2 0 0 0-2.223 5.237l.515.316a12.6 12.6 0 0 1 2.158-5.21c3.928-5.513 11.46-6.694 16.79-2.63 3.462 2.639 5.157 6.85 4.844 10.99z"/><path fill="url(#e)" d="M27.041 18.309c-.677 3.441-2.84 6.53-6.125 8.176-5.588 2.801-12.339.376-15.047-5.405a11.9 11.9 0 0 1-1.101-5.827l-.736-.154a12.7 12.7 0 0 0 1.167 6.317c2.887 6.164 10.084 8.749 16.042 5.762 3.572-1.79 5.901-5.18 6.572-8.938z"/><path fill="url(#f)" d="M27.973 16.99a12.7 12.7 0 0 0-1.16-6.406C23.925 4.421 16.728 1.835 10.77 4.822c-3.597 1.802-5.934 5.23-6.585 9.02l.746.061c.628-3.525 2.813-6.708 6.164-8.388 5.59-2.8 12.34-.376 15.047 5.405a11.9 11.9 0 0 1 1.091 5.977z"/><path fill="url(#g)" d="M27.236 16.898q.033-.445.033-.898c0-6.424-5.053-11.65-11.263-11.65-5.52 0-10.126 4.129-11.082 9.558l.662-.448c1.113-4.885 5.362-8.532 10.42-8.532C21.908 4.928 26.71 9.895 26.71 16q0 .327-.018.654z"/><path fill="url(#h)" d="M26.423 18.551c-1.116 4.88-5.363 8.522-10.417 8.522C10.103 27.073 5.3 22.105 5.3 16q0-.265.012-.527l-.548-.221q-.022.375-.023.748c0 6.424 5.053 11.65 11.264 11.65 5.447 0 10.004-4.02 11.042-9.344z"/></g><defs><linearGradient id="b" x1="1.018" x2="22.945" y1="13.525" y2="13.525" gradientUnits="userSpaceOnUse"><stop stop-color="#8C8C8C"/><stop offset="1" stop-color="#4D4D4D"/></linearGradient><linearGradient id="c" x1="3.438" x2="28.348" y1="22.043" y2="22.043" gradientUnits="userSpaceOnUse"><stop offset=".006" stop-color="#1A1A1A"/><stop offset=".01" stop-color="#282828"/><stop offset=".029" stop-color="#5D5D5D"/><stop offset=".046" stop-color="#888"/><stop offset=".062" stop-color="#A6A6A6"/><stop offset=".075" stop-color="#B9B9B9"/><stop offset=".084" stop-color="#BFBFBF"/><stop offset=".143" stop-color="#999"/><stop offset=".208" stop-color="#777"/><stop offset=".28" stop-color="#5A5A5A"/><stop offset=".359" stop-color="#424242"/><stop offset=".449" stop-color="#303030"/><stop offset=".556" stop-color="#232323"/><stop offset=".696" stop-color="#1C1C1C"/><stop offset="1" stop-color="#1A1A1A"/></linearGradient><linearGradient id="d" x1="3.666" x2="28.574" y1="9.995" y2="9.995" gradientUnits="userSpaceOnUse"><stop stop-color="#E0E0E0"/><stop offset=".116" stop-color="#DBDBDB"/><stop offset=".26" stop-color="#CCC"/><stop offset=".42" stop-color="#B2B2B2"/><stop offset=".59" stop-color="#8F8F8F"/><stop offset=".767" stop-color="#626262"/><stop offset=".843" stop-color="#4D4D4D"/><stop offset="1" stop-color="#1A1A1A"/></linearGradient><linearGradient id="e" x1="3.998" x2="27.813" y1="21.76" y2="21.76" gradientUnits="userSpaceOnUse"><stop stop-color="#ECECEC"/><stop offset=".001" stop-color="#DBDBDB"/><stop offset=".002" stop-color="#D0D0D0"/><stop offset=".003" stop-color="#C9C9C9"/><stop offset=".006" stop-color="#C7C7C7"/><stop offset=".179" stop-color="#C9C9C9"/><stop offset=".28" stop-color="#D2D2D2"/><stop offset=".362" stop-color="#E0E0E0"/><stop offset=".434" stop-color="#F4F4F4"/><stop offset=".466" stop-color="#fff"/><stop offset=".642" stop-color="#FDFDFD"/><stop offset=".734" stop-color="#F5F5F5"/><stop offset=".807" stop-color="#E7E7E7"/><stop offset=".869" stop-color="#D4D4D4"/><stop offset=".925" stop-color="#BCBCBC"/><stop offset=".976" stop-color="#9D9D9D"/><stop offset="1" stop-color="#8C8C8C"/></linearGradient><linearGradient id="f" x1="7.106" x2="28.239" y1="6.524" y2="16.423" gradientUnits="userSpaceOnUse"><stop offset=".006" stop-color="#C7C7C7"/><stop offset=".025" stop-color="#D2D2D2"/><stop offset=".055" stop-color="#DDD"/><stop offset=".09" stop-color="#E0E0E0"/><stop offset=".098" stop-color="#E9E9E9"/><stop offset=".117" stop-color="#F6F6F6"/><stop offset=".142" stop-color="#FDFDFD"/><stop offset=".197" stop-color="#fff"/><stop offset=".714" stop-color="#8C8C8C"/><stop offset="1" stop-color="#8C8C8C"/></linearGradient><linearGradient id="g" x1="27.269" x2="4.924" y1="10.624" y2="10.624" gradientUnits="userSpaceOnUse"><stop stop-color="#E0E0E0"/><stop offset=".001" stop-color="#E0E0E0"/><stop offset=".006" stop-color="#E0E0E0"/><stop offset=".183" stop-color="#C2C2C2"/><stop offset=".57" stop-color="#757575"/><stop offset="1" stop-color="#1A1A1A"/></linearGradient><linearGradient id="h" x1="27.047" x2="4.742" y1="21.451" y2="21.451" gradientUnits="userSpaceOnUse"><stop stop-color="#1A1A1A"/><stop offset=".017" stop-color="#303030"/><stop offset=".061" stop-color="#656565"/><stop offset=".104" stop-color="#929292"/><stop offset=".146" stop-color="#B4B4B4"/><stop offset=".185" stop-color="#CCC"/><stop offset=".221" stop-color="#DBDBDB"/><stop offset=".25" stop-color="#E0E0E0"/><stop offset=".36" stop-color="#DDD"/><stop offset=".467" stop-color="#D1D1D1"/><stop offset=".572" stop-color="#BDBDBD"/><stop offset=".677" stop-color="#A2A2A2"/><stop offset=".781" stop-color="#7E7E7E"/><stop offset=".885" stop-color="#535353"/><stop offset=".987" stop-color="#212121"/><stop offset="1" stop-color="#1A1A1A"/></linearGradient><clipPath id="a"><path fill="#fff" d="M0 0h32v32H0z"/></clipPath></defs></svg>