<svg xmlns="http://www.w3.org/2000/svg" width="278.261" height="64" fill="none" viewBox="0 0 100 23"><g clip-path="url(#a)"><path fill="#04111D" d="M34.335 16.286q-1.545 0-2.84-.692a5.37 5.37 0 0 1-2.043-1.926q-.75-1.25-.749-2.799c.001-1.549.25-1.961.749-2.784a5.37 5.37 0 0 1 2.044-1.926 5.9 5.9 0 0 1 2.839-.692q1.544 0 2.823.692a5.1 5.1 0 0 1 2.029 1.926q.748 1.234.748 2.784t-.748 2.799a5.26 5.26 0 0 1-2.029 1.926q-1.279.692-2.823.692m0-2.347q1.31 0 2.09-.843.795-.843.796-2.227 0-1.4-.796-2.227-.78-.843-2.09-.843-1.326 0-2.122.828-.78.829-.78 2.242 0 1.4.78 2.242.796.828 2.122.828m9.755-4.966a2.86 2.86 0 0 1 1.076-.948q.687-.36 1.607-.361 1.075 0 1.95.527.873.526 1.373 1.504.515.978.515 2.272 0 1.295-.515 2.288a3.75 3.75 0 0 1-1.373 1.52 3.7 3.7 0 0 1-1.95.526q-.906 0-1.607-.36a2.9 2.9 0 0 1-1.076-.934v3.672h-2.668V7.784h2.668zm3.806 2.994q0-.963-.562-1.504a1.82 1.82 0 0 0-1.357-.557q-.795 0-1.357.557-.546.556-.546 1.52c0 .964.182 1.148.546 1.52q.562.556 1.357.556c.795 0 .983-.185 1.357-.557q.562-.57.562-1.535m12.317-.12q0 .36-.047.753h-6.037q.062.782.514 1.203.468.407 1.14.407.997 0 1.388-.813h2.839a3.66 3.66 0 0 1-.796 1.49 3.86 3.86 0 0 1-1.42 1.038q-.857.375-1.918.376-1.28 0-2.278-.526a3.8 3.8 0 0 1-1.56-1.505q-.561-.979-.561-2.287 0-1.31.546-2.288a3.8 3.8 0 0 1 1.56-1.504q.998-.527 2.293-.527 1.263 0 2.246.512a3.7 3.7 0 0 1 1.53 1.46q.56.947.56 2.211Zm-2.73-.677q0-.662-.468-1.053-.469-.392-1.17-.392-.671 0-1.14.377-.451.376-.56 1.068zm9.438-3.476q1.529 0 2.434.963.92.948.92 2.618v4.906h-2.652v-4.56q0-.842-.452-1.309-.453-.466-1.217-.466-.765 0-1.217.466-.452.467-.452 1.31v4.559h-2.668V7.784h2.668v1.114q.405-.556 1.092-.873.686-.33 1.544-.331m9.174 8.592q-1.201 0-2.153-.376-.951-.376-1.529-1.114-.561-.737-.593-1.775h2.84q.061.587.42.903.36.3.937.3.593 0 .936-.255a.89.89 0 0 0 .343-.737.84.84 0 0 0-.28-.647 2.1 2.1 0 0 0-.672-.422q-.39-.165-1.123-.376-1.06-.315-1.731-.632a3.2 3.2 0 0 1-1.155-.933q-.483-.617-.483-1.61 0-1.474 1.107-2.302 1.108-.843 2.886-.843 1.81 0 2.917.843 1.108.827 1.186 2.317h-2.886q-.03-.511-.39-.798-.36-.3-.92-.3-.484 0-.78.255-.297.24-.297.708 0 .51.5.797.498.285 1.56.617 1.06.345 1.715.662.671.316 1.155.918.483.602.483 1.55a2.9 2.9 0 0 1-.483 1.64q-.468.738-1.373 1.174t-2.137.436m13.845-4.439q0 .36-.048.753h-6.037q.063.782.515 1.203.468.407 1.139.407.998 0 1.388-.813h2.84a3.7 3.7 0 0 1-.796 1.49 3.86 3.86 0 0 1-1.42 1.038q-.858.375-1.919.376-1.279 0-2.277-.526a3.8 3.8 0 0 1-1.56-1.505q-.562-.979-.562-2.287 0-1.31.546-2.288a3.8 3.8 0 0 1 1.56-1.504q.999-.527 2.293-.527 1.264 0 2.247.512a3.7 3.7 0 0 1 1.529 1.46q.561.947.561 2.211Zm-2.73-.677q0-.662-.469-1.053-.468-.392-1.17-.392-.67 0-1.139.377-.452.376-.561 1.068zm3.603.797q0-1.293.499-2.272.515-.978 1.388-1.504a3.7 3.7 0 0 1 1.95-.527q.921 0 1.607.361.702.36 1.076.948V7.784h2.668v8.397h-2.668v-1.189a2.83 2.83 0 0 1-1.092.948q-.686.36-1.606.361a3.7 3.7 0 0 1-1.935-.526 3.86 3.86 0 0 1-1.388-1.52q-.5-.993-.5-2.288Zm6.52.016q0-.965-.561-1.52a1.8 1.8 0 0 0-1.342-.557q-.796 0-1.357.557-.546.541-.546 1.505t.546 1.534q.561.557 1.357.557c.796 0 .978-.185 1.342-.557q.561-.555.561-1.52Z"/><path fill="#2081E2" d="M22.779 11.39c0 6.29-5.1 11.389-11.39 11.389C5.1 22.779 0 17.679 0 11.389 0 5.1 5.1 0 11.39 0s11.389 5.1 11.389 11.39"/><path fill="#fff" d="m5.618 11.772.049-.077L8.63 7.06a.101.101 0 0 1 .178.013c.495 1.11.922 2.489.722 3.348-.086.353-.32.832-.583 1.274a2 2 0 0 1-.111.188.1.1 0 0 1-.084.045H5.704a.101.101 0 0 1-.086-.156"/><path fill="#fff" d="M18.823 12.633v.734c0 .042-.026.08-.063.096-.23.098-1.015.459-1.34.913-.834 1.16-1.47 2.818-2.894 2.818H8.59a3.815 3.815 0 0 1-3.809-3.822v-.068c0-.056.046-.102.102-.102h3.31c.065 0 .113.061.107.125a1.13 1.13 0 0 0 .118.636c.197.399.604.648 1.044.648H11.1v-1.279H9.48a.104.104 0 0 1-.084-.164l.059-.086c.153-.218.372-.556.59-.941.148-.26.292-.537.408-.816q.035-.076.06-.152.051-.132.089-.255c.023-.07.042-.144.06-.213q.08-.355.079-.747a4 4 0 0 0-.014-.31 4 4 0 0 0-.033-.333 4 4 0 0 0-.046-.297 5 5 0 0 0-.093-.445l-.013-.056c-.028-.102-.051-.2-.084-.3-.093-.32-.2-.632-.312-.923q-.062-.173-.134-.338-.107-.25-.204-.464l-.089-.186-.097-.203c-.023-.05-.05-.097-.069-.144l-.2-.37a.065.065 0 0 1 .074-.095l1.252.34h.008l.165.046.181.052.067.019v-.745c0-.359.288-.65.644-.65.178 0 .34.072.455.19.116.119.188.28.188.46v1.105l.134.037q.015.006.03.016l.14.105c.046.037.096.083.157.13a10 10 0 0 1 .543.477c.204.19.432.412.65.658q.09.103.181.213c.061.075.125.149.181.222.074.099.154.2.223.307.033.05.07.102.102.152.089.135.167.274.242.413.031.064.064.135.092.204q.126.28.191.565a1 1 0 0 1 .027.125v.01a1 1 0 0 1 .023.176 1.9 1.9 0 0 1-.101.829 3.3 3.3 0 0 1-.344.719c-.032.055-.07.115-.107.171-.04.06-.083.116-.12.171-.052.07-.107.144-.163.21a8 8 0 0 1-.39.463 2 2 0 0 1-.148.161q-.077.084-.149.154-.117.115-.199.19l-.129.117a.1.1 0 0 1-.069.026h-.997v1.28h1.255c.28 0 .547-.1.763-.283.073-.064.395-.343.776-.763a.1.1 0 0 1 .048-.03l3.464-1c.065-.02.13.03.13.098Z"/></g><defs><clipPath id="a"><path fill="#fff" d="M0 0h100v22.779H0z"/></clipPath></defs></svg>