<svg xmlns="http://www.w3.org/2000/svg" width="64" height="64" fill="none" viewBox="0 0 50 50"><g clip-path="url(#a)"><path fill="#2081E2" d="M50 25c0 13.806-11.194 25-25 25S0 38.806 0 25 11.194 0 25 0c13.81 0 25 11.194 25 25"/><path fill="#fff" d="m12.333 25.84.107-.17 6.504-10.173a.222.222 0 0 1 .39.028c1.087 2.435 2.024 5.463 1.585 7.348-.187.776-.701 1.827-1.279 2.797a5 5 0 0 1-.244.414.22.22 0 0 1-.185.098h-6.688a.222.222 0 0 1-.19-.342"/><path fill="#fff" d="M41.322 27.73v1.611a.23.23 0 0 1-.139.21c-.503.216-2.226 1.007-2.943 2.004-1.829 2.545-3.226 6.185-6.35 6.185H18.86c-4.618 0-8.36-3.755-8.36-8.389v-.149c0-.123.1-.223.223-.223h7.264c.144 0 .25.133.237.275-.052.472.035.955.259 1.394a2.56 2.56 0 0 0 2.291 1.423h3.596v-2.807h-3.555a.229.229 0 0 1-.185-.36l.129-.19c.336-.477.816-1.22 1.294-2.065.326-.57.642-1.179.897-1.79.051-.11.092-.224.133-.334.07-.195.142-.378.193-.56.051-.154.092-.316.133-.468a7.2 7.2 0 0 0 .172-1.638c0-.224-.01-.457-.03-.68a9 9 0 0 0-.072-.733 8 8 0 0 0-.1-.652c-.052-.326-.124-.65-.206-.976l-.028-.123c-.062-.224-.113-.437-.185-.66a25 25 0 0 0-.683-2.025c-.09-.254-.193-.498-.296-.742-.151-.367-.305-.701-.447-1.017a14 14 0 0 1-.195-.409c-.07-.151-.141-.303-.213-.446-.051-.11-.11-.214-.152-.316l-.439-.812c-.061-.11.041-.242.162-.208l2.748.745h.008l.01.002.363.1.398.114.146.04v-1.633A1.42 1.42 0 0 1 25.783 10c.39 0 .745.16.999.419.254.26.413.614.413 1.01v2.424l.293.082a.2.2 0 0 1 .067.033q.109.083.306.232c.102.082.213.182.346.285.265.213.58.488.928.804q.14.12.264.244c.447.416.948.904 1.426 1.443q.198.227.398.468c.133.164.275.326.398.488.162.215.336.439.488.673.072.11.154.223.223.333.196.296.368.602.532.907.07.141.141.296.203.447.182.408.326.824.419 1.24.028.09.049.188.059.276v.02c.03.123.04.254.051.388a4.15 4.15 0 0 1-.223 1.818c-.062.175-.124.357-.203.53a7 7 0 0 1-.553 1.047 6 6 0 0 1-.233.378c-.09.131-.183.254-.265.375a8 8 0 0 1-.357.46c-.11.151-.223.303-.347.436a17 17 0 0 1-.508.581c-.103.12-.213.244-.326.354-.11.124-.224.234-.327.337a13 13 0 0 1-.436.416l-.283.26a.23.23 0 0 1-.151.056h-2.189v2.807h2.754c.616 0 1.202-.218 1.674-.619.162-.141.869-.752 1.703-1.674a.2.2 0 0 1 .106-.065l7.605-2.198a.224.224 0 0 1 .285.215"/></g><defs><clipPath id="a"><path fill="#fff" d="M0 0h50v50H0z"/></clipPath></defs></svg>