<svg xmlns="http://www.w3.org/2000/svg" width="278.261" height="64" fill="none" viewBox="0 0 100 23"><g clip-path="url(#a)"><path fill="#04111D" d="M34.335 16.286c-1.03 0-1.976-.23-2.84-.692a5.37 5.37 0 0 1-2.043-1.926c-.5-.833-.749-1.766-.749-2.799s.25-1.961.749-2.784a5.37 5.37 0 0 1 2.044-1.926 5.927 5.927 0 0 1 2.839-.692c1.03 0 1.97.23 2.823.692a5.115 5.115 0 0 1 2.029 1.926c.499.823.748 1.75.748 2.784 0 1.033-.25 1.966-.748 2.799a5.256 5.256 0 0 1-2.029 1.926c-.852.461-1.794.692-2.823.692Zm0-2.347c.873 0 1.57-.281 2.09-.843.53-.562.796-1.304.796-2.227 0-.933-.265-1.675-.796-2.227-.52-.562-1.217-.843-2.09-.843-.884 0-1.591.276-2.122.828-.52.552-.78 1.3-.78 2.242 0 .933.26 1.68.78 2.242.53.552 1.238.828 2.122.828ZM44.09 8.973c.26-.391.618-.707 1.076-.948.458-.24.993-.361 1.607-.361.717 0 1.367.175 1.95.527.582.35 1.04.852 1.373 1.504.343.652.515 1.41.515 2.272 0 .863-.172 1.626-.515 2.288a3.749 3.749 0 0 1-1.373 1.52 3.705 3.705 0 0 1-1.95.526c-.604 0-1.14-.12-1.607-.36a2.911 2.911 0 0 1-1.076-.934v3.672h-2.668V7.784h2.668v1.19Zm3.806 2.994c0-.642-.187-1.143-.562-1.504-.364-.371-.816-.557-1.357-.557-.53 0-.983.186-1.357.557-.364.37-.546.878-.546 1.52s.182 1.148.546 1.52c.374.37.827.556 1.357.556s.983-.185 1.357-.557c.375-.38.562-.892.562-1.535ZM60.213 11.847c0 .24-.016.492-.047.753h-6.037c.041.521.213.923.514 1.203.312.271.692.407 1.14.407.665 0 1.127-.271 1.388-.813h2.839a3.662 3.662 0 0 1-.796 1.49 3.861 3.861 0 0 1-1.42 1.038c-.571.25-1.211.376-1.918.376-.853 0-1.612-.175-2.278-.526a3.819 3.819 0 0 1-1.56-1.505c-.374-.652-.561-1.415-.561-2.287 0-.873.182-1.636.546-2.288a3.817 3.817 0 0 1 1.56-1.504c.665-.352 1.43-.527 2.293-.527.842 0 1.591.17 2.246.512a3.696 3.696 0 0 1 1.53 1.46c.373.631.56 1.369.56 2.211Zm-2.73-.677c0-.441-.156-.793-.468-1.053-.313-.261-.702-.392-1.17-.392-.448 0-.827.126-1.14.377-.3.25-.488.607-.56 1.068h3.338ZM66.921 7.694c1.02 0 1.83.321 2.434.963.613.632.92 1.505.92 2.618v4.906h-2.652v-4.56c0-.561-.15-.998-.452-1.309-.302-.31-.707-.466-1.217-.466-.51 0-.915.155-1.217.466-.301.311-.452.748-.452 1.31v4.559h-2.668V7.784h2.668v1.114c.27-.371.634-.662 1.092-.873.457-.22.972-.331 1.544-.331ZM76.095 16.286c-.8 0-1.519-.125-2.153-.376-.634-.25-1.144-.622-1.529-1.114-.374-.491-.572-1.083-.593-1.775h2.84c.041.391.181.692.42.903.24.2.552.3.937.3.395 0 .707-.085.936-.255a.89.89 0 0 0 .343-.737.838.838 0 0 0-.28-.647c-.178-.171-.401-.312-.672-.422-.26-.11-.634-.236-1.123-.376-.707-.21-1.284-.421-1.731-.632a3.177 3.177 0 0 1-1.155-.933c-.322-.411-.483-.948-.483-1.61 0-.983.369-1.75 1.107-2.302.739-.562 1.7-.843 2.886-.843 1.207 0 2.179.28 2.917.843.739.551 1.134 1.324 1.186 2.317h-2.886c-.02-.341-.15-.607-.39-.798-.24-.2-.546-.3-.92-.3-.323 0-.583.085-.78.255-.198.16-.297.397-.297.708 0 .34.166.606.5.797.332.19.852.396 1.56.617.707.23 1.279.451 1.715.662.448.21.832.517 1.155.918.322.401.483.918.483 1.55 0 .602-.16 1.149-.483 1.64-.312.492-.77.883-1.373 1.174-.603.29-1.316.436-2.137.436ZM89.94 11.847c0 .24-.016.492-.048.753h-6.037c.042.521.213.923.515 1.203.312.271.692.407 1.139.407.665 0 1.128-.271 1.388-.813h2.84a3.664 3.664 0 0 1-.796 1.49 3.861 3.861 0 0 1-1.42 1.038c-.572.25-1.212.376-1.919.376-.852 0-1.612-.175-2.277-.526a3.819 3.819 0 0 1-1.56-1.505c-.375-.652-.562-1.415-.562-2.287 0-.873.182-1.636.546-2.288a3.817 3.817 0 0 1 1.56-1.504c.666-.352 1.43-.527 2.293-.527.843 0 1.592.17 2.247.512a3.696 3.696 0 0 1 1.529 1.46c.374.631.561 1.369.561 2.211Zm-2.73-.677c0-.441-.157-.793-.469-1.053-.312-.261-.702-.392-1.17-.392-.447 0-.827.126-1.139.377-.301.25-.489.607-.561 1.068h3.338ZM90.813 11.967c0-.862.166-1.62.499-2.272.343-.652.806-1.153 1.388-1.504a3.704 3.704 0 0 1 1.95-.527c.614 0 1.15.12 1.607.361.468.24.827.557 1.076.948V7.784h2.668v8.397h-2.668v-1.189c-.26.391-.623.707-1.092.948-.457.24-.993.361-1.606.361a3.675 3.675 0 0 1-1.935-.526 3.856 3.856 0 0 1-1.388-1.52c-.333-.662-.5-1.425-.5-2.288Zm6.52.016c0-.643-.187-1.15-.561-1.52a1.806 1.806 0 0 0-1.342-.557c-.53 0-.983.186-1.357.557-.364.36-.546.863-.546 1.505 0 .642.182 1.153.546 1.534.374.372.827.557 1.357.557s.978-.185 1.342-.557c.374-.37.561-.877.561-1.52Z"/><path fill="#2081E2" d="M22.779 11.39c0 6.29-5.1 11.389-11.39 11.389C5.1 22.779 0 17.679 0 11.389 0 5.1 5.1 0 11.39 0c6.29 0 11.389 5.1 11.389 11.39Z"/><path fill="#fff" d="m5.618 11.772.049-.077L8.63 7.06a.101.101 0 0 1 .178.013c.495 1.11.922 2.489.722 3.348-.086.353-.32.832-.583 1.274a2.353 2.353 0 0 1-.111.188.1.1 0 0 1-.084.045H5.704a.101.101 0 0 1-.086-.156Z"/><path fill="#fff" d="M18.823 12.633v.734c0 .042-.026.08-.063.096-.23.098-1.015.459-1.34.913-.834 1.16-1.47 2.818-2.894 2.818H8.59a3.815 3.815 0 0 1-3.809-3.822v-.068c0-.056.046-.102.102-.102h3.31c.065 0 .113.061.107.125a1.13 1.13 0 0 0 .118.636c.197.399.604.648 1.044.648H11.1v-1.279H9.48a.104.104 0 0 1-.084-.164l.059-.086c.153-.218.372-.556.59-.941.148-.26.292-.537.408-.816.024-.05.042-.102.06-.152.033-.089.065-.172.089-.255.023-.07.042-.144.06-.213.055-.236.079-.487.079-.747 0-.101-.005-.208-.014-.31a4.004 4.004 0 0 0-.033-.333 3.481 3.481 0 0 0-.046-.297 4.994 4.994 0 0 0-.093-.445l-.013-.056c-.028-.102-.051-.2-.084-.3-.093-.32-.2-.632-.312-.923-.04-.116-.087-.227-.134-.338-.07-.168-.14-.32-.204-.464a6.48 6.48 0 0 1-.089-.186 6.562 6.562 0 0 0-.097-.203c-.023-.05-.05-.097-.069-.144l-.2-.37a.065.065 0 0 1 .074-.095l1.252.34h.008l.165.046.181.052.067.019v-.745c0-.359.288-.65.644-.65.178 0 .34.072.455.19.116.119.188.28.188.46v1.105l.134.037c.01.004.02.009.03.016l.14.105c.046.037.096.083.157.13a9.576 9.576 0 0 1 .543.477c.204.19.432.412.65.658.06.069.12.14.181.213.061.075.125.149.181.222.074.099.154.2.223.307.033.05.07.102.102.152.089.135.167.274.242.413.031.064.064.135.092.204.083.186.149.375.191.565a.714.714 0 0 1 .027.125v.01c.014.056.019.115.023.176a1.888 1.888 0 0 1-.101.829 3.278 3.278 0 0 1-.344.719c-.032.055-.07.115-.107.171-.04.06-.083.116-.12.171-.052.07-.107.144-.163.21a7.628 7.628 0 0 1-.39.463 2.419 2.419 0 0 1-.148.161c-.05.056-.102.107-.149.154-.078.078-.144.139-.199.19l-.129.117a.105.105 0 0 1-.069.026h-.997v1.28h1.255c.28 0 .547-.1.763-.283.073-.064.395-.343.776-.763a.097.097 0 0 1 .048-.03l3.464-1c.065-.02.13.03.13.098Z"/></g><defs><clipPath id="a"><path fill="#fff" d="M0 0h100v22.779H0z"/></clipPath></defs></svg>