<svg xmlns="http://www.w3.org/2000/svg" width="266.667" height="64" fill="none" viewBox="0 0 100 24"><g clip-path="url(#a)"><path fill="#3BE081" d="M7.922 12.627v2.768a8.1 8.1 0 0 0 5.631-2.264 7.62 7.62 0 0 0 2.337-5.459h-2.857a4.9 4.9 0 0 1-1.498 3.502 5.2 5.2 0 0 1-3.613 1.453"/><path fill="#0037FF" d="M7.923 20.253a5.16 5.16 0 0 1-3.587-1.44 4.84 4.84 0 0 1-1.486-3.477c0-1.305.534-2.555 1.486-3.477a5.16 5.16 0 0 1 3.587-1.44V7.67a8.1 8.1 0 0 0-3.029.58 7.9 7.9 0 0 0-2.569 1.659 7.7 7.7 0 0 0-1.718 2.485 7.47 7.47 0 0 0-.01 5.87c.397.93.979 1.777 1.712 2.49a7.9 7.9 0 0 0 2.564 1.665c.96.387 1.988.587 3.027.588h.023z"/><path fill="#0CF" d="M7.922 20.253v2.748a8.04 8.04 0 0 0 5.594-2.246 7.55 7.55 0 0 0 2.317-5.422h-2.838a4.85 4.85 0 0 1-1.487 3.477 5.16 5.16 0 0 1-3.586 1.443"/><path fill="#861DFF" d="M7.922 4.92v2.75a8.04 8.04 0 0 0 5.594-2.246A7.55 7.55 0 0 0 15.833 0h-2.838a4.85 4.85 0 0 1-1.487 3.477A5.16 5.16 0 0 1 7.922 4.92"/><path fill="#FF8110" d="M15.883 4.92v2.75a8.04 8.04 0 0 0 5.594-2.246A7.55 7.55 0 0 0 23.794 0h-2.837a4.85 4.85 0 0 1-1.487 3.478 5.16 5.16 0 0 1-3.587 1.442"/><path fill="#000" d="M37 11.482h1.461l.344.749q.276-.244.602-.417.34-.168.704-.283c.3-.092.614-.137.929-.133a3.5 3.5 0 0 1 1.41.29c.446.192.846.47 1.178.815.345.362.618.783.807 1.24.4 1.008.4 2.123 0 3.13a4 4 0 0 1-.807 1.242 3.6 3.6 0 0 1-1.177.817 3.5 3.5 0 0 1-1.41.291 3 3 0 0 1-.868-.116 5 5 0 0 1-.646-.25 3 3 0 0 1-.55-.383v3.331H37V11.483Zm3.781 5.915a1.93 1.93 0 0 0 1.41-.567q.57-.566.568-1.516a2 2 0 0 0-.127-.814c-.097-.26-.247-.5-.441-.703a2 2 0 0 0-.646-.418 2.05 2.05 0 0 0-1.524 0 2 2 0 0 0-.646.418q-.567.568-.567 1.517 0 .948.567 1.516c.181.185.4.33.643.428s.504.145.767.139zm8.681 1.833a2.9 2.9 0 0 1-1.075-.191 2.35 2.35 0 0 1-.843-.559 2.6 2.6 0 0 1-.549-.867 3 3 0 0 1-.198-1.133v-3.249h-1.203V11.65h.515q.945 0 .946-.917V9.654h1.72v1.834h1.717v1.748h-1.718v3.166a.98.98 0 0 0 .245.733 1.03 1.03 0 0 0 .708.35 1 1 0 0 0 .161 0q.112.006.223 0 .083-.007.162-.025a.7.7 0 0 0 .137-.05v1.666q-.133.055-.274.083a2.5 2.5 0 0 1-.674.07Zm3.696-8.665a1.17 1.17 0 0 1-.735-.236 1.1 1.1 0 0 1-.412-.635 1.08 1.08 0 0 1 .1-.745c.122-.23.322-.41.566-.512a1.18 1.18 0 0 1 .773-.046c.256.073.477.229.626.442a1.08 1.08 0 0 1-.137 1.407 1.07 1.07 0 0 1-.781.325m-1.032.918h1.977v7.668h-1.977zm3.866 0h1.461l.344.748q.243-.236.533-.417a3.7 3.7 0 0 1 .588-.283c.247-.091.509-.136.773-.133.35-.009.7.045 1.032.157q.372.131.704.342c.197.135.367.304.499.5q.284-.29.636-.5.353-.204.74-.342c.302-.108.622-.16.944-.157q1.289.001 2.063.8t.773 2.366v4.582h-1.979v-4.415a1.52 1.52 0 0 0-.387-1.095 1.216 1.216 0 0 0-1.805 0 1.5 1.5 0 0 0-.386 1.096v4.415h-1.978v-4.415c.023-.4-.116-.793-.386-1.096a1.2 1.2 0 0 0-.367-.278 1.22 1.22 0 0 0-1.317.16 1.52 1.52 0 0 0-.509 1.214v4.415h-1.976zm13.928-.918a1.17 1.17 0 0 1-.737-.236 1.1 1.1 0 0 1-.414-.638 1.08 1.08 0 0 1 .1-.747 1.14 1.14 0 0 1 .568-.514 1.18 1.18 0 0 1 .775-.045c.256.072.479.23.628.443a1.085 1.085 0 0 1-.138 1.412 1.1 1.1 0 0 1-.782.326Zm-1.031.917h1.98v7.669h-1.98zm3.431 6.081 3.438-4.248H72.32v-1.832h5.93v1.582l-3.433 4.257h3.608v1.832H72.32zm11.094 1.667a3.8 3.8 0 0 1-1.521-.314 4.06 4.06 0 0 1-2.115-2.083 3.82 3.82 0 0 1 0-3.048 4.06 4.06 0 0 1 2.115-2.083 3.9 3.9 0 0 1 2.982-.025c.452.186.861.458 1.203.8.353.358.63.78.817 1.24.205.507.307 1.048.3 1.592q0 .13-.016.258l-.035.243c-.012.078-.023.172-.034.249h-5.5c.084.369.29.701.583.95.344.27.779.407 1.221.383q.338.007.662-.083.241-.073.455-.2.196-.125.344-.3h2.064c-.115.308-.274.6-.474.866-.216.297-.477.56-.773.783a4.2 4.2 0 0 1-1.032.559 3.6 3.6 0 0 1-1.246.212Zm1.89-4.498a1.85 1.85 0 0 0-.661-1.093 1.96 1.96 0 0 0-1.229-.431c-.45 0-.884.152-1.23.43a1.86 1.86 0 0 0-.66 1.094zm3.352-6.082h1.977v10.496h-1.977zm4.977 13.246q-.136 0-.267-.01a2 2 0 0 1-.215-.024 1 1 0 0 1-.205-.05v-1.583c.359.023.715-.077 1.005-.283.239-.192.424-.438.542-.717l.171-.416-3.008-7.33h2.064l1.976 4.997 1.811-4.998h2.064q-.843 2.1-1.53 3.799-.294.733-.577 1.432c-.189.464-.356.892-.507 1.275q-.224.576-.378.958c-.103.255-.161.405-.189.45a10 10 0 0 1-.576 1.157 3.4 3.4 0 0 1-.61.775 2 2 0 0 1-.704.434 2.6 2.6 0 0 1-.867.134M29.68 7.67a6.1 6.1 0 0 0-3.312.974 5.8 5.8 0 0 0-2.195 2.593 5.6 5.6 0 0 0-.34 3.339c.23 1.12.798 2.15 1.632 2.958a6 6 0 0 0 3.052 1.581 6.14 6.14 0 0 0 3.444-.328 5.93 5.93 0 0 0 2.675-2.129 5.62 5.62 0 0 0 .551-5.421 5.8 5.8 0 0 0-1.292-1.875 6 6 0 0 0-1.934-1.252 6.1 6.1 0 0 0-2.281-.44m0 9.547a4 4 0 0 1-2.173-.612 3.8 3.8 0 0 1-1.455-1.68 3.67 3.67 0 0 1-.246-2.18 3.74 3.74 0 0 1 1.045-1.944c.54-.534 1.23-.9 1.984-1.053a4 4 0 0 1 2.254.193c.715.28 1.328.758 1.762 1.375.434.618.67 1.346.676 2.093v.044a3.7 3.7 0 0 1-1.12 2.655 3.94 3.94 0 0 1-2.727 1.113z"/></g><defs><clipPath id="a"><path fill="#fff" d="M0 0h100v23.457H0z"/></clipPath></defs></svg>