<svg xmlns="http://www.w3.org/2000/svg" width="65.306" height="64" fill="none" viewBox="0 0 50 49"><g clip-path="url(#a)"><path fill="#3be081" d="M16.453 26.225v5.75c4.387-.005 8.594-1.697 11.696-4.704s4.847-7.084 4.853-11.337H27.07c-.004 2.728-1.123 5.344-3.114 7.273-1.99 1.93-4.688 3.015-7.503 3.018"/><path fill="#0037ff" d="M16.455 42.064c-2.795 0-5.475-1.076-7.45-2.991s-3.086-4.513-3.086-7.222 1.11-5.306 3.086-7.221 4.655-2.992 7.45-2.992V15.93a16.9 16.9 0 0 0-6.29 1.204 16.5 16.5 0 0 0-5.336 3.445 15.9 15.9 0 0 0-3.57 5.162A15.5 15.5 0 0 0 0 31.835a15.5 15.5 0 0 0 1.242 6.097 15.9 15.9 0 0 0 3.554 5.172 16.5 16.5 0 0 0 5.325 3.46 16.9 16.9 0 0 0 6.287 1.22h.047z"/><path fill="#0cf" d="M16.453 42.064v5.708c4.358 0 8.537-1.678 11.619-4.665s4.812-7.038 4.812-11.262H26.99c-.002 2.708-1.112 5.306-3.087 7.222s-4.654 2.994-7.449 2.997Z"/><path fill="#861dff" d="M16.453 10.22v5.707c4.358 0 8.537-1.678 11.619-4.665S32.884 4.224 32.884 0H26.99c-.002 2.709-1.112 5.306-3.087 7.222s-4.654 2.994-7.449 2.997Z"/><path fill="#ff8110" d="M32.984 10.22v5.707c4.358 0 8.537-1.678 11.619-4.665S49.415 4.224 49.415 0h-5.891c-.002 2.71-1.113 5.307-3.089 7.223s-4.656 2.994-7.45 2.996Z"/></g><defs><clipPath id="a"><path fill="#fff" d="M0 0h50v48.718H0z"/></clipPath></defs></svg>