<svg xmlns="http://www.w3.org/2000/svg" width="206.452" height="64" fill="none" viewBox="0 0 100 31"><g fill="#000" clip-path="url(#a)"><path d="M15.238 27.429v.743a1.905 1.905 0 0 1-2.838 1.66L.97 23.403a1.9 1.9 0 0 1-.97-1.66V8.733c0-.688.371-1.323.97-1.66L12.4.644a1.905 1.905 0 0 1 2.838 1.66v.744l1.358-.408a1.905 1.905 0 0 1 2.452 1.825v.773l1.668-.208a1.905 1.905 0 0 1 2.141 1.89v16.637a1.905 1.905 0 0 1-2.14 1.89l-1.67-.209v.773a1.905 1.905 0 0 1-2.451 1.825zm0-1.99 1.905.572V4.465l-1.905.571V25.44Zm3.81-18.281v16.16l1.904.239V6.92zM0 21.176V9.3zM1.905 8.733v13.01l11.428 6.429V2.304zM3.81 10l1.904-.952v12.38l-1.904-.952zm33.17 13.085q-1.708 0-2.961-.752a5.1 5.1 0 0 1-1.945-2.104q-.683-1.351-.683-3.16 0-1.807.683-3.167a5.1 5.1 0 0 1 1.945-2.111q1.253-.753 2.962-.752 1.71 0 2.962.752a5.05 5.05 0 0 1 1.937 2.111q.69 1.36.691 3.167 0 1.809-.69 3.16a5.06 5.06 0 0 1-1.938 2.104q-1.253.752-2.962.752Zm.016-2.203q.927 0 1.55-.509.623-.516.926-1.382.312-.865.312-1.93 0-1.07-.312-1.936-.303-.873-.926-1.39t-1.55-.516q-.95 0-1.58.516-.622.516-.934 1.39-.304.866-.304 1.937 0 1.064.304 1.929.312.866.934 1.382.63.51 1.58.51Zm14.917-2.931v-6.76h2.75v11.666h-2.666v-2.073h-.122a3.5 3.5 0 0 1-1.299 1.602q-.896.623-2.21.623-1.147 0-2.028-.509-.873-.516-1.367-1.496-.495-.988-.494-2.385V11.19h2.75v7.002q0 1.11.607 1.763.608.653 1.595.653a2.5 2.5 0 0 0 1.178-.296q.569-.297.934-.881.372-.593.372-1.481Zm10.975-6.76v2.126h-6.707V11.19h6.707Zm-5.05-2.796h2.749v10.953q0 .555.167.85a.9.9 0 0 0 .456.396q.28.105.622.106.259 0 .471-.038.221-.038.334-.068l.464 2.15a7 7 0 0 1-.63.166 5.2 5.2 0 0 1-.988.107q-1.034.03-1.86-.312a2.9 2.9 0 0 1-1.315-1.078q-.479-.73-.47-1.823zm9.922-1.093v15.555h-2.75V7.302zm2.4 15.555V11.191h2.75v11.666zm1.382-13.322q-.653 0-1.124-.433a1.4 1.4 0 0 1-.471-1.056q0-.623.471-1.056.471-.44 1.124-.44.66 0 1.124.44.471.433.471 1.056a1.4 1.4 0 0 1-.47 1.056 1.59 1.59 0 0 1-1.125.433m6.516 6.486v6.836h-2.75V11.191h2.629v1.982h.137a3.34 3.34 0 0 1 1.283-1.557q.889-.577 2.195-.577 1.208 0 2.104.516a3.5 3.5 0 0 1 1.398 1.496q.501.98.494 2.378v7.428h-2.75v-7.003q0-1.17-.608-1.83-.6-.661-1.663-.661-.721 0-1.284.319-.554.311-.873.904-.312.592-.312 1.435m15.022 7.064q-1.755 0-3.03-.73a4.94 4.94 0 0 1-1.953-2.08q-.683-1.352-.683-3.183 0-1.8.683-3.16.691-1.367 1.93-2.126 1.238-.768 2.909-.767 1.078 0 2.035.349a4.6 4.6 0 0 1 1.701 1.063q.745.722 1.17 1.838.426 1.109.426 2.644v.843h-9.563v-1.854h6.927a2.96 2.96 0 0 0-.341-1.405 2.5 2.5 0 0 0-.935-.98q-.593-.357-1.382-.357-.844 0-1.482.41a2.8 2.8 0 0 0-.995 1.064 3.06 3.06 0 0 0-.357 1.436v1.617q0 1.018.373 1.747.372.721 1.04 1.11.668.38 1.565.379.6 0 1.086-.167.486-.174.843-.509.357-.334.54-.828l2.566.289a4 4 0 0 1-.926 1.777q-.676.752-1.732 1.17-1.056.41-2.415.41"/></g><defs><clipPath id="a"><path fill="#fff" d="M0 0h100v30.476H0z"/></clipPath></defs></svg>