<svg xmlns="http://www.w3.org/2000/svg" width="65.306" height="64" fill="none" viewBox="0 0 50 49"><path fill="#5952ff" fill-rule="evenodd" d="M22.19 0c7.642 0 19.188 2.353 24.563 7.75 1.362 1.368 3.144 4.048 3.144 7.973 0 6.979-5.6 17.685-11.784 23.895-3.196 3.21-8.281 7.405-15.121 7.405-6.687 0-11.794-4.56-13.272-6.045C4.057 35.292 0 26.66 0 18.612 0 13.533 1.442 9.092 5.12 5.4 8.527 1.98 14.397 0 22.19 0m9.458 27.83c2.58-2.592 3.275-5.783 3.275-7.54 0-1.273-.333-3.142-1.92-4.733-2.433-2.444-5.128-3.134-8.06-3.134-3.713 0-6.208 1.179-7.87 2.849-1.303 1.308-2.43 3.32-2.43 6.178s1.517 5.617 3.17 7.275c1.527 1.533 3.927 2.668 6.344 2.668 2.416 0 4.911-.971 7.491-3.563" clip-rule="evenodd"/></svg>