<svg xmlns="http://www.w3.org/2000/svg" width="320" height="64" fill="none" viewBox="0 0 100 20"><path fill="#5952ff" fill-rule="evenodd" d="M98.919 8.745q.88.927.88 2.51v5.57h-2.176v-4.936q0-.934-.53-1.476-.532-.542-1.446-.542-1.08.017-1.71.734-.631.717-.631 1.834v4.386h-2.16V4.45h2.16v5.154q.913-1.751 3.205-1.785 1.527 0 2.408.925Zm-12.567.993q-1.08 0-1.752.733-.672.735-.673 1.902 0 1.2.674 1.934.672.733 1.752.733 1.594 0 2.391-1.05l1.345 1.117a3.93 3.93 0 0 1-1.578 1.334q-.98.467-2.275.467-1.312 0-2.333-.567a4 4 0 0 1-1.586-1.593q-.565-1.025-.565-2.359 0-1.35.573-2.384a4.03 4.03 0 0 1 1.594-1.601q1.021-.567 2.35-.567 1.212 0 2.168.425a3.9 3.9 0 0 1 1.553 1.209l-1.313 1.25q-.897-.983-2.324-.983zm-5.974-1.835v8.922h-2.16v-1.418a3.26 3.26 0 0 1-1.237 1.126q-.756.393-1.735.392-1.261 0-2.217-.576a3.9 3.9 0 0 1-1.487-1.617q-.53-1.043-.53-2.393 0-1.334.53-2.36a3.9 3.9 0 0 1 1.487-1.592q.955-.567 2.2-.567.98 0 1.744.392c.507.26.936.647 1.246 1.125V7.904h2.159Zm-2.94 6.546q.681-.66.78-1.743v-.633q-.099-1.085-.78-1.743-.681-.66-1.727-.659-1.113 0-1.81.759t-.714 1.96q.016 1.2.714 1.959.697.758 1.81.758 1.046 0 1.727-.658m-8.595-5.395q1.071 1.216 1.071 3.419 0 .433-.017.65h-6.56q.216.95.889 1.492t1.653.542a3.4 3.4 0 0 0 1.303-.258c.41-.169.781-.422 1.088-.742l1.162 1.217a4.5 4.5 0 0 1-1.62 1.133q-.953.401-2.117.401-1.36 0-2.399-.567a3.95 3.95 0 0 1-1.603-1.593q-.564-1.025-.564-2.359c0-1.334.19-1.678.573-2.368a4.07 4.07 0 0 1 1.602-1.609q1.03-.575 2.341-.575 2.127 0 3.198 1.217m-.905 2.618q-.035-.984-.648-1.567-.615-.585-1.627-.584-.947 0-1.587.576-.64.574-.788 1.575zm-9.155-3.377q.771-.459 1.802-.475v2.101q-1.38-.084-2.201.642c-.821.726-.822 1.137-.822 1.959v4.303h-2.159V7.903h2.159v1.718q.449-.867 1.22-1.326Zm-4.997 7.978q-1.063.651-2.225.651-1.146 0-1.877-.675-.73-.676-.73-1.993V5.819l2.141-.256V8.27h2.541v1.585h-2.54v4.018q0 .618.232.876t.697.258q.499 0 1.262-.367l.499 1.634Zm-8.833-8.37h2.142v5.001c0 2.919-2.029 4.004-4.088 4.004s-4.088-1.085-4.088-4.004v-5h2.143v5.077c0 1.119.831 2.026 1.945 2.026s1.946-.906 1.946-2.026zM34.481 5.785a5.83 5.83 0 0 1 3.047 5.187q0 1.667-.813 3.043a5.9 5.9 0 0 1-2.234 2.176q-1.42.8-3.147.8t-3.147-.8a5.9 5.9 0 0 1-2.234-2.176 5.87 5.87 0 0 1-.814-3.043 5.82 5.82 0 0 1 3.047-5.187q1.42-.783 3.147-.783 1.728 0 3.148.783M29.39 7.53c-.6.34-1.1.836-1.445 1.433a3.9 3.9 0 0 0-.531 2.01 3.9 3.9 0 0 0 .54 2.017c.348.6.846 1.1 1.445 1.451a3.8 3.8 0 0 0 1.968.533 3.73 3.73 0 0 0 1.943-.533 4 4 0 0 0 1.943-3.468 3.97 3.97 0 0 0-.523-2.01 3.9 3.9 0 0 0-1.42-1.433 3.8 3.8 0 0 0-1.943-.526 3.9 3.9 0 0 0-1.977.526M8.876 0c3.057 0 7.675.941 9.825 3.1.545.547 1.258 1.62 1.258 3.19 0 2.79-2.24 7.073-4.714 9.557-1.278 1.284-3.312 2.962-6.048 2.962-2.675 0-4.718-1.824-5.309-2.418C1.623 14.117 0 10.664 0 7.445 0 5.413.577 3.637 2.048 2.16 3.411.792 5.758 0 8.876 0m3.783 11.132c1.032-1.037 1.31-2.313 1.31-3.016 0-.51-.133-1.257-.768-1.893-.973-.978-2.051-1.254-3.224-1.254-1.485 0-2.483.472-3.148 1.14-.521.523-.972 1.328-.972 2.471s.607 2.247 1.268 2.91c.611.613 1.571 1.067 2.538 1.067s1.964-.388 2.996-1.425" clip-rule="evenodd"/></svg>