<svg xmlns="http://www.w3.org/2000/svg" width="355.556" height="64" fill="none" viewBox="0 0 100 18"><path fill="#161637" fill-rule="evenodd" d="M70.546 14.62h2.082a.115.115 0 0 0 .117-.114V.139a.125.125 0 0 0-.127-.124h-2.062a.124.124 0 0 0-.126.124v14.367c0 .063.052.114.115.114ZM29.998 12.672a3.222 3.222 0 0 1-3.218-3.218 3.222 3.222 0 0 1 3.218-3.217 3.222 3.222 0 0 1 3.217 3.217 3.221 3.221 0 0 1-3.217 3.218Zm0-8.738a5.528 5.528 0 0 0-5.521 5.52 5.528 5.528 0 0 0 5.521 5.522 5.528 5.528 0 0 0 5.52-5.522 5.527 5.527 0 0 0-5.52-5.52ZM79.513 12.672a3.222 3.222 0 0 1-3.217-3.218 3.222 3.222 0 0 1 3.217-3.217 3.222 3.222 0 0 1 3.217 3.217 3.222 3.222 0 0 1-3.217 3.218Zm0-8.738a5.527 5.527 0 0 0-5.52 5.52 5.527 5.527 0 0 0 5.52 5.522 5.528 5.528 0 0 0 5.522-5.522 5.527 5.527 0 0 0-5.522-5.52ZM43.507 4.187l-2.914 7.237-2.917-7.237a.123.123 0 0 0-.113-.075h-2.277a.123.123 0 0 0-.113.168l4.268 10.443a.123.123 0 0 0 .113.075h2.084c.05 0 .095-.03.113-.075L46.02 4.28a.122.122 0 0 0-.113-.168H43.62c-.05 0-.095.03-.113.075ZM60.103 4.716v-.508a.12.12 0 0 0-.119-.12H57.9a.119.119 0 0 0-.119.12V14.67c0 .071.056.128.127.128h2.068c.07 0 .127-.057.127-.128V8.904c0-.942.23-1.624.683-2.03.47-.423 1.08-.636 1.809-.636H63a.124.124 0 0 0 .123-.125V4.059a.124.124 0 0 0-.123-.125h-.406c-1.005 0-1.84.263-2.492.782ZM65.429.998c-.819.742-1.234 1.821-1.234 3.21V14.5c0 .067.056.12.124.12h2.116a.122.122 0 0 0 .124-.12V6.332h2.678a.122.122 0 0 0 .124-.12v-2.03a.122.122 0 0 0-.124-.12h-2.675c.02-.672.19-1.147.503-1.415.342-.291.93-.41 1.711-.347l.451.037a.122.122 0 0 0 .133-.12V.179a.122.122 0 0 0-.114-.12l-.387-.025c-1.456-.1-2.615.227-3.43.965ZM97.41 4.197l-1.953 6.61-2.078-6.613a.116.116 0 0 0-.112-.082h-1.87a.118.118 0 0 0-.114.082l-2.077 6.612-1.952-6.609a.118.118 0 0 0-.114-.085h-2.17a.118.118 0 0 0-.113.154l3.205 10.448c.016.05.06.084.113.084h1.986a.117.117 0 0 0 .112-.083l2.059-6.453 2.057 6.453c.015.05.06.083.112.083h1.988a.118.118 0 0 0 .112-.084l3.205-10.448a.118.118 0 0 0-.112-.154h-2.172a.117.117 0 0 0-.113.085ZM48.964 6.935c.59-.518 1.34-.78 2.233-.78.764 0 1.44.247 2.011.735.43.367.734.859.905 1.466h-6.076a3.11 3.11 0 0 1 .927-1.42Zm5.138 4.42a.127.127 0 0 0-.164.03c-.165.208-.608.738-.961.935-.448.252-.998.38-1.633.38-.895 0-1.651-.246-2.25-.73a2.788 2.788 0 0 1-.919-1.358h8.155c.066 0 .12-.049.127-.114l.038-.362c.027-.268.041-.485.041-.643 0-1.485-.488-2.79-1.45-3.882-.98-1.113-2.279-1.677-3.857-1.677-1.617 0-2.963.534-4.001 1.589-1.032 1.05-1.556 2.373-1.556 3.931 0 1.587.531 2.918 1.58 3.957 1.05 1.038 2.42 1.565 4.073 1.565 1.022 0 1.95-.221 2.758-.655a5.137 5.137 0 0 0 1.724-1.482c.04-.056.105-.153.156-.229a.123.123 0 0 0-.04-.174l-1.821-1.08Z" clip-rule="evenodd"/><path fill="#FB5D2E" fill-rule="evenodd" d="M19.313 7.433a.118.118 0 0 0-.118-.116h-2.192a7.305 7.305 0 0 1-7.305 7.305A7.305 7.305 0 0 1 2.39 7.317H.197a.118.118 0 0 0-.118.115V7.441c.066 5.246 4.355 9.494 9.619 9.494 5.262 0 9.548-4.248 9.615-9.494v-.008Z" clip-rule="evenodd"/><path fill="#16B4F2" fill-rule="evenodd" d="M9.694.015A7.302 7.302 0 0 0 2.39 7.317h14.604A7.302 7.302 0 0 0 9.694.015Z" clip-rule="evenodd"/><path fill="#2C2C96" fill-rule="evenodd" d="M16.995 7.317a7.301 7.301 0 0 1-7.301 7.303A7.302 7.302 0 0 1 2.39 7.317h14.604Z" clip-rule="evenodd"/></svg>