<svg xmlns="http://www.w3.org/2000/svg" width="72.727" height="64" fill="none" viewBox="0 0 50 44"><g fill-rule="evenodd" clip-path="url(#a)" clip-rule="evenodd"><path fill="#FB5D2E" d="M49.22 18.942a.3.3 0 0 0-.3-.294h-5.587c0 10.282-8.334 18.615-18.615 18.615-10.286 0-18.62-8.332-18.62-18.615H.506a.3.3 0 0 0-.301.293l-.003.01q.002.003.003.01c.168 13.371 11.098 24.196 24.512 24.196 13.409 0 24.333-10.827 24.502-24.196l.001-.01v-.01Z"/><path fill="#16B4F2" d="M24.712.039c-10.28 0-18.61 8.332-18.61 18.609h37.217C43.319 8.37 34.989.039 24.712.039"/><path fill="#2C2C96" d="M43.319 18.648c0 10.28-8.33 18.608-18.607 18.608-10.28 0-18.61-8.329-18.61-18.608z"/></g><defs><clipPath id="a"><path fill="#fff" d="M0 0h50v43.548H0z"/></clipPath></defs></svg>