<svg xmlns="http://www.w3.org/2000/svg" width="206.452" height="64" fill="none" viewBox="0 0 100 31"><g clip-path="url(#a)"><path fill="#fddd35" d="M0 15.815v-.833c1.026 0 2.01-.404 2.738-1.127a3.83 3.83 0 0 0 1.136-2.719h.774a3.82 3.82 0 0 0 1.134 2.723 3.88 3.88 0 0 0 2.74 1.13v.832a3.9 3.9 0 0 0-2.738 1.127 3.83 3.83 0 0 0-1.136 2.719h-.774a3.82 3.82 0 0 0-1.133-2.723A3.9 3.9 0 0 0 0 15.815m3.874-6.123h6.661c3.254 0 5.58 2.308 5.58 5.693s-2.324 5.692-5.579 5.692H3.874v9.692h2.788v-7.23h3.873c4.68 0 8.368-3.662 8.368-8.154S15.215 7.23 10.535 7.23H3.874zM28.914 7.2c2.447 0 4.616 1.23 5.98 3.17V7.691h2.788v15.385h-2.789V20.4c-1.398 1.942-3.563 3.17-5.98 3.17-4.588 0-8.462-3.6-8.462-8.185 0-4.584 3.875-8.185 8.462-8.185Zm0 13.908c3.593 0 5.98-2.462 5.98-5.723 0-3.293-2.355-5.723-5.98-5.723-3.224 0-5.673 2.307-5.673 5.723s2.449 5.723 5.672 5.723ZM48 7.2c2.449 0 4.618 1.23 5.981 3.17V0h2.79v23.077h-2.79V20.4c-1.363 1.942-3.532 3.17-5.98 3.17-4.587 0-8.46-3.6-8.46-8.185 0-4.584 3.873-8.185 8.46-8.185Zm0 13.908c3.626 0 5.981-2.431 5.981-5.723s-2.355-5.723-5.98-5.723c-3.224 0-5.672 2.307-5.672 5.723s2.45 5.723 5.672 5.723ZM67.401 7.2c2.449 0 4.618 1.23 5.982 3.17V0h2.79v23.077h-2.79V20.4c-1.364 1.942-3.533 3.17-5.981 3.17-4.587 0-8.46-3.6-8.46-8.185 0-4.584 3.873-8.185 8.46-8.185Zm0 13.908c3.627 0 5.982-2.431 5.982-5.723s-2.355-5.723-5.981-5.723c-3.224 0-5.671 2.307-5.671 5.723s2.447 5.723 5.67 5.723m11.557 1.969V0h2.79v23.077zM92.068 7.23c5.361 0 7.933 4.154 7.933 9.231H86.615c.433 2.985 2.665 4.923 5.454 4.923 1.921 0 3.408-.861 4.523-2.554H99.6c-1.054 2.37-3.811 4.708-7.53 4.708-4.68 0-8.306-3.723-8.306-8.154 0-4.429 3.626-8.153 8.305-8.153zm5.144 7.078c0-2.524-2.169-4.924-5.144-4.924-2.788 0-5.02 1.943-5.453 4.924z"/></g><defs><clipPath id="a"><path fill="#fff" d="M0 0h100v30.769H0z"/></clipPath></defs></svg>