<svg xmlns="http://www.w3.org/2000/svg" width="457.143" height="64" fill="none" viewBox="0 0 100 14"><g clip-path="url(#a)"><path fill="#FF424D" fill-rule="evenodd" d="M76.087.026c-1.298.154-2.242.486-3.21 1.129-1.387.92-2.364 2.358-2.772 4.077-.154.65-.173.838-.173 1.706 0 .758.004.821.076 1.224.134.76.338 1.379.676 2.053a6.2 6.2 0 0 0 1.22 1.68c1.085 1.09 2.38 1.705 4.044 1.921.4.052 1.436.06 1.818.013.815-.1 1.477-.273 2.118-.556a6.45 6.45 0 0 0 3.013-2.673c1.337-2.259 1.309-5.23-.07-7.458C81.736 1.375 79.972.287 77.794.036c-.375-.043-1.381-.05-1.706-.01ZM.072.334C.062.344.055 3.317.055 6.942v6.59h3.064v-3.65h1.179c1.378 0 1.915-.027 2.363-.119A4.59 4.59 0 0 0 9.726 7.61c.275-.458.467-.977.593-1.6.053-.26.06-.375.06-.923-.001-.58-.007-.652-.075-.973C9.99 2.631 9.132 1.487 7.856.847 7.266.55 6.706.4 5.971.344 5.577.314.102.304.072.334M17.71.67l-.189.527a6712 6712 0 0 0-3.602 10.083l-.385 1.079c-.177.492-.343.958-.37 1.035l-.05.14h3.266l.167-.527.253-.793.086-.266h4.704l.115.36.252.792.138.434h3.326l-.026-.06a41 41 0 0 1-.254-.7c-.126-.352-.28-.783-.345-.96a1652 1652 0 0 1-1.252-3.463l-.579-1.599-.57-1.577c-.689-1.903-1.354-3.746-1.55-4.291L20.64.316h-2.807l-.125.353Zm9.856-.32c-.007.019-.01.615-.006 1.326l.007 1.293 1.486.006 1.485.007v10.552h3.064V2.98l1.499-.007 1.499-.006V.33L32.09.323c-3.595-.005-4.514 0-4.524.027m13.79 6.575v6.609h3.037V9.882h1.453l1.132 1.774c.623.976 1.15 1.798 1.173 1.826.038.05.088.051 1.805.044l1.766-.007-1.317-2.077-1.317-2.078.211-.113a4.2 4.2 0 0 0 1.039-.78c.695-.693 1.096-1.462 1.296-2.49.06-.31.067-1.416.011-1.708a4.8 4.8 0 0 0-.458-1.385C50.527 1.557 49.359.692 47.836.41c-.438-.08-.942-.094-3.702-.094h-2.78v6.608Zm15.534 0v6.609h8.047V11.08h-4.984V8.177h4.983V5.779h-4.983l.007-1.5.007-1.498 2.484-.007 2.485-.007V.316H56.89v6.608ZM88.956.35c-.007.019-.01 2.99-.006 6.602l.007 6.568 1.526.007 1.525.007.006-4.236.007-4.236 1.36 2.427 2.77 4.948.613 1.096h3.184V.317H96.91l-.007 4.287-.007 4.287-.799-1.44-2.376-4.28L92.146.33 90.558.323c-1.258-.006-1.592 0-1.602.026Zm-11.28 2.47c1.284.272 2.29 1.15 2.782 2.426a4.73 4.73 0 0 1 .02 3.305c-.6 1.608-1.927 2.558-3.574 2.558-1.49 0-2.726-.774-3.385-2.119a4.66 4.66 0 0 1-.243-3.533c.098-.298.292-.722.442-.96a4.5 4.5 0 0 1 .629-.757c.572-.54 1.245-.855 2.073-.97.278-.04.962-.011 1.256.05M5.77 2.892c.389.115.654.278.933.574.419.446.613.97.611 1.647-.002.548-.125.963-.412 1.386-.19.28-.53.571-.818.698-.373.165-.368.165-1.72.175l-1.245.01V2.818l1.232.008c1.153.009 1.245.013 1.42.064Zm41.274-.009c.57.163 1.043.56 1.306 1.098.196.4.237.59.237 1.12 0 .528-.04.718-.236 1.118a2 2 0 0 1-.934.947c-.4.197-.387.195-1.779.206l-1.245.01V2.818l1.245.008c1.078.008 1.268.016 1.406.055ZM20.027 6.778c.419 1.436.768 2.644.776 2.684l.015.074H19.23c-1.191 0-1.588-.008-1.588-.031 0-.017.083-.308.184-.647a732 732 0 0 0 .722-2.413l.373-1.253c.332-1.12.322-1.089.335-1.052.006.015.353 1.202.772 2.638Z" clip-rule="evenodd"/></g><defs><clipPath id="a"><path fill="#fff" d="M0 0h100v13.909H0z"/></clipPath></defs></svg>