<svg xmlns="http://www.w3.org/2000/svg" width="256" height="64" fill="none" viewBox="0 0 100 25"><g clip-path="url(#a)"><path fill="#2790c3" fill-rule="evenodd" d="M77.409 10.745c-.3 1.968-1.803 1.968-3.256 1.968h-.827l.58-3.674a.46.46 0 0 1 .452-.386h.379c.989 0 1.924 0 2.406.564.288.337.375.837.266 1.528m-.633-5.134h-5.481a.76.76 0 0 0-.753.643L68.326 20.31a.457.457 0 0 0 .451.528h2.813a.53.53 0 0 0 .526-.45l.629-3.985a.76.76 0 0 1 .752-.643h1.735c3.61 0 5.694-1.747 6.24-5.21.244-1.515.009-2.705-.7-3.538-.78-.916-2.161-1.4-3.996-1.4Z" clip-rule="evenodd"/><path fill="#27346a" fill-rule="evenodd" d="M38.308 10.745c-.3 1.968-1.803 1.968-3.256 1.968h-.827l.58-3.674a.46.46 0 0 1 .451-.386h.38c.989 0 1.923 0 2.405.564.289.337.376.837.267 1.528m-.633-5.134h-5.482a.76.76 0 0 0-.752.643L29.224 20.31a.457.457 0 0 0 .452.528h2.617a.76.76 0 0 0 .752-.643l.599-3.792a.76.76 0 0 1 .752-.643h1.734c3.611 0 5.695-1.747 6.24-5.21.245-1.515.01-2.705-.7-3.538-.78-.916-2.161-1.4-3.995-1.4ZM50.404 15.79c-.254 1.5-1.445 2.508-2.963 2.508-.761 0-1.37-.245-1.762-.709-.389-.46-.535-1.114-.412-1.844.236-1.486 1.446-2.525 2.942-2.525.745 0 1.35.247 1.75.715.402.471.56 1.13.445 1.856Zm3.658-5.108h-2.625a.46.46 0 0 0-.451.386l-.116.734-.183-.266c-.569-.825-1.836-1.101-3.1-1.101-2.9 0-5.378 2.197-5.86 5.28-.25 1.537.105 3.007.977 4.032.801.943 1.944 1.335 3.306 1.335 2.338 0 3.634-1.502 3.634-1.502l-.117.73a.457.457 0 0 0 .451.528h2.364a.76.76 0 0 0 .752-.643l1.42-8.985a.456.456 0 0 0-.452-.528" clip-rule="evenodd"/><path fill="#2790c3" fill-rule="evenodd" d="M89.505 15.79c-.253 1.5-1.444 2.508-2.963 2.508-.761 0-1.37-.245-1.762-.709-.388-.46-.534-1.114-.411-1.844.236-1.486 1.446-2.525 2.941-2.525.745 0 1.35.247 1.75.715.402.471.56 1.13.445 1.856Zm3.658-5.108h-2.625a.46.46 0 0 0-.45.386l-.116.734-.184-.266c-.568-.825-1.835-1.101-3.1-1.101-2.9 0-5.377 2.197-5.86 5.28-.25 1.537.106 3.007.977 4.032.802.943 1.945 1.335 3.306 1.335 2.338 0 3.634-1.502 3.634-1.502l-.117.73a.457.457 0 0 0 .452.528h2.363a.76.76 0 0 0 .753-.643l1.418-8.985a.456.456 0 0 0-.45-.528Z" clip-rule="evenodd"/><mask id="b" width="100" height="25" x="0" y="0" maskUnits="userSpaceOnUse" style="mask-type:alpha"><path fill="#fff" d="M.016 24.39h99.678V.202H.016z"/></mask><g fill-rule="evenodd" clip-rule="evenodd" mask="url(#b)"><path fill="#27346a" d="M68.043 10.682h-2.638a.76.76 0 0 0-.63.334l-3.64 5.36-1.542-5.15a.76.76 0 0 0-.73-.544H56.27a.457.457 0 0 0-.433.604l2.905 8.528-2.732 3.855a.457.457 0 0 0 .373.721h2.636a.76.76 0 0 0 .626-.328L68.418 11.4a.457.457 0 0 0-.376-.717Z"/><path fill="#2790c3" d="m96.256 5.997-2.25 14.313a.457.457 0 0 0 .451.528h2.263a.76.76 0 0 0 .752-.643L99.691 6.14a.457.457 0 0 0-.452-.528h-2.532a.46.46 0 0 0-.451.386Z"/><path fill="#27346a" d="m10.381 23.394.737-4.673.048-.259a.96.96 0 0 1 .948-.81h.585c.975 0 1.871-.104 2.663-.31a6.8 6.8 0 0 0 2.234-1.012 6 6 0 0 0 1.687-1.846c.468-.785.811-1.73 1.021-2.809.186-.952.22-1.805.104-2.534-.123-.77-.42-1.428-.882-1.955a3.7 3.7 0 0 0-1.065-.822l-.01-.005v-.012c.148-.951.143-1.744-.018-2.427-.16-.684-.487-1.3-.998-1.882C16.377.833 14.453.221 11.715.221H4.197a1.06 1.06 0 0 0-1.043.892l-3.13 19.85a.624.624 0 0 0 .618.724h4.664l-.004.022-.32 2.032a.545.545 0 0 0 .538.63h3.912a.92.92 0 0 0 .91-.778z"/><path fill="#27346a" d="M7.705 6.372a.94.94 0 0 1 .93-.794h5.892c.698 0 1.349.046 1.944.142a9 9 0 0 1 .964.214 6 6 0 0 1 1.038.413c.295-1.881-.002-3.161-1.02-4.321C16.333.749 14.308.202 11.719.202H4.2c-.53 0-.98.385-1.063.908L.008 20.96a.645.645 0 0 0 .637.746h4.641z"/><path fill="#2790c3" d="M18.474 6.347q-.033.215-.076.44c-.991 5.09-4.383 6.85-8.716 6.85H7.476c-.529 0-.976.386-1.058.909l-1.45 9.192a.565.565 0 0 0 .557.652h3.913a.94.94 0 0 0 .929-.794l.038-.199.737-4.673.048-.258a.94.94 0 0 1 .929-.794h.585c3.79 0 6.757-1.54 7.625-5.993.362-1.86.174-3.414-.784-4.506a3.7 3.7 0 0 0-1.07-.826Z"/><path fill="#1f264f" d="M17.433 5.934a9 9 0 0 0-.964-.214 12 12 0 0 0-1.944-.142H8.632a.94.94 0 0 0-.93.794L6.45 14.314l-.036.232c.083-.523.53-.909 1.059-.909h2.206c4.332 0 7.724-1.76 8.715-6.85q.044-.225.077-.44a5.3 5.3 0 0 0-1.038-.413"/></g></g><defs><clipPath id="a"><path fill="#fff" d="M0 0h100v24.39H0z"/></clipPath></defs></svg>