<svg xmlns="http://www.w3.org/2000/svg" width="53.333" height="64" fill="none" viewBox="0 0 50 60"><g clip-path="url(#a)"><path fill="#253B80" d="m13.972 56.066 1.005-6.388-2.24-.052H2.04l7.435-47.14a.62.62 0 0 1 .207-.37.6.6 0 0 1 .397-.146h18.038c5.989 0 10.121 1.246 12.279 3.706 1.011 1.154 1.656 2.36 1.967 3.686.327 1.393.333 3.056.014 5.085l-.023.148v1.3l1.011.573c.852.452 1.529.97 2.048 1.562.866.986 1.425 2.24 1.662 3.726.244 1.53.163 3.349-.237 5.408-.461 2.37-1.208 4.433-2.215 6.121-.927 1.556-2.108 2.847-3.51 3.847-1.338.95-2.929 1.67-4.727 2.132-1.742.454-3.729.683-5.907.683h-1.404a4.26 4.26 0 0 0-2.745 1.01 4.25 4.25 0 0 0-1.43 2.553l-.106.575-1.777 11.26-.08.413c-.022.131-.058.197-.112.24a.3.3 0 0 1-.185.068h-8.667Z"/><path fill="#179BD7" d="M44.32 14.744q-.08.515-.184 1.058c-2.379 12.213-10.517 16.433-20.911 16.433h-5.293a2.57 2.57 0 0 0-2.54 2.176l-2.71 17.185-.767 4.871a1.354 1.354 0 0 0 1.337 1.566h9.386a2.26 2.26 0 0 0 2.23-1.904l.093-.477 1.768-11.215.113-.616a2.26 2.26 0 0 1 2.23-1.907h1.405c9.094 0 16.213-3.693 18.294-14.378.87-4.463.42-8.19-1.88-10.811-.697-.79-1.56-1.446-2.57-1.98Z"/><path fill="#222D65" d="M41.831 13.752a19 19 0 0 0-2.314-.514c-1.426-.23-2.99-.34-4.665-.34H20.714a2.254 2.254 0 0 0-2.229 1.908l-3.008 19.05-.086.555a2.57 2.57 0 0 1 2.54-2.176h5.292c10.395 0 18.533-4.221 20.912-16.433q.105-.542.184-1.058a12.7 12.7 0 0 0-1.955-.825 17 17 0 0 0-.533-.167"/><path fill="#253B80" d="M18.488 14.806a2.25 2.25 0 0 1 2.23-1.906h14.138c1.675 0 3.238.11 4.665.34a19 19 0 0 1 2.848.679 13 13 0 0 1 1.956.825c.708-4.513-.006-7.586-2.446-10.369C39.189 1.312 34.333 0 28.119 0H10.081a2.576 2.576 0 0 0-2.548 2.179L.019 49.804a1.55 1.55 0 0 0 1.53 1.792h11.136l2.796-17.74z"/></g><defs><clipPath id="a"><path fill="#fff" d="M0 0h50v59.615H0z"/></clipPath></defs></svg>