<svg xmlns="http://www.w3.org/2000/svg" width="266.667" height="64" fill="none" viewBox="0 0 100 24"><g fill-rule="evenodd" clip-path="url(#a)" clip-rule="evenodd"><path fill="#1A2022" d="M77.806 15.963c2.577 0 4.674-2.055 4.674-4.58 0-2.526-2.097-4.58-4.674-4.58-2.577 0-4.674 2.054-4.674 4.58 0 2.525 2.097 4.58 4.674 4.58ZM82.48 0h2.214v18.148H82.48v-1.812a6.908 6.908 0 0 1-4.674 1.797c-3.798 0-6.888-3.028-6.888-6.75 0-3.723 3.09-6.75 6.888-6.75 1.748 0 3.396.635 4.674 1.796V0ZM31.888 15.883c2.577 0 4.673-2.055 4.673-4.58 0-2.526-2.096-4.58-4.673-4.58s-4.674 2.054-4.674 4.58c0 2.525 2.097 4.58 4.674 4.58Zm-4.674-9.534a6.91 6.91 0 0 1 4.674-1.796c3.798 0 6.887 3.028 6.887 6.75s-3.09 6.75-6.887 6.75a6.909 6.909 0 0 1-4.674-1.797v6.43H25V4.536h2.214v1.812ZM43 10.25a4.626 4.626 0 0 1 4.473-3.524c2.09 0 3.841 1.441 4.308 3.524h-8.78Zm4.473-5.712c-3.74 0-6.784 3.053-6.784 6.806 0 3.752 3.043 6.805 6.784 6.805 2.095 0 4.018-.787 5.276-2.158l.654-.713.084-.092-.092-.085-1.42-1.312-.093-.085-.084.093-.654.713c-.834.909-2.206 1.451-3.67 1.451A4.626 4.626 0 0 1 43 12.436h11.081v-1.093c0-3.817-2.902-6.806-6.608-6.806Zm50.313 6.806c0 2.546-2.097 4.617-4.674 4.617-2.577 0-4.674-2.071-4.674-4.617 0-2.547 2.097-4.618 4.674-4.618 2.577 0 4.674 2.071 4.674 4.618Zm-4.674-6.806c-3.798 0-6.887 3.053-6.887 6.806 0 3.752 3.09 6.805 6.887 6.805 3.798 0 6.888-3.053 6.888-6.805 0-3.753-3.09-6.806-6.888-6.806Zm-30.804 0c-1.538 0-3.004.586-4.157 1.656V4.537h-2.156v13.611h2.156v-6.946c0-2.478 1.865-4.494 4.157-4.494 2.293 0 4.16 2.016 4.16 4.494v6.946h2.154v-6.946c0-3.675-2.832-6.665-6.314-6.665Z"/><path fill="#FF4876" d="M0 12.963h10.417v10.185l10.416-10.185V2.778H10.417L0 12.963Z"/></g><defs><clipPath id="a"><path fill="#fff" d="M0 0h100v23.148H0z"/></clipPath></defs></svg>