<svg xmlns="http://www.w3.org/2000/svg" width="278.261" height="64" fill="none" viewBox="0 0 100 23"><g clip-path="url(#a)"><path fill="#0068E5" d="M92.826 5.238v.026a6.685 6.685 0 1 0 0 10.896v1.238h2.812V3.193l-2.812 2.045Zm-3.874 9.352a3.883 3.883 0 1 1 3.874-4.047v.321a3.878 3.878 0 0 1-3.874 3.726Zm-7.466 2.805v-4.043l-5.572 4.043h5.572ZM99.877.13 97.057 2.17v2.827l2.819-2.05.002-2.82Zm-2.821 6.628-.005 10.638h2.812l.012-12.688-2.82 2.05Z"/><path fill="#00204E" d="M36.314 4.024a6.685 6.685 0 1 0 0 13.37 6.685 6.685 0 0 0 0-13.37Zm0 10.567a3.883 3.883 0 1 1-.005-7.766 3.883 3.883 0 0 1 .005 7.766ZM21.53 4.024a6.686 6.686 0 1 0 5.669 10.238l-2.436-1.405a3.878 3.878 0 0 1-6.848-.74H28.07a6.684 6.684 0 0 0-6.536-8.096l-.004.003Zm0 2.802a3.881 3.881 0 0 1 3.616 2.481h-7.23c.037-.103.08-.203.128-.3a3.881 3.881 0 0 1 3.486-2.18ZM6.743 4.024a6.648 6.648 0 0 0-3.917 1.269l-1.074-.817a.583.583 0 0 0-.345-.114H.014L0 22.238h2.812v-6.112a6.686 6.686 0 1 0 3.93-12.102Zm0 10.567a3.883 3.883 0 1 1-.005-7.767 3.883 3.883 0 0 1 .005 7.767ZM51.126 4.024a6.643 6.643 0 0 0-3.897 1.255l-1.065-.803a.579.579 0 0 0-.345-.114h-1.393l-.014 17.876h2.814v-6.09a6.686 6.686 0 1 0 3.9-12.124Zm0 10.567a3.883 3.883 0 1 1-.019-7.767 3.883 3.883 0 0 1 .02 7.767Zm25.562-2.477a6.704 6.704 0 0 0-9.304-7.542 6.703 6.703 0 1 0 8.268 9.923l-2.269-1.638a3.875 3.875 0 0 1-6.845-.743h10.15Zm-6.536-5.288a3.882 3.882 0 0 1 3.617 2.481h-7.23c.037-.103.08-.203.128-.3a3.88 3.88 0 0 1 3.485-2.18ZM59.233.13h2.815v17.266h-2.815V.13Z"/></g><defs><clipPath id="a"><path fill="#fff" d="M0 0h100v22.381H0z"/></clipPath></defs></svg>