<svg xmlns="http://www.w3.org/2000/svg" width="62.745" height="64" fill="none" viewBox="0 0 50 51"><g clip-path="url(#a)"><path fill="#001D45" fill-rule="evenodd" d="M13.072.932c-1.56.516-3.365 1.307-4.01 1.759-1.106.775-1.261.751-2.81-.43-1.19-.909-2.27-1.25-3.945-1.25H0v49.494h8.08V33.993l2.4 1.183c8.38 4.132 18.369 1.535 23.596-6.135 6.506-9.546 2.838-22.578-7.715-27.408-3.802-1.741-9.27-2.03-13.29-.7ZM23.99 9.21c3.704 1.944 5.48 5.344 5.217 9.994-.246 4.344-1.918 6.962-5.626 8.81-9.418 4.693-18.884-4.864-14.175-14.312 2.65-5.318 9.176-7.329 14.584-4.492Z" clip-rule="evenodd"/><path fill="#005DE1" d="m35.21 36.869 7.269-5.291c3.997-2.91 7.325-5.297 7.394-5.303.07-.007.126 2.374.126 5.29v5.304H35.211Z"/></g><defs><clipPath id="a"><path fill="#fff" d="M0 0h50v50.505H0z"/></clipPath></defs></svg>