<svg xmlns="http://www.w3.org/2000/svg" width="256" height="64" fill="none" viewBox="0 0 100 25"><g clip-path="url(#a)"><path fill="#E60023" d="M39.383 8.807h3.158v9.92h-3.158zm3.82 0h3.042v1.356h.058c.736-1.066 1.685-1.647 3.061-1.647 2.17 0 3.448 1.55 3.448 3.759v6.451h-3.157v-5.812c0-1.046-.524-1.763-1.55-1.763-1.046 0-1.744.872-1.744 2.092v5.483h-3.158zm-.344-2.654a1.894 1.894 0 1 0-3.789 0 1.894 1.894 0 0 0 3.789 0m32.162 2.511a4 4 0 0 0-.314-.012c-1.201 0-2.015.523-2.713 1.705h-.058v-1.55h-3.022v9.919h3.158V14.27c0-2.064 1.143-3.021 2.949-2.854zm15.499 3.804c-1.259-.232-2.382-.329-2.382-1.026 0-.62.6-.91 1.375-.91.872 0 1.472.27 1.589 1.162h2.906c-.155-1.957-1.666-3.178-4.476-3.178-2.344 0-4.281 1.085-4.281 3.178 0 2.324 1.84 2.79 3.564 3.08 1.318.233 2.519.33 2.519 1.22 0 .64-.6.989-1.55.989-.952 0-1.582-.403-1.775-1.221H85c.221 2.04 2.01 3.274 4.804 3.274 2.596 0 4.513-1.124 4.513-3.293 0-2.538-2.053-2.984-3.796-3.275Zm-10.6-1.704c1.026 0 1.762.755 1.878 1.937h-3.913c.213-1.182.832-1.937 2.034-1.937Zm.174 5.986c-1.3 0-2.035-.833-2.229-2.17h7.13c.019-2.015-.562-3.739-1.743-4.824-.853-.775-1.977-1.24-3.391-1.24-3.022 0-5.095 2.267-5.095 5.231 0 3.003 2.014 5.27 5.288 5.27 1.26 0 2.267-.33 3.1-.91.872-.601 1.453-1.454 1.667-2.345h-3.08c-.272.62-.815.988-1.647.988m19.786-.363a13 13 0 0 1-.524.014c-.677 0-1.104-.193-1.104-.968v-4.65h1.628V8.807h-1.628V5.668h-3.08v3.139h-.969v1.976h.969v5.328c0 2.13 1.317 2.731 3.158 2.731.702 0 1.233-.052 1.55-.114zm-41.425.005c-.126.005-.271.01-.407.01-.678 0-1.105-.194-1.105-.97v-4.649h1.512V8.807h-1.512V5.668h-3.08v3.139h-1.027v1.976h1.027v5.328c0 2.13 1.318 2.731 3.158 2.731.623 0 1.11-.041 1.434-.094z"/><path fill="#E60023" d="M65.33 12.701c-.117-1.182-.853-1.937-1.88-1.937-1.201 0-1.82.755-2.034 1.937h3.913Zm-7.033 1.046c0-2.964 2.073-5.23 5.095-5.23 1.414 0 2.538.464 3.39 1.24 1.182 1.084 1.763 2.808 1.744 4.823h-7.13c.194 1.337.93 2.17 2.229 2.17.832 0 1.375-.368 1.646-.988h3.08c-.213.891-.794 1.744-1.665 2.344-.834.581-1.84.91-3.1.91-3.274 0-5.29-2.266-5.29-5.269ZM33.9 11.384c1.24 0 1.938-.736 1.938-1.84s-.717-1.783-1.938-1.783h-2.422v3.623zm-5.619-6.51h5.484c1.685 0 2.925.465 3.778 1.279.891.833 1.395 2.015 1.395 3.41 0 2.654-1.84 4.533-4.689 4.533h-2.77v4.63H28.28z"/><path fill="#fff" d="M23.947 12.217c0 6.584-5.338 11.922-11.923 11.922C5.44 24.14.102 18.801.102 12.217S5.44.294 12.024.294s11.923 5.338 11.923 11.923"/><path fill="#E60023" d="M12.024.294C5.44.294.102 5.632.102 12.217c0 5.05 3.142 9.368 7.577 11.106-.104-.944-.198-2.394.042-3.424.216-.93 1.398-5.926 1.398-5.926s-.357-.715-.357-1.77c0-1.658.96-2.896 2.157-2.896 1.018 0 1.509.763 1.509 1.68 0 1.022-.651 2.552-.988 3.969-.28 1.187.596 2.154 1.766 2.154 2.119 0 3.748-2.234 3.748-5.46 0-2.854-2.051-4.85-4.98-4.85-3.393 0-5.384 2.545-5.384 5.174 0 1.025.395 2.124.888 2.721a.36.36 0 0 1 .082.342c-.09.377-.291 1.187-.33 1.352-.053.219-.174.265-.4.16-1.489-.694-2.42-2.87-2.42-4.62 0-3.76 2.733-7.214 7.878-7.214 4.136 0 7.35 2.947 7.35 6.886 0 4.109-2.59 7.416-6.187 7.416-1.208 0-2.344-.628-2.732-1.37 0 0-.598 2.277-.743 2.835-.27 1.035-.996 2.334-1.482 3.126 1.116.345 2.301.531 3.53.531 6.585 0 11.923-5.338 11.923-11.922S18.609.294 12.024.294"/></g><defs><clipPath id="a"><path fill="#fff" d="M0 0h100v24.472H0z"/></clipPath></defs></svg>