<svg xmlns="http://www.w3.org/2000/svg" width="238.345" height="64" fill="none" viewBox="0 0 108 29"><g fill="#000" clip-path="url(#a)"><path fill-rule="evenodd" d="M45.443 29v-7.39q.227.185.43.356c.293.246.558.468.842.66 3.008 2.022 7.601 1.29 10.161-1.644 2.127-2.437 2.7-5.317 2.16-8.433-.728-4.17-3.433-7.387-8.074-7.543-2.173-.072-4.12.469-5.58 2.224a.4.4 0 0 1-.124.08q-.053.024-.134.07V5.616h-4.897V29zm4.19-10.17c-2.396.002-4.405-2.031-4.422-4.474.094-2 1.456-4.425 4.368-4.433a4.37 4.37 0 0 1 3.127 1.3 4.4 4.4 0 0 1 1.271 3.151c-.025 2.475-1.949 4.455-4.344 4.457ZM74.425 29v-7.304q.331.231.64.462c.436.322.855.632 1.313.865 3.3 1.679 7.781.468 10.023-2.695 1.874-2.644 2.22-5.583 1.425-8.653-.836-3.224-2.687-5.617-6.065-6.386-2.803-.638-5.453-.33-7.486 2.048-.007.009-.032.002-.073-.009l-.097-.023V5.642h-4.878V29zm4.187-10.158c-2.404-.008-4.408-2.038-4.417-4.475l-.001-.001c.1-2.013 1.474-4.42 4.38-4.42a4.37 4.37 0 0 1 3.129 1.301 4.4 4.4 0 0 1 1.263 3.152c-.037 2.478-1.949 4.452-4.354 4.443m15.687-3.269h12.774c.746-3.68-1.207-8.844-6.389-10.238-4.913-1.318-9.737 1.37-11.09 6.093-1.387 4.838 1.27 9.792 6.025 11.186 4.989 1.465 9.406-1.436 10.947-5.418l-.013-.015c-.009-.01-.017-.02-.025-.02l-1.131-.005c-1.153-.006-2.304-.012-3.456.015a1.5 1.5 0 0 0-.934.368c-1.083 1.044-2.364 1.351-3.822 1.115-1.62-.266-2.877-1.598-2.886-3.08ZM97.65 9.32c2.288-.165 4.027.938 4.389 2.85h-7.613c.038-1.295 1.457-2.724 3.224-2.85" clip-rule="evenodd"/><path d="M.23 29v-.466c0-5.83-.008-11.658 0-17.492.006-3.014 2.014-5.497 4.952-5.945 1.291-.197 2.636-.033 4.045-.033v17.682c0 3.664-2.585 6.235-6.257 6.248-.88.008-1.767.006-2.74.006m11.997-10.03V0c1.668.087 3.331-.209 4.944.374 2.375.84 3.99 3.155 4.035 5.782.032 2.116.02 4.23.01 6.346-.015 3.608-2.316 6.22-5.741 6.47-1.061.064-2.13-.002-3.248-.002m54 4.03h-5V6h5zm0-23v4h-5V0z"/></g><defs><clipPath id="a"><path fill="#fff" d="M0 0h108v29H0z"/></clipPath></defs></svg>