<svg xmlns="http://www.w3.org/2000/svg" width="177.778" height="64" fill="none" viewBox="0 0 50 18"><g fill="#000" clip-path="url(#a)"><path d="M33.994 13.085a3.271 3.271 0 1 1 .03-3.695l2.418-1.427a6.075 6.075 0 1 0-.013 6.525l-2.434-1.403zM40.654 0H37.85v16.823h2.803v-5.608a3.271 3.271 0 1 1 6.542 0v5.608H50V10.67a5.531 5.531 0 0 0-9.345-4.002zM21.03 0h-2.804v13.084a4.204 4.204 0 0 0 6.97 3.169l-1.354-2.299a1.4 1.4 0 0 1-1.099.532h-.312a1.4 1.4 0 0 1-1.401-1.402V8.411h2.803V5.608H21.03zm-6.073 0a1.557 1.557 0 1 0 0 3.114 1.557 1.557 0 0 0 0-3.114m1.402 16.823V5.608h-2.803v11.215z"/><path fill-rule="evenodd" d="M0 16.823h2.803v-3.271h2.57A6.776 6.776 0 1 0 5.373 0H0zm2.803-14.02h2.57a3.972 3.972 0 0 1 0 7.944h-2.57z" clip-rule="evenodd"/></g><defs><clipPath id="a"><path fill="#fff" d="M0 0h50v17.424H0z"/></clipPath></defs></svg>