<svg xmlns="http://www.w3.org/2000/svg" width="376.471" height="64" fill="none" viewBox="0 0 100 17"><g fill="#000" clip-path="url(#a)"><path d="M0 8.013a8.013 8.013 0 0 1 15.322-3.288L4.725 15.322a8.005 8.005 0 0 1-1.292-.733l6.576-6.576H8.013l-5.666 5.665A7.988 7.988 0 0 1 0 8.014ZM16.025 8.015l-8.01 8.01a8.013 8.013 0 0 0 8.01-8.01Z"/><path fill-rule="evenodd" d="M20.273 2.436v10.947h1.531V9.989h2.286c2.079-.02 3.771-1.593 3.771-3.656 0-2.288-1.647-3.897-3.762-3.897h-3.826Zm6.123 3.796c0 1.282-1.047 2.41-2.324 2.416h-2.268V3.786h2.257c1.282 0 2.335 1.095 2.335 2.446Z" clip-rule="evenodd"/><path d="M89.305 13.383V2.436h1.539v10.947h-1.54ZM30.195 13.383V2.442h-1.539v10.94h1.539Z"/><path fill-rule="evenodd" d="M39.675 13.383V5.187h-1.538v1.154h-.03c-.636-.932-1.642-1.376-2.84-1.376-2.412 0-4.29 1.835-4.29 4.453 0 2.367 1.952 4.172 4.349 4.172 1.168 0 2.204-.503 2.78-1.48h.03v1.273h1.54Zm-4.364-1.198c-1.538 0-2.796-1.347-2.796-2.885 0-1.613 1.258-2.93 2.796-2.93 1.701 0 2.855 1.332 2.855 2.93 0 1.553-1.257 2.884-2.855 2.884Z" clip-rule="evenodd"/><path d="M48.256 13.383V8.47c0-2.263-1.45-3.506-3.417-3.506-.947 0-1.79.311-2.397 1.095h-.03v-.873h-1.537v8.196h1.641V8.9c0-1.538.814-2.53 2.16-2.53 1.361 0 2.042.814 2.042 2.545v4.468h1.538Z"/><path fill-rule="evenodd" d="M57.369 9.892c.035-.256.035-.477.035-.71 0-2.353-1.834-4.217-4.245-4.217-2.175 0-4.128 1.805-4.128 4.394 0 2.19 1.864 4.23 4.172 4.23 1.76 0 3.3-1.094 3.935-2.78H55.6a2.64 2.64 0 0 1-2.338 1.376c-1.245 0-2.316-.857-2.682-2.196h6.773l.016-.097Zm-6.786-1.244c.177-1.342 1.398-2.277 2.62-2.277 1.279 0 2.474.949 2.65 2.277h-5.27Z" clip-rule="evenodd"/><path d="M68.6 5.171h1.713c-.261-1.344-1.796-2.735-3.86-2.735-2.158 0-3.813 1.234-3.813 3.089 0 1.497 1.07 2.415 2.799 2.883l1.271.347c1.15.304 2.041.71 2.041 1.666 0 1.05-1.003 1.744-2.385 1.744-1.101 0-2.04-.433-2.312-1.337h-1.71c.28 1.658 1.756 2.76 4.033 2.76 2.527 0 3.982-1.329 3.982-3.151 0-1.939-1.731-2.717-3.097-3.054L66.21 7.11c-.84-.215-1.958-.65-1.953-1.68 0-.914.836-1.644 2.16-1.644 1.131 0 1.963.539 2.182 1.385ZM79.113 10.828c-.682 1.755-2.213 2.762-3.982 2.762-2.352 0-4.201-1.894-4.201-4.231 0-2.47 1.79-4.394 4.186-4.394 1.807 0 3.461 1.099 4.005 2.784h-1.734c-.463-.865-1.18-1.378-2.227-1.378-1.612 0-2.692 1.228-2.692 2.9 0 1.627 1.11 2.913 2.663 2.913.993 0 1.8-.502 2.248-1.356h1.734Z"/><path fill-rule="evenodd" d="M88.104 5.187v8.196h-1.538V12.11h-.03c-.577.976-1.612 1.479-2.78 1.479-2.397 0-4.35-1.805-4.35-4.172 0-2.618 1.879-4.453 4.29-4.453 1.198 0 2.204.444 2.84 1.376h.03V5.187h1.538ZM80.944 9.3c0 1.538 1.258 2.884 2.796 2.884 1.598 0 2.855-1.33 2.855-2.884 0-1.598-1.153-2.93-2.855-2.93-1.538 0-2.795 1.317-2.795 2.93ZM99.968 9.847c.03-.237.03-.445.03-.665l-.001-.11a4.375 4.375 0 0 0-.107-.86 4.168 4.168 0 0 0-.6-1.398c-.749-1.12-2.03-1.849-3.538-1.849-2.174 0-4.127 1.805-4.127 4.394 0 .274.029.545.084.81.389 1.858 2.069 3.42 4.088 3.42 1.76 0 3.299-1.094 3.935-2.78h-1.539a2.65 2.65 0 0 1-2.337 1.376c-1.246 0-2.317-.857-2.682-2.196h6.772l.007-.038.015-.104Zm-6.77-1.338c.241-1.267 1.42-2.138 2.599-2.138 1.278 0 2.473.949 2.65 2.277h-5.27c.005-.047.013-.093.022-.14Z" clip-rule="evenodd"/><path d="M60.146 5.189h1.718V6.53h-1.718v4.582c0 .805.39 1.029.825 1.07l.082.002a1.67 1.67 0 0 0 .598-.067c.18.409.425.783.727 1.113-.533.32-1.166.381-1.644.353a2.76 2.76 0 0 1-.666-.116c-.941-.286-1.237-.963-1.344-1.24h.007a2.361 2.361 0 0 1-.124-.79V6.532h-1.209V5.19h1.209V2.436h1.539v2.753Z"/></g><defs><clipPath id="a"><path fill="#fff" d="M0 0h100v16.025H0z"/></clipPath></defs></svg>