<svg xmlns="http://www.w3.org/2000/svg" width="237.037" height="64" fill="none" viewBox="0 0 100 27"><g clip-path="url(#a)"><path fill="url(#b)" d="M9.716 0c5.366 0 9.717 4.374 9.717 9.769 0 5.395-4.35 9.769-9.717 9.769C4.35 19.538 0 15.164 0 9.768 0 4.375 4.35 0 9.716 0Z"/><path fill="url(#c)" d="M8.05.11c-2.007.35-3.699 1.207-5.1 2.583C1.51 4.108.62 5.757.187 7.814l-.148.701-.02 8.776L0 26.073h.18c.104 0 .433-.032.73-.065 2.538-.311 4.694-1.856 5.869-4.2.297-.596.51-1.284.658-2.141.123-.727.13-.967.11-4.758l-.02-3.992.156-.39c.213-.532.8-1.122 1.33-1.336l.387-.156 3.615-.007c1.989 0 3.732-.026 3.867-.052.633-.123 1.311-.655 1.582-1.246.078-.162.18-.48.226-.694.071-.357.065-.455-.039-.857-.322-1.195-1.459-2.85-2.62-3.817-1.318-1.097-2.77-1.83-4.34-2.2-.826-.189-2.698-.221-3.64-.052Z"/><mask id="d" width="76" height="14" x="24" y="6" maskUnits="userSpaceOnUse" style="mask-type:alpha"><path fill="#fff" d="M100 6.81H24.75v12.46H100V6.81Z"/><path fill="#000" fill-rule="evenodd" d="M36.718 17.234c-.024-.147-.038-1.971-.038-5.16V7.144h2.138l.01 4.769c.01 4.722.011 4.77.084 4.894.13.22.255.265.803.284l.484.016v1.728h-.69c-.818 0-1.295-.047-1.63-.16-.645-.218-1.043-.711-1.161-1.44Zm34.494-8.303V6.977h2.213V8.93h-2.213Zm4.572 9.738V6.977h2.14l.018 4.173.187-.16c.38-.322.909-.57 1.5-.702.354-.08 1.648-.115 2.033-.056.852.13 1.453.408 1.947.902.398.398.677.926.855 1.625.077.302.081.383.08 1.764-.001 1.372-.006 1.463-.08 1.727-.187.665-.407 1.07-.806 1.489-.654.684-1.416.981-2.632 1.026-1.377.05-2.29-.205-2.978-.832l-.23-.21-.021.927-2.013.019Zm11.032-1.483c-.048-.225-.055-.929-.055-5.235V6.977h2.14l.009 4.768c.01 4.723.01 4.77.083 4.895.13.22.255.265.803.283l.484.017v1.738l-.934-.02c-.71-.015-.99-.035-1.17-.082-.752-.195-1.206-.66-1.36-1.39Zm-61.902 1.482V7.588l2.839.015h.097c2.98.016 3.665.02 4.42.221.738.197 1.255.49 1.704.966.482.511.711 1.095.791 2.014.094 1.08-.113 2.104-.557 2.75-.518.754-1.321 1.208-2.553 1.445-.27.052-1.291.066-2.732.083l-1.741.02-.02 3.566h-2.248Zm7.142-8.779c-.218-.217-.474-.347-.891-.455-.28-.073-1.037-.08-2.389-.094l-.098-.001-1.515-.016v4.024h1.392c1.074 0 2.128-.012 2.368-.054.625-.109 1.059-.346 1.293-.708.221-.342.264-.516.282-1.161.023-.814-.081-1.176-.442-1.535Zm29.94 2.227c.26-1.031 1.12-1.645 2.614-1.862.188-.028.678-.05 1.145-.052.861-.003 1.394.042 2.068.177.448.09 1.244.317 1.329.38.054.038.036.114-.194.8-.238.71-.259.756-.34.753a4.614 4.614 0 0 1-.523-.132c-.697-.206-1.238-.286-2.068-.307-1.187-.03-1.706.114-1.923.534-.098.19-.061.51.075.654.237.249.6.348 1.776.486 1.58.185 2.134.32 2.656.654.594.38.85.94.855 1.879.005.79-.18 1.283-.66 1.756-.696.686-1.813.982-3.504.929a9.971 9.971 0 0 1-3.233-.61l-.294-.106.253-.785c.14-.432.26-.793.267-.8.007-.009.213.052.457.135.772.26 1.401.395 2.222.478.473.048 1.188.03 1.507-.039.29-.062.637-.237.74-.372.192-.25.212-.654.046-.9-.18-.266-.573-.372-1.847-.499-1.183-.117-1.787-.26-2.365-.556-.505-.26-.818-.612-1.006-1.136-.107-.297-.137-1.125-.053-1.459Zm30.073-.573c.532-.649 1.458-1.131 2.475-1.29.42-.066 1.56-.067 1.986-.002 1.434.217 2.485.944 2.964 2.05.254.586.337 1.096.337 2.08v.703l-6.367.019.011.126c.066.75.499 1.344 1.172 1.607.33.129.47.16.93.202a5.605 5.605 0 0 0 1.606-.113c.423-.09 1.203-.344 1.53-.496.135-.063.258-.114.274-.114.017 0 .18.338.364.751l.335.751-.42.203c-.6.29-1.342.52-2.156.671-.481.09-2.037.092-2.54.004-1.486-.26-2.481-.95-2.958-2.049-.282-.65-.36-1.216-.333-2.426.017-.753.03-.902.114-1.253.114-.484.402-1.09.676-1.424ZM51.88 16.225l-.023-5.918H54v2.543c0 1.548.014 2.664.038 2.85.114.928.714 1.38 1.83 1.383 1.026.003 1.57-.314 1.818-1.057.061-.185.067-.401.078-2.96l.012-2.76h2.14l-.013 2.942c-.012 2.602-.02 2.969-.074 3.187-.286 1.16-1.165 1.937-2.504 2.212-.706.146-1.965.165-2.745.043-1.415-.222-2.278-.923-2.606-2.119l-.095-.346Zm19.369 2.443v-8.361h2.14v8.36h-2.14Zm26.35-5.495c-.157-.668-.594-1.11-1.275-1.294a3.93 3.93 0 0 0-.665-.073c-.525-.018-.943.055-1.269.22-.282.142-.6.458-.725.722-.105.22-.22.682-.22.887v.11h4.21l-.001-.172c0-.094-.025-.275-.055-.4Zm-15.298.084c-.209-.682-.666-1.107-1.355-1.263-.328-.074-1.195-.074-1.535 0-.739.16-1.208.6-1.404 1.317-.094.342-.095 2.043-.002 2.38.186.672.589 1.05 1.326 1.245.226.06.391.074.86.074.875 0 1.31-.138 1.684-.532.196-.207.322-.432.425-.76.06-.19.068-.34.068-1.23 0-.882-.009-1.043-.067-1.231ZM44.914 10.39c-1.122.144-1.984.538-2.575 1.174l1.142 1.476c.024 0 .302-.297.408-.397.211-.203.646-.434.99-.527.334-.091 1.068-.108 1.436-.034.567.115.894.333 1.068.714.089.195.106.285.119.615l.014.387-1.845.014c-1.724.014-1.868.02-2.19.092-.857.193-1.415.574-1.718 1.174-.177.349-.24.67-.24 1.222 0 .56.063.872.25 1.249.387.777 1.13 1.218 2.289 1.36.411.05 1.316.022 1.69-.053.63-.128 1.228-.4 1.645-.75l.256-.214c.186.63.64.996.934 1.045.498.083 1.744 0 1.744 0v-1.91s-.582-.084-.664-.25c-.083-.166 0-.93 0-.93 0-2.623-.007-2.997-.06-3.221-.303-1.293-1.135-1.975-2.69-2.206-.351-.052-1.682-.072-2.003-.03Zm2.52 5.998c.061-.165.074-.283.074-.686v-.488l-1.424.003c-1.748.004-1.926.031-2.196.338-.141.16-.189.329-.189.669 0 .378.056.532.272.75.313.314.807.439 1.578.399.518-.027.805-.094 1.184-.277.351-.17.589-.41.7-.708Z" clip-rule="evenodd"/></mask><g fill="#191E38" mask="url(#d)"><path fill-rule="evenodd" d="M36.718 17.234c-.024-.147-.038-1.971-.038-5.16V7.144h2.138l.01 4.769c.01 4.722.011 4.77.084 4.894.13.22.255.265.803.284l.484.016v1.728h-.69c-.818 0-1.295-.047-1.63-.16-.645-.218-1.043-.711-1.161-1.44Zm34.494-8.303V6.977h2.213V8.93h-2.213Zm4.572 9.738V6.977h2.14l.018 4.173.187-.16c.38-.322.909-.57 1.5-.702.354-.08 1.648-.115 2.033-.056.852.13 1.453.408 1.947.902.398.398.677.926.855 1.625.077.302.081.383.08 1.764-.001 1.372-.006 1.463-.08 1.727-.187.665-.407 1.07-.806 1.489-.654.684-1.416.981-2.632 1.026-1.377.05-2.29-.205-2.978-.832l-.23-.21-.021.927-2.013.019Zm11.032-1.483c-.048-.225-.055-.929-.055-5.235V6.977h2.14l.009 4.768c.01 4.723.01 4.77.083 4.895.13.22.255.265.803.283l.484.017v1.738l-.934-.02c-.71-.015-.99-.035-1.17-.082-.752-.195-1.206-.66-1.36-1.39Zm-61.902 1.482V7.588l2.839.015h.097c2.98.016 3.665.02 4.42.221.738.197 1.255.49 1.704.966.482.511.711 1.095.791 2.014.094 1.08-.113 2.104-.557 2.75-.518.754-1.321 1.208-2.553 1.445-.27.052-1.291.066-2.732.083l-1.741.02-.02 3.566h-2.248Zm7.142-8.779c-.218-.217-.474-.347-.891-.455-.28-.073-1.037-.08-2.389-.094l-.098-.001-1.515-.016v4.024h1.392c1.074 0 2.128-.012 2.368-.054.625-.109 1.059-.346 1.293-.708.221-.342.264-.516.282-1.161.023-.814-.081-1.176-.442-1.535Zm29.94 2.227c.26-1.031 1.12-1.645 2.614-1.862.188-.028.678-.05 1.145-.052.861-.003 1.394.042 2.068.177.448.09 1.244.317 1.329.38.054.038.036.114-.194.8-.238.71-.259.756-.34.753a4.614 4.614 0 0 1-.523-.132c-.697-.206-1.238-.286-2.068-.307-1.187-.03-1.706.114-1.923.534-.098.19-.061.51.075.654.237.249.6.348 1.776.486 1.58.185 2.134.32 2.656.654.594.38.85.94.855 1.879.005.79-.18 1.283-.66 1.756-.696.686-1.813.982-3.504.929a9.971 9.971 0 0 1-3.233-.61l-.294-.106.253-.785c.14-.432.26-.793.267-.8.007-.009.213.052.457.135.772.26 1.401.395 2.222.478.473.048 1.188.03 1.507-.039.29-.062.637-.237.74-.372.192-.25.212-.654.046-.9-.18-.266-.573-.372-1.847-.499-1.183-.117-1.787-.26-2.365-.556-.505-.26-.818-.612-1.006-1.136-.107-.297-.137-1.125-.053-1.459Zm30.073-.573c.532-.649 1.458-1.131 2.475-1.29.42-.066 1.56-.067 1.986-.002 1.434.217 2.485.944 2.964 2.05.254.586.337 1.096.337 2.08v.703l-6.367.019.011.126c.066.75.499 1.344 1.172 1.607.33.129.47.16.93.202a5.605 5.605 0 0 0 1.606-.113c.423-.09 1.203-.344 1.53-.496.135-.063.258-.114.274-.114.017 0 .18.338.364.751l.335.751-.42.203c-.6.29-1.342.52-2.156.671-.481.09-2.037.092-2.54.004-1.486-.26-2.481-.95-2.958-2.049-.282-.65-.36-1.216-.333-2.426.017-.753.03-.902.114-1.253.114-.484.402-1.09.676-1.424ZM51.88 16.225l-.023-5.918H54v2.543c0 1.548.014 2.664.038 2.85.114.928.714 1.38 1.83 1.383 1.026.003 1.57-.314 1.818-1.057.061-.185.067-.401.078-2.96l.012-2.76h2.14l-.013 2.942c-.012 2.602-.02 2.969-.074 3.187-.286 1.16-1.165 1.937-2.504 2.212-.706.146-1.965.165-2.745.043-1.415-.222-2.278-.923-2.606-2.119l-.095-.346Zm19.369 2.443v-8.361h2.14v8.36h-2.14Zm26.35-5.495c-.157-.668-.594-1.11-1.275-1.294a3.93 3.93 0 0 0-.665-.073c-.525-.018-.943.055-1.269.22-.282.142-.6.458-.725.722-.105.22-.22.682-.22.887v.11h4.21l-.001-.172c0-.094-.025-.275-.055-.4Zm-15.298.084c-.209-.682-.666-1.107-1.355-1.263-.328-.074-1.195-.074-1.535 0-.739.16-1.208.6-1.404 1.317-.094.342-.095 2.043-.002 2.38.186.672.589 1.05 1.326 1.245.226.06.391.074.86.074.875 0 1.31-.138 1.684-.532.196-.207.322-.432.425-.76.06-.19.068-.34.068-1.23 0-.882-.009-1.043-.067-1.231ZM44.914 10.39c-1.122.144-1.984.538-2.575 1.174l1.142 1.476c.024 0 .302-.297.408-.397.211-.203.646-.434.99-.527.334-.091 1.068-.108 1.436-.034.567.115.894.333 1.068.714.089.195.106.285.119.615l.014.387-1.845.014c-1.724.014-1.868.02-2.19.092-.857.193-1.415.574-1.718 1.174-.177.349-.24.67-.24 1.222 0 .56.063.872.25 1.249.387.777 1.13 1.218 2.289 1.36.411.05 1.316.022 1.69-.053.63-.128 1.228-.4 1.645-.75l.256-.214c.186.63.64.996.934 1.045.498.083 1.744 0 1.744 0v-1.91s-.582-.084-.664-.25c-.083-.166 0-.93 0-.93 0-2.623-.007-2.997-.06-3.221-.303-1.293-1.135-1.975-2.69-2.206-.351-.052-1.682-.072-2.003-.03Zm2.52 5.998c.061-.165.074-.283.074-.686v-.488l-1.424.003c-1.748.004-1.926.031-2.196.338-.141.16-.189.329-.189.669 0 .378.056.532.272.75.313.314.807.439 1.578.399.518-.027.805-.094 1.184-.277.351-.17.589-.41.7-.708Z" clip-rule="evenodd"/><path d="M27.852 7.52h-.096l-.002.166h.097l.001-.166Zm8.83 4.555h.166-.166Zm.038 5.16-.164.026.164-.027Zm1.161 1.44.053-.158-.053.157Zm2.32.159V19h.166v-.166h-.166Zm0-1.728h.166v-.16l-.16-.006-.006.166Zm-.484-.017-.006.167.006-.166Zm-.803-.283-.143.084.143-.084Zm-.083-4.894h.166-.166Zm-.01-4.77h.166v-.165h-.167v.166Zm-2.139 0v-.165h-.166v.166h.166Zm34.532 1.79h-.166v.165h.166v-.166Zm2.213 0v.165h.166v-.166h-.166Zm0-1.955h.166V6.81h-.166v.166Zm-2.213 0V6.81h-.166v.166h.166Zm4.572 11.692h-.167v.168l.168-.002-.001-.166Zm2.013-.02.002.167.16-.002.004-.16-.166-.004Zm.02-.927.112-.123-.27-.245-.008.365.166.003Zm.231.21-.112.123.112-.122Zm2.978.833.006.165-.006-.165Zm2.632-1.026.12.114-.12-.114Zm.806-1.49.16.046-.16-.046Zm.08-1.726h.166-.166Zm-.08-1.764-.16.041.16-.041Zm-.855-1.625-.118.117.118-.117Zm-1.947-.902-.025.164.025-.165Zm-2.033.056.036.162-.036-.162Zm-1.5.703-.107-.127.107.127Zm-.187.159h-.166l.002.357.272-.23-.108-.127Zm-.019-4.173.166-.001v-.165h-.166v.166Zm-2.14 0V6.81h-.166v.166h.167Zm11.033 10.21.162-.035-.162.034Zm1.36 1.39-.042.16.042-.16Zm1.17.08.003-.165-.003.166Zm.934.02-.004.167.17.003v-.17h-.166Zm0-1.737h.166v-.16l-.16-.006-.006.166Zm-.484-.017-.006.167.005-.167Zm-.803-.283-.143.084.143-.084Zm-.083-4.895h.166-.166Zm-.01-4.768h.166V6.81h-.166v.166Zm-2.139 0V6.81h-.166v.166h.166Zm-61.847 11.69h-.166v.167h.166v-.166Zm2.249 0v.167h.165v-.165l-.165-.001Zm.019-3.564-.002-.166-.164.001v.164h.166Zm1.74-.02v-.167.166Zm2.733-.084-.03-.163.03.163Zm2.553-1.444.137.094-.137-.094Zm.557-2.75.166-.015-.166.014Zm-.79-2.015.12-.114-.12.114Zm-1.705-.966.043-.16-.043.16Zm-4.517-.221v.166-.166Zm-2.839-.015v-.166l-.166-.001v.167h.166Zm6.25 1.846-.04.16.04-.16Zm.892.455-.117.118.117-.118Zm.442 1.535.166.004-.166-.004Zm-.282 1.16.14.091-.14-.09Zm-1.293.709.029.164-.029-.164Zm-3.76.054H27v.166h.166v-.166Zm0-4.024.002-.166L27 9.155v.168h.166Zm1.515.016.002-.166-.002.166Zm16.235 1.05.02.165-.02-.165Zm-2.575 1.175-.122-.113-.096.103.086.112.132-.102Zm1.141 1.476-.131.102.05.064h.081v-.166Zm.408-.397.115.12-.115-.12Zm.99-.527.043.16-.044-.16Zm1.436-.034-.033.163.033-.163Zm1.068.714-.15.069.15-.069Zm.119.615-.166.007.166-.007Zm.014.387.002.166.17-.001-.006-.171-.166.006Zm-1.845.014v-.166.166Zm-2.19.092.037.162-.037-.162Zm-1.718 1.174.148.075-.148-.075Zm.01 2.471.15-.074-.15.074Zm2.29 1.36-.021.165.02-.165Zm1.689-.053-.033-.163.033.162Zm1.646-.75.106.128-.106-.127Zm.256-.214.159-.047-.072-.243-.194.163.107.127Zm2.677 1.045.011.166.156-.01v-.156h-.167Zm-.664-3.09.165.019.001-.01v-.008h-.166Zm-.06-3.221.162-.038-.162.038Zm-2.69-2.206.024-.164-.024.164Zm17.695-.166.024.164-.024-.164Zm-2.614 1.862-.16-.04.16.04Zm.053 1.459.156-.056-.156.056Zm1.006 1.136.076-.148-.076.147Zm2.365.556-.017.165.017-.165Zm1.847.499-.138.093.138-.093Zm-.045.9.132.1-.132-.1Zm-.741.372-.035-.162.035.162Zm-1.507.04.017-.166-.017.165Zm-2.221-.48.052-.157-.053.158Zm-.725.666.158.05-.158-.05Zm-.253.785-.158-.05-.05.152.151.055.057-.157Zm.295.107.056-.156-.056.156Zm3.232.609-.006.166.006-.166Zm3.504-.93.117.119-.117-.118Zm.66-1.755h-.166.166Zm-.855-1.879-.09.14.09-.14Zm-2.656-.654-.02.165.02-.165Zm-1.776-.486-.12.114.12-.114Zm-.075-.654-.147-.077.147.077Zm1.923-.534-.004.166.004-.166Zm2.068.307.047-.16-.047.16Zm.523.132-.008.166.008-.166Zm.34-.753.158.052-.158-.052Zm.194-.8-.098.133.098-.134Zm-1.329-.38-.033.163.033-.163Zm-2.068-.177v-.166.166Zm28.789.051-.026-.164.026.164Zm-2.475 1.29-.128-.105.128.105Zm-.676 1.424.161.038-.161-.038Zm-.114 1.253-.166-.004.166.004Zm.333 2.426-.152.066.152-.066Zm2.958 2.049.029-.164-.029.164Zm2.54-.004.03.164-.03-.164Zm2.156-.671.072.15-.072-.15Zm.42-.203.072.15.145-.07-.066-.147-.151.067Zm-.335-.75.152-.068-.151.067Zm-.637-.638-.07-.15.07.15Zm-1.531.496.034.162-.034-.162Zm-1.607.113-.015.166.015-.166Zm-.93-.202.061-.155-.06.155Zm-1.17-1.607-.166.015.165-.015Zm-.012-.126v-.166h-.181l.016.18.165-.014Zm6.367-.019v.166H100v-.166h-.166Zm-.337-2.783-.152.066.152-.066Zm-2.964-2.05-.025.164.025-.164Zm-44.65 5.974h-.166v.022l.006.021.16-.043Zm.095.346-.16.044.16-.044Zm2.606 2.119.026-.164-.026.164Zm2.745-.043.034.163-.034-.163Zm2.504-2.212.161.04-.16-.04Zm.074-3.187-.166-.001h.166Zm.013-2.941h.166v-.166h-.166v.166Zm-2.14 0v-.166h-.165l-.001.165h.166Zm-.012 2.76-.166-.001h.166Zm-.078 2.959.157.052-.157-.052Zm-1.818 1.057v-.166.166Zm-1.83-1.382-.165.02.165-.02Zm-.038-5.394h.166v-.166h-.166v.166Zm-2.144 0v-.166h-.167v.166h.167Zm19.392 8.36h-.166v.167h.166v-.166Zm2.14 0v.167h.166v-.166h-.166Zm0-8.36h.166v-.166h-.166v.166Zm-2.14 0v-.166h-.166v.166h.166Zm25.075 1.572-.043.16.043-.16Zm1.275 1.293.162-.038-.162.038Zm.055.401h-.166.166Zm0 .172v.166h.167v-.166h-.167Zm-4.208 0h-.166v.166h.166v-.166Zm.22-.997.15.071-.15-.071Zm.724-.723.075.149-.075-.149Zm1.269-.219-.006.166.006-.166Zm-14.713.188-.036.162.036-.162Zm1.356 1.263-.16.048.16-.048Zm-.002 2.46.159.05-.159-.05Zm-.425.761-.12-.114.12.114Zm-2.544.458.043-.16-.043.16Zm-1.326-1.246-.16.045.16-.045Zm.002-2.38.16.045-.16-.044Zm1.404-1.316.036.162-.035-.162Zm-31.979 4.394.156.058-.156-.058Zm-.7.708-.073-.15.072.15Zm-1.184.277-.01-.166.01.166Zm-1.579-.4.118-.117-.118.117Zm-.271-.75h.166-.166Zm.188-.668.125.11-.125-.11Zm2.197-.338v-.166.166Zm1.424-.003h.166v-.166h-.167v.166Zm2.822 1.813h.166v-.144l-.142-.02-.024.164Zm-22.48-9.424v.167-.167Zm.927 1.737-.001.166.001-.166Zm7.738 2.735c0 1.594.004 2.847.01 3.72a93.523 93.523 0 0 0 .02 1.312c.002.067.005.123.01.154l.328-.053-.001-.008-.002-.023a92.14 92.14 0 0 1-.023-1.383 552.85 552.85 0 0 1-.01-3.72h-.332Zm.04 5.186c.127.783.563 1.331 1.272 1.57l.106-.314c-.58-.196-.94-.635-1.05-1.31l-.328.054Zm1.272 1.57c.363.123.864.169 1.682.169v-.332c-.817 0-1.269-.048-1.576-.151l-.106.314ZM39.51 19h.691v-.332h-.69V19Zm.697-2.06-.485-.016-.01.332.483.016.012-.332Zm-.485-.016c-.277-.01-.42-.026-.507-.057-.068-.024-.105-.056-.157-.146l-.287.169a.597.597 0 0 0 .333.29c.144.051.337.067.607.076l.011-.332Zm-.664-.203a.071.071 0 0 1-.01-.017.408.408 0 0 1-.011-.07 7.232 7.232 0 0 1-.022-.554c-.01-.616-.013-1.807-.018-4.169h-.333c.005 2.361.008 3.555.019 4.175.005.308.012.48.024.585a.696.696 0 0 0 .025.132c.013.04.028.068.04.087l.286-.169Zm-.061-4.81-.01-4.768h-.333l.01 4.769h.333Zm-2.481-4.768v4.932h.333V7.142h-.333Zm41.191 10.702.231.21.224-.245-.23-.21-.225.245Zm.232.21c.733.668 1.696.926 3.095.875l-.012-.331c-1.354.049-2.216-.203-2.86-.79l-.224.246Zm3.095.875c1.247-.045 2.054-.352 2.746-1.077l-.24-.23c-.617.646-1.332.932-2.518.976l.012.331Zm2.746-1.077c.422-.441.653-.872.846-1.559l-.32-.09c-.18.645-.389 1.024-.766 1.42l.24.23Zm.846-1.559c.082-.29.085-.411.086-1.77h-.332c-.002 1.383-.007 1.445-.074 1.68l.32.09Zm.086-1.77c.001-1.372-.001-1.479-.085-1.806l-.322.082c.07.277.076.332.075 1.723h.332Zm-.085-1.806c-.184-.72-.474-1.278-.899-1.702l-.235.235c.373.372.639.872.812 1.549l.322-.082Zm-.899-1.702c-.524-.524-1.16-.815-2.039-.949l-.05.329c.825.126 1.39.392 1.854.855l.235-.235Zm-2.039-.949c-.21-.032-.643-.037-1.058-.025-.413.011-.841.04-1.036.084l.072.324c.16-.035.555-.064.974-.076.417-.012.822-.005.998.022l.05-.329Zm-2.094.059c-.612.137-1.167.395-1.571.738l.215.253c.355-.301.858-.539 1.428-.667l-.072-.324Zm-1.571.738-.187.159.215.253.187-.159-.215-.253Zm8.573 1.087c0 2.153.002 3.406.01 4.15.007.734.02.987.048 1.12l.325-.069c-.019-.093-.034-.305-.041-1.055-.008-.741-.01-1.993-.01-4.146h-.332Zm.058 5.27c.083.391.248.72.5.977.251.257.582.435.98.54l.085-.322c-.353-.092-.626-.244-.828-.45a1.603 1.603 0 0 1-.412-.814l-.325.069Zm1.48 1.516c.203.053.506.072 1.21.087l.006-.332c-.717-.016-.975-.036-1.131-.076l-.084.321Zm1.21.087.933.02.007-.332-.934-.02-.007.332Zm.942-2.05-.484-.017-.011.332.484.017.011-.332Zm-.484-.017c-.277-.009-.42-.025-.507-.056-.068-.024-.105-.057-.158-.146l-.286.169a.597.597 0 0 0 .333.29c.144.051.337.066.607.076l.011-.332Zm-.665-.202-.008-.017a.382.382 0 0 1-.012-.07 7.258 7.258 0 0 1-.022-.554c-.01-.616-.013-1.807-.018-4.169h-.332c.005 2.361.007 3.555.018 4.175.005.308.012.48.024.585a.693.693 0 0 0 .025.132c.012.04.028.067.04.087l.285-.169Zm-.06-4.81-.01-4.769-.332.001.01 4.769h.332Zm-2.481-4.768v4.974h.332V6.977h-.332Zm-59.411 8.292 1.74-.02-.003-.333-1.741.02.004.333Zm1.74-.02c.721-.01 1.338-.017 1.808-.03.464-.011.803-.028.955-.057l-.063-.326c-.119.023-.425.04-.9.052-.468.012-1.082.02-1.803.028l.004.332Zm2.763-.087c1.258-.242 2.107-.713 2.658-1.513l-.274-.189c-.485.706-1.242 1.144-2.447 1.376l.063.326Zm2.658-1.513c.473-.689.682-1.755.586-2.86l-.331.03c.092 1.056-.114 2.037-.53 2.641l.275.189Zm.586-2.86c-.082-.944-.321-1.567-.836-2.113l-.242.228c.45.477.67 1.02.747 1.915l.33-.03Zm-.836-2.113c-.473-.502-1.02-.809-1.782-1.012l-.086.32c.713.19 1.202.47 1.626.92l.242-.228Zm-6.341-1.24-2.84-.014v.332l2.838.015.002-.332Zm3.37 2.159c.399.103.624.223.815.412l.234-.235c-.246-.245-.532-.387-.966-.499l-.084.322Zm.815.412c.164.163.263.32.323.525.06.212.081.485.07.887l.332.01c.012-.412-.008-.727-.083-.99a1.485 1.485 0 0 0-.408-.667l-.234.235Zm.393 1.412c-.01.323-.024.512-.06.66-.035.142-.09.253-.195.416l.279.18c.115-.179.192-.325.239-.517.045-.186.06-.407.07-.73l-.333-.009Zm-.255 1.076c-.2.308-.581.53-1.182.634l.057.328c.649-.113 1.134-.366 1.404-.782l-.28-.18Zm-1.182.634c-.104.018-.413.032-.846.04-.427.009-.957.012-1.493.012v.332c.537 0 1.07-.003 1.5-.011.421-.009.76-.022.896-.045l-.057-.328Zm-2.34.052h-1.392v.332h1.393v-.332Zm-1.393-3.692 1.514.016.004-.332-1.515-.016-.003.332Zm17.73.735c-1.15.15-2.052.555-2.676 1.227l.243.226c.557-.6 1.379-.981 2.475-1.123l-.043-.33Zm-1.413 2.982a.174.174 0 0 0 .098-.03.925.925 0 0 0 .076-.063l.118-.117c.089-.09.18-.185.23-.234l-.229-.24c-.055.053-.155.157-.237.24a5.203 5.203 0 0 1-.14.136l.002-.001a.139.139 0 0 1 .017-.01c.005-.002.03-.013.066-.013v.332Zm.523-.444c.187-.179.596-.399.918-.486l-.087-.32c-.365.098-.825.341-1.06.566l.229.24Zm.918-.486c.148-.04.4-.067.666-.073.267-.006.528.008.694.042l.066-.326a3.793 3.793 0 0 0-.767-.048 3.471 3.471 0 0 0-.746.084l.087.321Zm1.36-.031c.537.108.806.305.95.62l.302-.138c-.203-.446-.588-.687-1.186-.808l-.066.326Zm.95.62c.042.092.063.15.076.22.015.074.022.167.028.332l.332-.012a2.552 2.552 0 0 0-.034-.383 1.232 1.232 0 0 0-.1-.295l-.302.138Zm.104.553.014.386.332-.012-.014-.387-.332.013Zm.18.214-1.846.014.003.332 1.845-.014-.003-.332Zm-1.846.014c-1.714.014-1.881.019-2.225.096l.073.324c.3-.067.421-.074 2.155-.088l-.003-.332Zm-2.225.096c-.89.2-1.498.604-1.83 1.261l.296.15c.275-.543.782-.902 1.607-1.087l-.073-.324Zm-1.83 1.261c-.192.38-.257.73-.257 1.297h.332c0-.536.06-.83.221-1.147l-.296-.15Zm-.257 1.297c0 .577.065.916.267 1.323l.298-.148c-.173-.348-.233-.634-.233-1.175h-.332Zm.267 1.323c.42.843 1.223 1.305 2.417 1.451l.04-.33c-1.125-.138-1.806-.559-2.16-1.269l-.297.148Zm2.417 1.451c.218.027.558.032.884.021.327-.01.658-.036.859-.077l-.066-.325c-.172.034-.48.06-.803.07-.322.01-.64.005-.834-.019l-.04.33Zm1.743-.056c.653-.131 1.278-.414 1.72-.784l-.214-.255c-.392.329-.964.59-1.572.714l.066.325Zm1.72-.784.255-.214-.213-.255-.256.214.214.255Zm-.01-.295c.1.342.274.614.466.81.189.192.406.32.599.352l.054-.328c-.101-.017-.258-.097-.416-.257a1.606 1.606 0 0 1-.385-.67l-.319.093Zm1.065 1.162c.268.044.72.043 1.09.033a20.936 20.936 0 0 0 .637-.028l.04-.003h.015l-.01-.166-.012-.166h-.003l-.01.001-.04.002a16.256 16.256 0 0 1-.626.028c-.376.01-.796.01-1.026-.029l-.055.328Zm1.273-3.253c0-1.312-.002-2.063-.01-2.514-.008-.448-.023-.614-.054-.746l-.323.076c.021.092.036.225.045.676.008.447.01 1.195.01 2.508h.332Zm-.064-3.26c-.158-.675-.458-1.203-.932-1.592-.472-.386-1.1-.622-1.896-.74l-.049.329c.76.112 1.325.333 1.734.668.407.333.675.793.82 1.41l.323-.075Zm-2.828-2.332c-.188-.028-.62-.046-1.034-.052-.414-.007-.84-.002-1.014.02l.043.33c.146-.019.546-.025.966-.018.418.006.828.025.99.049l.049-.329Zm17.647-.167c-.762.111-1.379.326-1.842.655-.466.333-.77.778-.909 1.332l.322.08c.12-.477.378-.854.78-1.141.405-.29.966-.49 1.697-.597l-.048-.329Zm-2.75 1.986c-.049.192-.061.502-.051.79.01.288.045.591.108.766l.312-.112c-.044-.123-.078-.381-.088-.666-.01-.282.004-.553.04-.696l-.322-.082Zm.057 1.556c.203.564.544.95 1.086 1.227l.152-.295c-.469-.24-.752-.561-.926-1.044l-.312.112Zm1.086 1.227c.606.312 1.236.456 2.424.574l.033-.33c-1.175-.117-1.755-.257-2.305-.54l-.152.296Zm2.424.574c.638.064 1.043.121 1.308.193.26.07.36.148.418.234l.275-.186c-.121-.18-.308-.289-.607-.37-.295-.079-.724-.138-1.36-.201l-.034.33Zm1.726.427a.58.58 0 0 1 .083.347.651.651 0 0 1-.122.359l.264.202a.984.984 0 0 0 .19-.544.909.909 0 0 0-.14-.55l-.275.186Zm-.04.706a.801.801 0 0 1-.242.166 1.757 1.757 0 0 1-.401.145l.07.325c.16-.035.333-.1.48-.173.14-.07.282-.162.358-.261l-.264-.202Zm-.643.31c-.296.064-.992.084-1.455.037l-.034.33c.483.05 1.217.032 1.559-.041l-.07-.325Zm-1.455.037a9.296 9.296 0 0 1-2.185-.47l-.106.314a9.613 9.613 0 0 0 2.257.486l.034-.33Zm-2.185-.47a9.582 9.582 0 0 0-.432-.134.52.52 0 0 0-.074-.011c-.006 0-.02 0-.036.003-.01.002-.056.01-.094.053l.25.22c-.038.043-.084.051-.092.053a.14.14 0 0 1-.044.002h-.003l.015.003a9.022 9.022 0 0 1 .404.125l.105-.315Zm-.636-.089a.164.164 0 0 0-.026.041l-.006.012a.751.751 0 0 0-.025.07l-.06.176-.183.56.316.103a62.192 62.192 0 0 1 .257-.775l.002-.006v-.002l-.001.004a.134.134 0 0 1-.005.01s-.008.014-.02.027l-.249-.22Zm-.3.86-.253.785.316.102.253-.785-.316-.102Zm-.152.993.295.106.113-.313-.295-.106-.113.313Zm.295.106c1.09.393 2.086.581 3.283.619l.01-.332a9.809 9.809 0 0 1-3.18-.6l-.113.313Zm3.283.619c1.706.053 2.882-.242 3.627-.977l-.233-.237c-.647.638-1.706.934-3.383.882l-.01.332Zm3.627-.977a2.24 2.24 0 0 0 .55-.819c.115-.305.162-.648.16-1.056l-.333.002c.002.383-.042.682-.138.938a1.908 1.908 0 0 1-.472.698l.233.237Zm.71-1.875c-.004-.483-.07-.883-.223-1.217a1.83 1.83 0 0 0-.71-.801l-.179.28c.273.174.463.386.587.659.126.276.19.625.192 1.08l.332-.001Zm-.933-2.018c-.558-.356-1.148-.495-2.726-.68l-.039.33c1.584.186 2.1.32 2.586.63l.18-.28Zm-2.726-.68c-.588-.068-.962-.126-1.215-.196-.248-.068-.368-.143-.46-.239l-.24.23c.145.152.326.251.612.33.28.076.677.137 1.264.206l.039-.33Zm-1.674-.435a.39.39 0 0 1-.081-.214.456.456 0 0 1 .032-.249l-.294-.153a.784.784 0 0 0-.068.44.713.713 0 0 0 .17.405l.24-.229Zm-.049-.463c.083-.16.223-.276.495-.352.28-.077.687-.107 1.277-.092l.008-.332c-.597-.015-1.043.013-1.374.104-.338.094-.566.26-.7.52l.294.152Zm1.772-.444c.817.02 1.344.099 2.025.3l.094-.319c-.713-.21-1.269-.292-2.11-.313l-.009.332Zm2.025.3a9.597 9.597 0 0 0 .467.123c.03.007.067.014.095.016l.015-.332c.004 0-.006 0-.04-.008a9.117 9.117 0 0 1-.442-.118l-.095.319Zm.562.139a.235.235 0 0 0 .17-.057.425.425 0 0 0 .1-.15c.05-.11.118-.31.236-.66l-.315-.105c-.12.36-.182.538-.223.628-.022.048-.027.047-.015.036a.107.107 0 0 1 .041-.021c.015-.004.024-.003.021-.003l-.015.332Zm.506-.867c.113-.34.178-.538.207-.656a.52.52 0 0 0 .019-.168.224.224 0 0 0-.092-.163l-.196.268a.108.108 0 0 1-.043-.072c0-.007.002.004-.011.057-.024.1-.083.283-.2.629l.316.105Zm.134-.987a.476.476 0 0 0-.1-.05 2.54 2.54 0 0 0-.126-.046 11.525 11.525 0 0 0-1.169-.311l-.065.325a11.258 11.258 0 0 1 1.128.3l.109.04c.033.013.036.017.027.01l.196-.268Zm-1.394-.408c-.688-.137-1.232-.184-2.102-.18l.002.332c.853-.003 1.373.042 2.034.174l.066-.326Zm-2.102-.18c-.466.002-.967.024-1.168.053l.048.33c.175-.026.655-.049 1.122-.05l-.001-.333Zm28.764.053c-1.048.163-2.014.662-2.577 1.349l.257.21c.5-.61 1.385-1.077 2.371-1.23l-.05-.33Zm-2.577 1.349c-.293.357-.59.986-.71 1.49l.323.077c.11-.463.388-1.044.644-1.357l-.257-.21Zm-.71 1.49c-.087.37-.1.533-.118 1.288l.332.007c.017-.75.03-.885.11-1.218l-.324-.076Zm-.118 1.288c-.027 1.22.05 1.813.347 2.496l.304-.132c-.268-.618-.345-1.156-.319-2.357l-.332-.007Zm.347 2.496c.504 1.164 1.556 1.88 3.081 2.146l.058-.327c-1.448-.253-2.386-.916-2.835-1.95l-.304.131Zm3.081 2.146c.268.047.796.068 1.307.067.512 0 1.035-.023 1.292-.07l-.06-.327c-.224.041-.719.065-1.232.065-.512 0-1.014-.02-1.25-.062l-.056.327Zm2.6-.003c.825-.154 1.581-.388 2.197-.686l-.144-.299c-.584.282-1.311.51-2.114.658l.06.327Zm2.197-.686.42-.202-.145-.3-.42.203.145.3Zm.5-.42-.335-.75-.303.135.334.75.303-.134Zm-.335-.75a18.517 18.517 0 0 0-.331-.703.837.837 0 0 0-.052-.084.188.188 0 0 0-.026-.025c-.005-.004-.044-.038-.107-.038v.332c-.06 0-.1-.033-.103-.036l-.02-.02-.004-.005.02.033a18.5 18.5 0 0 1 .32.68l.303-.134Zm-.516-.85c-.029 0-.054.008-.057.009a5.042 5.042 0 0 0-.286.12l.14.301a4.737 4.737 0 0 1 .229-.099l.007-.002h.002v-.001l-.005.001c-.001 0-.013.003-.03.003v-.332Zm-.343.13c-.315.146-1.083.395-1.496.483l.07.325c.433-.093 1.225-.349 1.566-.508l-.14-.3Zm-1.496.483a5.435 5.435 0 0 1-1.556.11l-.031.332a5.765 5.765 0 0 0 1.656-.117l-.069-.325Zm-1.556.11c-.45-.041-.572-.069-.885-.19l-.12.309c.348.136.503.169.974.213l.03-.331Zm-.885-.19c-.611-.24-1.006-.777-1.067-1.467l-.33.029c.07.81.541 1.46 1.276 1.747l.121-.31Zm-1.067-1.467-.01-.127-.332.029.012.127.33-.03Zm6.357-.13v-.704h-.332v.703h.332Zm0-.704c0-.995-.084-1.53-.35-2.146l-.305.132c.242.557.323 1.042.323 2.014h.332Zm-.35-2.146c-.507-1.17-1.615-1.925-3.093-2.149l-.05.329c1.392.21 2.386.91 2.838 1.952l.305-.133Zm-3.093-2.149a8.045 8.045 0 0 0-1.02-.049c-.391 0-.792.017-1.016.052l.051.328a7.66 7.66 0 0 1 .966-.048c.39 0 .77.016.97.046l.05-.329Zm-44.834 6.182.095.347.32-.088-.094-.346-.32.087Zm.095.347c.172.627.487 1.133.95 1.51.463.375 1.062.615 1.79.73l.052-.33c-.687-.107-1.226-.328-1.632-.658-.403-.328-.684-.771-.84-1.34l-.32.088Zm2.74 2.24c.798.124 2.077.105 2.805-.045l-.067-.325c-.685.14-1.924.16-2.686.04l-.052.33Zm2.805-.045c1.39-.286 2.327-1.102 2.631-2.335l-.322-.08c-.269 1.088-1.09 1.825-2.376 2.09l.067.325Zm2.631-2.335c.032-.13.048-.294.058-.736.01-.446.015-1.19.021-2.49l-.332-.002c-.006 1.302-.01 2.042-.021 2.485-.01.446-.026.575-.048.663l.322.08Zm.08-3.227.012-2.94-.332-.002-.013 2.94.332.002Zm-2.46-2.942-.012 2.76.332.001.012-2.76-.332-.001Zm-.012 2.76a140.37 140.37 0 0 1-.02 2.366c-.01.398-.028.475-.05.541l.316.105c.04-.119.056-.242.066-.637.01-.4.015-1.096.02-2.374l-.332-.001Zm-.07 2.907c-.113.341-.289.57-.543.718-.259.15-.618.227-1.117.226v.332c.527.002.953-.078 1.285-.271.336-.196.556-.498.69-.9l-.315-.105Zm-1.66.944c-.538-.001-.927-.111-1.19-.31-.26-.197-.422-.497-.476-.927l-.33.041c.062.497.257.888.605 1.15.343.26.813.377 1.39.379l.001-.333Zm-1.666-1.237a14.94 14.94 0 0 1-.026-.896c-.007-.495-.01-1.16-.01-1.934h-.332c0 .775.003 1.441.01 1.938.006.49.016.828.029.933l.33-.04Zm-.036-2.83v-2.543h-.332v2.543h.332Zm42.114-.81c.624.168 1.013.565 1.156 1.17l.324-.076c-.172-.728-.656-1.216-1.394-1.415l-.086.32Zm1.156 1.17c.028.118.05.286.05.364l.333-.001c0-.111-.028-.305-.06-.439l-.323.077Zm.05.364.001.172.332-.001v-.172h-.332Zm-3.875.171v-.11h-.332v.11h.332Zm0-.11c0-.081.024-.232.065-.398.04-.164.092-.322.138-.418l-.3-.143a2.76 2.76 0 0 0-.16.482 2.261 2.261 0 0 0-.075.477h.332Zm.203-.816c.052-.11.15-.239.271-.36.121-.12.257-.224.38-.285l-.15-.297c-.161.081-.325.208-.465.347a1.721 1.721 0 0 0-.336.452l.3.143Zm.65-.645c.293-.148.68-.219 1.188-.202l.012-.332c-.542-.018-.99.055-1.35.237l.15.297Zm1.188-.202c.248.009.53.041.628.067l.086-.32a4.04 4.04 0 0 0-.702-.079l-.012.332Zm-14.743.184c.63.142 1.04.524 1.233 1.15l.317-.098c-.226-.738-.73-1.207-1.477-1.376l-.073.324Zm1.233 1.15c.049.159.06.289.06 1.181h.331c0-.87-.007-1.06-.074-1.28l-.317.098Zm.06 1.181c0 .902-.011 1.02-.061 1.181l.317.1c.069-.221.075-.402.075-1.28h-.332Zm-.061 1.181c-.097.31-.212.51-.387.696l.24.228c.218-.228.355-.477.464-.824l-.317-.1Zm-.387.696a1.312 1.312 0 0 1-.584.37c-.241.075-.549.11-.98.11v.332c.444 0 .791-.035 1.08-.126.294-.093.52-.242.725-.458l-.241-.228Zm-1.564.48c-.466 0-.613-.015-.817-.069l-.085.321c.248.066.43.08.903.08v-.332Zm-.817-.069c-.35-.093-.608-.225-.799-.404-.19-.178-.323-.412-.41-.725l-.32.089c.1.359.26.65.503.878.242.227.554.381.94.483l.086-.32Zm-1.21-1.13a2.64 2.64 0 0 1-.046-.43c-.01-.207-.017-.46-.016-.712 0-.253.006-.505.018-.714.012-.215.029-.368.047-.434l-.32-.088a2.883 2.883 0 0 0-.06.504c-.011.216-.017.474-.018.732 0 .257.006.515.018.73.011.21.029.397.058.502l.32-.09Zm.003-2.29c.091-.334.243-.594.452-.79.209-.195.482-.334.828-.409l-.07-.324a2.04 2.04 0 0 0-.985.49 1.98 1.98 0 0 0-.546.945l.32.088Zm1.28-1.199a4.13 4.13 0 0 1 .736-.051c.3 0 .582.019.727.051l.073-.324c-.184-.041-.498-.06-.8-.06a4.41 4.41 0 0 0-.807.06l.07.324Zm-32.106 3.546c0 .402-.014.494-.064.627l.31.117c.074-.195.086-.34.086-.744h-.332Zm-.064.627c-.094.251-.296.462-.618.617l.145.3c.38-.184.653-.452.784-.8l-.311-.117Zm-.618.617c-.355.172-.62.235-1.12.26l.017.333c.535-.028.845-.1 1.248-.293l-.145-.3Zm-1.12.26c-.757.04-1.19-.087-1.452-.35l-.236.234c.365.366.92.49 1.705.449l-.017-.332Zm-1.452-.35a.69.69 0 0 1-.179-.254 1.111 1.111 0 0 1-.044-.378h-.333c0 .194.014.35.065.492.052.144.138.257.256.374l.235-.234Zm-.223-.632c0-.322.044-.443.147-.559l-.25-.22c-.18.204-.23.421-.23.779h.333Zm.147-.559a.634.634 0 0 1 .167-.146.81.81 0 0 1 .278-.082c.28-.044.747-.052 1.627-.054v-.332c-.87.002-1.366.01-1.678.057a1.13 1.13 0 0 0-.389.12.958.958 0 0 0-.255.218l.25.22Zm2.072-.282 1.424-.002v-.333l-1.425.003.001.332Zm1.258-.169v.488h.332v-.488h-.332Zm-5.135-3.548 1.142 1.476.263-.204-1.142-1.476-.263.204Zm7.608 5.037c0 .003-.004-.007-.009-.038a1.041 1.041 0 0 1-.009-.11 3.452 3.452 0 0 1 .004-.296c.005-.104.013-.202.019-.275l.008-.087a.78.78 0 0 1 .002-.023v-.006l.001-.002-.165-.018-.165-.018v.002l-.001.007-.003.025-.008.091a7.407 7.407 0 0 0-.02.287 3.816 3.816 0 0 0-.004.327c.002.05.006.1.013.146a.473.473 0 0 0 .04.137l.297-.149Zm.681 2.234v-1.91h-.332v1.91h.333Zm-.166-1.91.024-.165h-.005a1.219 1.219 0 0 1-.473-.125c-.063-.03-.068-.047-.061-.034l-.298.149a.446.446 0 0 0 .217.185c.08.037.17.066.252.088a2.991 2.991 0 0 0 .293.062l.02.003h.007v.001l.024-.164ZM27.754 7.769h.097l.002-.332h-.097l-.002.332Zm.097 0c2.992.017 3.649.021 4.379.216l.085-.321c-.782-.208-1.495-.21-4.462-.227l-.002.333Zm3.358 1.504c-.162-.042-.44-.062-.83-.074-.395-.013-.924-.018-1.599-.025l-.003.332c.676.007 1.201.012 1.592.025.397.013.637.033.756.064l.084-.322Zm-2.429-.1h-.098l-.004.332.099.001.003-.332Zm11.587 9.66v-1.727h-.332v1.728h.332ZM38.82 6.978h-2.138v.332h2.138v-.332Zm32.228 0V8.93h.332V6.977h-.332Zm.166 2.12h2.213v-.332h-2.213v.332Zm2.38-.166V6.977h-.333V8.93h.333Zm-.167-2.12h-2.213v.332h2.213V6.81Zm2.192.166v11.692h.333V6.977h-.333Zm.168 11.858 2.014-.02-.004-.331-2.013.019.003.332Zm2.178-.182.02-.927-.332-.007-.02.927.332.007Zm.145-7.504-.019-4.173-.332.001.02 4.173.331-.001Zm-.185-4.338h-2.14v.332h2.14V6.81Zm12.523 11.867V16.94h-.332v1.738h.332ZM88.902 6.81h-2.139v.332h2.14V6.81Zm-64.152.777v11.08h.332V7.588h-.332Zm.166 11.246h2.249v-.332h-2.249v.332Zm2.415-.165.019-3.566-.333-.001L27 18.667l.332.002Zm0-5.322V9.323H27v4.024h.333Zm66.135 1.922 6.368-.019-.001-.332-6.367.019v.332Zm-41.773-4.962.023 5.918.332-.001-.023-5.918-.332.001Zm8.226-.166h-2.14v.332h2.14v-.332Zm-5.916 0h-2.144v.332h2.144v-.332Zm17.082.166v8.36h.332v-8.36h-.332Zm.166 8.527h2.14v-.332h-2.14v.332Zm2.306-.166v-8.361h-.332v8.36h.332Zm-.166-8.527h-2.14v.332h2.14v-.332Zm24.265 3.438h-4.208v.332h4.208v-.332Z"/></g></g><defs><radialGradient id="b" cx="0" cy="0" r="1" gradientTransform="matrix(18.8477 0 0 18.9493 15.377 2.414)" gradientUnits="userSpaceOnUse"><stop stop-color="#2440E6"/><stop offset="1" stop-color="#5661B3"/></radialGradient><radialGradient id="c" cx="0" cy="0" r="1" gradientTransform="rotate(-53.493 19.74 18.553) scale(9.28724 14.7369)" gradientUnits="userSpaceOnUse"><stop stop-color="#6574CD" stop-opacity=".5"/><stop offset="1" stop-color="#6574CD"/></radialGradient><clipPath id="a"><path fill="#fff" d="M0 0h100v26.08H0z"/></clipPath></defs></svg>