<svg xmlns="http://www.w3.org/2000/svg" width="48.64" height="64" fill="none" viewBox="0 0 38 50"><g clip-path="url(#a)"><path fill="url(#b)" d="M18.729 0c10.343 0 18.728 8.385 18.728 18.73 0 10.343-8.385 18.728-18.728 18.728C8.385 37.457 0 29.072 0 18.73 0 8.385 8.385 0 18.729 0"/><path fill="url(#c)" d="M15.518.21c-3.87.673-7.13 2.315-9.83 4.953-2.776 2.713-4.493 5.874-5.327 9.82l-.286 1.343-.038 16.825L0 49.988h.348c.2 0 .834-.062 1.407-.125 4.89-.597 9.047-3.559 11.311-8.051.573-1.145.984-2.464 1.27-4.107.236-1.393.249-1.854.211-9.121l-.037-7.654.299-.746c.41-1.02 1.543-2.153 2.563-2.564l.747-.298 6.969-.013c3.832 0 7.192-.05 7.454-.1 1.22-.236 2.526-1.256 3.049-2.389.149-.31.348-.92.435-1.331.137-.685.125-.871-.075-1.643-.622-2.29-2.812-5.463-5.052-7.317-2.539-2.103-5.338-3.51-8.362-4.219-1.593-.36-5.202-.423-7.019-.1"/></g><defs><radialGradient id="b" cx="0" cy="0" r="1" gradientTransform="translate(29.64 4.628)scale(36.3297)" gradientUnits="userSpaceOnUse"><stop stop-color="#2440e6"/><stop offset="1" stop-color="#5661b3"/></radialGradient><radialGradient id="c" cx="0" cy="0" r="1" gradientTransform="rotate(-53.345 37.952 35.683)scale(17.8396 28.3518)" gradientUnits="userSpaceOnUse"><stop stop-color="#6574cd" stop-opacity=".5"/><stop offset="1" stop-color="#6574cd"/></radialGradient><clipPath id="a"><path fill="#fff" d="M0 0h37.462v50H0z"/></clipPath></defs></svg>