<svg xmlns="http://www.w3.org/2000/svg" width="278.261" height="64" fill="none" viewBox="0 0 100 23"><g clip-path="url(#a)"><path fill="#88CFB0" d="M7.695 21.811v-6.685h6.993v2.734a3.959 3.959 0 0 1-3.958 3.951H7.695Z"/><path fill="#2F2F3A" d="M10.715 22.378H7.148v-7.819h8.084v3.301a4.524 4.524 0 0 1-4.517 4.518Zm-2.44-1.133h2.44a3.391 3.391 0 0 0 3.392-3.385v-2.168H8.274v5.553Z"/><path fill="#F2C94C" d="M14.852 14.937v-7.09h6.993v3.132a3.95 3.95 0 0 1-3.951 3.958h-3.042Z"/><path fill="#2F2F3A" d="M17.863 15.504h-3.574V7.28h8.091v3.7a4.525 4.525 0 0 1-4.517 4.524Zm-2.441-1.133h2.44a3.391 3.391 0 0 0 3.385-3.392V8.392h-5.825v5.979Z"/><path fill="#BD83CE" d="M14.661 7.846H7.703v7.091h6.958v-7.09Z"/><path fill="#2F2F3A" d="M15.232 15.504H7.148V7.28h8.084v8.224ZM8.24 14.37h5.832V8.392H8.274l-.035 5.979Z"/><path fill="#40BE88" d="M.57 7.692V4.517A3.951 3.951 0 0 1 4.521.567h3.007v7.125H.57Z"/><path fill="#2F2F3A" d="M8.09 8.224H0V4.517A4.524 4.524 0 0 1 4.517 0h3.574v8.224ZM1.134 7.09h5.86V1.133H4.517a3.385 3.385 0 0 0-3.384 3.384v2.574Z"/><path fill="#FF7474" d="M14.852 7.692V.566h3.007a3.951 3.951 0 0 1 3.95 3.951v3.175h-6.957Z"/><path fill="#2F2F3A" d="M22.38 8.224h-8.09V0h3.573a4.525 4.525 0 0 1 4.517 4.517v3.707ZM15.422 7.09h5.825V4.517a3.385 3.385 0 0 0-3.384-3.384h-2.441V7.09Z"/><path fill="#6776F9" d="M14.661.566H7.703v7.091h6.958V.567Z"/><path fill="#2F2F3A" d="M15.232 8.224H7.148V0h8.084v8.224ZM8.24 7.09h5.832V1.133H8.274L8.24 7.09Z"/><path fill="#37C2E2" d="M.57 17.86v-2.734h6.993v6.685H4.521a3.951 3.951 0 0 1-3.95-3.95Z"/><path fill="#2F2F3A" d="M8.09 22.378H4.518A4.524 4.524 0 0 1 0 17.86v-3.3h8.09v7.818Zm-6.957-6.686v2.168a3.385 3.385 0 0 0 3.384 3.385h2.476v-5.553h-5.86Z"/><path fill="#F2994A" d="M7.528 7.846H.57v7.091h6.958v-7.09Z"/><path fill="#2F2F3A" d="M8.09 15.504H0V7.28h8.09v8.224ZM1.134 14.37h5.86V8.392h-5.86v5.979Z"/><path fill="#000" d="M30.594 15.793V4.187h3.945c.987 0 1.83.158 2.532.474.712.316 1.255.774 1.628 1.373.372.6.559 1.325.559 2.175 0 .588-.116 1.127-.346 1.618a3.62 3.62 0 0 1-.953 1.275 4.423 4.423 0 0 1-1.463.817 6.147 6.147 0 0 1-1.907.278c-.373 0-.768-.032-1.184-.098v3.694h-2.811Zm2.81-9.235v3.187c.384.055.735.082 1.053.082.614 0 1.085-.136 1.414-.409.34-.283.51-.692.51-1.226 0-.523-.165-.926-.494-1.21-.318-.283-.783-.424-1.397-.424h-1.085ZM43.956 16.039a4.896 4.896 0 0 1-1.84-.344 4.62 4.62 0 0 1-1.48-.964 4.403 4.403 0 0 1-.97-1.455 4.693 4.693 0 0 1-.346-1.815c0-.653.115-1.258.346-1.814.24-.567.57-1.057.986-1.471a4.451 4.451 0 0 1 1.496-.981c.58-.24 1.205-.36 1.874-.36.658 0 1.266.115 1.825.344.57.229 1.063.555 1.48.98.427.415.756.9.986 1.455.23.556.345 1.161.345 1.815 0 .654-.12 1.264-.361 1.83a4.287 4.287 0 0 1-.987 1.455 4.562 4.562 0 0 1-1.496.981 4.94 4.94 0 0 1-1.858.344Zm.033-2.403c.362 0 .69-.093.987-.278a2 2 0 0 0 .69-.785 2.41 2.41 0 0 0 .263-1.128c0-.425-.088-.8-.263-1.128a1.86 1.86 0 0 0-.69-.784 1.746 1.746 0 0 0-.987-.295c-.361 0-.69.098-.986.295a1.974 1.974 0 0 0-.707.784 2.476 2.476 0 0 0-.247 1.128c0 .414.083.79.247 1.128.175.327.411.589.707.785.296.185.625.278.986.278ZM49.328 15.793V3.566h2.68v12.227h-2.68ZM54.682 19.16c-.318 0-.619-.032-.904-.097a3.013 3.013 0 0 1-.806-.31l.477-2.044c.12.054.263.103.428.147.175.044.34.065.493.065.296 0 .553-.092.773-.278.219-.174.405-.452.559-.833l.065-.147-3.501-8.582h2.942l1.809 5.721 1.61-5.721h2.845l-3.485 9.334c-.351.937-.795 1.629-1.332 2.076-.537.447-1.194.67-1.973.67Z"/><path fill="#000" d="m64.12 15.793-2.893-8.712h2.794l1.381 5.508 1.579-5.508h2.367l1.578 5.541 1.43-5.541h2.696l-2.893 8.712h-2.482l-1.546-5.46-1.561 5.46h-2.45ZM79.3 16.039a4.897 4.897 0 0 1-1.841-.344 4.63 4.63 0 0 1-1.48-.964 4.423 4.423 0 0 1-.97-1.455 4.697 4.697 0 0 1-.345-1.815c0-.653.115-1.258.345-1.814.241-.567.57-1.057.987-1.471a4.448 4.448 0 0 1 1.495-.981 4.865 4.865 0 0 1 1.874-.36c.659 0 1.266.115 1.826.344a4.28 4.28 0 0 1 1.48.98c.427.415.755.9.985 1.455a4.7 4.7 0 0 1 .346 1.815c0 .654-.121 1.264-.362 1.83a4.278 4.278 0 0 1-.986 1.455 4.563 4.563 0 0 1-1.496.981c-.57.23-1.19.344-1.858.344Zm.033-2.403c.361 0 .69-.093.986-.278.296-.196.526-.458.69-.785a2.41 2.41 0 0 0 .263-1.128c0-.425-.087-.8-.263-1.128a1.861 1.861 0 0 0-.69-.784 1.747 1.747 0 0 0-.986-.295c-.362 0-.69.098-.986.295a1.976 1.976 0 0 0-.707.784 2.477 2.477 0 0 0-.247 1.128c0 .414.082.79.247 1.128.175.327.41.589.707.785.295.185.624.278.986.278ZM84.672 15.793V7.081h2.466l.098 1.39c.209-.48.499-.85.871-1.112a2.207 2.207 0 0 1 1.3-.393c.142 0 .285.011.427.033.143.022.269.06.378.114l-.263 2.648a1.458 1.458 0 0 0-.378-.081 2.134 2.134 0 0 0-.378-.033c-.613 0-1.074.174-1.381.523-.307.338-.46.834-.46 1.488v4.135h-2.68ZM90.648 15.793V3.566h2.68v6.996l2.894-3.481h3.041l-3.354 3.857 3.748 4.855h-3.304l-3.025-4.282v4.282h-2.68Z"/></g><defs><clipPath id="a"><path fill="#fff" d="M0 0h100v22.378H0z"/></clipPath></defs></svg>