<svg xmlns="http://www.w3.org/2000/svg" width="278.261" height="64" fill="none" viewBox="0 0 100 23"><g clip-path="url(#a)"><path fill="#88cfb0" d="M7.695 21.811v-6.685h6.993v2.734a3.96 3.96 0 0 1-3.958 3.951z"/><path fill="#2f2f3a" d="M10.715 22.378H7.148v-7.819h8.084v3.301a4.524 4.524 0 0 1-4.517 4.518m-2.44-1.133h2.44a3.39 3.39 0 0 0 3.392-3.385v-2.168H8.274v5.553Z"/><path fill="#f2c94c" d="M14.852 14.937v-7.09h6.993v3.132a3.95 3.95 0 0 1-3.951 3.958z"/><path fill="#2f2f3a" d="M17.863 15.504h-3.574V7.28h8.091v3.7a4.525 4.525 0 0 1-4.517 4.524m-2.441-1.133h2.44a3.39 3.39 0 0 0 3.385-3.392V8.392h-5.825z"/><path fill="#bd83ce" d="M14.661 7.846H7.703v7.091h6.958v-7.09Z"/><path fill="#2f2f3a" d="M15.232 15.504H7.148V7.28h8.084zM8.24 14.37h5.832V8.392H8.274l-.035 5.979Z"/><path fill="#40be88" d="M.57 7.692V4.517A3.95 3.95 0 0 1 4.521.567h3.007v7.125z"/><path fill="#2f2f3a" d="M8.09 8.224H0V4.517A4.524 4.524 0 0 1 4.517 0h3.574v8.224ZM1.134 7.09h5.86V1.133H4.517a3.385 3.385 0 0 0-3.384 3.384z"/><path fill="#ff7474" d="M14.852 7.692V.566h3.007a3.95 3.95 0 0 1 3.95 3.951v3.175z"/><path fill="#2f2f3a" d="M22.38 8.224h-8.09V0h3.573a4.525 4.525 0 0 1 4.517 4.517zM15.422 7.09h5.825V4.517a3.385 3.385 0 0 0-3.384-3.384h-2.441z"/><path fill="#6776f9" d="M14.661.566H7.703v7.091h6.958V.567Z"/><path fill="#2f2f3a" d="M15.232 8.224H7.148V0h8.084zM8.24 7.09h5.832V1.133H8.274z"/><path fill="#37c2e2" d="M.57 17.86v-2.734h6.993v6.685H4.521a3.95 3.95 0 0 1-3.95-3.95Z"/><path fill="#2f2f3a" d="M8.09 22.378H4.518A4.524 4.524 0 0 1 0 17.86v-3.3h8.09zm-6.957-6.686v2.168a3.385 3.385 0 0 0 3.384 3.385h2.476v-5.553z"/><path fill="#f2994a" d="M7.528 7.846H.57v7.091h6.958v-7.09Z"/><path fill="#2f2f3a" d="M8.09 15.504H0V7.28h8.09zM1.134 14.37h5.86V8.392h-5.86z"/><path fill="#000" d="M30.594 15.793V4.187h3.945q1.48 0 2.532.474 1.068.474 1.628 1.373.558.9.559 2.175 0 .882-.346 1.618a3.6 3.6 0 0 1-.953 1.275 4.4 4.4 0 0 1-1.463.817 6.2 6.2 0 0 1-1.907.278q-.56 0-1.184-.098v3.694zm2.81-9.235v3.187q.576.082 1.053.082.92 0 1.414-.409.51-.425.51-1.226 0-.784-.494-1.21-.477-.424-1.397-.424zm10.552 9.481a4.9 4.9 0 0 1-1.84-.344 4.6 4.6 0 0 1-1.48-.964 4.4 4.4 0 0 1-.97-1.455 4.7 4.7 0 0 1-.346-1.815q0-.98.346-1.814a4.6 4.6 0 0 1 .986-1.471 4.45 4.45 0 0 1 1.496-.981q.87-.36 1.874-.36.987 0 1.825.344.855.343 1.48.98.64.622.986 1.455.345.834.345 1.815t-.361 1.83a4.3 4.3 0 0 1-.987 1.455 4.6 4.6 0 0 1-1.496.981 4.9 4.9 0 0 1-1.858.344m.033-2.403q.542 0 .987-.278a2 2 0 0 0 .69-.785 2.4 2.4 0 0 0 .263-1.128q0-.637-.263-1.128a1.86 1.86 0 0 0-.69-.784 1.75 1.75 0 0 0-.987-.295q-.542 0-.986.295a2 2 0 0 0-.707.784 2.5 2.5 0 0 0-.247 1.128q0 .621.247 1.128.263.49.707.785.444.278.986.278m5.339 2.157V3.566h2.68v12.227zm5.354 3.367q-.477 0-.904-.097a3 3 0 0 1-.806-.31l.477-2.044q.18.081.428.147.263.066.493.065.443 0 .773-.278.328-.261.559-.833l.065-.147-3.501-8.582h2.942l1.809 5.721 1.61-5.721h2.845l-3.485 9.334q-.527 1.406-1.332 2.076t-1.973.67Z"/><path fill="#000" d="m64.12 15.793-2.893-8.712h2.794l1.381 5.508 1.579-5.508h2.367l1.578 5.541 1.43-5.541h2.696l-2.893 8.712h-2.482l-1.546-5.46-1.561 5.46zm15.18.246a4.9 4.9 0 0 1-1.841-.344 4.6 4.6 0 0 1-1.48-.964 4.4 4.4 0 0 1-.97-1.455 4.7 4.7 0 0 1-.345-1.815 4.7 4.7 0 0 1 .345-1.814q.361-.85.987-1.471a4.45 4.45 0 0 1 1.495-.981 4.9 4.9 0 0 1 1.874-.36q.987 0 1.826.344a4.3 4.3 0 0 1 1.48.98q.64.622.985 1.455a4.7 4.7 0 0 1 .346 1.815q0 .981-.362 1.83a4.3 4.3 0 0 1-.986 1.455 4.6 4.6 0 0 1-1.496.981q-.856.345-1.858.344m.033-2.403q.542 0 .986-.278.444-.294.69-.785a2.4 2.4 0 0 0 .263-1.128q0-.637-.263-1.128a1.86 1.86 0 0 0-.69-.784 1.75 1.75 0 0 0-.986-.295q-.542 0-.986.295a2 2 0 0 0-.707.784 2.5 2.5 0 0 0-.247 1.128q0 .621.247 1.128.262.49.707.785.443.278.986.278m5.339 2.157V7.081h2.466l.098 1.39q.313-.72.871-1.112a2.2 2.2 0 0 1 1.3-.393q.213 0 .427.033.215.033.378.114l-.263 2.648a1.5 1.5 0 0 0-.378-.081 2 2 0 0 0-.378-.033q-.92 0-1.381.523-.46.507-.46 1.488v4.135zm5.976 0V3.566h2.68v6.996l2.894-3.481h3.041l-3.354 3.857 3.748 4.855h-3.304l-3.025-4.282v4.282z"/></g><defs><clipPath id="a"><path fill="#fff" d="M0 0h100v22.378H0z"/></clipPath></defs></svg>