<svg xmlns="http://www.w3.org/2000/svg" width="51.613" height="64" fill="none" viewBox="0 0 50 62"><g clip-path="url(#a)"><path fill="#EDC95E" fill-rule="evenodd" stroke="#000" stroke-miterlimit="2.613" stroke-width=".328" d="M38.649 52.492c-3.618 3.297-6.734 5.074-13.296 8.517-6.109-2.778-10.096-5.517-13.554-8.215-4.778-3.72-8.21-9.76-8.508-13.465L.907 4.07c16.15-4.2 33.327-4.105 48.186.28l-2.419 34.903c-.308 3.16-3.135 9.307-8.025 13.238Z" clip-rule="evenodd"/><path fill="#EDC95E" fill-rule="evenodd" stroke="#000" stroke-miterlimit="2.613" stroke-width=".328" d="M43.907 38.098 46.09 6.929C33.302 2.857 17.984 2.797 3.87 6.501L6.1 38.078c.232 3.281 2.596 8.3 7.127 12.145 2.727 2.316 8.07 6.203 12.016 7.692 4.546-2.3 8.68-5.16 11.956-7.983 4.063-3.7 6.462-8.301 6.709-11.834Z" clip-rule="evenodd"/><path fill="#EDC95E" fill-rule="evenodd" stroke="#000" stroke-miterlimit="2.613" stroke-width=".328" d="M36.675 49.11c-3.141 2.707-7.37 5.742-11.433 7.68-3.629-1.122-8.992-5.26-11.572-7.485-4.501-3.885-6.331-7.953-6.608-11.798L4.874 7.365c13.438-3.528 28.105-3.528 40.293.353l-2.162 29.739c-.313 3.955-2.152 7.736-6.33 11.652Z" clip-rule="evenodd"/><path stroke="#000" stroke-miterlimit="2.613" stroke-width=".328" d="m5.879 7.95.433 5.196Zm.433 5.196c12.828-3.206 26.265-2.885 37.42.488Zm37.42.488.478-5.285Zm.478-5.285C32.653 4.806 18.62 4.614 5.88 7.95Z"/><path fill="#000" fill-rule="evenodd" d="M37.778 9.879 34.885 9.4l-.112 1.359-.942-.14.222-3.605.963.14-.101 1.385 2.934.473.095-1.384.983.186-.297 3.614-.958-.176zM23.815 8.656c-.353 0-.635-.095-.822-.407-.16-.257-.16-1.093 0-1.37.177-.322.494-.412.757-.412l4.102.005.01.885-3.88-.005c-.192 0-.197.428.015.428h3.059c.358 0 .675.217.776.498.111.303.09.988 0 1.27-.086.281-.408.437-.812.437h-4.047l-.005-.906h3.604a.212.212 0 0 0 0-.423zm-2.373.36a.34.34 0 0 0-.353-.332l-2.722.196.055 1.35-.881.09-.187-3.559 4.053-.302a.773.773 0 0 1 .856.68c.03.387.046.885-.257 1.092.252.186.318.463.323.85l.01.911-.882.036z" clip-rule="evenodd"/><path fill="#EDC95E" fill-rule="evenodd" d="M20.863 7.861c.348-.02.318-.559 0-.528l-2.59.196.03.493z" clip-rule="evenodd"/><path fill="#000" fill-rule="evenodd" d="M12.376 7.388c.832-.196 2.535-.468 3.427-.533.408-.03.726.181.781.498a8.8 8.8 0 0 1 .121 2.497c-.025.292-.277.524-.61.594-1.144.252-2.429.388-3.382.478-.242.026-.625-.166-.69-.468-.166-.735-.227-1.762-.176-2.467.02-.261.262-.538.529-.599" clip-rule="evenodd"/><path fill="#EDC95E" fill-rule="evenodd" d="M15.613 9.556c.116-.025.166-.15.177-.241.04-.277.005-1.002-.061-1.244-.02-.095-.1-.156-.282-.14-.494.03-1.8.216-2.445.356-.171.041-.237.142-.247.232-.03.237.04.886.1 1.248.016.086.127.146.212.141.873-.07 1.901-.21 2.546-.352" clip-rule="evenodd"/><path fill="#000" fill-rule="evenodd" d="M29.906 7.538c-.191-.005-.322.111-.337.212-.046.297-.061.68-.061 1.178 0 .065.11.246.206.261.867.121 2.551.273 3.468.333l-.055.93c-1.205-.054-2.465-.246-3.77-.336-.429-.03-.741-.262-.757-.675-.025-.68.016-1.706.137-2.305.08-.368.433-.56.831-.549 1.204.046 2.162.152 3.74.363l-.06.926c-.766-.065-2.217-.292-3.342-.338m-19.723.27c1.22-.286 1.406 1.878.387 2.13l-2.842.71.136 1.399-.892.236-.318-3.644z" clip-rule="evenodd"/><path fill="#EDC95E" fill-rule="evenodd" d="M10.168 9.226c.292-.065.252-.589-.06-.523l-2.567.619.06.539z" clip-rule="evenodd"/><path fill="#000" fill-rule="evenodd" d="m40.332 10.419-.06.584 2.817.71-.075.815-3.78-.89.327-3.67 3.805.92-.085.856-2.833-.684-.056.62 2.813.684-.071.725z" clip-rule="evenodd"/><path stroke="#000" stroke-miterlimit="2.613" stroke-width=".328" d="M17.451 26.41v-3.055l.003-1.289.002-.624 7.243-.005-.005-9.896m0 0c-5.635 0-11.81.533-18.357 2.36ZM6.337 13.9l1.35 18.59h9.764v-6.08"/><path fill="#000" fill-rule="evenodd" d="M17.44 23.057c0-.065-.8-.126-1.2-.076-1.058.126-3.704.957-4.823 1.727-.025.066-.02.433-.096.604a.82.82 0 0 1-.393.387c-.287.126-.62-.256-.766-.2-.151.054-.474.186-.822-.061-.156-.11-.236-.423-.181-.654.05-.167.192-.298.303-.403.1-.1.03-.488.393-.72.252-.16.6-.03.867.11a.4.4 0 0 0 .146-.085c.035-.106.09-.428.141-.68.06-.271.081-.448.161-.7.202-.608.686-1.484 1.19-1.942.398-.352 1.018-.634 1.476-.604-.045.07-.614.579-.781.805-.393.523-.756 1.329-.927 2.013-.06.232-.06.318-.02.469.372-.167.856-.327 1.139-.418.11-.247.171-.529.267-.755.151-.353.248-.504.403-.75.449-.695 1.396-1.38 2.097-1.364-.232.201-.716.704-.907 1.006a5 5 0 0 0-.413.806 2.5 2.5 0 0 0-.152.644c.363-.105.721-.181.953-.196.156-.086.207-.252.293-.408.267-.498.79-1.057 1.123-1.238.267-.146.66-.287.943-.196-.303.226-.62.588-.761.805-.146.231-.383.68-.373.89.247.02.569.008.71-.027z" clip-rule="evenodd"/><path fill="#000" fill-rule="evenodd" d="M14.231 14.904c.383-.533 1.39-1.338 2.167-1.293-.423.367-.796.775-1.058 1.208-.343.559-.62 1.259-.68 1.797.256-.096.861-.267 1.21-.342.307-.67.71-1.41 1.21-1.808.357-.286.87-.533 1.35-.478-.111.156-.293.277-.429.404-.247.216-.418.508-.554.805-.101.221-.273.886-.277.916.347-.005.962.035 1.093.075.409-.533 1.3-1.308 2.37-1.132-.464.252-1.311.986-1.26 1.389.695.448 1.733 1.39 1.778 2.26-.473-.493-1.255-.982-1.648-1.117-.942-.333-2.066-.378-3.004-.207-1.955.368-3.684 1.213-5.342 2.205-.04.267-.187.67-.308.805-.12.136-.303.267-.499.298-.247.04-.499-.06-.71-.172-.137-.075-.495.02-.721-.1-.156-.081-.398-.308-.333-.665.056-.317.373-.508.418-.81.066-.443.388-.635.555-.665.181-.035.368.026.534.1.07.036.146.097.212.117.065-.02.16-.101.217-.126.015-.05.18-.971.272-1.374.09-.403.247-.745.378-1.122.393-1.118 1.608-2.245 2.58-2.185-.05.07-.363.297-.796.8-.7.82-.877 1.692-1.14 3.187a17 17 0 0 1 1.498-.61q.175-.696.463-1.354a4.7 4.7 0 0 1 .454-.806" clip-rule="evenodd"/><path fill="#CA3132" fill-rule="evenodd" d="m43.607 16.142-18.015.016.015 5.295 17.596-.01z" clip-rule="evenodd"/><path fill="#000" fill-rule="evenodd" d="M29.732 39.829a8 8 0 0 0-.176 1.384 9 9 0 0 1 .847-.312c.02-.03.378-.81.54-1.022a4.14 4.14 0 0 1 1.506-1.414c.388-.197.862-.378 1.28-.222-.55.262-.977.735-1.235 1.007-.237.252-.514.624-.64 1.006-.02.066-.04.202-.04.202.256-.08 1.078-.202 1.421-.247.04-.006.146-.232.227-.343.1-.135.16-.22.323-.402.413-.448 1.114-.926 1.794-.82a3.3 3.3 0 0 0-1.11 1.207c-.044.091-.105.217-.08.272.101.02.6.01.903.046.347-.216.716-.408 1.114-.493.448-.101 1.033-.02 1.265.19a1.8 1.8 0 0 0-.776.131c-.142.056-.424.187-.53.368.268.076.706.363.983.594.191.16.423.392.57.604.368.498.443 1.394.246 1.661a2.7 2.7 0 0 0-.2-.458 3 3 0 0 0-.692-.796c-1.144-.87-2.792-.915-4.137-.644-1.155.237-3.237.67-4.597 1.636.035.172-.072.458-.227.57-.207.15-.5-.056-.65.025-.207.105-.464.04-.57-.005a.55.55 0 0 1-.318-.479c-.015-.171.151-.377.186-.563.016-.076-.065-.449.253-.64.06-.035.242-.1.367-.08.126.025.227.105.353.126q.257-.092.49-.237c.1-.388.175-.836.226-1.234z" clip-rule="evenodd"/><path stroke="#000" stroke-miterlimit="2.613" stroke-width=".328" d="M42.01 37.422c-.327 4.52-2.47 7.656-5.65 10.753-1.966 1.918-6.582 5.41-10.791 7.544l-.005-14.48a8.1 8.1 0 0 0 3.085-.791l1.08-.63c2.241-1.769 3.017-4.187 3.017-6.523m9.264 4.127.297-4.117-9.56-.01"/><path fill="#000" fill-rule="evenodd" d="M29.906 45.187c.152-.232.333-.57.423-.716.318-.508.777-.886 1.09-1.031.428-.206 1.118-.328 1.426-.177-.338.081-.595.237-.832.403-.242.166-.716.6-.837.78a2.6 2.6 0 0 0-.262.478c.383-.085.842-.155 1.078-.155.172-.217.626-.735.963-.977.273-.191.852-.383 1.215-.227-.348.111-.962.595-1.19.942a1 1 0 0 0-.105.211c.186.016.539.05.73.076.02 0 .545-.322.782-.388.308-.085.812-.196 1.129.142-.232.004-.45.024-.62.1-.247.111-.353.191-.464.347.484.257.989.524 1.286.998.105.166.267.558.176.815a2.1 2.1 0 0 0-.524-.474c-.237-.136-.408-.266-.696-.377-.902-.338-2.082-.428-3.024-.302-1.22.156-2.717.76-3.483 1.284.05.236-.065.513-.201.578-.288.146-.564-.1-.615-.086-.076.026-.308.106-.474.036-.166-.066-.272-.358-.207-.544.05-.141.252-.343.252-.343-.03-.306.171-.492.449-.528.156-.015.267.106.393.13.116-.054.197-.094.258-.125.07-.252.176-.508.246-.72a4.2 4.2 0 0 1 .505-1.006c.311-.479.866-.931 1.527-.942-.202.157-.318.242-.444.398a5 5 0 0 0-.534.81 2.6 2.6 0 0 0-.283.977c.242-.116.615-.287.867-.387m-.097 2.722c.171-.07.352-.12.534-.1-.423.271-.812.669-.918 1.141-.01.051-.01.151.036.182.12-.03.428-.096.509-.136a3 3 0 0 1 .262-.382c.302-.403.736-.805 1.335-.654-.393.175-.62.422-.791.734-.03.056-.05.161-.01.161.1 0 .484-.015.539-.015.176-.156.69-.453 1.043-.342a1.8 1.8 0 0 0-.478.327c-.035.04-.081.09-.09.151.312.156.589.332.846.554.137.116.333.332.454.704-.303-.261-1.291-.73-1.83-.754a4.4 4.4 0 0 0-1.013.1c-.852.191-1.73.574-2.48 1.002.005.146-.02.323-.186.458-.111.09-.353.136-.444.005-.05-.07-.378.005-.449-.085 0 0-.086-.131-.096-.288-.01-.165.101-.266.192-.352.025-.03.02-.312.232-.408a.38.38 0 0 1 .373.03q.066-.039.11-.07c.026-.327.087-.629.207-.956.167-.463.71-1.027 1.18-1.007-.317.342-.575.816-.66 1.208a3 3 0 0 0-.035.489q.168-.103.352-.177c.05-.12.197-.422.272-.559.193-.352.62-.805 1.004-.96" clip-rule="evenodd"/><path fill="#CA3132" fill-rule="evenodd" d="M8.17 37.955c.06 1.752.776 3.866 1.759 5.331H24.59l-.03-2.044c-1.885 0-4.763-1.243-5.902-3.276z" clip-rule="evenodd"/><path stroke="#000" stroke-miterlimit="2.613" stroke-width=".328" d="M18.25 33.387c0 9.312 13.639 9.312 13.639.096l.005-11.205-13.644-.005v11.113"/><path fill="#000" fill-rule="evenodd" d="M22.643 28.924c.162-.176.303-.408.333-.604.025-.161-.428-.15-.595-.05a1 1 0 0 0-.247.267c-.05.075-.232.136-.322.05-.096-.09.075-.247.07-.343 0-.16-.307.081-.449.016-.095-.046-.1-.191-.035-.277.035-.046.136-.025.182-.076s.045-.125.06-.19c.02-.076.101-.111.152-.167.191-.186.554-.503.625-.498.166.015.403.1.549.025.03-.015.085-.065.035-.096l-.393-.256a.28.28 0 0 1 .09-.217c.182-.16.464-.05.701-.085a.8.8 0 0 0 .443-.207c.03.121-.045.242-.045.368.151.14.308.261.454.398.433.433.62 1.061.65 1.615.025.257.025.519.025.947a2.5 2.5 0 0 0 .131-.68c.066-.685-.04-1.294-.428-1.812a4 4 0 0 0-.535-.604c.02-.2.192-.544.353-.418.106.08-.05.201.061.272.121.076.297.066.373.05.177-.045.348-.09.509-.105.076-.005.201-.04.227.035.02.05-.035.086-.091.106-.065.02-.166.005-.222.06-.045.046-.09.096-.075.161.02.076.1.116.18.09q.459-.125.934-.14c.166 0 .13.12.05.166a.6.6 0 0 1-.197.06c-.297.036-.519.056-.483.227.025.116.211.005.251.09.046.091-.08.142-.07.202.03.19.398.151.57.11.126-.03.327-.13.388-.05.055.07.01.181-.061.201-.182.051-.494.141-.58.242-.08.096.016.292.111.302.217.025.454.025.625.076.066.02.122.065.122.136 0 .075-.076.1-.136.12-.117.036-.313.036-.42.08-.034.016-.105.041-.095.081.03.076.182.056.308.07.07.006.207.061.207.137 0 .08-.071.105-.198.096a1.2 1.2 0 0 0-.463.045c-.026.01-.176.03-.172.1.01.086.172.03.212.116.035.08-.076.126-.085.227 0 .04.02.06.06.075a.73.73 0 0 0 .413.026c.136-.026.187.156.152.176-.177.095-.57-.005-.66.05-.127.08.21.262.2.303-.01.045-.05.09-.08.1-.171.066-.393-.06-.519.01-.106.066-.06.232-.126.318-.08.105-.263.06-.343.12-.105.076-.11.257.005.368.091.085.177.145.293.2.525.262 1.069.524 1.578.489.262-.015.69-.03.927.03.308.076.62.312.782.413.13.08.342.101.509.04.12-.04.2-.181.176-.301-.076-.403-.741-.53-.752-.932-.01-.463-.05-.714-.201-1.007-.055-.11-.066-.367.066-.402.105-.026.14.12.226.085.389-.151.404-.765.807-.88.237-.066 1.033-.076.968-.177a.56.56 0 0 1 0-.634c.06-.08.227-.162.292-.08.09.105-.136.23-.12.387.015.146.226.427.065.578-.096.09-.817.121-1.029.444-.13.196-.145.352.01.337.127-.015.232-.166.348-.252.206-.15.373-.211.49-.1.06.055-.02.16-.132.19-.09.03-.312.268-.252.328.09.095.595-.343.721-.252.066.05-.248.373-.192.458.066.106.278-.06.343.02.095.121-.166.358-.318.463-.115.076-.07.358-.236.443-.187.091-.273.252-.253.277.02.04.066.07.136.025.207-.131.464-.287.57-.246.06.025-.025.312-.1.447-.077.136.307.062.25.177a.56.56 0 0 0-.04.337c.031.156-.412.191-.453.297-.045.121.045.151.091.157.267.04.232.286.126.392-.14.142-.383.197-.595.161-.181-.03-.59-.106-.831-.287-.076-.055-.187-.015-.202.06-.015.086.076.243.116.373.056.196.025.443-.04.635-.141.397-.52.73-.625 1.207a.75.75 0 0 0 .06.404c.11.26.272.508.454.73.025.07.06.15.03.216-.04.1-.353.317-.443.402-.287.267-.534.615-.59.992-.02.135-.312.271-.51.327-.145.04-.296.08-.418.176-.014.11.051.207.066.317.025.191-.217.287-.404.348a.8.8 0 0 1-.276.055c-.035 0-.046-.06-.04-.09.054-.262.105-.474.206-.69a.7.7 0 0 1 .172-.201l.72-.605.565-.81c.05-.075.07-.14.07-.196a.54.54 0 0 0-.176-.403c-.141-.125-.348-.145-.504-.227-.202-.1-.494-.382-.535-.403-.11-.055-.176.146-.19.263-.026.176.029.342.024.518 0 .08-.01.126-.05.176-.474.272-1.064.372-1.411.806-.061.075-.116.156-.197.211-.197.136-.524-.02-.67.191-.066.096.01.222-.015.328-.016.06-.132.14-.222.186q-.182.081-.383.095c-.146-.07-.056-.276-.005-.422.05-.151.12-.302.237-.403.171-.15.387-.342.524-.408.116-.055.293-.055.433-.11q.225-.07.419-.202c.206-.13.398-.292.514-.514.131-.25.116-.588-.05-.804-.152-.197-.328-.388-.428-.61-.056-.12-.016-.287.07-.398-.005-.004-.065-.045-.101-.034-.72.03-1.451-.05-2.122-.317-.176-.071-.358-.298-.484-.312-.116-.016-.186.13-.302.16-.187.051-.429.02-.645 0a7 7 0 0 1-1.155-.256c-.06.01-.126.02-.181.056-.08.055-.096.175-.101.276-.01.136.03.262.015.403-.005.07-.045.146-.025.212.02.08.1.115.156.166.09.085.106.261.106.402 0 .156-.056.362.076.469.08.065.191-.02.292 0 .111.02.146.155.151.261a.9.9 0 0 1-.161.443c-.046.045-.121.01-.176-.015a.8.8 0 0 1-.363-.312c-.035-.06-.035-.136-.07-.2-.056-.112-.157-.177-.258-.253-.12-.09-.146-.256-.166-.403-.015-.135.01-.267.02-.402.026-.27.01-.542-.05-.806-.046-.2-.156-.403-.106-.604a.34.34 0 0 1 .181-.226 5.8 5.8 0 0 0 1.437-.252l-.302-.298c-.076 0-.137.077-.212.077-.08 0-.192-.116-.222-.157a2.5 2.5 0 0 1-.327-.77c-.066-.105-.146-.212-.268-.261a.6.6 0 0 0-.267-.051c-.252.11-.484.327-.504.604-.005.071.035.131.025.201-.015.121-.106.202-.191.287-.086.086-.167.172-.202.292-.03.1.005.206.05.302.03.066.066.13.04.201-.06.166-.458.338-.574.338-.04 0-.075-.056-.09-.101a.96.96 0 0 1-.005-.464q.161-.173.232-.402c.06-.2.03-.417.126-.604.251-.427.896-1.283 1.023-1.409.055-.055.191-.086.247-.05.272.176.434.392.695.528.142.07.318.176.444.075s.146-.774.227-.946c.145-.298.553-.69.835-1.008m5.018-4.193-.111.423h-.404l.525-1.983h.458l.504 1.968h-.403l-.1-.408zm-1.06-.99c.006-.131-.034-.302-.14-.343-.112-.04-.227-.005-.277.07-.087.142-.087.333-.081.625 0 .176.005.423.04.538.086.267.312.283.423.116.056-.08.056-.236.05-.377h-.231v-.292h.6v1.067h-.288V25c-.005.01-.13.106-.191.136-.101.045-.292.045-.449-.02-.13-.056-.256-.232-.312-.458-.055-.237-.03-.544-.03-.806.005-.276.15-.584.352-.7.141-.08.403-.08.57-.02.201.071.357.363.327.61zm-6.752-.54c.162.1.247.287.218.503h-.319c0-.2-.085-.297-.256-.302-.106-.005-.237.116-.237.207-.006.266.232.322.393.372.12.035.267.11.337.216.132.191.147.393.041.655-.05.125-.242.276-.403.312a.72.72 0 0 1-.585-.116c-.146-.111-.212-.328-.181-.524h.358c0 .096.015.166.055.227.03.04.086.105.182.11a.26.26 0 0 0 .264-.174q.019-.055.012-.112c-.02-.307-.534-.327-.71-.524-.212-.241-.146-.63.025-.785a.65.65 0 0 1 .806-.065m10.178 1.312c.005.076.01.342.02.514.005.05.055.115.055.12h-.378c-.05 0-.055-.09-.06-.166-.01-.2.01-.68-.187-.68h-.242v.841h-.378V23.18h.68c.343 0 .515.197.515.463 0 .177-.005.383-.207.468a.66.66 0 0 1 .182.403" clip-rule="evenodd"/><path fill="#EDC95E" fill-rule="evenodd" d="M29.509 23.463h-.283v.529h.206c.344 0 .338-.529.077-.529" clip-rule="evenodd"/><path fill="#000" fill-rule="evenodd" d="M20.999 25.151h-.378v-1.656h-.434v-.332h1.25v.332H21zm2.433 0v-1.656H23v-.332h1.255v.332h-.444v1.656zm.992-1.988h1.255v.338h-.444v1.65h-.378v-1.65h-.433zm6.557.338v1.656h-.378v-1.656h-.434v-.337h1.25v.337zm-8.555 1.08v-1.415h.367v1.38c0 .825-1.2.825-1.2.025v-1.405h.368v1.42c0 .307.465.307.465-.005" clip-rule="evenodd"/><path stroke="#000" stroke-miterlimit="2.613" stroke-width=".328" d="M23.274 26.066a4 4 0 0 1 .449-.342c.161-.106-.02.136-.03.237-.03.271-.237.301-.464.251-.04-.01-.025-.085.045-.146Z"/><path fill="#CA3132" fill-rule="evenodd" d="m32.753 32.412 9.627-.005.428-5.315-10.055.005zm-8.12 16.555-9.929-.02c2.046 1.836 6.784 5.275 9.9 6.669z" clip-rule="evenodd"/><path fill="#000" fill-rule="evenodd" d="M17.451 28.005v.851c-.393-.292-2.218-.503-3.342-.065-.272.105-1.159.488-1.562.805l-1.134.896c-.111.09-.121.287-.121.438 0 .332-.388.584-.605.513a1.23 1.23 0 0 0-.64-.046c-.237.05-.449-.246-.469-.417-.03-.212.137-.488.146-.579.01-.086-.045-.423.267-.63a.49.49 0 0 1 .479-.01c.041.025.09.032.136.02.05-.02.187-.14.222-.17.015-.201-.015-.518.005-.695.045-.342.066-.538.172-.87.09-.288.287-.705.433-.942.262-.428.781-.84 1.17-.805-.152.201-.202.307-.313.513-.207.378-.398 1.002-.489 1.424a2.6 2.6 0 0 0-.076.77 8 8 0 0 1 .816-.518c.1-.5.27-.982.504-1.434.252-.478.933-.997 1.376-.957a4 4 0 0 0-.826 1.485c-.045.161-.101.347-.076.448.166-.09.51-.18.676-.196.11-.277.262-.61.388-.805.393-.604 1.013-.972 1.366-.957-.277.373-.515.71-.686 1.208-.05.146-.075.302-.075.378.216-.036.554-.036.69-.036.367-.33.331-.42.736-.73.252-.196.72-.463.832-.483v.595c-.192.172-.58.54-.656.732.167.06.5.163.656.27" clip-rule="evenodd"/><path fill="#EDC95E" fill-rule="evenodd" d="m28.074 24.37-.182-.795-.17.796z" clip-rule="evenodd"/><path fill="#000" fill-rule="evenodd" d="m43.15 21.97-10.36.005v4.587l10.042.012.306-4.422zm.477-6.333.092-1.496c-6.502-2.006-12.513-2.607-18.148-2.607l-.003 4.078zM18.41 37.417c-.704-1.3-.982-2.728-.982-4.126l-9.561.01.297 4.117zm6.188 10.856.002-4.291-14.31-.016c.93 1.483 2.123 2.844 3.514 4.199l.118.115z" clip-rule="evenodd"/></g><defs><clipPath id="a"><path fill="#fff" d="M0 0h50v62H0z"/></clipPath></defs></svg>