<svg width="50" height="62" viewBox="0 0 50 62" fill="none" xmlns="http://www.w3.org/2000/svg">
<g clip-path="url(#clip0_1204_88)">
<path fill-rule="evenodd" clip-rule="evenodd" d="M38.6489 52.4924C35.0305 55.7894 31.9151 57.5661 25.353 61.0089C19.244 58.2308 15.2571 55.4922 11.7993 52.7939C7.02115 49.0742 3.58867 43.0336 3.29117 39.3292L0.907227 4.0684C17.0566 -0.129404 34.234 -0.0337807 49.0928 4.35062L46.674 39.2539C46.3662 42.4144 43.5387 48.5609 38.6489 52.4924Z" fill="#EDC95E" stroke="black" stroke-width="0.328374" stroke-miterlimit="2.613"/>
<path fill-rule="evenodd" clip-rule="evenodd" d="M43.9068 38.098L46.0895 6.9294C33.3019 2.85677 17.9842 2.79667 3.87109 6.50142L6.09899 38.0778C6.33074 41.3592 8.69477 46.3777 13.2263 50.2233C15.9532 52.5391 21.2958 56.4255 25.2419 57.915C29.7884 55.6147 33.9221 52.755 37.1982 49.9321C41.2612 46.232 43.6604 41.6308 43.9068 38.098Z" fill="#EDC95E" stroke="black" stroke-width="0.328374" stroke-miterlimit="2.613"/>
<path fill-rule="evenodd" clip-rule="evenodd" d="M36.6745 49.1094C33.5338 51.8174 29.3052 54.8524 25.2422 56.7908C21.6134 55.6682 16.2502 51.5302 13.6697 49.3053C9.16878 45.4196 7.33898 41.3523 7.06207 37.5067L4.87402 7.36543C18.3118 3.83666 32.979 3.83666 45.1667 7.71804L43.0046 37.4569C42.6924 41.4124 40.8527 45.1931 36.6745 49.1094Z" fill="#EDC95E" stroke="black" stroke-width="0.328374" stroke-miterlimit="2.613"/>
<path d="M5.87866 7.95079L6.31196 13.1457ZM6.31196 13.1457C19.1398 9.93963 32.5772 10.2614 43.7319 13.6344ZM43.7319 13.6344L44.2104 8.34889ZM44.2104 8.34889C32.6529 4.80551 18.6208 4.6136 5.87866 7.95079Z" stroke="black" stroke-width="0.328374" stroke-miterlimit="2.613"/>
<path fill-rule="evenodd" clip-rule="evenodd" d="M37.7779 9.87885L34.885 9.40107L34.7734 10.7597L33.8315 10.6193L34.0532 7.0148L35.0161 7.15557L34.9149 8.54012L37.8486 9.01326L37.9439 7.62871L38.9271 7.81531L38.6296 11.4294L37.6723 11.2531L37.7779 9.87885ZM23.8149 8.65633C23.4623 8.65633 23.1801 8.56071 22.9935 8.2486C22.8324 7.99195 22.8324 7.15624 22.9935 6.87933C23.1698 6.55726 23.4872 6.46662 23.7495 6.46662L27.852 6.47193L27.8626 7.35745L23.9816 7.35247C23.79 7.35247 23.785 7.78045 23.9965 7.78045H27.0558C27.4137 7.78045 27.7315 7.99726 27.8321 8.27849C27.943 8.58096 27.9227 9.2656 27.8321 9.54716C27.7464 9.82938 27.4237 9.98477 27.0203 9.98477H22.9732L22.9679 9.079H26.5717C26.6249 9.07478 26.6746 9.05067 26.7108 9.01147C26.747 8.97227 26.7671 8.92087 26.7671 8.8675C26.7671 8.81413 26.747 8.76273 26.7108 8.72353C26.6746 8.68433 26.6249 8.66022 26.5717 8.656L23.8149 8.65633ZM21.4416 9.01625C21.4406 8.97115 21.4307 8.92669 21.4124 8.88546C21.3941 8.84424 21.3678 8.80707 21.335 8.77613C21.3021 8.74519 21.2635 8.7211 21.2212 8.70526C21.179 8.68943 21.134 8.68216 21.089 8.68389L18.367 8.88045L18.4225 10.2291L17.5406 10.3198L17.354 6.76113L21.4067 6.45898C21.931 6.41914 22.2384 6.81126 22.2633 7.13864C22.2936 7.52611 22.3088 8.02449 22.0064 8.23101C22.2584 8.41727 22.3241 8.69418 22.3291 9.08166L22.3394 9.9924L21.4572 10.0279L21.4416 9.01625Z" fill="black"/>
<path fill-rule="evenodd" clip-rule="evenodd" d="M20.8633 7.86111C21.2109 7.84086 21.1807 7.30231 20.8633 7.33252L18.2725 7.52875L18.3027 8.02181L20.8633 7.86111Z" fill="#EDC95E"/>
<path fill-rule="evenodd" clip-rule="evenodd" d="M12.3758 7.38831C13.2075 7.19208 14.9111 6.92048 15.8033 6.85474C16.2113 6.82486 16.5291 7.03603 16.5845 7.35344C16.7157 8.08324 16.7964 8.83793 16.7054 9.85028C16.6802 10.1421 16.4281 10.3736 16.0955 10.4443C14.9513 10.6959 13.666 10.8317 12.7131 10.9224C12.4711 10.9476 12.0882 10.7564 12.0228 10.4542C11.8565 9.71913 11.7957 8.69217 11.8465 7.98728C11.8668 7.72598 12.1088 7.44907 12.3758 7.38831Z" fill="black"/>
<path fill-rule="evenodd" clip-rule="evenodd" d="M15.6129 9.55646C15.7288 9.5309 15.7792 9.40539 15.7895 9.31475C15.8297 9.03784 15.7945 8.31269 15.7288 8.07131C15.7089 7.97569 15.6282 7.91493 15.4469 7.9302C14.9528 7.96075 13.6473 8.14668 13.0022 8.28746C12.8309 8.32797 12.7651 8.42857 12.7552 8.51922C12.7246 8.75562 12.7953 9.40506 12.8558 9.7673C12.871 9.8533 12.9819 9.91339 13.0673 9.90841C13.9395 9.83835 14.9681 9.69758 15.6129 9.55646Z" fill="#EDC95E"/>
<path fill-rule="evenodd" clip-rule="evenodd" d="M29.9059 7.53844C29.7147 7.53346 29.5835 7.64934 29.5686 7.74994C29.5231 8.0471 29.5075 8.42927 29.5075 8.92764C29.5075 8.99305 29.6184 9.17433 29.7143 9.18927C30.5813 9.31046 32.265 9.46153 33.1824 9.52163L33.1266 10.4526C31.9223 10.3975 30.6623 10.2059 29.3567 10.1156C28.9281 10.0851 28.6157 9.85399 28.6001 9.44128C28.5748 8.76162 28.6157 7.73467 28.7369 7.13569C28.8172 6.76847 29.1702 6.57689 29.5682 6.58719C30.7725 6.63267 31.7304 6.73859 33.3082 6.94976L33.2478 7.87611C32.4824 7.8107 31.0305 7.58393 29.9059 7.53844ZM10.1826 7.80871C11.4024 7.52184 11.5887 9.68632 10.5704 9.93799L7.72758 10.6479L7.86371 12.047L6.97156 12.2834L6.65381 8.63911L10.1826 7.80871Z" fill="black"/>
<path fill-rule="evenodd" clip-rule="evenodd" d="M10.1678 9.22639C10.46 9.16065 10.4198 8.63738 10.1071 8.70279L7.5415 9.32202L7.60193 9.86056L10.1678 9.22639Z" fill="#EDC95E"/>
<path fill-rule="evenodd" clip-rule="evenodd" d="M40.3321 10.419L40.2716 11.003L43.0892 11.7129L43.0135 12.528L39.2334 11.6375L39.5608 7.96765L43.3661 8.88869L43.2808 9.74432L40.448 9.06002L40.3922 9.67925L43.2048 10.3639L43.134 11.0887L40.3321 10.419Z" fill="black"/>
<path d="M17.4512 26.4098V23.3545L17.4545 22.0662L17.4561 21.442L24.6989 21.4367L24.6943 11.5406M24.6943 11.5406C19.0588 11.5406 12.8848 12.0739 6.33691 13.9017ZM6.33691 13.9017L7.6876 32.4905H17.4508L17.4512 26.4098" stroke="black" stroke-width="0.328374" stroke-miterlimit="2.613"/>
<path fill-rule="evenodd" clip-rule="evenodd" d="M17.4407 23.0573C17.4407 22.9919 16.6392 22.9311 16.2407 22.9812C15.1822 23.1071 12.536 23.9378 11.4171 24.7081C11.3922 24.7735 11.3968 25.1407 11.3214 25.3121C11.256 25.4678 11.0897 25.6291 10.9283 25.6995C10.6408 25.825 10.3081 25.4429 10.162 25.4983C10.0106 25.5534 9.68821 25.6846 9.34025 25.4379C9.18419 25.3273 9.10384 25.0152 9.15896 24.7835C9.20943 24.6171 9.35054 24.4863 9.46177 24.3807C9.5627 24.2801 9.49165 23.8926 9.85456 23.6609C10.1066 23.5002 10.4545 23.6313 10.7218 23.7718C10.7822 23.7515 10.8227 23.7266 10.8679 23.6865C10.9028 23.5802 10.9585 23.2581 11.009 23.0065C11.0698 22.7345 11.09 22.5582 11.1704 22.3069C11.3719 21.6979 11.8557 20.8221 12.36 20.3639C12.7581 20.0116 13.378 19.7297 13.8365 19.7599C13.7911 19.83 13.2216 20.3386 13.055 20.5654C12.6618 21.0883 12.2993 21.8938 12.1279 22.5785C12.0672 22.8099 12.0672 22.8959 12.1077 23.0466C12.4805 22.8803 12.9643 22.7196 13.2469 22.6286C13.3578 22.3823 13.4182 22.1 13.5141 21.8739C13.6652 21.5213 13.7615 21.3702 13.9172 21.1239C14.3658 20.4293 15.3134 19.7446 16.014 19.7599C15.7819 19.9611 15.2981 20.4645 15.1069 20.7663C14.9508 21.018 14.8044 21.2899 14.6935 21.5718C14.5979 21.8235 14.5677 22.0097 14.5424 22.2159C14.9053 22.1107 15.2633 22.035 15.495 22.0197C15.6514 21.934 15.7015 21.768 15.7875 21.612C16.0545 21.1136 16.5784 20.5548 16.9114 20.3738C17.1784 20.2277 17.5715 20.0866 17.8537 20.1776C17.5513 20.404 17.2338 20.766 17.0927 20.9828C16.9466 21.2142 16.7096 21.6624 16.7195 21.8739C16.9669 21.8938 17.2886 21.8809 17.4301 21.8457L17.4407 23.0573Z" fill="black"/>
<path fill-rule="evenodd" clip-rule="evenodd" d="M14.231 14.9044C14.6142 14.3712 15.6219 13.566 16.3985 13.6112C15.9752 13.9784 15.602 14.3861 15.34 14.8191C14.997 15.3776 14.7198 16.0778 14.6597 16.616C14.9163 16.5204 15.5213 16.3494 15.8693 16.2737C16.1767 15.6043 16.5801 14.8643 17.0792 14.4665C17.4367 14.1796 17.9507 13.9329 18.4298 13.9884C18.3189 14.1444 18.1373 14.2653 18.0012 14.3915C17.7538 14.6076 17.5828 14.8998 17.4467 15.1966C17.3458 15.4181 17.1744 16.0825 17.1695 16.113C17.5171 16.108 18.1323 16.1479 18.2632 16.1884C18.6716 15.6548 19.5637 14.8799 20.6325 15.0558C20.1687 15.3075 19.322 16.0423 19.3725 16.445C20.0677 16.8933 21.106 17.8342 21.1515 18.7048C20.6777 18.2117 19.8964 17.7233 19.5033 17.5875C18.5607 17.2552 17.4367 17.21 16.4991 17.381C14.5435 17.7486 12.8146 18.5942 11.1565 19.586C11.1163 19.853 10.9699 20.2554 10.849 20.3912C10.7282 20.527 10.5465 20.6581 10.3503 20.6887C10.1033 20.7285 9.85128 20.6282 9.63945 20.5173C9.50332 20.4416 9.14539 20.5376 8.91895 20.4161C8.76257 20.3357 8.52052 20.1093 8.58626 19.752C8.64171 19.4349 8.95913 19.2437 9.00428 18.9415C9.07002 18.4989 9.39209 18.307 9.55877 18.2775C9.74005 18.242 9.92665 18.3027 10.093 18.3778C10.1634 18.413 10.2388 18.4737 10.3048 18.494C10.3702 18.4737 10.4659 18.393 10.5216 18.3681C10.5366 18.3173 10.7029 17.3966 10.7936 16.9939C10.8842 16.5911 11.0406 16.2485 11.1717 15.8716C11.5649 14.7544 12.7798 13.6265 13.7526 13.6869C13.7021 13.7576 13.3894 13.9841 12.9561 14.4871C12.2555 15.3078 12.0788 16.1788 11.8169 17.6735C12.3561 17.4219 12.8249 17.2409 13.3136 17.0643C13.4299 16.6014 13.5859 16.1482 13.7775 15.7103C13.9037 15.4284 14.0547 15.1511 14.231 14.9044Z" fill="black"/>
<path fill-rule="evenodd" clip-rule="evenodd" d="M43.6067 16.1422L25.5923 16.1578L25.6072 21.453L43.2033 21.443L43.6067 16.1422Z" fill="#CA3132"/>
<path fill-rule="evenodd" clip-rule="evenodd" d="M29.7323 39.8289C29.6064 40.3365 29.5457 41.1925 29.556 41.2134C29.8634 41.0869 30.1506 40.976 30.403 40.901C30.4226 40.8704 30.7811 40.0905 30.9425 39.879C31.32 39.2953 31.829 38.7966 32.4489 38.4646C32.8374 38.268 33.3108 38.0871 33.7295 38.2434C33.1797 38.5048 32.7517 38.9782 32.4941 39.2498C32.2573 39.5015 31.9798 39.8737 31.8539 40.2562C31.8337 40.3216 31.8137 40.4577 31.8137 40.4577C32.0704 40.3774 32.8922 40.2562 33.2351 40.2107C33.2753 40.2054 33.3809 39.9793 33.4616 39.8684C33.5629 39.7329 33.6229 39.6473 33.7846 39.4663C34.1983 39.0181 34.8986 38.5396 35.5789 38.6452C35.2061 38.8819 34.7973 39.2594 34.4699 39.8534C34.4245 39.9441 34.3644 40.0699 34.3896 40.125C34.4902 40.1456 34.9896 40.1353 35.2917 40.1712C35.6393 39.9547 36.0076 39.7628 36.4057 39.6778C36.8539 39.5765 37.4386 39.6575 37.671 39.8684C37.3987 39.8534 37.1411 39.9039 36.8947 39.9995C36.7533 40.0553 36.4714 40.1861 36.3648 40.3671C36.6328 40.4425 37.071 40.7297 37.3479 40.9611C37.5392 41.1218 37.7713 41.3535 37.9174 41.5654C38.2856 42.0634 38.361 42.9589 38.1644 43.2262C38.1093 43.0698 38.0482 42.9144 37.9635 42.7676C37.7866 42.4711 37.509 42.1491 37.2722 41.9724C36.1284 41.1022 34.4799 41.0567 33.1349 41.328C31.9798 41.5654 29.8983 41.998 28.5376 42.9642C28.5725 43.1362 28.4663 43.4221 28.3105 43.5336C28.1037 43.684 27.8112 43.4778 27.6601 43.5589C27.4539 43.6644 27.1966 43.5984 27.0907 43.5535C26.9091 43.4775 26.7885 43.2916 26.7729 43.0751C26.758 42.9038 26.924 42.6976 26.9595 42.5116C26.9751 42.4356 26.8941 42.0634 27.2119 41.8722C27.2723 41.8373 27.4539 41.7716 27.5794 41.7918C27.7053 41.817 27.8065 41.8974 27.932 41.9176C28.1032 41.8568 28.2672 41.7774 28.4211 41.6809C28.5224 41.2931 28.5974 40.8449 28.6482 40.4474L29.7323 39.8289Z" fill="black"/>
<path d="M42.0103 37.4221C41.6833 41.9423 39.5407 45.0783 36.3605 48.1748C34.3943 50.0925 29.7778 53.5858 25.569 55.7194L25.5637 41.2381C26.5664 41.1979 27.7458 40.8957 28.6486 40.4475L29.7283 39.8173C31.9702 38.0493 32.7464 35.6305 32.7464 33.2947M42.01 37.4224L42.3075 33.3053L32.7461 33.295" stroke="black" stroke-width="0.328374" stroke-miterlimit="2.613"/>
<path fill-rule="evenodd" clip-rule="evenodd" d="M29.906 45.1865C30.0578 44.9551 30.2394 44.6171 30.3294 44.4713C30.6471 43.963 31.1057 43.5854 31.4188 43.4397C31.8467 43.2335 32.5373 43.1123 32.8448 43.2634C32.5068 43.3444 32.2501 43.5001 32.0127 43.6661C31.7707 43.8321 31.2969 44.2654 31.176 44.4464C31.0406 44.6479 30.9489 44.8289 30.9141 44.9242C31.2966 44.8392 31.7558 44.7685 31.9925 44.7685C32.1645 44.552 32.6177 44.0337 32.9554 43.792C33.2276 43.6007 33.8073 43.4095 34.1699 43.5655C33.8223 43.6764 33.2077 44.1595 32.9806 44.5065C32.9301 44.5875 32.8846 44.6732 32.875 44.718C33.0613 44.7336 33.4139 44.7685 33.6058 44.794C33.6254 44.794 34.15 44.4716 34.3867 44.4062C34.6949 44.3206 35.1985 44.2103 35.5156 44.5477C35.2842 44.5523 35.0667 44.5722 34.8957 44.6483C34.6494 44.7592 34.5431 44.8395 34.4322 44.9952C34.916 45.2519 35.4207 45.5192 35.7182 45.9926C35.8231 46.1587 35.9848 46.5511 35.8938 46.8078C35.7427 46.6165 35.5359 46.4302 35.3699 46.3343C35.1331 46.1982 34.9615 46.0677 34.6739 45.9568C33.7718 45.6194 32.5921 45.5288 31.6495 45.6546C30.4303 45.811 28.9329 46.4153 28.1672 46.9386C28.2177 47.1747 28.1018 47.4516 27.9657 47.517C27.6785 47.6627 27.4016 47.4164 27.3508 47.4313C27.2747 47.4565 27.0426 47.5369 26.8766 47.4668C26.7106 47.4014 26.605 47.1089 26.6704 46.9226C26.7203 46.7819 26.9221 46.5803 26.9221 46.5803C26.8916 46.2735 27.0934 46.0876 27.371 46.0517C27.5274 46.0368 27.6383 46.158 27.7641 46.1829C27.8804 46.1278 27.9607 46.0876 28.0215 46.0571C28.0922 45.8054 28.1978 45.5487 28.2678 45.3372C28.384 44.98 28.5557 44.6629 28.7725 44.3308C29.0843 43.8524 29.6394 43.3995 30.2998 43.3892C30.0983 43.5456 29.9821 43.6313 29.8562 43.7873C29.6398 44.0589 29.4731 44.3056 29.322 44.5971C29.1859 44.8538 29.06 45.2366 29.0391 45.5736C29.2815 45.4584 29.6544 45.2871 29.906 45.1865ZM29.8088 47.9091C29.9801 47.839 30.1614 47.7886 30.343 47.8085C29.9197 48.0801 29.5312 48.4778 29.4253 48.9503C29.4156 49.0015 29.4156 49.1014 29.4608 49.1319C29.5813 49.1014 29.8888 49.036 29.9698 48.9965C30.0203 48.8909 30.1461 48.7249 30.2318 48.614C30.5339 48.2112 30.9679 47.8085 31.5668 47.9596C31.1744 48.1352 30.9476 48.3822 30.7756 48.6943C30.7457 48.7501 30.7251 48.855 30.7653 48.855C30.8666 48.855 31.2497 48.8401 31.3049 48.8401C31.4812 48.6837 31.9955 48.3869 32.3484 48.4978C32.1725 48.5807 32.011 48.6912 31.87 48.8251C31.8351 48.8653 31.789 48.9158 31.7793 48.9762C32.0918 49.1319 32.3687 49.3082 32.6263 49.53C32.7625 49.6456 32.959 49.8621 33.0795 50.2343C32.7774 49.973 31.789 49.5048 31.2501 49.4796C30.8975 49.4646 30.4589 49.53 30.2371 49.5802C29.3851 49.7714 28.5075 50.1543 27.7572 50.5822C27.7618 50.728 27.7369 50.9046 27.5706 51.0401C27.4597 51.1307 27.218 51.1762 27.127 51.0454C27.0772 50.9747 26.7488 51.0501 26.6781 50.9597C26.6781 50.9597 26.5924 50.8286 26.5821 50.6725C26.5725 50.5065 26.6834 50.4059 26.774 50.3203C26.7993 50.2904 26.7943 50.0085 27.0055 49.9122C27.1366 49.8518 27.2681 49.8727 27.379 49.9427C27.4245 49.9175 27.4593 49.8923 27.4892 49.8727C27.5145 49.5453 27.5756 49.2432 27.6961 48.9161C27.8628 48.4526 28.4069 47.8888 28.8758 47.9091C28.5587 48.2514 28.3014 48.7249 28.2157 49.1173C28.1905 49.2432 28.1808 49.4895 28.1808 49.6057C28.2931 49.5371 28.4109 49.4781 28.5331 49.4294C28.5836 49.3089 28.7297 49.0068 28.8054 48.8703C28.9976 48.518 29.4256 48.0651 29.8088 47.9091Z" fill="black"/>
<path fill-rule="evenodd" clip-rule="evenodd" d="M8.16968 37.9553C8.23011 39.7068 8.94595 41.8211 9.92875 43.286H24.5914L24.5611 41.242C22.6759 41.242 19.7979 39.9989 18.6587 37.9659L8.16968 37.9553Z" fill="#CA3132"/>
<path d="M18.2493 33.3866C18.2493 42.6989 31.8886 42.6989 31.8886 33.4826L31.8939 22.2777L18.2496 22.2727V33.3863" stroke="black" stroke-width="0.328374" stroke-miterlimit="2.613"/>
<path fill-rule="evenodd" clip-rule="evenodd" d="M22.6434 28.9242C22.8047 28.7479 22.9462 28.5161 22.9761 28.3199C23.001 28.1589 22.5477 28.1691 22.3811 28.2698C22.2904 28.3252 22.2044 28.4358 22.134 28.5367C22.0836 28.6121 21.9023 28.6725 21.8116 28.5868C21.7157 28.4962 21.8873 28.3401 21.8824 28.2445C21.8824 28.0838 21.5746 28.3252 21.4335 28.2598C21.3378 28.2143 21.3325 28.0689 21.3983 27.9832C21.4335 27.9374 21.5344 27.958 21.5799 27.9075C21.6254 27.857 21.6254 27.782 21.6406 27.7163C21.6609 27.6406 21.7412 27.6057 21.7917 27.5503C21.9833 27.364 22.3462 27.0469 22.4166 27.0519C22.5826 27.0672 22.8197 27.1525 22.9658 27.0768C22.996 27.0622 23.0514 27.012 23.001 26.9815L22.6078 26.7248C22.606 26.6843 22.6132 26.6439 22.6288 26.6065C22.6444 26.5691 22.6681 26.5356 22.6981 26.5084C22.8798 26.3473 23.162 26.4579 23.3991 26.4227C23.5651 26.3975 23.7218 26.3321 23.8423 26.2162C23.8725 26.337 23.7968 26.4579 23.7968 26.5837C23.9482 26.7248 24.1046 26.8454 24.2507 26.9815C24.684 27.4145 24.8706 28.0433 24.9008 28.5971C24.926 28.8538 24.926 29.1158 24.926 29.5437C24.9968 29.3628 25.0419 29.0955 25.0572 28.8641C25.1226 28.1794 25.0167 27.5705 24.6289 27.0519C24.471 26.8335 24.292 26.6313 24.0943 26.4483C24.1146 26.2471 24.2862 25.9044 24.4473 26.0302C24.5532 26.1109 24.3971 26.2314 24.508 26.3022C24.6292 26.3779 24.8055 26.3676 24.8809 26.3523C25.0575 26.3071 25.2288 26.262 25.3895 26.2471C25.4656 26.2417 25.5911 26.2065 25.6167 26.2822C25.6372 26.3324 25.5818 26.3676 25.526 26.3878C25.4606 26.4081 25.36 26.3931 25.3042 26.4486C25.2587 26.4937 25.2136 26.5439 25.2288 26.6093C25.2484 26.685 25.3295 26.7252 25.4098 26.6999C25.714 26.6161 26.0271 26.5688 26.3425 26.5588C26.5091 26.5588 26.4736 26.6797 26.3929 26.7252C26.3378 26.7551 26.2515 26.7806 26.1964 26.7856C25.8989 26.8208 25.6771 26.841 25.7126 27.0124C25.7378 27.1279 25.9241 27.017 25.9643 27.1024C26.0098 27.193 25.8839 27.2435 25.8942 27.3039C25.9241 27.4948 26.2923 27.455 26.4637 27.4145C26.5895 27.3842 26.791 27.2836 26.8521 27.3643C26.9072 27.4344 26.8618 27.5453 26.791 27.5655C26.6094 27.616 26.297 27.7063 26.2113 27.8072C26.131 27.9029 26.2269 28.0991 26.3222 28.1091C26.5387 28.1343 26.7761 28.1343 26.9474 28.1848C27.0128 28.2047 27.0686 28.2502 27.0686 28.3206C27.0686 28.3963 26.9926 28.4215 26.9325 28.4414C26.8163 28.4766 26.62 28.4766 26.5135 28.5218C26.4786 28.537 26.4079 28.5623 26.4182 28.6024C26.448 28.6781 26.5998 28.6579 26.7256 28.6728C26.7963 28.6781 26.9325 28.7333 26.9325 28.8086C26.9325 28.8893 26.8618 28.9142 26.7352 28.9046C26.5387 28.8893 26.3577 28.9142 26.2721 28.9497C26.2462 28.9597 26.0958 28.9796 26.1001 29.0507C26.1104 29.1357 26.2721 29.0806 26.3116 29.1662C26.3471 29.2466 26.2362 29.2921 26.2266 29.3927C26.2266 29.4332 26.2462 29.4531 26.287 29.4684C26.4182 29.5238 26.5692 29.5185 26.7001 29.4936C26.8362 29.4684 26.8867 29.6497 26.8518 29.6699C26.6748 29.7655 26.2817 29.6649 26.1911 29.72C26.0652 29.8007 26.4026 29.982 26.3926 30.0225C26.3823 30.0677 26.3421 30.1128 26.3116 30.1231C26.1409 30.1885 25.9191 30.0627 25.793 30.1331C25.6874 30.1985 25.7325 30.3645 25.6671 30.4505C25.5861 30.5561 25.4045 30.5109 25.3241 30.5714C25.2186 30.6467 25.2132 30.8277 25.3295 30.9386C25.4201 31.0242 25.5058 31.0843 25.622 31.1395C26.1466 31.4014 26.6908 31.6634 27.1998 31.6279C27.4617 31.6129 27.8897 31.598 28.1271 31.6584C28.4346 31.7338 28.7463 31.9702 28.9087 32.0708C29.0392 32.1511 29.251 32.1721 29.4177 32.1116C29.5382 32.0708 29.6186 31.93 29.594 31.8095C29.518 31.4067 28.8529 31.2809 28.8423 30.8782C28.8327 30.4153 28.7925 30.1636 28.6407 29.8711C28.5856 29.7605 28.5753 29.5039 28.7068 29.4687C28.8124 29.4435 28.8476 29.5899 28.9333 29.5544C29.3217 29.403 29.3367 28.789 29.7401 28.6732C29.9768 28.6078 30.773 28.5975 30.7076 28.4969C30.5416 28.2605 30.617 27.9885 30.7076 27.8627C30.768 27.7823 30.9347 27.7013 31.0001 27.7823C31.0908 27.8876 30.864 28.0134 30.8796 28.1698C30.8945 28.3156 31.106 28.5975 30.945 28.7485C30.8491 28.8388 30.1279 28.8694 29.9164 29.1915C29.7852 29.3877 29.7706 29.5441 29.9267 29.5288C30.0525 29.5139 30.1581 29.3628 30.2737 29.2771C30.4805 29.1264 30.6472 29.0656 30.7634 29.1762C30.8238 29.2316 30.7431 29.3375 30.6322 29.3674C30.5416 29.3976 30.3198 29.6347 30.3799 29.6945C30.4705 29.7901 30.9746 29.3525 31.1011 29.4431C31.1665 29.4933 30.8534 29.8157 30.9091 29.9013C30.9746 30.0069 31.1867 29.8409 31.2521 29.9216C31.3474 30.0424 31.0855 30.2788 30.9344 30.3844C30.8188 30.4601 30.8637 30.7417 30.6976 30.8274C30.5111 30.918 30.4254 31.0787 30.4453 31.1039C30.4656 31.1441 30.5107 31.174 30.5814 31.1292C30.7876 30.998 31.0449 30.8423 31.1509 30.8828C31.2113 30.908 31.1263 31.1946 31.0503 31.3304C30.9742 31.4662 31.3577 31.3915 31.3019 31.5067C31.2542 31.6123 31.2402 31.7301 31.2618 31.844C31.2923 32.0004 30.8487 32.0353 30.8085 32.1412C30.7631 32.2624 30.8534 32.2922 30.8992 32.2976C31.1665 32.3377 31.1306 32.5841 31.025 32.69C30.8842 32.8315 30.6419 32.8866 30.4304 32.8514C30.2487 32.8208 29.8404 32.7451 29.599 32.5642C29.5229 32.5091 29.4124 32.5492 29.3968 32.6246C29.3818 32.7103 29.4728 32.8667 29.513 32.9975C29.5688 33.1934 29.5382 33.4404 29.4728 33.6316C29.332 34.0291 28.9535 34.3611 28.8476 34.8392C28.8224 34.9657 28.8579 35.1214 28.9087 35.2426C29.0189 35.5039 29.1803 35.751 29.3619 35.9721C29.3871 36.0428 29.4223 36.1232 29.3925 36.1886C29.3523 36.2892 29.0392 36.5057 28.9489 36.5913C28.6617 36.8579 28.4146 37.2056 28.3589 37.5828C28.3386 37.7182 28.0471 37.8543 27.8499 37.9101C27.7041 37.9496 27.5527 37.9905 27.4315 38.0858C27.4166 38.1967 27.482 38.2926 27.4969 38.4029C27.5222 38.5941 27.2804 38.6901 27.0935 38.7505C27.005 38.7845 26.9114 38.8032 26.8166 38.8056C26.7817 38.8056 26.7711 38.7452 26.7764 38.7156C26.8315 38.4537 26.882 38.2422 26.9826 38.0263C27.0234 37.9453 27.0889 37.8799 27.1546 37.8248L27.8751 37.2205L28.4399 36.41C28.4897 36.3347 28.5099 36.2693 28.5099 36.2141C28.5099 36.0578 28.4445 35.912 28.3336 35.8114C28.1928 35.6856 27.986 35.6656 27.8296 35.5843C27.6281 35.4843 27.3356 35.2018 27.2954 35.1815C27.1845 35.1264 27.1191 35.3273 27.1041 35.4435C27.0789 35.6198 27.134 35.7858 27.1294 35.9618C27.1294 36.0428 27.1191 36.0883 27.0789 36.1381C26.6054 36.4097 26.0154 36.5103 25.6678 36.9436C25.6067 37.019 25.5522 37.1 25.4712 37.1551C25.274 37.2912 24.947 37.1348 24.8005 37.3463C24.7351 37.4423 24.8108 37.5681 24.7856 37.6737C24.7703 37.7342 24.6544 37.8145 24.5641 37.86C24.443 37.914 24.3133 37.9463 24.181 37.9553C24.0349 37.8852 24.1255 37.679 24.1757 37.5326C24.2261 37.3815 24.2969 37.2311 24.4127 37.1299C24.5844 36.9795 24.8005 36.7882 24.9373 36.7218C25.0529 36.6667 25.2295 36.6667 25.3703 36.6116C25.5192 36.5661 25.6603 36.4981 25.7886 36.41C25.9955 36.2795 26.1867 36.1182 26.303 35.8964C26.4341 35.6454 26.4192 35.3084 26.2525 35.0916C26.1014 34.895 25.9251 34.7038 25.8245 34.482C25.7687 34.3614 25.8089 34.1954 25.8952 34.0845C25.8899 34.0799 25.8298 34.039 25.794 34.0497C25.0735 34.0802 24.3427 33.9999 23.6723 33.7326C23.4957 33.6619 23.3144 33.4354 23.1882 33.4208C23.0723 33.4052 23.0016 33.5513 22.8857 33.5815C22.6991 33.632 22.4571 33.6018 22.2406 33.5815C21.9886 33.5563 21.4643 33.4454 21.0862 33.3248C21.0257 33.3351 20.9603 33.3451 20.9049 33.3806C20.8242 33.4357 20.8092 33.5563 20.8039 33.6575C20.794 33.793 20.8342 33.9188 20.8189 34.0596C20.8142 34.1303 20.7741 34.206 20.794 34.2718C20.8142 34.3521 20.8946 34.3873 20.95 34.4378C21.0407 34.5235 21.0559 34.6991 21.0559 34.8399C21.0559 34.9963 21.0005 35.2025 21.1316 35.3087C21.2123 35.3741 21.3232 35.2881 21.4242 35.3087C21.5351 35.3283 21.5699 35.4644 21.5752 35.57C21.5805 35.6905 21.4796 35.9475 21.4139 36.0129C21.3684 36.0584 21.2927 36.0232 21.2376 35.998C21.0918 35.9326 20.9553 35.8267 20.875 35.6862C20.8398 35.6251 20.8398 35.5501 20.8043 35.4853C20.7488 35.3744 20.6479 35.309 20.5473 35.233C20.4264 35.1424 20.4012 34.977 20.3809 34.8303C20.366 34.6948 20.3912 34.563 20.4012 34.4275C20.4271 34.158 20.4101 33.8861 20.3507 33.622C20.3052 33.4211 20.1947 33.2193 20.2448 33.0184C20.27 32.9224 20.3354 32.8321 20.4264 32.7919C20.9152 32.7667 21.3993 32.6857 21.8628 32.5396L21.5606 32.2424C21.4846 32.2424 21.4245 32.3185 21.3488 32.3185C21.2681 32.3185 21.1572 32.2029 21.1273 32.1621C20.9709 31.9307 20.8703 31.6641 20.7996 31.3925C20.7339 31.2869 20.6535 31.1803 20.5323 31.1305C20.4484 31.0934 20.3571 31.0761 20.2654 31.08C20.0131 31.1909 19.7813 31.4074 19.761 31.6843C19.7561 31.755 19.7962 31.8155 19.7863 31.8852C19.7713 32.0064 19.6804 32.0867 19.5947 32.1724C19.509 32.258 19.4284 32.3437 19.3932 32.4642C19.3629 32.5648 19.3985 32.6704 19.4433 32.7664C19.4738 32.8318 19.509 32.8969 19.4838 32.9673C19.423 33.1333 19.0253 33.3046 18.9094 33.3046C18.8692 33.3046 18.8337 33.2495 18.8188 33.204C18.7733 33.0529 18.7836 32.8922 18.8138 32.7405C18.9197 32.6249 19.0004 32.4895 19.0455 32.3384C19.106 32.1375 19.0757 31.9207 19.1717 31.7341C19.4234 31.3068 20.0685 30.4512 20.195 30.325C20.2504 30.2695 20.3862 30.2393 20.442 30.2745C20.7143 30.4508 20.8757 30.6673 21.1373 30.8031C21.2787 30.8735 21.455 30.9794 21.5812 30.8785C21.707 30.7779 21.7273 30.1035 21.808 29.9322C21.9531 29.634 22.3615 29.2413 22.6434 28.9242ZM27.6606 24.7314L27.5497 25.154H27.1463L27.6709 23.1705H28.1294L28.6331 25.1391H28.2304L28.1294 24.7314H27.6606ZM26.6014 23.7406C26.6068 23.6098 26.5666 23.4388 26.4607 23.3983C26.3491 23.3581 26.2336 23.393 26.1838 23.4687C26.0974 23.6098 26.0974 23.801 26.1027 24.0925C26.1027 24.2688 26.1081 24.5159 26.1429 24.6314C26.2286 24.8984 26.4554 24.9136 26.5662 24.7473C26.622 24.6669 26.622 24.5109 26.6167 24.3701H26.3846V24.0779H26.9846V25.1451H26.6974V24.999C26.6921 25.0093 26.5662 25.1045 26.5055 25.1351C26.4049 25.1803 26.2136 25.1803 26.0573 25.1145C25.9261 25.0594 25.8006 24.8834 25.7448 24.657C25.6897 24.4199 25.7143 24.1128 25.7143 23.8512C25.7196 23.5746 25.8653 23.2671 26.0669 23.1516C26.2083 23.0709 26.4703 23.0709 26.637 23.1313C26.8385 23.202 26.9942 23.4939 26.9643 23.7403L26.6014 23.7406ZM19.8494 23.2007C20.0107 23.3013 20.0964 23.4876 20.0665 23.7044H19.7484C19.7484 23.5032 19.6628 23.4069 19.4918 23.4023C19.3859 23.3969 19.2547 23.5181 19.2547 23.6088C19.2494 23.8751 19.4868 23.9308 19.6478 23.981C19.7687 24.0165 19.9148 24.0919 19.9855 24.1975C20.1166 24.3884 20.1316 24.5902 20.026 24.8519C19.9759 24.9774 19.784 25.1285 19.6229 25.1637C19.4413 25.2042 19.2195 25.1839 19.0382 25.0478C18.8921 24.9369 18.8264 24.7204 18.8566 24.5242H19.2145C19.2145 24.6201 19.2295 24.6902 19.27 24.7509C19.3002 24.7914 19.3556 24.8565 19.4516 24.8618C19.4896 24.8647 19.5277 24.8592 19.5633 24.8456C19.5988 24.8321 19.631 24.8109 19.6574 24.7835C19.6839 24.7561 19.704 24.7232 19.7162 24.6871C19.7285 24.6511 19.7327 24.6128 19.7285 24.575C19.7083 24.2678 19.1943 24.2476 19.0176 24.051C18.8058 23.8096 18.8719 23.4218 19.0432 23.2658C19.2799 23.045 19.6027 23.045 19.8494 23.2007ZM30.027 24.5132C30.0316 24.5889 30.0372 24.8555 30.0472 25.0269C30.0525 25.077 30.1023 25.1424 30.1023 25.1474H29.7241C29.6743 25.1474 29.669 25.0567 29.6637 24.9814C29.6541 24.7802 29.674 24.3017 29.4775 24.3017H29.2351V25.1424H28.8569V23.1791H29.5379C29.8802 23.1791 30.0522 23.3757 30.0522 23.6423C30.0522 23.8186 30.0469 24.0248 29.8453 24.1105C29.9509 24.2114 30.0113 24.3625 30.027 24.5132Z" fill="black"/>
<path fill-rule="evenodd" clip-rule="evenodd" d="M29.5085 23.463H29.2256V23.9919H29.4324C29.7758 23.9919 29.7704 23.463 29.5085 23.463Z" fill="#EDC95E"/>
<path fill-rule="evenodd" clip-rule="evenodd" d="M20.9988 25.151H20.6206V23.4949H20.187V23.1628H21.4371V23.4949H20.9988V25.151ZM23.4322 25.151V23.4949H22.9986V23.1628H24.2537V23.4949H23.8104V25.151H23.4322ZM24.4237 23.1632H25.6787V23.5008H25.2351V25.1517H24.857V23.5008H24.4237V23.1632ZM30.9808 23.5008V25.157H30.6027V23.5008H30.1687V23.1638H31.4191V23.5008H30.9808ZM22.4259 24.5809V23.1665H22.7934V24.5457C22.7934 25.3711 21.5938 25.3711 21.5938 24.571V23.1665H21.9614V24.5859C21.9617 24.8934 22.4259 24.8934 22.4259 24.5809Z" fill="black"/>
<path d="M23.2744 26.0662C23.3853 25.9709 23.5413 25.8394 23.7229 25.7242C23.8843 25.6182 23.7027 25.86 23.6927 25.9606C23.6622 26.2322 23.4557 26.2624 23.2289 26.2122C23.1887 26.2023 23.204 26.1266 23.2744 26.0662Z" stroke="black" stroke-width="0.328374" stroke-miterlimit="2.613"/>
<path fill-rule="evenodd" clip-rule="evenodd" d="M32.753 32.4121L42.3805 32.4067L42.8084 27.0917L32.753 27.0967V32.4121ZM24.6337 48.9665L14.7041 48.9463C16.7504 50.7834 21.4884 54.2218 24.6035 55.616L24.6337 48.9665Z" fill="#CA3132"/>
<path fill-rule="evenodd" clip-rule="evenodd" d="M17.4511 28.0051V28.8561C17.058 28.5642 15.2332 28.3527 14.1093 28.7907C13.8373 28.8959 12.9502 29.2787 12.5468 29.5958L11.4129 30.492C11.3017 30.5819 11.292 30.7788 11.292 30.9299C11.292 31.2619 10.9039 31.5136 10.6871 31.4429C10.5108 31.3824 10.2687 31.3476 10.0469 31.3974C9.80987 31.4479 9.59837 31.151 9.57812 30.9797C9.54791 30.7685 9.71458 30.492 9.72421 30.401C9.73417 30.3153 9.67872 29.9783 9.99116 29.7718C10.1323 29.6811 10.3292 29.6861 10.4699 29.7618C10.511 29.786 10.5598 29.7931 10.6061 29.7818C10.6565 29.7618 10.7927 29.641 10.8279 29.6108C10.8431 29.4099 10.8129 29.0925 10.8332 28.9165C10.8783 28.5738 10.8986 28.3779 11.0045 28.0453C11.0951 27.7584 11.292 27.3407 11.4378 27.1043C11.7001 26.6763 12.2194 26.2636 12.6072 26.2988C12.4558 26.5 12.4057 26.6059 12.2948 26.8124C12.0882 27.19 11.8967 27.8142 11.806 28.2365C11.7453 28.5084 11.715 28.7199 11.73 29.0068C12.0275 28.7853 12.3399 28.6044 12.5464 28.4882C12.6461 27.9887 12.8158 27.5058 13.0504 27.0538C13.3025 26.5757 13.9828 26.0571 14.4264 26.0973C14.008 26.5505 13.7108 27.1797 13.5999 27.5824C13.5545 27.7431 13.499 27.9294 13.5242 28.0303C13.6903 27.94 14.0336 27.8494 14.1996 27.8341C14.3105 27.5572 14.4616 27.2248 14.5877 27.0289C14.9808 26.4246 15.6007 26.0571 15.954 26.0724C15.6768 26.4446 15.4394 26.7822 15.2684 27.2803C15.2176 27.426 15.1927 27.5824 15.1927 27.6578C15.4092 27.6223 15.7468 27.6223 15.8833 27.6223C16.2505 27.2926 16.2143 27.2022 16.6194 26.8928C16.8714 26.6962 17.3399 26.4293 17.4508 26.409V27.004C17.2589 27.1757 16.8711 27.5442 16.795 27.7358C16.962 27.7969 17.2947 27.8995 17.4511 28.0051Z" fill="black"/>
<path fill-rule="evenodd" clip-rule="evenodd" d="M28.0735 24.3707L27.8925 23.5752L27.7212 24.3707H28.0735Z" fill="#EDC95E"/>
<path fill-rule="evenodd" clip-rule="evenodd" d="M43.1501 21.9706L32.7892 21.9749V26.5622L42.8324 26.5745L43.1378 22.1519L43.1501 21.9706ZM43.6269 15.6369L43.7189 14.1414C37.2171 12.135 31.2055 11.5337 25.571 11.5337L25.5683 15.612L43.6269 15.6369ZM18.4105 37.4171C17.7063 36.1169 17.4284 34.6889 17.4284 33.2907L7.8667 33.301L8.16419 37.4181L18.4105 37.4171ZM24.5978 48.2727L24.5995 43.9816L10.2905 43.966C11.2195 45.4485 12.4125 46.8101 13.804 48.1648C13.8423 48.2024 13.8817 48.2407 13.9222 48.2797L24.5978 48.2727Z" fill="black"/>
</g>
<defs>
<clipPath id="clip0_1204_88">
<rect width="50" height="62" fill="white"/>
</clipPath>
</defs>
</svg>
