<svg xmlns="http://www.w3.org/2000/svg" width="206.452" height="64" fill="none" viewBox="0 0 100 31"><g clip-path="url(#a)"><path fill="#FF6C37" d="M35.305 19.636v-8.772a.38.38 0 0 1 .12-.273.41.41 0 0 1 .32-.106h2.469a2.961 2.961 0 0 1 2.015.682c.5.454.758 1.166.758 2.136v.121c0 .97-.258 1.697-.773 2.152a2.964 2.964 0 0 1-2.046.682h-1.757v3.378c0 .122-.06.228-.167.288a.78.78 0 0 1-.773 0 .325.325 0 0 1-.166-.288Zm1.09-4.287h1.773c.47.03.94-.137 1.273-.47.333-.379.5-.879.455-1.394v-.152c.045-.5-.122-1-.455-1.394a1.719 1.719 0 0 0-1.273-.454h-1.757l-.015 3.864ZM44.805 17.258v-3.925c0-.985.257-1.697.757-2.151a3.41 3.41 0 0 1 4.091 0c.515.454.773 1.182.773 2.151v3.925c0 .984-.258 1.697-.773 2.151a3.365 3.365 0 0 1-4.09 0c-.5-.454-.758-1.167-.758-2.151Zm1.106 0c0 1.227.56 1.848 1.712 1.848.47.03.924-.136 1.273-.455.333-.378.484-.878.454-1.393v-3.94c.046-.5-.121-1-.454-1.394a1.72 1.72 0 0 0-1.273-.454c-1.136 0-1.697.606-1.697 1.848l-.015 3.94ZM54.305 18.682a.68.68 0 0 1 .151-.41.448.448 0 0 1 .318-.196.468.468 0 0 1 .303.166c.122.107.243.228.38.364.181.167.393.288.62.364.303.12.637.166.955.166.485.03.955-.12 1.333-.409.334-.303.515-.757.485-1.212a1.585 1.585 0 0 0-.44-1.166 2.96 2.96 0 0 0-1.075-.682 27.48 27.48 0 0 1-1.273-.5 2.723 2.723 0 0 1-1.075-.819c-.303-.409-.47-.909-.44-1.424a2.55 2.55 0 0 1 .258-1.197 1.77 1.77 0 0 1 .697-.757c.287-.167.59-.288.909-.38a4.51 4.51 0 0 1 1-.12c.53 0 1.045.075 1.545.227.485.167.743.379.743.636a.654.654 0 0 1-.137.394.39.39 0 0 1-.333.212 4.735 4.735 0 0 1-.591-.227 2.755 2.755 0 0 0-1.212-.242c-.44-.016-.894.09-1.273.318a1.14 1.14 0 0 0-.485 1.03c-.015.379.137.743.425.985.318.258.681.47 1.075.59.425.152.849.32 1.273.516.424.212.788.53 1.06.924.304.485.455 1.046.44 1.621 0 .895-.258 1.576-.788 2.03a2.944 2.944 0 0 1-2.076.683 3.822 3.822 0 0 1-1.954-.485c-.546-.364-.818-.682-.818-1ZM63.195 10.97c0-.122.03-.243.106-.334.061-.106.167-.151.288-.151h5.303c.121 0 .228.045.288.151.076.091.106.213.106.334 0 .12-.03.257-.106.363-.06.106-.167.152-.288.152h-2.075v8.151c0 .122-.061.228-.167.288a.78.78 0 0 1-.773 0 .325.325 0 0 1-.166-.288v-8.151h-2.107c-.12 0-.227-.046-.288-.152a.617.617 0 0 1-.12-.363ZM73.015 19.636v-8.59a.477.477 0 0 1 .394-.546.309.309 0 0 1 .166 0c.349 0 .637.227.88.697l2.045 3.924 2.06-3.924c.258-.455.546-.697.879-.697.258-.046.5.136.546.394a.211.211 0 0 1 0 .136v8.591c0 .121-.061.228-.167.288a.78.78 0 0 1-.773 0 .325.325 0 0 1-.167-.288v-6.833l-1.97 3.697a.455.455 0 0 1-.424.318.473.473 0 0 1-.409-.318l-1.97-3.773v6.91c0 .12-.06.227-.166.287a.653.653 0 0 1-.364.121.65.65 0 0 1-.378-.106.277.277 0 0 1-.182-.288ZM83.727 19.576a.28.28 0 0 1 .03-.106l2.666-8.591c.076-.258.304-.379.667-.379.364 0 .591.121.667.379l2.682 8.636v.076c0 .136-.091.258-.212.318a.752.752 0 0 1-.485.121.378.378 0 0 1-.394-.242l-.576-1.91h-3.424l-.576 1.91c-.045.166-.227.273-.394.258a.79.79 0 0 1-.44-.137.348.348 0 0 1-.211-.333Zm1.894-2.606h2.924l-1.455-4.88-1.47 4.88ZM94.21 19.636v-8.772c0-.258.183-.38.546-.38.167 0 .334.062.47.168.152.151.288.333.364.53l3.257 6.364v-6.682c0-.122.06-.228.167-.273a.78.78 0 0 1 .773 0 .32.32 0 0 1 .166.273v8.772c0 .122-.06.228-.166.288a.683.683 0 0 1-.38.106.771.771 0 0 1-.68-.5l-3.425-6.56v6.666c0 .122-.06.228-.152.288a.78.78 0 0 1-.772 0 .325.325 0 0 1-.167-.288ZM30.255 17.227C31.315 8.924 25.452 1.333 17.164.273 8.876-.787 1.254 5.076.194 13.363c-1.06 8.288 4.803 15.895 13.091 16.97 8.303 1.06 15.894-4.803 16.97-13.106Z"/><path fill="#fff" d="m20.697 9.879-6.394 6.394L12.5 14.47c6.288-6.288 6.91-5.743 8.197-4.591Z"/><path fill="#FF6C37" d="M14.306 16.424a.137.137 0 0 1-.106-.045l-1.819-1.803a.147.147 0 0 1 0-.212c6.394-6.394 7.061-5.788 8.41-4.576.03.03.045.06.045.106a.138.138 0 0 1-.045.106l-6.395 6.379c-.015.03-.06.045-.09.045Zm-1.591-1.954 1.59 1.59 6.167-6.166c-1.12-1-1.879-1.303-7.757 4.576Z"/><path fill="#fff" d="m16.133 18.106-1.742-1.742 6.394-6.394c1.712 1.727-.849 4.53-4.652 8.136Z"/><path fill="#FF6C37" d="M16.137 18.258a.138.138 0 0 1-.107-.046l-1.742-1.742c-.03-.03-.03-.06-.03-.106s.015-.076.045-.106l6.394-6.394c.06-.061.152-.061.212 0 .394.363.606.878.591 1.409-.03 1.682-1.94 3.818-5.242 6.94a.242.242 0 0 1-.121.045Zm-1.53-1.894c.969.985 1.378 1.378 1.53 1.53 2.545-2.424 5.015-4.91 5.03-6.621a1.615 1.615 0 0 0-.394-1.091l-6.167 6.182Z"/><path fill="#fff" d="m12.529 14.515 1.288 1.288c.03.03.03.06 0 .09-.015.016-.015.016-.03.016l-2.667.576a.265.265 0 0 1-.288-.212.224.224 0 0 1 .06-.197l1.546-1.546c.03-.03.076-.045.091-.015Z"/><path fill="#FF6C37" d="M11.074 16.636a.395.395 0 0 1-.394-.409c0-.106.045-.212.12-.288l1.546-1.545a.23.23 0 0 1 .303 0l1.288 1.288c.091.076.091.212 0 .303a.245.245 0 0 1-.106.06l-2.666.576c-.03 0-.061.015-.091.015Zm1.409-1.954-1.485 1.485c-.03.03-.046.075-.015.12.015.046.06.062.106.046l2.5-.545-1.106-1.106Z"/><path fill="#fff" d="M24.076 6.333c-.97-.939-2.53-.909-3.47.076-.94.985-.909 2.53.076 3.47.803.773 2.015.909 2.97.333l-1.728-1.727 2.152-2.152Z"/><path fill="#FF6C37" d="M22.38 10.712a2.606 2.606 0 1 1 1.803-4.485c.03.03.045.06.045.106a.138.138 0 0 1-.046.106l-2.045 2.046 1.606 1.606c.06.06.06.151 0 .212l-.03.03a2.569 2.569 0 0 1-1.334.38Zm0-4.894a2.28 2.28 0 0 0-2.288 2.303 2.28 2.28 0 0 0 2.303 2.288 2.18 2.18 0 0 0 1.015-.242L21.819 8.59a.138.138 0 0 1-.046-.106c0-.046.016-.076.046-.106l2.03-2.03a2.245 2.245 0 0 0-1.47-.53Z"/><path fill="#fff" d="m24.119 6.379-.03-.03-2.167 2.136 1.712 1.712c.167-.106.333-.227.47-.364.97-.954.97-2.5.015-3.454Z"/><path fill="#FF6C37" d="M23.652 10.364a.138.138 0 0 1-.106-.046L21.82 8.591a.138.138 0 0 1-.046-.106c0-.046.016-.076.046-.106l2.151-2.152c.061-.06.152-.06.213 0l.045.03a2.62 2.62 0 0 1 .015 3.682 2.486 2.486 0 0 1-.5.394c-.045.015-.076.03-.09.03Zm-1.515-1.88 1.53 1.531c.122-.076.243-.182.334-.273.863-.863.909-2.272.075-3.181l-1.939 1.924Z"/><path fill="#fff" d="M20.952 10.152a.933.933 0 0 0-1.318 0l-5.712 5.712.954.954 6.046-5.303c.394-.333.424-.924.09-1.318a.208.208 0 0 1-.06-.045Z"/><path fill="#FF6C37" d="M14.864 16.97a.137.137 0 0 1-.106-.046l-.955-.954a.146.146 0 0 1 0-.212l5.712-5.712a1.079 1.079 0 0 1 1.53 0 1.08 1.08 0 0 1 0 1.53L21 11.62l-6.045 5.303c-.015.03-.046.046-.091.046Zm-.727-1.106.742.742 5.94-5.212c.333-.273.363-.773.09-1.106-.272-.333-.772-.364-1.106-.091-.015.015-.03.03-.06.045l-5.606 5.622Z"/><path fill="#fff" d="M9.546 22.364c-.06.03-.09.09-.075.151l.257 1.091a.29.29 0 0 1-.197.379.304.304 0 0 1-.333-.091L7.53 22.242l5.44-5.439 1.878.03 1.273 1.273c-.303.258-2.136 2.03-6.576 4.258Z"/><path fill="#FF6C37" d="M9.421 24.136A.413.413 0 0 1 9.103 24l-1.651-1.651a.138.138 0 0 1-.046-.107c0-.045.015-.075.046-.106l5.44-5.439a.164.164 0 0 1 .105-.046l1.879.03c.045 0 .076.016.106.046L16.255 18c.03.03.045.076.045.121 0 .046-.015.076-.06.106l-.106.091c-1.607 1.41-3.788 2.818-6.5 4.167l.257 1.076a.478.478 0 0 1-.227.515.52.52 0 0 1-.243.06Zm-1.666-1.894 1.56 1.546c.046.076.137.106.212.06.076-.045.107-.136.061-.212l-.258-1.09a.276.276 0 0 1 .152-.319c2.682-1.348 4.849-2.742 6.44-4.12L14.8 16.984l-1.742-.03-5.303 5.287Z"/><path fill="#fff" d="m6.242 23.546 1.303-1.304 1.94 1.94-3.092-.212a.241.241 0 0 1-.212-.273c0-.06.015-.121.06-.151Z"/><path fill="#FF6C37" d="m9.486 24.318-3.106-.212c-.227-.015-.378-.212-.363-.44.015-.09.045-.181.12-.242l1.304-1.303c.06-.06.151-.06.212 0l1.94 1.94c.045.045.06.106.03.166-.03.06-.076.091-.137.091Zm-1.939-1.864L6.35 23.651c-.045.03-.045.107 0 .137.015.015.03.03.06.03L9.093 24l-1.545-1.546ZM12.44 17.5a.152.152 0 0 1-.15-.151c0-.046.014-.076.045-.107l1.47-1.47c.06-.06.15-.06.211 0l.955.955c.045.046.06.091.045.152a.173.173 0 0 1-.12.106l-2.425.515h-.03Zm1.47-1.41-1 1 1.637-.348-.637-.651Z"/><path fill="#fff" d="m14.851 16.833-1.667.364a.226.226 0 0 1-.212-.379l.925-.924.954.94Z"/><path fill="#FF6C37" d="M13.152 17.349a.375.375 0 0 1-.379-.38c0-.105.046-.196.107-.272l.924-.924c.06-.06.151-.06.212 0l.954.954c.046.046.061.091.046.152a.173.173 0 0 1-.121.106l-1.667.364h-.076Zm.758-1.258-.818.818c-.03.03-.03.06-.016.091.016.03.046.045.091.045l1.394-.303-.651-.651ZM24.136 7.833c-.03-.09-.136-.136-.227-.106-.091.03-.136.137-.106.228 0 .015.015.03.015.045.09.182.06.41-.06.576a.184.184 0 0 0 .015.242.17.17 0 0 0 .242-.03c.227-.288.273-.652.121-.955Z"/></g><defs><clipPath id="a"><path fill="#fff" d="M0 0h100v30.606H0z"/></clipPath></defs></svg>