<svg xmlns="http://www.w3.org/2000/svg" width="110.345" height="64" fill="none" viewBox="0 0 50 29"><g clip-path="url(#a)"><path fill="#1D4AFF" d="M11.345 15.84a1.042 1.042 0 0 1-1.864 0l-.918-1.837a1.041 1.041 0 0 1 0-.932l.918-1.836a1.042 1.042 0 0 1 1.864 0l.918 1.836c.146.294.146.639 0 .932l-.918 1.836ZM11.345 26.253a1.042 1.042 0 0 1-1.864 0l-.918-1.836a1.042 1.042 0 0 1 0-.932l.918-1.836a1.042 1.042 0 0 1 1.864 0l.918 1.836c.146.293.146.638 0 .932l-.918 1.836Z"/><path fill="#F9BD2B" d="M0 22.3c0-.928 1.122-1.393 1.778-.736l4.775 4.774c.656.656.191 1.778-.737 1.778H1.042A1.042 1.042 0 0 1 0 27.075V22.3Zm0-5.029c0 .276.11.541.305.737l9.803 9.803c.196.195.46.305.737.305h5.385c.928 0 1.392-1.122.736-1.778L1.778 11.15C1.122 10.494 0 10.959 0 11.887v5.384ZM0 6.858c0 .276.11.54.305.736l20.217 20.217c.195.195.46.305.737.305h5.384c.928 0 1.393-1.122.737-1.778L1.778.736C1.122.08 0 .545 0 1.473v5.385Zm10.414 0c0 .276.11.54.305.736l18.743 18.744c.657.656 1.779.191 1.779-.737v-5.384c0-.276-.11-.541-.305-.737L12.192.736c-.656-.656-1.778-.191-1.778.737v5.385ZM22.605.736c-.656-.656-1.778-.191-1.778.737v5.385c0 .276.11.54.305.736l8.33 8.33c.657.657 1.779.192 1.779-.736V9.803c0-.276-.11-.541-.305-.736l-8.33-8.33Z"/><path fill="#000" d="m44.294 22.428-9.805-9.805c-.656-.656-1.778-.191-1.778.737v13.715c0 .575.466 1.041 1.042 1.041H48.94c.575 0 1.041-.466 1.041-1.041v-1.25c0-.575-.468-1.034-1.038-1.108a8.046 8.046 0 0 1-4.65-2.289Zm-6.585 2.356a1.667 1.667 0 1 1 .002-3.334 1.667 1.667 0 0 1-.002 3.334Z"/><path fill="#1D4AFF" d="M0 27.075c0 .575.466 1.041 1.042 1.041h4.774c.928 0 1.393-1.122.737-1.778l-4.775-4.774C1.122 20.907 0 21.372 0 22.3v4.774ZM10.414 9.372 1.778.736C1.122.08 0 .545 0 1.473v5.385c0 .276.11.54.305.736l10.109 10.109V9.372ZM1.778 11.15C1.122 10.494 0 10.959 0 11.887v5.384c0 .276.11.541.305.737l10.109 10.108v-8.33L1.778 11.15Z"/><path fill="#F54E00" d="M20.828 9.803c0-.276-.11-.541-.305-.736l-8.33-8.33c-.657-.657-1.779-.192-1.779.736v5.385c0 .276.11.54.305.736l10.109 10.109v-7.9ZM10.414 28.116h5.816c.928 0 1.393-1.122.737-1.778l-6.553-6.553v8.331ZM10.414 9.372v7.9c0 .276.11.54.305.736l10.109 10.108v-7.899c0-.276-.11-.541-.305-.737L10.414 9.372Z"/></g><defs><clipPath id="a"><path fill="#fff" d="M0 0h50v28.125H0z"/></clipPath></defs></svg>