<svg xmlns="http://www.w3.org/2000/svg" width="64" height="64" fill="none" viewBox="0 0 50 50"><g clip-path="url(#a)"><path fill="#ff6c37" d="M28.184.204a25 25 0 1 0-6.368 49.593A25 25 0 0 0 28.184.204"/><path fill="#fff" d="M18.073 26.58a.094.094 0 0 0 .11.05l4-.863-1.682-1.705-2.398 2.398a.1.1 0 0 0-.038.054.1.1 0 0 0 .008.066M36.802 9.405a3.728 3.728 0 1 0 1.57 7.11l-2.535-2.535a.31.31 0 0 1-.068-.34.3.3 0 0 1 .068-.102l3.312-3.31a3.73 3.73 0 0 0-2.347-.823"/><path fill="#fff" d="M39.605 10.658 36.5 13.75l2.435 2.435a3.75 3.75 0 0 0 .67-5.527m-6.211 5.707h-.055a1 1 0 0 0-.192.018h-.023q-.105.023-.205.06l-.052.025a1 1 0 0 0-.145.075l-.055.035q-.091.062-.17.14l-9.208 9.21 1.14 1.14 9.75-8.558q.083-.072.15-.16l.042-.055a1.2 1.2 0 0 0 .13-.242 1 1 0 0 0 .043-.123c0-.03.018-.06.025-.09a2 2 0 0 0 .025-.187v-.218c0-.045 0-.06-.013-.09a1.215 1.215 0 0 0-.952-.957h-.048a1.3 1.3 0 0 0-.187-.023M20.93 23.62l1.89 1.88 9.232-9.233c.3-.293.692-.476 1.11-.517-1.632-1.25-3.412-.923-12.232 7.87m13.768-4.75-.112.11-9.75 8.555 1.657 1.655c4.11-3.887 7.758-7.59 8.205-10.32M10.381 38.913a.09.09 0 0 0 .08.064l4.25.293-2.382-2.383-1.928 1.925a.1.1 0 0 0-.024.047.1.1 0 0 0 .004.053Zm2.392-2.468 2.513 2.513a.19.19 0 0 0 .238.032.19.19 0 0 0 .097-.218l-.423-1.805a.54.54 0 0 1 .278-.602c4.405-2.207 7.957-4.48 10.565-6.75l-1.75-1.75-3.75.808zm10.982-9.11-.94-.94-1.3 1.297a.06.06 0 0 0 0 .08.06.06 0 0 0 .072.033z"/><path fill="#ff6c37" d="M39.692 12.673a.29.29 0 1 0-.518.25.87.87 0 0 1-.107.94.292.292 0 0 0 .067.43.29.29 0 0 0 .378-.06 1.45 1.45 0 0 0 .18-1.56"/></g><defs><clipPath id="a"><path fill="#fff" d="M0 0h50v50H0z"/></clipPath></defs></svg>