<svg xmlns="http://www.w3.org/2000/svg" width="320" height="64" fill="none" viewBox="0 0 100 20"><g clip-path="url(#a)"><path fill="#1d4aff" d="M6.94 10.96a.637.637 0 0 1-1.14 0l-.56-1.124a.64.64 0 0 1 0-.57l.56-1.122a.637.637 0 0 1 1.14 0l.56 1.123c.09.179.09.39 0 .57l-.561 1.122Zm0 6.366a.637.637 0 0 1-1.14 0l-.56-1.122a.64.64 0 0 1 0-.57l.56-1.123a.637.637 0 0 1 1.14 0l.561 1.123c.09.18.09.39 0 .57z"/><path fill="#f9bd2b" d="M0 14.91a.637.637 0 0 1 1.087-.45l2.92 2.919a.637.637 0 0 1-.45 1.087H.636A.637.637 0 0 1 0 17.829zm0-3.075c0 .168.067.33.187.45l5.994 5.994c.12.12.281.187.45.187h3.293a.637.637 0 0 0 .45-1.087L1.087 8.092A.637.637 0 0 0 0 8.542zm0-6.368c0 .169.067.331.187.45L12.549 18.28c.119.12.28.187.45.187h3.292a.637.637 0 0 0 .45-1.087L1.088 1.724A.637.637 0 0 0 0 2.174zm6.368 0c0 .169.067.331.186.45L18.015 17.38a.637.637 0 0 0 1.087-.45v-3.293a.64.64 0 0 0-.186-.45L7.455 1.723a.637.637 0 0 0-1.087.45zm7.454-3.743a.637.637 0 0 0-1.087.45v3.293c0 .169.067.331.187.45l5.093 5.094a.637.637 0 0 0 1.087-.45V7.268a.64.64 0 0 0-.186-.45z"/><path fill="#000" d="m27.083 14.988-5.996-5.996a.637.637 0 0 0-1.087.45v8.387c0 .352.285.637.637.637h9.287a.637.637 0 0 0 .637-.637v-.764c0-.352-.287-.633-.635-.678a4.92 4.92 0 0 1-2.843-1.4Zm-4.027 1.44a1.02 1.02 0 1 1 .001-2.038 1.02 1.02 0 0 1 0 2.038Z"/><path fill="#1d4aff" d="M0 17.829c0 .352.285.637.637.637h2.92a.637.637 0 0 0 .45-1.088l-2.92-2.919A.637.637 0 0 0 0 14.91zM6.368 7.004l-5.28-5.28A.637.637 0 0 0 0 2.174v3.293c0 .169.067.331.187.45l6.18 6.181V7.004ZM1.087 8.092A.637.637 0 0 0 0 8.542v3.293c0 .169.067.33.187.45l6.18 6.181v-5.094z"/><path fill="#f54e00" d="M12.735 7.268a.64.64 0 0 0-.187-.45L7.455 1.724a.637.637 0 0 0-1.088.45v3.293c0 .169.067.331.187.45l6.18 6.181zM6.367 18.466h3.557a.637.637 0 0 0 .45-1.087l-4.007-4.007zm0-11.461v4.83c0 .169.067.33.187.45l6.18 6.181v-4.83a.64.64 0 0 0-.186-.45l-6.18-6.181Z"/><path fill="#000" d="M37.992 15.924h2.617v-4.34h2.186c2.401 0 3.941-1.423 3.941-3.626s-1.54-3.627-3.941-3.627h-4.803zm2.617-6.575V6.567h1.92c.994 0 1.59.53 1.59 1.391s-.596 1.391-1.59 1.391zm10.859 6.707c2.55 0 4.405-1.822 4.405-4.306s-1.855-4.305-4.405-4.305c-2.584 0-4.406 1.821-4.406 4.305s1.822 4.306 4.406 4.306M49.48 11.75c0-1.325.795-2.235 1.988-2.235 1.175 0 1.97.91 1.97 2.235s-.795 2.236-1.97 2.236c-1.193 0-1.988-.91-1.988-2.236m10.582 4.306c1.954 0 3.279-1.225 3.279-2.666 0-3.379-4.488-2.286-4.488-3.61 0-.365.381-.596.928-.596.563 0 1.242.347 1.457 1.109l1.954-.811c-.38-1.21-1.788-2.037-3.494-2.037-1.839 0-2.981 1.093-2.981 2.4 0 3.164 4.422 2.286 4.422 3.595 0 .463-.431.778-1.077.778-.927 0-1.573-.646-1.772-1.424l-1.954.761c.43 1.259 1.69 2.501 3.726 2.501m9.574-.216-.166-2.102c-.281.149-.646.198-.944.198-.596 0-.993-.43-.993-1.175V9.597h2.02v-2.02h-2.02V5.16h-2.435v2.418h-1.325v2.02h1.325v3.478c0 2.02 1.375 2.981 3.18 2.981.497 0 .96-.083 1.358-.215Zm8.491-11.509v4.505h-4.604V4.33h-2.617v11.593h2.617V11.07h4.604v4.853h2.633V4.33h-2.633Zm8.443 11.725c2.55 0 4.404-1.822 4.404-4.306S89.12 7.445 86.57 7.445c-2.583 0-4.405 1.821-4.405 4.305s1.822 4.306 4.405 4.306m-1.988-4.306c0-1.325.795-2.235 1.987-2.235 1.176 0 1.97.91 1.97 2.235s-.794 2.236-1.97 2.236c-1.192 0-1.987-.91-1.987-2.236m11.088 3.909c.91 0 1.721-.315 2.152-.862v.795c0 .928-.745 1.574-1.888 1.574-.811 0-1.523-.398-1.64-1.077l-2.218.348c.298 1.573 1.904 2.633 3.858 2.633 2.567 0 4.273-1.507 4.273-3.743v-7.75h-2.401v.712c-.448-.513-1.21-.844-2.186-.844-2.319 0-3.776 1.59-3.776 4.107s1.457 4.107 3.825 4.107Zm-1.458-4.107c0-1.242.729-2.037 1.855-2.037 1.142 0 1.871.795 1.871 2.037s-.729 2.037-1.871 2.037c-1.126 0-1.855-.795-1.855-2.037"/></g><defs><clipPath id="a"><path fill="#fff" d="M0 0h100v19.108H0z"/></clipPath></defs></svg>