<svg xmlns="http://www.w3.org/2000/svg" width="245.76" height="64" fill="none" viewBox="0 0 96 25"><g fill="#000" fill-rule="evenodd" clip-path="url(#a)" clip-rule="evenodd"><path d="M31.647 7.11h.595c.406 0 .735.33.735.735v.696c0 .022.018.04.04.04.338-.6.794-1.035 1.367-1.307a4.27 4.27 0 0 1 1.856-.409c.717 0 1.362.133 1.935.398a4.34 4.34 0 0 1 1.465 1.093c.404.463.71 1.007.919 1.634.208.626.312 1.3.312 2.021 0 .722-.11 1.396-.332 2.022a5.08 5.08 0 0 1-.928 1.634 4.293 4.293 0 0 1-1.436 1.092 4.233 4.233 0 0 1-1.837.399c-.443 0-.834-.048-1.172-.143a3.936 3.936 0 0 1-.899-.368c-.26-.15-.482-.31-.664-.48a3.433 3.433 0 0 1-.45-.5.059.059 0 0 0-.058.059v4.946a.897.897 0 0 1-.898.897h-.55a.897.897 0 0 1-.897-.897V8.007c0-.495.402-.897.897-.897Zm6.88 4.901c0-.38-.062-.748-.186-1.102a2.733 2.733 0 0 0-1.417-1.593 2.62 2.62 0 0 0-1.152-.245 2.62 2.62 0 0 0-2.023.898 2.793 2.793 0 0 0-.547.94 3.32 3.32 0 0 0-.185 1.102c0 .382.061.75.185 1.103a2.731 2.731 0 0 0 1.417 1.593 2.62 2.62 0 0 0 1.153.245 2.62 2.62 0 0 0 2.022-.899c.24-.272.423-.585.547-.939.124-.354.185-.721.185-1.103Zm5.723-4.9h.671c.429 0 .776.347.776.775v.737c0 .022.018.04.04.04.26-.573.631-1.015 1.113-1.328.482-.313 1.036-.47 1.661-.47.143 0 .283.014.42.04.244.05.42.264.42.513v1.344a.49.49 0 0 1-.576.482 3.136 3.136 0 0 0-.557-.05c-.547 0-.987.105-1.319.316a2.447 2.447 0 0 0-.762.725 2.465 2.465 0 0 0-.352.817 3.21 3.21 0 0 0-.088.612v4.351a.897.897 0 0 1-.897.898h-.55a.897.897 0 0 1-.897-.898V8.007c0-.495.401-.897.897-.897Zm7.933 0h.55c.496 0 .897.4.897.896v8.008a.897.897 0 0 1-.897.898h-.55a.897.897 0 0 1-.897-.898V8.007c0-.495.401-.897.897-.897Zm-1.23-3.33c0-.394.14-.738.42-1.03.28-.294.636-.44 1.065-.44.43 0 .792.14 1.085.419.293.279.44.63.44 1.051 0 .422-.147.773-.44 1.052-.293.28-.655.419-1.085.419-.43 0-.784-.147-1.065-.44a1.443 1.443 0 0 1-.42-1.03Zm10.102 5.57c-.475-.35-.899-.525-1.27-.525-.313 0-.619.081-.918.245-.3.163-.45.428-.45.796 0 .3.124.517.372.654.247.136.56.251.938.347.377.095.784.194 1.22.296.437.102.844.258 1.222.47.378.21.69.5.938.867.247.368.371.872.371 1.512 0 .585-.12 1.079-.361 1.48a2.905 2.905 0 0 1-.938.97 4.058 4.058 0 0 1-1.3.531 6.542 6.542 0 0 1-1.446.164c-.73 0-1.4-.11-2.012-.327-.24-.085-.528-.257-.863-.514a.897.897 0 0 1-.082-1.353l.243-.238a.897.897 0 0 1 1.221-.033c.142.125.266.222.37.29.345.224.765.337 1.26.337.17 0 .345-.02.528-.062.182-.04.351-.108.508-.204.156-.095.283-.214.38-.357a.866.866 0 0 0 .147-.5c0-.34-.123-.593-.371-.756a3.227 3.227 0 0 0-.938-.398 19.697 19.697 0 0 0-1.221-.286 4.592 4.592 0 0 1-1.221-.43 2.598 2.598 0 0 1-.938-.826c-.248-.354-.371-.844-.371-1.47 0-.545.107-1.018.322-1.42a2.92 2.92 0 0 1 .85-.99c.352-.259.756-.45 1.211-.572a5.323 5.323 0 0 1 1.388-.184c.625 0 1.244.112 1.856.337.222.081.469.232.742.452a.897.897 0 0 1 .052 1.352l-.292.275a.897.897 0 0 1-1.147.07Zm5.333-2.24h.433c.495 0 .897.4.897.896v.635a3.836 3.836 0 0 1 1.045-1.236c.463-.36 1.085-.54 1.866-.54 1.472 0 2.45.605 2.931 1.817.339-.627.762-1.086 1.27-1.379.508-.293 1.114-.439 1.817-.439.626 0 1.153.109 1.583.327.43.218.778.517 1.045.898.267.382.46.827.577 1.338.117.51.176 1.058.176 1.644v4.943a.897.897 0 0 1-.898.898h-.55a.897.897 0 0 1-.897-.898v-4.657c0-.3-.026-.589-.078-.868a2.13 2.13 0 0 0-.274-.735 1.411 1.411 0 0 0-.527-.5c-.222-.123-.508-.184-.86-.184-.365 0-.674.071-.928.214a1.84 1.84 0 0 0-.625.572c-.163.238-.28.51-.352.817a4.065 4.065 0 0 0-.108.929v4.412a.897.897 0 0 1-.897.898h-.55a.897.897 0 0 1-.897-.898v-4.943c0-.613-.124-1.1-.371-1.46-.248-.361-.658-.541-1.231-.541-.391 0-.72.068-.987.204-.267.136-.489.32-.665.551a2.233 2.233 0 0 0-.38.797c-.079.3-.118.612-.118.94v4.452a.897.897 0 0 1-.897.898h-.55a.897.897 0 0 1-.898-.898V8.007c0-.495.402-.897.898-.897Zm17.429 0h.55c.495 0 .897.4.897.896v8.008a.897.897 0 0 1-.897.898h-.55a.897.897 0 0 1-.898-.898V8.007c0-.495.402-.897.898-.897Zm-1.23-3.33c0-.394.14-.738.42-1.03.28-.294.635-.44 1.065-.44.43 0 .791.14 1.085.419.293.279.44.63.44 1.051 0 .422-.147.773-.44 1.052-.293.28-.655.419-1.085.419-.43 0-.785-.147-1.065-.44a1.444 1.444 0 0 1-.42-1.03Zm11.47 5.733a2.44 2.44 0 0 0-.254-.178 1.785 1.785 0 0 0-.919-.265 2.62 2.62 0 0 0-2.022.898 2.792 2.792 0 0 0-.547.94 3.317 3.317 0 0 0-.186 1.102c0 .382.062.75.186 1.103a2.731 2.731 0 0 0 1.416 1.593 2.62 2.62 0 0 0 1.153.245c.365 0 .704-.078 1.016-.235.064-.031.132-.074.206-.129a.897.897 0 0 1 1.202.127l.356.4a.854.854 0 0 1-.21 1.307 5.47 5.47 0 0 1-1.827.664 4.622 4.622 0 0 1-.743.072 5.41 5.41 0 0 1-1.993-.368 4.75 4.75 0 0 1-1.621-1.041 4.948 4.948 0 0 1-1.085-1.624c-.267-.633-.4-1.338-.4-2.114 0-.776.133-1.48.4-2.113a4.95 4.95 0 0 1 1.085-1.624 4.75 4.75 0 0 1 1.621-1.041 5.412 5.412 0 0 1 1.993-.368c.6 0 1.202.12 1.808.357.23.091.503.254.817.487a.897.897 0 0 1 .112 1.34l-.363.379a.897.897 0 0 1-1.2.086ZM24.33 12.832l-1.817-1.822a.77.77 0 0 1-.225-.544v-2.23c0-2.06-.214-2.807-.616-3.56a4.195 4.195 0 0 0-1.744-1.748c-.751-.403-1.497-.617-3.552-.617h-2.94a.154.154 0 0 1-.11-.263L15.144.226A.77.77 0 0 1 15.69 0h1.02c2.742 0 3.736.286 4.738.823a5.593 5.593 0 0 1 2.324 2.33c.536 1.004.822 2 .822 4.747v4.823a.154.154 0 0 1-.263.109ZM11.795 24.387l1.818-1.822a.77.77 0 0 1 .545-.226h2.224c2.055 0 2.8-.214 3.552-.617a4.195 4.195 0 0 0 1.744-1.747c.402-.753.616-1.5.616-3.56v-2.947a.154.154 0 0 1 .263-.109l1.818 1.822a.77.77 0 0 1 .225.544v1.025c0 2.747-.286 3.743-.822 4.748a5.594 5.594 0 0 1-2.324 2.33c-1.002.536-1.996.822-4.737.822h-4.813a.154.154 0 0 1-.109-.263ZM.263 11.818l1.818 1.822a.77.77 0 0 1 .225.544v2.23c0 2.06.214 2.807.616 3.56a4.195 4.195 0 0 0 1.743 1.748c.752.403 1.497.617 3.553.617h2.94a.154.154 0 0 1 .11.263L9.45 24.424a.77.77 0 0 1-.546.226H7.883c-2.741 0-3.735-.286-4.737-.823a5.593 5.593 0 0 1-2.325-2.33C.285 20.493 0 19.497 0 16.75v-4.823a.154.154 0 0 1 .263-.109ZM12.805.263l-1.818 1.822a.77.77 0 0 1-.545.226H8.218c-2.056 0-2.801.214-3.553.617a4.195 4.195 0 0 0-1.743 1.747c-.402.754-.616 1.5-.616 3.56v2.947a.154.154 0 0 1-.263.109L.225 9.469A.77.77 0 0 1 0 8.925V7.9c0-2.747.285-3.743.821-4.747A5.593 5.593 0 0 1 3.146.823C4.148.286 5.142 0 7.883 0h4.813a.154.154 0 0 1 .109.263Z"/><path d="M20.491 8.994 18.012 6.62a1.531 1.531 0 0 0-.56-.359 1.53 1.53 0 0 0-.544-.099H9.593a.154.154 0 0 1-.11-.263l1.82-1.822a.77.77 0 0 1 .545-.226h5.83a3.078 3.078 0 0 1 3.075 3.082v1.95a.154.154 0 0 1-.261.11ZM15.62 20.54l2.37-2.485c.165-.165.284-.357.358-.562a1.54 1.54 0 0 0 .099-.544V9.615a.154.154 0 0 1 .263-.109l1.818 1.824a.77.77 0 0 1 .225.544v5.844a3.078 3.078 0 0 1-3.075 3.081h-1.946a.154.154 0 0 1-.111-.26ZM4.104 15.656l2.48 2.374c.163.165.355.284.56.359.168.064.352.099.543.099h7.317a.154.154 0 0 1 .109.263l-1.82 1.822a.77.77 0 0 1-.545.226h-5.83a3.078 3.078 0 0 1-3.074-3.082v-1.95a.154.154 0 0 1 .26-.11ZM8.976 4.112l-2.37 2.485a1.535 1.535 0 0 0-.357.561 1.54 1.54 0 0 0-.1.545v7.332a.154.154 0 0 1-.262.109L4.069 13.32a.77.77 0 0 1-.225-.543V6.933A3.078 3.078 0 0 1 6.918 3.85h1.947a.154.154 0 0 1 .111.26Z"/></g><defs><clipPath id="a"><path fill="#fff" d="M0 0h96v25H0z"/></clipPath></defs></svg>