<svg xmlns="http://www.w3.org/2000/svg" width="64" height="64" fill="none" viewBox="0 0 50 50"><g fill-rule="evenodd" clip-path="url(#a)" clip-rule="evenodd"><path fill="#E44E31" d="m48.669 25.663-3.636-3.643a1.54 1.54 0 0 1-.45-1.089v-4.46c0-4.12-.428-5.614-1.232-7.12a8.39 8.39 0 0 0-3.486-3.495c-1.504-.805-2.995-1.234-7.106-1.234h-5.88a.308.308 0 0 1-.219-.526L30.296.452A1.54 1.54 0 0 1 31.386 0h2.043c5.482 0 7.47.572 9.475 1.646a11.186 11.186 0 0 1 4.648 4.66c1.072 2.008 1.643 4 1.643 9.494v9.645a.308.308 0 0 1-.526.218Z"/><path fill="#F6C33B" d="m23.582 48.775 3.636-3.644a1.54 1.54 0 0 1 1.09-.453h4.447c4.112 0 5.603-.429 7.106-1.234a8.39 8.39 0 0 0 3.487-3.494c.804-1.507 1.232-3.001 1.232-7.121v-5.893a.308.308 0 0 1 .526-.218l3.636 3.644c.288.289.45.68.45 1.088v2.05c0 5.494-.571 7.487-1.643 9.495a11.188 11.188 0 0 1-4.649 4.66c-2.004 1.073-3.992 1.645-9.474 1.645H23.8a.308.308 0 0 1-.218-.525Z"/><path fill="#7387EF" d="m.526 23.637 3.636 3.644c.288.289.45.68.45 1.088v4.46c0 4.12.428 5.614 1.232 7.12a8.39 8.39 0 0 0 3.487 3.495c1.503.806 2.994 1.235 7.105 1.235h5.88a.308.308 0 0 1 .219.525l-3.636 3.644a1.54 1.54 0 0 1-1.09.452h-2.043c-5.482 0-7.47-.572-9.474-1.646a11.187 11.187 0 0 1-4.65-4.659C.572 40.987 0 38.995 0 33.501v-9.646a.308.308 0 0 1 .526-.218Z"/><path fill="#D776EB" d="m25.61.526-3.636 3.643a1.54 1.54 0 0 1-1.09.453h-4.448c-4.111 0-5.602.429-7.105 1.234a8.39 8.39 0 0 0-3.487 3.495c-.804 1.506-1.232 3-1.232 7.12v5.893a.308.308 0 0 1-.526.218L.45 18.939A1.54 1.54 0 0 1 0 17.85V15.8c0-5.494.57-7.486 1.643-9.495a11.187 11.187 0 0 1 4.649-4.659C8.296.572 10.284 0 15.766 0h9.625a.308.308 0 0 1 .219.526Z"/><path fill="#E44E31" d="m40.982 17.988-4.957-4.748a3.063 3.063 0 0 0-1.12-.717 3.061 3.061 0 0 0-1.088-.198H19.183a.308.308 0 0 1-.218-.526l3.64-3.644a1.54 1.54 0 0 1 1.09-.452h11.66c3.395 0 6.148 2.76 6.148 6.163v3.9a.308.308 0 0 1-.52.222Z"/><path fill="#F6C33B" d="m31.241 41.08 4.74-4.97c.328-.329.566-.713.715-1.123a3.08 3.08 0 0 0 .198-1.09V19.233a.308.308 0 0 1 .526-.218l3.636 3.647c.288.289.45.68.45 1.088v11.688c0 3.404-2.753 6.163-6.15 6.163h-3.892a.308.308 0 0 1-.223-.521Z"/><path fill="#7387EF" d="m8.209 31.312 4.957 4.749c.328.328.712.567 1.12.716.339.128.705.198 1.088.198h14.634a.308.308 0 0 1 .218.526l-3.64 3.644a1.54 1.54 0 0 1-1.09.452h-11.66c-3.395 0-6.149-2.759-6.149-6.162v-3.9a.308.308 0 0 1 .522-.223Z"/><path fill="#D776EB" d="m17.952 8.224-4.74 4.97a3.07 3.07 0 0 0-.715 1.123 3.08 3.08 0 0 0-.198 1.09V30.07a.308.308 0 0 1-.526.217l-3.636-3.647a1.54 1.54 0 0 1-.45-1.087V13.866c0-3.404 2.754-6.163 6.15-6.163h3.892a.308.308 0 0 1 .223.52Z"/></g><defs><clipPath id="a"><path fill="#fff" d="M0 0h50v50H0z"/></clipPath></defs></svg>