<svg xmlns="http://www.w3.org/2000/svg" width="245.76" height="64" fill="none" viewBox="0 0 96 25"><g fill="#000" fill-rule="evenodd" clip-path="url(#a)" clip-rule="evenodd"><path d="M31.647 7.11h.595c.406 0 .735.33.735.735v.696c0 .022.018.04.04.04q.507-.9 1.367-1.307a4.3 4.3 0 0 1 1.856-.409q1.075 0 1.935.398a4.3 4.3 0 0 1 1.465 1.093q.606.694.919 1.634.312.94.312 2.021 0 1.083-.332 2.022a5.1 5.1 0 0 1-.928 1.634 4.3 4.3 0 0 1-1.436 1.092 4.2 4.2 0 0 1-1.837.399q-.665 0-1.172-.143a4 4 0 0 1-.899-.368q-.39-.225-.664-.48a3.4 3.4 0 0 1-.45-.5.06.06 0 0 0-.058.059v4.946a.897.897 0 0 1-.898.897h-.55a.897.897 0 0 1-.897-.897V8.007c0-.495.402-.897.897-.897m6.88 4.901q0-.57-.186-1.102a2.73 2.73 0 0 0-1.417-1.593 2.6 2.6 0 0 0-1.152-.245 2.62 2.62 0 0 0-2.023.898 2.8 2.8 0 0 0-.547.94 3.3 3.3 0 0 0-.185 1.102q0 .573.185 1.103a2.73 2.73 0 0 0 1.417 1.593 2.6 2.6 0 0 0 1.153.245 2.62 2.62 0 0 0 2.022-.899q.36-.408.547-.939.186-.53.185-1.103Zm5.723-4.9h.671c.429 0 .776.347.776.775v.737c0 .022.018.04.04.04q.39-.859 1.113-1.328t1.661-.47q.215 0 .42.04c.244.05.42.264.42.513v1.344a.49.49 0 0 1-.576.482 3 3 0 0 0-.557-.05q-.82 0-1.319.316a2.45 2.45 0 0 0-.762.725 2.5 2.5 0 0 0-.352.817 3.2 3.2 0 0 0-.088.612v4.351a.897.897 0 0 1-.897.898h-.55a.897.897 0 0 1-.897-.898V8.007c0-.495.401-.897.897-.897Zm7.933 0h.55c.496 0 .897.4.897.896v8.008a.897.897 0 0 1-.897.898h-.55a.897.897 0 0 1-.897-.898V8.007c0-.495.401-.897.897-.897Zm-1.23-3.33q0-.591.42-1.03t1.065-.44 1.085.419.44 1.051q0 .633-.44 1.052a1.5 1.5 0 0 1-1.085.419q-.644 0-1.065-.44a1.44 1.44 0 0 1-.42-1.03Zm10.102 5.57q-.713-.525-1.27-.525-.47 0-.918.245-.45.244-.45.796 0 .45.372.654.37.203.938.347.566.143 1.22.296.655.153 1.222.47.566.316.938.867.37.552.371 1.512 0 .878-.361 1.48a2.9 2.9 0 0 1-.938.97 4 4 0 0 1-1.3.531 6.5 6.5 0 0 1-1.446.164q-1.095 0-2.012-.327-.36-.128-.863-.514a.897.897 0 0 1-.082-1.353l.243-.238a.897.897 0 0 1 1.221-.033q.213.188.37.29.518.337 1.26.337.254 0 .528-.062.273-.06.508-.204.234-.143.38-.357a.87.87 0 0 0 .147-.5q0-.51-.371-.756a3.2 3.2 0 0 0-.938-.398 20 20 0 0 0-1.221-.286 4.6 4.6 0 0 1-1.221-.43 2.6 2.6 0 0 1-.938-.826q-.371-.531-.371-1.47 0-.817.322-1.42a2.9 2.9 0 0 1 .85-.99q.528-.389 1.211-.572a5.3 5.3 0 0 1 1.388-.184q.938 0 1.856.337.333.122.742.452a.897.897 0 0 1 .052 1.352l-.292.275a.9.9 0 0 1-1.147.07m5.333-2.24h.433c.495 0 .897.4.897.896v.635a3.8 3.8 0 0 1 1.045-1.236q.694-.54 1.866-.54 2.209 0 2.931 1.817.508-.94 1.27-1.379t1.817-.439q.939 0 1.583.327.645.327 1.045.898.401.572.577 1.338a7.3 7.3 0 0 1 .176 1.644v4.943a.897.897 0 0 1-.898.898h-.55a.897.897 0 0 1-.897-.898v-4.657q0-.45-.078-.868a2.1 2.1 0 0 0-.274-.735 1.4 1.4 0 0 0-.527-.5q-.332-.184-.86-.184-.547 0-.928.214a1.84 1.84 0 0 0-.625.572q-.244.357-.352.817a4 4 0 0 0-.108.929v4.412a.897.897 0 0 1-.897.898h-.55a.897.897 0 0 1-.897-.898v-4.943q0-.92-.371-1.46-.372-.541-1.231-.541-.587 0-.987.204a1.9 1.9 0 0 0-.665.551 2.2 2.2 0 0 0-.38.797q-.118.449-.118.94v4.452a.897.897 0 0 1-.897.898h-.55a.897.897 0 0 1-.898-.898V8.007c0-.495.402-.897.898-.897Zm17.429 0h.55c.495 0 .897.4.897.896v8.008a.897.897 0 0 1-.897.898h-.55a.897.897 0 0 1-.898-.898V8.007c0-.495.402-.897.898-.897Zm-1.23-3.33q0-.591.42-1.03t1.065-.44 1.085.419.44 1.051q0 .633-.44 1.052a1.5 1.5 0 0 1-1.085.419q-.645 0-1.065-.44a1.44 1.44 0 0 1-.42-1.03Zm11.47 5.733a2.4 2.4 0 0 0-.254-.178 1.8 1.8 0 0 0-.919-.265 2.62 2.62 0 0 0-2.022.898 2.8 2.8 0 0 0-.547.94 3.3 3.3 0 0 0-.186 1.102q0 .573.186 1.103a2.73 2.73 0 0 0 1.416 1.593 2.6 2.6 0 0 0 1.153.245q.548 0 1.016-.235.095-.046.206-.129a.897.897 0 0 1 1.202.127l.356.4a.854.854 0 0 1-.21 1.307 5.5 5.5 0 0 1-1.827.664 4.6 4.6 0 0 1-.743.072 5.4 5.4 0 0 1-1.993-.368 4.75 4.75 0 0 1-1.621-1.041 4.95 4.95 0 0 1-1.085-1.624q-.4-.95-.4-2.114t.4-2.113a5 5 0 0 1 1.085-1.624 4.75 4.75 0 0 1 1.621-1.041 5.4 5.4 0 0 1 1.993-.368q.9 0 1.808.357.346.137.817.487a.897.897 0 0 1 .112 1.34l-.363.379a.897.897 0 0 1-1.2.086ZM24.33 12.832l-1.817-1.822a.77.77 0 0 1-.225-.544v-2.23c0-2.06-.214-2.807-.616-3.56a4.2 4.2 0 0 0-1.744-1.748c-.751-.403-1.497-.617-3.552-.617h-2.94a.154.154 0 0 1-.11-.263L15.144.226A.77.77 0 0 1 15.69 0h1.02c2.742 0 3.736.286 4.738.823a5.6 5.6 0 0 1 2.324 2.33c.536 1.004.822 2 .822 4.747v4.823a.154.154 0 0 1-.263.109ZM11.795 24.387l1.818-1.822a.77.77 0 0 1 .545-.226h2.224c2.055 0 2.8-.214 3.552-.617a4.2 4.2 0 0 0 1.744-1.747c.402-.753.616-1.5.616-3.56v-2.947a.154.154 0 0 1 .263-.109l1.818 1.822a.77.77 0 0 1 .225.544v1.025c0 2.747-.286 3.743-.822 4.748a5.6 5.6 0 0 1-2.324 2.33c-1.002.536-1.996.822-4.737.822h-4.813a.154.154 0 0 1-.109-.263M.263 11.818l1.818 1.822a.77.77 0 0 1 .225.544v2.23c0 2.06.214 2.807.616 3.56a4.2 4.2 0 0 0 1.743 1.748c.752.403 1.497.617 3.553.617h2.94a.154.154 0 0 1 .11.263L9.45 24.424a.77.77 0 0 1-.546.226H7.883c-2.741 0-3.735-.286-4.737-.823a5.6 5.6 0 0 1-2.325-2.33C.285 20.493 0 19.497 0 16.75v-4.823a.154.154 0 0 1 .263-.109M12.805.263l-1.818 1.822a.77.77 0 0 1-.545.226H8.218c-2.056 0-2.801.214-3.553.617a4.2 4.2 0 0 0-1.743 1.747c-.402.754-.616 1.5-.616 3.56v2.947a.154.154 0 0 1-.263.109L.225 9.469A.77.77 0 0 1 0 8.925V7.9c0-2.747.285-3.743.821-4.747A5.6 5.6 0 0 1 3.146.823C4.148.286 5.142 0 7.883 0h4.813a.154.154 0 0 1 .109.263"/><path d="M20.491 8.994 18.012 6.62a1.5 1.5 0 0 0-.56-.359 1.5 1.5 0 0 0-.544-.099H9.593a.154.154 0 0 1-.11-.263l1.82-1.822a.77.77 0 0 1 .545-.226h5.83a3.08 3.08 0 0 1 3.075 3.082v1.95a.154.154 0 0 1-.261.11ZM15.62 20.54l2.37-2.485c.165-.165.284-.357.358-.562a1.5 1.5 0 0 0 .099-.544V9.615a.154.154 0 0 1 .263-.109l1.818 1.824a.77.77 0 0 1 .225.544v5.844a3.08 3.08 0 0 1-3.075 3.081h-1.946a.154.154 0 0 1-.111-.26ZM4.104 15.656l2.48 2.374c.163.165.355.284.56.359.168.064.352.099.543.099h7.317a.154.154 0 0 1 .109.263l-1.82 1.822a.77.77 0 0 1-.545.226h-5.83a3.08 3.08 0 0 1-3.074-3.082v-1.95a.154.154 0 0 1 .26-.11ZM8.976 4.112l-2.37 2.485a1.5 1.5 0 0 0-.357.561 1.5 1.5 0 0 0-.1.545v7.332a.154.154 0 0 1-.262.109L4.069 13.32a.77.77 0 0 1-.225-.543V6.933A3.08 3.08 0 0 1 6.918 3.85h1.947a.154.154 0 0 1 .111.26Z"/></g><defs><clipPath id="a"><path fill="#fff" d="M0 0h96v25H0z"/></clipPath></defs></svg>