<svg xmlns="http://www.w3.org/2000/svg" width="266.667" height="64" fill="none" viewBox="0 0 100 24"><g clip-path="url(#a)"><path fill="#DA552F" d="M23.69 11.701c0 6.463-5.2 11.702-11.614 11.702C5.66 23.403.46 18.163.46 11.702.46 5.237 5.66 0 12.076 0 18.49 0 23.69 5.239 23.69 11.701"/><path fill="#fff" d="M13.621 11.701h-3.29v-3.51h3.29a1.73 1.73 0 0 1 1.232.514 1.76 1.76 0 0 1 .51 1.241 1.77 1.77 0 0 1-.51 1.241 1.74 1.74 0 0 1-1.232.514m0-5.85H8.008v11.701h2.323v-3.51h3.29c2.245 0 4.065-1.834 4.065-4.096s-1.82-4.095-4.065-4.095"/><path fill="#DA552F" d="M35.888 10.271c0-.644-.49-1.034-1.129-1.034h-1.71v2.056h1.71c.639 0 1.13-.39 1.13-1.022Zm-4.458 5.33v-7.8h3.557c1.654 0 2.554 1.126 2.554 2.47 0 1.333-.912 2.459-2.554 2.459h-1.938v2.872zm7.097 0V9.916h1.447v.747c.4-.483 1.072-.885 1.757-.885v1.424a2 2 0 0 0-.4-.034c-.478 0-1.118.276-1.357.633v3.802h-1.448Zm8.075-2.917c0-.862-.502-1.609-1.414-1.609-.902 0-1.403.747-1.403 1.609 0 .873.501 1.62 1.403 1.62.911 0 1.414-.747 1.414-1.62m-4.323 0c0-1.574 1.095-2.907 2.908-2.907 1.825 0 2.92 1.333 2.92 2.907s-1.095 2.918-2.92 2.918c-1.813 0-2.908-1.345-2.908-2.918m10.701.988v-1.965c-.24-.368-.764-.632-1.243-.632-.832 0-1.402.655-1.402 1.609 0 .964.57 1.62 1.402 1.62.48 0 1.004-.265 1.243-.633Zm0 1.93v-.85c-.434.55-1.026.85-1.7.85-1.379 0-2.44-1.057-2.44-2.918 0-1.804 1.039-2.907 2.44-2.907.65 0 1.266.276 1.7.85V7.801h1.46v7.8h-1.46Zm6.618 0v-.839a2.6 2.6 0 0 1-1.938.839c-1.209 0-1.779-.667-1.779-1.747v-3.94h1.448v3.366c0 .77.399 1.022 1.014 1.022.559 0 1.004-.31 1.255-.632V9.915h1.448v5.687zm2.536-2.918c0-1.7 1.231-2.907 2.92-2.907 1.128 0 1.812.494 2.177 1l-.947.895c-.262-.39-.66-.597-1.162-.597-.879 0-1.494.644-1.494 1.609 0 .964.615 1.62 1.494 1.62.501 0 .9-.23 1.162-.61l.947.897c-.365.505-1.049 1.01-2.178 1.01-1.688 0-2.92-1.205-2.92-2.917Zm6.343 1.39V11.19h-.912V9.915h.912V8.398h1.448v1.517h1.117v1.275h-1.117v2.493c0 .356.182.62.502.62.216 0 .422-.08.5-.171l.31 1.113c-.217.196-.605.357-1.21.357-1.014 0-1.55-.529-1.55-1.528m11.841 1.528v-3.367h-3.592v3.367h-1.618V7.8h1.618v3.01h3.593V7.8h1.63v7.8h-1.63Zm6.814 0v-.839a2.6 2.6 0 0 1-1.939.839c-1.209 0-1.779-.667-1.779-1.747v-3.94h1.448v3.366c0 .77.4 1.022 1.016 1.022.558 0 1.003-.31 1.254-.632V9.915h1.448v5.687zm6.605 0V12.11c0-.77-.398-1.034-1.015-1.034-.57 0-1.003.321-1.254.643v3.883H90.02V9.915h1.447v.712c.354-.413 1.038-.85 1.927-.85 1.22 0 1.802.69 1.802 1.769v4.056zm3.186-1.528V11.19h-.911V9.915h.91V8.398h1.45v1.517h1.117v1.275H98.37v2.493c0 .356.182.62.502.62.216 0 .423-.08.502-.171l.307 1.113c-.216.196-.605.357-1.209.357-1.014 0-1.55-.529-1.55-1.528Z"/></g><defs><clipPath id="a"><path fill="#fff" d="M0 0h100v23.611H0z"/></clipPath></defs></svg>