<svg xmlns="http://www.w3.org/2000/svg" width="492.308" height="64" fill="none" viewBox="0 0 100 13"><g clip-path="url(#a)"><path fill="#ff2638" d="m5.41 6.34 5.41 5.327H0l5.41-5.326Z"/><path fill="#ffc600" d="M0 1.015 5.41 6.34l5.41-5.326z"/><path fill="#0079f2" d="m5.414 6.34 5.41 5.327 5.41-5.326-5.41-5.326-5.41 5.326Z"/><path fill="#000c2c" d="M97.915 3.54c0 .077-.107.11-.157.051-.396-.46-1.05-.808-1.945-.808-1.936 0-3.037 1.563-3.037 3.456 0 1.881 1.1 3.444 3.037 3.444.907 0 1.616-.318 2.056-.866.05-.06.16-.027.16.05v.586c0 .044.035.078.077.078h1.237a.08.08 0 0 0 .078-.078V.078A.077.077 0 0 0 99.343 0h-1.35a.08.08 0 0 0-.078.078zm.063 2.7c0 1.182-.696 2.109-1.848 2.109-1.14 0-1.848-.928-1.848-2.11 0-1.207.709-2.122 1.848-2.122 1.152 0 1.848.915 1.848 2.122ZM92.4 2.956a.08.08 0 0 0-.02-.053.08.08 0 0 0-.051-.025l-.144-.007c-.93 0-1.472.373-1.77.738-.051.061-.167.028-.167-.052v-.545q0-.031-.023-.055a.08.08 0 0 0-.054-.023h-1.238a.08.08 0 0 0-.077.078v6.44c0 .044.035.078.077.078h1.352a.08.08 0 0 0 .077-.078V6.1c0-1.271.633-1.83 1.697-1.83.09 0 .186.008.252.014a.08.08 0 0 0 .081-.046.1.1 0 0 0 .008-.032zm-6.378 3.486a.078.078 0 0 1 .09.078v.329c0 .89-.595 1.652-1.81 1.652-.723 0-1.166-.242-1.166-.865 0-.457.304-.8 1.229-.94zm-2.024 3.24c.936 0 1.64-.273 2.097-.808.05-.06.158-.026.162.052.018.378.072.603.082.603h1.313c.055 0 .094-.057.077-.11-.091-.289-.15-.757-.15-1.135V5.248c0-1.512-.91-2.465-2.834-2.465-1.939 0-2.733 1.015-2.889 2.138a.077.077 0 0 0 .077.086h1.315c.038 0 .07-.028.078-.065.123-.572.587-.913 1.38-.913.899 0 1.406.406 1.406 1.207v.034a.08.08 0 0 1-.067.077l-1.832.257c-1.734.241-2.519.966-2.519 2.084 0 1.13.67 1.995 2.304 1.995Zm-6.29 0c2.1 0 3.417-1.588 3.417-3.443 0-1.856-1.317-3.457-3.418-3.457-2.088 0-3.404 1.601-3.404 3.456 0 1.856 1.316 3.444 3.404 3.444Zm-1.9-3.442c0-1.284.81-2.123 1.898-2.123 1.102 0 1.912.839 1.912 2.122 0 1.271-.81 2.11-1.912 2.11-1.088 0-1.898-.839-1.898-2.11zm-7.053-2.649c-.05.06-.156.026-.156-.052V.08A.08.08 0 0 0 68.52 0h-1.35a.08.08 0 0 0-.079.078v9.374c0 .044.035.078.079.078h1.236a.08.08 0 0 0 .079-.078v-.591c0-.078.107-.111.156-.05.45.552 1.16.872 2.058.872 1.949 0 3.05-1.563 3.05-3.443 0-1.894-1.101-3.457-3.05-3.457-.884 0-1.546.348-1.944.808m-.208 2.648c0-1.207.696-2.122 1.848-2.122 1.14 0 1.849.915 1.849 2.122 0 1.183-.71 2.11-1.849 2.11-1.151 0-1.848-.928-1.848-2.11m-2.735 2.049a.08.08 0 0 0-.032-.063.08.08 0 0 0-.069-.016 2 2 0 0 1-.367.039c-.519 0-.733-.255-.733-.776V4.22a.08.08 0 0 1 .078-.077h1.071a.08.08 0 0 0 .079-.079v-1.05a.08.08 0 0 0-.079-.077h-1.07a.08.08 0 0 1-.055-.023.08.08 0 0 1-.023-.056V1.3a.08.08 0 0 0-.078-.078h-1.35a.08.08 0 0 0-.078.078v1.56a.08.08 0 0 1-.023.055.08.08 0 0 1-.056.023h-.843a.08.08 0 0 0-.078.078v1.051c0 .044.035.078.078.078h.843c.044 0 .079.035.079.078v3.404c0 1.245.582 1.944 1.924 1.944.372 0 .62-.041.727-.063a.07.07 0 0 0 .057-.073V8.288ZM55.19 6.239c0 1.906 1.342 3.444 3.278 3.444 1.901 0 2.887-1.293 3.1-2.453a.08.08 0 0 0-.017-.062.08.08 0 0 0-.06-.026h-1.392a.08.08 0 0 0-.077.059c-.195.679-.779 1.148-1.567 1.148-1.075 0-1.759-.877-1.759-2.11 0-1.245.684-2.122 1.76-2.122.787 0 1.371.47 1.566 1.148.01.035.041.06.077.06h1.393a.08.08 0 0 0 .059-.027.08.08 0 0 0 .016-.062c-.212-1.16-1.198-2.453-3.099-2.453-1.936 0-3.278 1.538-3.278 3.456m-2.536.496c0 1.08-.582 1.652-1.519 1.652-.911 0-1.278-.597-1.278-1.5V3.014a.08.08 0 0 0-.078-.078h-1.35a.08.08 0 0 0-.079.078v4.078c0 1.538.824 2.592 2.417 2.592.886 0 1.49-.333 1.828-.746.051-.063.173-.027.173.053v.463c0 .044.035.078.078.078h1.236a.08.08 0 0 0 .078-.078v-6.44a.08.08 0 0 0-.078-.078h-1.35a.08.08 0 0 0-.078.078v3.722Zm-6.966-3.196c0 .078-.107.111-.157.052-.396-.46-1.05-.808-1.944-.808-1.937 0-3.039 1.563-3.039 3.456 0 1.881 1.102 3.444 3.039 3.444.906 0 1.614-.318 2.055-.866.05-.06.16-.027.16.05v.586c0 .044.034.078.078.078h1.236a.08.08 0 0 0 .078-.078V.078A.08.08 0 0 0 47.115 0h-1.35a.08.08 0 0 0-.079.078V3.54h.001Zm.063 2.7c0 1.183-.696 2.11-1.848 2.11-1.14 0-1.849-.928-1.849-2.11 0-1.207.71-2.122 1.85-2.122 1.15 0 1.847.915 1.847 2.122m-9.228 3.444c2.102 0 3.418-1.588 3.418-3.443 0-1.857-1.315-3.457-3.418-3.457-2.088 0-3.404 1.601-3.404 3.456 0 1.856 1.316 3.444 3.404 3.444M34.624 6.24c0-1.284.81-2.123 1.898-2.123 1.102 0 1.911.839 1.911 2.122 0 1.271-.81 2.11-1.91 2.11-1.09 0-1.9-.839-1.9-2.11zm-1.68-3.283a.077.077 0 0 0-.07-.078l-.144-.007c-.93 0-1.473.373-1.771.738-.05.061-.166.028-.166-.052v-.545a.08.08 0 0 0-.078-.078H29.48a.08.08 0 0 0-.079.078v6.44c0 .044.035.078.079.078h1.35a.08.08 0 0 0 .078-.078V6.1c0-1.271.633-1.83 1.696-1.83.091 0 .186.008.252.014a.08.08 0 0 0 .09-.078v-1.25ZM23.32 8.932c0-.078.107-.112.159-.052.397.465 1.059.803 1.942.803 1.949 0 3.05-1.563 3.05-3.443 0-1.894-1.101-3.457-3.05-3.457-.9 0-1.61.33-2.059.878-.049.06-.156.026-.156-.052v-.596a.08.08 0 0 0-.079-.078h-1.235a.08.08 0 0 0-.078.078v9.083c0 .043.034.078.078.078h1.35a.08.08 0 0 0 .079-.078V8.932zm-.05-2.693c0-1.22.695-2.148 1.847-2.148 1.14 0 1.849.928 1.849 2.148 0 1.183-.71 2.11-1.849 2.11-1.151 0-1.848-.928-1.848-2.11Z"/></g><defs><clipPath id="a"><path fill="#fff" d="M0 0h100v12.174H0z"/></clipPath></defs></svg>