<svg xmlns="http://www.w3.org/2000/svg" width="228.571" height="64" fill="none" viewBox="0 0 100 28"><g clip-path="url(#a)"><path fill="#252830" fill-rule="evenodd" d="M41.696 12.942c-.33.34-.743.51-1.243.51h-2.095V9.908h2.095c.5 0 .914.167 1.243.502.33.334.494.758.494 1.27 0 .502-.164.923-.494 1.263Zm1.652-4.055c-.783-.758-1.748-1.138-2.895-1.138h-4.445v11.48h2.35v-3.62h2.095c1.147 0 2.112-.378 2.895-1.136.784-.758 1.175-1.69 1.175-2.793 0-1.104-.391-2.035-1.175-2.793Zm5.85 2.133c-.47.268-.809.67-1.013 1.205v-1.606h-2.197v8.61h2.197V15.23c0-.803.264-1.377.792-1.723.528-.345 1.127-.479 1.797-.401v-2.488c-.58 0-1.105.134-1.575.402Zm5.084 5.518c.425.424.958.636 1.6.636.64 0 1.176-.212 1.607-.636.43-.424.646-.962.646-1.614 0-.652-.215-1.19-.646-1.615-.43-.423-.967-.635-1.608-.635-.64 0-1.174.212-1.599.635-.425.424-.638.963-.638 1.615s.213 1.19.638 1.614Zm4.715 1.443c-.85.831-1.89 1.247-3.116 1.247-1.226 0-2.262-.416-3.107-1.247-.845-.832-1.268-1.85-1.268-3.057 0-1.207.423-2.226 1.268-3.058.845-.83 1.88-1.247 3.107-1.247 1.227 0 2.265.416 3.116 1.247.85.832 1.276 1.851 1.276 3.058 0 1.206-.425 2.225-1.276 3.057Zm5.706-5.288h1.925V10.62h-1.925V8.525l-2.197.66v1.434h-1.481v2.074h1.481v3.657c0 1.149.31 1.946.928 2.392.619.445 1.684.585 3.194.418v-1.957a9.57 9.57 0 0 1-1.056.009c-.284-.017-.5-.093-.647-.226-.148-.134-.222-.346-.222-.636v-3.657Zm5.433 3.845c.425.424.959.636 1.6.636.64 0 1.176-.212 1.607-.636.43-.424.646-.962.646-1.614 0-.652-.215-1.19-.646-1.615-.43-.423-.967-.635-1.608-.635-.64 0-1.174.212-1.599.635-.425.424-.638.963-.638 1.615s.213 1.19.638 1.614Zm4.715 1.443c-.85.831-1.89 1.247-3.116 1.247-1.226 0-2.262-.416-3.107-1.247-.845-.832-1.268-1.85-1.268-3.057 0-1.207.423-2.226 1.268-3.058.845-.83 1.88-1.247 3.107-1.247 1.227 0 2.265.416 3.116 1.247.85.832 1.276 1.851 1.276 3.058 0 1.206-.425 2.225-1.276 3.057Zm8.429-5.039c-.33.34-.743.51-1.243.51h-2.095V9.908h2.095c.5 0 .914.167 1.243.502.33.334.494.758.494 1.27 0 .502-.165.923-.494 1.263Zm1.652-4.055c-.784-.758-1.748-1.138-2.895-1.138h-4.445v11.48h2.35v-3.62h2.095c1.147 0 2.111-.378 2.895-1.136.784-.758 1.175-1.69 1.175-2.793 0-1.104-.391-2.035-1.175-2.793Zm2.64 10.341h2.197v-7.174h-2.197v7.174Zm1.079-8.609c-.393 0-.732-.141-1.02-.424a1.356 1.356 0 0 1-.432-1.002c0-.385.144-.722.432-1.01a1.392 1.392 0 0 1 1.02-.434c.404 0 .75.145 1.038.433.288.29.432.626.432 1.011 0 .386-.144.72-.432 1.002a1.429 1.429 0 0 1-1.038.424Zm9.165 3.539h-4.324c.124-.522.377-.927.763-1.215.384-.288.87-.432 1.458-.432.497 0 .941.136 1.33.407.391.272.648.685.773 1.24Zm1.763 3.326s.058-.08.13-.188l-2.048-.616c-.422.427-1.004.64-1.745.64-1.3 0-2.097-.51-2.39-1.532h6.393c.055-.304.084-.593.084-.864 0-1.217-.404-2.24-1.212-3.066-.808-.826-1.834-1.239-3.078-1.239-1.312 0-2.386.41-3.222 1.231-.837.821-1.254 1.846-1.254 3.074 0 1.239.423 2.266 1.27 3.081.849.816 1.974 1.223 3.376 1.223 1.627 0 2.86-.581 3.696-1.744Z" clip-rule="evenodd"/><path fill="url(#b)" stroke="#D8DBE3" stroke-width=".17" d="M17.698.077h-7.62c-5.523 0-10 4.384-10 9.792v7.462c0 5.408 4.477 9.792 10 9.792h7.62c5.523 0 10-4.384 10-9.792V9.869c0-5.408-4.477-9.792-10-9.792Z"/><g filter="url(#c)"><g fill-rule="evenodd" clip-rule="evenodd" filter="url(#d)"><path fill="url(#e)" d="M13.921 20.122v2.718c-.459 0-.875-.178-1.18-.468h-.002l-.23-.269-7.507-8.75a.026.026 0 0 1-.01-.012l-.031-.034-.006-.008a.614.614 0 0 1-.089-.158.625.625 0 0 1-.046-.218v-.045a.643.643 0 0 1 .182-.431.68.68 0 0 1 .495-.213h1.654l6.769 7.889.001-.001Z"/><path fill="url(#f)" d="M13.921 20.122v2.718c-.459 0-.875-.178-1.18-.468h-.002l-.23-.269-7.507-8.75a.026.026 0 0 1-.01-.012l-.031-.034-.006-.008a.614.614 0 0 1-.089-.158.625.625 0 0 1-.046-.218v-.045a.643.643 0 0 1 .182-.431.68.68 0 0 1 .495-.213h1.654l6.769 7.889.001-.001Z"/></g><g filter="url(#g)"><path fill="url(#h)" fill-opacity=".4" fill-rule="evenodd" d="M13.921 20.122v2.718c-.459 0-.875-.178-1.18-.468h-.002l-.23-.269-5.6-6.528-1.907-2.222a.026.026 0 0 1-.01-.012l-.031-.034-.006-.008a.614.614 0 0 1-.089-.158.625.625 0 0 1-.046-.218v-.045a.643.643 0 0 1 .182-.431.68.68 0 0 1 .495-.213h1.654l.778.907 2.088 2.434 3.425 3.99.478.558.001-.001Z" clip-rule="evenodd"/></g><g fill-rule="evenodd" clip-rule="evenodd" filter="url(#i)"><path fill="url(#j)" d="M13.921 16.51v3.63l-.001.001-8.93-10.38a.644.644 0 0 1-.124-.199.64.64 0 0 1-.046-.219v-.045a.64.64 0 0 1 .182-.428.672.672 0 0 1 .495-.213h1.668l6.756 7.853Z"/><path fill="url(#k)" d="M13.921 16.51v3.63l-.001.001-8.93-10.38a.644.644 0 0 1-.124-.199.64.64 0 0 1-.046-.219v-.045a.64.64 0 0 1 .182-.428.672.672 0 0 1 .495-.213h1.668l6.756 7.853Z"/></g><g filter="url(#l)"><path fill="url(#m)" fill-opacity=".3" fill-rule="evenodd" d="M13.921 16.51v3.63l-.001.001-.478-.556-3.424-3.98-2.089-2.427-.778-.905L4.99 9.762a.644.644 0 0 1-.124-.2.64.64 0 0 1-.046-.219v-.045a.64.64 0 0 1 .182-.428.672.672 0 0 1 .495-.213h1.668l.78.905 2.331 2.711.778.905 2.089 2.428.778.904Z" clip-rule="evenodd"/></g><g fill-rule="evenodd" clip-rule="evenodd" filter="url(#n)"><path fill="url(#o)" d="M5.466 5.017a.67.67 0 0 0-.495.213.641.641 0 0 0-.182.429v.044a.613.613 0 0 0 .046.22l.006.016a.62.62 0 0 0 .125.189l.01.01 8.914 10.36v6.342a1.706 1.706 0 0 0 1.18-.467l.002-.001.23-.267 7.518-8.74c.01-.01.018-.02.026-.03a.613.613 0 0 0 .099-.168.625.625 0 0 0 .046-.24V5.68a.675.675 0 0 0-.678-.663H5.465Z"/><path fill="url(#p)" d="M5.466 5.017a.67.67 0 0 0-.495.213.641.641 0 0 0-.182.429v.044a.613.613 0 0 0 .046.22l.006.016a.62.62 0 0 0 .125.189l.01.01 8.914 10.36v6.342a1.706 1.706 0 0 0 1.18-.467l.002-.001.23-.267 7.518-8.74c.01-.01.018-.02.026-.03a.613.613 0 0 0 .099-.168.625.625 0 0 0 .046-.24V5.68a.675.675 0 0 0-.678-.663H5.465Z"/><path fill="url(#q)" d="M5.466 5.017a.67.67 0 0 0-.495.213.641.641 0 0 0-.182.429v.044a.613.613 0 0 0 .046.22l.006.016a.62.62 0 0 0 .125.189l.01.01 8.914 10.36v6.342a1.706 1.706 0 0 0 1.18-.467l.002-.001.23-.267 7.518-8.74c.01-.01.018-.02.026-.03a.613.613 0 0 0 .099-.168.625.625 0 0 0 .046-.24V5.68a.675.675 0 0 0-.678-.663H5.465Z"/><path fill="url(#r)" d="M5.466 5.017a.67.67 0 0 0-.495.213.641.641 0 0 0-.182.429v.044a.613.613 0 0 0 .046.22l.006.016a.62.62 0 0 0 .125.189l.01.01 8.914 10.36v6.342a1.706 1.706 0 0 0 1.18-.467l.002-.001.23-.267 7.518-8.74c.01-.01.018-.02.026-.03a.613.613 0 0 0 .099-.168.625.625 0 0 0 .046-.24V5.68a.675.675 0 0 0-.678-.663H5.465Z"/><path fill="url(#s)" d="M5.466 5.017a.67.67 0 0 0-.495.213.641.641 0 0 0-.182.429v.044a.613.613 0 0 0 .046.22l.006.016a.62.62 0 0 0 .125.189l.01.01 8.914 10.36v6.342a1.706 1.706 0 0 0 1.18-.467l.002-.001.23-.267 7.518-8.74c.01-.01.018-.02.026-.03a.613.613 0 0 0 .099-.168.625.625 0 0 0 .046-.24V5.68a.675.675 0 0 0-.678-.663H5.465Z"/><path fill="url(#t)" d="M5.466 5.017a.67.67 0 0 0-.495.213.641.641 0 0 0-.182.429v.044a.613.613 0 0 0 .046.22l.006.016a.62.62 0 0 0 .125.189l.01.01 8.914 10.36v6.342a1.706 1.706 0 0 0 1.18-.467l.002-.001.23-.267 7.518-8.74c.01-.01.018-.02.026-.03a.613.613 0 0 0 .099-.168.625.625 0 0 0 .046-.24V5.68a.675.675 0 0 0-.678-.663H5.465Z"/></g></g></g><defs><linearGradient id="b" x1="13.888" x2="13.888" y1="0" y2="27.2" gradientUnits="userSpaceOnUse"><stop stop-color="#fff"/><stop offset="1" stop-color="#F6F8FC"/></linearGradient><linearGradient id="e" x1="10.286" x2="8.728" y1="15.304" y2="16.553" gradientUnits="userSpaceOnUse"><stop stop-color="#FFA794" stop-opacity=".3"/><stop offset="1" stop-color="#FF9794"/></linearGradient><linearGradient id="f" x1="10.286" x2="8.728" y1="15.304" y2="16.553" gradientUnits="userSpaceOnUse"><stop stop-color="#FFA794" stop-opacity=".3"/><stop offset="1" stop-color="#FF9794"/></linearGradient><linearGradient id="h" x1="10.151" x2="11.817" y1="19.243" y2="17.722" gradientUnits="userSpaceOnUse"><stop stop-color="#FFDFD7"/><stop offset="1" stop-color="#FFDFD7"/></linearGradient><linearGradient id="j" x1="10.286" x2="8.567" y1="11.981" y2="13.734" gradientUnits="userSpaceOnUse"><stop stop-color="#FFA794" stop-opacity=".3"/><stop offset="1" stop-color="#FF9794"/></linearGradient><linearGradient id="k" x1="10.286" x2="8.567" y1="11.981" y2="13.734" gradientUnits="userSpaceOnUse"><stop stop-color="#FFA794" stop-opacity=".3"/><stop offset="1" stop-color="#FF9794"/></linearGradient><linearGradient id="m" x1="10.656" x2="12.405" y1="16.173" y2="14.354" gradientUnits="userSpaceOnUse"><stop stop-color="#FFA694"/><stop offset="1" stop-color="#FFB7A9"/></linearGradient><linearGradient id="o" x1="19.822" x2="7.687" y1="16.932" y2="8.409" gradientUnits="userSpaceOnUse"><stop stop-color="#FF6661"/><stop offset="1" stop-color="#FF7D73"/></linearGradient><linearGradient id="p" x1="19.822" x2="7.687" y1="16.932" y2="8.409" gradientUnits="userSpaceOnUse"><stop stop-color="#FF6661"/><stop offset="1" stop-color="#FF7D73"/></linearGradient><linearGradient id="q" x1="19.822" x2="7.687" y1="16.932" y2="8.409" gradientUnits="userSpaceOnUse"><stop stop-color="#FF6661"/><stop offset="1" stop-color="#FF7D73"/></linearGradient><linearGradient id="r" x1="19.822" x2="7.687" y1="16.932" y2="8.409" gradientUnits="userSpaceOnUse"><stop stop-color="#FF6661"/><stop offset="1" stop-color="#FF7D73"/></linearGradient><linearGradient id="s" x1="19.822" x2="7.687" y1="16.932" y2="8.409" gradientUnits="userSpaceOnUse"><stop stop-color="#FF6661"/><stop offset="1" stop-color="#FF7D73"/></linearGradient><linearGradient id="t" x1="19.822" x2="7.687" y1="16.932" y2="8.409" gradientUnits="userSpaceOnUse"><stop stop-color="#FF6661"/><stop offset="1" stop-color="#FF7D73"/></linearGradient><filter id="c" width="25.019" height="24.639" x="2.233" y="3.07" color-interpolation-filters="sRGB" filterUnits="userSpaceOnUse"><feFlood flood-opacity="0" result="BackgroundImageFix"/><feColorMatrix in="SourceAlpha" result="hardAlpha" values="0 0 0 0 0 0 0 0 0 0 0 0 0 0 0 0 0 0 127 0"/><feOffset dx=".852" dy="1.461"/><feGaussianBlur stdDeviation="1.704"/><feColorMatrix values="0 0 0 0 1 0 0 0 0 0.875 0 0 0 0 0.843 0 0 0 0.63 0"/><feBlend in2="BackgroundImageFix" result="effect1_dropShadow_1_1453"/><feColorMatrix in="SourceAlpha" result="hardAlpha" values="0 0 0 0 0 0 0 0 0 0 0 0 0 0 0 0 0 0 127 0"/><feOffset dx=".365" dy=".73"/><feGaussianBlur stdDeviation="1.217"/><feColorMatrix values="0 0 0 0 0.771137 0 0 0 0 0.469437 0 0 0 0 0.40806 0 0 0 0.3 0"/><feBlend in2="effect1_dropShadow_1_1453" result="effect2_dropShadow_1_1453"/><feBlend in="SourceGraphic" in2="effect2_dropShadow_1_1453" result="shape"/></filter><filter id="d" width="11.901" height="14.744" x="4.82" y="12.234" color-interpolation-filters="sRGB" filterUnits="userSpaceOnUse"><feFlood flood-opacity="0" result="BackgroundImageFix"/><feBlend in="SourceGraphic" in2="BackgroundImageFix" result="shape"/><feColorMatrix in="SourceAlpha" result="hardAlpha" values="0 0 0 0 0 0 0 0 0 0 0 0 0 0 0 0 0 0 127 0"/><feOffset dx="2.799" dy="6.938"/><feGaussianBlur stdDeviation="2.069"/><feComposite in2="hardAlpha" k2="-1" k3="1" operator="arithmetic"/><feColorMatrix values="0 0 0 0 1 0 0 0 0 0.651 0 0 0 0 0.58 0 0 0 1 0"/><feBlend in2="shape" result="effect1_innerShadow_1_1453"/><feColorMatrix in="SourceAlpha" result="hardAlpha" values="0 0 0 0 0 0 0 0 0 0 0 0 0 0 0 0 0 0 127 0"/><feOffset dx="-2.241" dy="14.789"/><feGaussianBlur stdDeviation="2.017"/><feComposite in2="hardAlpha" k2="-1" k3="1" operator="arithmetic"/><feColorMatrix values="0 0 0 0 1 0 0 0 0 0.875 0 0 0 0 0.843 0 0 0 0.48 0"/><feBlend in2="effect1_innerShadow_1_1453" result="effect2_innerShadow_1_1453"/></filter><filter id="g" width="10.684" height="11.945" x="4.82" y="10.896" color-interpolation-filters="sRGB" filterUnits="userSpaceOnUse"><feFlood flood-opacity="0" result="BackgroundImageFix"/><feBlend in="SourceGraphic" in2="BackgroundImageFix" result="shape"/><feColorMatrix in="SourceAlpha" result="hardAlpha" values="0 0 0 0 0 0 0 0 0 0 0 0 0 0 0 0 0 0 127 0"/><feOffset dx=".122" dy="-1.461"/><feGaussianBlur stdDeviation=".548"/><feComposite in2="hardAlpha" k2="-1" k3="1" operator="arithmetic"/><feColorMatrix values="0 0 0 0 1 0 0 0 0 0.604589 0 0 0 0 0.591667 0 0 0 0.2 0"/><feBlend in2="shape" mode="multiply" result="effect1_innerShadow_1_1453"/><feColorMatrix in="SourceAlpha" result="hardAlpha" values="0 0 0 0 0 0 0 0 0 0 0 0 0 0 0 0 0 0 127 0"/><feOffset dx="1.582" dy="-1.339"/><feGaussianBlur stdDeviation=".791"/><feComposite in2="hardAlpha" k2="-1" k3="1" operator="arithmetic"/><feColorMatrix values="0 0 0 0 1 0 0 0 0 1 0 0 0 0 1 0 0 0 0.3 0"/><feBlend in2="effect1_innerShadow_1_1453" result="effect2_innerShadow_1_1453"/></filter><filter id="i" width="14.142" height="15.623" x="2.58" y="8.657" color-interpolation-filters="sRGB" filterUnits="userSpaceOnUse"><feFlood flood-opacity="0" result="BackgroundImageFix"/><feBlend in="SourceGraphic" in2="BackgroundImageFix" result="shape"/><feColorMatrix in="SourceAlpha" result="hardAlpha" values="0 0 0 0 0 0 0 0 0 0 0 0 0 0 0 0 0 0 127 0"/><feOffset dx="2.799" dy="6.938"/><feGaussianBlur stdDeviation="2.069"/><feComposite in2="hardAlpha" k2="-1" k3="1" operator="arithmetic"/><feColorMatrix values="0 0 0 0 1 0 0 0 0 0.651 0 0 0 0 0.58 0 0 0 1 0"/><feBlend in2="shape" result="effect1_innerShadow_1_1453"/><feColorMatrix in="SourceAlpha" result="hardAlpha" values="0 0 0 0 0 0 0 0 0 0 0 0 0 0 0 0 0 0 127 0"/><feOffset dx="-2.241" dy="14.789"/><feGaussianBlur stdDeviation="2.017"/><feComposite in2="hardAlpha" k2="-1" k3="1" operator="arithmetic"/><feColorMatrix values="0 0 0 0 1 0 0 0 0 0.875 0 0 0 0 0.843 0 0 0 0.48 0"/><feBlend in2="effect1_innerShadow_1_1453" result="effect2_innerShadow_1_1453"/></filter><filter id="l" width="9.954" height="12.093" x="4.82" y="8.413" color-interpolation-filters="sRGB" filterUnits="userSpaceOnUse"><feFlood flood-opacity="0" result="BackgroundImageFix"/><feBlend in="SourceGraphic" in2="BackgroundImageFix" result="shape"/><feColorMatrix in="SourceAlpha" result="hardAlpha" values="0 0 0 0 0 0 0 0 0 0 0 0 0 0 0 0 0 0 127 0"/><feOffset dx=".365" dy="-.243"/><feGaussianBlur stdDeviation=".913"/><feComposite in2="hardAlpha" k2="-1" k3="1" operator="arithmetic"/><feColorMatrix values="0 0 0 0 0.996078 0 0 0 0 0.458823 0 0 0 0 0.411765 0 0 0 0.5 0"/><feBlend in2="shape" result="effect1_innerShadow_1_1453"/><feColorMatrix in="SourceAlpha" result="hardAlpha" values="0 0 0 0 0 0 0 0 0 0 0 0 0 0 0 0 0 0 127 0"/><feOffset dx="1.947" dy=".365"/><feGaussianBlur stdDeviation=".426"/><feComposite in2="hardAlpha" k2="-1" k3="1" operator="arithmetic"/><feColorMatrix values="0 0 0 0 1 0 0 0 0 1 0 0 0 0 1 0 0 0 0.08 0"/><feBlend in2="effect1_innerShadow_1_1453" result="effect2_innerShadow_1_1453"/></filter><filter id="n" width="20.637" height="21.23" x="2.355" y="3.192" color-interpolation-filters="sRGB" filterUnits="userSpaceOnUse"><feFlood flood-opacity="0" result="BackgroundImageFix"/><feBlend in="SourceGraphic" in2="BackgroundImageFix" result="shape"/><feColorMatrix in="SourceAlpha" result="hardAlpha" values="0 0 0 0 0 0 0 0 0 0 0 0 0 0 0 0 0 0 127 0"/><feOffset dx="-2.434" dy="-1.825"/><feGaussianBlur stdDeviation="1.765"/><feComposite in2="hardAlpha" k2="-1" k3="1" operator="arithmetic"/><feColorMatrix values="0 0 0 0 0 0 0 0 0 0 0 0 0 0 0 0 0 0 0.1 0"/><feBlend in2="shape" mode="hard-light" result="effect1_innerShadow_1_1453"/><feColorMatrix in="SourceAlpha" result="hardAlpha" values="0 0 0 0 0 0 0 0 0 0 0 0 0 0 0 0 0 0 127 0"/><feOffset dx="-.243" dy="1.582"/><feGaussianBlur stdDeviation="1.521"/><feComposite in2="hardAlpha" k2="-1" k3="1" operator="arithmetic"/><feColorMatrix values="0 0 0 0 1 0 0 0 0 0.87451 0 0 0 0 0.843137 0 0 0 0.7 0"/><feBlend in2="effect1_innerShadow_1_1453" mode="soft-light" result="effect2_innerShadow_1_1453"/></filter><clipPath id="a"><path fill="#fff" d="M0 0h100v27.2H0z"/></clipPath></defs></svg>