<svg xmlns="http://www.w3.org/2000/svg" width="158" height="64" fill="none" viewBox="0 0 79 32"><g clip-path="url(#a)"><path fill="#F4C222" d="M6.713 13.512a6.7 6.7 0 0 0 3.736-1.135 6.75 6.75 0 0 0 2.478-3.03 6.79 6.79 0 0 0-1.45-7.365A6.69 6.69 0 0 0 4.15.514a6.73 6.73 0 0 0-3.018 2.488 6.78 6.78 0 0 0 .832 8.528 6.7 6.7 0 0 0 4.747 1.982z"/><path fill="#5C5CE5" d="M14.898 23.076v-8.092l8.05 8.092z"/><path fill="#E54C4C" d="M22.946 6.898 6.854 23.076H0L22.946.008z"/><path fill="#013" fill-rule="evenodd" d="M38.05.008h2.936a7.75 7.75 0 0 1 5.42 2.287 7.83 7.83 0 0 1 2.276 5.45 7.7 7.7 0 0 1-2.24 5.413 7.63 7.63 0 0 1-5.385 2.253h-4.265v7.665h-4.62V.008h4.62v10.83h4.194a3.07 3.07 0 0 0 2.176-.906 3.102 3.102 0 0 0-.998-5.044 3.1 3.1 0 0 0-1.178-.236h-4.194zM49.8 23.076h4.62V6.622H49.8zM64.908 6.622l4.61 16.439 4.62-16.44h4.548L71.604 32h-4.595l2.51-8.924h-4.612l-4.62-16.454-1.274 4.564h-4.596l1.322-4.564z" clip-rule="evenodd"/></g><defs><clipPath id="a"><path fill="#fff" d="M0 0h79v32H0z"/></clipPath></defs></svg>