<svg xmlns="http://www.w3.org/2000/svg" width="64" height="64" fill="none" viewBox="0 0 50 50"><g clip-path="url(#a)"><path fill="#f4c222" d="M16.064 28.15c2.772.003 5.482-.82 7.784-2.364a14.06 14.06 0 0 0 5.162-6.313A14.14 14.14 0 0 0 25.987 4.13a13.93 13.93 0 0 0-15.26-3.059 14 14 0 0 0-6.288 5.184A14.13 14.13 0 0 0 6.173 24.02a13.97 13.97 0 0 0 9.891 4.13"/><path fill="#5c5ce5" d="M33.117 48.075V31.216l16.771 16.859z"/><path fill="#e54c4c" d="M49.89 14.37 16.365 48.075H2.085L49.89.016z"/></g><defs><clipPath id="a"><path fill="#fff" d="M0 0h50v50H0z"/></clipPath></defs></svg>