<svg xmlns="http://www.w3.org/2000/svg" width="120" height="64" fill="none"><g fill="#fff" clip-path="url(#a)"><path d="M64.65 2.895c-.39.06-.764 1.494-1.517 2.24-.55.54-1.237.506-1.602 1.173-.138.249-.093.674-.25 1.082-.308.816-1.39.889-1.39 1.778-.003.96.903 1.144 1.687 1.825.612.549.672.927 1.413 1.192.633.216 1.575-.488 2.422-.235.697.208 1.363.357 1.52 1.072.139.66-.009 1.681-.853 1.563-.285-.031-1.518-.447-3.034-.286-1.83.208-3.917.805-4.12 2.843-.113 1.14 1.297 2.485 2.658 2.211.941-.185.496-1.295 1.008-1.834.672-.69 4.48 2.41 8.02 2.41 1.49 0 2.598-.375 3.699-1.528.103-.088.228-.278.387-.289.15.011.412.16.498.223 2.851 2.291 5.006 6.887 15.483 6.941 1.474.008 3.153.712 4.523 1.962 1.222 1.13 1.937 2.888 2.632 4.672 1.048 2.677 2.928 5.281 5.777 8.179.155.155 2.501 1.979 2.688 2.115.03.019.202.43.142.66-.069 1.738-.322 6.79 3.444 7.019.921.047.68-.601.68-1.047-.002-.88-.163-1.754.301-2.654.635-1.24-1.346-1.81-1.288-4.489.042-1.997-1.636-1.657-2.487-3.178-.491-.882-.927-1.35-.895-2.428.191-6.07-1.292-10.057-2.031-11.036-.577-.739-1.054-1.033-.526-1.375 3.143-2.076 3.856-4.008 3.856-4.008 1.671-3.93 3.175-7.518 5.247-9.098.417-.326 1.488-1.125 2.145-1.44 1.934-.911 2.952-1.463 3.514-2.01.889-.867 1.591-2.673.739-3.768-1.059-1.352-2.892-.28-3.7.2-5.779 3.43-6.631 9.48-8.632 12.954-1.597 2.776-4.193 4.815-6.514 4.981-1.741.13-3.617-.222-5.485-1.042-4.543-1.992-7.03-4.564-7.615-5.019-1.22-.942-10.697-10.243-18.374-10.623 0 0-.952-1.908-1.192-1.94-.562-.07-1.136 1.14-1.548 1.28-.388.13-1.039-1.312-1.43-1.248M30.854 58.412c-.723-.017-1.337-.61-1.337-1.345l.002-23.946h-7.892v26.397a2.346 2.346 0 0 0 2.334 2.35h13.795a2.337 2.337 0 0 0 2.33-2.35V33.12h-7.884l-.008 23.946c0 .734-.614 1.328-1.34 1.344m26.424-25.29H45.333a2.57 2.57 0 0 0-2.564 2.577v26.168h7.899V37.863c.006-.736.6-1.318 1.335-1.318.737 0 1.329.57 1.346 1.298v24.024h7.868V37.842c.009-.728.6-1.297 1.336-1.297.73 0 1.333.582 1.339 1.318v24.004h7.9V35.7a2.57 2.57 0 0 0-2.567-2.578zm-46.213 4.792a1.35 1.35 0 0 0-1.336-1.369h-1.34v14.54h1.34c.696 0 1.342-.554 1.336-1.35zm5.296 16.73H8.388v7.223H.5V33.121h15.912c1.424 0 2.536 1.157 2.536 2.59v16.343a2.583 2.583 0 0 1-2.587 2.59m82.5.795c-1.585 0-2.916 1.37-2.916 3.03 0 1.666 1.331 3.026 2.967 3.026 1.623 0 2.937-1.36 2.937-3.026 0-1.664-1.314-3.03-2.937-3.03zm3.553 3.021c0 1.952-1.565 3.54-3.502 3.54a3.524 3.524 0 0 1-3.53-3.54c0-1.926 1.572-3.536 3.472-3.536 1.995 0 3.56 1.561 3.56 3.536"/><path d="M98.547 58.235c.549 0 .837-.195.837-.584 0-.346-.279-.524-.813-.524h-.157v1.108zm2.02 2.273h-.942l-1.21-1.612v1.612h-.77v-4.076h.809c1.098 0 1.682.416 1.682 1.21 0 .53-.344 1-.825 1.14l-.056.02zM85.036 51.09V37.853a1.324 1.324 0 0 0-1.345-1.293c-.728 0-1.33.584-1.336 1.314V51.09zm0 10.777V54.65h-2.681v7.217H74.47V35.699a2.57 2.57 0 0 1 2.565-2.578h13.32a2.57 2.57 0 0 1 2.569 2.578v26.168z"/></g><defs><clipPath id="a"><path fill="#fff" d="M.5 0h119.492v64H.5z"/></clipPath></defs></svg>