<svg xmlns="http://www.w3.org/2000/svg" width="266.667" height="64" fill="none" viewBox="0 0 100 24"><g clip-path="url(#a)"><path fill="#007AFF" d="M28.74 20.927V2.86h7.068c4.721 0 7.346 1.92 7.346 5.736v.101c0 2.578-1.363 4.018-3.256 4.751l4.317 7.48H38.76l-3.66-6.469h-1.21v6.47h-5.15Zm5.15-9.83h1.666c1.742 0 2.6-.733 2.6-2.198v-.102c0-1.465-.909-2.047-2.575-2.047h-1.692v4.347Zm15.626 10.134c-2.373 0-4.468-1.163-4.468-3.968 0-3.108 2.625-4.321 7.018-4.321h1.262v-.303c0-1.264-.303-2.098-1.741-2.098-1.238 0-1.692.733-1.793 1.567h-4.241c.202-3.184 2.701-4.751 6.311-4.751 3.636 0 5.958 1.491 5.958 5.004v8.566H53.43v-1.541c-.63.96-1.792 1.845-3.913 1.845Zm1.566-3.058c1.287 0 2.246-.733 2.246-1.87v-.809h-1.186c-1.818 0-2.626.354-2.626 1.44 0 .759.505 1.239 1.566 1.239m14.213 3.058c-3.055 0-5.554-2.199-5.554-6.773v-.202c0-4.498 2.474-6.899 5.604-6.899 2.07 0 3.307.884 4.065 2.224V1.898h4.519v19.03h-4.52v-2.149c-.656 1.365-2.12 2.452-4.114 2.452m1.59-3.462c1.641 0 2.651-1.138 2.651-3.387v-.202c0-2.224-.934-3.411-2.6-3.411-1.692 0-2.6 1.137-2.6 3.436v.203c0 2.223.984 3.36 2.55 3.36Zm13.431 3.462c-2.373 0-4.469-1.163-4.469-3.968 0-3.108 2.626-4.321 7.019-4.321h1.262v-.303c0-1.264-.303-2.098-1.742-2.098-1.237 0-1.691.733-1.792 1.567h-4.242c.202-3.184 2.702-4.751 6.312-4.751 3.635 0 5.958 1.491 5.958 5.004v8.566h-4.393v-1.541c-.631.96-1.792 1.845-3.913 1.845m1.565-3.058c1.288 0 2.247-.733 2.247-1.87v-.809h-1.186c-1.818 0-2.626.354-2.626 1.44 0 .759.505 1.239 1.565 1.239m9.316 2.755V7.71h4.519v2.628c.833-1.971 2.221-2.83 4.266-2.805v4.22c-2.751-.076-4.266.784-4.266 2.906v6.267h-4.52ZM9.789 0l9.665 23.685-9.665-3.995-9.664 3.97z"/></g><defs><clipPath id="a"><path fill="#fff" d="M0 0h100v23.692H0z"/></clipPath></defs></svg>