<svg xmlns="http://www.w3.org/2000/svg" width="64" height="64" fill="none" viewBox="0 0 50 50"><g clip-path="url(#a)"><path fill="#E0F01F" d="M25 50c13.807 0 25-11.193 25-25S38.807 0 25 0 0 11.193 0 25s11.193 25 25 25Z"/><path fill="#000" d="M39.507 36.33v.12l-17.547.006v-.127c2.53-1.428 4.277-2.884 5.849-4.405h7.205l4.493 4.405ZM35.16 13.476l-4.448-4.362h-.13s.076 8.13-7.392 15.525c-7.308 7.237-15.9 7.253-15.9 7.253v.127l4.53 4.438s8.468.084 15.949-7.253c7.453-7.313 7.39-15.728 7.39-15.728Z"/></g><defs><clipPath id="a"><path fill="#fff" d="M0 0h50v50H0z"/></clipPath></defs></svg>