<svg xmlns="http://www.w3.org/2000/svg" width="237.037" height="64" fill="none" viewBox="0 0 100 27"><g fill="#000" clip-path="url(#a)"><path d="M6.92 9.013c-2.386 0-3.556 2.102-3.556 4.909v7.033H0V6.113h3.305v3.85h.057c.706-2.367 2.112-4.28 4.282-4.28 1.525 0 2.169.533 2.169.533L8.295 9.273c0-.002-.484-.26-1.376-.26Zm40.66 2.037v9.903h-3.276v-8.697c0-2.497-.783-3.819-2.783-3.819-2.072 0-3.074 1.672-3.074 4.88v7.635H35.2v-8.696c0-2.4-.774-3.819-2.754-3.819-2.261 0-3.131 1.981-3.131 4.88v7.635H26.01V6.112h3.305v3.362h.03c.514-2.326 1.92-3.762 4.29-3.762 2.351 0 3.883 1.264 4.465 3.504.553-2.156 2.027-3.504 4.29-3.504 3.16 0 5.19 1.98 5.19 5.338ZM16.425 5.683c-3.041 0-5.03 1.428-5.938 4.006l2.8 1.018c.51-1.556 1.573-2.442 3.197-2.442 1.826 0 2.9.805 2.9 2.04 0 1.261-.855 1.526-2.784 1.837-2.146.346-7.25.46-7.25 4.764 0 2.523 2.11 4.42 5.277 4.42 2.382 0 4.004-.973 4.755-2.785h.03v2.412h3.276v-9.127c-.001-3.994-2.011-6.143-6.263-6.143Zm3.044 8.285c0 3.112-1.54 5.11-4.001 5.11-1.74 0-2.784-.976-2.784-2.384 0-1.32 1.074-2.236 3.131-2.614 2.106-.387 3.167-.865 3.654-2.01v1.898Zm39.768-8.256c-2.506 0-4.162 1.377-4.87 3.447V6.113h-3.48v20.553h3.45V17.91h.03c.767 2.242 2.366 3.474 4.87 3.474 3.972 0 6.814-3.271 6.814-7.894-.001-4.591-2.842-7.777-6.814-7.777ZM58.38 18.63c-2.75 0-4.277-1.996-4.277-5.096s1.708-5.096 4.277-5.096c2.568 0 4.277 2.093 4.277 5.096 0 3.005-1.707 5.096-4.277 5.096ZM100.226 20.886v.093l-13.467.005v-.098c1.942-1.096 3.283-2.213 4.489-3.38h5.53l3.448 3.38ZM96.889 3.348 93.477 0h-.1s.058 6.24-5.673 11.915C82.095 17.469 75.5 17.482 75.5 17.482v.097l3.478 3.406s6.499.064 12.24-5.567c5.72-5.612 5.671-12.07 5.671-12.07Z"/></g><defs><clipPath id="a"><path fill="#fff" d="M0 0h100v26.667H0z"/></clipPath></defs></svg>