<svg xmlns="http://www.w3.org/2000/svg" width="64" height="64" fill="none" viewBox="0 0 50 50"><g clip-path="url(#a)"><path fill="#ff5656" fill-rule="evenodd" d="M12.449 32.254v5.195L0 25l2.6-2.6zm5.195 5.195H12.45l12.449 12.449 2.6-2.6-9.854-9.849Zm29.546-9.85L49.789 25 24.891.102 22.3 2.708l9.85 9.85h-5.953L19.32 5.696l-2.6 2.6 4.276 4.275H18.01v19.324h19.325v-2.988l4.275 4.276 2.6-2.6-6.876-6.874v-5.953L47.19 27.6ZM13.747 11.263l-2.606 2.6 2.789 2.788 2.599-2.6zm22.11 22.11-2.6 2.599 2.788 2.788 2.6-2.599-2.789-2.788ZM8.17 16.837l-2.6 2.6 6.876 6.874v-5.198zm20.622 20.622h-5.196l6.876 6.875 2.599-2.6z" clip-rule="evenodd"/></g><defs><clipPath id="a"><path fill="#fff" d="M0 0h50v50H0z"/></clipPath></defs></svg>