<svg xmlns="http://www.w3.org/2000/svg" width="246.154" height="64" fill="none" viewBox="0 0 100 26"><g clip-path="url(#a)"><path fill="#FF5656" fill-rule="evenodd" d="M6.425 16.647v2.681L0 12.903l1.342-1.341 5.083 5.085Zm2.682 2.681H6.425l6.426 6.426 1.341-1.342-5.085-5.084Zm15.249-5.083 1.341-1.342L12.848.053 11.51 1.398l5.084 5.083H13.52L9.972 2.94 8.63 4.28l2.207 2.207H9.295v9.974h9.974V14.92l2.207 2.207 1.341-1.342-3.548-3.548V9.165l5.087 5.08ZM7.096 5.813 5.75 7.155l1.44 1.44L8.53 7.251 7.095 5.813Zm11.41 11.412-1.341 1.341 1.44 1.44 1.34-1.342-1.439-1.44ZM4.216 8.69l-1.34 1.342 3.548 3.548v-2.683L4.217 8.69ZM14.86 19.334H12.18l3.548 3.548 1.342-1.341-2.209-2.207Z" clip-rule="evenodd"/><path fill="#000" d="M97.435 19.313c-.865 0-1.542-.235-2.025-.706-.483-.471-.725-1.126-.725-1.955v-5.14h-1.552V9.588h1.56l.278-2.57H96.8v2.57h2.387v1.927H96.8v4.858c-.005.265.094.522.276.716a.944.944 0 0 0 .728.296h1.383v1.928h-1.75ZM88.101 19.495c-1.153 0-2.081-.276-2.784-.826a3.694 3.694 0 0 1-1.348-2.193h2.294c.1.334.323.617.624.795.368.212.79.316 1.214.3 1.224 0 1.839-.343 1.839-1.005 0-.33-.193-.582-.578-.755a6.324 6.324 0 0 0-1.394-.416 17.178 17.178 0 0 1-1.647-.405 2.861 2.861 0 0 1-1.406-.935c-.383-.457-.575-1.058-.576-1.803a2.54 2.54 0 0 1 .97-2.037c.648-.542 1.548-.812 2.698-.81 1.15 0 2.064.258 2.742.77a3.44 3.44 0 0 1 1.3 2.077h-2.298c-.245-.608-.822-.918-1.737-.92-.982 0-1.472.307-1.472.92a.792.792 0 0 0 .413.685c.315.19.664.315 1.028.367.455.078.906.182 1.349.312.46.131.91.293 1.348.483a2.4 2.4 0 0 1 1.04.905c.291.466.436 1.008.416 1.557a2.571 2.571 0 0 1-1.028 2.115c-.683.545-1.685.817-3.007.819ZM81.258 10.377c-.707-.636-1.697-.954-2.97-.954-1.016 0-1.868.274-2.555.82a3.842 3.842 0 0 0-1.361 2.12h2.17c.11-.318.32-.591.599-.78a1.92 1.92 0 0 1 1.148-.323c.596 0 1.066.154 1.41.459A1.62 1.62 0 0 1 80.213 13v.464h-2.484c-1.143 0-2.04.288-2.692.865a2.774 2.774 0 0 0-.973 2.162 2.852 2.852 0 0 0 .908 2.17c.603.57 1.403.856 2.399.856a3.662 3.662 0 0 0 1.775-.413c.44-.215.812-.547 1.076-.96h.089l.18 1.198h1.835v-6.339c-.004-1.112-.36-1.988-1.068-2.627Zm-1.043 5.195a1.966 1.966 0 0 1-.643 1.542c-.426.379-1.007.568-1.744.57-.536 0-.948-.124-1.23-.364a1.16 1.16 0 0 1-.428-.927c0-.857.56-1.282 1.658-1.282h2.387v.461ZM68.557 19.515c-1.392 0-2.505-.447-3.338-1.34-.832-.893-1.25-2.13-1.25-3.708 0-1.575.415-2.81 1.245-3.704.83-.894 1.945-1.341 3.343-1.34 1.136 0 2.077.303 2.824.908a4.309 4.309 0 0 1 1.487 2.301h-2.104a2.359 2.359 0 0 0-2.205-1.281 2.23 2.23 0 0 0-1.802.813c-.457.545-.686 1.313-.686 2.303s.229 1.758.686 2.303a2.227 2.227 0 0 0 1.802.817 2.362 2.362 0 0 0 2.205-1.283h2.104a4.305 4.305 0 0 1-1.487 2.303c-.746.605-1.687.908-2.824.908ZM56.146 23.009l1.468-3.674-3.942-9.725h2.294l2.661 6.883h.09L61.38 9.61h2.295L58.35 23.01h-2.204ZM51.688 10.377c-.707-.636-1.697-.954-2.97-.954-1.017 0-1.87.272-2.556.82a3.834 3.834 0 0 0-1.36 2.12h2.169c.11-.318.32-.592.6-.78.338-.227.74-.34 1.148-.323.596 0 1.066.153 1.41.459A1.618 1.618 0 0 1 50.643 13v.464h-2.485c-1.142 0-2.04.288-2.691.865a2.77 2.77 0 0 0-.974 2.162 2.847 2.847 0 0 0 .905 2.17c.603.57 1.403.856 2.399.856a3.662 3.662 0 0 0 1.775-.413c.44-.215.813-.547 1.076-.96h.09l.18 1.198h1.83v-6.339c0-1.112-.353-1.988-1.06-2.627Zm-1.047 5.195A1.96 1.96 0 0 1 50 17.114c-.425.38-1.007.57-1.745.57-.536 0-.949-.122-1.23-.364a1.163 1.163 0 0 1-.428-.927c.006-.853.558-1.28 1.658-1.282h2.387v.461ZM39.782 14.468c.327-.088.643-.212.942-.37.349-.192.676-.422.973-.686.36-.331.637-.742.81-1.2.21-.536.312-1.109.304-1.685 0-1.223-.39-2.204-1.172-2.94-.781-.737-1.798-1.104-3.05-1.102h-5.323v12.85h2.294v-4.768h1.74l3.308 4.768h2.57l-3.396-4.867Zm-4.222-1.933V8.508h2.842c.651 0 1.166.177 1.542.53.377.353.567.847.57 1.484 0 .636-.191 1.132-.573 1.487a2.15 2.15 0 0 1-1.52.526H35.56Z"/></g><defs><clipPath id="a"><path fill="#fff" d="M0 0h100v25.806H0z"/></clipPath></defs></svg>