<svg xmlns="http://www.w3.org/2000/svg" width="60" height="64" fill="none" viewBox="0 0 45 48"><path fill="#fff" d="m39.708 8.036-24.96-6.264c-2.596-.652-5.226.94-5.873 3.553L1.759 34.05c-.648 2.614.933 5.261 3.53 5.913l24.958 6.264c2.597.651 5.227-.94 5.874-3.553l7.116-28.727c.648-2.613-.933-5.26-3.53-5.912Z"/><path fill="#000" fill-rule="evenodd" d="M14.36 3.35a3.23 3.23 0 0 0-3.916 2.368L3.328 34.445a3.254 3.254 0 0 0 2.353 3.942L30.64 44.65a3.23 3.23 0 0 0 3.916-2.368l7.116-28.727c.431-1.742-.622-3.507-2.353-3.942zM7.31 4.932c.863-3.485 4.37-5.606 7.832-4.737L40.1 6.458c3.463.87 5.57 4.399 4.706 7.884l-7.115 28.726c-.864 3.485-4.37 5.606-7.833 4.737L4.9 41.542c-3.463-.87-5.57-4.399-4.707-7.884z" clip-rule="evenodd"/><path fill="#232224" d="M36.923 15.714 13.748 9.898a.98.98 0 0 0-1.188.719l-.308 1.24a.987.987 0 0 0 .714 1.196l23.175 5.816a.98.98 0 0 0 1.189-.719l.307-1.24a.987.987 0 0 0-.714-1.196m-1.758 7.373L11.99 17.271a.98.98 0 0 0-1.188.72l-.307 1.24a.987.987 0 0 0 .714 1.195l23.175 5.816a.98.98 0 0 0 1.188-.718l.307-1.24a.987.987 0 0 0-.714-1.197m-14.367 3.76-10.636-2.669a.98.98 0 0 0-1.188.719l-.307 1.24a.987.987 0 0 0 .714 1.196l10.636 2.67a.98.98 0 0 0 1.188-.72l.307-1.24a.987.987 0 0 0-.714-1.196"/></svg>