<svg xmlns="http://www.w3.org/2000/svg" width="336.842" height="64" fill="none" viewBox="0 0 100 19"><g fill="#018ef5" clip-path="url(#a)"><path d="M38.856 9.335a2.785 2.785 0 0 0 2.921 2.636 4.1 4.1 0 0 0 3.05-1.406.288.288 0 0 1 .46-.043l1.055 1.14a.32.32 0 0 1 .128.231.33.33 0 0 1-.085.25c-.22.36-1.734 2.285-4.852 2.285-3.12 0-5.688-2.065-5.688-5.575A5.397 5.397 0 0 1 41.27 3.32c3.424 0 5.137 2.065 5.137 5.666a.36.36 0 0 1-.36.36h-7.194zm4.766-1.691c-.043-1.01-.68-2.022-2.24-2.022-1.274 0-2.242.637-2.483 2.022zm48.703 1.651a2.786 2.786 0 0 0 2.928 2.633 4.1 4.1 0 0 0 3.05-1.406.29.29 0 0 1 .22-.138.29.29 0 0 1 .241.094l1.054 1.14a.326.326 0 0 1 .043.483c-.22.36-1.734 2.284-4.852 2.284s-5.687-2.065-5.687-5.576a5.395 5.395 0 0 1 5.417-5.514c3.424 0 5.137 2.065 5.137 5.665a.36.36 0 0 1-.36.36h-7.194zm4.763-1.683c-.043-1.011-.68-2.022-2.241-2.022-1.274 0-2.241.637-2.482 2.022zm-40.281 6.654a.896.896 0 0 1-1.01-1.01v-.921h-.065c-.306.748-1.187 2.086-3.338 2.086-3.05 0-4.917-2.284-4.917-5.532 0-3.558 2.086-5.601 4.938-5.601 2.087 0 3.076 1.14 3.238 1.536h.043V3.79a.276.276 0 0 1 .306-.305h1.975a.288.288 0 0 1 .305.305v8.137h.82a.254.254 0 0 1 .28.185q.017.06.005.12v1.713a.274.274 0 0 1-.285.306H56.79l.018.014ZM55.491 8.91c0-2.065-1.119-3.119-2.518-3.119-1.558 0-2.611 1.23-2.611 3.14s1.118 3.051 2.611 3.051c1.334 0 2.518-1.032 2.518-3.076zM35.148 6.04a6.3 6.3 0 0 1 1.748-2.216.22.22 0 0 0-.1-.36 8 8 0 0 0-1.497-.151c-3.58 0-4.436 2.856-4.436 2.856h-.086V3.73a.306.306 0 0 0-.306-.306h-3.273a.306.306 0 0 0-.306.306v1.712a.28.28 0 0 0 .184.292q.059.021.122.014h1.08v6.148h-.796a.27.27 0 0 0-.305.305v1.713a.287.287 0 0 0 .305.305h4.46a.306.306 0 0 0 .306-.305V12.2a.305.305 0 0 0-.305-.305h-.76v-2.68c0-1.493 1.8-3.205 3.738-3.022a.23.23 0 0 0 .227-.154Zm35.446 5.841V.306a.27.27 0 0 0-.076-.23.27.27 0 0 0-.23-.076h-3.237a.285.285 0 0 0-.331.306v1.712a.285.285 0 0 0 .33.306h.72v1.582c0 .46.044.9.044.9h-.044c-.197-.418-1.054-1.558-3.028-1.558-3.05 0-5.008 2.284-5.008 5.511 0 3.58 2.087 5.6 4.94 5.6 2.064 0 3.14-1.337 3.316-1.776h.043v1.079a.56.56 0 0 0 .561.561h1.547a.443.443 0 0 0 .442-.442v-1.889l.011-.01Zm-5.356.022c-1.58 0-2.611-1.274-2.611-3.162s1.118-3.029 2.611-3.029c1.338 0 2.518.99 2.518 3.05 0 2.062-1.09 3.14-2.518 3.14Zm23.587.007h-.81V7.144c0-2.263-1.273-3.863-3.643-3.863s-3.12 1.514-3.317 1.798c-.529-1.097-1.604-1.798-3.162-1.798-2.439 0-3.205 1.69-3.316 1.888h-.065V3.896a.397.397 0 0 0-.287-.457.4.4 0 0 0-.195-.004h-1.583a.48.48 0 0 0-.478.479v9.662a.665.665 0 0 0 .662.661h3.04a.304.304 0 0 0 .305-.305v-1.716a.27.27 0 0 0-.306-.306h-.762V7.252a1.96 1.96 0 0 1 1.931-1.439c1.407 0 1.799.92 1.799 2.263v5.892a.26.26 0 0 0 .073.182.26.26 0 0 0 .182.077h3.46a.288.288 0 0 0 .306-.306v-1.705a.27.27 0 0 0-.182-.295.3.3 0 0 0-.123-.01h-.788V7.495q-.015-.21-.065-.417a1.88 1.88 0 0 1 1.824-1.252c1.385 0 1.798.921 1.798 2.263v5.137a1.01 1.01 0 0 0 1.011 1.01h2.698a.305.305 0 0 0 .306-.305v-1.716a.27.27 0 0 0-.187-.298.3.3 0 0 0-.126-.008ZM19.803 2.37H14.57a3.856 3.856 0 0 0-3.763 3.008A3.856 3.856 0 0 0 7.044 2.37h-5.23a1.8 1.8 0 0 0-1.798 1.8v9.209a1.8 1.8 0 0 0 1.798 1.798h3.36c3.827 0 4.971.921 5.518 2.817a.1.1 0 0 0 .1.075h.022a.1.1 0 0 0 .1-.075c.551-1.896 1.695-2.817 5.519-2.817h3.36a1.8 1.8 0 0 0 1.798-1.798v-9.21a1.8 1.8 0 0 0-1.788-1.799M9.08 12.31a.13.13 0 0 1-.13.129H2.945a.13.13 0 0 1-.13-.13v-.856a.13.13 0 0 1 .13-.13H8.95a.13.13 0 0 1 .091.039.13.13 0 0 1 .038.091v.856Zm0-2.281a.13.13 0 0 1-.13.13H2.945a.13.13 0 0 1-.13-.13v-.856a.13.13 0 0 1 .13-.13H8.95a.13.13 0 0 1 .13.13zm0-2.28a.13.13 0 0 1-.13.129H2.945a.13.13 0 0 1-.13-.13v-.856a.13.13 0 0 1 .13-.13H8.95a.13.13 0 0 1 .13.13zm9.713 4.557a.13.13 0 0 1-.08.12.1.1 0 0 1-.05.01h-6.007a.13.13 0 0 1-.13-.13v-.856a.13.13 0 0 1 .08-.12.1.1 0 0 1 .05-.01h6.007a.13.13 0 0 1 .092.038.13.13 0 0 1 .038.092zm0-2.28a.13.13 0 0 1-.13.129h-6.007a.13.13 0 0 1-.13-.13V9.17a.13.13 0 0 1 .13-.13h6.007a.13.13 0 0 1 .13.13zm0-2.281a.13.13 0 0 1-.13.13h-6.007a.13.13 0 0 1-.13-.13v-.853a.13.13 0 0 1 .13-.13h6.007a.13.13 0 0 1 .13.13v.856z"/></g><defs><clipPath id="a"><path fill="#fff" d="M0 0h100v18.345H0z"/></clipPath></defs></svg>