<svg xmlns="http://www.w3.org/2000/svg" width="86.486" height="64" fill="none" viewBox="0 0 50 37"><path fill="#018ef5" d="M45.857 0H33.728a8.87 8.87 0 0 0-5.582 1.98 9.07 9.07 0 0 0-3.138 5.078 9.07 9.07 0 0 0-3.137-5.077A8.87 8.87 0 0 0 16.288 0H4.169A4.14 4.14 0 0 0 1.22 1.236 4.25 4.25 0 0 0 0 4.221v21.612c0 1.12.44 2.193 1.22 2.985a4.14 4.14 0 0 0 2.948 1.236h7.786c8.87 0 11.52 2.162 12.788 6.61a.23.23 0 0 0 .234.177h.05a.23.23 0 0 0 .232-.176c1.276-4.45 3.927-6.61 12.788-6.61h7.786a4.14 4.14 0 0 0 2.947-1.237A4.25 4.25 0 0 0 50 25.833V4.221a4.25 4.25 0 0 0-1.212-2.976A4.14 4.14 0 0 0 45.857 0m-24.85 23.326a.3.3 0 0 1-.088.215.3.3 0 0 1-.212.089H6.786a.3.3 0 0 1-.213-.09.3.3 0 0 1-.087-.214v-2.01a.31.31 0 0 1 .185-.28.3.3 0 0 1 .115-.023h13.921a.3.3 0 0 1 .277.187.3.3 0 0 1 .023.117zm0-5.352c0 .08-.032.157-.088.214a.3.3 0 0 1-.212.09H6.786a.3.3 0 0 1-.213-.09.3.3 0 0 1-.087-.214v-2.01a.3.3 0 0 1 .3-.304h13.921a.306.306 0 0 1 .3.304zm0-5.353c0 .08-.032.158-.088.215a.3.3 0 0 1-.212.09H6.786a.3.3 0 0 1-.213-.09.3.3 0 0 1-.087-.215v-2.01a.3.3 0 0 1 .3-.304h13.921a.306.306 0 0 1 .3.304zm22.508 10.696a.3.3 0 0 1-.088.215.3.3 0 0 1-.212.09H29.293a.3.3 0 0 1-.212-.09.3.3 0 0 1-.088-.215v-2.009a.31.31 0 0 1 .185-.28.3.3 0 0 1 .115-.024h13.922a.3.3 0 0 1 .212.09.3.3 0 0 1 .088.214zm0-5.352c0 .08-.032.158-.088.215a.3.3 0 0 1-.212.089H29.293a.3.3 0 0 1-.212-.089.3.3 0 0 1-.088-.215v-2.01c0-.08.032-.157.088-.214a.3.3 0 0 1 .212-.089h13.922c.08 0 .155.032.212.089a.3.3 0 0 1 .088.215v2.01Zm0-5.352c0 .08-.032.158-.088.215a.3.3 0 0 1-.212.089H29.293a.3.3 0 0 1-.212-.09.3.3 0 0 1-.088-.214v-2.001c0-.08.032-.158.088-.215a.3.3 0 0 1 .212-.089h13.922c.08 0 .155.032.212.089a.3.3 0 0 1 .088.215v2.01z"/></svg>