<svg xmlns="http://www.w3.org/2000/svg" width="64" height="64" fill="none" viewBox="0 0 50 50"><g clip-path="url(#a)"><path fill="#000" d="M25 50c13.807 0 25-11.193 25-25S38.807 0 25 0 0 11.193 0 25s11.193 25 25 25Z"/><path fill="#fff" fill-rule="evenodd" stroke="#fff" stroke-width=".2" d="M36.09 36.987v-3.885c0-.775-.423-1.164-1.125-1.164-.833 0-1.52.618-1.55 1.369v3.675h-1.408v-3.885c0-.775-.424-1.165-1.126-1.165-.834 0-1.52.62-1.55 1.37v3.675h-1.409v-6.073h1.268l.14.517.07.063.067-.063c.283-.39.985-.648 1.55-.648 1.014 0 1.745.4 2.116 1.033l.35-.39c.352-.39 1.058-.649 1.62-.649 1.55 0 2.397.907 2.397 2.199v4.01h-1.41v.01ZM14.65 18.07h-.258v4.191h-1.384V12.5h3.363c1.511 0 2.837 1.004 2.837 2.74 0 1.67-1.414 2.738-2.925 2.738l3.11 4.011v.27h-1.579l-3.163-4.188Zm1.8-1.384c.76 0 1.457-.531 1.457-1.394 0-.862-.697-1.394-1.458-1.394h-2.027v2.788h2.027Z" clip-rule="evenodd"/><path fill="#fff" fill-rule="evenodd" stroke="#fff" stroke-width=".6" d="m12.57 36.67 23.894-23.894.758.757-23.894 23.894-.758-.757Z" clip-rule="evenodd"/></g><defs><clipPath id="a"><path fill="#fff" d="M0 0h50v50H0z"/></clipPath></defs></svg>