<svg xmlns="http://www.w3.org/2000/svg" width="266.667" height="64" fill="none" viewBox="0 0 100 24"><g fill="#000" clip-path="url(#a)"><path d="M6.645 6.905c.128.049.173.345.173 1.126v1.06h-.814c-1.205 0-2.041.217-2.548.663-.855.75-.86.779-.93 4.83l-.064 3.66-1.23.037L0 18.317V6.944h2.27l.078.488c.135.843.235.892.772.378.54-.519 1.07-.814 1.769-.985.449-.11 1.37-.068 1.756.08"/><path fill-rule="evenodd" d="M14.328 6.97c1.07.27 2.098.99 2.858 2 .77 1.026 1.277 2.989.992 3.85l-.144.438H9.435l.083.518c.252 1.573 1.618 2.572 3.485 2.547 1.08-.015 1.783-.312 2.4-1.014l.503-.57.948.412c.52.228.947.485.947.572 0 .26-1.09 1.392-1.741 1.81-2.952 1.895-6.929.865-8.429-2.183-1.111-2.258-.744-5.102.877-6.794 1.497-1.562 3.621-2.14 5.82-1.586m-4.601 3.809c.328-.863 1.057-1.508 2.006-1.775 1.584-.446 3.545.447 3.864 1.76l.085.347H9.6zm17.003-3.76c.36.1.912.377 1.226.617.315.24.595.395.623.346s.12-.306.206-.569l.154-.478 1.093.036 1.094.037v11.237l-1.101.036-1.102.037-.084-.352c-.19-.796-.265-.836-.786-.417-.736.592-1.804.917-2.988.91-3.357-.018-5.888-2.49-5.909-5.77-.012-2.009.744-3.57 2.295-4.735C22.936 6.84 24.85 6.5 26.73 7.02Zm-4.021 2.798c.54-.505.89-.688 1.725-.9.139-.035.595-.047 1.014-.025 1.303.067 2.427.812 3.062 2.03.442.847.477 2.355.076 3.226-.643 1.396-1.78 2.14-3.27 2.14-1.226 0-2.002-.287-2.72-1.004-.708-.709-1.003-1.496-1.003-2.676 0-1.196.352-2.077 1.116-2.791m21.829-.695-.032 9.123-1.082.036-1.08.036-.182-.574-.182-.574-.629.448c-1.572 1.121-4.138 1.131-6.028.023-.723-.423-1.765-1.54-2.156-2.312-.46-.91-.615-1.608-.612-2.767.005-1.743.572-3.025 1.877-4.246.937-.875 1.848-1.288 3.293-1.493 1.319-.187 3.185.256 3.76.892.54.595.558.466.558-3.737V0h2.527zm-9.162 1.662c.51-.97 1.212-1.526 2.311-1.83.593-.164 1.853-.047 2.479.23.699.309 1.397 1.009 1.779 1.785.232.47.287.793.286 1.657-.002.916-.05 1.166-.336 1.705-.696 1.315-1.738 1.95-3.207 1.954-1.63.005-2.668-.58-3.297-1.862-.31-.631-.355-.868-.354-1.86 0-.986.046-1.221.34-1.779Z" clip-rule="evenodd"/><path d="M49.325 10.67c.777 2.013 1.462 3.74 1.523 3.837.075.121.581-1.04 1.61-3.693l1.5-3.87h2.351l-.25.663c-.138.365-1.548 3.987-3.133 8.05l-2.884 7.386-1.174.036c-1.076.034-1.168.018-1.11-.189.036-.124.47-1.265.964-2.536.494-1.27.898-2.378.898-2.462 0-.122-1.483-3.912-4.051-10.352l-.24-.604 1.29.036 1.292.036 1.414 3.661ZM64.37 7.025c.51.14.842.349 1.38.87l.707.685.67-.634c1.051-.993 2.143-1.331 3.627-1.12q2.261.319 3.158 2.258c.251.543.268.814.305 4.904l.039 4.33-1.239-.037-1.238-.036-.063-4.11c-.056-3.642-.089-4.147-.286-4.448-.433-.66-1.408-.952-2.39-.717-.821.197-1.779 1.078-1.983 1.825-.084.31-.138 1.868-.139 4.014v3.508l-1.232-.036-1.23-.036-.064-4.11c-.056-3.642-.088-4.147-.285-4.448-.715-1.09-2.692-1.028-3.782.12-.667.704-.73 1.134-.73 4.982v3.52h-2.4V6.934l1.104.036c.988.033 1.108.063 1.151.29.027.138.1.389.164.556l.116.304.406-.384c1.021-.966 2.438-1.205 4.234-.712Z"/><path fill-rule="evenodd" d="M82.99 7.03c.333.105.887.38 1.232.612l.626.422.141-.56.141-.56h2.243v11.374l-1.105-.037-1.105-.036-.168-.532-.168-.531-.636.438c-1.595 1.096-4.097 1.137-5.893.095-1.312-.76-2.35-2.09-2.731-3.496-.294-1.085-.212-2.752.185-3.783 1.06-2.75 4.37-4.308 7.238-3.406m-5.16 5.107c.191-1.63 1.012-2.64 2.535-3.122 1.695-.536 3.496.232 4.337 1.85.403.775.42.866.37 1.887-.059 1.201-.312 1.836-1.006 2.53-.681.682-1.528 1.003-2.648 1.005-.847 0-1.066-.05-1.756-.41-1.338-.695-2.025-2.099-1.833-3.74Z" clip-rule="evenodd"/><path d="M95.584 6.823c1.231.193 2.24.74 3.143 1.706.424.453.77.894.77.98 0 .087-.43.371-.957.632l-.96.474-.488-.555c-1.297-1.473-3.924-1.517-5.217-.087-1.314 1.455-1.262 4.137.107 5.466.905.879 2.685 1.155 3.921.608.789-.35 1.05-.586 1.337-1.211.372-.81.36-.82-.84-.82h-1.08l.038-.98.036-.978 2.172-.034 2.173-.035.147.493c.114.378.113.695-.002 1.354-.21 1.209-.69 2.142-1.541 2.995-2.77 2.775-7.687 1.935-9.331-1.594-1.178-2.53-.402-5.829 1.714-7.284 1.537-1.058 3.06-1.412 4.858-1.13"/></g><defs><clipPath id="a"><path fill="#fff" d="M0 0h100v23.106H0z"/></clipPath></defs></svg>