<svg xmlns="http://www.w3.org/2000/svg" width="376.471" height="64" fill="none" viewBox="0 0 100 17"><g clip-path="url(#a)"><path fill="#171D26" d="M12.25 7.428a3.65 3.65 0 1 0 0-7.299 3.65 3.65 0 0 0 0 7.299"/><path fill="#fff" d="M7.512.114H.21v7.301h7.3v-7.3Z"/><path fill="#FFC550" d="m12.254 8.973 1.905 3.37 1.906 3.373h-7.62l1.903-3.373z"/><path fill="#5263F3" d="M3.86 15.769a3.65 3.65 0 1 0 0-7.299 3.65 3.65 0 0 0 0 7.299"/><path fill="#171D26" d="M27.006 5.4v2.334a2.3 2.3 0 0 0-.95-.187c-1.465 0-2.537 1.157-2.537 2.95v5.224H21.03V5.401h2.488v1.527c.557-1.032 1.445-1.692 2.58-1.692.31-.002.618.054.907.165Zm10.416 5.615h-8.21c.187 1.65 1.426 2.766 2.973 2.766a3.03 3.03 0 0 0 2.684-1.527l2.105.846c-.826 1.71-2.622 2.825-4.726 2.825-3.448 0-5.553-2.373-5.553-5.365s2.271-5.366 5.49-5.366c2.985 0 5.242 2.147 5.284 5.284zm-7.985-1.816h5.303a2.61 2.61 0 0 0-2.602-1.9 2.78 2.78 0 0 0-2.701 1.9m8.368 1.361c0-3.075 2.455-5.366 5.572-5.366 2.239 0 4.169 1.197 5.015 3.234l-2.24.928a2.93 2.93 0 0 0-2.785-1.859c-1.796 0-3.075 1.282-3.075 3.055s1.279 3.055 3.075 3.055a2.935 2.935 0 0 0 2.786-1.858l2.239.93c-.846 2.042-2.766 3.234-5.015 3.234-3.13.012-5.572-2.279-5.572-5.353M49.125.241h2.488V15.72h-2.488zM63.676 5.4v10.32H61.19v-1.244c-.786.908-1.94 1.443-3.428 1.443-2.786 0-5.097-2.373-5.097-5.366s2.311-5.365 5.097-5.365c1.493 0 2.642.537 3.428 1.445V5.388zm-2.415 5.16a3.054 3.054 0 1 0-3.057 3.054 3.036 3.036 0 0 0 3.05-3.054zm3.872-9.04a1.492 1.492 0 1 1 2.983-.056 1.492 1.492 0 0 1-2.983.056m.226 3.88h2.488v10.32h-2.488zm18.964 3.777v6.542h-2.487V9.363a1.797 1.797 0 0 0-1.838-1.858c-1.095 0-1.816.868-1.816 1.94v6.274h-2.488V9.363a1.796 1.796 0 0 0-1.836-1.858c-1.114 0-1.816.868-1.816 1.94v6.274h-2.487V5.4h2.487v1.013a3.21 3.21 0 0 1 2.475-1.219 3.63 3.63 0 0 1 2.93 1.61 3.63 3.63 0 0 1 3.055-1.61c2.177 0 3.821 1.754 3.821 3.983M95.997 5.4v10.32h-1.692v-1.493c-.888 1.053-2.238 1.692-3.88 1.692-2.766 0-5.16-2.393-5.16-5.366s2.394-5.365 5.16-5.365c1.652 0 2.985.639 3.88 1.691V5.386zm-1.692 5.16a3.674 3.674 0 1 0-3.674 3.674 3.657 3.657 0 0 0 3.674-3.674m3.375-9.368a1.157 1.157 0 1 1 2.313-.046 1.157 1.157 0 0 1-2.313.046m.31 4.208h1.692v10.32h-1.691V5.4Z"/></g><defs><clipPath id="a"><path fill="#fff" d="M0 0h100v16.169H0z"/></clipPath></defs></svg>