<svg xmlns="http://www.w3.org/2000/svg" width="64" height="64" fill="none" viewBox="0 0 50 50"><g clip-path="url(#a)"><path fill="#FF4500" d="M25 50c13.807 0 25-11.193 25-25S38.807 0 25 0 0 11.193 0 25s11.193 25 25 25Z"/><path fill="#fff" d="M41.676 25a3.661 3.661 0 0 1-.532 1.955 3.657 3.657 0 0 1-1.493 1.37 6.784 6.784 0 0 1 .016.825 6.784 6.784 0 0 1-.016.275c0 5.6-6.525 10.15-14.575 10.15-8.05 0-14.575-4.55-14.575-10.15a6.784 6.784 0 0 1-.015-.825c.003-.092.008-.184.015-.275a3.652 3.652 0 0 1-1.503-5.356 3.647 3.647 0 0 1 4.181-1.423c.502.167.962.441 1.347.804a17.915 17.915 0 0 1 4.65-2.25 17.875 17.875 0 0 1 5.1-.825l1.85-8.675a.77.77 0 0 1 .621-.606.78.78 0 0 1 .304.006l6.125 1.225a2.5 2.5 0 1 1-.325 1.525l-5.35-1.125-1.625 7.8a17.772 17.772 0 0 1 7.411 1.793c.768.373 1.508.802 2.214 1.282a3.646 3.646 0 0 1 3.897-.75A3.649 3.649 0 0 1 41.676 25Zm-24.81 3.457a2.502 2.502 0 0 0 4.62 0 2.5 2.5 0 1 0-4.62 0Zm14.32 6.001a.676.676 0 0 0-.463-1.158.817.817 0 0 0-.497.175A8.21 8.21 0 0 1 25.001 35a8.171 8.171 0 0 1-5.2-1.575.675.675 0 0 0-.95.95 9.59 9.59 0 0 0 6.175 1.925 9.624 9.624 0 0 0 6.175-1.925l-.016.083Zm-.46-4.258a2.505 2.505 0 0 0 1.821-.758 2.498 2.498 0 0 0 .704-1.842 2.501 2.501 0 0 0-4.267-1.768A2.5 2.5 0 0 0 30.75 30.1l-.025.1Z"/></g><defs><clipPath id="a"><path fill="#fff" d="M0 0h50v50H0z"/></clipPath></defs></svg>