<svg xmlns="http://www.w3.org/2000/svg" width="182.857" height="64" fill="none" viewBox="0 0 100 35"><g clip-path="url(#a)"><path fill="#ff4500" d="M90.224 14.025a2.177 2.177 0 1 0 0-4.354 2.177 2.177 0 0 0 0 4.354"/><path fill="#222" d="M59.138 21.13c1.068 0 1.684-.802 1.642-1.582a6 6 0 0 0-.102-.883c-.657-2.833-2.957-4.928-5.688-4.928-3.245 0-5.873 2.937-5.873 6.55s2.629 6.55 5.873 6.55c2.033 0 3.49-.738 4.538-1.909a1.27 1.27 0 0 0-.206-1.889c-.513-.35-1.15-.226-1.622.164-.451.39-1.314 1.17-2.71 1.17-1.643 0-3.04-1.416-3.347-3.285h7.495zm-4.169-4.908c1.479 0 2.752 1.15 3.224 2.73h-6.447c.472-1.6 1.745-2.73 3.223-2.73m-5.73-1.192c0-.615-.452-1.108-1.027-1.21-1.787-.268-3.47.39-4.435 1.6v-.163c0-.76-.617-1.232-1.233-1.232-.677 0-1.231.554-1.231 1.232v10.061c0 .657.492 1.232 1.15 1.273a1.23 1.23 0 0 0 1.314-1.232v-5.195c0-2.3 1.724-4.189 4.106-3.922h.247c.616-.04 1.109-.575 1.109-1.211Zm42.217 1.315c0-.678-.554-1.232-1.232-1.232s-1.232.554-1.232 1.232v9.014c0 .678.555 1.232 1.232 1.232.678 0 1.232-.554 1.232-1.232zM73.142 9.528c0-.678-.554-1.232-1.231-1.232-.678 0-1.233.554-1.233 1.232v5.482c-.841-.842-1.889-1.252-3.141-1.252-3.245 0-5.873 2.936-5.873 6.55s2.628 6.55 5.873 6.55c1.252 0 2.32-.43 3.162-1.273a1.234 1.234 0 0 0 1.212 1.006c.677 0 1.231-.554 1.231-1.232zm-5.585 14.887c-1.889 0-3.408-1.828-3.408-4.107 0-2.259 1.52-4.107 3.408-4.107 1.89 0 3.409 1.828 3.409 4.107s-1.54 4.107-3.409 4.107M85.994 9.528c0-.678-.554-1.232-1.232-1.232s-1.232.554-1.232 1.232v5.482c-.842-.842-1.89-1.252-3.142-1.252-3.244 0-5.872 2.936-5.872 6.55s2.628 6.55 5.872 6.55c1.253 0 2.32-.43 3.162-1.273a1.234 1.234 0 0 0 1.212 1.006c.678 0 1.232-.554 1.232-1.232zm-5.606 14.887c-1.889 0-3.408-1.828-3.408-4.107 0-2.259 1.52-4.107 3.408-4.107 1.89 0 3.409 1.828 3.409 4.107s-1.52 4.107-3.409 4.107m17.312.965v-9.158h1.089c.575 0 1.088-.432 1.13-1.027a1.1 1.1 0 0 0-1.09-1.17h-1.128V12.3c0-.657-.493-1.232-1.15-1.273a1.23 1.23 0 0 0-1.314 1.232v1.786H94.21c-.575 0-1.088.431-1.13 1.027a1.1 1.1 0 0 0 1.089 1.17h1.047V25.4c0 .678.554 1.232 1.232 1.232.719-.04 1.253-.575 1.253-1.252Z"/><path fill="#ff4500" d="M17.207 34.415c9.504 0 17.208-7.704 17.208-17.208S26.71 0 17.207 0 0 7.704 0 17.207s7.704 17.208 17.207 17.208"/><path fill="#fff" d="M28.69 17.207a2.5 2.5 0 0 0-2.506-2.505 2.52 2.52 0 0 0-1.745.698c-1.725-1.232-4.087-2.032-6.715-2.135l1.15-5.38 3.737.8a1.788 1.788 0 0 0 3.573-.082c0-.985-.8-1.786-1.786-1.786-.698 0-1.314.41-1.602 1.006l-4.168-.883a.44.44 0 0 0-.329.062.4.4 0 0 0-.185.288l-1.273 5.995c-2.67.083-5.072.883-6.817 2.136a2.52 2.52 0 0 0-1.745-.698 2.502 2.502 0 0 0-1.027 4.784 4.6 4.6 0 0 0-.062.76c0 3.86 4.497 7.002 10.041 7.002s10.041-3.121 10.041-7.002c0-.247-.02-.513-.061-.76a2.53 2.53 0 0 0 1.478-2.3Zm-17.208 1.787a1.787 1.787 0 1 1 1.786 1.786c-.985.02-1.786-.8-1.786-1.786m10 4.743c-1.232 1.232-3.573 1.314-4.25 1.314-.699 0-3.04-.102-4.251-1.314a.46.46 0 0 1 0-.657.46.46 0 0 1 .657 0c.78.78 2.423 1.047 3.593 1.047s2.834-.267 3.594-1.047a.46.46 0 0 1 .657 0 .5.5 0 0 1 0 .657m-.329-2.936a1.788 1.788 0 0 1 0-3.573c.986 0 1.787.8 1.787 1.786 0 .966-.801 1.787-1.787 1.787"/></g><defs><clipPath id="a"><path fill="#fff" d="M0 0h100v34.497H0z"/></clipPath></defs></svg>