<svg xmlns="http://www.w3.org/2000/svg" width="64" height="64" fill="none" viewBox="0 0 50 50"><g clip-path="url(#a)"><path fill="#ff4500" d="M25 50c13.807 0 25-11.193 25-25S38.807 0 25 0 0 11.193 0 25s11.193 25 25 25"/><path fill="#fff" d="M41.676 25a3.66 3.66 0 0 1-.532 1.955 3.66 3.66 0 0 1-1.493 1.37 7 7 0 0 1 .016.825 7 7 0 0 1-.016.275c0 5.6-6.525 10.15-14.575 10.15s-14.575-4.55-14.575-10.15a7 7 0 0 1-.015-.825q.005-.138.015-.275a3.652 3.652 0 0 1-1.503-5.356 3.65 3.65 0 0 1 4.181-1.423c.502.167.962.441 1.347.804a18 18 0 0 1 4.65-2.25 17.9 17.9 0 0 1 5.1-.825l1.85-8.675a.77.77 0 0 1 .621-.606.8.8 0 0 1 .304.006l6.125 1.225a2.5 2.5 0 1 1-.325 1.525l-5.35-1.125-1.625 7.8a17.8 17.8 0 0 1 7.411 1.793q1.154.56 2.214 1.282a3.65 3.65 0 0 1 3.897-.75A3.65 3.65 0 0 1 41.676 25m-24.81 3.457a2.502 2.502 0 0 0 4.62 0 2.5 2.5 0 1 0-4.62 0m14.32 6.001a.676.676 0 0 0-.463-1.158.8.8 0 0 0-.497.175A8.2 8.2 0 0 1 25.001 35a8.17 8.17 0 0 1-5.2-1.575.675.675 0 0 0-.95.95 9.6 9.6 0 0 0 6.175 1.925 9.62 9.62 0 0 0 6.175-1.925zm-.46-4.258a2.5 2.5 0 0 0 1.821-.758 2.5 2.5 0 0 0 .704-1.842 2.501 2.501 0 0 0-4.267-1.768A2.5 2.5 0 0 0 30.75 30.1z"/></g><defs><clipPath id="a"><path fill="#fff" d="M0 0h50v50H0z"/></clipPath></defs></svg>