<svg xmlns="http://www.w3.org/2000/svg" width="278.261" height="64" fill="none" viewBox="0 0 100 23"><g clip-path="url(#a)"><path fill="#4F0AF5" d="M16.256 16.86h.217v5h-.83c-5.364 0-8.465-3.03-8.465-7.984v-2.558l1.744-.427a2.82 2.82 0 0 0 2.063-2.14A2.78 2.78 0 0 0 9.96 5.978a2.822 2.822 0 0 0-4.54 2.2v10.923H0V7.984q.002-.5.062-1A8.155 8.155 0 0 1 8.232 0a8.22 8.22 0 0 1 7.97 5.915 7.77 7.77 0 0 1-.45 5.364 8.1 8.1 0 0 1-3.07 3.45c.45 1.806 1.396 2.14 3.512 2.14zM30.318 6.271v3.054h-.496c-1.055 0-1.876.295-2.465.869a3.16 3.16 0 0 0-.884 2.364v5.512h-2.961V6.457h2.96v1.504a4.1 4.1 0 0 1 3.35-1.69zm12.736 7.062h-8.992a3.2 3.2 0 0 0 1.186 1.752c.59.426 1.302.644 2.14.644.643 0 1.279-.132 1.86-.411a3.7 3.7 0 0 0 1.333-1.024l1.977 1.73a6.3 6.3 0 0 1-2.287 1.72c-.93.411-1.953.62-2.976.605a6.8 6.8 0 0 1-3.303-.799 5.89 5.89 0 0 1-3.147-5.302c0-1.085.271-2.163.806-3.1a5.77 5.77 0 0 1 2.225-2.18 6.36 6.36 0 0 1 3.14-.79 5.93 5.93 0 0 1 6.108 6.109c0 .349-.023.697-.078 1.046zm-4.186-3.907a3.054 3.054 0 0 0-3.76 0 3.18 3.18 0 0 0-1.085 1.737h5.938a3.18 3.18 0 0 0-1.085-1.737zm23.256-2.062a4.25 4.25 0 0 1 1.186 3.147v7.566h-2.969v-6.682c0-.713-.202-1.287-.62-1.705a2.2 2.2 0 0 0-1.651-.644c-.721 0-1.318.217-1.768.66a2.3 2.3 0 0 0-.674 1.736v6.635h-2.961v-6.682q0-1.056-.628-1.705a2.24 2.24 0 0 0-1.682-.644 2.4 2.4 0 0 0-1.76.66 2.3 2.3 0 0 0-.675 1.736v6.635h-2.96V6.457h2.953V7.66a4.36 4.36 0 0 1 3.442-1.48 4.54 4.54 0 0 1 2.155.495c.62.318 1.14.799 1.496 1.396a4.7 4.7 0 0 1 3.953-1.892c1.318 0 2.372.388 3.155 1.178l.008.008Zm15.38 4.9a5.81 5.81 0 0 1-1.783 4.34 6.12 6.12 0 0 1-4.457 1.745c-1.776 0-3.256-.582-4.458-1.744a5.81 5.81 0 0 1-1.798-4.341q-.002-2.596 1.798-4.342a6.13 6.13 0 0 1 4.458-1.744c1.775 0 3.255.582 4.45 1.744a5.81 5.81 0 0 1 1.79 4.342m-3.954 2.302a3.15 3.15 0 0 0 .9-2.303c0-.914-.303-1.682-.9-2.294a3.06 3.06 0 0 0-2.279-.923 3.07 3.07 0 0 0-2.279.93 3.333 3.333 0 0 0 0 4.582 3.08 3.08 0 0 0 2.28.93c.914 0 1.674-.31 2.27-.93zm9.373-5.403v4.83c0 .991.527 1.487 1.596 1.487a3.7 3.7 0 0 0 1.527-.387v2.76a4.5 4.5 0 0 1-2.17.496c-1.295 0-2.28-.341-2.93-1.039a3.95 3.95 0 0 1-.985-2.845V9.163H78.11V6.457h1.852V4.52l2.954-1.007v2.945h3.131v2.706zm16.24 4.17h-9.008a3.2 3.2 0 0 0 1.194 1.752c.581.426 1.294.644 2.132.644.643 0 1.279-.132 1.86-.411a3.6 3.6 0 0 0 1.333-1.024l1.985 1.73a6.3 6.3 0 0 1-2.287 1.72 7.2 7.2 0 0 1-2.977.605 6.8 6.8 0 0 1-3.302-.799 5.89 5.89 0 0 1-3.155-5.302c0-1.085.28-2.155.806-3.1a5.8 5.8 0 0 1 2.233-2.171 6.36 6.36 0 0 1 3.14-.799q2.616 0 4.364 1.744a5.9 5.9 0 0 1 1.744 4.365q-.002.523-.062 1.046m-4.178-3.907a3.05 3.05 0 0 0-3.768 0 3.18 3.18 0 0 0-1.078 1.737h5.923a3.18 3.18 0 0 0-1.078-1.737Z"/></g><defs><clipPath id="a"><path fill="#fff" d="M0 0h100v22.481H0z"/></clipPath></defs></svg>