<svg xmlns="http://www.w3.org/2000/svg" width="278.261" height="64" fill="none" viewBox="0 0 100 23"><g clip-path="url(#a)"><path fill="#4F0AF5" d="M16.256 16.86h.217v5h-.83c-5.364 0-8.465-3.03-8.465-7.984v-2.558l1.744-.427a2.816 2.816 0 0 0 2.063-2.14A2.776 2.776 0 0 0 9.96 5.978 2.822 2.822 0 0 0 5.42 8.178v10.923H0V7.984c0-.333.023-.666.062-1A8.155 8.155 0 0 1 8.232 0a8.218 8.218 0 0 1 7.97 5.915 7.766 7.766 0 0 1-.45 5.364 8.086 8.086 0 0 1-3.07 3.45c.45 1.806 1.396 2.14 3.512 2.14l.062-.009ZM30.318 6.271v3.054h-.496c-1.055 0-1.876.295-2.465.869a3.155 3.155 0 0 0-.884 2.364v5.512h-2.961V6.457h2.96v1.504a4.108 4.108 0 0 1 3.35-1.69h.496Zm12.736 7.062h-8.992a3.189 3.189 0 0 0 1.186 1.752c.59.426 1.302.644 2.14.644.643 0 1.279-.132 1.86-.411a3.73 3.73 0 0 0 1.333-1.024l1.977 1.73a6.302 6.302 0 0 1-2.287 1.72c-.93.411-1.953.62-2.976.605a6.815 6.815 0 0 1-3.303-.799 5.893 5.893 0 0 1-3.147-5.302c0-1.085.271-2.163.806-3.1a5.767 5.767 0 0 1 2.225-2.18 6.356 6.356 0 0 1 3.14-.79 5.93 5.93 0 0 1 6.108 6.109c0 .349-.023.697-.078 1.046h.008Zm-4.186-3.907a3.054 3.054 0 0 0-3.76 0 3.178 3.178 0 0 0-1.085 1.737h5.938a3.178 3.178 0 0 0-1.085-1.737h-.008Zm23.256-2.062a4.248 4.248 0 0 1 1.186 3.147v7.566h-2.969v-6.682c0-.713-.202-1.287-.62-1.705a2.193 2.193 0 0 0-1.651-.644c-.721 0-1.318.217-1.768.66a2.302 2.302 0 0 0-.674 1.736v6.635h-2.961v-6.682c0-.705-.21-1.271-.628-1.705a2.242 2.242 0 0 0-1.682-.644 2.403 2.403 0 0 0-1.76.66 2.31 2.31 0 0 0-.675 1.736v6.635h-2.96V6.457h2.953V7.66a4.364 4.364 0 0 1 3.442-1.48 4.535 4.535 0 0 1 2.155.495c.62.318 1.14.799 1.496 1.396a4.705 4.705 0 0 1 3.953-1.892c1.318 0 2.372.388 3.155 1.178l.008.008Zm15.38 4.9a5.811 5.811 0 0 1-1.783 4.34 6.124 6.124 0 0 1-4.457 1.745c-1.776 0-3.256-.582-4.458-1.744a5.814 5.814 0 0 1-1.798-4.341c0-1.73.597-3.179 1.798-4.342a6.131 6.131 0 0 1 4.458-1.744c1.775 0 3.255.582 4.45 1.744a5.813 5.813 0 0 1 1.79 4.342Zm-3.954 2.302a3.15 3.15 0 0 0 .9-2.303c0-.914-.303-1.682-.9-2.294a3.061 3.061 0 0 0-2.279-.923 3.068 3.068 0 0 0-2.279.93 3.333 3.333 0 0 0 0 4.582 3.081 3.081 0 0 0 2.28.93c.914 0 1.674-.31 2.27-.93l.008.008Zm9.373-5.403v4.83c0 .991.527 1.487 1.596 1.487a3.709 3.709 0 0 0 1.527-.387v2.76a4.506 4.506 0 0 1-2.17.496c-1.295 0-2.28-.341-2.93-1.039a3.954 3.954 0 0 1-.985-2.845V9.163H78.11V6.457h1.852V4.52l2.954-1.007v2.945h3.131v2.706h-3.124Zm16.24 4.17h-9.008a3.202 3.202 0 0 0 1.194 1.752c.581.426 1.294.644 2.132.644.643 0 1.279-.132 1.86-.411a3.6 3.6 0 0 0 1.333-1.024l1.985 1.73a6.327 6.327 0 0 1-2.287 1.72c-.938.411-1.953.62-2.977.605a6.815 6.815 0 0 1-3.302-.799 5.891 5.891 0 0 1-3.155-5.302c0-1.085.28-2.155.806-3.1a5.779 5.779 0 0 1 2.233-2.171 6.356 6.356 0 0 1 3.14-.799c1.743 0 3.2.582 4.364 1.744a5.91 5.91 0 0 1 1.744 4.365c0 .349-.023.697-.062 1.046Zm-4.178-3.907a3.053 3.053 0 0 0-3.768 0 3.179 3.179 0 0 0-1.078 1.737h5.923a3.178 3.178 0 0 0-1.078-1.737Z"/></g><defs><clipPath id="a"><path fill="#fff" d="M0 0h100v22.481H0z"/></clipPath></defs></svg>