<svg xmlns="http://www.w3.org/2000/svg" width="48.64" height="64" fill="none" viewBox="0 0 38 50"><g clip-path="url(#a)"><path fill="#4F0AF5" d="M36.155 37.5h.483v11.12h-1.845c-11.93 0-18.828-6.741-18.828-17.758v-5.69l3.88-.948a6.257 6.257 0 0 0 4.586-4.759 6.173 6.173 0 0 0-2.276-6.172 6.276 6.276 0 0 0-10.103 4.896v24.293H0V17.758c0-.741.052-1.482.138-2.224A18.138 18.138 0 0 1 18.31 0a18.276 18.276 0 0 1 17.725 13.155 17.272 17.272 0 0 1-1 11.93 17.982 17.982 0 0 1-6.828 7.673c1 4.017 3.103 4.759 7.81 4.759l.138-.017Z"/></g><defs><clipPath id="a"><path fill="#fff" d="M0 0h37.931v50H0z"/></clipPath></defs></svg>