<svg xmlns="http://www.w3.org/2000/svg" width="213.333" height="64" fill="none" viewBox="0 0 100 30"><g fill="#000" clip-path="url(#a)"><path d="M24.438 11.81ZM6.299 11.745S2.899 24.27 16.524 24.38c4.275-1.591 7.425-5.493 7.903-10.197.033-.325.043-.657.05-.99.002-.087.013-.172.013-.26 0-.379-.023-.752-.057-1.122-3.6 14.17-19.524 8.62-18.134-.065Z"/><path d="M13.345 7.096S.659 3.554.854 17.386c.65 1.672 1.66 3.18 2.956 4.42l.166.15c.367.338.754.654 1.16.945.062.045.121.095.185.139.428.293.875.558 1.338.794.134.07.272.132.409.197.398.187.806.353 1.222.496.102.035.2.078.303.11a12.118 12.118 0 0 0 1.992.433c.533.076 1.071.118 1.61.125.021 0 .041.003.062.003.406 0 .808-.022 1.204-.06-14.234-3.395-8.824-19.312-.116-18.042Z"/><path d="M18.293 13.656S21.294 1.003 7.784 1.568C3.254 3.358.047 7.765.047 12.93c.004.556.046 1.112.126 1.662 2.843-14.315 19.041-9.679 18.12-.937Z"/><path d="M11.807 19.101S24.515 20.76 23.719 8.678C21.99 4.027 17.524.708 12.271.708a12.27 12.27 0 0 0-2.216.21c14.16 1.738 10.48 18.307 1.752 18.183Z"/><path d="M15.801 12.932a3.424 3.424 0 1 1-6.849 0 3.424 3.424 0 0 1 6.85 0Zm14.747 9.946V6.638h2.436v3.995c.087-.282.25-.65.487-1.105.26-.476.629-.953 1.105-1.43.476-.476 1.072-.876 1.786-1.201.736-.346 1.603-.52 2.599-.52h.162v2.437h-.292c-1.213 0-2.263.335-3.15 1.007-.867.65-1.538 1.505-2.015 2.566a8.257 8.257 0 0 0-.682 3.345v7.146h-2.436Zm17.996.26c-1.646 0-3.086-.368-4.32-1.104a7.997 7.997 0 0 1-2.891-3.053c-.671-1.278-1.007-2.686-1.007-4.223 0-1.56.325-2.967.975-4.223a7.372 7.372 0 0 1 2.793-3.02c1.213-.759 2.642-1.138 4.288-1.138 1.667 0 3.096.38 4.287 1.137a7.371 7.371 0 0 1 2.794 3.021c.65 1.256.974 2.663.974 4.223v.974h-13.61c.13.953.433 1.83.91 2.631a5.701 5.701 0 0 0 1.981 1.884c.823.455 1.776.682 2.859.682 1.147 0 2.11-.249 2.89-.747a5.494 5.494 0 0 0 1.82-1.981h2.663a8.027 8.027 0 0 1-2.696 3.573c-1.213.91-2.783 1.364-4.71 1.364Zm-5.684-9.68h11.044c-.217-1.386-.802-2.544-1.754-3.475-.953-.931-2.21-1.397-3.768-1.397-1.56 0-2.815.466-3.768 1.397-.931.931-1.516 2.09-1.754 3.476ZM59.414 29.31V6.637h2.436v2.599a6.356 6.356 0 0 1 2.339-2.079c.974-.52 2.133-.78 3.475-.78 1.581 0 2.956.38 4.126 1.137a7.443 7.443 0 0 1 2.76 3.021c.65 1.256.975 2.663.975 4.223 0 1.537-.325 2.945-.974 4.223a7.674 7.674 0 0 1-2.761 3.053c-1.17.736-2.545 1.104-4.126 1.104-1.342 0-2.5-.26-3.475-.78a7.08 7.08 0 0 1-2.339-2.11v9.062h-2.436Zm7.925-8.38c1.213 0 2.242-.282 3.086-.845a5.506 5.506 0 0 0 1.982-2.242 7.07 7.07 0 0 0 .682-3.085c0-1.126-.228-2.155-.682-3.086a5.507 5.507 0 0 0-1.982-2.241c-.844-.563-1.873-.845-3.085-.845-1.192 0-2.21.282-3.054.845a5.356 5.356 0 0 0-1.916 2.241c-.433.931-.65 1.96-.65 3.086a7.37 7.37 0 0 0 .65 3.085 5.354 5.354 0 0 0 1.916 2.242c.845.563 1.862.844 3.053.844Zm11.393 1.948V.141h2.436v22.737h-2.436Zm6.564-18.97V.726h2.63V3.91h-2.63Zm.097 18.97V6.638h2.436v16.24h-2.436Zm8.415 0V8.781h-3.313V6.637h3.313V.823h2.437v5.814h3.735v2.144h-3.735v14.097h-2.437Z"/></g><defs><clipPath id="a"><path fill="#fff" d="M0 0h100v29.336H0z"/></clipPath></defs></svg>