<svg xmlns="http://www.w3.org/2000/svg" width="62.745" height="64" fill="none" viewBox="0 0 50 51"><g clip-path="url(#a)"><path fill="#56676E" d="M12.809 22.588S5.863 48.18 33.703 48.403c8.735-3.252 15.171-11.224 16.147-20.835a26 26 0 0 0 .102-2.022c.003-.18.027-.353.027-.533 0-.774-.047-1.537-.116-2.293-7.355 28.955-39.894 17.614-37.054-.132"/><path fill="#56676E" d="M27.199 13.088S1.278 5.85 1.676 34.114a25.05 25.05 0 0 0 6.041 9.03c.111.104.227.204.34.308q1.125 1.036 2.368 1.93c.128.092.25.193.378.283q1.316.9 2.735 1.623c.274.142.557.271.835.403q1.22.575 2.497 1.013c.209.072.408.16.62.227q1.531.468 3.109.735c.317.056.639.102.96.147 1.09.157 2.19.243 3.292.255.042 0 .083.007.125.007.83 0 1.65-.044 2.46-.124-29.084-6.936-18.03-39.457-.237-36.862Z"/><path fill="#56676E" d="M37.305 26.492S43.438.638 15.833 1.792C6.576 5.45.023 14.457.023 25.013q.014 1.705.257 3.396C6.09-.843 39.187 8.63 37.305 26.492"/><path fill="#56676E" d="M24.049 37.618s25.966 3.39 24.34-21.298C44.857 6.817 35.732.035 25 .035a25 25 0 0 0-4.53.43c28.933 3.552 21.413 37.406 3.58 37.153Z"/><path fill="#4E4F50" d="M32.211 25.014a6.996 6.996 0 1 1-13.991 0 6.996 6.996 0 0 1 13.991 0"/></g><defs><clipPath id="a"><path fill="#fff" d="M0 0h50v50.111H0z"/></clipPath></defs></svg>