<svg xmlns="http://www.w3.org/2000/svg" width="390.095" height="64" fill="none" viewBox="0 0 128 21"><g fill="#000" clip-path="url(#a)"><path d="M0 19.92h5.684v-7.132H7.02l4.04 7.132h6.018l-4.764-8.247c2.09-.808 3.594-2.396 3.594-5.238v-.111C15.909 2.117 13.01 0 7.8 0H0v19.92ZM5.684 9.082V4.29H7.55c1.84 0 2.842.64 2.842 2.257v.111c0 1.616-.947 2.424-2.87 2.424H5.685ZM25.404 20.255c4.402 0 6.938-1.867 7.384-5.154h-4.681c-.195.975-.892 1.727-2.535 1.727-1.784 0-2.898-1.114-3.037-3.037h10.253v-1.31c0-5.237-3.427-7.522-7.411-7.522-4.402 0-7.885 2.954-7.885 7.634v.223c0 4.764 3.343 7.44 7.912 7.44Zm-2.814-9.278c.251-1.755 1.282-2.73 2.787-2.73 1.616 0 2.48.975 2.563 2.73h-5.35ZM40.773 20.255c4.04 0 6.603-1.56 6.603-5.015 0-3.12-1.95-4.179-5.99-4.68-1.784-.223-2.452-.502-2.452-1.199 0-.668.557-1.142 1.644-1.142 1.142 0 1.671.474 1.866 1.449h4.514c-.335-3.483-2.842-4.709-6.436-4.709-3.371 0-6.241 1.56-6.241 4.792 0 3.037 1.644 4.18 5.544 4.681 2.006.279 2.703.613 2.703 1.31 0 .724-.557 1.198-1.783 1.198-1.421 0-1.895-.585-2.062-1.644h-4.597c.111 3.232 2.535 4.96 6.687 4.96ZM55.194 20.255c1.17 0 2.117-.25 2.758-.418v-3.79c-.445.168-.863.252-1.42.252-.948 0-1.477-.474-1.477-1.533V8.748h2.87V5.35h-2.87V2.312h-4.987V5.35h-1.755v3.4h1.755v6.49c0 3.428 1.839 5.016 5.126 5.016ZM60.227 19.92h4.987v-6.91c0-2.34 1.671-3.287 4.708-3.204V5.154c-2.257-.028-3.789.92-4.708 3.092V5.35h-4.987V19.92ZM79.139 20.255c4.402 0 6.937-1.867 7.383-5.154h-4.68c-.195.975-.892 1.727-2.536 1.727-1.783 0-2.897-1.114-3.037-3.037h10.253v-1.31c0-5.237-3.427-7.522-7.41-7.522-4.403 0-7.885 2.954-7.885 7.634v.223c0 4.764 3.343 7.44 7.912 7.44Zm-2.814-9.278c.25-1.755 1.282-2.73 2.786-2.73 1.616 0 2.48.975 2.563 2.73h-5.349ZM92.892 20.255c2.34 0 3.622-.975 4.319-2.034v1.7h4.847v-9.445c0-3.873-2.563-5.517-6.575-5.517-3.984 0-6.742 1.728-6.965 5.238h4.68c.112-.92.614-1.727 1.979-1.727 1.588 0 1.922.92 1.922 2.312v.335h-1.393c-4.848 0-7.745 1.337-7.745 4.764 0 3.093 2.312 4.374 4.931 4.374Zm1.728-3.371c-1.17 0-1.728-.53-1.728-1.365 0-1.198.892-1.588 2.898-1.588h1.31v.891c0 1.254-1.06 2.062-2.48 2.062ZM104.898 19.92h4.987v-8.442c0-1.588.892-2.452 2.229-2.452 1.143 0 1.867.725 1.867 2.201v8.693h4.931v-8.442c0-1.588.892-2.452 2.229-2.452 1.143 0 1.867.725 1.867 2.201v8.693h4.987v-9.529c0-3.65-2.006-5.432-4.764-5.432-1.839 0-3.566.724-4.82 2.424-.697-1.588-2.034-2.424-3.956-2.424-2.257 0-3.789 1.226-4.57 2.619v-2.23h-4.987V19.92Z"/></g><defs><clipPath id="a"><path fill="#fff" d="M0 0h128v21H0z"/></clipPath></defs></svg>