<svg xmlns="http://www.w3.org/2000/svg" width="64" height="64" fill="none" viewBox="0 0 50 50"><g clip-path="url(#a)"><path fill="#1D1D1B" d="M25 50c13.807 0 25-11.193 25-25S38.807 0 25 0 0 11.193 0 25s11.193 25 25 25Z"/><path fill="#fff" d="M15.625 37.503h7.137v-8.955h1.676l5.074 8.955h7.551l-5.977-10.346c2.626-1.017 4.512-3.005 4.512-6.574v-.142c0-5.278-3.636-7.938-10.176-7.938h-9.797v25Zm7.137-13.602v-6.01h2.34c2.307 0 3.57.806 3.57 2.828v.143c0 2.028-1.188 3.039-3.603 3.039h-2.307Z"/></g><defs><clipPath id="a"><path fill="#fff" d="M0 0h50v50H0z"/></clipPath></defs></svg>