<svg xmlns="http://www.w3.org/2000/svg" width="64" height="64" fill="none" viewBox="0 0 50 50"><g fill="#000" clip-path="url(#a)"><path d="M0 4.581A4.58 4.58 0 0 1 4.581 0h17.92a4.58 4.58 0 0 1 4.582 4.581v3.545a2.29 2.29 0 0 1-2.29 2.29H2.29A2.29 2.29 0 0 1 0 8.127zm0 14.376a2.29 2.29 0 0 1 2.29-2.29h43.13A4.58 4.58 0 0 1 50 21.248v11.878a2.29 2.29 0 0 1-2.29 2.29H4.58A4.58 4.58 0 0 1 0 30.837V18.956Zm22.914 25a2.29 2.29 0 0 1 2.29-2.29h22.503a2.29 2.29 0 0 1 2.29 2.29v1.462A4.58 4.58 0 0 1 45.416 50h-17.92a4.58 4.58 0 0 1-4.582-4.581z"/></g><defs><clipPath id="a"><path fill="#fff" d="M0 0h50v50H0z"/></clipPath></defs></svg>