<svg xmlns="http://www.w3.org/2000/svg" width="290.909" height="64" fill="none" viewBox="0 0 100 22"><g fill="#000" clip-path="url(#a)"><path d="M0 1.963C0 .88.88 0 1.963 0h7.68c1.085 0 1.964.88 1.964 1.963v1.52c0 .542-.44.981-.982.981H.982A.98.98 0 0 1 0 3.483zm0 6.162c0-.543.44-.982.982-.982h18.483c1.084 0 1.964.879 1.964 1.963v5.09c0 .543-.44.983-.982.983H1.963A1.963 1.963 0 0 1 0 13.215zm9.82 10.714c0-.542.44-.982.982-.982h9.644c.542 0 .981.44.981.982v.626a1.964 1.964 0 0 1-1.963 1.964h-7.68a1.964 1.964 0 0 1-1.964-1.964zm23.744-5.677h2.064l3.833 6.265h4.693l-4.25-6.708c2.358-.81 3.734-2.629 3.734-5.258 0-3.685-2.58-5.675-6.732-5.675H29.46v17.64h4.103zm0-3.342V5.25h3.12c1.942 0 2.924.835 2.924 2.285 0 1.425-.982 2.285-2.923 2.285zm17.652 9.877c2.58 0 4.939-1.302 5.897-3.784l-3.292-1.056c-.369 1.13-1.327 1.72-2.555 1.72-1.5 0-2.556-1.008-2.826-2.777h8.772v-1.032c0-3.66-2.138-6.56-6.07-6.56-3.734 0-6.486 2.9-6.486 6.732 0 4.03 2.654 6.757 6.56 6.757m-.122-10.442c1.45 0 2.21.983 2.236 2.137h-4.767c.393-1.425 1.327-2.137 2.53-2.137Zm8.349 6.708c0 2.653 1.4 3.587 4.202 3.587.933 0 1.67-.074 2.358-.172v-3.219c-.442.05-.663.074-1.13.074-.983 0-1.548-.197-1.548-1.278V9.722h2.53V6.479h-2.53V2.89h-3.882v3.59h-1.646v3.243h1.646zm20.624-2.998c0-4.03-2.678-6.757-6.487-6.757-3.833 0-6.486 2.728-6.486 6.757 0 4.03 2.653 6.732 6.486 6.732 3.809 0 6.487-2.703 6.487-6.732m-9.067 0c0-2.26 1.008-3.538 2.58-3.538s2.58 1.278 2.58 3.538-1.007 3.538-2.58 3.538c-1.572 0-2.58-1.278-2.58-3.538m23.223 0c0-4.03-2.678-6.757-6.486-6.757-3.833 0-6.487 2.728-6.487 6.757 0 4.03 2.654 6.732 6.487 6.732 3.808 0 6.486-2.703 6.486-6.732m-9.066 0c0-2.26 1.007-3.538 2.58-3.538 1.572 0 2.58 1.278 2.58 3.538s-1.008 3.538-2.58 3.538-2.58-1.278-2.58-3.538m14.845-11.179H96.07v17.64h3.932z"/></g><defs><clipPath id="a"><path fill="#fff" d="M0 0h100v21.429H0z"/></clipPath></defs></svg>