<svg xmlns="http://www.w3.org/2000/svg" width="64" height="64" fill="none" viewBox="0 0 32 32"><path fill="url(#a)" d="M16 30c7.732 0 14-6.268 14-14S23.732 2 16 2 2 8.268 2 16s6.268 14 14 14"/><path fill="url(#b)" d="M16 28.95c7.152 0 12.95-5.798 12.95-12.95S23.152 3.05 16 3.05 3.05 8.848 3.05 16 8.848 28.95 16 28.95"/><path fill="#F3F3F3" d="M16.022 6.2c-.088 0-.164-.066-.164-.153V3.76c0-.088.076-.153.164-.153.087 0 .164.065.164.153v2.286c-.011.087-.077.153-.164.153"/><path fill="#fff" d="M16.022 6.211c-.098 0-.175-.077-.175-.164V3.76c0-.088.077-.164.175-.164s.175.076.175.164v2.286c0 .087-.088.164-.175.164m0-2.592c-.077 0-.153.065-.153.142v2.286c0 .076.065.142.153.142.077 0 .153-.066.153-.142V3.76c-.01-.077-.076-.142-.153-.142"/><path fill="#F3F3F3" d="M17.116 4.975c-.088-.01-.153-.077-.153-.164l.076-1.017a.16.16 0 0 1 .175-.142c.088.01.153.076.153.164l-.076 1.017a.16.16 0 0 1-.175.142"/><path fill="#fff" d="M17.116 4.986a.18.18 0 0 1-.164-.175l.076-1.017c.011-.088.088-.164.186-.153a.18.18 0 0 1 .164.175l-.076 1.017c-.011.098-.088.164-.186.153m.098-1.323c-.076 0-.153.054-.153.13l-.077 1.018c0 .077.055.142.143.153.076 0 .153-.055.153-.131l.076-1.017c0-.077-.065-.143-.142-.153"/><path fill="#F3F3F3" d="M17.936 6.397a.17.17 0 0 1-.131-.186l.448-2.242c.022-.088.099-.142.186-.12a.17.17 0 0 1 .131.185l-.448 2.243c-.011.076-.099.13-.186.12"/><path fill="#fff" d="M17.936 6.408a.18.18 0 0 1-.142-.197l.448-2.242a.176.176 0 0 1 .208-.131c.098.021.153.109.142.196l-.448 2.243c-.022.087-.11.142-.208.13m.514-2.549a.16.16 0 0 0-.175.11l-.448 2.242a.155.155 0 0 0 .12.175.16.16 0 0 0 .175-.11l.448-2.242c.011-.087-.043-.153-.12-.175"/><path fill="#F3F3F3" d="M19.248 5.413a.16.16 0 0 1-.122-.134.2.2 0 0 1 .002-.063l.274-.985c.021-.087.109-.13.196-.109s.143.11.12.197l-.273.984c-.022.088-.11.131-.197.11"/><path fill="#fff" d="M19.249 5.423c-.088-.021-.153-.12-.12-.207l.273-.985c.021-.087.12-.142.207-.12.088.022.153.12.12.208l-.273.984c-.021.088-.109.142-.207.12m.36-1.28c-.076-.021-.164.023-.186.1l-.273.984c-.022.076.022.153.11.175.076.021.163-.022.185-.099l.274-.984a.16.16 0 0 0-.11-.175"/><path fill="#F3F3F3" d="M19.785 6.955a.157.157 0 0 1-.088-.208l.875-2.111c.033-.077.131-.12.208-.077.087.033.12.132.087.208l-.875 2.111c-.032.077-.131.12-.207.077"/><path fill="#fff" d="M19.784 6.966a.17.17 0 0 1-.098-.219l.875-2.111c.033-.087.131-.12.23-.087a.17.17 0 0 1 .098.218l-.875 2.111c-.044.088-.142.131-.23.088m.996-2.396a.15.15 0 0 0-.197.077l-.875 2.11c-.033.077.01.154.087.187s.164 0 .197-.077l.875-2.11a.156.156 0 0 0-.087-.187"/><path fill="#F3F3F3" d="M21.261 6.255c-.077-.044-.11-.132-.077-.208l.46-.908a.16.16 0 0 1 .219-.066c.076.044.109.132.076.208l-.46.908a.16.16 0 0 1-.218.066"/><path fill="#fff" d="M21.261 6.266a.167.167 0 0 1-.077-.23l.46-.908a.167.167 0 0 1 .23-.076c.087.043.12.142.076.23l-.46.907a.167.167 0 0 1-.229.077m.602-1.193c-.077-.032-.165-.01-.197.066l-.46.908c-.032.066 0 .153.066.197.077.033.164.01.197-.066l.46-.908c.032-.065 0-.153-.066-.197"/><path fill="#F3F3F3" d="M21.48 7.874c-.077-.055-.099-.154-.044-.22l1.269-1.891c.044-.077.142-.088.219-.044.076.055.098.153.043.219L21.7 7.83a.148.148 0 0 1-.22.044"/><path fill="#fff" d="M21.48 7.884a.19.19 0 0 1-.055-.24l1.269-1.892a.173.173 0 0 1 .24-.044.19.19 0 0 1 .055.24L21.72 7.842a.175.175 0 0 1-.24.043m1.444-2.154c-.066-.044-.165-.033-.208.033l-1.27 1.892a.14.14 0 0 0 .045.197c.065.043.164.032.207-.033l1.27-1.881a.156.156 0 0 0-.044-.208"/><path fill="#F3F3F3" d="M23.077 7.469c-.066-.055-.088-.153-.033-.219l.634-.798a.156.156 0 0 1 .219-.022c.066.054.087.153.033.219l-.635.798a.156.156 0 0 1-.218.022"/><path fill="#fff" d="M23.066 7.48c-.077-.055-.088-.164-.033-.241l.634-.798c.055-.077.164-.088.24-.022.077.054.088.164.034.24l-.635.799c-.054.076-.164.087-.24.022m.82-1.04c-.066-.054-.153-.043-.208.022l-.634.799a.155.155 0 0 0 .032.208c.066.054.154.043.208-.022l.635-.799c.043-.065.032-.164-.033-.207"/><path fill="#F3F3F3" d="M22.967 9.11c-.065-.066-.065-.165 0-.22l1.619-1.607a.155.155 0 0 1 .219 0c.054.055.065.164 0 .219l-1.608 1.607a.16.16 0 0 1-.23 0"/><path fill="#fff" d="M22.956 9.12a.17.17 0 0 1 0-.24l1.619-1.608a.17.17 0 0 1 .24 0 .17.17 0 0 1 0 .24L23.198 9.12a.17.17 0 0 1-.24 0m1.849-1.837a.15.15 0 0 0-.208 0L22.978 8.89a.15.15 0 0 0 0 .207.15.15 0 0 0 .208 0l1.619-1.607c.054-.055.054-.143 0-.208"/><path fill="#F3F3F3" d="M24.608 9.022c-.055-.066-.055-.164.01-.219l.777-.656a.156.156 0 0 1 .22.022c.054.065.054.164-.012.218l-.776.657a.156.156 0 0 1-.22-.022"/><path fill="#fff" d="M24.597 9.033c-.066-.077-.055-.186.01-.24l.777-.657c.066-.066.175-.055.24.022.067.076.056.186-.01.24l-.777.657c-.065.065-.175.054-.24-.022m1.006-.864c-.055-.066-.142-.066-.208-.022l-.776.656a.15.15 0 0 0-.011.208c.054.066.142.066.207.022l.777-.656c.066-.055.066-.143.011-.208"/><path fill="#F3F3F3" d="M24.17 10.597a.148.148 0 0 1 .044-.219l1.903-1.269c.077-.043.175-.021.219.044a.148.148 0 0 1-.044.219L24.39 10.64c-.066.043-.164.021-.219-.044"/><path fill="#fff" d="M24.16 10.597a.175.175 0 0 1 .043-.24l1.903-1.27a.17.17 0 0 1 .24.055.175.175 0 0 1-.043.24l-1.903 1.27a.17.17 0 0 1-.24-.055m2.165-1.433a.14.14 0 0 0-.197-.044l-1.903 1.269c-.066.044-.088.131-.033.208a.143.143 0 0 0 .197.044l1.903-1.27a.155.155 0 0 0 .033-.207"/><path fill="#F3F3F3" d="M25.8 10.827a.16.16 0 0 1 .055-.22l.886-.502c.076-.044.175-.011.218.065a.16.16 0 0 1-.054.22l-.886.502c-.077.044-.175.011-.219-.066"/><path fill="#fff" d="M25.79 10.838c-.044-.088-.023-.186.054-.23l.886-.503c.076-.044.186-.011.23.065.043.088.021.186-.055.23l-.886.503c-.077.044-.186.011-.23-.066m1.159-.657c-.044-.076-.132-.098-.197-.054l-.886.503a.16.16 0 0 0-.055.197c.044.076.131.098.197.054l.886-.503c.066-.033.088-.12.055-.197"/><path fill="#F3F3F3" d="M25.067 12.281c-.032-.087 0-.175.088-.207l2.11-.875c.077-.033.176.01.208.087.033.088 0 .175-.087.208l-2.11.875a.156.156 0 0 1-.209-.088"/><path fill="#fff" d="M25.056 12.292a.18.18 0 0 1 .088-.23l2.11-.874a.17.17 0 0 1 .22.098.18.18 0 0 1-.088.23l-2.11.875a.17.17 0 0 1-.22-.099m2.396-.995a.156.156 0 0 0-.186-.088l-2.111.875a.15.15 0 0 0-.077.197c.033.077.12.11.186.088l2.11-.875c.078-.033.11-.12.078-.197"/><path fill="#F3F3F3" d="M26.61 12.828c-.033-.087.01-.175.098-.208l.962-.317c.077-.033.175.022.197.099.033.087-.01.175-.098.207l-.963.318c-.076.032-.164-.011-.196-.099"/><path fill="#fff" d="M26.598 12.84a.167.167 0 0 1 .11-.22l.962-.317c.088-.033.186.022.219.11a.167.167 0 0 1-.11.218l-.962.318a.186.186 0 0 1-.219-.11m1.27-.416c-.023-.077-.11-.12-.187-.099l-.962.317c-.077.022-.11.11-.088.186.022.077.11.12.186.099l.963-.318a.15.15 0 0 0 .087-.185"/><path fill="#F3F3F3" d="M25.625 14.13c-.022-.088.033-.175.12-.186l2.243-.438c.087-.022.164.044.185.131.022.088-.032.175-.12.186l-2.242.438c-.087.01-.175-.044-.186-.131"/><path fill="#fff" d="M25.603 14.13a.176.176 0 0 1 .131-.208l2.242-.438c.088-.021.175.044.197.143a.176.176 0 0 1-.13.207l-2.243.438c-.088.022-.175-.044-.197-.142m2.548-.492a.147.147 0 0 0-.163-.12l-2.243.437c-.076.01-.131.098-.11.175a.147.147 0 0 0 .165.12l2.242-.437c.077-.022.131-.099.11-.175"/><path fill="#F3F3F3" d="M27.025 14.972c-.01-.088.044-.164.131-.175l1.006-.12a.16.16 0 0 1 .175.142c.011.087-.043.164-.13.175l-1.007.12c-.077.011-.164-.055-.175-.142"/><path fill="#fff" d="M27.014 14.972c-.01-.099.055-.186.142-.197l1.006-.12a.17.17 0 0 1 .186.153c.011.098-.054.186-.142.197l-1.006.12a.17.17 0 0 1-.186-.153m1.323-.153c-.01-.077-.087-.143-.164-.132l-1.006.12a.147.147 0 0 0-.12.165c.01.076.087.142.164.131l1.006-.12a.147.147 0 0 0 .12-.164"/><path fill="#F3F3F3" d="M25.8 16.033c0-.088.066-.164.153-.164h2.286c.088 0 .153.076.153.164 0 .087-.065.164-.153.164h-2.286c-.087 0-.153-.077-.153-.164"/><path fill="#fff" d="M25.79 16.033c0-.099.076-.175.163-.175h2.286c.088 0 .164.076.164.175s-.076.175-.164.175h-2.286c-.087 0-.164-.077-.164-.175m2.591.01c0-.076-.065-.152-.142-.152h-2.286c-.076 0-.142.065-.142.153 0 .076.066.153.142.153h2.286c.077-.011.142-.077.142-.153"/><path fill="#F3F3F3" d="M27.014 17.138c.011-.088.077-.154.164-.154l1.017.077a.16.16 0 0 1 .142.175c-.01.087-.076.153-.164.153l-1.017-.076c-.076-.011-.142-.088-.142-.175"/><path fill="#fff" d="M27.003 17.138a.18.18 0 0 1 .175-.165l1.018.077c.087.011.164.088.153.186a.177.177 0 0 1-.175.164l-1.018-.076c-.087-.011-.153-.099-.153-.186m1.335.098a.14.14 0 0 0-.132-.153l-1.017-.077c-.076 0-.142.055-.153.143a.14.14 0 0 0 .131.153l1.018.076c.076 0 .142-.065.153-.142"/><path fill="#F3F3F3" d="M25.603 17.936a.17.17 0 0 1 .186-.131l2.242.448c.088.022.143.099.12.186a.17.17 0 0 1-.185.131l-2.242-.448c-.077-.011-.132-.099-.12-.186"/><path fill="#fff" d="M25.592 17.936a.18.18 0 0 1 .197-.142l2.242.448a.178.178 0 0 1-.066.35l-2.242-.448c-.087-.022-.142-.11-.13-.208m2.549.514a.16.16 0 0 0-.11-.175l-2.242-.448a.155.155 0 0 0-.175.12.16.16 0 0 0 .11.175l2.242.448c.087.011.153-.044.175-.12"/><path fill="#F3F3F3" d="M26.588 19.249a.163.163 0 0 1 .196-.12l.985.273c.087.021.13.11.11.197a.163.163 0 0 1-.198.12l-.984-.274c-.088-.021-.131-.109-.11-.197"/><path fill="#fff" d="M26.577 19.249c.022-.088.12-.154.207-.12l.985.272c.087.022.142.12.12.208s-.12.153-.208.12l-.984-.273c-.087-.022-.142-.11-.12-.207m1.28.36c.021-.076-.023-.164-.1-.186l-.983-.273c-.077-.022-.154.022-.175.11-.022.076.021.163.098.185l.984.274a.16.16 0 0 0 .175-.11"/><path fill="#F3F3F3" d="M25.045 19.774a.156.156 0 0 1 .208-.088l2.111.875c.077.033.12.131.088.208-.033.087-.132.12-.208.087l-2.111-.875a.156.156 0 0 1-.088-.207"/><path fill="#fff" d="M25.034 19.763a.17.17 0 0 1 .22-.099l2.11.875c.087.033.12.131.087.23a.17.17 0 0 1-.218.098l-2.111-.875c-.088-.044-.12-.142-.088-.23m2.396.995a.15.15 0 0 0-.077-.197l-2.11-.875c-.077-.033-.154.011-.187.087a.15.15 0 0 0 .077.197l2.11.875c.077.022.165-.01.187-.087"/><path fill="#F3F3F3" d="M25.756 21.25c.044-.076.131-.11.208-.076l.908.459c.076.033.11.131.065.219-.043.076-.13.11-.207.076l-.908-.46c-.077-.043-.11-.141-.066-.218"/><path fill="#fff" d="M25.745 21.24a.167.167 0 0 1 .23-.077l.908.459c.087.044.12.142.076.23a.167.167 0 0 1-.23.076l-.907-.46c-.088-.032-.12-.141-.077-.229m1.182.6c.032-.076.01-.163-.066-.196l-.908-.46c-.066-.032-.153 0-.197.066-.033.077-.01.164.066.197l.908.46c.076.032.164.01.197-.066"/><path fill="#F3F3F3" d="M24.148 21.458c.055-.077.143-.099.22-.044l1.902 1.269c.077.044.088.142.044.219-.055.076-.142.098-.219.043l-1.903-1.268c-.076-.055-.098-.154-.044-.22"/><path fill="#fff" d="M24.138 21.447a.19.19 0 0 1 .24-.055l1.903 1.269a.173.173 0 0 1 .044.24.19.19 0 0 1-.24.055l-1.904-1.268c-.087-.055-.098-.165-.044-.241m2.154 1.444c.044-.066.033-.164-.032-.208l-1.904-1.269a.143.143 0 0 0-.197.044c-.043.066-.032.164.033.208l1.903 1.268a.14.14 0 0 0 .197-.043"/><path fill="#F3F3F3" d="M24.553 23.044c.055-.066.153-.088.219-.033l.798.623a.156.156 0 0 1 .022.22c-.054.065-.153.087-.219.032l-.798-.623a.156.156 0 0 1-.022-.22"/><path fill="#fff" d="M24.542 23.033c.055-.077.164-.088.24-.033l.8.624c.076.054.087.164.032.24-.055.077-.164.088-.24.033l-.799-.623c-.077-.055-.087-.165-.033-.241m1.05.82c.055-.066.044-.153-.022-.208l-.798-.623a.155.155 0 0 0-.208.033c-.055.065-.044.153.022.207l.798.624a.155.155 0 0 0 .208-.033"/><path fill="#F3F3F3" d="M22.923 22.934c.066-.065.165-.065.22 0l1.618 1.608a.155.155 0 0 1 0 .219c-.066.066-.164.066-.219 0l-1.619-1.608c-.054-.055-.054-.164 0-.219"/><path fill="#fff" d="M22.923 22.923a.17.17 0 0 1 .241 0l1.619 1.608a.17.17 0 0 1 0 .24.17.17 0 0 1-.24 0l-1.62-1.607a.155.155 0 0 1 0-.24m1.838 1.827a.15.15 0 0 0 0-.208l-1.619-1.608a.15.15 0 0 0-.208 0 .15.15 0 0 0 0 .208l1.62 1.608c.054.066.142.066.207 0"/><path fill="#F3F3F3" d="M23.022 24.564c.066-.055.164-.055.219.011l.667.766a.156.156 0 0 1-.022.218c-.066.055-.164.055-.219-.01L23 24.783c-.055-.055-.044-.153.022-.219"/><path fill="#fff" d="M23.011 24.564a.17.17 0 0 1 .24.011l.668.766c.065.065.054.175-.022.24a.17.17 0 0 1-.24-.01l-.668-.766c-.055-.077-.055-.186.022-.241m.875.995c.066-.054.066-.142.022-.207l-.667-.766a.15.15 0 0 0-.208-.011c-.066.055-.066.142-.022.208l.667.765c.055.066.142.066.208.011"/><path fill="#F3F3F3" d="M21.447 24.148a.148.148 0 0 1 .219.044l1.268 1.892c.044.077.022.175-.043.22a.148.148 0 0 1-.22-.045l-1.268-1.892c-.044-.076-.022-.175.044-.219"/><path fill="#fff" d="M21.447 24.138a.175.175 0 0 1 .24.043l1.27 1.892a.17.17 0 0 1-.055.24.175.175 0 0 1-.241-.043l-1.269-1.892a.166.166 0 0 1 .055-.24m1.444 2.154a.14.14 0 0 0 .043-.197l-1.268-1.892c-.044-.065-.132-.076-.208-.033a.14.14 0 0 0-.044.197l1.269 1.892c.044.055.142.077.207.033"/><path fill="#F3F3F3" d="M21.217 25.767a.16.16 0 0 1 .219.055l.503.886c.044.076.01.175-.066.219a.16.16 0 0 1-.218-.055l-.503-.886c-.033-.077-.011-.175.065-.219"/><path fill="#fff" d="M21.217 25.756c.088-.044.186-.022.23.055l.503.886c.044.077.022.186-.066.23-.087.044-.186.022-.23-.055l-.502-.886c-.044-.076-.022-.175.065-.23m.656 1.16c.066-.044.099-.131.055-.197l-.503-.886a.16.16 0 0 0-.197-.055c-.066.044-.098.132-.055.197l.504.886c.032.066.13.099.196.055"/><path fill="#F3F3F3" d="M19.763 25.045c.087-.032.175 0 .207.077l.886 2.11c.033.077-.01.176-.087.209-.077.032-.175 0-.208-.077l-.886-2.11c-.033-.078.011-.176.088-.209"/><path fill="#fff" d="M19.762 25.034a.18.18 0 0 1 .23.088l.886 2.11a.17.17 0 0 1-.098.22.18.18 0 0 1-.23-.088l-.886-2.11c-.033-.077.011-.176.098-.22m.996 2.396c.076-.033.11-.12.076-.186l-.886-2.111a.15.15 0 0 0-.196-.077c-.077.033-.11.12-.077.186l.886 2.111c.044.077.12.11.197.077"/><path fill="#F3F3F3" d="M19.227 26.598c.087-.032.174.011.207.099l.318.962c.032.077-.022.175-.099.197-.087.033-.175-.01-.208-.098l-.317-.963c-.033-.076.011-.164.099-.197"/><path fill="#fff" d="M19.216 26.588a.17.17 0 0 1 .219.098l.317.962c.033.088-.022.186-.11.22a.17.17 0 0 1-.218-.1l-.318-.962a.186.186 0 0 1 .11-.218m.426 1.257c.077-.021.12-.109.099-.185l-.317-.963c-.022-.076-.11-.11-.186-.087-.077.021-.12.109-.099.186l.317.962a.14.14 0 0 0 .186.087"/><path fill="#F3F3F3" d="M17.936 25.603c.087-.022.175.033.186.12l.46 2.243c.021.087-.044.164-.132.186-.087.021-.175-.033-.186-.12l-.46-2.243a.175.175 0 0 1 .132-.186"/><path fill="#fff" d="M17.936 25.592a.176.176 0 0 1 .208.131l.46 2.243c.021.087-.045.186-.132.197a.176.176 0 0 1-.208-.132l-.46-2.242c-.021-.088.034-.175.132-.197m.514 2.549c.077-.011.131-.088.12-.175l-.46-2.243c-.01-.076-.097-.13-.174-.11-.077.012-.131.088-.12.176l.46 2.242c.02.077.097.12.174.11"/><path fill="#F3F3F3" d="M17.105 27.025a.17.17 0 0 1 .186.131l.13 1.007a.16.16 0 0 1-.141.174.17.17 0 0 1-.186-.13l-.131-1.007a.16.16 0 0 1 .142-.175"/><path fill="#fff" d="M17.105 27.014c.098-.01.186.055.197.142l.13 1.007a.17.17 0 0 1-.152.186c-.099.01-.186-.055-.197-.143L16.95 27.2a.17.17 0 0 1 .154-.186m.164 1.313c.076-.011.142-.088.131-.164l-.131-1.007a.147.147 0 0 0-.164-.12c-.077.01-.143.087-.132.164l.132 1.006a.147.147 0 0 0 .164.12"/><path fill="#F3F3F3" d="M15.978 25.8c.088 0 .164.066.164.153v2.286c0 .087-.076.153-.164.153-.087 0-.164-.066-.164-.153v-2.286c.011-.087.077-.153.164-.153"/><path fill="#fff" d="M15.978 25.789c.099 0 .175.076.175.164v2.286c0 .087-.076.164-.175.164s-.175-.077-.175-.164v-2.286c0-.087.088-.164.175-.164m0 2.592c.077 0 .153-.065.153-.142v-2.286c0-.077-.065-.142-.153-.142-.076 0-.153.065-.153.142v2.286c.01.077.077.142.153.142"/><path fill="#F3F3F3" d="M14.884 27.025c.088.01.153.077.153.164l-.076 1.017a.16.16 0 0 1-.175.143c-.088-.012-.153-.077-.153-.165l.076-1.017a.16.16 0 0 1 .175-.142"/><path fill="#fff" d="M14.884 27.014a.18.18 0 0 1 .164.175l-.076 1.017c-.011.088-.088.164-.186.154a.18.18 0 0 1-.164-.175l.076-1.018c.011-.098.088-.164.186-.153m-.098 1.324c.077 0 .153-.055.153-.132l.077-1.017c0-.076-.055-.142-.143-.153-.076 0-.153.055-.153.131l-.076 1.017c0 .077.065.143.142.154"/><path fill="#F3F3F3" d="M14.064 25.603a.17.17 0 0 1 .131.186l-.448 2.242c-.022.088-.099.143-.186.12a.17.17 0 0 1-.131-.185l.448-2.243c.011-.076.099-.13.186-.12"/><path fill="#fff" d="M14.064 25.592c.099.022.153.11.142.197l-.448 2.242a.176.176 0 0 1-.208.131.18.18 0 0 1-.142-.197l.448-2.242c.022-.087.11-.142.208-.13m-.514 2.549a.16.16 0 0 0 .175-.11l.449-2.242a.155.155 0 0 0-.12-.175.16.16 0 0 0-.176.11l-.448 2.241c-.011.088.043.154.12.175"/><path fill="#F3F3F3" d="M12.752 26.588c.087.021.142.109.12.197l-.273.984c-.022.087-.11.131-.197.11a.163.163 0 0 1-.12-.198l.273-.984c.022-.087.11-.131.197-.11"/><path fill="#fff" d="M12.752 26.577c.087.022.153.12.12.207l-.274.985a.174.174 0 0 1-.207.12c-.088-.022-.153-.12-.12-.208l.273-.984c.022-.087.11-.142.208-.12m-.361 1.28c.076.021.164-.023.186-.099l.273-.984c.022-.077-.022-.154-.11-.175-.076-.022-.163.021-.185.098l-.274.984a.16.16 0 0 0 .11.175"/><path fill="#F3F3F3" d="M12.216 25.045c.087.033.12.132.087.208l-.875 2.111c-.033.077-.131.12-.208.077-.076-.044-.12-.132-.087-.208l.875-2.111c.033-.077.131-.12.208-.077"/><path fill="#fff" d="M12.216 25.034a.17.17 0 0 1 .098.22l-.875 2.11c-.033.087-.131.12-.23.087a.17.17 0 0 1-.098-.218l.875-2.111c.044-.088.142-.131.23-.088m-.996 2.396c.077.032.164 0 .197-.077l.875-2.11c.033-.077-.01-.154-.087-.187a.15.15 0 0 0-.197.077l-.875 2.11a.156.156 0 0 0 .087.187"/><path fill="#F3F3F3" d="M10.74 25.746c.076.043.108.13.076.207l-.46.908a.16.16 0 0 1-.219.066c-.076-.044-.109-.132-.076-.208l.46-.908a.16.16 0 0 1 .218-.066"/><path fill="#fff" d="M10.74 25.734c.087.044.12.143.076.23l-.46.908a.167.167 0 0 1-.23.076.167.167 0 0 1-.076-.23l.46-.907a.167.167 0 0 1 .23-.077m-.602 1.193c.076.032.164.01.197-.066l.459-.908c.033-.066 0-.153-.066-.197-.076-.032-.164-.01-.197.066l-.459.908c-.033.065 0 .153.066.197"/><path fill="#F3F3F3" d="M10.52 24.127c.077.054.099.153.044.218l-1.269 1.893c-.043.076-.142.087-.218.044-.077-.055-.099-.154-.044-.22l1.269-1.892a.148.148 0 0 1 .218-.044"/><path fill="#fff" d="M10.52 24.116a.19.19 0 0 1 .055.24L9.306 26.25a.173.173 0 0 1-.24.043.19.19 0 0 1-.055-.24l1.269-1.893a.175.175 0 0 1 .24-.043M9.077 26.27c.065.044.164.033.207-.032l1.27-1.893a.143.143 0 0 0-.045-.197c-.065-.043-.164-.032-.207.033l-1.27 1.881a.156.156 0 0 0 .045.208"/><path fill="#F3F3F3" d="M8.923 24.531c.066.055.088.153.033.219l-.634.798a.156.156 0 0 1-.219.022c-.065-.054-.087-.153-.033-.218l.635-.799a.156.156 0 0 1 .218-.022"/><path fill="#fff" d="M8.934 24.52c.077.055.088.164.033.24l-.634.8c-.055.076-.164.087-.24.021-.077-.054-.088-.164-.034-.24l.635-.799c.054-.076.164-.087.24-.022m-.82 1.04c.066.054.153.043.208-.022l.634-.799a.155.155 0 0 0-.032-.208c-.066-.054-.154-.043-.208.022l-.635.799c-.043.065-.032.164.033.207"/><path fill="#F3F3F3" d="M9.033 22.89c.065.066.065.165 0 .22l-1.619 1.607a.155.155 0 0 1-.219 0c-.054-.054-.065-.164 0-.218l1.608-1.608a.16.16 0 0 1 .23 0"/><path fill="#fff" d="M9.044 22.88a.17.17 0 0 1 0 .24l-1.619 1.608a.17.17 0 0 1-.24 0 .17.17 0 0 1 0-.24l1.618-1.608a.17.17 0 0 1 .24 0m-1.849 1.837a.15.15 0 0 0 .208 0l1.619-1.608a.15.15 0 0 0 0-.207.15.15 0 0 0-.208 0l-1.619 1.607c-.054.055-.054.143 0 .208"/><path fill="#F3F3F3" d="M7.392 22.978c.055.066.055.164-.01.219l-.777.656a.156.156 0 0 1-.22-.022c-.054-.065-.054-.164.012-.218l.776-.657a.156.156 0 0 1 .22.022"/><path fill="#fff" d="M7.403 22.967c.066.077.055.186-.01.24l-.777.657c-.066.066-.175.055-.241-.022-.066-.076-.055-.186.01-.24l.777-.657c.066-.065.175-.054.241.022m-1.006.864c.055.066.142.066.207.022l.777-.656a.15.15 0 0 0 .011-.208c-.055-.066-.142-.066-.208-.022l-.776.656c-.066.055-.066.143-.011.208"/><path fill="#F3F3F3" d="M7.83 21.403a.148.148 0 0 1-.044.219L5.883 22.89c-.077.043-.175.021-.219-.044a.148.148 0 0 1 .044-.219l1.903-1.269c.066-.043.164-.022.219.044"/><path fill="#fff" d="M7.84 21.403a.175.175 0 0 1-.043.24l-1.903 1.27a.17.17 0 0 1-.24-.055.175.175 0 0 1 .043-.24l1.903-1.27a.17.17 0 0 1 .24.055m-2.165 1.433a.14.14 0 0 0 .197.044l1.903-1.27c.066-.043.087-.13.033-.207a.14.14 0 0 0-.197-.044l-1.903 1.27a.155.155 0 0 0-.033.207"/><path fill="#F3F3F3" d="M6.2 21.174a.16.16 0 0 1-.055.218l-.886.503c-.076.044-.175.011-.218-.065a.16.16 0 0 1 .054-.22l.886-.502c.077-.044.175-.011.22.066"/><path fill="#fff" d="M6.211 21.163c.044.087.022.185-.055.23l-.886.502c-.076.044-.186.011-.23-.065-.043-.088-.021-.186.055-.23l.886-.503c.077-.044.186-.011.23.066m-1.16.656c.044.076.132.098.197.054l.886-.503a.16.16 0 0 0 .055-.197c-.044-.076-.131-.098-.197-.054l-.886.503c-.065.033-.087.12-.054.197"/><path fill="#F3F3F3" d="M6.933 19.719c.032.087 0 .175-.088.208l-2.11.875c-.077.032-.176-.011-.208-.088-.033-.087 0-.175.087-.208l2.111-.875a.156.156 0 0 1 .208.088"/><path fill="#fff" d="M6.944 19.708a.18.18 0 0 1-.088.23l-2.11.875a.17.17 0 0 1-.22-.099.18.18 0 0 1 .088-.23l2.111-.875a.17.17 0 0 1 .219.099m-2.396.995c.033.077.12.11.186.088l2.111-.875a.15.15 0 0 0 .077-.197.156.156 0 0 0-.186-.088l-2.111.875a.15.15 0 0 0-.077.197"/><path fill="#F3F3F3" d="M5.39 19.172c.033.087-.01.175-.098.208l-.962.317c-.077.033-.175-.022-.197-.098-.033-.088.01-.175.098-.208l.963-.317c.076-.033.164.01.197.098"/><path fill="#fff" d="M5.401 19.161a.167.167 0 0 1-.109.219l-.962.317c-.088.033-.186-.022-.22-.11a.167.167 0 0 1 .11-.218l.963-.317a.186.186 0 0 1 .218.11zm-1.268.416c.022.076.11.12.186.098l.962-.317c.077-.022.11-.11.088-.186s-.11-.12-.186-.098l-.963.317a.15.15 0 0 0-.087.186"/><path fill="#F3F3F3" d="M6.375 17.87c.022.088-.033.175-.12.186l-2.242.438c-.088.022-.164-.044-.186-.131s.032-.175.12-.186l2.242-.438c.088-.01.175.044.186.131"/><path fill="#fff" d="M6.397 17.87a.176.176 0 0 1-.131.208l-2.243.438c-.087.022-.175-.044-.196-.142a.176.176 0 0 1 .13-.208l2.243-.438c.087-.022.175.044.197.142m-2.549.493c.011.076.088.13.164.12l2.243-.438c.076-.01.13-.098.11-.175a.147.147 0 0 0-.165-.12l-2.242.438c-.077.021-.131.098-.11.175"/><path fill="#F3F3F3" d="M4.975 17.028c.011.088-.044.164-.131.175l-1.006.12a.16.16 0 0 1-.175-.142.15.15 0 0 1 .13-.175l1.007-.12c.077-.011.164.055.175.142"/><path fill="#fff" d="M4.986 17.028c.011.099-.055.186-.142.197l-1.006.12a.17.17 0 0 1-.186-.153c-.011-.098.054-.186.142-.197l1.006-.12a.17.17 0 0 1 .186.153m-1.323.153c.01.077.087.142.164.131l1.006-.12a.147.147 0 0 0 .12-.164c-.01-.076-.087-.142-.164-.131l-1.006.12a.147.147 0 0 0-.12.164"/><path fill="#F3F3F3" d="M6.2 15.967c0 .088-.066.164-.153.164H3.76c-.087 0-.153-.076-.153-.164 0-.087.066-.164.153-.164h2.286c.087 0 .153.077.153.164"/><path fill="#fff" d="M6.211 15.967c0 .099-.077.175-.164.175H3.76c-.087 0-.164-.076-.164-.175s.077-.175.164-.175h2.286c.088 0 .164.077.164.175m-2.592-.01c0 .076.065.152.142.152h2.286c.076 0 .142-.065.142-.153 0-.076-.066-.153-.142-.153H3.76c-.076.011-.142.077-.142.153"/><path fill="#E2E2E2" d="M4.986 14.863c-.01.087-.076.153-.164.153l-1.017-.077a.16.16 0 0 1-.142-.175c.01-.087.076-.153.164-.153l1.017.076c.076.011.142.088.142.176"/><path fill="#fff" d="M4.997 14.863a.18.18 0 0 1-.175.164l-1.017-.077c-.088-.01-.164-.087-.153-.186a.18.18 0 0 1 .175-.164l1.017.077c.087.01.153.098.153.186m-1.335-.099a.14.14 0 0 0 .132.153l1.017.077c.076 0 .142-.055.153-.142a.14.14 0 0 0-.131-.154l-1.018-.076c-.076 0-.142.066-.153.142"/><path fill="#F3F3F3" d="M6.397 14.064a.17.17 0 0 1-.186.131l-2.242-.459c-.088-.022-.143-.099-.12-.186a.17.17 0 0 1 .185-.131l2.243.448c.076.022.13.11.12.197"/><path fill="#fff" d="M6.408 14.064a.18.18 0 0 1-.197.142l-2.242-.448a.176.176 0 0 1-.131-.208.18.18 0 0 1 .196-.142l2.243.448c.087.022.142.11.13.208m-2.549-.514a.16.16 0 0 0 .11.175l2.242.448a.155.155 0 0 0 .175-.12.16.16 0 0 0-.11-.175l-2.241-.448c-.088-.011-.154.043-.175.12"/><path fill="#F3F3F3" d="M5.413 12.752a.16.16 0 0 1-.197.12l-.985-.274c-.087-.022-.13-.109-.109-.196a.16.16 0 0 1 .197-.12l.984.273c.088.021.132.109.11.197"/><path fill="#fff" d="M5.423 12.752c-.021.087-.12.153-.207.12l-.985-.274a.175.175 0 0 1-.12-.207c.022-.088.12-.153.208-.12l.984.273c.088.022.142.11.12.208m-1.28-.362c-.021.077.023.165.1.186l.984.274c.076.022.153-.022.175-.11.021-.076-.022-.164-.099-.185l-.984-.274a.16.16 0 0 0-.175.11"/><path fill="#F3F3F3" d="M6.955 12.227c-.033.087-.132.12-.208.087l-2.111-.875c-.077-.033-.12-.131-.088-.208.033-.087.132-.12.208-.087l2.111.875c.088.033.12.131.088.208"/><path fill="#fff" d="M6.966 12.238a.17.17 0 0 1-.22.098l-2.11-.875c-.088-.033-.12-.131-.088-.23a.17.17 0 0 1 .22-.098l2.11.875c.088.044.12.142.088.23m-2.396-.996a.15.15 0 0 0 .077.197l2.11.875c.077.033.154-.01.187-.087a.15.15 0 0 0-.077-.197l-2.11-.875c-.077-.022-.165.01-.187.087"/><path fill="#F3F3F3" d="M6.244 10.75c-.044.077-.131.11-.208.077l-.908-.46c-.076-.033-.11-.131-.065-.219.043-.076.13-.109.207-.076l.908.46c.077.043.11.142.066.218"/><path fill="#fff" d="M6.255 10.761a.167.167 0 0 1-.23.077l-.908-.46a.167.167 0 0 1-.076-.23.167.167 0 0 1 .23-.076l.907.46c.088.032.12.142.077.229m-1.181-.602c-.033.077-.011.164.065.197l.908.46c.066.032.153 0 .197-.066.033-.076.01-.164-.066-.197l-.919-.459a.135.135 0 0 0-.186.066"/><path fill="#F3F3F3" d="M7.851 10.542c-.054.077-.142.099-.218.044L5.74 9.328c-.076-.044-.087-.142-.043-.219a.148.148 0 0 1 .219-.043l1.903 1.268c.065.044.087.143.032.208"/><path fill="#fff" d="M7.862 10.553a.19.19 0 0 1-.24.055L5.73 9.339a.173.173 0 0 1-.044-.24.19.19 0 0 1 .24-.055l1.893 1.268a.166.166 0 0 1 .043.241M5.708 9.11c-.044.066-.033.164.032.208l1.904 1.27a.14.14 0 0 0 .197-.045c.043-.065.032-.164-.033-.207l-1.903-1.27a.14.14 0 0 0-.197.044"/><path fill="#F3F3F3" d="M7.447 8.956c-.055.066-.153.088-.219.033l-.798-.623a.156.156 0 0 1-.022-.22c.054-.065.153-.087.219-.032l.798.623a.156.156 0 0 1 .022.22"/><path fill="#fff" d="M7.458 8.967c-.055.077-.164.088-.24.033l-.8-.623c-.076-.055-.087-.164-.032-.24.055-.077.164-.088.24-.034l.799.624c.077.054.088.164.033.24m-1.05-.82c-.055.065-.044.153.022.208l.798.623a.155.155 0 0 0 .208-.033c.055-.065.044-.153-.022-.207l-.798-.624a.155.155 0 0 0-.208.033"/><path fill="#F3F3F3" d="M9.076 9.066c-.065.065-.164.065-.218 0l-1.63-1.608a.155.155 0 0 1 0-.219c.066-.065.164-.065.219 0l1.619 1.608a.156.156 0 0 1 .01.219"/><path fill="#fff" d="M9.077 9.077a.17.17 0 0 1-.24 0l-1.62-1.608a.17.17 0 0 1 0-.241.17.17 0 0 1 .24 0l1.62 1.608a.155.155 0 0 1 0 .24M7.239 7.25a.15.15 0 0 0 0 .208l1.62 1.607a.15.15 0 0 0 .207 0 .15.15 0 0 0 0-.207L7.447 7.239c-.055-.055-.142-.055-.208.011"/><path fill="#F3F3F3" d="M8.978 7.436c-.065.055-.164.055-.219-.011l-.667-.766a.156.156 0 0 1 .022-.218c.066-.055.164-.055.219.01L9 7.218c.055.055.044.153-.022.219"/><path fill="#fff" d="M8.99 7.436a.17.17 0 0 1-.242-.011l-.667-.766c-.065-.065-.054-.175.022-.24a.17.17 0 0 1 .24.01l.668.766c.055.077.055.186-.022.241m-.876-.995c-.066.054-.066.142-.022.207l.667.766a.15.15 0 0 0 .208.011c.066-.055.066-.142.022-.208l-.667-.765c-.055-.066-.142-.066-.208-.011"/><path fill="#F3F3F3" d="M10.553 7.852a.148.148 0 0 1-.219-.044l-1.28-1.892c-.043-.077-.021-.175.044-.22a.148.148 0 0 1 .22.045l1.268 1.892a.155.155 0 0 1-.033.219"/><path fill="#fff" d="M10.553 7.863a.175.175 0 0 1-.24-.044l-1.27-1.892a.17.17 0 0 1 .056-.24.175.175 0 0 1 .24.043l1.269 1.892a.167.167 0 0 1-.055.24M9.11 5.708a.14.14 0 0 0-.043.197l1.268 1.892c.044.066.132.077.208.033a.14.14 0 0 0 .044-.197L9.317 5.752a.156.156 0 0 0-.207-.044"/><path fill="#F3F3F3" d="M10.783 6.233a.16.16 0 0 1-.219-.055l-.503-.886c-.044-.076-.011-.175.066-.219a.16.16 0 0 1 .218.055l.503.886c.033.077.011.175-.065.219"/><path fill="#fff" d="M10.783 6.244c-.088.044-.186.022-.23-.055l-.503-.886c-.044-.076-.022-.186.066-.23.087-.043.186-.021.23.055l.502.886c.044.077.022.175-.065.23m-.656-1.16c-.066.044-.099.132-.055.197l.503.886a.16.16 0 0 0 .197.055c.066-.044.098-.131.055-.197l-.504-.886c-.032-.065-.13-.098-.196-.055"/><path fill="#F3F3F3" d="M12.237 6.955c-.087.032-.175 0-.207-.077l-.886-2.11c-.033-.077.01-.176.087-.209.088-.032.175 0 .208.077l.886 2.11c.033.077-.011.176-.088.209"/><path fill="#fff" d="M12.238 6.966a.18.18 0 0 1-.23-.088l-.886-2.11a.17.17 0 0 1 .098-.22.18.18 0 0 1 .23.088l.886 2.111c.033.077-.01.175-.098.219m-.996-2.396c-.076.033-.109.12-.076.186l.886 2.111c.032.077.12.11.197.077.076-.033.109-.12.076-.186l-.886-2.111c-.044-.077-.12-.11-.197-.077"/><path fill="#F3F3F3" d="M12.773 5.402c-.087.032-.175-.011-.207-.099l-.318-.962c-.032-.077.022-.175.099-.197.076-.022.175.01.208.098l.317.963c.033.076-.011.164-.099.197"/><path fill="#fff" d="M12.784 5.413a.17.17 0 0 1-.218-.099l-.318-.962c-.032-.088.022-.186.11-.22a.17.17 0 0 1 .219.1l.317.962a.186.186 0 0 1-.11.219m-.426-1.258c-.077.022-.12.11-.099.186l.318.962c.021.077.109.11.186.088.076-.022.12-.11.098-.186l-.317-.963a.14.14 0 0 0-.186-.087"/><path fill="#F3F3F3" d="M14.064 6.397c-.088.022-.175-.033-.186-.12l-.46-2.243c-.021-.087.045-.164.132-.186s.175.033.186.12l.46 2.243a.175.175 0 0 1-.132.186"/><path fill="#fff" d="M14.064 6.408a.176.176 0 0 1-.208-.131l-.46-2.243c-.021-.087.045-.186.132-.196a.176.176 0 0 1 .208.13l.46 2.243c.021.087-.034.175-.132.197m-.514-2.549c-.077.011-.131.088-.12.175l.459 2.243c.011.076.098.13.175.109.077-.011.131-.088.12-.175l-.46-2.242a.16.16 0 0 0-.174-.11"/><path fill="#F3F3F3" d="M14.895 4.975a.17.17 0 0 1-.186-.131l-.13-1.006a.16.16 0 0 1 .141-.175.17.17 0 0 1 .186.13l.131 1.007a.16.16 0 0 1-.142.175"/><path fill="#fff" d="M14.895 4.986c-.098.01-.186-.055-.197-.142l-.13-1.006a.17.17 0 0 1 .152-.186c.099-.011.186.054.197.142L15.05 4.8a.17.17 0 0 1-.154.186m-.164-1.313c-.076.011-.142.088-.131.165l.131 1.006a.147.147 0 0 0 .164.12c.077-.01.143-.087.132-.164l-.132-1.006a.147.147 0 0 0-.164-.12"/><path fill="url(#c)" fill-opacity=".2" d="M16.077 28.94c7.152 0 12.95-5.799 12.95-12.95 0-7.153-5.798-12.95-12.95-12.95S3.127 8.836 3.127 15.99c0 7.151 5.798 12.95 12.95 12.95"/><path fill="#000" fill-opacity=".05" d="M25.045 7.775 14.6 14.469h-.011v.01l-.01.012-6.52 10.751 9.582-7.71.01-.012v-.01z"/><path fill="#CD151E" d="M24.848 7.152 14.523 14.49l3.063 3.04z"/><path fill="#FA5153" d="m14.534 14.469 1.543 1.52 8.771-8.837z"/><path fill="#ACACAC" d="m14.534 14.469 3.063 3.04-10.325 7.34z"/><path fill="#EEE" d="m7.272 24.848 8.805-8.859-1.543-1.52z"/><defs><linearGradient id="a" x1="16" x2="16" y1="30" y2="2" gradientUnits="userSpaceOnUse"><stop offset=".25" stop-color="#DBDBDA"/><stop offset="1" stop-color="#fff"/></linearGradient><linearGradient id="c" x1="15.831" x2="9.786" y1="12.286" y2="23.13" gradientUnits="userSpaceOnUse"><stop stop-opacity="0"/><stop offset="1"/></linearGradient><radialGradient id="b" cx="0" cy="0" r="1" gradientTransform="translate(17.82 13.155)scale(15.8073)" gradientUnits="userSpaceOnUse"><stop stop-color="#2ABCE1"/><stop offset=".114" stop-color="#2ABBE1"/><stop offset="1" stop-color="#3375F8"/></radialGradient></defs></svg>