<svg xmlns="http://www.w3.org/2000/svg" width="91.429" height="64" fill="none" viewBox="0 0 50 35"><g clip-path="url(#a)"><mask id="b" width="50" height="35" x="0" y="0" maskUnits="userSpaceOnUse" style="mask-type:alpha"><path fill="#fff" d="M.008.092h49.817V34.89H.008V.092Z"/></mask><g fill-rule="evenodd" clip-rule="evenodd" mask="url(#b)"><path fill="#00A1E0" d="M20.693 3.901c1.608-1.674 3.846-2.71 6.319-2.71 3.296 0 6.154 1.831 7.692 4.56a10.623 10.623 0 0 1 4.34-.925c5.935 0 10.752 4.853 10.752 10.843 0 5.988-4.817 10.842-10.751 10.842-.726 0-1.433-.073-2.125-.21C35.574 28.7 33 30.33 30.07 30.33a7.822 7.822 0 0 1-3.443-.791c-1.364 3.205-4.542 5.457-8.242 5.457a8.952 8.952 0 0 1-8.406-5.86 8.264 8.264 0 0 1-1.71.178c-4.598 0-8.316-3.773-8.316-8.407a8.448 8.448 0 0 1 4.158-7.29 9.634 9.634 0 0 1-.797-3.846c0-5.348 4.34-9.67 9.689-9.67a9.646 9.646 0 0 1 7.692 3.81"/><path fill="#FFFFFE" d="M7.214 18.187c-.03.081.012.098.022.113.093.068.188.117.284.172.509.27.989.348 1.49.348 1.022 0 1.658-.544 1.658-1.42v-.017c0-.81-.718-1.104-1.388-1.315l-.088-.028c-.507-.164-.945-.308-.945-.641v-.017c0-.286.256-.496.652-.496.44 0 .963.146 1.298.331 0 0 .1.064.136-.032l.209-.56c.019-.054-.015-.094-.05-.115a2.895 2.895 0 0 0-1.465-.394h-.102c-.936 0-1.59.566-1.59 1.376v.017c0 .854.722 1.132 1.396 1.325l.108.033c.49.151.916.282.916.627v.017c0 .317-.277.553-.72.553-.172 0-.722-.003-1.317-.38-.072-.041-.113-.071-.168-.105-.03-.018-.103-.05-.135.046l-.201.56v.002Zm14.963-.002c-.031.082.011.1.022.114.093.067.188.116.284.172.509.269.989.348 1.49.348 1.022 0 1.658-.544 1.658-1.42v-.017c0-.81-.716-1.105-1.388-1.315l-.088-.029c-.507-.164-.945-.307-.945-.64v-.018c0-.285.256-.496.652-.496.44 0 .961.146 1.298.332 0 0 .1.064.136-.032.02-.052.19-.51.207-.56.02-.054-.015-.095-.05-.116a2.895 2.895 0 0 0-1.465-.393h-.102c-.936 0-1.59.566-1.59 1.376v.017c0 .853.722 1.132 1.396 1.324l.108.034c.493.15.916.282.916.626v.017c0 .317-.277.553-.72.553a2.41 2.41 0 0 1-1.317-.379c-.072-.042-.114-.07-.168-.106-.019-.011-.105-.045-.135.046l-.201.56.002.002Zm10.218-1.715c0 .494-.093.884-.273 1.16-.18.274-.453.407-.832.407-.379 0-.65-.132-.828-.404-.178-.275-.269-.667-.269-1.162 0-.494.091-.882.27-1.155.177-.271.446-.401.827-.401.381 0 .652.131.832.4.181.274.273.662.273 1.156v-.001Zm.853-.916a2.062 2.062 0 0 0-.388-.742 1.86 1.86 0 0 0-.656-.498 2.148 2.148 0 0 0-.916-.183 2.16 2.16 0 0 0-.915.183c-.26.121-.482.29-.656.498a2.072 2.072 0 0 0-.388.742c-.084.282-.126.59-.126.917 0 .328.042.636.126.918.083.284.214.533.388.742.174.209.396.375.656.494.262.119.57.18.915.18.347 0 .654-.061.914-.18.26-.118.482-.285.656-.494.174-.209.304-.458.388-.742a3.24 3.24 0 0 0 .126-.918 3.25 3.25 0 0 0-.126-.917h.002Zm7.013 2.344c-.028-.083-.109-.052-.109-.052a1.955 1.955 0 0 1-.397.114c-.143.022-.3.033-.468.033-.412 0-.741-.122-.976-.366-.236-.243-.368-.635-.366-1.167.001-.483.118-.846.328-1.124.207-.275.525-.418.947-.418.351 0 .62.041.903.13 0 0 .067.029.099-.06.075-.207.13-.355.21-.582.023-.065-.033-.092-.053-.1a3.328 3.328 0 0 0-.57-.144 4.298 4.298 0 0 0-.64-.043c-.36 0-.678.061-.951.183a1.969 1.969 0 0 0-1.103 1.24c-.092.282-.139.591-.139.92 0 .706.19 1.28.568 1.699.377.421.945.633 1.685.633.438 0 .886-.088 1.209-.216 0 0 .061-.03.034-.101l-.21-.579h-.001Zm1.493-1.905c.041-.274.117-.503.235-.68.177-.272.447-.42.826-.42.379 0 .63.149.81.42.118.178.17.415.19.68h-2.07.01Zm2.876-.604a1.81 1.81 0 0 0-.37-.676c-.187-.2-.368-.34-.55-.417a2.106 2.106 0 0 0-.827-.168c-.361 0-.69.06-.955.185a1.902 1.902 0 0 0-.664.507 2.086 2.086 0 0 0-.392.75 3.244 3.244 0 0 0-.127.922c0 .334.044.643.13.923.089.282.23.53.42.735.19.207.434.368.727.481.291.113.645.171 1.05.17.835-.003 1.274-.188 1.454-.29.032-.017.062-.048.024-.137l-.188-.53c-.029-.079-.109-.05-.109-.05-.207.077-.5.216-1.187.214-.448 0-.78-.133-.989-.34-.212-.213-.318-.522-.335-.962l2.894.002s.076 0 .084-.075c.003-.03.099-.593-.086-1.243l-.004-.001Zm-26.008.604c.041-.274.117-.503.235-.68.177-.272.447-.42.826-.42.38 0 .63.149.81.42.118.178.17.415.19.68h-2.07.01Zm2.876-.604a1.809 1.809 0 0 0-.37-.676c-.187-.2-.368-.34-.55-.417a2.106 2.106 0 0 0-.827-.168c-.361 0-.689.06-.954.185a1.901 1.901 0 0 0-.665.507 2.092 2.092 0 0 0-.392.75 3.255 3.255 0 0 0-.127.922c0 .334.044.643.131.923.088.282.23.53.418.735.19.207.434.368.727.481.291.113.643.171 1.05.17.835-.003 1.274-.188 1.454-.29.032-.017.062-.048.024-.137l-.188-.53c-.03-.079-.11-.05-.11-.05-.206.077-.5.216-1.186.214-.447 0-.78-.133-.99-.34-.212-.213-.318-.522-.334-.962l2.893.002s.077 0 .084-.075c.004-.03.1-.593-.086-1.243l-.002-.001Zm-9.12 2.49a.565.565 0 0 1-.168-.17.69.69 0 0 1-.086-.376c0-.253.084-.436.258-.559-.002 0 .25-.216.839-.208.262.004.524.027.784.066v1.314s-.366.078-.78.103c-.588.036-.848-.169-.846-.168l-.002-.001Zm1.15-2.032a6.431 6.431 0 0 0-.451-.013c-.248 0-.488.03-.71.091-.226.061-.43.155-.604.28a1.399 1.399 0 0 0-.419.477 1.39 1.39 0 0 0-.154.666c0 .257.044.478.132.66.086.18.216.335.377.452.16.117.36.203.588.255.227.052.484.078.766.078.296 0 .591-.025.877-.073.243-.042.486-.09.727-.142.097-.022.203-.051.203-.051.072-.018.066-.095.066-.095l-.001-2.637c0-.579-.155-1.01-.46-1.275-.304-.265-.75-.399-1.326-.399-.216 0-.566.03-.775.071 0 0-.63.123-.89.326 0 0-.057.035-.026.115l.205.55c.026.07.095.046.095.046s.022-.008.048-.023c.555-.303 1.258-.293 1.258-.293.311 0 .553.063.714.187.158.12.238.303.238.688v.122c-.247-.036-.476-.056-.476-.056l-.003-.007Zm23.26-1.49a.079.079 0 0 0-.018-.086.079.079 0 0 0-.026-.017 2.547 2.547 0 0 0-.484-.082c-.362-.023-.564.038-.745.12-.18.08-.377.21-.487.36v-.351c0-.049-.035-.088-.084-.088h-.74c-.047 0-.082.04-.082.088v4.304a.088.088 0 0 0 .087.087h.759a.087.087 0 0 0 .087-.087v-2.162c0-.289.032-.577.096-.758.062-.18.147-.322.252-.425.1-.099.223-.172.358-.214.126-.036.256-.055.388-.055.151 0 .317.04.317.04.055.005.086-.029.105-.079.05-.132.19-.527.218-.606"/><path fill="#FFFFFE" d="M29.706 12.371a2.227 2.227 0 0 0-.678-.098c-.522 0-.934.148-1.223.44-.288.289-.483.73-.581 1.31l-.035.196h-.656s-.08-.004-.097.084l-.108.6c-.007.058.017.094.094.093h.639l-.648 3.616c-.05.292-.109.531-.173.713-.063.179-.125.313-.202.41a.535.535 0 0 1-.264.205c-.1.033-.214.048-.34.048-.07 0-.163-.011-.232-.025-.068-.014-.104-.029-.155-.05 0 0-.075-.03-.105.046-.024.061-.194.53-.214.587-.02.057.008.102.044.115.085.03.149.05.264.077.161.038.297.04.423.04.266 0 .509-.037.71-.11.202-.072.378-.2.534-.372.168-.186.274-.38.375-.646.1-.263.186-.59.254-.97l.65-3.684h.952s.08.003.097-.084l.108-.6c.008-.058-.017-.094-.094-.093h-.924c.005-.021.047-.346.153-.652a.838.838 0 0 1 .202-.308.598.598 0 0 1 .242-.15 1 1 0 0 1 .31-.046c.087 0 .173.01.238.024.09.02.124.03.147.036.095.03.107.001.126-.044l.22-.607c.023-.065-.032-.092-.053-.1ZM16.8 18.62c0 .048-.034.088-.083.088h-.766c-.048 0-.083-.04-.083-.088v-6.166c0-.049.035-.088.083-.088h.766c.049 0 .083.04.083.088v6.166"/></g></g><defs><clipPath id="a"><path fill="#fff" d="M0 0h50v34.982H0z"/></clipPath></defs></svg>