<svg xmlns="http://www.w3.org/2000/svg" width="278.261" height="64" fill="none" viewBox="0 0 100 23"><g fill="#00A1E0" fill-rule="evenodd" clip-path="url(#a)" clip-rule="evenodd"><path d="M.194 15.674c-.083.217.03.262.056.3.248.18.5.31.753.456 1.35.713 2.621.922 3.951.922 2.709 0 4.393-1.441 4.393-3.762v-.046c0-2.145-1.902-2.927-3.68-3.485l-.232-.075c-1.344-.436-2.505-.816-2.505-1.7V8.24c0-.758.68-1.316 1.729-1.316 1.165 0 2.553.388 3.441.879 0 0 .264.17.36-.084.051-.138.504-1.35.553-1.486.051-.142-.04-.25-.132-.305-1.02-.62-2.427-1.043-3.884-1.043h-.27c-2.48 0-4.213 1.5-4.213 3.646v.047c0 2.262 1.912 3 3.699 3.51l.287.089c1.3.4 2.427.747 2.427 1.66v.045c0 .84-.733 1.466-1.908 1.466a6.4 6.4 0 0 1-3.49-1.005c-.19-.11-.3-.19-.447-.28-.077-.048-.271-.133-.356.122L.192 15.67zm39.658-.004c-.083.217.03.262.058.3.247.18.5.31.752.456 1.35.714 2.621.922 3.952.922 2.708 0 4.393-1.441 4.393-3.762v-.045c0-2.146-1.898-2.928-3.68-3.486l-.232-.075c-1.345-.436-2.505-.816-2.505-1.7v-.044c0-.758.68-1.316 1.728-1.316 1.165 0 2.548.388 3.442.879 0 0 .263.17.359-.084.051-.137.505-1.35.548-1.486.052-.142-.038-.25-.13-.304-1.02-.622-2.428-1.044-3.884-1.044h-.271c-2.48 0-4.214 1.5-4.214 3.647v.046c0 2.262 1.913 3 3.7 3.51l.286.089c1.306.4 2.427.747 2.427 1.66v.046c0 .84-.733 1.466-1.907 1.466a6.4 6.4 0 0 1-3.49-1.005c-.191-.111-.303-.188-.448-.281-.049-.031-.277-.12-.355.122l-.535 1.485zm27.082-4.547c0 1.31-.245 2.344-.723 3.077-.478.724-1.2 1.078-2.204 1.078s-1.724-.351-2.195-1.073c-.474-.728-.713-1.767-.713-3.078s.24-2.34.714-3.063c.47-.718 1.184-1.063 2.194-1.063s1.728.348 2.204 1.063c.481.724.723 1.753.723 3.063zm2.262-2.428a5.5 5.5 0 0 0-1.03-1.966 4.9 4.9 0 0 0-1.737-1.32c-.69-.323-1.505-.485-2.427-.485q-1.384.001-2.427.485a5 5 0 0 0-1.738 1.32 5.5 5.5 0 0 0-1.03 1.966 8.6 8.6 0 0 0-.332 2.432c0 .87.112 1.685.333 2.433a5.45 5.45 0 0 0 1.029 1.966 4.9 4.9 0 0 0 1.738 1.31c.694.315 1.51.475 2.427.475s1.733-.16 2.422-.475a4.9 4.9 0 0 0 1.738-1.31 5.5 5.5 0 0 0 1.03-1.966c.22-.748.332-1.564.332-2.433 0-.864-.112-1.684-.333-2.432zm18.587 6.214c-.074-.22-.288-.137-.288-.137-.33.126-.68.242-1.054.3a8 8 0 0 1-1.238.09c-1.092 0-1.966-.326-2.587-.971-.626-.646-.976-1.685-.97-3.093.002-1.281.312-2.242.868-2.98.549-.728 1.393-1.107 2.51-1.107.932 0 1.645.108 2.393.342 0 0 .177.077.262-.156.199-.549.345-.942.558-1.544.06-.172-.087-.245-.141-.266a9 9 0 0 0-1.51-.381 11.4 11.4 0 0 0-1.699-.114c-.951 0-1.796.163-2.52.485a5.2 5.2 0 0 0-1.82 1.32 5.6 5.6 0 0 0-1.101 1.966 7.8 7.8 0 0 0-.37 2.437c0 1.874.506 3.393 1.506 4.505 1 1.117 2.504 1.68 4.466 1.68 1.16 0 2.349-.235 3.203-.573 0 0 .163-.079.093-.269l-.559-1.534zm3.959-5.048c.108-.729.307-1.335.621-1.806.47-.719 1.184-1.112 2.19-1.112 1.004 0 1.67.395 2.145 1.112.316.473.453 1.102.505 1.806l-5.486-.001zm7.621-1.602c-.193-.724-.67-1.457-.98-1.792-.496-.529-.976-.903-1.457-1.106a5.6 5.6 0 0 0-2.194-.446c-.956 0-1.825.162-2.53.49a5.04 5.04 0 0 0-1.761 1.345 5.5 5.5 0 0 0-1.04 1.99 8.6 8.6 0 0 0-.335 2.442c0 .884.117 1.704.347 2.447a5 5 0 0 0 1.112 1.947c.504.548 1.15.975 1.927 1.276.772.299 1.709.454 2.781.45 2.214-.007 3.38-.5 3.855-.767.085-.047.165-.13.065-.366l-.5-1.403c-.077-.209-.288-.133-.288-.133-.55.205-1.326.573-3.146.568-1.19-.002-2.068-.353-2.621-.903-.564-.563-.845-1.384-.889-2.549l7.67.006s.202-.002.223-.199c.008-.081.263-1.573-.229-3.296zM30.431 9.86c.108-.729.308-1.335.621-1.806.47-.719 1.185-1.112 2.19-1.112s1.67.395 2.145 1.112c.315.473.453 1.102.505 1.806l-5.485-.001zm7.621-1.602c-.192-.724-.67-1.457-.98-1.792-.495-.529-.976-.903-1.457-1.106a5.6 5.6 0 0 0-2.194-.446c-.956 0-1.825.162-2.529.49A5.04 5.04 0 0 0 29.13 6.75a5.55 5.55 0 0 0-1.039 1.99 8.6 8.6 0 0 0-.335 2.442c0 .884.116 1.704.348 2.447a5.1 5.1 0 0 0 1.107 1.947c.505.548 1.15.975 1.927 1.276.772.299 1.704.454 2.781.45 2.214-.007 3.379-.5 3.855-.767.084-.047.165-.13.064-.366l-.5-1.403c-.077-.209-.289-.133-.289-.133-.548.205-1.325.573-3.145.568-1.185-.002-2.068-.353-2.622-.903-.563-.563-.844-1.384-.888-2.549l7.67.006s.202-.002.223-.199c.008-.081.262-1.573-.23-3.296l-.005-.001ZM13.878 14.86c-.3-.24-.343-.298-.442-.454q-.229-.353-.23-.995c0-.67.224-1.155.685-1.48-.005 0 .66-.573 2.223-.554q1.045.019 2.078.177v3.48s-.97.21-2.067.276c-1.559.094-2.248-.449-2.243-.447zm3.048-5.388c-.31-.023-.713-.034-1.194-.034a7.2 7.2 0 0 0-1.883.242 4.9 4.9 0 0 0-1.598.743c-.462.33-.842.761-1.111 1.262-.272.505-.41 1.097-.41 1.767 0 .68.118 1.267.351 1.747.228.477.572.89 1 1.2.426.31.951.538 1.558.674a9.2 9.2 0 0 0 2.03.207c.786 0 1.567-.066 2.325-.194a46 46 0 0 0 1.927-.374c.255-.06.539-.136.539-.136.189-.049.174-.25.174-.25l-.004-6.991c0-1.534-.41-2.675-1.218-3.379-.806-.704-1.986-1.058-3.515-1.058-.573 0-1.5.078-2.053.189 0 0-1.67.324-2.36.864 0 0-.151.093-.069.304l.544 1.457c.068.188.252.124.252.124s.057-.023.125-.063c1.471-.801 3.335-.777 3.335-.777.826 0 1.466.167 1.893.495.418.321.632.806.632 1.825v.324c-.656-.095-1.263-.15-1.263-.15zm61.65-3.946a.2.2 0 0 0 .002-.163.2.2 0 0 0-.116-.113c-.131-.05-.782-.187-1.282-.218-.961-.06-1.495.102-1.976.317-.474.214-1 .559-1.291.957v-.932c0-.129-.092-.232-.22-.232H71.73c-.127 0-.22.103-.22.232V16.78a.23.23 0 0 0 .233.233h2.01a.233.233 0 0 0 .232-.233v-5.728c0-.767.084-1.529.253-2.01.166-.475.391-.854.67-1.126.265-.262.59-.457.946-.568a3.7 3.7 0 0 1 1.03-.144c.4 0 .84.103.84.103.147.016.229-.074.279-.207.131-.35.505-1.398.578-1.607"/><path d="M59.806.26A6 6 0 0 0 58.008 0c-1.385 0-2.477.392-3.243 1.164-.761.767-1.28 1.936-1.54 3.473l-.093.52h-1.738s-.212-.01-.257.222l-.285 1.592c-.02.153.045.248.25.247h1.691l-1.717 9.584c-.134.772-.288 1.407-.458 1.888-.168.474-.332.83-.534 1.088-.196.25-.381.434-.701.542a2.8 2.8 0 0 1-.901.13c-.186 0-.432-.032-.614-.068s-.277-.077-.413-.134c0 0-.199-.076-.277.123-.064.163-.515 1.403-.568 1.556-.054.152.022.271.118.306.225.08.393.132.7.204.426.1.785.107 1.121.107.705 0 1.347-.099 1.88-.291.536-.194 1.002-.531 1.415-.988.446-.493.727-1.009.995-1.713.266-.697.492-1.563.673-2.572l1.725-9.762h2.522s.213.008.257-.223l.286-1.592c.02-.153-.045-.248-.25-.247h-2.449c.013-.055.124-.916.405-1.727.12-.346.345-.625.537-.817a1.6 1.6 0 0 1 .641-.399c.266-.082.544-.122.822-.118.23 0 .457.027.629.063.237.05.33.077.392.096.25.076.283.002.332-.119l.585-1.607c.06-.173-.086-.246-.14-.267ZM25.595 16.823c0 .128-.091.233-.22.233h-2.03c-.129 0-.22-.105-.22-.233V.48c0-.128.091-.232.22-.232h2.03c.129 0 .22.104.22.232z"/></g><defs><clipPath id="a"><path fill="#fff" d="M0 0h100v22.816H0z"/></clipPath></defs></svg>