<svg xmlns="http://www.w3.org/2000/svg" width="51.2" height="64" fill="none" viewBox="0 0 40 50"><path fill="#DD4E3B" d="M4.34 6.407c0 6.736 4.234 10.744 12.711 12.858l8.983 2.046c8.023 1.81 12.909 6.307 12.909 13.633a13.759 13.759 0 0 1-2.992 8.825c0-7.309-3.848-11.258-13.131-13.633L14 28.166c-7.063-1.584-12.515-5.28-12.515-13.238A13.691 13.691 0 0 1 4.34 6.407Z"/><path fill="#E78376" d="M30.435 33.15c3.831 2.409 5.511 5.777 5.511 10.61-3.171 3.992-8.743 6.232-15.291 6.232-11.023 0-18.738-5.33-20.452-14.593H10.79c1.363 4.252 4.971 6.223 9.789 6.223 5.88 0 9.788-3.082 9.865-8.488M9.841 16.393a11.163 11.163 0 0 1-4.154-4.247 10.915 10.915 0 0 1-1.349-5.74C7.398 2.45 12.721.033 19.21.033c11.228 0 17.725 5.827 19.328 14.029H28.356c-1.123-3.233-3.935-5.751-9.06-5.751-5.478 0-9.215 3.132-9.43 8.083" opacity=".7"/></svg>