<svg xmlns="http://www.w3.org/2000/svg" width="320" height="64" fill="none" viewBox="0 0 100 20"><g clip-path="url(#a)"><path fill="#E78376" d="M74.654 7.01v12.45h-4.091V9.136zM19.89 19.773l9.563-5-1.179-3.053-6.295 2.936-2.088 5.117Z" opacity=".7"/><path fill="#EEA69D" d="m70.563 9.125 10.374-5.309L79.184.852l-8.621 4.213z" opacity=".5"/><path fill="#E78376" d="M41.34 6.025V19.46h-3.903V.326z" opacity=".7"/><path fill="#EEA69D" d="m25.805 5.282-5.912 14.491-3.041-2.617L23.897.326z" opacity=".5"/><path fill="#DD4E3B" d="M23.89.326h4.032l7.455 19.134h-4.126zm18.053 0 8.595 13.073v6.061L37.438.326zm20.017 0h-4.062v19.138h4.062zm8.604 3.49h-6.251V.326h14.56l2.066 3.49z"/><path fill="#EEA69D" d="M92.93 12.2v7.26h-4.032V12.2" opacity=".5"/><path fill="#DD4E3B" d="M88.898 12.2 95.72.325h4.282L92.93 12.199z"/><path fill="#E78376" d="M88.894 12.2 81.883.325h4.41l4.75 8.137z" opacity=".7"/><path fill="#DD4E3B" d="M1.715 2.534c0 2.665 1.675 4.25 5.028 5.086l3.553.81c3.174.715 5.106 2.494 5.106 5.392a5.44 5.44 0 0 1-1.183 3.49c0-2.89-1.522-4.453-5.194-5.392l-3.489-.78C2.743 10.514.586 9.052.586 5.905a5.4 5.4 0 0 1 1.13-3.37Z"/><path fill="#E78376" d="M50.54 12.416V.326h3.901V19.46H50.54zm-38.504.696c1.515.953 2.18 2.285 2.18 4.197-1.255 1.579-3.458 2.464-6.049 2.464-4.36 0-7.41-2.108-8.089-5.771h4.187c.54 1.681 1.967 2.46 3.872 2.46 2.326 0 3.872-1.218 3.902-3.357M3.892 6.484a4.4 4.4 0 0 1-1.643-1.68 4.3 4.3 0 0 1-.534-2.27C2.925.97 5.03.013 7.597.013c4.441 0 7.011 2.305 7.645 5.549h-4.027c-.444-1.28-1.557-2.275-3.584-2.275-2.166 0-3.645 1.239-3.73 3.197" opacity=".7"/></g><defs><clipPath id="a"><path fill="#fff" d="M0 0h100v19.777H0z"/></clipPath></defs></svg>