<svg xmlns="http://www.w3.org/2000/svg" width="256" height="64" fill="none" viewBox="0 0 100 25"><g clip-path="url(#a)"><path fill="#000" d="M80.874 21.886a1.06 1.06 0 0 1-1.06-1.06V1.06a1.06 1.06 0 0 1 2.119 0v19.768a1.06 1.06 0 0 1-1.06 1.059Zm18.11-2.774a1.056 1.056 0 0 0-.12-1.493 1.059 1.059 0 0 0-1.493.122c-1.095 1.288-2.733 2.027-4.495 2.027a5.3 5.3 0 0 1-5.295-5.295 5.3 5.3 0 0 1 5.295-5.295 4.879 4.879 0 0 1 4.784 3.954h-6.479a1.06 1.06 0 0 0 0 2.118h7.625a1.06 1.06 0 0 0 1.059-1.06v-.14a6.997 6.997 0 0 0-6.99-6.99c-4.087 0-7.413 3.326-7.413 7.413 0 4.088 3.326 7.413 7.414 7.413 2.385 0 4.611-1.011 6.109-2.774Zm-22.699 1.715v-6.778a6.997 6.997 0 0 0-6.99-6.99c-4.087 0-7.412 3.326-7.412 7.414 0 4.087 3.325 7.413 7.413 7.413a1.06 1.06 0 0 0 0-2.118A5.3 5.3 0 0 1 64 14.473a5.3 5.3 0 0 1 5.295-5.295 4.877 4.877 0 0 1 4.871 4.872v6.777a1.06 1.06 0 1 0 2.118 0ZM44.23 17.65c0-1.034-.38-2.443-2.188-3.29-1.086-.509-2.447-.718-3.764-.92-3.085-.473-4.181-.868-4.181-2.144 0-1.39 1.928-2.118 3.833-2.118 1.2 0 2.925.242 4.327 1.395a1.059 1.059 0 1 0 1.346-1.636C41.716 7.385 39.476 7.06 37.93 7.06c-4.088 0-5.95 2.196-5.95 4.236 0 1.04.38 2.46 2.196 3.313 1.091.513 2.459.722 3.781.925 3.066.47 4.155.86 4.155 2.116 0 1.267-1.512 2.118-3.763 2.118-2.304 0-4.06-.934-4.9-1.491a1.06 1.06 0 0 0-1.17 1.766 11.12 11.12 0 0 0 6.07 1.844c4.062 0 5.88-2.128 5.88-4.236Zm15.354 1.11a1.06 1.06 0 0 0-1.764-1.172 4.865 4.865 0 0 1-4.06 2.18 5.3 5.3 0 0 1-5.294-5.295 5.3 5.3 0 0 1 5.295-5.295c1.635 0 3.152.815 4.06 2.18a1.057 1.057 0 0 0 1.76.004 1.055 1.055 0 0 0 .003-1.177 6.979 6.979 0 0 0-5.823-3.125c-4.088 0-7.413 3.325-7.413 7.413 0 4.087 3.325 7.413 7.413 7.413a6.979 6.979 0 0 0 5.823-3.126Z"/><path fill="url(#b)" d="M5.691 24.022 0 18.331h5.593L0 12.738h11.285v11.284L5.69 18.43v5.593Z"/><path fill="url(#c)" d="M22.765 24.022 0 1.257h22.765v22.765Z"/></g><defs><linearGradient id="b" x1="22.765" x2="2.846" y1="11.462" y2="11.462" gradientUnits="userSpaceOnUse"><stop stop-color="#C4DBED"/><stop offset=".552" stop-color="#8596D6"/><stop offset="1" stop-color="#C1A6CC"/></linearGradient><linearGradient id="c" x1="22.765" x2="2.846" y1="11.462" y2="11.462" gradientUnits="userSpaceOnUse"><stop stop-color="#C4DBED"/><stop offset=".552" stop-color="#8596D6"/><stop offset="1" stop-color="#C1A6CC"/></linearGradient><clipPath id="a"><path fill="#fff" d="M0 0h100v24.022H0z"/></clipPath></defs></svg>