<svg xmlns="http://www.w3.org/2000/svg" width="290.909" height="64" fill="none" viewBox="0 0 100 22"><g fill-rule="evenodd" clip-path="url(#a)" clip-rule="evenodd"><path fill="#43af79" d="m37.204 10.44-1.818-.394c-.91-.197-1.41-.758-1.41-1.58 0-1.045.927-1.834 2.158-1.834 1.703 0 2.205 1.253 2.32 1.637a.476.476 0 0 0 .616.321l.958-.338a.48.48 0 0 0 .3-.584c-.247-.87-1.155-2.892-4.236-2.892-2.28 0-4.205 1.745-4.205 3.81 0 1.775 1.164 3.086 3.116 3.511l1.734.378c1.043.22 1.666.855 1.666 1.7 0 1.077-.886 1.747-2.314 1.747-1.677 0-2.486-1.1-2.683-2.13a.478.478 0 0 0-.614-.367l-1.053.336a.47.47 0 0 0-.325.536c.328 1.708 1.732 3.53 4.695 3.53 2.504 0 4.392-1.63 4.392-3.791 0-1.825-1.204-3.136-3.306-3.6l.01.005Zm10.756 1.662a.1.1 0 0 1-.022.075.1.1 0 0 1-.077.037h-3.86a.1.1 0 0 1-.08-.04.1.1 0 0 1-.02-.075c.176-.804.867-1.616 2.011-1.616 1.124 0 1.889.603 2.046 1.615zM45.897 8.68c-2.033 0-4.136 1.7-4.136 4.547 0 1.373.45 2.545 1.303 3.387.79.78 1.87 1.21 3.039 1.21 1.741 0 3.152-.91 3.775-2.433a.5.5 0 0 0-.007-.386.48.48 0 0 0-.28-.254l-.85-.295a.477.477 0 0 0-.593.262c-.366.864-1.055 1.3-2.047 1.3-1.2 0-2.114-.808-2.272-2.012a.1.1 0 0 1 .024-.075.1.1 0 0 1 .074-.036h5.635a.48.48 0 0 0 .478-.449 4 4 0 0 0 .008-.257c0-2.783-1.592-4.512-4.153-4.512zm9.595 6.756c-1.353 0-2.195-.939-2.195-2.45 0-1.489.861-2.451 2.195-2.451 1.291 0 2.159.983 2.159 2.45 0 1.465-.868 2.45-2.16 2.45Zm3.605-6.5h-1.02a.483.483 0 0 0-.478.492.1.1 0 0 1-.062.091.08.08 0 0 1-.093-.014c-.525-.48-1.264-.723-2.194-.723-2.307 0-3.98 1.77-3.98 4.205 0 2.426 1.673 4.186 3.98 4.186.852 0 1.625-.28 2.175-.788a.09.09 0 0 1 .094-.017c.014.006.061.03.061.092v.35c0 1.695-.741 2.485-2.33 2.485-1.009 0-1.8-.625-2.014-1.591a.47.47 0 0 0-.211-.298.5.5 0 0 0-.364-.061l-1.001.23a.48.48 0 0 0-.36.572c.358 1.756 1.946 2.936 3.947 2.936 1.492 0 2.628-.454 3.378-1.35.62-.74.947-1.768.947-2.973V9.422a.48.48 0 0 0-.477-.478zm12.12-.24c-1.128 0-2.046.425-2.654 1.233a.1.1 0 0 1-.093.046.08.08 0 0 1-.067-.038c-.51-.789-1.391-1.241-2.417-1.241-.816 0-1.6.286-2.152.787a.09.09 0 0 1-.106.02.09.09 0 0 1-.055-.087.48.48 0 0 0-.479-.478h-.968a.48.48 0 0 0-.478.478v7.675a.48.48 0 0 0 .479.478h1.02a.48.48 0 0 0 .477-.48v-4.678c0-1.137.694-1.901 1.73-1.901 1.356 0 1.559 1.063 1.559 1.696v4.892c0 .264.214.478.478.478h1.037a.48.48 0 0 0 .477-.479v-4.703c0-1.11.706-1.885 1.714-1.885 1.357 0 1.559 1.064 1.559 1.698v4.891c0 .264.214.478.477.478h1.02a.48.48 0 0 0 .478-.479v-5.064c0-2.3-1.525-3.328-3.036-3.328zm6.891 3.524a.1.1 0 0 1-.08-.038.1.1 0 0 1-.017-.035.1.1 0 0 1 0-.039c.176-.806.866-1.617 2.011-1.617 1.124 0 1.89.603 2.046 1.614a.09.09 0 0 1-.057.1.1.1 0 0 1-.042.009h-3.86v.006Zm1.897-3.533c-2.033 0-4.136 1.701-4.136 4.547 0 1.374.45 2.546 1.302 3.388.789.78 1.867 1.208 3.039 1.208 1.739 0 3.15-.91 3.775-2.436a.5.5 0 0 0-.008-.386.48.48 0 0 0-.281-.255l-.85-.294a.477.477 0 0 0-.594.261c-.367.862-1.055 1.3-2.047 1.3-1.2 0-2.114-.81-2.272-2.014a.1.1 0 0 1 .022-.076.1.1 0 0 1 .075-.035h5.636a.48.48 0 0 0 .478-.45 5 5 0 0 0 .008-.258c0-2.783-1.592-4.513-4.153-4.513zm10.214.017c-.862 0-1.618.294-2.186.85a.09.09 0 0 1-.101.02.1.1 0 0 1-.059-.09v-.061a.48.48 0 0 0-.479-.478h-1a.48.48 0 0 0-.479.478v7.673c0 .264.214.479.478.479h1.036a.48.48 0 0 0 .48-.48v-4.479c0-1.002.454-2.073 1.73-2.073 1.147 0 1.73.634 1.73 1.885v4.666c0 .264.213.478.477.478h1.036a.48.48 0 0 0 .479-.48v-4.94c0-2.127-1.205-3.45-3.142-3.45zm7.97 2.079h1.208a.48.48 0 0 0 .478-.48v-.88a.48.48 0 0 0-.478-.479h-1.209a.1.1 0 0 1-.09-.06.1.1 0 0 1-.007-.037V6.816a.48.48 0 0 0-.479-.479h-.9a.48.48 0 0 0-.478.479v1.05c0 .491-.188 1.078-1.08 1.078h-.153a.48.48 0 0 0-.478.478v.88c0 .264.215.478.478.478h1.002c.055 0 .098.042.098.098v4.241c0 1.567.954 2.54 2.489 2.54.427 0 .76-.062.92-.098a.476.476 0 0 0 .37-.467v-.816a.48.48 0 0 0-.332-.455.5.5 0 0 0-.199-.021 3 3 0 0 1-.295.018c-.697 0-.959-.256-.959-.942v-4c0-.053.045-.097.098-.097"/><path fill="#93c8a2" d="M14.424 14.86H1.11a1.11 1.11 0 1 1 0-2.222h13.313a1.11 1.11 0 1 1 0 2.222Z"/><path fill="#43af79" d="M11.567 21.667a10.7 10.7 0 0 1-3.183-.48 1.11 1.11 0 0 1 .658-2.123c.814.252 1.664.38 2.525.38 3.77 0 7.044-2.42 8.146-6.022a1.11 1.11 0 0 1 1.388-.736c.587.178.917.8.737 1.386a10.68 10.68 0 0 1-10.27 7.595Z"/><path fill="#93c8a2" d="M22.025 9.215H8.713a1.11 1.11 0 1 1 0-2.222h13.312a1.11 1.11 0 1 1 0 2.222"/><path fill="#43af79" d="M2.361 9.216A1.11 1.11 0 0 1 1.3 7.779 10.68 10.68 0 0 1 11.569.187c1.086 0 2.157.16 3.184.48a1.112 1.112 0 1 1-.658 2.122 8.6 8.6 0 0 0-2.525-.378 8.47 8.47 0 0 0-8.147 6.023 1.11 1.11 0 0 1-1.061.786"/><path fill="#93c8a2" d="M19.272 3.87a1.111 1.111 0 1 1-2.222 0 1.111 1.111 0 0 1 2.222 0M6.082 17.985a1.111 1.111 0 1 1-2.223 0 1.111 1.111 0 0 1 2.223 0"/></g><defs><clipPath id="a"><path fill="#fff" d="M0 0h100v21.667H0z"/></clipPath></defs></svg>