<svg xmlns="http://www.w3.org/2000/svg" width="68.085" height="64" fill="none" viewBox="0 0 50 47"><g fill-rule="evenodd" clip-path="url(#a)" clip-rule="evenodd"><path fill="#93c8a2" d="M30.908 31.843H2.381a2.38 2.38 0 1 1 0-4.761h28.527a2.38 2.38 0 1 1 0 4.761"/><path fill="#43af79" d="M24.794 46.428c-2.323 0-4.619-.345-6.82-1.027a2.38 2.38 0 0 1-1.57-2.98 2.376 2.376 0 0 1 2.979-1.57c1.745.541 3.565.815 5.412.815 8.079 0 15.094-5.185 17.456-12.905a2.38 2.38 0 0 1 2.973-1.577 2.377 2.377 0 0 1 1.58 2.97c-2.979 9.733-11.824 16.274-22.01 16.274"/><path fill="#93c8a2" d="M47.204 19.747H18.678a2.38 2.38 0 1 1 0-4.762h28.526a2.38 2.38 0 1 1 0 4.762"/><path fill="#43af79" d="M5.061 19.748a2.382 2.382 0 0 1-2.277-3.079C5.764 6.937 14.61.399 24.794.399c2.325 0 4.62.346 6.82 1.03a2.38 2.38 0 1 1-1.409 4.548 18.4 18.4 0 0 0-5.412-.81c-8.077 0-15.093 5.185-17.456 12.905a2.38 2.38 0 0 1-2.275 1.684"/><path fill="#93c8a2" d="M41.308 8.293a2.381 2.381 0 1 1-4.762 0 2.381 2.381 0 0 1 4.762 0M13.043 38.539a2.381 2.381 0 1 1-4.763 0 2.381 2.381 0 0 1 4.763 0"/></g><defs><clipPath id="a"><path fill="#fff" d="M0 0h50v46.429H0z"/></clipPath></defs></svg>