<svg xmlns="http://www.w3.org/2000/svg" width="213.333" height="64" fill="none" viewBox="0 0 100 30"><g clip-path="url(#a)"><path fill="#242322" d="M56.366 18.213c.82.262 1.196.459 1.196 1.491 0 1.163-.41 1.376-1.884 1.376-.786 0-1.441-.016-3.587-.066l-.13 1.508c1.637.327 2.98.36 3.668.36 2.9 0 4.014-.59 4.014-3.162 0-1.654-.541-2.719-2.327-3.292l-2.178-.672c-.885-.278-1.261-.508-1.261-1.507 0-1.212.508-1.294 1.883-1.294 1.114 0 2.425.033 3.358.066l.131-1.458c-1.212-.312-2.473-.377-3.554-.377-2.703 0-3.883.442-3.883 3.03 0 1.688.607 2.736 2.278 3.277l2.276.72ZM62.377 18.115c.05-1.687.508-2.113 1.884-2.113 1.228 0 1.589.328 1.589 1.18 0 .425-.082.933-.721.933h-2.752Zm3.309 1.392c1.49 0 2.146-.852 2.146-2.293 0-1.818-1.049-2.785-3.653-2.785-2.72 0-3.882 1.049-3.882 4.226 0 3.047 1.097 4.227 4.013 4.227 1.015 0 2.457-.131 3.309-.541l-.18-1.277c-.967.114-2.114.196-2.883.196-1.376 0-1.983-.295-2.146-1.753h3.276ZM70.483 14.659h-1.67v8.027h1.998v-5.587c1.097-.622 1.834-.982 2.637-.982.639 0 .852.245.852 1.146v5.422h1.998v-6.028c0-1.442-.786-2.228-2.211-2.228-1.163 0-2.326.54-3.473 1.409l-.13-1.18M82.98 20.36c-.884.589-1.31.835-2.113.835-1.065 0-1.507-.475-1.507-2.589 0-2.162.442-2.555 1.622-2.555.72 0 1.277.148 1.998.328v3.98Zm1.998-9.141H82.98v2.31c0 .557.016 1.08.082 1.605-.786-.492-1.72-.704-2.67-.704-2.031 0-3.08.999-3.08 4.193 0 2.72.787 4.259 2.818 4.259 1.31 0 2.391-.623 3.112-1.294l.164 1.098h1.572V11.219M88.104 18.115c.049-1.687.508-2.113 1.883-2.113 1.229 0 1.59.328 1.59 1.18 0 .425-.082.933-.721.933h-2.752Zm3.309 1.392c1.49 0 2.146-.852 2.146-2.293 0-1.818-1.049-2.785-3.653-2.785-2.72 0-3.883 1.049-3.883 4.226 0 3.047 1.098 4.227 4.014 4.227 1.015 0 2.457-.131 3.308-.541l-.18-1.277c-.966.114-2.113.196-2.883.196-1.376 0-1.982-.295-2.145-1.753h3.276ZM99.977 14.43h-.393c-1.048 0-2.211.507-3.309 1.408l-.18-1.18H94.54v8.027h1.998v-5.668c1.147-.458 1.884-.72 2.654-.72h.573l.213-1.868"/><path fill="url(#b)" fill-rule="evenodd" d="m34.576 0-3.164 2.67h4.021L18.47 15.96v3.886L37.186 4.643v3.301l2.57-2.195V.001h-5.18Z" clip-rule="evenodd"/><path fill="url(#c)" fill-rule="evenodd" d="M34.516 16.717v9.87H2.571V5.337h19.507l3.255-2.565H0v26.38h37.087v-14.46l-2.57 2.025" clip-rule="evenodd"/><path fill="url(#d)" fill-rule="evenodd" d="m6.5 9.365 11.97 6.595v3.884L6.5 12.004V9.364" clip-rule="evenodd"/></g><defs><linearGradient id="b" x1="39.775" x2="19.208" y1=".019" y2="20.586" gradientUnits="userSpaceOnUse"><stop stop-color="#F57724"/><stop offset="1" stop-color="#ED1E24"/></linearGradient><linearGradient id="c" x1="28.534" x2="2.677" y1="5.971" y2="31.828" gradientUnits="userSpaceOnUse"><stop stop-color="#F57724"/><stop offset="1" stop-color="#ED1E24"/></linearGradient><linearGradient id="d" x1="14.8" x2="10.793" y1="12.291" y2="16.298" gradientUnits="userSpaceOnUse"><stop stop-color="#F57724"/><stop offset="1" stop-color="#ED1E24"/></linearGradient><clipPath id="a"><path fill="#fff" d="M0 0h100v29.229H0z"/></clipPath></defs></svg>