<svg xmlns="http://www.w3.org/2000/svg" width="59.259" height="64" fill="none" viewBox="0 0 50 54"><g clip-path="url(#a)"><path fill="#0092FF" fill-rule="evenodd" d="M44.906 38.392a10.51 10.51 0 0 1-6.18 4.847c.372-1.28.563-2.607.565-3.94 0-6.64-4.577-12.21-10.72-13.727a10.384 10.384 0 0 1 4.566-2.605 10.347 10.347 0 0 1 7.94 1.051c4.995 2.902 6.713 9.35 3.829 14.374ZM25.223 49.82a10.474 10.474 0 0 1-7.261-2.955 13.952 13.952 0 0 0 3.672-1.48c5.716-3.32 8.224-10.088 6.462-16.195A10.526 10.526 0 0 1 35.685 39.3c0 5.8-4.694 10.521-10.463 10.521ZM5.538 38.392c-1.366-2.38-1.72-5.185-1.081-7.793a14.17 14.17 0 0 0 3.108 2.45 13.928 13.928 0 0 0 7.011 1.893 14.082 14.082 0 0 0 10.168-4.352c1.097 4.437-.784 9.255-4.913 11.653a10.354 10.354 0 0 1-5.214 1.407 10.459 10.459 0 0 1-9.08-5.258h.001Zm0-22.858a10.511 10.511 0 0 1 6.18-4.847 14.147 14.147 0 0 0-.566 3.941c0 6.637 4.575 12.205 10.715 13.725-3.273 3.18-8.368 3.954-12.5 1.555a10.447 10.447 0 0 1-4.874-6.39 10.505 10.505 0 0 1 1.045-7.984ZM25.222 4.106c2.734 0 5.331 1.09 7.258 2.953a14.082 14.082 0 0 0-10.225 10.075 14.117 14.117 0 0 0 .089 7.601 10.525 10.525 0 0 1-7.585-10.107c0-5.802 4.694-10.522 10.463-10.522Zm19.684 11.428a10.602 10.602 0 0 1 1.079 7.803 14.057 14.057 0 0 0-3.105-2.46 13.913 13.913 0 0 0-10.677-1.413 13.958 13.958 0 0 0-6.507 3.882 10.522 10.522 0 0 1 .043-5.274 10.443 10.443 0 0 1 4.875-6.39 10.346 10.346 0 0 1 7.939-1.05c2.7.727 4.955 2.469 6.353 4.902Zm3.123-1.812a13.987 13.987 0 0 0-8.543-6.593 14.137 14.137 0 0 0-2.623-.444C34.26 2.835 29.888.48 25.223.48c-4.832 0-9.101 2.463-11.636 6.205A14.117 14.117 0 0 0 2.415 13.72a14.127 14.127 0 0 0-1.407 10.737c.232.863.543 1.701.93 2.506-2.014 4.194-1.857 9.178.476 13.242a14.055 14.055 0 0 0 11.159 7.028c2.604 3.855 6.984 6.214 11.649 6.214 4.831 0 9.1-2.464 11.634-6.206a14.117 14.117 0 0 0 11.173-7.036c2.416-4.209 2.428-9.158.473-13.236 2.017-4.196 1.86-9.182-.473-13.248" clip-rule="evenodd"/></g><defs><clipPath id="a"><path fill="#fff" d="M0 0h50v53.646H0z"/></clipPath></defs></svg>