<svg xmlns="http://www.w3.org/2000/svg" width="355.556" height="64" fill="none" viewBox="0 0 100 18"><g fill-rule="evenodd" clip-path="url(#a)" clip-rule="evenodd"><path fill="#212F38" d="M34.593 11.202c.416-.93 1.286-1.563 2.434-1.563s2 .534 2.356 1.563zm7.52 1.187c0-2.85-2.077-5.124-5.105-5.124a5.135 5.135 0 0 0-5.146 5.144c0 2.849 2.137 5.144 5.225 5.144 2.138 0 3.676-1.031 4.541-2.51l-2.15-1.281c-.456.875-1.332 1.417-2.371 1.417-1.425 0-2.316-.713-2.633-1.8h7.64zm55.2 0c0-1.464-1.068-2.651-2.532-2.651-1.505 0-2.653 1.128-2.653 2.651s1.148 2.67 2.653 2.67c1.464 0 2.532-1.206 2.532-2.67m-7.837.02c0-3.502 2.573-5.144 4.81-5.144 1.286 0 2.295.475 2.949 1.167v-5.52h2.711v14.443h-2.711v-1.108c-.654.772-1.703 1.306-2.99 1.306-2.097 0-4.769-1.662-4.769-5.144m-1.991-6.452a1.622 1.622 0 1 0 0-3.243 1.622 1.622 0 0 0 0 3.243m-1.356 1.506h2.711v9.892h-2.71v-7.26l-.984-.001zm-7.223 0h2.692v1.622c.495-1.029 1.385-1.622 2.73-1.622h1.09l-.984 2.631h-.739c-1.444 0-2.077.752-2.077 2.592v4.669h-2.712zm-15.253 2.67c0-4.115 3.107-7.419 7.382-7.419 2.138 0 3.936.77 5.238 1.997.53.499.978 1.074 1.332 1.703l-2.414 1.464c-.89-1.642-2.256-2.493-4.136-2.493-2.633 0-4.671 2.157-4.671 4.749 0 2.65 1.999 4.748 4.77 4.748 2.097 0 3.582-1.187 4.096-3.027h-4.532V9.224h7.5v1.107c0 3.878-2.77 7.222-7.065 7.222-4.512 0-7.5-3.423-7.5-7.42m-3.269 2.256c0-1.464-1.068-2.651-2.533-2.651-1.504 0-2.652 1.128-2.652 2.651s1.148 2.67 2.652 2.67c1.465 0 2.533-1.206 2.533-2.67m-7.837.02c0-3.502 2.573-5.144 4.81-5.144 1.286 0 2.295.475 2.948 1.167v-5.52h2.712v14.443h-2.712v-1.108c-.653.772-1.702 1.306-2.988 1.306-2.098 0-4.77-1.662-4.77-5.144m-9.8-4.946h2.693V8.57c.633-.812 1.602-1.306 2.73-1.306 2.336 0 3.741 1.503 3.741 4.056v6.034H49.16v-5.678c0-1.326-.613-2.097-1.82-2.097-1.03 0-1.88.712-1.88 2.374v5.4h-2.712V7.464ZM20.61 14.96l2.514-1.979c.712 1.227 1.84 1.94 3.127 1.94 1.405 0 2.157-.91 2.157-1.9 0-1.187-1.445-1.563-2.988-2.038-1.94-.593-4.097-1.345-4.097-4.115 0-2.315 2.019-4.155 4.81-4.155 2.354 0 3.7.89 4.868 2.098l-2.276 1.72c-.594-.89-1.445-1.364-2.573-1.364-1.287 0-1.979.692-1.979 1.602 0 1.108 1.385 1.484 2.929 1.998 1.96.633 4.176 1.504 4.176 4.274 0 2.295-1.82 4.51-5.007 4.51-2.613 0-4.354-1.107-5.66-2.591Z"/><path fill="#9DD6E3" d="M5.805 17.355h5.779v-5.777h-5.78v5.777ZM.031 11.578H5.81V5.801H.031z"/><path fill="#3F72AB" d="M.031 17.355H5.81v-5.777H.031z"/><path fill="#00A9D1" d="M11.586 11.578h5.779V5.801h-5.78zM5.805 5.802h5.779V.025h-5.78v5.777Z"/><path fill="#2191C4" d="M5.805 11.578h5.779V5.801h-5.78v5.777Z"/><path fill="#3F72AB" d="M11.586 5.802h5.779V.025h-5.78z"/></g><defs><clipPath id="a"><path fill="#fff" d="M0 0h100v17.575H0z"/></clipPath></defs></svg>