<svg xmlns="http://www.w3.org/2000/svg" width="59.259" height="64" fill="none" viewBox="0 0 50 54"><g clip-path="url(#a)"><path fill="#0092FF" fill-rule="evenodd" d="M44.906 38.392a10.5 10.5 0 0 1-6.18 4.847c.372-1.28.563-2.607.565-3.94 0-6.64-4.577-12.21-10.72-13.727a10.4 10.4 0 0 1 4.566-2.605 10.35 10.35 0 0 1 7.94 1.051c4.995 2.902 6.713 9.35 3.829 14.374M25.223 49.82a10.47 10.47 0 0 1-7.261-2.955 14 14 0 0 0 3.672-1.48c5.716-3.32 8.224-10.088 6.462-16.195a10.526 10.526 0 0 1 7.589 10.11c0 5.8-4.694 10.521-10.463 10.521ZM5.538 38.392a10.6 10.6 0 0 1-1.081-7.793 14.2 14.2 0 0 0 3.108 2.45 13.93 13.93 0 0 0 7.011 1.893 14.08 14.08 0 0 0 10.168-4.352c1.097 4.437-.784 9.255-4.913 11.653a10.35 10.35 0 0 1-5.214 1.407 10.46 10.46 0 0 1-9.08-5.258zm0-22.858a10.5 10.5 0 0 1 6.18-4.847 14.2 14.2 0 0 0-.566 3.941c0 6.637 4.575 12.205 10.715 13.725-3.273 3.18-8.368 3.954-12.5 1.555a10.45 10.45 0 0 1-4.874-6.39 10.5 10.5 0 0 1 1.045-7.984M25.222 4.106c2.734 0 5.331 1.09 7.258 2.953a14.08 14.08 0 0 0-10.225 10.075 14.1 14.1 0 0 0 .089 7.601 10.525 10.525 0 0 1-7.585-10.107c0-5.802 4.694-10.522 10.463-10.522m19.684 11.428a10.6 10.6 0 0 1 1.079 7.803 14 14 0 0 0-3.105-2.46 13.91 13.91 0 0 0-10.677-1.413 13.96 13.96 0 0 0-6.507 3.882 10.5 10.5 0 0 1 .043-5.274 10.44 10.44 0 0 1 4.875-6.39 10.35 10.35 0 0 1 7.939-1.05c2.7.727 4.955 2.469 6.353 4.902m3.123-1.812a13.99 13.99 0 0 0-8.543-6.593 14 14 0 0 0-2.623-.444C34.26 2.835 29.888.48 25.223.48c-4.832 0-9.101 2.463-11.636 6.205A14.12 14.12 0 0 0 2.415 13.72a14.13 14.13 0 0 0-1.407 10.737q.349 1.297.93 2.506c-2.014 4.194-1.857 9.178.476 13.242a14.06 14.06 0 0 0 11.159 7.028c2.604 3.855 6.984 6.214 11.649 6.214 4.831 0 9.1-2.464 11.634-6.206a14.12 14.12 0 0 0 11.173-7.036c2.416-4.209 2.428-9.158.473-13.236 2.017-4.196 1.86-9.182-.473-13.248" clip-rule="evenodd"/></g><defs><clipPath id="a"><path fill="#fff" d="M0 0h50v53.646H0z"/></clipPath></defs></svg>