<svg xmlns="http://www.w3.org/2000/svg" width="454.737" height="64" fill="none" viewBox="0 0 135 19"><g clip-path="url(#a)"><path fill="#091E3F" d="M28.462 6.066c-1.372 0-2.25.44-2.25 1.224 0 .785.922 1.13 2.294 1.269 1.95.16 4.479.484 4.479 3.057 0 1.833-1.78 3.138-4.501 3.138-1.717 0-3.367-.366-4.82-1.833l1.157-1.466a5.2 5.2 0 0 0 3.644 1.466c1.18 0 2.336-.344 2.336-1.268s-.9-1.228-2.465-1.368c-1.973-.16-4.309-.733-4.309-2.933s2.425-3.017 4.394-3.017a6.6 6.6 0 0 1 4.078 1.305l-1.157 1.31a4.74 4.74 0 0 0-2.88-.884m11.83 6.76c1.113 0 2.403-.367 3.067-1.067l1.438 1.305c-1.093 1.148-2.917 1.69-4.545 1.69-3.474 0-5.702-2.03-5.702-5.21 0-3.016 2.313-5.209 5.658-5.209 3.11 0 5.253 1.709 5.253 5.133 0 .278-.022.583-.044.883h-8.565c.186 1.547 1.483 2.475 3.44 2.475m-.084-6.64c-1.606 0-3 .825-3.337 2.435h6.41c-.126-1.591-1.238-2.434-3.073-2.434ZM55.687 8.94c0-1.709-1.03-2.695-2.851-2.695a3 3 0 0 0-1.162.225 2.92 2.92 0 0 0-1.612 1.642 2.9 2.9 0 0 0-.192 1.15v5.254h-2.225V4.577h2.017l.13 1.386a4.63 4.63 0 0 1 3.555-1.628c2.551 0 4.546 1.489 4.546 4.587v5.594h-2.225zm15.69 5.576h-2.08l-.13-1.573a4.28 4.28 0 0 1-3.662 1.811c-3.067 0-5.402-1.91-5.402-5.21 0-3.38 2.29-5.209 5.357-5.209 1.287 0 3.022.583 3.708 1.771V.453h2.224zM62.31 9.545c0 2.012 1.457 3.28 3.337 3.28 1.826 0 3.307-1.463 3.307-3.27 0-1.805-1.481-3.27-3.308-3.27-1.88 0-3.336 1.247-3.336 3.26M75.493.189a1.29 1.29 0 0 1 .97.334 1.26 1.26 0 0 1 .402.934 1.37 1.37 0 0 1-1.372 1.26 1.37 1.37 0 0 1-1.372-1.26A1.26 1.26 0 0 1 75.493.19Zm1.094 14.327h-2.225V4.577h2.225zM87.602 8.94c0-1.709-1.027-2.695-2.851-2.695-.4-.003-.795.073-1.163.224a2.92 2.92 0 0 0-1.612 1.643 2.9 2.9 0 0 0-.191 1.15v5.254H79.56V4.577h2.013l.13 1.386a4.64 4.64 0 0 1 3.56-1.628c2.55 0 4.545 1.489 4.545 4.587v5.594h-2.225zm7.267-2.735c.686-1.188 2.425-1.87 3.708-1.87 3.043 0 5.361 1.833 5.361 5.21 0 3.3-2.488 5.21-5.38 5.21-1.331 0-2.851-.543-3.69-1.812l-.125 1.573h-2.08V.453h2.225zm.13 3.34c-.008.437.075.871.244 1.276a3.26 3.26 0 0 0 1.84 1.787c.414.159.856.233 1.3.218 1.932 0 3.338-1.268 3.338-3.281s-1.413-3.26-3.337-3.26a3.3 3.3 0 0 0-1.295.218 3.26 3.26 0 0 0-1.839 1.773c-.17.402-.255.834-.251 1.269m13.588 4.971h-2.225V.453h2.225zm5.124-4.528c0 1.69 1.009 2.856 2.873 2.856.396.004.789-.071 1.154-.222a2.89 2.89 0 0 0 1.597-1.633 2.85 2.85 0 0 0 .186-1.144V4.577h2.206v9.939h-1.991l-.13-1.37a4.58 4.58 0 0 1-3.645 1.608c-2.595 0-4.449-1.748-4.449-4.747v-5.43h2.206zm16.121 2.838c1.112 0 2.399-.367 3.066-1.067l1.435 1.305c-1.094 1.148-2.914 1.69-4.546 1.69-3.47 0-5.702-2.03-5.702-5.21 0-3.016 2.317-5.209 5.661-5.209 3.107 0 5.25 1.709 5.25 5.133 0 .278-.022.583-.04.883h-8.576c.196 1.547 1.501 2.475 3.452 2.475m-.085-6.64c-1.61 0-3.004.825-3.337 2.435h6.406c-.133-1.591-1.249-2.434-3.07-2.434h.001Z"/><path fill="#0092FF" fill-rule="evenodd" d="M16.134 13.597a3.8 3.8 0 0 1-2.246 1.717c.135-.453.204-.923.205-1.395 0-2.352-1.663-4.325-3.897-4.862a3.86 3.86 0 0 1 4.546-.55c1.817 1.027 2.441 3.31 1.392 5.09M8.98 17.645a3.86 3.86 0 0 1-2.64-1.047 5.2 5.2 0 0 0 1.335-.524 4.97 4.97 0 0 0 2.35-5.736c1.59.447 2.759 1.881 2.759 3.58 0 2.055-1.707 3.727-3.804 3.727m-7.156-4.048a3.67 3.67 0 0 1-.393-2.76 5.17 5.17 0 0 0 3.679 1.538 5.2 5.2 0 0 0 2.01-.402 5.1 5.1 0 0 0 1.686-1.139 3.7 3.7 0 0 1-1.786 4.127 3.88 3.88 0 0 1-3.803 0 3.76 3.76 0 0 1-1.393-1.364m0-8.095A3.8 3.8 0 0 1 4.07 3.785a4.9 4.9 0 0 0-.206 1.396c0 2.35 1.663 4.323 3.895 4.86a3.87 3.87 0 0 1-4.544.552 3.71 3.71 0 0 1-1.871-3.714c.065-.485.228-.953.479-1.377ZM8.98 1.454c.994 0 1.938.386 2.638 1.046-.467.113-.917.29-1.334.525A5 5 0 0 0 7.9 6.068a4.9 4.9 0 0 0 .032 2.693C6.343 8.314 5.175 6.88 5.175 5.18c0-2.055 1.706-3.727 3.804-3.727Zm7.155 4.048a3.67 3.67 0 0 1 .393 2.763 5 5 0 0 0-1.129-.87 5.18 5.18 0 0 0-3.881-.501A5.1 5.1 0 0 0 9.15 8.269 3.63 3.63 0 0 1 9.167 6.4a3.71 3.71 0 0 1 1.772-2.263 3.85 3.85 0 0 1 2.886-.373 3.77 3.77 0 0 1 2.31 1.737Zm1.136-.642a5.07 5.07 0 0 0-3.106-2.335 5.3 5.3 0 0 0-.953-.157A5.16 5.16 0 0 0 8.979.17a5.14 5.14 0 0 0-4.23 2.197C3.07 2.488 1.536 3.42.688 4.86a4.9 4.9 0 0 0-.512 3.803q.127.459.338.887a4.94 4.94 0 0 0 .173 4.69c.879 1.49 2.425 2.37 4.057 2.49a5.17 5.17 0 0 0 4.235 2.2 5.14 5.14 0 0 0 4.23-2.198c1.68-.121 3.212-1.052 4.06-2.492a4.92 4.92 0 0 0 .173-4.688 4.94 4.94 0 0 0-.172-4.692" clip-rule="evenodd"/></g><defs><clipPath id="a"><path fill="#fff" d="M0 0h135v19H0z"/></clipPath></defs></svg>