<svg xmlns="http://www.w3.org/2000/svg" width="278.261" height="64" fill="none" viewBox="0 0 100 23"><g clip-path="url(#a)"><path fill="#362D59" d="M14.658 1.363a2.325 2.325 0 0 0-3.981 0L7.4 6.972a16.03 16.03 0 0 1 8.835 13.27h-2.3A13.78 13.78 0 0 0 6.243 8.933L3.21 14.174a7.92 7.92 0 0 1 4.595 6.058H2.524a.38.38 0 0 1-.309-.553l1.463-2.488a5.4 5.4 0 0 0-1.672-.946L.558 18.733a2.26 2.26 0 0 0 .84 3.106c.344.194.731.297 1.126.299h7.232a9.66 9.66 0 0 0-3.982-8.616l1.15-1.99a11.88 11.88 0 0 1 5.126 10.606h6.127A17.86 17.86 0 0 0 10.01 6.31l2.325-3.982a.383.383 0 0 1 .523-.134c.263.144 10.099 17.306 10.283 17.505a.378.378 0 0 1-.339.563h-2.369q.045.95 0 1.896h2.38a2.285 2.285 0 0 0 1.99-3.43L14.658 1.364Zm47.444 12.95-7.346-9.486h-1.832v12.717h1.857V7.798l7.556 9.746h1.622V4.827h-1.857zm-18.5-2.359h6.585v-1.652h-6.59V6.474h7.43V4.822h-9.322v12.722h9.417V15.89h-7.525zm-7.745-1.612c-2.563-.618-3.28-1.105-3.28-2.29 0-1.065.94-1.787 2.344-1.787a6 6 0 0 1 3.52 1.27l.995-1.41a7.02 7.02 0 0 0-4.48-1.492c-2.518 0-4.276 1.493-4.276 3.618 0 2.29 1.494 3.081 4.211 3.743 2.42.558 3.161 1.075 3.161 2.235s-.996 1.876-2.533 1.876a6.14 6.14 0 0 1-4.132-1.622l-1.12 1.339a7.93 7.93 0 0 0 5.187 1.916c2.727 0 4.48-1.468 4.48-3.738-.015-1.921-1.15-2.951-4.077-3.658m61.774-5.515L93.803 10.8l-3.802-5.973h-2.22l5.022 7.69v5.032h1.911v-5.092l5.057-7.63zM65.462 6.549h4.166v11h1.912v-11h4.166V4.827H65.467zm19.083 6.032c1.922-.532 2.987-1.876 2.987-3.797 0-2.444-1.787-3.982-4.669-3.982h-5.654v12.737H79.1v-4.57h3.21l3.226 4.58h2.21l-3.484-4.888zm-5.45-1.244V6.51h3.569c1.861 0 2.927.881 2.927 2.41 0 1.527-1.14 2.418-2.907 2.418h-3.589Z"/></g><defs><clipPath id="a"><path fill="#fff" d="M0 0h100v22.376H0z"/></clipPath></defs></svg>