<svg xmlns="http://www.w3.org/2000/svg" width="71.111" height="64" fill="none" viewBox="0 0 50 45"><g clip-path="url(#a)"><path fill="#362d59" d="M29.159 2.71a4.625 4.625 0 0 0-7.92 0l-6.515 11.157a31.89 31.89 0 0 1 17.573 26.394h-4.574a27.4 27.4 0 0 0-15.305-22.493l-6.03 10.425a15.76 15.76 0 0 1 9.138 12.048H5.022a.754.754 0 0 1-.614-1.099l2.911-4.95a10.6 10.6 0 0 0-3.326-1.88l-2.881 4.95a4.495 4.495 0 0 0 1.673 6.177c.683.385 1.453.59 2.237.594h14.385a19.2 19.2 0 0 0-7.92-17.137l2.287-3.96A23.63 23.63 0 0 1 23.97 44.033h12.187A35.52 35.52 0 0 0 19.912 12.55l4.623-7.92a.76.76 0 0 1 1.04-.268c.524.288 20.087 34.423 20.453 34.819a.752.752 0 0 1-.673 1.118h-4.712a40 40 0 0 1 0 3.772h4.732a4.54 4.54 0 0 0 4.574-4.564c0-.793-.212-1.573-.614-2.257z"/></g><defs><clipPath id="a"><path fill="#fff" d="M0 0h50v44.505H0z"/></clipPath></defs></svg>