<svg xmlns="http://www.w3.org/2000/svg" width="220.69" height="64" fill="none" viewBox="0 0 100 29"><g clip-path="url(#a)"><path fill="#95BF47" d="M21.57 5.374a.27.27 0 0 0-.244-.228c-.102-.008-2.089-.039-2.089-.039s-1.661-1.613-1.825-1.777-.485-.115-.61-.078l-.834.259a6 6 0 0 0-.4-.982C14.977 1.4 14.11.803 13.064.802h-.004c-.073 0-.145.007-.218.013l-.094-.11c-.456-.487-1.04-.725-1.741-.704-1.352.039-2.699 1.015-3.79 2.75-.768 1.22-1.353 2.753-1.519 3.94l-2.661.824c-.784.246-.809.27-.91 1.01C2.05 9.081 0 24.934 0 24.934l17.181 2.972 7.447-1.851zm-6.462-1.597-1.334.413c-.01-.685-.091-1.637-.41-2.46 1.026.194 1.53 1.355 1.744 2.047m-2.232.692-2.869.888c.277-1.062.803-2.119 1.449-2.812.24-.257.576-.545.974-.709.373.78.455 1.885.446 2.633M11.034.9a1.4 1.4 0 0 1 .813.213 3.9 3.9 0 0 0-1.05.817c-.859.922-1.517 2.352-1.78 3.731l-2.356.73C7.127 4.22 8.947.962 11.034.9"/><path fill="#5E8E3E" d="M21.324 5.147c-.101-.009-2.088-.039-2.088-.039s-1.661-1.613-1.826-1.777a.4.4 0 0 0-.23-.107v24.682l7.446-1.85S21.588 5.516 21.57 5.375a.27.27 0 0 0-.245-.228Z"/><path fill="#fff" d="m13.055 8.975-.865 3.236s-.964-.44-2.108-.367c-1.677.106-1.695 1.164-1.678 1.43.092 1.446 3.899 1.762 4.112 5.152.168 2.666-1.414 4.49-3.694 4.634-2.737.173-4.244-1.441-4.244-1.441l.58-2.467s1.517 1.144 2.73 1.068c.794-.05 1.077-.696 1.048-1.152-.119-1.887-3.219-1.776-3.415-4.877-.165-2.61 1.55-5.255 5.331-5.494 1.458-.093 2.203.278 2.203.278"/><path fill="#000" d="M34.434 15.75c-.856-.464-1.296-.856-1.296-1.394 0-.685.611-1.125 1.566-1.125 1.111 0 2.103.465 2.103.465l.783-2.398s-.72-.563-2.838-.563c-2.947 0-4.99 1.688-4.99 4.061 0 1.345.954 2.373 2.227 3.106 1.027.587 1.394 1.003 1.394 1.614 0 .636-.514 1.15-1.467 1.15-1.422 0-2.764-.734-2.764-.734l-.832 2.397s1.24.832 3.327.832c3.033 0 5.21-1.492 5.21-4.183 0-1.442-1.1-2.47-2.422-3.227Zm12.082-5.039c-1.492 0-2.666.71-3.57 1.786l-.05-.025 1.296-6.775h-3.375L37.539 22.94h3.376l1.125-5.894c.44-2.227 1.59-3.596 2.666-3.596.758 0 1.052.514 1.052 1.248 0 .465-.049 1.028-.147 1.492l-1.271 6.751h3.376l1.32-6.971c.147-.734.245-1.614.245-2.202-.001-1.908-1.004-3.058-2.765-3.058Zm10.399 0c-4.061 0-6.75 3.67-6.75 7.754 0 2.617 1.613 4.72 4.647 4.72 3.986 0 6.677-3.57 6.677-7.753 0-2.421-1.419-4.72-4.574-4.72Zm-1.663 9.883c-1.15 0-1.64-.979-1.64-2.202 0-1.932 1.004-5.087 2.838-5.087 1.199 0 1.59 1.027 1.59 2.03 0 2.079-1.002 5.259-2.788 5.259m14.869-9.883c-2.278 0-3.572 2.006-3.572 2.006h-.048l.196-1.81h-2.984a72 72 0 0 1-.685 4.476L60.68 27.735h3.375l.93-4.99h.073s.693.44 1.982.44c3.962 0 6.555-4.06 6.555-8.17 0-2.273-1.004-4.304-3.474-4.304m-3.229 9.931c-.876 0-1.395-.489-1.395-.489l.563-3.155c.392-2.104 1.492-3.498 2.667-3.498 1.027 0 1.345.954 1.345 1.859 0 2.177-1.297 5.283-3.18 5.283M78.416 5.868c-1.075 0-1.932.856-1.932 1.957 0 1.003.636 1.688 1.59 1.688h.049c1.052 0 1.957-.71 1.981-1.957 0-.978-.66-1.688-1.688-1.688m-4.721 17.073h3.375l2.3-11.96h-3.4zm14.263-11.985h-2.349l.122-.563c.196-1.149.881-2.177 2.006-2.177.6 0 1.076.172 1.076.172l.66-2.642s-.587-.293-1.835-.293c-1.198 0-2.396.342-3.301 1.125-1.15.978-1.688 2.396-1.957 3.815l-.097.563h-1.566l-.49 2.545h1.566l-1.785 9.441h3.376l1.785-9.441h2.324zm8.117.025s-2.11 5.316-3.058 8.218h-.05c-.063-.934-.83-8.218-.83-8.218h-3.548l2.032 10.982c.049.244.024.392-.074.563-.392.758-1.052 1.492-1.835 2.03-.636.465-1.345.758-1.907.954l.929 2.862c.685-.147 2.103-.71 3.302-1.834 1.541-1.443 2.96-3.67 4.427-6.703l4.134-8.855z"/></g><defs><clipPath id="a"><path fill="#fff" d="M0 0h100v28.372H0z"/></clipPath></defs></svg>