<svg xmlns="http://www.w3.org/2000/svg" width="55.172" height="64" fill="none" viewBox="0 0 50 58"><path fill="#95BF46" d="M43.702 11.198a.548.548 0 0 0-.496-.46c-.206-.017-4.566-.34-4.566-.34s-3.029-3.007-3.36-3.34c-.334-.332-.983-.231-1.235-.157-.037.01-.662.204-1.695.523-1.012-2.91-2.797-5.586-5.938-5.586-.086 0-.176.004-.265.009-.893-1.182-2-1.695-2.956-1.695-7.316 0-10.812 9.147-11.908 13.795-2.843.88-4.863 1.507-5.12 1.588-1.587.498-1.638.548-1.846 2.043C4.16 18.71.007 50.822.007 50.822l32.357 6.062 17.531-3.792s-6.154-41.609-6.193-41.894Zm-13.14-3.22-2.738.847.002-.59c0-1.81-.251-3.267-.654-4.421 1.618.203 2.696 2.044 3.39 4.163Zm-5.398-3.806c.45 1.128.743 2.746.743 4.93l-.002.316-5.655 1.751c1.09-4.202 3.13-6.231 4.914-6.997ZM22.99 2.115c.316 0 .634.107.939.316-2.345 1.104-4.858 3.883-5.92 9.432l-4.47 1.385c1.244-4.233 4.196-11.133 9.451-11.133Z"/><path fill="#5E8E3E" d="M43.209 10.738c-.207-.017-4.567-.34-4.567-.34s-3.029-3.007-3.36-3.34a.83.83 0 0 0-.468-.215l-2.447 50.04 17.53-3.791s-6.154-41.609-6.193-41.894a.548.548 0 0 0-.495-.46"/><path fill="#fff" d="m26.416 20.425-2.161 6.43s-1.894-1.01-4.216-1.01c-3.404 0-3.575 2.135-3.575 2.673 0 2.937 7.656 4.062 7.656 10.941 0 5.412-3.433 8.897-8.062 8.897-5.554 0-8.394-3.456-8.394-3.456l1.487-4.914s2.92 2.507 5.383 2.507c1.61 0 2.265-1.268 2.265-2.194 0-3.83-6.28-4.001-6.28-10.296 0-5.298 3.802-10.425 11.478-10.425 2.958 0 4.42.847 4.42.847"/></svg>