<svg xmlns="http://www.w3.org/2000/svg" width="266.667" height="64" fill="none" viewBox="0 0 100 24"><g clip-path="url(#a)"><path fill="#000" d="M38.337 8.103c-.41-1.79-2.367-3.262-4.846-3.262-2.33-.037-4.492 1.79-4.436 4.008 0 1.994 1.1 3.262 3.02 3.69l.503.094c1.1.223 1.79.373 2.069.466.801.242 1.267.894 1.267 1.51 0 1.043-.97 1.751-2.367 1.751a3.65 3.65 0 0 1-1.827-.465q-.81-.476-.95-1.287l-2.2.336c.15 2.293 2.46 3.597 4.884 3.597 2.498 0 4.753-1.435 4.753-3.951 0-2.07-1.305-3.504-3.56-3.896l-.448-.074c-.298-.056-.987-.168-1.49-.299-.914-.167-1.399-.764-1.399-1.454q0-.188.038-.372c.242-.895 1.137-1.473 2.199-1.473 1.193 0 2.311.634 2.59 1.66zm10.395 5.592q0-2.572-1.23-3.691c-.802-.745-1.613-1.118-2.88-1.118-1.044 0-1.65.489-2.302 1.253V5.102h-2.218v13.234h2.218v-4.398c.056-.95.317-1.659.82-2.125s.848-.69 1.482-.69c1.193 0 1.91.914 1.91 2.684v4.53h2.2zm6.179 4.884c2.48.055 4.567-2.144 4.53-4.697 0-2.629-2.013-4.772-4.53-4.772-2.479-.056-4.622 2.218-4.566 4.772-.056 2.48 2.125 4.752 4.566 4.697m0-7.382c1.417 0 2.349 1.156 2.349 2.703s-.913 2.628-2.349 2.628c-1.435 0-2.404-1.211-2.404-2.628 0-1.51.97-2.703 2.404-2.703M65.882 9.39c-1.25 0-2.107.335-2.592 1.062V9.389h-2.18l.018 8.947h2.162v-4.548c.093-1.472 1.028-2.572 2.352-2.572h.667V9.389h-.427Zm7.07 1.826V9.39h-1.795V6.58l-2.218.373V9.39h-1.244v1.827h1.244v4.464c0 1.724 1.1 2.638 2.424 2.638l1.566.018v-1.994l-.681-.019c-.597 0-1.09-.326-1.09-.978v-4.129h1.794Zm10.026.672q-.419-1.258-1.565-2.013a4.6 4.6 0 0 0-2.591-.764c-2.48-.056-4.697 2.218-4.641 4.771-.056 2.591 2.162 4.735 4.64 4.679 1.865 0 3.374-.932 3.99-2.442l-1.883-.764c-.28.69-.97 1.305-2.106 1.305-1.547 0-2.48-1.193-2.48-2.777s.933-2.815 2.48-2.815c1.193 0 1.864.634 2.218 1.528zm16.472-.672V9.39h-1.793V6.58l-2.218.373V9.39h-1.244v1.827h1.244v4.464c0 1.724 1.1 2.638 2.423 2.638l1.566.018v-1.994l-.68-.019c-.597 0-1.09-.326-1.09-.978v-4.129h1.793Z"/><path fill="#000" fill-rule="evenodd" d="m84.492 9.396 2.143-.004.012 5.238c.002 1.354.766 2.011 1.952 2.009 1.187-.003 1.947-.681 1.945-2.035l-.012-5.22 2.144-.004.01 5.363c.004 1.247-.384 2.21-1.162 2.87-.778.662-1.752.983-2.938.985s-2.162-.316-2.925-.973-1.154-1.584-1.157-2.813z" clip-rule="evenodd"/><path fill="#58B1E4" d="M23.254 5.812A5.81 5.81 0 0 0 17.443 0H5.82a5.8 5.8 0 0 0-4.11 1.702 5.81 5.81 0 0 0 0 8.219l2.07 2.07a5.814 5.814 0 0 0 2.04 11.255h11.623a5.8 5.8 0 0 0 4.109-1.702 5.81 5.81 0 0 0 0-8.22l-2.07-2.069a5.81 5.81 0 0 0 3.772-5.443M3.304 19.95a3.557 3.557 0 0 1 2.367-6.068l7.11 7.11H5.819a3.53 3.53 0 0 1-2.514-1.042Zm16.654-5.03a3.557 3.557 0 0 1-5.03 5.03L3.305 8.327a3.557 3.557 0 0 1 5.03-5.03zm0-6.593a3.53 3.53 0 0 1-2.366 1.038l-7.11-7.11h6.961a3.556 3.556 0 0 1 2.514 6.072Z"/></g><defs><clipPath id="a"><path fill="#fff" d="M0 0h100v23.392H0z"/></clipPath></defs></svg>