<svg xmlns="http://www.w3.org/2000/svg" width="64" height="64" fill="none" viewBox="0 0 50 50"><g clip-path="url(#a)"><path fill="#FF1A03" d="M0 2.853v44.294A2.853 2.853 0 0 0 2.853 50h44.294A2.853 2.853 0 0 0 50 47.147V2.853A2.854 2.854 0 0 0 47.147 0H2.853A2.853 2.853 0 0 0 0 2.853Zm22.796 10.78h-7.847a1.43 1.43 0 0 0-1.43 1.429v7.548H6.974v-7.548c0-4.398 3.578-7.976 7.976-7.976h7.847v6.547Zm20.231 21.305c0 4.398-3.578 7.976-7.976 7.976h-7.847v-6.547h7.847a1.43 1.43 0 0 0 1.43-1.429V27.39h6.546v7.548Z"/></g><defs><clipPath id="a"><path fill="#fff" d="M0 0h50v50H0z"/></clipPath></defs></svg>