<svg xmlns="http://www.w3.org/2000/svg" width="278.261" height="64" fill="none" viewBox="0 0 100 23"><g fill-rule="evenodd" clip-path="url(#a)" clip-rule="evenodd"><path fill="#000" d="m33.909 15.043-.02-.257h-2.147l.012.289c.132 3.221 2.304 5.355 6.166 5.355 3.684 0 6.19-1.914 6.19-4.81 0-1.567-.544-2.676-1.58-3.433-.796-.582-1.749-.91-3.329-1.253l-.347-.074-.344-.072c-2.869-.602-3.778-1.124-3.778-2.68 0-1.609 1.315-2.633 3.522-2.633 2.147 0 3.504 1.31 3.567 3.375l.008.27h2.131l-.006-.285c-.075-3.217-2.233-5.383-5.722-5.383-3.42 0-5.678 2.058-5.678 4.723 0 1.562.543 2.65 1.58 3.376.79.554 1.706.848 3.32 1.174.076.015.155.03.249.05.058.01.124.024.247.048 1.528.303 2.202.49 2.817.847.764.444 1.142 1.078 1.142 2.06 0 1.706-1.434 2.678-3.944 2.678-2.404 0-3.895-1.205-4.056-3.365m14.7-11.868v-.278h-2.133v17.222h2.133V16.87l2.246-2.187 4.01 5.325.084.111h2.654l-.34-.446-4.897-6.45 4.517-4.496.477-.475h-2.9l-.081.082-5.77 5.811zm19.934 11.744h.26l.017-.26a13 13 0 0 0 .023-.618c0-3.486-2.31-6.055-5.723-6.055-3.406 0-5.833 2.734-5.833 6.189 0 3.554 2.317 6.21 5.856 6.21 2.675 0 4.743-1.587 5.487-3.995l.112-.36h-2.218l-.065.185c-.468 1.318-1.734 2.193-3.294 2.193-2.04 0-3.46-1.4-3.717-3.489zm-9.03-1.844c.36-1.87 1.735-3.111 3.608-3.111 1.93 0 3.261 1.2 3.553 3.11zm16.33-2.934h.278V8.252H73.52V5.03h-2.133v3.222h-2.155v1.889h2.155v6.656c0 2.183 1.133 3.366 3.211 3.366q.545-.001.938-.058c.163-.022.275-.046.337-.063l.203-.056v-1.978l-.337.073-.08.016-.218.036a5 5 0 0 1-.643.053c-.91 0-1.278-.428-1.278-1.5V10.14zm6.633 10.245c2.953 0 5.038-1.869 5.561-4.513l.066-.332h-2.152l-.055.207c-.448 1.687-1.665 2.66-3.42 2.66-2.19 0-3.7-1.727-3.7-4.211 0-2.503 1.508-4.233 3.7-4.233 1.755 0 2.972.972 3.42 2.66l.055.206h2.152l-.066-.332c-.523-2.644-2.608-4.512-5.561-4.512-3.43 0-5.855 2.754-5.855 6.21 0 3.439 2.428 6.19 5.855 6.19m9.556-17.211v-.278h-2.134v17.222h2.134v-6.967c0-2.038 1.24-3.233 3.122-3.233 1.797 0 2.7 1.04 2.7 3.011v7.189h2.133v-7.5c0-2.784-1.724-4.633-4.566-4.633-1.463 0-2.639.536-3.39 1.305V3.175Z"/><path fill="#FDB300" d="M5.53.75 12.673 0l7.143.75 5.53 7.363L12.673 22.75 0 8.113 5.53.749Z"/><path fill="#EA6C00" d="m5.133 8.113 7.54 14.638L0 8.113z"/><path fill="#EA6C00" d="m20.212 8.113-7.54 14.638L25.345 8.113z"/><path fill="#FDAD00" d="M5.133 8.113h15.08l-7.54 14.638z"/><path fill="#FDD231" d="M12.672 0 5.53.749l-.397 7.364zm0 0 7.143.749.397 7.364z"/><path fill="#FDAD00" d="M25.342 8.113 19.812.749l.397 7.364zM0 8.113 5.53.749l-.397 7.364z"/><path fill="#FEEEB7" d="m12.672 0-7.54 8.113h15.08z"/></g><defs><clipPath id="a"><path fill="#fff" d="M0 0h100v22.751H0z"/></clipPath></defs></svg>