<svg xmlns="http://www.w3.org/2000/svg" width="69.565" height="64" fill="none" viewBox="0 0 50 46"><g clip-path="url(#a)"><path fill="#FDB300" d="M10.887 1.487 24.95 0l14.062 1.487L49.9 16.102 24.95 45.155 0 16.102z"/><path fill="#EA6C00" d="M10.106 16.102 24.95 45.155 0 16.102z"/><path fill="#EA6C00" d="M39.793 16.102 24.949 45.155l24.95-29.053z"/><path fill="#FDAD00" d="M10.11 16.102h29.687L24.953 45.155z"/><path fill="#FDD231" d="M24.953 0 10.891 1.487l-.782 14.615zm0 0 14.063 1.487.78 14.615L24.954 0Z"/><path fill="#FDAD00" d="M49.898 16.102 39.011 1.487l.782 14.615zM0 16.102 10.887 1.487l-.781 14.615z"/><path fill="#FEEEB7" d="M24.953 0 10.11 16.102h29.688z"/></g><defs><clipPath id="a"><path fill="#fff" d="M0 0h50v45.178H0z"/></clipPath></defs></svg>