<svg xmlns="http://www.w3.org/2000/svg" width="256" height="64" fill="none" viewBox="0 0 100 25"><g clip-path="url(#a)"><path fill="#000" d="m31.524 19.782 1.22-2.852c1.337.99 3.08 1.513 4.823 1.513 1.278 0 2.091-.495 2.091-1.251-.029-2.096-7.698-.466-7.757-5.735-.029-2.678 2.354-4.745 5.724-4.745 2.004 0 4.01.495 5.432 1.63l-1.14 2.914c-1.31-.842-2.927-1.43-4.467-1.43-1.045 0-1.743.495-1.743 1.136.03 2.067 7.758.931 7.845 5.968 0 2.736-2.325 4.657-5.637 4.657-2.44 0-4.677-.582-6.392-1.805Zm48.595-3.885a3.541 3.541 0 0 1-6.63-1.747 3.55 3.55 0 0 1 3.544-3.552 3.54 3.54 0 0 1 3.086 1.805l3.393-1.884a7.42 7.42 0 0 0-6.479-3.807c-4.1 0-7.422 3.33-7.422 7.438s3.323 7.437 7.422 7.437a7.42 7.42 0 0 0 6.479-3.807zm-34.366 5.399h4.242V.521h-4.241zM85.653.521v20.775h4.242v-6.224l5.027 6.224h5.422l-6.392-7.394 5.926-6.9H94.69l-4.793 5.737V.52h-4.242Zm-22.59 6.482v1.689c-.697-1.165-2.411-1.98-4.213-1.98-3.718 0-6.653 3.29-6.653 7.423s2.935 7.452 6.653 7.452c1.802 0 3.516-.815 4.213-1.98v1.689h4.242V7.003zm0 8.923c-.61 1.018-1.888 1.775-3.312 1.775a3.547 3.547 0 0 1-3.544-3.551 3.55 3.55 0 0 1 3.544-3.552c1.424 0 2.702.786 3.312 1.834z"/><path fill="#2FBDEE" d="M9.126.062a2.49 2.49 0 0 0-2.3 3.447 2.49 2.49 0 0 0 2.3 1.54h2.489V2.556A2.49 2.49 0 0 0 9.125.062Zm0 6.65H2.489A2.49 2.49 0 0 0 0 9.206 2.49 2.49 0 0 0 2.489 11.7h6.637a2.49 2.49 0 0 0 2.489-2.494 2.49 2.49 0 0 0-2.49-2.494Z"/><path fill="#29AD72" d="M24.888 9.206A2.49 2.49 0 0 0 22.4 6.712a2.49 2.49 0 0 0-2.489 2.494V11.7h2.49a2.49 2.49 0 0 0 2.488-2.494Zm-6.637 0v-6.65A2.49 2.49 0 0 0 15.762.062a2.49 2.49 0 0 0-2.489 2.494v6.65a2.49 2.49 0 0 0 2.49 2.494 2.49 2.49 0 0 0 2.488-2.494"/><path fill="#E9A929" d="M15.762 25a2.49 2.49 0 0 0 2.49-2.494 2.49 2.49 0 0 0-2.49-2.493h-2.489v2.493A2.49 2.49 0 0 0 15.763 25Zm0-6.65H22.4a2.49 2.49 0 0 0 2.488-2.494 2.49 2.49 0 0 0-2.489-2.494h-6.637a2.49 2.49 0 0 0-2.3 3.448 2.49 2.49 0 0 0 2.3 1.54"/><path fill="#DC1C50" d="M0 15.856a2.49 2.49 0 0 0 2.489 2.494 2.49 2.49 0 0 0 2.489-2.494v-2.494h-2.49A2.49 2.49 0 0 0 0 15.856m6.637 0v6.65A2.49 2.49 0 0 0 9.126 25a2.49 2.49 0 0 0 2.489-2.494v-6.65a2.49 2.49 0 0 0-2.49-2.494 2.49 2.49 0 0 0-2.488 2.494"/></g><defs><clipPath id="a"><path fill="#fff" d="M0 0h100v25H0z"/></clipPath></defs></svg>