<svg xmlns="http://www.w3.org/2000/svg" width="64" height="64" fill="none" viewBox="0 0 50 50"><g clip-path="url(#a)"><path fill="#1ED760" d="M25.002.082C11.237.082.078 11.242.078 25.006c0 13.765 11.16 24.923 24.924 24.923 13.766 0 24.923-11.158 24.923-24.923C49.925 11.242 38.768.084 25.001.084V.082Zm11.43 35.947a1.553 1.553 0 0 1-2.138.515c-5.851-3.575-13.218-4.384-21.894-2.402a1.554 1.554 0 0 1-.69-3.03c9.493-2.17 17.637-1.235 24.206 2.78.733.45.965 1.405.515 2.137Zm3.05-6.787a1.943 1.943 0 0 1-2.673.641c-6.699-4.119-16.911-5.311-24.835-2.906a1.946 1.946 0 0 1-2.425-1.294 1.946 1.946 0 0 1 1.296-2.424c9.051-2.747 20.304-1.416 27.997 3.312a1.942 1.942 0 0 1 .64 2.671Zm.262-7.067c-8.033-4.771-21.286-5.21-28.955-2.882a2.33 2.33 0 1 1-1.353-4.461c8.803-2.673 23.439-2.157 32.687 3.334a2.328 2.328 0 0 1 .816 3.194 2.329 2.329 0 0 1-3.194.815h-.001Z"/></g><defs><clipPath id="a"><path fill="#fff" d="M0 0h50v50H0z"/></clipPath></defs></svg>