<svg xmlns="http://www.w3.org/2000/svg" width="256" height="64" fill="none" viewBox="0 0 100 25"><g clip-path="url(#a)"><path fill="#000" d="M20.987 0H4.36A4.173 4.173 0 0 0 .187 4.173v16.626a4.173 4.173 0 0 0 4.173 4.173h16.627A4.173 4.173 0 0 0 25.16 20.8V4.173A4.172 4.172 0 0 0 20.987 0Zm-.367 19.115c0 .728-.59 1.318-1.318 1.318H6.045c-.728 0-1.318-.59-1.318-1.318V5.858c0-.728.59-1.318 1.318-1.318h13.257c.728 0 1.318.59 1.318 1.318v13.257Zm-10.595-3.24a.755.755 0 0 1-.756-.758V9.825c0-.42.336-.761.756-.761h5.3c.417 0 .756.339.756.76v5.291c0 .42-.34.758-.756.758h-5.3v.003Zm21.756-.36h2.727c.135 1.543 1.182 2.748 3.294 2.748 1.885 0 3.045-.931 3.045-2.34 0-1.318-.909-1.908-2.546-2.294l-2.114-.455c-2.295-.5-4.022-1.976-4.022-4.386 0-2.66 2.363-4.477 5.43-4.477 3.25 0 5.341 1.705 5.522 4.226h-2.636c-.314-1.18-1.293-1.883-2.883-1.883-1.682 0-2.84.909-2.84 2.069s1 1.862 2.727 2.25l2.092.454c2.295.5 3.861 1.885 3.861 4.316 0 3.09-2.317 4.93-5.634 4.93-3.728-.002-5.795-2.023-6.023-5.159Zm21.412 9.457v-4.521l.178-1.984h-.178c-.625 1.426-1.938 2.207-3.721 2.207-2.875 0-5.014-2.34-5.014-5.928s2.14-5.928 5.014-5.928c1.76 0 3.008.823 3.72 2.117h.18V9.038h2.362v15.933h-2.541Zm.088-10.229c0-2.295-1.404-3.633-3.121-3.633-1.718 0-3.121 1.338-3.121 3.633s1.403 3.633 3.12 3.633c1.718 0 3.122-1.335 3.122-3.633Zm4.339 1.183V9.039h2.54v6.664c0 1.805.87 2.674 2.318 2.674 1.782 0 2.943-1.271 2.943-3.254V9.039h2.54v11.409H65.6v-2.363h-.178c-.558 1.517-1.783 2.586-3.676 2.586-2.722 0-4.125-1.737-4.125-4.745Zm11.888 1.336c0-2.14 1.494-3.387 4.145-3.543l3.141-.2v-.892c0-1.07-.78-1.715-2.161-1.715-1.27 0-2.03.645-2.23 1.56h-2.54c.268-2.318 2.183-3.657 4.767-3.657 2.92 0 4.703 1.248 4.703 3.656v7.977H76.97v-2.117h-.178c-.535 1.404-1.65 2.34-3.789 2.34-2.046 0-3.495-1.38-3.495-3.41Zm7.289-1.404v-.602l-2.564.178c-1.38.088-2.006.603-2.006 1.627 0 .869.713 1.494 1.715 1.494 1.808 0 2.855-1.158 2.855-2.697Zm4.431 4.593V9.039h2.363v2.184h.178c.334-1.494 1.472-2.184 3.164-2.184h1.16v2.295h-1.449c-1.65 0-2.875 1.07-2.875 3.098v6.016h-2.54v.003Zm18.49-5.238h-8.67c.133 2.094 1.605 3.277 3.232 3.277 1.38 0 2.25-.558 2.741-1.494h2.519c-.69 2.317-2.72 3.675-5.283 3.675-3.364 0-5.727-2.518-5.727-5.928s2.428-5.928 5.75-5.928c3.341 0 5.526 2.295 5.526 5.148.002.56-.043.848-.088 1.25Zm-2.428-1.76c-.088-1.582-1.404-2.652-3.008-2.652-1.516 0-2.784.96-3.098 2.652h6.106Z"/></g><defs><clipPath id="a"><path fill="#fff" d="M0 0h100v25H0z"/></clipPath></defs></svg>