<svg xmlns="http://www.w3.org/2000/svg" width="64" height="64" fill="none" viewBox="0 0 50 50"><g clip-path="url(#a)"><path fill="#000" d="M41.666 0H8.334C3.752 0 0 3.75 0 8.334v33.333c0 4.58 3.752 8.331 8.334 8.331h33.333c4.582 0 8.334-3.75 8.334-8.331V8.334C50 3.75 46.248 0 41.666 0m-.758 38.259a2.655 2.655 0 0 1-2.65 2.645H11.74a2.656 2.656 0 0 1-2.65-2.645V11.742a2.66 2.66 0 0 1 2.65-2.65h26.518a2.66 2.66 0 0 1 2.65 2.65zm-9.088-7.957c0 .836-.682 1.515-1.513 1.515H19.7c-.834 0-1.513-.68-1.513-1.515V19.697c0-.834.68-1.514 1.513-1.514h10.605c.832 0 1.513.681 1.513 1.514v10.605Z"/></g><defs><clipPath id="a"><path fill="#fff" d="M0 0h50v49.998H0z"/></clipPath></defs></svg>