<svg xmlns="http://www.w3.org/2000/svg" width="80" height="64" fill="none" viewBox="0 0 50 40"><g clip-path="url(#a)"><path fill="#1A1918" d="M31.82 7.943a2.411 2.411 0 0 0-3.411 0l-15.35 15.35a4.825 4.825 0 0 1-6.821-6.824L21.292 1.416a4.823 4.823 0 0 0-6.823 0L2.825 13.059c-3.767 3.768-3.767 9.876 0 13.645a9.647 9.647 0 0 0 13.645 0l15.35-15.35a2.413 2.413 0 0 0 0-3.411Zm5.116-5.117a9.646 9.646 0 0 0-13.644 0l-15.35 15.35a2.411 2.411 0 1 0 3.41 3.411l15.352-15.35a4.822 4.822 0 0 1 6.82 0 2.412 2.412 0 1 0 3.412-3.411Zm5.117 15.35a2.415 2.415 0 0 0-3.412 0l-15.35 15.349a4.824 4.824 0 0 1-6.821 0 2.412 2.412 0 0 0-3.41 3.41c3.766 3.769 9.875 3.769 13.644 0l15.349-15.348a2.413 2.413 0 0 0 0-3.412Zm5.117-5.116c-3.768-3.768-9.877-3.768-13.644 0l-15.35 15.35a2.412 2.412 0 1 0 3.41 3.41l15.35-15.35a4.823 4.823 0 1 1 6.822 6.823L28.704 38.346a4.826 4.826 0 0 0 6.822 0L47.17 26.704c3.767-3.769 3.767-9.877 0-13.645Z"/></g><defs><clipPath id="a"><path fill="#fff" d="M0 0h50v39.84H0z"/></clipPath></defs></svg>