<svg xmlns="http://www.w3.org/2000/svg" width="426.667" height="64" fill="none" viewBox="0 0 100 15"><g fill="#000" clip-path="url(#a)"><path d="m3.692 7.659 5.637-5.63a2.032 2.032 0 0 1 2.865 0l.438.438.879-.878-.438-.44a3.276 3.276 0 0 0-4.628 0L2.812 6.78l.88.878Z"/><path d="m11.218 3.883-.878-.878-5.638 5.638a2.03 2.03 0 1 1-2.87-2.872L6.696.907 5.818.029.954 4.893A3.272 3.272 0 1 0 5.58 9.52l5.638-5.638Zm5.612 1.01a3.278 3.278 0 0 0-4.628 0L6.564 10.53l.878.878L13.08 5.77a2.03 2.03 0 0 1 3.31 2.215 2 2 0 0 1-.446.657l-4.858 4.864.88.878L16.83 9.52a3.276 3.276 0 0 0 0-4.628Z"/><path d="M14.092 6.755 8.454 12.39a2.034 2.034 0 0 1-2.872 0l-.438-.44-.878.878.438.44a3.278 3.278 0 0 0 4.628 0l5.638-5.64-.878-.874ZM22.939 8.723c.057.334.24.634.51.84.31.214.681.32 1.058.302.358.023.712-.083 1-.298a.978.978 0 0 0 .352-.784.8.8 0 0 0-.095-.4.851.851 0 0 0-.264-.278 1.677 1.677 0 0 0-.416-.2l-.555-.168-.53-.144a4.88 4.88 0 0 1-.854-.314 2.642 2.642 0 0 1-.646-.432 1.666 1.666 0 0 1-.4-.57 1.866 1.866 0 0 1-.14-.75 1.89 1.89 0 0 1 .18-.824 1.8 1.8 0 0 1 .506-.644 2.4 2.4 0 0 1 .8-.422c.34-.108.695-.16 1.052-.154.734 0 1.316.173 1.745.52a2.054 2.054 0 0 1 .756 1.4l-1.2.098a1.2 1.2 0 0 0-.435-.694c-.27-.18-.59-.267-.915-.248a1.314 1.314 0 0 0-.854.252.8.8 0 0 0-.307.65.739.739 0 0 0 .09.382.82.82 0 0 0 .258.268c.128.083.266.15.412.2.162.06.345.124.55.19l.508.158c.316.1.602.204.857.312.236.1.455.235.65.4.177.149.318.336.413.546a1.9 1.9 0 0 1 .144.784 2.06 2.06 0 0 1-.2.908 2 2 0 0 1-.556.7c-.254.2-.542.352-.85.448-.352.11-.718.162-1.086.158a3.115 3.115 0 0 1-1.837-.516 2.242 2.242 0 0 1-.913-1.57l1.212-.106Zm9.29-5.22a3.84 3.84 0 0 1 1.47.272c.427.17.812.431 1.13.764.318.339.565.739.725 1.176.176.48.264.988.258 1.5a4.063 4.063 0 0 1-.273 1.524c-.176.441-.44.842-.779 1.176l.953 1.114v.346h-1.2l-.666-.814a3.83 3.83 0 0 1-.755.268c-.28.06-.566.09-.853.088a3.847 3.847 0 0 1-1.484-.288 3.2 3.2 0 0 1-1.122-.766 3.4 3.4 0 0 1-.714-1.17 4.246 4.246 0 0 1-.255-1.484 4.274 4.274 0 0 1 .255-1.494c.157-.436.402-.835.72-1.172.317-.333.7-.594 1.126-.768.464-.188.962-.28 1.463-.272Zm-.01 1.072a2.23 2.23 0 0 0-.959.2c-.276.127-.52.315-.713.55a2.466 2.466 0 0 0-.448.832 3.42 3.42 0 0 0-.152 1.044c-.004.357.05.712.158 1.052.096.306.25.592.452.842.193.237.437.429.713.56.3.138.628.206.958.2.33.003.657-.065.959-.2.275-.125.52-.31.714-.542.204-.246.357-.53.451-.836.11-.348.164-.711.16-1.076.004-.36-.05-.717-.16-1.06a2.47 2.47 0 0 0-.451-.832 2.064 2.064 0 0 0-.719-.544 2.27 2.27 0 0 0-.964-.19Zm8.308 5.33a1.526 1.526 0 0 0 1.2-.472c.284-.313.426-.795.426-1.444V3.64h1.245v4.388c.01.45-.057.897-.2 1.324a2.288 2.288 0 0 1-.566.904 2.199 2.199 0 0 1-.901.516 4.503 4.503 0 0 1-2.4 0 2.187 2.187 0 0 1-.899-.516 2.312 2.312 0 0 1-.565-.904 3.919 3.919 0 0 1-.2-1.324V3.64h1.25v4.348c0 .648.142 1.13.427 1.444a1.522 1.522 0 0 0 1.183.472Zm4.12.524 2.53-6.78h1.876l2.502 6.78v.34h-1.23l-.717-2.036h-3.085l-.725 2.036h-1.16l.009-.34Zm2.252-2.76h2.353l-.388-1.132c-.151-.442-.273-.8-.367-1.082-.094-.282-.175-.522-.248-.734h-.306l-.12.338c-.04.112-.084.238-.135.376-.05.138-.104.298-.163.478-.06.18-.133.386-.218.624l-.409 1.132Zm11.643 3.1h-1.2l-2.173-2.8h-.8v2.8h-1.232V3.64h2.313c.347 0 .694.024 1.037.074.318.046.622.164.89.344.562.37.843.93.843 1.676.006.29-.043.577-.145.848a1.89 1.89 0 0 1-.933 1.028 2.851 2.851 0 0 1-.65.238l2.05 2.58v.34Zm-4.178-3.872h1.083c.392.02.782-.07 1.125-.26a.934.934 0 0 0 .412-.852.876.876 0 0 0-.417-.836 2.28 2.28 0 0 0-1.12-.236h-1.083v2.184Zm5.767-3.256h4.616v1.092h-3.4v1.866h3.156V7.67h-3.15v2h3.464v1.098H60.13V3.64Zm7.445 5.082c.058.334.24.634.51.84.31.214.683.32 1.058.302.359.023.713-.083 1-.298a.979.979 0 0 0 .353-.784.81.81 0 0 0-.094-.4.853.853 0 0 0-.265-.278 1.68 1.68 0 0 0-.415-.2l-.556-.168-.537-.148a4.892 4.892 0 0 1-.854-.314 2.637 2.637 0 0 1-.645-.432 1.66 1.66 0 0 1-.4-.57 2.018 2.018 0 0 1 .04-1.574c.117-.25.29-.47.505-.644.238-.19.51-.333.8-.422a3.31 3.31 0 0 1 1.053-.154c.734 0 1.317.173 1.747.52a2.04 2.04 0 0 1 .754 1.4l-1.2.098A1.202 1.202 0 0 0 70 4.803c-.27-.18-.59-.268-.914-.248a1.314 1.314 0 0 0-.854.252.798.798 0 0 0-.306.65.74.74 0 0 0 .088.382.82.82 0 0 0 .257.268c.13.083.267.15.412.2.162.06.347.124.553.19l.506.158c.317.1.603.204.858.312.235.1.454.235.65.4.175.149.317.336.412.546a1.9 1.9 0 0 1 .144.784c.003.314-.065.624-.2.908a1.98 1.98 0 0 1-.556.7c-.254.199-.543.35-.85.444-.353.11-.72.162-1.088.158a3.119 3.119 0 0 1-1.837-.516 2.242 2.242 0 0 1-.91-1.562l1.212-.106Zm6.005-5.082h2.6c.412-.01.822.047 1.216.17.299.092.572.251.8.466.2.194.35.435.435.7.092.28.138.573.135.868a2.34 2.34 0 0 1-.185.968 1.741 1.741 0 0 1-.53.68c-.252.187-.539.323-.844.4-.366.094-.743.139-1.121.134h-1.26v2.742h-1.242L73.58 3.64Zm1.242 3.316h1.19c.2.001.402-.017.6-.054.168-.032.329-.093.475-.182a.891.891 0 0 0 .318-.344c.081-.166.12-.348.114-.532a1.186 1.186 0 0 0-.114-.546.885.885 0 0 0-.313-.35 1.36 1.36 0 0 0-.47-.182 3.06 3.06 0 0 0-.6-.054h-1.21l.01 2.244Zm4.288 3.472 2.532-6.78h1.876l2.5 6.78v.34h-1.22l-.714-2.036h-3.098l-.714 2.036H79.11v-.34Zm2.253-2.76h2.353l-.388-1.132c-.153-.442-.274-.8-.366-1.082l-.249-.734H82.4l-.12.338-.135.376c-.05.138-.103.298-.163.478-.06.18-.132.386-.218.624l-.399 1.132Zm12.218 1.214c-.112.279-.26.542-.44.784-.186.248-.408.465-.661.644-.275.192-.578.34-.899.436-.368.11-.75.164-1.135.16a3.624 3.624 0 0 1-1.448-.278 3.24 3.24 0 0 1-1.11-.768 3.412 3.412 0 0 1-.71-1.172 4.252 4.252 0 0 1-.25-1.474 4.238 4.238 0 0 1 .25-1.474 3.307 3.307 0 0 1 1.83-1.956c.46-.194.955-.29 1.454-.282a3.365 3.365 0 0 1 1.96.546c.516.352.907.859 1.118 1.448l-1.262.248a2.083 2.083 0 0 0-.72-.858 1.945 1.945 0 0 0-1.116-.312 2.085 2.085 0 0 0-.938.2 2.03 2.03 0 0 0-.694.558c-.197.25-.344.536-.432.842a3.463 3.463 0 0 0-.15 1.038c-.003.354.049.706.153 1.044.094.303.246.584.447.83.195.23.439.415.714.542.298.137.624.205.954.2a1.86 1.86 0 0 0 1.146-.338c.294-.216.534-.498.7-.824l1.24.216Zm1.679-5.242h4.615v1.092h-3.4v1.866h3.162V7.67h-3.156v2h3.465v1.098H95.26V3.64Z"/></g><defs><clipPath id="a"><path fill="#fff" d="M0 0h100v14.458H0z"/></clipPath></defs></svg>