<svg xmlns="http://www.w3.org/2000/svg" width="426.667" height="64" fill="none" viewBox="0 0 100 15"><g fill="#000" clip-path="url(#a)"><path d="m3.692 7.659 5.637-5.63a2.03 2.03 0 0 1 2.865 0l.438.438.879-.878-.438-.44a3.276 3.276 0 0 0-4.628 0L2.812 6.78z"/><path d="m11.218 3.883-.878-.878-5.638 5.638a2.03 2.03 0 1 1-2.87-2.872L6.696.907 5.818.029.954 4.893A3.272 3.272 0 1 0 5.58 9.52l5.638-5.638Zm5.612 1.01a3.28 3.28 0 0 0-4.628 0L6.564 10.53l.878.878L13.08 5.77a2.03 2.03 0 0 1 3.31 2.215 2 2 0 0 1-.446.657l-4.858 4.864.88.878L16.83 9.52a3.276 3.276 0 0 0 0-4.628Z"/><path d="M14.092 6.755 8.454 12.39a2.034 2.034 0 0 1-2.872 0l-.438-.44-.878.878.438.44a3.28 3.28 0 0 0 4.628 0l5.638-5.64zm8.847 1.968c.057.334.24.634.51.84.31.214.681.32 1.058.302a1.5 1.5 0 0 0 1-.298.98.98 0 0 0 .352-.784.8.8 0 0 0-.095-.4.85.85 0 0 0-.264-.278 1.7 1.7 0 0 0-.416-.2l-.555-.168-.53-.144a5 5 0 0 1-.854-.314 2.6 2.6 0 0 1-.646-.432 1.7 1.7 0 0 1-.4-.57 1.9 1.9 0 0 1-.14-.75 1.9 1.9 0 0 1 .18-.824 1.8 1.8 0 0 1 .506-.644 2.4 2.4 0 0 1 .8-.422 3.3 3.3 0 0 1 1.052-.154q1.101 0 1.745.52a2.05 2.05 0 0 1 .756 1.4l-1.2.098a1.2 1.2 0 0 0-.435-.694 1.5 1.5 0 0 0-.915-.248 1.3 1.3 0 0 0-.854.252.8.8 0 0 0-.307.65.74.74 0 0 0 .09.382.8.8 0 0 0 .258.268q.193.125.412.2.243.09.55.19l.508.158q.474.15.857.312.356.151.65.4c.177.149.318.336.413.546a1.9 1.9 0 0 1 .144.784 2.06 2.06 0 0 1-.2.908 2 2 0 0 1-.556.7c-.254.2-.542.352-.85.448-.352.11-.718.162-1.086.158a3.1 3.1 0 0 1-1.837-.516 2.24 2.24 0 0 1-.913-1.57zm9.29-5.22a3.8 3.8 0 0 1 1.47.272 3.2 3.2 0 0 1 1.13.764c.318.339.565.739.725 1.176.176.48.264.988.258 1.5a4.1 4.1 0 0 1-.273 1.524c-.176.441-.44.842-.779 1.176l.953 1.114v.346h-1.2l-.666-.814a4 4 0 0 1-.755.268q-.421.09-.853.088a3.85 3.85 0 0 1-1.484-.288 3.2 3.2 0 0 1-1.122-.766 3.4 3.4 0 0 1-.714-1.17 4.3 4.3 0 0 1-.255-1.484 4.3 4.3 0 0 1 .255-1.494c.157-.436.402-.835.72-1.172.317-.333.7-.594 1.126-.768.464-.188.962-.28 1.463-.272Zm-.01 1.072a2.2 2.2 0 0 0-.959.2 2 2 0 0 0-.713.55 2.5 2.5 0 0 0-.448.832 3.4 3.4 0 0 0-.152 1.044c-.004.357.05.712.158 1.052.096.306.25.592.452.842.193.237.437.429.713.56.3.138.628.206.958.2.33.003.657-.065.959-.2.275-.125.52-.31.714-.542.204-.246.357-.53.451-.836.11-.348.164-.711.16-1.076.004-.36-.05-.717-.16-1.06a2.5 2.5 0 0 0-.451-.832 2.1 2.1 0 0 0-.719-.544 2.3 2.3 0 0 0-.964-.19Zm8.308 5.33a1.53 1.53 0 0 0 1.2-.472q.426-.47.426-1.444V3.64h1.245v4.388c.01.45-.057.897-.2 1.324a2.3 2.3 0 0 1-.566.904 2.2 2.2 0 0 1-.901.516 4.5 4.5 0 0 1-2.4 0 2.2 2.2 0 0 1-.899-.516 2.3 2.3 0 0 1-.565-.904 3.9 3.9 0 0 1-.2-1.324V3.64h1.25v4.348q0 .972.427 1.444a1.52 1.52 0 0 0 1.183.472Zm4.12.524 2.53-6.78h1.876l2.502 6.78v.34h-1.23l-.717-2.036h-3.085l-.725 2.036h-1.16zm2.252-2.76h2.353l-.388-1.132c-.151-.442-.273-.8-.367-1.082l-.248-.734h-.306l-.12.338q-.06.168-.135.376-.075.207-.163.478a32 32 0 0 1-.218.624zm11.643 3.1h-1.2l-2.173-2.8h-.8v2.8h-1.232V3.64h2.313q.522 0 1.037.074c.318.046.622.164.89.344q.843.556.843 1.676a2.3 2.3 0 0 1-.145.848 1.9 1.9 0 0 1-.933 1.028 2.9 2.9 0 0 1-.65.238l2.05 2.58zm-4.178-3.872h1.083c.392.02.782-.07 1.125-.26a.93.93 0 0 0 .412-.852.88.88 0 0 0-.417-.836 2.3 2.3 0 0 0-1.12-.236h-1.083zm5.767-3.256h4.616v1.092h-3.4v1.866h3.156V7.67h-3.15v2h3.464v1.098H60.13zm7.445 5.082c.058.334.24.634.51.84.31.214.683.32 1.058.302.359.023.713-.083 1-.298a.98.98 0 0 0 .353-.784.8.8 0 0 0-.094-.4.85.85 0 0 0-.265-.278 1.7 1.7 0 0 0-.415-.2l-.556-.168-.537-.148a5 5 0 0 1-.854-.314 2.6 2.6 0 0 1-.645-.432 1.7 1.7 0 0 1-.4-.57 2.02 2.02 0 0 1 .04-1.574c.117-.25.29-.47.505-.644.238-.19.51-.333.8-.422a3.3 3.3 0 0 1 1.053-.154q1.101 0 1.747.52a2.04 2.04 0 0 1 .754 1.4l-1.2.098a1.2 1.2 0 0 0-.43-.694c-.27-.18-.59-.268-.914-.248a1.3 1.3 0 0 0-.854.252.8.8 0 0 0-.306.65.74.74 0 0 0 .088.382.8.8 0 0 0 .257.268q.195.125.412.2.243.09.553.19l.506.158q.475.15.858.312.354.151.65.4c.175.149.317.336.412.546a1.9 1.9 0 0 1 .144.784c.003.314-.065.624-.2.908a2 2 0 0 1-.556.7c-.254.199-.543.35-.85.444-.353.11-.72.162-1.088.158a3.1 3.1 0 0 1-1.837-.516 2.24 2.24 0 0 1-.91-1.562l1.212-.106Zm6.005-5.082h2.6a3.8 3.8 0 0 1 1.216.17c.299.092.572.251.8.466.2.194.35.435.435.7.092.28.138.573.135.868a2.3 2.3 0 0 1-.185.968 1.74 1.74 0 0 1-.53.68 2.4 2.4 0 0 1-.844.4 4.3 4.3 0 0 1-1.121.134h-1.26v2.742h-1.242L73.58 3.64Zm1.242 3.316h1.19q.302.002.6-.054.254-.048.475-.182a.9.9 0 0 0 .318-.344c.081-.166.12-.348.114-.532a1.2 1.2 0 0 0-.114-.546.9.9 0 0 0-.313-.35 1.4 1.4 0 0 0-.47-.182 3 3 0 0 0-.6-.054h-1.21zm4.288 3.472 2.532-6.78h1.876l2.5 6.78v.34h-1.22l-.714-2.036h-3.098l-.714 2.036H79.11v-.34Zm2.253-2.76h2.353l-.388-1.132c-.153-.442-.274-.8-.366-1.082l-.249-.734H82.4l-.12.338-.135.376q-.074.207-.163.478-.09.268-.218.624zm12.218 1.214q-.169.42-.44.784a3 3 0 0 1-.661.644c-.275.192-.578.34-.899.436-.368.11-.75.164-1.135.16a3.6 3.6 0 0 1-1.448-.278 3.2 3.2 0 0 1-1.11-.768 3.4 3.4 0 0 1-.71-1.172 4.3 4.3 0 0 1-.25-1.474 4.2 4.2 0 0 1 .25-1.474 3.3 3.3 0 0 1 1.83-1.956c.46-.194.955-.29 1.454-.282a3.37 3.37 0 0 1 1.96.546 2.96 2.96 0 0 1 1.118 1.448l-1.262.248a2.1 2.1 0 0 0-.72-.858 1.95 1.95 0 0 0-1.116-.312 2.1 2.1 0 0 0-.938.2 2 2 0 0 0-.694.558 2.5 2.5 0 0 0-.432.842 3.5 3.5 0 0 0-.15 1.038 3.5 3.5 0 0 0 .153 1.044c.094.303.246.584.447.83.195.23.439.415.714.542.298.137.624.205.954.2a1.86 1.86 0 0 0 1.146-.338 2.34 2.34 0 0 0 .7-.824zm1.679-5.242h4.615v1.092h-3.4v1.866h3.162V7.67h-3.156v2h3.465v1.098H95.26z"/></g><defs><clipPath id="a"><path fill="#fff" d="M0 0h100v14.458H0z"/></clipPath></defs></svg>