<svg xmlns="http://www.w3.org/2000/svg" width="426.667" height="64" fill="none" viewBox="0 0 100 15"><g clip-path="url(#a)"><path fill="#253858" d="M22.044 11.282c-2.117 0-3.1-.416-3.95-.85v-1.53c1.017.534 2.583.916 4.032.916 1.65 0 2.273-.65 2.273-1.617 0-.968-.6-1.483-2.684-1.983-2.462-.6-3.566-1.451-3.566-3.25 0-1.705 1.299-2.966 3.85-2.966 1.583 0 2.6.379 3.35.8v1.5a6.73 6.73 0 0 0-3.409-.834c-1.433 0-2.284.5-2.284 1.5 0 .9.701 1.35 2.633 1.833 2.316.583 3.617 1.326 3.617 3.3-.011 1.899-1.146 3.181-3.861 3.181Zm8.911-1.566q.455-.014.9-.117v1.386a3.5 3.5 0 0 1-.966.133c-1.784 0-2.652-1.05-2.652-2.6v-4.4h-1.346V2.791h1.35V1.017h1.4v1.767h2.216V4.11H29.64v4.373c-.002.733.431 1.233 1.314 1.233Zm8.062-.1c-.534 1.1-1.534 1.666-2.817 1.666-2.215 0-3.333-1.882-3.333-4.333 0-2.35 1.167-4.333 3.5-4.333 1.216 0 2.15.549 2.652 1.632V2.784h1.433v8.333h-1.435zm-2.434.333c1.284 0 2.434-.816 2.434-2.667v-.666c0-1.85-1.05-2.667-2.273-2.667-1.617 0-2.45 1.066-2.45 3 0 2 .799 3 2.283 3zm9.329-.233q.455-.014.9-.117v1.386a3.5 3.5 0 0 1-.966.133c-1.784 0-2.652-1.05-2.652-2.6v-4.4h-1.35V2.791h1.35V1.017h1.4v1.767h2.216V4.11h-2.216v4.373c0 .733.434 1.233 1.318 1.233m2.565-6.932h1.433v5.032c0 1.5.6 2.167 1.966 2.167 1.326 0 2.25-.883 2.25-2.566V2.784h1.434v8.333h-1.434V9.75a2.92 2.92 0 0 1-2.632 1.534c-1.917 0-3.017-1.326-3.017-3.617zm11.863 8.498a6.4 6.4 0 0 1-2.9-.617V9.15a6.5 6.5 0 0 0 2.975.816c1.1 0 1.667-.45 1.667-1.1s-.483-1-2.067-1.383c-1.85-.45-2.632-1.167-2.632-2.534 0-1.45 1.117-2.333 3.017-2.333a5.9 5.9 0 0 1 2.666.604v1.483c-1-.5-1.816-.758-2.698-.758-1.05 0-1.618.368-1.618 1.017 0 .583.4.947 1.934 1.326 1.85.45 2.784 1.136 2.784 2.583.006 1.356-.894 2.411-3.129 2.411Zm6.219-1.622v4.715h-1.434V2.785h1.434v1.5c.534-1.101 1.534-1.668 2.816-1.668 2.216 0 3.333 1.883 3.333 4.334 0 2.35-1.166 4.333-3.5 4.333-1.216-.002-2.15-.551-2.65-1.625Zm2.433-5.7c-1.284 0-2.433.817-2.433 2.667v.667c0 1.85 1.049 2.666 2.272 2.666 1.618 0 2.451-1.066 2.451-3-.007-2.011-.807-3.01-2.291-3.01zm11.033 5.656c-.535 1.1-1.535 1.666-2.817 1.666-2.216 0-3.333-1.882-3.333-4.333 0-2.35 1.167-4.333 3.5-4.333 1.216 0 2.15.549 2.651 1.632V2.784h1.434v8.333h-1.433zm-2.434.333c1.284 0 2.434-.816 2.434-2.667v-.666c0-1.85-1.05-2.667-2.273-2.667-1.617 0-2.45 1.066-2.45 3 .007 2 .806 3 2.289 3m11.649-.333c-.534 1.1-1.534 1.666-2.816 1.666-2.2 0-3.299-1.882-3.299-4.333 0-2.35 1.15-4.333 3.466-4.333 1.216 0 2.15.549 2.651 1.632V2.784h1.4v7.576c0 2.45-1.15 4.1-4.132 4.1a8.4 8.4 0 0 1-2.968-.445v-1.4c.933.322 1.912.49 2.9.5 2.083 0 2.799-1.117 2.799-2.666zm-2.433.333c1.284 0 2.433-.816 2.433-2.667v-.666c0-1.85-1.049-2.667-2.272-2.667-1.618 0-2.451 1.066-2.451 3 .008 2 .807 3 2.292 3zm9.989 1.333c-3.118 0-4.484-1.799-4.484-4.356 0-2.517 1.4-4.316 3.934-4.316 2.567 0 3.599 1.784 3.599 4.316v.65h-6.091c.2 1.416 1.117 2.333 3.083 2.333a7.4 7.4 0 0 0 2.542-.44v1.327c-.684.354-1.735.486-2.584.486Zm-3.05-4.924h4.648c-.083-1.55-.784-2.434-2.216-2.434-1.517-.007-2.282.976-2.424 2.426z"/><path fill="url(#b)" d="M7.067 11.114a3.309 3.309 0 1 0 0-6.618 3.309 3.309 0 0 0 0 6.618"/><path fill="#2684FF" d="m.09 3.977 1.776 2.104a.38.38 0 0 0 .538.04c2.876-2.58 6.439-2.58 9.323 0a.38.38 0 0 0 .538-.04l1.779-2.104A.38.38 0 0 0 14 3.445C9.824-.208 4.307-.208.133 3.445a.38.38 0 0 0-.044.532Z"/></g><defs><linearGradient id="b" x1="7.067" x2="7.067" y1="9.975" y2="4.114" gradientUnits="userSpaceOnUse"><stop stop-color="#2684FF"/><stop offset=".82" stop-color="#0052CC"/></linearGradient><clipPath id="a"><path fill="#fff" d="M0 0h100v14.583H0z"/></clipPath></defs></svg>