<svg width="50" height="38" viewBox="0 0 50 38" fill="none" xmlns="http://www.w3.org/2000/svg">
<g clip-path="url(#clip0_1_927)">
<path d="M24.8732 37.1201C31.3055 37.1201 36.5199 31.9057 36.5199 25.4734C36.5199 19.0412 31.3055 13.8268 24.8732 13.8268C18.441 13.8268 13.2266 19.0412 13.2266 25.4734C13.2266 31.9057 18.441 37.1201 24.8732 37.1201Z" fill="url(#paint0_linear_1_927)"/>
<path d="M0.314013 12.0001L6.56734 19.4068C6.68178 19.5413 6.82178 19.6518 6.97932 19.7318C7.13678 19.8118 7.30858 19.8596 7.48472 19.8727C7.66092 19.8857 7.83785 19.8636 8.00538 19.8076C8.17298 19.7517 8.32772 19.663 8.46065 19.5468C18.5873 10.4668 31.1273 10.4668 41.2806 19.5468C41.4136 19.663 41.5684 19.7517 41.7359 19.8076C41.9034 19.8636 42.0804 19.8857 42.2566 19.8727C42.4328 19.8596 42.6046 19.8118 42.762 19.7318C42.9196 19.6518 43.0596 19.5413 43.174 19.4068L49.434 12.0001C49.661 11.7308 49.7723 11.3828 49.7436 11.0318C49.7148 10.6808 49.5484 10.3554 49.2806 10.1268C34.5806 -2.73326 15.1607 -2.73326 0.467346 10.1268C0.199583 10.3554 0.0331748 10.6808 0.00444726 11.0318C-0.0242803 11.3828 0.0870057 11.7308 0.314013 12.0001Z" fill="#2684FF"/>
</g>
<defs>
<linearGradient id="paint0_linear_1_927" x1="24.8732" y1="33.1134" x2="24.8732" y2="12.4801" gradientUnits="userSpaceOnUse">
<stop stop-color="#2684FF"/>
<stop offset="0.82" stop-color="#0052CC"/>
</linearGradient>
<clipPath id="clip0_1_927">
<rect width="50" height="37.3333" fill="white"/>
</clipPath>
</defs>
</svg>
