<svg xmlns="http://www.w3.org/2000/svg" width="64" height="64" fill="none" viewBox="0 0 50 50"><path fill="#139EF3" d="M25 50c13.807 0 25-11.193 25-25S38.807 0 25 0 0 11.193 0 25s11.193 25 25 25"/><path fill="#fff" fill-rule="evenodd" d="M25.003 9.043c.648 0 1.174.52 1.174 1.16v.93h8.23c2.13 0 3.856 1.708 3.856 3.815v3.48c0 .396.16.775.442 1.055l.651.645a1.81 1.81 0 0 1 0 2.58l-.65.645c-.284.28-.443.66-.443 1.056v3.214c0 .641-.525 1.161-1.173 1.161s-1.174-.52-1.174-1.161v-3.214c0-1.012.407-1.982 1.13-2.698l.295-.293-.295-.292a3.8 3.8 0 0 1-1.13-2.698v-3.48a1.5 1.5 0 0 0-1.508-1.493h-18.81a1.5 1.5 0 0 0-1.508 1.493v3.48a3.8 3.8 0 0 1-1.13 2.698l-.295.292.295.293a3.8 3.8 0 0 1 1.13 2.698v3.048a1.5 1.5 0 0 0 1.508 1.493h16.295c2.13 0 3.856 1.708 3.856 3.815v5.973c0 2.107-1.727 3.815-3.856 3.815H18.616c-2.13 0-3.856-1.708-3.856-3.815V35.95c0-.642.526-1.162 1.174-1.162s1.173.52 1.173 1.162v2.787c0 .824.676 1.493 1.509 1.493h13.277c.833 0 1.509-.669 1.509-1.493v-5.973c0-.824-.676-1.493-1.509-1.493H15.598c-2.129 0-3.855-1.708-3.855-3.815v-3.048c0-.396-.16-.776-.442-1.056l-.652-.644a1.81 1.81 0 0 1 0-2.581l.652-.645c.283-.28.442-.66.442-1.055v-3.48c0-2.107 1.726-3.815 3.855-3.815h8.231v-.93c0-.64.526-1.16 1.174-1.16Z" clip-rule="evenodd"/><path fill="#fff" d="M20.479 21.808c1.028 0 1.862-.952 1.862-2.127s-.834-2.128-1.862-2.128-1.862.953-1.862 2.128.834 2.127 1.862 2.127m9.039 0c1.028 0 1.862-.952 1.862-2.127s-.834-2.128-1.862-2.128-1.862.953-1.862 2.128.834 2.127 1.862 2.127"/><path fill="#fff" fill-rule="evenodd" d="M24.996 6.676c-.529 0-.957.464-.957 1.037s.428 1.037.957 1.037.958-.464.958-1.037-.429-1.037-.958-1.037m-3.191 1.037c0-1.91 1.429-3.458 3.191-3.458 1.763 0 3.192 1.548 3.192 3.458s-1.43 3.457-3.192 3.457-3.191-1.548-3.191-3.457" clip-rule="evenodd"/></svg>