<svg xmlns="http://www.w3.org/2000/svg" width="320" height="64" fill="none" viewBox="0 0 100 20"><g clip-path="url(#a)"><path fill="#333" fill-rule="evenodd" d="M26.643 15.831a8.788 8.788 0 0 1-2.464-.344c-.79-.229-1.445-.546-1.968-.952l.8-1.776c1.088.758 2.31 1.136 3.664 1.136.704 0 1.245-.114 1.624-.344.379-.229.568-.546.568-.952 0-.362-.173-.645-.52-.848-.347-.202-.963-.4-1.848-.592-.992-.202-1.784-.448-2.376-.736-.592-.288-1.024-.642-1.296-1.064-.272-.42-.408-.94-.408-1.56 0-.682.19-1.29.568-1.824.379-.533.91-.952 1.592-1.256.683-.304 1.472-.456 2.368-.456.8 0 1.57.118 2.312.352.741.235 1.33.55 1.768.944l-.8 1.776C29.192 6.578 28.104 6.2 26.963 6.2c-.65 0-1.163.126-1.536.376-.373.251-.56.595-.56 1.032 0 .256.072.467.216.632.144.166.384.312.72.44.336.128.813.262 1.432.4 1.45.32 2.493.731 3.128 1.232.635.502.952 1.195.952 2.08 0 1.067-.41 1.907-1.232 2.52-.821.614-1.968.92-3.44.92Zm10.464-1.792c.245 0 .501-.016.768-.048l-.128 1.76c-.31.043-.619.064-.928.064-1.195 0-2.067-.26-2.616-.784-.55-.522-.824-1.317-.824-2.384V9.64H31.89V7.831h1.488V5.527h2.416v2.304h1.968V9.64h-1.968v2.992c0 .94.437 1.408 1.312 1.408Zm5.616 1.776c-.832 0-1.563-.168-2.192-.504a3.535 3.535 0 0 1-1.456-1.424c-.341-.613-.512-1.336-.512-2.168 0-.832.17-1.554.512-2.168a3.484 3.484 0 0 1 1.456-1.416c.63-.33 1.36-.496 2.192-.496.832 0 1.563.166 2.192.496.63.331 1.115.803 1.456 1.416.341.614.512 1.336.512 2.168 0 .832-.17 1.555-.512 2.168a3.534 3.534 0 0 1-1.456 1.424c-.63.336-1.36.504-2.192.504Zm0-1.84c1.173 0 1.76-.752 1.76-2.256 0-.757-.152-1.322-.456-1.696-.304-.373-.739-.56-1.304-.56-1.173 0-1.76.752-1.76 2.256 0 1.504.587 2.256 1.76 2.256ZM53.57 9.623l-1.36.144c-.672.064-1.147.254-1.424.568-.278.315-.416.734-.416 1.256v4.096h-2.416V7.831h2.32V9.16c.394-.906 1.21-1.402 2.448-1.488l.704-.048.144 2Zm7.02-1.776h2.368l-4.736 10.72h-2.448l1.504-3.312-3.232-7.408h2.512l1.984 4.992 2.048-4.992Zm7.968-.208c.682 0 1.285.166 1.808.496.522.331.93.803 1.224 1.416.293.614.44 1.326.44 2.136 0 .811-.147 1.528-.44 2.152-.294.624-.704 1.11-1.232 1.456a3.206 3.206 0 0 1-1.8.52 3.122 3.122 0 0 1-1.472-.344 2.447 2.447 0 0 1-1.008-.952v1.168h-2.384V4.407h2.416v4.48a2.387 2.387 0 0 1 1-.92 3.16 3.16 0 0 1 1.448-.328Zm-.704 6.336c.565 0 1.002-.2 1.312-.6.31-.4.464-.962.464-1.688 0-.714-.155-1.26-.464-1.64-.31-.378-.747-.568-1.312-.568-.566 0-1.003.195-1.312.584-.31.39-.464.942-.464 1.656 0 .726.154 1.283.464 1.672.31.39.746.584 1.312.584Zm9.424 1.84c-.832 0-1.563-.168-2.192-.504a3.535 3.535 0 0 1-1.456-1.424c-.342-.613-.512-1.336-.512-2.168 0-.832.17-1.554.512-2.168a3.484 3.484 0 0 1 1.456-1.416c.63-.33 1.36-.496 2.192-.496.832 0 1.562.166 2.192.496.63.331 1.114.803 1.456 1.416.341.614.512 1.336.512 2.168 0 .832-.17 1.555-.512 2.168a3.535 3.535 0 0 1-1.456 1.424c-.63.336-1.36.504-2.192.504Zm0-1.84c1.173 0 1.76-.752 1.76-2.256 0-.757-.152-1.322-.456-1.696-.304-.373-.739-.56-1.304-.56-1.174 0-1.76.752-1.76 2.256 0 1.504.586 2.256 1.76 2.256Zm9.008 1.84c-.832 0-1.563-.168-2.192-.504a3.535 3.535 0 0 1-1.456-1.424c-.342-.613-.512-1.336-.512-2.168 0-.832.17-1.554.512-2.168a3.484 3.484 0 0 1 1.456-1.416c.63-.33 1.36-.496 2.192-.496.832 0 1.562.166 2.192.496.63.331 1.114.803 1.456 1.416.341.614.512 1.336.512 2.168 0 .832-.17 1.555-.512 2.168a3.535 3.535 0 0 1-1.456 1.424c-.63.336-1.36.504-2.192.504Zm0-1.84c1.173 0 1.76-.752 1.76-2.256 0-.757-.152-1.322-.456-1.696-.304-.373-.739-.56-1.304-.56-1.174 0-1.76.752-1.76 2.256 0 1.504.586 2.256 1.76 2.256Zm13.716 1.712h-2.96l-3.008-3.504v3.504h-2.416V4.407h2.416v6.784l2.896-3.344h2.88l-3.296 3.744 3.488 4.096Z" clip-rule="evenodd"/><mask id="b" width="17" height="20" x="0" y="0" maskUnits="userSpaceOnUse" style="mask-type:alpha"><path fill="#fff" d="M.62 18.43 0 1.92A1.006 1.006 0 0 1 .944.88L14.984.002a1.006 1.006 0 0 1 1.069 1.004v17.988A1.006 1.006 0 0 1 15.003 20L1.58 19.396a1.006 1.006 0 0 1-.96-.967Z"/></mask><g mask="url(#b)"><path fill="#FF4785" d="M.62 18.43 0 1.92A1.006 1.006 0 0 1 .944.88L14.984.002a1.006 1.006 0 0 1 1.069 1.004v17.988A1.006 1.006 0 0 1 15.003 20L1.58 19.396a1.006 1.006 0 0 1-.96-.967Z"/><path fill="#fff" d="m11.852 2.458.096-2.306L13.876 0l.083 2.379a.15.15 0 0 1-.243.123l-.743-.586-.88.668a.15.15 0 0 1-.241-.126ZM9.386 7.538c0 .391 2.636.204 2.99-.07 0-2.665-1.43-4.065-4.048-4.065-2.617 0-4.084 1.422-4.084 3.554 0 3.715 5.012 3.786 5.012 5.812 0 .568-.278.906-.89.906-.799 0-1.115-.408-1.077-1.794 0-.3-3.045-.394-3.138 0-.236 3.36 1.857 4.328 4.251 4.328 2.321 0 4.14-1.237 4.14-3.476 0-3.98-5.086-3.874-5.086-5.847 0-.8.594-.906.946-.906.372 0 1.04.065.984 1.558Z"/></g></g><defs><clipPath id="a"><path fill="#fff" d="M0 0h100v20H0z"/></clipPath></defs></svg>