<svg xmlns="http://www.w3.org/2000/svg" width="152.381" height="64" fill="none" viewBox="0 0 100 42"><g fill="#635BFF" clip-path="url(#a)"><path fill-rule="evenodd" d="M99.998 21.5c0-7.111-3.444-12.722-10.028-12.722-6.61 0-10.61 5.61-10.61 12.667 0 8.36 4.722 12.583 11.5 12.583 3.305 0 5.805-.75 7.694-1.806v-5.555c-1.89.944-4.056 1.527-6.806 1.527-2.694 0-5.083-.944-5.389-4.222h13.584c0-.36.055-1.805.055-2.472m-13.722-2.639c0-3.139 1.917-4.444 3.667-4.444 1.694 0 3.5 1.305 3.5 4.444zM68.635 8.778c-2.722 0-4.472 1.278-5.444 2.166l-.361-1.722h-6.111v32.39l6.944-1.473.028-7.861c1 .722 2.472 1.75 4.917 1.75 4.972 0 9.5-4 9.5-12.806-.028-8.055-4.612-12.444-9.473-12.444M66.97 27.917c-1.64 0-2.611-.584-3.278-1.306l-.028-10.305c.722-.806 1.722-1.362 3.306-1.362 2.528 0 4.278 2.834 4.278 6.473 0 3.722-1.723 6.5-4.278 6.5M47.164 7.139l6.972-1.5V0l-6.972 1.472z" clip-rule="evenodd"/><path d="M54.136 9.25h-6.972v24.306h6.972z"/><path fill-rule="evenodd" d="M39.694 11.306 39.25 9.25h-6v24.306h6.944V17.083c1.64-2.139 4.417-1.75 5.278-1.444V9.25c-.889-.333-4.139-.944-5.778 2.056M25.806 3.222l-6.778 1.445L19 26.917c0 4.11 3.083 7.139 7.194 7.139 2.278 0 3.945-.417 4.862-.917V27.5c-.89.361-5.278 1.639-5.278-2.472v-9.861h5.278V9.25h-5.278zM7.028 16.306c0-1.084.889-1.5 2.36-1.5 2.112 0 4.779.639 6.89 1.777v-6.527c-2.306-.917-4.584-1.278-6.89-1.278C3.75 8.778 0 11.722 0 16.638c0 7.668 10.556 6.445 10.556 9.75 0 1.279-1.112 1.695-2.667 1.695-2.306 0-5.25-.944-7.583-2.222v6.611a19.3 19.3 0 0 0 7.583 1.584c5.778 0 9.75-2.861 9.75-7.834-.028-8.277-10.611-6.805-10.611-9.916" clip-rule="evenodd"/></g><defs><clipPath id="a"><path fill="#fff" d="M0 0h100v41.667H0z"/></clipPath></defs></svg>