<svg xmlns="http://www.w3.org/2000/svg" width="152.381" height="64" fill="none" viewBox="0 0 50 21"><g fill="#635BFF" clip-path="url(#a)"><path fill-rule="evenodd" d="M50 10.75c0-3.556-1.723-6.361-5.015-6.361-3.305 0-5.305 2.805-5.305 6.333 0 4.18 2.36 6.292 5.75 6.292 1.653 0 2.903-.375 3.847-.903v-2.778c-.944.473-2.028.764-3.403.764-1.347 0-2.541-.472-2.694-2.11h6.791c0-.181.028-.904.028-1.237Zm-6.862-1.32c0-1.569.958-2.222 1.833-2.222.848 0 1.75.653 1.75 2.223h-3.583ZM34.318 4.389c-1.361 0-2.236.639-2.722 1.083l-.181-.86h-3.056v16.194l3.473-.736.014-3.931c.5.361 1.236.875 2.458.875 2.486 0 4.75-2 4.75-6.403-.014-4.028-2.306-6.222-4.736-6.222Zm-.834 9.57c-.82 0-1.305-.292-1.639-.653l-.013-5.153c.36-.403.86-.68 1.652-.68 1.264 0 2.14 1.416 2.14 3.235 0 1.861-.862 3.25-2.14 3.25ZM23.586 3.57l3.486-.75V0l-3.486.736V3.57Z" clip-rule="evenodd"/><path d="M27.072 4.625h-3.486v12.153h3.486V4.625Z"/><path fill-rule="evenodd" d="m19.847 5.653-.222-1.028h-3v12.153h3.472V8.542c.82-1.07 2.209-.875 2.64-.723V4.625c-.445-.167-2.07-.472-2.89 1.028ZM12.903 1.611l-3.39.722L9.5 13.458c0 2.056 1.542 3.57 3.597 3.57 1.14 0 1.973-.208 2.43-.458v-2.82c-.444.18-2.638.82-2.638-1.236v-4.93h2.639V4.624h-2.64l.015-3.014ZM3.514 8.153c0-.542.444-.75 1.18-.75 1.056 0 2.39.32 3.445.889V5.028a9.16 9.16 0 0 0-3.445-.64C1.875 4.389 0 5.862 0 8.32c0 3.834 5.278 3.223 5.278 4.875 0 .64-.556.848-1.334.848-1.152 0-2.625-.473-3.791-1.111v3.305a9.627 9.627 0 0 0 3.791.792c2.89 0 4.875-1.43 4.875-3.917-.013-4.139-5.305-3.403-5.305-4.958Z" clip-rule="evenodd"/></g><defs><clipPath id="a"><path fill="#fff" d="M0 0h50v20.833H0z"/></clipPath></defs></svg>