<svg xmlns="http://www.w3.org/2000/svg" width="320" height="64" fill="none" viewBox="0 0 100 20"><g clip-path="url(#a)"><path fill="#1C1C1C" d="M26.055 11.49c.103.965.98 2.617 3.525 2.617 2.218 0 3.284-1.411 3.284-2.788 0-1.24-.843-2.256-2.51-2.6l-1.204-.258c-.464-.086-.774-.345-.774-.758 0-.482.481-.843 1.083-.843.963 0 1.324.637 1.393 1.136l1.909-.43c-.103-.913-.912-2.445-3.319-2.445-1.823 0-3.164 1.257-3.164 2.772 0 1.188.74 2.169 2.373 2.53l1.118.259c.653.137.911.447.911.826 0 .448-.36.844-1.118.844-.997 0-1.496-.62-1.547-1.292zm14.123 2.36h2.183a14 14 0 0 1-.086-1.533V5.379h-2.287v4.924c0 .981-.584 1.67-1.599 1.67-1.066 0-1.547-.758-1.547-1.705V5.38h-2.287v5.354c0 1.842 1.169 3.34 3.215 3.34.894 0 1.875-.344 2.339-1.136 0 .344.034.74.069.912m6.82 3.27v-4.097c.412.568 1.272 1.033 2.442 1.033 2.39 0 3.989-1.894 3.989-4.459 0-2.513-1.428-4.407-3.904-4.407-1.272 0-2.218.568-2.596 1.222V5.38h-2.218v11.74zm4.178-7.506c0 1.515-.928 2.393-2.098 2.393s-2.115-.895-2.115-2.393.946-2.376 2.115-2.376 2.098.878 2.098 2.376m3.551 1.928c0 1.326 1.1 2.548 2.906 2.548 1.255 0 2.063-.585 2.492-1.256 0 .327.035.791.087 1.015h2.097a9.5 9.5 0 0 1-.103-1.343V8.34c0-1.704-.997-3.219-3.68-3.219-2.27 0-3.49 1.463-3.628 2.789l2.03.43c.068-.74.619-1.377 1.616-1.377.963 0 1.427.5 1.427 1.102 0 .292-.155.534-.636.602l-2.08.31c-1.41.207-2.528 1.05-2.528 2.565m3.387.844c-.74 0-1.1-.482-1.1-.981 0-.655.463-.982 1.048-1.068l1.909-.292v.378c0 1.498-.894 1.963-1.857 1.963m8.62 1.464v-1.034c.447.723 1.34 1.24 2.51 1.24 2.408 0 3.99-1.911 3.99-4.476 0-2.514-1.428-4.425-3.904-4.425-1.255 0-2.184.551-2.562 1.154V1.385h-2.252V13.85zm4.212-4.253c0 1.55-.928 2.41-2.097 2.41-1.152 0-2.115-.878-2.115-2.41 0-1.55.963-2.393 2.115-2.393 1.169 0 2.097.844 2.097 2.393m3.577 1.945c0 1.326 1.1 2.548 2.906 2.548 1.255 0 2.064-.585 2.493-1.256 0 .327.035.791.087 1.015h2.097a9.5 9.5 0 0 1-.103-1.343V8.34c0-1.704-.997-3.219-3.68-3.219-2.27 0-3.49 1.463-3.628 2.789l2.03.43c.068-.74.618-1.377 1.616-1.377.963 0 1.427.5 1.427 1.102 0 .292-.155.534-.636.602l-2.08.31c-1.41.207-2.529 1.05-2.529 2.565m3.388.844c-.74 0-1.1-.482-1.1-.981 0-.655.463-.982 1.048-1.068l1.909-.292v.378c0 1.498-.894 1.963-1.857 1.963m5.675-.896c.103.965.98 2.617 3.525 2.617 2.218 0 3.284-1.411 3.284-2.788 0-1.24-.843-2.256-2.51-2.6l-1.204-.258c-.464-.086-.774-.345-.774-.758 0-.482.481-.843 1.083-.843.964 0 1.325.637 1.394 1.136l1.908-.43c-.103-.913-.911-2.445-3.319-2.445-1.823 0-3.163 1.257-3.163 2.772 0 1.188.739 2.169 2.372 2.53l1.118.259c.654.137.911.447.911.826 0 .448-.36.844-1.117.844-.998 0-1.496-.62-1.548-1.292zm10.281-2.84c.051-.775.705-1.67 1.891-1.67 1.307 0 1.857.827 1.892 1.67zm4.006 2.204c-.275.757-.86 1.29-1.926 1.29-1.135 0-2.08-.808-2.132-1.927h6.053c0-.035.034-.379.034-.706 0-2.72-1.564-4.39-4.178-4.39-2.167 0-4.162 1.756-4.162 4.459 0 2.857 2.047 4.527 4.368 4.527 2.08 0 3.422-1.222 3.852-2.685z"/><path fill="url(#b)" d="M10.964 18.982c-.492.62-1.49.28-1.502-.511L9.29 6.895h7.783c1.41 0 2.196 1.629 1.32 2.733z"/><path fill="url(#c)" fill-opacity=".2" d="M10.964 18.982c-.492.62-1.49.28-1.502-.511L9.29 6.895h7.783c1.41 0 2.196 1.629 1.32 2.733z"/><path fill="#3ECF8E" d="M7.803.356c.493-.62 1.49-.28 1.502.512l.076 11.575H1.696c-1.41 0-2.196-1.628-1.32-2.733z"/></g><defs><linearGradient id="b" x1="9.289" x2="16.206" y1="9.462" y2="12.363" gradientUnits="userSpaceOnUse"><stop stop-color="#249361"/><stop offset="1" stop-color="#3ECF8E"/></linearGradient><linearGradient id="c" x1="6.222" x2="9.377" y1="5.263" y2="11.201" gradientUnits="userSpaceOnUse"><stop/><stop offset="1" stop-opacity="0"/></linearGradient><clipPath id="a"><path fill="#fff" d="M0 0h100v19.449H0z"/></clipPath></defs></svg>