<svg xmlns="http://www.w3.org/2000/svg" width="61.538" height="64" fill="none" viewBox="0 0 50 52"><g clip-path="url(#a)"><path fill="url(#b)" d="M29.223 50.589c-1.312 1.652-3.971.747-4.003-1.362l-.462-30.85H45.5c3.757 0 5.852 4.34 3.516 7.282L29.223 50.59Z"/><path fill="url(#c)" fill-opacity=".2" d="M29.223 50.589c-1.312 1.652-3.971.747-4.003-1.362l-.462-30.85H45.5c3.757 0 5.852 4.34 3.516 7.282L29.223 50.59Z"/><path fill="#3ecf8e" d="M20.784.95c1.312-1.652 3.971-.747 4.003 1.362l.203 30.85H4.506c-3.757 0-5.853-4.34-3.516-7.282z"/></g><defs><linearGradient id="b" x1="24.758" x2="43.194" y1="25.217" y2="32.949" gradientUnits="userSpaceOnUse"><stop stop-color="#249361"/><stop offset="1" stop-color="#3ecf8e"/></linearGradient><linearGradient id="c" x1="16.584" x2="24.992" y1="14.027" y2="29.854" gradientUnits="userSpaceOnUse"><stop/><stop offset="1" stop-opacity="0"/></linearGradient><clipPath id="a"><path fill="#fff" d="M0 0h50v51.835H0z"/></clipPath></defs></svg>