<svg xmlns="http://www.w3.org/2000/svg" width="62.745" height="64" fill="none" viewBox="0 0 50 51"><g clip-path="url(#a)"><path fill="#FFC158" d="M.008 25.03C.008 6.286 6.256.038 25.002.038c18.745 0 24.993 6.248 24.993 24.994 0 18.745-6.248 24.993-24.993 24.993C6.256 50.024.008 43.776.008 25.031Z"/><path fill="#fff" fill-rule="evenodd" d="m25.291 12.203-9.783 14.961a.714.714 0 0 0 .597 1.104h8.969l-1.661 9.07c-.14.767.873 1.172 1.3.52l9.782-14.961a.714.714 0 0 0-.597-1.104H24.929l1.661-9.07c.14-.767-.872-1.171-1.299-.52Z" clip-rule="evenodd"/></g><defs><clipPath id="a"><path fill="#fff" d="M0 0h50v50.061H0z"/></clipPath></defs></svg>