<svg xmlns="http://www.w3.org/2000/svg" width="304.762" height="64" fill="none" viewBox="0 0 100 21"><g clip-path="url(#a)"><path fill="#FFC158" d="M.031 10.105C.031 2.54 2.553.018 10.12.018c7.566 0 10.088 2.522 10.088 10.088 0 7.567-2.522 10.089-10.088 10.089C2.553 20.194.03 17.672.03 10.106Z"/><path fill="#FFFEFC" fill-rule="evenodd" d="m10.245 4.774-4.148 6.343a.303.303 0 0 0 .253.468h3.803l-.705 3.845c-.06.325.37.497.55.22l4.149-6.343a.303.303 0 0 0-.254-.468h-3.802l.704-3.845c.06-.325-.37-.497-.55-.22" clip-rule="evenodd"/><path fill="#0F0F0F" d="M32.348 4.636c-5.588 0-6.985 1.203-7.415 3.588-.408 2.386.623 3.374 5.395 3.374 2.794 0 3.589 0 3.46.688-.13.709-.924.709-2.923.709s-2.794 0-2.644-.795h-4.17c-.493 2.793.753 3.589 6.341 3.589s7.114-.796 7.608-3.59c.43-2.385-.795-3.394-5.588-3.394-2.794 0-3.589-.022-3.46-.688.13-.71.924-.71 2.923-.71 1.59 0 2.794 0 2.644.796h3.976c.43-2.45-.56-3.567-6.147-3.567m18.419.386-.92 5.18c-.35 1.998-1.927 2.793-3.547 2.793s-2.912-.795-2.54-2.794l.92-5.179h-4.466l-.942 5.18c-.722 3.975 1.423 5.587 5.08 5.587 2.846 0 4.685-1.204 4.685-1.204l.263.795h4.05l1.861-10.358zm14.515-.386c-2.846 0-4.27 1.203-4.27 1.203l.154-.795h-4.467l-2.715 15.15h4.467l1.007-5.587s1.007 1.203 3.854 1.203c3.656 0 6.7-1.203 7.487-5.587.766-4.406-1.86-5.587-5.517-5.587m1.03 5.565c-.351 1.999-1.928 2.794-3.548 2.794s-2.912-.795-2.54-2.794c.35-1.998 1.927-2.793 3.547-2.793s2.89.795 2.54 2.793Zm13.78-5.565c-4.861 0-7.773 1.504-8.495 5.48-.723 3.975 1.642 5.673 6.503 5.673 3.415 0 5.276-.602 7.028-2.15l-2.606-1.654c-.57.344-1.182 1.01-3.919 1.01-1.84 0-2.671-.688-2.627-2.085H86.44a8 8 0 0 0 .175-.795c.7-3.997-1.664-5.48-6.524-5.48Zm-3.679 4.276c.526-1.117 1.336-1.504 3.175-1.504 1.817 0 2.518.365 2.627 1.504zm16.496-3.095.153-.795h-4.467l-1.86 10.358H91.2l.788-4.384c.504-2.793 2.606-3.18 4.226-3.18 1.598 0 2.124.172 3.174.408l.57-3.18c-.57-.172-1.927-.408-3.175-.408-2.846 0-3.876 1.181-3.876 1.181Z"/></g><defs><clipPath id="a"><path fill="#fff" d="M0 0h100v20.216H0z"/></clipPath></defs></svg>