<svg xmlns="http://www.w3.org/2000/svg" width="400" height="64" fill="none" viewBox="0 0 100 16"><g fill="#00BF6F" fill-rule="evenodd" clip-path="url(#a)" clip-rule="evenodd"><path d="m22.898 11.346.832-.995c.752.656 1.505 1.028 2.482 1.028.854 0 1.393-.395 1.393-.994v-.023c0-.564-.314-.87-1.775-1.208-1.674-.407-2.617-.903-2.617-2.36V6.77c0-1.355 1.123-2.293 2.684-2.293 1.147 0 2.056.35 2.854.995l-.741 1.05c-.708-.53-1.416-.813-2.135-.813-.809 0-1.28.418-1.28.937v.023c0 .61.36.881 1.864 1.243 1.663.406 2.528 1.004 2.528 2.315v.023c0 1.48-1.157 2.36-2.808 2.36a4.83 4.83 0 0 1-3.28-1.264Zm6.996-1.017V6.534h1.36v3.388c0 .926.46 1.457 1.27 1.457.786 0 1.337-.553 1.337-1.479V6.534h1.359v5.964h-1.36v-.615c-.477.461-.932.739-1.853.739-1.337 0-2.112-.904-2.112-2.293Zm6.779-3.795h1.359v.993c.37-.892 1.056-1.152 2.1-1.107v1.212h-.078c-1.19 0-2.022.8-2.022 2.595v2.27h-1.36zm3.945 0h1.46l1.596 4.15 1.606-4.15h1.427l-2.427 6.009h-1.224zm10.491 2.564c-.09-.882-.606-1.57-1.505-1.57-.832 0-1.416.643-1.54 1.57zm-4.392.44v-.023c0-1.705 1.202-3.106 2.898-3.106 1.887 0 2.842 1.492 2.842 3.208 0 .124-.011.249-.022.384h-4.36c.147.972.832 1.514 1.708 1.514.663 0 1.135-.248 1.607-.712l.798.712c-.562.678-1.338 1.118-2.427 1.118-1.719 0-3.044-1.254-3.044-3.095m12.945-4.947h1.471l2.393 4.033 2.393-4.033h1.472v7.907h-1.382v-5.67l-2.483 4.021h-.045l-2.46-4v5.649h-1.36V4.59ZM73.33 9.549v-.022c0-1.05-.754-1.92-1.82-1.92-1.09 0-1.787.858-1.787 1.897v.023c0 1.04.753 1.92 1.809 1.92 1.101 0 1.798-.87 1.798-1.898m-4.966 0v-.022c0-1.706 1.348-3.118 3.168-3.118s3.157 1.39 3.157 3.095v.023c0 1.694-1.349 3.106-3.18 3.106-1.808 0-3.145-1.389-3.145-3.083Zm13.928-5.298h1.36v4.926l2.46-2.643h1.651l-2.358 2.428 2.437 3.536H86.27l-1.786-2.576-.832.87v1.706h-1.36V4.25Z"/><path d="M92.127 9.098c-.089-.882-.606-1.57-1.504-1.57-.832 0-1.416.643-1.54 1.57zm-4.392.44v-.023c0-1.705 1.203-3.106 2.899-3.106 1.887 0 2.842 1.491 2.842 3.208 0 .124-.011.248-.022.384h-4.36c.147.971.832 1.514 1.708 1.514.663 0 1.135-.249 1.607-.712l.797.712c-.562.677-1.336 1.118-2.426 1.118-1.719 0-3.045-1.254-3.045-3.095m-30.5-3.005L55.593 10.6l-1.63-4.067h-1.416l2.337 5.826-1.22 3.023h1.415l3.571-8.849zm41.015 0L96.607 10.6l-1.631-4.067H93.56l2.337 5.827-1.22 3.022h1.416l3.57-8.849zm-17.342 2.17v3.795h-1.36v-3.39c0-.925-.46-1.456-1.269-1.456-.785 0-1.336.554-1.336 1.48v3.366h-1.36V6.533h1.36v.615c.478-.461.932-.74 1.853-.74 1.337 0 2.112.905 2.112 2.294ZM17.701 11.09a.7.7 0 0 1-.466-.18c.042-.363.07-.73.075-1.102a.7.7 0 0 1 .39-.121.701.701 0 0 1 0 1.403Zm-15.382 0a.696.696 0 0 1-.698-.7c0-.388.314-.704.698-.704.144 0 .28.047.39.122.005.373.033.74.075 1.102a.7.7 0 0 1-.465.18m15.336-3.08a2.4 2.4 0 0 0-.566.072c-.695-2.764-2.952-4.903-5.773-5.408a6 6 0 0 0-.367-.056c.02-.692.053-1.493 1.066-2.213L11.855 0S9.88.617 9.652 2.315c-.099-.462-1.019-1.04-1.475-1.15l-.226.368s.604.304.75 1.142c-2.819.506-5.076 2.645-5.77 5.408a2.4 2.4 0 0 0-.567-.07A2.373 2.373 0 0 0 0 10.39a2.374 2.374 0 0 0 2.364 2.378c.306 0 .597-.062.864-.167.202.507.46.989.769 1.438l1.963-1.33-.017-.023c-.52-.67-.837-1.659-.89-2.642-.06-1.084.204-2.16.893-2.794 1.42-1.215 2.965-.661 3.934.504h.26c.968-1.165 2.514-1.719 3.934-.504.688.633.952 1.71.893 2.795-.053.982-.371 1.97-.89 2.641l-.017.022 1.963 1.33c.309-.448.566-.93.768-1.437.275.11.568.166.864.167a2.374 2.374 0 0 0 2.364-2.378c0-1.315-1.06-2.38-2.364-2.38"/></g><defs><clipPath id="a"><path fill="#fff" d="M0 0h100v15.814H0z"/></clipPath></defs></svg>