<svg xmlns="http://www.w3.org/2000/svg" width="91.429" height="64" fill="none" viewBox="0 0 50 35"><g clip-path="url(#a)"><path fill="#00BF6F" d="M44.1 19.9c-.476.002-.95.06-1.412.176A18.212 18.212 0 0 0 27.35 6.502c.054-1.72.133-3.708 2.664-5.496l-.4-1.008s-4.941 1.532-5.5 5.752c-.245-1.148-2.545-2.585-3.684-2.857l-.566.914s1.51.755 1.878 2.837A18.21 18.21 0 0 0 7.319 20.067a5.906 5.906 0 1 0 .745 11.23 18.11 18.11 0 0 0 1.918 3.569l4.904-3.304-.043-.054c-1.296-1.667-2.089-4.12-2.224-6.56-.146-2.696.51-5.369 2.23-6.941 3.547-3.019 7.413-1.642 9.825 1.25h.65c2.418-2.892 6.288-4.267 9.823-1.25 1.719 1.572 2.377 4.247 2.23 6.94-.132 2.442-.925 4.894-2.223 6.561l-.043.054 4.904 3.304a18.108 18.108 0 0 0 1.922-3.57A5.905 5.905 0 1 0 44.1 19.9ZM5.798 27.537a1.743 1.743 0 1 1 .977-3.185c.015.915.077 1.83.186 2.738-.32.293-.736.456-1.17.458l.007-.011Zm38.408 0a1.743 1.743 0 0 1-1.164-.45c.11-.908.172-1.822.187-2.737a1.74 1.74 0 0 1 2.718 1.444 1.737 1.737 0 0 1-1.739 1.754l-.002-.011Z"/></g><defs><clipPath id="a"><path fill="#fff" d="M0 0h50v34.875H0z"/></clipPath></defs></svg>