<svg xmlns="http://www.w3.org/2000/svg" width="186" height="64" fill="none" viewBox="0 0 93 32"><g clip-path="url(#a)"><path fill="#302F29" d="M56.313 11.205V9.057h9.555v2.148h-3.526V21h-2.42v-9.795h-3.61Zm12.03 9.96a3.4 3.4 0 0 1-1.47-.306 2.45 2.45 0 0 1-1.032-.883q-.38-.587-.38-1.42 0-1.405 1.049-2.132 1.048-.735 3.312-.76l1.065-.016v-.512q0-.586-.347-.9-.339-.323-1.057-.314a2.3 2.3 0 0 0-1.008.248q-.47.24-.644.834h-2.007q.05-.925.537-1.52.487-.603 1.322-.892.842-.297 1.907-.297 1.314 0 2.106.33.794.322 1.148.934.356.602.356 1.437V21h-2.016l-.198-1.47q-.438.924-1.098 1.28-.653.355-1.545.355m.81-1.586q.33 0 .635-.115.315-.124.554-.322a1.7 1.7 0 0 0 .396-.463q.15-.256.149-.528v-1.264l-.867.016a4.5 4.5 0 0 0-1.123.15 1.86 1.86 0 0 0-.843.437q-.314.306-.314.826 0 .594.413.933.414.33 1 .33m8.572 1.569q-.94 0-1.494-.223-.555-.223-.818-.586a1.95 1.95 0 0 1-.339-.817 6 6 0 0 1-.074-.917V8.727h2.362v9.58q0 .47.198.769.207.288.768.355l.405.024v1.487a5 5 0 0 1-.504.14 2 2 0 0 1-.504.066m4.805 0q-.941 0-1.495-.223-.553-.223-.817-.586a1.95 1.95 0 0 1-.339-.817 6 6 0 0 1-.074-.917V8.727h2.362v9.58q0 .47.198.769.207.288.768.355l.405.024v1.487a5 5 0 0 1-.504.14q-.256.066-.504.066m3.227 2.577q-.876 0-1.24-.148l-.354-.14V21.9l.842.033q.553.033.892-.058.339-.083.512-.223a.84.84 0 0 0 .256-.297q.074-.15.107-.24l.157-.47-3.32-8.185h2.387l2.048 5.567 2.073-5.567h2.354l-3.46 8.59q-.446 1.089-.942 1.668-.495.578-1.073.793-.57.214-1.24.214Z"/><path fill="#33125C" d="M17.237 30.715a.878.878 0 0 0 1.524 0L35.498 1.424A.878.878 0 0 0 34.736.11H1.262A.878.878 0 0 0 .5 1.424l16.737 29.29Z"/><path fill="#F81CE5" d="M25.898 8.341c0-.485.393-.878.878-.878h1.757c.484 0 .878.393.878.878v14.05a.88.88 0 0 1-.878.877h-1.757a.88.88 0 0 1-.878-.878z"/><path fill="#F81CE5" d="M34.685 13.61c.485 0 .878.393.878.878v1.756a.88.88 0 0 1-.878.878h-14.05a.88.88 0 0 1-.877-.878v-1.756c0-.485.393-.878.878-.878z"/></g><defs><clipPath id="a"><path fill="#fff" d="M0 0h93v32H0z"/></clipPath></defs></svg>