<svg xmlns="http://www.w3.org/2000/svg" width="72.727" height="64" fill="none" viewBox="0 0 50 44"><g clip-path="url(#a)"><path fill="#33125C" d="M23.94 42.66c.468.818 1.649.818 2.117 0L49.303 1.976a1.22 1.22 0 0 0-1.06-1.825H1.754a1.22 1.22 0 0 0-1.06 1.825L23.94 42.659Z"/><path fill="#F81CE5" d="M35.977 11.585c0-.673.546-1.22 1.22-1.22h2.438c.674 0 1.22.547 1.22 1.22v19.513a1.22 1.22 0 0 1-1.22 1.22h-2.439a1.22 1.22 0 0 1-1.22-1.22V11.585Z"/><path fill="#F81CE5" d="M48.17 18.902c.673 0 1.219.546 1.219 1.22v2.439a1.22 1.22 0 0 1-1.22 1.22H28.657a1.22 1.22 0 0 1-1.22-1.22v-2.439c0-.674.546-1.22 1.22-1.22h19.512Z"/></g><defs><clipPath id="a"><path fill="#fff" d="M0 0h50v43.293H0z"/></clipPath></defs></svg>