<svg xmlns="http://www.w3.org/2000/svg" width="186" height="64" fill="none" viewBox="0 0 93 32"><g clip-path="url(#a)"><path fill="#302F29" d="M56.313 11.205V9.057h9.555v2.148h-3.526V21h-2.42v-9.795h-3.61ZM68.343 21.165a3.426 3.426 0 0 1-1.47-.306 2.45 2.45 0 0 1-1.032-.883c-.253-.391-.38-.865-.38-1.42 0-.937.35-1.647 1.049-2.132.699-.49 1.803-.743 3.312-.76l1.065-.016v-.512c0-.39-.116-.691-.347-.9-.226-.215-.578-.32-1.057-.314a2.306 2.306 0 0 0-1.008.248c-.313.16-.528.437-.644.834h-2.007c.033-.617.212-1.123.537-1.52.325-.402.765-.7 1.322-.892.561-.198 1.197-.297 1.907-.297.876 0 1.578.11 2.106.33.529.215.912.526 1.148.934.237.402.356.88.356 1.437V21h-2.016l-.198-1.47c-.292.616-.658 1.043-1.098 1.28-.435.237-.95.355-1.545.355Zm.81-1.586c.22 0 .432-.038.635-.115.21-.083.394-.19.554-.322a1.74 1.74 0 0 0 .396-.463c.1-.17.149-.347.149-.528v-1.264l-.867.016a4.533 4.533 0 0 0-1.123.15 1.862 1.862 0 0 0-.843.437c-.21.204-.314.479-.314.826 0 .396.138.707.413.933.276.22.609.33 1 .33ZM77.725 21.148c-.627 0-1.125-.074-1.494-.223-.37-.148-.642-.344-.818-.586a1.946 1.946 0 0 1-.339-.817 5.674 5.674 0 0 1-.074-.917V8.727h2.362v9.58c0 .314.066.57.198.769.138.192.394.31.768.355l.405.024v1.487a5.221 5.221 0 0 1-.504.14 2.01 2.01 0 0 1-.504.066ZM82.53 21.148c-.627 0-1.126-.074-1.495-.223-.369-.148-.641-.344-.817-.586a1.945 1.945 0 0 1-.339-.817 5.663 5.663 0 0 1-.074-.917V8.727h2.362v9.58c0 .314.066.57.198.769.138.192.394.31.768.355l.405.024v1.487a5.223 5.223 0 0 1-.504.14c-.17.044-.339.066-.504.066ZM85.757 23.725c-.584 0-.997-.05-1.24-.148l-.354-.14V21.9l.842.033c.369.022.666.003.892-.058.226-.055.396-.13.512-.223a.843.843 0 0 0 .256-.297c.05-.1.085-.179.107-.24l.157-.47-3.32-8.185h2.387l2.048 5.567 2.073-5.567h2.354l-3.46 8.59c-.298.726-.611 1.282-.942 1.668-.33.385-.688.65-1.073.793-.38.143-.793.214-1.24.214Z"/><path fill="#33125C" d="M17.237 30.715a.878.878 0 0 0 1.524 0L35.498 1.424A.878.878 0 0 0 34.736.11H1.262A.878.878 0 0 0 .5 1.424l16.737 29.29Z"/><path fill="#F81CE5" d="M25.898 8.341c0-.485.393-.878.878-.878h1.757c.484 0 .878.393.878.878v14.05a.878.878 0 0 1-.878.877h-1.757a.878.878 0 0 1-.878-.878V8.341Z"/><path fill="#F81CE5" d="M34.685 13.61c.485 0 .878.393.878.878v1.756a.878.878 0 0 1-.878.878h-14.05a.878.878 0 0 1-.877-.878v-1.756c0-.485.393-.878.878-.878h14.049Z"/></g><defs><clipPath id="a"><path fill="#fff" d="M0 0h93v32H0z"/></clipPath></defs></svg>