<svg xmlns="http://www.w3.org/2000/svg" width="266.667" height="64" fill="none" viewBox="0 0 100 24"><g clip-path="url(#a)"><path fill="#364372" d="M40.075 14.362q0 .597-.34 1.006c-.226.271-.53.403-.927.403-.451 0-.799-.142-1.033-.42-.238-.283-.358-.729-.358-1.326v-3.162h3.792v-1.72h-3.792v-3.33l-1.95 1.272v2.058h-1.772v1.72h1.773v3.251c0 1.098.297 1.966.885 2.577.588.613 1.414.923 2.455.923.658 0 1.233-.146 1.707-.434a2.97 2.97 0 0 0 1.104-1.176 3.5 3.5 0 0 0 .388-1.642zm8.813.644c-.36.301-.736.534-1.118.69-.38.155-.755.234-1.11.234-.422 0-.752-.09-.982-.27a.83.83 0 0 1-.339-.695c0-.325.125-.572.382-.756q.392-.28 1.187-.28h2.471v.595a4.6 4.6 0 0 1-.491.482m.715-5.581c-.556-.293-1.248-.441-2.058-.441-.715 0-1.355.127-1.904.377-.55.252-1 .61-1.336 1.066a3.3 3.3 0 0 0-.614 1.606l1.948.019c.08-.43.288-.759.62-.979.337-.222.77-.335 1.286-.335.584 0 1.041.147 1.358.436.316.288.477.68.477 1.168v.097h-2.562c-1.095 0-1.96.237-2.571.704-.617.471-.923 1.12-.91 1.93.011.53.155.991.427 1.372.272.38.644.673 1.107.872.46.197.972.297 1.523.297s1.076-.112 1.567-.333a4.4 4.4 0 0 0 1.419-1v1.174h1.949v-5.042c0-.67-.149-1.268-.443-1.777a3.14 3.14 0 0 0-1.283-1.211m8.996-.441c-.717 0-1.381.185-1.973.55q-.676.417-1.137 1.182V9.143h-1.95v8.312h1.95v-3.199c0-.756.109-1.398.323-1.908.213-.506.512-.89.89-1.142a2.3 2.3 0 0 1 1.312-.38c.64 0 1.131.185 1.46.548.33.364.498.887.498 1.553v4.528h1.95v-5.007c0-1.123-.311-1.99-.923-2.579-.612-.587-1.42-.885-2.4-.885m11.079 6.468c-.385.223-.843.337-1.36.337a2.9 2.9 0 0 1-1.328-.304 2.2 2.2 0 0 1-.922-.87 2.6 2.6 0 0 1-.329-1.316c0-.506.11-.952.328-1.325q.329-.558.923-.861a2.9 2.9 0 0 1 1.328-.304c.518 0 .975.114 1.36.337.383.224.686.523.898.89.213.367.32.78.32 1.228v.07a2.42 2.42 0 0 1-1.218 2.117Zm1.218-8.917v3.805a3.4 3.4 0 0 0-1.124-.933c-.544-.28-1.176-.423-1.88-.423-.798 0-1.52.178-2.148.53a3.83 3.83 0 0 0-1.486 1.504c-.357.645-.54 1.412-.54 2.281 0 .857.182 1.618.54 2.263a3.9 3.9 0 0 0 1.486 1.512c.627.358 1.35.54 2.148.54.704 0 1.34-.149 1.89-.441a3.55 3.55 0 0 0 1.114-.932v1.214h1.95V5.263l-1.922 1.254zM99.25 10.55a2.8 2.8 0 0 0-1.122-1.169c-.475-.263-1.024-.397-1.634-.397-.789 0-1.507.212-2.135.63q-.661.442-1.064 1.28a2.86 2.86 0 0 0-.856-1.214c-.564-.462-1.25-.696-2.041-.696-.502 0-.98.087-1.423.261s-.84.46-1.176.85q-.181.21-.334.472V9.143h-1.95v8.312h1.95v-3.199c0-.757.094-1.4.28-1.91.183-.506.45-.89.793-1.141.342-.251.765-.378 1.257-.378.569 0 1.019.183 1.336.546.319.365.48.887.48 1.554v4.528h1.95v-3.199c0-.757.094-1.4.28-1.91.183-.506.45-.89.794-1.141.341-.251.765-.378 1.256-.378.57 0 1.019.183 1.336.546.319.365.48.887.48 1.554v4.528h1.95v-5.007c0-.75-.136-1.39-.406-1.898Zm-22.178 1.414c.206-.39.5-.701.872-.924.373-.224.812-.337 1.306-.337s.922.104 1.271.31q.526.31.81.836.152.28.224.608h-4.681q.075-.26.198-.493m4.52 2.796q-.133.248-.366.49a2.2 2.2 0 0 1-.732.473c-.304.126-.693.19-1.155.19-.53 0-.994-.114-1.378-.337a2.3 2.3 0 0 1-.889-.932 2.7 2.7 0 0 1-.247-.698h6.794v-.576c0-.81-.185-1.556-.549-2.219a4.14 4.14 0 0 0-1.528-1.583c-.651-.387-1.423-.584-2.292-.584-.822 0-1.58.187-2.254.557a4.4 4.4 0 0 0-1.626 1.527c-.406.645-.612 1.396-.612 2.231 0 .859.206 1.62.612 2.266a4.2 4.2 0 0 0 1.654 1.51c.69.358 1.475.54 2.332.54.809 0 1.515-.13 2.1-.387a3.85 3.85 0 0 0 1.43-1.045 3.44 3.44 0 0 0 .718-1.423z"/><path fill="#4341DC" d="M9.765 16.928 0 23.302V6.374L9.765 0z"/><path fill="#00B6B6" d="m25.53 16.928-9.764 6.374V6.374L25.53 0z"/></g><defs><clipPath id="a"><path fill="#fff" d="M0 0h100v23.529H0z"/></clipPath></defs></svg>