<svg xmlns="http://www.w3.org/2000/svg" width="266.667" height="64" fill="none" viewBox="0 0 100 24"><g clip-path="url(#a)"><path fill="#364372" d="M40.075 14.362c0 .397-.114.735-.34 1.006-.226.271-.53.403-.927.403-.451 0-.799-.142-1.033-.42-.238-.283-.358-.729-.358-1.326v-3.162h3.792v-1.72h-3.792v-3.33l-1.95 1.272v2.058h-1.772v1.72h1.773v3.251c0 1.098.297 1.966.885 2.577.588.613 1.414.923 2.455.923.658 0 1.233-.146 1.707-.434a2.974 2.974 0 0 0 1.104-1.176 3.495 3.495 0 0 0 .388-1.642h-1.932ZM48.888 15.006c-.36.301-.736.534-1.118.69-.38.155-.755.234-1.11.234-.422 0-.752-.09-.982-.27a.833.833 0 0 1-.339-.695c0-.325.125-.572.382-.756.26-.186.658-.28 1.187-.28h2.471v.595a4.572 4.572 0 0 1-.491.482Zm.715-5.581c-.556-.293-1.248-.441-2.058-.441-.715 0-1.355.127-1.904.377-.55.252-1 .61-1.336 1.066a3.323 3.323 0 0 0-.614 1.606l1.948.019c.08-.43.288-.759.62-.979.337-.222.77-.335 1.286-.335.584 0 1.041.147 1.358.436.316.288.477.68.477 1.168v.097h-2.562c-1.095 0-1.96.237-2.571.704-.617.471-.923 1.12-.91 1.93.011.53.155.991.427 1.372.272.38.644.673 1.107.872.46.197.972.297 1.523.297.55 0 1.076-.112 1.567-.333a4.404 4.404 0 0 0 1.419-1v1.174h1.949v-5.042c0-.67-.149-1.268-.443-1.777a3.136 3.136 0 0 0-1.283-1.211ZM58.599 8.984c-.717 0-1.381.185-1.973.55-.45.277-.83.673-1.137 1.182V9.143h-1.95v8.312h1.95v-3.199c0-.756.109-1.398.323-1.908.213-.506.512-.89.89-1.142.378-.252.819-.38 1.312-.38.64 0 1.131.185 1.46.548.33.364.498.887.498 1.553v4.528h1.95v-5.007c0-1.123-.311-1.99-.923-2.579-.612-.587-1.42-.885-2.4-.885ZM69.678 15.452c-.385.223-.843.337-1.36.337-.484 0-.931-.102-1.328-.304a2.186 2.186 0 0 1-.922-.87 2.595 2.595 0 0 1-.329-1.316c0-.506.11-.952.328-1.325.218-.371.528-.66.923-.861a2.905 2.905 0 0 1 1.328-.304c.518 0 .975.114 1.36.337.383.224.686.523.898.89.213.367.32.78.32 1.228v.07a2.42 2.42 0 0 1-1.218 2.117Zm1.218-8.917v3.805a3.424 3.424 0 0 0-1.124-.933c-.544-.28-1.176-.423-1.88-.423-.798 0-1.52.178-2.148.53a3.828 3.828 0 0 0-1.486 1.504c-.357.645-.54 1.412-.54 2.281 0 .857.182 1.618.54 2.263a3.887 3.887 0 0 0 1.486 1.512c.627.358 1.35.54 2.148.54.704 0 1.34-.149 1.89-.441a3.55 3.55 0 0 0 1.114-.932v1.214h1.95V5.263l-1.922 1.254-.028.018ZM99.25 10.55a2.806 2.806 0 0 0-1.122-1.169c-.475-.263-1.024-.397-1.634-.397-.789 0-1.507.212-2.135.63-.44.294-.796.722-1.064 1.28a2.859 2.859 0 0 0-.856-1.214c-.564-.462-1.25-.696-2.041-.696-.502 0-.98.087-1.423.261-.444.174-.84.46-1.176.85-.121.14-.232.298-.334.472V9.143h-1.95v8.312h1.95v-3.199c0-.757.094-1.4.28-1.91.183-.506.45-.89.793-1.141.342-.251.765-.378 1.257-.378.569 0 1.019.183 1.336.546.319.365.48.887.48 1.554v4.528h1.95v-3.199c0-.757.094-1.4.28-1.91.183-.506.45-.89.794-1.141.341-.251.765-.378 1.256-.378.57 0 1.019.183 1.336.546.319.365.48.887.48 1.554v4.528h1.95v-5.007c0-.75-.136-1.39-.406-1.898ZM77.072 11.964c.206-.39.5-.701.872-.924.373-.224.812-.337 1.306-.337s.922.104 1.271.31c.35.206.621.487.81.836.101.187.176.39.224.608h-4.681c.05-.173.116-.338.198-.493Zm4.52 2.796c-.09.165-.21.329-.366.49a2.168 2.168 0 0 1-.732.473c-.304.126-.693.19-1.155.19-.53 0-.994-.114-1.378-.337a2.284 2.284 0 0 1-.889-.932 2.69 2.69 0 0 1-.247-.698h6.794v-.576c0-.81-.185-1.556-.549-2.219a4.145 4.145 0 0 0-1.528-1.583c-.651-.387-1.423-.584-2.292-.584-.822 0-1.58.187-2.254.557-.674.37-1.221.884-1.626 1.527-.406.645-.612 1.396-.612 2.231 0 .859.206 1.62.612 2.266a4.204 4.204 0 0 0 1.654 1.51c.69.358 1.475.54 2.332.54.809 0 1.515-.13 2.1-.387a3.854 3.854 0 0 0 1.43-1.045 3.44 3.44 0 0 0 .718-1.423h-2.011Z"/><path fill="#4341DC" d="M9.765 16.928 0 23.302V6.374L9.765 0v16.928Z"/><path fill="#00B6B6" d="m25.53 16.928-9.764 6.374V6.374L25.53 0v16.928Z"/></g><defs><clipPath id="a"><path fill="#fff" d="M0 0h100v23.529H0z"/></clipPath></defs></svg>