<svg xmlns="http://www.w3.org/2000/svg" width="256" height="64" fill="none" viewBox="0 0 100 25"><g clip-path="url(#a)"><mask id="b" width="25" height="25" x="0" y="0" maskUnits="userSpaceOnUse" style="mask-type:alpha"><path fill="#fff" fill-rule="evenodd" d="M12.5 25C19.404 25 25 19.404 25 12.5S19.404 0 12.5 0 0 5.596 0 12.5 5.596 25 12.5 25Z" clip-rule="evenodd"/></mask><g mask="url(#b)"><path fill="#F64942" d="M28.998-.662H-2.57v19.265h31.568V-.662Z"/><path fill="#F4CE45" d="M5.51 20.423c-1.6-3.14-.056-6.94 4.121-7.962 12.136-1.982 10.316-5.74 14.033-7.08 6.916-2.493 5.167 6.183 3.776 8.609s1.903 7.028-2.819 7.363c-2.972.21-3.838-1.464-9.076.697-2.694 1.112-2.852.866-5.65-.035l-2.393-1.21-1.991-.381Z"/><path fill="#5B95BF" d="M11.836-2.417c-3.227.43-19.737 3.905-20.914 4.442l2.871 16.298c1.724-.167 4.923 1.55 4.923-.868 0-2.345.476-3.345 2.093-6.156 2.378-4.13 7.64-4.061 9.474-4.15 4.338-.213 9.083-1.6 11.507-5.122 8.309-12.066.425-7.306-9.954-4.444Z"/><path fill="#EF90A4" d="M8.351 16.51c-3.363.01-6.91 1.047-10.148 2.263l1.272 13.77c8.813-1.103 24.655-3.74 25.64-5.41 1.143-1.937-.467-3.23 2.852-4.994 2.655-1.412 5.596-6.994-.666-7.057-3.467.028-4.354.747-7.059 1.762-4.457 1.672-9.314-.342-11.89-.334Z"/><path fill="#fff" fill-rule="evenodd" d="M12.602 4.044c.429 0 .797.258.958.627a.095.095 0 0 0 .126.049.091.091 0 0 0 .032-.024 1.047 1.047 0 0 1 1.58-.026c.136.152.225.34.254.542a.093.093 0 0 0 .056.072.094.094 0 0 0 .09-.01 1.047 1.047 0 0 1 1.381.16 1.044 1.044 0 0 1 .257.815.094.094 0 0 0 .079.101.095.095 0 0 0 .046-.004 1.046 1.046 0 0 1 1.33 1.365.095.095 0 0 0 .05.119c.014.006.03.009.046.008a1.044 1.044 0 0 1 .931 1.662.094.094 0 0 0-.01.09.094.094 0 0 0 .07.058 1.045 1.045 0 0 1 .47 1.847.094.094 0 0 0 .02.158 1.044 1.044 0 0 1-.023 1.905c-.063.028-.078.113-.025.158a1.044 1.044 0 0 1-.517 1.835.095.095 0 0 0-.062.146 1.045 1.045 0 0 1-.984 1.637.095.095 0 0 0-.087.126 1.043 1.043 0 0 1-1.365 1.33.092.092 0 0 0-.07.003.096.096 0 0 0-.057.093 1.044 1.044 0 0 1-1.663.932.09.09 0 0 0-.053-.018.095.095 0 0 0-.094.077 1.045 1.045 0 0 1-1.847.47.09.09 0 0 0-.072-.035.095.095 0 0 0-.086.054 1.045 1.045 0 0 1-1.905-.023.096.096 0 0 0-.126-.049.09.09 0 0 0-.031.024 1.046 1.046 0 0 1-1.835-.516.094.094 0 0 0-.146-.062 1.038 1.038 0 0 1-1.123.05 1.044 1.044 0 0 1-.515-1.024.094.094 0 0 0-.126-.098 1.04 1.04 0 0 1-1.38-.77c-.042-.199-.024-.406.05-.595a.094.094 0 0 0-.095-.127 1.043 1.043 0 0 1-.931-1.662.095.095 0 0 0-.017-.128.096.096 0 0 0-.043-.02 1.044 1.044 0 0 1-.47-1.847.094.094 0 0 0-.019-.158 1.045 1.045 0 0 1 .023-1.905.095.095 0 0 0 .055-.072.095.095 0 0 0-.03-.085 1.045 1.045 0 0 1 .516-1.835.095.095 0 0 0 .062-.146 1.044 1.044 0 0 1 .984-1.638.094.094 0 0 0 .088-.125 1.045 1.045 0 0 1 1.365-1.33.095.095 0 0 0 .126-.096 1.044 1.044 0 0 1 1.663-.932.093.093 0 0 0 .115-.004.095.095 0 0 0 .033-.056 1.044 1.044 0 0 1 1.847-.47.088.088 0 0 0 .071.035.094.094 0 0 0 .086-.053c.167-.357.528-.605.947-.605Z" clip-rule="evenodd"/><path fill="#000" fill-rule="evenodd" d="M16.393 16.602c-.941 0-.868-1.329 0-1.329s.942 1.33 0 1.33Zm-7.78 0c-.942 0-.869-1.329 0-1.329.867 0 .941 1.33 0 1.33Zm10.625-4.91h-.319a1.406 1.406 0 0 1-1.283-.833 1.406 1.406 0 0 1-2.566 0 1.407 1.407 0 0 1-2.567 0 1.407 1.407 0 0 1-2.566 0 1.406 1.406 0 0 1-2.567 0 1.406 1.406 0 0 1-1.283.832H5.77c-.478.515-.174.95 1.007.95v2.643c0 2.485 2.861 3.727 5.722 3.727s5.722-1.242 5.722-3.726v-2.644c1.183 0 1.49-.435 1.016-.95Z" clip-rule="evenodd"/><path fill="#000" fill-rule="evenodd" d="M12.592 3.186c-.419 0-.82.131-1.153.363a2.025 2.025 0 0 0-2.282.58 2.024 2.024 0 0 0-2.052 1.15A2.024 2.024 0 0 0 5.42 6.925a2.026 2.026 0 0 0-.94.84c-.206.357-.297.77-.262 1.181a2.022 2.022 0 0 0-.638 2.265 2.023 2.023 0 0 0-.03 2.352 2.023 2.023 0 0 0 .58 2.28 2.022 2.022 0 0 0 1.15 2.054 2.024 2.024 0 0 0 1.643 1.686 2.023 2.023 0 0 0 2.023 1.202 2.023 2.023 0 0 0 2.266.638 2.023 2.023 0 0 0 2.35.03 2.021 2.021 0 0 0 2.281-.581 2.026 2.026 0 0 0 2.052-1.15 2.023 2.023 0 0 0 1.685-1.644 2.023 2.023 0 0 0 1.202-2.021 2.022 2.022 0 0 0 .639-2.266 2.023 2.023 0 0 0 .03-2.353 2.023 2.023 0 0 0-.58-2.28 2.02 2.02 0 0 0-1.15-2.053 2.022 2.022 0 0 0-1.644-1.686 2.021 2.021 0 0 0-2.023-1.203 2.023 2.023 0 0 0-2.265-.637 2.022 2.022 0 0 0-1.197-.392Zm0 .998c.421 0 .782.254.94.617a.095.095 0 0 0 .125.047.089.089 0 0 0 .031-.023 1.03 1.03 0 0 1 1.054-.334c.407.11.69.45.749.842a.092.092 0 0 0 .143.06 1.03 1.03 0 0 1 1.011-.096 1.028 1.028 0 0 1 .599 1.053.094.094 0 0 0 .035.082.093.093 0 0 0 .088.015 1.022 1.022 0 0 1 1.078.238c.298.298.374.734.23 1.103a.092.092 0 0 0 .012.088.093.093 0 0 0 .08.037 1.025 1.025 0 0 1 .916 1.633.093.093 0 0 0 .017.125c.012.01.026.017.042.02a1.026 1.026 0 0 1 .46 1.815.094.094 0 0 0-.032.082.093.093 0 0 0 .052.073 1.026 1.026 0 0 1-.022 1.872.092.092 0 0 0-.024.154 1.026 1.026 0 0 1-.508 1.803.093.093 0 0 0-.06.144 1.026 1.026 0 0 1-.968 1.609.092.092 0 0 0-.09.08c-.003.015-.001.03.003.043a1.026 1.026 0 0 1-1.34 1.308.084.084 0 0 0-.033-.007.093.093 0 0 0-.092.1 1.026 1.026 0 0 1-1.634.916.088.088 0 0 0-.052-.018.093.093 0 0 0-.092.076 1.026 1.026 0 0 1-1.815.461.09.09 0 0 0-.071-.033.091.091 0 0 0-.084.052 1.026 1.026 0 0 1-1.872-.022.094.094 0 0 0-.124-.048.088.088 0 0 0-.031.024 1.029 1.029 0 0 1-1.553.025 1.027 1.027 0 0 1-.25-.532.093.093 0 0 0-.143-.062 1.033 1.033 0 0 1-1.011.096 1.029 1.029 0 0 1-.599-1.053.093.093 0 0 0-.123-.096 1.021 1.021 0 0 1-1.078-.238 1.027 1.027 0 0 1-.229-1.103.092.092 0 0 0-.094-.125 1.026 1.026 0 0 1-.915-1.634.093.093 0 0 0-.059-.144 1.026 1.026 0 0 1-.46-1.815.093.093 0 0 0-.02-.155 1.027 1.027 0 0 1 .023-1.871c.062-.028.076-.112.024-.155a1.027 1.027 0 0 1 .507-1.804.094.094 0 0 0 .07-.055.093.093 0 0 0-.008-.088 1.026 1.026 0 0 1 .967-1.61.093.093 0 0 0 .086-.122 1.027 1.027 0 0 1 1.34-1.307.088.088 0 0 0 .07-.003.094.094 0 0 0 .055-.091 1.026 1.026 0 0 1 1.634-.916.093.093 0 0 0 .145-.058 1.026 1.026 0 0 1 1.815-.462.09.09 0 0 0 .07.034.092.092 0 0 0 .084-.052c.164-.351.519-.595.931-.595Z" clip-rule="evenodd"/></g><path fill="#000" fill-rule="evenodd" d="M36.958 17.275a.788.788 0 0 1 .214.57.697.697 0 0 1-.283.572c-.188.148-.43.222-.727.222h-.308a2.978 2.978 0 0 1-2.619-1.507 3.146 3.146 0 0 1-.393-1.57v-3.918h-.788c-.24 0-.433-.064-.581-.191a.6.6 0 0 1-.223-.476c0-.212.075-.38.223-.507.148-.127.342-.19.581-.19h.788V7.994c0-.232.08-.423.24-.571a.869.869 0 0 1 .616-.222c.25 0 .456.074.616.222.16.148.239.338.239.571v2.284h1.455c.24 0 .434.064.582.19a.633.633 0 0 1 .223.508c0 .19-.075.35-.223.477-.149.126-.342.19-.582.19h-1.454v3.917c0 .424.125.778.376 1.063.252.286.56.429.924.429h.582c.206 0 .38.074.522.222Zm8.814-6.798c.695.37 1.28.917 1.694 1.587a4.17 4.17 0 0 1 .625 2.244v3.538a.76.76 0 0 1-.248.579.885.885 0 0 1-.625.23.887.887 0 0 1-.625-.23.754.754 0 0 1-.248-.58v-.586a4.158 4.158 0 0 1-1.454 1.062 4.495 4.495 0 0 1-1.849.381c-.821 0-1.566-.19-2.234-.571a4.144 4.144 0 0 1-1.574-1.578 4.457 4.457 0 0 1-.573-2.244c0-.826.205-1.574.616-2.245.41-.672.978-1.2 1.703-1.587a5.037 5.037 0 0 1 2.405-.579c.878 0 1.674.194 2.387.58Zm-.84 6.41c.453-.25.829-.617 1.088-1.064.262-.45.394-.954.394-1.515a2.99 2.99 0 0 0-.394-1.522 2.829 2.829 0 0 0-1.087-1.072 3.12 3.12 0 0 0-1.548-.388c-.571 0-1.087.13-1.55.389a2.891 2.891 0 0 0-1.095 1.07 2.938 2.938 0 0 0-.402 1.523 2.902 2.902 0 0 0 1.497 2.578c.463.26.979.389 1.55.389.57 0 1.087-.13 1.548-.389Zm6.804 1.482c-.684-.222-1.22-.512-1.608-.872a.648.648 0 0 1-.223-.492c0-.254.114-.46.343-.619.216-.148.416-.222.599-.222.227 0 .445.095.65.286.217.222.542.415.975.58.444.165.914.248 1.387.245.65 0 1.155-.101 1.514-.302.36-.2.54-.47.54-.809 0-.327-.177-.6-.531-.816-.354-.218-.953-.4-1.797-.548-2.19-.391-3.286-1.226-3.286-2.506 0-.518.165-.957.496-1.317.331-.36.765-.63 1.3-.81a5.347 5.347 0 0 1 1.712-.269c.742 0 1.407.111 1.994.334.588.222 1.053.528 1.395.92.149.169.223.338.223.508 0 .18-.097.343-.292.491a.84.84 0 0 1-.479.127 1.22 1.22 0 0 1-.804-.301 2.598 2.598 0 0 0-.907-.516c-.32-.1-.708-.15-1.164-.15-.525 0-.956.081-1.292.245-.337.164-.505.394-.505.69 0 .212.057.388.171.531.114.143.331.275.65.397.32.122.782.24 1.387.357 1.244.233 2.125.555 2.644.968.52.412.779.946.779 1.602 0 .486-.143.928-.428 1.325-.285.396-.705.708-1.258.935-.554.228-1.218.341-1.994.341a7.056 7.056 0 0 1-2.19-.333Zm15.164-.396c0 .232-.102.428-.308.587a.903.903 0 0 1-.548.19.769.769 0 0 1-.616-.286l-3.252-3.727-.855.697v2.428c0 .232-.078.42-.231.563-.154.143-.357.214-.608.214s-.453-.071-.608-.214a.732.732 0 0 1-.23-.563V7.027c0-.232.076-.42.23-.563.155-.143.357-.214.608-.214s.454.071.608.214c.153.143.23.33.23.563v6.456l4.16-3.442a.755.755 0 0 1 .53-.206c.24 0 .433.085.582.254a.649.649 0 0 1 .222.491.645.645 0 0 1-.273.54l-3.15 2.601 3.32 3.776a.65.65 0 0 1 .189.476Zm8.087-7.496c.695.37 1.28.917 1.694 1.587.417.671.625 1.42.625 2.244v3.538a.757.757 0 0 1-.248.579.885.885 0 0 1-.625.23.885.885 0 0 1-.625-.23.762.762 0 0 1-.248-.58v-.586a4.16 4.16 0 0 1-1.455 1.062 4.492 4.492 0 0 1-1.848.381c-.821 0-1.566-.19-2.234-.571a4.146 4.146 0 0 1-1.574-1.578 4.457 4.457 0 0 1-.573-2.244c0-.826.205-1.574.616-2.245.41-.672.978-1.2 1.703-1.587a5.036 5.036 0 0 1 2.404-.579c.879 0 1.675.194 2.388.58Zm-.839 6.41c.452-.25.828-.617 1.087-1.064.263-.45.394-.954.394-1.515a2.99 2.99 0 0 0-.394-1.522 2.829 2.829 0 0 0-1.087-1.072 3.12 3.12 0 0 0-1.549-.388c-.57 0-1.087.13-1.548.389a2.893 2.893 0 0 0-1.096 1.07 2.943 2.943 0 0 0-.402 1.523 2.901 2.901 0 0 0 1.498 2.578c.462.26.978.389 1.548.389.57 0 1.087-.13 1.55-.389Zm14.3-10.415c.16.148.239.344.239.587v7.233a4.17 4.17 0 0 1-.624 2.245c-.415.67-1 1.217-1.695 1.586-.713.386-1.51.58-2.388.58-.878 0-1.68-.194-2.404-.58a4.344 4.344 0 0 1-1.703-1.586 4.216 4.216 0 0 1-.616-2.244c0-.825.191-1.573.573-2.245.371-.66.916-1.206 1.575-1.578.667-.381 1.412-.572 2.233-.572.662 0 1.278.128 1.849.381a4.161 4.161 0 0 1 1.455 1.063V7.06a.75.75 0 0 1 .248-.587.9.9 0 0 1 .624-.222c.263 0 .474.074.634.222Zm-2.919 10.414c.454-.25.83-.621 1.087-1.071.263-.454.394-.962.394-1.523 0-.56-.131-1.065-.394-1.515a2.843 2.843 0 0 0-1.087-1.062 3.106 3.106 0 0 0-1.549-.389c-.57 0-1.086.13-1.548.389-.453.25-.831.617-1.096 1.062-.267.45-.402.955-.402 1.515 0 .561.135 1.069.402 1.524.263.448.64.818 1.096 1.07.462.26.978.389 1.548.389.571 0 1.087-.13 1.55-.389Zm14.248-2.22a.817.817 0 0 1-.564.198h-6.504c.126.74.488 1.337 1.087 1.792.599.455 1.332.682 2.2.682a3.578 3.578 0 0 0 1.069-.174c.37-.116.676-.26.915-.429a.934.934 0 0 1 .565-.174c.217 0 .388.053.514.159.205.158.308.338.308.539 0 .19-.091.349-.274.476-.388.286-.87.518-1.446.698-.577.18-1.127.27-1.652.27-.936 0-1.774-.188-2.516-.564a4.27 4.27 0 0 1-1.737-1.562c-.416-.667-.625-1.423-.625-2.268 0-.846.197-1.605.59-2.277a4.117 4.117 0 0 1 1.644-1.57c.701-.376 1.497-.564 2.388-.564.878 0 1.637.18 2.276.54a3.67 3.67 0 0 1 1.471 1.507c.343.645.514 1.385.514 2.22a.642.642 0 0 1-.223.5Zm-6.067-2.768c-.519.422-.847.988-.984 1.696h5.7c-.103-.708-.389-1.274-.856-1.696-.468-.424-1.078-.636-1.831-.636-.834 0-1.51.212-2.029.635Z" clip-rule="evenodd"/></g><defs><clipPath id="a"><path fill="#fff" d="M0 0h100v25H0z"/></clipPath></defs></svg>