<svg xmlns="http://www.w3.org/2000/svg" width="64" height="64" fill="none" viewBox="0 0 50 50"><g clip-path="url(#a)"><mask id="b" width="50" height="50" x="0" y="0" maskUnits="userSpaceOnUse" style="mask-type:alpha"><path fill="#fff" fill-rule="evenodd" d="M25 50c13.807 0 25-11.193 25-25S38.807 0 25 0 0 11.193 0 25s11.193 25 25 25Z" clip-rule="evenodd"/></mask><g mask="url(#b)"><path fill="#F64942" d="M57.989-1.324H-5.148v38.53h63.136v-38.53Z"/><path fill="#F4CE45" d="M11.013 40.846c-3.202-6.278-.113-13.88 8.242-15.923 24.27-3.965 20.631-11.481 28.066-14.161 13.83-4.986 10.333 12.366 7.55 17.218-2.781 4.852 3.808 14.056-5.636 14.726-5.944.42-7.676-2.929-18.154 1.395-5.388 2.224-5.702 1.732-11.297-.071l-4.788-2.42-3.983-.763Z"/><path fill="#5B95BF" d="M23.671-4.833c-6.452.86-39.474 7.81-41.827 8.884l5.743 32.595c3.447-.333 9.845 3.1 9.845-1.735 0-4.69.951-6.69 4.187-12.314 4.755-8.259 15.28-8.12 18.947-8.3 8.675-.425 18.166-3.2 23.015-10.244 16.616-24.13.848-14.61-19.91-8.886Z"/><path fill="#EF90A4" d="M16.703 33.02c-6.727.02-13.82 2.094-20.297 4.526l2.543 27.54c17.627-2.206 49.312-7.479 51.282-10.82 2.285-3.874-.934-6.459 5.704-9.989 5.31-2.822 11.19-13.988-1.332-14.113-6.935.056-8.71 1.494-14.118 3.524-8.915 3.344-18.629-.683-23.782-.668Z"/><path fill="#fff" fill-rule="evenodd" d="M25.205 8.088a2.09 2.09 0 0 1 1.915 1.255.19.19 0 0 0 .253.097.18.18 0 0 0 .063-.048 2.095 2.095 0 0 1 2.142-.679 2.089 2.089 0 0 1 1.527 1.712.187.187 0 0 0 .293.124 2.094 2.094 0 0 1 2.056-.196 2.09 2.09 0 0 1 1.218 2.145.19.19 0 0 0 .25.195 2.092 2.092 0 0 1 2.66 2.731.192.192 0 0 0 .029.177.19.19 0 0 0 .163.075 2.089 2.089 0 0 1 2.272 2.213 2.085 2.085 0 0 1-.41 1.112.19.19 0 0 0 .035.256c.025.02.054.034.085.04a2.09 2.09 0 0 1 .94 3.693.19.19 0 0 0-.033.256.19.19 0 0 0 .071.06 2.089 2.089 0 0 1-.045 3.81c-.126.055-.155.227-.049.316a2.09 2.09 0 0 1-1.033 3.67.189.189 0 0 0-.125.292 2.09 2.09 0 0 1-1.968 3.275.19.19 0 0 0-.184.163.19.19 0 0 0 .01.088 2.087 2.087 0 0 1-2.73 2.66.183.183 0 0 0-.142.006.19.19 0 0 0-.112.185 2.09 2.09 0 0 1-3.325 1.865.18.18 0 0 0-.107-.036.19.19 0 0 0-.188.155 2.088 2.088 0 0 1-3.694.938.183.183 0 0 0-.143-.068.187.187 0 0 0-.173.107 2.09 2.09 0 0 1-3.81-.045.19.19 0 0 0-.252-.098.183.183 0 0 0-.063.048 2.094 2.094 0 0 1-2.143.678 2.088 2.088 0 0 1-1.526-1.71.189.189 0 0 0-.293-.125 2.075 2.075 0 0 1-2.245.1 2.089 2.089 0 0 1-1.031-2.048.189.189 0 0 0-.25-.196 2.08 2.08 0 0 1-2.195-.485 2.09 2.09 0 0 1-.464-2.245.19.19 0 0 0-.191-.254 2.087 2.087 0 0 1-1.863-3.325.189.189 0 0 0-.12-.295 2.089 2.089 0 0 1-.94-3.694.19.19 0 0 0-.038-.316 2.089 2.089 0 0 1 .046-3.809.19.19 0 0 0 .101-.238.19.19 0 0 0-.053-.078 2.09 2.09 0 0 1 1.034-3.67.19.19 0 0 0 .125-.291 2.088 2.088 0 0 1 1.968-3.277.188.188 0 0 0 .175-.25 2.09 2.09 0 0 1 2.73-2.66.192.192 0 0 0 .177-.028.191.191 0 0 0 .076-.163 2.087 2.087 0 0 1 2.213-2.27 2.09 2.09 0 0 1 1.112.406.186.186 0 0 0 .229-.008.19.19 0 0 0 .066-.111 2.09 2.09 0 0 1 3.694-.94c.036.048.09.07.143.07a.188.188 0 0 0 .173-.107 2.09 2.09 0 0 1 1.894-1.21Z" clip-rule="evenodd"/><path fill="#000" fill-rule="evenodd" d="M32.779 33.205c-1.884 0-1.736-2.659 0-2.659 1.735 0 1.883 2.659 0 2.659Zm-15.562 0c-1.883 0-1.736-2.659 0-2.659s1.883 2.659 0 2.659Zm21.252-9.822h-.638a2.812 2.812 0 0 1-2.567-1.664 2.813 2.813 0 0 1-5.133 0 2.813 2.813 0 0 1-5.132 0 2.813 2.813 0 0 1-5.133 0 2.812 2.812 0 0 1-5.134 0 2.81 2.81 0 0 1-2.566 1.663h-.631c-.956 1.03-.35 1.9 2.014 1.9v5.287c0 4.969 5.721 7.454 11.443 7.454 5.723 0 11.444-2.485 11.444-7.453v-5.288c2.365 0 2.982-.869 2.033-1.9v.001Z" clip-rule="evenodd"/><path fill="#000" fill-rule="evenodd" d="M25.184 6.372c-.838 0-1.64.262-2.306.725a4.05 4.05 0 0 0-4.564 1.162 4.049 4.049 0 0 0-4.105 2.3 4.048 4.048 0 0 0-3.37 3.288 4.053 4.053 0 0 0-1.878 1.68 4.048 4.048 0 0 0-.525 2.363 4.044 4.044 0 0 0-1.277 4.53 4.045 4.045 0 0 0-.06 4.705 4.045 4.045 0 0 0 1.16 4.56 4.045 4.045 0 0 0 2.302 4.108 4.048 4.048 0 0 0 3.285 3.372 4.044 4.044 0 0 0 4.047 2.404 4.045 4.045 0 0 0 4.532 1.275 4.045 4.045 0 0 0 4.699.06 4.044 4.044 0 0 0 4.563-1.163 4.008 4.008 0 0 0 2.469-.517 4.05 4.05 0 0 0 1.636-1.783 4.046 4.046 0 0 0 3.37-3.288 4.055 4.055 0 0 0 1.878-1.68c.413-.716.596-1.54.527-2.362a4.042 4.042 0 0 0 1.275-4.53 4.045 4.045 0 0 0 .06-4.706 4.047 4.047 0 0 0-1.16-4.56 4.041 4.041 0 0 0-2.3-4.107 4.044 4.044 0 0 0-1.14-2.25 4.017 4.017 0 0 0-2.147-1.123 4.043 4.043 0 0 0-4.047-2.404 4.044 4.044 0 0 0-4.53-1.274 4.044 4.044 0 0 0-2.394-.785Zm0 1.997c.842 0 1.565.508 1.881 1.233a.19.19 0 0 0 .174.112.178.178 0 0 0 .137-.064 2.058 2.058 0 0 1 2.107-.667 2.056 2.056 0 0 1 1.499 1.682.186.186 0 0 0 .2.155.185.185 0 0 0 .087-.032 2.061 2.061 0 0 1 2.022-.194 2.054 2.054 0 0 1 1.197 2.107.186.186 0 0 0 .246.193 2.044 2.044 0 0 1 2.156.476c.597.596.748 1.468.459 2.206a.184.184 0 0 0 .025.176.184.184 0 0 0 .162.074 2.05 2.05 0 0 1 1.83 3.267.186.186 0 0 0 .117.289 2.051 2.051 0 0 1 .923 3.63.186.186 0 0 0 .038.31 2.052 2.052 0 0 1-.044 3.743.183.183 0 0 0-.101.234c.01.029.028.055.052.076a2.052 2.052 0 0 1-1.015 3.606.186.186 0 0 0-.122.287 2.053 2.053 0 0 1-1.934 3.218.184.184 0 0 0-.15.079.186.186 0 0 0-.023.168 2.05 2.05 0 0 1-2.682 2.614.169.169 0 0 0-.138.003.186.186 0 0 0-.11.184 2.051 2.051 0 0 1-3.269 1.831.176.176 0 0 0-.105-.035.186.186 0 0 0-.184.152 2.052 2.052 0 0 1-3.63.922.178.178 0 0 0-.142-.066.183.183 0 0 0-.167.103 2.052 2.052 0 0 1-3.743-.042.187.187 0 0 0-.25-.097.175.175 0 0 0-.06.048 2.06 2.06 0 0 1-2.108.666 2.053 2.053 0 0 1-1.498-1.68.185.185 0 0 0-.288-.123 2.051 2.051 0 0 1-3.219-1.915.187.187 0 0 0-.071-.162.185.185 0 0 0-.174-.03 2.043 2.043 0 0 1-2.157-.475 2.055 2.055 0 0 1-.457-2.207.185.185 0 0 0-.188-.25 2.051 2.051 0 0 1-1.831-3.267.186.186 0 0 0-.117-.29 2.052 2.052 0 0 1-.923-3.63.186.186 0 0 0-.037-.309 2.053 2.053 0 0 1 .045-3.742c.123-.055.152-.224.047-.31a2.052 2.052 0 0 1 1.016-3.607.187.187 0 0 0 .138-.11.185.185 0 0 0-.016-.176 2.052 2.052 0 0 1 1.935-3.219.186.186 0 0 0 .171-.246 2.055 2.055 0 0 1 2.682-2.615.176.176 0 0 0 .139-.004.188.188 0 0 0 .11-.184 2.053 2.053 0 0 1 3.268-1.83.186.186 0 0 0 .29-.117 2.053 2.053 0 0 1 3.63-.923.178.178 0 0 0 .14.068.183.183 0 0 0 .169-.105 2.053 2.053 0 0 1 1.861-1.19Z" clip-rule="evenodd"/></g></g><defs><clipPath id="a"><path fill="#fff" d="M0 0h50v50H0z"/></clipPath></defs></svg>