<svg xmlns="http://www.w3.org/2000/svg" width="64" height="64" fill="none" viewBox="0 0 32 32"><path fill="#000" d="M0 16c0 5.514 7.178 10 16 10s16-4.486 16-10S24.822 6 16 6 0 10.486 0 16m.491 0c0-5.243 6.957-9.51 15.509-9.51S31.509 10.757 31.509 16 24.552 25.51 16 25.51.491 21.244.491 16"/><path fill="#000" d="M14.488 7.818c-3.745.228-6.465 1.22-6.928 2.526q-.071.199-.072.41c0 .22.062.44.186.651.52.885 2.133 1.614 4.429 2.005l.243.04.04-.242c.377-2.296 1.205-4.102 2.27-4.954l.605-.484zm-6.39 3.34a.73.73 0 0 1-.075-.65c.353-.998 2.757-1.87 5.828-2.15-.876.99-1.55 2.584-1.9 4.522-1.996-.369-3.431-1.004-3.853-1.722m5.705 2.196-.048.267.271.02a26.6 26.6 0 0 0 3.948 0l.27-.02-.048-.267c-.37-2.071-1.191-3.31-2.196-3.31s-1.827 1.239-2.197 3.31M16 10.535c.687 0 1.321 1.028 1.656 2.633-.544.035-1.097.057-1.657.057-.558 0-1.112-.022-1.655-.057.334-1.605.969-2.633 1.656-2.633m1.343-2.281c1.065.852 1.893 2.658 2.27 4.954l.04.242.243-.04c2.297-.39 3.911-1.12 4.429-2.005.201-.34.24-.707.115-1.06-.463-1.307-3.184-2.298-6.928-2.527l-.772-.048zm.806.104c3.07.28 5.474 1.154 5.827 2.15q.046.123.045.248 0 .198-.118.402c-.423.718-1.859 1.353-3.854 1.722-.35-1.937-1.023-3.532-1.9-4.522M5.19 11.306c-1.683 1.409-2.572 3.081-2.572 4.839 0 4.134 5.047 7.63 11.74 8.127l.747.056-.569-.485c-1.466-1.253-2.377-4.226-2.377-7.759l.016-.835-.206-.041c-3.52-.63-6.024-2.109-6.38-3.765l-.086-.397zm-2.08 4.839c0-1.507.735-2.953 2.117-4.21.644 1.673 3.05 3.067 6.45 3.715l-.008.434c0 3.276.778 6.105 2.062 7.631-6.098-.65-10.622-3.831-10.622-7.57m10.494-.442-.002.09c0 3.283 1.03 5.76 2.398 5.76 1.366 0 2.397-2.477 2.397-5.76l-.003-.355-.264.022a24.845 24.845 0 0 1-4.26.001l-.264-.025zm4.3.263c-.038 3.056-1.001 5.098-1.904 5.098-.904 0-1.868-2.042-1.904-5.098a26 26 0 0 0 1.904.075c.642 0 1.278-.029 1.903-.075m8.507-4.523c-.357 1.656-2.862 3.135-6.38 3.765l-.207.038.016.838c0 3.533-.91 6.506-2.376 7.759l-.57.485.747-.056c6.693-.498 11.74-3.993 11.74-8.127 0-1.758-.89-3.43-2.573-4.839l-.311-.26zm.36.492c1.383 1.256 2.12 2.703 2.12 4.21 0 3.739-4.523 6.92-10.622 7.57 1.284-1.526 2.062-4.355 2.062-7.63l-.008-.435c3.4-.648 5.805-2.042 6.449-3.715"/><path fill="url(#a)" d="M26.585 10.181q.034.094.06.19c.092.367.073.728-.047 1.08 1.596 1.315 2.537 2.937 2.537 4.694 0 4.387-5.88 7.944-13.135 7.944S2.864 20.532 2.864 16.145c0-1.756.942-3.38 2.537-4.695a1.9 1.9 0 0 1-.045-1.08q.028-.104.076-.202c-2.179 1.55-3.5 3.583-3.5 5.808 0 4.86 6.298 8.798 14.068 8.798 7.768 0 14.067-3.939 14.067-8.798 0-2.22-1.315-4.248-3.482-5.795"/><path fill="url(#b)" d="M17.954 13.397a26 26 0 0 1-3.908 0h-.002l-.406.294a27 27 0 0 0 4.724 0zm7.186-3.082c-.494-1.63-4.565-2.828-9.14-2.828s-8.646 1.198-9.14 2.828c-.428 1.414 1.912 2.723 5.603 3.242l-.32-.39c-2.987-.507-4.762-1.59-4.352-2.74.496-1.398 4.1-2.41 8.208-2.41s7.713 1.013 8.21 2.41c.408 1.15-1.366 2.233-4.353 2.74l-.32.39c3.69-.519 6.032-1.828 5.604-3.242"/><path fill="url(#c)" d="M14.05 13.397c.343-1.902 1.087-3.092 1.95-3.092s1.606 1.19 1.95 3.092h.006l.401.291C18.02 11.175 17.092 9.57 16 9.57s-2.019 1.606-2.357 4.12l.4-.292z"/><path fill="url(#d)" d="m18.479 15.112-.328.592.002.133c0 3.154-.966 5.546-2.153 5.546-1.189 0-2.153-2.392-2.153-5.546l.002-.147-.328-.578q-.015.36-.015.722c0 3.576 1.117 6.285 2.494 6.285s2.495-2.71 2.495-6.285q0-.361-.016-.722"/><path fill="url(#e)" d="M12.469 13.559c.471-3.493 1.874-6.072 3.531-6.072-1.777 0-3.29 2.285-3.853 5.687l.317.385z"/><path fill="url(#f)" d="M19.532 13.559h.003l.317-.385C19.29 9.772 17.775 7.487 16 7.487c1.657 0 3.06 2.579 3.532 6.072"/><path fill="url(#g)" d="m20.072 15.447-.403-.48h-.003q.035.572.035 1.164c0 4.773-1.657 8.643-3.701 8.643 2.292 0 4.085-3.59 4.085-8.643q0-.347-.013-.684"/><path fill="url(#h)" d="M12.3 16.13q0-.59.034-1.163h-.002l-.404.479q-.013.342-.014.685c0 5.054 1.795 8.643 4.086 8.643-2.043 0-3.7-3.87-3.7-8.643"/><path fill="#2D2F34" d="M26.598 11.45a8 8 0 0 1 1.528 1.635 5.6 5.6 0 0 0-1.074-2.553 11 11 0 0 0-.468-.35q.035.092.06.189c.093.367.074.728-.046 1.08m-21.197 0a1.9 1.9 0 0 1-.045-1.08q.028-.105.076-.202-.246.177-.484.364a5.64 5.64 0 0 0-1.074 2.553 8 8 0 0 1 1.527-1.635"/><path fill="url(#i)" d="M.246 16c0-5.387 7.053-9.754 15.754-9.754 8.7 0 15.753 4.367 15.753 9.754 0 5.388-7.053 9.754-15.753 9.754C7.299 25.754.246 21.388.246 16M16 24.774c7.769 0 14.067-3.939 14.067-8.798 0-4.86-6.298-8.8-14.067-8.8s-14.068 3.94-14.068 8.8c0 4.859 6.298 8.798 14.068 8.798"/><path fill="url(#j)" d="M12.3 16.13c0-4.723 1.657-8.643 3.7-8.643s3.701 3.92 3.701 8.644c0 4.773-1.657 8.643-3.701 8.643s-3.7-3.87-3.7-8.643M16 22.12c1.378 0 2.495-2.71 2.495-6.284 0-3.71-1.118-6.266-2.495-6.266s-2.494 2.556-2.494 6.266c0 3.575 1.116 6.284 2.494 6.284"/><path fill="url(#k)" d="M5.356 10.37C5.762 8.765 10.673 6.427 16 6.427s10.069 1.67 10.644 3.943c.644 2.548-4.088 4.854-10.644 4.854-6.557 0-11.29-2.306-10.644-4.854M16 7.487c-4.575 0-8.645 1.198-9.14 2.828-.553 1.826 3.51 3.478 9.14 3.478s9.693-1.652 9.14-3.478c-.494-1.63-4.564-2.828-9.14-2.828"/><path fill="url(#l)" d="m13.516 15.107.002.002.339.596a25 25 0 0 0 4.296-.002l.329-.594.002-.002a26.3 26.3 0 0 1-4.968 0M26.7 10.922c-.085 1.821-2.888 3.435-7.032 4.044l.001.001.405.482c4.054-.727 6.722-2.516 6.626-4.527m-21.4 0c-.096 2.013 2.571 3.8 6.625 4.528l.406-.483v-.001c-4.144-.609-6.946-2.223-7.03-4.044"/><defs><linearGradient id="a" x1="16" x2="16" y1="23.687" y2="12.572" gradientUnits="userSpaceOnUse"><stop stop-color="#F0F3F5"/><stop offset=".056" stop-color="#E2E5E8"/><stop offset=".138" stop-color="#D4D8DD"/><stop offset=".242" stop-color="#CCD0D6"/><stop offset=".44" stop-color="#CACED4"/><stop offset=".568" stop-color="#B3B7BD"/><stop offset=".835" stop-color="#797C83"/><stop offset="1" stop-color="#52545C"/></linearGradient><linearGradient id="b" x1="16" x2="16" y1="15.218" y2="9.195" gradientUnits="userSpaceOnUse"><stop stop-color="#F0F3F5"/><stop offset=".056" stop-color="#E2E5E8"/><stop offset=".138" stop-color="#D4D8DD"/><stop offset=".242" stop-color="#CCD0D6"/><stop offset=".44" stop-color="#CACED4"/><stop offset=".568" stop-color="#B3B7BD"/><stop offset=".835" stop-color="#797C83"/><stop offset="1" stop-color="#52545C"/></linearGradient><linearGradient id="c" x1="18.002" x2="14.24" y1="14.111" y2="10.951" gradientUnits="userSpaceOnUse"><stop stop-color="#F0F3F5"/><stop offset=".056" stop-color="#E2E5E8"/><stop offset=".138" stop-color="#D4D8DD"/><stop offset=".242" stop-color="#CCD0D6"/><stop offset=".44" stop-color="#CACED4"/><stop offset=".568" stop-color="#B3B7BD"/><stop offset=".835" stop-color="#797C83"/><stop offset="1" stop-color="#52545C"/></linearGradient><linearGradient id="d" x1="18.385" x2="12.898" y1="19.361" y2="16.189" gradientUnits="userSpaceOnUse"><stop stop-color="#F0F3F5"/><stop offset=".056" stop-color="#E2E5E8"/><stop offset=".138" stop-color="#D4D8DD"/><stop offset=".242" stop-color="#CCD0D6"/><stop offset=".44" stop-color="#CACED4"/><stop offset=".568" stop-color="#B3B7BD"/><stop offset=".835" stop-color="#797C83"/><stop offset="1" stop-color="#52545C"/></linearGradient><linearGradient id="e" x1="14.074" x2="14.074" y1="6.245" y2="15.798" gradientUnits="userSpaceOnUse"><stop stop-color="#F0F3F5"/><stop offset=".056" stop-color="#E2E5E8"/><stop offset=".138" stop-color="#D4D8DD"/><stop offset=".242" stop-color="#CCD0D6"/><stop offset=".44" stop-color="#CACED4"/><stop offset=".568" stop-color="#B3B7BD"/><stop offset=".835" stop-color="#797C83"/><stop offset="1" stop-color="#52545C"/></linearGradient><linearGradient id="f" x1="17.926" x2="17.926" y1="6.245" y2="15.798" gradientUnits="userSpaceOnUse"><stop stop-color="#F0F3F5"/><stop offset=".056" stop-color="#E2E5E8"/><stop offset=".138" stop-color="#D4D8DD"/><stop offset=".242" stop-color="#CCD0D6"/><stop offset=".44" stop-color="#CACED4"/><stop offset=".568" stop-color="#B3B7BD"/><stop offset=".835" stop-color="#797C83"/><stop offset="1" stop-color="#52545C"/></linearGradient><linearGradient id="g" x1="18.043" x2="18.043" y1="6.164" y2="22.107" gradientUnits="userSpaceOnUse"><stop stop-color="#F0F3F5"/><stop offset=".056" stop-color="#E2E5E8"/><stop offset=".138" stop-color="#D4D8DD"/><stop offset=".242" stop-color="#CCD0D6"/><stop offset=".44" stop-color="#CACED4"/><stop offset=".568" stop-color="#B3B7BD"/><stop offset=".835" stop-color="#797C83"/><stop offset="1" stop-color="#52545C"/></linearGradient><linearGradient id="h" x1="13.957" x2="13.957" y1="6.164" y2="22.107" gradientUnits="userSpaceOnUse"><stop stop-color="#F0F3F5"/><stop offset=".056" stop-color="#E2E5E8"/><stop offset=".138" stop-color="#D4D8DD"/><stop offset=".242" stop-color="#CCD0D6"/><stop offset=".44" stop-color="#CACED4"/><stop offset=".568" stop-color="#B3B7BD"/><stop offset=".835" stop-color="#797C83"/><stop offset="1" stop-color="#52545C"/></linearGradient><linearGradient id="i" x1="15.999" x2="15.999" y1="6.246" y2="25.754" gradientUnits="userSpaceOnUse"><stop stop-color="#F0F3F5"/><stop offset=".253" stop-color="#EDF0F3"/><stop offset=".406" stop-color="#E5E8EA"/><stop offset=".531" stop-color="#D7DADC"/><stop offset=".642" stop-color="#C3C5C9"/><stop offset=".744" stop-color="#A9ABAF"/><stop offset=".839" stop-color="#888B90"/><stop offset=".926" stop-color="#63656B"/><stop offset="1" stop-color="#3D3F46"/></linearGradient><linearGradient id="j" x1="16" x2="16" y1="6.245" y2="25.754" gradientUnits="userSpaceOnUse"><stop stop-color="#F0F3F5"/><stop offset=".253" stop-color="#EDF0F3"/><stop offset=".406" stop-color="#E5E8EA"/><stop offset=".531" stop-color="#D7DADC"/><stop offset=".642" stop-color="#C3C5C9"/><stop offset=".744" stop-color="#A9ABAF"/><stop offset=".839" stop-color="#888B90"/><stop offset=".926" stop-color="#63656B"/><stop offset="1" stop-color="#3D3F46"/></linearGradient><linearGradient id="k" x1="16" x2="16" y1="6.247" y2="25.756" gradientUnits="userSpaceOnUse"><stop stop-color="#F0F3F5"/><stop offset=".253" stop-color="#EDF0F3"/><stop offset=".406" stop-color="#E5E8EA"/><stop offset=".531" stop-color="#D7DADC"/><stop offset=".642" stop-color="#C3C5C9"/><stop offset=".744" stop-color="#A9ABAF"/><stop offset=".839" stop-color="#888B90"/><stop offset=".926" stop-color="#63656B"/><stop offset="1" stop-color="#3D3F46"/></linearGradient><linearGradient id="l" x1="16" x2="16" y1="10.292" y2="15.852" gradientUnits="userSpaceOnUse"><stop stop-color="#CACED4"/><stop offset="1" stop-color="#52545C"/></linearGradient></defs></svg>