<svg width="32" height="32" viewBox="0 0 32 32" fill="none" xmlns="http://www.w3.org/2000/svg">
<path d="M0 15.9999C0 21.5138 7.17772 26 16 26C24.8222 26 32 21.5138 32 15.9999C31.9999 10.4856 24.8222 6 15.9999 6C7.1776 6 0 10.4856 0 15.9999ZM0.490986 15.9999C0.490986 10.757 7.44813 6.49129 16 6.49129C24.5516 6.49129 31.509 10.757 31.509 15.9999C31.509 21.244 24.5516 25.5096 16 25.5096C7.44813 25.5094 0.490986 21.2441 0.490986 15.9999V15.9999Z" fill="black"/>
<path d="M14.4881 7.8179C10.7434 8.04631 8.02346 9.03771 7.55985 10.3438C7.51263 10.4755 7.48831 10.6142 7.48792 10.754C7.48792 10.9743 7.55027 11.1946 7.674 11.4053C8.19371 12.2897 9.80697 13.0191 12.1027 13.4104L12.3457 13.4501L12.3865 13.2076C12.7633 10.9115 13.5905 9.10601 14.6568 8.25352L15.261 7.76996L14.4881 7.8179V7.8179ZM8.09784 11.158C8.01781 11.022 7.97841 10.8879 7.97841 10.7557C7.97841 10.6723 7.99277 10.5909 8.02248 10.508C8.37635 9.51024 10.7803 8.63875 13.8513 8.35761C12.9753 9.34742 12.3017 10.9424 11.9502 12.8802C9.95463 12.5114 8.51972 11.8763 8.09784 11.158V11.158ZM13.8035 13.3543L13.7555 13.6211L14.0264 13.6417C14.6688 13.6897 15.333 13.7155 15.9994 13.7155C16.6664 13.7155 17.331 13.6897 17.9735 13.6417L18.2439 13.6211L18.1958 13.3543C17.8265 11.2825 17.0048 10.0449 15.9998 10.0449C14.994 10.0449 14.1727 11.2825 13.8035 13.3543V13.3543ZM15.9999 10.5354C16.687 10.5354 17.3214 11.5632 17.6556 13.1676C17.1122 13.203 16.5588 13.2251 15.9994 13.2251C15.4408 13.2251 14.8871 13.203 14.3443 13.1676C14.6775 11.5632 15.3129 10.5354 15.9999 10.5354V10.5354ZM17.3425 8.25377C18.4084 9.10625 19.2365 10.912 19.6133 13.2078L19.6536 13.4503L19.8962 13.4106C22.1929 13.0194 23.8071 12.2897 24.3249 11.4054C24.5264 11.0655 24.5646 10.6984 24.4401 10.3442C23.9766 9.0382 21.2565 8.0468 17.512 7.81814L16.7402 7.7702L17.3425 8.25377V8.25377ZM18.1494 8.35761C21.2196 8.63875 23.6234 9.51183 23.9763 10.508C24.007 10.5909 24.0214 10.6723 24.0214 10.7557C24.0214 10.8879 23.9811 11.022 23.9029 11.158C23.4796 11.8762 22.0442 12.5114 20.0495 12.8802C19.6981 10.9425 19.0255 9.34754 18.1494 8.35761V8.35761ZM5.19035 11.3064C3.50737 12.7146 2.61795 14.3874 2.61795 16.145C2.61795 20.2795 7.66528 23.7743 14.3578 24.2724L15.1053 24.3284L14.5361 23.8427C13.0699 22.5898 12.1594 19.6171 12.1594 16.0842L12.1747 15.2495L11.9695 15.2078C8.44927 14.5776 5.94487 13.0991 5.58829 11.4434L5.50298 11.0459L5.19035 11.3064V11.3064ZM3.10943 16.145C3.10943 14.6379 3.84541 13.1915 5.22729 11.9353C5.8711 13.6083 8.27668 15.0019 11.677 15.6504C11.6727 15.8419 11.6689 16.0842 11.6689 16.0842C11.6689 19.36 12.4471 22.189 13.7307 23.7153C7.63263 23.0654 3.10943 19.8839 3.10943 16.145V16.145ZM13.6035 15.7031L13.602 15.7921C13.602 19.076 14.6329 21.5535 15.9999 21.5535C17.3664 21.5535 18.3974 19.076 18.3974 15.7921L18.3941 15.4378L18.1304 15.4604C17.4352 15.5212 16.7193 15.5513 16.0001 15.5513C15.281 15.5513 14.5641 15.5212 13.8707 15.4604L13.6061 15.4364L13.6035 15.7031V15.7031ZM17.9034 15.9664C17.8665 19.0218 16.9028 21.0635 15.9999 21.0635C15.0961 21.0635 14.1323 19.0218 14.0963 15.9664C14.7206 16.0123 15.3583 16.041 15.9999 16.041C16.6425 16.041 17.2783 16.0123 17.9034 15.9664ZM26.4106 11.4434C26.0544 13.0991 23.5495 14.5775 20.0304 15.2078L19.8242 15.246L19.8405 16.0841C19.8405 19.617 18.9295 22.5898 17.4638 23.8426L16.8946 24.3283L17.6411 24.2722C24.3343 23.7742 29.3817 20.2794 29.3817 16.1449C29.3817 14.3873 28.4913 12.7144 26.8083 11.3063L26.4967 11.0458L26.4106 11.4434V11.4434ZM26.7716 11.9353C28.1545 13.1915 28.891 14.6379 28.891 16.145C28.891 19.8839 24.368 23.0654 18.2693 23.7153C19.5529 22.189 20.3311 19.36 20.3311 16.0842C20.3311 16.0842 20.3263 15.8418 20.323 15.6504C23.7222 15.0019 26.1277 13.6081 26.7716 11.9353V11.9353Z" fill="black"/>
<path d="M26.5846 10.1811C26.6072 10.2434 26.6279 10.3069 26.6441 10.3708C26.7366 10.7382 26.7175 11.0989 26.5975 11.4504C28.1942 12.7656 29.1354 14.3877 29.1354 16.1452C29.1354 20.5321 23.2542 24.0892 15.9999 24.0892C8.74505 24.0892 2.86427 20.5321 2.86427 16.1452C2.86427 14.3891 3.80647 12.7657 5.40119 11.4504C5.28225 11.0989 5.2631 10.7382 5.35565 10.3708C5.3748 10.3011 5.40032 10.2333 5.43188 10.1683C3.25313 11.7188 1.93213 13.7507 1.93213 15.9762C1.93213 20.8353 8.23 24.7741 15.9997 24.7741C23.7685 24.7741 30.0673 20.8353 30.0673 15.9762C30.0676 13.7554 28.7519 11.7281 26.5846 10.1811V10.1811Z" fill="url(#paint0_linear_1261_221)"/>
<path d="M17.9542 13.3974C17.3342 13.4439 16.6807 13.4693 15.9994 13.4693C15.3185 13.4693 14.6655 13.4439 14.0455 13.3974H14.0435L13.6384 13.6915C14.3859 13.7566 15.1753 13.7935 15.9997 13.7935C16.8244 13.7935 17.6136 13.7566 18.3616 13.6915L17.9542 13.3974ZM25.1399 10.315C24.6461 8.68468 20.5754 7.48743 15.9999 7.48743C11.4251 7.48743 7.35447 8.68493 6.86066 10.315C6.43203 11.7293 8.77182 13.0382 12.4633 13.5573L12.1426 13.1673C9.15639 12.6597 7.38147 11.5773 7.79096 10.4266C8.28722 9.02933 11.8918 8.01758 15.9995 8.01758C20.1071 8.01758 23.7125 9.02958 24.2083 10.4266C24.6173 11.5775 22.8432 12.6598 19.8563 13.1673L19.5367 13.5573C23.2268 13.0382 25.5682 11.7293 25.1399 10.315Z" fill="url(#paint1_linear_1261_221)"/>
<path d="M14.0504 13.3974C14.3933 11.4946 15.137 10.3054 15.9995 10.3054C16.863 10.3054 17.6062 11.4946 17.9495 13.3974H17.9563L18.3574 13.6881C18.0188 11.1752 17.0916 9.56927 16.0001 9.56927C14.9079 9.56927 13.9811 11.1752 13.643 13.6881L14.0439 13.3974H14.0504Z" fill="url(#paint2_linear_1261_221)"/>
<path d="M18.4789 15.1121L18.1509 15.7045C18.1509 15.7477 18.1529 15.792 18.1529 15.837C18.1529 18.9912 17.1872 21.3828 15.9996 21.3828C14.811 21.3828 13.8473 18.991 13.8473 15.837C13.8473 15.7873 13.8483 15.7378 13.8492 15.6902L13.5208 15.1121C13.5111 15.3525 13.5063 15.5931 13.5064 15.8337C13.5064 19.4098 14.6227 22.1187 16.0001 22.1187C17.3776 22.1187 18.4948 19.4098 18.4948 15.8337C18.4943 15.5931 18.489 15.3525 18.4789 15.1121V15.1121Z" fill="url(#paint3_linear_1261_221)"/>
<path d="M12.4686 13.5587C12.9404 10.0659 14.3429 7.48706 16 7.48706C14.2235 7.48706 12.7093 9.77172 12.1474 13.1741L12.4638 13.5587H12.4686Z" fill="url(#paint4_linear_1261_221)"/>
<path d="M19.5318 13.5587H19.5351L19.8516 13.1741C19.2906 9.77172 17.7754 7.48706 15.9999 7.48706C17.657 7.48731 19.0605 10.0659 19.5318 13.5587Z" fill="url(#paint5_linear_1261_221)"/>
<path d="M20.0721 15.4472L19.6694 14.9668H19.6661C19.6887 15.3485 19.7015 15.7364 19.7015 16.1305C19.7015 20.904 18.044 24.7736 16 24.7736C18.2918 24.7736 20.0851 21.1847 20.0851 16.1305C20.0851 15.8992 20.0803 15.6724 20.0721 15.4472V15.4472Z" fill="url(#paint6_linear_1261_221)"/>
<path d="M12.2993 16.1305C12.2993 15.7364 12.3122 15.3485 12.3343 14.9668H12.3316L11.9279 15.4457C11.9193 15.6739 11.9149 15.9021 11.9145 16.1305C11.9145 21.1847 13.7092 24.7736 16.0001 24.7736C13.9569 24.7736 12.2993 20.9039 12.2993 16.1305V16.1305Z" fill="url(#paint7_linear_1261_221)"/>
<path d="M26.5975 11.4501C27.208 11.9531 27.7229 12.5019 28.1256 13.0847C27.9862 12.1577 27.617 11.2802 27.0516 10.532C26.899 10.4109 26.7432 10.2939 26.5844 10.1811C26.6071 10.2434 26.6277 10.3069 26.6437 10.3708C26.7366 10.738 26.7175 11.0986 26.5975 11.4501ZM5.40133 11.4501C5.28238 11.0986 5.26324 10.7379 5.35579 10.3706C5.37494 10.3009 5.40046 10.2331 5.43201 10.168C5.26828 10.286 5.107 10.4074 4.94827 10.532C4.3837 11.2807 4.01459 12.158 3.87424 13.0847C4.27697 12.5019 4.79091 11.9529 5.40133 11.4501Z" fill="#2D2F34"/>
<path d="M0.245514 15.9999C0.245514 10.6133 7.29852 6.24554 16 6.24554C24.7003 6.24554 31.7534 10.6133 31.7534 15.9999C31.7534 21.3876 24.7003 25.7538 16 25.7538C7.29852 25.7536 0.245514 21.3877 0.245514 15.9999V15.9999ZM15.9999 24.7738C23.7688 24.7738 30.0675 20.835 30.0675 15.9759C30.0675 11.1162 23.7688 7.17613 15.9999 7.17613C8.23005 7.17613 1.9318 11.1165 1.9318 15.9759C1.9318 20.835 8.23017 24.7738 15.9999 24.7738Z" fill="url(#paint8_linear_1261_221)"/>
<path d="M12.2993 16.1306C12.2993 11.4072 13.9569 7.48743 15.9999 7.48743C18.0438 7.48743 19.7015 11.4072 19.7015 16.1306C19.7015 20.9042 18.0438 24.7738 15.9999 24.7738C13.9559 24.7738 12.2993 20.9041 12.2993 16.1306V16.1306ZM15.9999 22.1186C17.3775 22.1186 18.4947 19.4097 18.4947 15.8351C18.4947 12.1254 17.3773 9.56941 15.9999 9.56941C14.6224 9.56941 13.5062 12.1254 13.5062 15.8351C13.5062 19.4097 14.6224 22.1186 15.9999 22.1186V22.1186Z" fill="url(#paint9_linear_1261_221)"/>
<path d="M5.35583 10.3704C5.76187 8.76462 10.6725 6.42749 15.9999 6.42749C21.3269 6.42749 26.0688 8.0974 26.6441 10.3704C27.288 12.9182 22.5556 15.2239 15.9999 15.2239C9.44316 15.2239 4.71092 12.9183 5.35583 10.3704V10.3704ZM15.9999 7.4873C11.4251 7.4873 7.35451 8.68481 6.8607 10.3149C6.30736 12.1411 10.3704 13.7933 15.9999 13.7933C21.6305 13.7933 25.6928 12.1408 25.14 10.3149C24.6462 8.68456 20.5757 7.4873 15.9999 7.4873V7.4873Z" fill="url(#paint10_linear_1261_221)"/>
<path d="M13.5157 15.1074L13.5185 15.1094L13.8566 15.7046C14.5446 15.7634 15.2601 15.797 15.9999 15.797C16.7431 15.797 17.4603 15.7635 18.1528 15.7032L18.4818 15.1091L18.4838 15.1072C17.6927 15.1823 16.8631 15.224 16.0001 15.224C15.1706 15.2245 14.3415 15.1856 13.5157 15.1074V15.1074ZM26.6997 10.9216C26.6152 12.7433 23.8118 14.3573 19.6679 14.9656L19.6694 14.967L20.0736 15.4495C24.1282 14.7215 26.7956 12.9331 26.6997 10.9216V10.9216ZM5.30017 10.9216C5.20431 12.9351 7.87146 14.7213 11.9254 15.4495L12.3306 14.967L12.3316 14.9656C8.18692 14.3574 5.38548 12.7434 5.30017 10.9216V10.9216Z" fill="url(#paint11_linear_1261_221)"/>
<defs>
<linearGradient id="paint0_linear_1261_221" x1="15.9997" y1="23.6873" x2="15.9997" y2="12.5723" gradientUnits="userSpaceOnUse">
<stop stop-color="#F0F3F5"/>
<stop offset="0.056" stop-color="#E2E5E8"/>
<stop offset="0.138" stop-color="#D4D8DD"/>
<stop offset="0.242" stop-color="#CCD0D6"/>
<stop offset="0.44" stop-color="#CACED4"/>
<stop offset="0.568" stop-color="#B3B7BD"/>
<stop offset="0.835" stop-color="#797C83"/>
<stop offset="1" stop-color="#52545C"/>
</linearGradient>
<linearGradient id="paint1_linear_1261_221" x1="16.0002" y1="15.2182" x2="16.0002" y2="9.19522" gradientUnits="userSpaceOnUse">
<stop stop-color="#F0F3F5"/>
<stop offset="0.056" stop-color="#E2E5E8"/>
<stop offset="0.138" stop-color="#D4D8DD"/>
<stop offset="0.242" stop-color="#CCD0D6"/>
<stop offset="0.44" stop-color="#CACED4"/>
<stop offset="0.568" stop-color="#B3B7BD"/>
<stop offset="0.835" stop-color="#797C83"/>
<stop offset="1" stop-color="#52545C"/>
</linearGradient>
<linearGradient id="paint2_linear_1261_221" x1="18.0019" y1="14.1111" x2="14.2404" y2="10.9513" gradientUnits="userSpaceOnUse">
<stop stop-color="#F0F3F5"/>
<stop offset="0.056" stop-color="#E2E5E8"/>
<stop offset="0.138" stop-color="#D4D8DD"/>
<stop offset="0.242" stop-color="#CCD0D6"/>
<stop offset="0.44" stop-color="#CACED4"/>
<stop offset="0.568" stop-color="#B3B7BD"/>
<stop offset="0.835" stop-color="#797C83"/>
<stop offset="1" stop-color="#52545C"/>
</linearGradient>
<linearGradient id="paint3_linear_1261_221" x1="18.3848" y1="19.3609" x2="12.8979" y2="16.1894" gradientUnits="userSpaceOnUse">
<stop stop-color="#F0F3F5"/>
<stop offset="0.056" stop-color="#E2E5E8"/>
<stop offset="0.138" stop-color="#D4D8DD"/>
<stop offset="0.242" stop-color="#CCD0D6"/>
<stop offset="0.44" stop-color="#CACED4"/>
<stop offset="0.568" stop-color="#B3B7BD"/>
<stop offset="0.835" stop-color="#797C83"/>
<stop offset="1" stop-color="#52545C"/>
</linearGradient>
<linearGradient id="paint4_linear_1261_221" x1="14.0738" y1="6.24456" x2="14.0738" y2="15.7976" gradientUnits="userSpaceOnUse">
<stop stop-color="#F0F3F5"/>
<stop offset="0.056" stop-color="#E2E5E8"/>
<stop offset="0.138" stop-color="#D4D8DD"/>
<stop offset="0.242" stop-color="#CCD0D6"/>
<stop offset="0.44" stop-color="#CACED4"/>
<stop offset="0.568" stop-color="#B3B7BD"/>
<stop offset="0.835" stop-color="#797C83"/>
<stop offset="1" stop-color="#52545C"/>
</linearGradient>
<linearGradient id="paint5_linear_1261_221" x1="17.9258" y1="6.24456" x2="17.9258" y2="15.7976" gradientUnits="userSpaceOnUse">
<stop stop-color="#F0F3F5"/>
<stop offset="0.056" stop-color="#E2E5E8"/>
<stop offset="0.138" stop-color="#D4D8DD"/>
<stop offset="0.242" stop-color="#CCD0D6"/>
<stop offset="0.44" stop-color="#CACED4"/>
<stop offset="0.568" stop-color="#B3B7BD"/>
<stop offset="0.835" stop-color="#797C83"/>
<stop offset="1" stop-color="#52545C"/>
</linearGradient>
<linearGradient id="paint6_linear_1261_221" x1="18.0425" y1="6.16436" x2="18.0425" y2="22.1074" gradientUnits="userSpaceOnUse">
<stop stop-color="#F0F3F5"/>
<stop offset="0.056" stop-color="#E2E5E8"/>
<stop offset="0.138" stop-color="#D4D8DD"/>
<stop offset="0.242" stop-color="#CCD0D6"/>
<stop offset="0.44" stop-color="#CACED4"/>
<stop offset="0.568" stop-color="#B3B7BD"/>
<stop offset="0.835" stop-color="#797C83"/>
<stop offset="1" stop-color="#52545C"/>
</linearGradient>
<linearGradient id="paint7_linear_1261_221" x1="13.9573" y1="6.16424" x2="13.9573" y2="22.1073" gradientUnits="userSpaceOnUse">
<stop stop-color="#F0F3F5"/>
<stop offset="0.056" stop-color="#E2E5E8"/>
<stop offset="0.138" stop-color="#D4D8DD"/>
<stop offset="0.242" stop-color="#CCD0D6"/>
<stop offset="0.44" stop-color="#CACED4"/>
<stop offset="0.568" stop-color="#B3B7BD"/>
<stop offset="0.835" stop-color="#797C83"/>
<stop offset="1" stop-color="#52545C"/>
</linearGradient>
<linearGradient id="paint8_linear_1261_221" x1="15.9994" y1="6.24554" x2="15.9994" y2="25.7538" gradientUnits="userSpaceOnUse">
<stop stop-color="#F0F3F5"/>
<stop offset="0.253" stop-color="#EDF0F3"/>
<stop offset="0.406" stop-color="#E5E8EA"/>
<stop offset="0.531" stop-color="#D7DADC"/>
<stop offset="0.642" stop-color="#C3C5C9"/>
<stop offset="0.744" stop-color="#A9ABAF"/>
<stop offset="0.839" stop-color="#888B90"/>
<stop offset="0.926" stop-color="#63656B"/>
<stop offset="1" stop-color="#3D3F46"/>
</linearGradient>
<linearGradient id="paint9_linear_1261_221" x1="16.0004" y1="6.24456" x2="16.0004" y2="25.754" gradientUnits="userSpaceOnUse">
<stop stop-color="#F0F3F5"/>
<stop offset="0.253" stop-color="#EDF0F3"/>
<stop offset="0.406" stop-color="#E5E8EA"/>
<stop offset="0.531" stop-color="#D7DADC"/>
<stop offset="0.642" stop-color="#C3C5C9"/>
<stop offset="0.744" stop-color="#A9ABAF"/>
<stop offset="0.839" stop-color="#888B90"/>
<stop offset="0.926" stop-color="#63656B"/>
<stop offset="1" stop-color="#3D3F46"/>
</linearGradient>
<linearGradient id="paint10_linear_1261_221" x1="15.9999" y1="6.24652" x2="15.9999" y2="25.7555" gradientUnits="userSpaceOnUse">
<stop stop-color="#F0F3F5"/>
<stop offset="0.253" stop-color="#EDF0F3"/>
<stop offset="0.406" stop-color="#E5E8EA"/>
<stop offset="0.531" stop-color="#D7DADC"/>
<stop offset="0.642" stop-color="#C3C5C9"/>
<stop offset="0.744" stop-color="#A9ABAF"/>
<stop offset="0.839" stop-color="#888B90"/>
<stop offset="0.926" stop-color="#63656B"/>
<stop offset="1" stop-color="#3D3F46"/>
</linearGradient>
<linearGradient id="paint11_linear_1261_221" x1="16" y1="10.2918" x2="16" y2="15.8518" gradientUnits="userSpaceOnUse">
<stop stop-color="#CACED4"/>
<stop offset="1" stop-color="#52545C"/>
</linearGradient>
</defs>
</svg>
