<svg xmlns="http://www.w3.org/2000/svg" width="64" height="64" fill="none" viewBox="0 0 50 50"><g clip-path="url(#a)"><path fill="#1b1a32" d="M43.243 0H6.757A6.757 6.757 0 0 0 0 6.757v36.486A6.757 6.757 0 0 0 6.757 50h36.486A6.757 6.757 0 0 0 50 43.243V6.757A6.757 6.757 0 0 0 43.243 0"/><path fill="#fff" fill-rule="evenodd" d="M25.76 21.545c1.44 0 2.266-.784 2.266-2.153 0-1.29-.888-2.154-2.21-2.154H22.55v-2.42c0-1.744-1.253-2.656-2.49-2.656-1.237-.001-2.49.912-2.49 2.657v16.684c0 4.01 1.599 5.797 5.181 5.797 1.942 0 3.053-.499 3.877-.984.631-.351.856-1.094.856-1.673 0-1.073-.716-2.269-1.748-2.269-.217.002-.43.056-.622.157-.27.124-.642.295-1.186.295-.642 0-1.378-.227-1.378-1.996v-9.284z" clip-rule="evenodd"/><path fill="#ff1fa8" fill-rule="evenodd" d="M35.807 28.378a4.734 4.734 0 0 0-4.729 4.73 4.735 4.735 0 0 0 4.73 4.73 4.734 4.734 0 0 0 4.73-4.73 4.736 4.736 0 0 0-4.73-4.73Z" clip-rule="evenodd"/></g><defs><clipPath id="a"><path fill="#fff" d="M0 0h50v50H0z"/></clipPath></defs></svg>