<svg xmlns="http://www.w3.org/2000/svg" xml:space="preserve" width="64" height="64" viewBox="0 0 24 24"><linearGradient id="a" x1="-586.401" x2="-586.401" y1="326.697" y2="326.673" gradientTransform="matrix(1000 0 0 -1000 586413 326697)" gradientUnits="userSpaceOnUse"><stop offset="0" stop-color="#2aabee"/><stop offset="1" stop-color="#229ed9"/></linearGradient><circle cx="12" cy="12" r="11.9" fill="url(#a)" fill-rule="evenodd" clip-rule="evenodd"/><path fill="#fff" fill-rule="evenodd" d="M5.5 11.9q5.25-2.25 6.9-3c3.3-1.4 4-1.6 4.4-1.6.1 0 .3 0 .5.1.1.1.2.2.2.3v.5c-.2 1.9-1 6.5-1.3 8.6-.2.9-.5 1.2-.8 1.2-.7.1-1.2-.5-1.9-.9-1-.7-1.6-1.1-2.7-1.8-1.2-.8-.4-1.2.3-1.9.2-.2 3.2-3 3.3-3.2 0 0 0-.1-.1-.2s-.2 0-.2 0c-.1 0-1.8 1.1-5 3.3-.5.3-.9.5-1.3.5s-1.2-.2-1.9-.4-1.3-.4-1.3-.8c0-.3.3-.5.9-.7" clip-rule="evenodd"/></svg>