<?xml version='1.0' encoding='UTF-8'?>
<!-- Generator: Adobe Illustrator 27.3.1, SVG Export Plug-In . SVG Version: 6.00 Build 0)  -->
<svg xmlns="http://www.w3.org/2000/svg" version="1.1" id="Layer_1" x="0px" y="0px" viewBox="0 0 24 24" style="enable-background:new 0 0 24 24;" xml:space="preserve" width="64.0px" height="64px">
<style type="text/css">
	.st0{fill-rule:evenodd;clip-rule:evenodd;fill:url(#Oval_00000054224977364383350900000015886730751129477811_);}
	.st1{fill-rule:evenodd;clip-rule:evenodd;fill:#FFFFFF;}
</style>
<g id="Artboard">
	
		<linearGradient id="Oval_00000005958846139848274820000010468893998486027160_" gradientUnits="userSpaceOnUse" x1="-586.401" y1="326.6969" x2="-586.401" y2="326.6733" gradientTransform="matrix(1000 0 0 -1000 586413 326697)">
		<stop offset="0" style="stop-color:#2AABEE"/>
		<stop offset="1" style="stop-color:#229ED9"/>
	</linearGradient>
	
		<circle id="Oval" style="fill-rule:evenodd;clip-rule:evenodd;fill:url(#Oval_00000005958846139848274820000010468893998486027160_);" cx="12" cy="12" r="11.9"/>
	<path id="Path-3" class="st1" d="M5.5,11.9c3.5-1.5,5.8-2.5,6.9-3c3.3-1.4,4-1.6,4.4-1.6c0.1,0,0.3,0,0.5,0.1   c0.1,0.1,0.2,0.2,0.2,0.3c0,0.1,0,0.3,0,0.5c-0.2,1.9-1,6.5-1.3,8.6c-0.2,0.9-0.5,1.2-0.8,1.2c-0.7,0.1-1.2-0.5-1.9-0.9   c-1-0.7-1.6-1.1-2.7-1.8c-1.2-0.8-0.4-1.2,0.3-1.9c0.2-0.2,3.2-3,3.3-3.2c0,0,0-0.1-0.1-0.2c-0.1-0.1-0.2,0-0.2,0   c-0.1,0-1.8,1.1-5,3.3c-0.5,0.3-0.9,0.5-1.3,0.5c-0.4,0-1.2-0.2-1.9-0.4c-0.7-0.2-1.3-0.4-1.3-0.8C4.6,12.3,4.9,12.1,5.5,11.9z"/>
</g>
</svg>
