<svg xmlns="http://www.w3.org/2000/svg" width="213.333" height="64" fill="none" viewBox="0 0 100 30"><g clip-path="url(#a)"><g clip-path="url(#b)"><path fill="url(#c)" fill-rule="evenodd" d="M13.925-.264c-5.552.427-9.927 3.26-12.09 7.827C.954 9.426.398 11.631.165 14.19c-.168 1.84-.229 10.192-.082 11.235.363 2.588 1.476 3.526 4.603 3.881 2.39.272 9.413.46 11.238.302 6.838-.594 11.335-3.713 13.295-9.221 2.09-5.874.808-12.58-3.162-16.552-2.949-2.948-7.428-4.462-12.132-4.1Z" clip-rule="evenodd"/><mask id="e" width="31" height="31" x="0" y="-1" maskUnits="userSpaceOnUse" style="mask-type:alpha"><path fill="url(#d)" fill-rule="evenodd" d="M13.925-.264c-5.552.428-9.927 3.26-12.09 7.827C.954 9.427.398 11.632.165 14.19c-.168 1.84-.229 10.193-.082 11.235.363 2.588 1.476 3.526 4.603 3.882 2.39.271 9.413.46 11.238.301 6.838-.593 11.335-3.713 13.295-9.221 2.09-5.873.808-12.58-3.162-16.551-2.949-2.949-7.428-4.462-12.132-4.1" clip-rule="evenodd"/></mask><g mask="url(#e)"><g filter="url(#f)" opacity=".7"><path fill="#46deff" d="M19.918 8.29a3.246 3.246 0 1 0 0-6.493 3.246 3.246 0 0 0 0 6.492Z" opacity=".7"/></g><g filter="url(#g)"><path fill="#2c46e1" d="M3.694 13.345c1.495.988 4.34-.681 6.355-3.729s2.436-6.32.94-7.308-4.34.68-6.355 3.729c-2.015 3.047-2.436 6.32-.94 7.308"/></g><g filter="url(#h)" opacity=".7"><path fill="#fff" d="M2.502 7.471C.82 10.714.325 13.508.257 13.473c-.067-.035.317-2.886 2-6.129C3.939 4.101 5.89 2.47 5.958 2.504c.068.035-1.774 1.725-3.456 4.967" opacity=".7"/></g></g></g><path fill="#000" d="M44.11 24.212h3.91V8.752h5.412V5.528h-14.72v3.224h5.4v15.46Zm13.948.284q1.489 0 2.59-.388 1.112-.388 1.877-1.036a5.4 5.4 0 0 0 1.23-1.424 5.1 5.1 0 0 0 .608-1.54l.04-.143h-3.47l-.027.077q-.129.39-.492.764-.362.375-.932.622-.57.246-1.347.246-.983 0-1.696-.427a2.9 2.9 0 0 1-1.1-1.256q-.375-.816-.376-1.968V16.56q0-1.192.376-2.007.389-.83 1.061-1.256.687-.428 1.567-.428c.88 0 1.1.139 1.541.415q.673.414 1.048 1.243.375.815.376 2.033v1.45l1.8-2.227h-9.646v2.382h11.433V17q0-2.098-.816-3.665a5.75 5.75 0 0 0-2.292-2.42q-1.476-.869-3.508-.868-2.034 0-3.535.893-1.489.88-2.318 2.512-.816 1.619-.816 3.833v.012q0 2.214.816 3.833.829 1.618 2.357 2.499 1.527.867 3.65.867Zm6.786-.284h3.975l2.603-4.817h.077l2.641 4.817h4.105l-4.299-7.018 4.338-6.862h-4.118l-2.46 4.687h-.078l-2.499-4.687H64.87l4.325 6.965zm19.961.284a10 10 0 0 0 1.049-.051q.466-.039.776-.091v-2.77q-.168.025-.362.051a7 7 0 0 1-.453.013q-.855 0-1.295-.376-.427-.387-.427-1.36V13.18h2.537v-2.848h-2.537V6.939h-3.82v3.393h-1.93v2.848h1.93v7.147q0 2.227 1.114 3.198t3.418.971m9.12 0q1.787 0 3.147-.556 1.372-.57 2.149-1.58c.777-1.01.777-1.463.777-2.37v-.012q0-1.528-.958-2.434-.945-.907-3.134-1.36l-2.356-.505q-1.05-.22-1.463-.583a1.14 1.14 0 0 1-.414-.893v-.013q0-.453.259-.777.258-.336.738-.518.479-.18 1.126-.181 1.049 0 1.644.505.61.492.7 1.243l.013.104h3.482v-.13a4 4 0 0 0-.738-2.214q-.686-.997-1.98-1.58-1.282-.595-3.121-.595-1.76 0-3.082.544-1.308.53-2.02 1.502-.711.97-.711 2.304v.013q0 1.553 1.01 2.564 1.022.998 3.042 1.424l2.357.492q1.022.232 1.424.57.401.336.401.893v.013q0 .453-.285.777-.27.324-.777.505-.504.168-1.23.168-1.125 0-1.76-.453t-.816-1.269l-.026-.116h-3.69l.013.116a4.67 4.67 0 0 0 .906 2.305q.765.984 2.11 1.54 1.347.557 3.263.557"/></g><defs><filter id="f" width="19.672" height="19.672" x="10.082" y="-4.793" color-interpolation-filters="sRGB" filterUnits="userSpaceOnUse"><feFlood flood-opacity="0" result="BackgroundImageFix"/><feBlend in="SourceGraphic" in2="BackgroundImageFix" result="shape"/><feGaussianBlur result="effect1_foregroundBlur_1_745" stdDeviation="3.295"/></filter><filter id="g" width="22.266" height="24.786" x="-3.793" y="-4.566" color-interpolation-filters="sRGB" filterUnits="userSpaceOnUse"><feFlood flood-opacity="0" result="BackgroundImageFix"/><feBlend in="SourceGraphic" in2="BackgroundImageFix" result="shape"/><feGaussianBlur result="effect1_foregroundBlur_1_745" stdDeviation="3.295"/></filter><filter id="h" width="8.072" height="13.331" x="-.93" y="1.323" color-interpolation-filters="sRGB" filterUnits="userSpaceOnUse"><feFlood flood-opacity="0" result="BackgroundImageFix"/><feBlend in="SourceGraphic" in2="BackgroundImageFix" result="shape"/><feGaussianBlur result="effect1_foregroundBlur_1_745" stdDeviation=".59"/></filter><linearGradient id="c" x1="15.106" x2="15.106" y1="-.317" y2="29.666" gradientUnits="userSpaceOnUse"><stop stop-color="#4058e9"/><stop offset=".297" stop-color="#5b86ff"/><stop offset=".833" stop-color="#4b6cff"/><stop offset="1" stop-color="#6da1ff"/></linearGradient><linearGradient id="d" x1="15.106" x2="15.106" y1="-.317" y2="29.666" gradientUnits="userSpaceOnUse"><stop stop-color="#4058e9"/><stop offset=".297" stop-color="#5b86ff"/><stop offset=".833" stop-color="#4b73ff"/><stop offset="1" stop-color="#6da1ff"/></linearGradient><clipPath id="a"><path fill="#fff" d="M0 0h100v29.597H0z"/></clipPath><clipPath id="b"><path fill="#fff" d="M0-.317h30.246v30H0z"/></clipPath></defs></svg>