<svg xmlns="http://www.w3.org/2000/svg" width="64" height="64" fill="none" viewBox="0 0 50 50"><g clip-path="url(#a)"><path fill="url(#b)" fill-rule="evenodd" d="M23.019.088C13.842.794 6.61 5.477 3.035 13.027 1.577 16.107.657 19.753.272 23.982c-.277 3.042-.377 16.85-.135 18.573.601 4.278 2.44 5.83 7.61 6.416 3.949.449 15.56.76 18.577.499 11.304-.981 18.738-6.138 21.979-15.244 3.454-9.71 1.336-20.797-5.228-27.361C38.2 1.99 30.796-.511 23.019.088" clip-rule="evenodd"/><mask id="d" width="50" height="50" x="0" y="0" maskUnits="userSpaceOnUse" style="mask-type:alpha"><path fill="url(#c)" fill-rule="evenodd" d="M23.019.088C13.842.795 6.61 5.478 3.035 13.028 1.577 16.108.657 19.752.272 23.982c-.277 3.043-.377 16.85-.135 18.573.601 4.279 2.44 5.83 7.61 6.417 3.949.448 15.56.76 18.577.498 11.304-.98 18.738-6.137 21.979-15.244 3.454-9.709 1.336-20.797-5.228-27.36C38.2 1.99 30.796-.512 23.019.087Z" clip-rule="evenodd"/></mask><g mask="url(#d)"><g filter="url(#e)" opacity=".7"><path fill="#46deff" d="M32.928 14.228a5.366 5.366 0 1 0 0-10.732 5.366 5.366 0 0 0 0 10.732" opacity=".7"/></g><g filter="url(#f)"><path fill="#2c46e1" d="M6.104 22.585c2.472 1.634 7.176-1.125 10.506-6.163s4.026-10.447 1.554-12.081-7.176 1.125-10.506 6.163-4.026 10.447-1.554 12.081"/></g><g filter="url(#g)" opacity=".7"><path fill="#fff" d="M4.13 12.876c-2.782 5.361-3.6 9.98-3.712 9.922s.525-4.771 3.306-10.132c2.78-5.361 6.007-8.06 6.119-8.002.112.059-2.933 2.851-5.714 8.212Z" opacity=".7"/></g></g></g><defs><filter id="e" width="32.523" height="32.52" x="16.668" y="-7.398" color-interpolation-filters="sRGB" filterUnits="userSpaceOnUse"><feFlood flood-opacity="0" result="BackgroundImageFix"/><feBlend in="SourceGraphic" in2="BackgroundImageFix" result="shape"/><feGaussianBlur result="effect1_foregroundBlur_1_762" stdDeviation="5.447"/></filter><filter id="f" width="36.804" height="40.974" x="-6.269" y="-7.024" color-interpolation-filters="sRGB" filterUnits="userSpaceOnUse"><feFlood flood-opacity="0" result="BackgroundImageFix"/><feBlend in="SourceGraphic" in2="BackgroundImageFix" result="shape"/><feGaussianBlur result="effect1_foregroundBlur_1_762" stdDeviation="5.447"/></filter><filter id="g" width="13.34" height="22.037" x="-1.545" y="2.712" color-interpolation-filters="sRGB" filterUnits="userSpaceOnUse"><feFlood flood-opacity="0" result="BackgroundImageFix"/><feBlend in="SourceGraphic" in2="BackgroundImageFix" result="shape"/><feGaussianBlur result="effect1_foregroundBlur_1_762" stdDeviation=".976"/></filter><linearGradient id="b" x1="24.972" x2="24.972" y1="0" y2="49.565" gradientUnits="userSpaceOnUse"><stop stop-color="#4058e9"/><stop offset=".297" stop-color="#5b86ff"/><stop offset=".833" stop-color="#4b6cff"/><stop offset="1" stop-color="#6da1ff"/></linearGradient><linearGradient id="c" x1="24.972" x2="24.972" y1=".001" y2="49.566" gradientUnits="userSpaceOnUse"><stop stop-color="#4058e9"/><stop offset=".297" stop-color="#5b86ff"/><stop offset=".833" stop-color="#4b73ff"/><stop offset="1" stop-color="#6da1ff"/></linearGradient><clipPath id="a"><path fill="#fff" d="M0 0h50v49.593H0z"/></clipPath></defs></svg>