<svg xmlns="http://www.w3.org/2000/svg" width="213.333" height="64" fill="none" viewBox="0 0 100 30"><g clip-path="url(#a)"><g clip-path="url(#b)"><path fill="url(#c)" fill-rule="evenodd" d="M13.925-.264C8.373.163 3.998 2.996 1.835 7.563.954 9.426.398 11.631.165 14.19c-.168 1.84-.229 10.192-.082 11.235.363 2.588 1.476 3.526 4.603 3.881 2.39.272 9.413.46 11.238.302 6.838-.594 11.335-3.713 13.295-9.221 2.09-5.874.808-12.58-3.162-16.552-2.949-2.948-7.428-4.462-12.132-4.1Z" clip-rule="evenodd"/><mask id="e" width="31" height="31" x="0" y="-1" maskUnits="userSpaceOnUse" style="mask-type:alpha"><path fill="url(#d)" fill-rule="evenodd" d="M13.925-.264C8.373.164 3.998 2.996 1.835 7.563.954 9.427.398 11.632.165 14.19c-.168 1.84-.229 10.193-.082 11.235.363 2.588 1.476 3.526 4.603 3.882 2.39.271 9.413.46 11.238.301 6.838-.593 11.335-3.713 13.295-9.221 2.09-5.873.808-12.58-3.162-16.551-2.949-2.949-7.428-4.462-12.132-4.1Z" clip-rule="evenodd"/></mask><g mask="url(#e)"><g filter="url(#f)" opacity=".7"><path fill="#46DEFF" d="M19.918 8.29a3.246 3.246 0 1 0 0-6.493 3.246 3.246 0 0 0 0 6.492Z" opacity=".7"/></g><g filter="url(#g)"><path fill="#2C46E1" d="M3.694 13.345c1.495.988 4.34-.681 6.355-3.729 2.015-3.047 2.436-6.32.94-7.308-1.495-.988-4.34.68-6.355 3.729-2.015 3.047-2.436 6.32-.94 7.308Z"/></g><g filter="url(#h)" opacity=".7"><path fill="#fff" d="M2.502 7.471C.82 10.714.325 13.508.257 13.473c-.067-.035.317-2.886 2-6.129C3.939 4.101 5.89 2.47 5.958 2.504c.068.035-1.774 1.725-3.456 4.967Z" opacity=".7"/></g></g></g><path fill="#000" d="M44.11 24.212h3.91V8.752h5.412V5.528H38.712v3.224h5.4v15.46ZM58.058 24.496c.992 0 1.856-.13 2.59-.388.742-.259 1.367-.604 1.877-1.036a5.41 5.41 0 0 0 1.23-1.424 5.081 5.081 0 0 0 .608-1.54l.04-.143h-3.47l-.027.077c-.086.26-.25.514-.492.764-.241.25-.552.458-.932.622-.38.164-.828.246-1.347.246-.656 0-1.22-.143-1.696-.427a2.903 2.903 0 0 1-1.1-1.256c-.25-.544-.376-1.2-.376-1.968V16.56c0-.795.125-1.464.376-2.007.259-.553.613-.972 1.061-1.256.458-.285.98-.428 1.567-.428s1.1.139 1.541.415c.449.276.798.69 1.048 1.243.25.543.376 1.221.376 2.033v1.45l1.8-2.227h-9.646v2.382h11.433V17c0-1.399-.272-2.62-.816-3.665a5.75 5.75 0 0 0-2.292-2.42c-.984-.58-2.153-.868-3.508-.868-1.356 0-2.534.298-3.535.893-.993.587-1.765 1.424-2.318 2.512-.544 1.079-.816 2.357-.816 3.833v.012c0 1.476.272 2.754.816 3.833.553 1.079 1.338 1.912 2.357 2.499 1.018.578 2.235.867 3.65.867ZM64.844 24.212h3.975l2.603-4.817h.077l2.641 4.817h4.105l-4.299-7.018 4.338-6.862h-4.118l-2.46 4.687h-.078l-2.499-4.687H64.87l4.325 6.965-4.351 6.915ZM84.805 24.496c.397 0 .746-.017 1.049-.051.31-.026.57-.056.776-.091v-2.77c-.112.017-.232.034-.362.051-.13.009-.28.013-.453.013-.57 0-1.002-.125-1.295-.376-.285-.258-.427-.712-.427-1.36V13.18h2.537v-2.848h-2.537V6.939h-3.82v3.393h-1.93v2.848h1.93v7.147c0 1.485.372 2.551 1.114 3.198.742.648 1.882.971 3.418.971ZM93.925 24.496c1.192 0 2.24-.185 3.147-.556.915-.38 1.631-.907 2.149-1.58s.777-1.463.777-2.37v-.012c0-1.019-.32-1.83-.958-2.434-.63-.605-1.675-1.058-3.134-1.36l-2.356-.505c-.7-.147-1.187-.34-1.463-.583a1.142 1.142 0 0 1-.414-.893v-.013c0-.302.086-.561.259-.777.172-.224.418-.397.738-.518.319-.12.695-.181 1.126-.181.699 0 1.247.168 1.644.505.406.328.64.742.7 1.243l.013.104h3.482v-.13a3.997 3.997 0 0 0-.738-2.214c-.457-.665-1.117-1.191-1.98-1.58-.855-.397-1.895-.595-3.121-.595-1.174 0-2.201.181-3.082.544-.872.354-1.545.854-2.02 1.502-.474.647-.711 1.415-.711 2.304v.013c0 1.036.336 1.89 1.01 2.564.681.665 1.696 1.14 3.042 1.424l2.357.492c.681.155 1.156.345 1.424.57.268.224.401.522.401.893v.013c0 .302-.095.561-.285.777-.18.216-.44.384-.777.505-.336.112-.746.168-1.23.168-.75 0-1.337-.15-1.76-.453-.424-.302-.695-.725-.816-1.269l-.026-.116h-3.69l.013.116a4.67 4.67 0 0 0 .906 2.305c.51.656 1.213 1.17 2.11 1.54.898.372 1.986.557 3.263.557Z"/></g><defs><filter id="f" width="19.672" height="19.672" x="10.082" y="-4.793" color-interpolation-filters="sRGB" filterUnits="userSpaceOnUse"><feFlood flood-opacity="0" result="BackgroundImageFix"/><feBlend in="SourceGraphic" in2="BackgroundImageFix" result="shape"/><feGaussianBlur result="effect1_foregroundBlur_1_745" stdDeviation="3.295"/></filter><filter id="g" width="22.266" height="24.786" x="-3.793" y="-4.566" color-interpolation-filters="sRGB" filterUnits="userSpaceOnUse"><feFlood flood-opacity="0" result="BackgroundImageFix"/><feBlend in="SourceGraphic" in2="BackgroundImageFix" result="shape"/><feGaussianBlur result="effect1_foregroundBlur_1_745" stdDeviation="3.295"/></filter><filter id="h" width="8.072" height="13.331" x="-.93" y="1.323" color-interpolation-filters="sRGB" filterUnits="userSpaceOnUse"><feFlood flood-opacity="0" result="BackgroundImageFix"/><feBlend in="SourceGraphic" in2="BackgroundImageFix" result="shape"/><feGaussianBlur result="effect1_foregroundBlur_1_745" stdDeviation=".59"/></filter><linearGradient id="c" x1="15.106" x2="15.106" y1="-.317" y2="29.666" gradientUnits="userSpaceOnUse"><stop stop-color="#4058E9"/><stop offset=".297" stop-color="#5B86FF"/><stop offset=".833" stop-color="#4B6CFF"/><stop offset="1" stop-color="#6DA1FF"/></linearGradient><linearGradient id="d" x1="15.106" x2="15.106" y1="-.317" y2="29.666" gradientUnits="userSpaceOnUse"><stop stop-color="#4058E9"/><stop offset=".297" stop-color="#5B86FF"/><stop offset=".833" stop-color="#4B73FF"/><stop offset="1" stop-color="#6DA1FF"/></linearGradient><clipPath id="a"><path fill="#fff" d="M0 0h100v29.597H0z"/></clipPath><clipPath id="b"><path fill="#fff" d="M0-.317h30.246v30H0z"/></clipPath></defs></svg>