<svg xmlns="http://www.w3.org/2000/svg" width="125.49" height="64" fill="none" viewBox="0 0 100 51"><g clip-path="url(#a)"><path fill="#0047ff" fill-rule="evenodd" d="M48.1 3.924c-1.56 2.156-2.85 3.958-2.868 4.004-.018.047.18.082.44.08l.472-.006.636-.893c.915-1.287 2.526-2.882 3.328-3.295q1.167-.6 1.168.08c0 .32-.295.749-1.22 1.772-.997 1.102-1.159 1.644-.645 2.158.24.24.365.286.776.286.618 0 .913-.113 1.55-.593.58-.438.615-.45.615-.207 0 .223.335.588.65.708.443.168 1.415.102 1.991-.135 1.107-.455 3.028-1.961 3.028-2.373 0-.13-.027-.235-.06-.235s-.352.255-.709.567c-1.03.9-1.416 1.174-2.123 1.505-.806.377-1.54.433-1.759.134-.176-.241-.178-.75-.003-1.167.122-.292.194-.336.727-.441 1.44-.283 3.047-1.465 3.047-2.24 0-.54-.923-.717-1.771-.337-1.023.458-2.23 1.622-2.776 2.677-.459.886-1.958 1.945-2.379 1.68-.189-.119-.249-.35-.171-.66.03-.122.458-.68.95-1.239.923-1.05 1.308-1.696 1.197-2.009-.303-.849-1.483-.884-2.678-.08l-.512.345.242-.32c.59-.782 2.62-3.607 2.62-3.648 0-.025-.21-.044-.465-.042l-.464.003-2.835 3.92ZM45.942 2.44l-.563.782h-.718c-.652 0-.717.017-.717.195 0 .172.065.196.538.196.295 0 .537.026.537.057s-.703 1.022-1.561 2.2l-1.562 2.141h.956l1.597-2.196 1.597-2.197.806-.003c.74-.002.806-.018.806-.198 0-.175-.065-.195-.638-.195-.735 0-.735.06.007-.953l.448-.611h-.97zm10.416 1.226c0 .501-.722 1.192-1.644 1.571-.595.245-.897.291-.897.137 0-.193 1.291-1.458 1.69-1.655.492-.244.851-.266.851-.053M33.73 15.555c-.972.084-2.149.452-2.98.934-.94.544-2.119 1.768-2.568 2.667a7.02 7.02 0 0 0-.053 6.247c.559 1.17 1.738 2.355 2.914 2.929 1.243.606 2.16.815 3.568.813 1.337-.002 2.26-.198 3.29-.701 2.422-1.18 3.797-3.394 3.797-6.111 0-2.664-1.347-4.874-3.666-6.019-1.329-.655-2.694-.896-4.301-.759Zm32.943-.005c-.984.119-1.69.442-2.303 1.056-.627.627-.874 1.208-.873 2.054 0 .699.122 1.125.48 1.69.436.687 1.217 1.234 3.256 2.283 2.53 1.3 3.225 1.954 3.37 3.175.12 1.027-.46 1.99-1.514 2.507-.51.25-.653.274-1.634.274s-1.124-.024-1.636-.275c-1.138-.56-1.943-1.715-2.162-3.105-.084-.533-.142-.677-.274-.677-.093 0-.197.047-.233.105-.035.057-.032 1.025.007 2.15l.071 2.047h.232c.179 0 .232-.053.232-.233 0-.487.226-.505 1.098-.086 1.009.484 1.679.65 2.616.65 1.406 0 2.565-.44 3.43-1.303.741-.74 1.005-1.425.947-2.463-.097-1.734-1.028-2.675-4.012-4.056-.656-.303-1.369-.66-1.585-.794-1.683-1.04-2.11-2.712-.97-3.809 1.128-1.087 3.355-.925 4.615.335.496.495.932 1.29 1.048 1.91.056.302.11.367.302.367.228 0 .233-.019.233-.865 0-.476-.028-1.27-.064-1.764-.059-.836-.078-.898-.264-.87-.121.017-.224.126-.259.272-.084.359-.323.352-1.167-.034-1.144-.523-1.942-.667-2.987-.541m-65.25.415c0 .213.05.235.65.29 1.11.104 1.013-.476 1.013 6.093 0 6.592.093 6.027-1.018 6.146-.601.064-.644.085-.644.31v.243l3.348-.044c3.607-.048 4.015-.097 5.114-.617.755-.357 1.534-1.102 1.8-1.72.804-1.87-.154-3.727-2.295-4.447-.444-.149-.466-.17-.245-.23.498-.136 1.29-.603 1.675-.989.556-.555.805-1.158.804-1.942-.002-1.59-1.17-2.752-3.183-3.168-.597-.123-1.403-.155-3.886-.155H1.423zm12.904 0c0 .213.05.235.65.29 1.109.105 1.012-.483 1.012 6.14v5.75l-.22.142c-.121.079-.495.173-.83.21-.56.063-.612.088-.612.302v.233l2.37-.026c2.34-.026 2.371-.029 2.401-.235.027-.192-.028-.216-.643-.277-.37-.038-.718-.097-.773-.133-.288-.188-.325-.548-.325-3.236v-2.743h1.498c1.742 0 2.194.11 2.734.663.568.582.674 1.009.747 3.003.072 1.977.163 2.303.77 2.767.31.236.428.263 1.143.263.728 0 .83-.024 1.167-.282.333-.254.833-1.09.836-1.398 0-.063-.098-.129-.219-.146-.178-.025-.26.054-.428.416-.235.508-.64.872-.97.872-.694 0-.831-.337-.935-2.293-.045-.862-.13-1.798-.189-2.08-.16-.774-.618-1.382-1.3-1.73l-.571-.291.482-.164c1.707-.58 2.627-2.066 2.233-3.607-.265-1.032-.836-1.666-1.941-2.152-.956-.421-1.597-.485-4.934-.486l-3.153-.002zm27.86 0c0 .21.053.237.554.288.404.042.618.121.788.292.169.168.811 1.877 2.29 6.09 1.517 4.32 2.122 5.926 2.307 6.123.509.54 1.28.561 1.763.048.122-.13.608-1.408 1.198-3.15.547-1.613 1.024-2.965 1.062-3.006.037-.04.522 1.235 1.077 2.835.556 1.6 1.115 3.05 1.243 3.222.26.35.776.54 1.224.45.65-.13.7-.242 2.66-6.05 1.014-3.006 1.975-5.716 2.136-6.022.33-.629.69-.861 1.336-.861.362 0 .4-.024.4-.245v-.244H58.51v.232c0 .207.053.237.496.28.714.068.83.218.674.872-.068.287-.738 2.348-1.488 4.579-2.384 7.09-2.223 6.647-2.418 6.647-.201 0-.155.12-1.755-4.526l-1.071-3.108.544-1.584c.863-2.514 1.055-2.792 1.993-2.882.43-.041.483-.072.483-.278v-.232h-7.331v.244c0 .215.042.245.345.245.46 0 .981.226 1.12.486.062.116.479 1.245.926 2.51l.814 2.3-1.125 3.37c-1.068 3.205-1.257 3.633-1.497 3.392-.15-.15-4.01-11.411-3.982-11.616.037-.265.425-.44.98-.441.43-.001.464-.02.464-.246v-.244h-4.497v.23Zm31.866 0c0 .213.05.235.66.29 1.089.1 1.002-.43 1.002 6.138 0 6.54.093 5.982-1.017 6.101-.595.064-.645.087-.645.303v.234l5.008-.025 5.008-.026.206-1.515c.388-2.845.375-2.541.107-2.541-.215 0-.255.075-.447.841-.585 2.333-1.186 2.677-4.67 2.677-1.66 0-1.804-.014-1.986-.195-.187-.187-.195-.326-.195-3.128v-2.933h4.692v-.488h-4.692v-5.474h1.735c.954 0 1.995.043 2.313.095 1.093.18 1.58.74 2.044 2.352.195.674.277.833.446.858.145.022.207-.02.207-.144 0-.204-.377-3.105-.446-3.43l-.047-.22h-9.284zm12.513.014c0 .217.04.245.366.245.54 0 1.084.178 1.197.388.063.119.099 2.204.099 5.812 0 6.5.093 5.944-1.014 6.062-.602.065-.648.087-.648.306v.237h4.692v-.233c0-.215-.05-.238-.644-.302-1.067-.114-1.018.043-1.018-3.285v-2.844l1.637.034c1.365.027 1.695.063 1.98.215 1.023.543 1.267 1.16 1.336 3.384.054 1.771.12 2.106.5 2.558.337.4.77.57 1.451.57.75 0 1.277-.308 1.618-.945.397-.74.419-.88.144-.933-.202-.038-.27.027-.49.479-.29.59-.738.886-1.175.776-.484-.121-.564-.403-.702-2.453-.103-1.53-.168-1.99-.335-2.368a2.62 2.62 0 0 0-1.32-1.356c-.322-.149-.419-.228-.283-.232.114-.003.519-.161.9-.352 1.281-.64 1.842-1.578 1.756-2.93-.034-.532-.11-.82-.3-1.145-.335-.57-.95-1.117-1.59-1.41-.994-.455-1.61-.519-5.005-.52l-3.152-.002zm-50.547.2c1.908.45 3.398 2.002 3.988 4.153.24.879.242 3.114.002 4.005-.727 2.706-2.738 4.304-5.412 4.3-2.272-.004-4.016-1.049-4.921-2.947-.588-1.233-.728-1.879-.728-3.357 0-1.494.144-2.15.738-3.361.694-1.417 1.878-2.385 3.41-2.79.707-.186 2.14-.188 2.923-.003m-27.735.233c.198.06.57.252.827.425.653.44.953 1.054.998 2.041.061 1.332-.394 2.135-1.5 2.644-.445.204-.655.228-2.322.257l-1.833.032v-5.612l1.735.051c.955.029 1.897.101 2.095.162m12.76.048c.727.228 1.298.695 1.624 1.328.253.493.273.608.24 1.384-.033.733-.078.911-.33 1.32-.34.553-1.081 1.043-1.814 1.2-.266.057-1.141.103-1.945.103h-1.462v-5.597l1.589.051c1.067.035 1.756.104 2.097.211Zm32.264-.084c.12.083.218.248.22.366.001.287-.793 2.903-.882 2.903-.104 0-.98-2.644-.979-2.952 0-.148.077-.308.172-.364.27-.157 1.222-.127 1.47.047Zm39.954.078c.702.22 1.283.686 1.591 1.272.226.43.263.62.263 1.332 0 .97-.18 1.407-.815 1.98-.639.578-1.397.757-3.2.757h-1.505v-5.597l1.588.051c1.04.034 1.758.105 2.078.205M8.803 22.657c1.113.509 1.642 1.395 1.644 2.755.002 1.37-.484 2.182-1.607 2.686-.605.271-.868.304-3.14.385l-1.247.045v-6.164l1.93.035c1.762.032 1.974.054 2.42.258M5.904 36.664c-2.8.287-4.958 2.133-5.716 4.89-.268.974-.246 2.938.044 3.943.86 2.981 3.308 4.775 6.518 4.775 1.873 0 3.165-.484 4.266-1.598.66-.668 1.449-2.014 1.311-2.237-.167-.27-.426-.088-.72.505-.798 1.611-2.17 2.508-4.075 2.662-2.855.231-5.18-1.509-5.877-4.397-.24-.997-.215-2.887.052-3.91.56-2.141 1.814-3.545 3.58-4.005 1.228-.32 3.058-.097 4.18.508 1.11.6 2.242 1.996 2.463 3.038.055.26.11.318.28.293.178-.025.21-.092.206-.445L12.39 38.7l-.02-1.57-.263.03c-.204.024-.282.103-.345.348-.123.478-.41.497-1.233.082-.977-.492-2.009-.819-2.805-.889-.374-.032-.77-.072-.877-.087s-.532.008-.944.05Zm14.58.003c-.996.086-1.57.24-2.492.669-1.932.898-3.247 2.474-3.729 4.468-.209.863-.21 2.42-.002 3.279.961 3.975 5.222 6.15 9.431 4.815a6.75 6.75 0 0 0 4.378-4.314c.253-.77.283-1 .281-2.088-.001-.854-.053-1.41-.173-1.85-.894-3.278-4.014-5.297-7.693-4.98Zm43.423.14c-.12.083-.281.276-.36.427-.078.152-1.049 2.667-2.157 5.59s-2.132 5.553-2.276 5.844c-.328.66-.614.876-1.27.954-.454.054-.513.086-.488.267.03.2.073.205 1.887.205 1.816 0 1.858-.004 1.887-.206.026-.185-.033-.214-.553-.273-.327-.037-.637-.13-.705-.212-.167-.202-.015-.821.623-2.534l.51-1.369 3.23-.026 3.231-.025.654 1.736c.36.955.654 1.83.654 1.944 0 .31-.198.42-.865.49-.549.058-.601.084-.601.294v.23h4.496v-.231c0-.206-.058-.24-.505-.3-.63-.083-.825-.185-.996-.522-.075-.147-1.114-2.796-2.31-5.887s-2.234-5.738-2.308-5.88c-.319-.623-1.243-.892-1.778-.517Zm-33.94.284c0 .22.04.247.366.248.629 0 1.099.18 1.204.457.06.156.086 2.383.07 5.867-.031 6.426.07 5.824-1.009 5.94-.584.062-.631.085-.631.304v.236h3.909v-.233c0-.214-.05-.238-.643-.302-1.105-.118-1.018.344-1.018-5.427 0-2.742.017-4.986.037-4.986.021 0 1.308 2.447 2.86 5.438s2.88 5.46 2.95 5.487c.072.028.187-.01.255-.085s1.352-2.715 2.852-5.866l2.727-5.73.026 5.388c.031 6.212.127 5.661-1.005 5.782-.585.063-.634.086-.634.303v.235l2.37-.026c2.34-.026 2.372-.03 2.401-.236.027-.191-.028-.215-.643-.277-.75-.075-.825-.106-.985-.411-.142-.27-.16-11.035-.02-11.404.104-.276.315-.362 1.08-.446.454-.049.538-.089.538-.254 0-.187-.065-.195-1.509-.195h-1.508l-2.695 5.639c-1.482 3.101-2.717 5.66-2.744 5.686s-1.369-2.511-2.981-5.639l-2.932-5.686-1.344-.027-1.345-.027v.247Zm18.572-.012c0 .213.05.235.65.291 1.109.104 1.012-.483 1.012 6.14v5.75l-.22.142c-.12.078-.495.173-.83.21-.56.062-.612.087-.612.301v.234l2.37-.026c2.34-.026 2.372-.03 2.401-.236.027-.192-.028-.215-.66-.279-1.115-.112-1.08-.006-1.08-3.324v-2.76l1.832-.052c2.47-.07 3.382-.322 4.312-1.192.651-.61.937-1.266.936-2.154-.002-1.193-.649-2.14-1.844-2.7-1.088-.509-1.645-.571-5.114-.573l-3.153-.002zm23.754 0c0 .212.05.235.612.288.337.031.688.086.781.122.343.131.373.69.345 6.258l-.027 5.436-.222.18c-.134.108-.472.206-.86.247-.58.062-.637.088-.61.276.03.204.074.21 2.01.235l1.979.026v-.235c0-.217-.049-.24-.634-.303-.383-.04-.722-.138-.856-.247l-.22-.179-.03-5.287c-.016-2.908.006-5.285.049-5.283.043.003 2.166 2.598 4.72 5.768 3.618 4.492 4.689 5.762 4.858 5.762h.217l.029-6.155c.034-7.138-.07-6.51 1.084-6.617.606-.057.656-.079.656-.292v-.23h-4.008v.245c0 .222.038.244.415.245.229 0 .58.046.78.101.308.086.379.158.465.478.065.242.092 2.075.076 5.138l-.026 4.762-4.428-5.485-4.428-5.484h-2.727zm14.212-.09c-.084.218.041.349.334.351.335.003.994.303 1.217.555.095.106 1.185 1.619 2.423 3.361l2.25 3.169-.027 2.38c-.032 2.78.005 2.686-1.11 2.805-.579.062-.636.088-.61.276.03.205.067.209 2.4.235l2.371.026v-.235c0-.217-.048-.24-.634-.303-1.113-.119-1.072-.011-1.103-2.903l-.026-2.477 2.063-2.981c1.134-1.64 2.202-3.128 2.372-3.307.402-.424.755-.603 1.185-.603.305 0 .347-.03.347-.245v-.244h-3.52v.245c0 .22.04.244.398.244.478 0 .776.142.775.37 0 .092-.165.435-.366.763-.445.723-3.47 5.133-3.498 5.098-.277-.34-3.908-5.551-3.982-5.712-.148-.325-.003-.434.679-.507.484-.052.57-.09.57-.257 0-.189-.075-.196-2.227-.221-1.886-.023-2.234-.005-2.281.117m-63.361.43c1.792.637 3.064 2.128 3.56 4.171.241 1 .218 2.892-.048 3.89-.456 1.713-1.502 3.071-2.862 3.717-.892.423-1.513.555-2.61.555-1.551 0-2.666-.433-3.758-1.46-1.18-1.109-1.829-2.828-1.829-4.845 0-3.118 1.62-5.51 4.169-6.156.813-.206 2.631-.137 3.378.128m31.484.019c1.632.236 2.507 1.18 2.511 2.713.004 1.204-.428 1.918-1.453 2.404-.637.302-.67.306-2.381.338l-1.735.033v-5.588l1.197.002c.659.001 1.496.045 1.86.098Zm11.177 3.707c.77 2.013 1.385 3.674 1.368 3.691-.017.018-1.354.02-2.97.006l-2.94-.026 1.34-3.52L64.01 37.6c.196-.499.405-.086 1.794 3.546Z" clip-rule="evenodd"/></g><defs><clipPath id="a"><path fill="#fff" d="M0 0h100v50.342H0z"/></clipPath></defs></svg>