<svg width="100" height="51" viewBox="0 0 100 51" fill="none" xmlns="http://www.w3.org/2000/svg">
<g clip-path="url(#clip0_1_742)">
<path fill-rule="evenodd" clip-rule="evenodd" d="M48.0994 3.92369C46.5403 6.07989 45.25 7.88195 45.2321 7.92818C45.2141 7.97452 45.412 8.0101 45.6719 8.00726L46.1444 8.00208L46.7798 7.10863C47.6951 5.82153 49.3064 4.22691 50.1084 3.8144C50.8858 3.4145 51.2763 3.44118 51.2763 3.89407C51.2763 4.2145 50.9814 4.64265 50.0552 5.6664C49.059 6.76758 48.8972 7.3101 49.4115 7.82447C49.6513 8.06425 49.7761 8.1102 50.1872 8.1102C50.8054 8.1102 51.0998 7.99739 51.7365 7.51684C52.3169 7.07882 52.3516 7.06709 52.3516 7.30971C52.3516 7.53326 52.6872 7.89846 53.0027 8.01841C53.4447 8.18644 54.417 8.12046 54.9933 7.88341C56.1003 7.42789 58.0212 5.92193 58.0212 5.50951C58.0212 5.38077 57.9941 5.2754 57.961 5.2754C57.9279 5.2754 57.6089 5.53033 57.2523 5.84196C56.2215 6.74255 55.8361 7.01567 55.1289 7.34656C54.3229 7.72378 53.5892 7.7797 53.3703 7.48058C53.1939 7.23962 53.1924 6.73092 53.3668 6.31362C53.4888 6.02153 53.5607 5.97803 54.0945 5.87295C55.5332 5.58996 57.1414 4.40795 57.1414 3.63366C57.1414 3.09231 56.2184 2.91645 55.37 3.29622C54.3471 3.75409 53.1395 4.91841 52.5942 5.97256C52.1355 6.85936 50.6364 7.91802 50.215 7.65272C50.0263 7.53395 49.9664 7.30228 50.044 6.9928C50.0747 6.87051 50.502 6.31313 50.9934 5.75418C51.9173 4.70325 52.302 4.0578 52.1906 3.74509C51.8883 2.89612 50.7083 2.86073 49.5135 3.66474L49.0011 4.00951L49.2431 3.68937C49.8335 2.90814 51.8629 0.0829219 51.8629 0.0420617C51.8629 0.017135 51.6539 -0.00173109 51.3985 0.000126192L50.9342 0.00344975L48.0994 3.92369ZM45.9429 2.4406L45.3799 3.22261H44.6624C44.0102 3.22261 43.945 3.2404 43.945 3.41811C43.945 3.58996 44.0102 3.61362 44.4826 3.61362C44.7783 3.61362 45.0202 3.63962 45.0202 3.67129C45.0202 3.70306 44.3175 4.6928 43.4586 5.8707L41.8969 8.01244H42.3749H42.853L44.4498 5.81577L46.0466 3.61909L46.8531 3.61635C47.5935 3.61381 47.6595 3.59759 47.6595 3.41811C47.6595 3.24255 47.5943 3.22261 47.0207 3.22261C46.2864 3.22261 46.2859 3.28263 47.028 2.26953L47.4756 1.65858H46.9907H46.506L45.9429 2.4406ZM56.3594 3.66738C56.3594 4.16846 55.6366 4.85897 54.7151 5.23796C54.1197 5.48282 53.8179 5.52896 53.8179 5.375C53.8179 5.18165 55.1091 3.91723 55.5082 3.71958C56.0003 3.47608 56.3594 3.45399 56.3594 3.66738ZM33.7299 15.5553C32.7569 15.6388 31.5803 16.0071 30.7485 16.4887C29.8083 17.0328 28.6304 18.2566 28.1809 19.1561C27.1858 21.1474 27.167 23.3899 28.1283 25.4034C28.6868 26.5729 29.866 27.7581 31.0417 28.3317C32.2848 28.9379 33.2024 29.1472 34.6097 29.1452C35.9468 29.1432 36.8696 28.9466 37.9006 28.4439C40.3217 27.2634 41.6967 25.0499 41.6967 22.333C41.6967 19.6693 40.3505 17.4591 38.031 16.3143C36.7022 15.6585 35.3367 15.4175 33.7299 15.5553ZM66.6722 15.5499C65.6877 15.6686 64.9815 15.9924 64.3685 16.6061C63.7418 17.2333 63.495 17.8145 63.4959 18.6603C63.4966 19.3586 63.6178 19.7848 63.9767 20.3507C64.412 21.037 65.1926 21.5842 67.232 22.6326C69.7626 23.9334 70.4565 24.5874 70.6011 25.8076C70.7228 26.8354 70.1423 27.7973 69.0881 28.3149C68.5789 28.5649 68.4345 28.5891 67.4543 28.5891C66.4728 28.5891 66.33 28.5651 65.818 28.3137C64.6796 27.7546 63.8753 26.5994 63.6563 25.2089C63.5723 24.6757 63.5142 24.5325 63.3817 24.5325C63.2893 24.5325 63.1846 24.5795 63.1491 24.6369C63.1135 24.6943 63.1165 25.6621 63.1557 26.7875L63.227 28.8335H63.4589C63.6379 28.8335 63.6908 28.7805 63.6908 28.6011C63.6908 28.1142 63.9169 28.0965 64.7893 28.5151C65.7976 28.999 66.4678 29.1658 67.4054 29.1658C68.8113 29.1658 69.9696 28.7254 70.8352 27.8619C71.5763 27.1225 71.8396 26.4372 71.7817 25.3986C71.685 23.6652 70.7544 22.7243 67.7699 21.3433C67.1143 21.0399 66.4012 20.6824 66.1851 20.549C64.5021 19.5091 64.0759 17.8367 65.2146 16.74C66.3427 15.6534 68.5702 15.8151 69.8301 17.075C70.3257 17.5705 70.7616 18.3654 70.8776 18.985C70.9341 19.2872 70.9872 19.3516 71.1797 19.3516C71.4083 19.3516 71.4132 19.3333 71.4132 18.4869C71.4132 18.0112 71.3845 17.2173 71.3494 16.7225C71.29 15.8874 71.2711 15.825 71.0846 15.8522C70.9635 15.8698 70.8608 15.9785 70.8264 16.1253C70.7423 16.4839 70.5025 16.4768 69.659 16.0913C68.5152 15.5684 67.7174 15.4238 66.6722 15.5499ZM1.42294 15.965C1.42294 16.1777 1.4726 16.1999 2.0725 16.2559C3.1812 16.3594 3.08472 15.779 3.08472 22.3482C3.08472 28.9396 3.17817 28.3751 2.06703 28.494C1.46566 28.5585 1.42294 28.5791 1.42294 28.8048V29.0465L4.77094 29.0026C8.37768 28.9554 8.78609 28.9063 9.88544 28.3861C10.6395 28.0294 11.419 27.2843 11.685 26.6657C12.4894 24.7957 11.5307 22.9385 9.38971 22.2195C8.9464 22.0705 8.92363 22.0491 9.14533 21.9888C9.64259 21.8535 10.4344 21.3861 10.8203 21.0002C11.3757 20.4449 11.6253 19.8416 11.624 19.0584C11.6216 17.4683 10.4533 16.3056 8.44073 15.8903C7.84357 15.7671 7.0377 15.7348 4.5551 15.7348H1.42294V15.965ZM14.3262 15.965C14.3262 16.1777 14.3759 16.1999 14.9758 16.2559C16.0848 16.3595 15.988 15.7724 15.988 22.3948V28.1448L15.768 28.2872C15.647 28.3656 15.2732 28.4602 14.9371 28.4976C14.3772 28.5598 14.3262 28.585 14.3262 28.799V29.0325L16.6967 29.0064C19.036 28.9805 19.0675 28.9774 19.0971 28.7707C19.1243 28.5793 19.069 28.5554 18.4541 28.4936C18.0841 28.4565 17.7363 28.3968 17.6813 28.361C17.3927 28.1731 17.3565 27.8127 17.3565 25.1254V22.3819H18.8543C20.5957 22.3819 21.0477 22.4916 21.5883 23.0454C22.1558 23.627 22.2621 24.054 22.3347 26.0476C22.4068 28.0245 22.4978 28.351 23.1056 28.8146C23.4152 29.0507 23.5329 29.0779 24.248 29.0779C24.9761 29.0779 25.0773 29.0535 25.4147 28.7961C25.7482 28.5417 26.2484 27.7058 26.2509 27.3985C26.2515 27.335 26.153 27.269 26.032 27.2519C25.854 27.2266 25.7724 27.3061 25.6043 27.6682C25.3687 28.176 24.9632 28.5403 24.6338 28.5403C23.9402 28.5403 23.8028 28.2033 23.6992 26.2474C23.6536 25.3848 23.5683 24.4486 23.51 24.1669C23.3494 23.3932 22.8924 22.7848 22.2104 22.4371L21.6389 22.1459L22.1208 21.9821C23.8285 21.4017 24.7484 19.9156 24.3536 18.3748C24.0893 17.3435 23.5177 16.7095 22.4129 16.2226C21.4575 15.8015 20.8161 15.7383 17.4787 15.7365L14.3262 15.7348V15.965ZM42.1854 15.9655C42.1854 16.1741 42.2386 16.2017 42.74 16.2535C43.1441 16.2951 43.358 16.3742 43.5285 16.5448C43.697 16.7131 44.3394 18.422 45.8183 22.6351C47.3346 26.9549 47.9398 28.5613 48.125 28.758C48.6338 29.2982 49.4057 29.3192 49.8881 28.8057C50.0096 28.6763 50.4957 27.3983 51.086 25.656C51.6325 24.0434 52.1101 22.6909 52.1475 22.6503C52.1849 22.6098 52.67 23.8854 53.2255 25.4851C53.7809 27.0848 54.3403 28.5348 54.4684 28.7072C54.7288 29.0579 55.2437 29.2473 55.6925 29.1576C56.3426 29.0275 56.3921 28.9149 58.3518 23.1067C59.3662 20.1006 60.3272 17.3908 60.4875 17.0851C60.8171 16.4563 61.1781 16.2236 61.8239 16.2236C62.1861 16.2236 62.2245 16.2001 62.2245 15.9792V15.7348H60.3673H58.51V15.9668C58.51 16.1741 58.5626 16.2037 59.0061 16.2463C59.7203 16.315 59.836 16.4646 59.6802 17.1188C59.6117 17.406 58.9419 19.4665 58.1918 21.6977C55.8078 28.7884 55.9692 28.3448 55.7743 28.3448C55.5727 28.3448 55.6194 28.465 54.0187 23.819L52.9477 20.7106L53.4916 19.1269C54.3547 16.6131 54.547 16.3353 55.4852 16.2452C55.9155 16.2038 55.9684 16.1733 55.9684 15.9668V15.7348H52.3027H48.6371V15.9792C48.6371 16.1937 48.6792 16.2236 48.9823 16.2236C49.4411 16.2236 49.9631 16.4504 50.1022 16.7102C50.1639 16.8256 50.5806 17.9549 51.0281 19.2197L51.8415 21.5194L50.7173 24.8903C49.6486 28.0951 49.4599 28.5225 49.2197 28.2823C49.0694 28.132 45.2094 16.871 45.2378 16.6659C45.2746 16.4013 45.6625 16.2267 46.2177 16.225C46.6474 16.2237 46.682 16.2054 46.682 15.9792V15.7348H44.4337H42.1854V15.9655ZM74.0525 15.965C74.0525 16.1781 74.1017 16.1998 74.7123 16.2559C75.8009 16.3559 75.7143 15.8256 75.7143 22.3928C75.7143 28.9332 75.8073 28.3751 74.6966 28.494C74.1017 28.5578 74.0525 28.5809 74.0525 28.797V29.0308L79.0602 29.0055L84.0679 28.9802L84.2743 27.465C84.6617 24.6197 84.649 24.9235 84.3806 24.9235C84.1661 24.9235 84.126 24.9991 83.9337 25.7654C83.3487 28.0982 82.7482 28.4425 79.2642 28.4425C77.6041 28.4425 77.4595 28.4283 77.2783 28.247C77.0915 28.0602 77.0828 27.9212 77.0828 25.119V22.1864H79.4288H81.7749V21.942V21.6977H79.4288H77.0828V18.9606V16.2236L78.8179 16.2241C79.7722 16.2244 80.813 16.2673 81.1308 16.3194C82.2235 16.4982 82.7114 17.0593 83.1755 18.6707C83.3696 19.3448 83.4522 19.504 83.6207 19.5295C83.7662 19.5514 83.8277 19.5086 83.8277 19.3854C83.8277 19.1813 83.4505 16.28 83.3817 15.9547L83.3352 15.7348H78.6938H74.0525V15.965ZM86.5647 15.9792C86.5647 16.1963 86.6056 16.2237 86.9313 16.2241C87.4703 16.2249 88.0148 16.4017 88.1276 16.6124C88.191 16.7309 88.2265 18.8162 88.2265 22.4243C88.2265 28.9237 88.3195 28.3679 87.2128 28.4864C86.6114 28.5508 86.5647 28.5729 86.5647 28.7925V29.029H88.9108H91.2568V28.796C91.2568 28.5811 91.2068 28.5577 90.6127 28.494C89.5465 28.3799 89.595 28.5365 89.595 25.2085V22.3654L91.2324 22.3986C92.5971 22.4264 92.9267 22.4622 93.2118 22.6136C94.2352 23.157 94.4788 23.7741 94.5476 25.9981C94.6023 27.7691 94.6678 28.1037 95.0485 28.556C95.3853 28.9564 95.8185 29.1268 96.4992 29.1268C97.2481 29.1268 97.7762 28.8183 98.1173 28.181C98.5142 27.4405 98.5357 27.3011 98.261 27.2485C98.0587 27.2098 97.9912 27.2755 97.7703 27.7268C97.481 28.3164 97.0327 28.6127 96.5958 28.503C96.112 28.3816 96.0316 28.1003 95.8941 26.0503C95.7915 24.5201 95.7265 24.0599 95.5595 23.6819C95.2866 23.0639 94.8388 22.6046 94.2382 22.3264C93.9167 22.1774 93.8202 22.0979 93.9563 22.0943C94.07 22.0912 94.475 21.9326 94.8563 21.7418C96.1371 21.1011 96.6984 20.1641 96.6116 18.8117C96.5775 18.2804 96.5021 17.9923 96.3117 17.6675C95.9769 17.0963 95.3616 16.5503 94.7226 16.2579C93.728 15.8024 93.112 15.7383 89.7172 15.7365L86.5647 15.7348V15.9792ZM36.018 16.1786C37.9259 16.6282 39.4164 18.1809 40.0057 20.3323C40.2462 21.2106 40.2476 23.4456 40.0081 24.3369C39.2809 27.0433 37.2697 28.6411 34.5956 28.6366C32.324 28.6327 30.5802 27.5884 29.675 25.6897C29.0872 24.4569 28.9471 23.811 28.9471 22.333C28.9471 20.8391 29.0911 20.1835 29.6848 18.972C30.3794 17.5552 31.5632 16.5868 33.0945 16.1828C33.8024 15.996 35.2347 15.9939 36.018 16.1786ZM8.28286 16.4118C8.48062 16.4724 8.85266 16.6638 9.10965 16.8371C9.76341 17.2779 10.0633 17.8906 10.1085 18.878C10.1695 20.2105 9.71375 21.0131 8.60769 21.5218C8.16322 21.7262 7.95276 21.7495 6.28609 21.7786L4.45325 21.8107V19.005V16.1993L6.18834 16.2504C7.14269 16.2786 8.08521 16.3512 8.28286 16.4118ZM21.0423 16.46C21.7702 16.6882 22.3412 17.155 22.6671 17.7883C22.9204 18.2806 22.9403 18.3956 22.9062 19.1723C22.874 19.905 22.8295 20.0832 22.5774 20.492C22.2364 21.0449 21.4957 21.5345 20.7628 21.6918C20.497 21.7488 19.6218 21.7954 18.818 21.7954H17.3565V18.9968V16.1981L18.945 16.2494C20.0119 16.2838 20.7005 16.3529 21.0423 16.46ZM53.3073 16.3758C53.4269 16.4594 53.5253 16.6243 53.5261 16.7423C53.5282 17.0285 52.7337 19.6449 52.6448 19.6449C52.5415 19.6449 51.6651 17.0006 51.6663 16.6928C51.6669 16.5454 51.7429 16.3847 51.8384 16.3291C52.1082 16.172 53.0596 16.2022 53.3073 16.3758ZM93.2615 16.4543C93.9627 16.6746 94.5444 17.1397 94.852 17.7258C95.0777 18.156 95.1153 18.3457 95.1154 19.0584C95.1156 20.0277 94.9359 20.4645 94.3004 21.0387C93.6612 21.6161 92.9028 21.7954 91.0999 21.7954H89.595V18.9968V16.1981L91.1835 16.2494C92.2233 16.2829 92.9411 16.3537 93.2615 16.4543ZM8.8032 22.657C9.91623 23.1655 10.4453 24.0523 10.4469 25.4122C10.4485 26.7828 9.96344 27.5937 8.84044 28.0978C8.23536 28.3693 7.97182 28.4017 5.69958 28.4834L4.45325 28.5282V25.4462V22.3642L6.38384 22.399C8.14455 22.4307 8.35745 22.4534 8.8032 22.657ZM5.90398 36.6637C3.10349 36.9512 0.94591 38.7971 0.187943 41.5538C-0.0798959 42.5279 -0.0580973 44.4919 0.231834 45.4968C1.09176 48.4784 3.54024 50.272 6.75041 50.272C8.62255 50.272 9.91466 49.7878 11.0157 48.6736C11.6755 48.0059 12.4649 46.6596 12.3274 46.437C12.1602 46.1667 11.9006 46.3486 11.6066 46.942C10.8085 48.5535 9.43633 49.4499 7.53242 49.604C4.67729 49.8351 2.35158 48.095 1.6553 45.2069C1.41502 44.2104 1.44015 42.3204 1.7074 41.2969C2.26634 39.1558 3.52109 37.7524 5.28756 37.2923C6.51512 36.9725 8.34513 37.1949 9.46634 37.8001C10.5769 38.3995 11.7089 39.7956 11.9297 40.8381C11.9847 41.0976 12.0399 41.1555 12.2091 41.1314C12.3883 41.1059 12.4194 41.0387 12.4156 40.6859C12.4132 40.4575 12.4022 39.5637 12.3912 38.7L12.3712 37.1294L12.108 37.1604C11.904 37.1844 11.8265 37.2626 11.7633 37.5077C11.6403 37.9861 11.3538 38.0053 10.5295 37.5901C9.55256 37.0982 8.52138 36.7714 7.72548 36.7015C7.35051 36.6685 6.95569 36.6293 6.84816 36.6143C6.74064 36.5992 6.31581 36.6215 5.90398 36.6637ZM20.4846 36.6667C19.4884 36.7528 18.9147 36.9067 17.9919 37.3357C16.0604 38.2335 14.7448 39.8102 14.263 41.8041C14.0544 42.6675 14.0536 44.2238 14.2612 45.0828C15.222 49.0577 19.4827 51.2331 23.692 49.898C25.7672 49.2398 27.3985 47.6322 28.0699 45.5838C28.3225 44.8131 28.3534 44.5842 28.3514 43.4963C28.35 42.6417 28.2978 42.0854 28.1779 41.646C27.284 38.3677 24.1643 36.3487 20.4846 36.6667ZM63.9075 36.8063C63.7877 36.8901 63.6256 37.0827 63.5473 37.2341C63.469 37.3856 62.4983 39.9013 61.3903 42.8245C60.2824 45.7477 59.258 48.3772 59.114 48.6677C58.7863 49.3288 58.4996 49.5442 57.8438 49.6218C57.3897 49.6757 57.3306 49.708 57.3564 49.8888C57.3851 50.0897 57.4295 50.0945 59.2431 50.0945C61.0595 50.0945 61.1011 50.09 61.1299 49.8878C61.1563 49.703 61.0975 49.674 60.5766 49.6151C60.2503 49.5782 59.9404 49.4848 59.8724 49.403C59.7049 49.2011 59.857 48.5819 60.4951 46.8687L61.0049 45.5002L64.2355 45.4745L67.4661 45.4488L68.1203 47.1851C68.4802 48.1402 68.7745 49.0151 68.7743 49.1295C68.7737 49.4381 68.5763 49.5499 67.9086 49.6196C67.3602 49.677 67.3076 49.7026 67.3076 49.9129V50.1434H69.5559H71.8042V49.9116C71.8042 49.7063 71.7465 49.6721 71.2985 49.6127C70.6686 49.5292 70.4739 49.4269 70.3027 49.0896C70.2285 48.9434 69.1892 46.2944 67.9933 43.203C66.7972 40.1116 65.7587 37.4652 65.6853 37.3221C65.3664 36.6996 64.4425 36.4315 63.9075 36.8063ZM29.9665 37.0908C29.9665 37.3111 30.0063 37.338 30.333 37.3385C30.9616 37.3394 31.4318 37.5181 31.5374 37.7961C31.5967 37.9518 31.6227 40.1794 31.6062 43.6632C31.5756 50.0891 31.6777 49.4869 30.5982 49.6025C30.0137 49.6651 29.9665 49.6879 29.9665 49.9068V50.1434H31.9215H33.8765V49.9104C33.8765 49.6955 33.8266 49.672 33.2325 49.6084C32.1282 49.4902 32.2148 49.9521 32.2148 44.1805C32.2148 41.4386 32.2318 39.1952 32.2525 39.1952C32.2732 39.1952 33.5597 41.6421 35.1114 44.6327C36.6631 47.6235 37.9912 50.0928 38.0628 50.1202C38.1342 50.1477 38.2487 50.1091 38.317 50.0346C38.3853 49.96 39.6686 47.3204 41.1686 44.1688L43.8961 38.4387L43.9225 43.8267C43.953 50.0386 44.0487 49.4884 42.9172 49.6095C42.3319 49.6722 42.2832 49.6954 42.2832 49.9121V50.1469L44.6537 50.1207C46.993 50.0949 47.0245 50.0918 47.0541 49.885C47.0813 49.6936 47.026 49.6698 46.411 49.608C45.6608 49.5326 45.5863 49.5016 45.4259 49.1968C45.2844 48.9279 45.2652 38.1619 45.4057 37.7926C45.5103 37.5173 45.7208 37.4306 46.4865 37.3474C46.9395 37.2982 47.0241 37.2583 47.0241 37.0935C47.0241 36.9065 46.9589 36.898 45.5154 36.898H44.0068L41.3121 42.5369C39.8301 45.6382 38.5953 48.1971 38.5681 48.2233C38.541 48.2494 37.1993 45.7119 35.5867 42.5845L32.6546 36.898L31.3106 36.8709L29.9665 36.8437V37.0908ZM48.5393 37.0794C48.5393 37.2921 48.589 37.3143 49.1889 37.3703C50.2979 37.4739 50.2011 36.8868 50.2011 43.5092V49.2591L49.9811 49.4016C49.8601 49.48 49.4863 49.5746 49.1502 49.6119C48.5903 49.6742 48.5393 49.6994 48.5393 49.9134V50.1469L50.9098 50.1207C53.2491 50.0949 53.2806 50.0918 53.3102 49.885C53.3374 49.6932 53.282 49.6698 52.6496 49.6063C51.5353 49.4943 51.5696 49.6 51.5696 46.2818V43.5219L53.4024 43.4699C55.8725 43.3998 56.7842 43.1477 57.7143 42.2777C58.3654 41.6687 58.6505 41.012 58.6497 40.1239C58.6485 38.9312 58.0013 37.9838 56.8056 37.4242C55.7177 36.9152 55.1609 36.8527 51.6918 36.8508L48.5393 36.8492V37.0794ZM72.293 37.0794C72.293 37.2906 72.3435 37.3144 72.9051 37.3669C73.2418 37.3982 73.5933 37.4532 73.686 37.4888C74.0286 37.6202 74.0595 38.1799 74.0312 43.7471L74.0036 49.1833L73.7823 49.3625C73.648 49.4712 73.3095 49.5685 72.9217 49.6101C72.3428 49.672 72.2853 49.6981 72.3121 49.8865C72.3412 50.0898 72.3863 50.0951 74.3213 50.121L76.3008 50.1474V49.9124C76.3008 49.6954 76.2523 49.6722 75.6668 49.6095C75.2836 49.5685 74.9453 49.4708 74.8114 49.3625L74.5901 49.1833L74.561 43.896C74.545 40.988 74.567 38.6108 74.6099 38.6133C74.6528 38.6158 76.7765 41.2111 79.3293 44.3806C82.9478 48.8732 84.0187 50.1434 84.1878 50.1434H84.4047L84.4338 43.9877C84.4677 36.8503 84.3647 37.4786 85.5184 37.3709C86.1242 37.3143 86.1737 37.2923 86.1737 37.0794V36.8492H84.1698H82.1659V37.0935C82.1659 37.3158 82.2035 37.338 82.5813 37.3385C82.8098 37.3388 83.1605 37.3845 83.3606 37.4401C83.6694 37.5258 83.7398 37.5981 83.8259 37.9178C83.8911 38.1601 83.9183 39.9927 83.902 43.0561L83.8765 47.8178L79.4484 42.3334L75.0202 36.8492H73.6566H72.293V37.0794ZM86.5048 36.9892C86.4214 37.2065 86.5464 37.3377 86.8393 37.3401C87.1737 37.3428 87.8327 37.6431 88.0561 37.8947C88.1506 38.0011 89.2409 39.5139 90.4789 41.2565L92.7298 44.4249L92.702 46.8042C92.6695 49.5853 92.7069 49.4907 91.5923 49.6101C91.0134 49.672 90.9559 49.6981 90.9827 49.8865C91.0119 50.0913 91.049 50.0949 93.3829 50.1207L95.7534 50.1469V49.9121C95.7534 49.6954 95.7047 49.6722 95.1194 49.6095C94.0063 49.4903 94.0471 49.5979 94.0163 46.7065L93.9898 44.2294L96.0526 41.248C97.1871 39.6082 98.2551 38.1198 98.4252 37.9406C98.827 37.5174 99.1799 37.3379 99.61 37.3379C99.915 37.3379 99.957 37.3083 99.957 37.0935V36.8492H98.1975H96.4376V37.0935C96.4376 37.3142 96.4763 37.3379 96.8351 37.3379C97.3129 37.3379 97.6108 37.4801 97.6104 37.7079C97.6102 37.8001 97.4453 38.1433 97.2438 38.4707C96.7988 39.1936 93.7733 43.6035 93.7457 43.5694C93.4692 43.2285 89.8375 38.0179 89.7641 37.8566C89.6161 37.5318 89.7614 37.4235 90.4429 37.3502C90.9269 37.2982 91.0124 37.2597 91.0124 37.0935C91.0124 36.9045 90.9385 36.8972 88.7862 36.8717C86.9003 36.8495 86.5515 36.8674 86.5048 36.9892ZM23.1436 37.4194C24.936 38.0562 26.2082 39.5469 26.7031 41.5901C26.9451 42.5893 26.9223 44.4823 26.6561 45.4806C26.1997 47.1929 25.1535 48.5513 23.7942 49.1965C22.9018 49.6201 22.2808 49.7524 21.1846 49.7524C19.6326 49.7524 18.5182 49.3195 17.4258 48.2925C16.246 47.1833 15.597 45.4637 15.597 43.4474C15.597 40.3286 17.2169 37.9362 19.7656 37.2909C20.5789 37.085 22.397 37.1542 23.1436 37.4194ZM54.6278 37.4377C56.2601 37.6737 57.1347 38.6188 57.1393 40.1514C57.1429 41.3553 56.7114 42.0688 55.6858 42.5548C55.0489 42.8566 55.0154 42.8614 53.3047 42.8933L51.5696 42.9256V40.1318V37.3379L52.7671 37.3399C53.4256 37.341 54.263 37.3849 54.6278 37.4377ZM65.8048 41.1447C66.5747 43.1578 67.1905 44.8191 67.1732 44.8363C67.1559 44.8536 65.8191 44.8561 64.2023 44.8418L61.2629 44.8159L62.6023 41.2969C63.3389 39.3614 63.9731 37.6976 64.0114 37.5995C64.2069 37.1001 64.4158 37.5131 65.8048 41.1447Z" fill="#0047FF"/>
</g>
<defs>
<clipPath id="clip0_1_742">
<rect width="100" height="50.3421" fill="white"/>
</clipPath>
</defs>
</svg>
