<svg xmlns="http://www.w3.org/2000/svg" width="141.913" height="64" fill="none" viewBox="0 0 51 23"><g clip-path="url(#a)"><mask id="b" width="51" height="23" x="0" y="0" maskUnits="userSpaceOnUse" style="mask-type:luminance"><path fill="#fff" d="M50.5 0H.5v23h50z"/></mask><g mask="url(#b)"><path fill="#fff" fill-rule="evenodd" d="M33.115 1.54V.274h-5.07V7.23h5.07V6.083h-3.659V4.194h3.204V2.951h-3.204v-1.41zm-1.41 6.408v2.677H28.93V7.948h-1.433v6.933h1.433v-3.108h2.774v3.108h1.41V7.948zm1.41 8.893v-1.243h-5.07v7.052h5.07v-1.266h-3.659v-1.865h3.204v-1.147h-3.204V16.84zM27.233.273h-1.41v2.678h-2.774V.273h-1.41V7.23h1.41V4.123h2.774V7.23h1.41zm-11.667 0v1.268h2.152v5.69h1.41V1.54h2.152V.273zM11.12 7.756c-2.224 0-3.395 1.268-3.395 3.658 0 2.51 1.171 3.754 3.395 3.754 2.223 0 3.37-1.243 3.37-3.754 0-2.39-1.147-3.658-3.37-3.658m-1.865 3.658c0-1.602.622-2.39 1.865-2.39 1.339 0 1.96.788 1.96 2.39 0 1.698-.621 2.51-1.96 2.51-1.243 0-1.865-.812-1.865-2.51M5.693 7.948v4.9l-2.774-4.9H1.413v6.933h1.34v-4.877l2.844 4.877h1.506V7.948zm6.574 10.519V16.84h3.563v-1.243h-4.973v7.052h1.41v-2.94H15.4v-1.243zM26.971 9.19V7.948h-5.69V9.19h2.127v5.69h1.435v-5.69zm-8.823 3.036c.455 0 .813.072.98.263l.264 2.391h1.602v-.167c-.168-.096-.264-.526-.264-1.34 0-.98-.358-1.506-.884-1.769.717-.286 1.076-.812 1.076-1.697 0-1.243-.718-1.96-2.224-1.96h-3.49v6.933h1.434v-2.654zm-1.506-1.171V9.19h1.77c.717 0 1.075.263 1.075.884 0 .622-.358.98-1.147.98zm2.487 4.542H17.43l-2.486 7.052h1.506l.55-1.53h2.582l.43 1.53h1.53zm-.885 1.601.885 2.774h-1.77zm7.842.718h1.41c-.072-.622-.263-1.148-.693-1.602-.622-.526-1.339-.885-2.32-.885s-1.697.359-2.318.98c-.526.622-.885 1.507-.885 2.678 0 2.487 1.052 3.73 3.108 3.73 1.793 0 2.773-.885 3.109-2.582h-1.41c-.192.812-.814 1.243-1.603 1.243-1.172 0-1.698-.789-1.698-2.32 0-1.672.526-2.485 1.698-2.485.789 0 1.243.454 1.602 1.243M8.37 22.555c.24 0 .43-.096.574-.215a.9.9 0 0 0 .215-.597c0-.288-.095-.479-.215-.598a.87.87 0 0 0-.574-.192h-.024c-.286 0-.478.072-.597.192-.12.119-.191.31-.191.598v.023c0 .24.071.43.19.574.12.12.312.215.598.215zm-.024.191c-.334 0-.573-.119-.74-.287s-.24-.406-.24-.693v-.023c0-.336.072-.574.24-.741s.406-.24.74-.24h.024c.287 0 .526.072.694.24s.287.406.287.74a.99.99 0 0 1-.605.93 1 1 0 0 1-.376.074zm.096-1.1h.024c.096 0 .143-.047.143-.167v-.024s-.023 0-.023-.023c-.024-.024-.072-.024-.144-.024H8.18v.239zm.167.168.192.24c.024.047 0 .095-.024.119-.048.048-.12.024-.144 0l-.239-.335H8.18v.262c0 .049-.048.096-.096.096-.047 0-.095-.048-.095-.096v-.788c0-.048.048-.095.095-.095h.383c.096 0 .191.023.24.071.023.024.047.024.047.048.048.048.048.095.048.144 0 .19-.048.286-.192.334M34.095.274c4.447 0 8.296 1.625 11.404 4.733 3.203 3.204 4.805 7.029 4.805 11.5v6.143h-6.503v-6.335c0-2.486-.884-4.638-2.677-6.407a8.4 8.4 0 0 0-1.41-1.171c-1.435-.98-3.133-1.41-4.902-1.41h-.717zm9.084 22.376h-5.068v-4.9c0-.813-.263-1.435-.813-1.961-.526-.55-1.243-.812-1.96-.812h-1.243v-7.03h.717c1.864 0 3.466.527 4.9 1.602.36.168.718.527.98.79 1.699 1.697 2.487 3.658 2.487 5.976zm-5.69 0h-3.395v-7.052h1.244c.55 0 1.076.191 1.53.622.358.358.621.908.621 1.53z" clip-rule="evenodd"/></g></g><defs><clipPath id="a"><path fill="#fff" d="M.5 0h50v23H.5z"/></clipPath></defs></svg>