<svg xmlns="http://www.w3.org/2000/svg" width="141.474" height="64" fill="none" viewBox="0 0 84 38"><g fill="#000" clip-path="url(#a)"><path d="M6.469 22.352H.984v15.309h3.469V33.1h2.016c3.858 0 6.806-.739 6.806-5.386 0-4.625-2.948-5.363-6.806-5.363Zm.217 7.709H4.453v-4.669h2.233c2.059 0 3.121.217 3.121 2.323 0 2.128-1.062 2.346-3.121 2.346"/><path d="M13.063 32.037c0 3.105 1.929 5.84 6.134 5.84 3.794 0 5.593-2.496 5.81-4.081h-3.469c-.216.825-1.127 1.259-2.34 1.259-1.973 0-2.884-.89-2.884-2.15h8.303V31.82c0-3.323-2.385-5.342-5.788-5.342s-5.767 2.084-5.767 5.559Zm3.251-1.086c0-.825.585-1.65 2.515-1.65 1.929 0 2.536.825 2.536 1.65h-5.05Zm15.924-1.433c1.67 0 2.255.76 2.255 2.758v5.385h3.468v-5.928c0-3.388-1.69-5.255-4.487-5.255-2.341 0-3.707 1.542-4.14 3.496h-.867l.65-1.954v-1.325h-3.469v10.966h3.469V33.6c0-3.084 1.235-4.083 3.121-4.083Zm20.044-7.166H38.82v3.04h5.008v12.269h3.468V25.392h4.986z"/><path d="M49.453 32.167c0 3.843 2.731 5.71 6.178 5.71 3.425 0 6.157-1.867 6.157-5.71 0-3.822-2.732-5.69-6.157-5.69-3.447 0-6.178 1.868-6.178 5.69m3.468 0c0-1.824 1.063-2.65 2.71-2.65 1.626 0 2.688.826 2.688 2.65 0 1.846-1.062 2.67-2.688 2.67-1.647 0-2.71-.824-2.71-2.67m9.087 0c0 3.843 2.731 5.71 6.178 5.71 3.425 0 6.156-1.867 6.156-5.71 0-3.822-2.731-5.69-6.156-5.69-3.447 0-6.178 1.868-6.178 5.69m3.468 0c0-1.824 1.062-2.65 2.71-2.65 1.626 0 2.688.826 2.688 2.65 0 1.846-1.062 2.67-2.688 2.67-1.648 0-2.71-.824-2.71-2.67m8.868 5.493h9.538v-3.04h-3.035V23.374c0-1.216-.672-1.868-1.886-1.824l-4.184.152v3.04l2.602-.13v10.01h-3.035v3.04ZM4.469 15.344V7.353h3.36v-1.52h-3.36V2.511l-1.756.543v2.779H.328v1.52h2.385v8.013c0 .998.455 1.541 1.474 1.476l4.075-.217v-1.52zm11.548-9.728c-2.34 0-3.706 1.368-4.14 3.322h-.498L11.66 7.7V.665H9.883v15.96h1.777v-4.777c0-2.91 1.604-4.712 3.88-4.712 1.843 0 2.732.868 2.732 3.127v6.362h1.756v-6.601c0-2.997-1.583-4.408-4.01-4.408Zm5.585 5.472c0 3.105 1.625 5.754 5.484 5.754 3.425 0 4.726-2.323 5.138-3.995h-1.778c-.39 1.65-1.583 2.519-3.36 2.519-2.666 0-3.642-1.76-3.75-3.8h8.519v-.695c0-3.323-1.994-5.255-5.03-5.255-3.056 0-5.223 1.998-5.223 5.472m1.734-.869c0-1.737 1.365-3.105 3.49-3.105 2.146 0 3.295 1.368 3.295 3.105zm42.979 8.957a.677.677 0 1 0 1.166-.692zm-7.715-3.06-.677-.022-.032.974.923-.308zM54.535.68l.501-.458-1.052.852zM69.1 6.107l.638.227.338-.954-1.01.05zm2.737 8.406a.679.679 0 0 0 .622-1.205zm-4.939 4.317.583-.346v-.001l-.002-.002-.003-.005-.009-.015a5 5 0 0 0-.141-.213 7 7 0 0 0-.423-.545 8.2 8.2 0 0 0-1.684-1.495c-1.526-1.012-3.816-1.743-6.833-.736l.428 1.288c2.572-.859 4.431-.233 5.657.58a6.8 6.8 0 0 1 1.745 1.686l.098.147.003.005-.001-.001zm-7.621-2.692c.173-5.277-.864-9.232-1.956-11.88a19 19 0 0 0-1.532-2.988 12 12 0 0 0-.524-.76 7 7 0 0 0-.154-.199l-.044-.053-.013-.016-.004-.005-.001-.002h-.001l-.513.444-.512.444v-.001a17.8 17.8 0 0 1 2.046 3.653c1.024 2.484 2.02 6.248 1.854 11.319zM54.535.678l-.55.396.002.003.004.005.06.079q.057.076.169.21c.148.176.369.421.664.712.59.58 1.484 1.34 2.71 2.082 2.457 1.486 6.23 2.881 11.54 2.62l-.067-1.356c-5.023.248-8.531-1.07-10.773-2.426a13.4 13.4 0 0 1-2.461-1.889A9 9 0 0 1 55.12.33l-.03-.04-.005-.007-.55.396ZM68.463 5.88c-1.023 2.887-.18 5.075.927 6.515a8.3 8.3 0 0 0 2.374 2.078l.071.039h.002v.001l.312-.602.312-.603h.001l-.006-.002a6 6 0 0 1-.642-.42 7 7 0 0 1-1.35-1.32c-.883-1.146-1.565-2.86-.725-5.232zM54.035 1.136l8.807 9.67 1-.915L55.037.22l-1.001.915Z"/><path fill-rule="evenodd" d="M64.355 10.47a1.065 1.065 0 1 0 .002 2.13 1.065 1.065 0 0 0-.002-2.13m-2.324 1.066a2.326 2.326 0 0 1 2.324-2.328 2.325 2.325 0 0 1 2.323 2.328 2.325 2.325 0 0 1-2.323 2.327 2.326 2.326 0 0 1-2.324-2.327" clip-rule="evenodd"/></g><defs><clipPath id="a"><path fill="#fff" d="M0 0h84v38H0z"/></clipPath></defs></svg>