<svg xmlns="http://www.w3.org/2000/svg" width="64" height="64" fill="none" viewBox="0 0 50 50"><g clip-path="url(#a)"><path fill="#ffdb59" d="M50 25C50 11.193 38.807 0 25 0S0 11.193 0 25s11.193 25 25 25 25-11.193 25-25"/><path fill="#fff" d="M16.806 13.926a22 22 0 0 1-3.76-2.838l5.79 6.349 6.127 6.795a3.832 3.832 0 0 1 5.473 3.464 3.832 3.832 0 1 1-6.976-2.19l-7.692-8.185-4.854-5.012c.627.982 1.468 2.473 2.297 4.478 1.655 4.008 3.264 10.081 2.996 18.264l-.052 1.572 1.492-.497c4.155-1.385 7.16-.376 9.14.935a11 11 0 0 1 2.265 2.01c.25.293.435.542.555.713l.162.244c.31.519.98.69 1.498.381 0 0 1.81-3.648 3.692-5.358 1.739-1.58 5.206-3.02 5.206-3.02a1.095 1.095 0 0 0-.469-1.475l-.268-.155a11.2 11.2 0 0 1-2.96-2.655c-1.426-1.851-2.528-4.616-1.17-8.444l.547-1.54-1.632.08c-8.115.4-13.784-1.729-17.407-3.916"/><path fill="#fff" d="M28.253 27.696a1.642 1.642 0 1 1-3.285 0 1.642 1.642 0 0 1 3.285 0"/><path fill="#000" fill-rule="evenodd" d="M11.376 9.664 9.664 11.02l.329.409c.179.232.438.588.75 1.066.632.967 1.48 2.437 2.314 4.413 1.668 3.95 3.289 9.934 3.019 17.998l-.052 1.549 1.503-.49c4.185-1.365 7.212-.37 9.208.922 1.015.656 1.775 1.4 2.282 1.98.252.289.438.534.559.702l.163.241c.311.51.986.68 1.51.376.523-.304.697-.966.386-1.479l-.073-.114a7 7 0 0 0-.18-.262 12 12 0 0 0-.689-.866 13.2 13.2 0 0 0-2.74-2.378c-2.229-1.442-5.457-2.527-9.643-1.579.046-6.832-1.216-12.185-2.676-16.074l7.75 8.066a3.7 3.7 0 0 0-.692 2.158c0 2.085 1.727 3.776 3.86 3.776 2.13 0 3.859-1.69 3.859-3.776s-1.728-3.777-3.86-3.777c-.592 0-1.153.13-1.654.363l-6.172-6.696c3.542 1.52 8.187 2.677 14.06 2.602-.91 3.861.353 6.839 1.956 8.874a13.4 13.4 0 0 0 3.58 3.141l.405.228a1.115 1.115 0 0 0 1.486-.463c.28-.529.069-1.18-.472-1.454l-.27-.153a11.2 11.2 0 0 1-2.982-2.616c-1.437-1.824-2.547-4.548-1.178-8.321l.55-1.518-1.644.08c-8.175.393-13.887-1.704-17.537-3.86a22 22 0 0 1-3.787-2.797zm15.175 19.611c.914 0 1.654-.724 1.654-1.618s-.74-1.619-1.654-1.619-1.654.725-1.654 1.619c0 .893.74 1.618 1.654 1.618" clip-rule="evenodd"/></g><defs><clipPath id="a"><path fill="#fff" d="M0 0h50v50H0z"/></clipPath></defs></svg>