<svg xmlns="http://www.w3.org/2000/svg" width="84.211" height="64" fill="none" viewBox="0 0 50 38"><path fill="#A876F5" d="M26.493 6.64c.203-.202.499-.293.776-.293s.573.091.776.293c.203.203.296.497.296.772 0 .294-.093.57-.296.772-.203.202-.499.294-.776.294s-.573-.092-.776-.294c-.203-.202-.296-.496-.296-.772 0-.275.093-.57.296-.771Zm6.209 9.536c-.037-.827-.277-1.709-.906-2.297-.702-.643-1.718-.955-2.66-.955h-4.214c-.425 0-.776-.313-.776-.698 0-.331.222-.588.518-.68l.147-.037c.758.368 1.608.515 2.458.515 1.294 0 2.606-.386 3.566-1.268.924-.864 1.368-2.076 1.368-3.307 0-1.231-.444-2.444-1.368-3.307a4.485 4.485 0 0 0-.905-.643c.887.202 1.81-.055 2.458-1.14l-1.793-1.285-1.497 2.076a6.13 6.13 0 0 0-1.829-.276c-1.293 0-2.605.386-3.566 1.268-.924.863-1.368 2.076-1.368 3.307 0 1.23.425 2.443 1.368 3.307.074.073.166.147.258.22-.092.055-.166.092-.166.092-.351.184-.758.496-1.183.937-.59.625-1.182 1.562-1.182 2.793 0 0-.074 2.645 2.975 2.645h2.217c.518 0 1.035.331 1.035.827a.92.92 0 0 1-.148.496h4.25c.61-.68.961-1.69.943-2.59ZM37.26 6.64c.203-.201.499-.293.776-.293s.573.092.776.294c.203.202.296.496.296.771 0 .294-.093.57-.296.772-.203.202-.499.294-.776.294s-.573-.092-.776-.294c-.203-.202-.296-.496-.296-.772a1.02 1.02 0 0 1 .296-.771Zm7.502 9.536c-.037-.827-.277-1.708-.905-2.296-.703-.643-1.719-.956-2.661-.956l-4.897-.037c-.314 0-.536-.183-.536-.477 0-.24.111-.588.407-.643a6.008 6.008 0 0 0 1.81.275c1.294 0 2.606-.386 3.567-1.267.924-.864 1.367-2.076 1.367-3.307 0-1.231-.443-2.444-1.367-3.307a4.483 4.483 0 0 0-.905-.643c.886.202 1.81-.056 2.457-1.14l-1.792-1.286-1.497 2.076a6.13 6.13 0 0 0-1.83-.275c-1.293 0-2.605.386-3.566 1.268-.924.863-1.367 2.076-1.367 3.307 0 1.23.443 2.443 1.367 3.307.277.257.573.477.906.643a4.978 4.978 0 0 0-.666.606c-.59.625-1.182 1.562-1.182 2.793 0 0-.074 2.645 2.975 2.645h2.217c.518 0 1.035.33 1.035.827a.92.92 0 0 1-.148.496h4.25a3.756 3.756 0 0 0 .961-2.609Z"/><path fill="#A876F5" d="M49.906 14.816v-3.968c-.905.11-1.238-.533-1.238-1.158V.026H44.14v10.38c0 1.287.184 2.37.665 3.05.72 1.03 1.7 1.71 3.622 1.71.37-.02.96-.093 1.478-.35ZM16.496 10.003c-.278.276-.647.386-1.017.386-.37 0-.739-.11-1.016-.386-.259-.257-.388-.625-.388-1.01 0-.386.13-.735.388-1.01.277-.277.647-.387 1.016-.387.37 0 .74.11 1.017.386.258.257.388.625.388 1.01 0 .386-.13.735-.388 1.011Zm3.381-5.383c-1.164-1.194-2.772-1.69-4.36-1.69-1.59 0-3.198.514-4.362 1.69-1.145 1.157-1.663 2.774-1.663 4.428 0 1.653.536 3.27 1.663 4.427 1.164 1.195 2.772 1.69 4.361 1.69 1.59 0 3.197-.514 4.361-1.69 1.146-1.157 1.663-2.774 1.663-4.427 0-1.654-.536-3.27-1.663-4.428ZM7.825 10.866c-.758 0-1.072-.239-1.35-.588-.184-.239-.276-.57-.276-1.01v-2.04H8.73V3.554H6.217V.026H2.983V1.35c0 1.47-1.127 2.646-2.513 2.646-.11 0-.203 0-.314-.018v3.251h1.7v3.27c0 1.287.24 2.279.702 2.959.721 1.028 1.516 1.708 3.474 1.708 1.128 0 2.088-.257 2.698-.606v-3.84c-.221.092-.536.147-.905.147ZM6.486 31.715c.462-.202.85-.496 1.183-.863a3.84 3.84 0 0 0 .738-1.286 4.83 4.83 0 0 0 .26-1.598c0-.57-.093-1.084-.26-1.58A3.839 3.839 0 0 0 7.67 25.1c-.315-.367-.721-.643-1.183-.863a3.89 3.89 0 0 0-1.59-.312c-.572 0-1.108.091-1.551.294-.463.202-.85.477-1.183.826-.314.35-.573.772-.758 1.268-.184.496-.258 1.047-.258 1.635 0 .606.092 1.158.258 1.635.185.496.425.919.758 1.268.314.35.72.625 1.183.827.461.202.979.294 1.552.294.61.037 1.127-.055 1.59-.258ZM.018 23.081H1.22v2.15c.147-.295.332-.589.554-.883.222-.294.499-.551.831-.771.314-.22.684-.405 1.11-.533a4.671 4.671 0 0 1 1.385-.202c.72 0 1.386.128 1.977.386.592.257 1.09.624 1.516 1.083.406.46.739 1.01.96 1.636.222.624.333 1.304.333 2.039 0 .735-.111 1.415-.333 2.04a4.669 4.669 0 0 1-.96 1.634c-.407.46-.924.827-1.516 1.084-.59.258-1.256.386-1.977.386-.518 0-.98-.073-1.386-.202a4.005 4.005 0 0 1-1.921-1.304 4.898 4.898 0 0 1-.592-.882v6.063H0V23.08h.018ZM13.214 19.149h-1.237v13.76h1.237V19.15ZM18.498 28.28c-.758.073-1.294.294-1.608.643-.314.349-.48.753-.48 1.213 0 .569.185 1.01.554 1.34.37.331.924.497 1.645.497.554 0 1.053-.092 1.478-.276a3.29 3.29 0 0 0 1.09-.753c.296-.313.518-.662.666-1.047.148-.386.221-.79.221-1.194v-.809l-3.566.386Zm-2.569-4.005c.185-.294.444-.533.758-.753.314-.221.702-.386 1.146-.497.443-.11.98-.183 1.608-.183 1.312 0 2.29.294 2.92.9.627.606.941 1.506.941 2.719v6.449h-1.2v-2.113c-.297.753-.777 1.323-1.405 1.708-.647.386-1.367.588-2.2.588a4.396 4.396 0 0 1-1.44-.22c-.407-.147-.758-.35-1.035-.625a2.545 2.545 0 0 1-.628-.937 3.096 3.096 0 0 1-.222-1.175c0-.92.296-1.617.905-2.095.592-.478 1.35-.772 2.255-.864l3.289-.312c.332-.037.499-.183.499-.404v-.35c0-.66-.203-1.193-.61-1.58-.406-.385-1.072-.587-1.996-.587-1.681 0-2.642.625-2.9 1.856l-1.072-.57c.074-.367.203-.68.387-.955ZM27.847 23.503c.61-.44 1.349-.661 2.236-.661 1.256 0 2.199.404 2.809 1.194.61.79.923 1.837.923 3.141v5.733h-1.237v-5.824c0-.974-.24-1.746-.721-2.297-.48-.551-1.146-.827-2.014-.827-.629 0-1.164.11-1.59.35a2.864 2.864 0 0 0-1.034.955 4.268 4.268 0 0 0-.555 1.396 8.165 8.165 0 0 0-.166 1.672v4.538h-1.201v-9.792h1.164v2.186a4.127 4.127 0 0 1 1.386-1.764Z"/></svg>