<svg xmlns="http://www.w3.org/2000/svg" width="278.261" height="64" fill="none" viewBox="0 0 100 23"><g fill="#FF8A7A" clip-path="url(#a)"><path d="M31.305 8.028c.25-.253.591-.361.931-.361s.682.108.93.361c.244.246.358.59.358.942 0 .353-.114.696-.357.944-.25.253-.59.361-.93.361s-.682-.108-.932-.361c-.243-.246-.357-.59-.357-.944 0-.351.114-.696.357-.943zm7.379 11.544c-.033-1.01-.328-2.08-1.077-2.785-.837-.787-2.05-1.149-3.174-1.149h-5.018c-.496 0-.934-.377-.934-.842 0-.391.263-.72.62-.815-.001 0 .085-.022.178-.052.898.438 1.911.634 2.923.634 1.548 0 3.1-.46 4.234-1.536 1.106-1.046 1.623-2.51 1.623-4.008s-.516-2.961-1.623-4.01a5.2 5.2 0 0 0-1.07-.777c1.066.25 2.166-.06 2.922-1.383l-2.133-1.553-1.78 2.51a7 7 0 0 0-2.175-.332c-1.548 0-3.099.46-4.234 1.536-1.106 1.046-1.623 2.51-1.623 4.009 0 1.498.516 2.962 1.623 4.009q.143.136.297.26c-.11.06-.207.111-.209.111a6 6 0 0 0-1.402 1.135c-.7.756-1.402 1.889-1.402 3.395 0 0-.097 3.214 3.547 3.214h2.639c.608 0 1.226.39 1.226 1.007 0 .224-.065.43-.176.605h5.048a4.72 4.72 0 0 0 1.15-3.183m5.431-11.544c.25-.253.592-.361.931-.361s.681.108.931.361c.243.246.357.59.357.942 0 .353-.114.696-.357.944-.25.253-.591.361-.931.361s-.682-.108-.931-.361c-.242-.246-.356-.59-.356-.944 0-.351.114-.696.356-.943zm8.942 11.544c-.034-1.01-.328-2.08-1.077-2.785-.837-.787-2.05-1.149-3.174-1.149l-5.825-.042c-.368 0-.648-.233-.648-.58 0-.284.14-.707.492-.777a7 7 0 0 0 2.153.325c1.548 0 3.098-.46 4.234-1.537 1.105-1.046 1.621-2.51 1.621-4.008s-.516-2.961-1.621-4.01a5.2 5.2 0 0 0-1.07-.777c1.066.25 2.165-.06 2.922-1.383L48.93 1.296l-1.78 2.51a7 7 0 0 0-2.175-.332c-1.548 0-3.099.46-4.234 1.536-1.107 1.046-1.623 2.51-1.623 4.009 0 1.498.516 2.962 1.623 4.009.324.306.686.568 1.077.78a6.5 6.5 0 0 0-.793.726c-.7.756-1.402 1.889-1.402 3.395 0 0-.097 3.214 3.547 3.214h2.64c.609 0 1.226.39 1.226 1.007 0 .224-.065.43-.176.605h5.05a4.72 4.72 0 0 0 1.147-3.183"/><path d="M59.167 17.922v-4.799c-1.087.14-1.466-.637-1.466-1.408V0h-5.393v12.59c0 1.564.229 2.868.786 3.688.855 1.249 2.012 2.068 4.314 2.076.426-.017 1.134-.103 1.759-.432m-39.76-5.835c-.322.326-.763.467-1.202.467-.44 0-.88-.14-1.202-.467-.314-.318-.461-.764-.461-1.218 0-.456.147-.9.46-1.218.323-.327.764-.467 1.203-.467s.88.14 1.202.467c.314.318.46.764.46 1.217 0 .457-.146.9-.46 1.219m4.02-6.52c-1.393-1.44-3.295-2.057-5.193-2.057s-3.8.617-5.192 2.057c-1.356 1.402-1.99 3.36-1.99 5.367 0 2.005.634 3.964 1.99 5.366 1.393 1.44 3.294 2.056 5.192 2.056s3.8-.616 5.192-2.056c1.355-1.4 1.99-3.36 1.99-5.367-.002-2.005-.635-3.965-1.99-5.366Zm43.045 2.79q.541-1.287 1.586-2.096 1.046-.81 2.669-.81 2.258 0 3.35 1.441 1.095 1.443 1.095 3.801v6.956H73.69v-7.053q0-1.715-.81-2.751-.812-1.036-2.41-1.037-1.129 0-1.905.43c-.504.273-.93.676-1.234 1.167a5.2 5.2 0 0 0-.658 1.703c-.136.67-.203 1.353-.2 2.037v5.503h-1.435V.972h1.434zm12.39 9.29H77.43V5.735h1.434v11.911ZM77.218 1.162a1.26 1.26 0 0 1 .94-.381q.542 0 .93.38.388.382.388.954 0 .55-.388.941a1.27 1.27 0 0 1-.93.392q-.564 0-.94-.392a1.3 1.3 0 0 1-.377-.94q0-.573.377-.954m7.218 5.026q.94-.738 2.281-.738.493 0 1.152.12v1.524a5 5 0 0 0-.61-.095 7 7 0 0 0-.565-.025q-1.035 0-1.729.406c-.457.265-.84.641-1.117 1.095q-.423.69-.6 1.644c-.12.668-.18 1.346-.176 2.025v5.502h-1.434V5.736h1.386v2.716q.471-1.524 1.412-2.263Zm13.391 3.038a3.8 3.8 0 0 0-.764-1.263 3.5 3.5 0 0 0-1.21-.845q-.718-.31-1.657-.31-1.905 0-3 1.109-1.092 1.107-1.304 2.894h8.253a5.4 5.4 0 0 0-.318-1.585m-9.029.048a6 6 0 0 1 1.163-2.001 5.4 5.4 0 0 1 1.823-1.335q1.072-.489 2.386-.488 1.388 0 2.434.488a4.95 4.95 0 0 1 1.74 1.322 5.5 5.5 0 0 1 1.033 1.94 8 8 0 0 1 .341 2.346v.429h-9.876l-.023.166q.022 1.07.389 1.894.363.822.963 1.381c.406.377.881.669 1.4.858a4.9 4.9 0 0 0 1.715.298q1.34 0 2.304-.535a6.3 6.3 0 0 0 1.647-1.299l.752 1.144q-.752.786-1.881 1.418-1.129.63-2.751.631-1.341 0-2.434-.44a5.5 5.5 0 0 1-1.88-1.24 5.5 5.5 0 0 1-1.224-1.94q-.435-1.144-.435-2.548 0-1.336.413-2.49Zm-79.689 3.87c-.897 0-1.265-.28-1.596-.705q-.322-.42-.323-1.22V8.736h3.01V4.283H7.192V0H3.343v1.602c0 1.775-1.334 3.212-2.98 3.212A3 3 0 0 1 0 4.79v3.947h2.02v3.965c0 1.562.278 2.764.833 3.583.858 1.253 1.81 2.073 4.133 2.073 1.346 0 2.475-.314 3.214-.731v-4.668c-.279.11-.655.184-1.091.184h-.001Z"/></g><defs><clipPath id="a"><path fill="#fff" d="M0 0h100v22.755H0z"/></clipPath></defs></svg>