<svg xmlns="http://www.w3.org/2000/svg" width="94.118" height="64" fill="none" viewBox="0 0 50 34"><g fill="#FF8A7A" clip-path="url(#a)"><path d="M26.404 6.771c.21-.213.498-.305.785-.305.287 0 .576.092.785.305.205.208.301.498.301.795 0 .298-.096.587-.3.796a1.086 1.086 0 0 1-.786.305c-.287 0-.574-.092-.785-.305a1.122 1.122 0 0 1-.301-.796c0-.297.096-.587.3-.795Zm6.223 9.736c-.027-.852-.276-1.754-.908-2.348-.706-.664-1.728-.97-2.677-.97H24.81c-.418 0-.788-.317-.788-.71a.71.71 0 0 1 .523-.687s.071-.019.15-.044c.758.37 1.612.535 2.465.535 1.306 0 2.614-.388 3.572-1.295.932-.883 1.369-2.117 1.369-3.38 0-1.264-.436-2.499-1.37-3.383a4.38 4.38 0 0 0-.902-.656c.9.211 1.827-.05 2.465-1.166l-1.8-1.31-1.5 2.117a5.942 5.942 0 0 0-1.836-.28c-1.305 0-2.613.388-3.57 1.295-.933.883-1.37 2.118-1.37 3.382 0 1.264.436 2.498 1.37 3.381.08.077.165.15.25.22l-.176.093a5.053 5.053 0 0 0-1.182.958c-.592.637-1.183 1.592-1.183 2.863 0 0-.082 2.71 2.992 2.71h2.225c.514 0 1.034.33 1.034.85a.944.944 0 0 1-.148.51h4.258a3.978 3.978 0 0 0 .97-2.685Zm4.582-9.736c.21-.213.498-.305.784-.305.287 0 .575.092.786.305.204.208.3.498.3.795 0 .298-.096.587-.3.796-.21.213-.5.305-.786.305-.287 0-.575-.092-.785-.305a1.123 1.123 0 0 1-.3-.796c0-.297.096-.587.3-.795Zm7.541 9.736c-.028-.852-.276-1.754-.908-2.348-.706-.664-1.729-.97-2.677-.97l-4.913-.035c-.31 0-.547-.197-.547-.489 0-.24.119-.596.415-.655a5.93 5.93 0 0 0 1.816.274c1.306 0 2.613-.389 3.571-1.296.932-.883 1.368-2.117 1.368-3.38 0-1.264-.436-2.499-1.368-3.383a4.381 4.381 0 0 0-.903-.656c.9.211 1.827-.05 2.465-1.166l-1.8-1.31-1.5 2.117a5.942 5.942 0 0 0-1.835-.28c-1.306 0-2.614.388-3.572 1.295-.933.883-1.369 2.118-1.369 3.382 0 1.264.436 2.498 1.37 3.381.273.258.578.48.908.658a5.52 5.52 0 0 0-.669.613c-.59.637-1.182 1.592-1.182 2.863 0 0-.082 2.71 2.991 2.71h2.227c.513 0 1.034.33 1.034.85a.944.944 0 0 1-.149.51h4.259c.644-.725 1-1.755.968-2.685Z"/><path d="M49.903 15.116v-4.047c-.916.117-1.236-.538-1.236-1.188V0h-4.549v10.62c0 1.318.193 2.418.663 3.11.721 1.053 1.698 1.743 3.639 1.75.36-.014.957-.087 1.483-.364Zm-33.535-4.921c-.271.275-.643.393-1.013.393-.371 0-.742-.118-1.014-.393-.265-.269-.39-.645-.39-1.028 0-.384.125-.76.39-1.027.272-.275.644-.394 1.014-.394s.742.118 1.014.394c.264.268.388.644.388 1.027 0 .385-.124.76-.389 1.027Zm3.39-5.5c-1.174-1.214-2.778-1.734-4.38-1.734-1.6 0-3.203.52-4.378 1.734C9.856 5.878 9.322 7.53 9.322 9.222c0 1.691.534 3.344 1.678 4.526 1.175 1.214 2.779 1.734 4.38 1.734 1.6 0 3.204-.52 4.379-1.734 1.142-1.18 1.677-2.835 1.677-4.526-.001-1.692-.535-3.345-1.677-4.527Zm-12.076 6.39c-.756 0-1.067-.235-1.346-.594-.18-.235-.272-.58-.272-1.028V7.368h2.539V3.613H6.065V0H2.82v1.351c0 1.497-1.125 2.71-2.513 2.71C.202 4.06.1 4.052 0 4.04v3.328h1.704v3.345c0 1.317.234 2.331.702 3.021.724 1.057 1.527 1.749 3.486 1.749 1.136 0 2.088-.265 2.71-.617V10.93a2.555 2.555 0 0 1-.92.156ZM2.547 23.814a4.293 4.293 0 0 0-1.337 1.768v-6.229H0v14.065h1.21v-4.641a8.459 8.459 0 0 1 .17-1.718 4.395 4.395 0 0 1 .554-1.436 2.788 2.788 0 0 1 1.041-.985c.437-.241.972-.362 1.607-.362.899 0 1.576.292 2.032.874.456.583.684 1.356.684 2.32v5.95h1.25v-5.868c0-1.326-.309-2.395-.924-3.205-.614-.81-1.556-1.216-2.826-1.216-.912 0-1.662.228-2.25.683ZM10.453 33.417h1.21V23.37h-1.21v10.047ZM11.064 19.192c-.318 0-.581.106-.793.321a1.098 1.098 0 0 0-.318.804 1.105 1.105 0 0 0 .318.794c.212.22.477.33.793.33a1.06 1.06 0 0 0 .784-.33c.219-.22.328-.485.328-.794 0-.32-.11-.59-.328-.804a1.077 1.077 0 0 0-.784-.321ZM18.284 23.13c-.754 0-1.395.208-1.923.623-.53.415-.927 1.052-1.191 1.909v-2.29H14v10.045h1.21v-4.64a9.316 9.316 0 0 1 .149-1.709c.099-.536.267-.998.505-1.387.233-.382.557-.7.943-.923.39-.228.875-.342 1.458-.342.158 0 .317.007.476.02.173.016.345.043.515.08v-1.285a5.5 5.5 0 0 0-.972-.101Z"/><path fill-rule="evenodd" d="M20.043 26.355c.232-.65.559-1.212.982-1.688.422-.475.935-.85 1.537-1.125.602-.275 1.273-.412 2.013-.412.78 0 1.464.137 2.052.412a4.177 4.177 0 0 1 1.467 1.115 4.67 4.67 0 0 1 .872 1.637c.192.623.288 1.282.288 1.978v.362h-8.329l-.02.14c.013.603.122 1.135.328 1.598.205.463.475.85.813 1.165.342.318.743.564 1.18.723.45.168.932.252 1.447.252.754 0 1.401-.15 1.944-.452a5.332 5.332 0 0 0 1.388-1.095l.635.964c-.423.443-.952.841-1.587 1.196-.634.355-1.408.533-2.32.533-.755 0-1.438-.123-2.053-.372a4.62 4.62 0 0 1-1.586-1.044 4.649 4.649 0 0 1-1.032-1.637c-.245-.644-.367-1.36-.367-2.15 0-.751.116-1.45.348-2.1Zm6.972-1.105c.281.309.5.67.644 1.065.152.408.24.854.268 1.337h-6.961c.12-1.005.486-1.818 1.1-2.441.617-.623 1.458-.935 2.53-.935.528 0 .995.087 1.398.26a2.97 2.97 0 0 1 1.02.714Z" clip-rule="evenodd"/></g><defs><clipPath id="a"><path fill="#fff" d="M0 0h50v33.838H0z"/></clipPath></defs></svg>