<svg xmlns="http://www.w3.org/2000/svg" width="320" height="64" fill="none" viewBox="0 0 100 20"><g fill="#e57cd8" clip-path="url(#a)"><path d="M61.981 15.45a6 6 0 0 1-.814.05q-1.36 0-2.041-.628-.68-.63-.68-2.195V6.34H56.28V5.242h2.164V2.52h1.258v2.722h2.989v1.097h-2.99v6.399q0 .813.33 1.21.33.394 1.197.394.474.001.824-.04.35-.04.7-.101v1.097a7 7 0 0 1-.772.152Zm-28.064 1.49c-.029-.86-.287-1.773-.944-2.374-.734-.671-1.796-.98-2.783-.98h-4.4c-.434 0-.82-.32-.82-.718 0-.334.232-.613.545-.695 0 0 .074-.019.155-.044.787.373 1.676.54 2.563.54 1.356 0 2.716-.392 3.712-1.31.97-.892 1.422-2.14 1.422-3.418s-.453-2.527-1.422-3.419a4.5 4.5 0 0 0-.94-.662c.935.213 1.899-.051 2.564-1.18L31.7 1.357l-1.56 2.14a6.3 6.3 0 0 0-1.907-.284c-1.356 0-2.717.393-3.712 1.31-.97.892-1.422 2.14-1.422 3.419s.453 2.525 1.422 3.419q.126.116.26.221l-.18.095a5.2 5.2 0 0 0-1.23.968c-.616.644-1.23 1.61-1.23 2.894 0 0-.086 2.742 3.109 2.742h2.314c.532 0 1.075.334 1.075.858 0 .19-.057.368-.154.517h4.425a3.96 3.96 0 0 0 1.008-2.715ZM27.45 7.097c.218-.215.518-.308.816-.308s.597.093.815.308c.214.21.313.504.313.804s-.1.594-.313.805c-.218.215-.517.308-.815.308s-.598-.092-.816-.308a1.1 1.1 0 0 1-.313-.805c0-.3.1-.594.313-.804m19.066 9.843c-.03-.86-.287-1.773-.945-2.374-.733-.671-1.796-.98-2.782-.98l-5.108-.036c-.321 0-.567-.2-.567-.493 0-.243.122-.604.43-.665a6.3 6.3 0 0 0 1.887.278c1.357 0 2.717-.393 3.713-1.31.968-.893 1.421-2.142 1.421-3.419s-.453-2.527-1.421-3.419a4.5 4.5 0 0 0-.939-.663c.934.213 1.898-.05 2.563-1.18l-1.87-1.322-1.56 2.14a6.3 6.3 0 0 0-1.907-.284c-1.356 0-2.716.393-3.712 1.31-.97.892-1.422 2.14-1.422 3.418s.453 2.526 1.422 3.42q.434.394.944.664a6 6 0 0 0-.695.62c-.614.644-1.229 1.61-1.229 2.894 0 0-.085 2.742 3.11 2.742h2.314c.532 0 1.075.334 1.075.858 0 .19-.057.368-.155.517h4.425a3.96 3.96 0 0 0 1.008-2.715Zm-7.838-9.844c.218-.215.517-.308.816-.308s.597.093.816.308c.213.21.313.504.313.804s-.1.594-.313.805c-.22.215-.518.308-.816.308-.299 0-.598-.092-.816-.308a1.1 1.1 0 0 1-.313-.805c0-.3.1-.594.313-.804"/><path d="M51.873 15.534v-4.091c-.954.119-1.285-.544-1.285-1.202V.251h-4.729v10.737c0 1.334.202 2.446.69 3.145.75 1.065 1.764 1.762 3.782 1.77.373-.016.994-.088 1.541-.369ZM20.535 4.997c-1.222-1.227-2.888-1.754-4.552-1.754s-3.331.527-4.551 1.754c-1.19 1.195-1.745 2.867-1.745 4.577s.556 3.381 1.744 4.576c1.22 1.228 2.888 1.754 4.552 1.754s3.33-.526 4.552-1.754c1.188-1.195 1.744-2.866 1.744-4.576s-.556-3.382-1.744-4.577m-3.523 5.561c-.283.28-.67.398-1.054.398-.386 0-.772-.119-1.054-.398-.276-.271-.405-.65-.405-1.039s.129-.767.404-1.039c.283-.278.669-.398 1.054-.398.386 0 .772.12 1.055.398.275.272.404.65.404 1.04 0 .387-.13.767-.404 1.038m-9.027.901c-.787 0-1.108-.237-1.4-.601q-.28-.359-.28-1.04V7.7h2.638V3.904h-2.64V.25H2.932v1.366c0 1.513-1.17 2.74-2.612 2.74q-.16 0-.319-.021V7.7h1.771v3.382c0 1.33.244 2.356.73 3.055.753 1.068 1.588 1.767 3.624 1.767 1.181 0 2.17-.267 2.818-.624v-3.978a2.8 2.8 0 0 1-.959.157M67 5.528q.824-.63 2-.63a6 6 0 0 1 1.01.101v1.3a4 4 0 0 0-.536-.08 6 6 0 0 0-.495-.021q-.908 0-1.515.346c-.4.224-.736.545-.98.934a4 4 0 0 0-.525 1.401 9.3 9.3 0 0 0-.155 1.727V15.3h-1.257V5.142h1.216v2.316q.413-1.3 1.237-1.93m4.534.853a2.8 2.8 0 0 1 .782-.782q.496-.336 1.196-.518.7-.183 1.67-.184 2.061 0 3.05.935.99.935.99 2.804v6.663h-1.257v-2.173q-.474 1.157-1.474 1.767t-2.299.61a4.4 4.4 0 0 1-1.494-.234 3.1 3.1 0 0 1-1.082-.64 2.7 2.7 0 0 1-.66-.975 3.3 3.3 0 0 1-.227-1.219q0-1.422.938-2.174.938-.751 2.36-.894l3.422-.325q.515-.06.515-.427V8.25q0-1.036-.638-1.635-.639-.6-2.082-.6-2.619 0-3.03 1.91l-1.114-.59c.096-.338.242-.66.433-.954Zm2.679 4.143q-1.175.122-1.67.662-.495.538-.494 1.25 0 .872.586 1.39.588.519 1.723.518.864 0 1.535-.294c.424-.181.81-.444 1.134-.772.305-.311.543-.681.7-1.087.156-.395.237-.815.238-1.24v-.831l-3.752.406zm6.86-2.416a5 5 0 0 1 1.093-1.697 4.9 4.9 0 0 1 1.71-1.117q1-.396 2.216-.396 1.115 0 2.01.345a4.7 4.7 0 0 1 1.577.996l-.803.975a4.7 4.7 0 0 0-1.31-.823 4 4 0 0 0-1.535-.294 4.4 4.4 0 0 0-1.629.294 3.8 3.8 0 0 0-1.278.823 3.65 3.65 0 0 0-.835 1.3 4.7 4.7 0 0 0-.298 1.706q0 .935.299 1.697c.185.486.47.929.834 1.3.364.363.8.647 1.279.833.512.2 1.058.3 1.607.295a4.2 4.2 0 0 0 1.618-.315 4.8 4.8 0 0 0 1.35-.843l.763.975q-.66.61-1.587.995-.927.386-2.123.386-1.216 0-2.206-.396a5 5 0 0 1-1.69-1.097 4.7 4.7 0 0 1-1.072-1.677 6 6 0 0 1-.371-2.132q0-1.158.381-2.133M92.5 12.273v3.026h-1.258V1.922H92.5v8.766l5.42-5.546h1.774L95.22 9.57l4.576 5.728h-1.65l-3.772-4.875-1.875 1.849Z"/></g><defs><clipPath id="a"><path fill="#fff" d="M0 0h100v19.761H0z"/></clipPath></defs></svg>