<svg xmlns="http://www.w3.org/2000/svg" width="278.261" height="64" fill="none" viewBox="0 0 100 23"><g fill="#FF8A7A" clip-path="url(#a)"><path d="M31.305 8.028c.25-.253.591-.361.931-.361.34 0 .682.108.93.361.244.246.358.59.358.942 0 .353-.114.696-.357.944-.25.253-.59.361-.93.361-.34 0-.682-.108-.932-.361-.243-.246-.357-.59-.357-.944 0-.351.114-.696.357-.943v.001Zm7.379 11.544c-.033-1.01-.328-2.08-1.077-2.785-.837-.787-2.05-1.149-3.174-1.149h-5.018c-.496 0-.934-.377-.934-.842 0-.391.263-.72.62-.815-.001 0 .085-.022.178-.052.898.438 1.911.634 2.923.634 1.548 0 3.1-.46 4.234-1.536 1.106-1.046 1.623-2.51 1.623-4.008 0-1.498-.516-2.961-1.623-4.01a5.197 5.197 0 0 0-1.07-.777c1.066.25 2.166-.06 2.922-1.383l-2.133-1.553-1.78 2.51a7.045 7.045 0 0 0-2.175-.332c-1.548 0-3.099.46-4.234 1.536-1.106 1.046-1.623 2.51-1.623 4.009 0 1.498.516 2.962 1.623 4.009.095.091.195.177.297.26-.11.06-.207.111-.209.111a5.99 5.99 0 0 0-1.402 1.135c-.7.756-1.402 1.889-1.402 3.395 0 0-.097 3.214 3.547 3.214h2.639c.608 0 1.226.39 1.226 1.007 0 .224-.065.43-.176.605h5.048a4.718 4.718 0 0 0 1.15-3.183Zm5.431-11.544c.25-.253.592-.361.931-.361.34 0 .681.108.931.361.243.246.357.59.357.942 0 .353-.114.696-.357.944-.25.253-.591.361-.931.361-.34 0-.682-.108-.931-.361-.242-.246-.356-.59-.356-.944 0-.351.114-.696.356-.943v.001Zm8.942 11.544c-.034-1.01-.328-2.08-1.077-2.785-.837-.787-2.05-1.149-3.174-1.149l-5.825-.042c-.368 0-.648-.233-.648-.58 0-.284.14-.707.492-.777a7.032 7.032 0 0 0 2.153.325c1.548 0 3.098-.46 4.234-1.537 1.105-1.046 1.621-2.51 1.621-4.008 0-1.498-.516-2.961-1.621-4.01a5.192 5.192 0 0 0-1.07-.777c1.066.25 2.165-.06 2.922-1.383L48.93 1.296l-1.78 2.51a7.043 7.043 0 0 0-2.175-.332c-1.548 0-3.099.46-4.234 1.536-1.107 1.046-1.623 2.51-1.623 4.009 0 1.498.516 2.962 1.623 4.009.324.306.686.568 1.077.78a6.537 6.537 0 0 0-.793.726c-.7.756-1.402 1.889-1.402 3.395 0 0-.097 3.214 3.547 3.214h2.64c.609 0 1.226.39 1.226 1.007 0 .224-.065.43-.176.605h5.05a4.724 4.724 0 0 0 1.147-3.183Z"/><path d="M59.167 17.922v-4.799c-1.087.14-1.466-.637-1.466-1.408V0h-5.393v12.59c0 1.564.229 2.868.786 3.688.855 1.249 2.012 2.068 4.314 2.076.426-.017 1.134-.103 1.759-.432Zm-39.76-5.835c-.322.326-.763.467-1.202.467-.44 0-.88-.14-1.202-.467-.314-.318-.461-.764-.461-1.218 0-.456.147-.9.46-1.218.323-.327.764-.467 1.203-.467.44 0 .88.14 1.202.467.314.318.46.764.46 1.217 0 .457-.146.9-.46 1.219Zm4.02-6.52c-1.393-1.44-3.295-2.057-5.193-2.057-1.898 0-3.8.617-5.192 2.057-1.356 1.402-1.99 3.36-1.99 5.367 0 2.005.634 3.964 1.99 5.366 1.393 1.44 3.294 2.056 5.192 2.056 1.898 0 3.8-.616 5.192-2.056 1.355-1.4 1.99-3.36 1.99-5.367-.002-2.005-.635-3.965-1.99-5.366Zm43.045 2.79c.36-.858.89-1.557 1.586-2.096.698-.54 1.587-.81 2.669-.81 1.505 0 2.622.481 3.35 1.441.73.962 1.095 2.229 1.095 3.801v6.956H73.69v-7.053c0-1.143-.27-2.06-.81-2.751-.542-.69-1.344-1.037-2.41-1.037-.753 0-1.387.144-1.905.43-.504.273-.93.676-1.234 1.167a5.21 5.21 0 0 0-.658 1.703c-.136.67-.203 1.353-.2 2.037v5.503h-1.435V.972h1.434v7.385Zm12.39 9.29H77.43V5.735h1.434v11.911ZM77.218 1.162c.25-.255.563-.381.94-.381.362 0 .671.126.93.38.258.255.388.573.388.954 0 .366-.129.68-.388.941a1.267 1.267 0 0 1-.93.392c-.375 0-.69-.13-.94-.392a1.297 1.297 0 0 1-.377-.94c0-.382.125-.7.377-.954Zm7.218 5.026c.627-.492 1.387-.738 2.281-.738.329 0 .713.04 1.152.12v1.524a4.934 4.934 0 0 0-.61-.095 6.88 6.88 0 0 0-.565-.025c-.69 0-1.267.136-1.729.406-.457.265-.84.641-1.117 1.095-.282.46-.482 1.008-.6 1.644-.12.668-.18 1.346-.176 2.025v5.502h-1.434V5.736h1.386v2.716c.314-1.016.785-1.77 1.412-2.263Zm13.391 3.038a3.813 3.813 0 0 0-.764-1.263 3.522 3.522 0 0 0-1.21-.845c-.478-.207-1.032-.31-1.657-.31-1.271 0-2.269.37-3 1.109-.728.738-1.163 1.703-1.304 2.894h8.253a5.367 5.367 0 0 0-.318-1.585Zm-9.029.048a6.015 6.015 0 0 1 1.163-2.001 5.423 5.423 0 0 1 1.823-1.335c.714-.326 1.51-.488 2.386-.488.925 0 1.737.163 2.434.488a4.953 4.953 0 0 1 1.74 1.322A5.536 5.536 0 0 1 99.377 9.2a7.92 7.92 0 0 1 .341 2.346v.429h-9.876l-.023.166c.015.714.144 1.345.389 1.894.242.549.563 1.008.963 1.381.406.377.881.669 1.4.858a4.872 4.872 0 0 0 1.715.298c.894 0 1.661-.178 2.304-.535a6.32 6.32 0 0 0 1.647-1.299l.752 1.144c-.501.524-1.129.997-1.881 1.418-.752.42-1.67.631-2.751.631-.895 0-1.705-.146-2.434-.44a5.48 5.48 0 0 1-1.88-1.24 5.512 5.512 0 0 1-1.224-1.94c-.29-.763-.435-1.612-.435-2.548 0-.891.138-1.72.413-2.49Zm-79.689 3.87c-.897 0-1.265-.28-1.596-.705-.214-.279-.323-.688-.323-1.22V8.736h3.01V4.283H7.192V0H3.343v1.602c0 1.775-1.334 3.212-2.98 3.212-.124 0-.245-.008-.363-.024v3.947h2.02v3.965c0 1.562.278 2.764.833 3.583.858 1.253 1.81 2.073 4.133 2.073 1.346 0 2.475-.314 3.214-.731v-4.668c-.279.11-.655.184-1.091.184h-.001Z"/></g><defs><clipPath id="a"><path fill="#fff" d="M0 0h100v22.755H0z"/></clipPath></defs></svg>