<svg xmlns="http://www.w3.org/2000/svg" width="290.909" height="64" fill="none" viewBox="0 0 100 22"><g fill="#A876F5" clip-path="url(#a)"><path d="M29.825 7.476c.229-.228.562-.331.874-.331s.644.103.873.33c.23.228.333.559.333.87 0 .33-.104.64-.333.868s-.561.33-.873.33-.645-.103-.874-.33-.333-.559-.333-.869.104-.64.333-.868m6.99 10.734c-.042-.93-.313-1.924-1.02-2.586-.79-.723-1.934-1.075-2.995-1.075h-4.743c-.479 0-.874-.352-.874-.786a.8.8 0 0 1 .582-.765l.167-.041c.853.413 1.81.579 2.767.579 1.456 0 2.933-.435 4.014-1.428 1.04-.972 1.54-2.337 1.54-3.722 0-1.386-.5-2.751-1.54-3.723a5 5 0 0 0-1.019-.724c.999.227 2.039-.062 2.767-1.282l-2.018-1.448-1.685 2.337a6.9 6.9 0 0 0-2.06-.31c-1.456 0-2.933.434-4.014 1.427-1.04.972-1.54 2.337-1.54 3.723s.479 2.75 1.54 3.723c.083.082.187.165.291.248a3 3 0 0 1-.187.103c-.395.207-.853.558-1.332 1.055-.665.703-1.33 1.758-1.33 3.144 0 0-.084 2.978 3.348 2.978h2.497c.582 0 1.165.372 1.165.93 0 .207-.063.394-.167.56h4.785c.686-.766 1.081-1.904 1.06-2.917Zm5.131-10.734c.229-.228.562-.331.874-.331s.645.103.873.33c.23.228.333.56.333.87 0 .33-.104.64-.333.868-.228.228-.561.331-.873.331s-.645-.103-.874-.33-.333-.56-.333-.87c-.02-.31.104-.64.333-.868m8.446 10.734c-.042-.93-.313-1.923-1.02-2.585-.79-.724-1.934-1.076-2.995-1.076l-5.513-.041c-.353 0-.603-.207-.603-.538 0-.269.125-.662.458-.724.645.207 1.352.31 2.038.31 1.457 0 2.934-.434 4.015-1.426 1.04-.973 1.54-2.338 1.54-3.723 0-1.386-.5-2.751-1.54-3.723a5 5 0 0 0-1.02-.724c1 .227 2.04-.062 2.767-1.282L46.502 1.23l-1.685 2.337a6.9 6.9 0 0 0-2.06-.31c-1.456 0-2.933.434-4.014 1.427-1.04.972-1.54 2.337-1.54 3.723s.5 2.75 1.54 3.723c.312.289.644.537 1.019.723a5.6 5.6 0 0 0-.75.683c-.665.703-1.33 1.758-1.33 3.144 0 0-.084 2.978 3.349 2.978h2.496c.582 0 1.165.372 1.165.93 0 .207-.063.394-.166.56h4.784a4.23 4.23 0 0 0 1.082-2.938"/><path d="M56.178 16.68v-4.468c-1.02.124-1.394-.6-1.394-1.303V.029h-5.096v11.687c0 1.447.207 2.668.749 3.433.81 1.158 1.913 1.923 4.077 1.923.415-.02 1.081-.103 1.664-.393Zm-37.606-5.42c-.313.311-.729.435-1.145.435s-.832-.124-1.144-.434c-.29-.29-.437-.703-.437-1.138s.146-.827.437-1.137c.312-.31.728-.434 1.144-.434s.832.124 1.145.434c.29.29.436.703.436 1.137s-.145.828-.436 1.138Zm3.806-6.06c-1.31-1.343-3.12-1.902-4.909-1.902s-3.599.58-4.91 1.903c-1.289 1.303-1.871 3.123-1.871 4.984 0 1.862.603 3.682 1.872 4.985 1.31 1.344 3.12 1.903 4.909 1.903s3.599-.58 4.91-1.903c1.289-1.303 1.871-3.123 1.871-4.985 0-1.861-.603-3.681-1.872-4.984Zm46.447 9.887c.52-.227.956-.558 1.331-.972.354-.414.645-.89.832-1.448a5.4 5.4 0 0 0 .292-1.8c0-.64-.105-1.22-.292-1.778a4.3 4.3 0 0 0-.832-1.448c-.354-.413-.811-.724-1.33-.972-.521-.227-1.104-.351-1.79-.351-.645 0-1.248.103-1.747.33-.52.228-.957.538-1.331.931a4.4 4.4 0 0 0-.854 1.427c-.207.559-.29 1.18-.29 1.841 0 .683.103 1.303.29 1.841.208.558.479 1.034.854 1.427.353.393.81.703 1.33.93s1.103.332 1.748.332c.686.041 1.269-.062 1.79-.29Zm-7.281-9.72h1.353v2.42q.248-.498.623-.994.375-.495.936-.868a4.4 4.4 0 0 1 1.249-.6 5.3 5.3 0 0 1 1.56-.228c.811 0 1.56.145 2.225.435.666.29 1.228.703 1.707 1.22a5.6 5.6 0 0 1 1.08 1.84q.375 1.056.375 2.297 0 1.24-.374 2.295c-.25.704-.603 1.324-1.082 1.841-.457.517-1.04.93-1.706 1.22s-1.414.435-2.225.435a5.2 5.2 0 0 1-1.56-.228 4.5 4.5 0 0 1-2.164-1.468 5.5 5.5 0 0 1-.665-.993v6.825h-1.353V5.366h.02ZM76.401.94h-1.393v15.492H76.4zm5.945 10.28c-.853.082-1.456.33-1.81.723s-.54.848-.54 1.365c0 .642.207 1.138.624 1.51.415.373 1.04.559 1.85.559.625 0 1.187-.104 1.665-.31a3.7 3.7 0 0 0 1.227-.849 3.6 3.6 0 0 0 .75-1.178c.166-.435.249-.89.249-1.345v-.91l-4.015.434Zm-2.892-4.51c.208-.33.5-.6.854-.847.353-.249.79-.435 1.29-.559a7.5 7.5 0 0 1 1.809-.207c1.477 0 2.579.331 3.287 1.014.707.682 1.06 1.696 1.06 3.06v7.26h-1.351v-2.378c-.334.848-.875 1.49-1.582 1.923-.728.435-1.539.662-2.475.662a5 5 0 0 1-1.623-.248c-.457-.165-.853-.393-1.165-.703a2.9 2.9 0 0 1-.707-1.055 3.5 3.5 0 0 1-.25-1.324c0-1.034.334-1.82 1.02-2.357.666-.538 1.518-.87 2.538-.973l3.702-.351c.375-.041.562-.207.562-.455v-.393c0-.745-.229-1.344-.686-1.779s-1.207-.662-2.247-.662c-1.893 0-2.975.704-3.266 2.09l-1.206-.642c.083-.413.228-.765.436-1.075Zm13.417-.868c.687-.496 1.518-.745 2.517-.745 1.414 0 2.475.455 3.162 1.345s1.04 2.068 1.04 3.536v6.454h-1.394V9.874c0-1.096-.27-1.965-.811-2.585-.54-.62-1.29-.93-2.268-.93-.707 0-1.31.123-1.788.392-.479.269-.874.62-1.165 1.076a4.8 4.8 0 0 0-.624 1.571c-.125.6-.187 1.22-.187 1.883v5.108H90V5.366h1.31v2.462q.531-1.242 1.561-1.986M8.813 12.233c-.853 0-1.207-.27-1.519-.662-.208-.27-.312-.641-.312-1.138V8.137h2.85V4.001h-2.83V.03h-3.64v1.489c0 1.655-1.269 2.978-2.829 2.978-.124 0-.228 0-.353-.02v3.66h1.913v3.682c0 1.448.27 2.565.791 3.33.811 1.158 1.706 1.923 3.91 1.923 1.27 0 2.351-.29 3.038-.682v-4.323c-.25.104-.603.166-1.02.166Z"/></g><defs><clipPath id="a"><path fill="#fff" d="M0 0h100v21.557H0z"/></clipPath></defs></svg>