<svg xmlns="http://www.w3.org/2000/svg" width="94.118" height="64" fill="none" viewBox="0 0 50 34"><g fill="#ff8a7a" clip-path="url(#a)"><path d="M26.404 6.771c.21-.213.498-.305.785-.305s.576.092.785.305c.205.208.301.498.301.795s-.096.587-.3.796a1.1 1.1 0 0 1-.786.305c-.287 0-.574-.092-.785-.305a1.12 1.12 0 0 1-.301-.796c0-.297.096-.587.3-.795Zm6.223 9.736c-.027-.852-.276-1.754-.908-2.348-.706-.664-1.728-.97-2.677-.97H24.81c-.418 0-.788-.317-.788-.71a.71.71 0 0 1 .523-.687s.071-.019.15-.044c.758.37 1.612.535 2.465.535 1.306 0 2.614-.388 3.572-1.295.932-.883 1.369-2.117 1.369-3.38 0-1.264-.436-2.499-1.37-3.383a4.4 4.4 0 0 0-.902-.656c.9.211 1.827-.05 2.465-1.166l-1.8-1.31-1.5 2.117a6 6 0 0 0-1.836-.28c-1.305 0-2.613.388-3.57 1.295-.933.883-1.37 2.118-1.37 3.382s.436 2.498 1.37 3.381q.121.115.25.22l-.176.093a5 5 0 0 0-1.182.958c-.592.637-1.183 1.592-1.183 2.863 0 0-.082 2.71 2.992 2.71h2.225c.514 0 1.034.33 1.034.85a.94.94 0 0 1-.148.51h4.258a3.98 3.98 0 0 0 .97-2.685Zm4.582-9.736c.21-.213.498-.305.784-.305s.575.092.786.305c.204.208.3.498.3.795s-.096.587-.3.796c-.21.213-.5.305-.786.305s-.575-.092-.785-.305a1.12 1.12 0 0 1-.3-.796c0-.297.096-.587.3-.795Zm7.541 9.736c-.028-.852-.276-1.754-.908-2.348-.706-.664-1.729-.97-2.677-.97l-4.913-.035c-.31 0-.547-.197-.547-.489 0-.24.119-.596.415-.655a6 6 0 0 0 1.816.274c1.306 0 2.613-.389 3.571-1.296.932-.883 1.368-2.117 1.368-3.38 0-1.264-.436-2.499-1.368-3.383a4.4 4.4 0 0 0-.903-.656c.9.211 1.827-.05 2.465-1.166l-1.8-1.31-1.5 2.117a6 6 0 0 0-1.835-.28c-1.306 0-2.614.388-3.572 1.295-.933.883-1.369 2.118-1.369 3.382s.436 2.498 1.37 3.381c.273.258.578.48.908.658a5.5 5.5 0 0 0-.669.613c-.59.637-1.182 1.592-1.182 2.863 0 0-.082 2.71 2.991 2.71h2.227c.513 0 1.034.33 1.034.85a.94.94 0 0 1-.149.51h4.259c.644-.725 1-1.755.968-2.685"/><path d="M49.903 15.116v-4.047c-.916.117-1.236-.538-1.236-1.188V0h-4.549v10.62c0 1.318.193 2.418.663 3.11.721 1.053 1.698 1.743 3.639 1.75.36-.014.957-.087 1.483-.364m-33.535-4.921c-.271.275-.643.393-1.013.393-.371 0-.742-.118-1.014-.393-.265-.269-.39-.645-.39-1.028 0-.384.125-.76.39-1.027.272-.275.644-.394 1.014-.394s.742.118 1.014.394c.264.268.388.644.388 1.027 0 .385-.124.76-.389 1.027Zm3.39-5.5c-1.174-1.214-2.778-1.734-4.38-1.734-1.6 0-3.203.52-4.378 1.734C9.856 5.878 9.322 7.53 9.322 9.222c0 1.691.534 3.344 1.678 4.526 1.175 1.214 2.779 1.734 4.38 1.734s3.204-.52 4.379-1.734c1.142-1.18 1.677-2.835 1.677-4.526-.001-1.692-.535-3.345-1.677-4.527Zm-12.076 6.39c-.756 0-1.067-.235-1.346-.594q-.271-.354-.272-1.028V7.368h2.539V3.613H6.065V0H2.82v1.351c0 1.497-1.125 2.71-2.513 2.71A3 3 0 0 1 0 4.04v3.328h1.704v3.345c0 1.317.234 2.331.702 3.021.724 1.057 1.527 1.749 3.486 1.749 1.136 0 2.088-.265 2.71-.617V10.93a2.6 2.6 0 0 1-.92.156ZM2.547 23.814a4.3 4.3 0 0 0-1.337 1.768v-6.229H0v14.065h1.21v-4.641a8.5 8.5 0 0 1 .17-1.718 4.4 4.4 0 0 1 .554-1.436 2.8 2.8 0 0 1 1.041-.985q.655-.362 1.607-.362 1.348 0 2.032.874t.684 2.32v5.95h1.25v-5.868q0-1.99-.924-3.205-.921-1.215-2.826-1.216-1.368 0-2.25.683Zm7.906 9.603h1.21V23.37h-1.21zm.611-14.225q-.476 0-.793.321a1.1 1.1 0 0 0-.318.804 1.1 1.1 0 0 0 .318.794q.319.33.793.33a1.06 1.06 0 0 0 .784-.33q.328-.33.328-.794 0-.482-.328-.804a1.08 1.08 0 0 0-.784-.321m7.22 3.938q-1.131 0-1.923.623-.795.623-1.191 1.909v-2.29H14v10.045h1.21v-4.64a9.3 9.3 0 0 1 .149-1.709 4 4 0 0 1 .505-1.387c.233-.382.557-.7.943-.923q.584-.342 1.458-.342.237 0 .476.02.26.024.515.08v-1.285a5.5 5.5 0 0 0-.972-.101"/><path fill-rule="evenodd" d="M20.043 26.355q.348-.974.982-1.688.633-.713 1.537-1.125t2.013-.412q1.17 0 2.052.412a4.2 4.2 0 0 1 1.467 1.115 4.7 4.7 0 0 1 .872 1.637q.288.934.288 1.978v.362h-8.329l-.02.14q.02.904.328 1.598.307.694.813 1.165c.342.318.743.564 1.18.723q.675.252 1.447.252 1.13 0 1.944-.452a5.3 5.3 0 0 0 1.388-1.095l.635.964q-.634.664-1.587 1.196-.951.533-2.32.533-1.131 0-2.053-.372a4.6 4.6 0 0 1-1.586-1.044 4.65 4.65 0 0 1-1.032-1.637q-.367-.965-.367-2.15 0-1.126.348-2.1m6.972-1.105c.281.309.5.67.644 1.065q.227.612.268 1.337h-6.961q.18-1.507 1.1-2.441.924-.935 2.53-.935.793 0 1.398.26a3 3 0 0 1 1.02.714Z" clip-rule="evenodd"/></g><defs><clipPath id="a"><path fill="#fff" d="M0 0h50v33.838H0z"/></clipPath></defs></svg>