<svg xmlns="http://www.w3.org/2000/svg" width="96.97" height="64" fill="none" viewBox="0 0 50 33"><g fill="#E57CD8" clip-path="url(#a)"><path d="M32.553 16.259c-.028-.827-.276-1.702-.906-2.28-.705-.643-1.724-.939-2.671-.939h-4.222c-.417 0-.787-.309-.787-.69 0-.32.222-.588.523-.666-.001 0 .07-.019.148-.043.756.358 1.609.52 2.46.52 1.302 0 2.607-.378 3.563-1.258.93-.857 1.364-2.056 1.364-3.281 0-1.227-.434-2.426-1.364-3.282a4.3 4.3 0 0 0-.902-.636c.897.205 1.822-.048 2.46-1.132l-1.794-1.27-1.498 2.054a6 6 0 0 0-1.83-.272c-1.301 0-2.607.377-3.562 1.257-.93.856-1.365 2.055-1.365 3.281 0 1.227.434 2.424 1.365 3.282q.12.112.25.212l-.174.091a5 5 0 0 0-1.18.93c-.591.617-1.18 1.545-1.18 2.777 0 0-.083 2.631 2.983 2.631h2.221c.511 0 1.032.32 1.032.824a.9.9 0 0 1-.148.496h4.247a3.8 3.8 0 0 0 .967-2.606M26.345 6.81a1.1 1.1 0 0 1 .783-.296 1.1 1.1 0 0 1 .783.296c.204.2.3.483.3.772 0 .288-.096.57-.3.771a1.1 1.1 0 0 1-.783.296c-.286 0-.574-.088-.784-.296a1.07 1.07 0 0 1-.3-.771c0-.289.096-.57.3-.772Zm18.297 9.449c-.03-.827-.276-1.702-.907-2.28-.704-.643-1.724-.939-2.67-.939l-4.903-.035c-.308 0-.544-.192-.544-.474 0-.232.117-.58.412-.638a6 6 0 0 0 1.812.267c1.302 0 2.607-.377 3.563-1.257.93-.857 1.364-2.056 1.364-3.281 0-1.227-.434-2.426-1.364-3.282a4.3 4.3 0 0 0-.9-.636c.896.204 1.821-.05 2.459-1.132l-1.795-1.27-1.497 2.054a6 6 0 0 0-1.83-.272c-1.302 0-2.607.377-3.563 1.257-.93.856-1.365 2.054-1.365 3.28 0 1.227.435 2.425 1.365 3.282q.416.38.906.639a5.4 5.4 0 0 0-.667.594c-.589.618-1.18 1.546-1.18 2.778 0 0-.08 2.631 2.985 2.631h2.22c.512 0 1.033.32 1.033.824a.9.9 0 0 1-.149.496h4.247a3.8 3.8 0 0 0 .968-2.606M37.119 6.81a1.1 1.1 0 0 1 .783-.296 1.1 1.1 0 0 1 .783.296c.204.2.3.483.3.772 0 .288-.096.57-.3.771a1.1 1.1 0 0 1-.783.296c-.287 0-.574-.088-.783-.296a1.07 1.07 0 0 1-.3-.771c0-.289.095-.57.3-.772"/><path d="M49.787 14.91v-3.928c-.915.115-1.233-.521-1.233-1.153V.24h-4.538v10.306c0 1.28.193 2.347.661 3.018.72 1.023 1.694 1.692 3.63 1.7.358-.016.955-.085 1.48-.355ZM19.708 4.796c-1.173-1.178-2.772-1.683-4.37-1.683-1.596 0-3.196.505-4.367 1.683C9.83 5.943 9.297 7.547 9.297 9.189s.533 3.245 1.673 4.392c1.172 1.178 2.772 1.683 4.369 1.683s3.197-.505 4.369-1.683c1.14-1.147 1.673-2.751 1.673-4.392s-.533-3.246-1.673-4.393m-3.382 5.337c-.271.268-.642.382-1.011.382-.37 0-.741-.114-1.012-.382-.264-.26-.388-.624-.388-.997s.123-.737.388-.997c.27-.267.642-.382 1.011-.382.37 0 .741.115 1.012.382.265.26.388.624.388.997s-.123.737-.388.997m-8.662.865c-.755 0-1.064-.228-1.343-.577-.18-.228-.27-.564-.27-.998V7.39h2.532V3.747H6.05V.24H2.813v1.31c0 1.453-1.123 2.63-2.507 2.63q-.154 0-.306-.02v3.23h1.7v3.246c0 1.277.234 2.262.701 2.932.723 1.026 1.523 1.696 3.478 1.696 1.133 0 2.082-.256 2.704-.599v-3.818c-.235.089-.552.15-.92.15M5.47 31.95q-.39.05-.78.048-1.307 0-1.96-.604t-.653-2.106v-6.083H0v-1.053h2.077v-2.613h1.207v2.613h2.869v1.053h-2.87v6.141q0 .78.318 1.16.316.38 1.147.38.456 0 .792-.038.336-.04.672-.098v1.053q-.376.098-.741.146Zm4.814-9.524q.791-.605 1.92-.605.415.001.969.098v1.248a4 4 0 0 0-.515-.078 6 6 0 0 0-.475-.02q-.87 0-1.454.332a2.6 2.6 0 0 0-.94.896 3.9 3.9 0 0 0-.504 1.346 9 9 0 0 0-.148 1.657v4.504H7.93v-9.748h1.167v2.223q.396-1.249 1.187-1.853m4.351.819a2.65 2.65 0 0 1 .752-.75 3.7 3.7 0 0 1 1.147-.498q.673-.176 1.603-.176 1.979 0 2.928.897.95.898.95 2.691v6.395h-1.207v-2.086q-.455 1.113-1.415 1.696-.96.585-2.206.586-.81 0-1.434-.224a2.95 2.95 0 0 1-1.039-.615 2.6 2.6 0 0 1-.633-.936 3.1 3.1 0 0 1-.217-1.17q0-1.365.9-2.086t2.265-.858l3.284-.312q.495-.058.494-.41v-.35q0-.995-.612-1.57-.614-.575-1.999-.575-2.513 0-2.908 1.833l-1.069-.566a3.4 3.4 0 0 1 .416-.916m2.572 3.977q-1.128.117-1.603.634a1.72 1.72 0 0 0-.474 1.2q0 .838.563 1.335.564.497 1.653.497.83 0 1.473-.282a3.4 3.4 0 0 0 1.089-.742 3.1 3.1 0 0 0 .672-1.043c.15-.379.227-.782.228-1.19v-.798zm6.584-2.32a4.8 4.8 0 0 1 1.049-1.628 4.7 4.7 0 0 1 1.642-1.072q.96-.38 2.126-.38 1.07 0 1.93.33c.563.215 1.077.54 1.513.956l-.771.936a4.5 4.5 0 0 0-1.257-.79 3.8 3.8 0 0 0-1.474-.282q-.85 0-1.563.282a3.6 3.6 0 0 0-1.226.79q-.514.507-.802 1.248a4.5 4.5 0 0 0-.286 1.638q0 .896.287 1.628c.178.467.45.892.8 1.248.35.348.768.62 1.228.8a4.1 4.1 0 0 0 1.543.282q.831 0 1.553-.302a4.6 4.6 0 0 0 1.296-.81l.731.936q-.633.586-1.523.956t-2.038.37q-1.168 0-2.116-.38a4.8 4.8 0 0 1-1.623-1.052 4.5 4.5 0 0 1-1.029-1.61 5.7 5.7 0 0 1-.356-2.047q0-1.11.366-2.047M34.762 28.9v2.905h-1.207v-12.84h1.207v8.414l5.203-5.323h1.701l-4.293 4.25 4.392 5.499h-1.583l-3.62-4.68-1.8 1.774Z"/></g><defs><clipPath id="a"><path fill="#fff" d="M0 0h50v32.184H0z"/></clipPath></defs></svg>