<svg xmlns="http://www.w3.org/2000/svg" width="64" height="64" fill="none" viewBox="0 0 32 32"><path fill="#59316B" d="M2 16C2 8.268 8.268 2 16 2s14 6.268 14 14-6.268 14-14 14S2 23.732 2 16"/><path fill="#ABCD03" d="m17.034 5.642-.571 2.325c.809-1.642 2.094-2.877 3.57-3.967-1.08 1.285-2.063 2.57-2.666 3.854 1.016-1.464 2.38-2.277 3.92-2.813-2.047 1.87-3.672 3.876-4.91 5.892l-.983-.439c.174-1.61.767-3.258 1.64-4.852"/><path fill="#FFFCDB" d="m14.407 10.067 1.872.796c0 .488-.038 1.976.26 2.415 3.113 4.11 2.59 12.348-.631 12.56-4.905 0-6.775-3.415-6.775-6.553 0-2.862 3.347-4.765 5.347-6.456.507-.455.42-1.461-.073-2.762"/><path fill="#fff" d="m16.28 10.834.675.353c-.064.455.032 1.463.476 1.724 1.967 1.252 3.823 2.617 4.553 3.983 2.602 4.813-1.824 9.269-5.648 8.846 2.078-1.578 2.681-4.813 1.904-8.342-.317-1.382-.81-2.634-1.682-4.049-.378-.694-.246-1.555-.278-2.515"/><path fill="#000" d="m15.955 10.716 1.396.195c-.412 1.398.81 2.374 1.206 2.601.889.504 1.746 1.025 2.428 1.659A6.4 6.4 0 0 1 23 19.854c0 1.772-.793 3.48-2.126 4.618C19.62 25.545 17.89 26 16.209 26c-1.047 0-1.983-.049-2.999-.39-2.316-.797-4.046-2.83-4.188-5.269-.127-1.902.285-3.35 1.73-4.861.745-.797 2.252-1.708 3.284-2.44.507-.357 1.047-1.365.015-3.268l.207-.162 1.528 1.049-1.29-.545c.11.162.412.894.476 1.105.143.602.08 1.188-.048 1.448-.65 1.203-1.76 1.528-2.57 2.211-1.428 1.203-2.983 2.163-2.808 5.463.079 1.626 1.317 3.61 3.173 4.537 1.047.52 2.253.732 3.475.797 1.094.049 3.189-.618 4.331-1.594 1.222-1.04 1.904-2.618 1.904-4.227 0-1.626-.635-3.171-1.825-4.26-.682-.635-1.808-1.399-2.506-1.805-.698-.407-1.571-1.545-1.286-2.634z"/><path fill="#000" d="M15.527 13.122c-.143.748-.302 2.098-.936 2.602-.27.195-.54.39-.825.585-1.143.797-2.285 1.545-2.809 3.463-.11.407-.016.846.08 1.252.285 1.171 1.095 2.44 1.73 3.188 0 .032.126.113.126.146.524.634.682.813 2.666 1.268l-.048.228c-1.19-.325-2.174-.618-2.792-1.35 0-.016-.112-.13-.112-.13-.666-.78-1.475-2.081-1.777-3.3-.11-.489-.206-.863-.079-1.367.54-1.983 1.714-2.764 2.904-3.593.27-.179.587-.342.84-.553.492-.374.762-1.512 1.032-2.439"/><path fill="#000" d="M16.034 16.211c.016.846-.064 1.27.142 1.872.127.358.555.845.682 1.317.175.634.365 1.333.349 1.756 0 .488-.03 1.398-.236 2.374-.157.806-.52 1.498-1.13 1.89-.623-.132-1.356-.357-1.79-.737-.84-.748-1.585-1.998-1.68-3.088-.08-.894.729-2.213 1.855-2.88.952-.569 1.174-1.217 1.38-2.258-.286.91-.554 1.674-1.474 2.162-1.333.715-2.017 1.916-1.953 3.054.095 1.464.667 2.455 1.793 3.252.476.341 1.365.702 1.92.8v-.075c.422-.08.967-.79 1.239-1.748.238-.862.331-1.965.316-2.664-.016-.407-.191-1.287-.509-2.084-.174-.439-.442-.878-.617-1.186-.19-.31-.192-.976-.287-1.757"/><path fill="#000" d="M15.94 19.4c.016.569.239 1.298.334 2.046.08.553.045 1.108.029 1.596-.016.565-.2 1.577-.45 2.069-.237-.111-.33-.238-.483-.443a4 4 0 0 1-.447-.878c-.095-.244-.206-.523-.254-.848a2.86 2.86 0 0 1 .494-2.032c.412-.617.507-.665.65-1.38-.19.634-.333.699-.777 1.235-.492.586-.574 1.448-.574 2.147 0 .293.114.618.225.927.127.325.236.649.41.892.263.396.599.62.763.663h.004l.01.003v-.018q.463-.526.556-1.053c.08-.423.098-.847.145-1.35.048-.424.013-.993-.098-1.578-.158-.732-.426-1.478-.537-1.998"/><path fill="#000" d="M15.987 12.44c.016.845.08 2.422.301 3.04.064.211.65 1.138 1.063 2.26.286.78.35 1.496.397 1.707.19.927-.048 2.488-.365 3.968-.159.796-.698 1.788-1.317 2.179l-.127.227c.35-.016 1.206-.878 1.508-1.951.507-1.821.714-2.667.476-4.683-.032-.195-.111-.862-.413-1.577-.444-1.09-1.079-2.13-1.158-2.342-.143-.341-.333-1.82-.365-2.829"/><path fill="#000" d="M16.285 11.283c-.047.869-.06 1.189.099 1.823.174.699 1.063 1.707 1.427 2.861.699 2.212.524 5.106.016 7.366-.19.797-1.094 1.952-1.999 2.325l.667.163c.364-.016 1.3-.91 1.665-1.935.587-1.61.699-3.528.46-5.545-.015-.195-.333-1.934-.634-2.666-.428-1.09-1.19-2.065-1.27-2.277-.142-.357-.456-1.1-.431-2.115"/><path fill="#000" d="M15.78 10.671h.492v15.004h-.492z"/></svg>