<svg xmlns="http://www.w3.org/2000/svg" width="304.762" height="64" fill="none" viewBox="0 0 100 21"><g clip-path="url(#a)"><path fill="url(#b)" fill-rule="evenodd" d="M17.819.083H2.566A2.38 2.38 0 0 0 .188 2.458V17.69a2.38 2.38 0 0 0 2.378 2.388h15.253a2.38 2.38 0 0 0 2.375-2.388V2.46A2.38 2.38 0 0 0 17.819.082ZM8.816 14.484a.795.795 0 0 1-.802.792H4.681a.79.79 0 0 1-.788-.792v-9.92a.79.79 0 0 1 .788-.791h3.333c.437.001.79.355.792.791zm7.692-4.554a.79.79 0 0 1-.801.791h-3.334a.795.795 0 0 1-.791-.791V4.564a.795.795 0 0 1 .791-.791h3.334a.79.79 0 0 1 .788.791z" clip-rule="evenodd"/><path fill="#293856" d="M41.64 1.548v3.866h-4.58v14.663h-4.417V5.414h-4.58V1.548zm5.623 18.529H43.18V5.654h4.083v2.763c.776-1.946 2.016-3.103 4.224-2.962v4.273c-2.884-.225-4.224.48-4.224 2.791zm26.533.113c-2.676 0-4.359-1.283-4.359-4.315V.083h4.113v15.228c0 .875.576 1.186 1.282 1.186q.305.006.609-.029v3.555a6 6 0 0 1-1.645.166Zm8.574 0c-2.677 0-4.362-1.283-4.362-4.315V.083h4.112v15.228c0 .875.58 1.186 1.298 1.186q.305.006.606-.029v3.555a6 6 0 0 1-1.654.166ZM86 12.86c0-4.456 2.564-7.504 6.981-7.504s6.926 3.038 6.926 7.503-2.539 7.558-6.926 7.558S86 17.285 86 12.859Zm4.003 0c0 2.169.91 3.89 2.978 3.89s2.926-1.721 2.926-3.89-.882-3.847-2.926-3.847-2.978 1.673-2.978 3.846ZM57 14.164q1.716.188 3.442.202c3.128 0 5.77-.84 5.77-3.87 0-2.938-2.716-5.147-5.982-5.147-4.397 0-7.214 3.19-7.214 7.645 0 4.625 2.43 7.372 7.92 7.372a13.2 13.2 0 0 0 4.769-.853v-3.455c-1.41.452-2.997.9-4.625.9-2.186 0-3.709-.717-4.08-2.794m3.147-5.667c1.157 0 2.087.785 2.087 1.859 0 1.381-1.459 1.814-3.138 1.814A14 14 0 0 1 56.96 12a4.9 4.9 0 0 1 .567-1.923 3.02 3.02 0 0 1 2.62-1.574z"/></g><defs><linearGradient id="b" x1="10.2" x2="10.2" y1="20.077" y2=".083" gradientUnits="userSpaceOnUse"><stop stop-color="#0052cc"/><stop offset="1" stop-color="#2684ff"/></linearGradient><clipPath id="a"><path fill="#fff" d="M0 0h100v20.635H0z"/></clipPath></defs></svg>