<svg xmlns="http://www.w3.org/2000/svg" width="64" height="64" fill="none" viewBox="0 0 50 50"><path fill="url(#a)" fill-rule="evenodd" d="M43.176.202H6.216A5.763 5.763 0 0 0 .453 5.957v36.905a5.763 5.763 0 0 0 5.763 5.786h36.96a5.763 5.763 0 0 0 5.754-5.786V5.957A5.763 5.763 0 0 0 43.176.202ZM21.36 35.096a1.925 1.925 0 0 1-1.941 1.918H11.34a1.918 1.918 0 0 1-1.91-1.918V11.059c0-1.056.854-1.914 1.91-1.918h8.078a1.926 1.926 0 0 1 1.918 1.918l.023 24.037ZM39.999 24.06a1.918 1.918 0 0 1-1.942 1.918h-8.076a1.926 1.926 0 0 1-1.919-1.918v-13a1.926 1.926 0 0 1 1.919-1.92h8.076a1.918 1.918 0 0 1 1.911 1.92l.031 13Z" clip-rule="evenodd"/><defs><linearGradient id="a" x1="24.715" x2="24.715" y1="48.648" y2=".202" gradientUnits="userSpaceOnUse"><stop stop-color="#0052CC"/><stop offset="1" stop-color="#2684FF"/></linearGradient></defs></svg>