<svg xmlns="http://www.w3.org/2000/svg" width="304.762" height="64" fill="none" viewBox="0 0 100 21"><g clip-path="url(#a)"><path fill="url(#b)" fill-rule="evenodd" d="M17.819.083H2.566A2.378 2.378 0 0 0 .188 2.458V17.69a2.378 2.378 0 0 0 2.378 2.388h15.253a2.378 2.378 0 0 0 2.375-2.388V2.46A2.378 2.378 0 0 0 17.819.082ZM8.816 14.484a.795.795 0 0 1-.802.792H4.681a.792.792 0 0 1-.788-.792v-9.92c0-.436.352-.79.788-.791h3.333c.437.001.79.355.792.791l.01 9.92Zm7.692-4.554a.792.792 0 0 1-.801.791h-3.334a.795.795 0 0 1-.791-.791V4.564a.795.795 0 0 1 .791-.791h3.334a.792.792 0 0 1 .788.791l.013 5.366Z" clip-rule="evenodd"/><path fill="#293856" d="M41.64 1.548v3.866h-4.58v14.663h-4.417V5.414h-4.58V1.548h13.576ZM47.263 20.077H43.18V5.654h4.083v2.763c.776-1.946 2.016-3.103 4.224-2.962v4.273c-2.884-.225-4.224.48-4.224 2.791v7.558ZM73.796 20.19c-2.676 0-4.359-1.283-4.359-4.315V.083h4.113v15.228c0 .875.576 1.186 1.282 1.186.203.004.407-.006.609-.029v3.555a6.011 6.011 0 0 1-1.645.166ZM82.37 20.19c-2.677 0-4.362-1.283-4.362-4.315V.083h4.112v15.228c0 .875.58 1.186 1.298 1.186.203.004.405-.006.606-.029v3.555a5.987 5.987 0 0 1-1.654.166ZM86 12.86c0-4.456 2.564-7.504 6.981-7.504s6.926 3.038 6.926 7.503-2.539 7.558-6.926 7.558c-4.388 0-6.981-3.132-6.981-7.558Zm4.003 0c0 2.169.91 3.89 2.978 3.89 2.067 0 2.926-1.721 2.926-3.89 0-2.17-.882-3.847-2.926-3.847-2.045 0-2.978 1.673-2.978 3.846ZM57 14.164c1.143.125 2.292.193 3.442.202 3.128 0 5.77-.84 5.77-3.87 0-2.938-2.716-5.147-5.982-5.147-4.397 0-7.214 3.19-7.214 7.645 0 4.625 2.43 7.372 7.92 7.372a13.164 13.164 0 0 0 4.769-.853v-3.455c-1.41.452-2.997.9-4.625.9-2.186 0-3.709-.717-4.08-2.794Zm3.147-5.667c1.157 0 2.087.785 2.087 1.859 0 1.381-1.459 1.814-3.138 1.814A14.34 14.34 0 0 1 56.96 12a4.86 4.86 0 0 1 .567-1.923 3.023 3.023 0 0 1 2.62-1.574v-.006Z"/></g><defs><linearGradient id="b" x1="10.2" x2="10.2" y1="20.077" y2=".083" gradientUnits="userSpaceOnUse"><stop stop-color="#0052CC"/><stop offset="1" stop-color="#2684FF"/></linearGradient><clipPath id="a"><path fill="#fff" d="M0 0h100v20.635H0z"/></clipPath></defs></svg>