<svg xmlns="http://www.w3.org/2000/svg" width="64" height="64" fill="none" viewBox="0 0 50 50"><g clip-path="url(#a)"><path fill="#F22F46" d="M24.975 0C38.795 0 49.95 11.167 49.95 25S38.794 50 24.975 50C11.155 50 0 38.833 0 25S11.155 0 24.975 0Zm0 6.667A18.271 18.271 0 0 0 6.66 25a18.271 18.271 0 0 0 18.315 18.333A18.271 18.271 0 0 0 43.29 25 18.271 18.271 0 0 0 24.975 6.667ZM18.815 26c2.83 0 5.16 2.333 5.16 5.167 0 2.833-2.33 5.166-5.16 5.166-2.831 0-5.162-2.333-5.162-5.166 0-2.834 2.33-5.167 5.161-5.167Zm12.32 0c2.83 0 5.162 2.333 5.162 5.167 0 2.833-2.331 5.166-5.161 5.166-2.831 0-5.162-2.333-5.162-5.166 0-2.834 2.33-5.167 5.162-5.167Zm0-12.333c2.83 0 5.162 2.333 5.162 5.166 0 2.834-2.331 5.167-5.161 5.167-2.831 0-5.162-2.333-5.162-5.167 0-2.833 2.33-5.166 5.162-5.166Zm-12.32 0c2.83 0 5.16 2.333 5.16 5.166 0 2.834-2.33 5.167-5.16 5.167-2.831 0-5.162-2.333-5.162-5.167 0-2.833 2.33-5.166 5.161-5.166Z"/></g><defs><clipPath id="a"><path fill="#fff" d="M0 0h50v50H0z"/></clipPath></defs></svg>