<svg xmlns="http://www.w3.org/2000/svg" width="78.979" height="64" fill="none" viewBox="0 0 58 47"><g clip-path="url(#a)"><path fill="#2AA9E0" d="M58 5.564a23.8 23.8 0 0 1-6.834 1.868A11.9 11.9 0 0 0 56.398.868a23.9 23.9 0 0 1-7.557 2.879A11.9 11.9 0 0 0 40.156 0c-6.572 0-11.9 5.312-11.9 11.865 0 .93.105 1.835.308 2.704-9.89-.495-18.657-5.219-24.526-12.397a11.8 11.8 0 0 0-1.611 5.965c0 4.116 2.1 7.748 5.293 9.876a11.9 11.9 0 0 1-5.39-1.484v.149c0 5.748 4.101 10.544 9.545 11.634a11.95 11.95 0 0 1-5.374.204 11.91 11.91 0 0 0 11.116 8.24 23.9 23.9 0 0 1-14.778 5.079q-1.442 0-2.839-.166A33.75 33.75 0 0 0 18.24 47c21.888 0 33.857-18.08 33.857-33.76q0-.771-.034-1.535A24.1 24.1 0 0 0 58 5.564"/></g><defs><clipPath id="a"><path fill="#fff" d="M0 0h58v47H0z"/></clipPath></defs></svg>