<svg xmlns="http://www.w3.org/2000/svg" width="188.235" height="64" fill="none" viewBox="0 0 100 34"><g clip-path="url(#a)"><path fill="#fff" d="M14.916 14.913h-6.14v1.754h6.14v7.018h-9.65l-3.508-3.509V1.754h7.017v6.14h6.14v7.02ZM41.225 23.685H20.173l-3.509-3.509V7.895h7.018v8.772h1.754V7.895h7.017v8.772h1.755V7.895h7.017v15.79ZM50.002 7.895h-7.018v15.79h7.018V7.894ZM50.002 1.754h-7.018V6.14h7.018V1.754ZM64.916 14.913h-6.14v1.754h6.14v7.018h-9.65l-3.508-3.509V1.754h7.017v6.14h6.14v7.02ZM80.7 14.913h-7.018v1.754h7.017v7.018H70.173l-3.509-3.509v-8.772l3.509-3.51h10.526v7.02ZM98.243 23.685h-7.018v-8.772h-1.754v8.772h-7.018V1.755h7.018v6.14h5.263l3.509 3.51v12.28Z"/><path fill="#9146FF" d="M95.614 6.14h-4.386V0h-9.63l-4.43 6.14h-7.87l-2.631 2.632V6.14h-6.14V0H41.227v6.14h-27.15L9.65 0H0v21.053l12.28 12.28h12.281v-3.508l3.51 3.508h23.683v-3.508l3.51 3.508h11.403v-3.508l3.508 3.508h21.93L100 25.44V10.526L95.614 6.14Zm-80.702 8.772h-6.14v1.755h6.14v7.017H5.263l-3.509-3.509V1.755h7.018v6.14h6.14v7.017Zm26.316 8.772H20.175l-3.508-3.509V7.895h7.017v8.772h1.755V7.895h7.017v8.772h1.755V7.895h7.017v15.79Zm8.772 0h-7.017V7.894H50v15.79ZM50 6.14h-7.017V1.754H50V6.14Zm14.912 8.772h-6.14v1.755h6.14v7.017h-9.649l-3.509-3.509V1.755h7.018v6.14h6.14v7.017Zm15.79 0h-7.018v1.755h7.018v7.017H70.175l-3.508-3.509v-8.772l3.508-3.508h10.527v7.017Zm17.544 8.772h-7.018v-8.772h-1.754v8.772h-7.018V1.754h7.018v6.14h5.263l3.509 3.51v12.28Z"/></g><defs><clipPath id="a"><path fill="#fff" d="M0 0h100v33.333H0z"/></clipPath></defs></svg>