<svg xmlns="http://www.w3.org/2000/svg" width="78.979" height="64" fill="none" viewBox="0 0 58 47"><g clip-path="url(#a)"><path fill="#2AA9E0" d="M58 5.564a23.84 23.84 0 0 1-6.834 1.868A11.906 11.906 0 0 0 56.398.868a23.862 23.862 0 0 1-7.557 2.879A11.898 11.898 0 0 0 40.156 0c-6.572 0-11.9 5.312-11.9 11.865 0 .93.105 1.835.308 2.704-9.89-.495-18.657-5.219-24.526-12.397a11.783 11.783 0 0 0-1.611 5.965c0 4.116 2.1 7.748 5.293 9.876a11.878 11.878 0 0 1-5.39-1.484v.149c0 5.748 4.101 10.544 9.545 11.634a11.946 11.946 0 0 1-5.374.204 11.907 11.907 0 0 0 11.116 8.24 23.917 23.917 0 0 1-14.778 5.079c-.961 0-1.908-.056-2.839-.166A33.75 33.75 0 0 0 18.24 47c21.888 0 33.857-18.08 33.857-33.76 0-.514-.011-1.026-.034-1.535A24.134 24.134 0 0 0 58 5.564Z"/></g><defs><clipPath id="a"><path fill="#fff" d="M0 0h58v47H0z"/></clipPath></defs></svg>