<svg xmlns="http://www.w3.org/2000/svg" width="103.226" height="64" fill="none" viewBox="0 0 50 31"><g fill-rule="evenodd" clip-path="url(#a)" clip-rule="evenodd"><path fill="#00c0ff" d="M50.002 23.044a7.68 7.68 0 1 0-15.361 0 7.68 7.68 0 0 0 15.361 0"/><path fill="#00c0ff" d="M27.25 30.73h15.062V16.81H27.25z"/><path fill="#8000ff" d="M42.309 15.368c0-8.483-6.877-15.36-15.361-15.36s-15.362 6.877-15.362 15.36S18.464 30.73 26.948 30.73s15.361-6.878 15.361-15.362"/><path fill="#6000c0" d="m27.225 30.693-13.186-.35a15 15 0 0 1-3.14-.08h-.001l-.042-.006c-8.196-1.097-1.825-6.328-.728-14.524s-.805-.738 3.374-7.873c2.525-4.31 5.884-5.91 5.914-5.898 5.772 2.416 9.127 8.857 8.27 15.399 0 0-1.183 8.795-1.361 10.183-.09.706.116 1.602.225 1.912.405 1.146.675 1.237.675 1.237"/><path fill="#ff0060" d="M11.529 30.73C5.166 30.73.008 25.572.008 19.21S5.166 7.688 11.528 7.688c6.353 0 11.504 5.14 11.522 11.488v2.299c0 3.496 1.431 6.84 3.96 9.255z"/><path fill="#ff0060" d="M11.563 30.73H23.05V19.176H11.563z"/></g><defs><clipPath id="a"><path fill="#fff" d="M0 0h50v30.734H0z"/></clipPath></defs></svg>