<svg xmlns="http://www.w3.org/2000/svg" width="376.471" height="64" fill="none" viewBox="0 0 100 17"><g clip-path="url(#a)"><path fill="#000" d="M33.969 5.456V3.893h7.361v1.563h-2.744v7.401h-1.873V5.456h-2.744Z"/><path fill="#000" d="M42.763 15.378c-.236 0-.458-.019-.665-.057a2.43 2.43 0 0 1-.508-.135l.42-1.392c.22.067.416.103.591.11a.75.75 0 0 0 .46-.123c.131-.088.238-.237.32-.447l.109-.284-2.412-6.916h1.961l1.392 4.938h.07l1.405-4.938h1.974l-2.613 7.45a3.13 3.13 0 0 1-.512.945 2.1 2.1 0 0 1-.81.626c-.327.149-.72.223-1.182.223ZM48.71 15.378V6.134h1.84v1.13h.082c.082-.181.2-.365.355-.552a1.87 1.87 0 0 1 .613-.473c.253-.128.569-.192.945-.192.49 0 .942.128 1.357.385.414.254.745.638.993 1.151.248.51.372 1.151.372 1.922 0 .75-.12 1.382-.363 1.899-.24.514-.566.903-.98 1.169a2.516 2.516 0 0 1-1.383.393c-.362 0-.67-.06-.924-.179a1.91 1.91 0 0 1-.617-.45 2.287 2.287 0 0 1-.368-.557h-.056v3.598H48.71Zm1.826-5.882c0 .4.056.748.166 1.046.111.297.272.53.482.696.21.163.465.245.766.245.303 0 .56-.083.77-.25.21-.169.37-.402.477-.7.111-.3.166-.646.166-1.037 0-.388-.053-.73-.161-1.024a1.526 1.526 0 0 0-.477-.692 1.21 1.21 0 0 0-.775-.25c-.304 0-.56.08-.77.241a1.51 1.51 0 0 0-.478.683c-.11.295-.166.642-.166 1.042ZM59.452 12.989c-.691 0-1.286-.14-1.785-.42a2.877 2.877 0 0 1-1.147-1.2c-.269-.52-.403-1.134-.403-1.843 0-.691.134-1.298.403-1.82.268-.523.646-.93 1.133-1.222.49-.291 1.065-.437 1.725-.437.443 0 .856.071 1.239.214.385.14.72.352 1.006.635.29.283.514.639.674 1.068.16.426.24.925.24 1.497v.512h-5.676V8.817h3.922c0-.268-.059-.506-.175-.713a1.254 1.254 0 0 0-.486-.486 1.386 1.386 0 0 0-.714-.18c-.282 0-.533.066-.752.198a1.38 1.38 0 0 0-.508.52 1.471 1.471 0 0 0-.188.723v1.098c0 .333.061.62.184.862.125.243.302.43.53.56.227.132.497.198.809.198.207 0 .397-.03.569-.088a1.142 1.142 0 0 0 .722-.691l1.725.113a2.354 2.354 0 0 1-.539 1.086 2.702 2.702 0 0 1-1.041.718c-.424.169-.912.254-1.467.254ZM66.11 12.966c-.511 0-.974-.13-1.388-.393-.411-.266-.738-.655-.98-1.169-.24-.517-.36-1.15-.36-1.9 0-.77.125-1.41.373-1.92.248-.514.578-.898.989-1.152a2.535 2.535 0 0 1 1.361-.385c.377 0 .69.064.941.192.254.126.458.283.613.473.157.187.277.37.359.552h.057v-3.37h1.86v8.963h-1.838V11.78h-.08a2.404 2.404 0 0 1-.371.556c-.158.181-.363.332-.617.451-.251.12-.558.18-.92.18Zm.59-1.483c.301 0 .555-.082.762-.245.21-.167.37-.399.481-.696.114-.298.171-.646.171-1.046s-.055-.747-.166-1.042a1.495 1.495 0 0 0-.482-.683c-.21-.16-.465-.24-.765-.24-.307 0-.565.083-.775.249-.21.166-.37.397-.477.692a2.97 2.97 0 0 0-.162 1.024c0 .39.054.736.162 1.037.11.298.27.531.477.7.21.167.468.25.775.25ZM71.344 12.857V6.134h1.807v1.173h.07c.123-.417.329-.732.617-.945.29-.216.622-.324.998-.324a2.82 2.82 0 0 1 .587.066v1.654a2.436 2.436 0 0 0-.363-.07 3.263 3.263 0 0 0-.425-.03c-.274 0-.52.06-.735.179a1.32 1.32 0 0 0-.508.49c-.123.21-.184.452-.184.727v3.803h-1.864ZM79.015 12.989c-.692 0-1.287-.14-1.786-.42a2.878 2.878 0 0 1-1.147-1.2c-.268-.52-.402-1.134-.402-1.843 0-.691.134-1.298.402-1.82.269-.523.647-.93 1.134-1.222.49-.291 1.065-.437 1.724-.437.444 0 .857.071 1.24.214.384.14.72.352 1.006.635.289.283.513.639.674 1.068.16.426.24.925.24 1.497v.512h-5.676V8.817h3.921c0-.268-.058-.506-.175-.713a1.255 1.255 0 0 0-.486-.486 1.385 1.385 0 0 0-.713-.18c-.283 0-.534.066-.753.198a1.382 1.382 0 0 0-.508.52 1.471 1.471 0 0 0-.188.723v1.098c0 .333.062.62.184.862.126.243.302.43.53.56.227.132.497.198.81.198.207 0 .396-.03.569-.088a1.14 1.14 0 0 0 .722-.691l1.724.113a2.355 2.355 0 0 1-.538 1.086 2.704 2.704 0 0 1-1.042.718c-.423.169-.912.254-1.466.254ZM85.107 12.984c-.429 0-.811-.074-1.147-.223a1.845 1.845 0 0 1-.796-.67c-.193-.297-.289-.668-.289-1.111 0-.374.069-.688.206-.941.137-.254.324-.459.56-.613.236-.155.505-.272.805-.35.304-.08.621-.135.954-.167.392-.04.707-.079.946-.114.24-.037.413-.093.52-.166a.365.365 0 0 0 .163-.324V8.28c0-.277-.088-.492-.263-.643-.172-.152-.417-.228-.736-.228-.335 0-.602.074-.8.223a1.03 1.03 0 0 0-.395.552l-1.724-.14c.088-.409.26-.762.517-1.06.257-.3.588-.53.993-.691.409-.163.882-.245 1.419-.245.373 0 .73.044 1.072.131.344.088.649.223.914.407.27.184.48.42.636.71.154.285.231.628.231 1.028v4.534h-1.768v-.932h-.052c-.109.21-.253.395-.434.556-.18.157-.398.281-.652.372a2.694 2.694 0 0 1-.88.131Zm.534-1.287c.274 0 .516-.054.726-.162.21-.11.376-.26.495-.446.12-.187.18-.398.18-.635v-.713a.995.995 0 0 1-.241.105c-.1.029-.212.057-.337.083a16.81 16.81 0 0 1-.376.066l-.342.048c-.219.032-.41.083-.573.153a.921.921 0 0 0-.381.284.696.696 0 0 0-.136.438c0 .254.092.448.276.582.187.132.423.197.71.197ZM90.219 12.857V6.134h1.777V7.32h.079a1.86 1.86 0 0 1 .7-.932c.327-.227.718-.341 1.173-.341.46 0 .853.115 1.178.346.323.227.539.536.647.927h.07c.137-.385.385-.693.745-.923.361-.233.789-.35 1.282-.35.627 0 1.136.2 1.527.6.394.396.59.96.59 1.689v4.521h-1.859V8.704c0-.374-.1-.654-.297-.84a1.044 1.044 0 0 0-.745-.28c-.339 0-.602.107-.792.323-.19.213-.284.495-.284.845v4.105h-1.808V8.664c0-.33-.095-.592-.285-.788-.186-.195-.433-.293-.74-.293a1.03 1.03 0 0 0-.56.158 1.086 1.086 0 0 0-.389.433c-.097.184-.144.4-.144.648v4.035h-1.865Z"/><path fill="#00C0FF" fill-rule="evenodd" d="M27.481 12.664a4.221 4.221 0 1 0-8.442 0 4.221 4.221 0 0 0 8.442 0Z" clip-rule="evenodd"/><path fill="#00C0FF" fill-rule="evenodd" d="M14.977 16.889h8.277V9.238h-8.277v7.65Z" clip-rule="evenodd"/><path fill="#8000FF" fill-rule="evenodd" d="M23.252 8.446a8.442 8.442 0 1 0-16.885 0 8.442 8.442 0 0 0 16.885 0Z" clip-rule="evenodd"/><path fill="#6000C0" fill-rule="evenodd" d="m14.964 16.868-7.246-.192a8.197 8.197 0 0 1-1.726-.045l-.024-.003c-4.504-.602-1.002-3.477-.4-7.981.603-4.504-.442-.406 1.855-4.327 1.387-2.369 3.233-3.249 3.25-3.242 3.172 1.328 5.016 4.868 4.545 8.463 0 0-.65 4.834-.748 5.596-.05.388.063.881.123 1.051.223.63.371.68.371.68Z" clip-rule="evenodd"/><path fill="#FF0060" fill-rule="evenodd" d="M6.332 16.889a6.332 6.332 0 1 1 6.331-6.35V11.802c0 1.922.787 3.76 2.177 5.087H6.332Z" clip-rule="evenodd"/><path fill="#FF0060" fill-rule="evenodd" d="M6.352 16.889h6.313v-6.35H6.352v6.35Z" clip-rule="evenodd"/></g><defs><clipPath id="a"><path fill="#fff" d="M0 0h100v16.891H0z"/></clipPath></defs></svg>