<svg xmlns="http://www.w3.org/2000/svg" width="376.471" height="64" fill="none" viewBox="0 0 100 17"><g clip-path="url(#a)"><path fill="#000" d="M33.969 5.456V3.893h7.361v1.563h-2.744v7.401h-1.873V5.456z"/><path fill="#000" d="M42.763 15.378q-.354 0-.665-.057a2.4 2.4 0 0 1-.508-.135l.42-1.392q.33.1.591.11a.75.75 0 0 0 .46-.123q.197-.132.32-.447l.109-.284-2.412-6.916h1.961l1.392 4.938h.07l1.405-4.938h1.974l-2.613 7.45a3.1 3.1 0 0 1-.512.945 2.1 2.1 0 0 1-.81.626q-.49.223-1.182.223m5.947 0V6.134h1.84v1.13h.082q.123-.271.355-.552a1.9 1.9 0 0 1 .613-.473q.38-.192.945-.192.735 0 1.357.385.621.381.993 1.151.372.765.372 1.922 0 1.124-.363 1.899-.36.77-.98 1.169a2.5 2.5 0 0 1-1.383.393q-.543 0-.924-.179a1.9 1.9 0 0 1-.617-.45 2.3 2.3 0 0 1-.368-.557h-.056v3.598zm1.826-5.882q0 .6.166 1.046.167.446.482.696.315.245.766.245.455 0 .77-.25.316-.253.477-.7.166-.45.166-1.037 0-.582-.161-1.024a1.53 1.53 0 0 0-.477-.692 1.2 1.2 0 0 0-.775-.25q-.455 0-.77.241a1.5 1.5 0 0 0-.478.683q-.166.442-.166 1.042m8.916 3.493q-1.037 0-1.785-.42a2.88 2.88 0 0 1-1.147-1.2q-.403-.78-.403-1.843 0-1.037.403-1.82.402-.784 1.133-1.222.735-.437 1.725-.437.664 0 1.239.214.577.21 1.006.635.434.425.674 1.068.24.639.24 1.497v.512h-5.676V8.817h3.922q0-.402-.175-.713a1.25 1.25 0 0 0-.486-.486 1.4 1.4 0 0 0-.714-.18q-.423 0-.752.198a1.4 1.4 0 0 0-.508.52 1.5 1.5 0 0 0-.188.723v1.098q0 .5.184.862.188.365.53.56.34.198.809.198.31 0 .569-.088a1.14 1.14 0 0 0 .722-.691l1.725.113a2.35 2.35 0 0 1-.539 1.086 2.7 2.7 0 0 1-1.041.718q-.635.254-1.467.254m6.658-.023q-.767 0-1.388-.393-.617-.399-.98-1.169-.36-.775-.36-1.9 0-1.155.373-1.92.372-.771.989-1.152a2.54 2.54 0 0 1 1.361-.385q.565 0 .941.192.38.189.613.473.236.28.359.552h.057v-3.37h1.86v8.963h-1.838V11.78h-.08a2.4 2.4 0 0 1-.371.556 1.8 1.8 0 0 1-.617.451q-.377.18-.92.18Zm.59-1.483q.452 0 .762-.245.315-.25.481-.696.171-.447.171-1.046c0-.599-.055-.747-.166-1.042a1.5 1.5 0 0 0-.482-.683q-.315-.24-.765-.24a1.2 1.2 0 0 0-.775.249q-.316.25-.477.692a3 3 0 0 0-.162 1.024q0 .585.162 1.037.166.447.477.7.315.25.775.25Zm4.644 1.374V6.134h1.807v1.173h.07q.185-.625.617-.945.435-.324.998-.324a3 3 0 0 1 .587.066v1.654a2.4 2.4 0 0 0-.363-.07 3 3 0 0 0-.425-.03q-.412 0-.735.179a1.3 1.3 0 0 0-.508.49 1.4 1.4 0 0 0-.184.727v3.803zm7.671.132q-1.038 0-1.786-.42a2.9 2.9 0 0 1-1.147-1.2q-.402-.78-.402-1.843 0-1.037.402-1.82.404-.784 1.134-1.222.735-.437 1.724-.437.666 0 1.24.214.577.21 1.006.635.433.425.674 1.068.24.639.24 1.497v.512h-5.676V8.817h3.921q0-.402-.175-.713a1.25 1.25 0 0 0-.486-.486 1.4 1.4 0 0 0-.713-.18 1.43 1.43 0 0 0-.753.198 1.4 1.4 0 0 0-.508.52 1.5 1.5 0 0 0-.188.723v1.098q0 .5.184.862.189.365.53.56.34.198.81.198.31 0 .569-.088a1.14 1.14 0 0 0 .722-.691l1.724.113a2.36 2.36 0 0 1-.538 1.086 2.7 2.7 0 0 1-1.042.718q-.635.254-1.466.254m6.092-.005q-.643 0-1.147-.223a1.85 1.85 0 0 1-.796-.67q-.29-.446-.289-1.111 0-.561.206-.941.206-.381.56-.613.355-.233.805-.35.455-.12.954-.167.588-.06.946-.114.36-.056.52-.166a.37.37 0 0 0 .163-.324V8.28q0-.416-.263-.643-.258-.228-.736-.228-.503 0-.8.223a1.03 1.03 0 0 0-.395.552l-1.724-.14q.132-.613.517-1.06.385-.45.993-.691.614-.245 1.419-.245.56 0 1.072.131.516.131.914.407.404.275.636.71.231.428.231 1.028v4.534h-1.768v-.932h-.052q-.163.315-.434.556-.27.236-.652.372a2.7 2.7 0 0 1-.88.131Zm.534-1.287q.411 0 .726-.162.316-.166.495-.446.18-.28.18-.635v-.713a1 1 0 0 1-.241.105q-.15.044-.337.083a17 17 0 0 1-.376.066l-.342.048q-.328.048-.573.153a.9.9 0 0 0-.381.284.7.7 0 0 0-.136.438q0 .381.276.582.28.197.71.197Zm4.578 1.16V6.134h1.777V7.32h.079a1.86 1.86 0 0 1 .7-.932q.49-.34 1.173-.341.69 0 1.178.346.485.34.647.927h.07q.205-.578.745-.923.542-.35 1.282-.35.94 0 1.527.6.59.595.59 1.689v4.521h-1.859V8.704q0-.561-.297-.84a1.04 1.04 0 0 0-.745-.28q-.508 0-.792.323-.284.32-.284.845v4.105h-1.808V8.664q0-.495-.285-.788-.28-.293-.74-.293a1.03 1.03 0 0 0-.56.158 1.1 1.1 0 0 0-.389.433 1.4 1.4 0 0 0-.144.648v4.035z"/><path fill="#00C0FF" fill-rule="evenodd" d="M27.481 12.664a4.221 4.221 0 1 0-8.442 0 4.221 4.221 0 0 0 8.442 0" clip-rule="evenodd"/><path fill="#00C0FF" fill-rule="evenodd" d="M14.977 16.889h8.277V9.238h-8.277v7.65Z" clip-rule="evenodd"/><path fill="#8000FF" fill-rule="evenodd" d="M23.252 8.446a8.442 8.442 0 1 0-16.885 0 8.442 8.442 0 0 0 16.885 0" clip-rule="evenodd"/><path fill="#6000C0" fill-rule="evenodd" d="m14.964 16.868-7.246-.192a8.2 8.2 0 0 1-1.726-.045l-.024-.003c-4.504-.602-1.002-3.477-.4-7.981.603-4.504-.442-.406 1.855-4.327 1.387-2.369 3.233-3.249 3.25-3.242 3.172 1.328 5.016 4.868 4.545 8.463 0 0-.65 4.834-.748 5.596-.05.388.063.881.123 1.051.223.63.371.68.371.68" clip-rule="evenodd"/><path fill="#FF0060" fill-rule="evenodd" d="M6.332 16.889a6.332 6.332 0 1 1 6.331-6.35v1.263c0 1.922.787 3.76 2.177 5.087z" clip-rule="evenodd"/><path fill="#FF0060" fill-rule="evenodd" d="M6.352 16.889h6.313v-6.35H6.352z" clip-rule="evenodd"/></g><defs><clipPath id="a"><path fill="#fff" d="M0 0h100v16.891H0z"/></clipPath></defs></svg>