<svg xmlns="http://www.w3.org/2000/svg" width="278.261" height="64" fill="none" viewBox="0 0 100 23"><g clip-path="url(#a)"><path fill="#262627" d="M64.591 15.537c-2.082 0-3.15-1.714-3.15-3.819s1.05-3.726 3.15-3.726c2.138 0 3.151 1.696 3.151 3.726-.019 2.143-1.088 3.82-3.151 3.82ZM44.224 7.992c1.219 0 1.725.708 1.725 1.323 0 1.49-1.52 2.142-4.689 2.236 0-1.845 1.05-3.559 2.964-3.559ZM30.72 15.537c-1.97 0-2.794-1.602-2.794-3.819 0-2.198.844-3.726 2.794-3.726 1.988 0 2.926 1.584 2.926 3.726 0 2.236-.975 3.82-2.926 3.82ZM14.066 5.813H10.99l5.101 11.7c-.975 2.16-1.5 2.7-2.175 2.7-.713 0-1.388-.577-1.876-1.08l-1.35 1.788c.92.97 2.176 1.528 3.47 1.528 1.613 0 2.85-.932 3.563-2.608l5.89-14.047h-3.02l-3.076 8.383-3.451-8.364Zm81.47 2.18c1.5 0 1.8 1.024 1.8 3.427v6.316H100V9.762c0-2.869-1.97-4.117-3.789-4.117-1.612 0-3.094 1.006-3.92 2.869-.468-1.789-1.968-2.87-3.713-2.87-1.519 0-3.038.97-3.863 2.777V5.813h-2.663v11.904h2.663v-5.086c0-2.57 1.35-4.639 3.188-4.639 1.5 0 1.782 1.025 1.782 3.428v6.316h2.663l-.019-5.105c0-2.57 1.37-4.639 3.207-4.639Zm-21.25-2.18h-1.349v11.904H75.6v-4.564c0-2.888 1.276-4.844 3.17-4.844.487 0 .9.019 1.35.205l.413-2.813c-.338-.038-.638-.075-.938-.075-1.875 0-3.226 1.286-4.014 2.944V5.813h-1.295Zm-9.695-.187c-3.526 0-5.908 2.683-5.908 6.074 0 3.52 2.42 6.147 5.908 6.147 3.545 0 5.964-2.7 5.964-6.147-.019-3.41-2.475-6.074-5.964-6.074Zm-20.217 9.911c-1.388 0-2.42-.708-2.851-2.142 3.526-.15 6.977-1.006 6.977-4.117 0-1.789-1.763-3.633-4.295-3.633-3.414 0-5.72 2.776-5.72 6.073 0 3.447 2.269 6.148 5.664 6.148 2.362 0 3.863-.95 5.044-2.329l-1.293-1.75c-1.37 1.396-2.213 1.75-3.526 1.75Zm-13.129-9.91c-1.35 0-2.7.782-3.226 2.011V5.813h-2.663v16.58h2.663V16.47c.563.857 1.857 1.416 3.001 1.416 3.545 0 5.42-2.627 5.42-6.167-.018-3.502-1.856-6.092-5.195-6.092Zm-18.68-4.584H0v2.59h4.914v14.084h2.794V3.633h4.858v-2.59Zm39.592 4.77h-1.594v2.384h1.594v9.52h2.663v-9.52h2.588V5.813H54.82V3.95c0-1.193.488-1.603 1.594-1.603.413 0 .788.112 1.294.28l.6-2.236C57.821.111 56.845 0 56.208 0c-2.55 0-4.051 1.528-4.051 4.173v1.64Z"/></g><defs><clipPath id="a"><path fill="#fff" d="M0 0h100v22.449H0z"/></clipPath></defs></svg>