<svg xmlns="http://www.w3.org/2000/svg" width="185.6" height="64" fill="none" viewBox="0 0 87 30"><g fill="#010202" clip-path="url(#a)"><path d="M4.972 21.426q.547 1.453 1.517 2.486a6.5 6.5 0 0 0 2.296 1.58q1.328.547 2.886.547a7.15 7.15 0 0 0 2.845-.569 7 7 0 0 0 2.317-1.6 7.3 7.3 0 0 0 1.538-2.466q.548-1.431.548-3.202V0h4.424v29.494H18.96v-2.738a10.2 10.2 0 0 1-3.476 2.401q-2.002.843-4.32.843-2.358 0-4.402-.822a10.3 10.3 0 0 1-3.54-2.338q-1.495-1.517-2.36-3.645-.86-2.127-.862-4.74V0h4.424v18.202q0 1.77.548 3.224M30.966 0v10.744a11.3 11.3 0 0 1 3.413-2.338q1.939-.864 4.214-.864 2.36 0 4.424.885 2.065.884 3.581 2.402A11.3 11.3 0 0 1 49 14.41q.885 2.065.885 4.382 0 2.318-.885 4.361a11.4 11.4 0 0 1-2.401 3.56 11.3 11.3 0 0 1-3.582 2.402Q40.953 30 38.593 30q-2.275 0-4.235-.864a11.2 11.2 0 0 1-3.434-2.338v2.696h-4.213V0h4.256Zm.485 21.7a7.3 7.3 0 0 0 1.58 2.36 7.6 7.6 0 0 0 2.36 1.6q1.349.59 2.907.59a7.1 7.1 0 0 0 2.865-.59 7.4 7.4 0 0 0 2.339-1.6 7.8 7.8 0 0 0 1.58-2.36q.59-1.35.59-2.908 0-1.56-.59-2.928a7.7 7.7 0 0 0-1.58-2.38 7.1 7.1 0 0 0-2.339-1.58 7.3 7.3 0 0 0-2.865-.57q-1.517 0-2.865.57a7.3 7.3 0 0 0-2.36 1.58 7.6 7.6 0 0 0-1.6 2.38 7.3 7.3 0 0 0-.59 2.928 7.4 7.4 0 0 0 .568 2.907Zm20.837-7.248a11.5 11.5 0 0 1 2.317-3.56 10.8 10.8 0 0 1 3.498-2.423q2.022-.885 4.381-.885 2.318 0 4.298.843a10.2 10.2 0 0 1 3.413 2.339q1.433 1.496 2.233 3.539t.8 4.445v1.39H55.744a7.3 7.3 0 0 0 2.423 4.36 7.2 7.2 0 0 0 2.149 1.287q1.2.463 2.549.463 3.833 0 6.194-3.16l3.075 2.275a11.45 11.45 0 0 1-3.96 3.371q-2.36 1.222-5.31 1.222-2.4 0-4.486-.843a10.9 10.9 0 0 1-3.624-2.36 11.2 11.2 0 0 1-2.423-3.56q-.885-2.043-.885-4.445 0-2.276.843-4.298Zm5.92-1.664q-1.79 1.495-2.38 3.982H68.93q-.547-2.487-2.338-3.982t-4.193-1.496q-2.4 0-4.192 1.496Zm22.982.485q-1.348 1.474-1.348 4.002v12.22h-4.256V8.005h4.213v2.655a6 6 0 0 1 2.086-2.064q1.285-.759 3.055-.759h1.475v3.96h-1.77q-2.106 0-3.455 1.476"/></g><defs><clipPath id="a"><path fill="#fff" d="M0 0h86.418v30H0z"/></clipPath></defs></svg>