<svg xmlns="http://www.w3.org/2000/svg" width="185.6" height="64" fill="none" viewBox="0 0 87 30"><g fill="#010202" clip-path="url(#a)"><path d="M4.972 21.426c.365.969.87 1.797 1.517 2.486a6.528 6.528 0 0 0 2.296 1.58c.885.365 1.847.547 2.886.547 1.012 0 1.96-.19 2.845-.569a6.996 6.996 0 0 0 2.317-1.6 7.259 7.259 0 0 0 1.538-2.466c.365-.954.548-2.022.548-3.202V0h4.424v29.494H18.96v-2.738a10.157 10.157 0 0 1-3.476 2.401c-1.335.562-2.774.843-4.32.843-1.572 0-3.04-.274-4.402-.822a10.309 10.309 0 0 1-3.54-2.338c-.997-1.011-1.783-2.226-2.36-3.645C.289 21.777 0 20.197 0 18.455V0h4.424v18.202c0 1.18.183 2.254.548 3.224ZM30.966 0v10.744a11.27 11.27 0 0 1 3.413-2.338c1.293-.576 2.697-.864 4.214-.864 1.573 0 3.048.295 4.424.885 1.377.59 2.57 1.39 3.581 2.402A11.304 11.304 0 0 1 49 14.41c.59 1.377.885 2.837.885 4.382 0 1.545-.295 2.999-.885 4.361a11.366 11.366 0 0 1-2.401 3.56 11.302 11.302 0 0 1-3.582 2.402c-1.376.59-2.851.885-4.424.885-1.517 0-2.928-.288-4.235-.864a11.193 11.193 0 0 1-3.434-2.338v2.696h-4.213V0h4.256Zm.485 21.7a7.33 7.33 0 0 0 1.58 2.36 7.623 7.623 0 0 0 2.36 1.6c.899.393 1.868.59 2.907.59a7.07 7.07 0 0 0 2.865-.59 7.371 7.371 0 0 0 2.339-1.6 7.815 7.815 0 0 0 1.58-2.36c.393-.9.59-1.869.59-2.908 0-1.04-.197-2.015-.59-2.928a7.743 7.743 0 0 0-1.58-2.38 7.093 7.093 0 0 0-2.339-1.58 7.296 7.296 0 0 0-2.865-.57c-1.011 0-1.966.19-2.865.57a7.334 7.334 0 0 0-2.36 1.58 7.557 7.557 0 0 0-1.6 2.38 7.323 7.323 0 0 0-.59 2.928 7.4 7.4 0 0 0 .568 2.907ZM52.288 14.452a11.463 11.463 0 0 1 2.317-3.56 10.766 10.766 0 0 1 3.498-2.423c1.348-.59 2.808-.885 4.381-.885 1.545 0 2.978.281 4.298.843a10.193 10.193 0 0 1 3.413 2.339c.955.997 1.7 2.177 2.233 3.539.534 1.362.8 2.844.8 4.445v1.39H55.744a7.306 7.306 0 0 0 2.423 4.36 7.222 7.222 0 0 0 2.149 1.287c.8.309 1.65.463 2.549.463 2.556 0 4.62-1.053 6.194-3.16l3.075 2.275a11.445 11.445 0 0 1-3.96 3.371c-1.573.815-3.343 1.222-5.31 1.222-1.6 0-3.096-.281-4.486-.843a10.929 10.929 0 0 1-3.624-2.36 11.194 11.194 0 0 1-2.423-3.56c-.59-1.362-.885-2.844-.885-4.445 0-1.517.281-2.95.843-4.298Zm5.92-1.664c-1.194.997-1.987 2.324-2.38 3.982H68.93c-.365-1.658-1.144-2.985-2.338-3.982-1.194-.997-2.592-1.496-4.193-1.496-1.6 0-2.998.499-4.192 1.496ZM81.19 13.273c-.899.983-1.348 2.317-1.348 4.002v12.22h-4.256V8.005h4.213v2.655a5.989 5.989 0 0 1 2.086-2.064c.857-.506 1.875-.759 3.055-.759h1.475v3.96h-1.77c-1.404 0-2.556.492-3.455 1.476Z"/></g><defs><clipPath id="a"><path fill="#fff" d="M0 0h86.418v30H0z"/></clipPath></defs></svg>