<svg xmlns="http://www.w3.org/2000/svg" width="64" height="64" fill="none" viewBox="0 0 32 32"><path fill="#fff" d="M2 7.628C2.818 5.752 5.683 2 10.593 2c6.257 0 6.494 4.716 6.494 6.38 0 3.667-2.576 5.431-5.165 7.205-2.618 1.793-5.25 3.595-5.25 7.38 0 4.676 3.855 6.922 5.782 6.975-9.385 0-10.335-6.698-10.335-8.006 0-3.716 1.75-5.716 3.331-7.523 1.303-1.488 2.49-2.844 2.49-4.92 0-4.122-4.99-3.37-5.94-1.863"/><path fill="url(#a)" d="M2 7.628C2.818 5.752 5.683 2 10.593 2c6.257 0 6.494 4.716 6.494 6.38 0 3.667-2.576 5.431-5.165 7.205-2.618 1.793-5.25 3.595-5.25 7.38 0 4.676 3.855 6.922 5.782 6.975-9.385 0-10.335-6.698-10.335-8.006 0-3.716 1.75-5.716 3.331-7.523 1.303-1.488 2.49-2.844 2.49-4.92 0-4.122-4.99-3.37-5.94-1.863"/><path fill="#fff" d="M16.573 13.969c1.24-.436 4.15-1.665 5.86-3.092-.158-1.664.475-3.29 1.149-3.923.831.713 1.267 2.008 1.386 2.774 1.465.396 4.482 2.069 4.83 5.588.096.634.04 1.347 0 1.625-.422.198-1.623.515-3.207.357-.987-.1-1.67-.509-2.537-1.03-.873-.523-1.933-1.159-3.68-1.705-1.9-.594-3.485-.594-3.801-.594"/><path fill="url(#b)" d="M16.573 13.969c1.24-.436 4.15-1.665 5.86-3.092-.158-1.664.475-3.29 1.149-3.923.831.713 1.267 2.008 1.386 2.774 1.465.396 4.482 2.069 4.83 5.588.096.634.04 1.347 0 1.625-.422.198-1.623.515-3.207.357-.987-.1-1.67-.509-2.537-1.03-.873-.523-1.933-1.159-3.68-1.705-1.9-.594-3.485-.594-3.801-.594"/><path fill="#fff" d="M18.038 15.276c-2.535-.444-4.541.185-5.227.555 5.607-.602 8.804 3.448 9.702 5.549-.093.224 1.148.317 1.702.317.592 0 1.465-.339 2.295-.66.726-.282 1.42-.55 1.863-.569.76-.032 1.4.277 1.624.436.026-.304-.095-1.062-.792-1.665-.468-.404-1.095-.442-1.857-.49-.659-.04-1.418-.088-2.262-.381-.661-.23-1.354-.629-2.12-1.068-1.344-.77-2.911-1.67-4.928-2.024"/><path fill="url(#c)" d="M18.038 15.276c-2.535-.444-4.541.185-5.227.555 5.607-.602 8.804 3.448 9.702 5.549-.093.224 1.148.317 1.702.317.592 0 1.465-.339 2.295-.66.726-.282 1.42-.55 1.863-.569.76-.032 1.4.277 1.624.436.026-.304-.095-1.062-.792-1.665-.468-.404-1.095-.442-1.857-.49-.659-.04-1.418-.088-2.262-.381-.661-.23-1.354-.629-2.12-1.068-1.344-.77-2.911-1.67-4.928-2.024"/><path fill="#fff" fill-rule="evenodd" d="M12.89 28.592a4.16 4.16 0 0 0 4.158-4.16 4.16 4.16 0 0 0-4.158-4.162 4.16 4.16 0 0 0-4.158 4.161 4.16 4.16 0 0 0 4.158 4.161m0-2.298a1.862 1.862 0 1 0-.002-3.724 1.862 1.862 0 0 0 .002 3.724" clip-rule="evenodd"/><path fill="url(#d)" fill-rule="evenodd" d="M12.89 28.592a4.16 4.16 0 0 0 4.158-4.16 4.16 4.16 0 0 0-4.158-4.162 4.16 4.16 0 0 0-4.158 4.161 4.16 4.16 0 0 0 4.158 4.161m0-2.298a1.862 1.862 0 1 0-.002-3.724 1.862 1.862 0 0 0 .002 3.724" clip-rule="evenodd"/><path fill="#fff" d="M8.494 20.734c.556-1.359 2.326-3.714 5.663-3.714 4.395 0 7.326 3.805 7.326 7.728 0 1.07-.634 2.774-.634 2.774 1.822 0 3.881 1.11 3.881 2.14-1.988.234-5.779.392-10.353.32a5.75 5.75 0 0 0 4.255-5.55 5.744 5.744 0 0 0-5.742-5.747 5.73 5.73 0 0 0-4.396 2.049"/><path fill="url(#e)" d="M8.494 20.734c.556-1.359 2.326-3.714 5.663-3.714 4.395 0 7.326 3.805 7.326 7.728 0 1.07-.634 2.774-.634 2.774 1.822 0 3.881 1.11 3.881 2.14-1.988.234-5.779.392-10.353.32a5.75 5.75 0 0 0 4.255-5.55 5.744 5.744 0 0 0-5.742-5.747 5.73 5.73 0 0 0-4.396 2.049"/><defs><linearGradient id="a" x1="27.059" x2="2.765" y1="2.588" y2="29.706" gradientUnits="userSpaceOnUse"><stop stop-color="#FCA336"/><stop offset="1" stop-color="#FC7625"/></linearGradient><linearGradient id="b" x1="27.059" x2="2.765" y1="2.588" y2="29.706" gradientUnits="userSpaceOnUse"><stop stop-color="#FCA336"/><stop offset="1" stop-color="#FC7625"/></linearGradient><linearGradient id="c" x1="27.059" x2="2.765" y1="2.588" y2="29.706" gradientUnits="userSpaceOnUse"><stop stop-color="#FCA336"/><stop offset="1" stop-color="#FC7625"/></linearGradient><linearGradient id="d" x1="27.059" x2="2.765" y1="2.588" y2="29.706" gradientUnits="userSpaceOnUse"><stop stop-color="#FCA336"/><stop offset="1" stop-color="#FC7625"/></linearGradient><linearGradient id="e" x1="27.059" x2="2.765" y1="2.588" y2="29.706" gradientUnits="userSpaceOnUse"><stop stop-color="#FCA336"/><stop offset="1" stop-color="#FC7625"/></linearGradient></defs></svg>