<svg xmlns="http://www.w3.org/2000/svg" width="172.973" height="64" fill="none" viewBox="0 0 100 37"><g clip-path="url(#a)"><path fill="#FA4616" d="M0 0h36.782v36.782H0V0Zm32.956 32.956V3.826H3.826v29.13h29.13ZM7.136 9.49v11.108c0 5.076 2.795 8.092 7.503 8.092 4.855 0 7.65-3.016 7.65-8.092V9.49h-3.825v11.108c0 2.869-1.25 4.487-3.751 4.487-2.649 0-3.826-1.692-3.826-4.487V9.49H7.136Zm20.082 2.28c1.325 0 2.354-.956 2.354-2.28 0-1.398-.956-2.354-2.354-2.354-1.324 0-2.354.956-2.354 2.354 0 1.324 1.03 2.28 2.354 2.28Zm-1.912 1.766v14.933h3.825V13.536h-3.825Zm22.804 8.827c4.12 0 6.842-2.427 6.842-6.473 0-3.9-2.649-6.4-6.842-6.4h-7.209v19.052h3.825v-6.105h3.384v-.074Zm-.441-3.016h-3.016V12.58h3.016c2.207 0 3.384 1.25 3.384 3.31 0 2.208-1.177 3.458-3.384 3.458Zm8.533 1.692c0 4.487 2.87 7.65 6.915 7.65 2.428 0 3.973-.882 4.855-2.28v2.134h3.826V13.536h-3.826v2.354c-.956-1.545-2.5-2.502-4.855-2.502-4.12 0-6.915 3.237-6.915 7.651Zm11.77 0c0 2.575-1.618 4.267-3.972 4.267-2.575 0-3.899-1.84-3.899-4.267 0-2.648 1.471-4.34 3.899-4.34s3.972 1.765 3.972 4.34Zm13.389 4.193c-1.471 0-1.84-.662-1.84-1.986v-6.474h3.311v-3.236h-3.31v-4.12h-3.825v4.12H73.93v3.236h1.766v6.474c0 3.531 1.544 5.223 5.222 5.223h1.987v-3.237H81.36Zm7.43-9.563V8.607h-3.825v19.936h3.825v-7.945c0-2.575 1.324-4.12 3.604-4.12 2.207 0 3.384 1.471 3.384 3.752v8.239h3.826v-8.607c0-3.899-2.796-6.473-6.327-6.473-2.207 0-3.604.809-4.487 2.28Z"/></g><defs><clipPath id="a"><path fill="#fff" d="M0 0h100v36.782H0z"/></clipPath></defs></svg>