<svg xmlns="http://www.w3.org/2000/svg" width="278.261" height="64" fill="none" viewBox="0 0 100 23"><g clip-path="url(#a)"><path fill="#000" d="M13.079 8.45h6.004v10.633H0V8.45h6.004v5.306h7.053V8.45zm20.305 5.437c0 1.812-1.179 2.86-2.816 2.86-1.594 0-2.795-1.07-2.795-2.86v-8.56h-2.664v8.538c0 3.362 2.402 5.502 5.48 5.502 3.101 0 5.48-2.14 5.48-5.502V5.328h-2.663v8.558h-.022Zm9.542-4.608c-1.026 0-2.162.437-2.751 1.441V9.541h-2.49v9.542h2.577v-5.502c0-1.114.655-1.987 1.79-1.987 1.245 0 1.769.83 1.769 1.9v5.567h2.576v-6.004c-.021-2.096-1.113-3.778-3.471-3.778m9.454 4.018-1.42-.284c-.545-.11-.873-.393-.873-.851 0-.546.48-.94 1.157-.94.961 0 1.332.481 1.42 1.07h2.227c-.022-1.31-1.048-3.013-3.603-3.013-2.052 0-3.559 1.42-3.559 3.123 0 1.332.83 2.445 2.664 2.838l1.31.284c.742.153 1.026.502 1.026.939 0 .502-.458.939-1.31.939-1.026 0-1.594-.59-1.725-1.267h-2.292c.13 1.42 1.157 3.232 4.04 3.232 2.488 0 3.755-1.594 3.755-3.144.021-1.398-.94-2.533-2.817-2.926m13.799.982c0 2.883-1.812 5.022-4.498 5.022-1.31 0-2.292-.524-2.75-1.157v4.607h-2.577V9.541h2.489v1.18c.436-.743 1.484-1.398 2.926-1.398 2.794 0 4.41 2.14 4.41 4.957Zm-2.533.022c0-1.68-1.048-2.663-2.358-2.663s-2.38.982-2.38 2.663 1.07 2.686 2.38 2.686 2.358-.983 2.358-2.686m14.847-4.76h2.49v9.542h-2.577v-1.18c-.437.765-1.44 1.398-2.751 1.398-2.686 0-4.498-2.14-4.498-5.021 0-2.839 1.616-4.957 4.389-4.957 1.44 0 2.467.655 2.926 1.397V9.541zm-.043 4.76c0-1.68-1.07-2.663-2.38-2.663s-2.358.982-2.358 2.663c0 1.703 1.048 2.686 2.358 2.686s2.38-1.004 2.38-2.686m-11.07 4.76h2.576V5.328H67.38V19.06ZM96.288 9.28c-.917 0-1.965.306-2.576 1.049v-5h-2.577V19.06h2.577v-5.59c.065-1.047.698-1.855 1.79-1.855 1.245 0 1.769.83 1.769 1.9v5.567h2.576v-6.004c-.022-2.118-1.135-3.8-3.559-3.8Zm-9.17 4.018-1.42-.284c-.545-.11-.873-.393-.873-.851 0-.546.48-.94 1.157-.94.961 0 1.332.481 1.42 1.07h2.227c-.022-1.31-1.048-3.013-3.603-3.013-2.052 0-3.559 1.42-3.559 3.123 0 1.332.83 2.445 2.664 2.838l1.31.284c.742.153 1.026.502 1.026.939 0 .502-.458.939-1.31.939-1.026 0-1.594-.59-1.725-1.267H82.14c.13 1.42 1.157 3.232 4.039 3.232 2.49 0 3.755-1.594 3.755-3.144.022-1.398-.938-2.533-2.816-2.926M13.078 0H6.005v5.328h7.053V0h.022Z"/></g><defs><clipPath id="a"><path fill="#fff" d="M0 0h100v22.926H0z"/></clipPath></defs></svg>