<svg xmlns="http://www.w3.org/2000/svg" width="100" height="64" fill="none" viewBox="0 0 50 32"><g clip-path="url(#a)"><path fill="#149e00" d="M38.084 19a8.84 8.84 0 0 1-7-4.136c.905-7.216 3.54-9.459 7.027-9.459s6.135 2.703 6.135 6.757-2.703 6.757-6.135 6.757l-.027.08ZM38.11.89a10.5 10.5 0 0 0-10.676 8.217 35 35 0 0 1-2.608-7.595h-8.608V12.19c0 3.878-1.757 6.756-5.203 6.756S5.61 16.082 5.61 12.19V1.513H.665V12.19a11.64 11.64 0 0 0 2.851 8.08 9.82 9.82 0 0 0 7.486 3.177c5.96 0 10.136-4.582 10.136-11.136V5.094a35 35 0 0 0 4.946 10.879l-2.65 15.108h5.028l1.743-10.703q.867.747 1.838 1.351a11.24 11.24 0 0 0 5.595 1.73h.46A10.945 10.945 0 0 0 49.15 12.162 10.97 10.97 0 0 0 38.084.932"/></g><defs><clipPath id="a"><path fill="#fff" d="M0 0h50v31.081H0z"/></clipPath></defs></svg>