<svg xmlns="http://www.w3.org/2000/svg" width="233.143" height="64" fill="none" viewBox="0 0 102 28"><g fill="#4EA52F" clip-path="url(#a)"><path d="M28.18 19.06A6.54 6.54 0 0 1 23 16c.67-5.34 2.62-7 5.2-7s4.54 2 4.54 5-2 5-4.54 5l-.02.06Zm.02-13.4a7.77 7.77 0 0 0-7.9 6.08 25.996 25.996 0 0 1-1.93-5.62H12v7.9c0 2.87-1.3 5-3.85 5s-4-2.12-4-5v-7.9H.49v7.9A8.61 8.61 0 0 0 2.6 20a7.27 7.27 0 0 0 5.54 2.35c4.41 0 7.5-3.39 7.5-8.24V8.77a25.869 25.869 0 0 0 3.66 8.05L17.34 28h3.72l1.29-7.92c.428.368.882.702 1.36 1a8.318 8.318 0 0 0 4.14 1.28h.34A8.097 8.097 0 0 0 36.37 14a8.12 8.12 0 0 0-8.19-8.31M80.803 7.86V6.18h-3.6v15.63h3.65v-6.12c0-3.77.34-6.48 5.4-6.13V6c-2.36-.18-4.2.31-5.45 1.87M55.508 6.17l-2.64 10.94-2.82-10.94h-4.64l-2.82 10.94-2.64-10.94h-3.69l4.05 15.65h4.38l3.04-11.11 3.01 11.11h4.38l4.28-15.65h-3.89ZM67.417 19.07c-2.59 0-4.53-2.05-4.53-5s2-5 4.53-5c2.53 0 4.58 1.93 4.58 4.93s-2 5-4.54 5l-.04.07Zm.04-13.42a8.1 8.1 0 0 0-8.21 8.35 8.18 8.18 0 1 0 16.35 0 8.11 8.11 0 0 0-8.18-8.31M91.47 14.13h.84l5.09 7.69h4.11l-5.85-8.53a7.66 7.66 0 0 0 4.74-7.11h-3.63c0 3.37-2.66 4.65-5.3 4.65V0h-3.65v21.82h3.64l.01-7.69Z"/></g><defs><clipPath id="a"><path fill="#fff" d="M0 0h102v28H0z"/></clipPath></defs></svg>