<svg xmlns="http://www.w3.org/2000/svg" width="400.842" height="64" fill="none" viewBox="0 0 119 19"><g clip-path="url(#a)"><path fill="#dd6461" d="M4.772 1.002c.605-.124 1.987-.4 3.07-.613 2.437-.48 3.785-.513 4.635-.116.78.365 5.182 5.457 5.63 6.511.17.401.309 1.026.309 1.389 0 .858-2.004 7.06-2.506 7.754-.674.933-1.386 1.215-4.61 1.828-3.805.723-4.567.742-5.56.139-.902-.55-5.057-5.391-5.479-6.385-.473-1.116-.366-1.818.842-5.539 1.313-4.042 1.7-4.566 3.669-4.968"/><path fill="#613433" d="M12.971 6.97c-.569-.255-.722-1.183-.268-1.63.344-.34.79-.306 1.238.093.493.44.48.938-.037 1.4-.343.305-.505.33-.933.138ZM5.098 8.568c-.827 0-1.265-1.02-.684-1.593.137-.135.445-.246.684-.246.828 0 1.266 1.02.684 1.594-.136.135-.444.245-.684.245"/><path fill="#613433" fill-rule="evenodd" d="M9.413 9.59c-2.387.472-2.765.664-2.765 1.413 0 .758 1.308 1.95 2.35 2.142.825.152 2.21-.142 2.966-.63 1.063-.687 1.685-2.483 1.07-3.089-.335-.33-1.348-.284-3.621.164m.283 3.264c1.647-.01 3.41-1.278 2.72-1.958-.383-.378-1.974-.523-2.857-.26-.92.273-1.874.942-1.874 1.312 0 .417 1.098.911 2.011.906" clip-rule="evenodd"/><path fill="#ab4f4f" d="M12.42 10.896c.689.68-1.074 1.949-2.722 1.958-.913.005-2.01-.49-2.01-.906 0-.37.954-1.039 1.873-1.312.884-.262 2.475-.118 2.858.26Z"/><path fill="#343a40" d="M31.48 3.686q0-.428.227-.65a.85.85 0 0 1 .622-.243q.378 0 .604.242.226.224.226.65v7.418q0 1.153-.32 2.026a3.76 3.76 0 0 1-.925 1.45q-.585.576-1.433.874-.83.279-1.868.278a6 6 0 0 1-1.867-.278 4 4 0 0 1-1.434-.874q-.585-.577-.905-1.45t-.321-2.026V3.686q0-.428.226-.65a.85.85 0 0 1 .623-.243q.377 0 .603.242.227.224.227.65v7.418q0 1.542.773 2.323.792.762 2.094.762 1.282 0 2.056-.762.792-.78.792-2.323zm7.203 12.045a5.7 5.7 0 0 1-1.886-.297 6 6 0 0 1-1.396-.688q-.378-.26-.378-.65a.66.66 0 0 1 .208-.484.7.7 0 0 1 .528-.223q.114 0 .227.037.132.038.301.13.548.317 1.151.558.603.223 1.377.223.982 0 1.471-.372.51-.371.51-.966 0-.558-.359-.855-.34-.298-1.414-.41l-.944-.092q-1.338-.15-2.018-.781-.68-.65-.68-1.729 0-1.282.869-1.989.867-.725 2.47-.725.794 0 1.472.186a4.8 4.8 0 0 1 1.226.465q.472.242.472.65 0 .28-.208.484a.65.65 0 0 1-.471.186 1.4 1.4 0 0 1-.566-.149 6 6 0 0 0-.962-.335 4 4 0 0 0-1.038-.13q-.849 0-1.282.353-.434.336-.434.874 0 .54.377.837.378.28 1.396.371l.943.093q1.415.15 2.056.8.66.631.66 1.729 0 1.32-.943 2.119-.924.78-2.735.78m12.884-1.301a.87.87 0 0 1 .132.446.73.73 0 0 1-.227.54.84.84 0 0 1-.584.204q-.416 0-.698-.39l-.359-.558h-.019a3.1 3.1 0 0 1-1.112.78q-.66.28-1.66.28-1.53 0-2.358-.688-.83-.706-.83-1.99 0-1.394.905-2.063.924-.687 2.622-.688h2.056q.114 0 .113-.111v-.428q0-.948-.49-1.45t-1.679-.502q-.528 0-1.037.15a4 4 0 0 0-.812.297q-.264.13-.452.13-.321 0-.51-.168-.17-.185-.17-.501a.85.85 0 0 1 .076-.354.73.73 0 0 1 .302-.279q.434-.278 1.113-.464.697-.205 1.641-.205 1.83 0 2.678.837.869.836.868 2.49v3.198q0 .353.038.54.038.166.132.37l.32.577Zm-4.301-.037q1.057 0 1.66-.446.622-.465.622-1.301v-.986q0-.111-.113-.111h-1.81q-1.17 0-1.717.353-.528.335-.529 1.097 0 .706.491 1.06.49.333 1.396.334m7.065 1.227a.77.77 0 0 1-.566-.223q-.225-.223-.226-.614V3.63q0-.39.226-.613a.77.77 0 0 1 .566-.224q.34 0 .566.224.227.223.227.613v3.978h.018a2.45 2.45 0 0 1 .925-.855q.623-.335 1.64-.335 1.152 0 1.944.595.81.577 1.17 1.636.168.54.245 1.097.075.557.075 1.32 0 .78-.075 1.338a6.6 6.6 0 0 1-.246 1.097q-.358 1.06-1.17 1.654-.791.576-1.942.576-1.02 0-1.641-.316a2.4 2.4 0 0 1-.925-.873h-.018v.241q0 .39-.227.614a.77.77 0 0 1-.566.223m3-1.338q.754 0 1.244-.354.51-.372.736-1.04.132-.373.17-.8t.038-1.022q0-.578-.038-1.004a3.2 3.2 0 0 0-.17-.8q-.226-.67-.736-1.022-.49-.372-1.245-.372-.773 0-1.282.372-.49.354-.717 1.022a3.2 3.2 0 0 0-.17.8q-.037.428-.037 1.004 0 .594.037 1.022.038.427.17.8.226.668.717 1.04.51.354 1.282.353Zm6.589-9.444q-.433 0-.736-.297a.98.98 0 0 1-.301-.725q0-.428.301-.725.303-.297.736-.298.435 0 .736.298a.98.98 0 0 1 .302.725.98.98 0 0 1-.302.725 1 1 0 0 1-.736.297m-.792 2.528q0-.39.226-.613a.77.77 0 0 1 .566-.223q.34 0 .566.223t.226.613v7.417q0 .39-.226.614a.77.77 0 0 1-.566.223.77.77 0 0 1-.566-.223q-.225-.223-.226-.614zm6.282 8.254q-1.226 0-1.716-.576-.49-.595-.49-1.803V3.63q0-.39.226-.613a.77.77 0 0 1 .566-.224q.339 0 .565.224.227.223.227.613v9.518q0 .557.188.799.208.223.68.223.34 0 .527.204.208.205.208.52a.7.7 0 0 1-.208.521q-.207.205-.603.205zm3.323-10.782q-.435 0-.736-.297a.98.98 0 0 1-.302-.725.98.98 0 0 1 .302-.725q.302-.297.736-.298.434 0 .736.298.3.297.301.725c.001.428-.1.527-.301.725a1 1 0 0 1-.736.297m-.792 2.528q0-.39.226-.613a.77.77 0 0 1 .566-.223q.34 0 .566.223t.226.613v7.417q0 .39-.226.614a.77.77 0 0 1-.566.223.77.77 0 0 1-.566-.223q-.226-.223-.226-.614zm6.834 8.254q-1.396 0-1.962-.614t-.566-2.007v-5q0-.112-.113-.112h-.51q-.32 0-.509-.167a.66.66 0 0 1-.17-.465q0-.28.17-.446.189-.186.51-.186h.509q.113 0 .113-.112V4.56q0-.39.226-.613a.77.77 0 0 1 .566-.223q.34 0 .566.223t.226.613v1.952q0 .112.114.112h1.188q.32 0 .49.186.19.167.19.446c0 .279-.064.34-.19.465q-.17.167-.49.167h-1.188q-.114 0-.114.111v4.945q0 .706.246.967.245.26.962.26.377 0 .566.204a.7.7 0 0 1 .207.52.7.7 0 0 1-.207.521q-.209.205-.642.205h-.188Zm3.094 3.253q-.378 0-.585-.204a.74.74 0 0 1-.189-.521q0-.316.189-.52.207-.205.585-.205.546 0 .905-.279.36-.26.66-1.06l.302-.817-3.075-7.64a.9.9 0 0 1-.076-.372.67.67 0 0 1 .227-.52.8.8 0 0 1 .566-.205q.547 0 .755.558l2.358 6.153h.037l2.264-6.153q.189-.558.736-.558.358 0 .566.204.207.205.207.52a.9.9 0 0 1-.075.373L84.83 16.4a7 7 0 0 1-.603 1.227 2.8 2.8 0 0 1-.623.762q-.321.28-.717.371-.376.112-.868.112h-.15Zm8.084-15.187q0-.428.227-.65a.85.85 0 0 1 .622-.243q.378 0 .604.242.225.224.226.65V8.26q0 .111.113.111h5.565q.113 0 .113-.111V3.686q0-.428.227-.65a.85.85 0 0 1 .622-.243.8.8 0 0 1 .604.242q.226.224.226.65v11.043q0 .428-.226.669-.227.223-.604.223a.9.9 0 0 1-.622-.223q-.227-.241-.227-.67v-4.702q0-.112-.113-.112h-5.565q-.113 0-.113.112v4.703q0 .427-.226.669-.226.223-.604.223a.9.9 0 0 1-.623-.223q-.225-.241-.226-.67zm18.8 11.097q0 .39-.227.614a.77.77 0 0 1-.566.223.77.77 0 0 1-.565-.223q-.227-.223-.227-.614v-.26h-.019q-.32.52-.943.874-.622.334-1.547.334-1.47 0-2.301-.91-.811-.912-.811-2.436V7.366q0-.39.226-.613a.78.78 0 0 1 .566-.223q.34 0 .566.223t.226.613v4.648q0 1.077.491 1.673.49.595 1.509.595.925 0 1.471-.577.566-.595.566-1.598v-4.74q0-.39.227-.614a.77.77 0 0 1 .565-.223q.34 0 .566.223.227.223.227.613zm3.32.837a.77.77 0 0 1-.565-.223q-.227-.223-.227-.614V3.63q0-.39.227-.613a.77.77 0 0 1 .565-.224q.34 0 .566.224.227.223.227.613v3.978h.019a2.44 2.44 0 0 1 .924-.855q.622-.335 1.641-.335 1.15 0 1.943.595.812.577 1.169 1.636.171.54.246 1.097t.075 1.32q0 .78-.075 1.338-.075.557-.246 1.097-.357 1.06-1.169 1.654-.792.576-1.943.576-1.019 0-1.641-.316a2.4 2.4 0 0 1-.924-.873h-.019v.241q0 .39-.227.614a.77.77 0 0 1-.566.223m3-1.338q.755 0 1.245-.354.509-.372.735-1.04.132-.373.17-.8t.038-1.022q0-.578-.038-1.004a3.2 3.2 0 0 0-.17-.8q-.226-.67-.735-1.022-.49-.372-1.245-.372-.773 0-1.283.372-.49.354-.717 1.022a3.2 3.2 0 0 0-.169.8q-.038.428-.038 1.004 0 .594.038 1.022.037.427.169.8.227.668.717 1.04.51.354 1.283.353Z"/></g><defs><clipPath id="a"><path fill="#fff" d="M0 0h119v19H0z"/></clipPath></defs></svg>