<svg xmlns="http://www.w3.org/2000/svg" width="62.745" height="64" fill="none" viewBox="0 0 50 51"><g clip-path="url(#a)"><path fill="#DD6461" d="M12.931 2.756c1.64-.34 5.385-1.098 8.32-1.685 6.604-1.32 10.257-1.412 12.561-.32 2.113 1.004 14.042 15.005 15.254 17.904.46 1.103.837 2.821.837 3.819 0 2.36-5.43 19.412-6.79 21.322-1.825 2.566-3.754 3.342-12.49 5.027-10.313 1.989-12.379 2.04-15.066.382C13.11 47.694 1.85 34.38.708 31.648c-1.282-3.07-.993-4.998 2.282-15.23C6.548 5.302 7.597 3.861 12.931 2.755Z"/><path fill="#613433" d="M35.157 19.168c-1.542-.702-1.956-3.255-.728-4.483.935-.935 2.142-.842 3.355.255 1.337 1.211 1.303 2.58-.099 3.848-.93.842-1.37.908-2.528.38ZM13.808 23.561c-2.242 0-3.43-2.806-1.854-4.382.371-.37 1.205-.674 1.854-.674 2.243 0 3.43 2.806 1.854 4.382-.37.37-1.205.674-1.854.674Z"/><path fill="#613433" fill-rule="evenodd" d="M25.514 26.372c-6.468 1.296-7.49 1.826-7.49 3.885 0 2.083 3.542 5.36 6.366 5.89 2.235.42 5.988-.39 8.04-1.735 2.878-1.886 4.564-6.825 2.897-8.491-.909-.909-3.652-.782-9.813.451Zm.768 8.974c4.463-.025 9.241-3.514 7.373-5.383-1.04-1.04-5.35-1.437-7.746-.715-2.49.751-5.077 2.589-5.077 3.606 0 1.147 2.975 2.507 5.45 2.492Z" clip-rule="evenodd"/><path fill="#AB4F4F" d="M33.658 29.963c1.869 1.869-2.91 5.358-7.373 5.383-2.475.015-5.45-1.345-5.45-2.492 0-1.017 2.587-2.855 5.078-3.606 2.395-.722 6.705-.325 7.745.715Z"/></g><defs><clipPath id="a"><path fill="#fff" d="M0 0h50v50.562H0z"/></clipPath></defs></svg>