<svg xmlns="http://www.w3.org/2000/svg" width="497.778" height="64" fill="none" viewBox="0 0 140 18"><g clip-path="url(#a)"><path fill="#158D71" d="M8.75 4.375a4.375 4.375 0 1 1 8.75 0 4.375 4.375 0 0 1-8.75 0ZM0 8.75h8.75v4.375a4.375 4.375 0 0 1-8.75 0V8.75Z"/><path fill="#011936" d="M8.75 13.125a4.375 4.375 0 0 1 8.75 0V17.5H8.75v-4.375ZM0 4.375a4.375 4.375 0 1 1 8.75 0 4.375 4.375 0 0 1-8.75 0Z"/><path fill="#000" d="M29.98 11.037c-.018 1.768-1.383 2.45-2.52 2.45-1.138 0-1.96-.874-1.96-2.257V6.54h-1.523v4.725c-.018 2.292 1.242 3.657 3.29 3.657.91 0 2.222-.455 2.712-1.487v1.277h1.523V6.54h-1.523v4.497ZM36.46 14.923c1.697 0 3.167-.963 3.167-2.485 0-.928-.438-1.943-2.135-2.363l-1.208-.297c-.525-.123-1.05-.42-1.05-.98 0-.63.525-1.138 1.313-1.138.647 0 1.295.42 1.312 1.05h1.47c0-1.645-1.435-2.38-2.817-2.38-1.645 0-2.8 1.068-2.8 2.415 0 1.313.787 1.978 2.152 2.345l1.12.263c.648.14 1.12.455 1.12 1.067 0 .665-.612 1.173-1.645 1.173-.997 0-1.61-.578-1.627-1.278h-1.418c.07 1.68 1.575 2.608 3.045 2.608ZM49.291 10.6c0-2.59-1.732-4.27-4.06-4.27-2.327 0-4.2 1.68-4.2 4.27s1.873 4.323 4.2 4.323c1.575 0 3.045-.77 3.745-2.188l-1.312-.525c-.473.823-1.383 1.278-2.38 1.278-1.4 0-2.45-.753-2.678-2.205h6.65c.018-.228.035-.455.035-.683Zm-6.667-.63c.245-1.47 1.225-2.205 2.607-2.205 1.348 0 2.345.805 2.538 2.205h-5.145ZM55.114 6.33c-1.085 0-1.873.63-2.293 2.065V6.54h-1.54v8.173h1.54V11.72c0-2.152.648-3.92 2.275-3.92.315 0 .753.07 1.19.28l.245-1.435c-.245-.157-.84-.315-1.417-.315ZM63.294 4.545c.595 0 1.085-.437 1.085-1.015 0-.577-.49-1.015-1.085-1.015-.577 0-1.067.438-1.067 1.015 0 .578.49 1.015 1.067 1.015Zm.77 10.168V6.54h-1.522v8.173h1.522ZM70.852 6.33c-.892 0-2.222.455-2.712 1.453V6.54h-1.523v8.173h1.523v-4.428c0-1.767 1.365-2.45 2.502-2.45 1.138 0 1.978.875 1.978 2.24v4.638h1.522V9.988c.018-2.293-1.26-3.658-3.29-3.658ZM78.649 6.54V3.46h-1.523v3.08h-1.47v1.313h1.47v6.86h1.523v-6.86h1.767V6.54H78.65ZM89.58 10.6c0-2.59-1.732-4.27-4.06-4.27-2.327 0-4.2 1.68-4.2 4.27s1.873 4.323 4.2 4.323c1.575 0 3.045-.77 3.745-2.188l-1.312-.525c-.473.823-1.383 1.278-2.38 1.278-1.4 0-2.45-.753-2.678-2.205h6.65c.018-.228.035-.455.035-.683Zm-6.667-.63c.245-1.47 1.225-2.205 2.607-2.205 1.348 0 2.345.805 2.538 2.205h-5.145ZM95.395 6.33c-1.085 0-1.873.63-2.292 2.065V6.54h-1.54v8.173h1.54V11.72c0-2.152.647-3.92 2.275-3.92.314 0 .752.07 1.19.28l.245-1.435c-.246-.157-.84-.315-1.418-.315ZM101.413 12.77l-2.52-6.23h-1.627l3.395 8.172h1.487l3.413-8.172h-1.645l-2.503 6.23ZM107.818 4.545c.595 0 1.085-.437 1.085-1.015 0-.577-.49-1.015-1.085-1.015-.578 0-1.068.438-1.068 1.015 0 .578.49 1.015 1.068 1.015Zm.77 10.168V6.54h-1.523v8.173h1.523ZM118.862 10.6c0-2.59-1.733-4.27-4.06-4.27-2.328 0-4.2 1.68-4.2 4.27s1.872 4.323 4.2 4.323c1.575 0 3.045-.77 3.745-2.188l-1.313-.525c-.472.823-1.382 1.278-2.38 1.278-1.4 0-2.45-.753-2.677-2.205h6.65c.017-.228.035-.455.035-.683Zm-6.668-.63c.245-1.47 1.225-2.205 2.608-2.205 1.347 0 2.345.805 2.537 2.205h-5.145ZM129.046 12.35l-2.1-5.81h-1.488l-2.082 5.81-2.083-5.81h-1.645l3.115 8.172h1.26l2.17-6.072 2.258 6.072h1.277l3.045-8.172h-1.645l-2.082 5.81ZM136.561 14.923c1.697 0 3.167-.963 3.167-2.485 0-.928-.437-1.943-2.135-2.363l-1.207-.297c-.525-.123-1.05-.42-1.05-.98 0-.63.525-1.138 1.312-1.138.648 0 1.295.42 1.313 1.05h1.47c0-1.645-1.435-2.38-2.818-2.38-1.645 0-2.8 1.068-2.8 2.415 0 1.313.788 1.978 2.153 2.345l1.12.263c.647.14 1.12.455 1.12 1.067 0 .665-.613 1.173-1.645 1.173-.998 0-1.61-.578-1.628-1.278h-1.417c.07 1.68 1.575 2.608 3.045 2.608Z"/></g><defs><clipPath id="a"><path fill="#fff" d="M0 0h140v17.5H0z"/></clipPath></defs></svg>