<svg xmlns="http://www.w3.org/2000/svg" width="237.037" height="64" fill="none" viewBox="0 0 100 27"><g fill="#3b5bf4" clip-path="url(#a)"><path fill-rule="evenodd" d="M44.818 17.465V4.137A4.05 4.05 0 0 0 40.773.092H4.467A4.05 4.05 0 0 0 .422 4.137v13.328a4.05 4.05 0 0 0 4.045 4.046h26.29l7.122 4.753-1.427-4.753H40.8c2.213-.013 4.032-1.82 4.02-4.046Zm-36.724-3.98c.21.367.484.655.838.838a2.33 2.33 0 0 0 1.165.288 2.4 2.4 0 0 0 1.178-.301c.354-.21.642-.498.838-.864.21-.38.315-.799.315-1.283V6.18a.28.28 0 0 1 .078-.21.28.28 0 0 1 .21-.078h1.453a.3.3 0 0 1 .223.078.4.4 0 0 1 .065.092c.013.04.026.078.013.118v5.97c0 .956-.196 1.754-.59 2.409-.392.641-.916 1.126-1.57 1.427-.655.314-1.401.458-2.213.458s-1.545-.157-2.212-.471a3.66 3.66 0 0 1-1.585-1.44q-.588-.963-.589-2.396V6.18q0-.118.079-.197c.026-.026.052-.052.078-.065a.25.25 0 0 1 .105-.026h1.532c.092 0 .17.026.21.078a.34.34 0 0 1 .065.21v5.983c0 .51.105.956.314 1.322m7.75 1.035c0 .039.014.091.027.13l.079.158c.327.51.772.916 1.322 1.204s1.178.432 1.872.432c.55 0 1.087-.105 1.597-.301.51-.21.917-.51 1.244-.93q.471-.608.471-1.492c0-.615-.196-1.178-.589-1.663-.393-.497-.982-.85-1.78-1.1-.105-.039-.197-.065-.288-.091-.092-.026-.17-.053-.236-.066a7 7 0 0 1-.864-.275 1.4 1.4 0 0 1-.445-.275c-.118-.117-.17-.261-.17-.458 0-.249.104-.445.314-.602q.314-.236.864-.236c.353 0 .641.066.877.184s.458.314.68.563c.08.091.145.144.223.144.053 0 .118-.027.184-.092l.825-.68c.091-.08.144-.145.144-.21 0-.053-.04-.131-.105-.236a4 4 0 0 0-1.178-.995c-.472-.275-1.035-.406-1.703-.406-.615 0-1.152.118-1.623.367a2.9 2.9 0 0 0-1.087.955c-.248.393-.38.786-.38 1.192 0 .497.092.93.289 1.283s.484.654.877.903.903.472 1.545.668c.275.079.445.13.484.144.314.092.55.17.694.236a.75.75 0 0 1 .354.261c.091.118.13.275.13.485 0 .196-.078.38-.222.537a1.6 1.6 0 0 1-.576.366 2.2 2.2 0 0 1-.707.131q-.59 0-.982-.275a3 3 0 0 1-.733-.746c-.079-.105-.157-.157-.249-.157a.4.4 0 0 0-.157.052l-.903.642c-.079.078-.118.157-.118.249Zm14.782-.747c.079 0 .131.026.17.092l.72.877c.053.079.092.144.092.21 0 .078-.04.144-.105.21-.523.457-1.034.785-1.558.994a4.6 4.6 0 0 1-1.662.301c-.799 0-1.558-.21-2.265-.615a4.7 4.7 0 0 1-1.69-1.676 4.4 4.4 0 0 1-.628-2.291c0-.838.197-1.61.59-2.304a4.43 4.43 0 0 1 1.623-1.676c.694-.42 1.466-.616 2.317-.616.694 0 1.375.17 2.056.511.68.34 1.243.851 1.689 1.545q.667 1.041.667 2.553c0 .223-.026.393-.078.498s-.131.17-.21.183c-.091.026-.235.04-.419.026h-6.284c.092.419.275.785.524 1.1.248.314.563.563.93.733.366.17.759.262 1.178.262.327 0 .602-.04.85-.105a2.5 2.5 0 0 0 .59-.236q.274-.156.51-.353l.21-.157a.3.3 0 0 1 .183-.066m-3.47-4.543c-.34.17-.628.406-.877.694a3 3 0 0 0-.563.982h4.989a3.2 3.2 0 0 0-.97-1.4 2.32 2.32 0 0 0-1.505-.525 2.2 2.2 0 0 0-1.073.25Zm8.393-1.885H34.54c-.184 0-.275.105-.275.301v8.353c0 .196.091.288.275.288h1.44c.196 0 .288-.092.288-.288v-4.897c0-.445.078-.811.249-1.112s.38-.524.654-.668c.262-.144.55-.223.851-.223s.576.053.838.157c.262.118.51.25.747.406a.45.45 0 0 0 .222.092c.079 0 .131-.04.197-.118l.654-.93a.3.3 0 0 0 .079-.196c0-.092-.053-.183-.157-.288a5 5 0 0 0-1.022-.655 2.9 2.9 0 0 0-1.335-.314 2.4 2.4 0 0 0-1.218.314c-.366.21-.667.498-.903.878l-.144-.773c-.026-.144-.066-.235-.144-.275-.066-.039-.157-.052-.288-.052Z" clip-rule="evenodd"/><path d="M47.397 5.892h7.49q.274 0 .274.275v1.322c0 .183-.091.288-.275.288h-2.762v8.235q0 .275-.275.275h-1.506q-.275 0-.275-.275V7.764h-2.684c-.183 0-.275-.092-.275-.288v-1.31c.014-.183.105-.274.288-.274m14.459 7.881c.078 0 .13.026.17.092l.72.877c.052.079.091.144.091.21 0 .078-.039.144-.104.21-.524.457-1.034.785-1.558.994a4.4 4.4 0 0 1-1.663.301c-.799 0-1.558-.21-2.265-.615a4.7 4.7 0 0 1-1.689-1.676 4.4 4.4 0 0 1-.628-2.291c0-.838.196-1.61.589-2.304a4.43 4.43 0 0 1 1.623-1.676c.694-.42 1.467-.616 2.318-.616.694 0 1.387.17 2.055.511.681.34 1.244.851 1.69 1.545q.666 1.041.667 2.553c0 .223-.026.393-.079.498-.052.104-.13.17-.21.183-.09.026-.235.039-.418.039h-6.271c.091.419.275.786.523 1.1.249.314.563.563.93.733.366.17.76.262 1.191.262a3.3 3.3 0 0 0 .851-.105q.353-.098.59-.236.275-.156.51-.353l.21-.157c.026-.066.091-.079.157-.079M58.373 9.23c-.34.17-.628.406-.877.694a3 3 0 0 0-.563.982h5.001a3.2 3.2 0 0 0-.969-1.4 2.33 2.33 0 0 0-1.518-.525 2.2 2.2 0 0 0-1.074.25Zm6.099 5.42a.5.5 0 0 1-.027-.13c0-.092.04-.17.118-.25l.89-.68a.17.17 0 0 1 .158-.052c.091 0 .183.052.248.157.223.314.472.563.734.746q.391.275.981.275c.25 0 .485-.04.707-.13.236-.093.433-.21.577-.367a.8.8 0 0 0 .222-.537c0-.21-.04-.367-.13-.485a.9.9 0 0 0-.354-.261 6 6 0 0 0-.694-.236 6 6 0 0 1-.484-.144c-.643-.197-1.153-.42-1.546-.668a2.5 2.5 0 0 1-.877-.903c-.196-.354-.288-.786-.288-1.283 0-.406.131-.799.38-1.192s.615-.707 1.087-.955c.47-.25 1.007-.367 1.623-.367.655 0 1.23.13 1.702.406.471.275.864.602 1.178.995.079.091.105.17.105.235 0 .066-.053.144-.144.21l-.825.68c-.078.053-.131.092-.183.092-.066 0-.144-.052-.223-.144a2.4 2.4 0 0 0-.68-.563 2 2 0 0 0-.878-.183q-.549 0-.864.236a.72.72 0 0 0-.314.602c0 .196.052.34.17.458s.262.21.446.275c.182.079.484.157.863.275.079.013.158.04.236.066.092.026.184.052.288.091.799.236 1.388.602 1.781 1.1a2.6 2.6 0 0 1 .589 1.663q0 .864-.471 1.492c-.315.406-.734.72-1.244.93a3.9 3.9 0 0 1-1.598.301c-.693 0-1.322-.144-1.872-.432a3.55 3.55 0 0 1-1.322-1.205 1 1 0 0 1-.066-.117Zm11.382-7.24c.196 0 .3.105.3.302v1.152c0 .091-.026.17-.091.222a.37.37 0 0 1-.236.079H74.82v4.36c0 .314.052.563.17.759.118.183.315.288.59.301l.222.013c.157.013.262.053.302.131.038.079.065.17.051.262v.995c0 .236-.182.354-.536.354q-.825 0-1.454-.315a2.3 2.3 0 0 1-.994-.903q-.354-.59-.354-1.375v-4.57h-.812a.3.3 0 0 1-.21-.078c-.065-.052-.09-.13-.09-.222v-1.14c0-.104.025-.183.09-.248a.3.3 0 0 1 .21-.079h.812V5.944c0-.105.013-.17.052-.222.04-.053.118-.079.223-.118l1.427-.42c.027-.012.052-.012.079-.012.026 0 .065.013.091.026s.053.04.066.065c.04.053.052.131.052.223v1.911l1.048.013Zm2.211-3.26h1.217c.262 0 .393.144.393.446v1.23c0 .144-.026.249-.091.301a.5.5 0 0 1-.302.092h-1.217q-.432 0-.432-.393v-1.23c0-.302.144-.446.432-.446m-.288 3.273a.27.27 0 0 1 .196-.078h1.48a.267.267 0 0 1 .275.288v8.366c0 .183-.092.288-.275.288h-1.48c-.183 0-.274-.091-.274-.288V7.633c0-.092.025-.157.078-.21m5.403 8.786a.5.5 0 0 1-.276.078h-1.282c-.197 0-.302-.105-.302-.301V7.633c0-.196.105-.301.302-.301h.942c.092 0 .196.04.262.105.079.065.13.157.157.248l.118 1.008c.34-.484.746-.837 1.23-1.073a3.5 3.5 0 0 1 1.545-.354c.537 0 1.06.131 1.571.406s.93.694 1.27 1.257c.328.563.498 1.27.498 2.108v4.936c0 .196-.091.288-.275.288h-1.4c-.197 0-.302-.092-.302-.288v-4.87a1.9 1.9 0 0 0-.249-.956 2.1 2.1 0 0 0-.694-.733 1.87 1.87 0 0 0-.994-.275c-.315 0-.63.078-.93.248a2.03 2.03 0 0 0-1.06 1.807v4.766a.34.34 0 0 1-.132.248Zm15.755.916c-.393.707-.917 1.244-1.598 1.61-.68.367-1.466.537-2.343.537-.59 0-1.165-.105-1.728-.301a4.5 4.5 0 0 1-1.467-.812c-.078-.065-.118-.13-.118-.21 0-.052.027-.117.092-.209l.59-.85c.065-.092.144-.145.248-.145.078 0 .157.026.249.092.615.432 1.375.642 2.304.642q.707 0 1.257-.315a2.1 2.1 0 0 0 .864-.864 2.5 2.5 0 0 0 .314-1.257v-.026a4.3 4.3 0 0 1-1.243.943c-.432.21-.943.314-1.52.314a4.2 4.2 0 0 1-2.172-.576A4.3 4.3 0 0 1 91.04 14.1a4.3 4.3 0 0 1-.602-2.318c0-.811.196-1.57.602-2.265a4.74 4.74 0 0 1 1.624-1.676c.68-.419 1.4-.628 2.173-.628 1.113 0 2.068.432 2.867 1.283l.118-.825c.013-.13.052-.222.105-.275q.078-.078.235-.078h1.126c.17 0 .262.104.262.3v6.874c-.039 1.06-.236 1.925-.615 2.632Zm-1.65-6.69a2.7 2.7 0 0 0-.956-1.008 2.54 2.54 0 0 0-1.361-.38c-.524 0-.982.13-1.388.38-.406.248-.707.589-.943 1.02-.222.433-.34.891-.34 1.402 0 .537.118 1.008.354 1.427.235.419.562.746.968.982.406.235.865.353 1.362.353s.943-.118 1.335-.366a2.8 2.8 0 0 0 .943-1.008c.222-.432.34-.89.34-1.388a2.7 2.7 0 0 0-.314-1.414"/></g><defs><clipPath id="a"><path fill="#fff" d="M0 0h100v26.316H0z"/></clipPath></defs></svg>