<svg xmlns="http://www.w3.org/2000/svg" width="64" height="64" fill="none" viewBox="0 0 50 50"><g clip-path="url(#a)"><path fill="#158D71" d="M25 12.5C25 5.596 30.596 0 37.5 0S50 5.596 50 12.5 44.404 25 37.5 25 25 19.404 25 12.5ZM0 25h25v12.5C25 44.404 19.404 50 12.5 50S0 44.404 0 37.5V25Z"/><path fill="#011936" d="M25 37.5C25 30.596 30.596 25 37.5 25S50 30.596 50 37.5V50H25V37.5ZM0 12.5C0 5.596 5.596 0 12.5 0S25 5.596 25 12.5 19.404 25 12.5 25 0 19.404 0 12.5Z"/></g><defs><clipPath id="a"><path fill="#fff" d="M0 0h50v50H0z"/></clipPath></defs></svg>