<svg xmlns="http://www.w3.org/2000/svg" width="64" height="64" fill="none" viewBox="0 0 50 50"><g clip-path="url(#a)"><path fill="#3A21CE" d="M38.009 19.848a14.3 14.3 0 0 1 .88 2.946c1.395 7.645-3.666 14.975-11.303 16.37-6.71 1.24-13.446-2.64-15.748-9.072a14.4 14.4 0 0 1-.656-2.554 1.287 1.287 0 0 1 2.066-1.207 14 14 0 0 0 3.91 2.153c7.309 2.616 15.351-1.194 17.964-8.51.478-1.335 2.338-1.433 2.887-.126M24.974 50C11.181 50 0 38.807 0 25S11.181 0 24.974 0s24.974 11.193 24.974 25-11.181 25-24.974 25m0-5.242c10.9 0 19.738-8.846 19.738-19.758S35.875 5.242 24.974 5.242 5.237 14.088 5.237 25s8.836 19.758 19.737 19.758"/></g><defs><clipPath id="a"><path fill="#fff" d="M0 0h50v50H0z"/></clipPath></defs></svg>