<svg xmlns="http://www.w3.org/2000/svg" width="49.231" height="64" fill="none" viewBox="0 0 50 65"><g clip-path="url(#a)"><path fill="#2b52fd" d="M10.087.067h30.059c5.607 0 10.017 4.41 9.806 9.823v32.867c0 5.405-4.402 9.815-9.815 9.815h-6.61l3.608 11.618-17.428-11.618h-9.612c-5.607 0-10.017-4.41-10.017-10.017V9.899C.07 4.477 4.48.067 10.087.067m11.678 36.071c-1.02-.565-1.839-1.383-2.454-2.462q-.922-1.622-.92-3.887V12.276c0-.27-.058-.48-.185-.615-.118-.143-.32-.21-.607-.21h-4.477a.7.7 0 0 0-.295.058.57.57 0 0 0-.236.186.84.84 0 0 0-.211.59v17.437c0 2.79.573 5.126 1.72 7.023 1.147 1.889 2.681 3.297 4.62 4.225 1.931.927 4.09 1.382 6.468 1.382q3.58-.002 6.475-1.357c1.931-.902 3.466-2.293 4.613-4.182q1.72-2.834 1.72-7.032V12.293a.87.87 0 0 0-.236-.607c-.16-.16-.372-.244-.641-.244h-4.267c-.253 0-.464.076-.615.236-.16.16-.236.362-.236.615V29.79c0 1.408-.304 2.665-.911 3.752-.607 1.096-1.425 1.94-2.462 2.538-1.037.599-2.184.894-3.432.894-1.273.008-2.411-.27-3.431-.835Z"/></g><defs><clipPath id="a"><path fill="#fff" d="M0 0h50v64.25H0z"/></clipPath></defs></svg>