<svg xmlns="http://www.w3.org/2000/svg" width="237.037" height="64" fill="none" viewBox="0 0 100 27"><g fill="#3B5BF4" clip-path="url(#a)"><path fill-rule="evenodd" d="M44.818 17.465V4.137A4.048 4.048 0 0 0 40.773.092H4.467A4.048 4.048 0 0 0 .422 4.137v13.328a4.048 4.048 0 0 0 4.045 4.046h26.29l7.122 4.753-1.427-4.753H40.8c2.213-.013 4.032-1.82 4.02-4.046Zm-36.724-3.98c.21.367.484.655.838.838a2.33 2.33 0 0 0 1.165.288c.432 0 .825-.104 1.178-.301.354-.21.642-.498.838-.864.21-.38.315-.799.315-1.283V6.18c0-.092.026-.157.078-.21a.276.276 0 0 1 .21-.078h1.453c.092 0 .17.026.223.078a.398.398 0 0 1 .065.092c.013.04.026.078.013.118v5.97c0 .956-.196 1.754-.59 2.409-.392.641-.916 1.126-1.57 1.427-.655.314-1.401.458-2.213.458s-1.545-.157-2.212-.471a3.657 3.657 0 0 1-1.585-1.44c-.392-.642-.589-1.44-.589-2.396V6.18c0-.079.026-.144.079-.197.026-.026.052-.052.078-.065a.247.247 0 0 1 .105-.026h1.532c.092 0 .17.026.21.078.039.053.065.118.065.21v5.983c0 .51.105.956.314 1.322Zm7.75 1.035c0 .039.014.091.027.13l.079.158c.327.51.772.916 1.322 1.204.55.288 1.178.432 1.872.432.55 0 1.087-.105 1.597-.301.51-.21.917-.51 1.244-.93.314-.405.471-.903.471-1.492 0-.615-.196-1.178-.589-1.663-.393-.497-.982-.85-1.78-1.1-.105-.039-.197-.065-.288-.091-.092-.026-.17-.053-.236-.066a6.905 6.905 0 0 1-.864-.275 1.438 1.438 0 0 1-.445-.275c-.118-.117-.17-.261-.17-.458 0-.249.104-.445.314-.602.21-.157.497-.236.864-.236.353 0 .641.066.877.184.236.117.458.314.68.563.08.091.145.144.223.144.053 0 .118-.027.184-.092l.825-.68c.091-.08.144-.145.144-.21 0-.053-.04-.131-.105-.236a3.975 3.975 0 0 0-1.178-.995c-.472-.275-1.035-.406-1.703-.406-.615 0-1.152.118-1.623.367a2.876 2.876 0 0 0-1.087.955c-.248.393-.38.786-.38 1.192 0 .497.092.93.289 1.283.196.353.484.654.877.903s.903.472 1.545.668c.275.079.445.13.484.144.314.092.55.17.694.236.157.065.275.144.354.261.091.118.13.275.13.485 0 .196-.078.38-.222.537-.157.157-.34.275-.576.366-.223.079-.471.131-.707.131-.393 0-.72-.091-.982-.275a3.063 3.063 0 0 1-.733-.746c-.079-.105-.157-.157-.249-.157-.052 0-.105.026-.157.052l-.903.642c-.079.078-.118.157-.118.249Zm14.782-.747c.079 0 .131.026.17.092l.72.877c.053.079.092.144.092.21 0 .078-.04.144-.105.21-.523.457-1.034.785-1.558.994a4.63 4.63 0 0 1-1.662.301c-.799 0-1.558-.21-2.265-.615a4.709 4.709 0 0 1-1.69-1.676 4.405 4.405 0 0 1-.628-2.291c0-.838.197-1.61.59-2.304a4.434 4.434 0 0 1 1.623-1.676c.694-.42 1.466-.616 2.317-.616.694 0 1.375.17 2.056.511.68.34 1.243.851 1.689 1.545.445.694.667 1.545.667 2.553 0 .223-.026.393-.078.498-.053.104-.131.17-.21.183-.091.026-.235.04-.419.026h-6.284c.092.419.275.785.524 1.1.248.314.563.563.93.733.366.17.759.262 1.178.262.327 0 .602-.04.85-.105a2.5 2.5 0 0 0 .59-.236c.183-.104.353-.222.51-.353l.21-.157a.286.286 0 0 1 .183-.066Zm-3.47-4.543c-.34.17-.628.406-.877.694a3.048 3.048 0 0 0-.563.982h4.989a3.18 3.18 0 0 0-.97-1.4 2.318 2.318 0 0 0-1.505-.525 2.228 2.228 0 0 0-1.073.25Zm8.393-1.885H34.54c-.184 0-.275.105-.275.301v8.353c0 .196.091.288.275.288h1.44c.196 0 .288-.092.288-.288v-4.897c0-.445.078-.811.249-1.112.17-.302.38-.524.654-.668.262-.144.55-.223.851-.223.301 0 .576.053.838.157.262.118.51.25.747.406a.449.449 0 0 0 .222.092c.079 0 .131-.04.197-.118l.654-.93a.314.314 0 0 0 .079-.196c0-.092-.053-.183-.157-.288a5.108 5.108 0 0 0-1.022-.655 2.868 2.868 0 0 0-1.335-.314 2.41 2.41 0 0 0-1.218.314c-.366.21-.667.498-.903.878l-.144-.773c-.026-.144-.066-.235-.144-.275-.066-.039-.157-.052-.288-.052Z" clip-rule="evenodd"/><path d="M47.397 5.892h7.49c.183 0 .274.091.274.275v1.322c0 .183-.091.288-.275.288h-2.762v8.235c0 .183-.092.275-.275.275h-1.506c-.183 0-.275-.092-.275-.275V7.764h-2.684c-.183 0-.275-.092-.275-.288v-1.31c.014-.183.105-.274.288-.274ZM61.856 13.773c.078 0 .13.026.17.092l.72.877c.052.079.091.144.091.21 0 .078-.039.144-.104.21-.524.457-1.034.785-1.558.994a4.412 4.412 0 0 1-1.663.301c-.799 0-1.558-.21-2.265-.615a4.71 4.71 0 0 1-1.689-1.676 4.405 4.405 0 0 1-.628-2.291c0-.838.196-1.61.589-2.304a4.433 4.433 0 0 1 1.623-1.676c.694-.42 1.467-.616 2.318-.616.694 0 1.387.17 2.055.511.681.34 1.244.851 1.69 1.545.444.694.667 1.545.667 2.553 0 .223-.026.393-.079.498-.052.104-.13.17-.21.183-.09.026-.235.039-.418.039h-6.271c.091.419.275.786.523 1.1.249.314.563.563.93.733.366.17.76.262 1.191.262.328 0 .603-.04.851-.105.236-.065.432-.144.59-.236.183-.104.353-.222.51-.353l.21-.157c.026-.066.091-.079.157-.079ZM58.373 9.23c-.34.17-.628.406-.877.694a3.05 3.05 0 0 0-.563.982h5.001a3.179 3.179 0 0 0-.969-1.4c-.432-.354-.942-.525-1.518-.525a2.195 2.195 0 0 0-1.074.25ZM64.472 14.65a.465.465 0 0 1-.027-.13c0-.092.04-.17.118-.25l.89-.68a.168.168 0 0 1 .158-.052c.091 0 .183.052.248.157.223.314.472.563.734.746.261.183.588.275.981.275.25 0 .485-.04.707-.13.236-.093.433-.21.577-.367a.787.787 0 0 0 .222-.537c0-.21-.04-.367-.13-.485a.892.892 0 0 0-.354-.261 5.778 5.778 0 0 0-.694-.236 6.287 6.287 0 0 1-.484-.144c-.643-.197-1.153-.42-1.546-.668a2.51 2.51 0 0 1-.877-.903c-.196-.354-.288-.786-.288-1.283 0-.406.131-.799.38-1.192.249-.393.615-.707 1.087-.955.47-.25 1.007-.367 1.623-.367.655 0 1.23.13 1.702.406.471.275.864.602 1.178.995.079.091.105.17.105.235 0 .066-.053.144-.144.21l-.825.68c-.078.053-.131.092-.183.092-.066 0-.144-.052-.223-.144a2.431 2.431 0 0 0-.68-.563 1.977 1.977 0 0 0-.878-.183c-.366 0-.654.079-.864.236a.716.716 0 0 0-.314.602c0 .196.052.34.17.458.118.118.262.21.446.275.182.079.484.157.863.275.079.013.158.04.236.066.092.026.184.052.288.091.799.236 1.388.602 1.781 1.1a2.61 2.61 0 0 1 .589 1.663c0 .576-.157 1.073-.471 1.492-.315.406-.734.72-1.244.93a3.94 3.94 0 0 1-1.598.301c-.693 0-1.322-.144-1.872-.432a3.548 3.548 0 0 1-1.322-1.205c-.013-.013-.04-.065-.066-.117ZM75.854 7.41c.196 0 .3.105.3.302v1.152c0 .091-.026.17-.091.222a.366.366 0 0 1-.236.079H74.82v4.36c0 .314.052.563.17.759.118.183.315.288.59.301l.222.013c.157.013.262.053.302.131.038.079.065.17.051.262v.995c0 .236-.182.354-.536.354-.55 0-1.035-.105-1.454-.315a2.3 2.3 0 0 1-.994-.903c-.236-.393-.354-.851-.354-1.375v-4.57h-.812a.298.298 0 0 1-.21-.078c-.065-.052-.09-.13-.09-.222v-1.14c0-.104.025-.183.09-.248a.298.298 0 0 1 .21-.079h.812V5.944c0-.105.013-.17.052-.222.04-.053.118-.079.223-.118l1.427-.42c.027-.012.052-.012.079-.012.026 0 .065.013.091.026.026.013.053.04.066.065.04.053.052.131.052.223v1.911l1.048.013ZM78.065 4.15h1.217c.262 0 .393.144.393.446v1.23c0 .144-.026.249-.091.301a.485.485 0 0 1-.302.092h-1.217c-.288 0-.432-.13-.432-.393v-1.23c0-.302.144-.446.432-.446Zm-.288 3.273a.266.266 0 0 1 .196-.078h1.48a.267.267 0 0 1 .275.288v8.366c0 .183-.092.288-.275.288h-1.48c-.183 0-.274-.091-.274-.288V7.633c0-.092.025-.157.078-.21ZM83.18 16.209a.516.516 0 0 1-.276.078h-1.282c-.197 0-.302-.105-.302-.301V7.633c0-.196.105-.301.302-.301h.942c.092 0 .196.04.262.105.079.065.13.157.157.248l.118 1.008c.34-.484.746-.837 1.23-1.073a3.512 3.512 0 0 1 1.545-.354c.537 0 1.06.131 1.571.406.51.275.93.694 1.27 1.257.328.563.498 1.27.498 2.108v4.936c0 .196-.091.288-.275.288h-1.4c-.197 0-.302-.092-.302-.288v-4.87a1.9 1.9 0 0 0-.249-.956 2.071 2.071 0 0 0-.694-.733 1.866 1.866 0 0 0-.994-.275c-.315 0-.63.078-.93.248a2.025 2.025 0 0 0-1.06 1.807v4.766a.336.336 0 0 1-.132.248ZM98.935 17.125c-.393.707-.917 1.244-1.598 1.61-.68.367-1.466.537-2.343.537-.59 0-1.165-.105-1.728-.301a4.524 4.524 0 0 1-1.467-.812c-.078-.065-.118-.13-.118-.21 0-.052.027-.117.092-.209l.59-.85c.065-.092.144-.145.248-.145.078 0 .157.026.249.092.615.432 1.375.642 2.304.642.471 0 .89-.105 1.257-.315.366-.196.668-.497.864-.864a2.49 2.49 0 0 0 .314-1.257v-.026a4.292 4.292 0 0 1-1.243.943c-.432.21-.943.314-1.52.314a4.22 4.22 0 0 1-2.172-.576A4.32 4.32 0 0 1 91.04 14.1a4.312 4.312 0 0 1-.602-2.318c0-.811.196-1.57.602-2.265a4.74 4.74 0 0 1 1.624-1.676c.68-.419 1.4-.628 2.173-.628 1.113 0 2.068.432 2.867 1.283l.118-.825c.013-.13.052-.222.105-.275.052-.052.13-.078.235-.078h1.126c.17 0 .262.104.262.3v6.874c-.039 1.06-.236 1.925-.615 2.632Zm-1.65-6.69a2.722 2.722 0 0 0-.956-1.008 2.538 2.538 0 0 0-1.361-.38c-.524 0-.982.13-1.388.38-.406.248-.707.589-.943 1.02-.222.433-.34.891-.34 1.402 0 .537.118 1.008.354 1.427.235.419.562.746.968.982.406.235.865.353 1.362.353.497 0 .943-.118 1.335-.366a2.79 2.79 0 0 0 .943-1.008c.222-.432.34-.89.34-1.388a2.683 2.683 0 0 0-.314-1.414Z"/></g><defs><clipPath id="a"><path fill="#fff" d="M0 0h100v26.316H0z"/></clipPath></defs></svg>