<svg xmlns="http://www.w3.org/2000/svg" width="336.842" height="64" fill="none" viewBox="0 0 100 19"><g clip-path="url(#a)"><path fill="#3A21CE" d="M50.756 8.278c-.293-1.41-1.31-1.959-2.367-1.959-1.35 0-2.25.725-2.564 1.96h4.931Zm-2.27 4.015c.9 0 1.684-.43 2.016-.979l2.485-.02c-.607 1.98-2.329 3.095-4.52 3.095-3.19 0-5.244-2.252-5.244-5.17 0-2.92 2.094-5.172 5.185-5.172 2.877 0 4.872 2.292 4.872 5.172 0 .372-.02.704-.098 1.037h-7.337c.333 1.391 1.39 2.037 2.642 2.037ZM33.163 4.321v9.794h-2.524v-1.019c-.547.843-1.448 1.293-2.66 1.293-1.82 0-3.19-1.41-3.19-3.82V4.322h2.524v6.072c0 1.117.665 1.646 1.546 1.646.998 0 1.78-.568 1.78-2.057v-5.66h2.524Zm9.208 6.954c0 2.076-1.8 3.114-3.953 3.114-2.152 0-3.952-1.097-3.952-3.388h2.465c0 .764.568 1.156 1.487 1.156.92 0 1.428-.314 1.428-.882 0-1.684-5.263-.352-5.263-4.113 0-2.057 1.8-3.115 3.835-3.115 1.957 0 3.757 1.097 3.757 3.39H39.71c0-.765-.568-1.157-1.292-1.157-.802 0-1.31.313-1.31.882 0 1.704 5.263.333 5.263 4.113Zm17.379-7.15v2.821c-1.311-.156-2.681.431-2.681 2.33v4.84h-2.524V4.321h2.524V5.79c.489-1.155 1.487-1.664 2.68-1.664Zm8.726 7.15c0 2.076-1.8 3.114-3.952 3.114s-3.953-1.097-3.953-3.388h2.465c0 .764.568 1.156 1.488 1.156s1.428-.314 1.428-.882c0-1.684-5.263-.352-5.263-4.113 0-2.057 1.8-3.115 3.835-3.115 1.956 0 3.757 1.097 3.757 3.39h-2.466c0-.765-.567-1.157-1.291-1.157-.802 0-1.311.313-1.311.882 0 1.704 5.263.333 5.263 4.113Zm9.612-3.428v6.269h-2.524V8.043c0-1.116-.666-1.645-1.546-1.645-.998 0-1.761.568-1.761 2.037v5.68h-2.524V4.322h2.524v1c.548-.823 1.448-1.274 2.661-1.274 1.82 0 3.17 1.41 3.17 3.8Zm7.173 3.448c0-.745-.685-1.215-1.8-1.215s-1.624.51-1.624 1.215c0 .705.509 1.214 1.624 1.214 1.115 0 1.8-.51 1.8-1.214Zm2.465-3.409v6.23H85.26v-.843c-.568.685-1.428 1.116-2.661 1.116-1.742 0-3.287-1.038-3.287-3.094 0-2.057 1.546-3.075 3.287-3.075 1.233 0 2.093.372 2.661.861V8.043c0-1.155-.587-1.645-1.526-1.645-.92 0-1.507.49-1.507 1.253h-2.465c0-2.31 1.82-3.604 3.972-3.604 2.172 0 3.991 1.293 3.991 3.84Zm9.45 1.333c0-1.646-1.155-2.762-2.72-2.762-1.488 0-2.623 1.038-2.701 2.585v.353c.078 1.548 1.213 2.585 2.7 2.585 1.566 0 2.72-1.116 2.72-2.761Zm2.523 0c0 2.918-2.152 5.17-4.774 5.17-1.429 0-2.465-.529-3.17-1.41v5.054H89.23V4.32h2.524v1.137c.705-.882 1.741-1.41 3.17-1.41 2.622 0 4.774 2.252 4.774 5.17ZM14.18 7.405a5.315 5.315 0 0 1 .329 1.098 5.249 5.249 0 0 1-4.217 6.108c-2.503.462-5.016-.986-5.875-3.385a5.372 5.372 0 0 1-.244-.953.481.481 0 0 1 .77-.45 5.241 5.241 0 0 0 8.16-2.371c.179-.498.873-.535 1.077-.047ZM9.317 18.653C4.17 18.653 0 14.477 0 9.326 0 4.176 4.171 0 9.317 0c5.145 0 9.317 4.176 9.317 9.326 0 5.151-4.172 9.327-9.317 9.327Zm0-1.956c4.066 0 7.363-3.3 7.363-7.37 0-4.071-3.297-7.371-7.363-7.371-4.067 0-7.363 3.3-7.363 7.37 0 4.071 3.296 7.371 7.363 7.371Z"/></g><defs><clipPath id="a"><path fill="#fff" d="M0 0h100v18.653H0z"/></clipPath></defs></svg>