<svg xmlns="http://www.w3.org/2000/svg" width="278.261" height="64" fill="none" viewBox="0 0 100 23"><g clip-path="url(#a)"><path fill="#000" d="M50.107 5.633c-3.887 0-6.69 2.535-6.69 6.337 0 3.803 3.152 6.338 7.042 6.338 2.348 0 4.419-.93 5.7-2.496l-2.693-1.557c-.711.778-1.792 1.233-3.007 1.233-1.686 0-3.12-.88-3.651-2.289h9.865a6.37 6.37 0 0 0 .123-1.232c0-3.799-2.798-6.334-6.689-6.334Zm-3.327 5.105c.44-1.405 1.644-2.288 3.327-2.288 1.686 0 2.89.883 3.327 2.288H46.78Zm-.796-8.978-9.756 16.9-9.76-16.9h3.659l6.098 10.563L42.323 1.76h3.661ZM13.01 0l13.01 22.533H0L13.01 0Zm57.94 11.97c0 2.113 1.38 3.521 3.522 3.521 1.45 0 2.538-.658 3.098-1.732l2.704 1.56c-1.12 1.866-3.218 2.989-5.802 2.989-3.891 0-6.69-2.535-6.69-6.338 0-3.802 2.803-6.337 6.69-6.337 2.584 0 4.679 1.123 5.802 2.99l-2.704 1.559c-.56-1.074-1.648-1.732-3.099-1.732-2.136 0-3.52 1.408-3.52 3.52ZM99.99 1.76v16.196H96.82V1.76h3.169Zm-11.97 3.873c-3.888 0-6.69 2.535-6.69 6.337 0 3.803 3.155 6.338 7.041 6.338 2.349 0 4.419-.93 5.7-2.496l-2.693-1.557c-.711.778-1.792 1.233-3.007 1.233-1.686 0-3.119-.88-3.65-2.289h9.865a6.37 6.37 0 0 0 .123-1.232c0-3.799-2.8-6.334-6.69-6.334Zm-3.328 5.105c.44-1.405 1.64-2.288 3.327-2.288s2.89.883 3.327 2.288h-6.654ZM66.725 5.985v3.412a4.014 4.014 0 0 0-1.127-.173c-2.045 0-3.52 1.409-3.52 3.521v5.21h-3.169V5.986h3.169v3.24c0-1.79 2.08-3.24 4.647-3.24Z"/></g><defs><clipPath id="a"><path fill="#fff" d="M0 0h100v22.533H0z"/></clipPath></defs></svg>