<svg xmlns="http://www.w3.org/2000/svg" width="68.085" height="64" fill="none" viewBox="0 0 50 47"><path fill="#EB4E53" d="M34.56 13.735a6.87 6.87 0 0 1-6.88-6.866A6.88 6.88 0 0 1 31.927.522 6.9 6.9 0 0 1 34.557 0a6.873 6.873 0 0 1 6.881 6.867 6.874 6.874 0 0 1-6.88 6.868h.001Zm-20.756 0a6.874 6.874 0 0 1-6.881-6.866A6.873 6.873 0 0 1 13.803 0a6.873 6.873 0 0 1 6.88 6.867 6.87 6.87 0 0 1-6.88 6.868ZM2.629 22.287c-1.627 0-2.916 1.4-2.574 2.988a24.6 24.6 0 0 0 24.047 19.34c11.796 0 21.653-8.282 24.048-19.34.342-1.588-.946-2.988-2.573-2.988z"/></svg>