<svg xmlns="http://www.w3.org/2000/svg" width="357.333" height="64" fill="none" viewBox="0 0 134 24"><g clip-path="url(#a)"><path fill="#000" d="M32.4 6.92h3.052l3.126 8.02 3.126-8.02h3.053l-5.154 12.286h-2.051L32.399 6.92ZM59.148 19.4c-1.808 0-3.2-.568-4.176-1.706-.962-1.154-1.442-2.697-1.442-4.632 0-1.933.48-3.47 1.44-4.607.978-1.153 2.37-1.73 4.177-1.73.6-.001 1.192.132 1.734.39.554.26.97.568 1.246.926V1.947h3.029v17.259h-3.03v-1.268c-.194.357-.57.69-1.122 1-.538.308-1.156.462-1.856.462Zm.415-2.584c.83 0 1.506-.325 2.027-.974.537-.667.806-1.592.806-2.78 0-1.186-.27-2.104-.806-2.754-.521-.666-1.197-1-2.027-1-.83 0-1.514.334-2.052 1-.537.65-.806 1.568-.806 2.754 0 1.17.27 2.088.806 2.755.538.666 1.222.999 2.052.999ZM73.366 19.4c-1.336 0-2.45-.308-3.346-.926a5.794 5.794 0 0 1-1.954-2.388 7.77 7.77 0 0 1-.61-3.024c0-1.04.203-2.04.61-2.998a5.589 5.589 0 0 1 1.954-2.389c.896-.633 2.01-.95 3.346-.95 1.286 0 2.36.309 3.224.926a5.394 5.394 0 0 1 1.904 2.291c.4.898.61 1.87.612 2.852v1.244h-8.67c.03.472.17.918.414 1.34.26.423.619.772 1.075 1.048.472.26 1.01.39 1.612.39 1.237 0 2.238-.585 3.004-1.754l2.417 1.267c-1.172 2.048-3.036 3.072-5.592 3.072V19.4Zm2.882-7.654c-.163-.748-.48-1.356-.952-1.828-.473-.472-1.116-.707-1.93-.707-.782 0-1.432.252-1.954.755a3.24 3.24 0 0 0-.952 1.78h5.788ZM87.192 19.4c-1.22 0-2.287-.284-3.2-.853a5.88 5.88 0 0 1-2.124-2.291c-.49-.975-.733-2.04-.733-3.194 0-1.153.244-2.21.733-3.168a5.837 5.837 0 0 1 2.125-2.316c.912-.568 1.978-.853 3.199-.853 1.222 0 2.288.284 3.2.853a5.667 5.667 0 0 1 2.1 2.316c.505.958.758 2.015.758 3.168a6.844 6.844 0 0 1-.758 3.194 5.704 5.704 0 0 1-2.1 2.291c-.912.569-1.978.853-3.2.853Zm0-2.584c.994 0 1.76-.365 2.296-1.096.554-.732.83-1.618.83-2.658 0-1.04-.276-1.925-.83-2.656-.537-.732-1.302-1.097-2.296-1.097-.993 0-1.766.365-2.32 1.096-.538.732-.806 1.617-.806 2.657s.268 1.926.806 2.658c.554.731 1.327 1.096 2.32 1.096ZM99.26 19.4c-1.09 0-1.986-.325-2.686-.974-.7-.65-1.05-1.568-1.05-2.756 0-.796.22-1.494.66-2.096.438-.617 1.058-1.088 1.855-1.413.798-.342 1.71-.512 2.735-.512h2.052v-.536c0-.65-.204-1.138-.611-1.463-.406-.325-.919-.488-1.538-.488a2.2 2.2 0 0 0-1.295.415c-.374.26-.65.69-.83 1.292l-2.564-.731a4.488 4.488 0 0 1 1.71-2.463c.862-.633 1.856-.95 2.979-.95 1.596 0 2.833.398 3.713 1.194.879.78 1.318 2.096 1.318 3.949v7.338h-2.345l-.317-1.56c-.96 1.17-2.223 1.754-3.786 1.754Zm.415-2.462c.522 0 1.018-.113 1.491-.341.466-.21.87-.538 1.172-.95.309-.423.464-.91.464-1.463v-.268h-2.223c-.733 0-1.302.146-1.71.438-.39.276-.586.708-.586 1.292 0 .342.123.642.367.903.244.26.586.39 1.025.39v-.001Zm14.023 2.462c-2.768 0-4.576-1.226-5.423-3.68l2.736-.951c.228.715.562 1.235 1.001 1.56.44.325 1.034.488 1.783.488.587 0 1.067-.106 1.441-.317.391-.228.586-.512.586-.854 0-.324-.187-.584-.561-.78-.375-.21-1.051-.422-2.027-.633-2.768-.602-4.152-1.918-4.152-3.95 0-.698.203-1.316.61-1.852a3.902 3.902 0 0 1 1.612-1.268 5.407 5.407 0 0 1 2.149-.438c2.198 0 3.802.918 4.812 2.754l-2.174 1.512c-.586-1.122-1.457-1.682-2.613-1.682a2.151 2.151 0 0 0-1.124.292c-.309.195-.464.447-.464.756 0 .325.155.593.464.804.309.211.896.406 1.759.585 1.53.292 2.661.724 3.394 1.292.75.552 1.124 1.357 1.124 2.413 0 1.22-.473 2.187-1.417 2.901-.928.7-2.1 1.048-3.516 1.048Zm8.16-17.453h3.028v9.531l4.03-4.558h3.663l-5.25 5.63 5.813 6.656h-3.664l-4.592-5.583v5.583h-3.028V1.947ZM48.883 5.336c-.553 0-1.017-.186-1.392-.56-.374-.374-.561-.838-.561-1.39 0-.552.187-1.016.56-1.39.376-.373.84-.56 1.393-.56.554 0 1.019.187 1.392.56.375.374.563.838.563 1.39 0 .552-.188 1.016-.562 1.39-.374.374-.84.56-1.393.56ZM47.37 6.92h3.028v12.286H47.37V6.92Zm-29.4.222a3.574 3.574 0 0 1-3.303-4.938A3.574 3.574 0 0 1 19.338.271a3.573 3.573 0 0 1 1.937 4.668 3.573 3.573 0 0 1-3.305 2.203Zm-10.792 0a3.574 3.574 0 0 1-3.305-4.938A3.574 3.574 0 0 1 7.178 0a3.574 3.574 0 0 1 3.304 4.938 3.574 3.574 0 0 1-3.304 2.204Zm-5.811 4.447c-.846 0-1.516.728-1.338 1.554A12.792 12.792 0 0 0 12.533 23.2c6.134 0 11.26-4.307 12.505-10.057.178-.826-.492-1.554-1.338-1.554H1.367Z"/></g><defs><clipPath id="a"><path fill="#fff" d="M0 0h134v24H0z"/></clipPath></defs></svg>