<svg xmlns="http://www.w3.org/2000/svg" width="357.333" height="64" fill="none" viewBox="0 0 134 24"><g clip-path="url(#a)"><path fill="#000" d="M32.4 6.92h3.052l3.126 8.02 3.126-8.02h3.053l-5.154 12.286h-2.051zM59.148 19.4q-2.712 0-4.176-1.706-1.443-1.73-1.442-4.632 0-2.9 1.44-4.607 1.467-1.73 4.177-1.73c.6-.001 1.192.132 1.734.39q.831.39 1.246.926V1.947h3.029v17.259h-3.03v-1.268q-.293.535-1.122 1-.806.462-1.856.462m.415-2.584q1.245 0 2.027-.974.806-1 .806-2.78-.001-1.779-.806-2.754-.782-1-2.027-1t-2.052 1q-.806.975-.806 2.754.001 1.755.806 2.755.807.999 2.052.999M73.366 19.4q-2.003 0-3.346-.926a5.8 5.8 0 0 1-1.954-2.388 7.8 7.8 0 0 1-.61-3.024q0-1.56.61-2.998a5.6 5.6 0 0 1 1.954-2.389q1.343-.95 3.346-.95 1.928 0 3.224.926a5.4 5.4 0 0 1 1.904 2.291c.4.898.61 1.87.612 2.852v1.244h-8.67q.046.707.414 1.34.39.634 1.075 1.048.709.39 1.612.39 1.855 0 3.004-1.754l2.417 1.267q-1.758 3.072-5.592 3.072zm2.882-7.654q-.244-1.121-.952-1.828-.71-.707-1.93-.707-1.172 0-1.954.755a3.24 3.24 0 0 0-.952 1.78zM87.192 19.4q-1.83 0-3.2-.853a5.9 5.9 0 0 1-2.124-2.291q-.734-1.463-.733-3.194 0-1.73.733-3.168a5.84 5.84 0 0 1 2.125-2.316q1.368-.852 3.199-.853 1.832 0 3.2.853a5.67 5.67 0 0 1 2.1 2.316q.758 1.438.758 3.168a6.84 6.84 0 0 1-.758 3.194 5.7 5.7 0 0 1-2.1 2.291q-1.368.853-3.2.853m0-2.584q1.492 0 2.296-1.096.83-1.098.83-2.658t-.83-2.656q-.805-1.097-2.296-1.097t-2.32 1.096q-.806 1.097-.806 2.657c0 1.56.268 1.926.806 2.658q.83 1.096 2.32 1.096M99.26 19.4q-1.636 0-2.686-.974t-1.05-2.756q0-1.194.66-2.096.658-.925 1.855-1.413 1.197-.513 2.735-.512h2.052v-.536q0-.975-.611-1.463-.61-.488-1.538-.488a2.2 2.2 0 0 0-1.295.415q-.56.39-.83 1.292l-2.564-.731a4.5 4.5 0 0 1 1.71-2.463q1.294-.95 2.979-.95 2.394 0 3.713 1.194 1.318 1.17 1.318 3.949v7.338h-2.345l-.317-1.56q-1.44 1.755-3.786 1.754m.415-2.462q.782 0 1.491-.341c.466-.21.87-.538 1.172-.95q.464-.634.464-1.463v-.268h-2.223q-1.099 0-1.71.438-.586.415-.586 1.292 0 .512.367.903.366.39 1.025.39zm14.023 2.462q-4.152 0-5.423-3.68l2.736-.951q.342 1.073 1.001 1.56.66.488 1.783.488.88 0 1.441-.317.586-.342.586-.854 0-.486-.561-.78-.563-.316-2.027-.633-4.152-.902-4.152-3.95 0-1.048.61-1.852a3.9 3.9 0 0 1 1.612-1.268 5.4 5.4 0 0 1 2.149-.438q3.297 0 4.812 2.754l-2.174 1.512q-.879-1.683-2.613-1.682a2.15 2.15 0 0 0-1.124.292q-.464.292-.464.756 0 .487.464.804.464.316 1.759.585 2.295.439 3.394 1.292 1.125.829 1.124 2.413 0 1.83-1.417 2.901-1.392 1.049-3.516 1.048m8.16-17.453h3.028v9.531l4.03-4.558h3.663l-5.25 5.63 5.813 6.656h-3.664l-4.592-5.583v5.583h-3.028zM48.883 5.336q-.83 0-1.392-.56-.561-.561-.561-1.39t.56-1.39q.564-.56 1.393-.56.832 0 1.392.56.563.561.563 1.39t-.562 1.39-1.393.56M47.37 6.92h3.028v12.286H47.37zm-29.4.222a3.574 3.574 0 0 1-3.303-4.938A3.574 3.574 0 0 1 19.338.271a3.573 3.573 0 0 1 1.937 4.668 3.57 3.57 0 0 1-3.305 2.203m-10.792 0a3.574 3.574 0 0 1-3.305-4.938A3.57 3.57 0 0 1 7.178 0a3.574 3.574 0 0 1 3.304 4.938 3.57 3.57 0 0 1-3.304 2.204m-5.811 4.447c-.846 0-1.516.728-1.338 1.554A12.79 12.79 0 0 0 12.533 23.2c6.134 0 11.26-4.307 12.505-10.057.178-.826-.492-1.554-1.338-1.554z"/></g><defs><clipPath id="a"><path fill="#fff" d="M0 0h134v24H0z"/></clipPath></defs></svg>