<?xml version="1.0" encoding="utf-8"?>
<!-- Generator: Adobe Illustrator 27.3.1, SVG Export Plug-In . SVG Version: 6.00 Build 0)  -->
<svg version="1.1" id="Layer_1" xmlns="http://www.w3.org/2000/svg" xmlns:xlink="http://www.w3.org/1999/xlink" x="0px" y="0px"
	 viewBox="0 0 63.8 64" style="enable-background:new 0 0 63.8 64;" xml:space="preserve">
<style type="text/css">
	.st0{fill:url(#SVGID_1_);}
	.st1{fill:url(#SVGID_00000023243251156844237240000004554551939267907726_);}
</style>
<g>
	
		<linearGradient id="SVGID_1_" gradientUnits="userSpaceOnUse" x1="-548.808" y1="338.1722" x2="-547.6511" y2="336.772" gradientTransform="matrix(31.8754 0 0 -28.4068 17508.2324 9607.0615)">
		<stop  offset="0" style="stop-color:#41D1FF"/>
		<stop  offset="1" style="stop-color:#BD34FE"/>
	</linearGradient>
	<path class="st0" d="M63.2,9.8l-29.6,53c-0.6,1.1-2.2,1.1-2.8,0L0.6,9.8c-0.7-1.2,0.3-2.6,1.7-2.4l29.7,5.3c0.2,0,0.4,0,0.6,0
		l29-5.3C62.9,7.2,63.9,8.6,63.2,9.8z"/>
	
		<linearGradient id="SVGID_00000052069204019685448830000015582793355198807709_" gradientUnits="userSpaceOnUse" x1="-526.5771" y1="337.362" x2="-526.4398" y2="335.6446" gradientTransform="matrix(14.6164 0 0 -26.6459 7732.2891 8990.7607)">
		<stop  offset="0" style="stop-color:#FFEA83"/>
		<stop  offset="8.333001e-02" style="stop-color:#FFDD35"/>
		<stop  offset="1" style="stop-color:#FFA800"/>
	</linearGradient>
	<path style="fill:url(#SVGID_00000052069204019685448830000015582793355198807709_);" d="M46,0.4L24.1,4.7
		c-0.4,0.1-0.6,0.4-0.6,0.7l-1.3,22.8c0,0.4,0.3,0.8,0.8,0.9c0.1,0,0.2,0,0.2,0l6.1-1.4c0.6-0.1,1.1,0.4,1,0.9l-1.8,8.9
		c-0.1,0.6,0.4,1.1,1,0.9l3.8-1.1c0.6-0.2,1.1,0.3,1,0.9l-2.9,14c-0.2,0.9,1,1.3,1.5,0.6l0.3-0.5l17.9-35.7c0.3-0.6-0.2-1.3-0.9-1.2
		l-6.3,1.2c-0.6,0.1-1.1-0.4-0.9-1L47,1.5C47.1,0.9,46.6,0.3,46,0.4L46,0.4z"/>
</g>
</svg>
