<svg xmlns="http://www.w3.org/2000/svg" width="64" height="64" fill="none" viewBox="0 0 32 32"><path fill="url(#a)" d="M16 2c3.111 0 5.994 1.082 8.281 2.87l1.51-1.552 2.654 2.73-1.51 1.6c1.693 2.352 2.653 5.223 2.653 8.329C29.588 23.694 23.503 30 16 30S2.412 23.694 2.412 15.977C2.412 8.258 8.497 2 16 2m0 3.294c-5.719 0-10.386 4.8-10.386 10.683 0 5.929 4.667 10.682 10.386 10.682s10.386-4.753 10.386-10.682c0-5.883-4.667-10.683-10.386-10.683"/><path fill="url(#b)" d="M16 5.341c5.719 0 10.386 4.753 10.386 10.683 0 5.883-4.667 10.683-10.386 10.683S5.614 21.906 5.614 16.024C5.614 10.094 10.281 5.34 16 5.34m0 1.506c-4.895 0-8.876 4.094-8.876 9.177 0 5.034 3.98 9.129 8.876 9.129s8.876-4.095 8.876-9.13c0-5.082-3.98-9.176-8.876-9.176"/><path fill="#000" d="M29.543 12.447c.32 1.13.457 2.306.457 3.53 0 1.27-.183 2.493-.457 3.67H2.503V19.6h26.994c.32-1.176.457-2.4.457-3.67 0-1.224-.137-2.4-.412-3.483"/><path fill="url(#c)" d="M2.458 12.4h27.085q.41 1.694.41 3.529c0 1.27-.137 2.494-.457 3.67H2.503c-.33-1.194-.5-2.428-.503-3.67 0-1.223.183-2.4.458-3.529"/><path fill="url(#d)" d="m26.34 2.376 3.02 3.106-2.242 2.306.137.189-1.601 1.316-.504.19 3.294-3.436-2.653-2.73-3.294 3.389.137-.47z"/><path fill="#E9E9E3" d="M23.203 2.228c2.654 1.46 4.776 3.638 6.24 6.32l.146-.09-.015-6.356-6.237-.046z"/><path fill="url(#e)" d="M23.338 2.056c2.653 1.459 4.786 3.709 6.25 6.391v-6.4z"/><path fill="#fff" d="M25.79 17.737c-1.22 0-2.214-.769-2.214-1.713 0-.946.994-1.714 2.215-1.714 1.247 0 2.26.768 2.26 1.714 0 .945-1.013 1.713-2.26 1.713m0-2.917c-.438 0-.758.506-.758 1.204 0 .66.327 1.157.759 1.157.41 0 .759-.53.759-1.157 0-.665-.341-1.204-.76-1.204m-13.908 2.917c-1.222 0-2.215-.769-2.215-1.713 0-.904 1.014-1.668 2.215-1.668 1.247 0 2.261.749 2.261 1.668 0 .945-1.014 1.713-2.26 1.713m0-2.87c-.433 0-.758.497-.758 1.157s.326 1.157.758 1.157c.41 0 .758-.53.758-1.157 0-.626-.346-1.157-.758-1.157m8.144 2.776-1.435-2.739-.715.011-.019-.443 3.13-.02.02.444-.797.02 1.114 1.9.927-1.93-.531.029-.02-.444 2.17-.02.019.444-.751.02-1.407 2.729zm-5.719 0-.019-.537.752-.019-.02-2.192-.712.02-.02-.444 2.902-.02.02.444-.753.02.02 2.192.758-.02c.247 0 .896-.165.941-.922l.477-.018.019 1.498h-4.365zm-8.19 0-1.434-2.739-.715.011-.02-.443 3.131-.02.02.444-.798.02 1.115 1.9.973-1.93-.578.03-.019-.444 2.17-.02.018.444-.751.02-1.407 2.729z"/><path fill="url(#f)" d="M2.507 12.454c-.274 1.13-.457 2.305-.457 3.529 0 .101.033.7.036.802l.08.91c-.001-.074-.037-1.556-.037-1.63 0-1.223.198-2.357.473-3.487l9.584-.04 4.137-.082z"/><defs><radialGradient id="a" cx="0" cy="0" r="1" gradientTransform="matrix(28.3819 0 0 29.1928 6.284 13.22)" gradientUnits="userSpaceOnUse"><stop stop-color="#fff"/><stop offset=".041" stop-color="#FAFAF8"/><stop offset=".225" stop-color="#F8F8F5"/><stop offset=".287" stop-color="#DADAD7"/><stop offset=".413" stop-color="#A3A4A1"/><stop offset=".52" stop-color="#7E7F7D"/><stop offset=".6" stop-color="#686866"/><stop offset=".646" stop-color="#5F5F5D"/><stop offset=".739" stop-color="#565754"/><stop offset=".899" stop-color="#3B3A37"/><stop offset="1"/></radialGradient><radialGradient id="b" cx="0" cy="0" r="1" gradientTransform="matrix(21.8731 0 0 22.498 20.9 21.064)" gradientUnits="userSpaceOnUse"><stop stop-color="#fff"/><stop offset=".157" stop-color="#F1F1F2"/><stop offset=".298" stop-color="#E4E4E5"/><stop offset=".335" stop-color="#CECFCE"/><stop offset=".4" stop-color="#AEAFAC"/><stop offset=".464" stop-color="#969694"/><stop offset=".526" stop-color="#858683"/><stop offset=".586" stop-color="#7C7C79"/><stop offset=".64" stop-color="#787976"/><stop offset=".738" stop-color="#5E5E5B"/><stop offset=".846" stop-color="#43423F"/><stop offset=".937" stop-color="#1F1F1E"/><stop offset="1"/></radialGradient><radialGradient id="c" cx="0" cy="0" r="1" gradientTransform="matrix(17.6582 0 0 18.1627 3.267 13.222)" gradientUnits="userSpaceOnUse"><stop stop-color="#1E71B8"/><stop offset=".082" stop-color="#1C69AB"/><stop offset=".166" stop-color="#1B64A4"/><stop offset=".242" stop-color="#1A63A1"/><stop offset=".392" stop-color="#185D98"/><stop offset=".685" stop-color="#0F4D80"/><stop offset=".837" stop-color="#004472"/><stop offset=".933" stop-color="#014472"/><stop offset=".968" stop-color="#064271"/><stop offset=".993" stop-color="#0D3F6F"/><stop offset="1" stop-color="#0F3D6E"/></radialGradient><radialGradient id="e" cx="0" cy="0" r="1" gradientTransform="matrix(7.37936 0 0 7.5902 28.526 2.763)" gradientUnits="userSpaceOnUse"><stop stop-color="#575652"/><stop offset="1" stop-color="#52524E"/></radialGradient><linearGradient id="d" x1="29.093" x2="22.019" y1="9.371" y2="2.493" gradientUnits="userSpaceOnUse"><stop offset=".006" stop-color="#121209"/><stop offset=".646" stop-color="#454441"/><stop offset=".65" stop-color="#484845"/><stop offset=".655" stop-color="#535350"/><stop offset=".66" stop-color="#646561"/><stop offset=".664" stop-color="#7B7B77"/><stop offset=".669" stop-color="#969792"/><stop offset=".674" stop-color="#BBBBB7"/><stop offset=".678" stop-color="#E8E7E2"/><stop offset=".68" stop-color="#FBFAF5"/><stop offset=".682" stop-color="#F8F7F2"/><stop offset=".684" stop-color="#F0F0EA"/><stop offset=".685" stop-color="#E4E3DD"/><stop offset=".686" stop-color="#D2D2CC"/><stop offset=".687" stop-color="#BBBCB5"/><stop offset=".689" stop-color="#83847D"/><stop offset=".69" stop-color="#6D6D67"/><stop offset=".706" stop-color="#5F5F5B"/><stop offset=".732" stop-color="#4D4D4B"/><stop offset=".762" stop-color="#3B3A3A"/><stop offset=".8" stop-color="#242324"/><stop offset=".853" stop-color="#101010"/><stop offset="1"/></linearGradient><linearGradient id="f" x1="5.74" x2="10.023" y1="10.199" y2="15.83" gradientUnits="userSpaceOnUse"><stop stop-color="#fff"/><stop offset=".109" stop-color="#D5DDF0"/><stop offset=".338" stop-color="#94ADD9"/><stop offset=".542" stop-color="#668FC9"/><stop offset=".714" stop-color="#447DBF"/><stop offset=".848" stop-color="#2A74BA"/><stop offset=".927" stop-color="#1E71B8"/><stop offset=".947" stop-color="#4079BC"/><stop offset=".967" stop-color="#5580C0"/><stop offset=".985" stop-color="#6085C2"/><stop offset="1" stop-color="#6486C3"/></linearGradient></defs></svg>