<svg xmlns="http://www.w3.org/2000/svg" width="58.182" height="64" fill="none" viewBox="0 0 50 55"><path fill="#6b4cff" fill-rule="evenodd" d="M43.38 44.556H4.576c-.758 0-1.516.608-1.516 1.52v6.388c0 .76.607 1.52 1.516 1.52h38.802c.758 0 1.516-.608 1.516-1.52v-6.387c0-.913-.607-1.521-1.516-1.521Zm4.546-42.427c.303-.456.152-.912-.303-1.064-.151-.153-.303-.153-.455-.153H36.104a.83.83 0 0 0-.758.457L25.039 22.962c-.152.457-.758.609-1.213.457-.151-.152-.303-.152-.454-.457L13.368 1.37a.83.83 0 0 0-.758-.457H.94c-.759 0-1.213.609-.759 1.37L18.521 36.8c1.516 3.042 3.638 3.954 5.609 3.954 1.97 0 3.94-.912 5.608-3.954L47.926 2.13Z" clip-rule="evenodd"/></svg>