<svg xmlns="http://www.w3.org/2000/svg" width="103.226" height="64" fill="none" viewBox="0 0 50 31"><g clip-path="url(#a)"><path fill="#3B99FC" d="M10.242 5.997c8.147-7.976 21.355-7.976 29.501 0l.98.96a1.006 1.006 0 0 1 0 1.444l-3.353 3.284a.53.53 0 0 1-.738 0l-1.35-1.32c-5.682-5.565-14.896-5.565-20.58 0l-1.444 1.414a.53.53 0 0 1-.738 0L9.166 8.495a1.006 1.006 0 0 1 0-1.444l1.076-1.054Zm36.437 6.791 2.985 2.923a1.006 1.006 0 0 1 0 1.444l-13.46 13.178a1.059 1.059 0 0 1-1.474 0l-9.553-9.353a.265.265 0 0 0-.369 0l-9.552 9.353a1.059 1.059 0 0 1-1.475 0L.32 17.155a1.006 1.006 0 0 1 0-1.444l2.985-2.923a1.059 1.059 0 0 1 1.475 0l9.553 9.353c.102.1.267.1.369 0l9.552-9.353a1.059 1.059 0 0 1 1.475 0l9.553 9.353c.102.1.267.1.368 0l9.553-9.353a1.059 1.059 0 0 1 1.475 0Z"/></g><defs><clipPath id="a"><path fill="#fff" d="M0 0h50v30.67H0z"/></clipPath></defs></svg>