<svg xmlns="http://www.w3.org/2000/svg" width="246.154" height="64" fill="none" viewBox="0 0 100 26"><g clip-path="url(#a)"><path fill="#1a1a1a" d="M32.262 9.827c0-1.792-1.743-3.696-4.759-3.696-3.387 0-7.107 2.485-7.676 7.441-.581 5.006 2.534 7.232 5.674 7.232s4.783-1.224 6.464-2.856c-1.446-1.817-3.312-.976-3.67-.791-.396.198-.903.47-1.942.47-1.21 0-2.447-.544-2.447-2.806 7.763-.767 8.356-3.202 8.356-4.994m-3.844.297c-.05.556-.272 1.508-4.203 2.04.828-2.943 2.41-3.165 3.14-3.165.68 0 1.112.531 1.063 1.125m-13.152.482s-1.669 5.24-1.805 5.673c-.05-.445-1.273-9.851-1.273-9.851-2.843 0-4.364 2.027-5.167 4.165 0 0-2.027 5.254-2.2 5.699-.013-.408-.31-5.637-.31-5.637C4.34 8.035 1.942 6.44 0 6.44l2.349 14.252c2.979-.012 4.585-2.027 5.426-4.165 0 0 1.792-4.636 1.867-4.846.012.198 1.285 9.011 1.285 9.011 2.991 0 4.598-1.891 5.464-3.955L20.58 6.44c-2.954 0-4.512 2.015-5.315 4.166Zm27.973-4.5c-1.842 0-3.251 1.002-4.438 2.472v-.012L39.864 0c-2.447 0-4.438 2.126-4.82 5.29l-1.855 15.291c1.41 0 2.905-.408 3.708-1.446.717.927 1.793 1.668 3.387 1.668 4.129 0 6.96-4.796 6.96-9.295-.025-4.104-2.015-5.402-4.005-5.402m-.384 7.355c-.432 2.51-1.829 4.215-3.176 4.215-1.36 0-1.941-.605-1.941-.605.26-2.2.42-3.548.915-4.71.494-1.162 1.668-3.016 2.892-3.016 1.2 0 1.743 1.594 1.31 4.116M57.553 6.44h-2.88l.012-.148c.198-1.88.643-2.868 2.113-3.029 1.002-.099 1.447-.618 1.558-1.186.087-.445.358-1.99.358-1.99-5.785-.038-7.602 2.46-8.071 6.267l-.013.086h-.061c-.94 0-1.978 1.063-2.151 2.41l-.062.495h1.928l-1.619 13.374-.494 2.398c.061 0 .136.013.197.013 2.707-.1 4.438-2.238 4.821-5.34l1.26-10.445h.903c.89 0 1.929-.89 2.114-2.373zm14.981-.247c-3.325 0-6.465 2.447-7.429 6.292s.495 8.393 5.39 8.393c4.882 0 7.7-4.735 7.7-8.678 0-3.918-2.657-6.007-5.661-6.007m1.347 7.145c-.173 1.742-.94 4.388-3.04 4.388-2.114 0-1.817-3.09-1.607-4.562.222-1.57 1.1-3.807 2.991-3.807 1.693 0 1.854 2.015 1.656 3.98Zm20.742-2.732s-1.669 5.24-1.805 5.673c-.05-.445-1.273-9.851-1.273-9.851-2.843 0-4.363 2.027-5.167 4.165 0 0-2.027 5.254-2.2 5.699-.012-.408-.309-5.637-.309-5.637-.173-2.62-2.571-4.215-4.512-4.215l2.337 14.252c2.978-.012 4.585-2.027 5.426-4.165 0 0 1.792-4.636 1.854-4.846.012.198 1.286 9.011 1.286 9.011 2.99 0 4.598-1.891 5.463-3.955l4.19-10.297c-2.941 0-4.499 2.015-5.29 4.166M60.272.086 57.849 19.63l-.494 2.41c.062 0 .136.013.198.013 2.608-.037 4.462-2.324 4.808-5.204l1.397-11.211c.42-3.424-1.62-5.55-3.486-5.55Z"/></g><defs><clipPath id="a"><path fill="#fff" d="M0 0h100v25.216H0z"/></clipPath></defs></svg>