<svg xmlns="http://www.w3.org/2000/svg" width="266.323" height="64" fill="none" viewBox="0 0 129 31"><g clip-path="url(#a)"><path fill="#000" fill-rule="evenodd" d="M.055 13.402C.055 6.04 6.075.072 13.503.072c7.427 0 13.448 5.968 13.448 13.33v17.525H.055V13.401Zm12.252 15.641h5.332V18.666c0-4.76-3.58-8.49-7.841-8.49-2.162 0-4.131.947-5.562 2.506-1.317 1.434-2.17 3.381-2.27 5.553a6.134 6.134 0 0 1 4.215-1.666c3.383 0 6.126 2.718 6.126 6.072v6.402Zm7.234 0h5.509V13.402c0-6.321-5.17-11.445-11.547-11.445-6.055 0-11.02 4.618-11.508 10.494.257-.365.536-.711.835-1.037 1.759-1.916 4.224-3.122 6.968-3.122 5.45 0 9.743 4.716 9.743 10.374v10.377ZM6.18 18.453c-2.334 0-4.225 1.875-4.225 4.188v6.402h8.45v-6.402c0-2.313-1.892-4.188-4.225-4.188Z" clip-rule="evenodd"/></g><path fill="#000" d="M69.14 21.892h2.406V8h-2.405v13.892Z"/><path fill="#000" fill-rule="evenodd" d="M64.563 19.61c-.576.53-1.55.767-2.644.767-1.61 0-2.863-.512-3.34-1.574-.16-.315-.239-.65-.278-1.063h9.344c0-1.16-.16-2.066-.517-2.932-.815-1.79-2.684-2.873-5.368-2.873-2.644 0-4.613 1.004-5.428 2.834-.298.669-.457 1.397-.457 2.302 0 .866.14 1.614.457 2.263.815 1.83 2.824 2.853 5.567 2.853 1.81 0 3.42-.413 4.493-1.377a3.575 3.575 0 0 0 1.003-1.477h-2.57c-.078.1-.165.193-.262.277Zm-2.803-5.845c1.53 0 2.724.473 3.22 1.555.1.236.18.453.22.728h-6.86c.04-.236.12-.452.219-.669.497-1.102 1.63-1.614 3.2-1.614Z" clip-rule="evenodd"/><path fill="#000" d="M83.36 20.77c-1.053.925-2.584 1.417-4.453 1.417-2.545 0-4.513-.964-5.348-2.814-.298-.669-.457-1.436-.457-2.321 0-.866.159-1.653.457-2.303.835-1.81 2.764-2.814 5.348-2.814 1.869 0 3.38.473 4.434 1.437.775.669 1.193 1.555 1.252 2.617h-2.565a2.108 2.108 0 0 0-.656-1.358c-.556-.492-1.451-.708-2.445-.708-1.451 0-2.545.55-3.022 1.554-.179.453-.278.925-.278 1.575 0 .63.099 1.121.278 1.554.477 1.004 1.57 1.555 3.022 1.555.994 0 1.908-.217 2.445-.729.398-.334.636-.806.656-1.357h2.605c-.08 1.082-.497 1.987-1.273 2.695Z"/><path fill="#000" fill-rule="evenodd" d="M91.89 22.168c2.784 0 4.692-1.063 5.507-2.854.298-.669.457-1.416.457-2.262 0-.827-.159-1.575-.457-2.244-.815-1.79-2.724-2.873-5.507-2.873-2.764 0-4.672 1.083-5.507 2.913-.298.65-.438 1.397-.438 2.204 0 .826.14 1.554.438 2.223.835 1.81 2.743 2.893 5.507 2.893Zm0-1.968c-1.511 0-2.664-.57-3.161-1.633-.18-.433-.279-.925-.279-1.515 0-.571.1-1.083.279-1.496.497-1.062 1.65-1.633 3.161-1.633 1.511 0 2.684.55 3.18 1.633.18.413.26.925.26 1.496 0 .59-.08 1.082-.26 1.515-.496 1.062-1.669 1.633-3.18 1.633ZM123.271 20.377c1.094 0 2.068-.236 2.644-.767a1.96 1.96 0 0 0 .262-.277h2.571a3.583 3.583 0 0 1-1.004 1.477c-1.073.964-2.684 1.377-4.493 1.377-2.743 0-4.751-1.023-5.566-2.853-.319-.65-.458-1.397-.458-2.263 0-.905.16-1.633.458-2.302.815-1.83 2.783-2.834 5.427-2.834 2.684 0 4.553 1.083 5.368 2.873.358.866.517 1.771.517 2.932h-9.344c.04.414.119.748.278 1.063.477 1.062 1.73 1.574 3.34 1.574Zm3.062-5.057c-.497-1.082-1.69-1.555-3.221-1.555-1.571 0-2.704.512-3.201 1.614a2.624 2.624 0 0 0-.218.67h6.859a2.852 2.852 0 0 0-.219-.729Z" clip-rule="evenodd"/><path fill="#000" d="M104.076 11.956a4.702 4.702 0 0 0-4.701 4.704v5.24h2.457v-5.76c0-1.24 1.004-2.206 2.244-2.206 1.239 0 2.243.965 2.243 2.205v5.76h2.457v-5.76c0-1.24 1.005-2.205 2.244-2.205 1.239 0 2.243.965 2.243 2.205v5.76h2.458V16.66a4.703 4.703 0 0 0-4.701-4.704 4.686 4.686 0 0 0-3.472 1.533 4.688 4.688 0 0 0-3.472-1.533ZM50.388 19.141l2.536-6.921H55.5l-3.893 9.654h-2.438L46.75 15.11l-2.419 6.764h-2.438L38 12.22h2.576l2.536 6.94 2.419-6.94h2.418l2.439 6.921Z"/><defs><clipPath id="a"><path fill="#fff" d="M0 0h27v31H0z"/></clipPath></defs></svg>