<?xml version='1.0' encoding='UTF-8'?>
<svg xmlns="http://www.w3.org/2000/svg" xml:space="preserve" viewBox="0 0 270.5 64" width="270.5" height="64">
  <g fill="#fff">
    <path d="m101.4 37.1-5.2-20.7H90l-5.2 20.4h-.1L80 16.4h-6.6l7.9 30H88L93 26h.1l5.1 20.4h6.6l8.1-30h-6.5zm31.5-10.5c-.6-.8-1.5-1.4-2.4-1.8q-1.95-.75-3.9-.6c-1.2 0-2.4.3-3.4.9-1.2.6-2.2 1.6-2.9 2.8h-.1V16.4h-6v30h6V35c0-2.2.4-3.8 1.1-4.8s1.9-1.5 3.5-1.4c1.4 0 2.4.4 3 1.3s.8 2.2.8 4v12.3h6V33.1c0-1.2-.1-2.5-.4-3.7-.3-1-.7-2-1.3-2.8m24.5 15V30.3c0-1.3-.3-2.4-.9-3.2s-1.4-1.4-2.3-1.9c-1-.5-2-.8-3.1-.9-1.1-.2-2.2-.2-3.3-.2-1.2 0-2.4.1-3.6.4-1.1.2-2.2.6-3.2 1.2-.9.6-1.7 1.3-2.4 2.2-.7 1-1 2.3-1.1 3.5h6c.1-1.2.5-2 1.2-2.5s1.6-.8 2.8-.8c.5 0 1 0 1.5.1.4.1.8.2 1.2.4s.6.5.8.9q.3.75.3 1.5c0 .3 0 .5-.1.8-.1.2-.2.5-.4.6-.5.4-1 .6-1.6.7-.8.2-1.5.3-2.3.4-.9.1-1.8.2-2.6.3q-1.35.15-2.7.6c-.8.2-1.6.6-2.4 1.1-.7.5-1.3 1.2-1.7 1.9-.5.9-.7 2-.6 3 0 1 .2 2 .6 2.9.4.8.9 1.5 1.6 2q1.05.75 2.4 1.2c.9.3 1.9.4 2.9.4 1.3 0 2.7-.2 3.9-.6 1.3-.4 2.4-1.1 3.4-2.1 0 .4.1.7.1 1.1.1.3.2.7.3 1h6c-.3-.6-.5-1.3-.6-2 0-.8-.1-1.8-.1-2.7m-5.9-3.6c0 .5 0 .9-.1 1.3-.1.6-.3 1.1-.6 1.7s-.8 1.1-1.4 1.4c-.6.4-1.6.6-2.7.6-.5 0-.9 0-1.4-.1-.4-.1-.8-.2-1.2-.4-.3-.2-.6-.5-.8-.9s-.3-.9-.3-1.3c0-.5.1-1 .3-1.4s.5-.7.8-.9c.3-.3.7-.4 1.1-.6.4-.1.9-.3 1.3-.3.5-.1.9-.2 1.4-.2.5-.1.9-.1 1.4-.2l1.2-.3c.3-.1.7-.3.9-.5zm17.1-19.8h-6v6.5H159v4h3.6v12.8c0 .9.1 1.8.5 2.6.3.7.9 1.2 1.5 1.6.7.4 1.4.6 2.2.7.9.1 1.7.2 2.6.2h1.8c.6 0 1.1-.1 1.7-.2v-4.6c-.3.1-.6.1-.9.1h-1c-1 0-1.7-.2-2-.5s-.5-1-.5-2V28.7h4.4v-4h-4.4zm24.6 18.7c-.4-.7-.9-1.3-1.6-1.7-.7-.5-1.4-.9-2.2-1.1-.8-.3-1.7-.5-2.5-.7-.9-.2-1.7-.4-2.5-.5-.7-.1-1.5-.3-2.2-.6-.6-.2-1.1-.5-1.5-.8-.2-.2-.3-.4-.4-.6s-.2-.5-.1-.7c0-.4.1-.8.3-1.1s.5-.5.8-.6.7-.2 1.1-.3h1.1c1 0 1.9.2 2.8.6.8.4 1.2 1.2 1.3 2.3h5.7c-.1-1.2-.4-2.3-1-3.3-.6-.9-1.3-1.6-2.2-2.1-.9-.6-1.9-.9-3-1.1s-2.3-.3-3.4-.3c-1.2 0-2.3.1-3.4.3s-2.1.6-3 1.1-1.6 1.2-2.2 2.1c-.6 1.1-.9 2.2-.8 3.4 0 .8.2 1.7.6 2.4s.9 1.2 1.6 1.6c.7.5 1.4.8 2.2 1.1s1.7.5 2.5.7c1.7.3 3.4.8 5 1.3 1.2.4 1.8 1.1 1.8 2 0 .5-.1.9-.4 1.3-.2.3-.6.6-.9.8-.4.2-.8.4-1.3.5-.4.1-.9.1-1.3.2-.6 0-1.1-.1-1.7-.2-.5-.1-1-.3-1.5-.7-.4-.3-.8-.7-1-1.1-.3-.5-.4-1.1-.4-1.7h-5.7c0 1.3.3 2.5 1 3.6.6.9 1.4 1.7 2.3 2.3 1 .6 2.1 1 3.2 1.3 1.2.3 2.5.4 3.7.4s2.4-.1 3.6-.4c1.1-.2 2.2-.6 3.2-1.3 1-.6 1.8-1.5 2.4-2.5.5-1 .8-2.2.7-3.4 0-.8-.3-1.7-.7-2.5m11.9-20.5-11.3 30h6.6l2.4-6.7H214l2.3 6.7h6.9l-11.2-30zm-.6 18.4 3.9-11h.1l3.8 11zm39.2-7.2c-.8-1.1-1.9-1.9-3.1-2.6-1.4-.7-2.9-1-4.4-1-1.3 0-2.5.3-3.7.8-1.2.6-2.1 1.5-2.8 2.6h-.1v-2.8H224V54h6V43.7h.1c.7 1 1.7 1.9 2.8 2.4 1.2.6 2.4.8 3.7.8 1.4 0 2.9-.3 4.2-.9 1.2-.6 2.2-1.4 3-2.5q1.2-1.65 1.8-3.6.6-2.1.6-4.2c0-1.5-.2-3-.6-4.4-.5-1.3-1.1-2.5-1.9-3.7m-3.8 10.6c-.1.8-.4 1.5-.9 2.2-.7 1-1.8 1.7-3 2s-2.5.1-3.5-.5c-.7-.4-1.2-.9-1.6-1.5-.4-.7-.7-1.4-.9-2.2s-.3-1.7-.3-2.6.1-1.7.2-2.6c.2-.8.4-1.5.9-2.2.4-.6.9-1.2 1.6-1.6s1.6-.7 2.5-.6c.8 0 1.7.2 2.4.6s1.2.9 1.6 1.6.7 1.5.9 2.2c.2.8.3 1.7.3 2.6s-.1 1.7-.2 2.6m29.4-6.8c-.4-1.3-1-2.6-1.8-3.7s-1.9-1.9-3.1-2.6c-1.4-.7-2.9-1-4.4-1-1.3 0-2.5.3-3.7.8-1.2.6-2.1 1.5-2.8 2.6h-.1v-2.8h-5.7V54h6V43.7h.1c.7 1 1.7 1.9 2.8 2.4 1.2.6 2.4.8 3.7.8 1.4 0 2.9-.3 4.2-.9 1.2-.6 2.2-1.4 3-2.5q1.2-1.65 1.8-3.6.6-2.1.6-4.2c-.1-1.4-.2-2.9-.6-4.3m-5.7 6.8c-.1.8-.4 1.5-.9 2.2-.4.7-1 1.2-1.8 1.6-.7.4-1.5.6-2.3.6s-1.6-.2-2.3-.6-1.3-.9-1.7-1.6-.7-1.4-.9-2.2-.3-1.7-.3-2.6.1-1.7.3-2.6c.2-.8.5-1.5.9-2.2.4-.6.9-1.2 1.6-1.6s1.6-.7 2.5-.6c.8 0 1.7.2 2.4.6s1.2.9 1.6 1.6.7 1.5.9 2.2c.2.8.3 1.7.3 2.6s-.1 1.7-.3 2.6M62.4 30.6c-.3-8-3.6-15.5-9.4-21.1S39.7.9 31.7.8h-.2c-5.4 0-10.6 1.4-15.3 4C11.6 7.5 7.7 11.3 4.9 16 2.2 20.6.7 25.9.6 31.2c-.1 5.4 1.2 10.7 3.8 15.4L1.7 62.9v.2l.1.1h.1l16.2-3.6c4.2 2 8.8 3 13.4 3h.9c4.1-.1 8.1-1 11.8-2.7s7.1-4.1 9.9-7.1 5-6.5 6.4-10.3 2.1-7.8 1.9-11.9M32.3 57.3h-.7c-4.1 0-8.1-1-11.8-2.9l-.9-.4-11 2.6 2-11.1-.5-.8C7.3 40.8 6 36.5 6 32c-.1-4.4 1-8.8 3.2-12.7s5.3-7.1 9.1-9.4 8.1-3.6 12.6-3.7h.7c6.7 0 13.1 2.7 17.9 7.4s7.5 11.1 7.6 17.8-2.4 13.2-7.1 18-11 7.7-17.7 7.9"/>
    <path d="M20.8 16.8c-.4 0-.8.1-1.1.2-.3.2-.7.4-.9.7-.7.8-2.8 2.6-2.9 6.4s2.5 7.6 2.9 8.1 5.1 8.8 12.9 12.1c4.6 2 6.6 2.3 7.9 2.3.5 0 .9-.1 1.4-.1 1.4-.1 4.6-1.7 5.3-3.5s.7-3.4.6-3.7c-.2-.3-.7-.5-1.5-.9s-4.5-2.4-5.2-2.7c-.3-.1-.5-.2-.8-.2-.2 0-.4.1-.5.2-.2.1-.3.2-.4.4-.6.8-2.1 2.5-2.5 3-.1.1-.2.2-.4.3-.1.1-.3.1-.5.1-.3 0-.6-.1-.8-.2-2.3-1-4.3-2.3-6.1-4.1-1.6-1.6-3-3.5-4.1-5.5-.4-.8 0-1.2.4-1.6s.8-.9 1.2-1.3c.3-.4.6-.8.8-1.3.1-.2.2-.4.2-.7 0-.2-.1-.5-.2-.7-.2-.4-1.6-4.3-2.2-5.8-.5-1.3-1.2-1.4-1.7-1.4-.7-.1-1.2-.1-1.8-.1"/>
  </g>
</svg>
