<?xml version="1.0" encoding="utf-8"?>
<!-- Generator: Adobe Illustrator 27.3.1, SVG Export Plug-In . SVG Version: 6.00 Build 0)  -->
<svg version="1.1" id="Layer_1" xmlns="http://www.w3.org/2000/svg" xmlns:xlink="http://www.w3.org/1999/xlink" x="0px" y="0px"
	 viewBox="0 0 270.5 64" style="enable-background:new 0 0 270.5 64;" xml:space="preserve">
<g>
	<path d="M101.4,37.1L101.4,37.1l-5.2-20.7H90l-5.2,20.4h-0.1L80,16.4h-6.6l7.9,30H88L93,26h0.1l5.1,20.4h6.6l8.1-30h-6.5
		L101.4,37.1z M132.9,26.6c-0.6-0.8-1.5-1.4-2.4-1.8c-1.3-0.5-2.6-0.7-3.9-0.6c-1.2,0-2.4,0.3-3.4,0.9c-1.2,0.6-2.2,1.6-2.9,2.8
		h-0.1V16.4h-6v30h6V35c0-2.2,0.4-3.8,1.1-4.8c0.7-1,1.9-1.5,3.5-1.4c1.4,0,2.4,0.4,3,1.3c0.6,0.9,0.8,2.2,0.8,4v12.3h6V33.1
		c0-1.2-0.1-2.5-0.4-3.7C133.9,28.4,133.5,27.4,132.9,26.6L132.9,26.6z M157.4,41.6V30.3c0-1.3-0.3-2.4-0.9-3.2
		c-0.6-0.8-1.4-1.4-2.3-1.9c-1-0.5-2-0.8-3.1-0.9c-1.1-0.2-2.2-0.2-3.3-0.2c-1.2,0-2.4,0.1-3.6,0.4c-1.1,0.2-2.2,0.6-3.2,1.2
		c-0.9,0.6-1.7,1.3-2.4,2.2c-0.7,1-1,2.3-1.1,3.5h6c0.1-1.2,0.5-2,1.2-2.5c0.7-0.5,1.6-0.8,2.8-0.8c0.5,0,1,0,1.5,0.1
		c0.4,0.1,0.8,0.2,1.2,0.4c0.4,0.2,0.6,0.5,0.8,0.9c0.2,0.5,0.3,1,0.3,1.5c0,0.3,0,0.5-0.1,0.8c-0.1,0.2-0.2,0.5-0.4,0.6
		c-0.5,0.4-1,0.6-1.6,0.7c-0.8,0.2-1.5,0.3-2.3,0.4c-0.9,0.1-1.8,0.2-2.6,0.3c-0.9,0.1-1.8,0.3-2.7,0.6c-0.8,0.2-1.6,0.6-2.4,1.1
		c-0.7,0.5-1.3,1.2-1.7,1.9c-0.5,0.9-0.7,2-0.6,3c0,1,0.2,2,0.6,2.9c0.4,0.8,0.9,1.5,1.6,2c0.7,0.5,1.5,0.9,2.4,1.2
		c0.9,0.3,1.9,0.4,2.9,0.4c1.3,0,2.7-0.2,3.9-0.6c1.3-0.4,2.4-1.1,3.4-2.1c0,0.4,0.1,0.7,0.1,1.1c0.1,0.3,0.2,0.7,0.3,1h6
		c-0.3-0.6-0.5-1.3-0.6-2C157.5,43.5,157.4,42.5,157.4,41.6L157.4,41.6z M151.5,38c0,0.5,0,0.9-0.1,1.3c-0.1,0.6-0.3,1.1-0.6,1.7
		c-0.3,0.6-0.8,1.1-1.4,1.4c-0.6,0.4-1.6,0.6-2.7,0.6c-0.5,0-0.9,0-1.4-0.1c-0.4-0.1-0.8-0.2-1.2-0.4c-0.3-0.2-0.6-0.5-0.8-0.9
		c-0.2-0.4-0.3-0.9-0.3-1.3c0-0.5,0.1-1,0.3-1.4c0.2-0.4,0.5-0.7,0.8-0.9c0.3-0.3,0.7-0.4,1.1-0.6c0.4-0.1,0.9-0.3,1.3-0.3
		c0.5-0.1,0.9-0.2,1.4-0.2c0.5-0.1,0.9-0.1,1.4-0.2c0.4-0.1,0.8-0.2,1.2-0.3c0.3-0.1,0.7-0.3,0.9-0.5L151.5,38z M168.6,18.2h-6v6.5
		H159v4h3.6v12.8c0,0.9,0.1,1.8,0.5,2.6c0.3,0.7,0.9,1.2,1.5,1.6c0.7,0.4,1.4,0.6,2.2,0.7c0.9,0.1,1.7,0.2,2.6,0.2
		c0.6,0,1.2,0,1.8,0c0.6,0,1.1-0.1,1.7-0.2v-4.6c-0.3,0.1-0.6,0.1-0.9,0.1c-0.3,0-0.6,0-1,0c-1,0-1.7-0.2-2-0.5
		c-0.3-0.3-0.5-1-0.5-2V28.7h4.4v-4h-4.4L168.6,18.2z M193.2,36.9c-0.4-0.7-0.9-1.3-1.6-1.7c-0.7-0.5-1.4-0.9-2.2-1.1
		c-0.8-0.3-1.7-0.5-2.5-0.7c-0.9-0.2-1.7-0.4-2.5-0.5c-0.7-0.1-1.5-0.3-2.2-0.6c-0.6-0.2-1.1-0.5-1.5-0.8c-0.2-0.2-0.3-0.4-0.4-0.6
		c-0.1-0.2-0.2-0.5-0.1-0.7c0-0.4,0.1-0.8,0.3-1.1c0.2-0.3,0.5-0.5,0.8-0.6c0.3-0.1,0.7-0.2,1.1-0.3c0.4,0,0.7,0,1.1,0
		c1,0,1.9,0.2,2.8,0.6c0.8,0.4,1.2,1.2,1.3,2.3h5.7c-0.1-1.2-0.4-2.3-1-3.3c-0.6-0.9-1.3-1.6-2.2-2.1c-0.9-0.6-1.9-0.9-3-1.1
		c-1.1-0.2-2.3-0.3-3.4-0.3c-1.2,0-2.3,0.1-3.4,0.3c-1.1,0.2-2.1,0.6-3,1.1c-0.9,0.5-1.6,1.2-2.2,2.1c-0.6,1.1-0.9,2.2-0.8,3.4
		c0,0.8,0.2,1.7,0.6,2.4c0.4,0.7,0.9,1.2,1.6,1.6c0.7,0.5,1.4,0.8,2.2,1.1c0.8,0.3,1.7,0.5,2.5,0.7c1.7,0.3,3.4,0.8,5,1.3
		c1.2,0.4,1.8,1.1,1.8,2c0,0.5-0.1,0.9-0.4,1.3c-0.2,0.3-0.6,0.6-0.9,0.8c-0.4,0.2-0.8,0.4-1.3,0.5c-0.4,0.1-0.9,0.1-1.3,0.2
		c-0.6,0-1.1-0.1-1.7-0.2c-0.5-0.1-1-0.3-1.5-0.7c-0.4-0.3-0.8-0.7-1-1.1c-0.3-0.5-0.4-1.1-0.4-1.7h-5.7c0,1.3,0.3,2.5,1,3.6
		c0.6,0.9,1.4,1.7,2.3,2.3c1,0.6,2.1,1,3.2,1.3c1.2,0.3,2.5,0.4,3.7,0.4c1.2,0,2.4-0.1,3.6-0.4c1.1-0.2,2.2-0.6,3.2-1.3
		c1-0.6,1.8-1.5,2.4-2.5c0.5-1,0.8-2.2,0.7-3.4C193.9,38.6,193.6,37.7,193.2,36.9L193.2,36.9z M205.1,16.4l-11.3,30h6.6l2.4-6.7H214
		l2.3,6.7h6.9l-11.2-30L205.1,16.4z M204.5,34.8l3.9-11h0.1l3.8,11H204.5z M243.7,27.6c-0.8-1.1-1.9-1.9-3.1-2.6
		c-1.4-0.7-2.9-1-4.4-1c-1.3,0-2.5,0.3-3.7,0.8c-1.2,0.6-2.1,1.5-2.8,2.6h-0.1v-2.8H224V54h6V43.7h0.1c0.7,1,1.7,1.9,2.8,2.4
		c1.2,0.6,2.4,0.8,3.7,0.8c1.4,0,2.9-0.3,4.2-0.9c1.2-0.6,2.2-1.4,3-2.5c0.8-1.1,1.4-2.3,1.8-3.6c0.4-1.4,0.6-2.8,0.6-4.2
		c0-1.5-0.2-3-0.6-4.4C245.1,30,244.5,28.8,243.7,27.6L243.7,27.6z M239.9,38.2c-0.1,0.8-0.4,1.5-0.9,2.2c-0.7,1-1.8,1.7-3,2
		c-1.2,0.3-2.5,0.1-3.5-0.5c-0.7-0.4-1.2-0.9-1.6-1.5c-0.4-0.7-0.7-1.4-0.9-2.2c-0.2-0.8-0.3-1.7-0.3-2.6c0-0.9,0.1-1.7,0.2-2.6
		c0.2-0.8,0.4-1.5,0.9-2.2c0.4-0.6,0.9-1.2,1.6-1.6c0.7-0.4,1.6-0.7,2.5-0.6c0.8,0,1.7,0.2,2.4,0.6c0.7,0.4,1.2,0.9,1.6,1.6
		c0.4,0.7,0.7,1.5,0.9,2.2c0.2,0.8,0.3,1.7,0.3,2.6C240.1,36.5,240,37.3,239.9,38.2L239.9,38.2z M269.3,31.4c-0.4-1.3-1-2.6-1.8-3.7
		c-0.8-1.1-1.9-1.9-3.1-2.6c-1.4-0.7-2.9-1-4.4-1c-1.3,0-2.5,0.3-3.7,0.8c-1.2,0.6-2.1,1.5-2.8,2.6h-0.1v-2.8h-5.7V54h6V43.7h0.1
		c0.7,1,1.7,1.9,2.8,2.4c1.2,0.6,2.4,0.8,3.7,0.8c1.4,0,2.9-0.3,4.2-0.9c1.2-0.6,2.2-1.4,3-2.5c0.8-1.1,1.4-2.3,1.8-3.6
		c0.4-1.4,0.6-2.8,0.6-4.2C269.8,34.3,269.7,32.8,269.3,31.4L269.3,31.4z M263.6,38.2c-0.1,0.8-0.4,1.5-0.9,2.2
		c-0.4,0.7-1,1.2-1.8,1.6c-0.7,0.4-1.5,0.6-2.3,0.6c-0.8,0-1.6-0.2-2.3-0.6c-0.7-0.4-1.3-0.9-1.7-1.6c-0.4-0.7-0.7-1.4-0.9-2.2
		c-0.2-0.8-0.3-1.7-0.3-2.6c0-0.9,0.1-1.7,0.3-2.6c0.2-0.8,0.5-1.5,0.9-2.2c0.4-0.6,0.9-1.2,1.6-1.6c0.7-0.4,1.6-0.7,2.5-0.6
		c0.8,0,1.7,0.2,2.4,0.6c0.7,0.4,1.2,0.9,1.6,1.6c0.4,0.7,0.7,1.5,0.9,2.2c0.2,0.8,0.3,1.7,0.3,2.6
		C263.9,36.5,263.8,37.3,263.6,38.2L263.6,38.2z"/>
	<path d="M62.4,30.6c-0.3-8-3.6-15.5-9.4-21.1S39.7,0.9,31.7,0.8h-0.2c-5.4,0-10.6,1.4-15.3,4C11.6,7.5,7.7,11.3,4.9,16
		c-2.7,4.6-4.2,9.9-4.3,15.2c-0.1,5.4,1.2,10.7,3.8,15.4L1.7,62.9c0,0,0,0.1,0,0.1c0,0,0,0.1,0,0.1c0,0,0,0,0.1,0.1c0,0,0.1,0,0.1,0
		h0l16.2-3.6c4.2,2,8.8,3,13.4,3c0.3,0,0.6,0,0.9,0c4.1-0.1,8.1-1,11.8-2.7c3.7-1.7,7.1-4.1,9.9-7.1c2.8-3,5-6.5,6.4-10.3
		C61.9,38.7,62.6,34.7,62.4,30.6L62.4,30.6z M32.3,57.3c-0.2,0-0.5,0-0.7,0c-4.1,0-8.1-1-11.8-2.9L18.9,54l-11,2.6l2-11.1l-0.5-0.8
		C7.3,40.8,6,36.5,6,32c-0.1-4.4,1-8.8,3.2-12.7c2.2-3.9,5.3-7.1,9.1-9.4c3.8-2.3,8.1-3.6,12.6-3.7c0.2,0,0.5,0,0.7,0
		c6.7,0,13.1,2.7,17.9,7.4c4.8,4.7,7.5,11.1,7.6,17.8c0.1,6.7-2.4,13.2-7.1,18C45.3,54.2,39,57.1,32.3,57.3L32.3,57.3z"/>
	<path d="M20.8,16.8c-0.4,0-0.8,0.1-1.1,0.2c-0.3,0.2-0.7,0.4-0.9,0.7c-0.7,0.8-2.8,2.6-2.9,6.4c-0.1,3.8,2.5,7.6,2.9,8.1
		c0.4,0.5,5.1,8.8,12.9,12.1c4.6,2,6.6,2.3,7.9,2.3c0.5,0,0.9-0.1,1.4-0.1c1.4-0.1,4.6-1.7,5.3-3.5c0.7-1.8,0.7-3.4,0.6-3.7
		c-0.2-0.3-0.7-0.5-1.5-0.9c-0.8-0.4-4.5-2.4-5.2-2.7c-0.3-0.1-0.5-0.2-0.8-0.2c-0.2,0-0.4,0.1-0.5,0.2c-0.2,0.1-0.3,0.2-0.4,0.4
		c-0.6,0.8-2.1,2.5-2.5,3c-0.1,0.1-0.2,0.2-0.4,0.3c-0.1,0.1-0.3,0.1-0.5,0.1c-0.3,0-0.6-0.1-0.8-0.2c-2.3-1-4.3-2.3-6.1-4.1
		c-1.6-1.6-3-3.5-4.1-5.5c-0.4-0.8,0-1.2,0.4-1.6c0.4-0.4,0.8-0.9,1.2-1.3c0.3-0.4,0.6-0.8,0.8-1.3c0.1-0.2,0.2-0.4,0.2-0.7
		c0-0.2-0.1-0.5-0.2-0.7c-0.2-0.4-1.6-4.3-2.2-5.8c-0.5-1.3-1.2-1.4-1.7-1.4C21.9,16.8,21.4,16.8,20.8,16.8L20.8,16.8"/>
</g>
</svg>
