<?xml version='1.0' encoding='UTF-8'?>
<svg xmlns="http://www.w3.org/2000/svg" xml:space="preserve" viewBox="0 0 62.7 64" width="62.7" height="64">
  <g fill="#25d366">
    <path d="M62.2 30.6c-.3-8-3.6-15.5-9.4-21.1S39.5.9 31.5.8h-.2c-5.4 0-10.6 1.4-15.3 4C11.4 7.5 7.5 11.3 4.8 16 2 20.6.6 25.8.5 31.2s1.2 10.7 3.8 15.4L1.5 62.9v.2l.1.1h.1L18 59.6c4.2 2 8.8 3 13.4 3h.9c4.1-.1 8.1-1 11.8-2.7s7.1-4.1 9.9-7.1 5-6.5 6.4-10.3c1.3-3.8 2-7.8 1.8-11.9M32.1 57.3h-.7c-4.1 0-8.1-1-11.8-2.9l-.8-.4-11 2.6 2-11.1-.5-.8C7.1 40.8 5.9 36.5 5.8 32c-.1-4.4 1-8.8 3.2-12.7s5.3-7.1 9.1-9.4 8.1-3.6 12.6-3.7h.7c6.7 0 13.1 2.7 17.9 7.4s7.5 11.1 7.6 17.8-2.4 13.2-7.1 18c-4.6 4.8-11 7.7-17.7 7.9"/>
    <path d="M20.6 16.8c-.4 0-.8.1-1.1.2-.3.2-.7.4-.9.7-.7.8-2.8 2.6-2.9 6.4s2.5 7.6 2.9 8.1 5.1 8.8 12.9 12.1c4.6 2 6.6 2.3 7.9 2.3.5 0 .9-.1 1.4-.1 1.4-.1 4.6-1.7 5.3-3.5s.7-3.4.6-3.7c-.2-.3-.7-.5-1.5-.9S40.7 36 40 35.7c-.3-.1-.5-.2-.8-.2-.2 0-.4.1-.5.2-.2.1-.3.2-.4.4-.6.8-2.1 2.5-2.5 3-.1.1-.2.2-.4.3-.1.1-.3.1-.5.1-.3 0-.6-.1-.8-.2-2.3-1-4.3-2.3-6.1-4.1-1.6-1.6-3-3.5-4.1-5.5-.4-.8 0-1.2.4-1.6s.8-.9 1.2-1.3c.3-.4.6-.8.8-1.3.1-.2.2-.4.2-.7 0-.2-.1-.5-.2-.7-.2-.4-1.6-4.3-2.2-5.8-.5-1.3-1.2-1.4-1.7-1.4-.7-.1-1.2-.1-1.8-.1"/>
  </g>
</svg>
