<?xml version="1.0" encoding="utf-8"?>
<!-- Generator: Adobe Illustrator 27.3.1, SVG Export Plug-In . SVG Version: 6.00 Build 0)  -->
<svg version="1.1" id="Layer_1" xmlns="http://www.w3.org/2000/svg" xmlns:xlink="http://www.w3.org/1999/xlink" x="0px" y="0px"
	 viewBox="0 0 62.7 64" style="enable-background:new 0 0 62.7 64;" xml:space="preserve">
<g>
	<path d="M62.2,30.6c-0.3-8-3.6-15.5-9.4-21.1S39.5,0.9,31.5,0.8h-0.2c-5.4,0-10.6,1.4-15.3,4C11.4,7.5,7.5,11.3,4.8,16
		C2,20.6,0.6,25.8,0.5,31.2c-0.1,5.4,1.2,10.7,3.8,15.4L1.5,62.9c0,0,0,0.1,0,0.1c0,0,0,0.1,0,0.1c0,0,0,0,0.1,0.1c0,0,0.1,0,0.1,0
		h0L18,59.6c4.2,2,8.8,3,13.4,3c0.3,0,0.6,0,0.9,0c4.1-0.1,8.1-1,11.8-2.7c3.7-1.7,7.1-4.1,9.9-7.1c2.8-3,5-6.5,6.4-10.3
		C61.7,38.7,62.4,34.7,62.2,30.6L62.2,30.6z M32.1,57.3c-0.2,0-0.5,0-0.7,0c-4.1,0-8.1-1-11.8-2.9L18.8,54l-11,2.6l2-11.1l-0.5-0.8
		C7.1,40.8,5.9,36.5,5.8,32c-0.1-4.4,1-8.8,3.2-12.7c2.2-3.9,5.3-7.1,9.1-9.4c3.8-2.3,8.1-3.6,12.6-3.7c0.2,0,0.5,0,0.7,0
		c6.7,0,13.1,2.7,17.9,7.4c4.8,4.7,7.5,11.1,7.6,17.8c0.1,6.7-2.4,13.2-7.1,18C45.2,54.2,38.8,57.1,32.1,57.3L32.1,57.3z"/>
	<path d="M20.6,16.8c-0.4,0-0.8,0.1-1.1,0.2c-0.3,0.2-0.7,0.4-0.9,0.7c-0.7,0.8-2.8,2.6-2.9,6.4c-0.1,3.8,2.5,7.6,2.9,8.1
		c0.4,0.5,5.1,8.8,12.9,12.1c4.6,2,6.6,2.3,7.9,2.3c0.5,0,0.9-0.1,1.4-0.1c1.4-0.1,4.6-1.7,5.3-3.5c0.7-1.8,0.7-3.4,0.6-3.7
		c-0.2-0.3-0.7-0.5-1.5-0.9C44.4,38,40.7,36,40,35.7c-0.3-0.1-0.5-0.2-0.8-0.2c-0.2,0-0.4,0.1-0.5,0.2c-0.2,0.1-0.3,0.2-0.4,0.4
		c-0.6,0.8-2.1,2.5-2.5,3c-0.1,0.1-0.2,0.2-0.4,0.3c-0.1,0.1-0.3,0.1-0.5,0.1c-0.3,0-0.6-0.1-0.8-0.2c-2.3-1-4.3-2.3-6.1-4.1
		c-1.6-1.6-3-3.5-4.1-5.5c-0.4-0.8,0-1.2,0.4-1.6c0.4-0.4,0.8-0.9,1.2-1.3c0.3-0.4,0.6-0.8,0.8-1.3c0.1-0.2,0.2-0.4,0.2-0.7
		c0-0.2-0.1-0.5-0.2-0.7c-0.2-0.4-1.6-4.3-2.2-5.8c-0.5-1.3-1.2-1.4-1.7-1.4C21.7,16.8,21.2,16.8,20.6,16.8L20.6,16.8"/>
</g>
</svg>
