<svg xmlns="http://www.w3.org/2000/svg" width="246.154" height="64" fill="none" viewBox="0 0 100 26"><g fill="#000" clip-path="url(#a)"><path d="M19.593 1.07c-1.745 0-3.614 1.342-5.115 4.505L12.55.946h-.123c-.32.737-1.306 1.13-2.24 1.13H.038v.197c.812.344 1.527 1.523 2.191 3.12l6.306 15.234h.196l4.098-9.916 4.103 9.916h.197l3.497-8.698c1.354-3.416 2.24-5.307 2.24-7.003 0-2.26-1.254-3.857-3.274-3.857Zm-9.459 14.289L6.047 5.418c-.665-1.622-.05-2.777 1.626-2.777 1.477 0 2.216.983 2.955 2.753l1.806 4.362-2.3 5.603Zm9.804-3.725-1.426 3.617-3.789-9.09c.928-1.341 2.13-1.85 3.514-1.85 1.65 0 2.636 1.13 2.636 3.17 0 1.13-.296 2.532-.935 4.153ZM72.934 10.922c0-2.014-2.069-3.49-4.704-3.49-3.99 0-6.699 3.44-6.699 7.052 0 3.931 3.005 6.29 5.984 6.29 2.39 0 4.704-1.449 5.419-3.98l-.173-.146c-.812 1.204-2.217 1.867-3.62 1.867-1.848 0-3.35-1.057-4.063-2.948 3.817-.616 7.856-1.649 7.856-4.645Zm-8.029 4.053a7.824 7.824 0 0 1-.222-1.89c0-3.195 1.354-4.989 3.029-4.989 1.306 0 1.7 1.105 1.7 2.285 0 2.456-2.216 4.103-4.507 4.594ZM97.238 7.063c-1.698 0-3.325 1.598-4.327 3.754l-1.683-3.533h-.196c-.32 1.204-1.822 1.89-3.474 1.867v.196c1.035.246 1.477 1.228 2.118 2.53l4.359 8.969-.296.54c-.936 1.844-1.575 2.507-2.24 2.507-1.207 0-1.306-1.745-2.759-1.745-.862 0-1.576.59-1.576 1.622 0 1.155 1.28 1.892 2.61 1.892 1.945 0 3.152-1.523 4.458-3.98l3.373-6.291c1.354-2.53 2.094-3.636 2.094-5.529.002-1.52-.885-2.799-2.461-2.799Zm-.222 8.011-1.084 2.09-2.781-5.84c.532-.944 1.469-1.705 2.854-1.705 1.306 0 1.995.81 1.995 2.139.002.909-.32 2.038-.984 3.316ZM36.605 17.85V10.26c0-1.695-1.06-2.826-2.635-2.826-1.896 0-4.285 1.72-5.566 2.973V.16h-.172c-.764 1.204-2.733 1.94-4.63 1.891v.197c1.083.295 1.403 1.057 1.403 2.53V17.85c0 1.105-.492 1.99-1.38 2.359v.196h6.207v-.196c-.911-.517-1.429-1.253-1.429-2.31v-6.854c1.453-1.058 2.562-1.573 3.374-1.573.911 0 1.429.663 1.429 2.014V17.9c0 1.057-.468 1.768-1.429 2.309v.196h6.206v-.196c-.886-.367-1.378-1.252-1.378-2.357ZM82.707 7.433c-1.772 0-3.473 1.303-4.408 2.31V.16h-.147c-.887 1.204-2.931 1.94-4.754 1.891v.197c1.01.295 1.477 1.08 1.477 2.53v15.873h.222l1.626-1.818c.714 1.13 2.068 1.818 3.694 1.818 4.088 0 6.895-3.489 6.895-7.297 0-3.49-2.191-5.921-4.605-5.921Zm-2.39 12.555c-1.206 0-2.018-.983-2.018-2.335V10.43c.812-.713 1.725-1.377 2.733-1.351 1.725.024 2.71 1.966 2.734 4.938.025 3.367-1.354 5.97-3.448 5.97ZM59.607 7.433c-1.354 0-2.832 1.45-3.521 2.826V7.286h-.197c-.838 1.204-2.808 1.917-4.655 1.891v.197c1.01.295 1.503 1.105 1.503 2.53v5.848c0 1.13-.492 2.014-1.477 2.457v.196h6.353v-.196c-1.01-.442-1.452-1.327-1.452-2.457v-6.88c.369-.467.788-.958 1.28-.958.91 0 1.28 1.105 2.413 1.105.788 0 1.602-.639 1.602-1.72a1.85 1.85 0 0 0-1.85-1.866ZM50.105 10.922c0-2.014-2.068-3.49-4.703-3.49-3.99 0-6.699 3.44-6.699 7.052 0 3.931 3.005 6.29 5.984 6.29 2.39 0 4.704-1.449 5.419-3.98l-.173-.146c-.812 1.204-2.217 1.867-3.62 1.867-1.848 0-3.35-1.057-4.063-2.948 3.816-.616 7.855-1.649 7.855-4.645Zm-8.028 4.053a7.834 7.834 0 0 1-.222-1.89c0-3.195 1.354-4.989 3.029-4.989 1.306 0 1.724 1.105 1.724 2.285 0 2.456-2.24 4.103-4.53 4.594Z"/></g><defs><clipPath id="a"><path fill="#fff" d="M0 0h100v25.822H0z"/></clipPath></defs></svg>