<svg xmlns="http://www.w3.org/2000/svg" width="86.486" height="64" fill="none" viewBox="0 0 50 37"><path fill="#9187F6" d="M17.056.57c.761-.634 1.776-.634 2.537.127l5.453 5.453-2.664 2.79-3.424-3.424c-.38-.38-.887-.38-1.394-.127l-.127.127c-4.058 3.931-7.99 7.99-12.047 12.047-.38.38-.508 1.015-.127 1.395l.127.127 11.413 11.413c.253.38.634.634 1.014.888.38.127.888 0 1.142-.254l3.297-3.297 2.663 2.79-5.073 5.073c-.38.38-.76.634-1.141.887-.761.254-1.522 0-2.03-.507L.572 19.973a1.99 1.99 0 0 1 0-2.79C6.15 11.476 11.603 6.023 17.056.571Z"/><path fill="#8313DD" d="M30.498.57a1.99 1.99 0 0 1 2.79 0l16.105 16.106c.507.507.761 1.268.507 2.029-.253.507-.634.888-1.014 1.268l-15.09 15.218c-.381.38-.762.76-1.269 1.014-.76.254-1.522 0-2.029-.507l-5.453-5.326-2.663-2.663-8.116-8.116c-.76-.761-.76-2.03 0-2.663l7.99-7.99 2.789-2.79c1.775-1.902 3.678-3.677 5.453-5.58"/></svg>