<svg xmlns="http://www.w3.org/2000/svg" width="376.471" height="64" fill="none" viewBox="0 0 100 17"><g clip-path="url(#a)"><path fill="#9187F6" d="M7.99.726c.336-.28.783-.28 1.118.056l2.402 2.402-1.173 1.23-1.508-1.509c-.168-.168-.392-.168-.615-.056l-.056.056c-1.788 1.732-3.52 3.52-5.307 5.307-.168.168-.224.447-.056.615l.056.056 5.028 5.028c.112.167.28.279.447.39.167.056.39 0 .503-.111l1.452-1.453 1.173 1.23L9.22 16.2a3.07 3.07 0 0 1-.503.391.869.869 0 0 1-.894-.223L.728 9.274a.877.877 0 0 1 0-1.23A907.239 907.239 0 0 1 7.991.727Z"/><path fill="#8313DD" d="M13.91.726a.877.877 0 0 1 1.23 0l7.094 7.095c.223.224.335.559.223.894-.111.224-.279.391-.446.559l-6.648 6.704c-.168.167-.336.335-.56.447a.87.87 0 0 1-.893-.224l-2.402-2.346-1.173-1.173-3.576-3.576c-.335-.335-.335-.894 0-1.173l3.52-3.52 1.229-1.229c.782-.838 1.62-1.62 2.402-2.458Z"/><path fill="#303395" d="M25.754 2.737c.28-.502.95-.614 1.397-.335a.673.673 0 0 1 .279.28c.112.167.168.39.224.614l1.62 6.536c.055.28.111.56.223.838l2.067-7.43c.056-.39.28-.67.615-.894a1.036 1.036 0 0 1 1.061.112c.168.168.28.391.391.615.726 2.514 1.397 5.028 2.179 7.541a358.799 358.799 0 0 0 1.788-7.43c.056-.279.167-.558.39-.782.448-.335 1.118-.28 1.453.168.056.056.056.112.112.167.168.336.168.783 0 1.118-.838 3.184-1.732 6.369-2.57 9.553a1.26 1.26 0 0 1-.726.95c-.335.111-.67.055-1.006-.112-.223-.224-.39-.559-.503-.894-.67-2.458-1.396-4.972-2.067-7.43-.726 2.514-1.452 5.028-2.122 7.598-.112.39-.336.726-.727.893a1.083 1.083 0 0 1-1.005-.167 1.703 1.703 0 0 1-.447-.894c-.838-3.184-1.732-6.369-2.57-9.553-.224-.28-.168-.67-.056-1.062Zm15.14.503c0-.558.39-1.005.95-1.005.558 0 1.005.39 1.005.95v3.463c.447-.559 1.061-.894 1.788-1.006.67-.111 1.34 0 1.9.336a2.744 2.744 0 0 1 1.396 1.843c.111.615.167 1.23.111 1.844v3.799c0 .558-.39 1.005-.95 1.005-.558 0-1.005-.39-1.005-.95V9.107c.056-.67-.335-1.285-.894-1.62a1.865 1.865 0 0 0-1.787.28c-.336.39-.503.95-.503 1.452v4.19c0 .223-.056.447-.168.614-.335.447-.95.559-1.452.224-.112-.056-.168-.168-.224-.224-.167-.279-.167-.614-.167-.95V3.24Zm9.385-.95c.615-.223 1.285.112 1.508.727.056.112.056.223.056.39.056.671-.447 1.174-1.117 1.23h-.112c-.67 0-1.173-.559-1.173-1.23.056-.502.335-.949.838-1.116Zm25.81 0c.615-.279 1.341 0 1.62.615.056.056.056.168.056.28.112.614-.279 1.284-.95 1.396h-.167a1.148 1.148 0 0 1-1.23-1.117c-.055-.503.224-.95.671-1.173Zm20.67 0c.392-.111.783 0 1.062.224.224.223.28.559.28.838v8.492c0 .223.055.502.223.67.28.223.67.112 1.005.335.392.335.392.894.056 1.285l-.167.168c-.894.279-1.844.111-2.57-.503-.335-.503-.559-1.173-.503-1.788V3.575c0-.279 0-.558.056-.782.056-.223.28-.447.559-.502ZM55.364 6.649c.559-.67 1.397-1.006 2.235-1.006A2.84 2.84 0 0 1 60 6.76a3.444 3.444 0 0 1 2.123-1.118c.838-.167 1.732 0 2.458.503.838.615 1.34 1.676 1.229 2.738v4.637c0 .502-.391.893-.894.95-.503.111-1.005-.28-1.117-.783V9.162c.056-.894-.559-1.676-1.453-1.732a1.595 1.595 0 0 0-1.285.447 2.002 2.002 0 0 0-.502 1.34v4.135c0 .28-.056.503-.224.726-.335.391-1.005.503-1.452.168a.927.927 0 0 1-.336-.894V9.106c.056-.894-.614-1.62-1.508-1.676-.503 0-.95.168-1.285.503a1.84 1.84 0 0 0-.447 1.397v4.078c0 .223-.056.503-.168.67-.335.447-1.005.559-1.452.224-.112-.056-.168-.168-.223-.224-.112-.167-.168-.39-.168-.67V6.816c0-.28.056-.559.28-.782.279-.28.725-.336 1.117-.224.335.168.614.447.67.838Zm14.86-.95c1.118-.111 2.235.168 3.185.727.39.279.502.782.28 1.173-.057.056-.057.112-.113.167-.279.28-.726.28-1.061.112a3.748 3.748 0 0 0-2.57-.447c-.391.056-.726.447-.726.838 0 .335.28.615.614.726.95.28 1.956.112 2.85.503.67.224 1.173.782 1.396 1.453.224.726.112 1.452-.167 2.123a2.957 2.957 0 0 1-2.012 1.452c-1.34.28-2.793.112-4.022-.503-.335-.111-.559-.335-.782-.614-.224-.447 0-.95.391-1.23a.938.938 0 0 1 1.006.112 3.697 3.697 0 0 0 1.843.67c.559.113 1.173-.055 1.62-.39.335-.28.391-.838.056-1.173a1.22 1.22 0 0 0-.28-.224c-.893-.335-1.899-.167-2.792-.503-.67-.167-1.23-.67-1.509-1.34-.335-.95-.112-2.067.559-2.794.614-.558 1.396-.894 2.234-.894v.056Zm12.18 0c1.06-.167 2.066.168 2.904.782.391.224.615.67.615 1.118 0 .447-.391.838-.894.838h-.112c-.503-.056-.782-.615-1.229-.782-.726-.336-1.564-.168-2.067.39a3.36 3.36 0 0 0-.503 2.068c0 .726 0 1.564.447 2.178.503.56 1.341.727 2.067.447.559-.167.838-.893 1.453-.838.502.056.838.447.838.95 0 .056 0 .168-.056.224-.28.558-.726.95-1.23 1.173a4.043 4.043 0 0 1-2.68.28c-.895-.168-1.733-.671-2.18-1.453-.502-.894-.67-1.956-.614-2.961-.056-1.062.167-2.067.67-2.961a3.303 3.303 0 0 1 2.57-1.453Zm5.921.447c.726-.335 1.508-.447 2.29-.447.838-.056 1.676.112 2.403.559.838.67 1.285 1.676 1.173 2.737V11.9c0 .67.67 1.062.559 1.732-.056.559-.56.894-1.118.838-.056 0-.112 0-.223-.056-.391-.111-.559-.502-.782-.782a3.004 3.004 0 0 1-2.403.95c-.782.056-1.62-.112-2.29-.559a2.267 2.267 0 0 1-.894-1.62 2.544 2.544 0 0 1 .615-2.234c.67-.615 1.508-.894 2.402-.894h2.179a1.657 1.657 0 0 0-.447-1.509c-.391-.279-.838-.39-1.341-.39-.559 0-1.118.111-1.62.335a1.038 1.038 0 0 1-1.062-.056.792.792 0 0 1-.167-1.062c.167-.223.335-.39.614-.447h.112Zm1.117 4.86c-.502.28-.614.95-.335 1.453.056.112.168.224.28.335.446.224 1.005.28 1.452.168.503 0 1.006-.28 1.285-.726.167-.447.167-.95.112-1.453h-1.453c-.447-.056-.894.056-1.34.224ZM50.335 5.81c.335-.112.726 0 1.006.224.223.223.335.502.279.782v6.704c0 .447-.28.838-.726.95a.98.98 0 0 1-1.23-.615c0-.056-.055-.168-.055-.224V6.816c.056-.447.335-.838.726-1.006Zm25.922.056c.391-.112.838 0 1.117.335.168.335.224.726.168 1.062v6.257c0 .39-.224.782-.559.95-.39.167-.838.055-1.173-.224-.168-.224-.28-.559-.224-.838V6.816c0-.447.28-.838.67-.95Z"/></g><defs><clipPath id="a"><path fill="#fff" d="M0 0h100v16.76H0z"/></clipPath></defs></svg>