<svg xmlns="http://www.w3.org/2000/svg" width="256" height="64" fill="none" viewBox="0 0 100 25"><path fill="#2E4369" d="M98.916 10.762c0-5.684-3.96-9.682-9.51-9.682-7.068 0-11.804 5.134-11.804 12.467 0 5.722 3.997 9.681 9.643 9.681 5.135 0 8.962-2.482 10.535-6.441h-5.703c-.758 1.231-2.369 2.008-4.339 2.008-3.031 0-4.926-2.008-5.097-4.85h15.953c.209-1.08.322-2.009.322-3.183Zm-15.839-.664c.512-2.614 3.05-4.698 6.12-4.698 2.652 0 4.66 1.932 4.66 4.698h-10.78ZM62.273 22.717l1.024-5.457c3.126.626 3.6-1.137 4.414-5.38l.398-2.104c1.137-5.93 3.43-8.886 9.985-8.09L77.07 7.143c-3.126-.625-3.676 1.743-4.377 5.419l-.398 2.103c-1.137 6.006-3.505 8.848-10.023 8.052ZM54.617 22.736l3.865-21.144h5.097l-3.846 21.144h-5.116ZM25.422 1.592h4.945l1.61 15.29 6.48-15.29h4.907l1.724 15.441 6.253-15.441h4.926l-8.962 21.144h-5.608L39.878 8.185l-6.195 14.55h-5.42L25.423 1.593Z"/><path fill="#00B9FF" d="m6.952 7.2-5.874 5.608h9.985l1.042-2.444H7.046L10.21 7.2 8.373 4.036h8.582l-7.92 18.7h2.975l8.962-21.144H3.655L6.952 7.2Z"/></svg>