<svg xmlns="http://www.w3.org/2000/svg" width="82.051" height="64" fill="none" viewBox="0 0 50 39"><g fill="#3363e7" clip-path="url(#a)"><path d="M29.393 37.333c-6.39 1.76-20.797.908-23.111.908H.93l8.814-9.945c2.39-2.685 3.704-3.24 6.278-3.24s8.834.259 12.186 0A33.6 33.6 0 0 0 41.67 21.37c5.463-3.444 6.556-5.555 6.556-5.555S50.17 31.61 29.393 37.333"/><path d="M47.578 9.426c1-6.093-2.445-7.76-2.445-7.76s.241 4.964-9.018 6.02C28.022 8.61.93 7.906.93 7.906l8.722 10a7.4 7.4 0 0 0 6.278 3.223c4.166.17 8.34.109 12.5-.185a29.26 29.26 0 0 0 14.815-5 11.1 11.1 0 0 0 4.333-6.519Z"/></g><defs><clipPath id="a"><path fill="#fff" d="M0 0h50v38.889H0z"/></clipPath></defs></svg>