<svg xmlns="http://www.w3.org/2000/svg" width="376.471" height="64" fill="none" viewBox="0 0 100 17"><g fill="#3363e7" clip-path="url(#a)"><path d="M12.398 15.75c-2.695.742-8.773.383-9.75.383H.391l3.718-4.195c1.008-1.133 1.563-1.368 2.649-1.368s3.726.11 5.14 0a14.2 14.2 0 0 0 5.68-1.554c2.305-1.454 2.766-2.344 2.766-2.344s.82 6.664-7.946 9.078"/><path d="M20.07 3.977c.422-2.57-1.03-3.274-1.03-3.274s.1 2.094-3.806 2.54c-3.414.39-14.843.093-14.843.093l3.68 4.219a3.13 3.13 0 0 0 2.648 1.359q2.639.108 5.273-.078a12.34 12.34 0 0 0 6.25-2.11 4.7 4.7 0 0 0 1.828-2.75ZM44.578.898h2.414l-6.172 15.32h-.64L35.36 4.227 30.483 16.22h-.632v-.078L23.703.898h2.469l4.047 10.157L34.305.898H36.5l4.102 10.157zm4.734 15.258h2.399V.898h-2.398v15.258ZM61.203 7.86l-1.64-.968A6.5 6.5 0 0 1 58 5.68a1.8 1.8 0 0 1-.469-1.188 1.35 1.35 0 0 1 .625-1.14 2.8 2.8 0 0 1 1.657-.461 4.87 4.87 0 0 1 3.406 1.562l.21.203V1.82l-.054-.039A6.2 6.2 0 0 0 59.844.703a4.7 4.7 0 0 0-3.274 1.14 3.82 3.82 0 0 0-1.273 2.97 3.65 3.65 0 0 0 .672 2.14 7.6 7.6 0 0 0 2.234 1.906l1.633.993c1.266.78 1.914 1.624 1.914 2.492a1.63 1.63 0 0 1-.625 1.312 2.43 2.43 0 0 1-1.563.531 4.96 4.96 0 0 1-3.906-2.156l-.226-.281v3.125h.054a6.73 6.73 0 0 0 4.055 1.453 4.56 4.56 0 0 0 3.227-1.164 3.96 3.96 0 0 0 1.25-3.023c0-1.727-.946-3.172-2.813-4.282Zm4.594-4.812h4.531v13.11h2.406V3.046h4.618V.875H65.797zm14.156 13.117h2.399V.898h-2.399zm19.774 0h-2.461l-2-4.445h-6.25l-1.907 4.437h-2.484l.078-.172L91.211.812h1.672zM92.03 4.554l-2.06 4.994h4.289z"/></g><defs><clipPath id="a"><path fill="#fff" d="M0 0h100v16.406H0z"/></clipPath></defs></svg>