<svg xmlns="http://www.w3.org/2000/svg" width="160" height="64" fill="none" viewBox="0 0 75 30"><g clip-path="url(#a)"><path fill="#000" fill-rule="evenodd" d="M0 .034s2.954-.381 4.923 1.404C6.137 2.539 6.49 4.294 6.49 4.294l4.022 16.02 3.343-13.113c.326-1.394.913-3.117 1.841-4.282 1.184-1.484 3.59-1.578 3.846-1.578s2.661.094 3.844 1.578c.93 1.165 1.516 2.888 1.843 4.282l3.343 13.113 4.02-16.02s.355-1.756 1.57-2.857C36.132-.347 39.085.034 39.085.034l-7.7 29.941s-2.54.189-3.81-.478c-1.67-.874-2.464-1.55-3.475-5.623l-.104-.424a1239 1239 0 0 1-1.504-6.228l-.172-.715-.17-.71c-.824-3.427-1.582-6.583-1.703-6.983-.115-.377-.25-1.272-.904-1.272-.64 0-.788.897-.905 1.272-.137.441-1.046 4.237-1.96 8.05l-.172.715q-.701 2.937-1.416 5.871l-.106.424c-1.01 4.073-1.804 4.75-3.473 5.623-1.272.667-3.811.478-3.811.478L0 .035Zm46.477 5.323v1.066h.002v17.815c-.015 3.657-.394 4.468-2.042 5.31-1.281.653-3.24.406-3.24.406V9.999c0-1.002.333-1.659 1.56-2.248.732-.353 1.416-.622 2.126-1.021 1.11-.62 1.594-1.373 1.594-1.373M48.592.134s4.095-.721 6.123 1.186c1.297 1.221 2.749 3.418 2.749 3.418l3.57 5.32c.173.276.4.578.76.578.363 0 .59-.302.763-.579l3.57-5.32s1.452-2.196 2.75-3.417C70.904-.587 75 .134 75 .134L65.296 15.05l9.678 14.873-.034.004c-.402.048-4.264.453-6.185-1.356-1.298-1.22-2.627-3.206-2.627-3.206l-3.57-5.319c-.174-.278-.401-.578-.762-.578-.362 0-.589.3-.762.578l-3.57 5.32s-1.257 1.985-2.554 3.205c-2.029 1.91-6.293 1.352-6.293 1.352l9.677-14.871zM46.437 0h.042c0 2.046-.197 3.26-1.465 4.203-.593.442-1.242.8-1.93 1.063a5.9 5.9 0 0 0-1.887 1.163c0-3.725.56-5.073 2.06-5.872.914-.484 2.4-.55 2.979-.557z" clip-rule="evenodd"/></g><defs><clipPath id="a"><path fill="#fff" d="M0 0h75v30H0z"/></clipPath></defs></svg>