<svg xmlns="http://www.w3.org/2000/svg" width="304.762" height="64" fill="none" viewBox="0 0 100 21"><g clip-path="url(#a)"><path fill="#163B54" d="m37.457 5.512-2.197 8.44-2.197-8.44H30.85l.512 1.81-1.929 6.914-2.11-8.724h-2.126l2.992 11.023h2.33l1.796-5.897 1.677 5.897h2.323l3.15-11.023h-2.008ZM59.81 8.709a7.084 7.084 0 0 0-1.465-.181c-2.677 0-4.141 1.787-4.141 4.409 0 2.606 1.464 3.795 3.189 3.795.916-.03 1.8-.352 2.52-.921v.724h1.834V5.512h-1.937v3.197Zm0 5.575c-.63.574-1.22.89-1.843.89-1.07 0-1.755-.71-1.755-2.37 0-1.796.85-2.733 2.33-2.733.433 0 .866.087 1.26.244v3.969h.008ZM50.551 10h-.07V8.709h-1.812v7.826h1.945v-4.661c.607-1.15 1.347-1.527 2.583-1.527h.197V8.66a5.248 5.248 0 0 0-.528-.031c-1.055 0-1.78.41-2.315 1.378V10Zm-7.386-1.488c-2.677 0-3.937 1.732-3.937 4.118 0 2.378 1.26 4.094 3.937 4.094 2.678 0 3.953-1.716 3.953-4.094 0-2.386-1.291-4.118-3.96-4.118h.007Zm0 6.646c-1.26 0-1.937-.82-1.937-2.528 0-1.717.678-2.536 1.945-2.536 1.26 0 1.921.82 1.921 2.536 0 1.709-.669 2.527-1.937 2.527h.008Zm31.74-5.166h-.063V8.71h-1.818v7.826h1.937v-4.661c.606-1.15 1.346-1.527 2.582-1.527h.197V8.66a5.248 5.248 0 0 0-.527-.031c-1.048 0-1.772.41-2.315 1.378h.008v-.016Zm-7.15-4.48H64.15v11.023h2.078v-3.834h1.52c2.354 0 4.063-1.268 4.063-3.638 0-2.362-1.709-3.551-4.063-3.551h.008Zm.017 5.575h-1.544V7.142h1.536c1.26 0 1.874.693 1.874 1.921 0 1.236-.575 2.024-1.874 2.024h.008Zm28.362-.181c0-.591.645-.82 1.338-.82a7.77 7.77 0 0 1 2.166.34V8.818a7.982 7.982 0 0 0-2.323-.3c-1.874 0-3.189.89-3.189 2.34 0 2.81 3.874 2.086 3.874 3.456 0 .67-.606.85-1.496.85-.63 0-1.63-.236-2.354-.496v1.599c.726.29 1.5.448 2.283.464 1.827 0 3.567-.543 3.567-2.496.024-2.716-3.858-2.016-3.858-3.33h-.008ZM82.354 8.52c-2.504 0-3.803 1.945-3.803 4.063 0 2.913 1.528 4.15 4.016 4.15a9.302 9.302 0 0 0 2.874-.45V14.67c-.811.3-1.551.48-2.339.48-1.449 0-2.417-.393-2.464-2.102h5.008c.047-.386.07-.771.063-1.15 0-1.653-.874-3.377-3.362-3.377h.007Zm-1.7 3.244c.118-1.087.708-1.78 1.677-1.78 1.04 0 1.354.827 1.354 1.78h-3.032Zm8.425-.858c0-.591.638-.82 1.33-.82a7.77 7.77 0 0 1 2.166.34V8.818a7.987 7.987 0 0 0-2.315-.3c-1.874 0-3.197.89-3.197 2.34 0 2.81 3.882 2.086 3.882 3.456 0 .67-.614.85-1.496.85-.63 0-1.63-.236-2.362-.496v1.599c.726.29 1.5.448 2.283.464 1.827 0 3.575-.543 3.575-2.496.016-2.716-3.866-2.016-3.866-3.33Zm-87.725-.67a8.883 8.883 0 0 0 5.008 7.992L2.126 6.622a8.85 8.85 0 0 0-.772 3.614Zm8.882 8.882a8.98 8.98 0 0 0 2.953-.504l-.063-.118-2.732-7.48-2.662 7.74c.788.236 1.63.362 2.504.362Zm1.22-13.047 3.213 9.551.89-2.96c.378-1.229.67-2.11.67-2.875 0-1.102-.394-1.858-.725-2.44-.457-.74-.874-1.363-.874-2.087 0-.82.614-1.575 1.496-1.575h.11a8.85 8.85 0 0 0-6-2.33 8.874 8.874 0 0 0-7.417 4l.567.015c.929 0 2.362-.118 2.362-.118.488-.024.543.677.063.732 0 0-.48.063-1.024.087l3.244 9.622 1.945-5.827-1.385-3.795c-.31-.017-.62-.044-.93-.079-.48-.031-.425-.764.056-.74 0 0 1.464.118 2.338.118.93 0 2.362-.118 2.362-.118.48-.024.544.677.063.732 0 0-.48.055-1.023.087Zm3.245 11.842a8.883 8.883 0 0 0 3.33-11.937 8.387 8.387 0 0 1-.614 4.095l-2.716 7.842Zm-4.465 2.56a10.236 10.236 0 1 1 0-20.473 10.236 10.236 0 0 1 0 20.472Z"/></g><defs><clipPath id="a"><path fill="#fff" d="M0 0h100v20.472H0z"/></clipPath></defs></svg>