<svg xmlns="http://www.w3.org/2000/svg" width="64" height="64" fill="none" viewBox="0 0 50 50"><g clip-path="url(#a)"><path fill="#126FC2" d="M3.308 25c0 8.596 5 16 12.23 19.52L5.193 16.172A21.615 21.615 0 0 0 3.308 25ZM25 46.692c2.52 0 4.942-.442 7.212-1.23l-.154-.289-6.673-18.27-6.5 18.905c1.923.577 3.98.884 6.115.884Zm2.98-31.865 7.847 23.327L38 30.924c.923-3 1.635-5.155 1.635-7.02 0-2.692-.962-4.539-1.77-5.962-1.115-1.807-2.134-3.327-2.134-5.096 0-2 1.5-3.846 3.654-3.846h.269A21.616 21.616 0 0 0 25 3.308a21.673 21.673 0 0 0-18.115 9.769l1.384.038c2.27 0 5.77-.288 5.77-.288 1.192-.058 1.326 1.654.153 1.788 0 0-1.173.154-2.5.212l7.923 23.5 4.75-14.23-3.384-9.27a38.723 38.723 0 0 1-2.27-.192c-1.173-.077-1.038-1.866.135-1.808 0 0 3.577.288 5.712.288 2.269 0 5.769-.288 5.769-.288 1.173-.058 1.327 1.654.154 1.788 0 0-1.173.135-2.5.212Zm7.924 28.923A21.693 21.693 0 0 0 46.692 25c0-3.77-.961-7.308-2.654-10.404a20.48 20.48 0 0 1-1.5 10L35.904 43.75ZM25 50a25 25 0 1 1 0-50 25 25 0 0 1 0 50Z"/></g><defs><clipPath id="a"><path fill="#fff" d="M0 0h50v50H0z"/></clipPath></defs></svg>