<svg xmlns="http://www.w3.org/2000/svg" width="49.509" height="64" fill="none" viewBox="0 0 41 53"><g clip-path="url(#a)"><path fill="#005CB9" fill-rule="evenodd" d="M.118 25.854c.097-.2.287-.398.472-.493.276-.141.536-.156 2.347-.133 2.299.028 2.476.071 2.776.673.092.182.29.853.441 1.49.151.637.916 3.823 1.7 7.081 2.228 9.261 2.626 10.864 2.835 12.49.06.475.105.951.174 1.62.096.926.187 1.697.203 1.713.015.015.12-.562.232-1.284.112-.72.315-1.872.45-2.558.375-1.901 5.293-20.342 5.504-20.64.098-.138.304-.32.458-.405.243-.134.604-.159 2.688-.183 1.558-.017 2.534.008 2.768.071.425.115.918.522 1.053.87.053.134.38 1.307.726 2.605.347 1.299 1.323 4.926 2.168 8.062 2.359 8.742 2.4 8.908 2.69 10.655.15.9.298 1.868.33 2.15.032.281.084.512.116.512.031 0 .13-.552.218-1.225.331-2.52.706-4.39 2.656-13.25 1.1-4.997 2.04-9.23 2.09-9.408.14-.504.405-.773.908-.923.34-.102.895-.136 2.212-.136 1.319 0 1.833.032 2.059.127.306.129.578.524.578.84 0 .166-.516 2.12-4.077 15.423l-2.212 8.275c-.336 1.26-.679 2.365-.774 2.494a1.906 1.906 0 0 1-.473.41c-.285.169-.46.178-3.311.178-3.203 0-3.39-.022-3.69-.434-.081-.111-.348-.941-.592-1.844-1.32-4.867-4.46-16.725-4.578-17.288-.152-.723-.52-3.164-.618-4.11-.035-.332-.075-.593-.088-.578-.014.014-.09.587-.17 1.273-.228 1.953-.46 3.13-1.068 5.433-3.263 12.353-4.406 16.611-4.524 16.846-.077.152-.306.373-.509.49-.363.21-.41.213-3.07.242-1.485.016-2.91.003-3.166-.029-.661-.083-.95-.355-1.169-1.1-.27-.922-6.747-24.863-6.841-25.29-.068-.306-.053-.441.078-.712Z" clip-rule="evenodd"/><path fill="#F18902" d="M18.386.06c-.17.017-.848.115-1.505.217a20.899 20.899 0 0 0-5.971 1.925c-1.334.672-2.137 1.17-3.327 2.064C5.353 5.942 3.309 8.26 1.8 10.823c-.417.709-1.178 2.268-1.48 3.033-.2.507-.279.851-.28 1.24-.003.297.055.682.128.857.21.506.686.98 1.26 1.253.426.202.655.253 1.151.253.797 0 1.376-.209 1.908-.689.341-.308.508-.579.914-1.485.584-1.304 1.186-2.38 1.892-3.38.642-.909 2.601-2.91 3.478-3.55.778-.57 1.92-1.251 2.779-1.66 1.49-.707 3.483-1.25 5.279-1.438 3.85-.401 7.764.592 10.963 2.782.527.361 1.395 1.087 1.99 1.665 1.686 1.634 2.819 3.286 3.87 5.642.379.848.547 1.12.884 1.425.23.207.625.451.88.543.655.236 1.656.171 2.275-.147.506-.26.967-.741 1.164-1.215.073-.174.13-.562.129-.863-.003-.422-.078-.728-.328-1.338a24.824 24.824 0 0 0-3.47-5.868 25.06 25.06 0 0 0-1.72-1.87A21.057 21.057 0 0 0 27.38 1.08C24.96.283 23.07-.007 20.44.014c-.96.008-1.884.029-2.055.046Z"/></g><defs><clipPath id="a"><path fill="#fff" d="M0 0h41v53H0z"/></clipPath></defs></svg>