<svg xmlns="http://www.w3.org/2000/svg" width="156.098" height="64" fill="none" viewBox="0 0 100 41"><g clip-path="url(#a)"><path fill="#F49813" d="M51.165.022a28.6 28.6 0 0 1 10.549 1.614c5.074 1.784 9.61 5.054 12.928 9.29a28.6 28.6 0 0 1 3.64 6.06c.17.36.301.764.21 1.165a1.59 1.59 0 0 1-1.377 1.295c-.703.103-1.43-.336-1.68-1A25.29 25.29 0 0 0 57.962 3.77a25.5 25.5 0 0 0-11.569-.003c-5.41 1.248-10.365 4.357-13.86 8.677a25.2 25.2 0 0 0-3.627 6.007c-.2.502-.659.895-1.194.983a1.59 1.59 0 0 1-1.437-.463 1.59 1.59 0 0 1-.344-1.665c2.538-6.011 7.238-11.06 13.016-14.066A28.5 28.5 0 0 1 51.165.022"/><path fill="#3069B5" d="M46.433 18.529c-.022-.312.273-.546.566-.553.38-.01.76-.007 1.14-.002.265.01.574.186.572.483.014 3.493-.008 6.986.012 10.481 1.413-1.574 2.838-3.139 4.256-4.707.28-.276.5-.694.934-.73.586-.024 1.172-.01 1.758-.01.226-.02.478.188.399.43-.093.186-.263.314-.402.461-1.533 1.535-3.072 3.064-4.597 4.605 1.473 1.685 2.926 3.387 4.393 5.077.189.241.425.445.583.71.116.208-.076.46-.298.47-.487.027-.975 0-1.463.012-.254-.006-.529.031-.76-.1-.242-.14-.39-.39-.564-.6-1.415-1.784-2.82-3.575-4.24-5.357-.015 1.757-.004 3.513-.005 5.268-.006.203.035.447-.14.595-.281.271-.699.176-1.049.194-.31-.01-.674.057-.926-.172-.14-.11-.177-.297-.172-.463.004-5.365-.001-10.729.003-16.092m-6.439 4.934c.71-.229 1.51-.272 2.204.029.244.115.527.36.417.66-.111.379-.206.761-.339 1.133-.098.267-.407.366-.667.314-.585-.1-1.16-.294-1.76-.275-.419-.01-.805.215-1.091.507-.463.453-.702 1.085-.809 1.713-.085.454-.06.918-.065 1.377v5.781c.027.317-.3.532-.586.543-.392.006-.784.01-1.175-.003-.283-.015-.602-.222-.565-.54q-.005-5.353 0-10.704c-.024-.355.369-.548.677-.515.386.026.913-.12 1.164.27.191.451.282.939.46 1.394.54-.74 1.253-1.393 2.135-1.684M0 23.735c.109-.125.236-.26.418-.248.532-.005 1.066-.017 1.597.008.27.008.456.245.496.497.523 2.13 1.036 4.264 1.557 6.395.153.658.339 1.31.438 1.979.103.601.123 1.211.22 1.814.135-.86.256-1.725.487-2.566l2.043-7.629a.626.626 0 0 1 .615-.496c.592-.015 1.186-.005 1.778-.005.317-.014.657.171.734.497.508 1.854 1.01 3.712 1.517 5.568.308 1.202.71 2.383.884 3.616.048.34.095.68.165 1.018.191-1.938.689-3.823 1.098-5.72.338-1.51.669-3.02 1.01-4.53.05-.303.371-.456.653-.447.48-.003.959-.016 1.437.008.284.008.447.323.347.576q-1.438 5.328-2.88 10.657a.62.62 0 0 1-.589.511c-.742.025-1.486.006-2.228.01-.266.017-.547-.126-.594-.407-.665-2.442-1.316-4.888-1.974-7.332-.238-.85-.335-1.732-.435-2.607-.122.779-.183 1.57-.39 2.335q-1.012 3.776-2.027 7.551c-.076.408-.541.49-.887.463-.69-.013-1.38.016-2.07-.013-.246.001-.435-.19-.48-.423Q1.49 29.509.037 24.202c-.034-.154-.03-.312-.037-.467m87.045-.241q.757-.014 1.514 0a.75.75 0 0 1 .691.508c.87 2.277 1.734 4.56 2.603 6.839.182.462.31.944.39 1.434.36-1.351.838-2.667 1.258-4l1.405-4.33a.64.64 0 0 1 .563-.443c.411-.03.825-.004 1.237-.015.241.003.528-.025.712.168.12.101.094.27.044.4q-2.084 5.96-4.166 11.923c-.241.662-.427 1.355-.815 1.95-.558.907-1.461 1.56-2.454 1.913-.347.108-.706.347-1.079.213-.264-.068-.366-.344-.507-.547-.102-.183-.29-.353-.25-.582.018-.227.2-.412.414-.473.418-.145.844-.304 1.183-.6.825-.699 1.334-1.731 1.529-2.783-.132-.467-.376-.896-.552-1.348q-1.988-4.63-3.982-9.26c-.08-.202-.198-.395-.22-.614.003-.24.278-.346.482-.353m-61.833 1.493a2.57 2.57 0 0 0-1.75 1.228c-.614 1.042-.685 2.299-.657 3.48.044 1.07.215 2.21.897 3.076.508.65 1.343.977 2.155.964.78.025 1.599-.24 2.128-.835.676-.74.893-1.768.986-2.737.041-.952.06-1.921-.186-2.85-.196-.786-.61-1.571-1.327-1.994-.667-.41-1.49-.448-2.246-.332m.305-1.694c1.31-.08 2.681.191 3.762.968.966.689 1.622 1.75 1.929 2.887a8.5 8.5 0 0 1 .032 4.174c-.311 1.258-1.04 2.445-2.138 3.16-1.174.78-2.648.983-4.026.817-1.174-.145-2.317-.66-3.135-1.527-.96-1.008-1.437-2.396-1.536-3.769-.121-1.522.112-3.133.957-4.433.625-.978 1.62-1.696 2.729-2.024.462-.145.945-.212 1.426-.253m38.61 1.632c-.718.046-1.41.46-1.731 1.116-.626 1.213-.639 2.625-.607 3.96.05.871.144 1.77.55 2.558.274.53.772.949 1.36 1.077.902.217 1.963.033 2.603-.68.618-.704.82-1.66.916-2.566.065-1.033.069-2.087-.187-3.097-.176-.676-.474-1.35-1.008-1.82-.513-.452-1.227-.626-1.896-.548m3.087-6.546c-.016-.273.263-.448.506-.47.389-.02.779-.01 1.168-.006.297-.003.63.218.586.549v16.165c.02.278-.254.494-.51.511a8 8 0 0 1-.93-.005.57.57 0 0 1-.502-.362c-.116-.35-.177-.714-.266-1.07-.43.584-.983 1.1-1.671 1.356-.982.362-2.075.368-3.084.122a3.73 3.73 0 0 1-2.385-1.86c-.768-1.402-.859-3.051-.81-4.615.026-1.336.281-2.746 1.15-3.806.656-.899 1.73-1.415 2.815-1.55 1.01-.147 2.105.023 2.94.636.396.278.712.652.995 1.042q-.01-3.317-.002-6.636Zm10.866 6.613a2.4 2.4 0 0 0-1 .444c-.583.454-.872 1.175-1.026 1.876-.225 1.11-.222 2.258-.106 3.382.109.826.316 1.707.92 2.317.492.517 1.235.707 1.93.673.746.027 1.523-.251 2.005-.84.602-.729.772-1.7.86-2.614.056-1.075.057-2.176-.245-3.22-.19-.65-.539-1.297-1.127-1.667-.647-.426-1.466-.465-2.212-.35Zm-1-1.476a6.54 6.54 0 0 1 3.192-.064c.972.226 1.883.773 2.481 1.582.632.83.951 1.86 1.084 2.886.115.791.082 1.592.083 2.39q.001 2.157-.004 4.314c.016.175-.095.33-.237.422-.241.148-.54.083-.809.1-.301-.003-.698.024-.862-.29-.16-.37-.193-.782-.296-1.17-.404.492-.823 1-1.408 1.284-.892.441-1.934.416-2.888.229-1.167-.23-2.242-.922-2.902-1.918-.786-1.16-1.072-2.592-1.06-3.976-.01-1.349.253-2.744 1.002-3.885.599-.933 1.56-1.609 2.623-1.904Zm20.874 8.837c-.593.218-.966.902-.815 1.52.154.726.997 1.222 1.7.953.649-.198 1.058-.939.857-1.592-.177-.735-1.047-1.169-1.742-.881m.082-.31c.351-.056.733-.06 1.06.103.555.253.954.85.894 1.472.046.74-.576 1.403-1.287 1.522-.8.17-1.66-.41-1.823-1.209-.21-.804.348-1.709 1.156-1.889Z"/><path fill="#3069B5" d="M98.204 32.946a27 27 0 0 0 0 .506c.148-.01.3 0 .444-.04.137-.057.124-.232.086-.348-.14-.139-.351-.103-.53-.118m-.444-.274c.425.024.901-.096 1.284.141.309.232.16.737-.19.845.101.266.24.513.369.767l-.478.008a38 38 0 0 1-.336-.709l-.205-.004v.71l-.446-.005c.001-.585-.001-1.17.002-1.753"/></g><defs><clipPath id="a"><path fill="#fff" d="M0 0h100v40.094H0z"/></clipPath></defs></svg>