<svg xmlns="http://www.w3.org/2000/svg" width="156.098" height="64" fill="none" viewBox="0 0 100 41"><g clip-path="url(#a)"><path fill="#fff" fill-opacity=".96" d="M98.448 14.03a11 11 0 0 0-2.13-2.98 5 5 0 0 0-.564-.46 5 5 0 0 0-.468-.317h-.033l-.042-.025a6 6 0 0 0-.54-.252h-.047a4 4 0 0 0-1.453-.273h-.207a4 4 0 0 0-1.566.425c-.575.3-1.103.68-1.567 1.127h-.029l-.028.029a.4.4 0 0 1-.061.054l-.09.083c-.318.294-.637.613-1.008.985l-.262.268q-.499.49-.99.989c.102-1.74.212-3.521.3-5.29 0-.225.023-.46.042-.682.066-.772.082-1.55.047-2.324v-.19c-.047-.883-.12-2.214-1.019-3.355C86.074.993 84.76 0 82.255 0a13 13 0 0 0-1.693.124c-.921.129-1.83.334-2.716.613-2.786.898-4.395 2.301-4.799 4.208-.296 1.413.235 2.643.582 3.457l.074.176q.473 1.071 1.084 2.072l.339.594a373 373 0 0 0 2.622 4.603l-1.344-.46-.341-.12a38 38 0 0 0-1.346-.46l-.112-.032-.08-.023h-.076a6.8 6.8 0 0 0-1.914-.336h-.102a3.9 3.9 0 0 0-1.497.294 4 4 0 0 0-1.38.953q-.192.224-.365.461l-.028.037-.028.041a5.3 5.3 0 0 0-.577 1.133v.028a10.7 10.7 0 0 0-.587 3.576c-1.196-4.604-5.117-8.007-9.743-8.007a9.64 9.64 0 0 0-4.775 1.282 4.78 4.78 0 0 0-2.91-1.095 4.8 4.8 0 0 0-2.972.924V11.62a4.67 4.67 0 0 0-1.423-3.24 4.85 4.85 0 0 0-3.315-1.364c-1.26.005-2.467.5-3.356 1.377a4.62 4.62 0 0 0-1.383 3.301v5.032a5 5 0 0 0-.38-.438 11.27 11.27 0 0 0-4.977-2.97 10.95 10.95 0 0 0-5.84.005h-.051a10.25 10.25 0 0 0-4.156 2.173 4.56 4.56 0 0 0-1.715-1.891 4.7 4.7 0 0 0-2.48-.695c-.445 0-.886.063-1.313.187-2.346.696-3.284 2.934-3.856 4.268q-.077.186-.15.35c-.14.333-.276.627-.385.862q-.164.342-.3.696c-.066.179-.122.302-.187.46q-.587-1.17-1.187-2.335l-.236-.488c-.59-1.244-1.477-3.112-3.681-3.766a4.72 4.72 0 0 0-3.324.232 4.6 4.6 0 0 0-2.305 2.36c-1.066 2.473.257 4.654.965 5.824.508.83 1.16 1.928 1.77 3.072.26.46.36.654.937 1.753l.084.152.733 1.382c.174.317.365.68.59 1.105.24.46.512.957.812 1.51-.051.069-.103.142-.164.212l-.042.05-.066-.032a6.2 6.2 0 0 0-1.477-.516 5 5 0 0 0-1.103-.124c-.812 0-1.61.209-2.313.607a4.6 4.6 0 0 0-1.694 1.662 4.41 4.41 0 0 0 .062 4.555c1.407 2.301 4.273 3.14 6.502 3.14a8.3 8.3 0 0 0 1.758-.18c5.006-1.068 7.173-5.802 8.755-9.259l.318-.695a66 66 0 0 1 1.018-2.183l.315-.677a10.7 10.7 0 0 0 1.392 2.837 12 12 0 0 0 1.248 1.534c.466.467.974.893 1.515 1.274.547.374 1.132.696 1.741.962a9.4 9.4 0 0 0 1.942.645q.617.15 1.248.225.576.06 1.159.051h.341c1.39.002 2.77-.232 4.078-.69a10.5 10.5 0 0 0 1.74-.746 6.17 6.17 0 0 0 2.345-2.367 4.64 4.64 0 0 0 1.563 2.908 4.8 4.8 0 0 0 3.128 1.176 4.75 4.75 0 0 0 2.815-.921v1.455c0 1.233.5 2.416 1.388 3.288a4.78 4.78 0 0 0 3.35 1.362c1.257 0 2.462-.49 3.35-1.362a4.6 4.6 0 0 0 1.388-3.288v-1.27c1 .342 2.051.516 3.11.515 5.564 0 10.09-4.862 10.1-10.839q.172.545.469 1.037c.298.462.688.858 1.15 1.165a4.3 4.3 0 0 0 2.232.695h.366c.62-.015 1.235-.1 1.834-.257h.099l2.593-.576c-.407.552-.807 1.09-1.19 1.625l-.217.299c-.313.423-.582.797-.82 1.155l-.066.102-.048.07-.022.03v.034a6.6 6.6 0 0 0-.864 1.726 3.8 3.8 0 0 0-.15 1.607c.073.552.266 1.083.563 1.556v.023c.108.166.23.327.352.46l.028.028.024.032c.13.152.276.295.422.433q.258.25.554.461c.927.623 1.942 1.11 3.01 1.45a11 11 0 0 0 2.815.53h.273a4 4 0 0 0 .47-.024 5 5 0 0 0 .58-.078h.085a6 6 0 0 0 .582-.166h.028a4 4 0 0 0 1.407-.875c.386-.385.687-.844.886-1.348a6.5 6.5 0 0 0 .404-1.879v-.083a.4.4 0 0 0 0-.083v-.106c.042-.46.062-.883.084-1.381v-.708l.16.284.183.337c.254.46.469.847.694 1.215l.056.092.052.083v.028l.025.036c.36.547.798 1.038 1.302 1.46a3.9 3.9 0 0 0 1.408.833h.029c.406.134.832.203 1.261.203q.2-.001.398-.023h.044a5 5 0 0 0 .6-.102h.083q.29-.073.568-.183.332-.123.643-.29c.84-.46 1.612-1.029 2.299-1.69.81-.765 1.504-1.64 2.063-2.597a5 5 0 0 0 .49-1.211v-.078a5 5 0 0 0 .102-.58v-.06a3.9 3.9 0 0 0-.188-1.621 3.85 3.85 0 0 0-.863-1.381 6.9 6.9 0 0 0-1.544-1.18h-.033L96 24.353l-.075-.041-.094-.061c-.374-.216-.792-.46-1.233-.672l-.366-.194a47 47 0 0 0-1.77-.92l2.572-.585h.1a7.2 7.2 0 0 0 2.086-.732 4.2 4.2 0 0 0 1.694-1.584c.263-.47.424-.988.469-1.524.206-1.662-.507-3.131-.933-4.01z"/><path fill="#FF1A1A" d="m79.07 23.051 1.548-.351c.033-.008.087-.02.152-.04a1.7 1.7 0 0 0 1.022-.756c.228-.373.299-.817.2-1.24l-.006-.027a1.7 1.7 0 0 0-.264-.566 2.2 2.2 0 0 0-.632-.532 6 6 0 0 0-.897-.407l-1.697-.609c-.952-.348-1.904-.686-2.867-1.016-.623-.217-1.15-.409-1.61-.55a5 5 0 0 1-.26-.077c-.554-.166-.944-.236-1.274-.238a1.54 1.54 0 0 0-1.202.505q-.116.13-.219.27-.198.301-.325.638a8.5 8.5 0 0 0-.465 2.838c.006.87.03 1.99.518 2.749.118.195.276.363.464.494.348.235.698.267 1.065.293.547.038 1.076-.093 1.604-.214l5.142-1.165zm17.268-8.064a8.6 8.6 0 0 0-1.68-2.351 3.2 3.2 0 0 0-.577-.433 3 3 0 0 0-.319-.15 1.56 1.56 0 0 0-1.305.065c-.295.143-.615.375-1.04.762-.058.057-.131.122-.198.183-.35.323-.74.722-1.204 1.186a173 173 0 0 0-2.124 2.147l-1.256 1.28a6 6 0 0 0-.624.752 2.1 2.1 0 0 0-.332.75c-.033.207-.028.418.015.623l.006.027c.1.422.362.79.733 1.028.37.236.82.323 1.254.24q.079-.01.156-.029l6.69-1.518c.528-.12 1.063-.23 1.537-.5.318-.18.62-.359.828-.72a1.6 1.6 0 0 0 .196-.644c.103-.896-.373-1.912-.756-2.698M84.36 17.748c.485-.598.485-1.488.527-2.218.147-2.434.3-4.868.423-7.304.046-.922.147-1.832.09-2.762-.045-.766-.05-1.647-.544-2.277-.87-1.11-2.727-1.019-3.994-.846q-.585.08-1.163.215c-.578.135-.768.19-1.14.308-1.216.39-2.926 1.108-3.214 2.483-.165.777.223 1.571.522 2.281.364.86.86 1.634 1.313 2.443 1.197 2.137 2.415 4.26 3.63 6.386.364.635.758 1.438 1.46 1.767q.072.03.143.053c.315.117.66.139.986.064l.059-.012c.303-.082.576-.244.791-.467q.059-.054.113-.114zm-.58 6.517a1.55 1.55 0 0 0-.768-.56 1.58 1.58 0 0 0-.956-.01 2 2 0 0 0-.213.087 2 2 0 0 0-.305.187 4 4 0 0 0-.727.73c-.053.068-.103.157-.168.215l-1.076 1.452c-.61.815-1.212 1.632-1.808 2.46-.39.536-.726.988-.994 1.387-.049.076-.101.16-.149.227-.319.484-.5.837-.592 1.152-.07.21-.092.431-.066.65.03.226.109.445.23.641q.096.147.208.284.244.274.541.489c.743.507 1.556.872 2.412 1.154.712.232 1.452.37 2.2.412q.192.01.383-.007.177-.016.35-.049.176-.04.344-.097c.219-.081.418-.206.584-.367a1.5 1.5 0 0 0 .356-.547c.124-.306.206-.691.26-1.264.004-.082.017-.18.026-.269.042-.476.062-1.037.092-1.694q.079-1.515.127-3.027l.07-1.796c.015-.412.002-.871-.115-1.282a1.9 1.9 0 0 0-.246-.558m12.149 2.81c-.224-.243-.542-.483-1.044-.78-.072-.04-.158-.093-.236-.14-.418-.248-.922-.506-1.51-.82-.903-.488-1.807-.961-2.72-1.432l-1.614-.84c-.083-.024-.167-.083-.247-.12a4 4 0 0 0-.98-.343 1.8 1.8 0 0 0-.587-.023 1.56 1.56 0 0 0-.853.422 1.5 1.5 0 0 0-.439.833 1.9 1.9 0 0 0 .024.603c.078.422.27.838.468 1.203l.86 1.585c.48.893.965 1.781 1.463 2.667.32.577.588 1.071.838 1.481.047.077.1.16.141.232.305.492.549.802.796 1.025a1.56 1.56 0 0 0 1.253.415q.177-.022.352-.061.358-.094.685-.265a8.5 8.5 0 0 0 1.794-1.318c.644-.622 1.213-1.3 1.656-2.076q.092-.165.159-.342.062-.163.108-.33a3 3 0 0 0 .06-.346 1.6 1.6 0 0 0-.079-.675 1.5 1.5 0 0 0-.348-.556z"/><path fill="#000" fill-rule="evenodd" d="M40.4 11.664c0-1.306 1.083-2.372 2.39-2.372 1.29 0 2.337 1.066 2.393 2.391v18.515c0 1.305-1.084 2.372-2.392 2.372a2.43 2.43 0 0 1-1.7-.697 2.31 2.31 0 0 1-.691-1.675zM38.176 23.1c-.018.367-.112 1.048-.596 1.545-.524.533-1.234.661-1.645.661q-2.565.014-5.128.018-2.566.007-5.128.019c.149.46.447 1.159 1.12 1.802.41.387.803.606.972.7.205.127.915.496 1.793.496.934 0 1.756-.296 2.56-.7l.066-.034c.56-.284 1.135-.577 1.746-.683.596-.091 1.233.018 1.7.424.56.478.785 1.176.578 1.893-.242.81-.933 1.508-1.662 1.93a8.3 8.3 0 0 1-1.307.607c-1.157.403-2.38.59-3.606.553-.298 0-.616 0-.934-.037a9 9 0 0 1-.99-.184 7 7 0 0 1-1.496-.497 8.2 8.2 0 0 1-1.364-.754 9 9 0 0 1-1.194-1.011 9 9 0 0 1-.99-1.213c-1.01-1.508-1.477-3.365-1.383-5.168.074-1.764.672-3.53 1.756-4.963.117-.18.253-.333.38-.477q.086-.095.162-.186c1.338-1.605 3.126-2.113 3.863-2.323l.04-.012a8.53 8.53 0 0 1 4.578 0c.356.093 2.355.699 3.905 2.335.075.073.281.313.542.663a8.7 8.7 0 0 1 1.436 2.95l.002.01c.112.404.224.955.224 1.635zM27.21 20.067a4.13 4.13 0 0 0-1.457 2.316h8.145a4.26 4.26 0 0 0-1.475-2.317 4.3 4.3 0 0 0-2.616-.92 4.24 4.24 0 0 0-2.598.92h.001Zm30.975-4.873c-2.13 0-4.073.938-5.455 2.464v-.056a2.32 2.32 0 0 0-.757-1.609 2.4 2.4 0 0 0-1.69-.625 2.4 2.4 0 0 0-1.651.716 2.32 2.32 0 0 0-.666 1.648V35.4a2.34 2.34 0 0 0 .697 1.665 2.424 2.424 0 0 0 1.695.688 2.393 2.393 0 0 0 1.694-.688 2.4 2.4 0 0 0 .518-.765c.12-.285.18-.592.179-.9v-5.517c1.382 1.508 3.307 2.465 5.455 2.465 4.279 0 7.753-3.807 7.753-8.55-.018-4.744-3.493-8.605-7.772-8.605ZM57.14 28.505c-2.43 0-4.41-2.079-4.41-4.67 0-2.611 1.962-4.69 4.41-4.69 2.428 0 4.408 2.079 4.408 4.69-.019 2.591-1.98 4.67-4.408 4.67M17.7 25.03l-.784 1.693a78 78 0 0 0-1.047 2.242l-.325.708c-1.494 3.26-3.265 7.13-7.13 7.952-1.868.405-4.688-.147-5.735-1.876-1.046-1.745.504-3.75 2.504-3.29.315.068.625.22.938.373.521.256 1.05.514 1.621.4.542-.092.878-.48 1.308-.976.597-.68.86-1.397.971-1.82l-.027-.064-.029-.064c-.486-.891-.911-1.687-1.266-2.352q-.299-.563-.602-1.123l-.815-1.518c-.596-1.11-.696-1.294-.96-1.773a67 67 0 0 0-1.83-3.181C3.8 19.22 3.09 17.952 3.67 16.609c.217-.52.626-.941 1.145-1.18a2.33 2.33 0 0 1 1.657-.106c1.202.357 1.735 1.481 2.232 2.53.091.19.18.379.271.558a503 503 0 0 1 2.372 4.69c.07.154.175.365.304.624.114.23.247.496.388.79l.207.425c.081.166.152.308.204.421q.548-1.335 1.102-2.666.555-1.33 1.102-2.666c.01-.049.097-.24.229-.526.11-.243.252-.554.406-.908l.158-.374c.485-1.16 1.07-2.554 2.365-2.935.46-.13.95-.118 1.402.037s.843.444 1.12.827c.28.386.392.827.41 1.27.015.975-.464 2.022-.877 2.92q-.152.33-.28.627l-.05.108c-.114.252-.425.936-.96 2.062-.192.402-.377.808-.565 1.216z" clip-rule="evenodd"/></g><defs><clipPath id="a"><path fill="#fff" d="M0 0h100v40.151H0z"/></clipPath></defs></svg>