<svg width="100" height="41" viewBox="0 0 100 41" fill="none" xmlns="http://www.w3.org/2000/svg">
<g clip-path="url(#clip0_1_349)">
<path d="M98.4477 14.0294C97.9121 12.9265 97.1924 11.9193 96.3182 11.0498C96.1424 10.8826 95.9545 10.7288 95.7545 10.5898C95.6045 10.4755 95.4485 10.3696 95.2864 10.2725H95.253L95.2106 10.2481C95.0348 10.1547 94.8553 10.0704 94.6712 9.99553H94.6235C94.1606 9.81614 93.6682 9.72379 93.1705 9.72341H92.9636C92.4167 9.75758 91.8833 9.90159 91.3977 10.148C90.8227 10.4476 90.2947 10.8273 89.8311 11.2755H89.8023L89.7742 11.3036C89.7561 11.3241 89.7356 11.3425 89.7129 11.3585L89.6235 11.4414C89.3053 11.7355 88.9856 12.0539 88.6152 12.4261L88.353 12.6945C88.0205 13.0213 87.6902 13.3508 87.3636 13.6829C87.4652 11.9429 87.575 10.1615 87.6629 8.39348C87.6629 8.16773 87.6864 7.93348 87.7053 7.71144C87.7712 6.93905 87.7871 6.1618 87.7523 5.387V5.19788C87.7053 4.31448 87.6311 2.98329 86.7333 1.84244C86.0742 0.993212 84.7591 0 82.2553 0C81.6886 0.00375228 81.1227 0.0453336 80.5621 0.124456C79.6409 0.252886 78.7318 0.457795 77.8455 0.736976C75.0597 1.63502 73.4511 3.0382 73.047 4.9453C72.7511 6.35825 73.282 7.58818 73.6288 8.40205L73.7034 8.57773C74.018 9.29152 74.3797 9.98333 74.7875 10.6495L75.1256 11.2438C75.9886 12.7843 76.8629 14.3189 77.7477 15.8474L76.4045 15.3874L76.0629 15.2679C75.5657 15.0885 75.1256 14.936 74.7166 14.8066L74.6047 14.7749L74.5252 14.7517H74.4493C73.8313 14.5486 73.1863 14.4355 72.5348 14.4161H72.4329C71.9189 14.414 71.4097 14.5141 70.9361 14.7102C70.4115 14.9274 69.9416 15.252 69.5561 15.6632C69.4279 15.8119 69.3059 15.9658 69.1907 16.1244L69.1633 16.161L69.1347 16.2025C68.8977 16.5563 68.7041 16.9364 68.5579 17.3348V17.3629C68.1598 18.5143 67.9614 19.7232 67.9711 20.9392C66.7752 16.3355 62.8542 12.9324 58.2283 12.9324C56.5492 12.9377 54.9016 13.3798 53.4533 14.2136C52.637 13.5361 51.6108 13.1503 50.5423 13.1192C49.4738 13.0883 48.4261 13.4138 47.5706 14.0428V11.6208C47.5417 10.4008 47.0318 9.23924 46.1482 8.38061C45.2646 7.522 44.0761 7.03323 42.8328 7.01714C41.5727 7.02166 40.3658 7.51683 39.4773 8.39394C38.5888 9.27106 38.0912 10.4583 38.0939 11.6952V16.7271C37.9756 16.5745 37.8491 16.4283 37.7147 16.2891C36.3505 14.8867 34.6335 13.8623 32.737 13.3192C30.827 12.7918 28.8056 12.7935 26.8965 13.3242H26.8455C25.3063 13.7199 23.883 14.4642 22.6896 15.4973C22.3127 14.7198 21.7182 14.0636 20.9754 13.6056C20.2327 13.1475 19.3723 12.9064 18.4952 12.9105C18.0501 12.9105 17.6087 12.9739 17.1823 13.0984C14.8364 13.7939 13.8979 16.0317 13.326 17.3665C13.2738 17.491 13.2265 17.6069 13.1768 17.7167C13.0351 18.0486 12.8996 18.3427 12.7914 18.5781C12.6824 18.8062 12.582 19.0383 12.4906 19.2736C12.4247 19.453 12.3688 19.5762 12.3041 19.7336C11.9126 18.9535 11.5168 18.1755 11.1169 17.3995L10.8807 16.9114C10.2902 15.6668 9.40379 13.7988 7.19962 13.1448C6.1008 12.8152 4.91641 12.898 3.87627 13.3771C2.83614 13.8562 2.01441 14.6974 1.57051 15.7376C0.505108 18.2096 1.82785 20.3913 2.53646 21.5614C3.04367 22.3911 3.6951 23.4892 4.3055 24.6326C4.56657 25.0926 4.66602 25.2866 5.24286 26.3859L5.32739 26.5385L6.05963 27.9197C6.23367 28.2369 6.42512 28.6005 6.65014 29.0252C6.89007 29.4852 7.16233 29.9817 7.46193 30.5345C7.41096 30.604 7.35875 30.6772 7.29783 30.7467L7.25556 30.7968L7.18967 30.7651C6.72186 30.5318 6.22552 30.3583 5.71278 30.2489C5.3512 30.1667 4.98127 30.1249 4.61008 30.1245C3.798 30.1242 3.00015 30.3338 2.2968 30.7322C1.59343 31.1306 1.00936 31.7037 0.603319 32.394C0.19768 33.0892 -0.0105234 33.8786 0.000409421 34.6798C0.0113423 35.4809 0.241011 36.2645 0.665478 36.9489C2.07152 39.2501 4.93828 40.0883 7.1673 40.0883C7.7578 40.0908 8.34833 40.031 8.92515 39.9089C13.9314 38.8413 16.0983 34.1071 17.6796 30.6504L17.9979 29.9549C18.3239 29.2214 18.6634 28.4936 19.0161 27.772L19.3305 27.0948C19.6503 28.1024 20.1195 29.0583 20.7229 29.9317C21.0958 30.4759 21.5123 30.9896 21.9711 31.4655C22.4373 31.9328 22.9445 32.3586 23.4865 32.7405C24.0335 33.1139 24.6178 33.436 25.227 33.702C25.8486 33.9875 26.4987 34.2023 27.1688 34.3475C27.579 34.4463 27.9967 34.522 28.417 34.572C28.8023 34.6123 29.1877 34.6293 29.5756 34.6233H29.9174C31.307 34.6247 32.6864 34.3911 33.9951 33.9326C34.5967 33.7373 35.1798 33.4873 35.7355 33.1871C36.7234 32.624 37.5345 31.8051 38.0802 30.82C38.2245 31.9432 38.7798 32.9766 39.6427 33.7279C40.5056 34.4792 41.6172 34.897 42.7707 34.9039C43.7864 34.9039 44.7734 34.5805 45.5864 33.9827V35.4383C45.5864 36.6715 46.0856 37.8543 46.9741 38.7264C47.8626 39.5984 49.0677 40.0883 50.3242 40.0883C51.5808 40.0883 52.7858 39.5984 53.6743 38.7264C54.5628 37.8543 55.062 36.6715 55.062 35.4383V34.1681C56.0614 34.5098 57.1132 34.6842 58.1724 34.683C63.7356 34.683 68.262 29.8207 68.272 23.8443C68.3864 24.2067 68.5442 24.5545 68.7407 24.8814C69.039 25.3427 69.4294 25.7392 69.8906 26.0455C70.5531 26.4794 71.3271 26.7205 72.1233 26.741H72.4889C73.1083 26.7264 73.7238 26.6401 74.3225 26.4836H74.422L77.0152 25.9077C76.6076 26.4604 76.2083 26.9985 75.8242 27.5329L75.608 27.8318C75.2947 28.2552 75.0261 28.6286 74.7875 28.9873L74.7216 29.0886L74.6743 29.1581L74.652 29.1898V29.2228C74.2801 29.7541 73.989 30.3357 73.788 30.9493C73.6238 31.4687 73.573 32.0163 73.6388 32.5563C73.7109 33.1078 73.9036 33.6386 74.2007 34.112V34.1352C74.3089 34.3011 74.4307 34.4622 74.5525 34.5952L74.5811 34.6233L74.6047 34.6549C74.7352 34.8075 74.8807 34.9502 75.0274 35.0881C75.1989 35.2552 75.3842 35.409 75.5806 35.5493C76.5083 36.1716 77.5227 36.6597 78.5917 36.9989C79.503 37.2966 80.4492 37.4747 81.4061 37.5284H81.6795C81.8364 37.53 81.9924 37.5223 82.1485 37.5052C82.3432 37.4894 82.5371 37.4638 82.7288 37.4271H82.8136C83.0098 37.382 83.2053 37.3258 83.3955 37.2612H83.4235C83.95 37.0693 84.4295 36.7713 84.8311 36.3864C85.2167 36.0007 85.5182 35.5419 85.7174 35.0381C85.9447 34.4343 86.0803 33.8013 86.1212 33.159V33.0761C86.1242 33.0485 86.1242 33.0207 86.1212 32.9931V32.887C86.1629 32.427 86.1826 32.0036 86.2045 31.5057V30.798L86.3651 31.0823L86.5477 31.4191C86.8015 31.8791 87.0167 32.2659 87.2417 32.6344L87.2985 32.7259L87.35 32.8089V32.8369L87.375 32.8735C87.7341 33.4202 88.1727 33.9107 88.6773 34.3328C89.0818 34.705 89.5598 34.9892 90.0848 35.1662H90.1136C90.5197 35.3004 90.9462 35.3687 91.375 35.3687C91.5083 35.3687 91.6409 35.3602 91.7727 35.3455H91.8167C92.0182 35.3236 92.2182 35.2907 92.4167 35.2443H92.5C92.6932 35.1955 92.8833 35.1333 93.0682 35.0613C93.2894 34.9795 93.5038 34.8819 93.7114 34.7708C94.5508 34.3106 95.3235 33.7423 96.0098 33.0809C96.8197 32.3159 97.5144 31.4416 98.0735 30.4845C98.2894 30.103 98.453 29.6958 98.5621 29.2728V29.1948C98.6083 29.0038 98.6424 28.8102 98.6652 28.6152V28.5542C98.7182 28.0071 98.6538 27.4552 98.4773 26.9338C98.2924 26.4185 97.9977 25.9477 97.6136 25.5526C97.1591 25.0894 96.6394 24.6925 96.0705 24.3739H96.0371L96 24.3519L95.925 24.3105L95.8311 24.2495C95.4568 24.0335 95.0386 23.7895 94.5977 23.5783L94.2318 23.3843C93.6492 23.065 93.0591 22.7579 92.4629 22.4631L95.0341 21.8786H95.1333C95.8636 21.7433 96.5674 21.4963 97.2197 21.1466C97.925 20.7859 98.5121 20.2369 98.9136 19.5628C99.1773 19.093 99.3379 18.5745 99.3826 18.0389C99.5886 16.377 98.8765 14.9079 98.45 14.0294H98.4477Z" fill="white" fill-opacity="0.96"/>
<path d="M79.0706 23.0512L80.6183 22.6997C80.6509 22.6924 80.7054 22.6802 80.7698 22.6594C81.1971 22.5469 81.5638 22.276 81.7918 21.9036C82.0198 21.5313 82.091 21.0866 81.9918 20.6633L81.9857 20.6365C81.9342 20.4337 81.8448 20.242 81.7221 20.0715C81.5486 19.8556 81.3342 19.6749 81.0903 19.5395C80.8039 19.3791 80.5032 19.2427 80.1933 19.132L78.4963 18.5232C77.5441 18.1754 76.5918 17.8374 75.6293 17.5067C75.0065 17.2896 74.4782 17.098 74.0194 16.9577C73.9321 16.934 73.8454 16.9079 73.7596 16.8796C73.2051 16.7136 72.8147 16.6441 72.4854 16.6416C72.2651 16.6336 72.0458 16.6728 71.8426 16.7563C71.6303 16.8466 71.4397 16.9796 71.2832 17.1468C71.2055 17.2333 71.1325 17.3238 71.0644 17.4177C70.9319 17.6174 70.8227 17.831 70.7387 18.0546C70.4234 18.9685 70.2663 19.9278 70.2737 20.8927C70.2799 21.7639 70.3035 22.8828 70.7921 23.6417C70.9102 23.8369 71.0681 24.0053 71.2558 24.1359C71.6039 24.3713 71.9544 24.4031 72.3212 24.4287C72.8682 24.4666 73.3966 24.336 73.9249 24.2152L79.0668 23.0499L79.0706 23.0512ZM96.338 14.9871C95.916 14.1167 95.3479 13.3219 94.6577 12.6359C94.5683 12.5486 94.4729 12.4678 94.3713 12.3943C94.2782 12.3255 94.1812 12.2616 94.0804 12.2027C93.9774 12.1472 93.8713 12.0971 93.7622 12.0526C93.5479 11.9698 93.3176 11.9324 93.0872 11.9428C92.8676 11.955 92.6524 12.016 92.4569 12.1173C92.1622 12.2613 91.8425 12.4932 91.4175 12.8799C91.3592 12.9372 91.2857 13.0019 91.2191 13.0629C90.8691 13.3863 90.4789 13.7853 90.0153 14.2489C89.2979 14.9603 88.5933 15.6753 87.891 16.3964L86.635 17.6751C86.4062 17.9084 86.1971 18.1602 86.0107 18.428C85.8516 18.6546 85.7388 18.9094 85.6789 19.1784C85.6456 19.385 85.6509 19.5958 85.6941 19.8007L85.7001 19.8275C85.7994 20.2503 86.0622 20.6189 86.4327 20.8556C86.8032 21.0923 87.2532 21.1786 87.6873 21.0965C87.7395 21.0892 87.791 21.0794 87.8425 21.0672L94.5327 19.5493C95.0615 19.4297 95.5963 19.3199 96.0698 19.0491C96.388 18.8697 96.6903 18.6903 96.8979 18.3291C97.0085 18.1302 97.0751 17.9107 97.0941 17.6849C97.1971 16.7893 96.7213 15.7729 96.338 14.9871ZM84.36 17.7483C84.8448 17.1504 84.8448 16.2597 84.8873 15.5301C85.0342 13.0959 85.1865 10.6616 85.31 8.22626C85.3562 7.30378 85.4569 6.39355 85.4009 5.46378C85.3547 4.69752 85.3494 3.81657 84.8562 3.18697C83.9857 2.07662 82.1289 2.16814 80.8615 2.34139C80.4713 2.39438 80.0835 2.46605 79.6994 2.55614C79.3138 2.64643 78.9312 2.74527 78.5585 2.86362C77.3426 3.25408 75.6331 3.97153 75.3446 5.34664C75.1805 6.12389 75.5684 6.91821 75.8668 7.62838C76.2312 8.48732 76.7274 9.26217 77.1797 10.0711C78.3766 12.2076 79.5948 14.3319 80.81 16.4574C81.1736 17.0919 81.5683 17.8947 82.2706 18.2242C82.3176 18.2438 82.3645 18.2608 82.413 18.2766C82.7282 18.3938 83.0721 18.4157 83.3994 18.3413L83.4577 18.3291C83.7607 18.2474 84.0342 18.0851 84.2494 17.8618C84.2895 17.8252 84.3251 17.7886 84.3615 17.7483H84.36ZM83.7797 24.2652C83.5903 24.004 83.3221 23.8082 83.0122 23.7058C82.7032 23.6035 82.3683 23.5998 82.0562 23.6954C81.9835 23.7191 81.9115 23.7481 81.8426 23.782C81.7357 23.8355 81.6342 23.8979 81.538 23.9687C81.2645 24.1803 81.0198 24.426 80.8107 24.6996C80.7577 24.7667 80.7077 24.8557 80.6433 24.9144L79.5668 26.3663C78.9569 27.1814 78.3547 27.9977 77.7592 28.8262C77.3683 29.3618 77.0327 29.8145 76.7653 30.2135C76.716 30.2891 76.6638 30.3721 76.616 30.4404C76.2971 30.9236 76.1168 31.2775 76.0236 31.5922C75.9539 31.8014 75.9319 32.023 75.9585 32.2414C75.9888 32.4683 76.0668 32.6867 76.1872 32.8832C76.2524 32.9808 76.3221 33.076 76.3963 33.1675C76.5577 33.3495 76.7388 33.5132 76.9372 33.6556C77.6804 34.1632 78.4933 34.5279 79.3486 34.8098C80.0615 35.0416 80.8009 35.1807 81.5494 35.2222C81.6774 35.2283 81.8054 35.2259 81.9319 35.2149C82.0501 35.2041 82.1668 35.1878 82.2827 35.1661C82.3986 35.1396 82.5138 35.107 82.6259 35.0685C82.8448 34.988 83.0441 34.8633 83.21 34.7025C83.3683 34.5475 83.4903 34.3608 83.566 34.1546C83.6903 33.8495 83.7721 33.464 83.8266 32.8905C83.8304 32.8088 83.8433 32.7111 83.8516 32.6221C83.8941 32.1462 83.9138 31.585 83.9441 30.9285C83.9971 29.917 84.038 28.9103 84.0706 27.9013L84.1403 26.1052C84.1562 25.6928 84.1426 25.234 84.0259 24.8228C83.9744 24.6253 83.891 24.4371 83.7797 24.2652ZM95.9289 27.0752C95.7054 26.8324 95.3872 26.592 94.885 26.2944C94.813 26.2541 94.7266 26.2016 94.6486 26.1552C94.2312 25.9075 93.7274 25.6488 93.1395 25.3353C92.2357 24.8472 91.3319 24.3738 90.4183 23.9028L88.8054 23.0634C88.7221 23.0389 88.638 22.9803 88.5585 22.9425C88.2486 22.7871 87.9191 22.6719 87.5789 22.5997C87.4615 22.5775 87.3426 22.5652 87.2229 22.5631C87.1456 22.5627 87.0683 22.5672 86.9918 22.5765C86.6691 22.6254 86.3706 22.7732 86.138 22.9986C85.9062 23.2241 85.7524 23.5158 85.6994 23.832C85.6751 24.0334 85.6827 24.2372 85.7229 24.4348C85.8009 24.857 85.9925 25.2731 86.191 25.6378L87.0516 27.2228C87.5312 28.116 88.016 29.0043 88.5138 29.8901C88.8342 30.4672 89.1016 30.9614 89.3516 31.3714C89.3986 31.4483 89.4524 31.5313 89.4933 31.6032C89.7979 32.095 90.0418 32.4049 90.2888 32.6282C90.4539 32.7838 90.6516 32.9016 90.8683 32.9733C91.085 33.045 91.3145 33.0688 91.5418 33.043C91.66 33.0289 91.7774 33.0085 91.8941 32.982C92.1319 32.9195 92.3615 32.8307 92.5789 32.7172C93.2335 32.3572 93.8365 31.9142 94.3729 31.3994C95.0168 30.7772 95.5857 30.0988 96.0289 29.3228C96.091 29.2129 96.1433 29.0994 96.188 28.9811C96.2297 28.8728 96.2653 28.7624 96.2956 28.6504C96.3221 28.5357 96.3418 28.421 96.3554 28.3051C96.3782 28.0773 96.3509 27.8475 96.2774 27.6304C96.2039 27.4221 96.0857 27.2321 95.9289 27.074V27.0752Z" fill="#FF1A1A"/>
<path fill-rule="evenodd" clip-rule="evenodd" d="M40.4002 11.6636C40.4002 10.3581 41.483 9.29163 42.7909 9.29163C44.0801 9.29163 45.1268 10.3581 45.1827 11.6831V30.1978C45.1827 31.5034 44.0987 32.5698 42.7909 32.5698C42.4748 32.5697 42.1618 32.508 41.8702 32.3884C41.5785 32.2689 41.3138 32.0937 41.0915 31.8731C40.8693 31.6526 40.6937 31.3909 40.575 31.1034C40.4564 30.8159 40.397 30.5081 40.4002 30.1978V11.6636ZM38.1762 23.1002C38.1576 23.4675 38.0643 24.1483 37.5795 24.6449C37.0562 25.1781 36.3462 25.3062 35.9348 25.3062C34.2254 25.3159 32.516 25.3209 30.8067 25.3245C29.0973 25.3294 27.3879 25.3343 25.6786 25.3428C25.8277 25.8028 26.1261 26.5019 26.7986 27.145C27.2089 27.5318 27.6018 27.7514 27.7708 27.8441C27.9759 27.9722 28.6858 28.3407 29.5635 28.3407C30.4983 28.3407 31.3201 28.0455 32.1244 27.6416L32.1903 27.6074C32.7497 27.3231 33.3253 27.0303 33.9358 26.9241C34.5324 26.8326 35.169 26.9425 35.6352 27.3475C36.1958 27.8259 36.4208 28.5237 36.2145 29.2412C35.9721 30.0502 35.2808 30.7494 34.5524 31.1715C34.1354 31.411 33.6978 31.6139 33.2446 31.7779C32.0883 32.1806 30.8656 32.3681 29.6393 32.3306C29.3409 32.3306 29.0227 32.3306 28.7045 32.2941C28.3688 32.2575 28.0331 32.183 27.7149 32.1098C27.199 32 26.6972 31.8334 26.2193 31.6132C25.7412 31.4052 25.2846 31.1527 24.8555 30.8591C24.4277 30.5573 24.0279 30.2188 23.6608 29.8476C23.2959 29.4719 22.9644 29.0661 22.6701 28.6348C21.6618 27.1267 21.1944 25.2696 21.2877 23.4675C21.3622 21.7031 21.9602 19.9375 23.0443 18.5038C23.1612 18.3232 23.2966 18.1707 23.4246 18.0267C23.4806 17.9633 23.5353 17.9023 23.5863 17.8412C24.924 16.2356 26.7116 15.728 27.4488 15.5181L27.4899 15.5059C28.9861 15.0889 30.571 15.0889 32.0672 15.5059C32.4228 15.5986 34.4218 16.205 35.9721 17.8412C36.0467 17.9145 36.253 18.1537 36.5141 18.5038C37.1772 19.39 37.6643 20.3909 37.9499 21.4541L37.9524 21.4639C38.0643 21.8678 38.1762 22.4193 38.1762 23.0989V23.1002ZM27.2102 20.0669C26.4725 20.6556 25.9591 21.4717 25.7531 22.3827H33.8984C33.6786 21.4725 33.1602 20.6584 32.4228 20.0656C31.68 19.481 30.7592 19.1575 29.8071 19.1469C28.8602 19.1561 27.9443 19.48 27.2089 20.0656L27.2102 20.0669ZM58.1852 15.1935C56.0556 15.1935 54.1125 16.1319 52.7301 17.6582V17.6022C52.7024 16.9891 52.4304 16.4114 51.9727 15.9934C51.515 15.5754 50.9083 15.3507 50.2833 15.3677C49.6584 15.3847 49.0653 15.6419 48.6319 16.0841C48.1984 16.5262 47.9594 17.1179 47.9662 17.7315V35.4006C47.9648 35.7096 48.0255 36.0158 48.1452 36.3016C48.2648 36.5874 48.4408 36.8472 48.6631 37.0659C48.8855 37.2847 49.1496 37.4581 49.4405 37.5763C49.7315 37.6944 50.0433 37.7549 50.3581 37.7543C50.6728 37.7547 50.9846 37.6941 51.2753 37.5759C51.566 37.4578 51.8301 37.2843 52.0523 37.0655C52.2745 36.8468 52.4504 36.5871 52.5699 36.3013C52.6895 36.0156 52.7502 35.7094 52.7487 35.4006V29.8842C54.1312 31.3924 56.0556 32.349 58.2038 32.349C62.4828 32.349 65.9575 28.5421 65.9575 23.7981C65.9389 19.0553 62.4642 15.1935 58.1852 15.1935ZM57.1396 28.5055C54.7105 28.5055 52.7301 26.4275 52.7301 23.8359C52.7301 21.2248 54.6918 19.1469 57.1396 19.1469C59.5676 19.1469 61.548 21.2248 61.548 23.8359C61.5293 26.4275 59.5676 28.5055 57.1396 28.5055ZM17.7011 25.0304L16.9166 26.7228C16.5611 27.4573 16.2055 28.2114 15.8699 28.9655L15.5454 29.6731C14.0511 32.9334 12.2796 36.8038 8.41577 37.625C6.54729 38.03 3.72652 37.4785 2.67977 35.7495C1.63425 34.0035 3.18449 31.9987 5.18352 32.4587C5.49929 32.5271 5.80884 32.6784 6.12212 32.8322C6.64302 33.0884 7.17136 33.3458 7.7432 33.2312C8.28524 33.1397 8.62092 32.7528 9.05108 32.2562C9.64774 31.5766 9.91009 30.8591 10.022 30.4357L9.99464 30.3723C9.98592 30.3504 9.97646 30.3288 9.966 30.3076C9.47994 29.4169 9.05479 28.6214 8.70047 27.9564C8.5013 27.5809 8.30032 27.2062 8.09752 26.8326L7.28325 25.3147C6.68652 24.2044 6.58707 24.0214 6.32352 23.5419C5.74249 22.4655 5.13187 21.4048 4.49232 20.3609C3.80111 19.22 3.09125 17.9523 3.67058 16.6089C3.88832 16.0888 4.2972 15.6679 4.81619 15.4297C5.33518 15.1916 5.92641 15.1534 6.4727 15.3228C7.67486 15.6803 8.2082 16.8041 8.70547 17.8534C8.79623 18.0438 8.88449 18.2317 8.97646 18.4111C9.77956 19.9741 10.564 21.5372 11.3484 23.1002C11.418 23.2551 11.5225 23.4662 11.6518 23.7249C11.7662 23.9543 11.8992 24.2215 12.0396 24.5156L12.2473 24.9402C12.328 25.1061 12.399 25.2476 12.4512 25.3611C12.8154 24.4704 13.1846 23.5834 13.5526 22.695C13.9218 21.808 14.2911 20.9209 14.6553 20.0291C14.6652 19.9802 14.7523 19.7899 14.884 19.5031C14.9947 19.2603 15.1364 18.9492 15.2905 18.5953L15.4484 18.2207C15.9333 17.0616 16.5176 15.6669 17.813 15.2862C18.2727 15.1553 18.7627 15.1681 19.2147 15.3229C19.6668 15.4778 20.0584 15.7669 20.3354 16.1501C20.6151 16.5357 20.727 16.9774 20.7456 17.4191C20.7605 18.3952 20.2807 19.4422 19.868 20.3402C19.7685 20.5598 19.6715 20.7697 19.5882 20.9673L19.5385 21.0747C19.4241 21.3272 19.1133 22.0106 18.5787 23.1368C18.3861 23.5394 18.2008 23.9445 18.0131 24.3533L17.7011 25.0304Z" fill="black"/>
</g>
<defs>
<clipPath id="clip0_1_349">
<rect width="100" height="40.1515" fill="white"/>
</clipPath>
</defs>
</svg>
