<svg xmlns="http://www.w3.org/2000/svg" width="48.485" height="64" fill="none" viewBox="0 0 50 66"><g clip-path="url(#a)"><path fill="#ff1919" d="M1.273 31.693C.205 33.403-.243 38.783.129 42.349c.13 1.176.345 2.158.653 2.746.426.81 1.144 1.295 1.959 1.322.523.027.852-.065 10.699-3.232 0 0 4.375-1.398 4.397-1.408 1.09-.28 1.829-1.284 1.9-2.563.07-1.317-.605-2.477-1.727-2.892 0 0-3.087-1.257-3.092-1.257C4.332 30.7 3.858 30.527 3.323 30.522c-.82-.027-1.543.383-2.05 1.17Zm23.675 32.529c.173-.497.194-.837.221-11.185 0 0 .022-4.57.027-4.619.07-1.122-.652-2.142-1.84-2.6-1.224-.47-2.54-.178-3.28.739 0 0-2.158 2.563-2.169 2.563-7.413 8.708-7.726 9.113-7.904 9.625a2.1 2.1 0 0 0-.119.95c.043.464.254.917.599 1.343 1.721 2.045 9.965 5.077 12.598 4.624.923-.156 1.587-.669 1.867-1.44m16.731-3.6c2.488-.992 7.91-7.887 8.293-10.547.135-.923-.156-1.721-.793-2.229-.416-.312-.734-.436-10.58-3.668 0 0-4.317-1.425-4.376-1.452-1.047-.404-2.24-.027-3.038.96-.836 1.015-.96 2.358-.291 3.367l1.737 2.828c5.843 9.49 6.291 10.16 6.712 10.488.647.513 1.473.6 2.336.254Zm-5.088-24.43c11.185-2.708 11.622-2.854 12.06-3.145.679-.459 1.019-1.22.96-2.147 0-.027.005-.06 0-.092-.286-2.752-5.1-9.895-7.473-11.055-.842-.405-1.683-.378-2.38.091-.431.28-.75.707-6.738 8.903 0 0-2.703 3.685-2.736 3.723-.712.868-.723 2.11-.027 3.178.723 1.105 1.943 1.64 3.06 1.332 0 0-.044.081-.054.092.55-.21 1.532-.453 3.328-.88m-11.227-9.236c-.195-4.436-1.527-24.177-1.684-25.09-.226-.83-.874-1.418-1.802-1.656C19.018-.496 8.104 2.563 6.08 4.645c-.653.68-.89 1.511-.696 2.25.319.653 13.845 21.933 13.845 21.933 1.996 3.242 3.631 2.735 4.165 2.568.529-.157 2.153-.664 1.97-4.44"/></g><defs><clipPath id="a"><path fill="#fff" d="M0 0h50v65.824H0z"/></clipPath></defs></svg>