<svg xmlns="http://www.w3.org/2000/svg" width="142.222" height="64" fill="none" viewBox="0 0 100 45"><g fill="#ff4600" clip-path="url(#a)"><path fill-rule="evenodd" d="M67.088 5.219h-3.66l2.588-2.574a6.2 6.2 0 0 0-1.478-1.47L61.949 3.75V.109a6.4 6.4 0 0 0-1.041-.087H60.9a6.5 6.5 0 0 0-1.04.087v3.64l-2.59-2.574a6.3 6.3 0 0 0-.8.674l-.001.001a6 6 0 0 0-.677.795l2.589 2.574h-3.66s-.088.683-.088 1.037v.004q0 .53.087 1.037h3.66L55.793 9.87a6.3 6.3 0 0 0 1.479 1.47l2.588-2.573v3.64q.509.085 1.04.086h.01q.532 0 1.04-.087v-3.64l2.59 2.574a6.3 6.3 0 0 0 1.478-1.47l-2.59-2.573h3.661q.086-.505.087-1.035v-.008q0-.53-.087-1.035Zm-4.857 2.358c.155-.41.24-.853.24-1.316v-.006c0-.463-.085-.907-.24-1.316a3.8 3.8 0 0 0-1.324-.24h-.006a3.8 3.8 0 0 0-1.324.24 3.7 3.7 0 0 0-.24 1.316v.006c0 .463.085.907.24 1.316.412.154.858.24 1.324.24h.006c.466 0 .912-.086 1.324-.24m10.981 24.148q-1.568-1.465-1.644-4.62h13.185q.038-.413.075-.996.038-.582.038-1.108 0-1.915-.529-3.55-.528-1.632-1.548-2.816a7.15 7.15 0 0 0-2.532-1.86q-1.51-.675-3.513-.676-2.343 0-4.061.808-1.719.809-2.853 2.178-1.133 1.372-1.68 3.23-.548 1.86-.548 4 0 2.18.567 4.001a8.2 8.2 0 0 0 1.794 3.156q1.228 1.332 3.117 2.065 1.888.733 4.534.733 1.812-.001 3.305-.263a12.7 12.7 0 0 0 2.739-.789 9 9 0 0 0-.227-1.597q-.19-.807-.492-1.37-2.416.94-5.1.94-3.06-.001-4.627-1.466m7.953-7.4q0-1.05-.284-2.01a5.1 5.1 0 0 0-.831-1.67 4 4 0 0 0-1.398-1.146q-.85-.432-2.021-.433-2.305 0-3.533 1.39t-1.492 3.87h9.559ZM37.914 16.55a8 8 0 0 1 1.586-.15q.377 0 .794.037.415.038.793.113.038.075.094.47.057.394.114.845.056.45.113.864.056.412.056.526.378-.601.907-1.165a6 6 0 0 1 1.266-1.014 6.6 6.6 0 0 1 1.663-.713 7.5 7.5 0 0 1 2.058-.264q1.7 0 3.155.564a6.3 6.3 0 0 1 2.492 1.746q1.039 1.185 1.625 3.005.585 1.823.585 4.301 0 4.958-2.7 7.756-2.702 2.799-7.65 2.799-.832 0-1.7-.113a10 10 0 0 1-1.512-.3v8.827a13 13 0 0 1-1.889.15q-.415-.001-.925-.038a9 9 0 0 1-.925-.112zm5.213 16.49a7.4 7.4 0 0 1-1.474-.376V24.85q0-1.426.417-2.46.414-1.033 1.095-1.71.68-.675 1.549-1.013a5 5 0 0 1 1.813-.339q2.53.001 3.645 1.766t1.115 4.77q0 1.879-.473 3.249t-1.284 2.272a4.94 4.94 0 0 1-1.945 1.334q-1.134.432-2.494.432-1.209 0-1.964-.113Zm-12.962-9.917q0-2.216-1.133-3.08t-3.287-.863q-1.323 0-2.474.206-1.152.207-2.248.544-.718-1.238-.717-2.967 1.283-.413 2.833-.639a21 21 0 0 1 2.984-.225q3.777 0 5.742 1.71 1.965 1.708 1.965 5.464v12.058q-1.323.3-3.211.62-1.89.317-3.854.318-1.85 0-3.343-.338-1.493-.337-2.531-1.09a5.05 5.05 0 0 1-1.606-1.915q-.567-1.163-.566-2.817 0-1.614.66-2.836a5.9 5.9 0 0 1 1.795-2.028 8 8 0 0 1 2.607-1.201 12 12 0 0 1 3.098-.395q1.209.001 1.983.056.774.058 1.303.132zm-1.435 3.494q.87.075 1.435.15v6.122a11 11 0 0 1-1.643.281 17 17 0 0 1-1.795.095q-.678 0-1.435-.075a3.6 3.6 0 0 1-1.379-.413 2.86 2.86 0 0 1-1.039-.978q-.415-.637-.415-1.765-.001-1.764 1.228-2.629 1.226-.864 3.57-.864.603 0 1.473.076" clip-rule="evenodd"/><path d="m.734 35.294 10.2-15.777h-8.99a9 9 0 0 1-.114-1.502q0-.79.113-1.466h14.545l.189.49L6.4 32.852h9.634q.113.751.113 1.54a9 9 0 0 1-.113 1.428H.924zM59.856 19.48h-2.455a5 5 0 0 1-.113-.695 8 8 0 0 1 0-1.54q.038-.395.113-.696h6.12v19.27a9 9 0 0 1-.925.112q-.511.038-.926.038-.379 0-.888-.038a9 9 0 0 1-.925-.111V19.48Zm29.922-3.042q-.378.037-.794.112v19.27a13 13 0 0 0 1.89.15q.415-.001.924-.038a10 10 0 0 0 .927-.113V26.24q0-1.951.434-3.191.435-1.24 1.17-1.954a4.1 4.1 0 0 1 1.664-.995 6.7 6.7 0 0 1 1.945-.282h.51q.319 0 .623.075.075-.45.133-.94a8.3 8.3 0 0 0 .018-1.727 6 6 0 0 0-.113-.714 6 6 0 0 0-.548-.056 10 10 0 0 0-.623-.018q-2.04 0-3.343.938a7.8 7.8 0 0 0-2.097 2.217q0-.638-.114-1.56a21 21 0 0 0-.226-1.483 6 6 0 0 0-.756-.113 9 9 0 0 0-.83-.037 8 8 0 0 0-.794.038"/></g><defs><clipPath id="a"><path fill="#fff" d="M0 0h100v44.865H0z"/></clipPath></defs></svg>