<svg xmlns="http://www.w3.org/2000/svg" width="64" height="64" fill="none" viewBox="0 0 50 50"><g clip-path="url(#a)"><path fill="#FF4A00" d="M31.25 25.01a14.95 14.95 0 0 1-.96 5.28 14.99 14.99 0 0 1-5.28.96h-.02a14.988 14.988 0 0 1-5.28-.96 14.952 14.952 0 0 1-.96-5.28v-.02c0-1.803.324-3.591.959-5.278a14.94 14.94 0 0 1 5.28-.962h.021c1.804 0 3.593.325 5.28.962.636 1.686.96 3.474.96 5.277v.022Zm18.403-4.177H35.06l10.318-10.318a25.086 25.086 0 0 0-2.7-3.194 25.194 25.194 0 0 0-3.193-2.699l-10.32 10.319V.348A25.118 25.118 0 0 0 25.014 0h-.026c-1.416 0-2.802.121-4.154.348v14.593L10.515 4.622a24.961 24.961 0 0 0-3.191 2.7l-.006.004a25.154 25.154 0 0 0-2.697 3.189l10.32 10.318H.348S0 23.574 0 24.991v.018c0 1.417.12 2.806.348 4.158h14.593L4.621 39.486a25.176 25.176 0 0 0 5.893 5.893l10.32-10.32v14.594c1.37.23 2.758.346 4.148.347h.035a25.225 25.225 0 0 0 4.149-.347V35.059l10.32 10.32a25.19 25.19 0 0 0 3.191-2.7l.002-.002a25.238 25.238 0 0 0 2.699-3.191l-10.32-10.32h14.595c.227-1.349.345-2.734.347-4.148v-.036a25.137 25.137 0 0 0-.347-4.149Z"/></g><defs><clipPath id="a"><path fill="#fff" d="M0 0h50v50H0z"/></clipPath></defs></svg>