<svg xmlns="http://www.w3.org/2000/svg" width="142.222" height="64" fill="none" viewBox="0 0 100 45"><g fill="#FF4600" clip-path="url(#a)"><path fill-rule="evenodd" d="M67.088 5.219h-3.66l2.588-2.574a6.242 6.242 0 0 0-1.478-1.47L61.949 3.75V.109a6.403 6.403 0 0 0-1.041-.087H60.9c-.354.001-.702.031-1.04.087v3.64l-2.59-2.574a6.295 6.295 0 0 0-.8.674l-.001.001a6.176 6.176 0 0 0-.677.795l2.589 2.574h-3.66s-.088.683-.088 1.037v.004c0 .353.03.7.087 1.037h3.66L55.793 9.87a6.292 6.292 0 0 0 1.479 1.47l2.588-2.573v3.64c.339.056.686.086 1.04.086h.01c.354 0 .702-.03 1.04-.087v-3.64l2.59 2.574a6.28 6.28 0 0 0 1.478-1.47l-2.59-2.573h3.661c.057-.336.087-.682.087-1.035v-.008c0-.353-.03-.698-.087-1.035Zm-4.857 2.358c.155-.41.24-.853.24-1.316v-.006c0-.463-.085-.907-.24-1.316a3.763 3.763 0 0 0-1.324-.24h-.006a3.77 3.77 0 0 0-1.324.24 3.73 3.73 0 0 0-.24 1.316v.006c0 .463.085.907.24 1.316.412.154.858.24 1.324.24h.006c.466 0 .912-.086 1.324-.24ZM73.212 31.725c-1.046-.977-1.593-2.517-1.644-4.62h13.185c.025-.276.05-.607.075-.996.025-.388.038-.757.038-1.108 0-1.277-.176-2.46-.529-3.55-.352-1.088-.868-2.027-1.548-2.816a7.145 7.145 0 0 0-2.532-1.86c-1.007-.45-2.178-.676-3.513-.676-1.562 0-2.915.27-4.061.808-1.146.539-2.097 1.265-2.853 2.178-.754.915-1.316 1.991-1.68 3.23-.366 1.24-.548 2.574-.548 4 0 1.454.189 2.787.567 4.001.377 1.215.976 2.267 1.794 3.156.818.888 1.858 1.577 3.117 2.065 1.258.489 2.77.733 4.534.733 1.208 0 2.31-.089 3.305-.263a12.722 12.722 0 0 0 2.739-.789 8.944 8.944 0 0 0-.227-1.597c-.127-.538-.29-.995-.492-1.37-1.611.626-3.31.94-5.1.94-2.04 0-3.582-.49-4.627-1.466Zm7.953-7.4c0-.7-.095-1.37-.284-2.01a5.099 5.099 0 0 0-.831-1.67 4.031 4.031 0 0 0-1.398-1.146c-.567-.288-1.24-.433-2.021-.433-1.537 0-2.714.464-3.533 1.39-.818.927-1.315 2.217-1.492 3.87h9.559ZM37.914 16.55a7.955 7.955 0 0 1 1.586-.15c.252 0 .516.013.794.037.276.026.541.063.793.113.025.05.057.207.094.47.038.263.076.544.114.845.037.3.075.589.113.864.038.275.056.45.056.526.252-.401.554-.789.907-1.165a6.041 6.041 0 0 1 1.266-1.014 6.607 6.607 0 0 1 1.663-.713 7.52 7.52 0 0 1 2.058-.264c1.133 0 2.185.189 3.155.564.969.376 1.8.958 2.492 1.746.692.79 1.235 1.791 1.625 3.005.39 1.216.585 2.648.585 4.301 0 3.305-.9 5.891-2.7 7.756-1.802 1.866-4.351 2.799-7.65 2.799-.555 0-1.121-.038-1.7-.113a10.102 10.102 0 0 1-1.512-.3v8.827a12.92 12.92 0 0 1-1.889.15c-.277 0-.585-.014-.925-.038a9.19 9.19 0 0 1-.925-.112V16.55Zm5.213 16.49a7.387 7.387 0 0 1-1.474-.376V24.85c0-.952.139-1.77.417-2.46.276-.688.641-1.259 1.095-1.71.453-.45.969-.788 1.549-1.013a4.947 4.947 0 0 1 1.813-.339c1.687 0 2.902.59 3.645 1.766.743 1.177 1.115 2.767 1.115 4.77 0 1.253-.158 2.335-.473 3.249-.315.914-.743 1.671-1.284 2.272a4.939 4.939 0 0 1-1.945 1.334c-.756.288-1.587.432-2.494.432-.806 0-1.46-.038-1.964-.113ZM30.165 23.123c0-1.478-.377-2.504-1.133-3.08-.756-.575-1.851-.863-3.287-.863-.882 0-1.706.069-2.474.206-.768.138-1.518.319-2.248.544-.479-.826-.717-1.814-.717-2.967.855-.275 1.8-.488 2.833-.639a20.686 20.686 0 0 1 2.984-.225c2.518 0 4.432.57 5.742 1.71 1.31 1.139 1.965 2.96 1.965 5.464v12.058c-.882.2-1.952.406-3.211.62-1.26.211-2.545.318-3.854.318-1.234 0-2.348-.112-3.343-.338-.995-.225-1.839-.587-2.531-1.09a5.046 5.046 0 0 1-1.606-1.915c-.378-.776-.566-1.714-.566-2.817 0-1.076.22-2.022.66-2.836a5.928 5.928 0 0 1 1.795-2.028 8.017 8.017 0 0 1 2.607-1.201 11.91 11.91 0 0 1 3.098-.395c.806 0 1.467.02 1.983.056.516.039.95.082 1.303.132v-.714Zm-1.435 3.494c.58.05 1.058.1 1.435.15v6.122a10.83 10.83 0 0 1-1.643.281c-.617.064-1.215.095-1.795.095-.452 0-.931-.025-1.435-.075a3.623 3.623 0 0 1-1.379-.413 2.856 2.856 0 0 1-1.039-.978c-.277-.424-.415-1.014-.415-1.765 0-1.176.408-2.052 1.228-2.629.817-.576 2.008-.864 3.57-.864.402 0 .893.026 1.473.076Z" clip-rule="evenodd"/><path d="m.734 35.294 10.2-15.777h-8.99a9.107 9.107 0 0 1-.114-1.502c0-.526.038-1.015.113-1.466h14.545l.189.49L6.4 32.852h9.634c.075.501.113 1.014.113 1.54a8.7 8.7 0 0 1-.113 1.428H.924l-.19-.526ZM59.856 19.48h-2.455a4.7 4.7 0 0 1-.113-.695 8.006 8.006 0 0 1 0-1.54c.025-.263.063-.495.113-.696h6.12v19.27a9.28 9.28 0 0 1-.925.112c-.34.025-.65.038-.926.038-.252 0-.549-.013-.888-.038a9.199 9.199 0 0 1-.925-.111V19.48ZM89.778 16.438c-.252.025-.517.062-.794.112v19.27a12.993 12.993 0 0 0 1.89.15c.276 0 .586-.014.924-.038.341-.026.65-.064.927-.113V26.24c0-1.3.144-2.365.434-3.191.29-.827.68-1.478 1.17-1.954a4.073 4.073 0 0 1 1.664-.995 6.656 6.656 0 0 1 1.945-.282h.51c.213 0 .42.025.623.075.05-.3.095-.613.133-.94a8.247 8.247 0 0 0 .018-1.727 6.146 6.146 0 0 0-.113-.714 5.78 5.78 0 0 0-.548-.056 10.356 10.356 0 0 0-.623-.018c-1.36 0-2.475.313-3.343.938a7.789 7.789 0 0 0-2.097 2.217c0-.426-.038-.945-.114-1.56a20.785 20.785 0 0 0-.226-1.483 6.243 6.243 0 0 0-.756-.113 9.357 9.357 0 0 0-.83-.037 8.12 8.12 0 0 0-.794.038Z"/></g><defs><clipPath id="a"><path fill="#fff" d="M0 0h100v44.865H0z"/></clipPath></defs></svg>