<svg xmlns="http://www.w3.org/2000/svg" width="320" height="64" fill="none" viewBox="0 0 100 20"><g fill="#072F35" clip-path="url(#a)"><path d="M66.93 16.536a5.37 5.37 0 0 0 3.565-1.386l1.782 1.881c-1.386 1.386-3.267 2.178-5.247 2.08-4.258 0-7.13-2.872-7.13-6.734-.098-3.664 2.773-6.634 6.437-6.733h.297c4.257 0 6.732 3.268 6.534 7.822H62.97a3.613 3.613 0 0 0 3.96 3.07M70 11.288c-.1-1.782-1.584-3.169-3.366-3.07-1.882-.099-3.466 1.189-3.664 3.07zM0 16.437l7.822-7.921H.198V6.04h11.188v2.575l-7.822 7.921h7.921v2.476H0zm20.795.099a5.37 5.37 0 0 0 3.565-1.386l1.782 1.881a6.89 6.89 0 0 1-5.347 2.178c-4.356 0-7.129-2.871-7.129-6.733-.098-3.663 2.773-6.634 6.436-6.733h.297c4.258 0 6.733 3.268 6.436 7.822h-10c.297 1.882 2.079 3.169 3.96 2.971m3.07-5.248c-.1-1.782-1.585-3.169-3.367-3.07-1.782-.099-3.366 1.189-3.663 3.07zm19.901 1.188c-.198-3.564 2.574-6.634 6.138-6.733h.297c1.683 0 3.267.693 4.258 1.98V0h2.772v18.912h-2.772V17.13c-1.09 1.287-2.674 2.08-4.357 2.08-3.564 0-6.534-2.971-6.435-6.536.099-.099.099-.198.099-.198m10.89 0c0-2.277-1.88-4.06-4.059-4.06-2.277 0-4.06 1.882-4.06 4.06 0 2.278 1.882 4.06 4.06 4.06 2.277 0 4.06-1.782 4.06-4.06Zm20.196 3.763 2.475-1.386a3.82 3.82 0 0 0 3.267 1.88c1.584 0 2.376-.791 2.376-1.682 0-.892-1.485-1.288-3.168-1.585-2.178-.495-4.455-1.188-4.455-3.861 0-2.08 1.98-3.961 5.05-3.961 2.078-.1 4.059.792 5.247 2.475l-2.278 1.387a3.48 3.48 0 0 0-2.87-1.486c-1.486 0-2.18.693-2.18 1.585 0 .89 1.189 1.188 3.07 1.584 2.178.495 4.555 1.188 4.555 3.862 0 1.782-1.585 4.158-5.248 4.158-2.475.198-4.752-.99-5.841-2.97m18.02-3.069-2.178 2.376v3.366h-2.772V0h2.772v12.377l5.842-6.436h3.366l-5.05 5.545 5.149 7.426h-3.07l-4.059-5.743ZM35.547 5.743c-3.267 0-6.04 2.178-6.04 5.644v7.624h2.773v-7.228a3.02 3.02 0 0 1 2.673-3.366h.594c2.08 0 3.07 1.287 3.07 3.366v7.228h2.97v-7.624c0-3.565-2.772-5.644-6.04-5.644"/></g><defs><clipPath id="a"><path fill="#fff" d="M0 0h100v19.231H0z"/></clipPath></defs></svg>