<svg xmlns="http://www.w3.org/2000/svg" width="206.452" height="64" fill="none" viewBox="0 0 100 31"><g clip-path="url(#a)"><path fill="#f89920" fill-rule="evenodd" d="M4.545 21.755.594 17.336l12.093-4.401 1.882 5.172z" clip-rule="evenodd"/><path fill="#ffbe22" fill-rule="evenodd" d="M4.514 21.673 4.328 27.6l12.094-4.402-1.882-5.172z" clip-rule="evenodd"/><path fill="#f0670a" fill-rule="evenodd" d="M38.124 9.541c1.726 5-3.834 11.57-12.483 14.718-8.65 3.15-17.132 1.691-19.024-3.25z" clip-rule="evenodd"/><path fill="#ffd00e" fill-rule="evenodd" d="M38.124 9.541c-1.88-4.952-10.37-6.416-19.029-3.265C10.437 9.426 4.873 16.007 6.616 21z" clip-rule="evenodd"/><path fill="#f89920" fill-rule="evenodd" d="M38.123 9.541c1.075 3.345-4.961 8.546-13.584 11.693s-16.596 3.027-17.922-.226z" clip-rule="evenodd"/><path fill="#ffbe22" fill-rule="evenodd" d="M38.12 9.541c-1.307-3.269-9.292-3.385-17.928-.242-8.636 3.144-14.68 8.364-13.578 11.71L38.119 9.54Z" clip-rule="evenodd"/><path fill="#f0670a" d="M23.59 5.004C22.767 2.158 21.83.58 20.766.61c-2.058.058-2.75 6.585-2.083 14.947.672 8.452 2.418 14.8 4.596 14.743 1.298-.034 2.029-2.11 2.286-5.718.006-.073-.077-.023-.072-.098 0 0-.011-.132-.06-.135l-.276-.018c-.227 3.5-.91 5.518-1.89 5.546-1.79.045-3.519-6.234-4.164-14.353-.637-7.987.049-14.446 1.674-14.491.77-.022 1.632 1.432 2.395 4.053l.418-.091z"/><path fill="#f0670a" d="M13.386 2.973c-1.755 1.08.91 7.077 5.669 13.987 4.81 6.982 9.495 11.607 11.352 10.47 1.036-.637.745-2.568-.591-5.483a.21.21 0 0 0-.182-.13.2.2 0 0 0-.196.091.21.21 0 0 0-.015.216c1.242 2.709 1.51 4.481.753 4.945-1.527.936-6.162-3.64-10.782-10.349-4.544-6.598-7.18-12.533-5.795-13.386.736-.453 2.483.64 4.795 3 .026.027.173.179.206.189.073.022.037-.13.093-.187a.21.21 0 0 0 .003-.299c-2.47-2.522-4.322-3.68-5.32-3.065z"/><path fill="#574751" fill-rule="evenodd" d="M57.19 17.96h4.628v2.313h-7.326v-9.637h7.326v2.313H57.19v1.157h2.891v2.314h-2.89zm21.012 0h4.241v2.313h-6.939v-9.637h2.7zm6.94-7.325h2.7v9.638h-2.7zm5.782 0v9.638h2.506v-5.399l3.47 5.399h2.506v-9.639H96.9v5.479l-3.47-5.464z" clip-rule="evenodd"/><path fill="#574751" d="M67.216 15.07h1.931a1.153 1.153 0 0 0 1.155-1.157 1.154 1.154 0 0 0-1.155-1.158h-1.931zm2.317-4.435a3.275 3.275 0 0 1 3.275 3.279c0 .87-.345 1.702-.959 2.318a3.27 3.27 0 0 1-2.316.96h-2.046v3.08h-2.776v-9.637z"/><path fill="#574751" fill-rule="evenodd" d="M51.411 12.948v-2.312h-7.903v2.313h4.433l-4.433 5.013v2.313h7.903v-2.313h-4.24z" clip-rule="evenodd"/></g><defs><clipPath id="a"><path fill="#fff" d="M0 0h100v30.909H0z"/></clipPath></defs></svg>