<svg xmlns="http://www.w3.org/2000/svg" width="80" height="64" fill="none" viewBox="0 0 50 40"><g clip-path="url(#a)"><path fill="#FDBD39" d="m7.708 27.555-2.616.956-.139 7.78 9.054-3.307c-3.108-1.041-5.375-2.876-6.3-5.429"/><path fill="#F69833" d="M9.076 19.326 0 22.642l5.092 5.871 2.615-.956c-.922-2.544-.353-5.418 1.37-8.23Z"/><path fill="#FECF33" d="M24.345 8.098C12.788 12.319 5.336 21.032 7.705 27.555l41.85-15.288c-2.368-6.523-13.653-8.39-25.21-4.17"/><path fill="#EE6723" d="M32.913 31.727c11.557-4.222 19.021-12.895 16.64-19.458L7.703 27.555c2.38 6.565 13.653 8.393 25.21 4.172Z"/><path fill="#F69833" d="M49.559 12.267 7.711 27.555c.818 2.26 3.945 3.374 8.328 3.374 4.276 0 9.748-1.057 15.452-3.141 11.557-4.221 19.686-11.058 18.068-15.52"/><path fill="#FDBD39" d="M41.225 8.896c-4.273 0-9.748 1.057-15.452 3.14-11.557 4.222-19.686 11.057-18.068 15.52l41.85-15.289c-.82-2.26-3.945-3.371-8.33-3.371"/><path fill="#EE6723" d="M38.918 36.704c-1.232 0-3.047-1.111-5.4-3.305-2.78-2.595-5.966-6.396-8.972-10.703-3.004-4.306-5.472-8.61-6.95-12.124-1.61-3.827-1.841-6.178-.684-6.993.268-.182.586-.276.91-.268.94 0 2.777.7 6.17 4.041l.075.073-.01.104c-.024.24-.044.482-.063.72l-.038.472-.332-.334c-3.656-3.684-5.264-4.08-5.788-4.08-.15 0-.268.029-.353.089-.503.353-.536 2.081 1.026 5.79 1.452 3.448 3.885 7.688 6.85 11.939 2.966 4.252 6.103 7.996 8.837 10.545 2.946 2.748 4.273 3.045 4.708 3.045.15 0 .27-.03.361-.095.53-.372.53-2.223-1.211-6.216l-.081-.183.174-.095c.175-.096.345-.19.503-.28l.21-.12.098.221c1.234 2.83 2.389 6.426.874 7.49a1.552 1.552 0 0 1-.914.267Zm0-.436v.218-.218Z"/><path fill="#EE6723" d="m33.198 31.606-.016.216c-.293 3.615-1.062 7.961-3.069 8.138-.041.004-.083.004-.122.004-1.363 0-2.653-1.953-3.831-5.803-1.118-3.643-1.984-8.534-2.439-13.77-.457-5.238-.45-10.205.019-13.988.51-4.122 1.483-6.274 2.892-6.399.041-.004.085-.006.126-.006.99 0 2.479 1.12 4.003 6.334l-.995.191c-.509-1.74-1.063-3.158-1.614-4.134-.509-.9-1.005-1.396-1.394-1.396-.012 0-.025 0-.04.002-.61.054-1.5 1.533-1.994 5.53-.46 3.715-.467 8.61-.016 13.778.45 5.17 1.302 9.988 2.4 13.566.49 1.601 1.028 2.923 1.557 3.818.486.827.958 1.282 1.326 1.282.012 0 .025 0 .037-.002.584-.05 1.685-1.592 2.148-7.012l1.022-.349Z"/></g><defs><clipPath id="a"><path fill="#fff" d="M0 0h50v39.966H0z"/></clipPath></defs></svg>