<svg xmlns="http://www.w3.org/2000/svg" width="355.556" height="64" fill="none" viewBox="0 0 100 18"><g clip-path="url(#a)"><path fill="#000" fill-rule="evenodd" d="m20.29 13.04 6.01-7.245h-5.912V5.16h6.827v.586l-5.994 7.246h5.962v.635h-6.894v-.586Zm12.363.75a4 4 0 0 1-1.665-.35 4.1 4.1 0 0 1-1.332-.961 4.57 4.57 0 0 1-1.2-3.118q0-.896.319-1.686.318-.789.873-1.384a4.1 4.1 0 0 1 1.315-.936 3.95 3.95 0 0 1 1.642-.342 4 4 0 0 1 1.665.35 4.1 4.1 0 0 1 1.323.944c.374.403.668.873.866 1.385q.31.789.31 1.669v.204a.4.4 0 0 1-.016.154h-7.448c.06.917.445 1.783 1.086 2.442q.45.457 1.038.717a3.1 3.1 0 0 0 1.257.26q.441 0 .866-.121.416-.12.792-.335.363-.208.653-.512.285-.301.449-.66l.719.196q-.18.456-.53.838a3.6 3.6 0 0 1-.817.66 4.2 4.2 0 0 1-1.02.431 4.2 4.2 0 0 1-1.145.155m3.333-4.723A3.8 3.8 0 0 0 35.65 7.7a3.7 3.7 0 0 0-.736-1.067 3.3 3.3 0 0 0-1.036-.7 3.2 3.2 0 0 0-1.258-.253 3.2 3.2 0 0 0-1.258.253 3.3 3.3 0 0 0-1.756 1.775c-.183.432-.29.892-.318 1.36zm6.598-3.175q-1.145.033-2.001.676-.858.644-1.2 1.766v5.293h-.817V5.161h.784v2.083a4.1 4.1 0 0 1 1.168-1.457q.726-.561 1.56-.643a3 3 0 0 1 .293-.016h.212v.765zm5.112 7.898a3.9 3.9 0 0 1-1.658-.35 4.1 4.1 0 0 1-1.315-.952 4.4 4.4 0 0 1-.866-1.401 4.6 4.6 0 0 1-.31-1.678 4.5 4.5 0 0 1 .319-1.693 4.5 4.5 0 0 1 .873-1.4c.37-.402.817-.726 1.314-.953a3.9 3.9 0 0 1 1.643-.35q.88 0 1.633.35.75.35 1.314.952a4.53 4.53 0 0 1 1.2 3.094q0 .88-.317 1.678c-.203.517-.5.991-.875 1.4-.37.402-.817.726-1.314.953a3.9 3.9 0 0 1-1.642.35Zm-3.332-4.348q0 .75.26 1.41.263.658.711 1.146.45.49 1.054.774t1.29.285 1.29-.285a3.3 3.3 0 0 0 1.062-.79c.64-.709.99-1.633.98-2.589a3.8 3.8 0 0 0-.98-2.565 3.6 3.6 0 0 0-1.054-.79 2.9 2.9 0 0 0-1.281-.292q-.687 0-1.29.293a3.4 3.4 0 0 0-1.054.797 3.97 3.97 0 0 0-.988 2.606m16.38 4.185h-.816V8.905q0-3.142-2.107-3.142a2.8 2.8 0 0 0-1.02.195 3.4 3.4 0 0 0-.932.554 4 4 0 0 0-.759.838 3.7 3.7 0 0 0-.49 1.035v5.243h-.817V1.74h.817v5.438A4.1 4.1 0 0 1 56.066 5.6a3.63 3.63 0 0 1 1.984-.586q.702 0 1.209.26.506.261.84.75.336.488.49 1.18.156.692.156 1.555v4.869Zm6.076.163a4 4 0 0 1-1.666-.35 4.1 4.1 0 0 1-1.33-.961 4.57 4.57 0 0 1-1.201-3.118q0-.896.319-1.686a4.4 4.4 0 0 1 .873-1.384 4.1 4.1 0 0 1 1.314-.936 3.95 3.95 0 0 1 1.643-.342q.897 0 1.665.35.767.35 1.323.944c.374.403.668.873.866 1.385q.31.789.31 1.669v.204a.4.4 0 0 1-.016.154h-7.45c.06.917.446 1.783 1.087 2.442q.449.457 1.036.717a3.1 3.1 0 0 0 1.258.26q.441 0 .866-.121.416-.12.791-.335.365-.208.654-.512.285-.301.45-.66l.718.196a2.7 2.7 0 0 1-.53.838 3.6 3.6 0 0 1-.818.66 4.24 4.24 0 0 1-2.163.586Zm3.332-4.723a3.8 3.8 0 0 0-.335-1.367 3.7 3.7 0 0 0-.734-1.067 3.3 3.3 0 0 0-1.038-.7 3.2 3.2 0 0 0-1.257-.253 3.2 3.2 0 0 0-1.258.253 3.3 3.3 0 0 0-1.755 1.775 4.1 4.1 0 0 0-.32 1.36zm2.58 4.56V5.161h.818v8.467zm0-10.39V1.74h.818v1.498zm6.81 10.52a3.6 3.6 0 0 1-1.616-.366 4.1 4.1 0 0 1-1.265-.977 4.7 4.7 0 0 1-.834-1.392 4.4 4.4 0 0 1-.302-1.613q0-.863.286-1.66c.181-.515.455-.993.809-1.409q.522-.61 1.249-.97a3.6 3.6 0 0 1 1.608-.357q1.111 0 1.936.578c.546.382 1.02.86 1.397 1.409V5.158h.75v8.631q0 .863-.326 1.515a3.2 3.2 0 0 1-.874 1.083q-.548.43-1.274.65t-1.527.22a5.8 5.8 0 0 1-1.322-.138 4 4 0 0 1-1.038-.39 3.4 3.4 0 0 1-.8-.62 4.5 4.5 0 0 1-.613-.805l.556-.375q.507.863 1.372 1.262a4.4 4.4 0 0 0 1.845.399q.654 0 1.234-.18a3 3 0 0 0 1.012-.528 2.5 2.5 0 0 0 .686-.872q.253-.52.253-1.221v-1.855a3.9 3.9 0 0 1-1.388 1.327 3.6 3.6 0 0 1-1.813.497Zm.197-.7c.361 0 .718-.07 1.053-.203a3.7 3.7 0 0 0 .931-.53q.417-.325.686-.732t.335-.815V7.993a3.66 3.66 0 0 0-1.266-1.612 3.7 3.7 0 0 0-.898-.464 2.9 2.9 0 0 0-.972-.171q-.766 0-1.372.325c-.394.21-.742.499-1.02.847a3.8 3.8 0 0 0-.637 1.18c-.145.428-.22.876-.22 1.328q0 .733.26 1.384.261.651.719 1.156t1.078.798a3.1 3.1 0 0 0 1.323.293m13.31.57h-.816V8.905q0-3.142-2.107-3.142-.523 0-1.02.195a3.4 3.4 0 0 0-.931.554 4 4 0 0 0-.76.838 3.7 3.7 0 0 0-.49 1.035v5.243h-.817V1.74h.818v5.438A4.1 4.1 0 0 1 88.37 5.6a3.63 3.63 0 0 1 1.984-.586q.701 0 1.209.26.506.261.84.75.336.488.49 1.18.156.692.156 1.555zm6.256-.407a5 5 0 0 0-.221.122q-.155.09-.392.171a5 5 0 0 1-.53.146 3 3 0 0 1-.637.066 2.1 2.1 0 0 1-.645-.098 1.5 1.5 0 0 1-.531-.293 1.4 1.4 0 0 1-.36-.472 1.5 1.5 0 0 1-.13-.652V5.827h-1.193v-.668h1.192V2.261h.817V5.16h1.976v.668h-1.976v6.188q0 .471.327.708.326.237.735.237.507 0 .873-.172.368-.171.45-.219l.244.65z" clip-rule="evenodd"/><mask id="b" width="14" height="17" x="0" y="0" maskUnits="userSpaceOnUse" style="mask-type:alpha"><path fill="#fff" d="m1.183 0 1.184 2.523H0zM0 2.921h2.367v11.287H0zm0 11.686h2.367v1.372H0zm4.212-12.09 1.64-1.64 7.535 7.542-7.574 7.755-1.636-1.555 5.949-6.19-5.914-5.913Z"/></mask><g mask="url(#b)"><path fill="#fff" d="m1.183 0 1.184 2.523H0zM0 2.921h2.367v11.287H0zm0 11.686h2.367v1.372H0zm4.212-12.09 1.64-1.64 7.535 7.542-7.574 7.755-1.636-1.555 5.949-6.19-5.914-5.913Z"/><path fill="url(#c)" fill-rule="evenodd" d="M0 0h13.41v16.176H0z" clip-rule="evenodd"/></g></g><defs><linearGradient id="c" x1="2.097" x2="13.799" y1="16.176" y2="2.061" gradientUnits="userSpaceOnUse"><stop stop-color="#EC407A"/><stop offset="1" stop-color="#FFA000"/></linearGradient><clipPath id="a"><path fill="#fff" d="M0 0h100v17.518H0z"/></clipPath></defs></svg>