<svg xmlns="http://www.w3.org/2000/svg" width="355.556" height="64" fill="none" viewBox="0 0 100 18"><g clip-path="url(#a)"><path fill="#000" fill-rule="evenodd" d="m20.29 13.04 6.01-7.245h-5.912V5.16h6.827v.586l-5.994 7.246h5.962v.635h-6.894v-.586Zm12.363.75a3.966 3.966 0 0 1-1.665-.35 4.114 4.114 0 0 1-1.332-.961 4.57 4.57 0 0 1-1.2-3.118c0-.598.106-1.159.319-1.686.212-.526.503-.987.873-1.384a4.06 4.06 0 0 1 1.315-.936 3.951 3.951 0 0 1 1.642-.342 3.96 3.96 0 0 1 1.665.35 4.14 4.14 0 0 1 1.323.944c.374.403.668.873.866 1.385.207.526.31 1.082.31 1.669v.204a.438.438 0 0 1-.016.154h-7.448c.06.917.445 1.783 1.086 2.442.3.305.646.543 1.038.717a3.07 3.07 0 0 0 1.257.26c.293 0 .584-.04.866-.121.276-.08.542-.191.792-.335.241-.138.461-.31.653-.512.19-.201.34-.421.449-.66l.719.196c-.12.303-.297.584-.53.838a3.59 3.59 0 0 1-.817.66c-.31.184-.65.328-1.02.431a4.239 4.239 0 0 1-1.145.155Zm3.333-4.723A3.832 3.832 0 0 0 35.65 7.7a3.652 3.652 0 0 0-.736-1.067 3.297 3.297 0 0 0-1.036-.7 3.153 3.153 0 0 0-1.258-.253 3.154 3.154 0 0 0-1.258.253 3.297 3.297 0 0 0-1.756 1.775c-.183.432-.29.892-.318 1.36h6.697Zm6.598-3.175c-.763.022-1.43.247-2.001.676-.572.43-.972 1.018-1.2 1.766v5.293h-.817V5.161h.784v2.083a4.092 4.092 0 0 1 1.168-1.457c.484-.375 1.004-.588 1.56-.643.108-.011.206-.016.293-.016h.212v.765l.001-.001Zm5.112 7.898a3.908 3.908 0 0 1-1.658-.35 4.107 4.107 0 0 1-1.315-.952 4.395 4.395 0 0 1-.866-1.401 4.588 4.588 0 0 1-.31-1.678 4.528 4.528 0 0 1 .319-1.693 4.51 4.51 0 0 1 .873-1.4c.37-.402.817-.726 1.314-.953a3.873 3.873 0 0 1 1.643-.35c.587 0 1.131.116 1.633.35.5.233.939.55 1.314.952a4.526 4.526 0 0 1 1.2 3.094c0 .587-.106 1.146-.317 1.678-.203.517-.5.991-.875 1.4-.37.402-.817.726-1.314.953a3.874 3.874 0 0 1-1.642.35Zm-3.332-4.348c0 .5.087.969.26 1.41.175.438.412.821.711 1.146.3.326.651.585 1.054.774.403.19.832.285 1.29.285.457 0 .887-.095 1.29-.285.403-.19.764-.458 1.062-.79.64-.709.99-1.633.98-2.589a3.787 3.787 0 0 0-.98-2.565 3.551 3.551 0 0 0-1.054-.79 2.867 2.867 0 0 0-1.281-.292c-.458 0-.888.097-1.29.293a3.36 3.36 0 0 0-1.054.797 3.967 3.967 0 0 0-.988 2.606Zm16.38 4.185h-.816V8.905c0-2.095-.702-3.142-2.107-3.142a2.78 2.78 0 0 0-1.02.195 3.39 3.39 0 0 0-.932.554 3.99 3.99 0 0 0-.759.838 3.684 3.684 0 0 0-.49 1.035v5.243h-.817V1.74h.817v5.438A4.092 4.092 0 0 1 56.066 5.6a3.633 3.633 0 0 1 1.984-.586c.468 0 .871.087 1.209.26.337.174.618.424.84.75.224.325.387.719.49 1.18.104.461.156.98.156 1.555v4.869Zm6.076.163a3.967 3.967 0 0 1-1.666-.35 4.117 4.117 0 0 1-1.33-.961 4.57 4.57 0 0 1-1.201-3.118c0-.598.106-1.159.319-1.686a4.43 4.43 0 0 1 .873-1.384 4.062 4.062 0 0 1 1.314-.936 3.95 3.95 0 0 1 1.643-.342c.598 0 1.153.117 1.665.35.511.234.953.548 1.323.944.374.403.668.873.866 1.385.206.526.31 1.082.31 1.669v.204a.438.438 0 0 1-.016.154H63.47c.06.917.446 1.783 1.087 2.442.299.305.645.543 1.036.717.396.175.825.263 1.258.26.293 0 .584-.04.866-.121.276-.08.542-.191.791-.335.242-.138.462-.31.654-.512.19-.201.34-.421.45-.66l.718.196a2.69 2.69 0 0 1-.53.838 3.575 3.575 0 0 1-.818.66 4.243 4.243 0 0 1-2.163.586Zm3.332-4.723a3.826 3.826 0 0 0-.335-1.367 3.652 3.652 0 0 0-.734-1.067 3.297 3.297 0 0 0-1.038-.7 3.154 3.154 0 0 0-1.257-.253 3.154 3.154 0 0 0-1.258.253 3.297 3.297 0 0 0-1.755 1.775 4.11 4.11 0 0 0-.32 1.36h6.697Zm2.58 4.56V5.161h.818v8.467h-.818v-.001Zm0-10.39V1.74h.818v1.498h-.818Zm6.81 10.52a3.575 3.575 0 0 1-1.616-.366 4.063 4.063 0 0 1-1.265-.977 4.682 4.682 0 0 1-.834-1.392 4.432 4.432 0 0 1-.302-1.613c0-.575.096-1.129.286-1.66.181-.515.455-.993.809-1.409.348-.407.764-.73 1.249-.97a3.592 3.592 0 0 1 1.608-.357c.741 0 1.386.193 1.936.578.546.382 1.02.86 1.397 1.409V5.158h.75v8.631c0 .576-.109 1.08-.326 1.515a3.167 3.167 0 0 1-.874 1.083c-.365.287-.79.504-1.274.65-.484.147-.993.22-1.527.22a5.798 5.798 0 0 1-1.322-.138 3.966 3.966 0 0 1-1.038-.39 3.43 3.43 0 0 1-.8-.62 4.45 4.45 0 0 1-.613-.805l.556-.375c.338.575.795.996 1.372 1.262a4.357 4.357 0 0 0 1.845.399c.436 0 .847-.06 1.234-.18.386-.119.723-.295 1.012-.528a2.53 2.53 0 0 0 .686-.872c.168-.346.253-.754.253-1.221v-1.855a3.914 3.914 0 0 1-1.388 1.327 3.593 3.593 0 0 1-1.813.497Zm.197-.7c.361 0 .718-.07 1.053-.203a3.73 3.73 0 0 0 .931-.53c.278-.217.506-.461.686-.732.18-.272.292-.543.335-.815V7.993a3.656 3.656 0 0 0-1.266-1.612 3.708 3.708 0 0 0-.898-.464 2.888 2.888 0 0 0-.972-.171c-.51 0-.969.108-1.372.325-.394.21-.742.499-1.02.847-.281.353-.496.752-.637 1.18-.145.428-.22.876-.22 1.328 0 .489.086.95.26 1.384.174.434.414.82.719 1.156.305.336.664.603 1.078.798.413.195.866.295 1.323.293Zm13.31.57h-.816V8.905c0-2.095-.702-3.142-2.107-3.142-.349 0-.689.065-1.02.195-.333.13-.643.314-.931.554a3.993 3.993 0 0 0-.76.838 3.7 3.7 0 0 0-.49 1.035v5.243h-.817V1.74h.818v5.438A4.09 4.09 0 0 1 88.37 5.6a3.633 3.633 0 0 1 1.984-.586c.468 0 .87.087 1.209.26.337.174.617.424.84.75.224.325.387.719.49 1.18.104.461.156.98.156 1.555v4.869Zm6.256-.407a4.958 4.958 0 0 0-.221.122c-.103.06-.234.117-.392.171a4.87 4.87 0 0 1-.53.146 2.917 2.917 0 0 1-.637.066c-.23 0-.444-.033-.645-.098a1.53 1.53 0 0 1-.531-.293 1.396 1.396 0 0 1-.36-.472 1.517 1.517 0 0 1-.13-.652V5.827h-1.193v-.668h1.192V2.261h.817V5.16h1.976v.668h-1.976v6.188c0 .314.11.55.327.708.218.158.462.237.735.237.338 0 .629-.058.873-.172.246-.114.395-.187.45-.219l.244.65h.001Z" clip-rule="evenodd"/><mask id="b" width="14" height="17" x="0" y="0" maskUnits="userSpaceOnUse" style="mask-type:alpha"><path fill="#fff" d="m1.183 0 1.184 2.523H0L1.183 0ZM0 2.921h2.367v11.287H0V2.921Zm0 11.686h2.367v1.372H0v-1.372Zm4.212-12.09L5.852.877l7.535 7.542-7.574 7.755-1.636-1.555 5.949-6.19-5.914-5.913Z"/></mask><g mask="url(#b)"><path fill="#fff" d="m1.183 0 1.184 2.523H0L1.183 0ZM0 2.921h2.367v11.287H0V2.921Zm0 11.686h2.367v1.372H0v-1.372Zm4.212-12.09L5.852.877l7.535 7.542-7.574 7.755-1.636-1.555 5.949-6.19-5.914-5.913Z"/><path fill="url(#c)" fill-rule="evenodd" d="M0 0h13.41v16.176H0V0Z" clip-rule="evenodd"/></g></g><defs><linearGradient id="c" x1="2.097" x2="13.799" y1="16.176" y2="2.061" gradientUnits="userSpaceOnUse"><stop stop-color="#EC407A"/><stop offset="1" stop-color="#FFA000"/></linearGradient><clipPath id="a"><path fill="#fff" d="M0 0h100v17.518H0z"/></clipPath></defs></svg>