<svg xmlns="http://www.w3.org/2000/svg" width="52.706" height="64" fill="none" viewBox="0 0 42 51"><g clip-path="url(#a)"><mask id="b" width="42" height="51" x="0" y="0" maskUnits="userSpaceOnUse" style="mask-type:alpha"><path fill="#fff" d="m3.712 0 3.715 7.954H0zM0 9.21h7.427v35.588H0zm0 36.844h7.427v4.327H0zm13.214-38.12 5.143-5.165L42 26.547 18.238 51l-5.134-4.902 18.664-19.516zv-.002Z"/></mask><g mask="url(#b)"><path fill="#fff" d="m3.712 0 3.715 7.954H0zM0 9.21h7.427v35.588H0zm0 36.844h7.427v4.327H0zm13.214-38.12 5.143-5.165L42 26.547 18.238 51l-5.134-4.902 18.664-19.516zv-.002Z"/><path fill="url(#c)" fill-rule="evenodd" d="M0 0h42.07v51.002H0z" clip-rule="evenodd"/></g></g><defs><linearGradient id="c" x1="6.579" x2="43.507" y1="51.002" y2="6.678" gradientUnits="userSpaceOnUse"><stop stop-color="#ec407a"/><stop offset="1" stop-color="#ffa000"/></linearGradient><clipPath id="a"><path fill="#fff" d="M0 0h42v51H0z"/></clipPath></defs></svg>