<?xml version="1.0" encoding="utf-8"?>
<!-- Generator: Adobe Illustrator 27.3.1, SVG Export Plug-In . SVG Version: 6.00 Build 0)  -->
<svg version="1.1" id="Layer_1" xmlns="http://www.w3.org/2000/svg" xmlns:xlink="http://www.w3.org/1999/xlink" x="0px" y="0px"
	 viewBox="0 0 186.6 64" style="enable-background:new 0 0 186.6 64;" xml:space="preserve">
<style type="text/css">
	.st0{fill:#009C3E;}
	.st1{fill:#FFAF00;}
	.st2{fill:#F40014;}
	.st3{fill:#006EB9;}
	.st4{display:none;fill:none;stroke:#000000;stroke-width:0.25;stroke-miterlimit:10;}
</style>
<g>
	<g>
		<path class="st0" d="M83.8,63.8c-1.4,0-2.8-0.3-4.1-0.9l-30-13.4c-2.4-1.1-4.3-3.1-5.3-5.5c-1-2.5-0.9-5.2,0.2-7.6l13.4-30
			c2.3-5,8.2-7.3,13.2-5.1l30,13.4c5,2.3,7.3,8.2,5.1,13.2L93,57.8c-1.1,2.4-3.1,4.3-5.5,5.3C86.2,63.5,85,63.8,83.8,63.8z
			 M67.2,5.9c-1.7,0-3.4,1-4.2,2.7l-13.4,30c-1,2.3,0,5,2.3,6l30,13.4l0,0c1.1,0.5,2.3,0.5,3.5,0.1c1.1-0.4,2-1.3,2.5-2.4l13.4-30
			c1-2.3,0-5-2.3-6l-30-13.4C68.5,6,67.8,5.9,67.2,5.9z"/>
	</g>
	<g>
		<path class="st1" d="M176.2,63.7h-32.8c-5.5,0-10-4.5-10-10V21c0-5.5,4.5-10,10-10h32.8c5.5,0,10,4.5,10,10v32.8
			C186.2,59.3,181.7,63.7,176.2,63.7z M143.4,16.4c-2.5,0-4.6,2-4.6,4.6v32.8c0,2.5,2,4.6,4.6,4.6h32.8c2.5,0,4.6-2,4.6-4.6V21
			c0-2.5-2-4.6-4.6-4.6L143.4,16.4L143.4,16.4z"/>
	</g>
	<path class="st2" d="M54.7,27.3l-4,9.1l1.8,11.4c0.4,2.5-1.3,4.8-3.8,5.2l-32.4,5.3c-1.2,0.2-2.4-0.1-3.4-0.8c-1-0.7-1.6-1.8-1.8-3
		L5.9,22.1c-0.4-2.5,1.3-4.8,3.8-5.2L42,11.6c0.2,0,0.5-0.1,0.7-0.1c1,0,1.9,0.3,2.7,0.9c1,0.7,1.6,1.8,1.8,3l1.8,11.2l4-9.1l-0.5-3
		c-0.4-2.6-1.9-5-4-6.5c-2.2-1.6-4.8-2.2-7.4-1.8L8.8,11.5c-5.4,0.9-9.1,6-8.3,11.5l5.3,32.4c0.4,2.6,1.9,5,4,6.5
		c1.7,1.2,3.7,1.9,5.8,1.9c0.6,0,1.1-0.1,1.7-0.1l32.4-5.3c5.4-0.9,9.1-6,8.3-11.5L54.7,27.3z"/>
	<g>
		<path class="st3" d="M93.7,42.7l4.2-9.5l-1.5-11.4c-0.2-1.2,0.2-2.4,0.9-3.4c0.7-1,1.8-1.6,3-1.8l32.5-4.4c0.2,0,0.4,0,0.6,0
			c1.2,0,2.4,0.5,3.2,1.3c1.4-1.3,3.1-2.1,5-2.5c-0.6-0.8-1.3-1.6-2.2-2.3c-2.1-1.6-4.8-2.3-7.4-2l-32.5,4.4c-2.7,0.4-5,1.7-6.6,3.9
			c-1.6,2.1-2.3,4.8-2,7.4L93.7,42.7z"/>
		<path class="st3" d="M147.7,48l-4.3-31.6h-0.1c-2.5,0-4.6,2-4.6,4.6v2l3.5,25.7c0.2,1.2-0.2,2.4-0.9,3.4c-0.7,1-1.8,1.6-3,1.8
			l-32.5,4.4c-2.5,0.3-4.8-1.4-5.1-3.9l-1.5-10.9L95.1,53l0.3,2.1c0.7,5,5,8.6,9.9,8.6c0.4,0,0.9,0,1.4-0.1l32.5-4.4
			C144.7,58.5,148.5,53.4,147.7,48z"/>
	</g>
</g>
<line class="st4" x1="-365.6" y1="-86.7" x2="534.1" y2="-86.7"/>
<line class="st4" x1="-365.6" y1="104" x2="534.1" y2="104"/>
<line class="st4" x1="-365.6" y1="123.2" x2="534.1" y2="123.2"/>
<line class="st4" x1="-365.6" y1="150.9" x2="534.1" y2="150.9"/>
<line class="st4" x1="-195.9" y1="-192.1" x2="-195.9" y2="256.1"/>
<line class="st4" x1="363.3" y1="-192.1" x2="363.3" y2="256.1"/>
</svg>
