<?xml version='1.0' encoding='UTF-8'?>
<svg xmlns="http://www.w3.org/2000/svg" xml:space="preserve" viewBox="0 0 186.6 64" width="186.6" height="64">
  <path d="M83.8 63.8c-1.4 0-2.8-.3-4.1-.9l-30-13.4c-2.4-1.1-4.3-3.1-5.3-5.5-1-2.5-.9-5.2.2-7.6L58 6.4c2.3-5 8.2-7.3 13.2-5.1l30 13.4c5 2.3 7.3 8.2 5.1 13.2L93 57.8c-1.1 2.4-3.1 4.3-5.5 5.3-1.3.4-2.5.7-3.7.7M67.2 5.9c-1.7 0-3.4 1-4.2 2.7l-13.4 30c-1 2.3 0 5 2.3 6l30 13.4c1.1.5 2.3.5 3.5.1 1.1-.4 2-1.3 2.5-2.4l13.4-30c1-2.3 0-5-2.3-6L69 6.3c-.5-.3-1.2-.4-1.8-.4M176.2 63.7h-32.8c-5.5 0-10-4.5-10-10V21c0-5.5 4.5-10 10-10h32.8c5.5 0 10 4.5 10 10v32.8c0 5.5-4.5 9.9-10 9.9m-32.8-47.3c-2.5 0-4.6 2-4.6 4.6v32.8c0 2.5 2 4.6 4.6 4.6h32.8c2.5 0 4.6-2 4.6-4.6V21c0-2.5-2-4.6-4.6-4.6z"/>
  <path d="m54.7 27.3-4 9.1 1.8 11.4c.4 2.5-1.3 4.8-3.8 5.2l-32.4 5.3c-1.2.2-2.4-.1-3.4-.8s-1.6-1.8-1.8-3L5.9 22.1c-.4-2.5 1.3-4.8 3.8-5.2L42 11.6c.2 0 .5-.1.7-.1q1.5 0 2.7.9c1 .7 1.6 1.8 1.8 3L49 26.6l4-9.1-.5-3c-.4-2.6-1.9-5-4-6.5-2.2-1.6-4.8-2.2-7.4-1.8L8.8 11.5c-5.4.9-9.1 6-8.3 11.5l5.3 32.4c.4 2.6 1.9 5 4 6.5 1.7 1.2 3.7 1.9 5.8 1.9.6 0 1.1-.1 1.7-.1l32.4-5.3c5.4-.9 9.1-6 8.3-11.5zM93.7 42.7l4.2-9.5-1.5-11.4c-.2-1.2.2-2.4.9-3.4s1.8-1.6 3-1.8l32.5-4.4h.6c1.2 0 2.4.5 3.2 1.3 1.4-1.3 3.1-2.1 5-2.5-.6-.8-1.3-1.6-2.2-2.3-2.1-1.6-4.8-2.3-7.4-2l-32.5 4.4c-2.7.4-5 1.7-6.6 3.9-1.6 2.1-2.3 4.8-2 7.4zM147.7 48l-4.3-31.6h-.1c-2.5 0-4.6 2-4.6 4.6v2l3.5 25.7c.2 1.2-.2 2.4-.9 3.4s-1.8 1.6-3 1.8l-32.5 4.4c-2.5.3-4.8-1.4-5.1-3.9l-1.5-10.9-4.1 9.5.3 2.1c.7 5 5 8.6 9.9 8.6.4 0 .9 0 1.4-.1l32.5-4.4c5.5-.7 9.3-5.8 8.5-11.2"/>
</svg>
