<?xml version='1.0' encoding='UTF-8'?>
<svg xmlns="http://www.w3.org/2000/svg" xml:space="preserve" viewBox="0 0 149.2 64" width="149.2" height="64">
  <path d="m46.1 62.8 3.8-5.6h-3.2q-.3 0-.3-.3v-.5q0-.3.3-.3h4.8q.3 0 .3.3v.2c0 .1 0 .1-.1.2l-3.8 5.6h3.4q.3 0 .3.3v.5q0 .3-.3.3h-5q-.3 0-.3-.3V63c0-.1 0-.1.1-.2M61.4 59.8c0-2.2 1.6-3.7 3.8-3.7s3.7 1.6 3.7 3.7c0 2.2-1.5 3.8-3.7 3.8-2.3 0-3.8-1.6-3.8-3.8m6 0c0-1.4-.7-2.6-2.3-2.6s-2.2 1.2-2.2 2.7c0 1.4.8 2.6 2.3 2.6 1.5-.1 2.2-1.3 2.2-2.7M79.5 56.2h.8q.3 0 .3.3v2.8H84v-2.8q0-.3.3-.3h.8q.3 0 .3.3v6.7q0 .3-.3.3h-.8q-.3 0-.3-.3v-2.8h-3.4v2.8q0 .3-.3.3h-.8q-.3 0-.3-.3v-6.7q0-.3.3-.3M95.7 59.8c0-2.2 1.6-3.7 3.8-3.7s3.7 1.6 3.7 3.7c0 2.2-1.5 3.8-3.7 3.8s-3.8-1.6-3.8-3.8m6 0c0-1.4-.7-2.6-2.3-2.6s-2.2 1.2-2.2 2.7c0 1.4.8 2.6 2.3 2.6 1.5-.1 2.2-1.3 2.2-2.7M67 51c-1.1 0-2.2-.2-3.2-.7l-24-10.6c-1.9-.9-3.5-2.4-4.2-4.4-.8-2-.7-4.2.2-6.1l10.7-24c1.8-4 6.5-5.8 10.5-4l24 10.6c4 1.8 5.8 6.5 4 10.5l-10.7 24c-.9 1.9-2.4 3.5-4.4 4.2-.9.3-1.9.5-2.9.5M53.8 4.8c-1.4 0-2.7.8-3.3 2.1l-10.7 24c-.8 1.8 0 4 1.8 4.8l23.9 10.7c.9.4 1.9.4 2.8.1s1.6-1 2-1.9l10.7-24c.8-1.8 0-4-1.8-4.8L55.3 5.1q-.75-.3-1.5-.3M140.8 51h-26.2c-4.4 0-8-3.6-8-8V16.8c0-4.4 3.6-8 8-8h26.2c4.4 0 8 3.6 8 8V43c0 4.4-3.6 8-8 8m-26.2-37.8c-2 0-3.6 1.6-3.6 3.6V43c0 2 1.6 3.6 3.6 3.6h26.2c2 0 3.6-1.6 3.6-3.6V16.8c0-2-1.6-3.6-3.6-3.6z"/>
  <path d="m43.8 21.9-3.2 7.3 1.5 9.1c.3 2-1 3.8-3 4.2l-25.9 4.2c-1 .2-1.9-.1-2.7-.6q-1.2-.9-1.5-2.4L4.8 17.8c-.3-2 1-3.8 3-4.2l25.9-4.2c.2 0 .4-.1.6-.1.8 0 1.5.2 2.1.7q1.2.9 1.5 2.4l1.5 8.9 3.2-7.3-.4-2.4c-.3-2.1-1.5-4-3.2-5.2S35.2 4.6 33.1 5l-26 4.3C2.7 10-.2 14.1.5 18.5l4.2 25.8c.3 2.1 1.5 4 3.2 5.2 1.4 1 3 1.5 4.6 1.5.5 0 .9-.1 1.3-.1l25.8-4.2c4.4-.7 7.3-4.8 6.6-9.2zM74.9 34.2l3.4-7.6-1.2-9.1c-.1-1 .1-1.9.7-2.7s1.4-1.3 2.4-1.4l26-3.5h.5c1 0 1.9.4 2.6 1.1 1.1-1 2.5-1.7 4-2-.5-.7-1-1.3-1.7-1.8-1.7-1.3-3.8-1.9-5.9-1.6l-26 3.5c-2.1.3-4 1.4-5.3 3.1s-1.9 3.8-1.6 5.9zM118.1 38.4l-3.4-25.2h-.1c-2 0-3.6 1.6-3.6 3.6v1.6l2.8 20.6c.1 1-.1 1.9-.7 2.7s-1.4 1.3-2.4 1.4l-26 3.5c-2 .3-3.8-1.1-4.1-3.1l-1.2-8.7-3.4 7.6.2 1.7c.6 4 4 6.9 7.9 6.9.3 0 .7 0 1.1-.1l26-3.5c4.4-.6 7.5-4.6 6.9-9"/>
</svg>
