<?xml version="1.0" encoding="utf-8"?>
<!-- Generator: Adobe Illustrator 27.3.1, SVG Export Plug-In . SVG Version: 6.00 Build 0)  -->
<svg version="1.1" id="Layer_1" xmlns="http://www.w3.org/2000/svg" xmlns:xlink="http://www.w3.org/1999/xlink" x="0px" y="0px"
	 viewBox="0 0 149.2 64" style="enable-background:new 0 0 149.2 64;" xml:space="preserve">
<style type="text/css">
	.st0{display:none;fill:none;stroke:#000000;stroke-width:0.25;stroke-miterlimit:10;}
</style>
<g>
	<g>
		<path d="M46.1,62.8l3.8-5.6h-3.2c-0.2,0-0.3-0.1-0.3-0.3v-0.5c0-0.2,0.1-0.3,0.3-0.3h4.8c0.2,0,0.3,0.1,0.3,0.3v0.2
			c0,0.1,0,0.1-0.1,0.2l-3.8,5.6h3.4c0.2,0,0.3,0.1,0.3,0.3v0.5c0,0.2-0.1,0.3-0.3,0.3h-5c-0.2,0-0.3-0.1-0.3-0.3V63
			C46,62.9,46,62.9,46.1,62.8z"/>
		<path d="M61.4,59.8c0-2.2,1.6-3.7,3.8-3.7c2.2,0,3.7,1.6,3.7,3.7c0,2.2-1.5,3.8-3.7,3.8C62.9,63.6,61.4,62,61.4,59.8z M67.4,59.8
			c0-1.4-0.7-2.6-2.3-2.6c-1.6,0-2.2,1.2-2.2,2.7c0,1.4,0.8,2.6,2.3,2.6C66.7,62.4,67.4,61.2,67.4,59.8z"/>
		<path d="M79.5,56.2h0.8c0.2,0,0.3,0.1,0.3,0.3v2.8H84v-2.8c0-0.2,0.1-0.3,0.3-0.3h0.8c0.2,0,0.3,0.1,0.3,0.3v6.7
			c0,0.2-0.1,0.3-0.3,0.3h-0.8c-0.2,0-0.3-0.1-0.3-0.3v-2.8h-3.4v2.8c0,0.2-0.1,0.3-0.3,0.3h-0.8c-0.2,0-0.3-0.1-0.3-0.3v-6.7
			C79.2,56.3,79.3,56.2,79.5,56.2z"/>
		<path d="M95.7,59.8c0-2.2,1.6-3.7,3.8-3.7s3.7,1.6,3.7,3.7c0,2.2-1.5,3.8-3.7,3.8S95.7,62,95.7,59.8z M101.7,59.8
			c0-1.4-0.7-2.6-2.3-2.6c-1.6,0-2.2,1.2-2.2,2.7c0,1.4,0.8,2.6,2.3,2.6C101,62.4,101.7,61.2,101.7,59.8z"/>
	</g>
	<g>
		<g>
			<path d="M67,51c-1.1,0-2.2-0.2-3.2-0.7L39.8,39.7c-1.9-0.9-3.5-2.4-4.2-4.4c-0.8-2-0.7-4.2,0.2-6.1L46.5,5.2
				c1.8-4,6.5-5.8,10.5-4L81,11.8c4,1.8,5.8,6.5,4,10.5L74.3,46.3c-0.9,1.9-2.4,3.5-4.4,4.2C69,50.8,68,51,67,51z M53.8,4.8
				c-1.4,0-2.7,0.8-3.3,2.1L39.8,30.9c-0.8,1.8,0,4,1.8,4.8l23.9,10.7l0,0c0.9,0.4,1.9,0.4,2.8,0.1c0.9-0.3,1.6-1,2-1.9L81,20.6
				c0.8-1.8,0-4-1.8-4.8L55.3,5.1C54.8,4.9,54.3,4.8,53.8,4.8z"/>
		</g>
		<g>
			<path d="M140.8,51h-26.2c-4.4,0-8-3.6-8-8V16.8c0-4.4,3.6-8,8-8h26.2c4.4,0,8,3.6,8,8V43C148.8,47.4,145.2,51,140.8,51z
				 M114.6,13.2c-2,0-3.6,1.6-3.6,3.6V43c0,2,1.6,3.6,3.6,3.6h26.2c2,0,3.6-1.6,3.6-3.6V16.8c0-2-1.6-3.6-3.6-3.6L114.6,13.2
				L114.6,13.2z"/>
		</g>
		<path d="M43.8,21.9l-3.2,7.3l1.5,9.1c0.3,2-1,3.8-3,4.2l-25.9,4.2c-1,0.2-1.9-0.1-2.7-0.6c-0.8-0.6-1.3-1.4-1.5-2.4L4.8,17.8
			c-0.3-2,1-3.8,3-4.2l25.9-4.2c0.2,0,0.4-0.1,0.6-0.1c0.8,0,1.5,0.2,2.1,0.7c0.8,0.6,1.3,1.4,1.5,2.4l1.5,8.9l3.2-7.3l-0.4-2.4
			c-0.3-2.1-1.5-4-3.2-5.2c-1.7-1.2-3.8-1.8-5.9-1.4L7.1,9.3c-4.4,0.7-7.3,4.8-6.6,9.2l4.2,25.8c0.3,2.1,1.5,4,3.2,5.2
			c1.4,1,3,1.5,4.6,1.5c0.5,0,0.9-0.1,1.3-0.1l25.8-4.2c4.4-0.7,7.3-4.8,6.6-9.2L43.8,21.9z"/>
		<g>
			<path d="M74.9,34.2l3.4-7.6l-1.2-9.1c-0.1-1,0.1-1.9,0.7-2.7c0.6-0.8,1.4-1.3,2.4-1.4l26-3.5c0.2,0,0.3,0,0.5,0
				c1,0,1.9,0.4,2.6,1.1c1.1-1,2.5-1.7,4-2c-0.5-0.7-1-1.3-1.7-1.8c-1.7-1.3-3.8-1.9-5.9-1.6l-26,3.5c-2.1,0.3-4,1.4-5.3,3.1
				c-1.3,1.7-1.9,3.8-1.6,5.9L74.9,34.2z"/>
			<path d="M118.1,38.4l-3.4-25.2h-0.1c-2,0-3.6,1.6-3.6,3.6v1.6l2.8,20.6c0.1,1-0.1,1.9-0.7,2.7c-0.6,0.8-1.4,1.3-2.4,1.4l-26,3.5
				c-2,0.3-3.8-1.1-4.1-3.1l-1.2-8.7L76,42.4l0.2,1.7c0.6,4,4,6.9,7.9,6.9c0.3,0,0.7,0,1.1-0.1l26-3.5
				C115.6,46.8,118.7,42.8,118.1,38.4z"/>
		</g>
	</g>
</g>
<line class="st0" x1="-365.6" y1="-86.7" x2="534.1" y2="-86.7"/>
<line class="st0" x1="-365.6" y1="104" x2="534.1" y2="104"/>
<line class="st0" x1="-365.6" y1="123.2" x2="534.1" y2="123.2"/>
<line class="st0" x1="-365.6" y1="150.9" x2="534.1" y2="150.9"/>
<line class="st0" x1="-195.9" y1="-192.1" x2="-195.9" y2="256.1"/>
<line class="st0" x1="363.3" y1="-192.1" x2="363.3" y2="256.1"/>
</svg>
