<svg xmlns="http://www.w3.org/2000/svg" width="278.261" height="64" fill="none" viewBox="0 0 100 23"><g clip-path="url(#a)"><path fill="#2d8cff" fill-rule="evenodd" d="M81.419 6.739c.382.66.507 1.41.548 2.253l.054 1.125v7.862l.056 1.125c.11 1.838 1.466 3.197 3.319 3.313l1.12.055V10.117l.055-1.125c.046-.834.17-1.598.558-2.263a4.49 4.49 0 0 1 7.774.015c.383.66.502 1.424.548 2.248l.055 1.121v7.866l.056 1.125c.115 1.848 1.46 3.207 3.318 3.313l1.12.055V8.992A8.99 8.99 0 0 0 87.314.797a9 9 0 0 0-3.043 2.25A8.98 8.98 0 0 0 77.53.001a8.9 8.9 0 0 0-5.033 1.545C71.62.569 69.662 0 68.538 0v22.471l1.124-.055c1.88-.124 3.24-1.447 3.313-3.313l.06-1.125v-7.862l.056-1.125c.047-.848.165-1.594.548-2.258a4.5 4.5 0 0 1 3.89-2.24 4.5 4.5 0 0 1 3.89 2.245ZM4.494 22.419l1.124.053h16.853l-.055-1.12c-.152-1.848-1.46-3.198-3.314-3.318l-1.125-.055H7.867l13.48-13.485-.056-1.12C21.204 1.508 19.841.16 17.977.057L16.853.006 0 0l.055 1.125c.148 1.83 1.475 3.207 3.313 3.313l1.126.056h10.11L1.124 17.98l.056 1.124c.11 1.852 1.447 3.194 3.314 3.313v.001ZM64.127 3.29a11.236 11.236 0 0 1-7.947 19.18c-2.98 0-5.839-1.183-7.947-3.29-4.388-4.387-4.388-11.502 0-15.89A11.23 11.23 0 0 1 56.173 0a11.24 11.24 0 0 1 7.954 3.292zm-3.18 3.182a6.745 6.745 0 0 1 0 9.535 6.745 6.745 0 0 1-9.535 0 6.745 6.745 0 0 1 0-9.535 6.745 6.745 0 0 1 9.535 0M32.591 0a11.23 11.23 0 0 1 7.94 3.292c4.389 4.386 4.389 11.502 0 15.889a11.243 11.243 0 0 1-15.894 0c-4.387-4.388-4.387-11.503 0-15.89A11.23 11.23 0 0 1 32.577 0zm4.76 6.47a6.745 6.745 0 0 1 0 9.536 6.745 6.745 0 0 1-9.534 0 6.745 6.745 0 0 1 0-9.535 6.745 6.745 0 0 1 9.535 0V6.47Z" clip-rule="evenodd"/></g><defs><clipPath id="a"><path fill="#fff" d="M0 0h100v22.472H0z"/></clipPath></defs></svg>