<svg xmlns="http://www.w3.org/2000/svg" width="64" height="64" fill="none" viewBox="0 0 50 50"><g clip-path="url(#a)"><path fill="#2196F3" d="M25 50c13.807 0 25-11.194 25-25C50 11.192 38.807 0 25 0 11.191 0 0 11.193 0 25c0 13.806 11.193 25 25 25Z"/><path fill="#fff" fill-rule="evenodd" d="M14.674 32.145H31.21V20.021a3.306 3.306 0 0 0-3.307-3.307H11.367v12.124a3.307 3.307 0 0 0 3.307 3.307Zm18.738-4.408 6.614 4.408V16.714l-6.613 4.41v6.613Z" clip-rule="evenodd"/></g><defs><clipPath id="a"><path fill="#fff" d="M0 0h50v50H0z"/></clipPath></defs></svg>