<svg width="50" height="47" viewBox="0 0 50 47" fill="none" xmlns="http://www.w3.org/2000/svg">
<g clip-path="url(#clip0_1_3489)">
<path fill-rule="evenodd" clip-rule="evenodd" d="M39.0712 24.4326C33.0741 24.4326 28.2122 29.2943 28.2122 35.292C28.2122 41.2893 33.0741 46.1509 39.0712 46.1509C45.0684 46.1509 49.9301 41.2893 49.9301 35.292C49.9301 29.2943 45.0684 24.4326 39.0712 24.4326ZM10.8589 24.4337C4.86175 24.4337 0 29.2943 0 35.292C0 41.2893 4.86175 46.1509 10.8589 46.1509C16.8563 46.1509 21.7183 41.2893 21.7183 35.292C21.7183 29.2943 16.8563 24.4337 10.8589 24.4337ZM35.8238 10.8587C35.8238 16.8563 30.9623 21.7185 24.9651 21.7185C18.9677 21.7185 14.1062 16.8563 14.1062 10.8587C14.1062 4.86223 18.9677 0 24.9651 0C30.9623 0 35.8238 4.86223 35.8238 10.8587Z" fill="#F06A6A"/>
</g>
<defs>
<clipPath id="clip0_1_3489">
<rect width="50" height="46.3158" fill="white"/>
</clipPath>
</defs>
</svg>
