<svg width="50" height="53" viewBox="0 0 50 53" fill="none" xmlns="http://www.w3.org/2000/svg">
<g clip-path="url(#clip0_1_3061)">
<path d="M11.9236 0H3.21538C2.43927 0 1.69496 0.308276 1.14616 0.857068C0.597371 1.40586 0.289062 2.1501 0.289062 2.92621V20.3426C0.289062 20.7268 0.36475 21.1074 0.511811 21.4624C0.658872 21.8174 0.874423 22.14 1.14616 22.4117C1.41788 22.6835 1.74049 22.8991 2.09552 23.0461C2.45056 23.1932 2.83108 23.2689 3.21537 23.2689H11.9236C15.0092 23.2689 17.9685 22.0431 20.1503 19.8612C22.3322 17.6793 23.558 14.7201 23.558 11.6345C23.558 8.5488 22.3322 5.58945 20.1503 3.40757C17.9685 1.22568 15.0092 0 11.9236 0Z" fill="#F4C345"/>
<path d="M19.6735 5.8175H10.9653C10.5811 5.8175 10.2006 5.89319 9.84552 6.04025C9.49049 6.18731 9.1679 6.40284 8.89616 6.67458C8.62443 6.94631 8.40888 7.26892 8.26182 7.62395C8.11476 7.97899 8.03906 8.35957 8.03906 8.74385V26.1601C8.03906 26.9361 8.34736 27.6805 8.89615 28.2294C9.44494 28.7781 10.1893 29.0864 10.9653 29.0864H19.6735C21.2014 29.0864 22.7143 28.7855 24.1258 28.2008C25.5374 27.6161 26.8199 26.7591 27.9003 25.6787C28.9806 24.5984 29.8377 23.3158 30.4224 21.9043C31.0071 20.4927 31.308 18.9798 31.308 17.4519C31.308 14.3663 30.0822 11.4071 27.9003 9.22521C25.7184 7.04332 22.7592 5.8175 19.6735 5.8175Z" fill="#FF7E69"/>
<path d="M27.4314 11.6346H18.7232C18.3389 11.6346 17.9584 11.7103 17.6034 11.8573C17.2483 12.0044 16.9258 12.2199 16.654 12.4917C16.3823 12.7634 16.1667 13.086 16.0196 13.4411C15.8726 13.7961 15.7969 14.1765 15.7969 14.5608V31.9771C15.7969 32.7532 16.1052 33.4976 16.654 34.0464C17.2028 34.5953 17.9471 34.9035 18.7232 34.9035H27.4314C30.517 34.9035 33.4763 33.6777 35.6582 31.4958C37.84 29.3139 39.0658 26.3546 39.0658 23.269C39.0658 20.1834 37.84 17.224 35.6582 15.0422C33.4763 12.8603 30.517 11.6346 27.4314 11.6346Z" fill="#391145"/>
<path d="M35.1892 17.4518H26.481C25.7049 17.4518 24.9606 17.76 24.4118 18.3088C23.863 18.8576 23.5547 19.602 23.5547 20.3781V37.7943C23.5547 38.5705 23.863 39.3148 24.4117 39.8636C24.9606 40.4124 25.7049 40.7207 26.481 40.7207H35.1892C38.2748 40.7207 41.2341 39.4948 43.4159 37.3129C45.5979 35.1311 46.8236 32.1719 46.8236 29.0862C46.8236 26.0006 45.5979 23.0414 43.4159 20.8594C41.2341 18.6776 38.2748 17.4518 35.1892 17.4518Z" fill="#52A8CE"/>
<path d="M35.8254 51.7831L39.8998 47.8447C40.2536 47.5029 40.6813 47.2472 41.1498 47.0971C41.6181 46.947 42.1148 46.9066 42.6013 46.9789L48.1115 47.7962C48.2894 47.8233 48.4714 47.7972 48.6345 47.7211C48.7976 47.6449 48.9345 47.5222 49.0279 47.3684C49.1213 47.2146 49.1671 47.0364 49.1595 46.8566C49.1518 46.6768 49.0911 46.5032 48.985 46.3578L35.927 28.549C35.8131 28.3935 35.653 28.2781 35.4698 28.219C35.2864 28.1599 35.0892 28.1601 34.906 28.2197C34.7227 28.2792 34.563 28.3949 34.4495 28.5505C34.3359 28.7061 34.2744 28.8935 34.2734 29.0862V51.1294C34.2743 51.3088 34.3276 51.4842 34.4272 51.6334C34.5268 51.7827 34.668 51.8994 34.8333 51.9691C34.9987 52.0387 35.1809 52.0583 35.3573 52.0253C35.5336 51.9922 35.6964 51.9079 35.8254 51.7831Z" fill="#391145"/>
</g>
<defs>
<clipPath id="clip0_1_3061">
<rect width="50" height="52.0408" fill="white"/>
</clipPath>
</defs>
</svg>
