<svg width="50" height="50" viewBox="0 0 50 50" fill="none" xmlns="http://www.w3.org/2000/svg">
<g clip-path="url(#clip0_1_2770)">
<path fill-rule="evenodd" clip-rule="evenodd" d="M9.46428 0C4.2373 0 0 4.2373 0 9.46428V40.5358C0 45.7628 4.2373 50 9.46428 50H40.5358C45.7628 50 50 45.7628 50 40.5358V9.46428C50 4.2373 45.7628 0 40.5358 0H9.46428ZM31.7858 5.35705H38.2142C41.962 5.35705 45 8.39512 45 12.1428V37.857C45 41.6048 41.962 44.6427 38.2142 44.6427H31.7858C28.038 44.6427 25 41.6048 25 37.857V12.1428C25 8.39512 28.038 5.35705 31.7858 5.35705Z" fill="black"/>
</g>
<defs>
<clipPath id="clip0_1_2770">
<rect width="50" height="50" fill="white"/>
</clipPath>
</defs>
</svg>
