<svg width="50" height="50" viewBox="0 0 50 50" fill="none" xmlns="http://www.w3.org/2000/svg">
<g clip-path="url(#clip0_1_2267)">
<path d="M40.625 0H9.375C4.19733 0 0 4.19733 0 9.375V40.625C0 45.8027 4.19733 50 9.375 50H40.625C45.8027 50 50 45.8027 50 40.625V9.375C50 4.19733 45.8027 0 40.625 0Z" fill="black"/>
<path d="M25 40.625C33.6294 40.625 40.625 33.6294 40.625 25C40.625 16.3706 33.6294 9.375 25 9.375C16.3706 9.375 9.375 16.3706 9.375 25C9.375 33.6294 16.3706 40.625 25 40.625Z" fill="white"/>
</g>
<defs>
<clipPath id="clip0_1_2267">
<rect width="50" height="50" fill="white"/>
</clipPath>
</defs>
</svg>
