<svg width="37" height="50" viewBox="0 0 37 50" fill="none" xmlns="http://www.w3.org/2000/svg">
<path d="M0.00635478 49.9994V49.1965C0.00635478 39.1462 -0.00794348 29.0958 0.00635478 19.0374C0.0165668 13.8411 3.47864 9.55972 8.54408 8.78739C10.7704 8.44912 13.0887 8.73034 15.5172 8.73034V9.57601C15.5172 19.4565 15.5172 29.337 15.5172 39.2176C15.5172 45.5346 11.0605 49.9669 4.7307 49.9893C3.2131 50.0036 1.68326 49.9994 0.00635478 49.9994Z" fill="black"/>
<path d="M20.6875 32.7074V0.000486424C23.5646 0.150646 26.4313 -0.359898 29.2121 0.644027C33.3075 2.09329 36.0921 6.08415 36.1694 10.6146C36.2247 14.2614 36.2021 17.9081 36.1878 21.5548C36.1613 27.7757 32.1935 32.2805 26.288 32.7096C24.4587 32.8212 22.6172 32.7074 20.6875 32.7074Z" fill="black"/>
</svg>
