<svg width="50" height="50" viewBox="0 0 50 50" fill="none" xmlns="http://www.w3.org/2000/svg">
<g clip-path="url(#clip0_1_1222)">
<path d="M0 4.58138C0 2.05116 2.05116 0 4.5814 0H22.5019C25.0321 0 27.0833 2.05116 27.0833 4.5814V8.12598C27.0833 9.39108 26.0577 10.4167 24.7927 10.4167H2.29069C1.02558 10.4167 0 9.39108 0 8.12598V4.58138Z" fill="black"/>
<path d="M0 18.9573C0 17.6922 1.02558 16.6667 2.29069 16.6667H45.4185C47.9487 16.6667 50 18.7178 50 21.2481V33.126C50 34.391 48.9744 35.4167 47.7094 35.4167H4.5814C2.05116 35.4167 0 33.3654 0 30.8352V18.9573Z" fill="black"/>
<path d="M22.9141 43.9573C22.9141 42.6923 23.9397 41.6667 25.2047 41.6667H47.7068C48.9718 41.6667 49.9974 42.6923 49.9974 43.9573V45.4185C49.9974 47.9487 47.9461 50 45.4159 50H27.4955C24.9653 50 22.9141 47.9487 22.9141 45.4185V43.9573Z" fill="black"/>
</g>
<defs>
<clipPath id="clip0_1_1222">
<rect width="50" height="50" fill="white"/>
</clipPath>
</defs>
</svg>
