<svg xmlns="http://www.w3.org/2000/svg" width="290.909" height="64" fill="none" viewBox="0 0 100 22"><g clip-path="url(#a)"><path fill="#181D26" d="m39.807 11.17-1.728-4.6a.22.22 0 0 0-.41 0l-1.728 4.6a.214.214 0 0 0 .205.287h3.47a.204.204 0 0 0 .191-.287m.805 2.58h-5.476a.22.22 0 0 0-.205.143l-1.084 2.87a.22.22 0 0 1-.204.143h-2.375a.218.218 0 0 1-.204-.303l5.462-13.407a.21.21 0 0 1 .205-.13h2.27a.23.23 0 0 1 .206.13l5.46 13.407a.22.22 0 0 1-.205.304h-2.37a.22.22 0 0 1-.205-.145l-1.084-2.869a.19.19 0 0 0-.19-.144v.001Zm5.184-5.984h2.036a.224.224 0 0 1 .22.217v8.708a.22.22 0 0 1-.22.216h-2.035a.223.223 0 0 1-.22-.216V7.983a.215.215 0 0 1 .22-.217Zm9.666 2.12a.224.224 0 0 1-.22.217h-.058c-1.01 0-1.743.23-2.211.706-.469.476-.703 1.254-.703 2.348v3.519a.224.224 0 0 1-.22.217h-2.007a.224.224 0 0 1-.219-.217V7.983a.224.224 0 0 1 .22-.217h1.991a.225.225 0 0 1 .22.217V9.7h.044a3.33 3.33 0 0 1 1.142-1.643 3.16 3.16 0 0 1 1.934-.577h.102v2.407zm5.55-.086a.223.223 0 0 0-.219.215v3.619c-.027.283.051.565.22.794.147.157.395.23.761.23h.205a.225.225 0 0 1 .22.216v1.816a.22.22 0 0 1-.22.216h-.863c-.894 0-1.581-.231-2.065-.678-.483-.46-.717-1.124-.717-2.032v-4.181a.22.22 0 0 0-.22-.215H56.84a.224.224 0 0 1-.22-.218V7.983a.224.224 0 0 1 .22-.217h1.274a.223.223 0 0 0 .22-.215V4.32a.223.223 0 0 1 .22-.216h2.035a.223.223 0 0 1 .22.216v3.23a.223.223 0 0 0 .22.215h1.464a.224.224 0 0 1 .22.217v1.6a.224.224 0 0 1-.22.217zm9.3 4.382a2.53 2.53 0 0 0 .688-1.86 2.6 2.6 0 0 0-.688-1.86 2.69 2.69 0 0 0-3.632 0 2.53 2.53 0 0 0-.688 1.86 2.6 2.6 0 0 0 .688 1.86 2.43 2.43 0 0 0 1.816.706 2.36 2.36 0 0 0 1.816-.706m-4.687 2.437a4.1 4.1 0 0 1-1.61-1.673 6.17 6.17 0 0 1 0-5.248 4.17 4.17 0 0 1 1.61-1.673 4.5 4.5 0 0 1 2.254-.576 3.9 3.9 0 0 1 1.86.419c.51.27.935.673 1.23 1.168h.045v-1.07a.223.223 0 0 1 .219-.215h2.007a.223.223 0 0 1 .22.216v8.707a.224.224 0 0 1-.221.218h-2.005a.224.224 0 0 1-.22-.218v-1.066h-.043c-.296.495-.722.9-1.231 1.17a3.9 3.9 0 0 1-1.86.418 4.5 4.5 0 0 1-2.255-.577m16.197-2.437a2.54 2.54 0 0 0 .688-1.86 2.6 2.6 0 0 0-.688-1.86 2.69 2.69 0 0 0-3.632 0 2.54 2.54 0 0 0-.688 1.86 2.6 2.6 0 0 0 .688 1.86 2.42 2.42 0 0 0 1.817.706 2.36 2.36 0 0 0 1.816-.706zm-3.046 2.594a3.15 3.15 0 0 1-1.23-1.169H77.5v1.068a.225.225 0 0 1-.22.217h-2.035a.225.225 0 0 1-.219-.217V3.268a.223.223 0 0 1 .22-.216h2.035a.224.224 0 0 1 .22.215v5.782h.044a3.16 3.16 0 0 1 1.23-1.169 3.94 3.94 0 0 1 1.86-.418 4.47 4.47 0 0 1 2.254.578c.688.39 1.248.97 1.61 1.672a5.45 5.45 0 0 1 .588 2.623c.018.91-.183 1.81-.587 2.625a4.16 4.16 0 0 1-1.61 1.672 4.5 4.5 0 0 1-2.255.577 4.06 4.06 0 0 1-1.86-.434v.002Zm9.739.117H86.48a.224.224 0 0 1-.22-.217V3.268a.224.224 0 0 1 .22-.216h2.035a.223.223 0 0 1 .22.216v13.407a.213.213 0 0 1-.22.217zm4.789-7.02a1.93 1.93 0 0 0-.689 1.124.22.22 0 0 0 .048.183.22.22 0 0 0 .172.077h3.866a.22.22 0 0 0 .212-.154.2.2 0 0 0 .008-.092 1.8 1.8 0 0 0-.601-1.11 2.27 2.27 0 0 0-1.494-.491 2.5 2.5 0 0 0-1.522.461zm4.95-1.125q1.186 1.274 1.185 3.603v.26a.223.223 0 0 1-.22.216h-6.456a.23.23 0 0 0-.169.08.22.22 0 0 0-.052.18c.084.54.36 1.03.777 1.384a2.72 2.72 0 0 0 1.802.575c.97-.013 1.899-.4 2.592-1.08a.21.21 0 0 1 .322.044l.98 1.397a.24.24 0 0 1-.03.289 7.8 7.8 0 0 1-1.595 1.053 5.3 5.3 0 0 1-2.27.461 5.5 5.5 0 0 1-2.636-.606 4.26 4.26 0 0 1-1.743-1.701 5.1 5.1 0 0 1-.63-2.537 5.3 5.3 0 0 1 .602-2.551A4.25 4.25 0 0 1 92.396 8.1a5.1 5.1 0 0 1 2.534-.62c1.435-.017 2.533.416 3.324 1.267ZM48.315 4.539A1.493 1.493 0 1 1 46.8 3.066h.008a1.5 1.5 0 0 1 1.508 1.47v.003Z"/><path fill="#FCB400" d="M11.636.262 2.398 4.084a.619.619 0 0 0 .008 1.147l9.277 3.68a3.44 3.44 0 0 0 2.538 0l9.277-3.68a.619.619 0 0 0 .008-1.147L14.268.262a3.44 3.44 0 0 0-2.632 0"/><path fill="#18BFFF" d="M13.781 10.919v9.19c0 .437.441.736.847.575l10.337-4.012a.62.62 0 0 0 .391-.575v-9.19a.62.62 0 0 0-.847-.576l-10.337 4.013a.62.62 0 0 0-.39.575"/><path fill="#F82B60" d="M11.368 11.393 8.3 12.874l-.311.15-6.476 3.104c-.41.198-.935-.101-.935-.557V6.945c0-.165.085-.307.198-.414a.7.7 0 0 1 .157-.118.66.66 0 0 1 .563-.044l9.82 3.892c.5.198.539.897.052 1.132"/><path fill="#000" fill-opacity=".25" d="m11.365 11.393-3.068 1.481L.773 6.53a.7.7 0 0 1 .157-.117.66.66 0 0 1 .563-.044l9.82 3.892c.5.198.539.897.052 1.132"/></g><defs><clipPath id="a"><path fill="#fff" d="M0 0h100v21.323H0z"/></clipPath></defs></svg>