<svg xmlns="http://www.w3.org/2000/svg" width="62.745" height="64" fill="none" viewBox="0 0 50 51"><g clip-path="url(#a)"><path fill="#DF3F40" d="M11.442.466C5.123.466 0 5.589 0 11.908c0 6.32 5.123 11.443 11.443 11.443s11.442-5.123 11.442-11.443S17.762.466 11.442.466"/><path fill="#00BCA6" fill-rule="evenodd" d="M26.695 11.908c0-6.32 5.123-11.442 11.443-11.442S49.58 5.589 49.58 11.908v11.329a.114.114 0 0 1-.114.114H38.138c-6.32 0-11.443-5.123-11.443-11.443" clip-rule="evenodd"/><path fill="#967DB8" d="M0 38.608c0-6.32 5.123-11.443 11.442-11.443 6.32 0 11.443 5.123 11.443 11.443v11.328a.114.114 0 0 1-.114.114H11.442C5.123 50.05 0 44.927 0 38.608"/><path fill="#EDC500" d="M26.695 38.608c0-6.32 5.123-11.443 11.443-11.443S49.58 32.288 49.58 38.608v11.328a.114.114 0 0 1-.114.114H26.81a.114.114 0 0 1-.114-.114z"/></g><defs><clipPath id="a"><path fill="#fff" d="M0 0h50v50.485H0z"/></clipPath></defs></svg>