<svg xmlns="http://www.w3.org/2000/svg" width="82.051" height="64" fill="none" viewBox="0 0 50 39"><g clip-path="url(#a)"><path fill="#000" d="M32.761 3.077c-1.87 2.5-2.322 3.333-4.127 3.333H1.68v32.052h10.575c2.386 0 4.707-1.154 6.19-3.077 1.936-2.564 2.193-3.333 4.063-3.333h27.019V0h-10.64C36.5 0 34.18 1.154 32.76 3.077Zm8.383 20.705H29.859c-2.451 0-4.707 1.026-6.19 3.012-1.935 2.565-2.322 3.335-4.128 3.335H9.998V14.744h11.285c2.45 0 4.707-1.154 6.19-3.077 1.935-2.5 2.45-3.27 4.191-3.27h9.48z"/></g><defs><clipPath id="a"><path fill="#fff" d="M0 0h50v38.462H0z"/></clipPath></defs></svg>