<svg xmlns="http://www.w3.org/2000/svg" width="249.6" height="64" fill="none" viewBox="0 0 78 20"><path fill="#000" d="M52.313 4.133c-1.35 0-2.39.48-3.354 1.484v-1.25H46.31v12.3h2.85V9.533c0-1.633.973-2.666 2.448-2.666a3.5 3.5 0 0 1 .67.066l1.979-2.6c-.771-.133-1.442-.2-1.945-.2Zm24.578.234h-3.287L70.57 8.379l-3.034-4.013h-3.287l4.637 6.198-4.637 6.103h3.354l2.95-3.891 2.95 3.89h3.388l-4.668-6.092zM17.037 1.6c-.972 1.3-1.207 1.733-2.146 1.733H.875V20h5.5c1.24 0 2.447-.6 3.218-1.6 1.006-1.333 1.14-1.733 2.113-1.733h14.05V0h-5.534c-1.24 0-2.447.6-3.185 1.6m4.36 10.767h-5.869c-1.274 0-2.447.533-3.219 1.566-1.006 1.334-1.207 1.734-2.146 1.734H5.201v-8h5.868c1.273 0 2.447-.6 3.218-1.6 1.007-1.3 1.275-1.7 2.18-1.7h4.93zm21.057-4.1c1.241-.7 2.112-1.934 2.112-3.567 0-2.4-1.844-4.7-4.526-4.7h-8.047v16.667h8.047c2.917 0 4.929-2.067 4.929-4.667 0-1.533-.704-2.867-2.515-3.733M34.843 2.6h4.962c1.24 0 1.978 1.167 1.978 2.2 0 1.267-1.106 2.133-2.145 2.133h-4.795zm4.794 11.467h-4.794V9.533h4.962c1.274 0 2.314 1.1 2.314 2.234 0 1.266-1.308 2.3-2.481 2.3Z"/><path fill="#000" d="M61.403 13.133c-.47.734-1.375 1.167-2.382 1.167-1.575 0-2.883-1.067-2.883-2.7h8.517c.134-.5.168-.733.168-1.167 0-3.733-2.314-6.3-5.801-6.3-3.42 0-5.834 2.434-5.834 6.4 0 3.867 2.313 6.367 5.9 6.367 2.516 0 4.729-1.233 5.366-3.767zm-2.382-6.4c1.576 0 2.784 1 2.75 2.5h-5.6c0-1.466 1.275-2.5 2.85-2.5"/></svg>