<svg xmlns="http://www.w3.org/2000/svg" width="200" height="64" fill="none" viewBox="0 0 100 32"><g fill="#FF3E00" clip-path="url(#a)"><path d="M14.424 15.79v15.789c-1.062 0-5.462-1.447-7.018-2.438C3.196 26.46.326 21.576.029 16.594-.398 9.42 3.897 2.632 14.424 0zm17.104 0v15.789H17.055v-8.912c0-11.494 2.192-14.992 6.14-18.5C27.142.657 31.528 0 31.528 0z"/><path fill-rule="evenodd" d="M54.587.73c8.138 2.748 12.82 11.291 10.52 19.2-4.132 14.217-23.314 15.702-29.443 2.28-3.97-8.693.314-18.051 9.876-21.574 2.2-.81 6.501-.766 9.047.094m-5.851 15.505c-.05-4.738-.023-9.342-.008-11.204a.87.87 0 0 1 .875-.864h.567c.485 0 .877.392.877.877v21.491a.877.877 0 0 1-.877.877h-.448a.877.877 0 0 1-.877-.868l-.108-10.309Z" clip-rule="evenodd"/><path d="M88.794.73c4.417 1.492 7.72 4.452 9.704 8.7 1.214 2.6 1.23 2.748 1.361 12.39l.134 9.759H85.485l-.116-13.706-.109-12.837a.877.877 0 0 0-.877-.87h-.453a.877.877 0 0 0-.877.87l-.109 12.837-.115 13.706H68.368V0H77.5c7.36 0 9.551.142 11.294.73"/></g><defs><clipPath id="a"><path fill="#fff" d="M0 0h100v31.579H0z"/></clipPath></defs></svg>