<svg xmlns="http://www.w3.org/2000/svg" width="193.939" height="64" fill="none" viewBox="0 0 100 33"><g clip-path="url(#a)"><path fill="#3780FF" d="M12.316.003h.89c3.086.067 6.123 1.309 8.305 3.507-.806.822-1.628 1.61-2.416 2.433-1.225-1.108-2.702-1.964-4.313-2.266-2.382-.503-4.95-.05-6.946 1.31-2.181 1.425-3.658 3.841-3.976 6.425-.353 2.55.369 5.235 2.03 7.215 1.594 1.93 4.027 3.138 6.543 3.222 2.35.134 4.799-.588 6.51-2.232 1.343-1.158 1.963-2.92 2.165-4.63-2.785 0-5.57.016-8.356 0V11.53H24.48c.604 3.708-.268 7.886-3.087 10.537-1.88 1.879-4.48 2.986-7.13 3.204-2.568.252-5.219-.235-7.5-1.476-2.736-1.46-4.917-3.926-5.99-6.829-1.007-2.668-1.024-5.688-.085-8.372.856-2.45 2.5-4.615 4.615-6.125C7.332.976 9.799.154 12.316.003"/><path fill="#38B137" d="M79.594.875h3.59v23.96c-1.19 0-2.399.017-3.59-.017.017-7.97 0-15.956 0-23.943"/><path fill="#FA3913" d="M32.463 9.18c2.215-.419 4.614.051 6.443 1.377a7.88 7.88 0 0 1 3.17 5.033c.454 2.332-.117 4.883-1.627 6.728-1.627 2.064-4.295 3.171-6.896 3.004-2.382-.135-4.698-1.326-6.107-3.272-1.594-2.148-1.98-5.1-1.107-7.618.872-2.701 3.338-4.765 6.124-5.251Zm.503 3.189a4.5 4.5 0 0 0-2.349 1.493c-1.627 1.946-1.527 5.117.269 6.93 1.023 1.04 2.567 1.526 3.993 1.241 1.325-.235 2.483-1.124 3.12-2.299 1.108-1.996.79-4.748-.905-6.308-1.09-1.007-2.685-1.427-4.128-1.057"/><path fill="#FCBD06" d="M50.254 9.18c2.534-.486 5.302.219 7.198 1.997 3.088 2.769 3.423 7.953.789 11.141-1.594 2.014-4.178 3.121-6.728 3.004-2.433-.067-4.832-1.275-6.275-3.272-1.628-2.198-1.98-5.218-1.057-7.785.922-2.618 3.339-4.614 6.073-5.084Zm.504 3.189a4.6 4.6 0 0 0-2.35 1.476c-1.61 1.913-1.543 5.034.185 6.863 1.024 1.09 2.618 1.627 4.094 1.325 1.309-.252 2.483-1.124 3.121-2.299 1.09-2.013.772-4.765-.94-6.325-1.09-1.007-2.684-1.41-4.11-1.04"/><path fill="#3780FF" d="M65.339 10.154c1.93-1.208 4.497-1.544 6.577-.503.654.285 1.191.771 1.712 1.258.016-.453 0-.923.016-1.393 1.124.017 2.249 0 3.39.017v14.799c-.017 2.231-.588 4.597-2.198 6.225-1.762 1.795-4.463 2.349-6.896 1.98-2.601-.386-4.866-2.282-5.873-4.682 1.007-.486 2.064-.872 3.104-1.325.587 1.376 1.779 2.55 3.272 2.819 1.493.268 3.221-.101 4.195-1.343 1.04-1.275 1.04-3.02.99-4.58-.772.755-1.662 1.426-2.735 1.678-2.333.654-4.9-.151-6.695-1.729-1.812-1.577-2.886-4.01-2.785-6.426.05-2.735 1.594-5.369 3.926-6.795m3.473 2.148a4.4 4.4 0 0 0-2.634 1.526c-1.577 1.88-1.577 4.883.017 6.729.906 1.09 2.365 1.694 3.775 1.543 1.325-.134 2.55-.973 3.204-2.13 1.108-1.964.923-4.631-.57-6.343a4.13 4.13 0 0 0-3.792-1.325"/><path fill="#FA3913" d="M87.497 11.01c2.013-1.88 5.118-2.517 7.701-1.527 2.45.923 4.01 3.255 4.8 5.654-3.642 1.51-7.266 3.003-10.907 4.514.503.956 1.275 1.828 2.316 2.18 1.46.52 3.204.336 4.429-.637.487-.369.873-.856 1.242-1.325.922.62 1.845 1.224 2.768 1.845-1.309 1.963-3.507 3.34-5.872 3.557-2.618.32-5.403-.688-7.098-2.735-2.785-3.221-2.517-8.624.621-11.526m1.795 3.104c-.57.822-.805 1.829-.788 2.818 2.433-1.006 4.866-2.013 7.298-3.036-.402-.94-1.375-1.51-2.365-1.662-1.594-.285-3.255.57-4.145 1.88"/></g><defs><clipPath id="a"><path fill="#fff" d="M0 0h100v32.64H0z"/></clipPath></defs></svg>