<svg xmlns="http://www.w3.org/2000/svg" width="84.211" height="64" fill="none" viewBox="0 0 50 38"><g clip-path="url(#a)"><path fill="#FBBC04" d="M.805 37.097 24.192 0h14.516v5.161L18.547 37.097"/><path fill="#1A73E8" d="M38.711 37.097H24.195V0h14.516z"/><path fill="#34A853" d="M49.195 26.613c0 5.79-4.694 10.484-10.484 10.484V16.129c5.79 0 10.484 4.694 10.484 10.484"/><path fill="#0D652D" d="M38.71 37.097c-5.79 0-10.483-4.694-10.483-10.484S32.92 16.129 38.71 16.129z"/><path fill="#1A73E8" d="M46.776 8.064a8.064 8.064 0 0 1-8.065 8.065V0a8.064 8.064 0 0 1 8.065 8.064"/><path fill="#174EA6" d="M38.713 16.129a8.064 8.064 0 1 1 0-16.129z"/><path fill="#EA4335" d="M1.61 7.258a7.259 7.259 0 1 1 14.517.001 7.259 7.259 0 0 1-14.518 0Z"/></g><defs><clipPath id="a"><path fill="#fff" d="M0 0h50v37.097H0z"/></clipPath></defs></svg>