<svg xmlns="http://www.w3.org/2000/svg" width="246.154" height="64" fill="none" viewBox="0 0 100 26"><g clip-path="url(#a)"><path fill="#323232" d="M26.14 19.566V.028h3.036v7.703q1.434-2.136 4.301-2.137 2.445 0 3.781 1.448t1.336 4.034v8.49h-3.036v-8.068q0-3.345-2.98-3.346-1.49 0-2.445.9-.956.9-.956 2.53v7.983zm26.8-1.686q-2.025 2.023-5.089 2.023-3.063 0-5.102-2.023-2.038-2.025-2.038-5.146t2.038-5.13q2.039-2.01 5.102-2.01 3.065 0 5.088 2.01 2.025 2.01 2.025 5.13c0 3.12-.675 3.795-2.025 5.146Zm-7.97-1.716q1.08 1.265 2.881 1.265t2.882-1.265q1.081-1.264 1.082-3.43 0-2.136-1.096-3.401t-2.868-1.265q-1.8 0-2.881 1.25-1.082 1.252-1.082 3.416 0 2.166 1.082 3.43m17.022 3.739q-4.188 0-4.189-4.498V8.49h-2.108V5.932h2.193l.703-4.02h2.277v4.02h5.425V8.49h-5.425v6.83q0 1.885 1.377 1.884 1.293 0 2.333-2.361l2.362 1.209q-1.743 3.852-4.948 3.851"/><path fill="#323232" d="M67.916 25.806q-2.025 0-3.346-1.124l1.125-2.39q.816.956 1.77.957 1.266 0 1.266-1.63V5.931h3.035v15.742q0 2.193-1.082 3.162-1.082.97-2.768.97Zm2.333-22.18a1.88 1.88 0 0 1-1.35-.506 1.7 1.7 0 0 1-.534-1.293A1.75 1.75 0 0 1 68.9.52a1.993 1.993 0 0 1 2.685 0 1.73 1.73 0 0 1 .548 1.307 1.7 1.7 0 0 1-.548 1.28 1.87 1.87 0 0 1-1.335.52Zm9.058 16.277q-2.334 0-3.781-1.166-1.448-1.167-1.448-3.134 0-1.8 1.504-3.05 1.504-1.252 3.781-1.252 2.334 0 3.936 1.49v-1.659q0-1.461-.745-2.262-.746-.802-2.123-.802-2.783 0-3.457 2.84l-2.784-.59q.562-2.194 2.221-3.458 1.66-1.266 4.133-1.266 2.699 0 4.259 1.42t1.56 4.146v8.406H83.41V17.85q-1.49 2.052-4.104 2.052Zm.561-2.249q2.025 0 3.43-2.024v-.422q-1.405-1.686-3.43-1.686-1.18 0-1.912.576a1.8 1.8 0 0 0-.731 1.476 1.84 1.84 0 0 0 .717 1.504q.718.576 1.927.576Zm9.452 1.912V5.932h2.952v2.36q1.124-2.585 3.88-2.585 1.63 0 2.698 1.068 1.07 1.068 1.068 2.867a6.7 6.7 0 0 1-.365 2.109l-2.783-.281q.085-.56.112-1.125 0-2.108-1.743-2.108-1.18 0-1.982 1.25-.8 1.252-.801 3.304v6.775z"/><path fill="#FF3C00" d="M7.183 8.018c2.262-1.257 5.36-2.979 5.36-7.99h-3.75c0 2.804-1.365 3.562-3.431 4.71C3.099 5.995 0 7.716 0 12.728h3.752c0-2.804 1.365-3.563 3.431-4.71m6.492-1.152c0 2.804-1.365 3.562-3.431 4.71-2.262 1.257-5.361 2.978-5.361 7.99h3.752c0-2.804 1.365-3.562 3.43-4.71 2.263-1.257 5.361-2.979 5.361-7.99z"/></g><defs><clipPath id="a"><path fill="#fff" d="M0 0h100v25.806H0z"/></clipPath></defs></svg>