<svg xmlns="http://www.w3.org/2000/svg" width="278.261" height="64" fill="none" viewBox="0 0 100 23"><path fill="#748297" fill-rule="evenodd" d="M7.48 1.271h-.007a5 5 0 0 0-.593-.022q-.745-.001-1.518.237c-1.598.542-2.926 1.96-3.637 4.19-.68 2.172-.635 4.79.168 7.364 1.348 4.225 4.39 7.067 7.276 7.418h.003c.179.022.37.024.614.024a5.1 5.1 0 0 0 1.518-.238c1.614-.546 2.96-1.942 3.632-4.174l.002-.006.002-.007c.681-2.172.638-4.79-.166-7.367-1.345-4.215-4.386-7.038-7.288-7.418zm8.486 7.044c.869 2.782.935 5.664.167 8.116-.768 2.55-2.371 4.306-4.442 5.002a6.3 6.3 0 0 1-1.905.298c-.233 0-.5 0-.768-.033-3.54-.43-6.881-3.777-8.318-8.282C-.168 10.633-.235 7.752.533 5.3 1.335 2.783 2.905.994 4.976.298A6.3 6.3 0 0 1 6.88 0c.267 0 .535 0 .769.033 3.54.464 6.88 3.777 8.317 8.282" clip-rule="evenodd"/><path fill="#748297" d="M6.745 10.261c.627 0 1.136-.504 1.136-1.126s-.509-1.127-1.136-1.127-1.136.505-1.136 1.127.509 1.126 1.136 1.126"/><path fill="#fff" fill-rule="evenodd" d="M6.743 8.03a1.11 1.11 0 0 0-1.115 1.105c0 .61.5 1.105 1.115 1.105a1.11 1.11 0 0 0 1.114-1.105A1.11 1.11 0 0 0 6.743 8.03M5.586 9.135c0-.634.518-1.148 1.157-1.148S7.9 8.501 7.9 9.135s-.518 1.147-1.157 1.147a1.15 1.15 0 0 1-1.157-1.147" clip-rule="evenodd"/><path fill="#748297" d="M12.217 14.335 8.61 5.093l5.646 8.448zm29.126-3.61v6.02h-2.284v-5.728c0-1.52-.782-2.396-2.164-2.396-1.262 0-2.104.877-2.224 2.046v6.078h-2.224v-5.728c0-1.52-.841-2.396-2.043-2.396-1.443 0-2.344 1.052-2.344 2.396v5.67h-2.224V6.75h2.104v1.344c.54-.877 1.442-1.52 2.944-1.52 1.443 0 2.585.643 3.246 1.812.601-1.052 1.743-1.812 3.306-1.812 2.344.059 3.907 1.695 3.907 4.15Zm2.157 10.93 2.525-5.67-4.087-9.175h2.524l2.764 6.78 2.765-6.78h2.464l-6.55 14.845zm28.91-10.93v6.02h-2.284v-5.728c0-1.52-.78-2.396-2.163-2.396-1.262 0-2.104.877-2.224 2.046v6.078h-2.284v-5.728c0-1.52-.841-2.396-2.043-2.396-1.443 0-2.344 1.052-2.344 2.396v5.67h-2.224V6.75h2.103v1.344c.541-.877 1.443-1.52 2.946-1.52 1.442 0 2.584.643 3.245 1.812.601-1.052 1.743-1.812 3.306-1.812 2.404.059 3.966 1.695 3.966 4.15Zm4.634-7.365c0 .76-.661 1.345-1.443 1.345-.781 0-1.382-.585-1.382-1.345s.661-1.344 1.382-1.344c.842-.058 1.443.584 1.443 1.344m-2.525 13.385V6.809h2.224v9.936zm13.581-6.02v6.02h-2.285v-5.728c0-1.52-.902-2.396-2.224-2.396-1.442 0-2.344 1.052-2.344 2.396v5.67h-2.224V6.75h2.104v1.344c.54-.877 1.503-1.52 3.005-1.52 2.284.059 3.967 1.578 3.967 4.15Zm9.796 6.02v-1.402c-.541.935-1.804 1.578-3.366 1.578-2.825 0-4.928-1.987-4.928-5.144s2.103-5.143 4.928-5.143c1.562 0 2.705.584 3.246 1.403V1.666h2.223v15.08h-2.103Zm-6.01-4.968c0 2.105 1.261 3.274 3.005 3.274 1.682 0 2.885-1.053 2.885-3.04v-.526c0-1.987-1.203-3.04-2.885-3.04-1.744 0-3.006 1.228-3.006 3.332Z"/></svg>