<svg xmlns="http://www.w3.org/2000/svg" width="336.842" height="64" fill="none" viewBox="0 0 100 19"><g clip-path="url(#a)"><path fill="#000" d="M0 9.72a5.6 5.6 0 0 1 .349-1.956 4.8 4.8 0 0 1 1-1.625q1.42-1.514 3.687-1.514T8.625 6.05q1.272 1.356 1.271 3.521 0 2.166-1.31 3.588-1.383 1.5-3.67 1.5-2.36 0-3.698-1.478Q0 11.839 0 9.72m2.259-.055c0 .386.065.769.195 1.133.119.348.309.667.557.938q.771.846 2.025.846 1.163 0 1.832-.827.65-.799.65-2.081c0-1.282-.223-1.555-.67-2.1q-.715-.855-1.96-.855-1.263 0-1.98.906a3.2 3.2 0 0 0-.65 2.04Zm11.413-4.499a4.6 4.6 0 0 1 2.125-.538 4.7 4.7 0 0 1 1.875.34c.52.225.988.555 1.375.97q1.292 1.405 1.292 3.55 0 2.35-1.403 3.79-1.348 1.386-3.355 1.386-1.764 0-2.91-.92-1.281-1.042-1.28-2.875V.697h2.276zm0 5.679q0 1.635 2.035 1.635 1 0 1.672-.875.673-.875.688-2.221 0-1.336-.725-2.017-.65-.603-1.75-.603-.66 0-1.459.446a3.5 3.5 0 0 0-.465.306zm7.141-6.031h2.625l2.267 6.393 2.193-6.393h2.573l-3.837 9.711h-1.91zm11.101-2.769A15 15 0 0 1 33.465 0l2 1.57q-.4.492-.743.968l-.717 1.012-2.09-1.505Zm2.444 11.439q-.012.521.036 1.041h-2.36V4.814h2.324zm19.505.195q-1.188.984-2.592.985-1.5 0-2.36-1.013-.817-.986-.819-2.705V7.258q.001-1.86-.079-2.133a3 3 0 0 0-.115-.349q.425.038.892.038h.77q.308 0 .81-.028v5.375q0 1.915 1.04 2.222.337.095.687.092a2.19 2.19 0 0 0 1.766-.799V4.814h2.305v8.521q-.016.598.074 1.19h-2.375zm8.165.985q-2.624 0-3.95-.958.019-.278.056-.631l.084-.669.093-.822q.006-.09.027-.178c0-.008.056.041.149.149q.236.236.53.395.429.251.901.409c.742.253 1.521.38 2.305.375q1.606 0 1.608-1.069a.55.55 0 0 0-.307-.511q-.549-.278-1.612-.423a7.2 7.2 0 0 1-1.743-.422 3.7 3.7 0 0 1-1.106-.669q-.789-.735-.79-1.924 0-1.45 1.115-2.277 1.116-.828 3.058-.814 1.933 0 3.298 1.096-.066.241-.138.465-.215.614-.317.883l-.213.556q-.02.075-.028.074A.8.8 0 0 1 64.9 7.5q-.586-.676-1.82-.891a4 4 0 0 0-.782-.075q-1.692 0-1.691 1.022a.58.58 0 0 0 .353.539q.658.355 1.808.52t1.741.451c.361.163.686.395.958.684q.67.725.668 1.924a2.57 2.57 0 0 1-1.05 2.125q-1.096.866-3.056.865Zm8.175-1.18q-.013.521.037 1.041h-2.365V.679h2.324zm2.023 4.275.613-.493q1.387-1.125 2.296-3.317l.427-1.033L72 4.814h2.603l2.23 5.612 2.072-5.612h2.676q-.484.669-1.18 2.49L79.01 10.75q-2.798 6.58-4.385 7.845zm8.922-3.234q.079-.496.084-1v-.6c0-.109-.009-.215-.015-.32l-.017-.298-.03-.232h2.696a8 8 0 0 0-.028.576l-.018.39v.665q-.005.413.046.823zm11.238-.576q-1.32.715-2.39.715a7.3 7.3 0 0 1-1.83-.2 3.8 3.8 0 0 1-1.292-.589q-1.077-.789-1.077-2.286 0-1.338 1.319-2.23 1.432-.966 3.885-.966l.375.008q.112.01.25.015.125.003.25.023-.075-1.486-1.283-1.738a4 4 0 0 0-.85-.083 5 5 0 0 0-.882.078 7 7 0 0 0-.842.21q-.9.288-1.292.659l-.028-.018-.278-2.053a7.6 7.6 0 0 1 3.595-.869q3.03 0 3.875 2.184c.186.502.277 1.035.268 1.571v3.37q0 1.08.763 1.467L93.24 14.76a2.17 2.17 0 0 1-.855-.811Zm-.5-3.839a3 3 0 0 0-.52-.046h-.375q-2.054 0-2.612.911a1.05 1.05 0 0 0-.167.566c-.004.181.032.36.106.525.078.159.203.29.358.375q.483.279 1.436.279a3.63 3.63 0 0 0 1.78-.455c0-.068-.01-.139-.01-.214zm4.567-8.065A15 15 0 0 1 98.003 0l2 1.57q-.399.492-.75.968l-.715 1.012zm2.445 11.439q-.012.521.036 1.041h-2.36V4.814h2.324z"/><path fill="#F8B228" d="m42.156 8.956 2.114-3.661a5.5 5.5 0 0 1 1.91 7.125l-3.661-2.111a.99.99 0 0 1-.363-1.353"/><path fill="#2D1D2F" d="m42.253 10.785 3.661 2.114a5.5 5.5 0 0 1-7.125 1.909l2.114-3.66a.99.99 0 0 1 1.35-.363"/><path fill="#6AB3E3" d="m38.304 14.533 2.89-5a.191.191 0 0 0-.288-.25 14.6 14.6 0 0 1-4.75 2.616 5.47 5.47 0 0 0 2.148 2.634"/><path fill="#E41E26" d="M35.985 11.375a14.1 14.1 0 0 0 7.81-6.351 5.5 5.5 0 0 0-7.81 6.351"/></g><defs><clipPath id="a"><path fill="#fff" d="M0 0h100v18.625H0z"/></clipPath></defs></svg>