<svg xmlns="http://www.w3.org/2000/svg" width="188.235" height="64" fill="none" viewBox="0 0 100 34"><g fill="#00297A" clip-path="url(#a)"><path d="M12.575 8.45C5.625 8.45 0 14.075 0 21.025S5.625 33.6 12.575 33.6 25.15 27.975 25.15 21.025 19.525 8.45 12.575 8.45m0 18.875a6.306 6.306 0 0 1-6.3-6.3c0-3.475 2.825-6.3 6.3-6.3s6.3 2.825 6.3 6.3-2.825 6.3-6.3 6.3m22.098-2.075c0-1 1.2-1.475 1.9-.775 3.15 3.2 8.35 8.7 8.375 8.725.075.075.15.2.45.3.125.05.325.05.55.05h5.675c1.025 0 1.325-1.175.85-1.775l-9.4-9.625-.5-.5c-1.075-1.275-.95-1.775.275-3.075l7.45-8.325c.475-.6.175-1.75-.875-1.75h-5.15c-.2 0-.35 0-.5.05-.3.1-.425.2-.5.3-.025.025-4.15 4.475-6.7 7.2-.7.75-1.95.25-1.95-.775V1c0-.725-.6-1-1.075-1h-4.2c-.725 0-1.075.475-1.075.9v31.65c0 .725.6.925 1.1.925h4.2c.65 0 1.075-.475 1.075-.95V25.25zm34.299 7.15-.45-4.2c-.05-.575-.6-.975-1.175-.875q-.488.075-.975.075c-3.35 0-6.075-2.625-6.275-5.95v-5.5c0-.675.5-1.225 1.175-1.225h5.625c.4 0 1-.35 1-1.075V9.675c0-.775-.5-1.175-.95-1.175h-5.675c-.65 0-1.175-.475-1.2-1.125V1c0-.4-.3-1-1.075-1h-4.175c-.525 0-1.025.325-1.025.975V21.45c.175 6.8 5.75 12.225 12.575 12.225.575 0 1.125-.05 1.675-.125.6-.075 1-.575.925-1.15m30.303-5.275c-3.55 0-4.1-1.275-4.1-6.05V9.55c0-.4-.3-1.075-1.1-1.075h-4.2c-.525 0-1.1.425-1.1 1.075v.525a12.4 12.4 0 0 0-6.2-1.65C75.625 8.425 70 14.05 70 21s5.625 12.575 12.575 12.575c3.125 0 5.975-1.15 8.175-3.025 1.175 1.8 3.075 3 6.05 3.025.5 0 3.2.1 3.2-1.175v-4.475c0-.375-.3-.8-.725-.8m-16.675.2a6.306 6.306 0 0 1-6.3-6.3c0-3.475 2.825-6.3 6.3-6.3s6.3 2.825 6.3 6.3c-.025 3.475-2.85 6.3-6.3 6.3"/></g><defs><clipPath id="a"><path fill="#fff" d="M0 0h100v33.75H0z"/></clipPath></defs></svg>