<svg xmlns="http://www.w3.org/2000/svg" width="48.64" height="64" fill="none" viewBox="0 0 38 50"><g clip-path="url(#a)"><path fill="#000" d="M25 45v1.22a3.125 3.125 0 0 1-4.657 2.723L1.593 38.396A3.13 3.13 0 0 1 0 35.672V14.328c0-1.13.609-2.17 1.593-2.724l18.75-10.547A3.125 3.125 0 0 1 25 3.781V5l2.227-.668a3.125 3.125 0 0 1 4.023 2.993v1.269l2.737-.342a3.125 3.125 0 0 1 3.513 3.1v27.296a3.125 3.125 0 0 1-3.513 3.1l-2.737-.342v1.269a3.125 3.125 0 0 1-4.023 2.993zm0-3.263 3.125.938V7.325L25 8.263zm6.25-29.994v26.514l3.125.39V11.352zM0 34.741V15.26zm3.125-20.413v21.344l18.75 10.547V3.781zm3.125 2.078 3.125-1.562v20.312L6.25 33.594z"/></g><defs><clipPath id="a"><path fill="#fff" d="M0 0h37.5v50H0z"/></clipPath></defs></svg>