<svg xmlns="http://www.w3.org/2000/svg" width="51.2" height="64" fill="none" viewBox="0 0 40 50"><g clip-path="url(#a)"><path fill="#FDD82F" fill-rule="evenodd" d="M7.979 2.605V5.21l8.643.187c8.33.181 8.735.242 11.156 1.665 8.114 4.77 7.324 17.773-1.298 21.368-1.498.625-3.98.825-10.24.825H7.98V50h5.851V34.684l6.516-.214c5.526-.181 6.92-.408 9.175-1.498 3.755-1.813 7.384-5.707 8.789-9.428 2.357-6.248.657-13.846-4.089-18.263C29.573.954 26.206 0 15.58 0H7.979zm0 6.535c0 .347-.479 1.62-1.064 2.828C5.862 14.144 2.72 16.49.859 16.49c-.504 0-.859.44-.859 1.064 0 .718.355 1.064 1.09 1.064 2.796 0 5.878 2.918 6.599 6.25.539 2.487 1.463 2.124 2.683-1.055 1.148-2.99 3.666-5.195 5.93-5.195.896 0 1.251-.302 1.251-1.064 0-.624-.355-1.064-.858-1.064-1.862 0-5.004-2.345-6.057-4.52-.585-1.21-1.064-2.482-1.064-2.829 0-.346-.359-.63-.797-.63-.44 0-.798.284-.798.63Z" clip-rule="evenodd"/></g><defs><clipPath id="a"><path fill="#fff" d="M0 0h39.894v50H0z"/></clipPath></defs></svg>