<svg xmlns="http://www.w3.org/2000/svg" width="64" height="64" fill="none" viewBox="0 0 50 50"><g clip-path="url(#a)"><path fill="#88CFB0" d="M17.188 48.734V33.797h15.624v6.11a8.843 8.843 0 0 1-8.843 8.828h-6.782Z"/><path fill="#2F2F3A" d="M23.938 50h-7.97V32.531h18.063v7.375A10.11 10.11 0 0 1 23.938 50m-5.454-2.531h5.453a7.58 7.58 0 0 0 7.579-7.563v-4.843H18.484z"/><path fill="#F2C94C" d="M33.188 33.376V17.532h15.624v7a8.83 8.83 0 0 1-8.828 8.844z"/><path fill="#2F2F3A" d="M39.906 34.641h-7.984V16.266H50v8.266a10.11 10.11 0 0 1-10.094 10.11Zm-5.453-2.53h5.453a7.58 7.58 0 0 0 7.563-7.579v-5.781H34.453z"/><path fill="#BD83CE" d="M32.766 17.532H17.219v15.844h15.547z"/><path fill="#2F2F3A" d="M34.031 34.641H15.97V16.266h18.06zm-15.625-2.53h13.032V18.75H18.483z"/><path fill="#40BE88" d="M1.266 17.187v-7.093a8.83 8.83 0 0 1 8.828-8.828h6.718v15.921z"/><path fill="#2F2F3A" d="M18.078 18.375H0v-8.281A10.11 10.11 0 0 1 10.094 0h7.984zM2.531 15.844h13.094V2.53h-5.531a7.563 7.563 0 0 0-7.563 7.563z"/><path fill="#FF7474" d="M33.188 17.187V1.266h6.718a8.83 8.83 0 0 1 8.828 8.828v7.093H33.187Z"/><path fill="#2F2F3A" d="M50 18.375H31.922V0h7.984A10.11 10.11 0 0 1 50 10.094zm-15.547-2.531H47.47v-5.75a7.563 7.563 0 0 0-7.563-7.563h-5.453z"/><path fill="#6776F9" d="M32.766 1.266H17.219v15.843h15.547z"/><path fill="#2F2F3A" d="M34.031 18.375H15.97V0h18.06zm-15.625-2.531h13.032V2.53H18.483z"/><path fill="#37C2E2" d="M1.266 39.906v-6.109H16.89v14.938h-6.796a8.83 8.83 0 0 1-8.828-8.829"/><path fill="#2F2F3A" d="M18.078 50h-7.984A10.11 10.11 0 0 1 0 39.906v-7.375h18.078zM2.531 35.063v4.843a7.56 7.56 0 0 0 7.563 7.563h5.531V35.063z"/><path fill="#F2994A" d="M16.812 17.532H1.266v15.844h15.546z"/><path fill="#2F2F3A" d="M18.078 34.641H0V16.266h18.078zm-15.547-2.53h13.094V18.75H2.531z"/></g><defs><clipPath id="a"><path fill="#fff" d="M0 0h50v50H0z"/></clipPath></defs></svg>