<svg xmlns="http://www.w3.org/2000/svg" width="213.333" height="64" fill="none" viewBox="0 0 100 30"><g fill="#000" clip-path="url(#a)"><path d="M6.299 11.745S2.899 24.27 16.524 24.38c4.275-1.591 7.425-5.493 7.903-10.197.033-.325.043-.657.05-.99.002-.087.013-.172.013-.26 0-.379-.023-.752-.057-1.122-3.6 14.17-19.524 8.62-18.134-.065Z"/><path d="M13.345 7.096S.659 3.554.854 17.386c.65 1.672 1.66 3.18 2.956 4.42l.166.15q.55.508 1.16.945c.062.045.121.095.185.139q.643.44 1.338.794c.134.07.272.132.409.197q.598.281 1.222.496c.102.035.2.078.303.11a12 12 0 0 0 1.992.433q.8.114 1.61.125l.062.003q.61-.001 1.204-.06C-.773 21.743 4.637 5.826 13.345 7.096"/><path d="M18.293 13.656S21.294 1.003 7.784 1.568C3.254 3.358.047 7.765.047 12.93q.006.835.126 1.662c2.843-14.315 19.041-9.679 18.12-.937Z"/><path d="M11.807 19.101S24.515 20.76 23.719 8.678C21.99 4.027 17.524.708 12.271.708a12.3 12.3 0 0 0-2.216.21c14.16 1.738 10.48 18.307 1.752 18.183"/><path d="M15.801 12.932a3.424 3.424 0 1 1-6.849 0 3.424 3.424 0 0 1 6.85 0Zm14.747 9.946V6.638h2.436v3.995q.131-.423.487-1.105.39-.714 1.105-1.43.715-.714 1.786-1.201 1.104-.52 2.599-.52h.162v2.437h-.292q-1.82 0-3.15 1.007-1.3.975-2.015 2.566a8.3 8.3 0 0 0-.682 3.345v7.146zm17.996.26q-2.469 0-4.32-1.104a8 8 0 0 1-2.891-3.053q-1.007-1.917-1.007-4.223 0-2.34.975-4.223a7.37 7.37 0 0 1 2.793-3.02q1.82-1.138 4.288-1.138 2.5 0 4.287 1.137a7.37 7.37 0 0 1 2.794 3.021q.974 1.883.974 4.223v.974h-13.61q.195 1.43.91 2.631a5.7 5.7 0 0 0 1.981 1.884q1.235.682 2.859.682 1.72 0 2.89-.747a5.5 5.5 0 0 0 1.82-1.981h2.663a8.03 8.03 0 0 1-2.696 3.573q-1.82 1.364-4.71 1.364m-5.684-9.68h11.044q-.326-2.079-1.754-3.475-1.43-1.397-3.768-1.397-2.34 0-3.768 1.397-1.397 1.397-1.754 3.476ZM59.414 29.31V6.637h2.436v2.599a6.36 6.36 0 0 1 2.339-2.079q1.462-.78 3.475-.78 2.371 0 4.126 1.137a7.44 7.44 0 0 1 2.76 3.021q.975 1.884.975 4.223 0 2.306-.974 4.223a7.7 7.7 0 0 1-2.761 3.053q-1.755 1.104-4.126 1.104-2.013 0-3.475-.78a7.1 7.1 0 0 1-2.339-2.11v9.062zm7.925-8.38q1.82 0 3.086-.845a5.5 5.5 0 0 0 1.982-2.242 7.1 7.1 0 0 0 .682-3.085q0-1.69-.682-3.086a5.5 5.5 0 0 0-1.982-2.241q-1.267-.845-3.085-.845-1.788 0-3.054.845a5.36 5.36 0 0 0-1.916 2.241q-.65 1.397-.65 3.086a7.4 7.4 0 0 0 .65 3.085 5.35 5.35 0 0 0 1.916 2.242q1.267.844 3.053.844Zm11.393 1.948V.141h2.436v22.737zm6.564-18.97V.726h2.63V3.91h-2.63Zm.097 18.97V6.638h2.436v16.24zm8.415 0V8.781h-3.313V6.637h3.313V.823h2.437v5.814h3.735v2.144h-3.735v14.097z"/></g><defs><clipPath id="a"><path fill="#fff" d="M0 0h100v29.336H0z"/></clipPath></defs></svg>