<svg xmlns="http://www.w3.org/2000/svg" width="64" height="64" fill="none" viewBox="0 0 50 50"><g clip-path="url(#a)"><path fill="#E01E5A" d="M10.706 31.496a5.19 5.19 0 0 1-5.197 5.197 5.19 5.19 0 0 1-5.197-5.197 5.19 5.19 0 0 1 5.197-5.197h5.197zm2.599 0a5.19 5.19 0 0 1 5.197-5.197 5.19 5.19 0 0 1 5.196 5.197v12.992a5.19 5.19 0 0 1-5.197 5.197 5.19 5.19 0 0 1-5.196-5.197z"/><path fill="#36C5F0" d="M18.502 10.63a5.19 5.19 0 0 1-5.197-5.197A5.19 5.19 0 0 1 18.502.236a5.19 5.19 0 0 1 5.197 5.197v5.197zm0 2.638a5.19 5.19 0 0 1 5.197 5.197 5.19 5.19 0 0 1-5.197 5.196H5.47a5.19 5.19 0 0 1-5.197-5.196 5.19 5.19 0 0 1 5.197-5.197z"/><path fill="#2EB67D" d="M39.328 18.465a5.19 5.19 0 0 1 5.197-5.197 5.19 5.19 0 0 1 5.197 5.197 5.19 5.19 0 0 1-5.197 5.196h-5.197zm-2.598 0a5.19 5.19 0 0 1-5.197 5.196 5.19 5.19 0 0 1-5.197-5.196V5.433A5.19 5.19 0 0 1 31.533.236a5.19 5.19 0 0 1 5.197 5.197z"/><path fill="#ECB22E" d="M31.533 39.291a5.19 5.19 0 0 1 5.197 5.197 5.19 5.19 0 0 1-5.197 5.197 5.19 5.19 0 0 1-5.197-5.197v-5.197zm0-2.598a5.19 5.19 0 0 1-5.197-5.197 5.19 5.19 0 0 1 5.197-5.197h13.031a5.19 5.19 0 0 1 5.197 5.197 5.19 5.19 0 0 1-5.197 5.197z"/></g><defs><clipPath id="a"><path fill="#fff" d="M0 0h50v50H0z"/></clipPath></defs></svg>