<svg xmlns="http://www.w3.org/2000/svg" width="200" height="64" fill="none" viewBox="0 0 100 32"><path fill="#1CD155" fill-rule="evenodd" d="M77.936 7.27a1.655 1.655 0 0 0-1.657 1.655 1.66 1.66 0 0 0 1.655 1.658 1.656 1.656 0 0 0 1.171-2.83 1.66 1.66 0 0 0-1.171-.485l.002.001Zm1.14 4.589H76.77a.17.17 0 0 0-.168.17V22.11c0 .095.074.17.168.17h2.31a.17.17 0 0 0 .17-.17V12.029a.17.17 0 0 0-.17-.17h-.002Zm5.134.01v-.318c0-.94.36-1.36 1.168-1.36.481 0 .867.095 1.302.241a.17.17 0 0 0 .153-.023.17.17 0 0 0 .07-.139V8.324a.17.17 0 0 0-.121-.162 6.3 6.3 0 0 0-1.921-.276c-2.132 0-3.259 1.202-3.259 3.476v.489h-1.11a.17.17 0 0 0-.17.168v1.997c0 .094.077.17.17.17h1.11v7.927a.17.17 0 0 0 .168.169h2.31a.17.17 0 0 0 .168-.17v-7.927h2.156l3.303 7.927c-.375.83-.743.997-1.246.997-.408 0-.837-.122-1.275-.362a.17.17 0 0 0-.133-.013.17.17 0 0 0-.1.092l-.782 1.718a.17.17 0 0 0 .071.219c.817.443 1.556.632 2.467.632 1.704 0 2.647-.794 3.477-2.934l4.007-10.36a.168.168 0 0 0-.157-.233h-2.404a.17.17 0 0 0-.158.115l-2.464 7.039-2.698-7.044a.17.17 0 0 0-.157-.11H84.21Zm-8.852-.01h-2.54v-2.6a.17.17 0 0 0-.17-.17h-2.31a.17.17 0 0 0-.167.17v2.6h-1.112a.167.167 0 0 0-.168.17v1.986c0 .093.076.17.168.17h1.112v5.137c0 2.078 1.031 3.13 3.07 3.13.828 0 1.514-.17 2.161-.537a.17.17 0 0 0 .086-.148v-1.89a.17.17 0 0 0-.244-.153 2.9 2.9 0 0 1-1.356.327c-.741 0-1.072-.335-1.072-1.09v-4.776h2.54a.17.17 0 0 0 .158-.105.2.2 0 0 0 .012-.065v-1.986a.17.17 0 0 0-.103-.157.2.2 0 0 0-.065-.013m-12.176-.211c-3.111 0-5.551 2.398-5.551 5.46 0 3.029 2.422 5.4 5.513 5.4 3.122 0 5.568-2.389 5.568-5.439 0-3.04-2.429-5.421-5.53-5.421m0 8.518c-1.656 0-2.905-1.332-2.905-3.098 0-1.771 1.206-3.057 2.867-3.057 1.666 0 2.92 1.332 2.92 3.098 0 1.771-1.21 3.057-2.882 3.057m-11.134-8.518c-1.301 0-2.368.513-3.247 1.563v-1.182a.17.17 0 0 0-.169-.17h-2.31a.17.17 0 0 0-.167.17v13.138a.17.17 0 0 0 .168.168h2.31a.17.17 0 0 0 .168-.168V21.02c.88.987 1.947 1.47 3.247 1.47 2.416 0 4.862-1.862 4.862-5.42 0-3.559-2.444-5.422-4.862-5.422m2.178 5.421c0 1.811-1.116 3.078-2.712 3.078-1.58 0-2.77-1.324-2.77-3.078s1.19-3.077 2.77-3.077c1.57 0 2.714 1.293 2.714 3.077zm-13.39-2.875c-2.578-.616-3.037-1.048-3.037-1.956 0-.857.806-1.434 2.007-1.434 1.161 0 2.315.437 3.523 1.34a.17.17 0 0 0 .238-.037l1.26-1.778a.17.17 0 0 0-.031-.229c-1.438-1.156-3.059-1.717-4.952-1.717-2.786 0-4.73 1.671-4.73 4.065 0 2.566 1.677 3.474 4.577 4.175 2.467.569 2.884 1.045 2.884 1.898 0 .944-.841 1.53-2.198 1.53-1.505 0-2.732-.508-4.107-1.696a.166.166 0 0 0-.24.02l-1.412 1.68a.17.17 0 0 0 .018.235 8.4 8.4 0 0 0 5.684 2.18c3 0 4.94-1.64 4.94-4.179 0-2.146-1.282-3.333-4.424-4.098zM15.093.484A14.93 14.93 0 0 0 4.53 4.863a14.955 14.955 0 0 0 0 21.14 14.93 14.93 0 0 0 21.123 0 14.955 14.955 0 0 0 0-21.14A14.93 14.93 0 0 0 15.093.484m6.85 21.561a.93.93 0 0 1-1.28.31c-3.508-2.145-7.921-2.63-13.121-1.441a.93.93 0 0 1-.966-.369.933.933 0 0 1 .552-1.447c5.689-1.303 10.57-.742 14.506 1.667a.934.934 0 0 1 .31 1.28Zm1.826-4.07a1.165 1.165 0 0 1-1.6.384c-4.014-2.47-10.135-3.185-14.884-1.742a1.166 1.166 0 0 1-1.315-1.655c.132-.266.36-.472.639-.576 5.425-1.647 12.168-.848 16.777 1.986a1.167 1.167 0 0 1 .384 1.605zm.16-4.238c-4.816-2.861-12.758-3.125-17.354-1.727a1.397 1.397 0 1 1-.81-2.675C11.038 7.73 19.81 8.04 25.351 11.333a1.4 1.4 0 0 1-.367 2.557c-.36.092-.74.037-1.059-.152" clip-rule="evenodd"/></svg>