<svg xmlns="http://www.w3.org/2000/svg" width="256" height="64" fill="none" viewBox="0 0 100 25"><g clip-path="url(#a)"><mask id="b" width="25" height="25" x="0" y="0" maskUnits="userSpaceOnUse" style="mask-type:alpha"><path fill="#fff" fill-rule="evenodd" d="M12.5 25C19.404 25 25 19.404 25 12.5S19.404 0 12.5 0 0 5.596 0 12.5 5.596 25 12.5 25" clip-rule="evenodd"/></mask><g mask="url(#b)"><path fill="#F64942" d="M28.998-.662H-2.57v19.265h31.568z"/><path fill="#F4CE45" d="M5.51 20.423c-1.6-3.14-.056-6.94 4.121-7.962 12.136-1.982 10.316-5.74 14.033-7.08 6.916-2.493 5.167 6.183 3.776 8.609s1.903 7.028-2.819 7.363c-2.972.21-3.838-1.464-9.076.697-2.694 1.112-2.852.866-5.65-.035l-2.393-1.21-1.991-.381Z"/><path fill="#5B95BF" d="M11.836-2.417c-3.227.43-19.737 3.905-20.914 4.442l2.871 16.298c1.724-.167 4.923 1.55 4.923-.868 0-2.345.476-3.345 2.093-6.156 2.378-4.13 7.64-4.061 9.474-4.15 4.338-.213 9.083-1.6 11.507-5.122 8.309-12.066.425-7.306-9.954-4.444"/><path fill="#EF90A4" d="M8.351 16.51c-3.363.01-6.91 1.047-10.148 2.263l1.272 13.77c8.813-1.103 24.655-3.74 25.64-5.41 1.143-1.937-.467-3.23 2.852-4.994 2.655-1.412 5.596-6.994-.666-7.057-3.467.028-4.354.747-7.059 1.762-4.457 1.672-9.314-.342-11.89-.334Z"/><path fill="#fff" fill-rule="evenodd" d="M12.602 4.044c.429 0 .797.258.958.627a.095.095 0 0 0 .126.049.1.1 0 0 0 .032-.024 1.047 1.047 0 0 1 1.58-.026c.136.152.225.34.254.542a.1.1 0 0 0 .056.072.1.1 0 0 0 .09-.01 1.047 1.047 0 0 1 1.381.16 1.04 1.04 0 0 1 .257.815.094.094 0 0 0 .079.101.1.1 0 0 0 .046-.004 1.046 1.046 0 0 1 1.33 1.365.095.095 0 0 0 .05.119q.021.01.046.008a1.044 1.044 0 0 1 .931 1.662.1.1 0 0 0-.01.09.1.1 0 0 0 .07.058 1.045 1.045 0 0 1 .47 1.847.094.094 0 0 0 .02.158 1.044 1.044 0 0 1-.023 1.905c-.063.028-.078.113-.025.158a1.044 1.044 0 0 1-.517 1.835.095.095 0 0 0-.062.146 1.045 1.045 0 0 1-.984 1.637.095.095 0 0 0-.087.126 1.043 1.043 0 0 1-1.365 1.33.1.1 0 0 0-.07.003.1.1 0 0 0-.057.093 1.044 1.044 0 0 1-1.663.932.1.1 0 0 0-.053-.018.095.095 0 0 0-.094.077 1.045 1.045 0 0 1-1.847.47.09.09 0 0 0-.072-.035.1.1 0 0 0-.086.054 1.045 1.045 0 0 1-1.905-.023.096.096 0 0 0-.126-.049.1.1 0 0 0-.031.024 1.046 1.046 0 0 1-1.835-.516.094.094 0 0 0-.146-.062 1.04 1.04 0 0 1-1.123.05 1.04 1.04 0 0 1-.515-1.024.094.094 0 0 0-.126-.098 1.04 1.04 0 0 1-1.38-.77 1.04 1.04 0 0 1 .05-.595.094.094 0 0 0-.095-.127 1.043 1.043 0 0 1-.931-1.662.095.095 0 0 0-.017-.128.1.1 0 0 0-.043-.02 1.044 1.044 0 0 1-.47-1.847.094.094 0 0 0-.019-.158 1.045 1.045 0 0 1 .023-1.905.1.1 0 0 0 .055-.072.1.1 0 0 0-.03-.085 1.045 1.045 0 0 1 .516-1.835.095.095 0 0 0 .062-.146 1.044 1.044 0 0 1 .984-1.638.094.094 0 0 0 .088-.125 1.045 1.045 0 0 1 1.365-1.33.095.095 0 0 0 .126-.096 1.044 1.044 0 0 1 1.663-.932.09.09 0 0 0 .115-.004.1.1 0 0 0 .033-.056 1.044 1.044 0 0 1 1.847-.47.09.09 0 0 0 .071.035.09.09 0 0 0 .086-.053c.167-.357.528-.605.947-.605" clip-rule="evenodd"/><path fill="#000" fill-rule="evenodd" d="M16.393 16.602c-.941 0-.868-1.329 0-1.329s.942 1.33 0 1.33Zm-7.78 0c-.942 0-.869-1.329 0-1.329.867 0 .941 1.33 0 1.33Zm10.625-4.91h-.319a1.41 1.41 0 0 1-1.283-.833 1.406 1.406 0 0 1-2.566 0 1.407 1.407 0 0 1-2.567 0 1.407 1.407 0 0 1-2.566 0 1.406 1.406 0 0 1-2.567 0 1.41 1.41 0 0 1-1.283.832H5.77c-.478.515-.174.95 1.007.95v2.643c0 2.485 2.861 3.727 5.722 3.727s5.722-1.242 5.722-3.726v-2.644c1.183 0 1.49-.435 1.016-.95Z" clip-rule="evenodd"/><path fill="#000" fill-rule="evenodd" d="M12.592 3.186c-.419 0-.82.131-1.153.363a2.025 2.025 0 0 0-2.282.58 2.02 2.02 0 0 0-2.052 1.15A2.02 2.02 0 0 0 5.42 6.925a2.03 2.03 0 0 0-.94.84c-.206.357-.297.77-.262 1.181a2.02 2.02 0 0 0-.638 2.265 2.02 2.02 0 0 0-.03 2.352 2.02 2.02 0 0 0 .58 2.28 2.02 2.02 0 0 0 1.15 2.054 2.02 2.02 0 0 0 1.643 1.686 2.02 2.02 0 0 0 2.023 1.202 2.02 2.02 0 0 0 2.266.638 2.02 2.02 0 0 0 2.35.03 2.02 2.02 0 0 0 2.281-.581 2.03 2.03 0 0 0 2.052-1.15 2.02 2.02 0 0 0 1.685-1.644 2.02 2.02 0 0 0 1.202-2.021 2.02 2.02 0 0 0 .639-2.266 2.02 2.02 0 0 0 .03-2.353 2.02 2.02 0 0 0-.58-2.28 2.02 2.02 0 0 0-1.15-2.053 2.02 2.02 0 0 0-1.644-1.686 2.02 2.02 0 0 0-2.023-1.203 2.02 2.02 0 0 0-2.265-.637 2.02 2.02 0 0 0-1.197-.392Zm0 .998c.421 0 .782.254.94.617a.095.095 0 0 0 .125.047.1.1 0 0 0 .031-.023 1.03 1.03 0 0 1 1.054-.334c.407.11.69.45.749.842a.092.092 0 0 0 .143.06 1.03 1.03 0 0 1 1.011-.096 1.03 1.03 0 0 1 .599 1.053.1.1 0 0 0 .035.082.1.1 0 0 0 .088.015 1.02 1.02 0 0 1 1.078.238c.298.298.374.734.23 1.103a.09.09 0 0 0 .012.088.1.1 0 0 0 .08.037 1.025 1.025 0 0 1 .916 1.633.093.093 0 0 0 .017.125q.018.015.042.02a1.026 1.026 0 0 1 .46 1.815.1.1 0 0 0-.032.082.1.1 0 0 0 .052.073 1.026 1.026 0 0 1-.022 1.872.092.092 0 0 0-.024.154 1.026 1.026 0 0 1-.508 1.803.093.093 0 0 0-.06.144 1.026 1.026 0 0 1-.968 1.609.09.09 0 0 0-.09.08.1.1 0 0 0 .003.043 1.026 1.026 0 0 1-1.34 1.308.1.1 0 0 0-.033-.007.093.093 0 0 0-.092.1 1.026 1.026 0 0 1-1.634.916.1.1 0 0 0-.052-.018.09.09 0 0 0-.092.076 1.026 1.026 0 0 1-1.815.461.1.1 0 0 0-.071-.033.09.09 0 0 0-.084.052 1.026 1.026 0 0 1-1.872-.022.094.094 0 0 0-.124-.048.1.1 0 0 0-.031.024 1.03 1.03 0 0 1-1.553.025 1.03 1.03 0 0 1-.25-.532.093.093 0 0 0-.143-.062 1.03 1.03 0 0 1-1.011.096 1.03 1.03 0 0 1-.599-1.053.093.093 0 0 0-.123-.096 1.02 1.02 0 0 1-1.078-.238 1.03 1.03 0 0 1-.229-1.103.092.092 0 0 0-.094-.125 1.026 1.026 0 0 1-.915-1.634.093.093 0 0 0-.059-.144 1.026 1.026 0 0 1-.46-1.815.093.093 0 0 0-.02-.155 1.027 1.027 0 0 1 .023-1.871c.062-.028.076-.112.024-.155a1.027 1.027 0 0 1 .507-1.804.1.1 0 0 0 .07-.055.1.1 0 0 0-.008-.088 1.026 1.026 0 0 1 .967-1.61.093.093 0 0 0 .086-.122 1.027 1.027 0 0 1 1.34-1.307.1.1 0 0 0 .07-.003.09.09 0 0 0 .055-.091 1.026 1.026 0 0 1 1.634-.916.093.093 0 0 0 .145-.058 1.026 1.026 0 0 1 1.815-.462.1.1 0 0 0 .07.034.09.09 0 0 0 .084-.052c.164-.351.519-.595.931-.595" clip-rule="evenodd"/></g><path fill="#000" fill-rule="evenodd" d="M36.958 17.275a.8.8 0 0 1 .214.57.7.7 0 0 1-.283.572q-.282.222-.727.222h-.308a2.98 2.98 0 0 1-2.619-1.507 3.15 3.15 0 0 1-.393-1.57v-3.918h-.788q-.36 0-.581-.191a.6.6 0 0 1-.223-.476q0-.317.223-.507.222-.19.581-.19h.788V7.994q0-.348.24-.571a.87.87 0 0 1 .616-.222q.376 0 .616.222t.239.571v2.284h1.455q.36 0 .582.19a.63.63 0 0 1 .223.508q0 .286-.223.477-.223.19-.582.19h-1.454v3.917q0 .636.376 1.063.378.429.924.429h.582q.309 0 .522.222Zm8.814-6.798c.695.37 1.28.917 1.694 1.587a4.17 4.17 0 0 1 .625 2.244v3.538a.76.76 0 0 1-.248.579.9.9 0 0 1-.625.23.9.9 0 0 1-.625-.23.75.75 0 0 1-.248-.58v-.586a4.2 4.2 0 0 1-1.454 1.062 4.5 4.5 0 0 1-1.849.381q-1.232 0-2.234-.571a4.14 4.14 0 0 1-1.574-1.578 4.46 4.46 0 0 1-.573-2.244q0-1.239.616-2.245.615-1.007 1.703-1.587a5.04 5.04 0 0 1 2.405-.579q1.317 0 2.387.58Zm-.84 6.41c.453-.25.829-.617 1.088-1.064q.394-.674.394-1.515a3 3 0 0 0-.394-1.522 2.83 2.83 0 0 0-1.087-1.072 3.1 3.1 0 0 0-1.548-.388q-.856 0-1.55.389a2.9 2.9 0 0 0-1.095 1.07 2.94 2.94 0 0 0-.402 1.523 2.9 2.9 0 0 0 1.497 2.578q.694.39 1.55.389.856 0 1.548-.389Zm6.804 1.482q-1.026-.333-1.608-.872a.65.65 0 0 1-.223-.492q0-.38.343-.619.324-.222.599-.222.341 0 .65.286.326.333.975.58a3.9 3.9 0 0 0 1.387.245q.975 0 1.514-.302.54-.3.54-.809 0-.491-.531-.816-.531-.326-1.797-.548-3.285-.586-3.286-2.506 0-.777.496-1.317.497-.54 1.3-.81a5.4 5.4 0 0 1 1.712-.269q1.113 0 1.994.334.882.332 1.395.92.223.253.223.508 0 .27-.292.491a.84.84 0 0 1-.479.127 1.22 1.22 0 0 1-.804-.301 2.6 2.6 0 0 0-.907-.516q-.48-.15-1.164-.15-.788 0-1.292.245-.505.246-.505.69 0 .317.171.531t.65.397 1.387.357q1.866.349 2.644.968.78.618.779 1.602 0 .73-.428 1.325-.428.594-1.258.935t-1.994.341a7 7 0 0 1-2.19-.333Zm15.164-.396q0 .348-.308.587a.9.9 0 0 1-.548.19.77.77 0 0 1-.616-.286l-3.252-3.727-.855.697v2.428q0 .348-.231.563t-.608.214c-.377 0-.453-.071-.608-.214a.73.73 0 0 1-.23-.563V7.027q0-.348.23-.563.232-.214.608-.214c.376 0 .454.071.608.214q.23.214.23.563v6.456l4.16-3.442a.76.76 0 0 1 .53-.206q.36 0 .582.254a.65.65 0 0 1 .222.491.65.65 0 0 1-.273.54l-3.15 2.601 3.32 3.776a.65.65 0 0 1 .189.476m8.087-7.496c.695.37 1.28.917 1.694 1.587q.625 1.007.625 2.244v3.538a.76.76 0 0 1-.248.579.9.9 0 0 1-.625.23.9.9 0 0 1-.625-.23.76.76 0 0 1-.248-.58v-.586a4.2 4.2 0 0 1-1.455 1.062 4.5 4.5 0 0 1-1.848.381q-1.232 0-2.234-.571a4.15 4.15 0 0 1-1.574-1.578 4.46 4.46 0 0 1-.573-2.244q0-1.239.616-2.245.615-1.007 1.703-1.587a5.04 5.04 0 0 1 2.404-.579q1.319 0 2.388.58Zm-.839 6.41c.452-.25.828-.617 1.087-1.064q.394-.674.394-1.515a3 3 0 0 0-.394-1.522 2.83 2.83 0 0 0-1.087-1.072 3.1 3.1 0 0 0-1.549-.388q-.856 0-1.548.389a2.9 2.9 0 0 0-1.096 1.07 2.94 2.94 0 0 0-.402 1.523 2.9 2.9 0 0 0 1.498 2.578 3.1 3.1 0 0 0 1.548.389q.855 0 1.55-.389Zm14.3-10.415q.24.222.239.587v7.233a4.17 4.17 0 0 1-.624 2.245c-.415.67-1 1.217-1.695 1.586q-1.07.58-2.388.58t-2.404-.58a4.34 4.34 0 0 1-1.703-1.586 4.2 4.2 0 0 1-.616-2.244q0-1.237.573-2.245a4.14 4.14 0 0 1 1.575-1.578 4.4 4.4 0 0 1 2.233-.572q.993 0 1.849.381a4.2 4.2 0 0 1 1.455 1.063V7.06a.75.75 0 0 1 .248-.587.9.9 0 0 1 .624-.222q.394 0 .634.222Zm-2.919 10.414c.454-.25.83-.621 1.087-1.071q.394-.681.394-1.523 0-.84-.394-1.515a2.84 2.84 0 0 0-1.087-1.062 3.1 3.1 0 0 0-1.549-.389q-.855 0-1.548.389c-.453.25-.831.617-1.096 1.062q-.401.675-.402 1.515 0 .842.402 1.524c.263.448.64.818 1.096 1.07a3.1 3.1 0 0 0 1.548.389q.856 0 1.55-.389Zm14.248-2.22a.82.82 0 0 1-.564.198h-6.504q.189 1.11 1.087 1.792t2.2.682a3.6 3.6 0 0 0 1.069-.174q.556-.175.915-.429a.93.93 0 0 1 .565-.174q.325 0 .514.159.308.237.308.539 0 .285-.274.476-.582.429-1.446.698-.865.27-1.652.27-1.403 0-2.516-.564a4.27 4.27 0 0 1-1.737-1.562q-.624-1-.625-2.268 0-1.269.59-2.277a4.1 4.1 0 0 1 1.644-1.57q1.052-.564 2.388-.564 1.317 0 2.276.54a3.67 3.67 0 0 1 1.471 1.507q.514.967.514 2.22a.64.64 0 0 1-.223.5Zm-6.067-2.768q-.779.633-.984 1.696h5.7q-.155-1.062-.856-1.696-.702-.636-1.831-.636-1.25 0-2.029.635Z" clip-rule="evenodd"/></g><defs><clipPath id="a"><path fill="#fff" d="M0 0h100v25H0z"/></clipPath></defs></svg>