<svg xmlns="http://www.w3.org/2000/svg" width="457.143" height="64" fill="none" viewBox="0 0 100 14"><g fill-rule="evenodd" clip-path="url(#a)" clip-rule="evenodd"><path fill="#1B1A32" d="M4.36 5.127c.767 0 1.206-.417 1.206-1.146 0-.686-.472-1.146-1.176-1.146H2.65V1.547C2.65.618 1.983.132 1.324.132.667.132 0 .618 0 1.547v8.882c0 2.134.851 3.086 2.758 3.086 1.034 0 1.625-.265 2.064-.524.336-.187.456-.582.456-.89 0-.571-.382-1.208-.93-1.208a.7.7 0 0 0-.332.083 1.4 1.4 0 0 1-.631.157c-.342 0-.734-.12-.734-1.062V5.128h1.71-.001Zm6.129-.359a2.9 2.9 0 0 1 .991-.184c1.103 0 1.874.712 2.256 1.423l-4.94 1.797c-.225-1.067.086-2.45 1.693-3.036M15.794 9.7a1.2 1.2 0 0 0-.751.278l-.037.033a4.9 4.9 0 0 1-1.626.955c-.44.166-.904.253-1.374.259-1.145 0-2.108-.612-2.602-1.645l6.094-2.218c.96-.35 1.089-1.06.89-1.608-.744-2.043-2.497-3.313-4.575-3.313-.677 0-1.382.131-2.093.39C8.157 3.4 7.045 4.425 6.5 5.796c-.492 1.243-.48 2.705.033 4.115.831 2.283 2.599 3.593 4.85 3.593.445-.002.89-.05 1.326-.142a8 8 0 0 0 1.168-.33c1.02-.37 1.948-.906 2.685-1.549l.007-.005.006-.007c.245-.277.342-.607.273-.93-.1-.48-.554-.842-1.055-.842ZM26.02 8.01c0 1.555-.883 3.123-2.854 3.123-1.69 0-2.824-1.242-2.824-3.093 0-1.885 1.147-3.15 2.853-3.15 1.406 0 2.825.964 2.825 3.121Zm1.384-5.504c-.785 0-1.355.558-1.355 1.326v.042c-.78-.885-1.937-1.368-3.301-1.368-3.079 0-5.146 2.213-5.146 5.505 0 3.293 2.031 5.505 5.056 5.505 1.482 0 2.691-.54 3.45-1.527v.202c0 .977.67 1.325 1.296 1.325.781 0 1.266-.508 1.266-1.326V3.832c0-.805-.497-1.326-1.266-1.326m15.24 0c-1.557 0-2.762.69-3.349 1.903-.644-1.246-1.803-1.903-3.368-1.903-1.166 0-2.208.462-2.825 1.228-.018-.714-.57-1.228-1.325-1.228-.674 0-1.355.428-1.355 1.385v8.299c0 .855.471 1.326 1.326 1.326.849 0 1.355-.496 1.355-1.326V7.234c0-1.636.729-2.465 2.167-2.465 1.412 0 1.989.784 1.989 2.705v4.686c0 .874.47 1.356 1.325 1.356.86 0 1.354-.495 1.354-1.356V7.532c0-1.86.72-2.764 2.198-2.764 1.394 0 1.988.828 1.988 2.764v4.628c0 .874.47 1.355 1.325 1.355.862 0 1.356-.494 1.356-1.355V7.532c0-3.335-1.4-5.026-4.161-5.026m20.338 0c-.59 0-1.082.425-1.318 1.133l-2.263 6.395-2.235-6.365c-.243-.698-.55-1.163-1.259-1.163-.757 0-1.037.41-1.287 1.163l-2.236 6.365-2.262-6.393c-.237-.71-.73-1.135-1.319-1.135-.563 0-1.147.463-1.147 1.236 0 .248.058.495.19.824l3.044 7.763c.291.712.657 1.187 1.495 1.187.917 0 1.266-.637 1.467-1.192l2.054-5.598 1.996 5.595c.264.793.769 1.194 1.498 1.194.697 0 1.21-.399 1.525-1.188l3.013-7.785c.13-.293.19-.547.19-.8 0-.705-.492-1.236-1.146-1.236m6.818 8.895c-1.76 0-2.854-1.299-2.854-3.39 0-2.024 1.12-3.331 2.854-3.331s2.854 1.307 2.854 3.33c0 2.06-1.12 3.391-2.854 3.391m0-8.865c-1.739 0-3.178.571-4.165 1.651-.882.968-1.37 2.326-1.37 3.824 0 1.5.487 2.863 1.37 3.838.987 1.09 2.428 1.667 4.166 1.667 4.084 0 5.534-2.966 5.534-5.505 0-2.525-1.45-5.475-5.535-5.475m12.01-.03a3.51 3.51 0 0 0-2.679 1.22 1.33 1.33 0 0 0-1.32-1.22c-.744 0-1.327.583-1.327 1.326v8.358c0 .87.667 1.326 1.326 1.326s1.325-.456 1.325-1.326V8.22c0-2.398.657-3.42 2.198-3.42.245 0 .387.032.525.064.121.028.236.055.4.055.632 0 1.057-.473 1.057-1.177 0-.75-.591-1.236-1.505-1.236m7.617 5.533 2.894-3.012c.403-.403.784-.784.784-1.315a1.18 1.18 0 0 0-1.207-1.206c-.538 0-.92.413-1.29.813l-3.503 3.62V1.457a1.325 1.325 0 0 0-2.652-.001V12.19a1.326 1.326 0 0 0 2.651 0V8.934l3.507 3.647.182.188c.352.367.715.746 1.254.746.638 0 1.177-.538 1.177-1.176 0-.463-.315-.816-.636-1.138L89.425 8.04z"/><path fill="#FF1FA8" d="M97.083 8.87a2.33 2.33 0 0 0-2.325 2.326 2.33 2.33 0 0 0 2.325 2.325 2.33 2.33 0 0 0 2.326-2.325 2.33 2.33 0 0 0-2.326-2.325Z"/></g><defs><clipPath id="a"><path fill="#fff" d="M0 0h100v13.669H0z"/></clipPath></defs></svg>