<svg xmlns="http://www.w3.org/2000/svg" width="64" height="64" fill="none" viewBox="0 0 50 50"><g clip-path="url(#a)"><path fill="#F22F46" d="M24.975 0C38.795 0 49.95 11.167 49.95 25S38.794 50 24.975 50 0 38.833 0 25 11.155 0 24.975 0m0 6.667A18.27 18.27 0 0 0 6.66 25a18.27 18.27 0 0 0 18.315 18.333A18.27 18.27 0 0 0 43.29 25 18.27 18.27 0 0 0 24.975 6.667M18.815 26c2.83 0 5.16 2.333 5.16 5.167s-2.33 5.166-5.16 5.166-5.162-2.333-5.162-5.166S15.983 26 18.814 26Zm12.32 0c2.83 0 5.162 2.333 5.162 5.167s-2.331 5.166-5.161 5.166c-2.831 0-5.162-2.333-5.162-5.166S28.304 26 31.136 26Zm0-12.333c2.83 0 5.162 2.333 5.162 5.166S33.966 24 31.136 24c-2.831 0-5.162-2.333-5.162-5.167s2.33-5.166 5.162-5.166Zm-12.32 0c2.83 0 5.16 2.333 5.16 5.166S21.645 24 18.815 24s-5.162-2.333-5.162-5.167 2.33-5.166 5.161-5.166Z"/></g><defs><clipPath id="a"><path fill="#fff" d="M0 0h50v50H0z"/></clipPath></defs></svg>