<svg xmlns="http://www.w3.org/2000/svg" width="278.261" height="64" fill="none" viewBox="0 0 100 23"><g clip-path="url(#a)"><path fill="#000" fill-rule="evenodd" d="M59.864 10.4V16h2.2v-.65c0-.357.033-.647.075-.644s.211.195.378.425c.463.639 1.136.964 2.004.967.946.003 1.536-.215 2.184-.807.89-.813 1.259-1.848 1.259-3.525 0-1.465-.34-2.48-1.11-3.315-.695-.754-2.038-1.132-3.034-.853-.495.139-1.18.673-1.469 1.146-.186.305-.187.298-.187-1.819V4.8h-2.3zM43.887 7.648c-1.463.413-2.151 1.195-2.166 2.46-.016 1.394.806 2.063 3.122 2.54 1.327.273 1.689.44 1.785.822.147.586-.448 1.03-1.38 1.03-.624 0-1.108-.25-1.365-.701-.153-.27-.218-.298-.68-.298-.28 0-.786.028-1.123.063-.6.063-.612.07-.55.325.157.658.675 1.327 1.334 1.726 1.046.634 3.177.702 4.444.142q1.733-.767 1.638-2.463c-.028-.495-.098-.755-.276-1.015-.466-.68-1.055-.925-3.422-1.426-1.214-.257-1.588-.764-1-1.353.32-.32.84-.455 1.368-.356.393.073 1.048.593 1.048.83 0 .13.106.145.675.091.371-.035.844-.064 1.05-.064.31 0 .375-.036.375-.204 0-.667-.733-1.55-1.615-1.946-.52-.233-.784-.282-1.676-.314-.735-.026-1.22.008-1.586.111m28.28.012a3.82 3.82 0 0 0-2.464 2.086c-.547 1.194-.544 3.02.006 4.22.72 1.573 2.422 2.383 4.469 2.126 1.482-.186 2.552-.966 2.96-2.158l.109-.316-1.038-.07-1.038-.071-.266.315c-.373.444-.746.608-1.38.608-.63 0-1.011-.122-1.35-.432-.296-.272-.606-.929-.609-1.293l-.002-.275h5.7v-.71c0-1.274-.375-2.33-1.087-3.065-.946-.975-2.544-1.359-4.01-.965m10.2-.002c-.48.208-.682.411-.989.992l-.264.5-.03-.775-.029-.775h-2.191V16h2.3v-2.61c0-2.911.03-3.074.671-3.563.392-.299 1.26-.425 1.614-.235.118.063.215.097.215.075s.154-.455.342-.962l.343-.921-.34-.142c-.437-.183-1.2-.175-1.642.016m6.647-.018c-.408.18-.843.632-1.051 1.091-.16.354-.177.365-.235.15-.034-.127-.062-.467-.063-.756l-.001-.525h-2.2V16h2.3v-2.568c0-2.404.013-2.597.21-3.002.143-.296.35-.516.657-.695.396-.232.519-.256 1.071-.204l.624.058.319-.882c.175-.484.319-.905.319-.934s-.142-.103-.315-.163c-.424-.148-1.267-.132-1.635.03m-56.79 1.135c-.034.646-.026 2.1.017 3.23.076 1.972.09 2.077.362 2.631.455.93 1.36 1.465 2.48 1.463.952 0 1.902-.496 2.305-1.203.124-.217.26-.395.3-.395.042 0 .076.337.076.749V16h2.2V7.6h-2.3l-.003 2.425c-.002 2.524-.058 3.04-.372 3.461-.36.482-.696.657-1.263.657-.612 0-.973-.192-1.267-.673-.18-.297-.195-.52-.195-3.095V7.6h-2.278zm41.873.561c.18.075.446.28.593.453.27.322.51.972.414 1.127-.029.046-.843.084-1.81.084h-1.756l.058-.36c.17-1.042 1.484-1.728 2.5-1.304Zm-9.255.328c.435.332.712.95.787 1.759.154 1.646-.602 2.877-1.765 2.877-1.164 0-1.92-1.232-1.766-2.877.099-1.056.557-1.812 1.228-2.025.458-.145 1.131-.027 1.516.266" clip-rule="evenodd"/><path fill="#000" d="M99.96 7.6h-2.464l-.88 3.1c-.484 1.705-.908 3.1-.943 3.1s-.45-1.384-.924-3.075l-.863-3.075-1.212-.028c-.668-.016-1.213-.016-1.213 0 0 .015.675 1.962 1.5 4.326 1.665 4.77 1.642 4.646.972 5.21-.28.236-.37.258-.834.204l-.519-.061-.215.724c-.119.399-.238.8-.264.892-.039.134.065.19.52.285 1.538.32 3.105-.357 3.748-1.618.115-.226.922-2.441 1.793-4.922A495 495 0 0 1 99.847 7.9l.114-.3Z"/><path fill="#000" fill-rule="evenodd" d="M53.06 7.6a3.82 3.82 0 0 0-2.464 2.086c-.547 1.194-.544 3.02.006 4.22.72 1.572 2.423 2.382 4.469 2.125 1.482-.186 2.552-.966 2.96-2.157l.11-.316-1.04-.071-1.037-.07-.266.315c-.373.443-.746.608-1.38.608-.63 0-1.011-.122-1.35-.432-.296-.272-.606-.93-.609-1.293l-.002-.275h5.7v-.71c0-1.275-.375-2.331-1.087-3.065-.946-.975-2.544-1.36-4.01-.965m2.523 2.13a1.9 1.9 0 0 0-.593-.454c-1.017-.425-2.332.261-2.501 1.304l-.058.36h1.757c.966 0 1.78-.038 1.81-.085.095-.154-.145-.805-.415-1.126Z" clip-rule="evenodd"/><path fill="#FF2F5B" d="M0 0h11.4v22.8C5.104 22.8 0 17.696 0 11.4z"/><path fill="#4E4AFF" d="M22.798 11.4h-11.4v11.4c6.297 0 11.4-5.104 11.4-11.4"/><path fill="#FFBB25" d="M17.098 11.4a5.7 5.7 0 1 0 0-11.4 5.7 5.7 0 0 0 0 11.4"/></g><defs><clipPath id="a"><path fill="#fff" d="M0 0h100v22.8H0z"/></clipPath></defs></svg>