<svg xmlns="http://www.w3.org/2000/svg" width="284.444" height="64" fill="none" viewBox="0 0 120 27"><g clip-path="url(#a)"><path fill="#000" fill-rule="evenodd" d="m69.785 17.591-4.001-14.89C65.42 1.46 64.474.657 63.31.657c-1.091 0-2.11.73-2.473 2.044L56.69 17.664c-.218.584-.728.584-.8-.073L53.27.73c0-.22-.218-.365-.436-.365h-5.602c-.218 0-.364.219-.364.438v.073l5.165 24.452c.073.292.291.438.583.438h5.602c.218 0 .436-.219.509-.438l3.929-13.941c.145-.438.727-.438.8 0l3.71 13.941c.073.22.291.438.51.438h5.674c.219 0 .51-.219.51-.438L79.025.876c.073-.22-.145-.511-.436-.511h-5.02c-.219 0-.364.146-.437.365l-2.546 16.788c-.073.657-.655.657-.8.073Zm-48.963 3.796H2.197a.73.73 0 0 0-.728.73v3.066c0 .364.291.73.728.73h18.625a.73.73 0 0 0 .727-.73v-3.066c0-.438-.29-.73-.727-.73m2.183-20.365c.145-.22.072-.438-.146-.511-.073-.073-.145-.073-.218-.073H17.33a.4.4 0 0 0-.364.219l-4.947 10.365c-.073.219-.364.292-.582.219-.073-.073-.146-.073-.219-.22L6.417.658a.4.4 0 0 0-.364-.219H.45c-.364 0-.582.292-.364.657l8.803 16.57c.728 1.46 1.746 1.897 2.692 1.897s1.892-.438 2.692-1.898l8.73-16.642Zm96.617 20.365h-8.512c-.219 0-.437-.22-.437-.438V.803c0-.22-.218-.438-.436-.438h-5.239c-.218 0-.436.219-.436.438v24.671c0 .22.218.438.436.438h14.551c.218 0 .437-.219.437-.438v-3.65c.073-.218-.146-.437-.364-.437M91.175 0c-5.82 0-10.477 3.796-10.477 13.212 0 9.562 4.511 13.065 10.695 13.065 4.948 0 8.44-2.481 9.458-7.007.073-.219-.072-.438-.291-.51l-4.147-1.169c-.218-.073-.509.073-.509.292-.655 2.847-1.964 3.796-4.365 3.796-2.692 0-4.51-1.679-4.656-6.934h13.677c.219 0 .437-.22.437-.438v-2.774C100.997 4.38 97.359 0 91.175 0m3.929 10.584h-8.221c.072-4.234 1.891-6.204 4.292-6.204 2.692.073 3.929 2.335 3.929 6.204M34.354 0c-6.33 0-10.55 3.942-10.55 13.139s4.22 13.138 10.55 13.138 10.477-3.941 10.477-13.138S40.684 0 34.354 0m0 21.825c-2.473 0-4.22-2.044-4.22-8.686 0-6.643 1.674-8.613 4.22-8.613 2.547 0 4.22 2.043 4.22 8.613 0 6.642-1.673 8.686-4.22 8.686" clip-rule="evenodd"/></g><defs><clipPath id="a"><path fill="#fff" d="M0 0h120v27H0z"/></clipPath></defs></svg>