<svg xmlns="http://www.w3.org/2000/svg" width="64" height="64" fill="none" viewBox="0 0 32 32"><circle cx="16" cy="16" r="14" fill="url(#a)" opacity=".852"/><path fill="url(#b)" d="M6.751 26.533a.4.4 0 0 1-.058-.053c-.362-.33-.952-.85-1.57-1.636-.532-1.155-.23-3.096 1.08-5.836 1.85-3.867 4.81-7.793 6.024-9.185-.346-.386-1.415-1.44-2.93-2.578S6.677 5.99 6.293 6.06c.355-.386 1.184-1.111 1.879-1.6 2.155-1.067 6.136.735 7.843 1.763v7.066c-4.35 3.348-8.376 8.519-9.19 10.533-.62 1.538-.375 2.39-.132 2.658z"/><path fill="url(#c)" d="M6.751 26.533a.4.4 0 0 1-.058-.053c-.362-.33-.952-.85-1.57-1.636-.532-1.155-.23-3.096 1.08-5.837 2.148-4.489 6.024-9.185 6.024-9.185s.691 1.718 2.262 4.696c-4.045 3.585-6.85 7.29-7.664 9.304-.62 1.538-.375 2.39-.132 2.658z"/><path fill="url(#d)" d="M25.278 26.533a.4.4 0 0 0 .059-.053c.362-.33.952-.85 1.569-1.636.533-1.155.23-3.096-1.08-5.836-1.85-3.867-4.81-7.793-6.023-9.185.345-.386 1.415-1.44 2.93-2.578s2.62-1.254 3.004-1.185c-.355-.386-1.184-1.111-1.88-1.6-2.154-1.067-6.135.735-7.842 1.763v7.066c4.35 3.348 8.375 8.519 9.19 10.533.62 1.538.375 2.39.132 2.658z"/><path fill="url(#e)" d="M25.278 26.533a.4.4 0 0 0 .059-.053c.362-.33.952-.85 1.569-1.636.533-1.155.23-3.096-1.08-5.837-2.148-4.489-6.023-9.185-6.023-9.185s-.692 1.718-2.262 4.696c4.044 3.585 6.85 7.29 7.663 9.304.621 1.538.376 2.39.133 2.658z"/><defs><linearGradient id="b" x1="12.993" x2="13.23" y1="4.726" y2="12.785" gradientUnits="userSpaceOnUse"><stop stop-color="#008B00"/><stop offset="1" stop-color="#6CC329"/></linearGradient><linearGradient id="c" x1="10.148" x2="12.874" y1="12.667" y2="16.4" gradientUnits="userSpaceOnUse"><stop stop-color="#008C00"/><stop offset="1" stop-color="#48BF21"/></linearGradient><linearGradient id="d" x1="19.037" x2="18.8" y1="4.726" y2="12.785" gradientUnits="userSpaceOnUse"><stop stop-color="#008B00"/><stop offset="1" stop-color="#6CC329"/></linearGradient><linearGradient id="e" x1="21.881" x2="19.156" y1="12.667" y2="16.4" gradientUnits="userSpaceOnUse"><stop stop-color="#008C00"/><stop offset="1" stop-color="#48BF21"/></linearGradient><radialGradient id="a" cx="0" cy="0" r="1" gradientTransform="rotate(90.055 .757 15.242)scale(15.5)" gradientUnits="userSpaceOnUse"><stop stop-color="#FAFAFA"/><stop offset=".5" stop-color="#EFEFEF"/><stop offset=".829" stop-color="#C0BEC0"/><stop offset="1" stop-color="#879288"/></radialGradient></defs></svg>